<?xml version="1.0" encoding="UTF-8"?>
<svg xmlns="http://www.w3.org/2000/svg" version="1.1" viewBox="0 0 864 864">
  <defs>
    <style>
      .cls-1 {
        fill: none;
      }

      .cls-2 {
        fill: #e78ac3;
      }

      .cls-2, .cls-3, .cls-4, .cls-5, .cls-6, .cls-7 {
        stroke-linejoin: round;
      }

      .cls-2, .cls-3, .cls-5, .cls-7 {
        fill-opacity: .9;
        stroke: #fff;
        stroke-opacity: .9;
        stroke-width: .4px;
      }

      .cls-3 {
        fill: #ffd92f;
      }

      .cls-8 {
        fill: #262626;
      }

      .cls-4 {
        fill-opacity: .4;
        opacity: .2;
        stroke: #ccc;
        stroke-opacity: .4;
        stroke-width: .5px;
      }

      .cls-5 {
        fill: #fc8d62;
      }

      .cls-6 {
        stroke: #000;
      }

      .cls-7 {
        fill: #66c2a5;
      }
    </style>
  </defs>
  <!-- Generator: Adobe Illustrator 28.7.7, SVG Export Plug-In . SVG Version: 1.2.0 Build 194)  -->
  <g>
    <g id="Layer_1">
      <g id="Layer_1-2" data-name="Layer_1">
        <g id="Layer_1-2">
          <g id="PatchCollection_1">
            <rect class="cls-1" x="-223.9" y="-4086.6" width="2951.8" height="5170.2"/>
            <path id="m74ee61a0be" class="cls-4" d="M423.5,132.6l-3,4.1-.6,5.8-1,2.1-1.3,5.9-2.7,1.6-1.1-.6-10,2.1-.4-1.8h-4.8l-1.6-.7-.8-2.5v-4.4h0l-3.5-9.2-1.8.6-1.7.4h-1.6c0,.1-3,.8-3,.8l-.7.3-.7.7-.6.6-2.3.8-1,.4-1.8.4h-.6c0,.1-3.8-2-3.8-2l-14.2,6.5-5.2,2.3h-9.7l-.6-2-6.6-19.2-16.8.7-1,.3-.3.3h0c0,0-.3,1-.3,1l-.4,1.7h-.6c0,.1-.7,0-.7,0h-1.8c0,.1-.8.1-.8.1h-2.3l-4.7-.6.4,1.1-1.7.6-.6-.8-3.8,5.9-1.4,3-.8,1.7-4.9-2.8h-.6l-.6-.6,1.1,2.1,4.7,9.2-.4.3-.6.3-3.7-1.8-.6-.3-.6-.6h0l-1.6-1.1-1.3,1.4h-.3l-1.7,1.7-.4.4-.7.7-1.1-1.1-1.3-1.1-1.3-.6-1.3-.6-.8-.3h-3.9l-1.6,5.9-11,6.9-3.8,2.4,5.8,8.5,4.9,6.2,2,2.7,2.7,4.2,2.3,7.5v3.2l.6,3.4.6,3.2v3.4c-.1,0-1,12-1,12l-3.5,6.2-.3,3.8v1.7c-.1,0-.3.1-.3.1v1.3c-.1,0-12.8,4.4-12.8,4.4l-3.5-5.2-.4.3-1.8,3-1.7,1h0l-1,.3-.3-1.3-.4-1.6-5.2,2.1-4.8.6-2.5.7-2.4.6-1.1.6-.4.4-2.7,4.8-2.1,3.7-1,2.8-.7,1.8-.4,1.4-.3,1.1v.6c-.1,0-.3.3-.3.3h0c0,.1.1.7.1.7h0c0,.1-1.6,1-1.6,1h-.3c0,.1-2.1.3-2.1.3l-10-1.4-4.9-2.4v2.1c-.1,0,4.1,5.2,4.1,5.2l2.3,5.8-1.1,1.8-2,8-3.5,14.4.4,1.8v3c-.1,0,.3,2.7.3,2.7l.7,2.8v.4l-1.1,15.4-.8,16.1,7.6,1.8-1.4,14.7-.7,4.8-1.1,11.4v2l-.3.6-4.4,7.1-.8.7.3.8-.4.6-2.3,3.7-8.3,13.5-4.8,7.8-.3,1,2.8.6,1.3.4h.6l1,.4h6.3c0,.1.6.1.6.1l1.4.6,1.1.4,1.8.6,1.7.4,1.1.3,1.4.3,1.6.4,1.6.3,1.4.3,2.1.8h.1l.3.3,1.1-2,.6.4v1.6h3.7l4.4.6.4,1.8.3,2.1v.8c.1,0,1.1,1,1.1,1l1.6,1.1,1,.6v3.4c-.1,0-1,6.1-1,6.1l-4.9,18-3.2-.3h-7.6c0,.1-1.7.3-1.7.3h-1.4l-.3.3-2.3,2.3-6.9,4.2-.3.3v.3c-.1,0-.3.3-.3.3v6.9h-.1l.3.3.3.3.3.3h.1l.3.4h.3c0,.1.6.3.6.3l1.7.3-1,18.8h-2.1v.3h0v.3h0l-.4,2.8h-1.1l-.7,4.8-.4,4.5v1.8h-1.3v1.3l1,2.3h-1.3c0,.1-1.8.6-1.8.6l-3.9.7-1.7.4v.3l-2.7.6h0v-.3l-2.3.4-2.1.6-1.3.4h-.3l-.7.4-.8.4-.8.6-.8.6-.8.7-.7.7-.7.7-.6.7-.7.8-.6.8-.4.8h.6c0,.1-.8.4-.8.4l-.3.6-.4,1-.3,1v1.1c-.1,0-.3.7-.3.7v.4h0c0,.1-.3,2-.3,2v.6h0v2h.6c0,0-.3,0-.3,0v.7c.1,0,.3.3.3.3l1,3.4.4,1.4h.4-.3l1.1,4.5.6,1.6.6,1.4,2.3,4.5.7,1.7.3,2v3c-.1,0-.7,1.4-.7,1.4l-.6,1.3v.3c-.1,0,0,.4,0,.4l7.6-3.7h.3c0,0,2.4-.7,2.4-.7l5.2-2.7v19c.1,0,3-.3,3-.3h.4l1.6.3h1.3l1.6.3h3.1l5.5-.4h9.9c0,0,9.4,0,9.4,0h7.6l2.1-3.7h.7c0,0,2.4-.7,2.4-.7h.1l.7.4h0c0,0,.7.6.7.6h1.7v-.3h.3l7.1-1v-1.7c.1,0,.1-.7.1-.7v-.6h2.3c0,0,.7,0,.7,0h4.8l-2,5.5-2.7,7.8-.3.8v.4l.7.3,3.2,1,4.2,1.3-.4,1.6,1.3.3,1.6.4-.4.8h.4c0,0,.3.4.3.4v.3c.1,0,.3.6.3.6v12.3h2.5c0,0,.3.4.3.4l.4.4.4.4.4.8.4.8h.3l.4.6v.3l.8.4v.6l-.3.3.6.3,1.7.7v1.7l.3.6.6.6-2.1,2.4,2.4,1.3,2.4,1.4,2.1,1.1,2.1,1.4-.7,1.4,4.2,3,2.8,1.8,3.2,2.1.7.4,1.6.7,5.4,2.7.6.3,2.1.7,1,.4,2,1.6.7.4,1,.4,8.5,2v7.3h0l1.4,1,4.2,4.8,1,1.3,5.6,4.2,3.5,2.1,6.6,4.2,1.3.4,4.5,1.6,3,1,2.4,1.4,7.6,7.1,2.5,2.8-7.8,12.3.6,2.5v12l4.1,8.5.6.4h8.5c0,0-5.8,7.6-5.8,7.6l2,6.5,1.4,4.4-.3.3-3.7,6.6-1,2v.3h0c0,0,.8,1.4.8,1.4l.3.3h.4c0,0,2.5,1,2.5,1l-.3,1.1v.4l-2.8,9.9,4.1,1.1-.7,2.8,6.6,1.8h.4v-.8h22.4c0,0,1.6,0,1.6,0h13.5c0,0,.4,0,.4,0v-5.5h8.2l15.5-.3.4-.4-.8-.7,2.8-3.1h.4l.8-.6-.3-.6,5.6-6.2.3-1.4,2.1-2.3h0l1.3.6,2.1,1.6.8.8,1,1,1.3,1.1.4,1,2.5,2.5.4.3,1.1.7.6.3.7.4,2.5.8,1,.3,1.7.6h.4c0,0,2.1,1,2.1,1l.6.4,2.7,1.7,2.8,2,1,.8,1.4,1.1.7.4,1.7,1,2,1.4,1.7,1.4,1.3,1,.4.3.7.4,1.4.8,1.7,1.1,2.8,1.7,2.4,2,1.3.7,1.1,1.3,1,.8.6.4,1.3.4h.4l3.4-1.4.4-.4.4-.6.4-.7.4-.8,2-4.4.6-.8.3-.3,1.4-1.8.6-.6.7-.6,2.5-1.6,2.8-1.3.7-.3h.7l2.5.4h2.5l1.1-.4,1.6-.3,3-.8h.3l.8-.4,1-.6h.6c0,0,.8,0,.8,0h1.6v-.3l-.8-1.3-.6-1.1-.4-.8v-.3c0,0-.4-.3-.4-.3l-.4-.4.3-.3-.3-.3h-.3c0,0-.3-.3-.3-.3h-.4c0,0-.4-.3-.4-.3l-.8-.4,2.5-2,3.9-3.2,3.7-2.8,1.8-1.4.4-.3,1-.7.7-.4-1.7-3,3.4-2.8,6.8-6.8.7-.3,1.8.6,1.8-.6,2.5-1.4,2.7-2.4,1.4-1.6,1.8-3.2,1.3-3.8h.6c0,0,.7-3.1.7-3.1l.4-1.1,3.4-2.7.7.7,1,3.2,1.1,1.3,1.3,3.5,1.1,1,2.1-1,.3-4.1.6-3.1.6-2.5,1-2,.4-.6.4-.6,1.6-2.7,1-2h0v-.3c0,0,0-.3,0-.3l.3-.3h.4c0,0,.4-.3.4-.3h1v-.4c0,0,.6-.4.6-.4v-1l-.3-.4-.3-.8,2.3-1.3,4.9-4.7,3.8-6.6,3.4-3.1h2.4l2.5-.6.4-1-1.1-4.1v-.8c0,0,2.3-2.1,2.3-2.1l6.6-1.1,7.9-1.4,4.5-.8,4.7-.8,3.2-1.6,3.1-1.4v-3.9l3.4-1,7.1-1.8,3.5-1,3.5-1,.3,2.7,13.1-2.1,4.9-.7,1.6-.3,1.3-.3,1.3-.3,6.1-1,5.4-.8,2-.3,1.7-.3.4.4,2.7-1.3,1.7-1.1,1.1-.8.8-1.4,1.8-1,4.4-2.5,3.2-1.7,1.4-.7,2.5-1.4,3.9-2.3,4.1-2.1,2.4,1.7,2,1.3,1.8,1.3,3.1,2.1,1.6,1,3.7,2.5,2.7,1.8,2.5,1.7-2.3,3.2,6.1,5.1,4.9,4.2.7.6.4.4,9-12.3.3-.3.3-1-12.1-9.9,2.1-3,.4-1.4,1-3.4,3.8-1.4,1.6-1.7,1-5.8.6-2.8,1.3-2,1.1-1.7h6.5v-2.4l4.5-.3-.7-2.4-3.9-1.3-.3-7.3h3.1l.6,3,1.7-.3-1.3-3.9-.3-.3-14.5-19.7,5.1-3.2,2.8-4.7-35.5-22.7,3.9-5.8v-2.1l3.1-2.3.8-1.3,7.3-3.8-3.4-3.9-.6-4.1,1.3-2.3,2.1-1.8,2.3-1.7,2.7-2.3,3.8-.3,4.2-.7h2l.7-.4-1.6-2.7-8.9-15.7-4.1-7.3-1-1.8v-.3c0,0-.4-.7-.4-.7h.3c0-.1-1.4-.1-1.4-.1v-.7l1.3-20.9,5.6-7.8.6-8h-1.3c0,.1-2.5,1.4-2.5,1.4l-4.7,3.5-4.8,1.3h-2.3l-6.2-.4-2.1-20.2,22.3-1.7,1.3-17.1-3.1-.3-2.8-21.7-84.6,14.9-15.7-1.1,3-1.7,1.3-1.1,1.1-1.3,1-1.7.6-1.3.3-1.6.8-11.7v-1.4c0,0-.4-1.4-.4-1.4l-.4-1.3-.7-1.1-1.3-1.6-4.1-3.5-3.4-2.8-1.3-1.3-1.3-1.4-.8-1.1-5.1-7.2-1.6-2.1.8-1,.7-9.6,1.1-11.6-.4-.4.3-4.4-4.4-5.2-4.5,1.3-3.7-4.1-.8,1.3,1.4,4.9-1,2.1-1.8,4.7-.7,1.8v.7c0,0-2.3,1.8-2.3,1.8l-5.5,2.3-2.3,2.4-3.2,2.5-1.3,2.1-2.7,3-10.3,1.8-25.4,4.9-1.3.3-21.6,4.2-4.1.7-6.8-24.5h0l-2-4.2-1,.6h-3.4l-1.4-4.2h.4c0-.1-9.6-16.1-9.6-16.1l-1-1-4.7-14-1-3,2.8-.8-2.7-10.4-2.1-8.9-1.4-5.5-1.6-5.9-.6-2.7-1.1-4.9-1.1-4.8,6.1-1.6,10.4-2.7-.8-3.7-.7-2.7-1-3.9-2-7.2-.3-1.4,2.4-.7-.4-1.3-1.1.3-1.7-4.7-.7-5.8h-1.3c0-.1-2.1,0-2.1,0l-2.3-13.5,6.6-.8-5.9-24.5-4.1,1-3.5-12.8,1.3-.4-4.7-18.3-10.9,3-3,.8h-3.4l-1.3,7.1-9.2-1.3-6.8,3.2-.8-4.5-6.2-.8-4.9,2.5-14.2,3-3.5-6.3-.8-1.6"/>
          </g>
          <g id="PathCollection_1">
            <rect class="cls-1" x="-223.9" y="-4086.6" width="2951.8" height="5170.2"/>
            <g>
              <path id="m6e8c6cba44" class="cls-7" d="M383.4,405.3c2,0,3.9-.8,5.4-2.3s2.3-3.4,2.3-5.4-.8-3.9-2.3-5.4-3.4-2.3-5.4-2.3-3.9.8-5.4,2.3-2.3,3.4-2.3,5.4.8,3.9,2.3,5.4,3.4,2.3,5.4,2.3Z"/>
              <path id="m6e8c6cba44-2" class="cls-7" d="M277.8,532.5c2,0,3.9-.8,5.4-2.3s2.3-3.4,2.3-5.4-.8-3.9-2.3-5.4-3.4-2.3-5.4-2.3-3.9.8-5.4,2.3-2.3,3.4-2.3,5.4.8,3.9,2.3,5.4,3.4,2.3,5.4,2.3Z"/>
            </g>
          </g>
          <g id="PathCollection_2">
            <rect class="cls-1" x="-223.9" y="-4086.6" width="2951.8" height="5170.2"/>
            <g>
              <path id="md4409fe896" class="cls-5" d="M372.8,376.7c2,0,3.9-.8,5.4-2.3s2.3-3.4,2.3-5.4-.8-3.9-2.3-5.4-3.4-2.3-5.4-2.3-3.9.8-5.4,2.3-2.3,3.4-2.3,5.4.8,3.9,2.3,5.4,3.4,2.3,5.4,2.3Z"/>
              <path id="md4409fe896-2" class="cls-5" d="M408.1,475.6c2,0,3.9-.8,5.4-2.3s2.3-3.4,2.3-5.4-.8-3.9-2.3-5.4-3.4-2.3-5.4-2.3-3.9.8-5.4,2.3-2.3,3.4-2.3,5.4.8,3.9,2.3,5.4,3.4,2.3,5.4,2.3Z"/>
              <path id="md4409fe896-3" class="cls-5" d="M432.8,399.7c2,0,3.9-.8,5.4-2.3s2.3-3.4,2.3-5.4-.8-3.9-2.3-5.4-3.4-2.3-5.4-2.3-3.9.8-5.4,2.3-2.3,3.4-2.3,5.4.8,3.9,2.3,5.4,3.4,2.3,5.4,2.3Z"/>
              <path id="md4409fe896-4" class="cls-5" d="M415.3,514.8c2,0,3.9-.8,5.4-2.3s2.3-3.4,2.3-5.4-.8-3.9-2.3-5.4-3.4-2.3-5.4-2.3-3.9.8-5.4,2.3-2.3,3.4-2.3,5.4.8,3.9,2.3,5.4,3.4,2.3,5.4,2.3Z"/>
            </g>
          </g>
          <g id="PathCollection_3">
            <rect class="cls-1" x="-223.9" y="-4086.6" width="2951.8" height="5170.2"/>
            <g>
              <path id="m250c059f88" class="cls-2" d="M437.4,389.1c2,0,3.9-.8,5.4-2.3s2.3-3.4,2.3-5.4-.8-3.9-2.3-5.4-3.4-2.3-5.4-2.3-3.9.8-5.4,2.3-2.3,3.4-2.3,5.4.8,3.9,2.3,5.4,3.4,2.3,5.4,2.3Z"/>
              <path id="m250c059f88-2" class="cls-2" d="M402.2,466.7c2,0,3.9-.8,5.4-2.3s2.3-3.4,2.3-5.4-.8-3.9-2.3-5.4-3.4-2.3-5.4-2.3-3.9.8-5.4,2.3-2.3,3.4-2.3,5.4.8,3.9,2.3,5.4,3.4,2.3,5.4,2.3Z"/>
            </g>
          </g>
          <rect class="cls-1" x="-182.7" y="-2802.6" width="2093.4" height="3666.6"/>
          <g>
            <path id="m744b0990e2" class="cls-3" d="M367.8,446.1c2,0,3.9-.8,5.4-2.3s2.3-3.4,2.3-5.4-.8-3.9-2.3-5.4-3.4-2.3-5.4-2.3-3.9.8-5.4,2.3-2.3,3.4-2.3,5.4.8,3.9,2.3,5.4,3.4,2.3,5.4,2.3Z"/>
            <path id="m744b0990e2-2" class="cls-3" d="M473.2,411.3c2,0,3.9-.8,5.4-2.3s2.3-3.4,2.3-5.4-.8-3.9-2.3-5.4-3.4-2.3-5.4-2.3-3.9.8-5.4,2.3-2.3,3.4-2.3,5.4.8,3.9,2.3,5.4,3.4,2.3,5.4,2.3Z"/>
            <path id="m744b0990e2-3" class="cls-3" d="M472.8,403.4c2,0,3.9-.8,5.4-2.3s2.3-3.4,2.3-5.4-.8-3.9-2.3-5.4-3.4-2.3-5.4-2.3-3.9.8-5.4,2.3-2.3,3.4-2.3,5.4.8,3.9,2.3,5.4,3.4,2.3,5.4,2.3Z"/>
            <path id="m744b0990e2-4" class="cls-3" d="M378.1,396c2,0,3.9-.8,5.4-2.3s2.3-3.4,2.3-5.4-.8-3.9-2.3-5.4-3.4-2.3-5.4-2.3-3.9.8-5.4,2.3-2.3,3.4-2.3,5.4.8,3.9,2.3,5.4,3.4,2.3,5.4,2.3Z"/>
            <path id="m744b0990e2-5" class="cls-3" d="M399.8,444.3c2,0,3.9-.8,5.4-2.3s2.3-3.4,2.3-5.4-.8-3.9-2.3-5.4-3.4-2.3-5.4-2.3-3.9.8-5.4,2.3-2.3,3.4-2.3,5.4.8,3.9,2.3,5.4,3.4,2.3,5.4,2.3Z"/>
            <path id="m744b0990e2-6" class="cls-3" d="M484.2,610.9c2,0,3.9-.8,5.4-2.3s2.3-3.4,2.3-5.4-.8-3.9-2.3-5.4-3.4-2.3-5.4-2.3-3.9.8-5.4,2.3-2.3,3.4-2.3,5.4.8,3.9,2.3,5.4,3.4,2.3,5.4,2.3Z"/>
            <path id="m744b0990e2-7" class="cls-3" d="M478.7,615.9c2,0,3.9-.8,5.4-2.3s2.3-3.4,2.3-5.4-.8-3.9-2.3-5.4c-1.4-1.4-3.4-2.3-5.4-2.3s-3.9.8-5.4,2.3-2.3,3.4-2.3,5.4.8,3.9,2.3,5.4,3.4,2.3,5.4,2.3Z"/>
            <path id="m744b0990e2-8" class="cls-3" d="M403.9,464.4c2,0,3.9-.8,5.4-2.3s2.3-3.4,2.3-5.4-.8-3.9-2.3-5.4-3.4-2.3-5.4-2.3-3.9.8-5.4,2.3-2.3,3.4-2.3,5.4.8,3.9,2.3,5.4,3.4,2.3,5.4,2.3Z"/>
            <path id="m744b0990e2-9" class="cls-3" d="M422.8,421.6c2,0,3.9-.8,5.4-2.3s2.3-3.4,2.3-5.4-.8-3.9-2.3-5.4-3.4-2.3-5.4-2.3-3.9.8-5.4,2.3-2.3,3.4-2.3,5.4.8,3.9,2.3,5.4,3.4,2.3,5.4,2.3Z"/>
            <path id="m744b0990e2-10" class="cls-3" d="M332.2,417.5c2,0,3.9-.8,5.4-2.3s2.3-3.4,2.3-5.4-.8-3.9-2.3-5.4-3.4-2.3-5.4-2.3-3.9.8-5.4,2.3-2.3,3.4-2.3,5.4.8,3.9,2.3,5.4,3.4,2.3,5.4,2.3Z"/>
            <path id="m744b0990e2-11" class="cls-3" d="M400.3,461.9c2,0,3.9-.8,5.4-2.3s2.3-3.4,2.3-5.4-.8-3.9-2.3-5.4-3.4-2.3-5.4-2.3-3.9.8-5.4,2.3-2.3,3.4-2.3,5.4.8,3.9,2.3,5.4,3.4,2.3,5.4,2.3Z"/>
            <path id="m744b0990e2-12" class="cls-3" d="M460.7,440.2c2,0,3.9-.8,5.4-2.3s2.3-3.4,2.3-5.4-.8-3.9-2.3-5.4-3.4-2.3-5.4-2.3-3.9.8-5.4,2.3-2.3,3.4-2.3,5.4.8,3.9,2.3,5.4,3.4,2.3,5.4,2.3Z"/>
            <path id="m744b0990e2-13" class="cls-3" d="M400.1,405.1c2,0,3.9-.8,5.4-2.3s2.3-3.4,2.3-5.4-.8-3.9-2.3-5.4-3.4-2.3-5.4-2.3-3.9.8-5.4,2.3-2.3,3.4-2.3,5.4.8,3.9,2.3,5.4,3.4,2.3,5.4,2.3Z"/>
            <path id="m744b0990e2-14" class="cls-3" d="M421.8,231.9c2,0,3.9-.8,5.4-2.3s2.3-3.4,2.3-5.4-.8-3.9-2.3-5.4-3.4-2.3-5.4-2.3-3.9.8-5.4,2.3-2.3,3.4-2.3,5.4.8,3.9,2.3,5.4,3.4,2.3,5.4,2.3Z"/>
            <path id="m744b0990e2-15" class="cls-3" d="M355.8,360.5c2,0,3.9-.8,5.4-2.3s2.3-3.4,2.3-5.4-.8-3.9-2.3-5.4-3.4-2.3-5.4-2.3-3.9.8-5.4,2.3-2.3,3.4-2.3,5.4.8,3.9,2.3,5.4,3.4,2.3,5.4,2.3Z"/>
            <path id="m744b0990e2-16" class="cls-3" d="M368.2,365.6c2,0,3.9-.8,5.4-2.3s2.3-3.4,2.3-5.4-.8-3.9-2.3-5.4-3.4-2.3-5.4-2.3-3.9.8-5.4,2.3-2.3,3.4-2.3,5.4.8,3.9,2.3,5.4,3.4,2.3,5.4,2.3Z"/>
            <path id="m744b0990e2-17" class="cls-3" d="M350.9,368c2,0,3.9-.8,5.4-2.3s2.3-3.4,2.3-5.4-.8-3.9-2.3-5.4-3.4-2.3-5.4-2.3-3.9.8-5.4,2.3-2.3,3.4-2.3,5.4.8,3.9,2.3,5.4,3.4,2.3,5.4,2.3Z"/>
            <path id="m744b0990e2-18" class="cls-3" d="M251.3,552.3c2,0,3.9-.8,5.4-2.3,1.5-1.5,2.3-3.4,2.3-5.4s-.8-3.9-2.3-5.4-3.4-2.3-5.4-2.3-3.9.8-5.4,2.3-2.3,3.4-2.3,5.4.8,3.9,2.3,5.4,3.4,2.3,5.4,2.3h0Z"/>
            <path id="m744b0990e2-19" class="cls-3" d="M405.7,444c2,0,3.9-.8,5.4-2.3s2.3-3.4,2.3-5.4-.8-3.9-2.3-5.4-3.4-2.3-5.4-2.3-3.9.8-5.4,2.3-2.3,3.4-2.3,5.4.8,3.9,2.3,5.4,3.4,2.3,5.4,2.3Z"/>
            <path id="m744b0990e2-20" class="cls-3" d="M494.5,418.7c2,0,3.9-.8,5.4-2.3s2.3-3.4,2.3-5.4-.8-3.9-2.3-5.4-3.4-2.3-5.4-2.3-3.9.8-5.4,2.3-2.3,3.4-2.3,5.4.8,3.9,2.3,5.4,3.4,2.3,5.4,2.3Z"/>
            <path id="m744b0990e2-21" class="cls-3" d="M368.5,473.7c2,0,3.9-.8,5.4-2.3s2.3-3.4,2.3-5.4-.8-3.9-2.3-5.4-3.4-2.3-5.4-2.3-3.9.8-5.4,2.3-2.3,3.4-2.3,5.4.8,3.9,2.3,5.4,3.4,2.3,5.4,2.3Z"/>
            <path id="m744b0990e2-22" class="cls-3" d="M710.3,482.5c2,0,3.9-.8,5.4-2.3s2.3-3.4,2.3-5.4-.8-3.9-2.3-5.4-3.4-2.3-5.4-2.3-3.9.8-5.4,2.3-2.3,3.4-2.3,5.4.8,3.9,2.3,5.4,3.4,2.3,5.4,2.3Z"/>
            <path id="m744b0990e2-23" class="cls-3" d="M548.7,446.7c2,0,3.9-.8,5.4-2.3s2.3-3.4,2.3-5.4-.8-3.9-2.3-5.4-3.4-2.3-5.4-2.3-3.9.8-5.4,2.3-2.3,3.4-2.3,5.4.8,3.9,2.3,5.4,3.4,2.3,5.4,2.3Z"/>
            <path id="m744b0990e2-24" class="cls-3" d="M475.8,411.5c2,0,3.9-.8,5.4-2.3s2.3-3.4,2.3-5.4-.8-3.9-2.3-5.4-3.4-2.3-5.4-2.3-3.9.8-5.4,2.3-2.3,3.4-2.3,5.4.8,3.9,2.3,5.4,3.4,2.3,5.4,2.3Z"/>
            <path id="m744b0990e2-25" class="cls-3" d="M417.1,532.8c2,0,3.9-.8,5.4-2.3s2.3-3.4,2.3-5.4-.8-3.9-2.3-5.4-3.4-2.3-5.4-2.3-3.9.8-5.4,2.3-2.3,3.4-2.3,5.4.8,3.9,2.3,5.4,3.4,2.3,5.4,2.3Z"/>
            <path id="m744b0990e2-26" class="cls-3" d="M387.5,445.7c2,0,3.9-.8,5.4-2.3s2.3-3.4,2.3-5.4-.8-3.9-2.3-5.4-3.4-2.3-5.4-2.3-3.9.8-5.4,2.3-2.3,3.4-2.3,5.4.8,3.9,2.3,5.4,3.4,2.3,5.4,2.3h0Z"/>
            <path id="m744b0990e2-27" class="cls-3" d="M617.5,379.4c2,0,3.9-.8,5.4-2.3s2.3-3.4,2.3-5.4-.8-3.9-2.3-5.4c-1.4-1.4-3.4-2.3-5.4-2.3s-3.9.8-5.4,2.3-2.3,3.4-2.3,5.4.8,3.9,2.3,5.4c1.4,1.4,3.4,2.3,5.4,2.3Z"/>
            <path id="m744b0990e2-28" class="cls-3" d="M410.4,477.5c2,0,3.9-.8,5.4-2.3s2.3-3.4,2.3-5.4-.8-3.9-2.3-5.4-3.4-2.3-5.4-2.3-3.9.8-5.4,2.3-2.3,3.4-2.3,5.4.8,3.9,2.3,5.4,3.4,2.3,5.4,2.3Z"/>
            <path id="m744b0990e2-29" class="cls-3" d="M318.6,330.3c2,0,3.9-.8,5.4-2.3s2.3-3.4,2.3-5.4-.8-3.9-2.3-5.4-3.4-2.3-5.4-2.3-3.9.8-5.4,2.3-2.3,3.4-2.3,5.4.8,3.9,2.3,5.4,3.4,2.3,5.4,2.3Z"/>
            <path id="m744b0990e2-30" class="cls-3" d="M419.5,436.1c2,0,3.9-.8,5.4-2.3s2.3-3.4,2.3-5.4-.8-3.9-2.3-5.4-3.4-2.3-5.4-2.3-3.9.8-5.4,2.3-2.3,3.4-2.3,5.4.8,3.9,2.3,5.4,3.4,2.3,5.4,2.3Z"/>
            <path id="m744b0990e2-31" class="cls-3" d="M331.5,239.8c2,0,3.9-.8,5.4-2.3s2.3-3.4,2.3-5.4-.8-3.9-2.3-5.4-3.4-2.3-5.4-2.3-3.9.8-5.4,2.3-2.3,3.4-2.3,5.4.8,3.9,2.3,5.4,3.4,2.3,5.4,2.3Z"/>
            <path id="m744b0990e2-32" class="cls-3" d="M418.7,378.3c2,0,3.9-.8,5.4-2.3s2.3-3.4,2.3-5.4-.8-3.9-2.3-5.4-3.4-2.3-5.4-2.3-3.9.8-5.4,2.3-2.3,3.4-2.3,5.4.8,3.9,2.3,5.4,3.4,2.3,5.4,2.3Z"/>
            <path id="m744b0990e2-33" class="cls-3" d="M438.7,464.6c2,0,3.9-.8,5.4-2.3s2.3-3.4,2.3-5.4-.8-3.9-2.3-5.4-3.4-2.3-5.4-2.3-3.9.8-5.4,2.3-2.3,3.4-2.3,5.4.8,3.9,2.3,5.4,3.4,2.3,5.4,2.3Z"/>
          </g>
          <g id="text_1">
            <g>
              <path id="DejaVuSans-50" d="M429.1,475v7.4h3.4c1.3,0,2.2-.4,2.9-1s1-1.6,1-2.7-.4-2.1-1-2.7c-.7-.6-1.6-1-2.9-1h-3.4ZM426.5,472.9h6c2.2,0,3.9.5,5,1.5s1.7,2.5,1.7,4.4-.6,3.4-1.7,4.4-2.8,1.5-5,1.5h-3.4v7.9h-2.7v-19.7h.1Z"/>
              <path id="DejaVuSans-61" d="M448.2,485.1c-2,0-3.3.2-4.1.7s-1.1,1.2-1.1,2.3.3,1.6.8,2c.6.5,1.3.8,2.3.8s2.4-.5,3.2-1.4,1.2-2.3,1.2-3.8v-.6h-2.4.1ZM453,484.1v8.5h-2.4v-2.3c-.6.9-1.3,1.6-2,2-.8.4-1.8.6-3,.6s-2.7-.4-3.6-1.3c-.9-.8-1.3-2-1.3-3.4s.6-2.9,1.7-3.7c1.1-.8,2.7-1.3,5-1.3h3.4v-.2c0-1.1-.4-2-1.1-2.6s-1.8-.9-3.1-.9-1.7,0-2.5.3-1.6.5-2.3.9v-2.3c.9-.4,1.8-.6,2.6-.8.8-.1,1.6-.3,2.5-.3,2.1,0,3.7.6,4.8,1.7s1.6,2.7,1.6,5h-.3Z"/>
              <path id="DejaVuSans-6c" d="M458,472h2.4v20.5h-2.4v-20.5Z"/>
              <path id="DejaVuSans-61-2" d="M472.2,485.1c-2,0-3.3.2-4.1.7-.8.4-1.1,1.2-1.1,2.3s.3,1.6.8,2c.6.5,1.3.8,2.3.8s2.4-.5,3.2-1.4,1.2-2.3,1.2-3.8v-.6h-2.4.1ZM477.1,484.1v8.5h-2.4v-2.3c-.6.9-1.3,1.6-2,2-.8.4-1.8.6-3,.6s-2.7-.4-3.6-1.3c-.9-.8-1.3-2-1.3-3.4s.6-2.9,1.7-3.7c1.1-.8,2.7-1.3,5-1.3h3.4v-.2c0-1.1-.4-2-1.1-2.6s-1.8-.9-3.1-.9-1.7,0-2.5.3-1.6.5-2.3.9v-2.3c.9-.4,1.8-.6,2.6-.8.8-.1,1.6-.3,2.5-.3,2.1,0,3.7.6,4.8,1.7s1.6,2.7,1.6,5h-.3Z"/>
              <path id="DejaVuSans-63" d="M492.7,478.4v2.3c-.7-.4-1.3-.6-2-.8-.7-.2-1.4-.3-2.1-.3-1.6,0-2.8.5-3.7,1.5s-1.3,2.4-1.3,4.2.4,3.2,1.3,4.2c.8,1,2.1,1.5,3.7,1.5s1.4,0,2.1-.3,1.4-.5,2-.8v2.3c-.7.3-1.4.6-2.1.7s-1.5.2-2.3.2c-2.3,0-4-.7-5.3-2.1s-2-3.3-2-5.6.6-4.3,2-5.7c1.3-1.4,3.2-2,5.4-2s1.5,0,2.2.2c.7.1,1.4.4,2,.7h0v-.2Z"/>
              <path id="DejaVuSans-65" d="M509.5,484.6v1.2h-11.1c.1,1.7.6,3,1.5,3.8s2.2,1.3,3.7,1.3,1.8-.1,2.7-.4c.8-.2,1.8-.6,2.6-1.1v2.3c-.8.4-1.8.6-2.7.8s-1.8.3-2.7.3c-2.3,0-4.2-.7-5.6-2s-2-3.2-2-5.6.6-4.3,2-5.8c1.3-1.4,3-2.1,5.3-2.1s3.5.6,4.7,1.9c1.1,1.3,1.8,3,1.8,5.2h0l-.2.2ZM507.1,483.9c0-1.3-.4-2.4-1.1-3.2s-1.7-1.2-2.9-1.2-2.5.4-3.2,1.1-1.3,1.8-1.4,3.2h8.7-.1Z"/>
              <path id="DejaVuSans-20" d="M511,492.5"/>
              <path id="DejaVuSans-6f" d="M527.9,479.5c-1.3,0-2.3.5-3.1,1.6-.8,1-1.1,2.4-1.1,4.2s.4,3.2,1.1,4.2,1.8,1.6,3.1,1.6,2.3-.5,3.1-1.6c.8-1,1.1-2.4,1.1-4.2s-.4-3.1-1.1-4.2-1.8-1.6-3.1-1.6ZM527.9,477.4c2.1,0,3.7.7,5,2,1.2,1.3,1.8,3.2,1.8,5.7s-.6,4.3-1.8,5.7-2.9,2-5,2-3.8-.7-5-2c-1.2-1.4-1.8-3.2-1.8-5.7s.6-4.3,1.8-5.7c1.2-1.3,2.9-2,5-2Z"/>
              <path id="DejaVuSans-66" d="M546.1,472v2h-2.3c-.8,0-1.5.1-1.8.5s-.5,1-.5,1.9v1.3h4v1.9h-4v12.9h-2.5v-12.9h-2.3v-1.9h2.3v-1.1c0-1.6.4-2.8,1.1-3.6s2-1.1,3.7-1.1h2.3Z"/>
              <path id="DejaVuSans-20-2" d="M545.6,492.5"/>
              <path id="DejaVuSans-43" d="M571.6,474.4v2.8c-.9-.8-1.8-1.5-2.9-1.9-1-.4-2.1-.6-3.2-.6-2.3,0-3.9.7-5.1,2s-1.8,3.4-1.8,6,.6,4.6,1.8,5.9c1.2,1.4,2.9,2,5.1,2s2.3-.2,3.2-.6,2-1.1,2.9-1.9v2.8c-.9.6-1.9,1.1-3,1.4s-2.1.5-3.3.5c-3,0-5.4-.9-7.1-2.7-1.7-1.8-2.5-4.3-2.5-7.5s.8-5.6,2.5-7.5c1.7-1.8,4.1-2.7,7.1-2.7s2.3.1,3.3.5c1.1.3,2,.8,3,1.4h0Z"/>
              <path id="DejaVuSans-75" d="M575.4,486.7v-9h2.4v8.9c0,1.4.3,2.5.8,3.2.6.7,1.3,1.1,2.5,1.1s2.3-.4,3.1-1.3c.8-.8,1.1-2,1.1-3.4v-8.4h2.4v14.7h-2.4v-2.3c-.6.9-1.3,1.6-2,2-.8.4-1.7.6-2.7.6-1.7,0-3-.5-3.9-1.6-.8-1.1-1.3-2.6-1.3-4.7h0v.2ZM581.4,477.4h0Z"/>
              <path id="DejaVuSans-6c-2" d="M592.7,472h2.4v20.5h-2.4v-20.5Z"/>
              <path id="DejaVuSans-74" d="M602.6,473.6v4.2h5v1.9h-5v8c0,1.2,0,2,.5,2.3s1,.5,2,.5h2.5v2h-2.5c-1.9,0-3.2-.4-3.9-1.1s-1.1-2-1.1-3.8v-8h-1.8v-1.9h1.8v-4.2h2.5Z"/>
              <path id="DejaVuSans-75-2" d="M610.6,486.7v-9h2.4v8.9c0,1.4.3,2.5.8,3.2s1.3,1.1,2.5,1.1,2.3-.4,3.1-1.3c.8-.8,1.1-2,1.1-3.4v-8.4h2.4v14.7h-2.4v-2.3c-.6.9-1.3,1.6-2,2-.8.4-1.7.6-2.7.6-1.7,0-3-.5-3.9-1.6-.8-1.1-1.3-2.6-1.3-4.7h0v.2ZM616.7,477.4h0Z"/>
              <path id="DejaVuSans-72" d="M636.5,480c-.3-.1-.6-.3-.9-.4s-.7-.1-1.1-.1c-1.3,0-2.4.4-3.2,1.3s-1.1,2.2-1.1,3.9v7.8h-2.5v-14.7h2.5v2.3c.5-.9,1.2-1.6,2-2s1.8-.6,3-.6.4,0,.6,0h.7v2.5h0Z"/>
              <path id="DejaVuSans-65-2" d="M651,484.6v1.2h-11.1c0,1.7.6,3,1.5,3.8s2.2,1.3,3.7,1.3,1.8-.1,2.7-.4,1.8-.6,2.6-1.1v2.3c-.8.4-1.8.6-2.7.8s-1.8.3-2.7.3c-2.3,0-4.2-.7-5.6-2-1.4-1.3-2-3.2-2-5.6s.6-4.3,2-5.8c1.3-1.4,3-2.1,5.3-2.1s3.5.6,4.7,1.9c1.1,1.3,1.8,3,1.8,5.2h0l-.2.2ZM648.6,483.9c0-1.3-.4-2.4-1.1-3.2s-1.7-1.2-2.9-1.2-2.5.4-3.2,1.1-1.3,1.8-1.4,3.2h8.7,0Z"/>
              <path id="DejaVuSans-20-3" d="M652.5,492.5"/>
              <path id="DejaVuSans-61-3" d="M670.3,485.1c-2,0-3.3.2-4.1.7s-1.1,1.2-1.1,2.3.3,1.6.8,2c.6.5,1.3.8,2.3.8s2.4-.5,3.2-1.4,1.2-2.3,1.2-3.8v-.6h-2.4,0ZM675.2,484.1v8.5h-2.4v-2.3c-.6.9-1.3,1.6-2,2-.8.4-1.8.6-3,.6s-2.7-.4-3.6-1.3c-.9-.8-1.3-2-1.3-3.4s.6-2.9,1.7-3.7c1.1-.8,2.7-1.3,5-1.3h3.4v-.2c0-1.1-.4-2-1.1-2.6s-1.8-.9-3.1-.9-1.7,0-2.5.3-1.6.5-2.3.9v-2.3c.9-.4,1.8-.6,2.6-.8.8-.1,1.6-.3,2.5-.3,2.1,0,3.7.6,4.8,1.7s1.6,2.7,1.6,5h-.3Z"/>
              <path id="DejaVuSans-6e" d="M692.5,483.6v8.9h-2.4v-8.8c0-1.4-.3-2.5-.8-3.1-.6-.7-1.3-1.1-2.5-1.1s-2.3.4-3.1,1.3c-.8.8-1.1,2-1.1,3.4v8.3h-2.5v-14.7h2.5v2.3c.6-.9,1.3-1.6,2-2,.8-.4,1.7-.6,2.7-.6,1.7,0,3,.5,3.9,1.6.8,1.1,1.3,2.6,1.3,4.7h0v-.2Z"/>
              <path id="DejaVuSans-64" d="M707,480v-8h2.4v20.5h-2.4v-2.2c-.5.8-1.1,1.6-1.9,2-.8.4-1.7.6-2.8.6-1.8,0-3.2-.7-4.4-2.1-1.1-1.4-1.7-3.3-1.7-5.6s.6-4.2,1.7-5.6c1.1-1.4,2.6-2.1,4.4-2.1s2,.2,2.8.6,1.4,1.1,1.9,2h0ZM698.8,485.2c0,1.8.4,3.2,1.1,4.2.7,1,1.8,1.6,3,1.6s2.3-.5,3-1.6c.7-1,1.1-2.4,1.1-4.2s-.4-3.2-1.1-4.2c-.7-1-1.8-1.6-3-1.6s-2.3.5-3,1.6c-.7,1-1.1,2.4-1.1,4.2Z"/>
              <path id="DejaVuSans-20-4" d="M711.9,492.5"/>
              <path id="DejaVuSans-53" d="M734.9,473.5v2.6c-1-.5-2-.8-2.9-1.1s-1.8-.4-2.6-.4c-1.5,0-2.5.3-3.4.8-.8.6-1.2,1.3-1.2,2.4s.3,1.6.8,2,1.5.8,3,1.1l1.6.4c2,.4,3.5,1.1,4.4,2s1.4,2.3,1.4,3.8-.6,3.4-1.9,4.4c-1.3,1-3.2,1.5-5.6,1.5s-1.9,0-3-.3-2.1-.5-3.2-.9v-2.7c1.1.6,2.1,1.1,3.2,1.3s2,.5,3,.5c1.6,0,2.7-.3,3.5-.9s1.3-1.5,1.3-2.5-.3-1.7-.9-2.3-1.6-1-2.9-1.2l-1.6-.3c-2-.4-3.5-1-4.3-1.8-.9-.8-1.3-2-1.3-3.5s.6-3.1,1.8-4.1,2.9-1.5,5.1-1.5,1.8,0,2.8.3c1,.1,2,.4,3,.8v-.3h0Z"/>
              <path id="DejaVuSans-63-2" d="M750.8,478.4v2.3c-.7-.4-1.3-.6-2-.8-.7-.2-1.4-.3-2.1-.3-1.6,0-2.8.5-3.7,1.5s-1.3,2.4-1.3,4.2.4,3.2,1.3,4.2c.8,1,2.1,1.5,3.7,1.5s1.4,0,2.1-.3,1.4-.5,2-.8v2.3c-.7.3-1.4.6-2.1.7s-1.5.2-2.3.2c-2.3,0-4-.7-5.3-2.1s-2-3.3-2-5.6.6-4.3,2-5.7c1.3-1.4,3.2-2,5.4-2s1.5,0,2.2.2c.7.1,1.4.4,2,.7h0v-.2Z"/>
              <path id="DejaVuSans-69" d="M755,477.8h2.4v14.7h-2.4v-14.7ZM755,472h2.4v3.1h-2.4v-3.1Z"/>
              <path id="DejaVuSans-65-3" d="M775.2,484.6v1.2h-11.1c0,1.7.6,3,1.5,3.8s2.2,1.3,3.7,1.3,1.8-.1,2.7-.4,1.8-.6,2.6-1.1v2.3c-.8.4-1.8.6-2.7.8s-1.8.3-2.7.3c-2.3,0-4.2-.7-5.6-2-1.4-1.3-2-3.2-2-5.6s.6-4.3,2-5.8c1.3-1.4,3-2.1,5.3-2.1s3.5.6,4.7,1.9c1.1,1.3,1.8,3,1.8,5.2h0l-.2.2ZM772.7,483.9c0-1.3-.4-2.4-1.1-3.2s-1.7-1.2-2.9-1.2-2.5.4-3.2,1.1-1.3,1.8-1.4,3.2h8.7,0Z"/>
              <path id="DejaVuSans-6e-2" d="M791.4,483.6v8.9h-2.4v-8.8c0-1.4-.3-2.5-.8-3.1-.6-.7-1.3-1.1-2.5-1.1s-2.3.4-3.1,1.3c-.8.8-1.1,2-1.1,3.4v8.3h-2.5v-14.7h2.5v2.3c.6-.9,1.3-1.6,2-2,.8-.4,1.7-.6,2.7-.6,1.7,0,3,.5,3.9,1.6.8,1.1,1.3,2.6,1.3,4.7h0v-.2Z"/>
              <path id="DejaVuSans-63-3" d="M806.9,478.4v2.3c-.7-.4-1.3-.6-2-.8s-1.4-.3-2.1-.3c-1.6,0-2.8.5-3.7,1.5s-1.3,2.4-1.3,4.2.4,3.2,1.3,4.2c.8,1,2.1,1.5,3.7,1.5s1.4,0,2.1-.3,1.4-.5,2-.8v2.3c-.7.3-1.4.6-2.1.7s-1.5.2-2.3.2c-2.3,0-4-.7-5.3-2.1s-2-3.3-2-5.6.6-4.3,2-5.7c1.3-1.4,3.2-2,5.4-2s1.5,0,2.2.2c.7.1,1.4.4,2,.7h0v-.2Z"/>
              <path id="DejaVuSans-65-4" d="M823.8,484.6v1.2h-11.1c0,1.7.6,3,1.5,3.8s2.2,1.3,3.7,1.3,1.8-.1,2.7-.4,1.8-.6,2.6-1.1v2.3c-.8.4-1.8.6-2.7.8s-1.8.3-2.7.3c-2.3,0-4.2-.7-5.6-2-1.4-1.3-2-3.2-2-5.6s.6-4.3,2-5.8c1.3-1.4,3-2.1,5.3-2.1s3.5.6,4.7,1.9c1.1,1.3,1.8,3,1.8,5.2h0l-.2.2ZM821.3,483.9c0-1.3-.4-2.4-1.1-3.2s-1.7-1.2-2.9-1.2-2.5.4-3.2,1.1-1.3,1.8-1.4,3.2h8.7,0Z"/>
            </g>
          </g>
          <g id="text_2">
            <g>
              <path id="DejaVuSans-4f" d="M45.7,377.7c-1.9,0-3.5.7-4.6,2.2-1.1,1.4-1.7,3.4-1.7,5.9s.6,4.4,1.7,5.9,2.7,2.2,4.6,2.2,3.5-.7,4.6-2.2c1.1-1.4,1.7-3.4,1.7-5.9s-.6-4.4-1.7-5.9c-1.1-1.4-2.7-2.2-4.6-2.2ZM45.7,375.6c2.7,0,4.9.9,6.6,2.7,1.6,1.8,2.5,4.3,2.5,7.5s-.8,5.6-2.5,7.4-3.9,2.7-6.6,2.7-5-.9-6.6-2.7c-1.7-1.8-2.5-4.3-2.5-7.5s.8-5.6,2.5-7.5c1.7-1.8,3.9-2.7,6.6-2.7h0Z"/>
              <path id="DejaVuSans-6c-3" d="M58.8,375.1h2.4v20.5h-2.4v-20.5Z"/>
              <path id="DejaVuSans-64-2" d="M76.1,383.1v-8h2.4v20.5h-2.4v-2.2c-.5.8-1.1,1.6-1.9,2s-1.7.6-2.8.6c-1.8,0-3.2-.7-4.4-2.1s-1.7-3.3-1.7-5.6.6-4.2,1.7-5.6,2.6-2.1,4.4-2.1,2,.2,2.8.6,1.4,1.1,1.9,2h0ZM67.8,388.2c0,1.8.4,3.2,1.1,4.2s1.8,1.6,3,1.6,2.3-.5,3-1.6c.7-1,1.1-2.4,1.1-4.2s-.4-3.2-1.1-4.2-1.8-1.6-3-1.6-2.3.5-3,1.6-1.1,2.4-1.1,4.2Z"/>
              <path id="DejaVuSans-20-5" d="M81,395.6"/>
              <path id="DejaVuSans-54" d="M89.4,375.9h16.6v2.3h-7v17.4h-2.7v-17.4h-7v-2.3h0Z"/>
              <path id="DejaVuSans-6f-2" d="M109.7,382.5c-1.3,0-2.3.5-3.1,1.6-.8,1-1.1,2.4-1.1,4.2s.4,3.2,1.1,4.2,1.8,1.6,3.1,1.6,2.3-.5,3.1-1.6c.8-1,1.1-2.4,1.1-4.2s-.4-3.1-1.1-4.2-1.8-1.6-3.1-1.6ZM109.7,380.5c2.1,0,3.7.7,5,2,1.2,1.3,1.8,3.2,1.8,5.7s-.6,4.3-1.8,5.7-2.9,2-5,2-3.8-.7-5-2c-1.2-1.4-1.8-3.2-1.8-5.7s.6-4.3,1.8-5.7c1.2-1.3,2.9-2,5-2Z"/>
              <path id="DejaVuSans-77" d="M119.1,380.8h2.4l3,11.5,3-11.5h2.9l3,11.5,3-11.5h2.4l-3.9,14.7h-2.9l-3.2-12.1-3.2,12.1h-2.9l-3.9-14.7h.3Z"/>
              <path id="DejaVuSans-6e-3" d="M154.9,386.7v8.9h-2.4v-8.8c0-1.4-.3-2.5-.8-3.1-.6-.7-1.3-1.1-2.5-1.1s-2.3.4-3.1,1.3c-.8.8-1.1,2-1.1,3.4v8.3h-2.5v-14.7h2.5v2.3c.6-.9,1.3-1.6,2-2,.8-.4,1.7-.6,2.7-.6,1.7,0,3,.5,3.9,1.6.8,1.1,1.3,2.6,1.3,4.7h0v-.2Z"/>
              <path id="DejaVuSans-20-6" d="M157.2,395.6"/>
              <path id="DejaVuSans-4d" d="M168.4,375.9h3.9l5,13.4,5.1-13.4h3.9v19.7h-2.6v-17.3l-5.1,13.5h-2.7l-5.1-13.5v17.3h-2.6v-19.7h.2Z"/>
              <path id="DejaVuSans-61-4" d="M198.4,388.2c-2,0-3.3.2-4.1.7-.8.4-1.1,1.2-1.1,2.3s.3,1.6.8,2c.6.5,1.3.8,2.3.8s2.4-.5,3.2-1.4,1.2-2.3,1.2-3.8v-.6h-2.4.1ZM203.1,387.2v8.5h-2.4v-2.3c-.6.9-1.3,1.6-2,2-.8.4-1.8.6-3,.6s-2.7-.4-3.6-1.3c-.9-.8-1.3-2-1.3-3.4s.6-2.9,1.7-3.7c1.1-.8,2.7-1.3,5-1.3h3.4v-.2c0-1.1-.4-2-1.1-2.6-.7-.6-1.8-.9-3.1-.9s-1.7,0-2.5.3-1.6.5-2.3.9v-2.3c.9-.4,1.8-.6,2.6-.8.8-.1,1.6-.3,2.5-.3,2.1,0,3.7.6,4.8,1.7s1.6,2.7,1.6,5h-.3Z"/>
              <path id="DejaVuSans-72-2" d="M216.7,383.1c-.3-.1-.6-.3-.9-.4s-.7-.1-1.1-.1c-1.3,0-2.4.4-3.2,1.3s-1.1,2.2-1.1,3.9v7.8h-2.5v-14.7h2.5v2.3c.5-.9,1.2-1.6,2-2s1.8-.6,3-.6.4,0,.6,0h.7v2.5h0Z"/>
              <path id="DejaVuSans-6b" d="M219.2,375.1h2.5v12.1l7.3-6.3h3.1l-7.8,6.9,8.2,7.9h-3.2l-7.5-7.2v7.2h-2.5v-20.5h-.1Z"/>
              <path id="DejaVuSans-65-5" d="M246.6,387.6v1.2h-11.1c.1,1.7.6,3,1.5,3.8s2.2,1.3,3.7,1.3,1.8-.1,2.7-.4,1.8-.6,2.6-1.1v2.3c-.8.4-1.8.6-2.7.8-.9.2-1.8.3-2.7.3-2.3,0-4.2-.7-5.6-2-1.4-1.3-2-3.2-2-5.6s.6-4.3,2-5.8c1.3-1.4,3-2.1,5.3-2.1s3.5.6,4.7,1.9c1.1,1.3,1.8,3,1.8,5.2h0l-.2.2ZM244.1,386.9c0-1.3-.4-2.4-1.1-3.2s-1.7-1.2-2.9-1.2-2.5.4-3.2,1.1-1.3,1.8-1.4,3.2h8.7-.1Z"/>
              <path id="DejaVuSans-74-2" d="M252.9,376.6v4.2h5v1.9h-5v8c0,1.2.1,2,.5,2.3s1,.5,2,.5h2.5v2h-2.5c-1.9,0-3.2-.4-3.9-1.1s-1.1-2-1.1-3.8v-8h-1.8v-1.9h1.8v-4.2h2.5Z"/>
              <path id="DejaVuSans-20-7" d="M258.6,395.6"/>
              <path id="DejaVuSans-53-2" d="M281.6,376.5v2.6c-1-.5-2-.8-2.9-1.1s-1.8-.4-2.6-.4c-1.5,0-2.5.3-3.4.8-.8.6-1.2,1.3-1.2,2.4s.3,1.6.8,2,1.5.8,3,1.1l1.6.4c2,.4,3.5,1.1,4.4,2,.9,1,1.4,2.3,1.4,3.8s-.6,3.4-1.9,4.4-3.2,1.5-5.6,1.5-1.9,0-3-.3-2.1-.5-3.2-.9v-2.7c1.1.6,2.1,1.1,3.2,1.3s2,.5,3,.5c1.6,0,2.7-.3,3.5-.9s1.3-1.5,1.3-2.5-.3-1.7-.9-2.3-1.6-1-2.9-1.2l-1.6-.3c-2-.4-3.5-1-4.3-1.8-.9-.8-1.3-2-1.3-3.5s.6-3.1,1.8-4.1c1.2-1,2.9-1.5,5.1-1.5s1.8,0,2.8.3c1,.1,2,.4,3,.8v-.3h0Z"/>
              <path id="DejaVuSans-71" d="M288.3,388.2c0,1.8.4,3.2,1.1,4.2s1.8,1.6,3,1.6,2.3-.5,3-1.6c.7-1,1.1-2.4,1.1-4.2s-.4-3.2-1.1-4.2-1.8-1.6-3-1.6-2.3.5-3,1.6-1.1,2.4-1.1,4.2ZM296.6,393.4c-.5.8-1.1,1.6-1.9,2s-1.7.6-2.8.6c-1.8,0-3.2-.7-4.4-2.1-1.1-1.4-1.7-3.3-1.7-5.6s.6-4.2,1.7-5.6,2.6-2.1,4.4-2.1,2,.2,2.8.6,1.4,1.1,1.9,2v-2.3h2.4v20.4h-2.4v-7.8h0Z"/>
              <path id="DejaVuSans-75-3" d="M303.8,389.8v-9h2.4v8.9c0,1.4.3,2.5.8,3.2s1.3,1.1,2.5,1.1,2.3-.4,3.1-1.3c.8-.8,1.1-2,1.1-3.4v-8.4h2.4v14.7h-2.4v-2.3c-.6.9-1.3,1.6-2,2-.8.4-1.7.6-2.7.6-1.7,0-3-.5-3.9-1.6-.8-1.1-1.3-2.6-1.3-4.7h0v.2ZM309.9,380.5h0Z"/>
              <path id="DejaVuSans-61-5" d="M327.9,388.2c-2,0-3.3.2-4.1.7-.8.4-1.1,1.2-1.1,2.3s.3,1.6.8,2c.6.5,1.3.8,2.3.8s2.4-.5,3.2-1.4,1.2-2.3,1.2-3.8v-.6h-2.4.1ZM332.7,387.2v8.5h-2.4v-2.3c-.6.9-1.3,1.6-2,2-.8.4-1.8.6-3,.6s-2.7-.4-3.6-1.3c-.9-.8-1.3-2-1.3-3.4s.6-2.9,1.7-3.7c1.1-.8,2.7-1.3,5-1.3h3.4v-.2c0-1.1-.4-2-1.1-2.6s-1.8-.9-3.1-.9-1.7,0-2.5.3-1.6.5-2.3.9v-2.3c.9-.4,1.8-.6,2.6-.8.8-.1,1.6-.3,2.5-.3,2.1,0,3.7.6,4.8,1.7s1.6,2.7,1.6,5h-.3Z"/>
              <path id="DejaVuSans-72-3" d="M346.2,383.1c-.3-.1-.6-.3-.9-.4s-.7-.1-1.1-.1c-1.3,0-2.4.4-3.2,1.3-.7.9-1.1,2.2-1.1,3.9v7.8h-2.5v-14.7h2.5v2.3c.5-.9,1.2-1.6,2-2s1.8-.6,3-.6.4,0,.6,0h.7v2.5h0Z"/>
              <path id="DejaVuSans-65-6" d="M360.8,387.6v1.2h-11.1c.1,1.7.6,3,1.5,3.8s2.2,1.3,3.7,1.3,1.8-.1,2.7-.4,1.8-.6,2.6-1.1v2.3c-.8.4-1.8.6-2.7.8s-1.8.3-2.7.3c-2.3,0-4.2-.7-5.6-2s-2-3.2-2-5.6.6-4.3,2-5.8c1.3-1.4,3-2.1,5.3-2.1s3.5.6,4.7,1.9c1.1,1.3,1.8,3,1.8,5.2h0l-.2.2ZM358.4,386.9c0-1.3-.4-2.4-1.1-3.2s-1.7-1.2-2.9-1.2-2.5.4-3.2,1.1-1.3,1.8-1.4,3.2h8.7-.1Z"/>
            </g>
          </g>
          <g id="text_3">
            <g>
              <path id="DejaVuSans-57" d="M536.6,565.6h2.7l4.2,16.6,4.2-16.6h3l4.2,16.6,4.2-16.6h2.7l-4.9,19.7h-3.4l-4.2-17.1-4.2,17.1h-3.4l-4.9-19.7h-.2Z"/>
              <path id="DejaVuSans-69-2" d="M564.3,570.5h2.4v14.7h-2.4v-14.7ZM564.3,564.8h2.4v3.1h-2.4v-3.1Z"/>
              <path id="DejaVuSans-6c-4" d="M571.7,564.8h2.4v20.5h-2.4v-20.5Z"/>
              <path id="DejaVuSans-61-6" d="M586,577.9c-2,0-3.3.2-4.1.7-.8.4-1.1,1.2-1.1,2.3s.3,1.6.8,2c.6.5,1.3.8,2.3.8s2.4-.5,3.2-1.4c.8-1,1.2-2.3,1.2-3.8v-.6h-2.4,0ZM590.8,576.9v8.5h-2.4v-2.3c-.6.9-1.3,1.6-2,2-.8.4-1.8.6-3,.6s-2.7-.4-3.6-1.3c-.9-.8-1.3-2-1.3-3.4s.6-2.9,1.7-3.7,2.7-1.3,5-1.3h3.4v-.2c0-1.1-.4-2-1.1-2.6s-1.8-.9-3.1-.9-1.7,0-2.5.3c-.8.2-1.6.5-2.3.9v-2.3c.9-.4,1.8-.6,2.6-.8.8,0,1.6-.3,2.5-.3,2.1,0,3.7.6,4.8,1.7,1.1,1.1,1.6,2.7,1.6,5h-.3Z"/>
              <path id="DejaVuSans-6e-4" d="M608.1,576.4v8.9h-2.4v-8.8c0-1.4-.3-2.5-.8-3.1-.6-.7-1.3-1.1-2.5-1.1s-2.3.4-3.1,1.3-1.1,2-1.1,3.4v8.3h-2.5v-14.7h2.5v2.3c.6-.9,1.3-1.6,2-2s1.7-.6,2.7-.6c1.7,0,3,.5,3.9,1.6.8,1.1,1.3,2.6,1.3,4.7h0v-.2Z"/>
              <path id="DejaVuSans-f3" d="M618.7,572.2c-1.3,0-2.3.5-3.1,1.6s-1.1,2.4-1.1,4.2.4,3.2,1.1,4.2,1.8,1.6,3.1,1.6,2.3-.5,3.1-1.6c.8-1,1.1-2.4,1.1-4.2s-.4-3.1-1.1-4.2-1.8-1.6-3.1-1.6ZM618.7,570.2c2.1,0,3.7.7,5,2,1.2,1.3,1.8,3.2,1.8,5.7s-.6,4.3-1.8,5.7-2.9,2-5,2-3.8-.7-5-2c-1.2-1.4-1.8-3.2-1.8-5.7s.6-4.3,1.8-5.7c1.2-1.3,2.9-2,5-2ZM620.5,563.7h2.6l-4.3,4.9h-2l3.7-4.9h0Z"/>
              <path id="DejaVuSans-77-2" d="M628.1,570.5h2.4l3,11.5,3-11.5h2.9l3,11.5,3-11.5h2.4l-3.9,14.7h-2.9l-3.2-12.1-3.2,12.1h-2.9l-3.9-14.7h.3Z"/>
              <path id="DejaVuSans-20-8" d="M649,585.3"/>
              <path id="DejaVuSans-50-2" d="M662.9,567.8v7.4h3.4c1.3,0,2.2-.4,2.9-1s1-1.6,1-2.7-.4-2.1-1-2.7c-.7-.6-1.6-1-2.9-1h-3.4ZM660.2,565.6h6c2.2,0,3.9.5,5,1.5s1.7,2.5,1.7,4.4-.6,3.4-1.7,4.4c-1.1,1-2.8,1.5-5,1.5h-3.4v7.9h-2.7v-19.7h.1Z"/>
              <path id="DejaVuSans-61-7" d="M681.9,577.9c-2,0-3.3.2-4.1.7-.8.4-1.1,1.2-1.1,2.3s.3,1.6.8,2,1.3.8,2.3.8,2.4-.5,3.2-1.4c.8-1,1.2-2.3,1.2-3.8v-.6h-2.4,0ZM686.8,576.9v8.5h-2.4v-2.3c-.6.9-1.3,1.6-2,2-.8.4-1.8.6-3,.6s-2.7-.4-3.6-1.3-1.3-2-1.3-3.4.6-2.9,1.7-3.7c1.1-.8,2.7-1.3,5-1.3h3.4v-.2c0-1.1-.4-2-1.1-2.6-.7-.6-1.8-.9-3.1-.9s-1.7,0-2.5.3c-.8.2-1.6.5-2.3.9v-2.3c.9-.4,1.8-.6,2.6-.8.8,0,1.6-.3,2.5-.3,2.1,0,3.7.6,4.8,1.7,1.1,1.1,1.6,2.7,1.6,5h-.3Z"/>
              <path id="DejaVuSans-6c-5" d="M691.7,564.8h2.4v20.5h-2.4v-20.5Z"/>
              <path id="DejaVuSans-61-8" d="M706,577.9c-2,0-3.3.2-4.1.7-.8.4-1.1,1.2-1.1,2.3s.3,1.6.8,2,1.3.8,2.3.8,2.4-.5,3.2-1.4c.8-1,1.2-2.3,1.2-3.8v-.6h-2.4,0ZM710.8,576.9v8.5h-2.4v-2.3c-.6.9-1.3,1.6-2,2-.8.4-1.8.6-3,.6s-2.7-.4-3.6-1.3-1.3-2-1.3-3.4.6-2.9,1.7-3.7c1.1-.8,2.7-1.3,5-1.3h3.4v-.2c0-1.1-.4-2-1.1-2.6s-1.8-.9-3.1-.9-1.7,0-2.5.3c-.8.2-1.6.5-2.3.9v-2.3c.9-.4,1.8-.6,2.6-.8.8,0,1.6-.3,2.5-.3,2.1,0,3.7.6,4.8,1.7,1.1,1.1,1.6,2.7,1.6,5h-.3Z"/>
              <path id="DejaVuSans-63-4" d="M726.4,571.1v2.3c-.7-.4-1.3-.6-2-.8s-1.4-.3-2.1-.3c-1.6,0-2.8.5-3.7,1.5-.8,1-1.3,2.4-1.3,4.2s.4,3.2,1.3,4.2c.8,1,2.1,1.5,3.7,1.5s1.4,0,2.1-.3c.7-.2,1.4-.5,2-.8v2.3c-.7.3-1.4.6-2.1.7s-1.5.2-2.3.2c-2.3,0-4-.7-5.3-2.1-1.3-1.4-2-3.3-2-5.6s.6-4.3,2-5.7c1.3-1.4,3.2-2,5.4-2s1.5,0,2.2.2,1.4.4,2,.7h0v-.2Z"/>
              <path id="DejaVuSans-65-7" d="M743.3,577.3v1.2h-11.1c0,1.7.6,3,1.5,3.8s2.2,1.3,3.7,1.3,1.8,0,2.7-.4,1.8-.6,2.6-1.1v2.3c-.8.4-1.8.6-2.7.8s-1.8.3-2.7.3c-2.3,0-4.2-.7-5.6-2-1.4-1.3-2-3.2-2-5.6s.6-4.3,2-5.8c1.3-1.4,3-2.1,5.3-2.1s3.5.6,4.7,1.9c1.1,1.3,1.8,3,1.8,5.2h0l-.2.2ZM740.9,576.6c0-1.3-.4-2.4-1.1-3.2s-1.7-1.2-2.9-1.2-2.5.4-3.2,1.1c-.8.8-1.3,1.8-1.4,3.2h8.7,0Z"/>
            </g>
          </g>
          <g id="text_4">
            <g>
              <path id="DejaVuSans-57-2" class="cls-8" d="M150.1-102.5h1.4l2.1,8.6,2.1-8.6h1.6l2.1,8.6,2.1-8.6h1.4l-2.6,10.2h-1.7l-2.2-8.9-2.2,8.9h-1.7l-2.6-10.2h.2,0Z"/>
              <path id="DejaVuSans-61-9" class="cls-8" d="M167.4-96.1c-1,0-1.7,0-2.1.3s-.6.6-.6,1.2.1.8.4,1.1c.3.3.7.4,1.2.4s1.3-.2,1.7-.7.6-1.2.6-2v-.3h-1.3.1ZM169.9-96.6v4.4h-1.3v-1.2c-.3.5-.6.8-1.1,1-.4.2-1,.3-1.6.3s-1.4-.2-1.9-.7c-.5-.4-.7-1-.7-1.8s.3-1.5.9-1.9c.6-.4,1.4-.7,2.6-.7h1.8c0-.7-.2-1.2-.6-1.5s-.9-.5-1.6-.5-.9,0-1.3.2c-.4,0-.8.3-1.2.5v-1.2c.5-.2.9-.3,1.3-.4h1.3c1.1,0,1.9.3,2.5.9.5.6.8,1.4.8,2.6,0,0,.1,0,.1,0Z"/>
              <path id="DejaVuSans-72-4" class="cls-8" d="M176.9-98.8c-.1,0-.3,0-.5-.2h-.5c-.7,0-1.3.2-1.6.7s-.6,1.1-.6,2v4h-1.3v-7.7h1.3v1.2c.3-.5.6-.8,1-1s.9-.3,1.5-.3.2,0,.3,0h.3v1.3h.1Z"/>
              <path id="DejaVuSans-73" class="cls-8" d="M183.1-99.7v1.2c-.4-.2-.7-.3-1.1-.4h-1.2c-.6,0-1.1,0-1.4.3-.3.2-.5.5-.5.9s.1.5.3.7.7.3,1.3.5h.4c.9.3,1.5.6,1.9.9s.6.8.6,1.5-.3,1.3-.8,1.7c-.6.4-1.3.6-2.3.6h-1.3c-.4,0-.9-.2-1.4-.4v-1.3c.5.2.9.4,1.4.5s.9.2,1.3.2,1,0,1.4-.3c.3-.2.5-.5.5-.9s-.1-.6-.3-.8c-.2-.2-.7-.4-1.5-.5h-.4c-.8-.3-1.3-.5-1.7-.9-.3-.3-.5-.8-.5-1.4s.3-1.3.8-1.7c.5-.4,1.2-.6,2.2-.6h1.3c.4,0,.8.2,1.1.3h-.1Z"/>
              <path id="DejaVuSans-61-10" class="cls-8" d="M189-96.1c-1,0-1.7,0-2.1.3s-.6.6-.6,1.2.1.8.4,1.1c.3.3.7.4,1.2.4s1.3-.2,1.7-.7.6-1.2.6-2v-.3h-1.3.1ZM191.5-96.6v4.4h-1.3v-1.2c-.3.5-.6.8-1.1,1-.4.2-1,.3-1.6.3s-1.4-.2-1.9-.7c-.5-.4-.7-1-.7-1.8s.3-1.5.9-1.9c.6-.4,1.4-.7,2.6-.7h1.8c0-.7-.2-1.2-.6-1.5s-.9-.5-1.6-.5-.9,0-1.3.2c-.4,0-.8.3-1.2.5v-1.2c.5-.2.9-.3,1.3-.4h1.3c1.1,0,1.9.3,2.5.9.5.6.8,1.4.8,2.6,0,0,.1,0,.1,0Z"/>
              <path id="DejaVuSans-77-3" class="cls-8" d="M193.4-99.9h1.3l1.6,6,1.6-6h1.5l1.6,6,1.6-6h1.3l-2,7.7h-1.5l-1.6-6.3-1.7,6.3h-1.5l-2-7.7h-.2Z"/>
              <path id="DejaVuSans-20-9" class="cls-8" d="M204.3-92.3"/>
              <path id="DejaVuSans-2013" class="cls-8" d="M209.4-96.6h5.6v1h-5.6v-1Z"/>
              <path id="DejaVuSans-20-10" class="cls-8" d="M215.7-92.3"/>
              <path id="DejaVuSans-49" class="cls-8" d="M221.5-102.5h1.4v10.2h-1.4v-10.2Z"/>
              <path id="DejaVuSans-6e-5" class="cls-8" d="M232-96.9v4.6h-1.3v-4.6c0-.7-.1-1.3-.4-1.6-.3-.4-.7-.5-1.3-.5s-1.2.2-1.6.6c-.4.4-.6,1-.6,1.8v4.3h-1.3v-7.7h1.3v1.2c.3-.5.7-.8,1.1-1,.4-.2.9-.3,1.4-.3.9,0,1.5.3,2,.8s.7,1.3.7,2.4h0Z"/>
              <path id="DejaVuSans-73-2" class="cls-8" d="M239.4-99.7v1.2c-.4-.2-.7-.3-1.1-.4h-1.2c-.6,0-1.1,0-1.4.3-.3.2-.5.5-.5.9s.1.5.3.7.7.3,1.3.5h.4c.9.3,1.5.6,1.9.9s.6.8.6,1.5-.3,1.3-.8,1.7c-.6.4-1.3.6-2.3.6h-1.3c-.4,0-.9-.2-1.4-.4v-1.3c.5.2.9.4,1.4.5s.9.2,1.3.2,1,0,1.4-.3c.3-.2.5-.5.5-.9s-.1-.6-.3-.8c-.2-.2-.7-.4-1.5-.5h-.4c-.8-.3-1.3-.5-1.7-.9-.3-.3-.5-.8-.5-1.4s.3-1.3.8-1.7c.5-.4,1.2-.6,2.2-.6h1.3c.4,0,.8.2,1.1.3h-.1Z"/>
              <path id="DejaVuSans-74-3" class="cls-8" d="M243-102.1v2.2h2.6v1h-2.6v4.2c0,.6,0,1,.3,1.2s.5.3,1,.3h1.3v1.1h-1.3c-1,0-1.6-.2-2-.5-.4-.4-.6-1-.6-2v-4.2h-.9v-1h.9v-2.2h1.3Z"/>
              <path id="DejaVuSans-61-11" class="cls-8" d="M250.8-96.1c-1,0-1.7,0-2.1.3s-.6.6-.6,1.2.1.8.4,1.1c.3.3.7.4,1.2.4s1.3-.2,1.7-.7.6-1.2.6-2v-.3h-1.3.1ZM253.3-96.6v4.4h-1.3v-1.2c-.3.5-.6.8-1.1,1-.4.2-1,.3-1.6.3s-1.4-.2-1.9-.7c-.5-.4-.7-1-.7-1.8s.3-1.5.9-1.9,1.4-.7,2.6-.7h1.8c0-.7-.2-1.2-.6-1.5s-.9-.5-1.6-.5-.9,0-1.3.2c-.4,0-.8.3-1.2.5v-1.2c.5-.2.9-.3,1.3-.4h1.3c1.1,0,1.9.3,2.5.9.5.6.8,1.4.8,2.6,0,0,.1,0,.1,0Z"/>
              <path id="DejaVuSans-67" class="cls-8" d="M260.9-96.2c0-.9-.2-1.6-.6-2.1s-.9-.8-1.6-.8-1.2.3-1.6.8-.6,1.2-.6,2.1.2,1.6.6,2.1.9.8,1.6.8,1.2-.3,1.6-.8.6-1.2.6-2.1ZM262-93.2c0,1.3-.3,2.3-.9,2.9s-1.5,1-2.7,1h-1.3c-.4,0-.8-.2-1.1-.3v-1.2c.4.2.7.3,1.1.4h1.1c.8,0,1.4-.2,1.9-.6.4-.4.6-1.1.6-2v-.6c-.3.5-.6.8-1,1s-.9.3-1.5.3c-.9,0-1.7-.4-2.3-1.1-.6-.7-.9-1.7-.9-2.8s.3-2.1.9-2.8c.6-.7,1.3-1.1,2.3-1.1s1.1,0,1.5.3.7.6,1,1v-1.2h1.3v6.7h0Z"/>
              <path id="DejaVuSans-72-5" class="cls-8" d="M269.2-98.8c-.1,0-.3,0-.5-.2h-.5c-.7,0-1.3.2-1.6.7s-.6,1.1-.6,2v4h-1.3v-7.7h1.3v1.2c.3-.5.6-.8,1-1s.9-.3,1.5-.3.2,0,.3,0h.3v1.3h.1Z"/>
              <path id="DejaVuSans-61-12" class="cls-8" d="M274-96.1c-1,0-1.7,0-2.1.3s-.6.6-.6,1.2.1.8.4,1.1c.3.3.7.4,1.2.4s1.3-.2,1.7-.7.6-1.2.6-2v-.3h-1.3,0ZM276.5-96.6v4.4h-1.3v-1.2c-.3.5-.6.8-1.1,1-.4.2-1,.3-1.6.3s-1.4-.2-1.9-.7c-.5-.4-.7-1-.7-1.8s.3-1.5.9-1.9,1.4-.7,2.6-.7h1.8c0-.7-.2-1.2-.6-1.5s-.9-.5-1.6-.5-.9,0-1.3.2c-.4,0-.8.3-1.2.5v-1.2c.5-.2.9-.3,1.3-.4h1.3c1.1,0,1.9.3,2.5.9.5.6.8,1.4.8,2.6h.1Z"/>
              <path id="DejaVuSans-6d" class="cls-8" d="M285-98.5c.3-.6.7-1,1.1-1.3s1-.4,1.5-.4,1.4.3,1.8.8c.4.6.6,1.4.6,2.4v4.6h-1.3v-4.6c0-.7-.1-1.3-.4-1.6-.3-.4-.7-.5-1.2-.5s-1.2.2-1.5.6c-.4.4-.6,1-.6,1.8v4.3h-1.3v-4.6c0-.7-.1-1.3-.4-1.6s-.7-.5-1.2-.5-1.2.2-1.5.7c-.4.4-.6,1-.6,1.8v4.3h-1.3v-7.7h1.3v1.2c.3-.5.6-.8,1-1s.9-.3,1.4-.3,1,0,1.4.4.7.7.9,1.2h.3Z"/>
              <path id="DejaVuSans-20-11" class="cls-8" d="M291.4-92.3"/>
              <path id="DejaVuSans-43-2" class="cls-8" d="M304.9-101.7v1.5c-.5-.4-1-.8-1.5-1s-1.1-.3-1.7-.3c-1.2,0-2.1.4-2.7,1.1s-.9,1.7-.9,3.1.3,2.4.9,3.1,1.5,1.1,2.7,1.1,1.2,0,1.7-.3,1-.5,1.5-1v1.4c-.5.3-1,.6-1.5.7-.5.2-1.1.2-1.7.2-1.5,0-2.8-.5-3.7-1.4-.9-.9-1.3-2.2-1.3-3.9s.4-2.9,1.3-3.9c.9-.9,2.1-1.4,3.7-1.4s1.2,0,1.7.2,1,.4,1.5.7h0Z"/>
              <path id="DejaVuSans-61-13" class="cls-8" d="M310.4-96.1c-1,0-1.7,0-2.1.3s-.6.6-.6,1.2.1.8.4,1.1c.3.3.7.4,1.2.4s1.3-.2,1.7-.7.6-1.2.6-2v-.3h-1.3,0ZM312.9-96.6v4.4h-1.3v-1.2c-.3.5-.6.8-1.1,1-.4.2-1,.3-1.6.3s-1.4-.2-1.9-.7c-.5-.4-.7-1-.7-1.8s.3-1.5.9-1.9,1.4-.7,2.6-.7h1.8c0-.7-.2-1.2-.6-1.5s-.9-.5-1.6-.5-.9,0-1.3.2c-.4,0-.8.3-1.2.5v-1.2c.5-.2.9-.3,1.3-.4h1.3c1.1,0,1.9.3,2.5.9.5.6.8,1.4.8,2.6h.1Z"/>
              <path id="DejaVuSans-66-2" class="cls-8" d="M319.4-102.9v1h-1.2c-.5,0-.8,0-.9.3-.2.2-.3.5-.3,1v.7h2.1v1h-2.1v6.7h-1.3v-6.7h-1.2v-1h1.2v-.5c0-.9.2-1.5.6-1.9s1-.6,1.9-.6h1.2,0Z"/>
              <path id="DejaVuSans-e9" class="cls-8" d="M327-96.4v.6h-5.8c0,.9.3,1.5.8,2s1.1.7,2,.7,1,0,1.4-.2.9-.3,1.4-.5v1.2c-.5.2-.9.3-1.4.4s-1,.2-1.4.2c-1.2,0-2.2-.4-2.9-1.1-.7-.7-1.1-1.7-1.1-2.9s.3-2.2,1-3c.7-.7,1.6-1.1,2.7-1.1s1.8.3,2.4,1,.9,1.6.9,2.7ZM325.7-96.8c0-.7-.2-1.2-.6-1.6s-.9-.6-1.5-.6-1.3.2-1.7.6-.7,1-.7,1.7h4.5ZM324.5-103.5h1.4l-2.2,2.6h-1l1.9-2.6h0Z"/>
              <path id="DejaVuSans-73-3" class="cls-8" d="M333.9-99.7v1.2c-.4-.2-.7-.3-1.1-.4h-1.2c-.6,0-1.1,0-1.4.3-.3.2-.5.5-.5.9s.1.5.3.7.7.3,1.3.5h.4c.9.3,1.5.6,1.9.9s.6.8.6,1.5-.3,1.3-.8,1.7c-.6.4-1.3.6-2.3.6h-1.3c-.4,0-.9-.2-1.4-.4v-1.3c.5.2.9.4,1.4.5s.9.2,1.3.2,1,0,1.4-.3c.3-.2.5-.5.5-.9s-.1-.6-.3-.8c-.2-.2-.7-.4-1.5-.5h-.4c-.8-.3-1.3-.5-1.7-.9-.3-.3-.5-.8-.5-1.4s.3-1.3.8-1.7c.5-.4,1.2-.6,2.2-.6h1.3c.4,0,.8.2,1.1.3h0Z"/>
              <path id="DejaVuSans-20-12" class="cls-8" d="M335-92.3"/>
              <path id="DejaVuSans-62" class="cls-8" d="M346.3-96.1c0-.9-.2-1.7-.6-2.2s-.9-.8-1.6-.8-1.2.3-1.6.8-.6,1.3-.6,2.2.2,1.7.6,2.2.9.8,1.6.8,1.2-.3,1.6-.8.6-1.3.6-2.2ZM342-98.8c.3-.5.6-.8,1-1s.9-.3,1.4-.3c.9,0,1.7.4,2.3,1.1.6.7.9,1.7.9,2.9s-.3,2.2-.9,2.9c-.6.7-1.3,1.1-2.3,1.1s-1,0-1.4-.3c-.4-.2-.7-.6-1-1v1.1h-1.3v-10.6h1.3v4.1Z"/>
              <path id="DejaVuSans-79" class="cls-8" d="M352.9-91.6c-.4.9-.7,1.5-1,1.8s-.8.4-1.4.4h-1v-1.1h.7c.3,0,.6,0,.8-.2.2-.2.4-.6.6-1.2l.2-.6-3.1-7.5h1.3l2.4,6,2.4-6h1.3l-3.4,8.4h.2Z"/>
              <path id="DejaVuSans-20-13" class="cls-8" d="M356.7-92.3"/>
              <path id="DejaVuSans-54-2" class="cls-8" d="M361-102.5h8.6v1.2h-3.6v9h-1.4v-9h-3.6v-1.2Z"/>
              <path id="DejaVuSans-68" class="cls-8" d="M377.3-96.9v4.6h-1.3v-4.6c0-.7-.1-1.3-.4-1.6-.3-.4-.7-.5-1.3-.5s-1.2.2-1.6.6-.6,1-.6,1.8v4.3h-1.3v-10.6h1.3v4.2c.3-.5.7-.8,1.1-1s.9-.3,1.4-.3c.9,0,1.5.3,2,.8s.7,1.3.7,2.4h0Z"/>
              <path id="DejaVuSans-65-8" class="cls-8" d="M386.4-96.4v.6h-5.8c0,.9.3,1.5.8,2s1.1.7,2,.7,1,0,1.4-.2.9-.3,1.4-.5v1.2c-.5.2-.9.3-1.4.4s-1,.2-1.4.2c-1.2,0-2.2-.4-2.9-1.1-.7-.7-1.1-1.7-1.1-2.9s.3-2.2,1-3c.7-.7,1.6-1.1,2.7-1.1s1.8.3,2.4,1,.9,1.6.9,2.7ZM385-96.8c0-.7-.2-1.2-.6-1.6s-.9-.6-1.5-.6-1.3.2-1.7.6-.7,1-.7,1.7h4.5Z"/>
              <path id="DejaVuSans-6d-2" class="cls-8" d="M394.4-98.5c.3-.6.7-1,1.1-1.3s1-.4,1.5-.4,1.4.3,1.8.8c.4.6.6,1.4.6,2.4v4.6h-1.3v-4.6c0-.7-.1-1.3-.4-1.6-.3-.4-.7-.5-1.2-.5s-1.2.2-1.5.6c-.4.4-.6,1-.6,1.8v4.3h-1.3v-4.6c0-.7-.1-1.3-.4-1.6s-.7-.5-1.2-.5-1.2.2-1.5.7c-.4.4-.6,1-.6,1.8v4.3h-1.3v-7.7h1.3v1.2c.3-.5.6-.8,1-1s.9-.3,1.4-.3,1,0,1.4.4.7.7.9,1.2h.3Z"/>
              <path id="DejaVuSans-65-9" class="cls-8" d="M408.7-96.4v.6h-5.8c0,.9.3,1.5.8,2s1.1.7,2,.7,1,0,1.4-.2.9-.3,1.4-.5v1.2c-.5.2-.9.3-1.4.4s-1,.2-1.4.2c-1.2,0-2.2-.4-2.9-1.1-.7-.7-1.1-1.7-1.1-2.9s.3-2.2,1-3c.7-.7,1.6-1.1,2.7-1.1s1.8.3,2.4,1,.9,1.6.9,2.7ZM407.4-96.8c0-.7-.2-1.2-.6-1.6s-.9-.6-1.5-.6-1.3.2-1.7.6-.7,1-.7,1.7h4.5Z"/>
              <path id="DejaVuSans-20-14" class="cls-8" d="M409.4-92.3"/>
              <path id="DejaVuSans-28" class="cls-8" d="M418.2-102.9c-.6,1-1.1,2.1-1.4,3.1s-.4,2.1-.4,3.1.1,2.1.4,3.1.8,2.1,1.4,3.1h-1.1c-.7-1.1-1.2-2.1-1.5-3.2-.3-1-.5-2.1-.5-3.1s.2-2,.5-3.1c.3-1,.9-2.1,1.5-3.2h1.1v.2Z"/>
              <path id="DejaVuSans-5a" class="cls-8" d="M420-102.5h8v1.1l-6.5,8h6.6v1.2h-8.3v-1.1l6.5-8h-6.3v-1.2h0Z"/>
              <path id="DejaVuSans-6f-3" class="cls-8" d="M433.2-99.1c-.7,0-1.2.3-1.6.8s-.6,1.2-.6,2.2.2,1.6.6,2.2c.4.5.9.8,1.6.8s1.2-.3,1.6-.8.6-1.2.6-2.2-.2-1.6-.6-2.2c-.4-.5-.9-.8-1.6-.8ZM433.2-100.1c1.1,0,2,.4,2.6,1.1s.9,1.7.9,3-.3,2.2-.9,3c-.6.7-1.5,1.1-2.6,1.1s-2-.4-2.6-1.1-.9-1.7-.9-3,.3-2.2.9-3c.6-.7,1.5-1.1,2.6-1.1Z"/>
              <path id="DejaVuSans-6f-4" class="cls-8" d="M441.7-99.1c-.7,0-1.2.3-1.6.8s-.6,1.2-.6,2.2.2,1.6.6,2.2c.4.5.9.8,1.6.8s1.2-.3,1.6-.8.6-1.2.6-2.2-.2-1.6-.6-2.2c-.4-.5-.9-.8-1.6-.8ZM441.7-100.1c1.1,0,2,.4,2.6,1.1s.9,1.7.9,3-.3,2.2-.9,3c-.6.7-1.5,1.1-2.6,1.1s-2-.4-2.6-1.1-.9-1.7-.9-3,.3-2.2.9-3c.6-.7,1.5-1.1,2.6-1.1Z"/>
              <path id="DejaVuSans-6d-3" class="cls-8" d="M453.3-98.5c.3-.6.7-1,1.1-1.3s1-.4,1.5-.4,1.4.3,1.8.8c.4.6.6,1.4.6,2.4v4.6h-1.3v-4.6c0-.7-.1-1.3-.4-1.6-.3-.4-.7-.5-1.2-.5s-1.2.2-1.5.6c-.4.4-.6,1-.6,1.8v4.3h-1.3v-4.6c0-.7-.1-1.3-.4-1.6s-.7-.5-1.2-.5-1.2.2-1.5.7c-.4.4-.6,1-.6,1.8v4.3h-1.3v-7.7h1.3v1.2c.3-.5.6-.8,1-1s.9-.3,1.4-.3,1,0,1.4.4.7.7.9,1.2h.3Z"/>
              <path id="DejaVuSans-65-10" class="cls-8" d="M467.5-96.4v.6h-5.8c0,.9.3,1.5.8,2s1.1.7,2,.7,1,0,1.4-.2.9-.3,1.4-.5v1.2c-.5.2-.9.3-1.4.4s-1,.2-1.4.2c-1.2,0-2.2-.4-2.9-1.1-.7-.7-1.1-1.7-1.1-2.9s.3-2.2,1-3c.7-.7,1.6-1.1,2.7-1.1s1.8.3,2.4,1,.9,1.6.9,2.7ZM466.3-96.8c0-.7-.2-1.2-.6-1.6s-.9-.6-1.5-.6-1.3.2-1.7.6-.7,1-.7,1.7h4.5Z"/>
              <path id="DejaVuSans-64-3" class="cls-8" d="M474.5-98.8v-4.1h1.3v10.6h-1.3v-1.1c-.3.5-.6.8-1,1s-.9.3-1.5.3c-.9,0-1.7-.4-2.3-1.1-.6-.7-.9-1.7-.9-2.9s.3-2.2.9-2.9c.6-.7,1.3-1.1,2.3-1.1s1.1,0,1.5.3c.4.2.7.6,1,1ZM470.4-96.1c0,.9.2,1.7.6,2.2s.9.8,1.6.8,1.2-.3,1.6-.8.6-1.3.6-2.2-.2-1.7-.6-2.2-.9-.8-1.6-.8-1.2.3-1.6.8-.6,1.3-.6,2.2Z"/>
              <path id="DejaVuSans-20-15" class="cls-8" d="M477.2-92.3"/>
              <path id="DejaVuSans-4f-2" class="cls-8" d="M487-101.6c-1,0-1.8.4-2.4,1.1s-.9,1.8-.9,3.1.3,2.3.9,3,1.4,1.1,2.4,1.1,1.8-.4,2.4-1.1.9-1.8.9-3-.3-2.3-.9-3.1c-.6-.7-1.4-1.1-2.4-1.1h0ZM487-102.7c1.4,0,2.6.5,3.4,1.4.9,1,1.3,2.2,1.3,3.9s-.4,2.9-1.3,3.9-2,1.4-3.4,1.4-2.6-.5-3.4-1.4c-.9-1-1.3-2.2-1.3-3.9s.4-2.9,1.3-3.9,2-1.4,3.4-1.4h0Z"/>
              <path id="DejaVuSans-75-4" class="cls-8" d="M493.8-95.3v-4.6h1.3v4.6c0,.7,0,1.3.4,1.6.3.4.7.5,1.3.5s1.2-.2,1.6-.6.6-1,.6-1.8v-4.3h1.3v7.7h-1.3v-1.2c-.3.5-.7.8-1.1,1s-.9.3-1.4.3c-.9,0-1.5-.3-2-.8s-.7-1.3-.7-2.4h0ZM497-100.1h0Z"/>
              <path id="DejaVuSans-74-4" class="cls-8" d="M504-102.1v2.2h2.6v1h-2.6v4.2c0,.6,0,1,.3,1.2s.5.3,1,.3h1.3v1.1h-1.3c-1,0-1.6-.2-2-.5-.4-.4-.6-1-.6-2v-4.2h-.9v-1h.9v-2.2h1.3Z"/>
              <path id="DejaVuSans-29" class="cls-8" d="M508-102.9h1.1c.7,1.1,1.2,2.1,1.5,3.2.3,1,.5,2.1.5,3.1s-.2,2-.5,3.1c-.3,1-.9,2.1-1.5,3.2h-1.1c.6-1,1.1-2.1,1.4-3.1s.4-2.1.4-3.1,0-2.1-.4-3.1c-.3-1-.8-2.1-1.4-3.1v-.2Z"/>
            </g>
          </g>
          <g id="PathCollection_5">
            <rect class="cls-1" x="-223.9" y="-4086.6" width="2951.8" height="5170.2"/>
            <g>
              <path id="ma07d4d43fd" class="cls-6" d="M394,447.5c2,0,3.9-.8,5.4-2.3s2.3-3.4,2.3-5.4-.8-3.9-2.3-5.4-3.4-2.3-5.4-2.3-3.9.8-5.4,2.3-2.3,3.4-2.3,5.4.8,3.9,2.3,5.4,3.4,2.3,5.4,2.3h0Z"/>
              <path id="ma07d4d43fd-2" class="cls-6" d="M401.8,406.9c2,0,3.9-.8,5.4-2.3s2.3-3.4,2.3-5.4-.8-3.9-2.3-5.4-3.4-2.3-5.4-2.3-3.9.8-5.4,2.3-2.3,3.4-2.3,5.4.8,3.9,2.3,5.4,3.4,2.3,5.4,2.3Z"/>
              <path id="ma07d4d43fd-3" class="cls-6" d="M520.6,582.3c2,0,3.9-.8,5.4-2.3s2.3-3.4,2.3-5.4-.8-3.9-2.3-5.4-3.4-2.3-5.4-2.3-3.9.8-5.4,2.3-2.3,3.4-2.3,5.4.8,3.9,2.3,5.4,3.4,2.3,5.4,2.3Z"/>
            </g>
          </g>
          <g id="legend_1">
            <g id="text_5">
              <g>
                <path id="DejaVuSans-50-3" class="cls-8" d="M1082.4,135.3v3.3h1.5c.6,0,1,0,1.3-.4s.5-.7.5-1.2-.2-.9-.5-1.2-.7-.4-1.3-.4h-1.5ZM1081.2,134.3h2.7c1,0,1.7.2,2.2.7.5.4.8,1.1.8,1.9s-.3,1.5-.8,2c-.5.4-1.2.7-2.2.7h-1.5v3.5h-1.2v-8.7h0Z"/>
                <path id="DejaVuSans-72-6" class="cls-8" d="M1092,137.6s-.3,0-.4-.2h-.5c-.6,0-1.1.2-1.4.6s-.5,1-.5,1.7v3.5h-1.1v-6.6h1.1v1c.2-.4.5-.7.9-.9s.8-.3,1.3-.3.2,0,.2,0h.3v1.1h0Z"/>
                <path id="DejaVuSans-69-3" class="cls-8" d="M1093.1,136.6h1.1v6.6h-1.1v-6.6ZM1093.1,133.9h1.1v1.4h-1.1v-1.4Z"/>
                <path id="DejaVuSans-6d-4" class="cls-8" d="M1101.6,137.8c.3-.5.6-.8,1-1.1s.8-.3,1.3-.3,1.2.2,1.6.7.6,1.2.6,2v4h-1.1v-3.9c0-.6,0-1.1-.3-1.4s-.6-.5-1-.5-1,.2-1.3.6-.5.9-.5,1.5v3.7h-1.1v-3.9c0-.6,0-1.1-.3-1.4s-.6-.5-1-.5-1,.2-1.3.6-.5.9-.5,1.5v3.7h-1.1v-6.6h1.1v1c.2-.4.5-.7.9-.9s.8-.3,1.2-.3.9,0,1.2.4c.3.2.6.6.7,1.1h0,0Z"/>
                <path id="DejaVuSans-61-14" class="cls-8" d="M1111.1,139.8c-.9,0-1.5,0-1.8.3s-.5.5-.5,1,0,.7.4.9c.3.2.6.3,1,.3s1.1-.2,1.4-.6.5-1,.5-1.7v-.2h-1.1,0ZM1113.3,139.3v3.7h-1.1v-1c-.2.4-.6.7-.9.9-.4.2-.8.3-1.3.3s-1.2-.2-1.6-.6c-.4-.4-.6-.9-.6-1.5s.2-1.3.7-1.7,1.2-.6,2.2-.6h1.5c0-.6-.2-1-.5-1.3s-.8-.4-1.4-.4h-1.1c-.4,0-.7.2-1,.4v-1c.4-.2.8-.3,1.1-.3h1.1c1,0,1.7.2,2.1.7.5.5.7,1.2.7,2.2v.2h.1Z"/>
                <path id="DejaVuSans-72-7" class="cls-8" d="M1119.3,137.6s-.3,0-.4-.2h-.5c-.6,0-1.1.2-1.4.6s-.5,1-.5,1.7v3.5h-1.1v-6.6h1.1v1c.2-.4.5-.7.9-.9s.8-.3,1.3-.3.2,0,.2,0h.3v1.1h0Z"/>
                <path id="DejaVuSans-79-2" class="cls-8" d="M1123.2,143.7c-.3.8-.6,1.3-.9,1.5s-.7.4-1.2.4h-.9v-.9h.6c.3,0,.5,0,.7-.2.2,0,.3-.5.5-1l.2-.5-2.7-6.5h1.1l2.1,5.1,2.1-5.1h1.1l-2.9,7.2h.2Z"/>
                <path id="DejaVuSans-20-16" class="cls-8" d="M1126.4,143.1"/>
                <path id="DejaVuSans-54-3" class="cls-8" d="M1130.2,134.3h7.4v1h-3.1v7.8h-1.2v-7.8h-3.1v-1h0Z"/>
                <path id="DejaVuSans-68-2" class="cls-8" d="M1144.1,139.2v4h-1.1v-3.9c0-.6,0-1.1-.4-1.4-.2-.3-.6-.5-1.1-.5s-1,.2-1.4.6c-.3.4-.5.9-.5,1.5v3.7h-1.1v-9.1h1.1v3.6c.3-.4.6-.7.9-.9s.8-.3,1.2-.3c.8,0,1.3.2,1.7.7s.6,1.2.6,2.1h.1Z"/>
                <path id="DejaVuSans-65-11" class="cls-8" d="M1151.9,139.6v.5h-5c0,.7.3,1.3.7,1.7.4.4,1,.6,1.7.6s.8,0,1.2-.2.8-.3,1.2-.5v1c-.4.2-.8.3-1.2.4s-.8,0-1.2,0c-1,0-1.9-.3-2.5-.9s-.9-1.4-.9-2.5.3-1.9.9-2.6c.6-.6,1.4-.9,2.3-.9s1.6.3,2.1.9.8,1.3.8,2.3h0v.2ZM1150.8,139.2c0-.6-.2-1.1-.5-1.4-.3-.4-.7-.5-1.3-.5s-1.1.2-1.4.5-.6.8-.6,1.4h3.8Z"/>
                <path id="DejaVuSans-6d-5" class="cls-8" d="M1158.8,137.8c.3-.5.6-.8,1-1.1s.8-.3,1.3-.3,1.2.2,1.6.7.6,1.2.6,2v4h-1.1v-3.9c0-.6,0-1.1-.3-1.4s-.6-.5-1-.5-1,.2-1.3.6-.5.9-.5,1.5v3.7h-1.1v-3.9c0-.6,0-1.1-.3-1.4s-.6-.5-1-.5-1,.2-1.3.6-.5.9-.5,1.5v3.7h-1.1v-6.6h1.1v1c.2-.4.5-.7.9-.9s.8-.3,1.2-.3.9,0,1.2.4c.3.2.6.6.7,1.1h0,0Z"/>
                <path id="DejaVuSans-65-12" class="cls-8" d="M1171,139.6v.5h-5c0,.7.3,1.3.7,1.7.4.4,1,.6,1.7.6s.8,0,1.2-.2.8-.3,1.2-.5v1c-.4.2-.8.3-1.2.4s-.8,0-1.2,0c-1,0-1.9-.3-2.5-.9s-.9-1.4-.9-2.5.3-1.9.9-2.6c.6-.6,1.4-.9,2.3-.9s1.6.3,2.1.9.8,1.3.8,2.3h0v.2ZM1169.9,139.2c0-.6-.2-1.1-.5-1.4-.3-.4-.7-.5-1.3-.5s-1.1.2-1.4.5-.6.8-.6,1.4h3.8Z"/>
              </g>
            </g>
            <g id="PathCollection_6">
              <path id="m6e8c6cba44-3" class="cls-7" d="M1069.1,157.7c.3,0,.6,0,.8-.3.2-.2.3-.5.3-.8s0-.6-.3-.8c-.2-.2-.5-.3-.8-.3s-.6,0-.8.3c-.2.2-.3.5-.3.8s0,.6.3.8c.2.2.5.3.8.3Z"/>
            </g>
            <g id="text_6">
              <g>
                <path id="DejaVuSans-63-5" class="cls-8" d="M1094.3,153.7v.9c-.3-.2-.6-.3-.8-.3h-.9c-.6,0-1.1.2-1.5.6s-.5,1-.5,1.7.2,1.3.5,1.7c.4.4.9.6,1.5.6h.9c.3,0,.6-.2.8-.3v.9c-.3,0-.6.2-.9.3h-.9c-.9,0-1.6-.3-2.2-.9-.5-.6-.8-1.3-.8-2.3s.3-1.8.8-2.3c.5-.6,1.3-.8,2.2-.8h.9c.3,0,.6.2.8.3h0Z"/>
                <path id="DejaVuSans-6f-5" class="cls-8" d="M1098.3,154.2c-.5,0-.9.2-1.3.6s-.5,1-.5,1.7.2,1.3.5,1.7.7.6,1.3.6.9-.2,1.3-.6c.3-.4.5-1,.5-1.7s-.2-1.3-.5-1.7-.7-.6-1.3-.6ZM1098.3,153.2c.9,0,1.5.3,2,.8.5.6.7,1.3.7,2.3s-.2,1.8-.7,2.3c-.5.6-1.2.8-2,.8s-1.5-.3-2-.8c-.5-.6-.7-1.3-.7-2.3s.2-1.8.7-2.3c.5-.6,1.2-.8,2-.8Z"/>
                <path id="DejaVuSans-6d-6" class="cls-8" d="M1107.4,154.6c.2-.4.5-.8.9-1s.7-.3,1.2-.3,1.1.2,1.5.7c.3.4.5,1.1.5,1.9v3.6h-1v-3.6c0-.6,0-1-.3-1.3s-.5-.4-.9-.4-.9.2-1.2.5-.4.8-.4,1.4v3.4h-1v-3.6c0-.6,0-1-.3-1.3s-.5-.4-.9-.4-.9.2-1.2.5-.4.8-.4,1.4v3.4h-1v-6h1v.9c.2-.4.5-.6.8-.8s.7-.3,1.1-.3.8,0,1.1.3c.3.2.5.5.7,1h-.2,0Z"/>
                <path id="DejaVuSans-6d-7" class="cls-8" d="M1118.1,154.6c.2-.4.5-.8.9-1s.7-.3,1.2-.3,1.1.2,1.5.7c.3.4.5,1.1.5,1.9v3.6h-1v-3.6c0-.6,0-1-.3-1.3s-.5-.4-.9-.4-.9.2-1.2.5-.4.8-.4,1.4v3.4h-1v-3.6c0-.6,0-1-.3-1.3s-.5-.4-.9-.4-.9.2-1.2.5-.4.8-.4,1.4v3.4h-1v-6h1v.9c.2-.4.5-.6.8-.8s.7-.3,1.1-.3.8,0,1.1.3c.3.2.5.5.7,1h-.2,0Z"/>
                <path id="DejaVuSans-75-5" class="cls-8" d="M1124.1,157.1v-3.6h1v3.6c0,.6,0,1,.3,1.3s.6.4,1,.4,1-.2,1.3-.5.5-.8.5-1.4v-3.4h1v6h-1v-.9c-.2.4-.5.6-.8.8s-.7.3-1.1.3c-.7,0-1.2-.2-1.6-.6-.4-.4-.5-1.1-.5-1.9h-.1ZM1126.5,153.2h0Z"/>
                <path id="DejaVuSans-6e-6" class="cls-8" d="M1136.1,155.8v3.6h-1v-3.6c0-.6,0-1-.3-1.3s-.6-.4-1-.4-1,.2-1.3.5-.5.8-.5,1.4v3.4h-1v-6h1v.9c.2-.4.5-.6.8-.8s.7-.3,1.1-.3c.7,0,1.2.2,1.6.6.4.4.5,1.1.5,1.9h.1Z"/>
                <path id="DejaVuSans-69-4" class="cls-8" d="M1138.1,153.4h1v6h-1v-6ZM1138.1,151.1h1v1.3h-1v-1.3Z"/>
                <path id="DejaVuSans-74-5" class="cls-8" d="M1142.1,151.8v1.7h2v.8h-2v3.3c0,.5,0,.8.2.9s.4.2.8.2h1v.8h-1c-.8,0-1.3,0-1.6-.4s-.4-.8-.4-1.6v-3.3h-.7v-.8h.7v-1.7h1Z"/>
                <path id="DejaVuSans-79-3" class="cls-8" d="M1148,160.1c-.3.7-.6,1.2-.8,1.4-.3.2-.6.3-1.1.3h-.8v-.8h.6c.3,0,.5,0,.6-.2.2,0,.3-.4.5-.9l.2-.5-2.4-5.9h1l1.9,4.7,1.9-4.7h1l-2.6,6.6h0Z"/>
                <path id="DejaVuSans-5f" class="cls-8" d="M1156.6,161.2v.8h-5.7v-.8h5.7Z"/>
                <path id="DejaVuSans-65-13" class="cls-8" d="M1162.6,156.2v.5h-4.5c0,.7.2,1.2.6,1.6.4.4.9.5,1.5.5h1.1c.4,0,.7-.2,1.1-.4v.9c-.4.2-.7.3-1.1.3h-1.1c-1,0-1.7-.3-2.3-.8-.6-.6-.8-1.3-.8-2.3s.3-1.8.8-2.3c.5-.6,1.2-.9,2.2-.9s1.4.3,1.9.8.7,1.2.7,2.1h0,0ZM1161.6,155.8c0-.5-.2-1-.5-1.3s-.7-.5-1.2-.5-1,.2-1.3.5-.5.8-.6,1.3h3.6Z"/>
                <path id="DejaVuSans-76" class="cls-8" d="M1163.5,153.4h1l1.9,5,1.9-5h1l-2.3,6h-1.3l-2.3-6h.1Z"/>
                <path id="DejaVuSans-65-14" class="cls-8" d="M1175.9,156.2v.5h-4.5c0,.7.2,1.2.6,1.6.4.4.9.5,1.5.5h1.1c.4,0,.7-.2,1.1-.4v.9c-.4.2-.7.3-1.1.3h-1.1c-1,0-1.7-.3-2.3-.8-.6-.6-.8-1.3-.8-2.3s.3-1.8.8-2.3c.5-.6,1.2-.9,2.2-.9s1.4.3,1.9.8.7,1.2.7,2.1h0,0ZM1174.9,155.8c0-.5-.2-1-.5-1.3s-.7-.5-1.2-.5-1,.2-1.3.5-.5.8-.6,1.3h3.6Z"/>
                <path id="DejaVuSans-6e-7" class="cls-8" d="M1182.5,155.8v3.6h-1v-3.6c0-.6,0-1-.3-1.3s-.6-.4-1-.4-1,.2-1.3.5-.5.8-.5,1.4v3.4h-1v-6h1v.9c.2-.4.5-.6.8-.8s.7-.3,1.1-.3c.7,0,1.2.2,1.6.6.4.4.5,1.1.5,1.9h.1Z"/>
                <path id="DejaVuSans-74-6" class="cls-8" d="M1185.5,151.8v1.7h2v.8h-2v3.3c0,.5,0,.8.2.9s.4.2.8.2h1v.8h-1c-.8,0-1.3,0-1.6-.4s-.4-.8-.4-1.6v-3.3h-.7v-.8h.7v-1.7h1Z"/>
                <path id="DejaVuSans-73-4" class="cls-8" d="M1192.6,153.7v.9c-.3,0-.6-.3-.9-.3h-.9c-.5,0-.9,0-1.1.2s-.4.4-.4.7,0,.4.3.5.5.3,1.1.4h.3c.7.2,1.2.4,1.5.7s.4.7.4,1.1-.2,1-.7,1.3c-.4.3-1.1.5-1.8.5h-1c-.3,0-.7-.2-1.1-.3v-1c.4.2.7.3,1.1.4h1.1c.4,0,.8,0,1.1-.2s.4-.4.4-.7,0-.5-.3-.6c-.2,0-.6-.3-1.2-.4h-.3c-.6-.2-1.1-.4-1.3-.7-.3-.3-.4-.6-.4-1.1s.2-1,.6-1.3,1-.5,1.7-.5h1c.3,0,.6,0,.9.2v.2h0Z"/>
              </g>
            </g>
            <g id="PathCollection_7">
              <path id="md4409fe896-5" class="cls-5" d="M1069.1,174.1c.3,0,.6-.1.8-.3s.3-.5.3-.8,0-.6-.3-.8-.5-.3-.8-.3-.6.1-.8.3-.3.5-.3.8,0,.6.3.8.5.3.8.3Z"/>
            </g>
            <g id="text_7">
              <g>
                <path id="DejaVuSans-64-4" class="cls-8" d="M1093.9,170.8v-3.3h1v8.4h-1v-.9c-.2.4-.5.6-.8.8s-.7.3-1.1.3c-.7,0-1.3-.3-1.8-.9-.5-.6-.7-1.3-.7-2.3s.2-1.7.7-2.3,1-.9,1.8-.9.8,0,1.1.3c.3.2.6.4.8.8h0ZM1090.5,172.9c0,.7,0,1.3.4,1.7.3.4.7.6,1.2.6s.9-.2,1.2-.6c.3-.4.5-1,.5-1.7s-.2-1.3-.5-1.7-.7-.6-1.2-.6-.9.2-1.2.6-.4,1-.4,1.7Z"/>
                <path id="DejaVuSans-65-15" class="cls-8" d="M1102.1,172.6v.5h-4.5c0,.7.2,1.2.6,1.6.4.4.9.5,1.5.5s.7,0,1.1-.1.7-.2,1.1-.4v.9c-.4.2-.7.3-1.1.3s-.7.1-1.1.1c-1,0-1.7-.3-2.3-.8-.6-.6-.8-1.3-.8-2.3s.3-1.8.8-2.3c.5-.6,1.2-.9,2.2-.9s1.4.3,1.9.8.7,1.2.7,2.1h0,0ZM1101.1,172.4c0-.5-.2-1-.5-1.3s-.7-.5-1.2-.5-1,.2-1.3.5-.5.8-.6,1.3h3.6Z"/>
                <path id="DejaVuSans-73-5" class="cls-8" d="M1107.5,170.1v.9c-.3-.1-.6-.3-.9-.3s-.6-.1-.9-.1c-.5,0-.9,0-1.1.2s-.4.4-.4.7,0,.4.3.5.5.3,1.1.4h.3c.7.2,1.2.4,1.5.7s.4.7.4,1.1-.2,1-.7,1.3c-.4.3-1.1.5-1.8.5h-1c-.3,0-.7-.2-1.1-.3v-1c.4.2.7.3,1.1.4.4,0,.7.1,1.1.1s.8,0,1.1-.2.4-.4.4-.7,0-.5-.3-.6c-.2-.1-.6-.3-1.2-.4h-.3c-.6-.2-1.1-.4-1.3-.7-.3-.3-.4-.6-.4-1.1s.2-1,.6-1.3,1-.5,1.7-.5h1c.3,0,.6.1.9.2v.2h0Z"/>
                <path id="DejaVuSans-69-5" class="cls-8" d="M1109.4,169.9h1v6h-1v-6ZM1109.4,167.6h1v1.3h-1v-1.3Z"/>
                <path id="DejaVuSans-67-2" class="cls-8" d="M1116.4,172.9c0-.7,0-1.3-.4-1.7-.3-.4-.7-.6-1.2-.6s-.9.2-1.2.6c-.3.4-.4.9-.4,1.7s0,1.3.4,1.7c.3.4.7.6,1.2.6s.9-.2,1.2-.6c.3-.4.4-.9.4-1.7ZM1117.4,175.1c0,1-.2,1.8-.7,2.3s-1.1.7-2.1.7h-1c-.3,0-.6-.1-.9-.2v-1c.3.2.6.3.9.3s.6.1.9.1c.6,0,1.1-.2,1.5-.5.3-.3.5-.8.5-1.5v-.5c-.2.4-.5.6-.8.8s-.7.3-1.1.3c-.7,0-1.3-.3-1.8-.8-.5-.6-.7-1.3-.7-2.2s.2-1.7.7-2.2c.5-.6,1-.8,1.8-.8s.8,0,1.1.3.6.4.8.8v-.9h1v5.3-.3h-.1Z"/>
                <path id="DejaVuSans-6e-8" class="cls-8" d="M1124.5,172.2v3.6h-1v-3.6c0-.6,0-1-.3-1.3s-.6-.4-1-.4-1,.2-1.3.5-.5.8-.5,1.4v3.4h-1v-6h1v.9c.2-.4.5-.6.8-.8s.7-.3,1.1-.3c.7,0,1.2.2,1.6.6.4.4.5,1.1.5,1.9h.1Z"/>
                <path id="DejaVuSans-5f-2" class="cls-8" d="M1131,177.8v.8h-5.7v-.8h5.7Z"/>
                <path id="DejaVuSans-6d-8" class="cls-8" d="M1136.6,171.1c.2-.4.5-.8.9-1s.7-.3,1.2-.3,1.1.2,1.5.7c.3.4.5,1.1.5,1.9v3.6h-1v-3.6c0-.6,0-1-.3-1.3s-.5-.4-.9-.4-.9.2-1.2.5-.4.8-.4,1.4v3.4h-1v-3.6c0-.6,0-1-.3-1.3s-.5-.4-.9-.4-.9.2-1.2.5-.4.8-.4,1.4v3.4h-1v-6h1v.9c.2-.4.5-.6.8-.8s.7-.3,1.1-.3.8.1,1.1.3.5.5.7,1h-.2,0Z"/>
                <path id="DejaVuSans-69-6" class="cls-8" d="M1142.7,169.9h1v6h-1v-6ZM1142.7,167.6h1v1.3h-1v-1.3Z"/>
                <path id="DejaVuSans-6e-9" class="cls-8" d="M1150.7,172.2v3.6h-1v-3.6c0-.6,0-1-.3-1.3s-.6-.4-1-.4-1,.2-1.3.5-.5.8-.5,1.4v3.4h-1v-6h1v.9c.2-.4.5-.6.8-.8s.7-.3,1.1-.3c.7,0,1.2.2,1.6.6.4.4.5,1.1.5,1.9h.1Z"/>
                <path id="DejaVuSans-69-7" class="cls-8" d="M1152.7,169.9h1v6h-1v-6ZM1152.7,167.6h1v1.3h-1v-1.3Z"/>
                <path id="DejaVuSans-6d-9" class="cls-8" d="M1160.4,171.1c.2-.4.5-.8.9-1s.7-.3,1.2-.3,1.1.2,1.5.7c.3.4.5,1.1.5,1.9v3.6h-1v-3.6c0-.6,0-1-.3-1.3s-.5-.4-.9-.4-.9.2-1.2.5-.4.8-.4,1.4v3.4h-1v-3.6c0-.6,0-1-.3-1.3s-.5-.4-.9-.4-.9.2-1.2.5-.4.8-.4,1.4v3.4h-1v-6h1v.9c.2-.4.5-.6.8-.8s.7-.3,1.1-.3.8.1,1.1.3.5.5.7,1h-.2,0Z"/>
                <path id="DejaVuSans-61-15" class="cls-8" d="M1169.2,172.9c-.8,0-1.4,0-1.7.3s-.5.5-.5.9,0,.6.3.8.5.3.9.3,1-.2,1.3-.6.5-.9.5-1.5v-.2h-1,.2,0ZM1171.2,172.4v3.4h-1v-.9c-.2.4-.5.6-.8.8s-.7.3-1.2.3-1.1-.2-1.5-.5-.5-.8-.5-1.4.2-1.2.7-1.5,1.1-.5,2-.5h1.4c0-.6,0-.9-.4-1.2s-.7-.4-1.3-.4-.7,0-1,.1c-.3,0-.6.2-.9.4v-.9c.4-.1.7-.2,1.1-.3.3,0,.7-.1,1-.1.9,0,1.5.2,2,.7.4.5.6,1.1.6,2.1h-.2,0Z"/>
                <path id="DejaVuSans-6c-6" class="cls-8" d="M1173.2,167.6h1v8.4h-1v-8.4Z"/>
              </g>
            </g>
            <g id="PathCollection_8">
              <path id="m250c059f88-3" class="cls-2" d="M1069.1,190.6c.3,0,.6-.1.8-.3s.3-.5.3-.8,0-.6-.3-.8-.5-.3-.8-.3-.6.1-.8.3-.3.5-.3.8,0,.6.3.8.5.3.8.3Z"/>
            </g>
            <g id="text_8">
              <g>
                <path id="DejaVuSans-68-3" class="cls-8" d="M1094.9,188.8v3.6h-1v-3.6c0-.6,0-1-.3-1.3s-.6-.4-1-.4-1,.2-1.3.5-.5.8-.5,1.4v3.4h-1v-8.4h1v3.3c.2-.4.5-.6.8-.8s.7-.3,1.1-.3c.7,0,1.2.2,1.6.6.4.4.5,1.1.5,1.9h.1Z"/>
                <path id="DejaVuSans-6f-6" class="cls-8" d="M1099.2,187.1c-.5,0-.9.2-1.3.6s-.5,1-.5,1.7.2,1.3.5,1.7.7.6,1.3.6.9-.2,1.3-.6c.3-.4.5-1,.5-1.7s-.2-1.3-.5-1.7-.7-.6-1.3-.6ZM1099.2,186.1c.9,0,1.5.3,2,.8.5.6.7,1.3.7,2.3s-.2,1.8-.7,2.3c-.5.6-1.2.8-2,.8s-1.5-.3-2-.8c-.5-.6-.7-1.3-.7-2.3s.2-1.8.7-2.3c.5-.6,1.2-.8,2-.8Z"/>
                <path id="DejaVuSans-6d-10" class="cls-8" d="M1108.3,187.4c.2-.4.5-.8.9-1s.7-.3,1.2-.3,1.1.2,1.5.7c.3.4.5,1.1.5,1.9v3.6h-1v-3.6c0-.6,0-1-.3-1.3s-.5-.4-.9-.4-.9.2-1.2.5-.4.8-.4,1.4v3.4h-1v-3.6c0-.6,0-1-.3-1.3s-.5-.4-.9-.4-.9.2-1.2.5-.4.8-.4,1.4v3.4h-1v-6h1v.9c.2-.4.5-.6.8-.8s.7-.3,1.1-.3.8.1,1.1.3.5.5.7,1h-.2,0Z"/>
                <path id="DejaVuSans-65-16" class="cls-8" d="M1119.5,189.1v.5h-4.5c0,.7.2,1.2.6,1.6.4.4.9.5,1.5.5s.7,0,1.1-.1.7-.2,1.1-.4v.9c-.4.2-.7.3-1.1.3s-.7.1-1.1.1c-1,0-1.7-.3-2.3-.8-.6-.6-.8-1.3-.8-2.3s.3-1.8.8-2.3c.5-.6,1.2-.9,2.2-.9s1.4.3,1.9.8.7,1.2.7,2.1h0,0ZM1118.5,188.8c0-.5-.2-1-.5-1.3s-.7-.5-1.2-.5-1,.2-1.3.5-.5.8-.6,1.3h3.6Z"/>
                <path id="DejaVuSans-6d-11" class="cls-8" d="M1125.8,187.4c.2-.4.5-.8.9-1s.7-.3,1.2-.3,1.1.2,1.5.7c.3.4.5,1.1.5,1.9v3.6h-1v-3.6c0-.6,0-1-.3-1.3s-.5-.4-.9-.4-.9.2-1.2.5-.4.8-.4,1.4v3.4h-1v-3.6c0-.6,0-1-.3-1.3s-.5-.4-.9-.4-.9.2-1.2.5-.4.8-.4,1.4v3.4h-1v-6h1v.9c.2-.4.5-.6.8-.8s.7-.3,1.1-.3.8.1,1.1.3.5.5.7,1h-.2,0Z"/>
                <path id="DejaVuSans-61-16" class="cls-8" d="M1134.6,189.4c-.8,0-1.4,0-1.7.3s-.5.5-.5.9,0,.6.3.8.5.3.9.3,1-.2,1.3-.6.5-.9.5-1.5v-.2h-1,.2,0ZM1136.6,188.9v3.4h-1v-.9c-.2.4-.5.6-.8.8s-.7.3-1.2.3-1.1-.2-1.5-.5-.5-.8-.5-1.4.2-1.2.7-1.5,1.1-.5,2-.5h1.4c0-.6,0-.9-.4-1.2s-.7-.4-1.3-.4-.7,0-1,.1c-.3,0-.6.2-.9.4v-.9c.4-.1.7-.2,1.1-.3.3,0,.7-.1,1-.1.9,0,1.5.2,2,.7.4.5.6,1.1.6,2.1h-.2,0Z"/>
                <path id="DejaVuSans-64-5" class="cls-8" d="M1142.5,187.2v-3.3h1v8.4h-1v-.9c-.2.4-.5.6-.8.8s-.7.3-1.1.3c-.7,0-1.3-.3-1.8-.9-.5-.6-.7-1.3-.7-2.3s.2-1.7.7-2.3,1-.9,1.8-.9.8,0,1.1.3c.3.2.6.4.8.8h0ZM1139.2,189.4c0,.7,0,1.3.4,1.7.3.4.7.6,1.2.6s.9-.2,1.2-.6c.3-.4.5-1,.5-1.7s-.2-1.3-.5-1.7-.7-.6-1.2-.6-.9.2-1.2.6-.4,1-.4,1.7Z"/>
                <path id="DejaVuSans-65-17" class="cls-8" d="M1150.7,189.1v.5h-4.5c0,.7.2,1.2.6,1.6.4.4.9.5,1.5.5s.7,0,1.1-.1.7-.2,1.1-.4v.9c-.4.2-.7.3-1.1.3s-.7.1-1.1.1c-1,0-1.7-.3-2.3-.8-.6-.6-.8-1.3-.8-2.3s.3-1.8.8-2.3c.5-.6,1.2-.9,2.2-.9s1.4.3,1.9.8.7,1.2.7,2.1h0,0ZM1149.7,188.8c0-.5-.2-1-.5-1.3s-.7-.5-1.2-.5-1,.2-1.3.5-.5.8-.6,1.3h3.6Z"/>
                <path id="DejaVuSans-5f-3" class="cls-8" d="M1156.9,194.1v.8h-5.7v-.8h5.7Z"/>
                <path id="DejaVuSans-62-2" class="cls-8" d="M1162.2,189.4c0-.7,0-1.3-.4-1.7s-.7-.6-1.2-.6-.9.2-1.2.6-.4,1-.4,1.7,0,1.3.4,1.7c.3.4.7.6,1.2.6s.9-.2,1.2-.6c.3-.4.4-1,.4-1.7ZM1158.8,187.2c.2-.4.5-.6.8-.8s.7-.3,1.1-.3c.7,0,1.3.3,1.8.9.5.6.7,1.3.7,2.3s-.2,1.7-.7,2.3-1,.9-1.8.9-.8,0-1.1-.3c-.3-.2-.6-.4-.8-.8v.9h-1v-8.4h1v3.3h0Z"/>
                <path id="DejaVuSans-61-17" class="cls-8" d="M1167.6,189.4c-.8,0-1.4,0-1.7.3s-.5.5-.5.9,0,.6.3.8.5.3.9.3,1-.2,1.3-.6.5-.9.5-1.5v-.2h-1,.2,0ZM1169.5,188.9v3.4h-1v-.9c-.2.4-.5.6-.8.8s-.7.3-1.2.3-1.1-.2-1.5-.5-.5-.8-.5-1.4.2-1.2.7-1.5,1.1-.5,2-.5h1.4c0-.6,0-.9-.4-1.2s-.7-.4-1.3-.4-.7,0-1,.1c-.3,0-.6.2-.9.4v-.9c.4-.1.7-.2,1.1-.3.3,0,.7-.1,1-.1.9,0,1.5.2,2,.7.4.5.6,1.1.6,2.1h-.2,0Z"/>
                <path id="DejaVuSans-6b-2" class="cls-8" d="M1171.5,183.9h1v4.9l2.9-2.6h1.3l-3.2,2.8,3.3,3.2h-1.3l-3.1-2.9v2.9h-1v-8.4h0Z"/>
                <path id="DejaVuSans-65-18" class="cls-8" d="M1182.7,189.1v.5h-4.5c0,.7.2,1.2.6,1.6.4.4.9.5,1.5.5s.7,0,1.1-.1.7-.2,1.1-.4v.9c-.4.2-.7.3-1.1.3s-.7.1-1.1.1c-1,0-1.7-.3-2.3-.8-.6-.6-.8-1.3-.8-2.3s.3-1.8.8-2.3c.5-.6,1.2-.9,2.2-.9s1.4.3,1.9.8.7,1.2.7,2.1h0,0ZM1181.7,188.8c0-.5-.2-1-.5-1.3s-.7-.5-1.2-.5-1,.2-1.3.5-.5.8-.6,1.3h3.6Z"/>
                <path id="DejaVuSans-73-6" class="cls-8" d="M1188.1,186.6v.9c-.3-.1-.6-.3-.9-.3s-.6-.1-.9-.1c-.5,0-.9,0-1.1.2s-.4.4-.4.7,0,.4.3.5.5.3,1.1.4h.3c.7.2,1.2.4,1.5.7s.4.7.4,1.1-.2,1-.7,1.3c-.4.3-1.1.5-1.8.5h-1c-.3,0-.7-.2-1.1-.3v-1c.4.2.7.3,1.1.4.4,0,.7.1,1.1.1s.8,0,1.1-.2.4-.4.4-.7,0-.5-.3-.6c-.2-.1-.6-.3-1.2-.4h-.3c-.6-.2-1.1-.4-1.3-.7-.3-.3-.4-.6-.4-1.1s.2-1,.6-1.3,1-.5,1.7-.5h1c.3,0,.6.1.9.2v.2h0Z"/>
              </g>
            </g>
            <g id="PathCollection_9">
              <path id="m744b0990e2-34" class="cls-3" d="M1069.1,207.1c.3,0,.6-.1.8-.3s.3-.5.3-.8,0-.6-.3-.8-.5-.3-.8-.3-.6.1-.8.3-.3.5-.3.8,0,.6.3.8.5.3.8.3Z"/>
            </g>
            <g id="text_9">
              <g>
                <path id="DejaVuSans-6d-12" class="cls-8" d="M1094.6,203.9c.2-.4.5-.8.9-1s.7-.3,1.2-.3,1.1.2,1.5.7c.3.4.5,1.1.5,1.9v3.6h-1v-3.6c0-.6,0-1-.3-1.3s-.5-.4-.9-.4-.9.2-1.2.5-.4.8-.4,1.4v3.4h-1v-3.6c0-.6,0-1-.3-1.3s-.5-.4-.9-.4-.9.2-1.2.5-.4.8-.4,1.4v3.4h-1v-6h1v.9c.2-.4.5-.6.8-.8s.7-.3,1.1-.3.8.1,1.1.3.5.5.7,1h-.2,0Z"/>
                <path id="DejaVuSans-75-6" class="cls-8" d="M1100.6,206.4v-3.6h1v3.6c0,.6,0,1,.3,1.3s.6.4,1,.4,1-.2,1.3-.5.5-.8.5-1.4v-3.4h1v6h-1v-.9c-.2.4-.5.6-.8.8s-.7.3-1.1.3c-.7,0-1.2-.2-1.6-.6-.4-.4-.5-1.1-.5-1.9h-.1ZM1103,202.6h0Z"/>
                <path id="DejaVuSans-6c-7" class="cls-8" d="M1107.6,200.4h1v8.4h-1v-8.4Z"/>
                <path id="DejaVuSans-74-7" class="cls-8" d="M1111.7,201.1v1.7h2v.8h-2v3.3c0,.5,0,.8.2.9s.4.2.8.2h1v.8h-1c-.8,0-1.3-.1-1.6-.4-.3-.3-.4-.8-.4-1.6v-3.3h-.7v-.8h.7v-1.7h1Z"/>
                <path id="DejaVuSans-69-8" class="cls-8" d="M1115,202.8h1v6h-1v-6ZM1115,200.4h1v1.3h-1v-1.3Z"/>
                <path id="DejaVuSans-5f-4" class="cls-8" d="M1122.6,210.6v.8h-5.7v-.8h5.7Z"/>
                <path id="DejaVuSans-6c-8" class="cls-8" d="M1123.6,200.4h1v8.4h-1v-8.4Z"/>
                <path id="DejaVuSans-6f-7" class="cls-8" d="M1128.9,203.4c-.5,0-.9.2-1.3.6s-.5,1-.5,1.7.2,1.3.5,1.7.7.6,1.3.6.9-.2,1.3-.6c.3-.4.5-1,.5-1.7s-.2-1.3-.5-1.7-.7-.6-1.3-.6ZM1128.9,202.6c.9,0,1.5.3,2,.8.5.6.7,1.3.7,2.3s-.2,1.8-.7,2.3c-.5.6-1.2.8-2,.8s-1.5-.3-2-.8c-.5-.6-.7-1.3-.7-2.3s.2-1.8.7-2.3c.5-.6,1.2-.8,2-.8Z"/>
                <path id="DejaVuSans-63-6" class="cls-8" d="M1137.7,203.1v.9c-.3-.2-.6-.3-.8-.3s-.6-.1-.9-.1c-.6,0-1.1.2-1.5.6-.4.4-.5,1-.5,1.7s.2,1.3.5,1.7c.4.4.9.6,1.5.6s.6,0,.9-.1.6-.2.8-.3v.9c-.3.1-.6.2-.9.3h-.9c-.9,0-1.6-.3-2.2-.9-.5-.6-.8-1.3-.8-2.3s.3-1.8.8-2.3c.5-.6,1.3-.8,2.2-.8h.9c.3,0,.6.2.8.3h0Z"/>
                <path id="DejaVuSans-61-18" class="cls-8" d="M1142.1,205.8c-.8,0-1.4,0-1.7.3s-.5.5-.5.9,0,.6.3.8.5.3.9.3,1-.2,1.3-.6.5-.9.5-1.5v-.2h-1,.2,0ZM1144.1,205.4v3.4h-1v-.9c-.2.4-.5.6-.8.8s-.7.3-1.2.3-1.1-.2-1.5-.5-.5-.8-.5-1.4.2-1.2.7-1.5,1.1-.5,2-.5h1.4c0-.6,0-.9-.4-1.2s-.7-.4-1.3-.4-.7,0-1,.1c-.3,0-.6.2-.9.4v-.9c.4-.1.7-.2,1.1-.3.3,0,.7-.1,1-.1.9,0,1.5.2,2,.7.4.5.6,1.1.6,2.1h-.2,0Z"/>
                <path id="DejaVuSans-74-8" class="cls-8" d="M1147.1,201.1v1.7h2v.8h-2v3.3c0,.5,0,.8.2.9s.4.2.8.2h1v.8h-1c-.8,0-1.3-.1-1.6-.4-.3-.3-.4-.8-.4-1.6v-3.3h-.7v-.8h.7v-1.7h1Z"/>
                <path id="DejaVuSans-69-9" class="cls-8" d="M1150.4,202.8h1v6h-1v-6ZM1150.4,200.4h1v1.3h-1v-1.3Z"/>
                <path id="DejaVuSans-6f-8" class="cls-8" d="M1155.8,203.4c-.5,0-.9.2-1.3.6s-.5,1-.5,1.7.2,1.3.5,1.7.7.6,1.3.6.9-.2,1.3-.6c.3-.4.5-1,.5-1.7s-.2-1.3-.5-1.7-.7-.6-1.3-.6ZM1155.8,202.6c.9,0,1.5.3,2,.8.5.6.7,1.3.7,2.3s-.2,1.8-.7,2.3c-.5.6-1.2.8-2,.8s-1.5-.3-2-.8c-.5-.6-.7-1.3-.7-2.3s.2-1.8.7-2.3c.5-.6,1.2-.8,2-.8Z"/>
                <path id="DejaVuSans-6e-10" class="cls-8" d="M1165.2,205.1v3.6h-1v-3.6c0-.6,0-1-.3-1.3s-.6-.4-1-.4-1,.2-1.3.5-.5.8-.5,1.4v3.4h-1v-6h1v.9c.2-.4.5-.6.8-.8s.7-.3,1.1-.3c.7,0,1.2.2,1.6.6.4.4.5,1.1.5,1.9h.1Z"/>
              </g>
            </g>
          </g>
        </g>
      </g>
    </g>
  </g>
</svg>