<?xml version="1.0" encoding="UTF-8"?>
<svg xmlns="http://www.w3.org/2000/svg" version="1.1" viewBox="0 0 576 576">
  <defs>
    <style>
      .cls-1 {
        fill: none;
      }

      .cls-2 {
        fill: #d24f13;
      }

      .cls-2, .cls-3 {
        stroke-width: 2px;
      }

      .cls-2, .cls-3, .cls-4 {
        fill-opacity: .9;
        stroke: #fff;
        stroke-opacity: .9;
      }

      .cls-2, .cls-3, .cls-4, .cls-5, .cls-6 {
        stroke-linejoin: round;
      }

      .cls-7 {
        font-family: HelveticaNeue, 'Helvetica Neue';
        font-size: 25px;
      }

      .cls-3 {
        fill: #66c2a5;
      }

      .cls-4 {
        fill: #fc8d62;
        stroke-width: .6px;
      }

      .cls-5 {
        fill-opacity: .4;
        isolation: isolate;
        opacity: .2;
        stroke: #ccc;
        stroke-opacity: .4;
        stroke-width: .5px;
      }

      .cls-8 {
        stroke-miterlimit: 10;
      }

      .cls-8, .cls-6 {
        stroke: #000;
      }
    </style>
  </defs>
  <!-- Generator: Adobe Illustrator 28.7.7, SVG Export Plug-In . SVG Version: 1.2.0 Build 194)  -->
  <g>
    <g id="Layer_1">
      <g id="Layer_1-2" data-name="Layer_1">
        <g id="PatchCollection_1">
          <path class="cls-5" d="M281.3,263.4h-.4c0-.1-.9.7-.9.7h-1c0-.1-2.2-3.1-2.2-3.1l-.5-1.8,1-8.5-.2-.3v-1.2l.4-1.3,5.6-6.9.8.6,3.9-4.6,3.8-.3,1.8.6.7.9-.4,1-.7.4-2,5.6-.5,1.7-.3,1.2h.5c0,.1-1,3-1,3l-.9-.3-1.9,3.3-5.4,9.5"/>
          <path class="cls-5" d="M286.8,222.4l3.8,3.6,1.2.7,3.6,2,3.2,1-2.1,4.5-2.4,4-.7-.9-1.8-.6-3.8.3-3.9,4.6-.8-.6-5.6,6.9-.3,1.3v1.5c.1,0-.9,8.5-.9,8.5l.5,1.8,2.2,3h1c0,.1.9-.7.9-.7h.4c0,.1.7.3.7.3l-.2,1.2v1.6c.1,0,0,.4,0,.4v1.5l-4.4-1-5-1.2-2.1-1.3,1.4-.8-1.9-2.3-1.2-1.7.9-9.3,1.7-6.7,3.2-4.7,1.4-2,3-4.9,2.5-3,.5-.8,2.2-3.1,2.9-3.2"/>
          <path class="cls-5" d="M269.5,228l3,2.3,6.3,2.3-3,4.9-1.4,2-3.2,4.7-1.7,6.7-.9,9.3,1.2,1.7,1.9,2.3-1.4.8-1.4.8-5.8,4.6-3-3-.4-1.2v-6.4c.1,0,.7-9.6.7-9.6l.2-4.4.2-2.3,1.8-3,1-2,2.2-3.8,3.7-6.7"/>
          <path class="cls-5" d="M282,263.6l3.7.3h.9l2.5,1.3,1.1,1.3.5,1.7,2.5,7.9-1.2.4-9.8,2.9-13.5-2.9-.3-.2-5.5-6.2,5.8-4.6,1.4-.8,2.1,1.3,5,1.2,4.5,1v-3.5c-.1,0,0-1.2,0-1.2"/>
          <path class="cls-5" d="M298.5,229.7l8.6-.3,1.4,9.4.5,4.2v1h1.4l.3.9.5,2,.2,1.4v1.4l-.3,3.2-4,4.1-2,2-5.3,5.9-.9.8-8.1,2.6-.5-1.7-1.1-1.3-2.5-1.2h-.9l-3.7-.4-.7-.2,5.4-9.5,1.9-3.3.9.3,1-2.8h-.5c0-.1.3-1.3.3-1.3l.5-1.7,2-5.6.7-.4.4-1,2.4-4,2.1-4.5"/>
          <path class="cls-5" d="M281.6,205.2l2.4,14.6,2.8,2.5-2.9,3.2-2.2,3.1-.5.8-2.5,3-6.3-2.3-3-2.3-.7-.6-8.3-7.9-.5-.6-1.2-1,1.4-3.2.8-2.2,2.4-5.8,1.8.5,9.1-.8h2.3l5.2-1"/>
          <path class="cls-5" d="M254.9,224.1l1.5-1.3,2.3-4.9,1.2,1,.5.6,8.3,7.9.7.6-3.7,6.7-2.2,3.8-1,2-1.8,3-.2,2.3-.2,4.4-.5,9.6v6.4c-.1,0,.2,1.2.2,1.2l-3.1,1.8-2.7,1.4-.6-2.1-2.3-2.9-.4-2.5-.9-2.2-1.7-2.6-2-6.7v-.8l.2-.9.9-1.3.3-1.2.3-1.7.4-2.1.8-2.1,6-15.7-.4-1.6"/>
          <path class="cls-5" d="M263,270.2l5.5,6.2.3.2,13.5,2.9,9.8-2.9,1.2-.4,1.2,3.6,2.1,6.3-1.2.5-8.6,2.9h-.9l-3.4-.2-8.8-.7-2.6-1.2-3.3-4-2-1.8-1.1-.9-2.4-1.8-2.7-.2-.6-.3-.4-.4-.9-2.9-2.6-1.9-.4-.5v-.5c-.1,0-.3-1.7-.3-1.7l2.7-1.4,3.1-1.8,3,3"/>
          <path class="cls-5" d="M305.2,258.9l1.5,1.2h.6c0-.1,3.7,2,3.7,2l14.2,8-1.4,1.4,2.4,2.3-.2.2-.8.4-2.3.4-.6.3-.4.3-.2.2-1,1.4-1.1.8-1.4.3h-2l-1.3.5-.9.4-1.7.8-1.1.3-2.8.3-.5.3-1,1-.8.4h-3.4c0,.1-1,.6-1,.6l-1.4,1.5-.9.7-1.1.5-1.7.5-2.1-6.3-1.2-3.6-2.5-7.9,8.1-2.6.9-.8,5.3-5.9"/>
          <path class="cls-5" d="M308.5,238.7l3.4-.5,12.5,3.3,3.7,1,2.1,1.1,5.4,2.8,4,1.4,2.7,2.7.6,1.3.9,4.8v2.6l-1.4,4.9-.6,1.9-7.1.2h-.7c0,.1-.9.6-.9.6l-3.1,2.8-4.1,4.1-2.4-2.3,1.4-1.4-14.2-8-3.7-2.2h-.6c0,.1-1.5-1.1-1.5-1.1l2-2,4-4.1.3-3.2v-1.4l-.2-1.4-.5-2-.3-.9h-1.2v-.9c-.1,0-.6-4.2-.6-4.2"/>
          <path class="cls-5" d="M20.7,89.7h.3l17.9,3.9h0l1.6.3,22.6,4.7,3,.6,1,.2.6-2.8,3.9.8,1.2.2,3.1.6,18.1,3.9h.2l1.5.3,2.2.4,4.5.9.9.2,5.4,1.1,5.2,1.1,5.2,1.1,5.8,1.2,4.5.9,3.5.7h.5c0,0,4.9,1.2,4.9,1.2h.3l4.1.9,2.1.4,2.4.5h.6c0,0,4.7,1.1,4.7,1.1l2.9.6,2.6.5,2.9.6,1.2.2h.6l1,.3h.8c0,0,.2,0,.2,0h1.5c0,0,.5,0,.5,0l1.4.3,1,.2h.5c0,0,1.1.4,1.1.4l.7.2.9.2,2,.5h0l1.8.4,1.7.4,1.7.3,2.5.5,10.3,2.1,1.8.3,2.8.6,1.6.4h.6c0,0,.9.3.9.3l.8.2h.6c0,0,1.2.5,1.2.5l.8.2.6.2,2,.6,1.1.4h.2l6.5,1.8.8.2h.3c0,0,.4-.7.4-.7l.6-.9,12.9,6.6,2,1.1,34.4,37.9-3.2,3.7-9.5,9.8-4.3,3.5h-.1c0-.1-5.5-1-5.5-1l-1.3.3v-1.8l-.6-.3-6.9,5.3-2.8,1.2-1.4.8-2.8-3.2-4.4-3.1-5.3-.9h-15.5c0,.1-6.7.9-6.7.9l-4.1-.9-3.3-1.7-2.1-1.1-.8-.2-1.2,2.3h-1.8v2.6h-12.2l-31.2.2h-7.3l-1.1-2.4-.4-.8-1.5-3.5-1-3.4-.6-2.9-1.9-1-.9-.7-1-.5-1.3-.4h-1.9c0-.1-2.2.5-2.2.5l-2.1,1.3h-45l-17.4-3.5-1.7,12.3h0v-.5l-.2-.2h0c0-.1,0-.3,0-.3h-.2l-.4-.2-1-.2-.9-.2h0v-.2l-1-.2h-.7c0-.1-4.2-1-4.2-1l-3.3-.7-3.4-.7-3.6-.7h-.3l-2.6-.6-8.9-1.9-10.3-2.2-6.7-1.4h-.4v-.6c0,0,0-.4,0-.4l.2-.4v-.4l.2-.4v-.4l.2-.4v-.4l.2-.4v-.4l.2-.4v-.4l.2-.4v-.4l.2-.6v-.6l.2-.6v-.5l.2-.5v-.8c0,0,.2-.5.2-.5v-.3h0l.8-3.6.5-2.6.2-1.1.2-1.1.2-.8.2-.9.8-3.8.5-2.6.3-1.7v-.6c.1,0,.1-.2.1-.2l.8-3.4.9-4.5.2-1.1v-.3h0l.6-2.7.6-2.8.3-1.8v-.8c.1,0,.1-.3.1-.3v-.3c.1,0,.1-.4.1-.4h0v-.4l.5-2,.3-1.4.3-1.4.2-1.1.2-1.2.3-1.3.3-1.4v-1.1l1.3-5.7.5-2.4.3-1.5.2-1h0v-.5l.4-1.9.2-1.3.2-1.1v-.2l.3-1.1v-.2h0v-.4h0v-.6c.1,0,.3-.9.3-.9v-.6c.1,0,.1-.2.1-.2l.7-3.3"/>
          <path class="cls-5" d="M51.8,184.3l1.7-12.3,17.4,3.6h45l2.1-1.3,2.2-.6h1.9c0,.1,1.3.5,1.3.5l1,.5.9.7,1.9,1,.6,2.9,1,3.4,1.5,3.5.4.8,1.1,2.3h7.3l31.2-.2h12v-2.6h2l1.2-2.2.8.2,2.1,1.1,3.3,1.7,4.1.9,6.7-.8h15.5c0-.1,0,4.1,0,4.1v4.7l1.6,2.2.6.3h1c0-.1,0,6.5,0,6.5h-23.9l.3,10.1h-.7l-9,.3-7.6.2h-5.1c0,.1,0-3.1,0-3.1v-3.8l-4.3-.4h-17v-4.5h-9.1l-.4-.3h-18.9l-53.7.2-1.3,2.3h-4l-.6,1.1h-13v-.5l-.2-1.5v-.5l-.3-1.9v-9.3h0v-2.2h0v-7.5"/>
          <path class="cls-5" d="M231.8,193.8l2.8-1.2,6.9-5.3.5.3v1.8l1.4-.3,5.5.8h.1c0,.1,4.3-3.4,4.3-3.4l9.5-9.8,7.2,6.8,3.9,5.3,2.9,4.1,4.8,12.3-5.2,1h-2.3v-.8c-.1,0,1-.5,1-.5l-.8-3.1-9.1-1.8-.5,1-.7-.4-.4-.5-11.4-2.4-.4-.6-.7-.9-.6-1.1-.9-.7-14.5-.8-2.9,1.3-.5-.9"/>
          <path class="cls-5" d="M217.8,187.3l5.3.9,4.4,3.1,2.8,3.2,1.4-.8.5.9,2.9-1.3,14.5.8.9.7.6,1.1.7.9.4.6,11.4,2.4.4.5.7.4.5-1,9.1,1.8.8,3.1-1.2.5v.8c.1,0-9,.8-9,.8l-1.8-.5-2.4,5.8-.8,2.2-2.4-1.1-10.5.5h-5.6c0,.1-.3.1-.3.1l-3.3.2h-4.3c0,.1-3.8.2-3.8.2v-1.5h-.9l-.3-.9-1.2-4.7h3.1v-2.2h-9.7v-6.6h-1c0,.1-.6-.1-.6-.1l-1.5-2.2v-9"/>
          <path class="cls-5" d="M260.1,214.5l-1.4,3.2-2.3,4.9-1.5,1.3-1,.4-8.5,3.2-.3,1.4-2.2,4.8-1.4,2.8-2,3.6-1.2-.6-2.6-11.5.3-.2h.3l-1-4.4h.3l4.2-1.3-1.9-7.7v-.5h3.3c0-.1,5.9-.1,5.9-.1,0-.1,10.5-.6,10.5-.6l2.4,1.1"/>
          <path class="cls-5" d="M237.9,214.2v.5l2,7.7-4.2,1.2h-.3l1,4.4h-.3l-.3.3,2.6,11.5,1.2.6-.8,1.6-4.1,7.6-4.6-5.7-.2-2.1-2.9-12.8-1.4-4.9-.8-2.6-1-2.4-.4-.4v-4.2c-.1,0,6.7-.1,6.7-.1h3.8l4.3-.2"/>
          <path class="cls-5" d="M239.4,240.4l2-3.6,1.4-2.8,2.2-4.8.3-1.4,8.5-3.2,1-.4.4,1.6-6,15.7-.8,2.1-.4,2.1-.3,1.7-10.1,3.2-3.2,1.2-1.7.5,1.8-2.6,4.1-7.6.8-1.6"/>
          <path class="cls-5" d="M247.8,247.3l-.3,1.2-.9,1.3-.3.9v.8l2.1,6.7,1.7,2.6-7.6,3.3-2.4,1.1-2-4.8-2.7-6.6-1-2.1,3.2-1.2,10.1-3.2"/>
          <path class="cls-5" d="M234.4,251.7l1,2.1,2.7,6.6,2,4.8-5.4,2.4-8,3.2-3.3,1.2-1.1-.7,3.8-6.9,1.5-2.7,2.9-5.3,2.2-4,1.7-.5"/>
          <path class="cls-5" d="M240.1,265.2l2.4-1.1,7.6-3.3.9,2.2.4,2.5-6.9,3.4-2.4,1.1-8.7,3.7-4.9,1.9-10.7,4.1,3.3-5.8,1.3-2.5,1.1.7,3.3-1.2,8-3.2,5.4-2.4"/>
          <path class="cls-5" d="M254.3,270.4v1.7c.1,0-1,.4-1,.4l.3,1-5.7,2.7-3,1.3-9.5,4.1-4,1.4-2.9-7.6,4.9-1.9,8.7-3.7,2.4-1.1,6.9-3.4,2.3,2.9.6,2.1"/>
          <path class="cls-5" d="M217.8,279.5l10.7-4.1,2.9,7.6-1.4.5.5,1.6.7,1.5-17.8,7.4-1.2-.3.4-2.1,1-1.8,3.5-7.5.5-2.8"/>
          <path class="cls-5" d="M258.9,278.3l-7.8,3.6-.3-.9-.7.3.3.7h-.2c0,.1-.2.2-.2.2l-4.3-.6-6.7,2.3v-.3c-.1,0-6.2,2.5-6.2,2.5l-.8,1h-.5v-.4c-.1,0-.8-1.5-.8-1.5l-.5-1.6,1.4-.5,4-1.4,9.5-4.1,3-1.3,5.7-2.7-.3-1,1.2-.4v.5c.1,0,.5.5.5.5l2.6,1.9.9,2.9.4.4"/>
          <path class="cls-5" d="M229.9,214.4h-6.9c0,.1-6.5.5-6.5.5l-15.4.4h-3.9l-.3-10h33.6v2h-3.1l1.2,4.8.3,1h.9v1.4"/>
          <path class="cls-5" d="M197.3,215.5h3.9l15.4-.5,6.5-.4v4.2c.1,0,.5.4.5.4l1,2.4.8,2.6,1.4,4.9,2.9,12.8-2.8.5-12.3,2.3-1-6,3.2-.7-.9-4.1-.6-1.3-1.4-2.1-.6-.7h-1.2l-.4-.4-.2-.2-2.2,2.1-1,.5-6.7,2.2-2.4,1.5-3.4-.7,1.2-6.2-.4-13.2h.7"/>
          <path class="cls-5" d="M214.6,244.7l-1.5.5-2.4,1.6-1.2.6-5.7,1.7-1.8.5-1.8.7-.9-3-.4-1.8-.2-.2h-.2l-.3-2.2-.2-.8,3.1-1-1.3-4.1-.5-1.8,2.4-1.5,6.7-2.2,1-.5,2.2-2.1.2.2.4.3h.7c0-.1.5-.1.5-.1l.6.7,1.4,2.1.6,1.3.9,4.1-3.2.7,1,6"/>
          <path class="cls-5" d="M187.5,215.8l9-.3.4,13.2-1.2,6.2,3.4.7.5,1.8,1.3,4.1-3.1,1,.2.8.3,2.1h.2l.2.2.4,1.8.9,3-1.4.3-1.5.2h-4.7l-11.7-2.8,2.4-8.8,1.8-7,2.5-10.4v-.4c.1,0,0-5.6,0-5.6"/>
          <path class="cls-5" d="M229.7,241.9l.2,2.1,4.6,5.7-1.8,2.6-2.2,4-2.9,5.3-1.5,2.7-3.8,6.9-1.3,2.5-2-1.7-1.1-11.3-1.5-7.3-1.8-8.8,12.3-2.3,2.8-.5"/>
          <path class="cls-5" d="M214.6,244.7l1.8,8.8-4.9,1.4-5.7,1.6-2.9.9-2.5.7-1.8.3h-6.2v-7.6h4.8l1.5-.2,1.4-.3,1.8-.7,1.8-.5,5.7-1.7,1.2-.6,2.4-1.6,1.5-.5"/>
          <path class="cls-5" d="M202.8,257.4l2.9-.9,5.7-1.6,4.9-1.4,1.5,7.3,1.1,11.3-2.6.4-1.5.9-4.1.9-2.6.5h-2.6v-2.7h.7v-2.7l-1.1-3.8-2.4-8.2"/>
          <path class="cls-5" d="M219,272.1l2,1.7-3.3,5.8-.5,2.8-3.5,7.5-1.9-.9-6,.3h-2.4v-7.5l1.2-.5v-6.5h3.5l2.6-.4,4.1-.9,1.5-.9,2.6-.4"/>
          <path class="cls-5" d="M153.1,216.2h-19.3c0,.1-8.6.2-8.6.2l-12.8.7h-11.5l-40.1.4h-7.2v-.4l-.7-7.6h0c0-.1-.2-1.1-.2-1.1v-.9h12.9l.6-1.1h4l1.3-2.3h53.7c0-.1,18.9-.2,18.9-.2l.4.3h9v4.4h16.9l4.3.4v7.1h-21.6"/>
          <path class="cls-5" d="M174.8,216.2h5.1c0-.1,7.6-.4,7.6-.4l.2,5.6v.4c-.1,0-2.7,10.4-2.7,10.4l-1.8,7-20-5.3-3.4-.9.5-2.3-3.7-1,1.2-4.3-3.1-.7-1.2-1.5-.4-6.9h14.2c0-.1,7.4,0,7.4,0"/>
          <path class="cls-5" d="M153.1,216.2l.4,6.9,1.2,1.5,3.1.7-1.2,4.3,3.7,1-.5,2.3,3.4.9,20,5.3-2.4,8.8-1.3,6.8v.8l-1.4-.3-.4-.3-1.8-.4-.4,1.7-2.4,1.2-1.3-.6-.9-1v-.6c.1,0-3.5-4.2-3.5-4.2l-1.8,1.3-1.6,2.3-12.8,18.4-9.1,12.6-1.3-5.2-2.1-5.5-1-.6-1-2.9.3-1.2-.9-2.7-1.3-.9-.3-1.7-4.2-12.7v-2.9c.1,0,4.2.8,4.2.8l1.9-11.9,1.2-6.9v-2.9l1.2-.5h3.4l-.3-11.6h11.2"/>
          <path class="cls-5" d="M142,216.2l.3,11.5h-3.4l-1.2.5v2.9l-1.2,6.9-1.9,11.9-4-.8-6.9-1-13.5-1.9-1.8-3.9-2-1.1,5-4.4.4-2.5.9-5.3-.3-11.8,12.8-.7h8.6l8.1-.2"/>
          <path class="cls-5" d="M112.5,217.2l.3,11.8-.9,5.3-.4,2.5-5,4.4-2.2-1.8-14.2,17.5-34.5-31.7-1.7,2h0v-1.5h0v-.7h0v-5.1h0v-.8h0v-.6h0v-1h7.2l40.1-.3h11.5"/>
          <path class="cls-5" d="M49.9,235.2l.9-.4,1-1.2,1.1-1.2,1-1.2h0v-3.8l1.7-2,34.5,31.7,14.2-17.5,2.2,1.8,2,1.1,1.8,3.9,13.5,1.9,6.9,1v2.9c-.1,0,4,12.7,4,12.7l-20.5,6.9-14.3,4.9-1.7.6-3.6,2.1-2.3,2.3-2.6,3.8-3.5,5.1-1.4,1.1-1.6.6-1.1.5-2.8,3.2-2.1,3-2.3.7-6.2,8.1-.3-.2-10-6.4-.6-.4h-.2c0-.1-.8-.7-.8-.7l-1.2-.7-.3-.2-.4-.2-.4-.2h-.2c0-.1-.5-.5-.5-.5l-.5-.3-.9-.5h0l-.2-.2-.5-.3h0v-.2h0v-.2h0v-.2h0v-.2h0v-.2h0c0-.1,0-.3,0-.3h0v-.2h0v-.2h0v-.2h0v-.2h0v-.2h0v-.2h0v-.2h0v-.2h0v-.2h0v-.2h0v-.2h0v-3.5l.2-.7v-.8c0,0,0-.2,0-.2v-.2l.2-.4v-.6c0,0,.3-.8.3-.8v-.6l.2-.9.2-.9v-.7c0,0,.3-.7.3-.7l.2-1.2v-.7c0,0,0-.9,0-.9,0,0,0-.4,0-.4h0v-.4l.2-.6.2-1v-.8c0,0,.2-.5.2-.5v-.3l.3-1.2v-1.2h0v-.8c0,0,.4-1.4.4-1.4l.6-3.5.5-3,.4-2.5v-.3l.5-2.4.2-1.4v-.9h0v-.7c0,0,0-.4,0-.4v-.3h0v-1.6h0v-3.6h0v-2h0v-1c0,0,0-.3,0-.3v-.8l-.2-.3v-.6c0,0,0-.1,0-.1l-.2-.5v-.5c0,0-.2-.3-.2-.3v-.5c0,0-.3-.4-.3-.4v-.5c0,0,0-.2,0-.2l-.2-.5-.2-.5v-.4c0,0-.3-.3-.3-.3v-.4c0,0,0-.1,0-.1l-.3-.4-.2-.4-.2-.5-.2-.5"/>
          <path class="cls-5" d="M134.6,264.8l.3,1.7,1.3.9.9,2.7-.3,1.2,1,2.9,1,.6,2.1,5.5,1.3,5.2,2.4,4.1,5.3-1.8.6-.3.2-.2h.4l2.1,1.5v5l-.8.3,3.9,12.4h-13.3l-7,2.2-7.8,2.6-4.7-14.2-2.6-7.7-1.7-3.2-2.2-6.3-2.7-8.2,20.5-6.9"/>
          <path class="cls-5" d="M99.8,276.6l14.3-4.9,2.7,8.2,2.2,6.3,1.7,3.2,2.6,7.7,4.7,14.2-5.2,1.6-3,1.5-1.6,1.2-.6.5-1.8,2.4-1.3,2.9-2.4-7.5-1.2-3.5-2.5-7.5v-.4c0,0-2.8-8.2-2.8-8.2l-3.2-9.7-2.6-8.1"/>
          <path class="cls-5" d="M83.1,292.2l1.6-.6,1.4-1.1,3.5-5.1,2.6-3.8,2.3-2.3,3.6-2.1,1.7-.6,2.6,8.1,3.2,9.7,2.7,8.2-6.7,2-1.9-1-15.6-10.4-1.1-.8"/>
          <path class="cls-5" d="M108.4,302.5v.4c0,0,2.6,7.5,2.6,7.5l1.2,3.5,2.4,7.5,1.3-2.9,1.8-2.4.6-.5,3.9,3.9.3.2h.3c0,.1.3.1.3.1l-1.4,5.2-1.1,3.6,4.1,1.3-.5,4.7-.2,3-.2.4v.7l-.7,7.2,1.5,1.4v.8l-4.1,4-.3-.2-.7-.4h-.2c0-.1,0-.3,0-.3h0v-.3l-.4-.4-.2-.3-.2-.4h0c0-.1-.8-1.5-.8-1.5l-.9-1.5-.8-1.3-1-1.6-1-1.6-.9-1.4-.3-.4-.6-1-.4-.7-.2-.4h0l-.7-1.2-.3-.4-.4-.7v-.2c0,0-.2-.1-.2-.1h0l-.2-.4-.2-.3h0l-.4-.5-.4-.4h0c0-.1-.2-.4-.2-.4h0v-.2h0l-.2-.3h0l-.3-.2h0v-.2c0,0-.5-.2-.5-.2l-.8-.5h0l-1.6-1.2-.4-.2h-.2c0-.1-.2-.3-.2-.3l-.3-.2h-.2c0-.1,0-.2,0-.2h0v-.2h0l-.2-.2-.3-.2h0l-.2-.2h-.2c0-.1-.5-.5-.5-.5l-.6-.4-.8-.5-.8-.5-.8-.5-.8-.5-1-.6h0c0-.1,0-.1,0-.1h0l-.6-.5-.8-.5-1.5-1-2.9-2-2.1-1.4-1.3-.9-.5-.4-.6-.4-.3-.2-2.4-1.6-.7-.5-2.6-1.7-2.9-1.9-3.5-2.3,6.2-8.1,2.3-.7,2.1-3,2.8-3.2,1.1-.5,1.1.8,15.6,10.4,1.9,1,6.7-2"/>
          <path class="cls-5" d="M142.1,285.4l9.1-12.6,12.8-18.3,1.6-2.3,1.8-1.3,3.6,4.2v.6c-.1,0,.8,1,.8,1l1.3.6,2.4-1.2.4-1.7,1.8.4.4.3,1.3.3-1.1,11.8v5.6l.2,16.7v5.2c.1,0,.5,11.4.5,11.4l.4,16.9h-11.4v.8h-1.9c0,.1-2.4.7-2.4.7l-1.6.6-.7.4-1.2-.9-1.7-3.7.8-.2-1.9-5.9v-1.8h-.1v-6.6h-1.2l-3.9-12.4.8-.3v-5l-2.1-1.6h-.4l-.2.3-.6.3-5.3,1.8-2.4-4.1"/>
          <path class="cls-5" d="M192.4,250.9v7.6h6.2l1.8-.3,2.5-.7,2.4,8.2,1.1,3.8v2.7h-.7v2.7h-.9v6.5l-1.2.5v7.5h-10.5c0,.1-14.4.3-14.4.3l-.2-16.7v-5.6l1.1-11.8v-.8l1.4-6.8,11.7,2.9"/>
          <path class="cls-5" d="M178.5,289.5l14.4-.2h10.5c0-.1,0,6.9,0,6.9l-7,.2.2,8h1.3v16.7l-.7,1h-6.1v.6l.8,16.3.7,2,.7.9.7.7.9.5,1.2.4,1.7.3h2.3c0-.1.1.9.1.9l-6.6.4-2.8-.2-2.7-.9-2.1-1-2.3-2.1-1.5-2.2-1.6-3.6-1-4-.6-8.2-.4-16.9-.3-11.4v-5.2"/>
          <path class="cls-5" d="M128.1,311.3l7.8-2.6,7-2.3h14.5v6.5h.2v1.8l1.9,5.9-.8.2,1.7,3.7,1.2.9.7-.4,1.6-.6,2.4-.6h1.9v-.9h11.4l.6,8.2,1,4,1.6,3.6,1.5,2.2,2.3,2.1,2.1,1,2.7.9,2.8.2,6.6-.4.2,2.3v1.6l-3.5,6.2-5.6,4.3-8.7,2.1-7.7.5-15,.9-5.2,1.9-3.2,4.1-2.1,3.6h0l-.4-.4-.6-.5h0l-.2-.2-.6-.4-.4-.2-.7-.5-.2-.2-4.2-2.8-.6-.4-.9-.5-.9-.6-.7-.5h-.2c0-.1-.4-.4-.4-.4l-.2-.2-.3-.2h-.2c0-.1-.3-.3-.3-.3l-.5-.3-.4-.3-1-.6-1.2-.8h0l-1.2-.8h-.2c0-.1-.1-.2-.1-.2h0l-.6-.5-1-.7-.4-.2-.5-.3-.5-.3-.4-.3-.6-.4-.4-.3h0l-.5-.4h0l-.4-.3-1.9-1.3-.2-.2h0l-.4-.4-.5-.3-.8-.5-.3-.2-.4-.3-.6-.4-.3-.2-.3-.2-.4-.3,4.1-4,.2-.5v-.3l-1.6-1.4.8-7.2v-1.1l.2-3,.5-4.7-4.1-1.3,1.1-3.6,1.4-5.1h-.6c0-.1-.3-.3-.3-.3l-3.9-3.9,1.6-1.2,3-1.5,5.2-1.6"/>
          <path class="cls-5" d="M296.6,286.1l2.2,8.4-1.5.4-6.4,3.2-3.5,1.9-7.6,2.4-5.7,1.2-7.3,1.6h-.5v-1.9l.5-1.5v-4.9l-.3-3v-3.3l.5-5.9.8-1.3,3.3,4,2.6,1.2,8.8.7,3.4.3h.9l8.6-2.9,1.2-.5"/>
          <path class="cls-5" d="M303.2,301.9l-1.7.6-5.1,2-2.5.8-6.8,1.6-1.4-.6-.8.2-4.8,1.1-.3,2.5,1.3,5.9v.5l-6.7-.5-8.3-.6v-1.3l.4-2.3v-6.6h.4l7.3-1.6,5.7-1.2,7.6-2.4,3.5-1.9,6.4-3.2,1.5-.4,1.3,2.1,3.2,5.3"/>
          <path class="cls-5" d="M303.2,301.9l2.8,5.6,1.2,3.8-2.1.5-9.2,2-7.3,1.8-5.7,1.2h-2v-.6l-1.2-5.9.3-2.5,4.8-1.1.8-.2,1.4.6,6.8-1.6,2.5-.8,5.1-2,1.7-.6"/>
          <path class="cls-5" d="M213.7,289.8l-1,1.8-.4,2.1-2.8,14.9-1.2,6.1-6,16.6-1.1,2.9-1.1,5.8.3,3.6h-2.3c0,.1-1.7-.1-1.7-.1l-1.2-.4-.9-.5-.7-.7-.7-.9-.7-2-.8-16.3v-.6h6.1l.7-1v-14.3c-.1,0-.1-1.3-.1-1.3v-1.1h-1.3l-.2-8,7-.2v-7h2.4l6-.3,1.9.9"/>
          <path class="cls-5" d="M213.5,294.1l2.7,11.9.3,1.2,1.2,4.6.4,6.7-7.5,1.5-1.5,1.9-.5,1.3-.5,2.1.4,4.1-6.2,2,6-16.6,1.2-6.1,2.8-14.9,1.2.3"/>
          <path class="cls-5" d="M231.2,286.7v.3c.1,0,2.3,6.8,2.3,6.8v1.1h1c0-.1.8,1.8.8,1.8v.2l.8.6,2.4,5.2,1.3,2.8-9,3.7-6.2,2.5-1-2.7-5.9,2.6-1.2-4.6-.3-1.2-2.7-11.9,17.8-7.4"/>
          <path class="cls-5" d="M267.7,283.3l-.8,1.3-.4,5.9v3.3l.2,3v1.7h-.6c0,.1-7.8,2.6-7.8,2.6l.5,1.1.7,1.1,1.5.8,1.4.5,3.1.4h.7v6.7l-.2,2.3v1.3l-4.4-5.2-7.8-2.3-8.8-2.7-3.3-.2-2,.5-1.3-2.8-2.4-5.2-.7-.6v-.2l-.9-1.9h-1.1c0,.1,0-1,0-1l-2.1-6.8h.5l.8-.9,6.1-2.5v.3c.1,0,6.9-2.3,6.9-2.3l4.3.6h.2l.2-.2-.3-.7.7-.3.3.9,7.8-3.6.6.3,2.7.2,2.4,1.8,1.1.9,2,1.8"/>
          <path class="cls-5" d="M217.7,311.7l5.9-2.6,1,2.7,6.2-2.5.3.7,2.1-.3,1.1,5.1,1.3,5.8-1.7.3,1.5,6.7-1.7.4-7.1,3.5h-5.6l-3,.7.2,2.2-.4,7.1-7.3.6-8.1.9-2,.7-.3-3.6,1.1-5.8,1.1-2.9,6.2-2-.4-4.1.5-2.1.5-1.3,1.5-1.9,7.5-1.5-.4-6.7"/>
          <path class="cls-5" d="M230.9,309.3l9-3.7,2-.5,3.3.2,8.8,2.7,7.8,2.3,4.3,5.2-1,11.1h-3l-.4-.2v.5h-.8l-.4-.2-.2-.2-.3-.2-.4-.5h0v-.4l.3-.2-.4-.5-.2.3h-.4l-.8-.8v-.3h.3v-.2h0v-.2h-.5c0,.1,0,0,0,0h-.1l-.4-.6-4,3.4h-3.1c0,.1-9.6.6-9.6.6l-4.8,1.1-1.5-6.7,1.7-.3-1.3-5.8-1.1-5.1-2.1.3-.3-.7"/>
          <path class="cls-5" d="M266.3,305.2h-.7l-3.1-.4-1.4-.5-1.5-.8-.7-1.1-.5-1.1,7.8-2.5h.7c0-.1,0,3.1,0,3.1l-.5,1.5v1.9"/>
          <path class="cls-5" d="M266,315.4l8.3.6,6.7.5-.3,3.1,8.2.6,4.6.4,2,1.1,2.2-.4h0l2.2,9.6-1.7.3-5.9-.4-5-.4-3,1.8.6,1.1-.3,3.7,7.2.5-.3,6.3h-.3c0,.1-3.7,0-3.7,0h-.1l-10.1,9.4-5.1-4-3.6-2.7-4.6-2.4h-.5l.6-6.1.5-.2.5-11,1-11.1"/>
          <path class="cls-5" d="M307.1,311.3l.2.8,2,4.2.7,2.2-1.7.4-10.9,2.5h0l-2.2.4-2-1.1-4.6-.4-8.2-.6.3-3.1h2l5.7-1.1,7.3-1.8,9.2-2,2.1-.5"/>
          <path class="cls-5" d="M310.5,321.1h0v.5l.6,2.7,1.1,4.8,1.2,5.3-.8,2.8-2.1,1.9-6.4,2.8-2.3,1.7-1.6,5.2-.7,2.6-2.2,3.7-3.1,1.3h-2.8l-3.7.3-1.2,1.2-.7,1.4-3.3-2.8-5.3-3.7,10.1-9.3h3.8c0,.1.3.1.3.1,0-.1.3-6.4.3-6.4l-7.2-.5.3-3.7-.6-1.1,3-1.8,5,.4,5.9.4,1.7-.3-2.2-9.5,10.9-2.5,1.7-.4.4,2.6"/>
          <path class="cls-5" d="M265,326.5l-.5,11-.5.2-.6,6-13.4-.5-13.1.9-5.2.3-13.7.9v-3.6l.4-7.1-.2-2.2,3-.7h5.6l7.1-3.5,1.7-.4,4.8-1.1,9.6-.5h3.1c0-.1,4-3.5,4-3.5l.4.5h.5v.3h.2c0,.1-.3.1-.3.1v.4l.8.8h.4l.2-.3.4.5-.2.2v.3h0c0,.1.4.6.4.6l.3.2.2.2.4.2h.6v-.5c.1,0,.6.1.6.1h3"/>
          <path class="cls-5" d="M217.8,341.6v3.6l13.7-.9,5.2-.3,13.1-.9v1.3l.4,1.4,2.9,6.2,1.1,2.4v.6c.1,0,.1,2.2.1,2.2v10.3c.1,0,.1,9.3.1,9.3l.2,3.1h-2.7l.2,7.3v.2h-3l-5.8.2h-5.8c0,.1-.3.1-.3.1h-4.7c0,.1-1.7.1-1.7.1l-4.6.2h-7.7v.2h0v.6h-1.4v-.4h-.2v-.4h-.3v-16.5c.1,0,.1-.6.1-.6v-3.5l-.2-.5v-.5h-.2l-.2-1.1v-.6h-3.3l-1.7-.2h-8.3l-.3.8v.2h0v.2h-.2l-1.7.5-1.3.3h-.5c0,.1-.2,0-.2,0l-.2-.2h0l-.5-.3h-.2c0-.1-.9-.7-.9-.7h-1.1l-.8.3-1.2.3-.8.2h-.2l-.5.2h-.2l-.5.2h-.2l-.2.2-1.4,1h0v4.3h-.3v.5h-.2l-1.9.4-1.6.3-1.3.2-1.1.2-1.1.2h-.7c0,.1-1.3.4-1.3.4l-1.5.2-1.3.2-1.3.2h-.8c0,.1-.7.2-.7.2h-.6l-1.5.3h-1.4l-.9.2h-.7l-.5.2h-.4l-.7.2h-1c0,.1-.3.3-.3.3h0l-.5.2h-9.2v.2h-1.1l-.2-.6v-.3c-.1,0-.3-.4-.3-.4l-.2-.4-.2-.4-.3-.5-.4-.6-.3-.5-.3-.4-.4-.4h0l-.4-.5-.3-.3-.3-.2,2.1-3.6,3.2-4.1,5.2-1.9,15-.9,7.7-.5,8.7-2.1,5.6-4.3,3.4-6.2v-4.9c-.1,0,1.9-.7,1.9-.7l8.1-.9,7.3-.6"/>
          <path class="cls-5" d="M263.3,343.6h.5l4.6,2.5,3.6,2.7,5.1,4,5.3,3.7,3.3,2.8,1.8,5.8-3.9,6.5-1.9,6.4-1.3,4.2,2.2,4.3h-10.6c0,.1-9.5.4-9.5.4h-6l-4.2.2v-.2l-.2-7.2h2.7v-25.1l-.2-.6-1.1-2.4-2.9-6.2-.3-1.4v-1.3l13.4.5"/>
          <path class="cls-5" d="M296.6,286.1l1.7-.5,1.1-.5.9-.7,1.4-1.5,1-.5,3.1,8.4,1.2,3,3.1,2.5,1.1.5,1.4.3.6.8.7.4h.6l.9.8-1.3,2-.7,1.8-.2,2.2v3c.1,0,2.7,2.4,2.7,2.4l.3.4-1.7,1.2-3.9,2.9-1.3,1-2-4.2-.2-.8-1.2-3.8-2.8-5.6-3.2-5.3-1.3-2.1-2.2-8.4"/>
          <path class="cls-5" d="M302.7,282.3h.7c0-.1,2,0,2,0h.7l.8-.5,1-1,.5-.3,2.8-.3,1.1-.3,1.7-.8.9-.4,1.3-.4h2l1.4-.4,1.1-.8,1-1.4.2-.2.4-.3.6-.3,2.3-.4.8-.4.2-.2,1.8,2.1.9,2.8.5,1.6,1.7,3.8,2.3,5.7-12.4,6.1-3.1,1.7-2.5,1.6.3.3-.9-.8h-.6l-.7-.4-.6-.8-1.4-.3-1.1-.5-3.1-2.5-1.2-3-3.1-8.4"/>
          <path class="cls-5" d="M341.9,266h.4l-.9,3.2-.4,2.2v3.3l1.1,5.3.4.8,1,2,1.5,2.4,1.6,1.6,4.9,3.5-12.6,4.5-2.7,2-2.7-7-2.3-5.7-1.7-3.8-.5-1.6-.9-2.8-1.8-2.1,4.1-4.1,3.1-2.8.9-.5h.7c0-.1,7.1-.3,7.1-.3"/>
          <path class="cls-5" d="M335.9,296.7l-11,8.2-8.6,6.3-.3-.4-2.6-2.4v-3c-.1,0,0-2.2,0-2.2l.7-1.8,1.3-2-.3-.3,2.5-1.6,3.1-1.7,12.4-6.1,2.7,7"/>
          <path class="cls-5" d="M354.7,265.8v12.7l.3,1.1,2,8.8h-.6l-5.1,1.9-4.9-3.5-1.6-1.6-1.5-2.4-1-2-.4-.8-1-5.3v-3.3l.4-2.2.9-3.2,12.3-.2"/>
          <path class="cls-5" d="M354.7,265.8h17.3l3.1-1.4,1.5-.6h2.9l.9-.2.7-.3,1-.7,1-1.2.2,1.4.2,1.5,1.3,5.6,1.9,5.8,1.7,5.1,2,3.4,1.8,2.1-2.2,2.3-2.4,1.2-1.3.7-23.1-1.5-6.3-.4-2-8.8-.2-1.1v-12.7"/>
          <path class="cls-5" d="M376.2,223.5h4l5.3.3,2.1.6v.2l.6.7-1.3.5-.7.8-.3.6-.2.5-.5.9v1.4l-.7,1-6,9.1,1.8,3.7.3.3h.1c0,.1,1.5,12,1.5,12l.8,4.9-1,1.2-1,.7-.7.3h-.9c0,.1-2.9.2-2.9.2l-1.5.6-3.1,1.3h-17.3l-12.3.3h-.4l.6-1.9,1.5-4.9v-2.6l-1-4.8-.6-1.3-2.7-2.7-4-1.4-5.4-2.8-2.1-1.1-3.7-1-12.5-3.3-3.4.5-1.4-9.4,9.6-1.1,5.2-1.1,19.4-3.3h9.8c0-.1,1.3-.1,1.3-.1h8.3l15.5-.2"/>
          <path class="cls-5" d="M387.7,224.5h.2l.4.3,1,.6h0v.2h0l.2.2h0v.2h0l-.2.2h0v.2h-1.2c0-.1-.2.1-.2.1h.2v.3h0c0,.1-.2.4-.2.4h.4l.5.2.4.2.8.3.9.4,1,.4h.4c0,.1.1.1.1.1v.2h0c0,.1-.1.4-.1.4h0l-2.7-1.2h0v.4h0l2.6,1.2h.1v.2l-.2.3v.2h-.1v-.3h0l-.3-.2h-.3c0-.1-.2-.2-.2-.2h0l-.3-.2h-.2v-.2h-.3c0-.1,0,.2,0,.2h0l.4.3.4.4.3.3h0l.2.2.3.3h0l.3.3h.1c0,.1.1.3.1.3h0l.2.2h0l.2.2h0v-.2h.1v.2h0v.2h-.1l.3.3.3.2h0l.3.3h.1v.2c.1,0,.3.2.3.2h.2c0,.1.2.4.2.4l.2.2h0l.2.2.2.2,2.1,1.7h0v.2h0l.2.3h0v.2l.2.2h.2c0,.1.3.4.3.4h0l.2.2h.2c0,.1.3.4.3.4h.2c0,.1.2.4.2.4h.2c0,.1.2.3.2.3h.1v.2h0l.2.2h.2v.2l.2.2h.1c0,.1.3.4.3.4h0c0,.1.4.5.4.5h.1c0,.1.6.7.6.7l.3.2.9.8h0l1.3,1.2h0l1.1,1.1,2,1.7,1.9,1.6.3.2h0l1,.9h0l.5.4h0l.8.7h0l.2.3h0l.5.4,1.6,1.4.6.5h.1l.2.3h.2c0,.1.2.3.2.3l.2.2h0l.3.4.2.2h0v.2h.2c0,.1.6.6.6.6l.3.2h0l.4.3,1,.7h.2c0,.1,1.1.8,1.1.8l.4.2h0l.8.4h.2c0,.1.8.6.8.6h0l.4.3.3.2.4.2-.2.2-.9-.5h-.2c0-.1-.4-.3-.4-.3l-.3-.2-.3-.2h-.3c0-.1-.4-.3-.4-.3l-.4-.2h-.1v.2h-.3c0,.1-.1.2-.1.2h-8.2l-.4.2h0c0,.1-.2.8-.2.8h0l-.2.8v.4h0v.8l.2.2.7.7,2,1.7.2.2.4.4.8.8h0v.2h0v.3h-.1l.3.4h0v.2h0c0,.1-.2.5-.2.5h-.1c0,.1-.5-.3-.5-.3h-.2l-1-.9v.2c-.1,0-.5.4-.5.4l-.6.5-.4.2-.5.3-.7.3h0l-.2-.3h0v-.2h-.1v-.2h-1.2l-.3-.2-.4-.2h-.1l-.2-.2-.4-.2h-1.3v-.3c-.1,0-.6-1-.6-1h0l-.2-.9h0v-.9h0v-.8h0l.2-.4.4-.8h0l.5-.6.7-.8h0v-.2l-.8-.7-.4-.4h-6.7v1.9h-3.3v-1.5h0v-.3h-7.9l-.2.3v.8h0v.9h0v.2h0c0,.1-.2.1-.2.1v.4h.3l.2,1.8h.5c0-.1,1.1-.6,1.1-.6h.3v.4h.2v.3h0v.2h0v.4h0v.3h-.4l-.8.3h-.2v.2h0v.2h0v.2h0v.5h.3c0,.1,1,.1,1,.1l.4-.2h.4c0-.1.4-.3.4-.3h.2l.4-.2h1v.2l.3.5h0v.2h0v.2h0v.3h0v.5h0v.3h1v.2h0v.2h0v.3h0v.4h0v.2h0v.4h0v.2h0v.2h0v.2h0l-.2.2h-.5v.5h0v.2h-.2c0-.1-.4-.1-.4-.1h-.5c0-.1-.1-.2-.1-.2h-.1l-.2-.2h0c0-.1-.1-.1-.1-.1h0v-.2h0l-.2-.5h0l-.2-.6h0v-.2h0l-.2-.6h0v-.2h0v-.2h-.2v.4h0v.2h0v.4h0v.3h0c0,.1.1.4.1.4v.2l.2.2h0c0,.1.2.4.2.4l.4.3.5.4.5.2h.4c0,.1.5.3.5.3l.9.4.4.2h.1v.2h.1v.2c.1,0,.4.2.4.2l2,1.7.4.3h0c0,.1.1.1.1.1v.2h.2v.2h.1l.3.3.3.2h.1l.7.4h.1l.2.2h.2l.3.2h.2c0,.1.2.2.2.2h.3c0,.1.1.2.1.2h.1l2.1,1.1h0l.4.2h.3c0,.1.4.1.4.1h6.7l.4.3h0v.2h0v.4h0v.2h0l-.2.4h0v2.8h0v2.2h0v.2h-.1.2v.2h0l.3.2h.5c0,.1.1.3.1.3h0v.2h0l.2.3h0v.3h0v.2h1.2c0-.1.2-.1.2-.1h4.5l.4-.3h1.2l.5.2h.7l.9-.2,1-.2h.6c0-.1.3-.4.3-.4l.2-.2h.2c0-.1.1-.1.1-.1h.8c0,.1.3.1.3.1h.1v-.3h.4l.2.2h0l.9.6h.1l.3.3h0v.2h0l.3-.2h.2l.3,2.8-.7,2.4,10.8,9.7,8.2,6.9.4,4.3,1.2,3.8,1.3,2.1,5.5,3.6,4.3,2h2.5c0,.1,3.2-.9,3.2-.9l2.8-.5,4.5-1.1-.8,1.4h0v.9h0v.3h0v.3h0v.2h0v.2h0v.2h0v.2h0v.2h0v.2h0v.2h0v.2h0v.2h0v.2h0v.2h0v.2h0v.2h0v.2h0v.2h0v.2h0v.2h0v.2h0v.2h-.2v.2h-.2v.2h-.2v.2h-.2v.2h-3.2l-.2-.2h-.2l-.2-.2h-.2l-.2-.2h-.2l-.2-.2h-3.2l-2,.2h-1.9l-.4.6-.4-.4-.8-.6-.5-.4-.3-.3-.4-.3-.9-.8-.7-.6-.8-.7-.9-.8-.8-.7-.6-.5-.4-.4-.6-.5-.3-.3h-.2c0-.1-.1-.2-.1-.2h0l-.8-.8-.7-.6-2-1.7-1.4-1.2-1.3-1.2-1.8-1.6-.4-.3-1.4-1.2-2.5-2.2-3-2.6-2.1-1.8-.9-.8-1.2-1-2.6-2.3-1.2-1-.6-.5-2.4-2.2-1.4-1.2-.8-.7-.9-.8-.8-.7-1.2-1-.5-.4-.5-.4-.4-.3-.7-.4-.4-.3-.6-.3-.5-.3-.5-.2-.6-.3-.5-.2-.7-.2-.7-.2h-.5v-.3h-.2l-1-.3v.2l-1.7-.7-5.5-3.2-2.4-1.5-2.2-2.4-.8-.9-1.8-2.1-2-3.4-1.7-5.1-1.9-5.8-1.3-5.6-.2-1.5-.2-1.4-.8-4.9-1.5-11.8h-.1c0-.1-.3-.5-.3-.5l-1.8-3.7,6-9.1.8-1v-1.4l.5-.9.2-.5.3-.6.7-.8,1.3-.5-.7-.7v-.2"/>
          <path class="cls-5" d="M448.3,283.6l1.5,1.1,6.1,5.3,7.2,6.3h.3c0,.1.6.4.6.4h.3l.2.2h1.3l.2.2.2.2h.1c0,.1-2.2,3.3-2.2,3.3l-2.4-2-.5.5h-.1v.2l-4.6,5.1-4.1,5.3-1.6,2.1-8.2-6.9-10.8-9.7.7-2.4-.3-2.8h.6v-.7h0l1.2-.4h0l2.7,2.4.6-.2h0l.9.9h0v-.2h0l-1-.9-2.3-2.1h0v-1.1l-.8-.7-.8-.7-.5-.5h0l-.6-.5h0v-.2h.1l.2-.2h.2c0-.1.1-.2.1-.2h.2l.6.4h0l7.6-5.3h0l2.9,2,2.9,2.1"/>
          <path class="cls-5" d="M433.5,269.9l1,.5,1.3.6.6.3.9.5,1.1.6,1.7,1h0l-.2.3h0l-.6-.3h0l-1.9,2.3.5.5h0v.2l-.3.4h0l-1.6,1.8-2.5,2.9h0l-1.2-1.1h-.1l-.2.2-.2.3h0c0,.1,1.5,1.5,1.5,1.5h0l-.2.2h-.1c0,.1-.1.1-.1.1h-.1l-.8-.8-.3.2-.8.6-6,4.1h0l-1.6-2.4h0c0-.1.4-.4.4-.4l-1-1.4-1.2-1.8-2.1,1.4h0l-.4-.5-1.1-1.5h0l-1.3.8h0v-.2h0l-1.1-1.8h0c0-.1.4-.4.4-.4h0l-.5-.7h0c0-.1.4-.6.4-.6l3.5-4.2.8-1h0l.2-.2h0l-.4-.3h0v-.3h0v-.2h0v-.2h0l.3.3h.1l.4.2h0l.5.5,1,.8,2.2,1.9.2.2h0l.3-.2,2.6-1.8,1.5-1h0v-.2h.1v-.5h-.1.3v.9h0v.2h0v.2h0l-3,2.1-.9.6h-.2c0,.1.3.3.3.3h.2c0,.1,2.6,2.4,2.6,2.4l2.2,1.9.5.5.2.2h.2v-.2h.1l.3-.4h0l-.2-.3h0v-.2l2.7-3-3.2-4.9v-.2h-.2l-1.3.9h-.1v-.2h0v-.2h0v-.7h0v.6h0l1.4-.9-.2-.3h-.1l-.4-.5h0l.7-1.2h0l3.3,1.5"/>
          <path class="cls-5" d="M446.9,266.4h7.7c0-.1.5-.1.5-.1h.8c0-.1.4-.1.4-.1h.4c0-.1.5-.1.5-.1l.5-.2h1v.2c.1,0-1.1.2-1.1.2l-2.2.3-2.4.4h-1.5c0,.1-2,.3-2,.3h-8.3c0-.1-.3-.2-.3-.2h-2.3c0-.1-.3-.1-.3-.1h-.4l-.4-.2h-1c0-.1-.6-.1-.6-.1,0-.1-1.6-.6-1.6-.6l-2.1-.6-.7-.2-1.2-.5-.9-.3-.6-.2-1.2-.5-1.3-.6-.5-.3.2-.2h0l.5.3h.3c0,.1.5.4.5.4l.4.2.5.2h.1l.5.2.6.2.7.3h.2l.8.4.5.2h.3c0,.1.2.2.2.2h.6l.3.2h.7c0,.1.2.2.2.2h.5c0,.1.3.2.3.2h.4l.4.2h1c0,.1.2.1.2.1h.3l.3.2h8.1"/>
          <path class="cls-5" d="M466.7,297.8h0v.2l.4.5.3.7v.2l.4.4.3.3,1.1,1.1.4.3.3.3.3.2h.3c0,.1.2.2.2.2h.3c0,.1.2.1.2.1h.4c0-.1.3-.4.3-.4h.2l.7-.4h.5c0-.1.5-.4.5-.4l.5-.3,1-.5h.2c0-.1.2-.2.2-.2h.1l.6-.4.3-.2.4-.2.4-.2.7-.3,1-.5.8-.5.3-.3h0l1.4-.7h.4c0-.1.2-.1.2-.1h.2l.2.3.2.2h0v.5l.4.8v.4h.1v.2h0v.2h0c0,.1-.1.1-.1.1l-.2.2-3.4,1.7h-.3c0,.1-.2.1-.2.1h-.3v-.2h-.1l-.3-.3-.3-.3h-.5l-.6.2-.5.2-1.1.6-.3.2h0v.2h-.1v.2h0v.2h0c0,.1.1.3.1.3h0v.3h.1c0,.1.1.4.1.4h0v.2h0v.2h0v.2h0v.2h0v.4h0v.3h.1v.2h0v.4h0c0,.1.2.5.2.5v.2l.3.3h0l.3,1v.5h0v.6l.6.8v.2h0v.5h-.1v.3l.5,1.2v.6c.1,0,.3.2.3.2l.6,1,.2.4.4.6.5.8v.2h0v.3h-.4l.5,1.1-.7,1.4-3.3,6.1h0l-4.6,1.2-2.8.5-3.2,1.1h-2.5c0-.1-4.3-2.1-4.3-2.1l-5.5-3.6-1.3-2.1-1.2-3.8-.4-4.3,1.6-2.1,4.1-5.3,4.5-5.1h0l.2-.2.5-.5,2.4,2,2.2-3.2"/>
          <path class="cls-5" d="M316.3,311.2l8.6-6.3,11-8.2.3.7,11.2,11.5,8.4,8.4-11.2,11.1v.2c-.1,0-.2.3-.2.3v.4h-.5c0,.1-.6.7-.6.7l-8,7.8-1.1,1.2-9.8-7.4-1.2-.8-2.9-2.7-2.1-1.2-7.6-5.9-.4-2.6-.7-2.2,1.3-1,3.9-2.9,1.7-1.2"/>
          <path class="cls-5" d="M351.3,290.2l5.1-1.9h.6l6.3.4,23.1,1.5,1.3-.7,2.4-1.2,2.2-2.3.8.9,2.2,2.4,2.4,1.5,5.5,3.2,1.6.7-.2.8v.2h0l.3.2v.4h-.4c0,.1-.1.3-.1.3l-.3.2h0l-.2.3-.3.2-.4.2h-.1l-.2.2h-.2c0,.1-.3.3-.3.3h-.2l-.3.3h0l-.3.2-.3.2-.3.2h-.2l-.2.2h-.3v.2-.3c-.1,0-.3-.3-.3-.3l-.3-.7h0c0-.1-1.5,3.7-1.5,3.7l-1.7,3.3-2.4,4.6-1,2.2-.9,2-.2.4h0l-.9,1.4v.2c-.1,0-.3.3-.3.3l-.2.3h0l-.6,1h0v.6l-.2.5v.2l-2.8,4.4-1.1,1.7-.5.8v.2c-.1,0-.9,1.3-.9,1.3l-.7,1.1-1.9,3.1h0v.2l-1.4,2.5-.4.8-1.3,1.9h0l-.5.6-6.3-5.8-5.5-5.7-9.1-9.3-8.4-8.4-11.2-11.5-.3-.7,2.7-2,12.6-4.5"/>
          <path class="cls-5" d="M355.8,317.3l9.1,9.3,5.5,5.7,6.3,5.8h0l-.2.3-.2.2-.8.7-2.2,1.6h-.2c0,.1-1.1.9-1.1.9h-.1l.2.6-.5.2h0v.2h-.3c0,.1-.4.3-.4.3h0l-.6.3h0l-.4.2-.7.3-.9.3-.5.2h-.3l-.3.3h-.2c0,.1-.1.1-.1.1h-.3c0,.1-.1.1-.1.1h-.1c0,.1-.4.3-.4.3h0l-.4.2h-.1l-.2.2h0l-.2.2h0l-.6.3h0l-.3.2h0l-.3.2h0l-.5.2h0l-.5.2-.7-.2-22.5-6.1-.8-.4-2.6-2,1.1-1.2,8-7.8.6-.5h.5v-.9l.2-.2,11.2-11.1"/>
          <path class="cls-5" d="M310.5,321.1l7.6,5.9,2.1,1.2,2.9,2.7,1.2.8,9.8,7.4,2.6,2,.8.4,22.5,6.1.7.2h0l-1.5.3-.8.2v1h0v.9h0v.5h-2.2c0-.1-.7-.1-.7-.1h-.9l-.6.3-.3.2-.5.2h-.3l-.3.2h-.1c0,.1-.1.3-.1.3h0v.2h-.3c0,.1-.6.5-.6.5l-1,.5-.4.2-.2-.3-.6-1h0v-.3l-.5-.8h-2.4l-2.5-.7-3.1-1-3.3-1h-.5c0-.1-2.7,1.5-2.7,1.5l.3.5-.9.5-.6.3h-.2l-.2.2h-3.1v2.2c-.1,0-.1.3-.1.3v.2l-.2.4-.2.4-.2.4-.2.4h0v.2h-.1v.3c-.1,0-.3.2-.3.2l-.3.3-.3.3.2.3-1.5.9-2.2,1.1-.7.3-.6.2-.6.3-.9.5-1,.5-1,.5-1,.5-2.9,1.2-1,.4-.6.2h-.6c0,.1-.4.2-.4.2h-.9v.9l.3,2.3.2,2.1v1.4c.1,0,.5,3.6.5,3.6v1.1h0v.4h0v1.1l.3,3.2-.8.2-1,.3h-.4l-.7.3h-.9c0,.1-.5.2-.5.2l-.3.2-.2.2-.8.9h0v.3c-.1,0,.2.3.2.3l.4.4.7.8.2.3h0v.2l-.4.9-.2.6-.2.5v.4h0l.7.4.6.4,1.2.8h.3v.2h0v.2h0v.2c.1,0,.6.3.6.3h.2c0,.1.8.7.8.7h0l.9.6.3.2h0l-1.2,2.4v.2l-.3.5-.5,1-.4.8-.2.4-.2.3-.2.4h-5.3v-1.5c-.1,0-2.2-1.9-2.2-1.9l-3.9-1.8-1.4-.7-1-.7h0l-1.2-.9-.6-.5-.7-.5-.7-.3-.8-.2h-3.7l-1.8-.2-1.9-.7-1.2-1.2v-.2c-.1,0,0,0,0,0l-2.2-4.3,1.3-4.2,1.9-6.4,3.9-6.5-1.8-5.8.7-1.4,1.2-1.2,3.7-.4h2.8l3.1-1.2,2.2-3.7.7-2.6,1.6-5.2,2.3-1.7,6.4-2.8,2.1-1.9.8-2.8-1.2-5.3-1.1-4.8-.5-2.7v-.5h0"/>
          <path class="cls-5" d="M458.9,265.2h4.9l6.1-.9h1.1c0-.1.5-.2.5-.2h.6l.5-.2h.6l.5-.2h.6l.5-.2h3c0-.1,0,0,0,0h.5v.2h-.7v.2h0l-8.7,1.2-4.2.6-2.1.3-4.2.6h-.8c0,.1-.1-.1-.1-.1"/>
          <path class="cls-5" d="M313.5,172.2h1.3c0-.1,7,2.5,7,2.5l2.5,2.5-.9.6,2.7,5.9-.7,2.8-1,3.1-2.8,8.7-2.5,4.3-6.9,8.1-11.1,8.5-6.2,4.8-3,2.6-1.2-.7-3.8-3.6,4.4-1,1.2-.5,6.7-4.9,2-3.9-2.4-9.3.2-2.2.6-1.7,2.9-4.8.8-1.3,2.5,1.6,1-.7,2.8,1.9.2.8,1.2-1.8-.7-.5v-1.5l-.5-1.9-3-8-.3-.6-.3-.3-1.8-1.1.2-.6.9-1.4-1.3-3.7-1.5-3.7,4,1.1h3.9l2.9-.4"/>
          <path class="cls-5" d="M353,211.1l-9.3-2.5-.8,3.4-4.6-2.8-2.5,4-7.1-4.5-2.1,3.3-.4.4-.9.4-2.1.4-2,.5-1.1.4.3.4.5,2.7-.9.2,1.3,7,.5,2.6-5.2,1.1-9.6,1.1-8.6.3-3.2-1-3.6-2,3-2.6,6.2-4.8,11.1-8.5,6.9-8.1,2.5-4.3,2.8-8.7,1-3.1.7-2.8-2.7-5.9.9-.6,2.6,5,1.4,7.7,1.9,10.1h.8l3-.7,5.6-.8,4.5-.3v-.2l1.5.2h0l1.5.4,7.8,1.7-1.4,6.1-.7,4.6"/>
          <path class="cls-5" d="M357.2,189.9l4,2,1.4.7,12.5,6.1.4,1.3.8,2.5-.2,8.5h-.3l-3.7.2-1.3-.2h-1.6c0-.1-.3-.3-.3-.3l-.5-.4-.5-.4-4.2-5.3-.4-.5-.7-1.1-1.2-1-1.2-.8-.8-1-.6-.7-.5-.3-1.1-.3-2.5-.8v.2h-.2l-1.1-.3-.7-.7-2.4-1.4-2.9-1.6,2.8-1.5,5.7-3,1.3.7"/>
          <path class="cls-5" d="M329.7,187.7l15.1,6h-.3c0,.1-.6.7-.6.7v.4c-.1,0,0,1.3,0,1.3l.8-.5.4.4-.8.8h-1.7l-5.8.7-2.5.3-.8.3-1.7.3h-1l-1.5-9.8.6-1"/>
          <path class="cls-5" d="M313.5,172.2l-.2-1.5,1.8.4,2.6.6,4.7,2.1,2.3,1.5.5.7.4.8.5-.3.8,1.9,1.7,4.5,1.9,3.6-.6,1.3-.6,1,1.5,9.9h1l1.7-.4.8-.3,2.5-.3,5.8-.6h1.7l.8-.9-.4-.4-.8.5-.2-1.3v-.4c.1,0,.8-.5.8-.5h.3c0-.1.4,0,.4,0h2.1c0-.1,2.9,1.5,2.9,1.5l2.4,1.4.7.7,1.1.3h.1c0-.1,2.5.7,2.5.7l1.1.3.5.3.6.7.8,1,1.2.8,1.2,1,.7,1.1.4.5,4.2,5.3.5.4.5.4h.3c0,.1,1.6.3,1.6.3l1.3.2,3.7-.2h.3v1.1l-1.5.7-1.1.3h-1.2c0,.1-2.6.1-2.6.1l-2.3-.3h-.2v.3c-.1,0-.1.3-.1.3l-1.8-.3-.4-.3-1-.2-.3,1.1-.6-.2-10.1-2.7.7-4.6,1.4-6.1-7.8-1.7-1.5-.5h-1.4v.2l-4.6.3-5.6.8-3,.8h-.8l-1.9-10.2-1.4-7.7-2.6-5-2.5-2.5-7-2.6h-1.3"/>
          <path class="cls-5" d="M246.8,130.7l.5-1.4,1.5-2,3.5-4.3,1.8-.4h.6l4,3.6.3.5,1.5,2.1,1.1,1.2,1.3,1.5.5.7,1.4,2.1.2.2,2.8-.4h1.1c0,.1,1.6,0,1.6,0l1.6-.5,3.8-1.1h.3c0-.1.2-.3.2-.3l1.5-.2h2.4c0-.1,1.5-.5,1.5-.5l.7.4,1.8,1,.8.5,4.7,5.8,2,2.4,1.7,1.9,2.4,2.8,3.8,4.8.8,2.4-1.1,4-.9,1.2-3.8,3.2-1.9,1.7-.8,1.2-3.8,5.8-10.5-8.1-.6-.9v-3.7c-.1,0-.9-1.8-.9-1.8l-3.9-3.2-19.1-14.8-6.2-4.5-.6-2.5"/>
          <path class="cls-5" d="M226.6,92.8h.5l.4-.2h.3c0,0,.4,0,.4,0,0,0,.1,0,.1,0h.2c0,0,.2,0,.2,0h.1v-.3h.4l.4-.2h1.4c0,0,.5,0,.5,0h2.5c0,0,.2,0,.2,0h.4l.3.2h.3c0,0,.3.3.3.3h.2v.2l.2.2.2.2.3.3h0l.2.3h0v-.4h.3v-.2h.1c0,0,.2-.3.2-.3h0v-.2h.2l.3.5h.5c0,0,.2,0,.2,0h.3c0,0,.2,0,.2,0l.2.2h.2c0,0,.2.3.2.3h.2c0,0,.2.3.2.3l.2.2v.2h.1c0,0,.2,0,.2,0h.9v.2h0v.3h0v.3h0v.5c.1,0,.1.3.1.3l.2.2v.4h0c0,0,.3,1.1.3,1.1v.5h.3l.4.6.3.4h0v.2l.5.8.3.5h0l.4.5.4.4.4.4.2.2.2.2.4.3h.1c0,0,.2,0,.2,0,0,0,.1.2.1.2h.1c0,0,.2,0,.2,0h4.7l.2-.2h1v.2h0v.2h.1c0,0,.8,0,.8,0h17.1l.5.2h3.5l.3.2h1c0,0,.1,0,.1,0h.3c0,0,.4,0,.4,0v1.6l-.7,18.3v1.9l-.4.8v.3l-.2.7-.2.5-1.3.3.6.7-1.8-1-.7-.4-1.5.3h-2.4c0,0-1.5.4-1.5.4l-.2.2h-.3c0,.1-3.8,1.3-3.8,1.3l-1.6.5-1.6.2h-1.1c0-.1-2.8.2-2.8.2l-.2-.2-1.4-2.1-.5-.7-1.3-1.5-1.1-1.2-1.5-2.1-.3-.5-4-3.7h-.6l-1.8.5-3.5,4.3-1.5,2-.5,1.4-2.1.2-1.1-.3-6-4.4-2.4-1.5-5.5,9.2-12.9-6.6,2.4-3.6.9-1.4.5-.8.4-.7h0v-.3h0v-.2h0v-.2h0v-.2l.2-.6v-.6h.1v-.2h0v-.2h0v-.2h0v-.2h0v-.2h0v-1.2l-.2-.4h0v-.4l-.3-.4-1.7-3.6-.2-.5-.2-.4-.3-.6v-.6c-.1,0-.1-.3-.1-.3v-1.7h0v-.2h0v-.3h0v-.3h0v-.2h0v-.2h0v-.2h.1c0,0,.2-.5.2-.5l3.6-5.1.5-.8.6-.9.4-.5.4-.5.8-1.1.3-.4h0v-.5l.2-.2v-1.1.8-.2h0v-.3h0v-.2h0v-.4"/>
          <path class="cls-5" d="M286.7,107.7h.8c0,0,.1,0,.1,0h.3c0,0,.3,0,.3,0l.3.2h.3c0,0,.3.3.3.3h.6c0,0,.7.4.7.4h.3c0,0,.1.2.1.2h.1c0,0,.1.3.1.3l.3.2h.1l.4.3h.1l.5.4h.2c0,0,.2,0,.2,0l.3.3.3.2h0l.4.3h.1l.2.2h.1c0,0,.2,0,.2,0,0,0,.2.2.2.2h0l.3.2h0l.3.3h0c0,0,.2.3.2.3h0l.2.3h0l.2.2.2.2h0l.2.2h.2c0,0,.1.2.1.2l.2.2.2.2h0l.2.2h.1l.3.2h.2v.2h0v.2h0v.2h0l.8.3h.2l.2.3h0v.2c.1,0,.6.3.6.3l.3.2.3.2h0l.9.6h.2c0,0,.3.3.3.3l.3.2h.1l.2.2h.2c0,0,.2.3.2.3l.3.2h.2l.3.3.3.2h.1l.9.6.7.4.3.2h.3c0,0,.2.3.2.3h0c0,0,.2,0,.2,0l.2.2h.2l.2.2h.8v-.5h1.5c0,0,.1.2.1.2h.1c0,0,.1.2.1.2h0l.2.2h.1c0,0,.1.2.1.2h.1c0,0,.3.4.3.4h0l.2.2h.1v.2h.1v.2h.1v.2c.1,0,.3.2.3.2h.1v.2h0v.2h.2l.2.3h0v.2c.1,0,.5.3.5.3h.1l.2.2h0l.2.2h0l.3.3h0l.2.2h.1c0,0,.1,0,.1,0l.2.2h.1c0,0,.2,0,.2,0h0l-2.4,3.1-9.5,13-1.3,1.7-2,1.3-1.4.7-2.6,3.6-3,.3-.8-2.4-3.8-4.8-2.4-2.8-1.7-1.9-2-2.4-4.7-5.8-.8-.5-.6-.7,1.3-.3.2-.5.2-.7v-.3l.5-.8v-1.9l.6-18.3v-1.5"/>
          <path class="cls-5" d="M357.2,189.9l6.2-9.5,1.8.4,1.4-.4,1.4-2.1,2.9-4.5,4.4-6.6,3.4,3,1.6,1.5,1.5-1.5,3.2.7,1.9-3,8.7,8.6,5.1,8.4,6.2,12.7-1.5.6-.6-.2-2.4,1,.8,1.9-3.2,1.2-11,4.7-11.4,4.6-1.6.8v-1.1l.2-8.5-.8-2.5-.4-1.3-12.5-6.1-1.4-.7-4-2"/>
          <path class="cls-5" d="M340.6,142.7h1.3l.7-.2h2.2l.9-.2h1.9c0-.1.5-.3.5-.3l.5-.2.6-.2.6-.3.7-.3,1.2-.5,1.4-.6,1.1-.5h.4c0-.1.3-.1.3-.1l.7-.3.7-.2.9-.3.7-.2.6-.2h.5c0-.1.2-.2.2-.2h.3l2.5,5.8.2,1.2.3.6,3.5,3.3,5.2,5.1.5.3,1.1.2,1.6.3,8.9,3.4,2.4,1.6.4.7,1.2,4.8.2,1.6-1.1,2.2-1.9,3-3.2-.7-1.5,1.5-1.6-1.5-3.4-3-4.4,6.6-2.9,4.5-1.4,2.1-1.4.4-1.8-.4-6.2,9.5-1.3-.7-5.7,3-2.8,1.5h-2.1c0,.1-.4,0-.4,0l-15.1-6,.6-1.3-1.9-3.6-1.7-4.5-.8-1.9.6-1.3.3-2.7,4-10.8v-6.3l6.1-8.4,1.3-2.8,2.3-1.5"/>
          <path class="cls-5" d="M323,129.3h0v.3h0c0,.1.2.3.2.3h.1v.2h.3c0,.1.1.2.1.2h.1v.2h.2c0,.1.3.4.3.4h.1c0,.1,2.4,1.7,2.4,1.7l.6.4.6.4.4.3,1.1.9h0v.2l.5.4h0c0,.1.2.1.2.1h0v.3h.2c0,.1.1.3.1.3h0v.2l.3.2h.2v.2h.1l.2.2h.1c0,.1.1.2.1.2h.1v.2h.2v.2h.1v.2c.1,0,.3.2.3.2l.4.3h0l.2.2h0c0,.1.2.2.2.2h0v.2h.2c0,.1.1.3.1.3h0l.2.2h.1v.2h.2c0,.1.1.3.1.3h.3v.2h.1v.3h0c0,.1.2.6.2.6l.2.4h.3l-2.3,1.5-1.3,2.8-6.1,8.4v6.3l-4,10.8-.3,2.7-.6,1.3-.5.3-.4-.8-.5-.7-2.3-1.5-4.7-2.1-2.6-.6-1.8-.4.2,1.5-2.9.4h-3.9l-4-1.1-7.3-4.8-3-2.3.8-1.2,1.9-1.7,3.8-3.2.9-1.2,1.1-4,3-.3,2.6-3.6,1.4-.7,2-1.3,1.3-1.7,9.5-13,2.4-3"/>
          <path class="cls-5" d="M229.6,133.9l5.5-9.2,2.4,1.5,6,4.4,1.1.3,2.1-.2.6,2.5,6.2,4.5,19.1,14.8,3.9,3.2.8,1.8v3.7c.1,0,.7.9.7.9l10.5,8.1,3.8-5.8,3,2.3,7.3,4.8,1.5,3.7,1.3,3.7-.9,1.4-.2.6,1.8,1.1.3.3.3.6,3,8,.6,1.9v1.5l.6.5-1.2,1.8-.2-.8-2.8-1.9-1,.7-2.5-1.6-.8,1.3-2.9,4.8-.6,1.7-.2,2.2,2.4,9.3-2,3.9-6.7,4.9-1.2.5-4.4,1-2.8-2.5-2.4-14.6-4.8-12.3-2.9-4.1-3.9-5.3-7.2-6.8,3.2-3.7-34.4-37.9-2-1.1"/>
          <path class="cls-5" d="M376.2,212.1v11.4l-15.5.2h-19.4c0,.1-19.4,3.4-19.4,3.4l-.5-2.6-1.3-7,.9-.2-.5-2.7-.3-.4,1.1-.4,2-.5,2.1-.4.9-.4.4-.4,2.1-3.3,7.1,4.5,2.5-4,4.6,2.8.8-3.4,9.3,2.5,10.1,2.7.6.2.3-1.1,1,.2.4.3,1.7.3v-.3l.2-.2h.2l2.3.2h3.8l1.1-.4,1.5-.7"/>
          <path class="cls-5" d="M479.2,252h-1.2l-.3-.6v-.2l-.2-.2-.2-.4h0l-.2-.5h0v-.2h0l.2-.3.5-.6h0v-.4h0v-.2h2v.3h0v.2h0v.2h0v.3h0v.3h0v.5h0v.4h0v.2h0c0,.1-.1.1-.1.1v.3h0l-.3.3"/>
          <path class="cls-5" d="M491.5,218.1l-.7,1.4-1.6,3-.2.4h0v.3c-.1,0-.4.5-.4.5l-.2.6h0l-.3.5-.6,1.2-.2.4-.2.5h0l-.6,1.3-.8,1.9-.2.5-.2.6h0v.3c-.1,0-.4.6-.4.6h0l-.2.5-.6,1.5-.6,1.5-.4,1-.3.9-.6,1.4-.3.8-.2.5-.2.8-.4,1.1-.2.7-.2.7h0c0,.1-.5,1.6-.5,1.6h0l-.3-.2h0v-.4h0v-.2h0v-.2h0l-.2-.4h0v-.2h-.2v-.2h-.1v-.2h.3v-1.1h.1l.3-.3.3-.5v.3c.1,0,.4.3.4.3v-.2c.1,0,.4-.5.4-.5l.2-.4v-1.4h-.9c0-.1-.1-.5-.1-.5v-.5l.2-.6v-.8l.8-.9.2-.2v-.4h.7v1l.2.3.3.3h.4v-2.5c.1,0,.1-.9.1-.9l.2-1,.2-.7h0v-.5l.2-.5v-.3l.2-.6.2-.6v-.2l.2-.4v-.4l-.2-.3v-.4l.2-.5.3-.2.2-.3v-.5l.2-.3.4-.3.4-.3.2-.3v-.8c-.1,0-.1-.5-.1-.5l.3-.7.2-.4h0v-.3h0v-.2h0v-.2l.2-.2v-.3c.1,0,.1-.2.1-.2h.2v-.2h0v-.4h0v-.3h0l.3-.2.2-.2h.4c0-.1.1-.1.1-.1h.3l.3.2h.5c0-.1.1-.3.1-.3v-.2h0l.2-.2,2.1-3.7h0l.2-.2v-.4c.1,0,.4-.5.4-.5h0l.2-.2h0v-.2h.2l.2-.3v-.4c.1,0,.1-.1.1-.1l.5-.9h0l.2-.4h.5c0,.1-.7,1.5-.7,1.5l-.5.9-.4,1-2.2,3.9"/>
          <path class="cls-5" d="M431,107.8l.9,1.3,1.3,1.9.5.8.2.3h0l.6-.6.3-.3h2.3v-.3c.1,0,.7-.9.7-.9l.6-.9.4-.6.3-.4h0v-1.1h0v-.7h0v-.4h0v-.6h0c0,0,.2,0,.2,0h15.4l.8.4h.1v.2h.1l.2.2h.2c0,0,.3.3.3.3h.3c0,0,.3.3.3.3h.2c0,0,.3.3.3.3l.3.2h.3c0,0,.3.3.3.3h.2c0,0,.3.3.3.3l.3.2h.3c0,0,.2.2.2.2h.2c0,0,.3.3.3.3h.2l.2.2h.2c0,0,.2.3.2.3h.3c0,0,.3.3.3.3l.3.2.3.2h.3c0,0,.2.2.2.2h.2v.2h.3c0,0,.2.2.2.2h.2l.2.2h.1c0,0,.1,0,.1,0l.2.2h.2c0,0,.4.4.4.4h.1l.2.2h.1c0,0,.5.4.5.4h.3v.2h.2l.3.3h0l.3.2h.3c0,0,.2.3.2.3l.3.2.3.2h.3c0,0,.4.4.4.4l.3.2h.3c0,0,.1,0,.1,0l.2.2.5.3h.1c0,0,.2,0,.2,0,0,0,.1.2.1.2h.2l.3.3.5.3h.2c0,0,.2.2.2.2l.3.2h.1v.2h.3c0,0,.1,0,.1,0l.3.2h.1c0,0,.2,0,.2,0,0,0,.1.2.1.2h.1v.2h.3l.3.2h.2c0,0,.4.4.4.4h.2c0,0,.4.4.4.4h.4c0,0,.1,0,.1,0h.1c0,0,.4.3.4.3h.3c0,0,.1,0,.1,0h.2l.2.2.3.2h.3c0,0,.1.2.1.2h.2c0,0,.3.3.3.3l.5.3.6.3h.1l.3.2h0l.6.4h.1c0,0,.1,0,.1,0l.2-.2h0l.6-.5.5-.3.7-.5.3-.2.4-.2h.2c0,0,.1-.3.1-.3v-.3c.1,0,.4-.8.4-.8l.5-1.2.2-.6h0c0,0,.2-.3.2-.3h.2l.2-.2h.1l.4.4.7.8,1.4,1.1.6.3h.5c0,0,.7.4.7.4h2c0,0,.7,0,.7,0l.7.2.7.2.6.3,1.8,1.2.5.6.3.5h0l.2.3.4,1v.2l.4.9.3,1,.3,1.4.2,1v.6h0v2.6l4-1.7,1.6-1.1,1-1.3.6-1.8.6-.7.4-.4h.3c0,0,.4,0,.4,0h.7l.7.2.9.3.8.4,2.1,1,1.3.5,1.2.2h1c0,0,3.1.8,3.1.8l1.5.6.8.3,5.5,2.5,3.2,1.5,2.9-.4,2.6-.7,4.3-1.2,4.5-1.6,7.2,1h.8l1-.2.8-.5,1.2-.9.7-.5,1-.8.7.3.7.3,1.8.7.5.2h.2c0,0,0,0,0,0h.5v.6h0v1c0,0,.2.6.2.6h0v.8h0v.7c0,0,0,.4,0,.4h0l-.2.4-.2.3v.3c0,0-.3.5-.3.5l-.2,1.3-.2.9v.2h0l-.2.2h0l-1.8-.5h-.5c0-.1-.8-.4-.8-.4l-1.5-.5-2.3-.6-.9-.2h-.4l-.6-.2h-.7l-.9-.3h-.9c0-.1-1.8-.6-1.8-.6l-1.2-.2h-.9c0-.1-.4-.1-.4-.1h-1.7l-.3.2-.6.3-.6.3-.6.3-.3.2h0l-.8.5-1.2.7-.9.5h0l-1.3.9-.4.3h0l-.6.5-.6.5-.3.3-.3.5-.8,1.6h0l-.6,1.2v.3c0,0-2.2,3.7-2.2,3.7l-.8,1.5v.2l-.2.2h0v.3h0v.6c0,0,0,.4,0,.4h0v.2l-.3.4h0l-.2.3h0l-.2.3-.9,1.9-.4.8-.6,1.2-.2.5h0v.2h-.5l-.9.3-.7.2-.6.2h-.4c0,.1-.4.4-.4.4l-.3.2h0l-.2.2h-.2l-1,.2h-.2l-.2.2-.5.5-.6.6-.4.3-.4.2-.4.2h-.4c0,.1-.4.1-.4.1l-1.7.3h-1c0,.1-.2.1-.2.1h0l-.4.2-.4.2h-.2c0,.1-.3.5-.3.5l-.2.3-.2.3-.2.3h0l-.4.4-.4.5-.3.4-.2.2h0l-.3.4h-.1c0,.1-.2.3-.2.3l-.5.4-.4.3h0v.2h-.1l-.4.3-.4.2-.8.3-.5.2-.4.2h-.1v.2h0l-.2.3v.3c-.1,0-.2.2-.2.2v.2h-.2c0,.1-.1.3-.1.3l-.3.4h0v.4l-.3.4v.2h0c0,.1-.1.1-.1.1v.2c-.1,0-.3.1-.3.1h-.2l-.3.2h-.5l-.4.2h-.2c0,.1-.1.3-.1.3h-.1v.6c-.1,0-.2.4-.2.4v.2h0v.2c-.1,0-.5.4-.5.4l-.5.7-.4.7-.3.6-.7,1.1-.3.5-.2.4-.2.6-.4,1.3v.3l-.4,1v.5c-.1,0-.4,1.4-.4,1.4v.7c-.1,0-.2.4-.2.4v.3h0v.3l.2.5h0v.5h0v.2h-.2c0,.1-.3.5-.3.5l-.3.4h0v.3h0l-.2.5-.2.7v.5l-.2.7v2l-.2.3v.2l-.2.3-.2.4-.2.2-.2.3-.2.2v1l-.2.5v.8c-.1,0-.1.7-.1.7v.4c-.1,0-.1.3-.1.3h0l-.2.6-.3.6v.4c-.1,0-.2.3-.2.3v.5l-.2.7v.8l-.2.4-.2.6v1l-.2.8v1.3c.1,0,.1.3.1.3v.2h0l-.2.2-.6.4h-.9c0,.1-.4.3-.4.3l-.4.2h-.3c0,.1-.3.4-.3.4h-.4c0,.1-.5.3-.5.3h-.5c0,.1-.5.1-.5.1h-.9l-.7.3-.9.3-1,.5h-.2l-.2.2h0l-.2.2h-.2c0,.1-.2.3-.2.3h0v.3l-.2.4v.4c-.1,0-.3.7-.3.7h0l-.2.9v.4c-.1,0-.3.3-.3.3h0c0,.1-.1.3-.1.3h0c0,.1-.1.4-.1.4h0v.2h0c0,.2-.2.5-.2.5l-.2.2h0l-.2.3h0l-.2.2h-.1v.2h-.1l-.3.2h-1.8l-.6-.3-.6-.2h-.5c0-.1-.1-.1-.1-.1h-.8c0,.1-.2.2-.2.2h-.1l-.2.2-.5.2h0l-.4.2h-.2c0,.1-.1.4-.1.4h0l-1.1.6h-.1l-.5.3h-.1l-.4.3h-.2c0,.1-.2.3-.2.3h-.1l-.2.2h-.2c0,.1-.1.1-.1.1l-.2.2h-.2c0,.1-.1.2-.1.2l-.3.2h0l-.3.2h-.2c0,.1-.1.2-.1.2h0l-.3.2h-.3c0,.1-.2.1-.2.1h.7v-.2c.1,0,.4-.2.4-.2h.2c0-.1.2-.1.2-.1l1.2-.7,1.3-.7,1.3-.7h.2c0-.1.7-.6.7-.6h.3v.2h0v.8h-1l-.6.2h0l-.3.2h-.5l-.2.2h-.2v.2h0v.2h0v.9l.2.3v.3l.3.5h0c0,.1.4.1.4.1l.2-.2h.3c0-.1.2-.1.2-.1h.9v.4h0l.2.3h0v.3h-.1c0,.1-.2.3-.2.3h.4v.4h0v.2h0v.3h0v.3h-.1v.4c.1,0,.1.3.1.3h.1v.4h.1v.2h0v.5h0v1h0v.2h0v.6h0v.2h0v.5h0v.4h0v.7h0v.2h0v.2h0v.2h0v.3h-.1v.2h0v.3h0v.4h-.1v.2h-.1v.2h-.1v.4h0v.3h0v.2l-.2.2h0v.2h0v.2h0v.2h.4l.3.5h0v.4h0v.2c-.1,0-.3.2-.3.2v.2h0l-.2.3h-.1c0,.1-.2.1-.2.1h0v.9h0v.2h-.1c0,.1-.2.3-.2.3h-.1v.2h-.3v.3h0v.2h0v.2h0v.2h0v.3l.2.3.2.5v.3h0v.2l-.2.2h0l-.2.2v.2h-.1c0,.1.2.2.2.2h0v.5h0v.2h0l-.2.3h0l.2.4h.1c0,.1.2.4.2.4h0v.2h0l.2.3,1,1h0l-.5-.4-.5-.5h0l-.2-.2-.2-.2h-.2v.2h0v.2h-.6c0,.1-.2.1-.2.1h-.2c0,.1-.1.3-.1.3h-.4v.2h-.2c0,.1-.4.1-.4.1h0c0-.1-.1,0-.1,0h0l-.3.4v.2c-.1,0-.2.1-.2.1h-.8v-.3h0l-.3-.5h0v-.2h0l-.2-.2-.2-.2-.2-.2-.2-.2h0c0-.1-.4-.3-.4-.3l-.5-.2-.4-.2-1.9-.9-.4-.2-.5-.2-.7-.3h-.1l-.5-.2h-.2l-.4-.3-.3-.2h-.2l-.3-.2h-.2c0-.1-.2-.3-.2-.3h0l-.4-.6h-.1v-.3h0v-.3h0v-.5h0v-.7h0l-.2-1.5h0v-1h-.1v-.8h0v-.2h-.1v-.5h-.1v-.2l-.2-.3h0v-.3c-.1,0-.1-.3-.1-.3-.1,0-.3-.3-.3-.3h0v-.6c-.1,0-.1-.1-.1-.1h0v-.3h-.2c0-.1-.2-.1-.2-.1,0-.1-.3-.3-.3-.3l-.5-.3h0l-.2-.2h-.1c0-.1-.1-.1-.1-.1h-.3v.2h-.1v.3h0v.2c-.1,0-.2.1-.2.1h-.5l-.2.2h-1.6c0,.1-.5.1-.5.1h0v.3h-.2l-.2.2-.4.2h-.3l-.2.2h-.7c0-.1-.2-.3-.2-.3h0l-.7.4-.5.4-.4.4-.4.4h0c0,.1-.7.1-.7.1h-1.2l-.5-.2h0c0-.1-.1-.1-.1-.1h0l-.6-.2-.6-.3h-.5l-.2.2h0l-.3.3-.7.5-.2.2h-.2c0,.1-.9.8-.9.8h0v.4h0c0,.1-.2.4-.2.4h0v.2h0c0,.1-.4.5-.4.5l-.6.6-.5.5-.7.7-.2.2-.3.3-.2.2h0l-.4.5h0l-.2.2h-.4c0,.1-.2.3-.2.3l-.2.2v.2h-.1l-.2.3h0v.2l-.2.2v.3c-.1,0-.3.3-.3.3h0v.2h0v.2h-.3c0,.1-.1.2-.1.2h-.7c0,.1-1.3.1-1.3.1l-.3.2h-.1v.2l-.2.6h-.3v-.3h-.2c0-.1-.1-.2-.1-.2h-.4l-.5.2h-.5v-.3l-.3-.8-.3-.8v-.2h0l-.2-.4h0l-.2-.6h0l-.4-.8v-.2l-.6-.9v-.2h-.1v-.3c-.1,0-.4-.3-.4-.3l-.2-.2-.2-.3-.3-.3-.5-.6-.2-.3-.3-.3-.5-.6-.3-.4h0c0-.1-.3-.5-.3-.5l-.2-.3-.2-.4v-.2c-.1,0-.4-.4-.4-.4h0c0-.1-.2-.5-.2-.5h0v-.2h0v-.3h0l-.2-.3h0c0-.1-.2-.4-.2-.4l-.2-.3-.2-.3h-.1c0-.1-.1-.4-.1-.4h0l-.3-.4h-.1v-.3h0l-.2-.3h0c0-.2-.3-.6-.3-.6h-.1c0-.1,0,0,0,0v.7h0v1.9h0v.3h0v.3h0v.2h0v1.7c.1,0,.1,1.6.1,1.6.1,0,.1.6.1.6v.4h0v.2h-.3v-.3h0v-2.5c-.1,0-.1-.8-.1-.8v-.9h0v-.2h0v-.2l-.2-.8v-.2h0v-.6h0v-.8c-.1,0-.4-1.8-.4-1.8h-.9l-1.3.4-3.1.7h-.2l-.2.2h-1.4c0-.1-.2-.3-.2-.3h0v-.2h0c0-.1-.3-.6-.3-.6h0v-.2h-.1l-.5-.8-.4-.6h0l-.2-.5h0v-.2h-.1v-.2h-.2c0-.1-1-1.8-1-1.8h0l-.2-.3v-.2c-.1,0-.2-.1-.2-.1h0l-.2-.2v-.2c-.1,0-.3-.2-.3-.2h0c0-.1-.1-.3-.1-.3l-.3-.2h-.2c0-.1-.5-.9-.5-.9l-.2-.3-.4-.6-.4-.5-.4-.4-.4-.4-.3-.3h0l-.2-.2h0l-.2-.2h0v.2h0v.3h0v.2l-1.2,1.5-1.1,1.5h0l-.5.8-.3.4h0l.4.3h0v.4h0c0,.1-.1,0-.1,0l-2.3-1.7h0l-.3-.2h0l1.3,1.1h0c0,.1-.2.1-.2.1,0,.1-1.3-.8-1.3-.8h-.1.2c0,.1.5.5.5.5l1.7,1.3h.1v.2h-.4l-.8-.6h0v-.2h0l-1-.6-.4-.2h-.2l-2.1-.7-5.3-.3h-4v-11.4l1.5-.8,11.4-4.6,11-4.7,3.2-1.2-.8-1.9,2.4-1,.6.2,1.5-.6-6.2-12.7-5.1-8.4-8.7-8.6,1.1-2.2-.2-1.6-1.2-4.8-.4-.7-2.4-1.6-8.9-3.4-1.6-.3-1.1-.2-.5-.3-5.2-5.1-3.5-3.3-.3-.6-.2-1.2-2.5-5.9h.2c0,0,.2-.2.2-.2h.2l.2-.2.5-.2.5-.3h.1v-.2l.5-.7.2-.3.4-.7.3-.8.2-.7.8-3.3.2-.8v-.6l.3-.9v-.5h.1v-.5h.1v-.6h.1l.2-1h0v-.6l.2-.4h0l.3-1h0v-.4l.3-1,.3-1v-.2h0v-.3h0v-.5c.1,0,.2-.4.2-.4h0l.4-1.5v-.3c.1,0,1,.2,1,.2h.3l.3-.3h0l.5-.4h0l.2-.2h0l.2-.2h0c0,0,.5,0,.5,0h2.2c0,0,.1-1,.1-1v-.6h0v-1l-.2-.2h0v-.3h-.1v-.2h-.1.1c0,0,.3,0,.3,0l.2-.2h.2v-.2h.1l.2-.2h.2c0,0,.2-.2.2-.2h.2c0,0,0,0,0,0h-.2c0,0-.1.2-.1.2h-.1v.6h0v.2h0v.2h0v.2h0v.2h0v.3h.1l.2.3h0v.2h.1v.2l.2.2h0v.3h.1v.2h2.6v.7h0v.2h0v.2h.2c0,0,.1-.2.1-.2h27.8c0,0,.5-.5.5-.5h.2c0,0,.4-.4.4-.4h.1l.2-.2h0l.2-.2h0l.3-.2h.1l.3-.3h.2c0,0,.3-.3.3-.3h.1l.2-.2h.1c0,0,.2-.2.2-.2h0v-.2h.1v-.2h.1c0,0,.1,0,.1,0v-.2h0c0,0,.2-.3.2-.3h.2v-.2h0l.2-.2h.1l.2-.2h.2l.3-.3.2-.2h0c0,0,.2,0,.2,0v-.2h.2v-.2h.1l.3-.3h.2c0,0,.4-.4.4-.4h0v-.2h.1l.8-.6.4-.2h.2v-.2l.2-.2.5-.4h.2c0,0,.1-.2.1-.2h0l.2-.2h.2c0,0,.1,0,.1,0v-.2l.3-.2h0l.4-.4.5-.3h.2c0,0,2,2.7,2,2.7l1.1,1.7.3.5.9,1.3"/>
          <path class="cls-5" d="M337.9,424.1l.3-.5h0l.3-.2h0c0-.1.2-.3.2-.3l.3-.3-.4-.4.4-.4.2-.2.5-.5.5-.5.3-.3.3-.3.3-.3.2-.2.3-.3.3-.3.3-.3.5-.5.5-.6.5-.6.5-.6h0l.5-.6.2-.2,1.6-.9.6-.3,1.2-.7.3-.2-.3-.6v-.2c-.1,0-.4-.5-.4-.5l-1.1-2.1,2.2-1.2,2.7-1.5.9-.5h0v-2c-.1,0-1-1.6-1-1.6v-.3c-.1,0,2.3-1.3,2.3-1.3l.6-.3.2-1h0l.2-.9.2-.8h0v-.2h0v-.2h0l-1.2-2.3h0l.6-.4.3-.2.7,1.3v.2l5.5,10.1.4,1,4.4,7.3,4.8,8.7,3.4,6,6.2,11.3,7.1,12.3,4,7.1,6.9,12.5,9.6,17.4h0v.3h0v.2h0v.2h0c0,.1-.1.3-.1.3h0v.2h0v.2h0v.2h0v.2h0v.2h0v.2h0v.2h0v.2h0v.2h0v.2h0v.2h0v.2h0v.2h0v.7h0v.4h0v.2h0v.2h0v.2h0v.2h0v.2h0v.2h0v.2h0v.2h0v.2h0v.2h0v.2h0v.2h0v.2h0v.2h0v.2h0v.2h0v.3h0v.2h0v.2h0v.2h0v.2h0v.2h0v.2h0v.2h0v.2h-.1c0-.1-.2-.1-.2-.1h0v-.3h0v-.2h0v-.2h0v-.2h0v-.2h0v-.2h0v-.2h0v-.7h0v-.3h0v-.2h0l-.2.3-.2.3v.2h-.2v.2h-3.5v.2h0v.3c-.1,0-.1.2-.1.2l-.2.4v.3l-.2.3v.6c-.1,0-.3.6-.3.6v.6c-.1,0-.2.3-.2.3v.4c-.1,0-.1.4-.1.4-.1,0-.2.2-.2.2h0v.4h0c0,.1-.1.4-.1.4h-.8c0-.1-.3-.1-.3-.1h-2.8l-.3-.2h-.2c0-.1-.2-.2-.2-.2h-2.3c0,.1-.3.1-.3.1,0,.1-.2.2-.2.2h-.2l-.4.2h-.4c0,.1-.2-.2-.2-.2h0v-.3h0c0-.2-.3-1-.3-1l-.8-1.7-.6-1.3-.2-.4-.9-1.7-.6-1.1-.9-1.8-.8-1.6.4-.2-2.9-5.1-1.5-2.6-1.2-2-.8-1.3-1-1.7-1.1-2-.4-.6-.2-.4-.3-.5h0v-.2c-.1,0-.7-1.1-.7-1.1l-3.1-6-.8-1.6-.9-1.7-2.9-5.5v-.3c-.1,0-2.1-3.6-2.1-3.6l-.5-1.1-1.3-2.4-2.9-5.5v-.2c-.1,0-.2-.2-.2-.2h0v-.4h-.1l-1.7-3.1-1.9-3.3h0l-1.3-2.2h-.1c0-.1-.6-1-.6-1l-.8-1.2-.3-.8-.5-1.1-.4-.6-.9-1-.5-.5-.4-.7-.7-1.1-.8-1.3-.4-.7-.5-1-.4-.9-.4-.8.6-.3-.7-.8.4-.3.3-.2h.1c0-.1-1-1.3-1-1.3v-.2"/>
          <path class="cls-5" d="M363.4,373.7l1.3-.7,1.4-.8h.2c0-.1.2-.2.2-.2h.1v-.2c.1,0,1.5-.8,1.5-.8h0v.4c.1,0,.8,1.1.8,1.1l.6,1.1.6,1.1.8,1.5.6,1.2.6,1.1.9,1.6.5.9.5.9.5.9.7,1.3.4.8.4.7v.2l1.4-.7.5-.3,1.2-.6.9-.5h.2l1.6-.9.8-.5h.2c0-.1,8.2,14.6,8.2,14.6l3.1,5.5,6.9,12.2,6.3,11.4-10.2,5.7-4.7,2.6-11.7,6.6-6.2-11.3-3.4-6-4.8-8.7-4.4-7.3-.4-1-5.6-10.1v-.2l-.7-1.3h0l.2-.2.3-.2.6-.4h0c0-.1-.2-.7-.2-.7v-.3c-.1,0-.4-.5-.4-.5l-.2-.4h0v-.4c-.1,0-.3-.6-.3-.6v-.2l-.2-.6h0v-.2l-.2-.8h0v-1.3l-.2-.2h0v-.2h-.1c0-.1-.1-.1-.1-.1,0-.1-.1-.3-.1-.3h-.1v-.2l-.3-.2h0l-.3-.5h0v-.2c-.1,0-.3-.2-.3-.2h-.2l-.2-.2-.2-.2h0v-.2h-.2c0-.1-.2-.5-.2-.5h0v-.2h-.1v-.2h0v-.4h.1c0-.1.1-.5.1-.5h0v-.6h0v-.4h.9v-.2h0v-.2h0v-.2h.1c0-.1.2-.4.2-.4l.4-.5h0v-.2h.1v-.3h0v-.3c.1,0,.3-.2.3-.2h0v-.2h.2v-.2h0c0-.1.2-.4.2-.4h0c0-.1.1-.4.1-.4l.7-.4.7-.4.8-.4.5-.3,1.6-.9,1.1-.6,1.5-.9"/>
          <path class="cls-5" d="M418.8,362.8h.4c0,.1.2.1.2.1h1.2l1.1.2h.3c0,.1.9.6.9.6h5.2c0,.1.4.1.4.1l.3.2h.5c0,.1.3.3.3.3h.2c0,.1.1.3.1.3l.2.2h0l.3.4.2.2h.1c0,.1.1.3.1.3h0l.4.4h0v.2h0l.3.4.4.4.4.4h0l.3.4.4.5.5.4.4.4h.1l.5.5.4.3h0l.2.3h0l.3.3h0l.2.3.4.6.2.3.3.5.2.4.4.6.3.5h0c0,.1.3.6.3.6l.3.5v.3c.1,0,.2.2.2.2v.4c.1,0,.1.2.1.2v.3c.1,0,.1.6.1.6.1,0,.4.9.4.9l.2.9v.3h0v.3l.2.3.2.7.4,1.1h0v.3h.2v.4l.6,1.3.7,1.6.7,1.6,1.3,2.5h0v.2h0c0,.1.1.3.1.3h0v.3c.1,0,.3.4.3.4l.3.6.2.4v.3c.1,0,.3.4.3.4l.2.5.2.5.2.4.2.4v.3c.1,0,.4.3.4.3l.2.3v.3c.1,0,.3.3.3.3h0v.2l.2.4h0l.3.7h0l.3.6.3.6h0l.2.3-6.4,5-6.3,4.5-9.6,5.4-20.2,11.3-6.3-11.4-6.9-12.2-3.1-5.5-8.2-14.7h.2c0-.1,1.1-.7,1.1-.7h0l5.8-3.3,2.1-1.2.4-.2.5-.3.7-.4.9-.5.3-.2,2.3-1.3,3.5-2h0l.6.6.9.8.7.6.6.5.3.3.3.3h0l1.1,1,.2-.2h.1v-.2l.2-.2h0v-.2h0v-.2h0v-.2l.4-.9.3-.5.6-.7,2.1-2.1,1-1.2.3-.5.4-.6.5-1,.3-.7.5-1.6h2.9l.6-.7.6-.6"/>
          <path class="cls-5" d="M450.5,399.6l.2.3h0v.3c.1,0,.3.4.3.4v.5c.1,0,.2.4.2.4h0v1.3l-.2.3h0v.8c-.1,0-.1.7-.1.7v1.3h0v.4h0v.7h0v.2h0v.7h0v.4l.2.2h.2l.2.2.3.3h.1c0,.1.1.5.1.5h0l6.1,8.3,9.9,2.6,3.6,4.3,2,6.5,5.2,4.6v1.5h.1-3.3c0,.1-.1.1-.1.1h-.2v.2h-.2c0,.1-.1.1-.1.1v.2h-.2v.2h0v.3h-.1v.2h0l-.2.3v.2h-.2v.6c-.1,0-.4.3-.4.3h0v.2h0v.2h-.1l-.2.2h-.1l-.2.2h-.3c0,.1-.2.3-.2.3h-.3c0,.1-.2.1-.2.1h-.7c0,.1-.4.1-.4.1h-.2c0,.2-17.6-.3-17.6-.3h-10.6l-.6.3h-17.8c0,.1-1.3.1-1.3.1l-.6-.3-1.3-.4-.9-.4-1-.8-.8-1-8.2-14.6,20.2-11.3,9.6-5.4,6.3-4.5,6.4-5"/>
          <path class="cls-5" d="M381.4,440.8l11.7-6.6,4.7-2.6,10.2-5.7,8.2,14.6.8,1,1,.8.9.4,1.3.4.6.2h1.3l.3,3.6,2.5,3.8.6.3.3,3.8-.3,1.3v1.7l.4,1.9.6,1v1.2l-.7.5-.3,4.9.4,5.8,2.2.5h0v.2h0v.2h0v.2h0v.2h0v.2h0v.2h0v.2h0v.2h0v.2h0v.3h0v.2h-.1v.2h0v.2h0v.2h0v.2h0l-.2.2h0c0,.1-.1.2-.1.2h0v.2h-.1v.3h-.1v.3h0c0,.1-.1.1-.1.1v.2h0v.3h-.1v.3h0c0,.1-.1.1-.1.1h0v.3h0v.2h0v.3h0v.2h0v.2h0v.2h0v.2h-.1v.3h-.1v.3h0v.2h0v.2h0v.2h0v.2h0v.3h0v.2h0l-9.6-17.4-6.9-12.5-4-7.1-7.1-12.3"/>
          <path class="cls-5" d="M468.7,443.7h0v.3h0v.2h0v.2h0v1c-.1,0-.4.6-.4.6l-.2.3h0c0,.1-.1.4-.1.4l-.4.8-.4.8-.5.9-.2.5-.6,1.1-.7,1.3h-.7l-1-.2h-.6v.2h0v.7c-.1,0-.3.5-.3.5h0v.4c-.1,0-.3.4-.3.4l-.2.4v.2h0v.7h0v2.1h0v.2h0v.4h0v.2h-1.4c0,.1-.4.1-.4.1v.6h0v.2h0v3.7h0v2.7h0v.4h0v.9h0v.2h-.1c0,.1-.1.3-.1.3l-.2.2h0v.2h0v.2h0v.2l-.3.3-.2.2-.2.2h0v.2c-.1,0-.1.2-.1.2h-.2v.2h0v.2l-.3.4-.2.3v.2c-.1,0-.2.1-.2.1l-.3.5-.2.3v.2l-.2.2-.4.6-.4.5-.3.4h-.2v.2h0v.7h0v.2l-.3.3-.2.3-.3.4h0v.3h0c0,.2-.6.2-.6.2h-.7l-1.4-.2h-2.9c0-.1-.7-.2-.7-.2h-1.6l-2.4-.4h-1.2c0-.1-.5-.2-.5-.2h-.7l-.7-.2h-.8l-.8-.2-1.2-.2h-.8c0-.1-.6-.2-.6-.2h-4.5c0-.1-2.2-.6-2.2-.6l-.4-5.8.3-4.9.7-.5v-1.2l-.6-1-.4-1.9v-1.7l.3-1.3-.3-3.8-.6-.3-2.5-3.8-.3-3.5h17.8l.6-.3h10.6l17.6.5"/>
          <path class="cls-5" d="M482.5,380.8h0v.2h0v.2h0v1.6h0v.5c.1,0,.2.3.2.3v.4h0v.7h.4l1.8-.6v1.4l.2,1.9v1.2c.1,0,.3,1.4.3,1.4v1.1l.2,1.1.3,3,.4,3.4.3,3.3.5,5,.4,4,.2,2.4.2,1.9h0v.9l.2,1.8.2,2.4v1.1c.1,0,.3,1.2.3,1.2v.8l.2.8.2,1.9v.9l.2.9v1.1l.2,1.4.4,3h0v.8h0v.4h0v.5l.2.8v.8l.2.7v3.1h-4.6c0-.1-.2-.1-.2-.1h-.3c0-.1-.3-.1-.3-.1h-.4v-.2h0l-.4-.2-.5-.2-.6-.3-.6-.3h-.2c0-.1-.2-.1-.2-.1,0-.1-.4-.3-.4-.3l-.4-.2h-.1c0,.1-.2-1.4-.2-1.4l-5.2-4.6-2-6.5-3.6-4.3-9.9-2.6-6.1-8.3h0v-.4h-.1.3c0-.1.2-.3.2-.3l.2-.2h0l.3-.3h.1v-.2l.3-.3h.1c0-.1.3-.5.3-.5l.4-.4.3-.3.4-.3.4-.3.3-.2.2-.2.3-.3h0v-.2h0l.2-.3.5-.4.2-.2,1-1.1h0l.9-1.1.3-.3.2-.2.6-.6.7-.8.7-.8h0v-.3c.1,0,1-1,1-1l.3-.4.9-.9.4-.4.7-.7h.1c0-.1.3-.4.3-.4h0l.2-.3h0v-.2c.1,0,.7-.6.7-.6l.5-.4.4-.4.4-.4.4-.4.5-.4.5-.4h0l.3-.3h.1c0-.1.5-.6.5-.6l.5-.5.4-.3.2-.2.3-.3h0c0-.1.3-.3.3-.3l.7-.6.5-.5,1-1,.3-.4.7-.6,1.4-1.2.7-.7,1-1,.5-.5.2-.2.4-.4h0l.5-.6h0l.4-.4h0"/>
        </g>
        <rect class="cls-1" x="41.2" y="44.3" width="496.5" height="387.1"/>
        <rect class="cls-1" x="41.2" y="44.3" width="496.5" height="387.1"/>
        <path id="m7c122c0663" class="cls-4" d="M295.8,223.4c2.2,0,4.3-.9,5.8-2.5s2.5-3.7,2.5-5.8-.9-4.3-2.5-5.8-3.7-2.5-5.8-2.5-4.3.9-5.8,2.5-2.5,3.7-2.5,5.8.9,4.3,2.5,5.8,3.7,2.5,5.8,2.5Z"/>
        <path id="m7c122c0663-2" class="cls-4" d="M247.4,283.2c2.2,0,4.3-.9,5.8-2.5s2.5-3.7,2.5-5.8-.9-4.3-2.5-5.8-3.7-2.5-5.8-2.5-4.3.9-5.8,2.5-2.5,3.7-2.5,5.8.9,4.3,2.5,5.8,3.7,2.5,5.8,2.5Z"/>
        <rect class="cls-1" x="41.2" y="44.3" width="496.5" height="387.1"/>
        <rect class="cls-1" x="41.2" y="44.3" width="496.5" height="387.1"/>
        <path id="m730eab9bd1" class="cls-2" d="M213.9,234c2.2,0,4.3-.9,5.8-2.5s2.5-3.7,2.5-5.8-.9-4.3-2.5-5.8-3.7-2.5-5.8-2.5-4.3.9-5.8,2.5-2.5,3.7-2.5,5.8.9,4.3,2.5,5.8,3.7,2.5,5.8,2.5Z"/>
        <path id="m730eab9bd1-2" class="cls-2" d="M208.1,263.7c2.2,0,4.3-.9,5.8-2.5s2.5-3.7,2.5-5.8-.9-4.3-2.5-5.8-3.7-2.5-5.8-2.5-4.3.9-5.8,2.5-2.5,3.7-2.5,5.8.9,4.3,2.5,5.8,3.7,2.5,5.8,2.5Z"/>
        <path id="m730eab9bd1-3" class="cls-2" d="M318.3,300.1c2.2,0,4.3-.9,5.8-2.5s2.5-3.7,2.5-5.8-.9-4.3-2.5-5.8-3.7-2.5-5.8-2.5-4.3.9-5.8,2.5-2.5,3.7-2.5,5.8.9,4.3,2.5,5.8,3.7,2.5,5.8,2.5Z"/>
        <path id="m730eab9bd1-4" class="cls-2" d="M293.8,226c2.2,0,4.3-.9,5.8-2.5s2.5-3.7,2.5-5.8-.9-4.3-2.5-5.8-3.7-2.5-5.8-2.5-4.3.9-5.8,2.5-2.5,3.7-2.5,5.8.9,4.3,2.5,5.8,3.7,2.5,5.8,2.5Z"/>
        <path id="m730eab9bd1-5" class="cls-2" d="M246.4,280.5c2.2,0,4.3-.9,5.8-2.5s2.5-3.7,2.5-5.8-.9-4.3-2.5-5.8-3.7-2.5-5.8-2.5-4.3.9-5.8,2.5-2.5,3.7-2.5,5.8.9,4.3,2.5,5.8,3.7,2.5,5.8,2.5Z"/>
        <path id="m730eab9bd1-6" class="cls-2" d="M259.4,242c2.2,0,4.3-.9,5.8-2.5s2.5-3.7,2.5-5.8-.9-4.3-2.5-5.8-3.7-2.5-5.8-2.5-4.3.9-5.8,2.5-2.5,3.7-2.5,5.8.9,4.3,2.5,5.8,3.7,2.5,5.8,2.5Z"/>
        <path id="m730eab9bd1-7" class="cls-2" d="M242,220.7c2.2,0,4.3-.9,5.8-2.5s2.5-3.7,2.5-5.8-.9-4.3-2.5-5.8-3.7-2.5-5.8-2.5-4.3.9-5.8,2.5-2.5,3.7-2.5,5.8.9,4.3,2.5,5.8,3.7,2.5,5.8,2.5Z"/>
        <path id="m730eab9bd1-8" class="cls-2" d="M216.9,282.7c2.2,0,4.3-.9,5.8-2.5s2.5-3.7,2.5-5.8-.9-4.3-2.5-5.8-3.7-2.5-5.8-2.5-4.3.9-5.8,2.5-2.5,3.7-2.5,5.8.9,4.3,2.5,5.8,3.7,2.5,5.8,2.5Z"/>
        <path id="m730eab9bd1-9" class="cls-2" d="M265.7,258.3c2.2,0,4.3-.9,5.8-2.5s2.5-3.7,2.5-5.8-.9-4.3-2.5-5.8-3.7-2.5-5.8-2.5-4.3.9-5.8,2.5-2.5,3.7-2.5,5.8.9,4.3,2.5,5.8,3.7,2.5,5.8,2.5Z"/>
        <path id="m730eab9bd1-10" class="cls-2" d="M239.3,273.5c2.2,0,4.3-.9,5.8-2.5s2.5-3.7,2.5-5.8-.9-4.3-2.5-5.8-3.7-2.5-5.8-2.5-4.3.9-5.8,2.5-2.5,3.7-2.5,5.8.9,4.3,2.5,5.8,3.7,2.5,5.8,2.5Z"/>
        <path id="m730eab9bd1-11" class="cls-2" d="M229.2,285.1c2.2,0,4.3-.9,5.8-2.5s2.5-3.7,2.5-5.8-.9-4.3-2.5-5.8-3.7-2.5-5.8-2.5-4.3.9-5.8,2.5-2.5,3.7-2.5,5.8.9,4.3,2.5,5.8,3.7,2.5,5.8,2.5Z"/>
        <path id="m730eab9bd1-12" class="cls-2" d="M246.5,283.2c2.2,0,4.3-.9,5.8-2.5s2.5-3.7,2.5-5.8-.9-4.3-2.5-5.8-3.7-2.5-5.8-2.5-4.3.9-5.8,2.5-2.5,3.7-2.5,5.8.9,4.3,2.5,5.8,3.7,2.5,5.8,2.5Z"/>
        <path id="m730eab9bd1-13" class="cls-2" d="M266.9,280c2.2,0,4.3-.9,5.8-2.5s2.5-3.7,2.5-5.8-.9-4.3-2.5-5.8-3.7-2.5-5.8-2.5-4.3.9-5.8,2.5-2.5,3.7-2.5,5.8.9,4.3,2.5,5.8,3.7,2.5,5.8,2.5Z"/>
        <path id="m730eab9bd1-14" class="cls-2" d="M204.2,306.5c2.2,0,4.3-.9,5.8-2.5s2.5-3.7,2.5-5.8-.9-4.3-2.5-5.8-3.7-2.5-5.8-2.5-4.3.9-5.8,2.5-2.5,3.7-2.5,5.8.9,4.3,2.5,5.8,3.7,2.5,5.8,2.5Z"/>
        <path id="m730eab9bd1-15" class="cls-2" d="M264.7,229.6c2.2,0,4.3-.9,5.8-2.5s2.5-3.7,2.5-5.8-.9-4.3-2.5-5.8-3.7-2.5-5.8-2.5-4.3.9-5.8,2.5-2.5,3.7-2.5,5.8.9,4.3,2.5,5.8,3.7,2.5,5.8,2.5Z"/>
        <path id="m730eab9bd1-16" class="cls-2" d="M269.8,289.3c2.2,0,4.3-.9,5.8-2.5s2.5-3.7,2.5-5.8-.9-4.3-2.5-5.8-3.7-2.5-5.8-2.5-4.3.9-5.8,2.5-2.5,3.7-2.5,5.8.9,4.3,2.5,5.8,3.7,2.5,5.8,2.5Z"/>
        <path id="m730eab9bd1-17" class="cls-2" d="M246.6,285.7c2.2,0,4.3-.9,5.8-2.5s2.5-3.7,2.5-5.8-.9-4.3-2.5-5.8-3.7-2.5-5.8-2.5-4.3.9-5.8,2.5-2.5,3.7-2.5,5.8.9,4.3,2.5,5.8,3.7,2.5,5.8,2.5Z"/>
        <path id="m730eab9bd1-18" class="cls-2" d="M217.4,314.4c2.2,0,4.3-.9,5.8-2.5s2.5-3.7,2.5-5.8-.9-4.3-2.5-5.8-3.7-2.5-5.8-2.5-4.3.9-5.8,2.5-2.5,3.7-2.5,5.8.9,4.3,2.5,5.8,3.7,2.5,5.8,2.5Z"/>
        <path id="m730eab9bd1-19" class="cls-2" d="M239.1,261.5c2.2,0,4.3-.9,5.8-2.5s2.5-3.7,2.5-5.8-.9-4.3-2.5-5.8-3.7-2.5-5.8-2.5-4.3.9-5.8,2.5-2.5,3.7-2.5,5.8.9,4.3,2.5,5.8,3.7,2.5,5.8,2.5Z"/>
        <path id="m730eab9bd1-20" class="cls-2" d="M331.8,303.6c2.2,0,4.3-.9,5.8-2.5s2.5-3.7,2.5-5.8-.9-4.3-2.5-5.8-3.7-2.5-5.8-2.5-4.3.9-5.8,2.5-2.5,3.7-2.5,5.8.9,4.3,2.5,5.8,3.7,2.5,5.8,2.5Z"/>
        <path id="m730eab9bd1-21" class="cls-2" d="M293.9,259.9c2.2,0,4.3-.9,5.8-2.5s2.5-3.7,2.5-5.8-.9-4.3-2.5-5.8-3.7-2.5-5.8-2.5-4.3.9-5.8,2.5-2.5,3.7-2.5,5.8.9,4.3,2.5,5.8,3.7,2.5,5.8,2.5Z"/>
        <path id="m730eab9bd1-22" class="cls-2" d="M274.7,312.2c2.2,0,4.3-.9,5.8-2.5s2.5-3.7,2.5-5.8-.9-4.3-2.5-5.8-3.7-2.5-5.8-2.5-4.3.9-5.8,2.5-2.5,3.7-2.5,5.8.9,4.3,2.5,5.8,3.7,2.5,5.8,2.5Z"/>
        <path id="m730eab9bd1-23" class="cls-2" d="M387.6,306.9c2.2,0,4.3-.9,5.8-2.5s2.5-3.7,2.5-5.8-.9-4.3-2.5-5.8-3.7-2.5-5.8-2.5-4.3.9-5.8,2.5-2.5,3.7-2.5,5.8.9,4.3,2.5,5.8,3.7,2.5,5.8,2.5Z"/>
        <path id="m730eab9bd1-24" class="cls-2" d="M279.2,310c2.2,0,4.3-.9,5.8-2.5s2.5-3.7,2.5-5.8-.9-4.3-2.5-5.8-3.7-2.5-5.8-2.5-4.3.9-5.8,2.5-2.5,3.7-2.5,5.8.9,4.3,2.5,5.8,3.7,2.5,5.8,2.5Z"/>
        <rect class="cls-1" x="41.2" y="44.3" width="496.5" height="387.1"/>
        <rect class="cls-1" x="41.2" y="44.3" width="496.5" height="387.1"/>
        <path id="m8883118ca3" class="cls-6" d="M264.1,289.1c1.3,0,2.7-.5,3.7-1.5s1.5-2.3,1.5-3.7-.5-2.7-1.5-3.7-2.3-1.5-3.7-1.5-2.7.5-3.7,1.5-1.5,2.3-1.5,3.7.5,2.7,1.5,3.7,2.3,1.5,3.7,1.5Z"/>
        <path id="m8883118ca3-2" class="cls-6" d="M256.8,247.6c1.3,0,2.7-.5,3.7-1.5s1.5-2.3,1.5-3.7-.5-2.7-1.5-3.7-2.3-1.5-3.7-1.5-2.7.5-3.7,1.5-1.5,2.3-1.5,3.7.5,2.7,1.5,3.7,2.3,1.5,3.7,1.5Z"/>
        <path id="m8883118ca3-3" class="cls-6" d="M236.4,293.5c1.3,0,2.7-.5,3.7-1.5s1.5-2.3,1.5-3.7-.5-2.7-1.5-3.7-2.3-1.5-3.7-1.5-2.7.5-3.7,1.5-1.5,2.3-1.5,3.7.5,2.7,1.5,3.7,2.3,1.5,3.7,1.5Z"/>
        <path id="m19eb836018" class="cls-2" d="M286.1,253.6c2.2,0,4.3-.9,5.8-2.5s2.5-3.7,2.5-5.8-.9-4.3-2.5-5.8-3.7-2.5-5.8-2.5-4.3.9-5.8,2.5-2.5,3.7-2.5,5.8.9,4.3,2.5,5.8,3.7,2.5,5.8,2.5Z"/>
        <line class="cls-8" x1="236.4" y1="290.5" x2="236.4" y2="318.2"/>
        <line class="cls-8" x1="288.2" y1="277.1" x2="265.3" y2="282.7"/>
        <line class="cls-8" x1="302.6" y1="237.2" x2="258" y2="244.2"/>
        <path id="m1e9794c483-2" class="cls-3" d="M265.3,283.4c2.2,0,4.3-.9,5.8-2.5s2.5-3.7,2.5-5.8-.9-4.3-2.5-5.8-3.7-2.5-5.8-2.5-4.3.9-5.8,2.5-2.5,3.7-2.5,5.8.9,4.3,2.5,5.8,3.7,2.5,5.8,2.5Z"/>
        <path id="m1e9794c483" class="cls-3" d="M263.2,226.1c2.2,0,4.3-.9,5.8-2.5s2.5-3.7,2.5-5.8-.9-4.3-2.5-5.8-3.7-2.5-5.8-2.5-4.3.9-5.8,2.5-2.5,3.7-2.5,5.8.9,4.3,2.5,5.8,3.7,2.5,5.8,2.5Z"/>
        <text class="cls-7" transform="translate(308.8 241.6)"><tspan x="0" y="0">Anne Frank House</tspan></text>
        <text class="cls-7" transform="translate(290.8 278.7)"><tspan x="0" y="0">Rijksmuseum</tspan></text>
        <text class="cls-7" transform="translate(237.1 341.2)"><tspan x="0" y="0">Vondelpark</tspan></text>
      </g>
      <rect x="790.2" width="576" height="576"/>
    </g>
  </g>
</svg>