<?xml version="1.0" encoding="UTF-8"?>
<svg xmlns="http://www.w3.org/2000/svg" version="1.1" viewBox="0 0 576 576">
  <defs>
    <style>
      .cls-1, .cls-2 {
        fill: none;
      }

      .cls-3 {
        fill: #8da0cb;
      }

      .cls-3, .cls-4, .cls-5, .cls-6, .cls-7 {
        fill-opacity: .9;
        stroke: #fff;
        stroke-opacity: .9;
      }

      .cls-3, .cls-4, .cls-5, .cls-6, .cls-7, .cls-8, .cls-9 {
        stroke-linejoin: round;
      }

      .cls-3, .cls-4, .cls-5, .cls-6, .cls-7, .cls-9 {
        stroke-width: 2px;
      }

      .cls-10 {
        font-family: HelveticaNeue, 'Helvetica Neue';
        font-size: 25px;
      }

      .cls-10, .cls-8 {
        isolation: isolate;
      }

      .cls-4 {
        fill: #e78ac3;
      }

      .cls-5 {
        fill: #d24f13;
      }

      .cls-6 {
        fill: #fc8d62;
      }

      .cls-7 {
        fill: #66c2a5;
      }

      .cls-2 {
        stroke-miterlimit: 10;
      }

      .cls-2, .cls-8, .cls-9 {
        stroke: #000;
      }

      .cls-8 {
        fill-opacity: .4;
        opacity: .2;
        stroke-opacity: .4;
        stroke-width: .5px;
      }
    </style>
  </defs>
  <!-- Generator: Adobe Illustrator 28.7.7, SVG Export Plug-In . SVG Version: 1.2.0 Build 194)  -->
  <g>
    <g id="Layer_1">
      <rect class="cls-1" x="-41.6" y="168.3" width="435.3" height="271.2"/>
      <path id="m66f7a09486" class="cls-8" d="M334.4,42.6l-1.8,3.2-.5,1.2-.3,1.2v1.2c-.1,0,0,2.8,0,2.8v.6l2.8-2,7.8-3.9-.2,1.5-.3,1.9-.3,2-1.7,10.5,2.3,2.9,2.4,3.2,7.6,5.1,2.7,1.6,1.1.5.9.5,1.5,1.3,2.3,2,1.8,1.4.7.5,4-2.3,1.2-.3.4,1.1.9,2,2.2-.2v1.6c-.1,0-.5,3.7-.5,3.7l-.3,3.7-3.1,10.2-.6,2.7-4.6,2.3-3.6,2-1.9,1.1-.2,4.6-.2,4.1-1.8,1.1-.6,1.8-1.9,5.1-1.4,4.3-1.1,5.5-.4,2.3h1.9l7.7,18,12.1-.9,4.1.9,5.5,1.9,6.6,2.4,4.6,1.8,7.4,5.3,1.3,1.2,2.2,2.1,2,2.7,1.6,2.5,2.5,5.1.5.9,1.8.8.7.3,4.2-1.2,1.4,1.4.7,2.4,2.9.2.2.7.2.9.2.9v.7c.1,0,.3.6.3.6v.7c.1,0,.3,1.6.3,1.6v.7c.1,0,.2.6.2.6l.4,1.9v.6l.2.6v3.8c.1,0,.1.2.1.2v.4l.2.3.2.3.4.6.2.3v.2l.2.3v.4c.1,0,.4.8.4.8l.6,1.4.2.7v1.2c.1,0,.2,1.3.2,1.3v1.3l-.2,1.5-.4,1.4-.4,1.6-.3,1.1-.3.9-.2.6h.5c0,.1.7.3.7.3l4.4,1.2,5.6,1.5,3.8,1.1,4,1.1,2.5.6,6.7,1.8h.7l8.5,1.3,4.6.6-.2,1.1-2.6,3.8h-1.2c0,.1-3.3.5-3.3.5l-.7,10.5.9-.2,3.7-.6,9.5.2,6.3.5,4.4.3h1.4v.6l.2,1.1.4,1.6.2,1.1.3.7.2.6-2.2,1.9-7.6,5.3-2.5,1.9-3.4,3.4-1.5,1.7-1.3,1.4-1.7,2.1-1.2,1.9-3.4,7.7-.3,1.3-.6,2.9-1.5,6.8-1.6,4.4,1.6.7,3.6.7-.9,1.6-3.7,5.2-8.6,11.8-.7,4.3-.5,2.7,2.4,1.2-2.4,3.4-1.8,2.5,3.1,1.2,1.7-2,3.4,1.1v2.5h1.3l2.4.2.2-7.5,2.5.3,2.6-2.3,2.5-.8,2.4-2.4,1.6-1.3.8-1.4,2.3.4,4.1.5,5.6,2.6,2.4,2.5,1.9,1.3,3.9.6,2-.6,3.2,1.6,3.3,3.1,3.6,2.1.3.4,2.9,4,3.5,1.5,6.8,1.2h1.7v1.7l.4,1.2v3.3l-.4,1.8,1.1,5.2,2.4.5,2.7.6.7-2.1.2-2.8-.2-2.3v-1.4l-1.1-5.3-1.4-1.4-2.2-2.4-.5-1.8h1.8l2.2,1.9,6.3,4.9,1.8,1.5h2.5l3.6,7.9,7.2,8.3,2.6.7,2.2-.9,3.5,2.4,5.4.7,1.2.2,5.6,1.1,1.1.9v1.6l-.3,3.6,2.3.4,1.8.3-1.2,5.3,2.4.4-.4,1.6-.3,1.5-1.8-.3-2.3-.4-2-.4,1.6-6.3-3.2.2-5.5,4.7-.8,5.7-4.3-.2-.3,2.5,2,.3-.5,2.9,2.2.5-.3,2.1-.2,1.7-.7.7h-.4c0-.1-.7-.3-.7-.3l-1.2-.3-3.8,5.6-1.8,2.8.6,1.4-.6.4-.3.2h0v.3h0v.5l-.3.3-.2.3v.3l-.2.4v2.3l.2.2v.3l.4.5.2.5.4.7.3.5.8,1.5.3.5.2.3v.2l.2.2.3.9v.6h.2v.3h.2c0,.1.2.2.2.2h.4c0,.1.6.3.6.3h.3c0,.1.2.2.2.2h0v.2h.2v2.8l.2.2v.2l.3.3.2.3h0l-2.6,2.2-.5,5.6-2.9,2.8-2.3-.4-2.8.9-1.3,1.4-1.3-.5-.8-.4-1.3.8h-1.8l-.7-1.2-3.1,2.1-3.4,3.6-2.6.6v.4l-.3.4-.3.4-.4.4-.4.3-.7.2-.6,2-2.9,2.5-.3-2.6h-.4l-.3.2-.3.4h0v1.9l-.2.4-.3.3-.4.4-.7.5h0c0,.1-.2.2-.2.2l-.6.7-.5.5-.3.5-.5.6-.5.5-.4.6-.4.5-.5.4-.5.3-.4.2h-.3c0-.1-.2-.2-.2-.2h-.1c0-.1-.1-.3-.1-.3l-.3-.5h-.6c0,.1-.8,2.8-.8,2.8h1.1l.3,1.3,1.5-.5,4.3,3.3,3.2-.8-1.5,5.6,2.4-.4h.6l-.3,2.1v1.7l-.9,1.4h0l-.6.7-.3.4-.3.4-.7.9-.4.6-.2.3v.2h-.2c0,.1-.4.7-.4.7l-.5.8-.3.5-.5,1.1-.3.5-.4.6-.2.3h0v.3h0v.2h-.2l-.2.2-.3.2h-.2l-.4.2h-.4c0,.1-.2.2-.2.2h-1.7l-.4-.2h-.2l-.3-.2-.3-.2h-.1c0-.1-.1-.2-.1-.2l-.3-.2-.8-.8-.3-.2h-.1c0-.1-.2-.2-.2-.2l-.3-.2-.3-.2h-.2l-.4-.2h-.6c0-.1-.2-.1-.2-.1h-1.9c0,.1-.2.1-.2.1l-.3.2h-.3c0,.1-.3.3-.3.3h-.2l-.2.2h-.1c0,.1-.3.3-.3.3l-.7.6-.3.2h-.2l-.2.2-.3.2h-.4c0,.1-.7.4-.7.4h-.3c0,.1-.2.2-.2.2h-.2l-.2.2h-.1c0,.1-.1.2-.1.2h-.1c0,.1-.1.2-.1.2l-.2.3h-.1c0,.1-.2.4-.2.4l-.2.3-.7,1.2-.5.8-.5.8-.3.5-.3.5-.3.7-.2.3v.3c-.1,0-.3.5-.3.5v.3c-.1,0-.2.2-.2.2v.5c-.1,0-.2.6-.2.6v.9c-.1,0-.1,1.2-.1,1.2v.8l-.5.2h0l-.6.2-.7.6-.5.6-.4.8v2.1l-.4.7-.5.5-.8.5-.8.6v.6c-.1,0-.5.7-.5.7l-.8.4-.5.4-.2.8v2c-.1,0-.4.8-.4.8v.7c-.1,0-.2.7-.2.7l-.3.6-.6.8-.6.7-.5.7-.4.8-.2.7-.4,1.1-.7,1.4.5,4.4-.8.7-2,.9h-.8l-1.7-.8-.3-.6-.4-.9h-1.6l-.5-.9-.9-1.7-2-2.1-.4-.5-.8-1.8-.5-2.6.3-1.6.9-.2.2-11.5v-.8c.1,0,.3-.8.3-.8l.2-.8h0c0-.1-.1-1.5-.1-1.5l.2-.9.5-1.4.8-1.4.7-1.1.8-.8.4-.3,1.6-1.3,1.3-.8.7-1.2.2-1.1v-2.6c-.1,0-.3-.9-.3-.9v-1.1l-2.6-.5h-.7c0-.1-.9-.6-.9-.6l.4-5.3.9-3.6-1.4.2-7.1,1.3-1.4-2.4-3.2-5.2-14.1,7.5-1.2.6-2.5,1.4v-1.3l-1.2-2.5.5-2.6-.6-1.1-.8-1.4-.8-1.1-.3-.7-.4-.7-.6-.8-1.1-1.2-1.2-1.1-.6-.4-1.1-.3-.7-.2-.6-.4-.5-.6-.4-1.1-.2-.8-.5-2.3v-3.7l-.3-.8-.2-.3-.3-.4-.2-.7-4.4,2.4-14.2,4.2-4.9,1.5-5.2-.3h-3.6l-8.4-.4-7.6-.3-.7-3.3.2-2.9.6-2.5,1.5-5.1.7-2.4-6.1,2.8-2.4.3-2.6-1.5-3.1-2.8h-5.4l-2.6.6-9.6,2.2-2.7.5-2.8.5-3.8.9-2.5.6-2.8.7-2.8,1.2-.6-3.5-.4-2.1-.2-1.3-.4-1.6-.3-1.4-2.8-7.9-4.9-14.8-5.1-1.7-4,1.4-3.9,1.8-2.7,1.3-2.2,1.1-7.1,3.1-2.4,1.1-3.6,1.6-3.1.8-5.8,2.1-1.2.4-.9.3-.3,3.8,4.5,16.8,3.2,11.4v1.4c-.1,0-2.6,6.1-2.6,6.1l-2.9,7.2h-2.6c0-.1-8.5-.8-8.5-.8l-4.8-.4h-.7l-2.9-.4-1.9-.2h-.9l-2.4-.3-2.5-.2-.4-5.9-.4-6-.2-2.8-4.1.3h-3.1c0,.1-1.2.2-1.2.2l-5.9-.3,1.4-7.5-5.3-3.1-5.7-3.4-5.6-4.8-8.1-7.9v-3.6c.1,0,.2-1.9.2-1.9l-5.8,3.6-4.6,2.9-3.2,2-12.8,8.1h0l-5.2-7.9-6.2-9.4-1.4-2.6v-2.5l-.5-.8-.4.3-1.8,1.5-1.1.9-1.2,1.1-1.2,1.1-1.2,1.1-.7.6-.8.8-.8.8-2.2,2.2-.5.5-.9.9-1.4,1.4-.5.5-.3.3-.2.2-.4.3-.4.3-.3.2-.5.3-.5.2-.5.2-.6.2-.6.2-.6.2h-.8c0,.1-.4.1-.4.1h-3.2l-1.1-.2-.8-.3-1.1-.4-.9-.5-.9-.5-.6-.3-.5-.2-.5-.2h-.5l-1.1-.2h-2.5c0,.1-.5.3-.5.3l-.8.3-.7.4-2.1,1.2-.7-9.7-.8-4.8-.4-2.4-1.4-5.1-6,.2-11.3.7-2.6-.3-3.5,1.6-.6.3-4.3,2-6,2.3-5.7.4-2.4.6-30.6,16.9v4.4l-1.3,4.6h.6l1.4-.2,2.3-.4,2.4-.4,2.5-.4,1.1-.3.6-.2h.3v2.6l-2.1,1.3-2.5.8-2.2.2-3.7.3-4.8-1.3-6.1-.8-2-1.1v-.5h-.8l-.8.7-7.9,9.2,1.6,1.1-.5,2.3-2.2-.4-2.4-2.1-.8-.7.3-3.2,3.1.2h1.2l4.8-5.5v-1.2l-1.5-.6-1.4-.7,1.3-1.9-1.4-.6-.9-.4-.5.6-.6.7-.6.5-1.1.7-1.6.9-.7.4h-1.1c0-.1-.8-.4-.8-.4l-3.3-3.3-2-2.6-.4-.8-.5-.5-.6-.3-.8-.3-2.8-1.8-.5-.4-.3-.5-.3-.8-.2-.7-.6-.7-1.3-1.4,1.1-1.8-1.5-1.3,3.9-.7-.8-4.3-1.6.2-3.3.5-.2,1.6-2.1,1.7-2-1.2v-2h-3.1l.3,1.9.7.9-1.1,1.4-1.6-.8-.9-.6-.9-.6-1.3-.9-.5-.2-.4-.2-.2-.4v-.4c-.1,0-.2-.4-.2-.4v-1.3l-1.5-8.2,6.1-3.1.4-.4,1.2-1.5.4-1.1.2-.8.4-.6.7-.4h.7l.5.3.6.4,2.3.9.7-1.7,1.2-.5.8-1.5,3.9-3.5v-.9l-.5-2.4v-1.1l1.4-.8.3-.5.8-1.4.3-.5.2-.3.2-.3.3-.4.2-.3.4-.5.6-.5.9-.6,1.7-.8.6-.5.4-.6.4-.6.3-.9-3.1-3.1-.4-1.9v-1.5l-3.2-2.4-1.4-1.9-3.8-4.9,1.9-3.8.3-1.1.5-7.1-1.5-1.8v-2c.1,0,.4-1.5.4-1.5v-.8l-.5-2v-1.3l.3-.6.4-.7.6-.6.7-.5.5-.5.2-.7v-.7l.2-.8.4-.7,1.3-1.7.4-.9.5-2.2v-4.5l.2-2.4,2.6-.5,2.6-.5,1.1-.6.9-1.2,2.8-3.7,10.4-13.4,4.9-6.3,4.8-5.4,5.4-5.7,5.5-5.9-8.3-5.2-1.8-1.2-5.9-3.6-1.8-.5-.7-1.9-1.3-.9-1.2.2-2.9.6-9.6,2-8,.7.9-6.9.2-4.1v-3.1l.3-2.6.5-2.7,3.7-11.2.9-6.6,2.2-8.4,2.4-9,2.4,3.7,2.3,1.4,4.3.4,2,.5,1.6-1.2,1.3-2.5-.2-2.7-.4-2.8-.3-1.9.6-2.7.9-4.2,1.2-2.2.7-1.3,2.4-7.2v-7.7l-2.8-6.9-8.3,3.8-6.5,1.3-1.4-4.7h-2l.7-6h.8c0,.1,2,0,2,0h1.7c0-.1.4-.1.4-.1l.6-.2h.4l.4-.2.6-.2.6-.2.7-.3,1.3-.6.7-.3.7-.4,2.9-1.6.9-.4,1.1-.5.7-.4,4.2-6.1,2.7-2.5,6.1-1.8,1.4,1.2,2.4,1.4,4.2,2.4,4.2.9,4.3,1.5,3.5,2.6,3.5,2.3,6.5,1.5,2,1.2.9.5,2.8,1.3.6-2.4,5.6.9,2.8.4,1.4-4.6-.2-1.8-.7-1.7-1.5-1.7-3.1-2.5-1.3-1.2-2-2.1-1.6-2.2h0c0-.1-3.1-4.2-3.1-4.2l-1.1-1.8-.3-1.1v-1.6l.2-.9.6-.5.8-.5,1.1-.5.8-.5.7-.7.5-1.1,6.5-13.6,1.6-.8,2.3-6,.7-3.8v-1.5l6,.6,2.3.5,5.7-.5h1.1l4.4-.5,2.4,1.2,4.9-.5,4.2-.2h2.6l3.3,1.2.3-3.7.3-4.1.2-2.6-.8-3.4-1.3-2.3v-.9c-.1,0-.5-2.2-.5-2.2l3.8.9,1.4.3,11.9-2,.8-15.8h-1.7l.3-3.4.3-2.6.5-5.3,2.5.8,7.4,1.5,10.9-.2.5.7.5.6.5.6.5.7-8.2,5.5,3.5,6.7,3.2,6.5h.7v1.2c.1,0,.1.4.1.4l-.3,2-1.1,1.6-.5.7.7,2.9-4,1.4,1.5,3.1,2.2,2.5.7,4.2-5.1,1.3v1.7l9-1.2,8.7,2.7,2.6.8,1.9.5,2.4,1.4,4,2.4.8-.3.9-.3.7-.2h.9l1.3-.2h1.8l.3-1.9h5.3l1.3,1.9.7-.3.7-.3.4-.2h1.9l.5.4h.2l.2.2h1.3l.3-.3.3-.2.8-.6.3-.2.3-.2h.2l.3-.2.5-.2,1.3-.4.5-.2.7-.3.5-.2.5-.2.5-.3.5-.3.3-.2.3-.2.9-.7.3-.2h.2l.2-.2.3-.2.9-.4.4-.2.3-.2h.1v-.2h.2v-.2h.3v-.3c.1,0,.1-.2.1-.2.1,0,.2-.2.2-.2v-.2c.1,0,.2-.2.2-.2v-1.3c-.1,0-.4-.6-.4-.6v-.4c-.1,0-.1-.2-.1-.2v-.6h0v-.3h.1l.2-.4.2-.3.7-.7.3-.3,1.4-1.4,1.5-1.4.9-.6.9-.8.9-.7.6-.2h.9l.9-.3.9-.5,1.2-.8.6-.8.4-.9.2-1.1v-1.1l-.2-1.2v-.5c.1,0,.4-.6.4-.6l.4-.5.6-.8.5-.7v-.8c.1,0,.3-.9.3-.9l.4-.8.4-.7,1.1-1.4,1.4-1.5.3-.2h1.5l7.2,8.1,4.9-1.6.6,1.5,2.9,3.9,6.1,5.7,2-1.7,1.4-1.2,3.7.2.9-.6v-1.6l-.3-3.5.5-3.8,2.8-.8,2-.6.8-5.3,4.9-1.4h6.5l-.5,2.1,4.9.7.8-.7.8-.5.7-.9.9-.8,1.2-.8.9-.5,1.7-.6,1.4-.5.9-.8,1.4-1.3.6-.6.3-.6.2-.9v-.9c-.1,0-.2-.7-.2-.7v-.4l-2.3-.3-7.4-.9-2-1.8-1.7-1.6-2.4-2.2-3.6-1.8,1.4-1.6,6-7.1,5.5,2.5,4.9-6.6,3.1-4.2,1.6,1.1,1.3,1.1"/>
      <rect class="cls-1" x="-137.4" y="108.7" width="626.9" height="390.5"/>
      <path id="mdd07ca132b" class="cls-5" d="M374.8,262.2c2,0,3.9-.8,5.3-2.3s2.3-3.3,2.3-5.3-.8-3.9-2.3-5.3c-1.5-1.4-3.3-2.3-5.3-2.3s-3.9.8-5.3,2.3-2.3,3.3-2.3,5.3.8,3.9,2.3,5.3,3.3,2.3,5.3,2.3Z"/>
      <path id="mdd07ca132b-2" class="cls-7" d="M269,250.7c2,0,3.9-.8,5.3-2.3s2.3-3.3,2.3-5.3-.8-3.9-2.3-5.3-3.3-2.3-5.3-2.3-3.9.8-5.3,2.3-2.3,3.3-2.3,5.3.8,3.9,2.3,5.3,3.3,2.3,5.3,2.3Z"/>
      <path id="mdd07ca132b-3" class="cls-5" d="M228.3,301.2c2,0,3.9-.8,5.3-2.3s2.3-3.3,2.3-5.3-.8-3.9-2.3-5.3-3.3-2.3-5.3-2.3-3.9.8-5.3,2.3c-1.4,1.5-2.3,3.3-2.3,5.3s.8,3.9,2.3,5.3,3.3,2.3,5.3,2.3Z"/>
      <path id="mdd07ca132b-4" class="cls-7" d="M287.6,242.8c2,0,3.9-.8,5.3-2.3s2.3-3.3,2.3-5.3-.8-3.9-2.3-5.3-3.3-2.3-5.3-2.3-3.9.8-5.3,2.3-2.3,3.3-2.3,5.3.8,3.9,2.3,5.3,3.3,2.3,5.3,2.3Z"/>
      <path id="mdd07ca132b-5" class="cls-5" d="M232.4,225.9c2,0,3.9-.8,5.3-2.3s2.3-3.3,2.3-5.3-.8-3.9-2.3-5.3-3.3-2.3-5.3-2.3-3.9.8-5.3,2.3-2.3,3.3-2.3,5.3.8,3.9,2.3,5.3,3.3,2.3,5.3,2.3Z"/>
      <rect class="cls-1" x="-137.4" y="108.7" width="626.9" height="390.5"/>
      <path id="m9d1b61a0b5" class="cls-5" d="M259.6,283.6c2,0,3.9-.8,5.3-2.3s2.3-3.3,2.3-5.3-.8-3.9-2.3-5.3-3.3-2.3-5.3-2.3-3.9.8-5.3,2.3-2.3,3.3-2.3,5.3.8,3.9,2.3,5.3,3.3,2.3,5.3,2.3Z"/>
      <path id="m9d1b61a0b5-2" class="cls-5" d="M237.3,305.2c2,0,3.9-.8,5.3-2.3s2.3-3.3,2.3-5.3-.8-3.9-2.3-5.3-3.3-2.3-5.3-2.3-3.9.8-5.3,2.3c-1.4,1.5-2.3,3.3-2.3,5.3s.8,3.9,2.3,5.3,3.3,2.3,5.3,2.3Z"/>
      <path id="m9d1b61a0b5-3" class="cls-6" d="M268.2,252.8c2,0,3.9-.8,5.3-2.3s2.3-3.3,2.3-5.3-.8-3.9-2.3-5.3c-1.5-1.4-3.3-2.3-5.3-2.3s-3.9.8-5.3,2.3-2.3,3.3-2.3,5.3.8,3.9,2.3,5.3,3.3,2.3,5.3,2.3Z"/>
      <path id="m9d1b61a0b5-4" class="cls-5" d="M209.2,286.1c2,0,3.9-.8,5.3-2.3s2.3-3.3,2.3-5.3-.8-3.9-2.3-5.3-3.3-2.3-5.3-2.3-3.9.8-5.3,2.3-2.3,3.3-2.3,5.3.8,3.9,2.3,5.3,3.3,2.3,5.3,2.3Z"/>
      <path id="m9d1b61a0b5-5" class="cls-6" d="M246.2,277.2c2,0,3.9-.8,5.3-2.3s2.3-3.3,2.3-5.3-.8-3.9-2.3-5.3-3.3-2.3-5.3-2.3-3.9.8-5.3,2.3-2.3,3.3-2.3,5.3.8,3.9,2.3,5.3,3.3,2.3,5.3,2.3Z"/>
      <rect class="cls-1" x="-137.4" y="108.7" width="626.9" height="390.5"/>
      <path id="m1052daa0f2" class="cls-5" d="M248.4,230.5c2,0,3.9-.8,5.3-2.3s2.3-3.3,2.3-5.3-.8-3.9-2.3-5.3-3.3-2.3-5.3-2.3-3.9.8-5.3,2.3-2.3,3.3-2.3,5.3.8,3.9,2.3,5.3,3.3,2.3,5.3,2.3Z"/>
      <rect class="cls-1" x="-137.4" y="108.7" width="626.9" height="390.5"/>
      <path id="m0b7424c2ed" class="cls-4" d="M256.6,248.3c2,0,3.9-.8,5.3-2.3s2.3-3.3,2.3-5.3-.8-3.9-2.3-5.3-3.3-2.3-5.3-2.3-3.9.8-5.3,2.3-2.3,3.3-2.3,5.3.8,3.9,2.3,5.3,3.3,2.3,5.3,2.3Z"/>
      <path id="m0b7424c2ed-2" class="cls-4" d="M208.9,252.9c2,0,3.9-.8,5.3-2.3s2.3-3.3,2.3-5.3-.8-3.9-2.3-5.3-3.3-2.3-5.3-2.3-3.9.8-5.3,2.3-2.3,3.3-2.3,5.3.8,3.9,2.3,5.3,3.3,2.3,5.3,2.3Z"/>
      <path id="m0b7424c2ed-4" class="cls-5" d="M260.1,263.5c2,0,3.9-.8,5.3-2.3s2.3-3.3,2.3-5.3-.8-3.9-2.3-5.3-3.3-2.3-5.3-2.3-3.9.8-5.3,2.3-2.3,3.3-2.3,5.3.8,3.9,2.3,5.3c1.5,1.4,3.3,2.3,5.3,2.3Z"/>
      <rect class="cls-1" x="-137.4" y="108.7" width="626.9" height="390.5"/>
      <path id="m0eeeca11c1" class="cls-5" d="M285,240.5c2,0,3.9-.8,5.3-2.3s2.3-3.3,2.3-5.3-.8-3.9-2.3-5.3-3.3-2.3-5.3-2.3-3.9.8-5.3,2.3-2.3,3.3-2.3,5.3.8,3.9,2.3,5.3,3.3,2.3,5.3,2.3Z"/>
      <path id="m0eeeca11c1-3" class="cls-5" d="M272.3,235.9c2,0,3.9-.8,5.3-2.3s2.3-3.3,2.3-5.3-.8-3.9-2.3-5.3-3.3-2.3-5.3-2.3-3.9.8-5.3,2.3-2.3,3.3-2.3,5.3.8,3.9,2.3,5.3,3.3,2.3,5.3,2.3Z"/>
      <path id="m0eeeca11c1-5" class="cls-5" d="M269.4,256.4c2,0,3.9-.8,5.3-2.3s2.3-3.3,2.3-5.3-.8-3.9-2.3-5.3-3.3-2.3-5.3-2.3-3.9.8-5.3,2.3-2.3,3.3-2.3,5.3.8,3.9,2.3,5.3,3.3,2.3,5.3,2.3Z"/>
      <path id="m0eeeca11c1-7" class="cls-5" d="M208.8,256.4c2,0,3.9-.8,5.3-2.3s2.3-3.3,2.3-5.3-.8-3.9-2.3-5.3-3.3-2.3-5.3-2.3-3.9.8-5.3,2.3-2.3,3.3-2.3,5.3.8,3.9,2.3,5.3,3.3,2.3,5.3,2.3Z"/>
      <path id="m0eeeca11c1-9" class="cls-5" d="M264.1,305.6c2,0,3.9-.8,5.3-2.3s2.3-3.3,2.3-5.3-.8-3.9-2.3-5.3-3.3-2.3-5.3-2.3-3.9.8-5.3,2.3-2.3,3.3-2.3,5.3.8,3.9,2.3,5.3,3.3,2.3,5.3,2.3Z"/>
      <path id="m0eeeca11c1-10" class="cls-5" d="M287.1,245.4c2,0,3.9-.8,5.3-2.3s2.3-3.3,2.3-5.3-.8-3.9-2.3-5.3-3.3-2.3-5.3-2.3-3.9.8-5.3,2.3-2.3,3.3-2.3,5.3.8,3.9,2.3,5.3,3.3,2.3,5.3,2.3Z"/>
      <path id="m0eeeca11c1-11" class="cls-5" d="M274.1,259.9c2,0,3.9-.8,5.3-2.3s2.3-3.3,2.3-5.3-.8-3.9-2.3-5.3-3.3-2.3-5.3-2.3-3.9.8-5.3,2.3-2.3,3.3-2.3,5.3.8,3.9,2.3,5.3,3.3,2.3,5.3,2.3Z"/>
      <path id="m0eeeca11c1-13" class="cls-5" d="M260.9,278.6c2,0,3.9-.8,5.3-2.3s2.3-3.3,2.3-5.3-.8-3.9-2.3-5.3-3.3-2.3-5.3-2.3-3.9.8-5.3,2.3-2.3,3.3-2.3,5.3.8,3.9,2.3,5.3c1.5,1.4,3.3,2.3,5.3,2.3Z"/>
      <path id="m0eeeca11c1-19" class="cls-5" d="M260,271.9c2,0,3.9-.8,5.3-2.3s2.3-3.3,2.3-5.3-.8-3.9-2.3-5.3-3.3-2.3-5.3-2.3-3.9.8-5.3,2.3-2.3,3.3-2.3,5.3.8,3.9,2.3,5.3c1.5,1.4,3.3,2.3,5.3,2.3Z"/>
      <path id="m0eeeca11c1-21" class="cls-5" d="M148.9,388.1c2,0,3.9-.8,5.3-2.3s2.3-3.3,2.3-5.3-.8-3.9-2.3-5.3-3.3-2.3-5.3-2.3-3.9.8-5.3,2.3-2.3,3.3-2.3,5.3.8,3.9,2.3,5.3,3.3,2.3,5.3,2.3Z"/>
      <path id="m0eeeca11c1-22" class="cls-5" d="M257.6,280.7c2,0,3.9-.8,5.3-2.3s2.3-3.3,2.3-5.3-.8-3.9-2.3-5.3-3.3-2.3-5.3-2.3-3.9.8-5.3,2.3c-1.4,1.5-2.3,3.3-2.3,5.3s.8,3.9,2.3,5.3,3.3,2.3,5.3,2.3Z"/>
      <path id="m0eeeca11c1-26" class="cls-5" d="M271.1,220.3c2,0,3.9-.8,5.3-2.3s2.3-3.3,2.3-5.3-.8-3.9-2.3-5.3-3.3-2.3-5.3-2.3-3.9.8-5.3,2.3-2.3,3.3-2.3,5.3.8,3.9,2.3,5.3,3.3,2.3,5.3,2.3Z"/>
      <path id="m0eeeca11c1-27" class="cls-5" d="M269.6,250.3c2,0,3.9-.8,5.3-2.3s2.3-3.3,2.3-5.3-.8-3.9-2.3-5.3-3.3-2.3-5.3-2.3-3.9.8-5.3,2.3-2.3,3.3-2.3,5.3.8,3.9,2.3,5.3,3.3,2.3,5.3,2.3Z"/>
      <path id="m0eeeca11c1-31" class="cls-5" d="M240.6,230.3c2,0,3.9-.8,5.3-2.3s2.3-3.3,2.3-5.3-.8-3.9-2.3-5.3-3.3-2.3-5.3-2.3-3.9.8-5.3,2.3-2.3,3.3-2.3,5.3.8,3.9,2.3,5.3,3.3,2.3,5.3,2.3Z"/>
      <path id="m0eeeca11c1-32" class="cls-5" d="M269.9,252.6c2,0,3.9-.8,5.3-2.3s2.3-3.3,2.3-5.3-.8-3.9-2.3-5.3-3.3-2.3-5.3-2.3-3.9.8-5.3,2.3-2.3,3.3-2.3,5.3.8,3.9,2.3,5.3,3.3,2.3,5.3,2.3Z"/>
      <path id="m0eeeca11c1-33" class="cls-5" d="M274.1,254.2c2,0,3.9-.8,5.3-2.3s2.3-3.3,2.3-5.3-.8-3.9-2.3-5.3-3.3-2.3-5.3-2.3-3.9.8-5.3,2.3-2.3,3.3-2.3,5.3.8,3.9,2.3,5.3,3.3,2.3,5.3,2.3Z"/>
      <path id="m0eeeca11c1-34" class="cls-5" d="M255,261.8c2,0,3.9-.8,5.3-2.3s2.3-3.3,2.3-5.3-.8-3.9-2.3-5.3-3.3-2.3-5.3-2.3-3.9.8-5.3,2.3-2.3,3.3-2.3,5.3.8,3.9,2.3,5.3,3.3,2.3,5.3,2.3h0Z"/>
      <path id="m0eeeca11c1-37" class="cls-5" d="M265.5,251.1c2,0,3.9-.8,5.3-2.3s2.3-3.3,2.3-5.3-.8-3.9-2.3-5.3-3.3-2.3-5.3-2.3-3.9.8-5.3,2.3-2.3,3.3-2.3,5.3.8,3.9,2.3,5.3,3.3,2.3,5.3,2.3Z"/>
      <path id="m0eeeca11c1-38" class="cls-5" d="M262.7,247.6c2,0,3.9-.8,5.3-2.3s2.3-3.3,2.3-5.3-.8-3.9-2.3-5.3-3.3-2.3-5.3-2.3-3.9.8-5.3,2.3-2.3,3.3-2.3,5.3.8,3.9,2.3,5.3c1.5,1.4,3.3,2.3,5.3,2.3Z"/>
      <path id="m0eeeca11c1-40" class="cls-5" d="M272.4,243.3c2,0,3.9-.8,5.3-2.3s2.3-3.3,2.3-5.3-.8-3.9-2.3-5.3-3.3-2.3-5.3-2.3-3.9.8-5.3,2.3-2.3,3.3-2.3,5.3.8,3.9,2.3,5.3,3.3,2.3,5.3,2.3Z"/>
      <path id="m0eeeca11c1-41" class="cls-5" d="M257.5,255.2c2,0,3.9-.8,5.3-2.3s2.3-3.3,2.3-5.3-.8-3.9-2.3-5.3-3.3-2.3-5.3-2.3-3.9.8-5.3,2.3-2.3,3.3-2.3,5.3.8,3.9,2.3,5.3,3.3,2.3,5.3,2.3Z"/>
      <path id="m0eeeca11c1-45" class="cls-5" d="M276.2,252.1c2,0,3.9-.8,5.3-2.3s2.3-3.3,2.3-5.3-.8-3.9-2.3-5.3-3.3-2.3-5.3-2.3-3.9.8-5.3,2.3-2.3,3.3-2.3,5.3.8,3.9,2.3,5.3,3.3,2.3,5.3,2.3Z"/>
      <path id="m0eeeca11c1-46" class="cls-5" d="M273.3,257.6c2,0,3.9-.8,5.3-2.3s2.3-3.3,2.3-5.3-.8-3.9-2.3-5.3-3.3-2.3-5.3-2.3-3.9.8-5.3,2.3-2.3,3.3-2.3,5.3.8,3.9,2.3,5.3,3.3,2.3,5.3,2.3Z"/>
      <path id="m0eeeca11c1-47" class="cls-5" d="M251.1,245.4c2,0,3.9-.8,5.3-2.3s2.3-3.3,2.3-5.3-.8-3.9-2.3-5.3-3.3-2.3-5.3-2.3-3.9.8-5.3,2.3-2.3,3.3-2.3,5.3.8,3.9,2.3,5.3,3.3,2.3,5.3,2.3h0Z"/>
      <path id="m0eeeca11c1-49" class="cls-5" d="M267.7,194.8c2,0,3.9-.8,5.3-2.3s2.3-3.3,2.3-5.3-.8-3.9-2.3-5.3-3.3-2.3-5.3-2.3-3.9.8-5.3,2.3-2.3,3.3-2.3,5.3.8,3.9,2.3,5.3,3.3,2.3,5.3,2.3Z"/>
      <path id="m0eeeca11c1-50" class="cls-5" d="M265.5,251.1c2,0,3.9-.8,5.3-2.3s2.3-3.3,2.3-5.3-.8-3.9-2.3-5.3-3.3-2.3-5.3-2.3-3.9.8-5.3,2.3-2.3,3.3-2.3,5.3.8,3.9,2.3,5.3,3.3,2.3,5.3,2.3Z"/>
      <path id="m0eeeca11c1-51" class="cls-5" d="M270.7,253c2,0,3.9-.8,5.3-2.3s2.3-3.3,2.3-5.3-.8-3.9-2.3-5.3-3.3-2.3-5.3-2.3-3.9.8-5.3,2.3-2.3,3.3-2.3,5.3.8,3.9,2.3,5.3c1.5,1.4,3.3,2.3,5.3,2.3Z"/>
      <rect class="cls-1" x="-137.4" y="108.7" width="626.9" height="390.5"/>
      <path id="m52668eff80-2" class="cls-5" d="M254,248.9c2,0,3.9-.8,5.3-2.3s2.3-3.3,2.3-5.3-.8-3.9-2.3-5.3-3.3-2.3-5.3-2.3-3.9.8-5.3,2.3-2.3,3.3-2.3,5.3.8,3.9,2.3,5.3,3.3,2.3,5.3,2.3h0Z"/>
      <path id="m52668eff80-3" class="cls-5" d="M269.2,249.7c2,0,3.9-.8,5.3-2.3s2.3-3.3,2.3-5.3-.8-3.9-2.3-5.3-3.3-2.3-5.3-2.3-3.9.8-5.3,2.3-2.3,3.3-2.3,5.3.8,3.9,2.3,5.3,3.3,2.3,5.3,2.3Z"/>
      <path id="m52668eff80-4" class="cls-5" d="M276.8,249.8c2,0,3.9-.8,5.3-2.3s2.3-3.3,2.3-5.3-.8-3.9-2.3-5.3-3.3-2.3-5.3-2.3-3.9.8-5.3,2.3-2.3,3.3-2.3,5.3.8,3.9,2.3,5.3,3.3,2.3,5.3,2.3Z"/>
      <path id="m52668eff80-5" class="cls-5" d="M246.4,279.7c2,0,3.9-.8,5.3-2.3s2.3-3.3,2.3-5.3-.8-3.9-2.3-5.3-3.3-2.3-5.3-2.3-3.9.8-5.3,2.3-2.3,3.3-2.3,5.3.8,3.9,2.3,5.3,3.3,2.3,5.3,2.3Z"/>
      <path id="m52668eff80-6" class="cls-5" d="M271.2,257.4c2,0,3.9-.8,5.3-2.3s2.3-3.3,2.3-5.3-.8-3.9-2.3-5.3c-1.5-1.4-3.3-2.3-5.3-2.3s-3.9.8-5.3,2.3-2.3,3.3-2.3,5.3.8,3.9,2.3,5.3,3.3,2.3,5.3,2.3Z"/>
      <path id="m52668eff80-8" class="cls-5" d="M280.4,249.8c2,0,3.9-.8,5.3-2.3s2.3-3.3,2.3-5.3-.8-3.9-2.3-5.3-3.3-2.3-5.3-2.3-3.9.8-5.3,2.3-2.3,3.3-2.3,5.3.8,3.9,2.3,5.3,3.3,2.3,5.3,2.3Z"/>
      <path id="m52668eff80-9" class="cls-5" d="M266.2,253.4c2,0,3.9-.8,5.3-2.3s2.3-3.3,2.3-5.3-.8-3.9-2.3-5.3-3.3-2.3-5.3-2.3-3.9.8-5.3,2.3-2.3,3.3-2.3,5.3.8,3.9,2.3,5.3,3.3,2.3,5.3,2.3Z"/>
      <rect class="cls-1" x="-137.4" y="108.7" width="626.9" height="390.5"/>
      <path id="m60687d4f03" class="cls-9" d="M248.9,266.1c1.2,0,2.4-.5,3.3-1.4s1.4-2.1,1.4-3.3-.5-2.4-1.4-3.3-2.1-1.4-3.3-1.4-2.4.5-3.3,1.4-1.4,2.1-1.4,3.3.5,2.4,1.4,3.3,2.1,1.4,3.3,1.4Z"/>
      <path id="m60687d4f03-2" class="cls-9" d="M275.6,259.7c1.2,0,2.4-.5,3.3-1.4s1.4-2.1,1.4-3.3-.5-2.4-1.4-3.3c-.9-.9-2.1-1.4-3.3-1.4s-2.4.5-3.3,1.4-1.4,2.1-1.4,3.3.5,2.4,1.4,3.3,2.1,1.4,3.3,1.4Z"/>
      <path id="m60687d4f03-3" class="cls-9" d="M259.5,278.4c1.2,0,2.4-.5,3.3-1.4s1.4-2.1,1.4-3.3-.5-2.4-1.4-3.3-2.1-1.4-3.3-1.4-2.4.5-3.3,1.4-1.4,2.1-1.4,3.3.5,2.4,1.4,3.3,2.1,1.4,3.3,1.4Z"/>
      <path id="mdd07ca132b-6" class="cls-7" d="M283.8,290.4c2,0,3.9-.8,5.3-2.3s2.3-3.3,2.3-5.3-.8-3.9-2.3-5.3-3.3-2.3-5.3-2.3-3.9.8-5.3,2.3-2.3,3.3-2.3,5.3.8,3.9,2.3,5.3,3.3,2.3,5.3,2.3Z"/>
      <path id="m1052daa0f2-2" class="cls-3" d="M296.3,305.1c2,0,3.9-.8,5.3-2.3s2.3-3.3,2.3-5.3-.8-3.9-2.3-5.3-3.3-2.3-5.3-2.3-3.9.8-5.3,2.3-2.3,3.3-2.3,5.3.8,3.9,2.3,5.3,3.3,2.3,5.3,2.3Z"/>
      <path id="m1052daa0f2-3" class="cls-5" d="M282.3,290c2,0,3.9-.8,5.3-2.3s2.3-3.3,2.3-5.3-.8-3.9-2.3-5.3-3.3-2.3-5.3-2.3-3.9.8-5.3,2.3-2.3,3.3-2.3,5.3.8,3.9,2.3,5.3,3.3,2.3,5.3,2.3Z"/>
      <path id="m0b7424c2ed-3" class="cls-5" d="M300.2,300.5c2,0,3.9-.8,5.3-2.3s2.3-3.3,2.3-5.3-.8-3.9-2.3-5.3-3.3-2.3-5.3-2.3-3.9.8-5.3,2.3-2.3,3.3-2.3,5.3.8,3.9,2.3,5.3,3.3,2.3,5.3,2.3Z"/>
      <path id="m0eeeca11c1-2" class="cls-5" d="M284.9,285.6c2,0,3.9-.8,5.3-2.3s2.3-3.3,2.3-5.3-.8-3.9-2.3-5.3-3.3-2.3-5.3-2.3-3.9.8-5.3,2.3-2.3,3.3-2.3,5.3.8,3.9,2.3,5.3,3.3,2.3,5.3,2.3Z"/>
      <path id="m0eeeca11c1-4" class="cls-5" d="M286.4,296.8c2,0,3.9-.8,5.3-2.3s2.3-3.3,2.3-5.3-.8-3.9-2.3-5.3-3.3-2.3-5.3-2.3-3.9.8-5.3,2.3-2.3,3.3-2.3,5.3.8,3.9,2.3,5.3,3.3,2.3,5.3,2.3Z"/>
      <path id="m0eeeca11c1-6" class="cls-5" d="M292.7,310.1c2,0,3.9-.8,5.3-2.3s2.3-3.3,2.3-5.3-.8-3.9-2.3-5.3-3.3-2.3-5.3-2.3-3.9.8-5.3,2.3-2.3,3.3-2.3,5.3.8,3.9,2.3,5.3,3.3,2.3,5.3,2.3Z"/>
      <path id="m0eeeca11c1-8" class="cls-5" d="M317,277.5c2,0,3.9-.8,5.3-2.3s2.3-3.3,2.3-5.3-.8-3.9-2.3-5.3-3.3-2.3-5.3-2.3-3.9.8-5.3,2.3-2.3,3.3-2.3,5.3.8,3.9,2.3,5.3,3.3,2.3,5.3,2.3Z"/>
      <path id="m0eeeca11c1-12" class="cls-5" d="M285.5,289.8c2,0,3.9-.8,5.3-2.3s2.3-3.3,2.3-5.3-.8-3.9-2.3-5.3-3.3-2.3-5.3-2.3-3.9.8-5.3,2.3-2.3,3.3-2.3,5.3.8,3.9,2.3,5.3,3.3,2.3,5.3,2.3Z"/>
      <path id="m0eeeca11c1-14" class="cls-5" d="M269.3,304.7c2,0,3.9-.8,5.3-2.3s2.3-3.3,2.3-5.3-.8-3.9-2.3-5.3-3.3-2.3-5.3-2.3-3.9.8-5.3,2.3-2.3,3.3-2.3,5.3.8,3.9,2.3,5.3,3.3,2.3,5.3,2.3Z"/>
      <path id="m0eeeca11c1-15" class="cls-5" d="M287.6,295.1c2,0,3.9-.8,5.3-2.3s2.3-3.3,2.3-5.3-.8-3.9-2.3-5.3-3.3-2.3-5.3-2.3-3.9.8-5.3,2.3-2.3,3.3-2.3,5.3.8,3.9,2.3,5.3,3.3,2.3,5.3,2.3Z"/>
      <path id="m0eeeca11c1-16" class="cls-5" d="M297.2,293.4c2,0,3.9-.8,5.3-2.3s2.3-3.3,2.3-5.3-.8-3.9-2.3-5.3-3.3-2.3-5.3-2.3-3.9.8-5.3,2.3-2.3,3.3-2.3,5.3.8,3.9,2.3,5.3,3.3,2.3,5.3,2.3Z"/>
      <path id="m0eeeca11c1-17" class="cls-5" d="M286,300.8c2,0,3.9-.8,5.3-2.3s2.3-3.3,2.3-5.3-.8-3.9-2.3-5.3-3.3-2.3-5.3-2.3-3.9.8-5.3,2.3-2.3,3.3-2.3,5.3.8,3.9,2.3,5.3,3.3,2.3,5.3,2.3Z"/>
      <path id="m0eeeca11c1-18" class="cls-5" d="M326,284.1c2,0,3.9-.8,5.3-2.3s2.3-3.3,2.3-5.3-.8-3.9-2.3-5.3-3.3-2.3-5.3-2.3-3.9.8-5.3,2.3-2.3,3.3-2.3,5.3.8,3.9,2.3,5.3,3.3,2.3,5.3,2.3Z"/>
      <path id="m0eeeca11c1-20" class="cls-5" d="M279.3,306.1c2,0,3.9-.8,5.3-2.3s2.3-3.3,2.3-5.3-.8-3.9-2.3-5.3-3.3-2.3-5.3-2.3-3.9.8-5.3,2.3-2.3,3.3-2.3,5.3.8,3.9,2.3,5.3,3.3,2.3,5.3,2.3Z"/>
      <path id="m0eeeca11c1-23" class="cls-5" d="M291.8,303.1c2,0,3.9-.8,5.3-2.3s2.3-3.3,2.3-5.3-.8-3.9-2.3-5.3-3.3-2.3-5.3-2.3-3.9.8-5.3,2.3-2.3,3.3-2.3,5.3.8,3.9,2.3,5.3,3.3,2.3,5.3,2.3Z"/>
      <path id="m0eeeca11c1-24" class="cls-5" d="M304.2,292c2,0,3.9-.8,5.3-2.3s2.3-3.3,2.3-5.3-.8-3.9-2.3-5.3-3.3-2.3-5.3-2.3-3.9.8-5.3,2.3-2.3,3.3-2.3,5.3.8,3.9,2.3,5.3,3.3,2.3,5.3,2.3Z"/>
      <path id="m0eeeca11c1-25" class="cls-5" d="M311.2,269.6c2,0,3.9-.8,5.3-2.3s2.3-3.3,2.3-5.3-.8-3.9-2.3-5.3-3.3-2.3-5.3-2.3-3.9.8-5.3,2.3-2.3,3.3-2.3,5.3.8,3.9,2.3,5.3,3.3,2.3,5.3,2.3Z"/>
      <path id="m0eeeca11c1-29" class="cls-5" d="M294.7,288.7c2,0,3.9-.8,5.3-2.3s2.3-3.3,2.3-5.3-.8-3.9-2.3-5.3-3.3-2.3-5.3-2.3-3.9.8-5.3,2.3-2.3,3.3-2.3,5.3.8,3.9,2.3,5.3,3.3,2.3,5.3,2.3Z"/>
      <path id="m0eeeca11c1-30" class="cls-5" d="M271.9,306.7c2,0,3.9-.8,5.3-2.3s2.3-3.3,2.3-5.3-.8-3.9-2.3-5.3-3.3-2.3-5.3-2.3-3.9.8-5.3,2.3-2.3,3.3-2.3,5.3.8,3.9,2.3,5.3,3.3,2.3,5.3,2.3Z"/>
      <path id="m0eeeca11c1-35" class="cls-5" d="M288.8,318.8c2,0,3.9-.8,5.3-2.3s2.3-3.3,2.3-5.3-.8-3.9-2.3-5.3-3.3-2.3-5.3-2.3-3.9.8-5.3,2.3-2.3,3.3-2.3,5.3.8,3.9,2.3,5.3,3.3,2.3,5.3,2.3Z"/>
      <path id="m0eeeca11c1-36" class="cls-5" d="M282.7,300.2c2,0,3.9-.8,5.3-2.3s2.3-3.3,2.3-5.3-.8-3.9-2.3-5.3-3.3-2.3-5.3-2.3-3.9.8-5.3,2.3-2.3,3.3-2.3,5.3.8,3.9,2.3,5.3,3.3,2.3,5.3,2.3Z"/>
      <path id="m0eeeca11c1-39" class="cls-5" d="M296.1,330.9c2,0,3.9-.8,5.3-2.3s2.3-3.3,2.3-5.3-.8-3.9-2.3-5.3-3.3-2.3-5.3-2.3-3.9.8-5.3,2.3-2.3,3.3-2.3,5.3.8,3.9,2.3,5.3,3.3,2.3,5.3,2.3Z"/>
      <path id="m0eeeca11c1-42" class="cls-5" d="M295.3,335.6c2,0,3.9-.8,5.3-2.3s2.3-3.3,2.3-5.3-.8-3.9-2.3-5.3-3.3-2.3-5.3-2.3-3.9.8-5.3,2.3-2.3,3.3-2.3,5.3.8,3.9,2.3,5.3,3.3,2.3,5.3,2.3Z"/>
      <path id="m0eeeca11c1-43" class="cls-5" d="M309.7,303.6c2,0,3.9-.8,5.3-2.3s2.3-3.3,2.3-5.3-.8-3.9-2.3-5.3-3.3-2.3-5.3-2.3-3.9.8-5.3,2.3-2.3,3.3-2.3,5.3.8,3.9,2.3,5.3,3.3,2.3,5.3,2.3Z"/>
      <path id="m0eeeca11c1-44" class="cls-5" d="M305.4,291.6c2,0,3.9-.8,5.3-2.3s2.3-3.3,2.3-5.3-.8-3.9-2.3-5.3-3.3-2.3-5.3-2.3-3.9.8-5.3,2.3-2.3,3.3-2.3,5.3.8,3.9,2.3,5.3,3.3,2.3,5.3,2.3Z"/>
      <path id="m0eeeca11c1-48" class="cls-5" d="M300.5,290.5c2,0,3.9-.8,5.3-2.3s2.3-3.3,2.3-5.3-.8-3.9-2.3-5.3-3.3-2.3-5.3-2.3-3.9.8-5.3,2.3-2.3,3.3-2.3,5.3.8,3.9,2.3,5.3,3.3,2.3,5.3,2.3Z"/>
      <path id="m52668eff80" class="cls-5" d="M291.6,302c2,0,3.9-.8,5.3-2.3s2.3-3.3,2.3-5.3-.8-3.9-2.3-5.3-3.3-2.3-5.3-2.3-3.9.8-5.3,2.3-2.3,3.3-2.3,5.3.8,3.9,2.3,5.3,3.3,2.3,5.3,2.3Z"/>
      <path id="m52668eff80-7" class="cls-5" d="M290.6,300.2c2,0,3.9-.8,5.3-2.3s2.3-3.3,2.3-5.3-.8-3.9-2.3-5.3-3.3-2.3-5.3-2.3-3.9.8-5.3,2.3-2.3,3.3-2.3,5.3.8,3.9,2.3,5.3,3.3,2.3,5.3,2.3Z"/>
      <path id="m0eeeca11c1-28" class="cls-5" d="M259.1,306.1c2,0,3.9-.8,5.3-2.3s2.3-3.3,2.3-5.3-.8-3.9-2.3-5.3-3.3-2.3-5.3-2.3-3.9.8-5.3,2.3-2.3,3.3-2.3,5.3.8,3.9,2.3,5.3,3.3,2.3,5.3,2.3Z"/>
      <line class="cls-2" x1="258.2" y1="275" x2="242.9" y2="310.6"/>
      <line class="cls-2" x1="307.9" y1="238" x2="278.3" y2="256.1"/>
      <line class="cls-2" x1="244.9" y1="261.8" x2="219.8" y2="262.4"/>
      <text class="cls-10" transform="translate(313 242.1)"><tspan x="0" y="0">Berlin TV Tower</tspan></text>
      <text class="cls-10" transform="translate(9.9 273.1)"><tspan x="0" y="0">Brandenburg Gate</tspan></text>
      <text class="cls-10" transform="translate(27.4 328)"><tspan x="0" y="0">Checkpoint Charlie</tspan></text>
    </g>
  </g>
</svg>