<?xml version="1.0" encoding="UTF-8"?>
<svg xmlns="http://www.w3.org/2000/svg" version="1.1" viewBox="0 0 576 576">
  <defs>
    <style>
      .cls-1 {
        fill: none;
      }

      .cls-2 {
        fill: #e78ac3;
      }

      .cls-2, .cls-3, .cls-4, .cls-5, .cls-6, .cls-7, .cls-8, .cls-9 {
        stroke-linejoin: round;
      }

      .cls-2, .cls-3, .cls-5, .cls-6, .cls-7, .cls-9 {
        fill-opacity: .9;
        stroke: #fff;
        stroke-opacity: .9;
        stroke-width: .6px;
      }

      .cls-3 {
        fill: #ffd92f;
      }

      .cls-10 {
        fill: #fff;
      }

      .cls-11 {
        fill: #262626;
      }

      .cls-4 {
        fill-opacity: .4;
        stroke: #ccc;
        stroke-opacity: .4;
        stroke-width: .5px;
      }

      .cls-4, .cls-6 {
        opacity: .2;
      }

      .cls-5 {
        fill: #b3b3b3;
      }

      .cls-7 {
        fill: #fc8d62;
      }

      .cls-8 {
        stroke: #000;
      }

      .cls-9 {
        fill: #66c2a5;
      }
    </style>
  </defs>
  <!-- Generator: Adobe Illustrator 28.7.7, SVG Export Plug-In . SVG Version: 1.2.0 Build 194)  -->
  <g>
    <g id="Layer_1">
      <g id="Layer_1-2" data-name="Layer_1">
        <path class="cls-10" d="M0,576h576V0H0v576Z"/>
        <rect class="cls-1" x="80.6" y="59.3" width="270.7" height="503.8"/>
        <path class="cls-4" d="M-417.8-4l-1.7,17.4,31.2,1,20.9,9.5,10.5-11.5,17.8,5.5L-312.3.7l28.4,6,11.6,25,43.4,14.1,15.3-27,35.6,20.1,25.1,34.2,24.4-9.9,16.3,55.9-.6,12.9,34.3,2,26.3,18.8,4.8,14.9,22.2,6.3-2.3,48.3-8.6,20-55.5-20.8-20.5-3.6-27.4-20.7-48.9-12.2-84.5,10-42.5-7.9-4.9-11.8-46.4-46,.5-14.6-30.2-30.1-30.7-50.7-13.3-36.6,22.8-1.3"/>
        <rect class="cls-1" x="80.6" y="59.3" width="270.7" height="503.8"/>
        <path class="cls-4" d="M117,387.9l-33.6-47.1-47.4-34.6-26.5-28.6-45.8-35.4,8.6-20,2.3-48.3,5.3-21.9,12.2,3.2,14.4-47.4,11.5-5.8,32.3,9.2,4-6.5,38.7,9.3,44.4-3.3,9.3-32,40.1-20.7,1.1,21.7,13,17.1,9.9,34.2-11.6,21.9,9.1,17.9,7.1,50-32.4,11.3,3.2,40.3-26.8,67.8,4.3,18.2-30,8.5-16.8,21.1"/>
        <rect class="cls-1" x="80.6" y="59.3" width="270.7" height="503.8"/>
        <path class="cls-4" d="M232.8,357.1l-19.6-3-29.3,18.1-3.3,55.4,12.3,46-8.1,18.3,23,22.2,13.4-12.8,9.7,27.9-15.1,24.7-39.8,13.9-16.2-1.3h-24.4l-28.9-9.9,1.3-17.7,28.5-18,33.4-10.1-3.4-29.3,8.8-19-21.3-44.4-37-30.1,16.8-21.1,30-8.5-4.3-18.2,26.8-67.8-3.2-40.3,32.4-11.3-7.1-50-9.1-17.9,11.6-21.9-9.9-34.2-13-17.1-1.1-21.7,41.2-2.9,15.6,17.6-6.4,27.4,6.3,16.3-14,36.5-5.1,31.1,2.4,46.7,11.5,23.5-12.6,40.1,16.3,41.6-5.9,24.2-3.5-2.9"/>
        <rect class="cls-1" x="80.6" y="59.3" width="270.7" height="503.8"/>
        <path class="cls-4" d="M332.6,290.6l11.2,45.5-15.6,8-64.7,55.6-27.3-39.8,5.9-24.2-16.3-41.6,12.6-40.1-11.5-23.5-2.4-46.7,5.1-31.1,14-36.5,33.3,1.3,2.4,13.8,28.9-1.6,6.8,30.1-4.8,40.4-11.1,17,5.6,47.6,10.1,27,17.8-1.5"/>
        <rect class="cls-1" x="80.6" y="59.3" width="270.7" height="503.8"/>
        <path class="cls-4" d="M503.2,418l14.4,11.8,14.3,32.1,20.8,21.1,6,18.3-15.2,11.8-17.8,29.4-34.9-16.1-15.3-.6-15-19.5-46.2-33.8-6.2-12.3,41.5-42.1,26.5,4.8,27.2-4.9"/>
        <rect class="cls-1" x="80.6" y="59.3" width="270.7" height="503.8"/>
        <path class="cls-4" d="M370,236.1l10.5,44.3,16,8.6,20.2-13.4,14.9,14.2,2.3,26.1-42.8,21.1-47.4-.8-11.2-45.5-2.9-7.7,17.6-42.7,22.8-4.2"/>
        <rect class="cls-1" x="80.6" y="59.3" width="270.7" height="503.8"/>
        <path class="cls-4" d="M398.3,4l14.7,14.2-12.9,16.8,9.2,29-15.4,11.8-7.8,38.3-21.7,38,16.7,46-10.9,37.9-22.8,4.2-17.6,42.7,2.9,7.7-17.8,1.5-10.1-27-5.6-47.6,11.1-17,4.8-40.4-6.8-30.1-28.9,1.6-2.4-13.8-33.3-1.3-6.3-16.3,6.4-27.4-15.6-17.6,8.3-45,18.9-18.9,39-1.8,9.7-16.3h14.1l49.4,37.5,30.8-6.6"/>
        <rect class="cls-1" x="80.6" y="59.3" width="270.7" height="503.8"/>
        <path class="cls-4" d="M434,315.9l-2.3-26.1-14.9-14.2-20.2,13.4-16-8.6-10.5-44.3,10.9-37.9-16.7-46,21.7-38,7.8-38.3,15.4-11.8-9.2-29,12.9-16.8-14.7-14.2,17.3-12.6,23.2,11.7,18.8,19.3,42.4,23.6,18.4,19.2,51.7,67,18.5,3.3,29.5,19.1,9.8,33.6-25.9,33.1-37.6,19.6-20.9,34.5-24.6,10.2-35.5-12.2-24.8,10.5.8,23.1-25.5,8.8"/>
        <rect class="cls-1" x="80.6" y="59.3" width="270.7" height="503.8"/>
        <path class="cls-4" d="M415.6-8.6l-17.3,12.6-30.8,6.6-49.4-37.6h-14.1l-9.7,16.4-39,1.8-18.9,18.9-8.3,45-41.2,2.9-40.1,20.7-9.3,32-44.4,3.3-38.7-9.3-4,6.5-32.3-9.2-11.5,5.8-14.4,47.4-12.2-3.2-5.3,21.9-22.2-6.3-4.8-14.9-26.3-18.8-34.3-2,.6-12.9-16.3-55.9-24.4,9.9-25.1-34.2-35.6-20.1-15.3,27-43.4-14.1-11.6-25-28.4-6-26.7,17.1-17.8-5.5-10.5,11.5-20.9-9.5-31.2-1,1.7-17.4-11.8-12.9-10.1-31.5,10.4-21.9,41.1,2.5,24,31.7,23-.3,30-11.6,5.9,14.9,19-9.8,32.9,15,31.6.5,48.1,21.5,55.4,13.4,4.9,5.7,43.9,2.6,25.8-10.8L23.2,3l51.4-30.6,14-19.1,41.6-31.5,34.3-16.1,23-2.7,15.3,8.9,55.3,14.9,22.6,12.6,36.4,5.6,15.8,14.1,26.5,6.3,56.2,25.9"/>
        <path class="cls-4" d="M232.8,357.1l3.5,2.9,27.3,39.8-11.9,16,2.2,32-14.8,3.3-1.4,22-11.9,13.2-32.8-12.5-12.3-46,3.3-55.4,29.3-18.1,19.6,3"/>
        <path id="md6d1b4318e" class="cls-9" d="M254.8,434.8c1.4,0,2.8-.6,3.8-1.6s1.6-2.3,1.6-3.8-.6-2.8-1.6-3.8-2.3-1.6-3.8-1.6-2.8.6-3.8,1.6-1.6,2.3-1.6,3.8.6,2.8,1.6,3.8,2.3,1.6,3.8,1.6Z"/>
        <path id="md6d1b4318e-2" class="cls-9" d="M253.7,296.4c1.4,0,2.8-.6,3.8-1.6s1.6-2.3,1.6-3.8-.6-2.8-1.6-3.8-2.3-1.6-3.8-1.6-2.8.6-3.8,1.6-1.6,2.3-1.6,3.8.6,2.8,1.6,3.8,2.3,1.6,3.8,1.6Z"/>
        <path id="m327b66077d" class="cls-7" d="M145.6,413.2c1.4,0,2.8-.6,3.8-1.6s1.6-2.3,1.6-3.8-.6-2.8-1.6-3.8-2.3-1.6-3.8-1.6-2.8.6-3.8,1.6-1.6,2.3-1.6,3.8.6,2.8,1.6,3.8,2.3,1.6,3.8,1.6Z"/>
        <path id="m327b66077d-2" class="cls-7" d="M146.1,405.4c1.4,0,2.8-.6,3.8-1.6s1.6-2.3,1.6-3.8-.6-2.8-1.6-3.8-2.3-1.6-3.8-1.6-2.8.6-3.8,1.6-1.6,2.3-1.6,3.8.6,2.8,1.6,3.8,2.3,1.6,3.8,1.6Z"/>
        <path id="m327b66077d-3" class="cls-7" d="M165.6,426.9c1.4,0,2.8-.6,3.8-1.6s1.6-2.3,1.6-3.8-.6-2.8-1.6-3.8-2.3-1.6-3.8-1.6-2.8.6-3.8,1.6-1.6,2.3-1.6,3.8.6,2.8,1.6,3.8,2.3,1.6,3.8,1.6Z"/>
        <path id="m327b66077d-4" class="cls-6" d="M233,394.6c1.4,0,2.8-.6,3.8-1.6s1.6-2.3,1.6-3.8-.6-2.8-1.6-3.8-2.3-1.6-3.8-1.6-2.8.6-3.8,1.6-1.6,2.3-1.6,3.8.6,2.8,1.6,3.8,2.3,1.6,3.8,1.6Z"/>
        <path id="mba240b11f4" class="cls-2" d="M320.6,83.3c1.4,0,2.8-.6,3.8-1.6s1.6-2.3,1.6-3.8-.6-2.8-1.6-3.8-2.3-1.6-3.8-1.6-2.8.6-3.8,1.6-1.6,2.3-1.6,3.8.6,2.8,1.6,3.8,2.3,1.6,3.8,1.6Z"/>
        <path id="mba240b11f4-2" class="cls-2" d="M250.4,434.1c1.4,0,2.8-.6,3.8-1.6s1.6-2.3,1.6-3.8-.6-2.8-1.6-3.8-2.3-1.6-3.8-1.6-2.8.6-3.8,1.6-1.6,2.3-1.6,3.8.6,2.8,1.6,3.8,2.3,1.6,3.8,1.6Z"/>
        <path id="mba240b11f4-3" class="cls-2" d="M157.1,409.8c1.4,0,2.8-.6,3.8-1.6s1.6-2.3,1.6-3.8-.6-2.8-1.6-3.8-2.3-1.6-3.8-1.6-2.8.6-3.8,1.6-1.6,2.3-1.6,3.8.6,2.8,1.6,3.8,2.3,1.6,3.8,1.6Z"/>
        <path id="mba240b11f4-4" class="cls-2" d="M186.5,424.6c1.4,0,2.8-.6,3.8-1.6s1.6-2.3,1.6-3.8-.6-2.8-1.6-3.8-2.3-1.6-3.8-1.6-2.8.6-3.8,1.6-1.6,2.3-1.6,3.8.6,2.8,1.6,3.8,2.3,1.6,3.8,1.6Z"/>
        <path id="mcc503cafa1" class="cls-3" d="M164.6,427.7c1.5,0,2.9-.6,3.9-1.6s1.6-2.5,1.6-3.9-.6-2.9-1.6-3.9-2.5-1.6-3.9-1.6-2.9.6-3.9,1.6-1.6,2.5-1.6,3.9.6,2.9,1.6,3.9,2.5,1.6,3.9,1.6Z"/>
        <path id="mcc503cafa1-2" class="cls-3" d="M237.5,302.8c1.5,0,2.9-.6,3.9-1.6s1.6-2.5,1.6-3.9-.6-2.9-1.6-3.9-2.5-1.6-3.9-1.6-2.9.6-3.9,1.6-1.6,2.5-1.6,3.9.6,2.9,1.6,3.9,2.5,1.6,3.9,1.6Z"/>
        <path id="mcc503cafa1-3" class="cls-3" d="M114.2,545.7c1.5,0,2.9-.6,3.9-1.6s1.6-2.5,1.6-3.9-.6-2.9-1.6-3.9-2.5-1.6-3.9-1.6-2.9.6-3.9,1.6-1.6,2.5-1.6,3.9.6,2.9,1.6,3.9,2.5,1.6,3.9,1.6Z"/>
        <path id="mcc503cafa1-4" class="cls-3" d="M101.8,267c1.5,0,2.9-.6,3.9-1.6s1.6-2.5,1.6-3.9-.6-2.9-1.6-3.9-2.5-1.6-3.9-1.6-2.9.6-3.9,1.6-1.6,2.5-1.6,3.9.6,2.9,1.6,3.9,2.5,1.6,3.9,1.6Z"/>
        <path id="mcc503cafa1-5" class="cls-3" d="M167.4,423.2c1.5,0,2.9-.6,3.9-1.6s1.6-2.5,1.6-3.9-.6-2.9-1.6-3.9-2.5-1.6-3.9-1.6-2.9.6-3.9,1.6-1.6,2.5-1.6,3.9.6,2.9,1.6,3.9,2.5,1.6,3.9,1.6Z"/>
        <path id="mcc503cafa1-6" class="cls-3" d="M255.4,284.2c1.5,0,2.9-.6,3.9-1.6s1.6-2.5,1.6-3.9-.6-2.9-1.6-3.9-2.5-1.6-3.9-1.6-2.9.6-3.9,1.6-1.6,2.5-1.6,3.9.6,2.9,1.6,3.9,2.5,1.6,3.9,1.6Z"/>
        <path id="mcc503cafa1-7" class="cls-3" d="M237.3,309.4c1.5,0,2.9-.6,3.9-1.6s1.6-2.5,1.6-3.9-.6-2.9-1.6-3.9-2.5-1.6-3.9-1.6-2.9.6-3.9,1.6-1.6,2.5-1.6,3.9.6,2.9,1.6,3.9,2.5,1.6,3.9,1.6Z"/>
        <path id="mcc503cafa1-8" class="cls-3" d="M152.8,417.5c1.5,0,2.9-.6,3.9-1.6s1.6-2.5,1.6-3.9-.6-2.9-1.6-3.9-2.5-1.6-3.9-1.6-2.9.6-3.9,1.6-1.6,2.5-1.6,3.9.6,2.9,1.6,3.9,2.5,1.6,3.9,1.6Z"/>
        <path id="mcc503cafa1-9" class="cls-3" d="M261.3,281.3c1.5,0,2.9-.6,3.9-1.6s1.6-2.5,1.6-3.9-.6-2.9-1.6-3.9-2.5-1.6-3.9-1.6-2.9.6-3.9,1.6-1.6,2.5-1.6,3.9.6,2.9,1.6,3.9,2.5,1.6,3.9,1.6Z"/>
        <path id="mcc503cafa1-10" class="cls-3" d="M178.5,440.4c1.5,0,2.9-.6,3.9-1.6s1.6-2.5,1.6-3.9-.6-2.9-1.6-3.9-2.5-1.6-3.9-1.6-2.9.6-3.9,1.6-1.6,2.5-1.6,3.9.6,2.9,1.6,3.9,2.5,1.6,3.9,1.6Z"/>
        <path id="mcc503cafa1-11" class="cls-3" d="M253.8,296.3c1.5,0,2.9-.6,3.9-1.6s1.6-2.5,1.6-3.9-.6-2.9-1.6-3.9-2.5-1.6-3.9-1.6-2.9.6-3.9,1.6-1.6,2.5-1.6,3.9.6,2.9,1.6,3.9,2.5,1.6,3.9,1.6h0Z"/>
        <path id="mcc503cafa1-12" class="cls-3" d="M253.5,283.1c1.5,0,2.9-.6,3.9-1.6s1.6-2.5,1.6-3.9-.6-2.9-1.6-3.9-2.5-1.6-3.9-1.6-2.9.6-3.9,1.6-1.6,2.5-1.6,3.9.6,2.9,1.6,3.9,2.5,1.6,3.9,1.6Z"/>
        <path id="mcc503cafa1-13" class="cls-3" d="M255.9,286.2c1.5,0,2.9-.6,3.9-1.6s1.6-2.5,1.6-3.9-.6-2.9-1.6-3.9-2.5-1.6-3.9-1.6-2.9.6-3.9,1.6-1.6,2.5-1.6,3.9.6,2.9,1.6,3.9,2.5,1.6,3.9,1.6Z"/>
        <path id="mcc503cafa1-14" class="cls-3" d="M153.5,413.2c1.5,0,2.9-.6,3.9-1.6s1.6-2.5,1.6-3.9-.6-2.9-1.6-3.9-2.5-1.6-3.9-1.6-2.9.6-3.9,1.6-1.6,2.5-1.6,3.9.6,2.9,1.6,3.9,2.5,1.6,3.9,1.6Z"/>
        <path id="mcc503cafa1-15" class="cls-3" d="M183.8,455c1.5,0,2.9-.6,3.9-1.6s1.6-2.5,1.6-3.9-.6-2.9-1.6-3.9-2.5-1.6-3.9-1.6-2.9.6-3.9,1.6-1.6,2.5-1.6,3.9.6,2.9,1.6,3.9,2.5,1.6,3.9,1.6Z"/>
        <path id="mcc503cafa1-16" class="cls-3" d="M151.8,410.2c1.5,0,2.9-.6,3.9-1.6s1.6-2.5,1.6-3.9-.6-2.9-1.6-3.9-2.5-1.6-3.9-1.6-2.9.6-3.9,1.6-1.6,2.5-1.6,3.9.6,2.9,1.6,3.9,2.5,1.6,3.9,1.6Z"/>
        <path id="mcc503cafa1-17" class="cls-3" d="M165.8,434.3c1.5,0,2.9-.6,3.9-1.6s1.6-2.5,1.6-3.9-.6-2.9-1.6-3.9-2.5-1.6-3.9-1.6-2.9.6-3.9,1.6-1.6,2.5-1.6,3.9.6,2.9,1.6,3.9,2.5,1.6,3.9,1.6Z"/>
        <path id="mcc503cafa1-18" class="cls-3" d="M153.7,414.3c1.5,0,2.9-.6,3.9-1.6s1.6-2.5,1.6-3.9-.6-2.9-1.6-3.9-2.5-1.6-3.9-1.6-2.9.6-3.9,1.6-1.6,2.5-1.6,3.9.6,2.9,1.6,3.9,2.5,1.6,3.9,1.6Z"/>
        <path id="mcc503cafa1-19" class="cls-3" d="M175.9,436.5c1.5,0,2.9-.6,3.9-1.6s1.6-2.5,1.6-3.9-.6-2.9-1.6-3.9-2.5-1.6-3.9-1.6-2.9.6-3.9,1.6-1.6,2.5-1.6,3.9.6,2.9,1.6,3.9,2.5,1.6,3.9,1.6Z"/>
        <path id="mcc503cafa1-20" class="cls-3" d="M128.6,544c1.5,0,2.9-.6,3.9-1.6s1.6-2.5,1.6-3.9-.6-2.9-1.6-3.9-2.5-1.6-3.9-1.6-2.9.6-3.9,1.6-1.6,2.5-1.6,3.9.6,2.9,1.6,3.9,2.5,1.6,3.9,1.6Z"/>
        <path id="mcc503cafa1-21" class="cls-3" d="M182.4,424.9c1.5,0,2.9-.6,3.9-1.6s1.6-2.5,1.6-3.9-.6-2.9-1.6-3.9-2.5-1.6-3.9-1.6-2.9.6-3.9,1.6-1.6,2.5-1.6,3.9.6,2.9,1.6,3.9,2.5,1.6,3.9,1.6Z"/>
        <path id="mcc503cafa1-22" class="cls-3" d="M254.3,288.2c1.5,0,2.9-.6,3.9-1.6s1.6-2.5,1.6-3.9-.6-2.9-1.6-3.9-2.5-1.6-3.9-1.6-2.9.6-3.9,1.6-1.6,2.5-1.6,3.9.6,2.9,1.6,3.9,2.5,1.6,3.9,1.6h0Z"/>
        <path id="mcc503cafa1-23" class="cls-3" d="M254.1,293.9c1.5,0,2.9-.6,3.9-1.6s1.6-2.5,1.6-3.9-.6-2.9-1.6-3.9-2.5-1.6-3.9-1.6-2.9.6-3.9,1.6-1.6,2.5-1.6,3.9.6,2.9,1.6,3.9,2.5,1.6,3.9,1.6Z"/>
        <path id="mcc503cafa1-24" class="cls-3" d="M255.6,292.3c1.5,0,2.9-.6,3.9-1.6s1.6-2.5,1.6-3.9-.6-2.9-1.6-3.9-2.5-1.6-3.9-1.6-2.9.6-3.9,1.6-1.6,2.5-1.6,3.9.6,2.9,1.6,3.9,2.5,1.6,3.9,1.6Z"/>
        <path id="mcc503cafa1-25" class="cls-3" d="M143.4,407.6c1.5,0,2.9-.6,3.9-1.6s1.6-2.5,1.6-3.9-.6-2.9-1.6-3.9-2.5-1.6-3.9-1.6-2.9.6-3.9,1.6-1.6,2.5-1.6,3.9.6,2.9,1.6,3.9,2.5,1.6,3.9,1.6Z"/>
        <path id="mcc503cafa1-26" class="cls-3" d="M243.1,283.5c1.5,0,2.9-.6,3.9-1.6s1.6-2.5,1.6-3.9-.6-2.9-1.6-3.9-2.5-1.6-3.9-1.6-2.9.6-3.9,1.6-1.6,2.5-1.6,3.9.6,2.9,1.6,3.9,2.5,1.6,3.9,1.6Z"/>
        <path id="mcc503cafa1-27" class="cls-3" d="M140.1,402.7c1.5,0,2.9-.6,3.9-1.6s1.6-2.5,1.6-3.9-.6-2.9-1.6-3.9-2.5-1.6-3.9-1.6-2.9.6-3.9,1.6-1.6,2.5-1.6,3.9.6,2.9,1.6,3.9,2.5,1.6,3.9,1.6Z"/>
        <path id="mcc503cafa1-28" class="cls-3" d="M111.8,545.8c1.5,0,2.9-.6,3.9-1.6s1.6-2.5,1.6-3.9-.6-2.9-1.6-3.9-2.5-1.6-3.9-1.6-2.9.6-3.9,1.6-1.6,2.5-1.6,3.9.6,2.9,1.6,3.9,2.5,1.6,3.9,1.6Z"/>
        <path id="mcc503cafa1-29" class="cls-3" d="M147.2,407.9c1.5,0,2.9-.6,3.9-1.6s1.6-2.5,1.6-3.9-.6-2.9-1.6-3.9-2.5-1.6-3.9-1.6-2.9.6-3.9,1.6-1.6,2.5-1.6,3.9.6,2.9,1.6,3.9,2.5,1.6,3.9,1.6Z"/>
        <path id="mcc503cafa1-30" class="cls-3" d="M168,423.7c1.5,0,2.9-.6,3.9-1.6s1.6-2.5,1.6-3.9-.6-2.9-1.6-3.9-2.5-1.6-3.9-1.6-2.9.6-3.9,1.6-1.6,2.5-1.6,3.9.6,2.9,1.6,3.9,2.5,1.6,3.9,1.6Z"/>
        <path id="mcc503cafa1-31" class="cls-3" d="M167.6,424.3c1.5,0,2.9-.6,3.9-1.6s1.6-2.5,1.6-3.9-.6-2.9-1.6-3.9-2.5-1.6-3.9-1.6-2.9.6-3.9,1.6-1.6,2.5-1.6,3.9.6,2.9,1.6,3.9,2.5,1.6,3.9,1.6Z"/>
        <path id="mcc503cafa1-32" class="cls-3" d="M154.9,367.2c1.5,0,2.9-.6,3.9-1.6s1.6-2.5,1.6-3.9-.6-2.9-1.6-3.9-2.5-1.6-3.9-1.6-2.9.6-3.9,1.6-1.6,2.5-1.6,3.9.6,2.9,1.6,3.9,2.5,1.6,3.9,1.6Z"/>
        <path id="mcc503cafa1-33" class="cls-3" d="M165.7,427.5c1.5,0,2.9-.6,3.9-1.6s1.6-2.5,1.6-3.9-.6-2.9-1.6-3.9-2.5-1.6-3.9-1.6-2.9.6-3.9,1.6-1.6,2.5-1.6,3.9.6,2.9,1.6,3.9,2.5,1.6,3.9,1.6Z"/>
        <path id="mcc503cafa1-34" class="cls-3" d="M139.8,401.3c1.5,0,2.9-.6,3.9-1.6s1.6-2.5,1.6-3.9-.6-2.9-1.6-3.9-2.5-1.6-3.9-1.6-2.9.6-3.9,1.6-1.6,2.5-1.6,3.9.6,2.9,1.6,3.9,2.5,1.6,3.9,1.6Z"/>
        <path id="mcc503cafa1-35" class="cls-3" d="M182.5,453.3c1.5,0,2.9-.6,3.9-1.6s1.6-2.5,1.6-3.9-.6-2.9-1.6-3.9-2.5-1.6-3.9-1.6-2.9.6-3.9,1.6-1.6,2.5-1.6,3.9.6,2.9,1.6,3.9,2.5,1.6,3.9,1.6Z"/>
        <path id="mcc503cafa1-36" class="cls-3" d="M164.2,427.6c1.5,0,2.9-.6,3.9-1.6s1.6-2.5,1.6-3.9-.6-2.9-1.6-3.9-2.5-1.6-3.9-1.6-2.9.6-3.9,1.6-1.6,2.5-1.6,3.9.6,2.9,1.6,3.9,2.5,1.6,3.9,1.6Z"/>
        <path id="mcc503cafa1-37" class="cls-3" d="M172.1,444.8c1.5,0,2.9-.6,3.9-1.6s1.6-2.5,1.6-3.9-.6-2.9-1.6-3.9-2.5-1.6-3.9-1.6-2.9.6-3.9,1.6-1.6,2.5-1.6,3.9.6,2.9,1.6,3.9,2.5,1.6,3.9,1.6Z"/>
        <path id="mcc503cafa1-38" class="cls-3" d="M253.5,294c1.5,0,2.9-.6,3.9-1.6s1.6-2.5,1.6-3.9-.6-2.9-1.6-3.9-2.5-1.6-3.9-1.6-2.9.6-3.9,1.6-1.6,2.5-1.6,3.9.6,2.9,1.6,3.9,2.5,1.6,3.9,1.6Z"/>
        <path id="mcc503cafa1-39" class="cls-3" d="M157.1,410.8c1.5,0,2.9-.6,3.9-1.6s1.6-2.5,1.6-3.9-.6-2.9-1.6-3.9-2.5-1.6-3.9-1.6-2.9.6-3.9,1.6-1.6,2.5-1.6,3.9.6,2.9,1.6,3.9,2.5,1.6,3.9,1.6Z"/>
        <path id="mcc503cafa1-40" class="cls-3" d="M175,461.9c1.5,0,2.9-.6,3.9-1.6s1.6-2.5,1.6-3.9-.6-2.9-1.6-3.9-2.5-1.6-3.9-1.6-2.9.6-3.9,1.6-1.6,2.5-1.6,3.9.6,2.9,1.6,3.9,2.5,1.6,3.9,1.6Z"/>
        <path id="mcc503cafa1-41" class="cls-3" d="M165.5,433.4c1.5,0,2.9-.6,3.9-1.6s1.6-2.5,1.6-3.9-.6-2.9-1.6-3.9-2.5-1.6-3.9-1.6-2.9.6-3.9,1.6-1.6,2.5-1.6,3.9.6,2.9,1.6,3.9,2.5,1.6,3.9,1.6Z"/>
        <path id="mcc503cafa1-42" class="cls-3" d="M156,549.9c1.5,0,2.9-.6,3.9-1.6s1.6-2.5,1.6-3.9-.6-2.9-1.6-3.9-2.5-1.6-3.9-1.6-2.9.6-3.9,1.6-1.6,2.5-1.6,3.9.6,2.9,1.6,3.9,2.5,1.6,3.9,1.6Z"/>
        <path id="mcc503cafa1-43" class="cls-3" d="M167.2,434c1.5,0,2.9-.6,3.9-1.6s1.6-2.5,1.6-3.9-.6-2.9-1.6-3.9-2.5-1.6-3.9-1.6-2.9.6-3.9,1.6-1.6,2.5-1.6,3.9.6,2.9,1.6,3.9,2.5,1.6,3.9,1.6Z"/>
        <path id="mcc503cafa1-44" class="cls-3" d="M240.2,281.6c1.5,0,2.9-.6,3.9-1.6s1.6-2.5,1.6-3.9-.6-2.9-1.6-3.9-2.5-1.6-3.9-1.6-2.9.6-3.9,1.6-1.6,2.5-1.6,3.9.6,2.9,1.6,3.9,2.5,1.6,3.9,1.6Z"/>
        <path id="mcc503cafa1-45" class="cls-3" d="M214.4,435.7c1.5,0,2.9-.6,3.9-1.6s1.6-2.5,1.6-3.9-.6-2.9-1.6-3.9-2.5-1.6-3.9-1.6-2.9.6-3.9,1.6-1.6,2.5-1.6,3.9.6,2.9,1.6,3.9,2.5,1.6,3.9,1.6Z"/>
        <path id="mcc503cafa1-46" class="cls-3" d="M175.2,461.3c1.5,0,2.9-.6,3.9-1.6s1.6-2.5,1.6-3.9-.6-2.9-1.6-3.9-2.5-1.6-3.9-1.6-2.9.6-3.9,1.6-1.6,2.5-1.6,3.9.6,2.9,1.6,3.9,2.5,1.6,3.9,1.6Z"/>
        <path id="mcc503cafa1-47" class="cls-3" d="M258.1,288.3c1.5,0,2.9-.6,3.9-1.6s1.6-2.5,1.6-3.9-.6-2.9-1.6-3.9-2.5-1.6-3.9-1.6-2.9.6-3.9,1.6-1.6,2.5-1.6,3.9.6,2.9,1.6,3.9,2.5,1.6,3.9,1.6Z"/>
        <path id="mcc503cafa1-48" class="cls-3" d="M156.5,413.6c1.5,0,2.9-.6,3.9-1.6s1.6-2.5,1.6-3.9-.6-2.9-1.6-3.9-2.5-1.6-3.9-1.6-2.9.6-3.9,1.6-1.6,2.5-1.6,3.9.6,2.9,1.6,3.9,2.5,1.6,3.9,1.6Z"/>
        <path id="mcc503cafa1-49" class="cls-3" d="M166.9,424.4c1.5,0,2.9-.6,3.9-1.6s1.6-2.5,1.6-3.9-.6-2.9-1.6-3.9-2.5-1.6-3.9-1.6-2.9.6-3.9,1.6-1.6,2.5-1.6,3.9.6,2.9,1.6,3.9,2.5,1.6,3.9,1.6Z"/>
        <path id="m79660698c4" class="cls-5" d="M152.8,398.6c1.4,0,2.8-.6,3.8-1.6s1.6-2.3,1.6-3.8-.6-2.8-1.6-3.8-2.3-1.6-3.8-1.6-2.8.6-3.8,1.6-1.6,2.3-1.6,3.8.6,2.8,1.6,3.8,2.3,1.6,3.8,1.6Z"/>
        <path id="m79660698c4-2" class="cls-5" d="M332.6,92.2c1.4,0,2.8-.6,3.8-1.6s1.6-2.3,1.6-3.8-.6-2.8-1.6-3.8-2.3-1.6-3.8-1.6-2.8.6-3.8,1.6-1.6,2.3-1.6,3.8.6,2.8,1.6,3.8,2.3,1.6,3.8,1.6Z"/>
        <path id="m79660698c4-3" class="cls-5" d="M320.9,83.7c1.4,0,2.8-.6,3.8-1.6s1.6-2.3,1.6-3.8-.6-2.8-1.6-3.8-2.3-1.6-3.8-1.6-2.8.6-3.8,1.6-1.6,2.3-1.6,3.8.6,2.8,1.6,3.8,2.3,1.6,3.8,1.6Z"/>
        <path id="m79660698c4-4" class="cls-5" d="M99.4,183.8c1.4,0,2.8-.6,3.8-1.6s1.6-2.3,1.6-3.8-.6-2.8-1.6-3.8-2.3-1.6-3.8-1.6-2.8.6-3.8,1.6-1.6,2.3-1.6,3.8.6,2.8,1.6,3.8,2.3,1.6,3.8,1.6Z"/>
        <g>
          <path id="DejaVuSans-55" d="M105,557.2h.8v3.5c0,.6,0,1.1.3,1.3.2.3.6.4,1.1.4s.9,0,1.1-.4c.2-.3.3-.7.3-1.3v-3.5h.8v3.6c0,.8-.2,1.3-.6,1.7s-.9.6-1.7.6-1.3-.2-1.7-.6c-.4-.4-.6-1-.6-1.7v-3.6h.2Z"/>
          <path id="DejaVuSans-6c" d="M110.9,556.9h.7v6.1h-.7v-6.1Z"/>
          <path id="DejaVuSans-75" d="M113,561.3v-2.6h.7v2.6c0,.4,0,.7.2.9s.4.3.7.3.7,0,.9-.4c.2-.2.3-.6.3-1v-2.5h.7v4.4h-.7v-.7c-.2.3-.4.5-.6.6s-.5.2-.8.2c-.5,0-.9-.2-1.1-.5-.3-.3-.4-.8-.4-1.4h.1ZM114.8,558.5h0Z"/>
          <path id="DejaVuSans-77" d="M117.7,558.6h.7l.9,3.4.9-3.4h.8l.9,3.4.9-3.4h.7l-1.1,4.4h-.8l-.9-3.6-.9,3.6h-.8l-1.1-4.4h-.2Z"/>
          <path id="DejaVuSans-61" d="M126.7,560.8c-.6,0-1,0-1.2.2s-.3.4-.3.7,0,.5.3.6c.2,0,.4.2.7.2s.7,0,1-.4.4-.7.4-1.1v-.2h-.9ZM128.1,560.5v2.5h-.7v-.7c-.2.3-.4.5-.6.6s-.5.2-.9.2-.8,0-1.1-.4c-.3-.3-.4-.6-.4-1s.2-.9.5-1.1c.3-.2.8-.4,1.5-.4h1c0-.4,0-.7-.3-.8s-.5-.3-.9-.3h-.7c-.2,0-.5,0-.7.3v-.7c.3,0,.5-.2.8-.2h.7c.6,0,1.1.2,1.4.5s.5.8.5,1.5h-.1Z"/>
          <path id="DejaVuSans-74" d="M130.3,557.4v1.2h1.5v.6h-1.5v2.4c0,.4,0,.6.1.7s.3.2.6.2h.7v.6h-.7c-.6,0-.9,0-1.1-.3-.2-.2-.3-.6-.3-1.1v-2.4h-.5v-.6h.5v-1.2h.7Z"/>
          <path id="DejaVuSans-75-2" d="M132.7,561.3v-2.6h.7v2.6c0,.4,0,.7.2.9s.4.3.7.3.7,0,.9-.4c.2-.2.3-.6.3-1v-2.5h.7v4.4h-.7v-.7c-.2.3-.4.5-.6.6-.2,0-.5.2-.8.2-.5,0-.9-.2-1.1-.5-.3-.3-.4-.8-.4-1.4h.1ZM134.5,558.5h0Z"/>
          <path id="DejaVuSans-20" d="M137.1,563"/>
          <path id="DejaVuSans-54" d="M139.6,557.2h4.9v.7h-2.1v5.2h-.8v-5.2h-2.1v-.7h.1Z"/>
          <path id="DejaVuSans-65" d="M147.6,560.6v.4h-3.3c0,.5.2.9.4,1.1.3.3.6.4,1.1.4s.5,0,.8,0,.5-.2.8-.3v.7c-.3,0-.5.2-.8.2h-.8c-.7,0-1.3-.2-1.7-.6-.4-.4-.6-1-.6-1.6s.2-1.3.6-1.7c.4-.4.9-.6,1.6-.6s1.1.2,1.4.6c.3.4.5.9.5,1.5h0ZM146.9,560.4c0-.4-.1-.7-.3-.9s-.5-.4-.9-.4-.7,0-1,.3-.4.5-.4,1h2.6,0Z"/>
          <path id="DejaVuSans-6d" d="M152.2,559.5c.2-.3.4-.6.6-.7s.5-.2.9-.2.8.2,1.1.5c.2.3.4.8.4,1.4v2.6h-.7v-2.6c0-.4,0-.7-.2-.9-.1-.2-.4-.3-.7-.3s-.7,0-.9.4c-.2.2-.3.6-.3,1v2.5h-.7v-2.6c0-.4,0-.7-.2-.9s-.4-.3-.7-.3-.7,0-.9.4c-.2.2-.3.6-.3,1v2.5h-.7v-4.4h.7v.7c.2-.3.4-.5.6-.6s.5-.2.8-.2.6,0,.8.2.4.4.5.7v-.2Z"/>
          <path id="DejaVuSans-70" d="M157.3,562.3v2.3h-.7v-6h.7v.7c.2-.3.3-.5.6-.6.2,0,.5-.2.8-.2.5,0,1,.2,1.3.6.3.4.5,1,.5,1.7s-.2,1.2-.5,1.7c-.3.4-.8.6-1.3.6s-.6,0-.8-.2c-.2,0-.4-.3-.6-.6ZM159.7,560.8c0-.5-.1-.9-.3-1.2s-.5-.5-.9-.5-.7.2-.9.5-.3.7-.3,1.2.1.9.3,1.2.5.5.9.5.7-.2.9-.5.3-.7.3-1.2Z"/>
          <path id="DejaVuSans-6c-2" d="M161.7,556.9h.7v6.1h-.7v-6.1Z"/>
          <path id="DejaVuSans-65-2" d="M167.6,560.6v.4h-3.3c0,.5.2.9.4,1.1.3.3.6.4,1.1.4s.5,0,.8,0,.5-.2.8-.3v.7c-.3,0-.5.2-.8.2h-.8c-.7,0-1.3-.2-1.7-.6-.4-.4-.6-1-.6-1.6s.2-1.3.6-1.7c.4-.4.9-.6,1.6-.6s1.1.2,1.4.6c.3.4.5.9.5,1.5h0ZM166.9,560.4c0-.4-.1-.7-.3-.9s-.5-.4-.9-.4-.7,0-1,.3-.4.5-.4,1h2.6,0Z"/>
        </g>
        <g>
          <path id="DejaVuSans-54-2" d="M111.6,372h4.9v.7h-2.1v5.2h-.8v-5.2h-2.1v-.7h0Z"/>
          <path id="DejaVuSans-61-2" d="M117.9,375.6c-.6,0-1,0-1.2.2s-.3.4-.3.7,0,.5.3.6c.2.1.4.2.7.2s.7-.1,1-.4.4-.7.4-1.1v-.2h-.9ZM119.3,375.3v2.5h-.7v-.7c-.2.3-.4.5-.6.6s-.5.2-.9.2-.8-.1-1.1-.4c-.3-.3-.4-.6-.4-1s.2-.9.5-1.1.8-.4,1.5-.4h1c0-.4,0-.7-.3-.8s-.5-.3-.9-.3h-.7c-.2,0-.5.1-.7.3v-.7c.3-.1.5-.2.8-.2h.7c.6,0,1.1.2,1.4.5s.5.8.5,1.5h-.1Z"/>
          <path id="DejaVuSans-6e" d="M124.4,375.2v2.6h-.7v-2.6c0-.4,0-.7-.2-.9-.2-.2-.4-.3-.7-.3s-.7.1-.9.4c-.2.2-.3.6-.3,1v2.5h-.7v-4.4h.7v.7c.2-.3.4-.5.6-.6s.5-.2.8-.2c.5,0,.9.2,1.1.5.3.3.4.8.4,1.4h-.1Z"/>
          <path id="DejaVuSans-61-3" d="M127.9,375.6c-.6,0-1,0-1.2.2s-.3.4-.3.7,0,.5.3.6c.2.1.4.2.7.2s.7-.1,1-.4.4-.7.4-1.1v-.2h-.9ZM129.3,375.3v2.5h-.7v-.7c-.2.3-.4.5-.6.6-.2.1-.5.2-.9.2s-.8-.1-1.1-.4c-.3-.3-.4-.6-.4-1s.2-.9.5-1.1.8-.4,1.5-.4h1c0-.4-.1-.7-.3-.8s-.5-.3-.9-.3h-.7c-.2,0-.5.1-.7.3v-.7c.3-.1.5-.2.8-.2h.7c.6,0,1.1.2,1.4.5s.5.8.5,1.5h-.1Z"/>
          <path id="DejaVuSans-68" d="M134.4,375.2v2.6h-.7v-2.6c0-.4,0-.7-.2-.9-.2-.2-.4-.3-.7-.3s-.7.1-.9.4c-.2.2-.3.6-.3,1v2.5h-.7v-6.1h.7v2.4c.2-.3.4-.5.6-.6.2-.1.5-.2.8-.2.5,0,.9.2,1.1.5.3.3.4.8.4,1.4h-.1Z"/>
          <path id="DejaVuSans-20-2" d="M135.1,377.8"/>
          <path id="DejaVuSans-4c" d="M138.4,372h.8v5.2h2.8v.7h-3.6v-5.8h0Z"/>
          <path id="DejaVuSans-6f" d="M144.4,373.9c-.4,0-.7.2-.9.5s-.3.7-.3,1.2.1.9.3,1.2c.2.3.5.5.9.5s.7-.2.9-.5.3-.7.3-1.2-.1-.9-.3-1.2c-.2-.3-.5-.5-.9-.5ZM144.4,373.3c.6,0,1.1.2,1.5.6s.5,1,.5,1.7-.2,1.3-.5,1.7c-.4.4-.8.6-1.5.6s-1.1-.2-1.5-.6-.5-1-.5-1.7.2-1.3.5-1.7c.4-.4.8-.6,1.5-.6Z"/>
          <path id="DejaVuSans-74-2" d="M148.3,372.2v1.2h1.5v.6h-1.5v2.4c0,.4,0,.6.1.7s.3.2.6.2h.7v.6h-.7c-.6,0-.9-.1-1.1-.3-.2-.2-.3-.6-.3-1.1v-2.4h-.5v-.6h.5v-1.2h.7Z"/>
          <path id="DejaVuSans-20-3" d="M150,377.8"/>
          <path id="DejaVuSans-54-3" d="M152.5,372h4.9v.7h-2.1v5.2h-.8v-5.2h-2.1v-.7h.1Z"/>
          <path id="DejaVuSans-65-3" d="M160.6,375.4v.4h-3.3c0,.5.2.9.4,1.1.3.3.6.4,1.1.4s.5,0,.8-.1.5-.2.8-.3v.7c-.3.1-.5.2-.8.2h-.8c-.7,0-1.3-.2-1.7-.6s-.6-1-.6-1.6.2-1.3.6-1.7c.4-.4.9-.6,1.6-.6s1.1.2,1.4.6c.3.4.5.9.5,1.5ZM159.8,375.2c0-.4-.1-.7-.3-.9-.2-.2-.5-.4-.9-.4s-.7.1-1,.3-.4.5-.4,1h2.6,0Z"/>
          <path id="DejaVuSans-6d-2" d="M165.1,374.3c.2-.3.4-.6.6-.7s.5-.2.9-.2.8.2,1.1.5c.2.3.4.8.4,1.4v2.6h-.7v-2.6c0-.4,0-.7-.2-.9-.1-.2-.4-.3-.7-.3s-.7.1-.9.4c-.2.2-.3.6-.3,1v2.5h-.7v-2.6c0-.4,0-.7-.2-.9s-.4-.3-.7-.3-.7.1-.9.4c-.2.2-.3.6-.3,1v2.5h-.7v-4.4h.7v.7c.2-.3.4-.5.6-.6s.5-.2.8-.2.6,0,.8.2.4.4.5.7v-.2Z"/>
          <path id="DejaVuSans-70-2" d="M170.2,377.1v2.3h-.7v-6h.7v.7c.2-.3.3-.5.6-.6.2-.1.5-.2.8-.2.5,0,1,.2,1.3.6s.5,1,.5,1.7-.2,1.2-.5,1.7c-.3.4-.8.6-1.3.6s-.6,0-.8-.2c-.2-.1-.4-.3-.6-.6ZM172.7,375.6c0-.5-.1-.9-.3-1.2s-.5-.5-.9-.5-.7.2-.9.5-.3.7-.3,1.2.1.9.3,1.2c.2.3.5.5.9.5s.7-.2.9-.5.3-.7.3-1.2Z"/>
          <path id="DejaVuSans-6c-3" d="M174.6,371.7h.7v6.1h-.7v-6.1Z"/>
          <path id="DejaVuSans-65-4" d="M180.6,375.4v.4h-3.3c0,.5.2.9.4,1.1.3.3.6.4,1.1.4s.5,0,.8-.1.5-.2.8-.3v.7c-.3.1-.5.2-.8.2h-.8c-.7,0-1.3-.2-1.7-.6s-.6-1-.6-1.6.2-1.3.6-1.7c.4-.4.9-.6,1.6-.6s1.1.2,1.4.6c.3.4.5.9.5,1.5ZM179.9,375.2c0-.4-.1-.7-.3-.9-.2-.2-.5-.4-.9-.4s-.7.1-1,.3-.4.5-.4,1h2.6,0Z"/>
        </g>
        <g>
          <path id="DejaVuSans-42" class="cls-11" d="M-360.4,458.6v3.7h2.2c.7,0,1.3-.2,1.6-.5.4-.3.5-.8.5-1.4s-.2-1.1-.5-1.4c-.4-.3-.9-.5-1.6-.5h-2.2ZM-360.4,454.4v3.1h2c.7,0,1.2-.1,1.5-.4s.5-.6.5-1.2-.2-.9-.5-1.2c-.3-.3-.8-.4-1.5-.4h-2ZM-361.8,453.2h3.5c1.1,0,1.9.2,2.4.7.6.4.9,1.1.9,1.9s-.1,1.1-.4,1.5-.7.6-1.3.7c.7.1,1.2.5,1.6.9.4.5.6,1,.6,1.7s-.3,1.6-.9,2.1-1.5.7-2.6.7h-3.7v-10.2h-.1Z"/>
          <path id="DejaVuSans-61-4" class="cls-11" d="M-348.7,459.6c-1,0-1.7.1-2.1.3s-.6.6-.6,1.2.1.8.4,1.1c.3.3.7.4,1.2.4s1.3-.2,1.7-.7.6-1.2.6-2v-.3h-1.3,0ZM-346.2,459.1v4.4h-1.3v-1.2c-.3.5-.6.8-1.1,1-.4.2-1,.3-1.6.3s-1.4-.2-1.9-.7c-.5-.4-.7-1-.7-1.8s.3-1.5.9-1.9,1.4-.7,2.6-.7h1.8c0-.7-.2-1.2-.6-1.5s-.9-.5-1.6-.5-.9,0-1.3.2c-.4.1-.8.3-1.2.5v-1.2c.5-.2.9-.3,1.3-.4.4,0,.9-.1,1.3-.1,1.1,0,1.9.3,2.5.9.5.6.8,1.4.8,2.6h.1Z"/>
          <path id="DejaVuSans-6c-4" class="cls-11" d="M-343.6,452.8h1.3v10.6h-1.3v-10.6Z"/>
          <path id="DejaVuSans-69" class="cls-11" d="M-339.7,455.8h1.3v7.7h-1.3v-7.7ZM-339.7,452.8h1.3v1.6h-1.3v-1.6Z"/>
          <path id="DejaVuSans-20-4" class="cls-11" d="M-337.2,463.5"/>
          <path id="DejaVuSans-2013" class="cls-11" d="M-332,459.1h5.6v1h-5.6v-1Z"/>
          <path id="DejaVuSans-20-5" class="cls-11" d="M-325.7,463.5"/>
          <path id="DejaVuSans-49" class="cls-11" d="M-319.9,453.2h1.4v10.2h-1.4v-10.2Z"/>
          <path id="DejaVuSans-6e-2" class="cls-11" d="M-309.5,458.8v4.6h-1.3v-4.6c0-.7-.1-1.3-.4-1.6-.3-.4-.7-.5-1.3-.5s-1.2.2-1.6.6-.6,1-.6,1.8v4.3h-1.3v-7.7h1.3v1.2c.3-.5.7-.8,1.1-1s.9-.3,1.4-.3c.9,0,1.5.3,2,.8s.7,1.3.7,2.4h0Z"/>
          <path id="DejaVuSans-73" class="cls-11" d="M-302.1,456v1.2c-.4-.2-.7-.3-1.1-.4-.4,0-.8-.1-1.2-.1-.6,0-1.1,0-1.4.3-.3.2-.5.5-.5.9s.1.5.3.7.7.3,1.3.5h.4c.9.3,1.5.6,1.9.9s.6.8.6,1.5-.3,1.3-.8,1.7c-.6.4-1.3.6-2.3.6s-.8,0-1.3-.1c-.4,0-.9-.2-1.4-.4v-1.3c.5.2.9.4,1.4.5s.9.2,1.3.2,1-.1,1.4-.3c.3-.2.5-.5.5-.9s-.1-.6-.3-.8-.7-.4-1.5-.5h-.4c-.8-.3-1.3-.5-1.7-.9-.3-.3-.5-.8-.5-1.4s.3-1.3.8-1.7c.5-.4,1.2-.6,2.2-.6s.9,0,1.3.1c.4,0,.8.2,1.1.3h0Z"/>
          <path id="DejaVuSans-74-3" class="cls-11" d="M-298.4,453.6v2.2h2.6v1h-2.6v4.2c0,.6,0,1,.3,1.2s.5.3,1,.3h1.3v1.1h-1.3c-1,0-1.6-.2-2-.5-.4-.4-.6-1-.6-2v-4.2h-.9v-1h.9v-2.2h1.3Z"/>
          <path id="DejaVuSans-61-5" class="cls-11" d="M-290.7,459.6c-1,0-1.7.1-2.1.3s-.6.6-.6,1.2.1.8.4,1.1c.3.3.7.4,1.2.4s1.3-.2,1.7-.7.6-1.2.6-2v-.3h-1.3,0ZM-288.2,459.1v4.4h-1.3v-1.2c-.3.5-.6.8-1.1,1-.4.2-1,.3-1.6.3s-1.4-.2-1.9-.7c-.5-.4-.7-1-.7-1.8s.3-1.5.9-1.9,1.4-.7,2.6-.7h1.8c0-.7-.2-1.2-.6-1.5s-.9-.5-1.6-.5-.9,0-1.3.2c-.4.1-.8.3-1.2.5v-1.2c.5-.2.9-.3,1.3-.4.4,0,.9-.1,1.3-.1,1.1,0,1.9.3,2.5.9.5.6.8,1.4.8,2.6h.1Z"/>
          <path id="DejaVuSans-67" class="cls-11" d="M-280.5,459.5c0-.9-.2-1.6-.6-2.1s-.9-.8-1.6-.8-1.2.3-1.6.8-.6,1.2-.6,2.1.2,1.6.6,2.1.9.8,1.6.8,1.2-.3,1.6-.8.6-1.2.6-2.1ZM-279.3,462.5c0,1.3-.3,2.3-.9,2.9s-1.5,1-2.7,1h-1.3c-.4,0-.8-.2-1.1-.3v-1.2c.4.2.7.3,1.1.4.4,0,.7.1,1.1.1.8,0,1.4-.2,1.9-.6.4-.4.6-1.1.6-2v-.6c-.3.5-.6.8-1,1s-.9.3-1.5.3c-.9,0-1.7-.4-2.3-1.1-.6-.7-.9-1.7-.9-2.8s.3-2.1.9-2.8c.6-.7,1.3-1.1,2.3-1.1s1.1.1,1.5.3.7.6,1,1v-1.2h1.3v6.7h0Z"/>
          <path id="DejaVuSans-72" class="cls-11" d="M-272.3,457c-.1,0-.3-.1-.5-.2h-.5c-.7,0-1.3.2-1.6.7s-.6,1.1-.6,2v4h-1.3v-7.7h1.3v1.2c.3-.5.6-.8,1-1s.9-.3,1.5-.3.2,0,.3,0h.3v1.3h.1Z"/>
          <path id="DejaVuSans-61-6" class="cls-11" d="M-267.5,459.6c-1,0-1.7.1-2.1.3s-.6.6-.6,1.2.1.8.4,1.1c.3.3.7.4,1.2.4s1.3-.2,1.7-.7.6-1.2.6-2v-.3h-1.3,0ZM-264.9,459.1v4.4h-1.3v-1.2c-.3.5-.6.8-1.1,1-.4.2-1,.3-1.6.3s-1.4-.2-1.9-.7c-.5-.4-.7-1-.7-1.8s.3-1.5.9-1.9,1.4-.7,2.6-.7h1.8c0-.7-.2-1.2-.6-1.5s-.9-.5-1.6-.5-.9,0-1.3.2c-.4.1-.8.3-1.2.5v-1.2c.5-.2.9-.3,1.3-.4.4,0,.9-.1,1.3-.1,1.1,0,1.9.3,2.5.9.5.6.8,1.4.8,2.6h.1Z"/>
          <path id="DejaVuSans-6d-3" class="cls-11" d="M-256.4,457.3c.3-.6.7-1,1.1-1.3s1-.4,1.5-.4,1.4.3,1.8.8c.4.6.6,1.4.6,2.4v4.6h-1.3v-4.6c0-.7-.1-1.3-.4-1.6-.3-.4-.7-.5-1.2-.5s-1.2.2-1.5.6c-.4.4-.6,1-.6,1.8v4.3h-1.3v-4.6c0-.7-.1-1.3-.4-1.6s-.7-.5-1.2-.5-1.2.2-1.5.7c-.4.4-.6,1-.6,1.8v4.3h-1.3v-7.7h1.3v1.2c.3-.5.6-.8,1-1s.9-.3,1.4-.3,1,.1,1.4.4.7.7.9,1.2h.3Z"/>
          <path id="DejaVuSans-20-6" class="cls-11" d="M-250,463.5"/>
          <path id="DejaVuSans-43" class="cls-11" d="M-236.6,454v1.5c-.5-.4-1-.8-1.5-1s-1.1-.3-1.7-.3c-1.2,0-2.1.4-2.7,1.1s-.9,1.7-.9,3.1.3,2.4.9,3.1,1.5,1.1,2.7,1.1,1.2-.1,1.7-.3,1-.5,1.5-1v1.4c-.5.3-1,.6-1.5.7-.5.2-1.1.2-1.7.2-1.5,0-2.8-.5-3.7-1.4s-1.3-2.2-1.3-3.9.4-2.9,1.3-3.9c.9-.9,2.1-1.4,3.7-1.4s1.2,0,1.7.2,1,.4,1.5.7h0Z"/>
          <path id="DejaVuSans-61-7" class="cls-11" d="M-231,459.6c-1,0-1.7.1-2.1.3s-.6.6-.6,1.2.1.8.4,1.1c.3.3.7.4,1.2.4s1.3-.2,1.7-.7.6-1.2.6-2v-.3h-1.3.1ZM-228.5,459.1v4.4h-1.3v-1.2c-.3.5-.6.8-1.1,1-.4.2-1,.3-1.6.3s-1.4-.2-1.9-.7c-.5-.4-.7-1-.7-1.8s.3-1.5.9-1.9c.6-.4,1.4-.7,2.6-.7h1.8c0-.7-.2-1.2-.6-1.5s-.9-.5-1.6-.5-.9,0-1.3.2c-.4.1-.8.3-1.2.5v-1.2c.5-.2.9-.3,1.3-.4.4,0,.9-.1,1.3-.1,1.1,0,1.9.3,2.5.9.5.6.8,1.4.8,2.6h.1Z"/>
          <path id="DejaVuSans-66" class="cls-11" d="M-222,452.8v1h-1.2c-.5,0-.8,0-.9.3-.2.2-.3.5-.3,1v.7h2.1v1h-2.1v6.7h-1.3v-6.7h-1.2v-1h1.2v-.5c0-.9.2-1.5.6-1.9.4-.4,1-.6,1.9-.6h1.2Z"/>
          <path id="DejaVuSans-e9" class="cls-11" d="M-214.4,459.3v.6h-5.8c0,.9.3,1.5.8,2s1.1.7,2,.7,1,0,1.4-.2.9-.3,1.4-.5v1.2c-.5.2-.9.3-1.4.4s-1,.2-1.4.2c-1.2,0-2.2-.4-2.9-1.1s-1.1-1.7-1.1-2.9.3-2.2,1-3c.7-.7,1.6-1.1,2.7-1.1s1.8.3,2.4,1c.6.7.9,1.6.9,2.7h0ZM-215.7,458.9c0-.7-.2-1.2-.6-1.6-.4-.4-.9-.6-1.5-.6s-1.3.2-1.7.6-.7,1-.7,1.7h4.5ZM-216.9,452.3h1.4l-2.2,2.6h-1l1.9-2.6h0Z"/>
          <path id="DejaVuSans-73-2" class="cls-11" d="M-207.5,456v1.2c-.4-.2-.7-.3-1.1-.4-.4,0-.8-.1-1.2-.1-.6,0-1.1,0-1.4.3-.3.2-.5.5-.5.9s.1.5.3.7.7.3,1.3.5h.4c.9.3,1.5.6,1.9.9s.6.8.6,1.5-.3,1.3-.8,1.7c-.6.4-1.3.6-2.3.6s-.8,0-1.3-.1c-.4,0-.9-.2-1.4-.4v-1.3c.5.2.9.4,1.4.5s.9.2,1.3.2,1-.1,1.4-.3c.3-.2.5-.5.5-.9s-.1-.6-.3-.8c-.2-.2-.7-.4-1.5-.5h-.4c-.8-.3-1.3-.5-1.7-.9-.3-.3-.5-.8-.5-1.4s.3-1.3.8-1.7c.5-.4,1.2-.6,2.2-.6s.9,0,1.3.1c.4,0,.8.2,1.1.3h-.1Z"/>
          <path id="DejaVuSans-20-7" class="cls-11" d="M-206.4,463.5"/>
          <path id="DejaVuSans-62" class="cls-11" d="M-195.1,459.6c0-.9-.2-1.7-.6-2.2s-.9-.8-1.6-.8-1.2.3-1.6.8-.6,1.3-.6,2.2.2,1.7.6,2.2c.4.5.9.8,1.6.8s1.2-.3,1.6-.8c.4-.5.6-1.3.6-2.2ZM-199.4,457c.3-.5.6-.8,1-1s.9-.3,1.4-.3c.9,0,1.7.4,2.3,1.1s.9,1.7.9,2.9-.3,2.2-.9,2.9c-.6.7-1.3,1.1-2.3,1.1s-1-.1-1.4-.3c-.4-.2-.7-.6-1-1v1.1h-1.3v-10.6h1.3v4.1h0Z"/>
          <path id="DejaVuSans-79" class="cls-11" d="M-188.6,464.2c-.4.9-.7,1.5-1,1.8s-.8.4-1.4.4h-1v-1.1h.7c.3,0,.6,0,.8-.2s.4-.6.6-1.2l.2-.6-3.1-7.5h1.3l2.4,6,2.4-6h1.3l-3.4,8.4h.2Z"/>
          <path id="DejaVuSans-20-8" class="cls-11" d="M-184.8,463.5"/>
          <path id="DejaVuSans-54-4" class="cls-11" d="M-180.4,453.2h8.6v1.2h-3.6v9h-1.4v-9h-3.6v-1.2Z"/>
          <path id="DejaVuSans-68-2" class="cls-11" d="M-164.1,458.8v4.6h-1.3v-4.6c0-.7-.1-1.3-.4-1.6-.3-.4-.7-.5-1.3-.5s-1.2.2-1.6.6c-.4.4-.6,1-.6,1.8v4.3h-1.3v-10.6h1.3v4.2c.3-.5.7-.8,1.1-1,.4-.2.9-.3,1.4-.3.9,0,1.5.3,2,.8s.7,1.3.7,2.4h0Z"/>
          <path id="DejaVuSans-65-5" class="cls-11" d="M-155,459.3v.6h-5.8c0,.9.3,1.5.8,2s1.1.7,2,.7,1,0,1.4-.2.9-.3,1.4-.5v1.2c-.5.2-.9.3-1.4.4s-1,.2-1.4.2c-1.2,0-2.2-.4-2.9-1.1s-1.1-1.7-1.1-2.9.3-2.2,1-3c.7-.7,1.6-1.1,2.7-1.1s1.8.3,2.4,1c.6.7.9,1.6.9,2.7h0ZM-156.3,458.9c0-.7-.2-1.2-.6-1.6-.4-.4-.9-.6-1.5-.6s-1.3.2-1.7.6-.7,1-.7,1.7h4.5Z"/>
          <path id="DejaVuSans-6d-4" class="cls-11" d="M-147,457.3c.3-.6.7-1,1.1-1.3s1-.4,1.5-.4,1.4.3,1.8.8c.4.6.6,1.4.6,2.4v4.6h-1.3v-4.6c0-.7-.1-1.3-.4-1.6-.3-.4-.7-.5-1.2-.5s-1.2.2-1.5.6c-.4.4-.6,1-.6,1.8v4.3h-1.3v-4.6c0-.7-.1-1.3-.4-1.6s-.7-.5-1.2-.5-1.2.2-1.5.7c-.4.4-.6,1-.6,1.8v4.3h-1.3v-7.7h1.3v1.2c.3-.5.6-.8,1-1s.9-.3,1.4-.3,1,.1,1.4.4.7.7.9,1.2h.3Z"/>
          <path id="DejaVuSans-65-6" class="cls-11" d="M-132.8,459.3v.6h-5.8c0,.9.3,1.5.8,2s1.1.7,2,.7,1,0,1.4-.2.9-.3,1.4-.5v1.2c-.5.2-.9.3-1.4.4s-1,.2-1.4.2c-1.2,0-2.2-.4-2.9-1.1s-1.1-1.7-1.1-2.9.3-2.2,1-3c.7-.7,1.6-1.1,2.7-1.1s1.8.3,2.4,1c.6.7.9,1.6.9,2.7h0ZM-134,458.9c0-.7-.2-1.2-.6-1.6-.4-.4-.9-.6-1.5-.6s-1.3.2-1.7.6-.7,1-.7,1.7h4.5Z"/>
        </g>
        <g>
          <path id="mbeca6032d2" class="cls-8" d="M105.8,553.2c.6,0,1.2-.2,1.6-.7.4-.4.7-1,.7-1.6s-.2-1.2-.7-1.6c-.4-.4-1-.7-1.6-.7s-1.2.2-1.6.7c-.4.4-.7,1-.7,1.6s.2,1.2.7,1.6c.4.4,1,.7,1.6.7Z"/>
          <path id="mbeca6032d2-2" class="cls-8" d="M106,377.8c.6,0,1.2-.2,1.6-.7.4-.4.7-1,.7-1.6s-.2-1.2-.7-1.6c-.4-.4-1-.7-1.6-.7s-1.2.2-1.6.7c-.4.4-.7,1-.7,1.6s.2,1.2.7,1.6c.4.4,1,.7,1.6.7Z"/>
        </g>
        <g id="text_4">
          <g>
            <path id="DejaVuSans-50" class="cls-11" d="M549.3-196v3.3h1.5c.6,0,1-.1,1.3-.4.3-.3.5-.7.5-1.2s-.2-.9-.5-1.2-.7-.4-1.3-.4h-1.5ZM548.1-197h2.7c1,0,1.7.2,2.2.7.5.4.8,1.1.8,1.9s-.3,1.5-.8,2c-.5.4-1.2.7-2.2.7h-1.5v3.5h-1.2v-8.7h0Z"/>
            <path id="DejaVuSans-72-2" class="cls-11" d="M558.9-193.8c0,0-.3-.1-.4-.2h-.5c-.6,0-1.1.2-1.4.6s-.5,1-.5,1.7v3.5h-1.1v-6.6h1.1v1c.2-.4.5-.7.9-.9s.8-.3,1.3-.3.2,0,.2,0h.3v1.1h.1Z"/>
            <path id="DejaVuSans-69-2" class="cls-11" d="M560-194.8h1.1v6.6h-1.1v-6.6ZM560-197.4h1.1v1.4h-1.1v-1.4Z"/>
            <path id="DejaVuSans-6d-5" class="cls-11" d="M568.4-193.6c.3-.5.6-.8,1-1.1s.8-.3,1.3-.3,1.2.2,1.6.7c.4.5.6,1.2.6,2v4h-1.1v-3.9c0-.6,0-1.1-.3-1.4-.2-.3-.6-.5-1-.5s-1,.2-1.3.6c-.3.4-.5.9-.5,1.5v3.7h-1.1v-3.9c0-.6,0-1.1-.3-1.4s-.6-.5-1-.5-1,.2-1.3.6c-.3.4-.5.9-.5,1.5v3.7h-1.1v-6.6h1.1v1c.2-.4.5-.7.9-.9s.8-.3,1.2-.3.9.1,1.2.4c.3.2.6.6.7,1.1h-.1Z"/>
            <path id="DejaVuSans-61-8" class="cls-11" d="M578-191.6c-.9,0-1.5,0-1.8.3s-.5.5-.5,1,0,.7.4.9c.3.2.6.3,1,.3s1.1-.2,1.4-.6.5-1,.5-1.7v-.2h-1.1,0ZM580.2-192v3.7h-1.1v-1c-.2.4-.6.7-.9.9-.4.2-.8.3-1.3.3s-1.2-.2-1.6-.6c-.4-.4-.6-.9-.6-1.5s.2-1.3.7-1.7,1.2-.6,2.2-.6h1.5c0-.6-.2-1-.5-1.3s-.8-.4-1.4-.4-.7,0-1.1.1c-.4,0-.7.2-1,.4v-1c.4-.2.8-.3,1.1-.3s.7-.1,1.1-.1c1,0,1.7.2,2.1.7.5.5.7,1.2.7,2.2v.2Z"/>
            <path id="DejaVuSans-72-3" class="cls-11" d="M586.2-193.8c0,0-.3-.1-.4-.2h-.5c-.6,0-1.1.2-1.4.6s-.5,1-.5,1.7v3.5h-1.1v-6.6h1.1v1c.2-.4.5-.7.9-.9s.8-.3,1.3-.3.2,0,.2,0h.3v1.1h.1Z"/>
            <path id="DejaVuSans-79-2" class="cls-11" d="M590-187.7c-.3.8-.6,1.3-.9,1.5-.3.2-.7.4-1.2.4h-.9v-.9h.6c.3,0,.5,0,.7-.2.2-.1.3-.5.5-1l.2-.5-2.7-6.5h1.1l2.1,5.1,2.1-5.1h1.1l-2.9,7.2h.2Z"/>
            <path id="DejaVuSans-20-9" class="cls-11" d="M593.3-188.3"/>
            <path id="DejaVuSans-54-5" class="cls-11" d="M597.1-197h7.4v1h-3.1v7.8h-1.2v-7.8h-3.1v-1h0Z"/>
            <path id="DejaVuSans-68-3" class="cls-11" d="M611-192.2v4h-1.1v-3.9c0-.6,0-1.1-.4-1.4-.2-.3-.6-.5-1.1-.5s-1,.2-1.4.6c-.3.4-.5.9-.5,1.5v3.7h-1.1v-9.1h1.1v3.6c.3-.4.6-.7.9-.9.3-.2.8-.3,1.2-.3.8,0,1.3.2,1.7.7s.6,1.2.6,2.1h0Z"/>
            <path id="DejaVuSans-65-7" class="cls-11" d="M618.8-191.8v.5h-5c0,.7.3,1.3.7,1.7s1,.6,1.7.6.8,0,1.2-.2.8-.3,1.2-.5v1c-.4.2-.8.3-1.2.4s-.8.1-1.2.1c-1,0-1.9-.3-2.5-.9-.6-.6-.9-1.4-.9-2.5s.3-1.9.9-2.6c.6-.6,1.4-.9,2.3-.9s1.6.3,2.1.9c.5.6.8,1.3.8,2.3h0ZM617.7-192.1c0-.6-.2-1.1-.5-1.4-.3-.4-.7-.5-1.3-.5s-1.1.2-1.4.5-.6.8-.6,1.4h3.8Z"/>
            <path id="DejaVuSans-6d-6" class="cls-11" d="M625.7-193.6c.3-.5.6-.8,1-1.1s.8-.3,1.3-.3,1.2.2,1.6.7c.4.5.6,1.2.6,2v4h-1.1v-3.9c0-.6,0-1.1-.3-1.4-.2-.3-.6-.5-1-.5s-1,.2-1.3.6c-.3.4-.5.9-.5,1.5v3.7h-1.1v-3.9c0-.6,0-1.1-.3-1.4s-.6-.5-1-.5-1,.2-1.3.6c-.3.4-.5.9-.5,1.5v3.7h-1.1v-6.6h1.1v1c.2-.4.5-.7.9-.9s.8-.3,1.2-.3.9.1,1.2.4c.3.2.6.6.7,1.1h-.1Z"/>
            <path id="DejaVuSans-65-8" class="cls-11" d="M637.9-191.8v.5h-5c0,.7.3,1.3.7,1.7s1,.6,1.7.6.8,0,1.2-.2.8-.3,1.2-.5v1c-.4.2-.8.3-1.2.4s-.8.1-1.2.1c-1,0-1.9-.3-2.5-.9-.6-.6-.9-1.4-.9-2.5s.3-1.9.9-2.6c.6-.6,1.4-.9,2.3-.9s1.6.3,2.1.9c.5.6.8,1.3.8,2.3h0ZM636.8-192.1c0-.6-.2-1.1-.5-1.4-.3-.4-.7-.5-1.3-.5s-1.1.2-1.4.5-.6.8-.6,1.4h3.8Z"/>
          </g>
        </g>
        <g id="PathCollection_7">
          <path id="md6d1b4318e-3" class="cls-9" d="M536-171.3c.9,0,1.8-.4,2.5-1s1-1.6,1-2.5-.4-1.8-1-2.5-1.6-1-2.5-1-1.8.4-2.5,1-1,1.6-1,2.5.4,1.8,1,2.5,1.6,1,2.5,1Z"/>
        </g>
        <g id="text_5">
          <g>
            <path id="DejaVuSans-63" class="cls-11" d="M561.2-177.7v.9c-.3-.2-.6-.3-.8-.3s-.6-.1-.9-.1c-.6,0-1.1.2-1.5.6-.4.4-.5,1-.5,1.7s.2,1.3.5,1.7c.4.4.9.6,1.5.6s.6,0,.9-.1.6-.2.8-.3v.9c-.3.1-.6.2-.9.3h-.9c-.9,0-1.6-.3-2.2-.9-.5-.6-.8-1.3-.8-2.3s.3-1.8.8-2.3c.5-.6,1.3-.8,2.2-.8h.9c.3,0,.6.2.8.3h.1Z"/>
            <path id="DejaVuSans-6f-2" class="cls-11" d="M565.2-177.2c-.5,0-.9.2-1.3.6s-.5,1-.5,1.7.2,1.3.5,1.7.7.6,1.3.6.9-.2,1.3-.6c.3-.4.5-1,.5-1.7s-.2-1.3-.5-1.7-.7-.6-1.3-.6ZM565.2-178.1c.9,0,1.5.3,2,.8.5.6.7,1.3.7,2.3s-.2,1.8-.7,2.3c-.5.6-1.2.8-2,.8s-1.5-.3-2-.8c-.5-.6-.7-1.3-.7-2.3s.2-1.8.7-2.3c.5-.6,1.2-.8,2-.8Z"/>
            <path id="DejaVuSans-6d-7" class="cls-11" d="M574.3-176.8c.2-.4.5-.8.9-1s.7-.3,1.2-.3,1.1.2,1.5.7c.3.4.5,1.1.5,1.9v3.6h-1v-3.6c0-.6,0-1-.3-1.3s-.5-.4-.9-.4-.9.2-1.2.5-.4.8-.4,1.4v3.4h-1v-3.6c0-.6,0-1-.3-1.3s-.5-.4-.9-.4-.9.2-1.2.5-.4.8-.4,1.4v3.4h-1v-6h1v.9c.2-.4.5-.6.8-.8s.7-.3,1.1-.3.8.1,1.1.3.5.5.7,1h-.2Z"/>
            <path id="DejaVuSans-6d-8" class="cls-11" d="M585-176.8c.2-.4.5-.8.9-1s.7-.3,1.2-.3,1.1.2,1.5.7c.3.4.5,1.1.5,1.9v3.6h-1v-3.6c0-.6,0-1-.3-1.3s-.5-.4-.9-.4-.9.2-1.2.5-.4.8-.4,1.4v3.4h-1v-3.6c0-.6,0-1-.3-1.3s-.5-.4-.9-.4-.9.2-1.2.5-.4.8-.4,1.4v3.4h-1v-6h1v.9c.2-.4.5-.6.8-.8s.7-.3,1.1-.3.8.1,1.1.3.5.5.7,1h-.2Z"/>
            <path id="DejaVuSans-75-3" class="cls-11" d="M591-174.3v-3.6h1v3.6c0,.6,0,1,.3,1.3s.6.4,1,.4,1-.2,1.3-.5.5-.8.5-1.4v-3.4h1v6h-1v-.9c-.2.4-.5.6-.8.8s-.7.3-1.1.3c-.7,0-1.2-.2-1.6-.6-.4-.4-.5-1.1-.5-1.9h-.1ZM593.4-178.1h0Z"/>
            <path id="DejaVuSans-6e-3" class="cls-11" d="M603-175.6v3.6h-1v-3.6c0-.6,0-1-.3-1.3s-.6-.4-1-.4-1,.2-1.3.5-.5.8-.5,1.4v3.4h-1v-6h1v.9c.2-.4.5-.6.8-.8s.7-.3,1.1-.3c.7,0,1.2.2,1.6.6.4.4.5,1.1.5,1.9h.1Z"/>
            <path id="DejaVuSans-69-3" class="cls-11" d="M605-177.9h1v6h-1v-6ZM605-180.3h1v1.3h-1v-1.3Z"/>
            <path id="DejaVuSans-74-4" class="cls-11" d="M609-179.6v1.7h2v.8h-2v3.3c0,.5,0,.8.2.9s.4.2.8.2h1v.8h-1c-.8,0-1.3-.1-1.6-.4-.3-.3-.4-.8-.4-1.6v-3.3h-.7v-.8h.7v-1.7h1Z"/>
            <path id="DejaVuSans-79-3" class="cls-11" d="M614.9-171.4c-.3.7-.6,1.2-.8,1.4-.3.2-.6.3-1.1.3h-.8v-.8h.6c.3,0,.5,0,.6-.2.2-.1.3-.4.5-.9l.2-.5-2.4-5.9h1l1.9,4.7,1.9-4.7h1l-2.6,6.6h0Z"/>
            <path id="DejaVuSans-5f" class="cls-11" d="M623.4-170.1v.8h-5.7v-.8h5.7Z"/>
            <path id="DejaVuSans-65-9" class="cls-11" d="M629.5-175.2v.5h-4.5c0,.7.2,1.2.6,1.6.4.4.9.5,1.5.5s.7,0,1.1-.1.7-.2,1.1-.4v.9c-.4.2-.7.3-1.1.3s-.7.1-1.1.1c-1,0-1.7-.3-2.3-.8-.6-.6-.8-1.3-.8-2.3s.3-1.8.8-2.3c.5-.6,1.2-.9,2.2-.9s1.4.3,1.9.8.7,1.2.7,2.1h-.1ZM628.5-175.5c0-.5-.2-1-.5-1.3s-.7-.5-1.2-.5-1,.2-1.3.5-.5.8-.6,1.3h3.6Z"/>
            <path id="DejaVuSans-76" class="cls-11" d="M630.4-177.9h1l1.9,5,1.9-5h1l-2.3,6h-1.3l-2.3-6h0Z"/>
            <path id="DejaVuSans-65-10" class="cls-11" d="M642.8-175.2v.5h-4.5c0,.7.2,1.2.6,1.6.4.4.9.5,1.5.5s.7,0,1.1-.1.7-.2,1.1-.4v.9c-.4.2-.7.3-1.1.3s-.7.1-1.1.1c-1,0-1.7-.3-2.3-.8-.6-.6-.8-1.3-.8-2.3s.3-1.8.8-2.3c.5-.6,1.2-.9,2.2-.9s1.4.3,1.9.8.7,1.2.7,2.1h-.1ZM641.8-175.5c0-.5-.2-1-.5-1.3s-.7-.5-1.2-.5-1,.2-1.3.5-.5.8-.6,1.3h3.6Z"/>
            <path id="DejaVuSans-6e-4" class="cls-11" d="M649.4-175.6v3.6h-1v-3.6c0-.6,0-1-.3-1.3s-.6-.4-1-.4-1,.2-1.3.5-.5.8-.5,1.4v3.4h-1v-6h1v.9c.2-.4.5-.6.8-.8s.7-.3,1.1-.3c.7,0,1.2.2,1.6.6.4.4.5,1.1.5,1.9h.1Z"/>
            <path id="DejaVuSans-74-5" class="cls-11" d="M652.4-179.6v1.7h2v.8h-2v3.3c0,.5,0,.8.2.9s.4.2.8.2h1v.8h-1c-.8,0-1.3-.1-1.6-.4-.3-.3-.4-.8-.4-1.6v-3.3h-.7v-.8h.7v-1.7h1Z"/>
            <path id="DejaVuSans-73-3" class="cls-11" d="M659.5-177.8v.9c-.3-.1-.6-.3-.9-.3s-.6-.1-.9-.1c-.5,0-.9,0-1.1.2-.2.2-.4.4-.4.7s0,.4.3.5.5.3,1.1.4h.3c.7.2,1.2.4,1.5.7s.4.7.4,1.1-.2,1-.7,1.3c-.4.3-1.1.5-1.8.5h-1c-.3,0-.7-.2-1.1-.3v-1c.4.2.7.3,1.1.4.4,0,.7.1,1.1.1s.8,0,1.1-.2.4-.4.4-.7,0-.5-.3-.6c-.2-.1-.6-.3-1.2-.4h-.3c-.6-.2-1.1-.4-1.3-.7-.3-.3-.4-.6-.4-1.1s.2-1,.6-1.3c.4-.3,1-.5,1.7-.5h1c.3,0,.6.1.9.2v.2Z"/>
          </g>
        </g>
        <g id="PathCollection_8">
          <path id="m327b66077d-5" class="cls-7" d="M536-154.8c.9,0,1.8-.4,2.5-1s1-1.6,1-2.5-.4-1.8-1-2.5-1.6-1-2.5-1-1.8.4-2.5,1-1,1.6-1,2.5.4,1.8,1,2.5,1.6,1,2.5,1Z"/>
        </g>
        <g id="text_6">
          <g>
            <path id="DejaVuSans-64" class="cls-11" d="M560.8-160.6v-3.3h1v8.4h-1v-.9c-.2.4-.5.6-.8.8s-.7.3-1.1.3c-.7,0-1.3-.3-1.8-.9-.5-.6-.7-1.3-.7-2.3s.2-1.7.7-2.3,1-.9,1.8-.9.8,0,1.1.3c.3.2.6.4.8.8h0ZM557.4-158.5c0,.7,0,1.3.4,1.7.3.4.7.6,1.2.6s.9-.2,1.2-.6c.3-.4.5-1,.5-1.7s-.2-1.3-.5-1.7-.7-.6-1.2-.6-.9.2-1.2.6-.4,1-.4,1.7Z"/>
            <path id="DejaVuSans-65-11" class="cls-11" d="M569-158.7v.5h-4.5c0,.7.2,1.2.6,1.6.4.4.9.5,1.5.5s.7,0,1.1-.1.7-.2,1.1-.4v.9c-.4.2-.7.3-1.1.3s-.7.1-1.1.1c-1,0-1.7-.3-2.3-.8-.6-.6-.8-1.3-.8-2.3s.3-1.8.8-2.3c.5-.6,1.2-.9,2.2-.9s1.4.3,1.9.8.7,1.2.7,2.1h-.1ZM568-159c0-.5-.2-1-.5-1.3s-.7-.5-1.2-.5-1,.2-1.3.5-.5.8-.6,1.3h3.6Z"/>
            <path id="DejaVuSans-73-4" class="cls-11" d="M574.4-161.3v.9c-.3-.1-.6-.3-.9-.3s-.6-.1-.9-.1c-.5,0-.9,0-1.1.2-.2.2-.4.4-.4.7s0,.4.3.5.5.3,1.1.4h.3c.7.2,1.2.4,1.5.7s.4.7.4,1.1-.2,1-.7,1.3c-.4.3-1.1.5-1.8.5h-1c-.3,0-.7-.2-1.1-.3v-1c.4.2.7.3,1.1.4.4,0,.7.1,1.1.1s.8,0,1.1-.2.4-.4.4-.7,0-.5-.3-.6c-.2-.1-.6-.3-1.2-.4h-.3c-.6-.2-1.1-.4-1.3-.7-.3-.3-.4-.6-.4-1.1s.2-1,.6-1.3c.4-.3,1-.5,1.7-.5h1c.3,0,.6.1.9.2v.2Z"/>
            <path id="DejaVuSans-69-4" class="cls-11" d="M576.3-161.5h1v6h-1v-6ZM576.3-163.8h1v1.3h-1v-1.3Z"/>
            <path id="DejaVuSans-67-2" class="cls-11" d="M583.3-158.5c0-.7,0-1.3-.4-1.7-.3-.4-.7-.6-1.2-.6s-.9.2-1.2.6c-.3.4-.4.9-.4,1.7s0,1.3.4,1.7c.3.4.7.6,1.2.6s.9-.2,1.2-.6c.3-.4.4-.9.4-1.7ZM584.3-156.2c0,1-.2,1.8-.7,2.3s-1.1.7-2.1.7h-1c-.3,0-.6-.1-.9-.2v-1c.3.2.6.3.9.3s.6.1.9.1c.6,0,1.1-.2,1.5-.5.3-.3.5-.8.5-1.5v-.5c-.2.4-.5.6-.8.8s-.7.3-1.1.3c-.7,0-1.3-.3-1.8-.8-.5-.6-.7-1.3-.7-2.2s.2-1.7.7-2.2c.5-.6,1-.8,1.8-.8s.8,0,1.1.3.6.4.8.8v-.9h1v5.3-.3Z"/>
            <path id="DejaVuSans-6e-5" class="cls-11" d="M591.4-159.1v3.6h-1v-3.6c0-.6,0-1-.3-1.3s-.6-.4-1-.4-1,.2-1.3.5-.5.8-.5,1.4v3.4h-1v-6h1v.9c.2-.4.5-.6.8-.8s.7-.3,1.1-.3c.7,0,1.2.2,1.6.6.4.4.5,1.1.5,1.9h.1Z"/>
            <path id="DejaVuSans-5f-2" class="cls-11" d="M597.9-153.6v.8h-5.7v-.8h5.7Z"/>
            <path id="DejaVuSans-6d-9" class="cls-11" d="M603.5-160.3c.2-.4.5-.8.9-1s.7-.3,1.2-.3,1.1.2,1.5.7c.3.4.5,1.1.5,1.9v3.6h-1v-3.6c0-.6,0-1-.3-1.3s-.5-.4-.9-.4-.9.2-1.2.5-.4.8-.4,1.4v3.4h-1v-3.6c0-.6,0-1-.3-1.3s-.5-.4-.9-.4-.9.2-1.2.5-.4.8-.4,1.4v3.4h-1v-6h1v.9c.2-.4.5-.6.8-.8s.7-.3,1.1-.3.8.1,1.1.3.5.5.7,1h-.2Z"/>
            <path id="DejaVuSans-69-5" class="cls-11" d="M609.6-161.5h1v6h-1v-6ZM609.6-163.8h1v1.3h-1v-1.3Z"/>
            <path id="DejaVuSans-6e-6" class="cls-11" d="M617.6-159.1v3.6h-1v-3.6c0-.6,0-1-.3-1.3s-.6-.4-1-.4-1,.2-1.3.5-.5.8-.5,1.4v3.4h-1v-6h1v.9c.2-.4.5-.6.8-.8s.7-.3,1.1-.3c.7,0,1.2.2,1.6.6.4.4.5,1.1.5,1.9h.1Z"/>
            <path id="DejaVuSans-69-6" class="cls-11" d="M619.6-161.5h1v6h-1v-6ZM619.6-163.8h1v1.3h-1v-1.3Z"/>
            <path id="DejaVuSans-6d-10" class="cls-11" d="M627.3-160.3c.2-.4.5-.8.9-1s.7-.3,1.2-.3,1.1.2,1.5.7c.3.4.5,1.1.5,1.9v3.6h-1v-3.6c0-.6,0-1-.3-1.3s-.5-.4-.9-.4-.9.2-1.2.5-.4.8-.4,1.4v3.4h-1v-3.6c0-.6,0-1-.3-1.3s-.5-.4-.9-.4-.9.2-1.2.5-.4.8-.4,1.4v3.4h-1v-6h1v.9c.2-.4.5-.6.8-.8s.7-.3,1.1-.3.8.1,1.1.3.5.5.7,1h-.2Z"/>
            <path id="DejaVuSans-61-9" class="cls-11" d="M636.1-158.5c-.8,0-1.4,0-1.7.3s-.5.5-.5.9,0,.6.3.8.5.3.9.3,1-.2,1.3-.6.5-.9.5-1.5v-.2h-1,.2ZM638.1-158.9v3.4h-1v-.9c-.2.4-.5.6-.8.8s-.7.3-1.2.3-1.1-.2-1.5-.5-.5-.8-.5-1.4.2-1.2.7-1.5,1.1-.5,2-.5h1.4c0-.6,0-.9-.4-1.2s-.7-.4-1.3-.4-.7,0-1,.1c-.3,0-.6.2-.9.4v-.9c.4-.1.7-.2,1.1-.3.3,0,.7-.1,1-.1.9,0,1.5.2,2,.7.4.5.6,1.1.6,2.1h-.2Z"/>
            <path id="DejaVuSans-6c-5" class="cls-11" d="M640.1-163.8h1v8.4h-1v-8.4Z"/>
          </g>
        </g>
        <g id="PathCollection_9">
          <path id="mba240b11f4-5" class="cls-2" d="M536-138.4c.9,0,1.8-.4,2.5-1s1-1.6,1-2.5-.4-1.8-1-2.5-1.6-1-2.5-1-1.8.4-2.5,1-1,1.6-1,2.5.4,1.8,1,2.5,1.6,1,2.5,1Z"/>
        </g>
        <g id="text_7">
          <g>
            <path id="DejaVuSans-68-4" class="cls-11" d="M561.8-142.6v3.6h-1v-3.6c0-.6,0-1-.3-1.3s-.6-.4-1-.4-1,.2-1.3.5-.5.8-.5,1.4v3.4h-1v-8.4h1v3.3c.2-.4.5-.6.8-.8s.7-.3,1.1-.3c.7,0,1.2.2,1.6.6.4.4.5,1.1.5,1.9h.1Z"/>
            <path id="DejaVuSans-6f-3" class="cls-11" d="M566.1-144.3c-.5,0-.9.2-1.3.6s-.5,1-.5,1.7.2,1.3.5,1.7.7.6,1.3.6.9-.2,1.3-.6c.3-.4.5-1,.5-1.7s-.2-1.3-.5-1.7-.7-.6-1.3-.6ZM566.1-145.2c.9,0,1.5.3,2,.8.5.6.7,1.3.7,2.3s-.2,1.8-.7,2.3c-.5.6-1.2.8-2,.8s-1.5-.3-2-.8c-.5-.6-.7-1.3-.7-2.3s.2-1.8.7-2.3c.5-.6,1.2-.8,2-.8Z"/>
            <path id="DejaVuSans-6d-11" class="cls-11" d="M575.2-143.9c.2-.4.5-.8.9-1s.7-.3,1.2-.3,1.1.2,1.5.7c.3.4.5,1.1.5,1.9v3.6h-1v-3.6c0-.6,0-1-.3-1.3s-.5-.4-.9-.4-.9.2-1.2.5-.4.8-.4,1.4v3.4h-1v-3.6c0-.6,0-1-.3-1.3s-.5-.4-.9-.4-.9.2-1.2.5-.4.8-.4,1.4v3.4h-1v-6h1v.9c.2-.4.5-.6.8-.8s.7-.3,1.1-.3.8.1,1.1.3.5.5.7,1h-.2Z"/>
            <path id="DejaVuSans-65-12" class="cls-11" d="M586.4-142.3v.5h-4.5c0,.7.2,1.2.6,1.6.4.4.9.5,1.5.5s.7,0,1.1-.1.7-.2,1.1-.4v.9c-.4.2-.7.3-1.1.3s-.7.1-1.1.1c-1,0-1.7-.3-2.3-.8-.6-.6-.8-1.3-.8-2.3s.3-1.8.8-2.3c.5-.6,1.2-.9,2.2-.9s1.4.3,1.9.8.7,1.2.7,2.1h-.1ZM585.4-142.6c0-.5-.2-1-.5-1.3s-.7-.5-1.2-.5-1,.2-1.3.5-.5.8-.6,1.3h3.6Z"/>
            <path id="DejaVuSans-6d-12" class="cls-11" d="M592.7-143.9c.2-.4.5-.8.9-1s.7-.3,1.2-.3,1.1.2,1.5.7c.3.4.5,1.1.5,1.9v3.6h-1v-3.6c0-.6,0-1-.3-1.3s-.5-.4-.9-.4-.9.2-1.2.5-.4.8-.4,1.4v3.4h-1v-3.6c0-.6,0-1-.3-1.3s-.5-.4-.9-.4-.9.2-1.2.5-.4.8-.4,1.4v3.4h-1v-6h1v.9c.2-.4.5-.6.8-.8s.7-.3,1.1-.3.8.1,1.1.3.5.5.7,1h-.2Z"/>
            <path id="DejaVuSans-61-10" class="cls-11" d="M601.5-142c-.8,0-1.4,0-1.7.3s-.5.5-.5.9,0,.6.3.8.5.3.9.3,1-.2,1.3-.6.5-.9.5-1.5v-.2h-1,.2ZM603.5-142.4v3.4h-1v-.9c-.2.4-.5.6-.8.8s-.7.3-1.2.3-1.1-.2-1.5-.5-.5-.8-.5-1.4.2-1.2.7-1.5,1.1-.5,2-.5h1.4c0-.6,0-.9-.4-1.2s-.7-.4-1.3-.4-.7,0-1,.1c-.3,0-.6.2-.9.4v-.9c.4-.1.7-.2,1.1-.3.3,0,.7-.1,1-.1.9,0,1.5.2,2,.7.4.5.6,1.1.6,2.1h-.2Z"/>
            <path id="DejaVuSans-64-2" class="cls-11" d="M609.4-144.1v-3.3h1v8.4h-1v-.9c-.2.4-.5.6-.8.8s-.7.3-1.1.3c-.7,0-1.3-.3-1.8-.9-.5-.6-.7-1.3-.7-2.3s.2-1.7.7-2.3,1-.9,1.8-.9.8,0,1.1.3c.3.2.6.4.8.8h0ZM606.1-142c0,.7,0,1.3.4,1.7.3.4.7.6,1.2.6s.9-.2,1.2-.6c.3-.4.5-1,.5-1.7s-.2-1.3-.5-1.7-.7-.6-1.2-.6-.9.2-1.2.6-.4,1-.4,1.7Z"/>
            <path id="DejaVuSans-65-13" class="cls-11" d="M617.6-142.3v.5h-4.5c0,.7.2,1.2.6,1.6.4.4.9.5,1.5.5s.7,0,1.1-.1.7-.2,1.1-.4v.9c-.4.2-.7.3-1.1.3s-.7.1-1.1.1c-1,0-1.7-.3-2.3-.8-.6-.6-.8-1.3-.8-2.3s.3-1.8.8-2.3c.5-.6,1.2-.9,2.2-.9s1.4.3,1.9.8.7,1.2.7,2.1h-.1ZM616.6-142.6c0-.5-.2-1-.5-1.3s-.7-.5-1.2-.5-1,.2-1.3.5-.5.8-.6,1.3h3.6Z"/>
            <path id="DejaVuSans-5f-3" class="cls-11" d="M623.8-137.2v.8h-5.7v-.8h5.7Z"/>
            <path id="DejaVuSans-62-2" class="cls-11" d="M629.1-142c0-.7,0-1.3-.4-1.7s-.7-.6-1.2-.6-.9.2-1.2.6-.4,1-.4,1.7,0,1.3.4,1.7c.3.4.7.6,1.2.6s.9-.2,1.2-.6c.3-.4.4-1,.4-1.7ZM625.7-144.1c.2-.4.5-.6.8-.8s.7-.3,1.1-.3c.7,0,1.3.3,1.8.9.5.6.7,1.3.7,2.3s-.2,1.7-.7,2.3-1,.9-1.8.9-.8,0-1.1-.3c-.3-.2-.6-.4-.8-.8v.9h-1v-8.4h1v3.3h0Z"/>
            <path id="DejaVuSans-61-11" class="cls-11" d="M634.5-142c-.8,0-1.4,0-1.7.3s-.5.5-.5.9,0,.6.3.8.5.3.9.3,1-.2,1.3-.6.5-.9.5-1.5v-.2h-1,.2ZM636.4-142.4v3.4h-1v-.9c-.2.4-.5.6-.8.8s-.7.3-1.2.3-1.1-.2-1.5-.5-.5-.8-.5-1.4.2-1.2.7-1.5,1.1-.5,2-.5h1.4c0-.6,0-.9-.4-1.2s-.7-.4-1.3-.4-.7,0-1,.1c-.3,0-.6.2-.9.4v-.9c.4-.1.7-.2,1.1-.3.3,0,.7-.1,1-.1.9,0,1.5.2,2,.7.4.5.6,1.1.6,2.1h-.2Z"/>
            <path id="DejaVuSans-6b" class="cls-11" d="M638.4-147.4h1v4.9l2.9-2.6h1.3l-3.2,2.8,3.3,3.2h-1.3l-3.1-2.9v2.9h-1v-8.4h0Z"/>
            <path id="DejaVuSans-65-14" class="cls-11" d="M649.6-142.3v.5h-4.5c0,.7.2,1.2.6,1.6.4.4.9.5,1.5.5s.7,0,1.1-.1.7-.2,1.1-.4v.9c-.4.2-.7.3-1.1.3s-.7.1-1.1.1c-1,0-1.7-.3-2.3-.8-.6-.6-.8-1.3-.8-2.3s.3-1.8.8-2.3c.5-.6,1.2-.9,2.2-.9s1.4.3,1.9.8.7,1.2.7,2.1h-.1ZM648.6-142.6c0-.5-.2-1-.5-1.3s-.7-.5-1.2-.5-1,.2-1.3.5-.5.8-.6,1.3h3.6Z"/>
            <path id="DejaVuSans-73-5" class="cls-11" d="M655-144.9v.9c-.3-.1-.6-.3-.9-.3s-.6-.1-.9-.1c-.5,0-.9,0-1.1.2-.2.2-.4.4-.4.7s0,.4.3.5.5.3,1.1.4h.3c.7.2,1.2.4,1.5.7s.4.7.4,1.1-.2,1-.7,1.3c-.4.3-1.1.5-1.8.5h-1c-.3,0-.7-.2-1.1-.3v-1c.4.2.7.3,1.1.4.4,0,.7.1,1.1.1s.8,0,1.1-.2.4-.4.4-.7,0-.5-.3-.6c-.2-.1-.6-.3-1.2-.4h-.3c-.6-.2-1.1-.4-1.3-.7-.3-.3-.4-.6-.4-1.1s.2-1,.6-1.3c.4-.3,1-.5,1.7-.5h1c.3,0,.6.1.9.2v.2Z"/>
          </g>
        </g>
        <g id="PathCollection_10">
          <path id="mcc503cafa1-50" class="cls-3" d="M536-121.9c.9,0,1.8-.4,2.5-1s1-1.6,1-2.5-.4-1.8-1-2.5c-.6-.7-1.6-1-2.5-1s-1.8.4-2.5,1-1,1.6-1,2.5.4,1.8,1,2.5,1.6,1,2.5,1Z"/>
        </g>
        <g id="text_8">
          <g>
            <path id="DejaVuSans-6d-13" class="cls-11" d="M561.5-127.4c.2-.4.5-.8.9-1s.7-.3,1.2-.3,1.1.2,1.5.7c.3.4.5,1.1.5,1.9v3.6h-1v-3.6c0-.6,0-1-.3-1.3s-.5-.4-.9-.4-.9.2-1.2.5-.4.8-.4,1.4v3.4h-1v-3.6c0-.6,0-1-.3-1.3s-.5-.4-.9-.4-.9.2-1.2.5-.4.8-.4,1.4v3.4h-1v-6h1v.9c.2-.4.5-.6.8-.8s.7-.3,1.1-.3.8.1,1.1.3.5.5.7,1h-.2Z"/>
            <path id="DejaVuSans-75-4" class="cls-11" d="M567.5-124.9v-3.6h1v3.6c0,.6,0,1,.3,1.3s.6.4,1,.4,1-.2,1.3-.5.5-.8.5-1.4v-3.4h1v6h-1v-.9c-.2.4-.5.6-.8.8-.3.2-.7.3-1.1.3-.7,0-1.2-.2-1.6-.6-.4-.4-.5-1.1-.5-1.9h-.1ZM569.9-128.7h0Z"/>
            <path id="DejaVuSans-6c-6" class="cls-11" d="M574.5-130.9h1v8.4h-1v-8.4Z"/>
            <path id="DejaVuSans-74-6" class="cls-11" d="M578.6-130.3v1.7h2v.8h-2v3.3c0,.5,0,.8.2.9s.4.2.8.2h1v.8h-1c-.8,0-1.3,0-1.6-.4s-.4-.8-.4-1.6v-3.3h-.7v-.8h.7v-1.7h1Z"/>
            <path id="DejaVuSans-69-7" class="cls-11" d="M581.9-128.6h1v6h-1v-6ZM581.9-130.9h1v1.3h-1v-1.3Z"/>
            <path id="DejaVuSans-5f-4" class="cls-11" d="M589.5-120.7v.8h-5.7v-.8h5.7Z"/>
            <path id="DejaVuSans-6c-7" class="cls-11" d="M590.5-130.9h1v8.4h-1v-8.4Z"/>
            <path id="DejaVuSans-6f-4" class="cls-11" d="M595.8-127.9c-.5,0-.9.2-1.3.6s-.5,1-.5,1.7.2,1.3.5,1.7c.3.4.7.6,1.3.6s.9-.2,1.3-.6c.3-.4.5-1,.5-1.7s-.2-1.3-.5-1.7c-.3-.4-.7-.6-1.3-.6ZM595.8-128.7c.9,0,1.5.3,2,.8.5.6.7,1.3.7,2.3s-.2,1.8-.7,2.3c-.5.6-1.2.8-2,.8s-1.5-.3-2-.8c-.5-.6-.7-1.3-.7-2.3s.2-1.8.7-2.3c.5-.6,1.2-.8,2-.8Z"/>
            <path id="DejaVuSans-63-2" class="cls-11" d="M604.6-128.4v.9c-.3-.2-.6-.3-.8-.3s-.6,0-.9,0c-.6,0-1.1.2-1.5.6s-.5,1-.5,1.7.2,1.3.5,1.7c.4.4.9.6,1.5.6s.6,0,.9,0,.6-.2.8-.3v.9c-.3,0-.6.2-.9.3h-.9c-.9,0-1.6-.3-2.2-.9-.5-.6-.8-1.3-.8-2.3s.3-1.8.8-2.3c.5-.6,1.3-.8,2.2-.8h.9c.3,0,.6.2.8.3h.1Z"/>
            <path id="DejaVuSans-61-12" class="cls-11" d="M609-125.6c-.8,0-1.4,0-1.7.3s-.5.5-.5.9,0,.6.3.8c.2.2.5.3.9.3s1-.2,1.3-.6.5-.9.5-1.5v-.2h-1,.2ZM611-126v3.4h-1v-.9c-.2.4-.5.6-.8.8-.3.2-.7.3-1.2.3s-1.1-.2-1.5-.5-.5-.8-.5-1.4.2-1.2.7-1.5,1.1-.5,2-.5h1.4c0-.6,0-.9-.4-1.2s-.7-.4-1.3-.4-.7,0-1,0c-.3,0-.6.2-.9.4v-.9c.4-.1.7-.2,1.1-.3.3,0,.7-.1,1-.1.9,0,1.5.2,2,.7.4.5.6,1.1.6,2.1h-.2Z"/>
            <path id="DejaVuSans-74-7" class="cls-11" d="M614-130.3v1.7h2v.8h-2v3.3c0,.5,0,.8.2.9s.4.2.8.2h1v.8h-1c-.8,0-1.3,0-1.6-.4s-.4-.8-.4-1.6v-3.3h-.7v-.8h.7v-1.7h1Z"/>
            <path id="DejaVuSans-69-8" class="cls-11" d="M617.3-128.6h1v6h-1v-6ZM617.3-130.9h1v1.3h-1v-1.3Z"/>
            <path id="DejaVuSans-6f-5" class="cls-11" d="M622.7-127.9c-.5,0-.9.2-1.3.6s-.5,1-.5,1.7.2,1.3.5,1.7c.3.4.7.6,1.3.6s.9-.2,1.3-.6c.3-.4.5-1,.5-1.7s-.2-1.3-.5-1.7c-.3-.4-.7-.6-1.3-.6ZM622.7-128.7c.9,0,1.5.3,2,.8.5.6.7,1.3.7,2.3s-.2,1.8-.7,2.3c-.5.6-1.2.8-2,.8s-1.5-.3-2-.8c-.5-.6-.7-1.3-.7-2.3s.2-1.8.7-2.3c.5-.6,1.2-.8,2-.8Z"/>
            <path id="DejaVuSans-6e-7" class="cls-11" d="M632.1-126.2v3.6h-1v-3.6c0-.6,0-1-.3-1.3s-.6-.4-1-.4-1,.2-1.3.5-.5.8-.5,1.4v3.4h-1v-6h1v.9c.2-.4.5-.6.8-.8s.7-.3,1.1-.3c.7,0,1.2.2,1.6.6.4.4.5,1.1.5,1.9h.1Z"/>
          </g>
        </g>
        <g id="PathCollection_11">
          <path id="m79660698c4-5" class="cls-5" d="M536-105.5c.9,0,1.8-.4,2.5-1s1-1.6,1-2.5-.4-1.8-1-2.5-1.6-1-2.5-1-1.8.4-2.5,1-1,1.6-1,2.5.4,1.8,1,2.5,1.6,1,2.5,1Z"/>
        </g>
        <g id="text_9">
          <g>
            <path id="DejaVuSans-6f-6" class="cls-11" d="M559.2-111.4c-.5,0-.9.2-1.3.6s-.5,1-.5,1.7.2,1.3.5,1.7c.3.4.7.6,1.3.6s.9-.2,1.3-.6c.3-.4.5-1,.5-1.7s-.2-1.3-.5-1.7c-.3-.4-.7-.6-1.3-.6ZM559.2-112.3c.9,0,1.5.3,2,.8.5.6.7,1.3.7,2.3s-.2,1.8-.7,2.3c-.5.6-1.2.8-2,.8s-1.5-.3-2-.8c-.5-.6-.7-1.3-.7-2.3s.2-1.8.7-2.3c.5-.6,1.2-.8,2-.8Z"/>
            <path id="DejaVuSans-72-4" class="cls-11" d="M567.1-111.2c0,0-.2,0-.4,0h-.4c-.6,0-1,.2-1.3.5s-.4.9-.4,1.6v3.2h-1v-6h1v.9c.2-.4.5-.6.8-.8.3-.2.7-.3,1.2-.3s0,0,.2,0h.3v1h0Z"/>
            <path id="DejaVuSans-69-9" class="cls-11" d="M568.1-112.1h1v6h-1v-6ZM568.1-114.5h1v1.3h-1v-1.3Z"/>
            <path id="DejaVuSans-67-3" class="cls-11" d="M575.1-109.2c0-.7,0-1.3-.4-1.7-.3-.4-.7-.6-1.2-.6s-.9.2-1.2.6-.4.9-.4,1.7,0,1.3.4,1.7c.3.4.7.6,1.2.6s.9-.2,1.2-.6.4-.9.4-1.7ZM576.1-106.9c0,1-.2,1.8-.7,2.3s-1.1.7-2.1.7h-1c-.3,0-.6,0-.9-.2v-1c.3.2.6.3.9.3s.6,0,.9,0c.6,0,1.1-.2,1.5-.5.3-.3.5-.8.5-1.5v-.5c-.2.4-.5.6-.8.8s-.7.3-1.1.3c-.7,0-1.3-.3-1.8-.8-.5-.6-.7-1.3-.7-2.2s.2-1.7.7-2.2c.5-.6,1-.8,1.8-.8s.8,0,1.1.3.6.4.8.8v-.9h1v5.3-.3Z"/>
            <path id="DejaVuSans-69-10" class="cls-11" d="M578.1-112.1h1v6h-1v-6ZM578.1-114.5h1v1.3h-1v-1.3Z"/>
            <path id="DejaVuSans-6e-8" class="cls-11" d="M586.2-109.7v3.6h-1v-3.6c0-.6,0-1-.3-1.3s-.6-.4-1-.4-1,.2-1.3.5-.5.8-.5,1.4v3.4h-1v-6h1v.9c.2-.4.5-.6.8-.8.3-.2.7-.3,1.1-.3.7,0,1.2.2,1.6.6.4.4.5,1.1.5,1.9h.1Z"/>
            <path id="DejaVuSans-5f-5" class="cls-11" d="M592.7-104.3v.8h-5.7v-.8h5.7Z"/>
            <path id="DejaVuSans-66-2" class="cls-11" d="M596.7-114.5v.8h-.9c-.4,0-.6,0-.7.2,0,0-.2.4-.2.8v.5h1.6v.8h-1.6v5.2h-1v-5.2h-.9v-.8h.9v-.4c0-.7.2-1.2.5-1.5s.8-.5,1.5-.5h.9,0Z"/>
            <path id="DejaVuSans-6f-7" class="cls-11" d="M599.9-111.4c-.5,0-.9.2-1.3.6s-.5,1-.5,1.7.2,1.3.5,1.7c.3.4.7.6,1.3.6s.9-.2,1.3-.6c.3-.4.5-1,.5-1.7s-.2-1.3-.5-1.7c-.3-.4-.7-.6-1.3-.6ZM599.9-112.3c.9,0,1.5.3,2,.8.5.6.7,1.3.7,2.3s-.2,1.8-.7,2.3c-.5.6-1.2.8-2,.8s-1.5-.3-2-.8c-.5-.6-.7-1.3-.7-2.3s.2-1.8.7-2.3c.5-.6,1.2-.8,2-.8Z"/>
            <path id="DejaVuSans-63-3" class="cls-11" d="M608.6-111.9v.9c-.3-.2-.6-.3-.8-.3s-.6,0-.9,0c-.6,0-1.1.2-1.5.6s-.5,1-.5,1.7.2,1.3.5,1.7c.4.4.9.6,1.5.6s.6,0,.9,0,.6-.2.8-.3v.9c-.3,0-.6.2-.9.3h-.9c-.9,0-1.6-.3-2.2-.9-.5-.6-.8-1.3-.8-2.3s.3-1.8.8-2.3c.5-.6,1.3-.8,2.2-.8h.9c.3,0,.6.2.8.3h.1Z"/>
            <path id="DejaVuSans-75-5" class="cls-11" d="M610.2-108.5v-3.6h1v3.6c0,.6,0,1,.3,1.3s.6.4,1,.4,1-.2,1.3-.5.5-.8.5-1.4v-3.4h1v6h-1v-.9c-.2.4-.5.6-.8.8-.3.2-.7.3-1.1.3-.7,0-1.2-.2-1.6-.6-.4-.4-.5-1.1-.5-1.9h-.1ZM612.7-112.3h0Z"/>
            <path id="DejaVuSans-73-6" class="cls-11" d="M621.1-112v.9c-.3,0-.6-.3-.9-.3s-.6,0-.9,0c-.5,0-.9,0-1.1.2-.2.2-.4.4-.4.7s0,.4.3.5.5.3,1.1.4h.3c.7.2,1.2.4,1.5.7s.4.7.4,1.1-.2,1-.7,1.3c-.4.3-1.1.5-1.8.5h-1c-.3,0-.7-.2-1.1-.3v-1c.4.2.7.3,1.1.4.4,0,.7,0,1.1,0s.8,0,1.1-.2.4-.4.4-.7,0-.5-.3-.6c-.2,0-.6-.3-1.2-.4h-.3c-.6-.2-1.1-.4-1.3-.7-.3-.3-.4-.6-.4-1.1s.2-1,.6-1.3c.4-.3,1-.5,1.7-.5h1c.3,0,.6,0,.9.2v.2Z"/>
          </g>
        </g>
      </g>
    </g>
  </g>
</svg>