<?xml version="1.0" encoding="UTF-8"?>
<svg xmlns="http://www.w3.org/2000/svg" version="1.1" viewBox="0 0 576 576">
  <defs>
    <style>
      .cls-1 {
        fill: none;
      }

      .cls-2 {
        fill: #407f00;
      }

      .cls-2, .cls-3, .cls-4, .cls-5, .cls-6, .cls-7, .cls-8, .cls-9, .cls-10, .cls-11, .cls-12 {
        stroke-linejoin: round;
      }

      .cls-2, .cls-3, .cls-4, .cls-5, .cls-6, .cls-7, .cls-8, .cls-9, .cls-12 {
        stroke: #fff;
      }

      .cls-2, .cls-4, .cls-5, .cls-6 {
        stroke-width: 2px;
      }

      .cls-3, .cls-4 {
        fill: #e78ac3;
      }

      .cls-3, .cls-4, .cls-5, .cls-6, .cls-7, .cls-8, .cls-9, .cls-12 {
        fill-opacity: .9;
        stroke-opacity: .9;
      }

      .cls-3, .cls-7, .cls-8, .cls-9, .cls-12 {
        stroke-width: .6px;
      }

      .cls-5 {
        fill: #d24f13;
      }

      .cls-6 {
        fill: #d24f13;
      }

      .cls-7 {
        fill: #ffd92f;
      }

      .cls-13 {
        fill: #fff;
      }

      .cls-14 {
        fill: #262626;
      }

      .cls-8 {
        fill: #b3b3b3;
      }

      .cls-9 {
        fill: #fc8d62;
      }

      .cls-10 {
        fill-opacity: .4;
        opacity: .2;
        stroke: #ccc;
        stroke-opacity: .4;
        stroke-width: .5px;
      }

      .cls-10, .cls-15 {
        isolation: isolate;
      }

      .cls-11 {
        stroke: #000;
      }

      .cls-12 {
        fill: #66c2a5;
      }

      .cls-15 {
        font-family: HelveticaNeue, 'Helvetica Neue';
        font-size: 22.5px;
      }
    </style>
  </defs>
  <!-- Generator: Adobe Illustrator 28.7.7, SVG Export Plug-In . SVG Version: 1.2.0 Build 194)  -->
  <g>
    <g id="Layer_1">
      <path class="cls-13" d="M235.7,387.3h297.7V89.6H235.7v297.7h0Z"/>
      <path class="cls-10" d="M356.1,274.2l-10.1-1.6-15.1,9.4-1.7,28.6,6.4,23.8-4.2,9.5,11.9,11.5,6.9-6.6,5,14.4-7.8,12.8-20.6,7.2-8.4-.7h-12.6l-14.9-5.1.7-9.1,14.7-9.3,17.3-5.2-1.8-15.1,4.5-9.8-11-22.9-19.1-15.6,8.7-10.9,15.5-4.4-2.2-9.4,13.9-35-1.7-20.8,16.7-5.8-3.7-25.8-4.7-9.3,6-11.3-5.1-17.7-6.7-8.8-.6-11.2,21.3-1.5,8.1,9.1-3.3,14.2,3.3,8.4-7.2,18.9-2.6,16.1,1.2,24.1,5.9,12.1-6.5,20.7,8.4,21.5-3,12.5-1.8-1.5"/>
      <path class="cls-10" d="M407.7,239.8l5.8,23.5-8.1,4.1-33.4,28.7-14.1-20.6,3-12.5-8.4-21.5,6.5-20.7-5.9-12.1-1.2-24.1,2.6-16.1,7.2-18.9,17.2.7,1.2,7.1,14.9-.8,3.5,15.6-2.5,20.9-5.7,8.8,2.9,24.6,5.2,14,9.2-.8"/>
      <path class="cls-10" d="M296.2,290.1l-17.4-24.3-24.5-17.9-13.7-14.8-23.7-18.3,4.4-10.3,1.2-25,2.7-11.3,6.3,1.7,7.4-24.5,5.9-3,16.7,4.8,2.1-3.4,20,4.8,22.9-1.7,4.8-16.5,20.7-10.7.6,11.2,6.7,8.8,5.1,17.7-6,11.3,4.7,9.3,3.7,25.8-16.7,5.8,1.7,20.8-13.9,35,2.2,9.4-15.5,4.4-8.7,10.9"/>
      <path id="mcc503cafa1" class="cls-5" d="M320.8,315.5c2.1,0,4-.8,5.4-2.2s2.2-3.5,2.2-5.4-.8-4-2.2-5.4c-1.4-1.4-3.5-2.2-5.4-2.2s-4,.8-5.4,2.2c-1.4,1.4-2.2,3.5-2.2,5.4s.8,4,2.2,5.4,3.5,2.2,5.4,2.2Z"/>
      <path id="mcc503cafa1-2" class="cls-5" d="M358.5,251c2.1,0,4-.8,5.4-2.2s2.2-3.5,2.2-5.4-.8-4-2.2-5.4-3.5-2.2-5.4-2.2-4,.8-5.4,2.2-2.2,3.5-2.2,5.4.8,4,2.2,5.4,3.5,2.2,5.4,2.2Z"/>
      <path id="mcc503cafa1-3" class="cls-5" d="M294.8,376.5c2.1,0,4-.8,5.4-2.2,1.4-1.4,2.2-3.5,2.2-5.4s-.8-4-2.2-5.4c-1.4-1.4-3.5-2.2-5.4-2.2s-4,.8-5.4,2.2c-1.4,1.4-2.2,3.5-2.2,5.4s.8,4,2.2,5.4c1.4,1.4,3.5,2.2,5.4,2.2Z"/>
      <path id="mcc503cafa1-4" class="cls-5" d="M288.4,232.5c2.1,0,4-.8,5.4-2.2s2.2-3.5,2.2-5.4-.8-4-2.2-5.4-3.5-2.2-5.4-2.2-4,.8-5.4,2.2-2.2,3.5-2.2,5.4.8,4,2.2,5.4,3.5,2.2,5.4,2.2Z"/>
      <path id="mcc503cafa1-5" class="cls-5" d="M322.3,313.2c2.1,0,4-.8,5.4-2.2s2.2-3.5,2.2-5.4-.8-4-2.2-5.4-3.5-2.2-5.4-2.2-4,.8-5.4,2.2-2.2,3.5-2.2,5.4.8,4,2.2,5.4,3.5,2.2,5.4,2.2Z"/>
      <path id="mcc503cafa1-6" class="cls-5" d="M367.7,241.4c2.1,0,4-.8,5.4-2.2s2.2-3.5,2.2-5.4-.8-4-2.2-5.4-3.5-2.2-5.4-2.2-4,.8-5.4,2.2-2.2,3.5-2.2,5.4.8,4,2.2,5.4,3.5,2.2,5.4,2.2Z"/>
      <path id="mcc503cafa1-7" class="cls-5" d="M358.4,254.4c2.1,0,4-.8,5.4-2.2s2.2-3.5,2.2-5.4-.8-4-2.2-5.4-3.5-2.2-5.4-2.2-4,.8-5.4,2.2-2.2,3.5-2.2,5.4.8,4,2.2,5.4,3.5,2.2,5.4,2.2Z"/>
      <path id="mcc503cafa1-8" class="cls-5" d="M314.7,310.2c2.1,0,4-.8,5.4-2.2,1.4-1.4,2.2-3.5,2.2-5.4s-.8-4-2.2-5.4-3.5-2.2-5.4-2.2-4,.8-5.4,2.2-2.2,3.5-2.2,5.4.8,4,2.2,5.4c1.4,1.4,3.5,2.2,5.4,2.2Z"/>
      <path id="mcc503cafa1-9" class="cls-5" d="M370.8,239.9c2.1,0,4-.8,5.4-2.2s2.2-3.5,2.2-5.4-.8-4-2.2-5.4-3.5-2.2-5.4-2.2-4,.8-5.4,2.2-2.2,3.5-2.2,5.4.8,4,2.2,5.4,3.5,2.2,5.4,2.2Z"/>
      <path id="mcc503cafa1-10" class="cls-5" d="M328,322.1c2.1,0,4-.8,5.4-2.2s2.2-3.5,2.2-5.4-.8-4-2.2-5.4c-1.4-1.4-3.5-2.2-5.4-2.2s-4,.8-5.4,2.2c-1.4,1.4-2.2,3.5-2.2,5.4s.8,4,2.2,5.4,3.5,2.2,5.4,2.2Z"/>
      <path id="mcc503cafa1-11" class="cls-5" d="M366.9,247.6c2.1,0,4-.8,5.4-2.2s2.2-3.5,2.2-5.4-.8-4-2.2-5.4-3.5-2.2-5.4-2.2-4,.8-5.4,2.2-2.2,3.5-2.2,5.4.8,4,2.2,5.4,3.5,2.2,5.4,2.2h0Z"/>
      <path id="mcc503cafa1-12" class="cls-5" d="M366.8,240.8c2.1,0,4-.8,5.4-2.2s2.2-3.5,2.2-5.4-.8-4-2.2-5.4-3.5-2.2-5.4-2.2-4,.8-5.4,2.2-2.2,3.5-2.2,5.4.8,4,2.2,5.4,3.5,2.2,5.4,2.2Z"/>
      <path id="mcc503cafa1-13" class="cls-5" d="M368,242.4c2.1,0,4-.8,5.4-2.2s2.2-3.5,2.2-5.4-.8-4-2.2-5.4-3.5-2.2-5.4-2.2-4,.8-5.4,2.2-2.2,3.5-2.2,5.4.8,4,2.2,5.4,3.5,2.2,5.4,2.2Z"/>
      <path id="mcc503cafa1-14" class="cls-5" d="M315.1,308c2.1,0,4-.8,5.4-2.2,1.4-1.4,2.2-3.5,2.2-5.4s-.8-4-2.2-5.4-3.5-2.2-5.4-2.2-4,.8-5.4,2.2-2.2,3.5-2.2,5.4.8,4,2.2,5.4,3.5,2.2,5.4,2.2Z"/>
      <path id="mcc503cafa1-15" class="cls-5" d="M330.7,329.6c2.1,0,4-.8,5.4-2.2s2.2-3.5,2.2-5.4-.8-4-2.2-5.4-3.5-2.2-5.4-2.2-4,.8-5.4,2.2-2.2,3.5-2.2,5.4.8,4,2.2,5.4,3.5,2.2,5.4,2.2Z"/>
      <path id="mcc503cafa1-16" class="cls-5" d="M314.2,306.5c2.1,0,4-.8,5.4-2.2,1.4-1.4,2.2-3.5,2.2-5.4s-.8-4-2.2-5.4-3.5-2.2-5.4-2.2-4,.8-5.4,2.2-2.2,3.5-2.2,5.4.8,4,2.2,5.4c1.4,1.4,3.5,2.2,5.4,2.2Z"/>
      <path id="mcc503cafa1-17" class="cls-5" d="M321.4,318.9c2.1,0,4-.8,5.4-2.2,1.4-1.4,2.2-3.5,2.2-5.4s-.8-4-2.2-5.4c-1.4-1.4-3.5-2.2-5.4-2.2s-4,.8-5.4,2.2c-1.4,1.4-2.2,3.5-2.2,5.4s.8,4,2.2,5.4c1.4,1.4,3.5,2.2,5.4,2.2Z"/>
      <path id="mcc503cafa1-18" class="cls-5" d="M315.2,308.6c2.1,0,4-.8,5.4-2.2s2.2-3.5,2.2-5.4-.8-4-2.2-5.4-3.5-2.2-5.4-2.2-4,.8-5.4,2.2-2.2,3.5-2.2,5.4.8,4,2.2,5.4,3.5,2.2,5.4,2.2Z"/>
      <path id="mcc503cafa1-19" class="cls-5" d="M326.7,320.1c2.1,0,4-.8,5.4-2.2s2.2-3.5,2.2-5.4-.8-4-2.2-5.4-3.5-2.2-5.4-2.2-4,.8-5.4,2.2-2.2,3.5-2.2,5.4.8,4,2.2,5.4,3.5,2.2,5.4,2.2Z"/>
      <path id="mcc503cafa1-20" class="cls-5" d="M302.2,375.6c2.1,0,4-.8,5.4-2.2s2.2-3.5,2.2-5.4-.8-4-2.2-5.4-3.5-2.2-5.4-2.2-4,.8-5.4,2.2-2.2,3.5-2.2,5.4.8,4,2.2,5.4,3.5,2.2,5.4,2.2Z"/>
      <path id="mcc503cafa1-21" class="cls-5" d="M330,314.1c2.1,0,4-.8,5.4-2.2,1.4-1.4,2.2-3.5,2.2-5.4s-.8-4-2.2-5.4-3.5-2.2-5.4-2.2-4,.8-5.4,2.2-2.2,3.5-2.2,5.4.8,4,2.2,5.4c1.4,1.4,3.5,2.2,5.4,2.2Z"/>
      <path id="mcc503cafa1-22" class="cls-5" d="M367.2,243.4c2.1,0,4-.8,5.4-2.2s2.2-3.5,2.2-5.4-.8-4-2.2-5.4-3.5-2.2-5.4-2.2-4,.8-5.4,2.2-2.2,3.5-2.2,5.4.8,4,2.2,5.4,3.5,2.2,5.4,2.2h0Z"/>
      <path id="mcc503cafa1-23" class="cls-5" d="M367.1,246.4c2.1,0,4-.8,5.4-2.2s2.2-3.5,2.2-5.4-.8-4-2.2-5.4-3.5-2.2-5.4-2.2-4,.8-5.4,2.2-2.2,3.5-2.2,5.4.8,4,2.2,5.4,3.5,2.2,5.4,2.2Z"/>
      <path id="mcc503cafa1-24" class="cls-5" d="M367.9,245.5c2.1,0,4-.8,5.4-2.2s2.2-3.5,2.2-5.4-.8-4-2.2-5.4-3.5-2.2-5.4-2.2-4,.8-5.4,2.2-2.2,3.5-2.2,5.4.8,4,2.2,5.4,3.5,2.2,5.4,2.2Z"/>
      <path id="mcc503cafa1-25" class="cls-5" d="M309.9,305.1c2.1,0,4-.8,5.4-2.2,1.4-1.4,2.2-3.5,2.2-5.4s-.8-4-2.2-5.4-3.5-2.2-5.4-2.2-4,.8-5.4,2.2-2.2,3.5-2.2,5.4.8,4,2.2,5.4c1.4,1.4,3.5,2.2,5.4,2.2Z"/>
      <path id="mcc503cafa1-26" class="cls-5" d="M361.4,241c2.1,0,4-.8,5.4-2.2s2.2-3.5,2.2-5.4-.8-4-2.2-5.4c-1.4-1.4-3.5-2.2-5.4-2.2s-4,.8-5.4,2.2-2.2,3.5-2.2,5.4.8,4,2.2,5.4,3.5,2.2,5.4,2.2Z"/>
      <path id="mcc503cafa1-27" class="cls-5" d="M308.2,302.6c2.1,0,4-.8,5.4-2.2,1.4-1.4,2.2-3.5,2.2-5.4s-.8-4-2.2-5.4c-1.4-1.4-3.5-2.2-5.4-2.2s-4,.8-5.4,2.2c-1.4,1.4-2.2,3.5-2.2,5.4s.8,4,2.2,5.4c1.4,1.4,3.5,2.2,5.4,2.2Z"/>
      <path id="mcc503cafa1-28" class="cls-5" d="M293.5,376.6c2.1,0,4-.8,5.4-2.2s2.2-3.5,2.2-5.4-.8-4-2.2-5.4c-1.4-1.4-3.5-2.2-5.4-2.2s-4,.8-5.4,2.2c-1.4,1.4-2.2,3.5-2.2,5.4s.8,4,2.2,5.4,3.5,2.2,5.4,2.2Z"/>
      <path id="mcc503cafa1-29" class="cls-5" d="M311.8,305.3c2.1,0,4-.8,5.4-2.2,1.4-1.4,2.2-3.5,2.2-5.4s-.8-4-2.2-5.4-3.5-2.2-5.4-2.2-4,.8-5.4,2.2-2.2,3.5-2.2,5.4.8,4,2.2,5.4,3.5,2.2,5.4,2.2Z"/>
      <path id="mcc503cafa1-30" class="cls-5" d="M322.6,313.5c2.1,0,4-.8,5.4-2.2s2.2-3.5,2.2-5.4-.8-4-2.2-5.4-3.5-2.2-5.4-2.2-4,.8-5.4,2.2-2.2,3.5-2.2,5.4.8,4,2.2,5.4,3.5,2.2,5.4,2.2Z"/>
      <path id="mcc503cafa1-31" class="cls-5" d="M322.4,313.8c2.1,0,4-.8,5.4-2.2,1.4-1.4,2.2-3.5,2.2-5.4s-.8-4-2.2-5.4-3.5-2.2-5.4-2.2-4,.8-5.4,2.2-2.2,3.5-2.2,5.4.8,4,2.2,5.4c1.4,1.4,3.5,2.2,5.4,2.2Z"/>
      <path id="mcc503cafa1-32" class="cls-5" d="M315.8,284.3c2.1,0,4-.8,5.4-2.2s2.2-3.5,2.2-5.4-.8-4-2.2-5.4-3.5-2.2-5.4-2.2-4,.8-5.4,2.2-2.2,3.5-2.2,5.4.8,4,2.2,5.4,3.5,2.2,5.4,2.2Z"/>
      <path id="mcc503cafa1-33" class="cls-5" d="M321.4,315.4c2.1,0,4-.8,5.4-2.2s2.2-3.5,2.2-5.4-.8-4-2.2-5.4-3.5-2.2-5.4-2.2-4,.8-5.4,2.2-2.2,3.5-2.2,5.4.8,4,2.2,5.4,3.5,2.2,5.4,2.2Z"/>
      <path id="mcc503cafa1-34" class="cls-5" d="M308,301.9c2.1,0,4-.8,5.4-2.2s2.2-3.5,2.2-5.4-.8-4-2.2-5.4c-1.4-1.4-3.5-2.2-5.4-2.2s-4,.8-5.4,2.2-2.2,3.5-2.2,5.4.8,4,2.2,5.4,3.5,2.2,5.4,2.2Z"/>
      <path id="mcc503cafa1-35" class="cls-5" d="M330.1,328.8c2.1,0,4-.8,5.4-2.2s2.2-3.5,2.2-5.4-.8-4-2.2-5.4c-1.4-1.4-3.5-2.2-5.4-2.2s-4,.8-5.4,2.2c-1.4,1.4-2.2,3.5-2.2,5.4s.8,4,2.2,5.4,3.5,2.2,5.4,2.2Z"/>
      <path id="mcc503cafa1-36" class="cls-5" d="M320.6,315.5c2.1,0,4-.8,5.4-2.2s2.2-3.5,2.2-5.4-.8-4-2.2-5.4-3.5-2.2-5.4-2.2-4,.8-5.4,2.2-2.2,3.5-2.2,5.4.8,4,2.2,5.4,3.5,2.2,5.4,2.2Z"/>
      <path id="mcc503cafa1-37" class="cls-5" d="M324.7,324.4c2.1,0,4-.8,5.4-2.2s2.2-3.5,2.2-5.4-.8-4-2.2-5.4-3.5-2.2-5.4-2.2-4,.8-5.4,2.2-2.2,3.5-2.2,5.4.8,4,2.2,5.4,3.5,2.2,5.4,2.2Z"/>
      <path id="mcc503cafa1-38" class="cls-5" d="M366.8,246.4c2.1,0,4-.8,5.4-2.2s2.2-3.5,2.2-5.4-.8-4-2.2-5.4-3.5-2.2-5.4-2.2-4,.8-5.4,2.2-2.2,3.5-2.2,5.4.8,4,2.2,5.4,3.5,2.2,5.4,2.2Z"/>
      <path id="mcc503cafa1-39" class="cls-5" d="M316.9,306.8c2.1,0,4-.8,5.4-2.2,1.4-1.4,2.2-3.5,2.2-5.4s-.8-4-2.2-5.4-3.5-2.2-5.4-2.2-4,.8-5.4,2.2-2.2,3.5-2.2,5.4.8,4,2.2,5.4c1.4,1.4,3.5,2.2,5.4,2.2Z"/>
      <path id="mcc503cafa1-40" class="cls-5" d="M326.2,333.2c2.1,0,4-.8,5.4-2.2s2.2-3.5,2.2-5.4-.8-4-2.2-5.4-3.5-2.2-5.4-2.2-4,.8-5.4,2.2-2.2,3.5-2.2,5.4.8,4,2.2,5.4,3.5,2.2,5.4,2.2Z"/>
      <path id="mcc503cafa1-41" class="cls-5" d="M321.3,318.5c2.1,0,4-.8,5.4-2.2,1.4-1.4,2.2-3.5,2.2-5.4s-.8-4-2.2-5.4c-1.4-1.4-3.5-2.2-5.4-2.2s-4,.8-5.4,2.2c-1.4,1.4-2.2,3.5-2.2,5.4s.8,4,2.2,5.4c1.4,1.4,3.5,2.2,5.4,2.2Z"/>
      <path id="mcc503cafa1-42" class="cls-5" d="M316.4,378.7c2.1,0,4-.8,5.4-2.2,1.4-1.4,2.2-3.5,2.2-5.4s-.8-4-2.2-5.4c-1.4-1.4-3.5-2.2-5.4-2.2s-4,.8-5.4,2.2c-1.4,1.4-2.2,3.5-2.2,5.4s.8,4,2.2,5.4c1.4,1.4,3.5,2.2,5.4,2.2Z"/>
      <path id="mcc503cafa1-43" class="cls-5" d="M322.2,318.8c2.1,0,4-.8,5.4-2.2s2.2-3.5,2.2-5.4-.8-4-2.2-5.4-3.5-2.2-5.4-2.2-4,.8-5.4,2.2-2.2,3.5-2.2,5.4.8,4,2.2,5.4,3.5,2.2,5.4,2.2Z"/>
      <path id="mcc503cafa1-44" class="cls-5" d="M359.9,240c2.1,0,4-.8,5.4-2.2s2.2-3.5,2.2-5.4-.8-4-2.2-5.4c-1.4-1.4-3.5-2.2-5.4-2.2s-4,.8-5.4,2.2-2.2,3.5-2.2,5.4.8,4,2.2,5.4,3.5,2.2,5.4,2.2Z"/>
      <path id="mcc503cafa1-45" class="cls-5" d="M346.6,319.7c2.1,0,4-.8,5.4-2.2s2.2-3.5,2.2-5.4-.8-4-2.2-5.4-3.5-2.2-5.4-2.2-4,.8-5.4,2.2-2.2,3.5-2.2,5.4.8,4,2.2,5.4,3.5,2.2,5.4,2.2Z"/>
      <path id="mcc503cafa1-46" class="cls-5" d="M326.3,332.9c2.1,0,4-.8,5.4-2.2s2.2-3.5,2.2-5.4-.8-4-2.2-5.4-3.5-2.2-5.4-2.2-4,.8-5.4,2.2-2.2,3.5-2.2,5.4.8,4,2.2,5.4,3.5,2.2,5.4,2.2Z"/>
      <path id="mcc503cafa1-47" class="cls-5" d="M369.1,243.5c2.1,0,4-.8,5.4-2.2s2.2-3.5,2.2-5.4-.8-4-2.2-5.4-3.5-2.2-5.4-2.2-4,.8-5.4,2.2-2.2,3.5-2.2,5.4.8,4,2.2,5.4,3.5,2.2,5.4,2.2Z"/>
      <path id="mcc503cafa1-48" class="cls-5" d="M316.6,308.2c2.1,0,4-.8,5.4-2.2,1.4-1.4,2.2-3.5,2.2-5.4s-.8-4-2.2-5.4c-1.4-1.4-3.5-2.2-5.4-2.2s-4,.8-5.4,2.2-2.2,3.5-2.2,5.4.8,4,2.2,5.4,3.5,2.2,5.4,2.2Z"/>
      <path id="mcc503cafa1-49" class="cls-5" d="M322,313.8c2.1,0,4-.8,5.4-2.2s2.2-3.5,2.2-5.4-.8-4-2.2-5.4c-1.4-1.4-3.5-2.2-5.4-2.2s-4,.8-5.4,2.2c-1.4,1.4-2.2,3.5-2.2,5.4s.8,4,2.2,5.4,3.5,2.2,5.4,2.2Z"/>
      <rect class="cls-1" x="277.4" y="120.3" width="139.9" height="260.4"/>
      <path class="cls-10" d="M19.8,87.6l-.9,9,16.1.5,10.8,4.9,5.4-5.9,9.2,2.8,13.9-8.9,14.7,3.1,6,12.9,22.4,7.3,7.9-14,18.4,10.4,13,17.7,12.6-5.1,8.4,28.9-.3,6.7,17.7,1,13.6,9.7,2.5,7.7,11.5,3.3-1.2,25-4.4,10.3-28.7-10.8-10.6-1.9-14.2-10.7-25.3-6.3-43.7,5.2-22-4.1-2.5-6.1-24-23.8.3-7.5-15.6-15.6-15.9-26.2-6.9-18.9,11.8-.7"/>
      <rect class="cls-1" x="277.4" y="120.3" width="139.9" height="260.4"/>
      <rect class="cls-1" x="277.4" y="120.3" width="139.9" height="260.4"/>
      <rect class="cls-1" x="277.4" y="120.3" width="139.9" height="260.4"/>
      <rect class="cls-1" x="277.4" y="120.3" width="139.9" height="260.4"/>
      <path class="cls-10" d="M495.8,305.7l7.4,6.1,7.4,16.6,10.8,10.9,3.1,9.5-7.9,6.1-9.2,15.2-18-8.3-7.9-.3-7.8-10.1-23.9-17.5-3.2-6.4,21.4-21.8,13.7,2.5,14.1-2.5"/>
      <rect class="cls-1" x="277.4" y="120.3" width="139.9" height="260.4"/>
      <path class="cls-10" d="M427,211.7l5.4,22.9,8.3,4.4,10.4-6.9,7.7,7.3,1.2,13.5-22.1,10.9-24.5-.4-5.8-23.5-1.5-4,9.1-22.1,11.8-2.2"/>
      <rect class="cls-1" x="277.4" y="120.3" width="139.9" height="260.4"/>
      <path class="cls-10" d="M441.6,91.7l7.6,7.3-6.7,8.7,4.8,15-8,6.1-4,19.8-11.2,19.6,8.6,23.8-5.6,19.6-11.8,2.2-9.1,22.1,1.5,4-9.2.8-5.2-14-2.9-24.6,5.7-8.8,2.5-20.9-3.5-15.6-14.9.8-1.2-7.1-17.2-.7-3.3-8.4,3.3-14.2-8.1-9.1,4.3-23.3,9.8-9.8,20.2-.9,5-8.4h7.3l25.5,19.4,15.9-3.4"/>
      <rect class="cls-1" x="277.4" y="120.3" width="139.9" height="260.4"/>
      <path class="cls-10" d="M460.1,252.9l-1.2-13.5-7.7-7.3-10.4,6.9-8.3-4.4-5.4-22.9,5.6-19.6-8.6-23.8,11.2-19.6,4-19.8,8-6.1-4.8-15,6.7-8.7-7.6-7.3,8.9-6.5,12,6,9.7,10,21.9,12.2,9.5,9.9,26.7,34.6,9.6,1.7,15.2,9.9,5.1,17.4-13.4,17.1-19.4,10.1-10.8,17.8-12.7,5.3-18.3-6.3-12.8,5.4.4,11.9-13.2,4.5"/>
      <rect class="cls-1" x="277.4" y="120.3" width="139.9" height="260.4"/>
      <path class="cls-10" d="M450.6,85.2l-8.9,6.5-15.9,3.4-25.5-19.4h-7.3l-5,8.5-20.2.9-9.8,9.8-4.3,23.3-21.3,1.5-20.7,10.7-4.8,16.5-22.9,1.7-20-4.8-2.1,3.4-16.7-4.8-5.9,3-7.4,24.5-6.3-1.7-2.7,11.3-11.5-3.3-2.5-7.7-13.6-9.7-17.7-1,.3-6.7-8.4-28.9-12.6,5.1-13-17.7-18.4-10.4-7.9,14-22.4-7.3-6-12.9-14.7-3.1-13.8,8.8-9.2-2.8-5.4,5.9-10.8-4.9-16.1-.5.9-9-6.1-6.7-5.2-16.3,5.4-11.3,21.2,1.3,12.4,16.4,11.9-.2,15.5-6,3,7.7,9.8-5.1,17,7.8,16.3.3,24.9,11.1,28.6,6.9,2.5,2.9,22.7,1.3,13.3-5.6,34.6-.9,26.6-15.8,7.2-9.9,21.5-16.3,17.7-8.3,11.9-1.4,7.9,4.6,28.6,7.7,11.7,6.5,18.8,2.9,8.2,7.3,13.7,3.3,29,13.4"/>
      <path class="cls-10" d="M356.1,274.2l1.8,1.5,14.1,20.6-6.2,8.3,1.1,16.5-7.6,1.7-.7,11.4-6.2,6.8-17-6.5-6.4-23.8,1.7-28.6,15.1-9.4,10.1,1.6"/>
      <path id="md6d1b4318e" class="cls-6" d="M367.4,319.1c2,0,3.9-.8,5.3-2.2,1.4-1.4,2.2-3.2,2.2-5.3s-.8-3.9-2.2-5.3-3.2-2.2-5.3-2.2-3.9.8-5.3,2.2c-1.4,1.4-2.2,3.2-2.2,5.3s.8,3.9,2.2,5.3c1.4,1.4,3.2,2.2,5.3,2.2Z"/>
      <path id="md6d1b4318e-2" class="cls-6" d="M366.9,247.6c2,0,3.9-.8,5.3-2.2s2.2-3.2,2.2-5.3-.8-3.9-2.2-5.3-3.2-2.2-5.3-2.2-3.9.8-5.3,2.2-2.2,3.2-2.2,5.3.8,3.9,2.2,5.3,3.2,2.2,5.3,2.2Z"/>
      <path id="m327b66077d" class="cls-6" d="M311,307.9c2,0,3.9-.8,5.3-2.2s2.2-3.2,2.2-5.3-.8-3.9-2.2-5.3-3.2-2.2-5.3-2.2-3.9.8-5.3,2.2c-1.4,1.4-2.2,3.2-2.2,5.3s.8,3.9,2.2,5.3c1.4,1.4,3.2,2.2,5.3,2.2Z"/>
      <path id="m327b66077d-2" class="cls-6" d="M311.3,303.9c2,0,3.9-.8,5.3-2.2s2.2-3.2,2.2-5.3-.8-3.9-2.2-5.3-3.2-2.2-5.3-2.2-3.9.8-5.3,2.2-2.2,3.2-2.2,5.3.8,3.9,2.2,5.3,3.2,2.2,5.3,2.2Z"/>
      <path id="m327b66077d-3" class="cls-6" d="M321.3,315c2,0,3.9-.8,5.3-2.2s2.2-3.2,2.2-5.3-.8-3.9-2.2-5.3-3.2-2.2-5.3-2.2-3.9.8-5.3,2.2-2.2,3.2-2.2,5.3.8,3.9,2.2,5.3c1.4,1.4,3.2,2.2,5.3,2.2Z"/>
      <path id="m327b66077d-4" class="cls-6" d="M356.2,298.3c2,0,3.9-.8,5.3-2.2,1.4-1.4,2.2-3.2,2.2-5.3s-.8-3.9-2.2-5.3-3.2-2.2-5.3-2.2-3.9.8-5.3,2.2c-1.4,1.4-2.2,3.2-2.2,5.3s.8,3.9,2.2,5.3c1.4,1.4,3.2,2.2,5.3,2.2Z"/>
      <path id="mba240b11f4" class="cls-4" d="M401.4,137.4c2,0,3.9-.8,5.3-2.2s2.2-3.2,2.2-5.3-.8-3.9-2.2-5.3-3.2-2.2-5.3-2.2-3.9.8-5.3,2.2-2.2,3.2-2.2,5.3.8,3.9,2.2,5.3,3.2,2.2,5.3,2.2Z"/>
      <path id="mba240b11f4-2" class="cls-6" d="M365.2,318.7c2,0,3.9-.8,5.3-2.2,1.4-1.4,2.2-3.2,2.2-5.3s-.8-3.9-2.2-5.3-3.2-2.2-5.3-2.2-3.9.8-5.3,2.2-2.2,3.2-2.2,5.3.8,3.9,2.2,5.3c1.4,1.4,3.2,2.2,5.3,2.2Z"/>
      <path id="mba240b11f4-3" class="cls-6" d="M316.9,306.2c2,0,3.9-.8,5.3-2.2,1.4-1.4,2.2-3.2,2.2-5.3s-.8-3.9-2.2-5.3-3.2-2.2-5.3-2.2-3.9.8-5.3,2.2-2.2,3.2-2.2,5.3.8,3.9,2.2,5.3,3.2,2.2,5.3,2.2Z"/>
      <path id="mba240b11f4-4" class="cls-6" d="M332.1,313.8c2,0,3.9-.8,5.3-2.2s2.2-3.2,2.2-5.3-.8-3.9-2.2-5.3-3.2-2.2-5.3-2.2-3.9.8-5.3,2.2c-1.4,1.4-2.2,3.2-2.2,5.3s.8,3.9,2.2,5.3,3.2,2.2,5.3,2.2Z"/>
      <path id="m79660698c4" class="cls-6" d="M314.7,300.4c2,0,3.9-.8,5.3-2.2s2.2-3.2,2.2-5.3-.8-3.9-2.2-5.3-3.2-2.2-5.3-2.2-3.9.8-5.3,2.2-2.2,3.2-2.2,5.3.8,3.9,2.2,5.3,3.2,2.2,5.3,2.2Z"/>
      <path id="m79660698c4-2" class="cls-6" d="M407.7,142c2,0,3.9-.8,5.3-2.2s2.2-3.2,2.2-5.3-.8-3.9-2.2-5.3-3.2-2.2-5.3-2.2-3.9.8-5.3,2.2-2.2,3.2-2.2,5.3.8,3.9,2.2,5.3,3.2,2.2,5.3,2.2Z"/>
      <path id="m79660698c4-3" class="cls-6" d="M401.6,137.6c2,0,3.9-.8,5.3-2.2s2.2-3.2,2.2-5.3-.8-3.9-2.2-5.3-3.2-2.2-5.3-2.2-3.9.8-5.3,2.2c-1.4,1.4-2.2,3.2-2.2,5.3s.8,3.9,2.2,5.3c1.4,1.4,3.2,2.2,5.3,2.2Z"/>
      <path id="m79660698c4-4" class="cls-6" d="M287.1,189.4c2,0,3.9-.8,5.3-2.2s2.2-3.2,2.2-5.3-.8-3.9-2.2-5.3-3.2-2.2-5.3-2.2-3.9.8-5.3,2.2-2.2,3.2-2.2,5.3.8,3.9,2.2,5.3,3.2,2.2,5.3,2.2Z"/>
      <path id="mbeca6032d2" class="cls-11" d="M290.4,379.1c1.2,0,2.5-.4,3.3-1.4.8-.8,1.4-2.1,1.4-3.3s-.4-2.5-1.4-3.3c-.8-.8-2.1-1.4-3.3-1.4s-2.5.4-3.3,1.4c-.8.8-1.4,2.1-1.4,3.3s.4,2.5,1.4,3.3c.8.8,2.1,1.4,3.3,1.4Z"/>
      <path id="mbeca6032d2-2" class="cls-11" d="M290.5,288.5c1.2,0,2.5-.4,3.3-1.4.8-.8,1.4-2.1,1.4-3.3s-.4-2.5-1.4-3.3c-.8-.8-2.1-1.4-3.3-1.4s-2.5.4-3.3,1.4c-.8.8-1.4,2.1-1.4,3.3s.4,2.5,1.4,3.3c.8.8,2.1,1.4,3.3,1.4Z"/>
      <text class="cls-15" transform="translate(97.4 289.8)"><tspan x="0" y="0">Tanah Lot Temple</tspan></text>
      <text class="cls-15" transform="translate(113.7 380.7)"><tspan x="0" y="0">Uluwatu Temple</tspan></text>
      <path id="DejaVuSans-50" class="cls-14" d="M938-59v3.3h1.5c.6,0,1,0,1.3-.4.3-.3.5-.7.5-1.2s-.2-.9-.5-1.2-.7-.4-1.3-.4h-1.5ZM936.8-60h2.7c1,0,1.7.2,2.2.7.5.4.8,1.1.8,1.9s-.3,1.5-.8,2c-.5.4-1.2.7-2.2.7h-1.5v3.5h-1.2v-8.7h0Z"/>
      <path id="DejaVuSans-72-2" class="cls-14" d="M947.6-56.8s-.3,0-.4-.2h-.5c-.6,0-1.1.2-1.4.6s-.5,1-.5,1.7v3.5h-1.1v-6.6h1.1v1c.2-.4.5-.7.9-.9s.8-.3,1.3-.3.2,0,.2,0h.3v1.1h.1Z"/>
      <path id="DejaVuSans-69-2" class="cls-14" d="M948.7-57.8h1.1v6.6h-1.1v-6.6ZM948.7-60.4h1.1v1.4h-1.1v-1.4Z"/>
      <path id="DejaVuSans-6d-5" class="cls-14" d="M957.1-56.6c.3-.5.6-.8,1-1.1s.8-.3,1.3-.3,1.2.2,1.6.7c.4.5.6,1.2.6,2v4h-1.1v-3.9c0-.6,0-1.1-.3-1.4-.2-.3-.6-.5-1-.5s-1,.2-1.3.6c-.3.4-.5.9-.5,1.5v3.7h-1.1v-3.9c0-.6,0-1.1-.3-1.4s-.6-.5-1-.5-1,.2-1.3.6c-.3.4-.5.9-.5,1.5v3.7h-1.1v-6.6h1.1v1c.2-.4.5-.7.9-.9s.8-.3,1.2-.3.9,0,1.2.4c.3.2.6.6.7,1.1h-.1Z"/>
      <path id="DejaVuSans-61-8" class="cls-14" d="M966.7-54.6c-.9,0-1.5,0-1.8.3s-.5.5-.5,1,0,.7.4.9c.3.2.6.3,1,.3s1.1-.2,1.4-.6.5-1,.5-1.7v-.2h-1.1,0ZM968.9-55v3.7h-1.1v-1c-.2.4-.6.7-.9.9-.4.2-.8.3-1.3.3s-1.2-.2-1.6-.6c-.4-.4-.6-.9-.6-1.5s.2-1.3.7-1.7,1.2-.6,2.2-.6h1.5c0-.6-.2-1-.5-1.3s-.8-.4-1.4-.4h-1.1c-.4,0-.7.2-1,.4v-1c.4-.2.8-.3,1.1-.3h1.1c1,0,1.7.2,2.1.7.5.5.7,1.2.7,2.2v.2h0Z"/>
      <path id="DejaVuSans-72-3" class="cls-14" d="M974.9-56.8s-.3,0-.4-.2h-.5c-.6,0-1.1.2-1.4.6s-.5,1-.5,1.7v3.5h-1.1v-6.6h1.1v1c.2-.4.5-.7.9-.9s.8-.3,1.3-.3.2,0,.2,0h.3v1.1h.1Z"/>
      <path id="DejaVuSans-79-2" class="cls-14" d="M978.7-50.7c-.3.8-.6,1.3-.9,1.5-.3.2-.7.4-1.2.4h-.9v-.9h.6c.3,0,.5,0,.7-.2.2,0,.3-.5.5-1l.2-.5-2.7-6.5h1.1l2.1,5.1,2.1-5.1h1.1l-2.9,7.2h.2Z"/>
      <path id="DejaVuSans-20-9" class="cls-14" d="M982-51.3"/>
      <path id="DejaVuSans-54-5" class="cls-14" d="M985.8-60h7.4v1h-3.1v7.8h-1.2v-7.8h-3.1v-1h0Z"/>
      <path id="DejaVuSans-68-3" class="cls-14" d="M999.7-55.2v4h-1.1v-3.9c0-.6,0-1.1-.4-1.4-.2-.3-.6-.5-1.1-.5s-1,.2-1.4.6c-.3.4-.5.9-.5,1.5v3.7h-1.1v-9.1h1.1v3.6c.3-.4.6-.7.9-.9.3-.2.8-.3,1.2-.3.8,0,1.3.2,1.7.7s.6,1.2.6,2.1h0Z"/>
      <path id="DejaVuSans-65-7" class="cls-14" d="M1007.5-54.8v.5h-5c0,.7.3,1.3.7,1.7s1,.6,1.7.6.8,0,1.2-.2.8-.3,1.2-.5v1c-.4.2-.8.3-1.2.4s-.8,0-1.2,0c-1,0-1.9-.3-2.5-.9-.6-.6-.9-1.4-.9-2.5s.3-1.9.9-2.6c.6-.6,1.4-.9,2.3-.9s1.6.3,2.1.9c.5.6.8,1.3.8,2.3h0v.2ZM1006.4-55.1c0-.6-.2-1.1-.5-1.4-.3-.4-.7-.5-1.3-.5s-1.1.2-1.4.5-.6.8-.6,1.4h3.8Z"/>
      <path id="DejaVuSans-6d-6" class="cls-14" d="M1014.4-56.6c.3-.5.6-.8,1-1.1s.8-.3,1.3-.3,1.2.2,1.6.7c.4.5.6,1.2.6,2v4h-1.1v-3.9c0-.6,0-1.1-.3-1.4-.2-.3-.6-.5-1-.5s-1,.2-1.3.6c-.3.4-.5.9-.5,1.5v3.7h-1.1v-3.9c0-.6,0-1.1-.3-1.4s-.6-.5-1-.5-1,.2-1.3.6c-.3.4-.5.9-.5,1.5v3.7h-1.1v-6.6h1.1v1c.2-.4.5-.7.9-.9s.8-.3,1.2-.3.9,0,1.2.4c.3.2.6.6.7,1.1h-.1Z"/>
      <path id="DejaVuSans-65-8" class="cls-14" d="M1026.6-54.8v.5h-5c0,.7.3,1.3.7,1.7s1,.6,1.7.6.8,0,1.2-.2.8-.3,1.2-.5v1c-.4.2-.8.3-1.2.4s-.8,0-1.2,0c-1,0-1.9-.3-2.5-.9-.6-.6-.9-1.4-.9-2.5s.3-1.9.9-2.6c.6-.6,1.4-.9,2.3-.9s1.6.3,2.1.9c.5.6.8,1.3.8,2.3h0v.2ZM1025.5-55.1c0-.6-.2-1.1-.5-1.4-.3-.4-.7-.5-1.3-.5s-1.1.2-1.4.5-.6.8-.6,1.4h3.8Z"/>
      <path id="md6d1b4318e-3" class="cls-12" d="M924.7-34.3c.9,0,1.8-.4,2.5-1s1-1.6,1-2.5-.4-1.8-1-2.5-1.6-1-2.5-1-1.8.4-2.5,1-1,1.6-1,2.5.4,1.8,1,2.5,1.6,1,2.5,1Z"/>
      <path id="DejaVuSans-63" class="cls-14" d="M949.9-40.7v.9c-.3-.2-.6-.3-.8-.3h-.9c-.6,0-1.1.2-1.5.6-.4.4-.5,1-.5,1.7s.2,1.3.5,1.7c.4.4.9.6,1.5.6h.9c.3,0,.6-.2.8-.3v.9c-.3,0-.6.2-.9.3h-.9c-.9,0-1.6-.3-2.2-.9-.5-.6-.8-1.3-.8-2.3s.3-1.8.8-2.3c.5-.6,1.3-.8,2.2-.8h.9c.3,0,.6.2.8.3h.1Z"/>
      <path id="DejaVuSans-6f-2" class="cls-14" d="M953.9-40.2c-.5,0-.9.2-1.3.6s-.5,1-.5,1.7.2,1.3.5,1.7.7.6,1.3.6.9-.2,1.3-.6c.3-.4.5-1,.5-1.7s-.2-1.3-.5-1.7-.7-.6-1.3-.6ZM953.9-41.1c.9,0,1.5.3,2,.8.5.6.7,1.3.7,2.3s-.2,1.8-.7,2.3c-.5.6-1.2.8-2,.8s-1.5-.3-2-.8c-.5-.6-.7-1.3-.7-2.3s.2-1.8.7-2.3c.5-.6,1.2-.8,2-.8Z"/>
      <path id="DejaVuSans-6d-7" class="cls-14" d="M963-39.8c.2-.4.5-.8.9-1s.7-.3,1.2-.3,1.1.2,1.5.7c.3.4.5,1.1.5,1.9v3.6h-1v-3.6c0-.6,0-1-.3-1.3s-.5-.4-.9-.4-.9.2-1.2.5-.4.8-.4,1.4v3.4h-1v-3.6c0-.6,0-1-.3-1.3s-.5-.4-.9-.4-.9.2-1.2.5-.4.8-.4,1.4v3.4h-1v-6h1v.9c.2-.4.5-.6.8-.8s.7-.3,1.1-.3.8,0,1.1.3.5.5.7,1h-.2,0Z"/>
      <path id="DejaVuSans-6d-8" class="cls-14" d="M973.7-39.8c.2-.4.5-.8.9-1s.7-.3,1.2-.3,1.1.2,1.5.7c.3.4.5,1.1.5,1.9v3.6h-1v-3.6c0-.6,0-1-.3-1.3s-.5-.4-.9-.4-.9.2-1.2.5-.4.8-.4,1.4v3.4h-1v-3.6c0-.6,0-1-.3-1.3s-.5-.4-.9-.4-.9.2-1.2.5-.4.8-.4,1.4v3.4h-1v-6h1v.9c.2-.4.5-.6.8-.8s.7-.3,1.1-.3.8,0,1.1.3.5.5.7,1h-.2,0Z"/>
      <path id="DejaVuSans-75-3" class="cls-14" d="M979.7-37.3v-3.6h1v3.6c0,.6,0,1,.3,1.3s.6.4,1,.4,1-.2,1.3-.5.5-.8.5-1.4v-3.4h1v6h-1v-.9c-.2.4-.5.6-.8.8s-.7.3-1.1.3c-.7,0-1.2-.2-1.6-.6-.4-.4-.5-1.1-.5-1.9h-.1ZM982.1-41.1h0Z"/>
      <path id="DejaVuSans-6e-3" class="cls-14" d="M991.7-38.6v3.6h-1v-3.6c0-.6,0-1-.3-1.3s-.6-.4-1-.4-1,.2-1.3.5-.5.8-.5,1.4v3.4h-1v-6h1v.9c.2-.4.5-.6.8-.8s.7-.3,1.1-.3c.7,0,1.2.2,1.6.6.4.4.5,1.1.5,1.9h.1Z"/>
      <path id="DejaVuSans-69-3" class="cls-14" d="M993.7-40.9h1v6h-1v-6ZM993.7-43.3h1v1.3h-1v-1.3Z"/>
      <path id="DejaVuSans-74-4" class="cls-14" d="M997.7-42.6v1.7h2v.8h-2v3.3c0,.5,0,.8.2.9s.4.2.8.2h1v.8h-1c-.8,0-1.3,0-1.6-.4-.3-.3-.4-.8-.4-1.6v-3.3h-.7v-.8h.7v-1.7h1Z"/>
      <path id="DejaVuSans-79-3" class="cls-14" d="M1003.6-34.4c-.3.7-.6,1.2-.8,1.4-.3.2-.6.3-1.1.3h-.8v-.8h.6c.3,0,.5,0,.6-.2.2,0,.3-.4.5-.9l.2-.5-2.4-5.9h1l1.9,4.7,1.9-4.7h1l-2.6,6.6h0Z"/>
      <path id="DejaVuSans-5f" class="cls-14" d="M1012.1-33.1v.8h-5.7v-.8h5.7Z"/>
      <path id="DejaVuSans-65-9" class="cls-14" d="M1018.2-38.2v.5h-4.5c0,.7.2,1.2.6,1.6.4.4.9.5,1.5.5h1.1c.4,0,.7-.2,1.1-.4v.9c-.4.2-.7.3-1.1.3h-1.1c-1,0-1.7-.3-2.3-.8-.6-.6-.8-1.3-.8-2.3s.3-1.8.8-2.3c.5-.6,1.2-.9,2.2-.9s1.4.3,1.9.8.7,1.2.7,2.1h-.1ZM1017.2-38.5c0-.5-.2-1-.5-1.3s-.7-.5-1.2-.5-1,.2-1.3.5-.5.8-.6,1.3h3.6Z"/>
      <path id="DejaVuSans-76" class="cls-14" d="M1019.1-40.9h1l1.9,5,1.9-5h1l-2.3,6h-1.3l-2.3-6h0Z"/>
      <path id="DejaVuSans-65-10" class="cls-14" d="M1031.5-38.2v.5h-4.5c0,.7.2,1.2.6,1.6.4.4.9.5,1.5.5h1.1c.4,0,.7-.2,1.1-.4v.9c-.4.2-.7.3-1.1.3h-1.1c-1,0-1.7-.3-2.3-.8-.6-.6-.8-1.3-.8-2.3s.3-1.8.8-2.3c.5-.6,1.2-.9,2.2-.9s1.4.3,1.9.8.7,1.2.7,2.1h0ZM1030.5-38.5c0-.5-.2-1-.5-1.3s-.7-.5-1.2-.5-1,.2-1.3.5-.5.8-.6,1.3h3.6Z"/>
      <path id="DejaVuSans-6e-4" class="cls-14" d="M1038.1-38.6v3.6h-1v-3.6c0-.6,0-1-.3-1.3s-.6-.4-1-.4-1,.2-1.3.5-.5.8-.5,1.4v3.4h-1v-6h1v.9c.2-.4.5-.6.8-.8s.7-.3,1.1-.3c.7,0,1.2.2,1.6.6.4.4.5,1.1.5,1.9h.1Z"/>
      <path id="DejaVuSans-74-5" class="cls-14" d="M1041.1-42.6v1.7h2v.8h-2v3.3c0,.5,0,.8.2.9s.4.2.8.2h1v.8h-1c-.8,0-1.3,0-1.6-.4-.3-.3-.4-.8-.4-1.6v-3.3h-.7v-.8h.7v-1.7h1Z"/>
      <path id="DejaVuSans-73-3" class="cls-14" d="M1048.2-40.8v.9c-.3,0-.6-.3-.9-.3h-.9c-.5,0-.9,0-1.1.2s-.4.4-.4.7,0,.4.3.5.5.3,1.1.4h.3c.7.2,1.2.4,1.5.7s.4.7.4,1.1-.2,1-.7,1.3c-.4.3-1.1.5-1.8.5h-1c-.3,0-.7-.2-1.1-.3v-1c.4.2.7.3,1.1.4h1.1c.4,0,.8,0,1.1-.2s.4-.4.4-.7,0-.5-.3-.6c-.2,0-.6-.3-1.2-.4h-.3c-.6-.2-1.1-.4-1.3-.7-.3-.3-.4-.6-.4-1.1s.2-1,.6-1.3,1-.5,1.7-.5h1c.3,0,.6,0,.9.2v.2h0Z"/>
      <path id="m327b66077d-5" class="cls-9" d="M924.7-17.8c.9,0,1.8-.4,2.5-1s1-1.6,1-2.5-.4-1.8-1-2.5-1.6-1-2.5-1-1.8.4-2.5,1-1,1.6-1,2.5.4,1.8,1,2.5,1.6,1,2.5,1Z"/>
      <path id="DejaVuSans-64" class="cls-14" d="M949.5-23.6v-3.3h1v8.4h-1v-.9c-.2.4-.5.6-.8.8s-.7.3-1.1.3c-.7,0-1.3-.3-1.8-.9s-.7-1.3-.7-2.3.2-1.7.7-2.3,1-.9,1.8-.9.8,0,1.1.3c.3.2.6.4.8.8h0ZM946.1-21.5c0,.7,0,1.3.4,1.7.3.4.7.6,1.2.6s.9-.2,1.2-.6.5-1,.5-1.7-.2-1.3-.5-1.7-.7-.6-1.2-.6-.9.2-1.2.6-.4,1-.4,1.7Z"/>
      <path id="DejaVuSans-65-11" class="cls-14" d="M957.7-21.7v.5h-4.5c0,.7.2,1.2.6,1.6.4.4.9.5,1.5.5s.7,0,1.1-.1.7-.2,1.1-.4v.9c-.4.2-.7.3-1.1.3s-.7.1-1.1.1c-1,0-1.7-.3-2.3-.8-.6-.6-.8-1.3-.8-2.3s.3-1.8.8-2.3c.5-.6,1.2-.9,2.2-.9s1.4.3,1.9.8.7,1.2.7,2.1h-.1ZM956.7-22c0-.5-.2-1-.5-1.3s-.7-.5-1.2-.5-1,.2-1.3.5-.5.8-.6,1.3h3.6Z"/>
      <path id="DejaVuSans-73-4" class="cls-14" d="M963.1-24.3v.9c-.3-.1-.6-.3-.9-.3s-.6-.1-.9-.1c-.5,0-.9,0-1.1.2-.2.2-.4.4-.4.7s0,.4.3.5.5.3,1.1.4h.3c.7.2,1.2.4,1.5.7s.4.7.4,1.1-.2,1-.7,1.3c-.4.3-1.1.5-1.8.5h-1c-.3,0-.7-.2-1.1-.3v-1c.4.2.7.3,1.1.4.4,0,.7.1,1.1.1s.8,0,1.1-.2.4-.4.4-.7,0-.5-.3-.6c-.2-.1-.6-.3-1.2-.4h-.3c-.6-.2-1.1-.4-1.3-.7-.3-.3-.4-.6-.4-1.1s.2-1,.6-1.3c.4-.3,1-.5,1.7-.5h1c.3,0,.6.1.9.2v.2h0Z"/>
      <path id="DejaVuSans-69-4" class="cls-14" d="M965-24.5h1v6h-1v-6ZM965-26.8h1v1.3h-1v-1.3Z"/>
      <path id="DejaVuSans-67-2" class="cls-14" d="M972-21.5c0-.7,0-1.3-.4-1.7-.3-.4-.7-.6-1.2-.6s-.9.2-1.2.6-.4.9-.4,1.7,0,1.3.4,1.7c.3.4.7.6,1.2.6s.9-.2,1.2-.6.4-.9.4-1.7ZM973-19.2c0,1-.2,1.8-.7,2.3s-1.1.7-2.1.7h-1c-.3,0-.6-.1-.9-.2v-1c.3.2.6.3.9.3s.6.1.9.1c.6,0,1.1-.2,1.5-.5.3-.3.5-.8.5-1.5v-.5c-.2.4-.5.6-.8.8s-.7.3-1.1.3c-.7,0-1.3-.3-1.8-.8-.5-.6-.7-1.3-.7-2.2s.2-1.7.7-2.2c.5-.6,1-.8,1.8-.8s.8,0,1.1.3.6.4.8.8v-.9h1v5.3-.3h-.1Z"/>
      <path id="DejaVuSans-6e-5" class="cls-14" d="M980.1-22.1v3.6h-1v-3.6c0-.6,0-1-.3-1.3s-.6-.4-1-.4-1,.2-1.3.5-.5.8-.5,1.4v3.4h-1v-6h1v.9c.2-.4.5-.6.8-.8s.7-.3,1.1-.3c.7,0,1.2.2,1.6.6.4.4.5,1.1.5,1.9h.1Z"/>
      <path id="DejaVuSans-5f-2" class="cls-14" d="M986.6-16.6v.8h-5.7v-.8h5.7Z"/>
      <path id="DejaVuSans-6d-9" class="cls-14" d="M992.2-23.3c.2-.4.5-.8.9-1s.7-.3,1.2-.3,1.1.2,1.5.7c.3.4.5,1.1.5,1.9v3.6h-1v-3.6c0-.6,0-1-.3-1.3s-.5-.4-.9-.4-.9.2-1.2.5-.4.8-.4,1.4v3.4h-1v-3.6c0-.6,0-1-.3-1.3s-.5-.4-.9-.4-.9.2-1.2.5-.4.8-.4,1.4v3.4h-1v-6h1v.9c.2-.4.5-.6.8-.8s.7-.3,1.1-.3.8.1,1.1.3.5.5.7,1h-.2,0Z"/>
      <path id="DejaVuSans-69-5" class="cls-14" d="M998.3-24.5h1v6h-1v-6ZM998.3-26.8h1v1.3h-1v-1.3Z"/>
      <path id="DejaVuSans-6e-6" class="cls-14" d="M1006.3-22.1v3.6h-1v-3.6c0-.6,0-1-.3-1.3s-.6-.4-1-.4-1,.2-1.3.5-.5.8-.5,1.4v3.4h-1v-6h1v.9c.2-.4.5-.6.8-.8s.7-.3,1.1-.3c.7,0,1.2.2,1.6.6.4.4.5,1.1.5,1.9h.1Z"/>
      <path id="DejaVuSans-69-6" class="cls-14" d="M1008.3-24.5h1v6h-1v-6ZM1008.3-26.8h1v1.3h-1v-1.3Z"/>
      <path id="DejaVuSans-6d-10" class="cls-14" d="M1016-23.3c.2-.4.5-.8.9-1s.7-.3,1.2-.3,1.1.2,1.5.7c.3.4.5,1.1.5,1.9v3.6h-1v-3.6c0-.6,0-1-.3-1.3s-.5-.4-.9-.4-.9.2-1.2.5-.4.8-.4,1.4v3.4h-1v-3.6c0-.6,0-1-.3-1.3s-.5-.4-.9-.4-.9.2-1.2.5-.4.8-.4,1.4v3.4h-1v-6h1v.9c.2-.4.5-.6.8-.8s.7-.3,1.1-.3.8.1,1.1.3.5.5.7,1h-.2,0Z"/>
      <path id="DejaVuSans-61-9" class="cls-14" d="M1024.8-21.5c-.8,0-1.4,0-1.7.3s-.5.5-.5.9,0,.6.3.8.5.3.9.3,1-.2,1.3-.6.5-.9.5-1.5v-.2h-1s.2,0,.2,0ZM1026.8-21.9v3.4h-1v-.9c-.2.4-.5.6-.8.8s-.7.3-1.2.3-1.1-.2-1.5-.5-.5-.8-.5-1.4.2-1.2.7-1.5,1.1-.5,2-.5h1.4c0-.6,0-.9-.4-1.2s-.7-.4-1.3-.4-.7,0-1,.1c-.3,0-.6.2-.9.4v-.9c.4-.1.7-.2,1.1-.3.3,0,.7-.1,1-.1.9,0,1.5.2,2,.7.4.5.6,1.1.6,2.1h-.2,0Z"/>
      <path id="DejaVuSans-6c-5" class="cls-14" d="M1028.8-26.8h1v8.4h-1v-8.4Z"/>
      <path id="mba240b11f4-5" class="cls-3" d="M924.7-1.4c.9,0,1.8-.4,2.5-1s1-1.6,1-2.5-.4-1.8-1-2.5-1.6-1-2.5-1-1.8.4-2.5,1-1,1.6-1,2.5.4,1.8,1,2.5,1.6,1,2.5,1Z"/>
      <path id="DejaVuSans-68-4" class="cls-14" d="M950.5-5.6v3.6h-1v-3.6c0-.6,0-1-.3-1.3s-.6-.4-1-.4-1,.2-1.3.5-.5.8-.5,1.4v3.4h-1v-8.4h1v3.3c.2-.4.5-.6.8-.8.3-.2.7-.3,1.1-.3.7,0,1.2.2,1.6.6.4.4.5,1.1.5,1.9h.1Z"/>
      <path id="DejaVuSans-6f-3" class="cls-14" d="M954.8-7.3c-.5,0-.9.2-1.3.6s-.5,1-.5,1.7.2,1.3.5,1.7.7.6,1.3.6.9-.2,1.3-.6c.3-.4.5-1,.5-1.7s-.2-1.3-.5-1.7-.7-.6-1.3-.6ZM954.8-8.2c.9,0,1.5.3,2,.8.5.6.7,1.3.7,2.3s-.2,1.8-.7,2.3c-.5.6-1.2.8-2,.8s-1.5-.3-2-.8c-.5-.6-.7-1.3-.7-2.3s.2-1.8.7-2.3c.5-.6,1.2-.8,2-.8Z"/>
      <path id="DejaVuSans-6d-11" class="cls-14" d="M963.9-6.9c.2-.4.5-.8.9-1,.4-.2.7-.3,1.2-.3s1.1.2,1.5.7c.3.4.5,1.1.5,1.9v3.6h-1v-3.6c0-.6,0-1-.3-1.3s-.5-.4-.9-.4-.9.2-1.2.5-.4.8-.4,1.4v3.4h-1v-3.6c0-.6,0-1-.3-1.3s-.5-.4-.9-.4-.9.2-1.2.5-.4.8-.4,1.4v3.4h-1v-6h1v.9c.2-.4.5-.6.8-.8s.7-.3,1.1-.3.8.1,1.1.3.5.5.7,1h-.2,0Z"/>
      <path id="DejaVuSans-65-12" class="cls-14" d="M975.1-5.3v.5h-4.5c0,.7.2,1.2.6,1.6.4.4.9.5,1.5.5h1.1c.4,0,.7-.2,1.1-.4v.9c-.4.2-.7.3-1.1.3s-.7.1-1.1.1c-1,0-1.7-.3-2.3-.8-.6-.6-.8-1.3-.8-2.3s.3-1.8.8-2.3c.5-.6,1.2-.9,2.2-.9s1.4.3,1.9.8.7,1.2.7,2.1h-.1ZM974.1-5.6c0-.5-.2-1-.5-1.3s-.7-.5-1.2-.5-1,.2-1.3.5-.5.8-.6,1.3c0,0,3.6,0,3.6,0Z"/>
      <path id="DejaVuSans-6d-12" class="cls-14" d="M981.4-6.9c.2-.4.5-.8.9-1,.4-.2.7-.3,1.2-.3s1.1.2,1.5.7c.3.4.5,1.1.5,1.9v3.6h-1v-3.6c0-.6,0-1-.3-1.3s-.5-.4-.9-.4-.9.2-1.2.5-.4.8-.4,1.4v3.4h-1v-3.6c0-.6,0-1-.3-1.3s-.5-.4-.9-.4-.9.2-1.2.5-.4.8-.4,1.4v3.4h-1v-6h1v.9c.2-.4.5-.6.8-.8s.7-.3,1.1-.3.8.1,1.1.3.5.5.7,1h-.2,0Z"/>
      <path id="DejaVuSans-61-10" class="cls-14" d="M990.2-5c-.8,0-1.4,0-1.7.3s-.5.5-.5.9,0,.6.3.8.5.3.9.3,1-.2,1.3-.6.5-.9.5-1.5v-.2h-1s.2,0,.2,0ZM992.2-5.4v3.4h-1v-.9c-.2.4-.5.6-.8.8s-.7.3-1.2.3-1.1-.2-1.5-.5-.5-.8-.5-1.4.2-1.2.7-1.5,1.1-.5,2-.5h1.4c0-.6,0-.9-.4-1.2s-.7-.4-1.3-.4h-1c-.3,0-.6.2-.9.4v-.9c.4,0,.7-.2,1.1-.3.3,0,.7-.1,1-.1.9,0,1.5.2,2,.7.4.5.6,1.1.6,2.1h-.2,0Z"/>
      <path id="DejaVuSans-64-2" class="cls-14" d="M998.1-7.1v-3.3h1V-2h-1v-.9c-.2.4-.5.6-.8.8s-.7.3-1.1.3c-.7,0-1.3-.3-1.8-.9-.5-.6-.7-1.3-.7-2.3s.2-1.7.7-2.3,1-.9,1.8-.9.8,0,1.1.3c.3.2.6.4.8.8h0ZM994.8-5c0,.7,0,1.3.4,1.7.3.4.7.6,1.2.6s.9-.2,1.2-.6c.3-.4.5-1,.5-1.7s-.2-1.3-.5-1.7-.7-.6-1.2-.6-.9.2-1.2.6-.4,1-.4,1.7Z"/>
      <path id="DejaVuSans-65-13" class="cls-14" d="M1006.3-5.3v.5h-4.5c0,.7.2,1.2.6,1.6.4.4.9.5,1.5.5h1.1c.4,0,.7-.2,1.1-.4v.9c-.4.2-.7.3-1.1.3s-.7.1-1.1.1c-1,0-1.7-.3-2.3-.8-.6-.6-.8-1.3-.8-2.3s.3-1.8.8-2.3c.5-.6,1.2-.9,2.2-.9s1.4.3,1.9.8.7,1.2.7,2.1h-.1ZM1005.3-5.6c0-.5-.2-1-.5-1.3s-.7-.5-1.2-.5-1,.2-1.3.5-.5.8-.6,1.3c0,0,3.6,0,3.6,0Z"/>
      <path id="DejaVuSans-5f-3" class="cls-14" d="M1012.5-.2v.8h-5.7V-.2h5.7Z"/>
      <path id="DejaVuSans-62-2" class="cls-14" d="M1017.8-5c0-.7,0-1.3-.4-1.7s-.7-.6-1.2-.6-.9.2-1.2.6-.4,1-.4,1.7,0,1.3.4,1.7c.3.4.7.6,1.2.6s.9-.2,1.2-.6c.3-.4.4-1,.4-1.7ZM1014.4-7.1c.2-.4.5-.6.8-.8s.7-.3,1.1-.3c.7,0,1.3.3,1.8.9s.7,1.3.7,2.3-.2,1.7-.7,2.3-1,.9-1.8.9-.8,0-1.1-.3c-.3-.2-.6-.4-.8-.8v.9h-1v-8.4h1v3.3h0Z"/>
      <path id="DejaVuSans-61-11" class="cls-14" d="M1023.2-5c-.8,0-1.4,0-1.7.3s-.5.5-.5.9,0,.6.3.8.5.3.9.3,1-.2,1.3-.6.5-.9.5-1.5v-.2h-1s.2,0,.2,0ZM1025.1-5.4v3.4h-1v-.9c-.2.4-.5.6-.8.8s-.7.3-1.2.3-1.1-.2-1.5-.5-.5-.8-.5-1.4.2-1.2.7-1.5,1.1-.5,2-.5h1.4c0-.6,0-.9-.4-1.2s-.7-.4-1.3-.4h-1c-.3,0-.6.2-.9.4v-.9c.4,0,.7-.2,1.1-.3.3,0,.7-.1,1-.1.9,0,1.5.2,2,.7.4.5.6,1.1.6,2.1,0,0-.2,0-.2,0Z"/>
      <path id="DejaVuSans-6b" class="cls-14" d="M1027.1-10.4h1v4.9l2.9-2.6h1.3l-3.2,2.8,3.3,3.2h-1.3l-3.1-2.9v2.9h-1v-8.4h0Z"/>
      <path id="DejaVuSans-65-14" class="cls-14" d="M1038.3-5.3v.5h-4.5c0,.7.2,1.2.6,1.6.4.4.9.5,1.5.5h1.1c.4,0,.7-.2,1.1-.4v.9c-.4.2-.7.3-1.1.3s-.7.1-1.1.1c-1,0-1.7-.3-2.3-.8-.6-.6-.8-1.3-.8-2.3s.3-1.8.8-2.3c.5-.6,1.2-.9,2.2-.9s1.4.3,1.9.8.7,1.2.7,2.1h0ZM1037.3-5.6c0-.5-.2-1-.5-1.3s-.7-.5-1.2-.5-1,.2-1.3.5-.5.8-.6,1.3c0,0,3.6,0,3.6,0Z"/>
      <path id="DejaVuSans-73-5" class="cls-14" d="M1043.7-7.9v.9c-.3,0-.6-.3-.9-.3h-.9c-.5,0-.9,0-1.1.2s-.4.4-.4.7,0,.4.3.5.5.3,1.1.4h.3c.7.2,1.2.4,1.5.7s.4.7.4,1.1-.2,1-.7,1.3c-.4.3-1.1.5-1.8.5h-1c-.3,0-.7-.2-1.1-.3v-1c.4.2.7.3,1.1.4h1.1c.4,0,.8,0,1.1-.2s.4-.4.4-.7,0-.5-.3-.6c-.2,0-.6-.3-1.2-.4h-.3c-.6-.2-1.1-.4-1.3-.7-.3-.3-.4-.6-.4-1.1s.2-1,.6-1.3c.4-.3,1-.5,1.7-.5h1c.3,0,.6.1.9.2v.2h0Z"/>
      <path id="mcc503cafa1-50" class="cls-7" d="M924.7,15.1c.9,0,1.8-.4,2.5-1s1-1.6,1-2.5-.4-1.8-1-2.5-1.6-1-2.5-1-1.8.4-2.5,1-1,1.6-1,2.5.4,1.8,1,2.5,1.6,1,2.5,1Z"/>
      <path id="DejaVuSans-6d-13" class="cls-14" d="M950.2,9.6c.2-.4.5-.8.9-1s.7-.3,1.2-.3,1.1.2,1.5.7c.3.4.5,1.1.5,1.9v3.6h-1v-3.6c0-.6,0-1-.3-1.3s-.5-.4-.9-.4-.9.2-1.2.5-.4.8-.4,1.4v3.4h-1v-3.6c0-.6,0-1-.3-1.3s-.5-.4-.9-.4-.9.2-1.2.5-.4.8-.4,1.4v3.4h-1v-6h1v.9c.2-.4.5-.6.8-.8s.7-.3,1.1-.3.8.1,1.1.3.5.5.7,1h-.2,0Z"/>
      <path id="DejaVuSans-75-4" class="cls-14" d="M956.2,12.1v-3.6h1v3.6c0,.6,0,1,.3,1.3s.6.4,1,.4,1-.2,1.3-.5.5-.8.5-1.4v-3.4h1v6h-1v-.9c-.2.4-.5.6-.8.8s-.7.3-1.1.3c-.7,0-1.2-.2-1.6-.6-.4-.4-.5-1.1-.5-1.9h-.1ZM958.6,8.3h0Z"/>
      <path id="DejaVuSans-6c-6" class="cls-14" d="M963.2,6.1h1v8.4h-1V6.1Z"/>
      <path id="DejaVuSans-74-6" class="cls-14" d="M967.3,6.7v1.7h2v.8h-2v3.3c0,.5,0,.8.2.9s.4.2.8.2h1v.8h-1c-.8,0-1.3,0-1.6-.4s-.4-.8-.4-1.6v-3.3h-.7v-.8h.7v-1.7h1Z"/>
      <path id="DejaVuSans-69-7" class="cls-14" d="M970.6,8.4h1v6h-1v-6ZM970.6,6.1h1v1.3h-1s0-1.3,0-1.3Z"/>
      <path id="DejaVuSans-5f-4" class="cls-14" d="M978.2,16.3v.8h-5.7v-.8h5.7Z"/>
      <path id="DejaVuSans-6c-7" class="cls-14" d="M979.2,6.1h1v8.4h-1V6.1Z"/>
      <path id="DejaVuSans-6f-4" class="cls-14" d="M984.5,9.1c-.5,0-.9.2-1.3.6s-.5,1-.5,1.7.2,1.3.5,1.7.7.6,1.3.6.9-.2,1.3-.6c.3-.4.5-1,.5-1.7s-.2-1.3-.5-1.7-.7-.6-1.3-.6ZM984.5,8.3c.9,0,1.5.3,2,.8.5.6.7,1.3.7,2.3s-.2,1.8-.7,2.3c-.5.6-1.2.8-2,.8s-1.5-.3-2-.8c-.5-.6-.7-1.3-.7-2.3s.2-1.8.7-2.3c.5-.6,1.2-.8,2-.8Z"/>
      <path id="DejaVuSans-63-2" class="cls-14" d="M993.3,8.6v.9c-.3-.2-.6-.3-.8-.3h-.9c-.6,0-1.1.2-1.5.6s-.5,1-.5,1.7.2,1.3.5,1.7c.4.4.9.6,1.5.6h.9c.3,0,.6-.2.8-.3v.9c-.3,0-.6.2-.9.3h-.9c-.9,0-1.6-.3-2.2-.9-.5-.6-.8-1.3-.8-2.3s.3-1.8.8-2.3c.5-.6,1.3-.8,2.2-.8h.9c.3,0,.6.2.8.3h.1Z"/>
      <path id="DejaVuSans-61-12" class="cls-14" d="M997.7,11.4c-.8,0-1.4,0-1.7.3s-.5.5-.5.9,0,.6.3.8c.2.2.5.3.9.3s1-.2,1.3-.6.5-.9.5-1.5v-.2h-1,.2ZM999.7,11v3.4h-1v-.9c-.2.4-.5.6-.8.8s-.7.3-1.2.3-1.1-.2-1.5-.5-.5-.8-.5-1.4.2-1.2.7-1.5,1.1-.5,2-.5h1.4c0-.6,0-.9-.4-1.2s-.7-.4-1.3-.4h-1c-.3,0-.6.2-.9.4v-.9c.4-.1.7-.2,1.1-.3.3,0,.7-.1,1-.1.9,0,1.5.2,2,.7.4.5.6,1.1.6,2.1h-.2,0Z"/>
      <path id="DejaVuSans-74-7" class="cls-14" d="M1002.7,6.7v1.7h2v.8h-2v3.3c0,.5,0,.8.2.9s.4.2.8.2h1v.8h-1c-.8,0-1.3,0-1.6-.4s-.4-.8-.4-1.6v-3.3h-.7v-.8h.7v-1.7h1Z"/>
      <path id="DejaVuSans-69-8" class="cls-14" d="M1006,8.4h1v6h-1v-6ZM1006,6.1h1v1.3h-1s0-1.3,0-1.3Z"/>
      <path id="DejaVuSans-6f-5" class="cls-14" d="M1011.4,9.1c-.5,0-.9.2-1.3.6s-.5,1-.5,1.7.2,1.3.5,1.7.7.6,1.3.6.9-.2,1.3-.6c.3-.4.5-1,.5-1.7s-.2-1.3-.5-1.7-.7-.6-1.3-.6ZM1011.4,8.3c.9,0,1.5.3,2,.8.5.6.7,1.3.7,2.3s-.2,1.8-.7,2.3c-.5.6-1.2.8-2,.8s-1.5-.3-2-.8c-.5-.6-.7-1.3-.7-2.3s.2-1.8.7-2.3c.5-.6,1.2-.8,2-.8Z"/>
      <path id="DejaVuSans-6e-7" class="cls-14" d="M1020.8,10.8v3.6h-1v-3.6c0-.6,0-1-.3-1.3s-.6-.4-1-.4-1,.2-1.3.5-.5.8-.5,1.4v3.4h-1v-6h1v.9c.2-.4.5-.6.8-.8s.7-.3,1.1-.3c.7,0,1.2.2,1.6.6.4.4.5,1.1.5,1.9h.1Z"/>
      <path id="m79660698c4-5" class="cls-8" d="M924.7,31.5c.9,0,1.8-.4,2.5-1s1-1.6,1-2.5-.4-1.8-1-2.5-1.6-1-2.5-1-1.8.4-2.5,1-1,1.6-1,2.5.4,1.8,1,2.5,1.6,1,2.5,1Z"/>
      <path id="DejaVuSans-6f-6" class="cls-14" d="M947.9,25.6c-.5,0-.9.2-1.3.6s-.5,1-.5,1.7.2,1.3.5,1.7c.3.4.7.6,1.3.6s.9-.2,1.3-.6c.3-.4.5-1,.5-1.7s-.2-1.3-.5-1.7c-.3-.4-.7-.6-1.3-.6ZM947.9,24.7c.9,0,1.5.3,2,.8.5.6.7,1.3.7,2.3s-.2,1.8-.7,2.3c-.5.6-1.2.8-2,.8s-1.5-.3-2-.8c-.5-.6-.7-1.3-.7-2.3s.2-1.8.7-2.3c.5-.6,1.2-.8,2-.8Z"/>
      <path id="DejaVuSans-72-4" class="cls-14" d="M955.8,25.8h-.8c-.6,0-1,.2-1.3.5s-.4.9-.4,1.6v3.2h-1v-6h1v.9c.2-.4.5-.6.8-.8.3-.2.7-.3,1.2-.3s0,0,.2,0h.3v1h0Z"/>
      <path id="DejaVuSans-69-9" class="cls-14" d="M956.8,24.9h1v6h-1v-6ZM956.8,22.5h1v1.3h-1v-1.3Z"/>
      <path id="DejaVuSans-67-3" class="cls-14" d="M963.8,27.8c0-.7,0-1.3-.4-1.7-.3-.4-.7-.6-1.2-.6s-.9.2-1.2.6-.4.9-.4,1.7,0,1.3.4,1.7c.3.4.7.6,1.2.6s.9-.2,1.2-.6.4-.9.4-1.7ZM964.8,30.1c0,1-.2,1.8-.7,2.3-.5.5-1.1.7-2.1.7h-1c-.3,0-.6,0-.9-.2v-1c.3.2.6.3.9.3h.9c.6,0,1.1-.2,1.5-.5.3-.3.5-.8.5-1.5v-.5c-.2.4-.5.6-.8.8s-.7.3-1.1.3c-.7,0-1.3-.3-1.8-.8-.5-.6-.7-1.3-.7-2.2s.2-1.7.7-2.2c.5-.6,1-.8,1.8-.8s.8,0,1.1.3.6.4.8.8v-.9h1v5.3-.3h-.1Z"/>
      <path id="DejaVuSans-69-10" class="cls-14" d="M966.8,24.9h1v6h-1v-6ZM966.8,22.5h1v1.3h-1v-1.3Z"/>
      <path id="DejaVuSans-6e-8" class="cls-14" d="M974.9,27.3v3.6h-1v-3.6c0-.6,0-1-.3-1.3s-.6-.4-1-.4-1,.2-1.3.5-.5.8-.5,1.4v3.4h-1v-6h1v.9c.2-.4.5-.6.8-.8.3-.2.7-.3,1.1-.3.7,0,1.2.2,1.6.6.4.4.5,1.1.5,1.9h.1Z"/>
      <path id="DejaVuSans-5f-5" class="cls-14" d="M981.4,32.7v.8h-5.7v-.8h5.7Z"/>
      <path id="DejaVuSans-66-2" class="cls-14" d="M985.4,22.5v.8h-.9c-.4,0-.6,0-.7.2,0,0-.2.4-.2.8v.5h1.6v.8h-1.6v5.2h-1v-5.2h-.9v-.8h.9v-.4c0-.7.2-1.2.5-1.5s.8-.5,1.5-.5h.9,0Z"/>
      <path id="DejaVuSans-6f-7" class="cls-14" d="M988.6,25.6c-.5,0-.9.2-1.3.6s-.5,1-.5,1.7.2,1.3.5,1.7c.3.4.7.6,1.3.6s.9-.2,1.3-.6c.3-.4.5-1,.5-1.7s-.2-1.3-.5-1.7c-.3-.4-.7-.6-1.3-.6ZM988.6,24.7c.9,0,1.5.3,2,.8.5.6.7,1.3.7,2.3s-.2,1.8-.7,2.3c-.5.6-1.2.8-2,.8s-1.5-.3-2-.8c-.5-.6-.7-1.3-.7-2.3s.2-1.8.7-2.3c.5-.6,1.2-.8,2-.8Z"/>
      <path id="DejaVuSans-63-3" class="cls-14" d="M997.3,25.1v.9c-.3-.2-.6-.3-.8-.3h-.9c-.6,0-1.1.2-1.5.6s-.5,1-.5,1.7.2,1.3.5,1.7c.4.4.9.6,1.5.6h.9c.3,0,.6-.2.8-.3v.9c-.3,0-.6.2-.9.3h-.9c-.9,0-1.6-.3-2.2-.9-.5-.6-.8-1.3-.8-2.3s.3-1.8.8-2.3c.5-.6,1.3-.8,2.2-.8h.9c.3,0,.6.2.8.3h.1Z"/>
      <path id="DejaVuSans-75-5" class="cls-14" d="M998.9,28.5v-3.6h1v3.6c0,.6,0,1,.3,1.3s.6.4,1,.4,1-.2,1.3-.5.5-.8.5-1.4v-3.4h1v6h-1v-.9c-.2.4-.5.6-.8.8-.3.2-.7.3-1.1.3-.7,0-1.2-.2-1.6-.6-.4-.4-.5-1.1-.5-1.9h-.1ZM1001.4,24.7h0Z"/>
      <path id="DejaVuSans-73-6" class="cls-14" d="M1009.8,25v.9c-.3,0-.6-.3-.9-.3h-.9c-.5,0-.9,0-1.1.2-.2.2-.4.4-.4.7s0,.4.3.5.5.3,1.1.4h.3c.7.2,1.2.4,1.5.7s.4.7.4,1.1-.2,1-.7,1.3c-.4.3-1.1.5-1.8.5h-1c-.3,0-.7-.2-1.1-.3v-1c.4.2.7.3,1.1.4h1.1c.4,0,.8,0,1.1-.2s.4-.4.4-.7,0-.5-.3-.6c-.2,0-.6-.3-1.2-.4h-.3c-.6-.2-1.1-.4-1.3-.7-.3-.3-.4-.6-.4-1.1s.2-1,.6-1.3c.4-.3,1-.5,1.7-.5h1c.3,0,.6,0,.9.2v.2h0Z"/>
      <rect class="cls-2" x="-621" y="-15.3" width="576" height="576"/>
    </g>
  </g>
</svg>