<?xml version="1.0" encoding="UTF-8"?>
<svg xmlns="http://www.w3.org/2000/svg" xmlns:xlink="http://www.w3.org/1999/xlink" version="1.1" viewBox="0 0 576 576">
  <defs>
    <style>
      .cls-1 {
        fill: none;
      }

      .cls-2 {
        fill: #8da0cb;
      }

      .cls-2, .cls-3, .cls-4, .cls-5, .cls-6, .cls-7, .cls-8 {
        stroke-linejoin: round;
      }

      .cls-2, .cls-3, .cls-4, .cls-5, .cls-6, .cls-8 {
        stroke: #fff;
      }

      .cls-2, .cls-3, .cls-5, .cls-6, .cls-8 {
        fill-opacity: .9;
        stroke-opacity: .9;
        stroke-width: .6px;
      }

      .cls-9 {
        clip-path: url(#clippath-17);
      }

      .cls-10 {
        clip-path: url(#clippath-11);
      }

      .cls-11 {
        clip-path: url(#clippath-10);
      }

      .cls-12 {
        clip-path: url(#clippath-15);
      }

      .cls-13 {
        clip-path: url(#clippath-13);
      }

      .cls-14 {
        clip-path: url(#clippath-14);
      }

      .cls-15 {
        clip-path: url(#clippath-12);
      }

      .cls-3 {
        fill: #e78ac3;
      }

      .cls-16 {
        clip-path: url(#clippath-1);
      }

      .cls-17 {
        clip-path: url(#clippath-3);
      }

      .cls-18 {
        clip-path: url(#clippath-4);
      }

      .cls-19 {
        clip-path: url(#clippath-2);
      }

      .cls-20 {
        clip-path: url(#clippath-7);
      }

      .cls-21 {
        clip-path: url(#clippath-6);
      }

      .cls-22 {
        clip-path: url(#clippath-9);
      }

      .cls-23 {
        clip-path: url(#clippath-8);
      }

      .cls-24 {
        clip-path: url(#clippath-5);
      }

      .cls-25 {
        fill: #262626;
      }

      .cls-4 {
        stroke-width: .2px;
      }

      .cls-5 {
        fill: #66c2a5;
      }

      .cls-6 {
        fill: #ffd92f;
      }

      .cls-7 {
        fill: #f7f7f7;
        fill-opacity: .4;
        stroke: #ccc;
        stroke-opacity: .4;
        stroke-width: .5px;
      }

      .cls-26 {
        clip-path: url(#clippath);
      }

      .cls-8 {
        fill: #fc8d62;
      }
    </style>
    <clipPath id="clippath">
      <rect class="cls-1" x="-319.2" y="-95.7" width="634.8" height="566.2"/>
    </clipPath>
    <clipPath id="clippath-1">
      <rect class="cls-1" x="-319.2" y="-95.7" width="634.8" height="566.2"/>
    </clipPath>
    <clipPath id="clippath-2">
      <rect class="cls-1" x="-319.2" y="-95.7" width="634.8" height="566.2"/>
    </clipPath>
    <clipPath id="clippath-3">
      <rect class="cls-1" x="-319.2" y="-95.7" width="634.8" height="566.2"/>
    </clipPath>
    <clipPath id="clippath-4">
      <rect class="cls-1" x="-319.2" y="-95.7" width="634.8" height="566.2"/>
    </clipPath>
    <clipPath id="clippath-5">
      <rect class="cls-1" x="-319.2" y="-95.7" width="634.8" height="566.2"/>
    </clipPath>
    <clipPath id="clippath-6">
      <rect class="cls-1" x="-319.2" y="-95.7" width="634.8" height="566.2"/>
    </clipPath>
    <clipPath id="clippath-7">
      <rect class="cls-1" x="-319.2" y="-95.7" width="634.8" height="566.2"/>
    </clipPath>
    <clipPath id="clippath-8">
      <rect class="cls-1" x="-319.2" y="-95.7" width="634.8" height="566.2"/>
    </clipPath>
    <clipPath id="clippath-9">
      <rect class="cls-1" x="-319.2" y="-95.7" width="634.8" height="566.2"/>
    </clipPath>
    <clipPath id="clippath-10">
      <rect class="cls-1" x="-319.2" y="-95.7" width="634.8" height="566.2"/>
    </clipPath>
    <clipPath id="clippath-11">
      <rect class="cls-1" x="-319.2" y="-95.7" width="634.8" height="566.2"/>
    </clipPath>
    <clipPath id="clippath-12">
      <rect class="cls-1" x="-319.2" y="-95.7" width="634.8" height="566.2"/>
    </clipPath>
    <clipPath id="clippath-13">
      <rect class="cls-1" x="-319.2" y="-95.7" width="634.8" height="566.2"/>
    </clipPath>
    <clipPath id="clippath-14">
      <rect class="cls-1" x="-319.2" y="-95.7" width="634.8" height="566.2"/>
    </clipPath>
    <clipPath id="clippath-15">
      <rect class="cls-1" x="-319.2" y="-95.7" width="634.8" height="566.2"/>
    </clipPath>
    <clipPath id="clippath-17">
      <rect class="cls-1" x="-319.2" y="-95.7" width="634.8" height="566.2"/>
    </clipPath>
  </defs>
  <!-- Generator: Adobe Illustrator 28.7.7, SVG Export Plug-In . SVG Version: 1.2.0 Build 194)  -->
  <g>
    <g id="Layer_1">
      <g id="figure_1">
        <rect class="cls-1" x="-319.2" y="-95.7" width="634.8" height="566.2"/>
        <path class="cls-7" d="M176.8,162.6l-5.4.6h-6.9s-9.8-.5-9.8-.5h-2.4s-9.5-.8-9.5-.8v-7.9s-.1-8.7-.1-8.7l8.3-.2h10.9c0,0,1.4-2.3,1.4-2.3h12.9c0,0,0,4.1,0,4.1h1c0,.1,18.6.2,18.6.2l8.9.2,7.2,1.2,3.3,1.6,7.2,6.7,3,2.2,4.2,1.7,5.8.8,7.9-1.7.4,3.1-1,.6-10.7,2-.2,6.3v2.7s-.4,12.2-.4,12.2l-.3,5.6v12c-.1,0-.2,2-.2,2v2.8s0,6.4,0,6.4v1.9c.1,0,.2,3.4.2,3.4l-.2,4.5,20.8-.3-1.9,1.9-2.6,2.4-2.6,2.7-2.2,2.4-4.7,4.5-3-.3-1.6-.3-1.2-.3-1.4-.6-1.3-.6-2.6-.8-2.9-1.6-1.9-1.2-2-.8-1.9-.5-3.5-.5-2.2-.2h-2.4c0,0-3.5-.2-3.5-.2h-8.2c0,0-.6,0-.6,0h0c0,.1-.7.1-.7.1h-.3c0,0-1,0-1,0h-1.4s-.8.1-.8.1h-1.3s-1.3,0-1.3,0l-3.4.3-4.1-.3-.7-12,7.6-1.8,3.6-.7.9-5.9-4-.3-7.3-.3v-.9c0,0,.7-3.6.7-3.6l-.3-4.1-.2-4,.2-5.3-.5-3.8-3.8-3.2-2.1-2.8.3-3.9-.3-5.6-.9-1.9v-3.6c0,0,.4-4.6.4-4.6"/>
        <g class="cls-26">
          <path class="cls-7" d="M183.2,230.9l6.3.3h-1c0,0-1.1,0-1.1,0h.4c0,0,1,0,1,0h.5c0,0,.5-.2.5-.2h.6s1.2-.1,1.2-.1h.4s.5.1.5.1h.9c0,0,1-.2,1-.2h1.9c0,0,.9,0,.9,0h8.9s1.2,0,1.2,0l3.2.2h2c0,0,2,.2,2,.2l2.7.3.9.2.9.3,2.7,1,2.2,1.4,2.6,1.5,1.3.3,1.3.4,3.5,1.4,3.5.6,1.7.2-3.1,3.7-.8,3.5-.9,3.4-.9,2-1,2.7-.4,2.3v8.7l-.3,12.7-.7,8.8v2.4s0,2.3,0,2.3v4.1c0,0,0,2.5,0,2.5v2.5c0,0-.1,5-.1,5v4.8s-1.1,0-1.1,0l-.8-.5-.7-.6-.6-.6-1-.3-.9-.2-.4-.7v-.5s0-.6,0-.6v-.7c-.1,0,0-.3,0-.3h-6c0-.1-25.8-.4-25.8-.4l-4.5.4h-2.7l-2.3-.8-1.1-.6h-1.2c0,0-1.2.4-1.2.4l-2.7,2.8-2.1.5-2.3-.2-2.1-.4-1-2.1-1.1-4.6.3-23.5v-3.4s0-13.6,0-13.6v-7.4c0,0,0-10.7,0-10.7l2.4-1,13.4-.4-.5-4.8-.5-1.8v-2.8"/>
        </g>
        <rect class="cls-1" x="-319.2" y="-95.7" width="634.8" height="566.2"/>
        <path class="cls-7" d="M248.1,228.3l7.2,4.1-7.5,13.2,5.3,3.6,12.4,10.3,10.7,8,2.9,2,1.4,1.8,1.7,1.9,2.5,4.2,1.7,1.9,4.4,3.2,2.6,1.3,3.3,2.5,3.1,2,4.7,3.3,3.5,3.6,1.9,1.8,3.9,2.1,5.7,1.7,2.7,2-1.2,3.1-1.9,2.5-12,.2-15.3-.3h-6s-1.6.3-1.6.3l-7.4,2-4,2.3-3.1,1.5-5.8,2.8-3.1,1-8.7-1.2-4.5-1.4-2.1,1.8-.2,3.4-12.9-.4,1.4-14.9h-4c0,.1.1-10.1.1-10.1l.3-11.5.4-5.3.4-3.6v-18.5c0,0,.9-3.2.9-3.2l3.3-11.2,1.3-1.5,9.8-10.2,1.7-2.1"/>
        <rect class="cls-1" x="-319.2" y="-95.7" width="634.8" height="566.2"/>
        <path class="cls-7" d="M269.7,314.5l7.2-3.8,8.8-2.4h33.5c0,.1,2.3-2.9,2.3-2.9l.7-2.7,17.5,12.9,11,11.1.5,1.5-1.7,2.2-1.9,1.9-1,.7-6.9,1.8-3.6,4.8-2.3,2.5-1,1-2.1,1v7.4s-4.2.4-4.2.4v6.1c0,0-2.6.4-2.6.4l-.3,9-7.2.5-.2,6.2-3.9,2.3-5.2,1.4-9.9,3.4-2.5.5-4.7.3h-5.5s-4.7-1.1-4.7-1.1h-3.2s-5.7.3-5.7.3l-1.1-10.4.6-10.5.6-9.6,2-24.4-.2-7.5h-5c0,0,1.7-4.5,1.7-4.5"/>
        <g class="cls-16">
          <path class="cls-7" d="M247.7,315.7l4.2,1.3,8.9,1.3,3-1.1,5.8-2.7-1.7,4.4h4.9c0,0,.2,7.6.2,7.6l-.3,3.6-.8,9-.4,8.8-.8,9.2-.2,3.2v4.2c0,0-.6,6.4-.6,6.4l-2.9.2-6.4-4.7-3.1-.9-3.6.8-2.1,2.2-5.4,5.8-2.2,2-9.8-9.8,1.6-1.6-.3-7.7h1.9c0,0,0-9.2,0-9.2v-11.5c.1,0,.2-7.3.2-7.3l.2-5.3.5-3.2,6.9.3.3-3.5,2.1-1.7"/>
        </g>
        <g class="cls-19">
          <path class="cls-7" d="M228,357.1h7.7s.3,7.7.3,7.7l-1.7,1.6.4.4-2.2,1.6h-2.8c0,.1-.3-3.3-.3-3.3l-1.6-2,.2-6.2"/>
        </g>
        <g class="cls-17">
          <path class="cls-7" d="M216.1,351l7.6,6.1h4.4s-.2,6.4-.2,6.4l1.6,2,.2,3.2-1.5-1.7-.7-.2h-.2c0,0-1.4,1.5-1.4,1.5l-1.1,1-.6.8-1.7-1.5-2.4-2.6-2.7-2.7-2.6-2.1-2.9-1.2,4.2-8.9"/>
        </g>
        <g class="cls-18">
          <path class="cls-7" d="M222.3,336.6h15.3c0,.1-.2,20.5-.2,20.5h-2.5s-7,0-7,0h-4.3c0,0-7.6-6.2-7.6-6.2l1.7-3.7,2.6-6,.7-1.7.4-1.7.9-1.2"/>
        </g>
        <g class="cls-24">
          <path class="cls-7" d="M229.8,305.7h3.9c0-.1-1.4,14.7-1.4,14.7l6.1.2-.5,2.7v1.7c-.1,0-.2,4.2-.2,4.2v3.5c0,0-.2,4-.2,4h-7.6s-7.8,0-7.8,0l1.2-2.5,4.1-9.3.8-3,1-3.8.4-3.7v-3.4s0-.9,0-.9v-4.3"/>
        </g>
        <g class="cls-21">
          <path class="cls-7" d="M220.5,340.4l-1.1,2.8-2.1,4.7-1.6,3.6-1.7,3.8-.8-.3-2.4-1.1-2.1-1,1.1-2.3,1.7-1.7,2-2.1,2.1-2.1,2.1-2.2,1.2-1,1.5-1.2"/>
        </g>
        <g class="cls-20">
          <path class="cls-7" d="M213.8,355.4h0s-1.6,3.6-1.6,3.6l-3.2,6.7v2.6c-.1,0-.1,2.6-.1,2.6v2.9c0,0,0,4.7,0,4.7v1.4c0,0,0,.9,0,.9l-2.2,1.4-1.8,1.4-2.4,2.3-.7.6-1.7-1.6-.4-.5-1.4-.2-1.1.9-1.7-1.9-.5-.3-1.2.9-1.4,1.2-1.3,1.7-.7-3.1-.8-3.3,1.2-.3.2-1,.5-1.6,4.3-3,1.9-1.2,1.7-1.3.7-.9.3-1,.8-1.8.7-1.8.6-1.5,1.1-1.8,1.2-1.4,1.7-3.4,2.3-5.1,5.1,2.3"/>
        </g>
        <g class="cls-23">
          <path class="cls-7" d="M191.7,377.1l-.3.2-.6,1.4v1.3s-1.2.3-1.2.3l-1.1-1.2-1.4-1.2-6.5-4.2-5-.8-1.7-.5-6.7-3.9-1.7-1-3.6-2-1.7-1.1-2.2-1-1-.2,1.1-1.7,7.6-6.1,1.9-1.6,4.4-5,2.9-3.4,1.9-2.3,3.8-5.4.2-.8.3-.8h4c0,0,.2,3.1.2,3.1v5.2c0,0,1.8,1.9,1.8,1.9l.3,3.3,3.5.2h3.3c0,.1,0,1.2,0,1.2h4.3c0,0,0,3.3,0,3.3h3.9c0,0,.7,2.4.7,2.4h1.1c0,0,1.1-1.1,1.1-1.1l1.6.7-2.3,4.9-1.3,1.7-1.1,1.8-.6,1.6-1.4,3.2-.4,1.3-.6.7-.5.4-7.1,4.9"/>
        </g>
        <g class="cls-22">
          <path class="cls-7" d="M191.1,386.6l1.3-1.7,1.8-1.4.9-.6.5.2,1.8,2,1.2-1,1.2.2,2.2,2.1,2.5-2.2,2.9-2.4,2.1-1.4,1.1,10.9.5,1.1,1.5.9,4.3,2.2,1.6,1.2.8,1.4,3.2,4.9v2.9c.1,0-.5.6-.5.6l-2,3.4-2.1,3.4-4.1,6.8-13.9-10-2.1-1.4-2-1.5-1.7-1.1-1.4-1.3-.5-5.6v-3.7c0,0-1-9.1-1-9.1"/>
        </g>
        <g class="cls-11">
          <path class="cls-7" d="M210.2,389.8l1.3-.9,1.2-1.1,2.4,2.6,2-1.7,1.8-1.8,2-1.9,2.4-2.3,2.1-2.1,6.4,6.6-1.6,1.4,2.1,2.2-.7.8-1.3,3-.5.6-1.6,1-3.1.5-5.4.4-1.2-.2-1.9-1.4-4.4-2.3-1.1-.8-.7-1.2v-1.5"/>
        </g>
        <g class="cls-10">
          <path class="cls-7" d="M211.9,360h0c0,0,2.8,1.1,2.8,1.1l2.8,2.2,6.7,6.8,3.2-3.5.7.4,1.1,1.2.6.5h2.9c0-.1,2.1-1.8,2.1-1.8l3.8,3.9,5.7,5.7,2.1-2.1,7.4-7.9,3.6-.7,3.2.8,6.3,4.7,2.9-.2.2.2.5,5.6.6,4.6-1.2.8-2.2,1.6-1.2.4-3.3.4h-7.1s-4.6.1-4.6.1l-9.2.5-3.3.3-1.3.5-3.2,2.4-2.4,2.4-2-2.2,1.6-1.5-6.5-6.5-.7.8-6.3,6.2-1.5,1.4-1.4,1-.3.4-2.5-2.6-1,1-1.5,1-.9-9.3h-.3c0,.1,0-2.5,0-2.5v-3.6c.1,0,0-1.9,0-1.9v-6.8c0,0,3-5.7,3-5.7"/>
        </g>
        <g class="cls-15">
          <path class="cls-7" d="M218.5,396.9h2.4c0,.1,3.5-.3,3.5-.3l3.7-.5,1.8-1,.6-.7,1.4-3.1,1.8-1.5,1.7-1.7,1.7-1.4,1.2-.8,3.8-.3,4.2-.3,4.3-.2h2.3c0-.1,5.8-.3,5.8-.3h.8v2.2s0,2.2,0,2.2v2.5s-.2,3.3-.2,3.3v3.3c-.1,0-.3,1.6-.3,1.6l-.3,1.2v1.3s.4,4.4.4,4.4l-.2,1.2-1.1,1.4-1,1.1-.8,1.4-1,1.2-3.7,3.8-4.7,4.8-2.7,2.5-5.9,5.7-2.2,2.1-4.7,1.3-1.8-7.6-2-5.6-2.2-5.9-1.4-4.8-.8-3.2-.3-.8v-2.3c-.1,0-1.5-2-1.5-2l-2-3-.5-1.1"/>
        </g>
        <rect class="cls-1" x="-319.2" y="-95.7" width="634.8" height="566.2"/>
        <path class="cls-7" d="M259.6,384.9l3.4-.2,3.1-.2,2.3-1.3,2-1.3,1.2-.4h1.4c0,0,.7-.3.7-.3l3-.2h2.7c0,.1,4.4,1,4.4,1l1.9.2h4c0,0,2.8,0,2.8,0l3.7-.6,4.6-1.5,3.5-1,2.7-.9,1.8-.5v.9c0,0-.2,1.1-.2,1.1l-.7,1.1-.8,1.1-.3.9-.2,1.6v1s6.8-.7,6.8-.7l6-.7-2.5,2.8,1.3,1.9,1.7,2.1,1.3,1.6.4.8,6,6.4,1,1.4,1.9,1.8,2,2.5,2.3,2.5.9,1.3,1.5,1.8,3,3.6-.3,3.1v2.3c.1,0,.2,5.8.2,5.8l-.2,5.9v6.8c0,0,0,3.9,0,3.9v8.6c-.1,0-.1,2.9-.1,2.9v11.1c0,0-.2,12.4-.2,12.4v5c-.1,0,4.1,3.1,4.1,3.1l1.6,1.3,1.4,1.1,6.6,4.1h1.1c0,0,2.7-4.8,2.7-4.8l1.7-2.1,1.1-1.5.7-1.5,2.5-.7,2.1-.2,3.1.2,4.8-.2,4.8-.5,5.6-.6,2.9-.3,5.7-.7,6.1-.8,5,.6,18.4,1.4,6.5.4,3.9.4,3.2.8-.7,11.3-1.7,17.9-.4,1.7-6.2,4.2-3.4,2.8-3.2,2.1-5.1,4.4-1.9.8-3.3-1.6-21.8,3.6-15.5,2.7-10.1,1.7-22,4-19.9-2.4-26.8-3.2-16.6-2-2.4-1.7-4.5-4.1-4.3-4.8-8.5-11.1-5-6.6-.7-1.2-1-2.5-1.3-3.8-1.1-3.4-1.8-5.8-.6-1.8-1.3-4.6-.3-1.6-.9-3.7-.9-4.5-2.5-5.6-.7-1.8-2.6-6.8-.8-3.8-.7-2.1-3.9-15,4.8-1.4,4.1-4,4.7-4.5,1.6-1.5,2.4-2.2,5.2-5.4.8-.8,1.8-2.2.2-.9,1.2-1,1.1-1.5v-3.6l-.3-2.6.6-3.2.2-6.2.2-6.4v-1"/>
        <g class="cls-13">
          <path class="cls-7" d="M174.1,372.6l6.6,1.2,2.6,1.6,6.4,5,1.1,5.3.8,4.7.4,2.3v2.3c0,0-2.9.5-2.9.5l-2,.4-.9.2h-1c0,0-5.3-7.6-5.3-7.6l-9-5.6-20-9.2,1.4-5.6.3-1.4.4-1.4.8-2.7,2.2.2,2.1.5,3.1,1.5,3.2,2.1,9.8,5.4"/>
        </g>
        <rect class="cls-1" x="-319.2" y="-95.7" width="634.8" height="566.2"/>
        <path class="cls-7" d="M116.3,411.3l7.6-1.1,11.6.4,14,.3,7,2.2,5.8-3.4,3.8-3,.5-1.7,3.2-.4.6-.6,1.3-.3,4.2-1.1,1.1-.3,1.1-.2,2.1-.4,6.9-1.3,4.8-1.1.5,3.4v2.2c.1,0,1.4,1.1,1.4,1.1l4.7,3.2.7.2-.4.8v2.1c.1,0-1,1.7-1,1.7l-1.8,3-1.8,1.7-.4,1.5.5,8.9v2.1c0,0-2.6,2.5-2.6,2.5l-5.3,3.2-3.9,2.4-1.3,1.8-.2,4.8-1.4,6.1-.4,2.9-1.2,5.6-16.2.3h-9s-4.7-.1-4.7-.1h-14.7c0,.1-13.2,0-13.2,0v-5.6c-.1,0,.2-27.3.2-27.3l-1.3-2.9v-3.4c0,0-.3-2.9-.3-2.9l-1.7-3.1-.7-1.5-.2-3"/>
        <g class="cls-14">
          <path class="cls-7" d="M120.3,461h9.6c0,.1,15.1,0,15.1,0h21.8s12-.1,12-.1l6.1-.2,6.4.2-.3,10.1-.2,11.2.3,2.7v6.4c.1,0,.1,9.4.1,9.4l.3,7.3v12.3c0,0-2.5,6.7-2.5,6.7l-2.3,7-1.2,5.6-3.7-.5-.6,5.3-12.8.2-18.9-4.7-12.1-6.1-9.6-5.1-5.1-1.7-2.1-1.7-.2-1.6-.2-.6.2.3-.2-37.6.7-2.1-.6-1.5v-5.8c0,0,0-11.3,0-11.3l-.2-1.9.2-2.3"/>
        </g>
        <rect class="cls-1" x="-319.2" y="-95.7" width="634.8" height="566.2"/>
        <path class="cls-7" d="M168.3,241.3v18.4c0,0,0,21.1,0,21.1l-.3,15v4.8c0,0,2.6,8.3,2.6,8.3l-1.4,3.4.5,5.6-1.8,1.9.3,3.1,13.6-.2.3,10.3v1.7c-.1,0-.1,1.7-.1,1.7h-.5c0-.1-.7,1.9-.7,1.9l-1.5,2.1-3.1,4.1-3.4,4.1-3.6,4-3.8,3.5-2.9,2.2-4,3.2-.9,1.6-5.6-.5-4.7-.2-4.6-2.8-8.6-9.1-8.1-5.6-3.5-2.6.2-6v-7.6c0,0,1.6-6.3,1.6-6.3l-3.4-.9-3.1-2.3-3,.2-.7-2.7-4.1,1.2v-1.3c0,0-1.9-1.2-1.9-1.2l-1.7-1.5-1.8.5-2.6.4-1.5-3.8-1.4,2.6-6.4-2.1.8-3.1-2.3-2.2-1.2-3.6,2.2-1.3.5-1.7-1.1-1.2-2.8,1.8-3.3-.7,1.2-11.9-2-3.4.6-4.2v-2.3h2.9l.2-1.3-.7-3.3,8.4-1.2-1.1-11.5,19.1-.5,15.7-3.7,16.7-4.6,8.6-3.3,13.4-6.8"/>
        <g class="cls-12">
          <path class="cls-7" d="M122.1,342.5l12,8.2,5.2,6,6,4.6,8.4,1.2-.6,2-.8,2.9-1.5,6.3,19.9,9.1,8,5.1,1,.6.5.7,1.2,1.6,2.4,3.3.7,1,.4.6.3.3h.4c0,.1,6.3-1,6.3-1v4.3c0,0-2,.4-2,.4l-4.6,1-6.6,1.1-1.8.3-1.8.5-4.7,1.3-.6.6-3.1.3-.4,1.6-.5.4-3.4,2.7-3.6,2-2.2,1.3-7.5-2.3-23.6-.7-5.5.2-5,.9h-7.8l-18.8,1,.2-1.2-.5-1,1.1-1.2.5-.8-.8-2.5.7-11.2,6.5-3.7,3.4,1.6,1.8-1.6,2.1-4.8.2-2.8,2.2-3.6,1.9-1.6,5.3-1.1-3.6-5.6,2.5-2.8-1.9-1-2.1.8-.5-2.8-.2-4.9.6-2,5.5-6.8,3.6-3.2,4.2-5,1.3-.9"/>
        </g>
        <rect class="cls-1" x="-319.2" y="-95.7" width="634.8" height="566.2"/>
        <path class="cls-7" d="M88.4,412.6l12.9-1h15.3l-.4,2.2,2.4,5,.4,4.6.3,2.2,1.3,3-.4,17.8v15.2c0,0,0,12.1,0,12.1l.2,8.1.5,2.1-.7,2.2.3,15.5v14s-9,0-9,0l-19.5.3-5-1.2-10.3-.4-1,17.5-5.2,2.6-8.1,4.6-15.1,6.7-8.4-5.3-20.9,2.9,7.3-23.7,6.8-26.9-1.5-9.1,6.4-1,.3-6.8.8-4.6,2.6-6.5.6-4,1.2-6.4-5.6-2.3h-4.1l-1-7.2,5.8-.2v-3.8l-4.1-.8v-5.7c0,0,15.6-.8,15.6-.8l19.3-.5.2,1.7,12.6.8,7.5-2.6.3-2.8-.2-7-.2-10.7"/>
        <rect class="cls-1" x="-319.2" y="-95.7" width="634.8" height="566.2"/>
        <path class="cls-7" d="M199,409.5l14.3,10.5,8.8-13.7,4.1,12.2,2.7,7.3,1.3,6.6,4.2,15.3,2.3,8.3,1.1,3.1,1.2,2.9,2.9,6,1,4.7,1.8,7.2,1.9,8.3,5.6,13.9,7.8,10.2,6.2,7.9,4.2,4.3,7.2,6.2-3.8,2-6.7,3.4-20.5,4.1-4.3,1.3-16.7,6.4-17.8,2.7-5.4-12.9-9,1.2-7.8.5h-.3c0,.1.4,0,.4,0h-.2,0c0-.1,0,0,0,0h.2s-21.9,3.1-21.9,3.1l21.8-3.1h0c0,0,0,0,0,0l1.7-1.5-1.7,1.5-22.1,2.8,22.1-2.8h-.2c0,0,.9-.4.9-.4l-.7.3-.4,1.6.7-2.8.5-2.8,1.1-4.7.8-2.7.4-.8.8-2.1,1.9-4.4v-10.7s0-1.7,0-1.7l-.4-7.6.2-6.9-.3-3.8v-4.2s-.3-4.5-.3-4.5v-2.5l.3-9.4v-8.1c.1,0-13,0-13,0l1.1-5.1,2.6-10.1.5-5.7,8.8-5.8,3.8-3.8-.2-10.7,4.1-7.4.2-2.6"/>
        <g class="cls-9">
          <path id="ma92b3bec1e" class="cls-2" d="M181.9,421.9c2,0,4-.8,5.4-2.3s2.3-3.4,2.3-5.4-.8-4-2.3-5.4-3.4-2.3-5.4-2.3-4,.8-5.4,2.3-2.3,3.4-2.3,5.4.8,4,2.3,5.4,3.4,2.3,5.4,2.3Z"/>
        </g>
        <rect class="cls-1" x="-319.2" y="-95.7" width="634.8" height="566.2"/>
        <g>
          <path id="me1038a3880" class="cls-6" d="M282.1,313.9c2,0,4-.8,5.4-2.3s2.3-3.4,2.3-5.4-.8-4-2.3-5.4c-1.4-1.4-3.4-2.3-5.4-2.3s-4,.8-5.4,2.3c-1.4,1.4-2.3,3.4-2.3,5.4s.8,4,2.3,5.4,3.4,2.3,5.4,2.3Z"/>
          <path id="me1038a3880-2" data-name="me1038a3880" class="cls-6" d="M268.5,176.7c2,0,4-.8,5.4-2.3s2.3-3.4,2.3-5.4-.8-4-2.3-5.4-3.4-2.3-5.4-2.3-4,.8-5.4,2.3-2.3,3.4-2.3,5.4.8,4,2.3,5.4,3.4,2.3,5.4,2.3Z"/>
          <path id="me1038a3880-3" data-name="me1038a3880" class="cls-6" d="M202.2,387.9c2,0,4-.8,5.4-2.3s2.3-3.4,2.3-5.4-.8-4-2.3-5.4-3.4-2.3-5.4-2.3-4,.8-5.4,2.3-2.3,3.4-2.3,5.4.8,4,2.3,5.4,3.4,2.3,5.4,2.3Z"/>
          <path id="me1038a3880-4" data-name="me1038a3880" class="cls-6" d="M268.6,214.1c2,0,4-.8,5.4-2.3s2.3-3.4,2.3-5.4-.8-4-2.3-5.4-3.4-2.3-5.4-2.3-4,.8-5.4,2.3-2.3,3.4-2.3,5.4.8,4,2.3,5.4,3.4,2.3,5.4,2.3Z"/>
          <path id="me1038a3880-5" data-name="me1038a3880" class="cls-6" d="M169.8,437.3c2,0,4-.8,5.4-2.3s2.3-3.4,2.3-5.4-.8-4-2.3-5.4-3.4-2.3-5.4-2.3-4,.8-5.4,2.3-2.3,3.4-2.3,5.4.8,4,2.3,5.4,3.4,2.3,5.4,2.3Z"/>
          <path id="me1038a3880-6" data-name="me1038a3880" class="cls-6" d="M204.4,404.5c2,0,4-.8,5.4-2.3s2.3-3.4,2.3-5.4-.8-4-2.3-5.4-3.4-2.3-5.4-2.3-4,.8-5.4,2.3-2.3,3.4-2.3,5.4.8,4,2.3,5.4,3.4,2.3,5.4,2.3Z"/>
          <path id="me1038a3880-7" data-name="me1038a3880" class="cls-6" d="M203.7,170.6c2,0,4-.8,5.4-2.3s2.3-3.4,2.3-5.4-.8-4-2.3-5.4-3.4-2.3-5.4-2.3-4,.8-5.4,2.3-2.3,3.4-2.3,5.4.8,4,2.3,5.4,3.4,2.3,5.4,2.3Z"/>
          <path id="me1038a3880-8" data-name="me1038a3880" class="cls-6" d="M225.9,370.9c2,0,4-.8,5.4-2.3s2.3-3.4,2.3-5.4-.8-4-2.3-5.4c-1.4-1.4-3.4-2.3-5.4-2.3s-4,.8-5.4,2.3-2.3,3.4-2.3,5.4.8,4,2.3,5.4c1.4,1.4,3.4,2.3,5.4,2.3Z"/>
          <path id="me1038a3880-9" data-name="me1038a3880" class="cls-6" d="M230.1,366.9c2,0,4-.8,5.4-2.3s2.3-3.4,2.3-5.4-.8-4-2.3-5.4-3.4-2.3-5.4-2.3-4,.8-5.4,2.3-2.3,3.4-2.3,5.4.8,4,2.3,5.4,3.4,2.3,5.4,2.3Z"/>
          <path id="me1038a3880-10" data-name="me1038a3880" class="cls-6" d="M212.9,388.6c2,0,4-.8,5.4-2.3s2.3-3.4,2.3-5.4-.8-4-2.3-5.4-3.4-2.3-5.4-2.3-4,.8-5.4,2.3-2.3,3.4-2.3,5.4.8,4,2.3,5.4,3.4,2.3,5.4,2.3Z"/>
          <path id="me1038a3880-11" data-name="me1038a3880" class="cls-6" d="M295.3,341.3c2,0,4-.8,5.4-2.3s2.3-3.4,2.3-5.4-.8-4-2.3-5.4-3.4-2.3-5.4-2.3-4,.8-5.4,2.3-2.3,3.4-2.3,5.4.8,4,2.3,5.4,3.4,2.3,5.4,2.3Z"/>
          <path id="me1038a3880-12" data-name="me1038a3880" class="cls-6" d="M178.7,444.1c2,0,4-.8,5.4-2.3s2.3-3.4,2.3-5.4-.8-4-2.3-5.4-3.4-2.3-5.4-2.3-4,.8-5.4,2.3-2.3,3.4-2.3,5.4.8,4,2.3,5.4,3.4,2.3,5.4,2.3Z"/>
          <path id="me1038a3880-13" data-name="me1038a3880" class="cls-6" d="M178.2,438.2c2,0,4-.8,5.4-2.3s2.3-3.4,2.3-5.4-.8-4-2.3-5.4-3.4-2.3-5.4-2.3-4,.8-5.4,2.3-2.3,3.4-2.3,5.4.8,4,2.3,5.4,3.4,2.3,5.4,2.3Z"/>
          <path id="me1038a3880-14" data-name="me1038a3880" class="cls-6" d="M212.9,388.5c2,0,4-.8,5.4-2.3s2.3-3.4,2.3-5.4-.8-4-2.3-5.4-3.4-2.3-5.4-2.3-4,.8-5.4,2.3-2.3,3.4-2.3,5.4.8,4,2.3,5.4,3.4,2.3,5.4,2.3Z"/>
          <path id="me1038a3880-15" data-name="me1038a3880" class="cls-6" d="M195.8,390.3c2,0,4-.8,5.4-2.3s2.3-3.4,2.3-5.4-.8-4-2.3-5.4-3.4-2.3-5.4-2.3-4,.8-5.4,2.3-2.3,3.4-2.3,5.4.8,4,2.3,5.4,3.4,2.3,5.4,2.3Z"/>
          <path id="me1038a3880-16" data-name="me1038a3880" class="cls-6" d="M204.9,385.9c2,0,4-.8,5.4-2.3s2.3-3.4,2.3-5.4-.8-4-2.3-5.4-3.4-2.3-5.4-2.3-4,.8-5.4,2.3-2.3,3.4-2.3,5.4.8,4,2.3,5.4,3.4,2.3,5.4,2.3Z"/>
          <path id="me1038a3880-17" data-name="me1038a3880" class="cls-6" d="M192.7,376.5c2,0,4-.8,5.4-2.3s2.3-3.4,2.3-5.4-.8-4-2.3-5.4-3.4-2.3-5.4-2.3-4,.8-5.4,2.3-2.3,3.4-2.3,5.4.8,4,2.3,5.4,3.4,2.3,5.4,2.3Z"/>
          <path id="me1038a3880-18" data-name="me1038a3880" class="cls-6" d="M207.4,373.6c2,0,4-.8,5.4-2.3s2.3-3.4,2.3-5.4-.8-4-2.3-5.4-3.4-2.3-5.4-2.3-4,.8-5.4,2.3-2.3,3.4-2.3,5.4.8,4,2.3,5.4,3.4,2.3,5.4,2.3Z"/>
          <path id="me1038a3880-19" data-name="me1038a3880" class="cls-6" d="M217.8,400.4c2,0,4-.8,5.4-2.3s2.3-3.4,2.3-5.4-.8-4-2.3-5.4-3.4-2.3-5.4-2.3-4,.8-5.4,2.3-2.3,3.4-2.3,5.4.8,4,2.3,5.4,3.4,2.3,5.4,2.3Z"/>
          <path id="me1038a3880-20" data-name="me1038a3880" class="cls-6" d="M232.4,402.3c2,0,4-.8,5.4-2.3s2.3-3.4,2.3-5.4-.8-4-2.3-5.4-3.4-2.3-5.4-2.3-4,.8-5.4,2.3-2.3,3.4-2.3,5.4.8,4,2.3,5.4,3.4,2.3,5.4,2.3Z"/>
          <path id="me1038a3880-21" data-name="me1038a3880" class="cls-6" d="M201.6,387.8c2,0,4-.8,5.4-2.3s2.3-3.4,2.3-5.4-.8-4-2.3-5.4-3.4-2.3-5.4-2.3-4,.8-5.4,2.3-2.3,3.4-2.3,5.4.8,4,2.3,5.4,3.4,2.3,5.4,2.3Z"/>
          <path id="me1038a3880-22" data-name="me1038a3880" class="cls-6" d="M207.1,401.9c2,0,4-.8,5.4-2.3s2.3-3.4,2.3-5.4-.8-4-2.3-5.4-3.4-2.3-5.4-2.3-4,.8-5.4,2.3-2.3,3.4-2.3,5.4.8,4,2.3,5.4,3.4,2.3,5.4,2.3Z"/>
          <path id="me1038a3880-23" data-name="me1038a3880" class="cls-6" d="M170.9,416.3c2,0,4-.8,5.4-2.3s2.3-3.4,2.3-5.4-.8-4-2.3-5.4-3.4-2.3-5.4-2.3-4,.8-5.4,2.3-2.3,3.4-2.3,5.4.8,4,2.3,5.4,3.4,2.3,5.4,2.3Z"/>
          <path id="me1038a3880-24" data-name="me1038a3880" class="cls-6" d="M167.1,382.7c2,0,4-.8,5.4-2.3s2.3-3.4,2.3-5.4-.8-4-2.3-5.4-3.4-2.3-5.4-2.3-4,.8-5.4,2.3-2.3,3.4-2.3,5.4.8,4,2.3,5.4,3.4,2.3,5.4,2.3Z"/>
          <path id="me1038a3880-25" data-name="me1038a3880" class="cls-6" d="M177.6,384.9c2,0,4-.8,5.4-2.3s2.3-3.4,2.3-5.4-.8-4-2.3-5.4-3.4-2.3-5.4-2.3-4,.8-5.4,2.3-2.3,3.4-2.3,5.4.8,4,2.3,5.4,3.4,2.3,5.4,2.3Z"/>
          <path id="me1038a3880-26" data-name="me1038a3880" class="cls-6" d="M230.7,296.5c2,0,4-.8,5.4-2.3s2.3-3.4,2.3-5.4-.8-4-2.3-5.4-3.4-2.3-5.4-2.3-4,.8-5.4,2.3-2.3,3.4-2.3,5.4.8,4,2.3,5.4c1.4,1.4,3.4,2.3,5.4,2.3Z"/>
        </g>
        <g id="text_1">
          <g>
            <path id="DejaVuSans-52" d="M249,422.5c.4.1.7.4,1.1.8s.7,1,1.1,1.7l1.7,3.5h-1.8l-1.6-3.3c-.4-.9-.8-1.4-1.2-1.7s-.9-.4-1.6-.4h-1.9v5.4h-1.7v-12.7h3.9c1.5,0,2.5.3,3.2.9.7.6,1.1,1.5,1.1,2.7s-.2,1.5-.6,2c-.4.5-.9.9-1.6,1.1ZM244.7,417.2v4.5h2.2c.8,0,1.5-.2,1.9-.6s.6-.9.6-1.7-.2-1.3-.6-1.7-1-.6-1.9-.6h-2.2Z"/>
            <path id="DejaVuSans-65" d="M262.3,423.3v.8h-7.2c0,1.1.4,1.9,1,2.5.6.6,1.4.8,2.4.8s1.2,0,1.7-.2,1.1-.4,1.7-.7v1.5c-.6.2-1.1.4-1.7.5s-1.2.2-1.8.2c-1.5,0-2.7-.4-3.6-1.3-.9-.9-1.3-2.1-1.3-3.6s.4-2.8,1.3-3.7c.8-.9,2-1.4,3.4-1.4s2.3.4,3,1.2c.7.8,1.1,1.9,1.1,3.4ZM260.8,422.8c0-.9-.3-1.5-.7-2-.5-.5-1.1-.8-1.9-.8s-1.6.2-2.1.7-.8,1.2-.9,2.1h5.6Z"/>
            <path id="DejaVuSans-75" d="M264.7,424.7v-5.8h1.6v5.7c0,.9.2,1.6.5,2,.4.4.9.7,1.6.7s1.5-.3,2-.8c.5-.5.7-1.3.7-2.2v-5.4h1.6v9.5h-1.6v-1.5c-.4.6-.8,1-1.3,1.3-.5.3-1.1.4-1.7.4-1.1,0-1.9-.3-2.5-1-.6-.7-.8-1.7-.8-3ZM268.7,418.7h0Z"/>
            <path id="DejaVuSans-6e" d="M283.9,422.7v5.7h-1.6v-5.7c0-.9-.2-1.6-.5-2-.4-.4-.9-.7-1.6-.7s-1.5.3-2,.8c-.5.5-.7,1.3-.7,2.2v5.4h-1.6v-9.5h1.6v1.5c.4-.6.8-1,1.3-1.3.5-.3,1.1-.4,1.8-.4,1.1,0,1.9.3,2.5,1,.6.7.8,1.7.8,3Z"/>
            <path id="DejaVuSans-69" d="M287,418.9h1.6v9.5h-1.6v-9.5ZM287,415.2h1.6v2h-1.6v-2Z"/>
            <path id="DejaVuSans-6f" d="M295.5,420c-.8,0-1.5.3-2,1s-.7,1.6-.7,2.7.2,2,.7,2.7c.5.7,1.2,1,2,1s1.5-.3,2-1c.5-.7.7-1.6.7-2.7s-.2-2-.7-2.7c-.5-.7-1.1-1-2-1ZM295.5,418.7c1.4,0,2.4.4,3.2,1.3.8.9,1.2,2.1,1.2,3.7s-.4,2.8-1.2,3.7c-.8.9-1.8,1.3-3.2,1.3s-2.4-.4-3.2-1.3c-.8-.9-1.2-2.1-1.2-3.7s.4-2.8,1.2-3.7c.8-.9,1.8-1.3,3.2-1.3Z"/>
            <path id="DejaVuSans-6e-2" data-name="DejaVuSans-6e" d="M310.4,422.7v5.7h-1.6v-5.7c0-.9-.2-1.6-.5-2-.4-.4-.9-.7-1.6-.7s-1.5.3-2,.8c-.5.5-.7,1.3-.7,2.2v5.4h-1.6v-9.5h1.6v1.5c.4-.6.8-1,1.3-1.3.5-.3,1.1-.4,1.8-.4,1.1,0,1.9.3,2.5,1,.6.7.8,1.7.8,3Z"/>
            <path id="DejaVuSans-20" d="M311.9,428.4"/>
            <path id="DejaVuSans-54" d="M317.4,415.7h10.7v1.4h-4.5v11.2h-1.7v-11.2h-4.5v-1.4Z"/>
            <path id="DejaVuSans-6f-2" data-name="DejaVuSans-6f" d="M330.4,420c-.8,0-1.5.3-2,1s-.7,1.6-.7,2.7.2,2,.7,2.7c.5.7,1.2,1,2,1s1.5-.3,2-1c.5-.7.7-1.6.7-2.7s-.2-2-.7-2.7c-.5-.7-1.1-1-2-1ZM330.4,418.7c1.4,0,2.4.4,3.2,1.3.8.9,1.2,2.1,1.2,3.7s-.4,2.8-1.2,3.7c-.8.9-1.8,1.3-3.2,1.3s-2.4-.4-3.2-1.3c-.8-.9-1.2-2.1-1.2-3.7s.4-2.8,1.2-3.7c.8-.9,1.8-1.3,3.2-1.3Z"/>
            <path id="DejaVuSans-77" d="M336.5,418.9h1.6l2,7.4,1.9-7.4h1.8l2,7.4,1.9-7.4h1.6l-2.5,9.5h-1.8l-2-7.8-2.1,7.8h-1.8l-2.5-9.5Z"/>
            <path id="DejaVuSans-65-2" data-name="DejaVuSans-65" d="M359.8,423.3v.8h-7.2c0,1.1.4,1.9,1,2.5.6.6,1.4.8,2.4.8s1.2,0,1.7-.2,1.1-.4,1.7-.7v1.5c-.6.2-1.1.4-1.7.5s-1.2.2-1.8.2c-1.5,0-2.7-.4-3.6-1.3-.9-.9-1.3-2.1-1.3-3.6s.4-2.8,1.3-3.7c.8-.9,2-1.4,3.4-1.4s2.3.4,3,1.2c.7.8,1.1,1.9,1.1,3.4ZM358.2,422.8c0-.9-.3-1.5-.7-2-.5-.5-1.1-.8-1.9-.8s-1.6.2-2.1.7-.8,1.2-.9,2.1h5.6Z"/>
            <path id="DejaVuSans-72" d="M367.9,420.4c-.2-.1-.4-.2-.6-.2-.2,0-.4,0-.7,0-.9,0-1.6.3-2,.9s-.7,1.4-.7,2.5v5h-1.6v-9.5h1.6v1.5c.3-.6.8-1,1.3-1.3.5-.3,1.2-.4,1.9-.4s.2,0,.4,0c.1,0,.3,0,.4,0v1.6Z"/>
          </g>
        </g>
        <g id="text_2">
          <g>
            <path id="DejaVuSans-44" d="M245.6,398v9.9h2.1c1.8,0,3-.4,3.8-1.2.8-.8,1.2-2,1.2-3.8s-.4-2.9-1.2-3.7-2.1-1.2-3.8-1.2h-2.1ZM243.9,396.6h3.5c2.5,0,4.3.5,5.4,1.5,1.2,1,1.7,2.6,1.7,4.8s-.6,3.8-1.7,4.8c-1.2,1-3,1.5-5.4,1.5h-3.5v-12.7Z"/>
            <path id="DejaVuSans-65-3" data-name="DejaVuSans-65" d="M265.3,404.1v.8h-7.2c0,1.1.4,1.9,1,2.5.6.6,1.4.8,2.4.8s1.2,0,1.7-.2,1.1-.4,1.7-.7v1.5c-.6.2-1.1.4-1.7.5s-1.2.2-1.8.2c-1.5,0-2.7-.4-3.6-1.3-.9-.9-1.3-2.1-1.3-3.6s.4-2.8,1.3-3.7c.8-.9,2-1.4,3.4-1.4s2.3.4,3,1.2c.7.8,1.1,1.9,1.1,3.4ZM263.8,403.7c0-.9-.3-1.5-.7-2-.5-.5-1.1-.8-1.9-.8s-1.6.2-2.1.7-.8,1.2-.9,2.1h5.6Z"/>
            <path id="DejaVuSans-61" d="M272.2,404.5c-1.3,0-2.1.1-2.6.4s-.7.8-.7,1.5.2,1,.5,1.3c.4.3.9.5,1.5.5s1.6-.3,2.1-.9.8-1.4.8-2.5v-.3h-1.6ZM275.4,403.8v5.4h-1.6v-1.4c-.4.6-.8,1-1.3,1.3-.5.3-1.2.4-2,.4s-1.7-.3-2.3-.8c-.6-.5-.9-1.3-.9-2.2s.4-1.9,1.1-2.4c.7-.5,1.8-.8,3.2-.8h2.2v-.2c0-.7-.2-1.3-.7-1.7s-1.1-.6-2-.6-1.1,0-1.6.2c-.5.1-1,.3-1.5.6v-1.4c.6-.2,1.1-.4,1.7-.5.5-.1,1.1-.2,1.6-.2,1.4,0,2.4.4,3.1,1.1.7.7,1,1.8,1,3.2Z"/>
            <path id="DejaVuSans-6c" d="M278.6,396h1.6v13.2h-1.6v-13.2Z"/>
            <path id="DejaVuSans-65-4" data-name="DejaVuSans-65" d="M291.6,404.1v.8h-7.2c0,1.1.4,1.9,1,2.5.6.6,1.4.8,2.4.8s1.2,0,1.7-.2,1.1-.4,1.7-.7v1.5c-.6.2-1.1.4-1.7.5s-1.2.2-1.8.2c-1.5,0-2.7-.4-3.6-1.3-.9-.9-1.3-2.1-1.3-3.6s.4-2.8,1.3-3.7c.8-.9,2-1.4,3.4-1.4s2.3.4,3,1.2c.7.8,1.1,1.9,1.1,3.4ZM290,403.7c0-.9-.3-1.5-.7-2-.5-.5-1.1-.8-1.9-.8s-1.6.2-2.1.7-.8,1.2-.9,2.1h5.6Z"/>
            <path id="DejaVuSans-79" d="M298.1,410.2c-.4,1.1-.9,1.9-1.3,2.2-.4.3-1,.5-1.7.5h-1.3v-1.3h.9c.4,0,.8-.1,1-.3.2-.2.5-.7.8-1.4l.3-.7-3.9-9.4h1.7l3,7.4,3-7.4h1.7l-4.2,10.4Z"/>
            <path id="DejaVuSans-20-2" data-name="DejaVuSans-20" d="M302.8,409.3"/>
            <path id="DejaVuSans-50" d="M311.8,398v4.8h2.2c.8,0,1.4-.2,1.9-.6.4-.4.7-1,.7-1.8s-.2-1.3-.7-1.8c-.4-.4-1.1-.6-1.9-.6h-2.2ZM310,396.6h3.9c1.4,0,2.5.3,3.2,1,.7.6,1.1,1.6,1.1,2.8s-.4,2.2-1.1,2.8c-.7.6-1.8,1-3.2,1h-2.2v5.1h-1.7v-12.7Z"/>
            <path id="DejaVuSans-6c-2" data-name="DejaVuSans-6c" d="M320.5,396h1.6v13.2h-1.6v-13.2Z"/>
            <path id="DejaVuSans-61-2" data-name="DejaVuSans-61" d="M329.6,404.5c-1.3,0-2.1.1-2.6.4s-.7.8-.7,1.5.2,1,.5,1.3c.4.3.9.5,1.5.5s1.6-.3,2.1-.9.8-1.4.8-2.5v-.3h-1.6ZM332.8,403.8v5.4h-1.6v-1.4c-.4.6-.8,1-1.3,1.3-.5.3-1.2.4-2,.4s-1.7-.3-2.3-.8c-.6-.5-.9-1.3-.9-2.2s.4-1.9,1.1-2.4c.7-.5,1.8-.8,3.2-.8h2.2v-.2c0-.7-.2-1.3-.7-1.7s-1.1-.6-2-.6-1.1,0-1.6.2c-.5.1-1,.3-1.5.6v-1.4c.6-.2,1.1-.4,1.7-.5.5-.1,1.1-.2,1.6-.2,1.4,0,2.4.4,3.1,1.1.7.7,1,1.8,1,3.2Z"/>
            <path id="DejaVuSans-7a" d="M335.3,399.7h7.4v1.4l-5.9,6.8h5.9v1.2h-7.6v-1.4l5.9-6.8h-5.7v-1.2Z"/>
            <path id="DejaVuSans-61-3" data-name="DejaVuSans-61" d="M349.5,404.5c-1.3,0-2.1.1-2.6.4s-.7.8-.7,1.5.2,1,.5,1.3c.4.3.9.5,1.5.5s1.6-.3,2.1-.9.8-1.4.8-2.5v-.3h-1.6ZM352.6,403.8v5.4h-1.6v-1.4c-.4.6-.8,1-1.3,1.3-.5.3-1.2.4-2,.4s-1.7-.3-2.3-.8c-.6-.5-.9-1.3-.9-2.2s.4-1.9,1.1-2.4c.7-.5,1.8-.8,3.2-.8h2.2v-.2c0-.7-.2-1.3-.7-1.7s-1.1-.6-2-.6-1.1,0-1.6.2c-.5.1-1,.3-1.5.6v-1.4c.6-.2,1.1-.4,1.7-.5.5-.1,1.1-.2,1.6-.2,1.4,0,2.4.4,3.1,1.1.7.7,1,1.8,1,3.2Z"/>
          </g>
        </g>
        <g id="text_3">
          <g>
            <path id="DejaVuSans-50-2" data-name="DejaVuSans-50" d="M245.9,380.1v4.8h2.2c.8,0,1.4-.2,1.9-.6.4-.4.7-1,.7-1.8s-.2-1.3-.7-1.8c-.4-.4-1.1-.6-1.9-.6h-2.2ZM244.1,378.7h3.9c1.4,0,2.5.3,3.2,1,.7.6,1.1,1.6,1.1,2.8s-.4,2.2-1.1,2.8c-.7.6-1.8,1-3.2,1h-2.2v5.1h-1.7v-12.7Z"/>
            <path id="DejaVuSans-65-5" data-name="DejaVuSans-65" d="M262.1,386.2v.8h-7.2c0,1.1.4,1.9,1,2.5.6.6,1.4.8,2.4.8s1.2,0,1.7-.2,1.1-.4,1.7-.7v1.5c-.6.2-1.1.4-1.7.5s-1.2.2-1.8.2c-1.5,0-2.7-.4-3.6-1.3-.9-.9-1.3-2.1-1.3-3.6s.4-2.8,1.3-3.7c.8-.9,2-1.4,3.4-1.4s2.3.4,3,1.2c.7.8,1.1,1.9,1.1,3.4ZM260.5,385.7c0-.9-.3-1.5-.7-2-.5-.5-1.1-.8-1.9-.8s-1.6.2-2.1.7-.8,1.2-.9,2.1h5.6Z"/>
            <path id="DejaVuSans-72-2" data-name="DejaVuSans-72" d="M270.2,383.3c-.2-.1-.4-.2-.6-.2-.2,0-.4,0-.7,0-.9,0-1.6.3-2,.9s-.7,1.4-.7,2.5v5h-1.6v-9.5h1.6v1.5c.3-.6.8-1,1.3-1.3.5-.3,1.2-.4,1.9-.4s.2,0,.4,0c.1,0,.3,0,.4,0v1.6Z"/>
            <path id="DejaVuSans-6f-3" data-name="DejaVuSans-6f" d="M275.1,382.9c-.8,0-1.5.3-2,1s-.7,1.6-.7,2.7.2,2,.7,2.7c.5.7,1.2,1,2,1s1.5-.3,2-1c.5-.7.7-1.6.7-2.7s-.2-2-.7-2.7c-.5-.7-1.1-1-2-1ZM275.1,381.6c1.4,0,2.4.4,3.2,1.3.8.9,1.2,2.1,1.2,3.7s-.4,2.8-1.2,3.7c-.8.9-1.8,1.3-3.2,1.3s-2.4-.4-3.2-1.3c-.8-.9-1.2-2.1-1.2-3.7s.4-2.8,1.2-3.7c.8-.9,1.8-1.3,3.2-1.3Z"/>
            <path id="DejaVuSans-74" d="M283.6,379.1v2.7h3.2v1.2h-3.2v5.2c0,.8.1,1.3.3,1.5s.6.3,1.3.3h1.6v1.3h-1.6c-1.2,0-2-.2-2.5-.7-.5-.5-.7-1.3-.7-2.5v-5.2h-1.1v-1.2h1.1v-2.7h1.6Z"/>
            <path id="DejaVuSans-20-3" data-name="DejaVuSans-20" d="M287.3,391.4"/>
            <path id="DejaVuSans-4d" d="M294.5,378.7h2.6l3.2,8.6,3.3-8.6h2.6v12.7h-1.7v-11.1l-3.3,8.7h-1.7l-3.3-8.7v11.1h-1.7v-12.7Z"/>
            <path id="DejaVuSans-75-2" data-name="DejaVuSans-75" d="M309.3,387.6v-5.8h1.6v5.7c0,.9.2,1.6.5,2,.4.4.9.7,1.6.7s1.5-.3,2-.8c.5-.5.7-1.3.7-2.2v-5.4h1.6v9.5h-1.6v-1.5c-.4.6-.8,1-1.3,1.3-.5.3-1.1.4-1.7.4-1.1,0-1.9-.3-2.5-1-.6-.7-.8-1.7-.8-3ZM313.2,381.6h0Z"/>
            <path id="DejaVuSans-73" d="M326.6,382.1v1.5c-.4-.2-.9-.4-1.4-.5-.5-.1-1-.2-1.5-.2-.8,0-1.4.1-1.7.4-.4.2-.6.6-.6,1.1s.1.6.4.9.8.4,1.7.6h.5c1.1.4,1.9.7,2.4,1.1s.7,1,.7,1.8-.4,1.6-1.1,2.1c-.7.5-1.7.8-2.9.8s-1,0-1.6-.1c-.6,0-1.1-.2-1.7-.4v-1.6c.6.3,1.1.5,1.7.7.6.1,1.1.2,1.7.2s1.3-.1,1.7-.4c.4-.3.6-.6.6-1.1s-.1-.8-.4-1c-.3-.2-.9-.4-1.9-.7h-.5c-1-.3-1.7-.6-2.1-1.1-.4-.4-.6-1-.6-1.7s.3-1.6,1-2.1c.6-.5,1.5-.7,2.7-.7s1.1,0,1.6.1c.5,0,1,.2,1.4.4Z"/>
            <path id="DejaVuSans-65-6" data-name="DejaVuSans-65" d="M337.7,386.2v.8h-7.2c0,1.1.4,1.9,1,2.5.6.6,1.4.8,2.4.8s1.2,0,1.7-.2,1.1-.4,1.7-.7v1.5c-.6.2-1.1.4-1.7.5s-1.2.2-1.8.2c-1.5,0-2.7-.4-3.6-1.3-.9-.9-1.3-2.1-1.3-3.6s.4-2.8,1.3-3.7c.8-.9,2-1.4,3.4-1.4s2.3.4,3,1.2c.7.8,1.1,1.9,1.1,3.4ZM336.2,385.7c0-.9-.3-1.5-.7-2-.5-.5-1.1-.8-1.9-.8s-1.6.2-2.1.7-.8,1.2-.9,2.1h5.6Z"/>
            <path id="DejaVuSans-75-3" data-name="DejaVuSans-75" d="M340.1,387.6v-5.8h1.6v5.7c0,.9.2,1.6.5,2,.4.4.9.7,1.6.7s1.5-.3,2-.8c.5-.5.7-1.3.7-2.2v-5.4h1.6v9.5h-1.6v-1.5c-.4.6-.8,1-1.3,1.3-.5.3-1.1.4-1.7.4-1.1,0-1.9-.3-2.5-1-.6-.7-.8-1.7-.8-3ZM344.1,381.6h0Z"/>
            <path id="DejaVuSans-6d" d="M358.7,383.7c.4-.7.9-1.2,1.4-1.6s1.2-.5,1.9-.5,1.8.3,2.3,1c.5.7.8,1.7.8,3v5.7h-1.6v-5.7c0-.9-.2-1.6-.5-2-.3-.4-.8-.7-1.5-.7s-1.5.3-1.9.8c-.5.5-.7,1.3-.7,2.2v5.4h-1.6v-5.7c0-.9-.2-1.6-.5-2s-.8-.7-1.5-.7-1.4.3-1.9.8c-.5.5-.7,1.3-.7,2.2v5.4h-1.6v-9.5h1.6v1.5c.4-.6.8-1,1.3-1.3s1.1-.4,1.8-.4,1.3.2,1.8.5c.5.4.8.9,1.1,1.5Z"/>
            <path id="DejaVuSans-20-4" data-name="DejaVuSans-20" d="M366.6,391.4"/>
            <path id="DejaVuSans-6f-4" data-name="DejaVuSans-6f" d="M377.5,382.9c-.8,0-1.5.3-2,1s-.7,1.6-.7,2.7.2,2,.7,2.7c.5.7,1.2,1,2,1s1.5-.3,2-1c.5-.7.7-1.6.7-2.7s-.2-2-.7-2.7c-.5-.7-1.1-1-2-1ZM377.5,381.6c1.4,0,2.4.4,3.2,1.3.8.9,1.2,2.1,1.2,3.7s-.4,2.8-1.2,3.7c-.8.9-1.8,1.3-3.2,1.3s-2.4-.4-3.2-1.3c-.8-.9-1.2-2.1-1.2-3.7s.4-2.8,1.2-3.7c.8-.9,1.8-1.3,3.2-1.3Z"/>
            <path id="DejaVuSans-66" d="M389.3,378.1v1.3h-1.5c-.6,0-1,.1-1.2.3-.2.2-.3.6-.3,1.2v.8h2.6v1.2h-2.6v8.3h-1.6v-8.3h-1.5v-1.2h1.5v-.7c0-1.1.2-1.8.7-2.3.5-.5,1.3-.7,2.3-.7h1.5Z"/>
            <path id="DejaVuSans-20-5" data-name="DejaVuSans-20" d="M389,391.4"/>
            <path id="DejaVuSans-4e" d="M396.2,378.7h2.3l5.6,10.6v-10.6h1.7v12.7h-2.3l-5.6-10.6v10.6h-1.7v-12.7Z"/>
            <path id="DejaVuSans-61-4" data-name="DejaVuSans-61" d="M413.5,386.6c-1.3,0-2.1.1-2.6.4s-.7.8-.7,1.5.2,1,.5,1.3c.4.3.9.5,1.5.5s1.6-.3,2.1-.9.8-1.4.8-2.5v-.3h-1.6ZM416.6,385.9v5.4h-1.6v-1.4c-.4.6-.8,1-1.3,1.3-.5.3-1.2.4-2,.4s-1.7-.3-2.3-.8c-.6-.5-.9-1.3-.9-2.2s.4-1.9,1.1-2.4c.7-.5,1.8-.8,3.2-.8h2.2v-.2c0-.7-.2-1.3-.7-1.7s-1.1-.6-2-.6-1.1,0-1.6.2c-.5.1-1,.3-1.5.6v-1.4c.6-.2,1.1-.4,1.7-.5.5-.1,1.1-.2,1.6-.2,1.4,0,2.4.4,3.1,1.1.7.7,1,1.8,1,3.2Z"/>
            <path id="DejaVuSans-74-2" data-name="DejaVuSans-74" d="M421.4,379.1v2.7h3.2v1.2h-3.2v5.2c0,.8.1,1.3.3,1.5s.6.3,1.3.3h1.6v1.3h-1.6c-1.2,0-2-.2-2.5-.7-.5-.5-.7-1.3-.7-2.5v-5.2h-1.1v-1.2h1.1v-2.7h1.6Z"/>
            <path id="DejaVuSans-75-4" data-name="DejaVuSans-75" d="M426.5,387.6v-5.8h1.6v5.7c0,.9.2,1.6.5,2,.4.4.9.7,1.6.7s1.5-.3,2-.8c.5-.5.7-1.3.7-2.2v-5.4h1.6v9.5h-1.6v-1.5c-.4.6-.8,1-1.3,1.3-.5.3-1.1.4-1.7.4-1.1,0-1.9-.3-2.5-1-.6-.7-.8-1.7-.8-3ZM430.5,381.6h0Z"/>
            <path id="DejaVuSans-72-3" data-name="DejaVuSans-72" d="M443.2,383.3c-.2-.1-.4-.2-.6-.2-.2,0-.4,0-.7,0-.9,0-1.6.3-2,.9s-.7,1.4-.7,2.5v5h-1.6v-9.5h1.6v1.5c.3-.6.8-1,1.3-1.3.5-.3,1.2-.4,1.9-.4s.2,0,.4,0c.1,0,.3,0,.4,0v1.6Z"/>
            <path id="DejaVuSans-65-7" data-name="DejaVuSans-65" d="M452.6,386.2v.8h-7.2c0,1.1.4,1.9,1,2.5.6.6,1.4.8,2.4.8s1.2,0,1.7-.2,1.1-.4,1.7-.7v1.5c-.6.2-1.1.4-1.7.5s-1.2.2-1.8.2c-1.5,0-2.7-.4-3.6-1.3-.9-.9-1.3-2.1-1.3-3.6s.4-2.8,1.3-3.7c.8-.9,2-1.4,3.4-1.4s2.3.4,3,1.2c.7.8,1.1,1.9,1.1,3.4ZM451.1,385.7c0-.9-.3-1.5-.7-2-.5-.5-1.1-.8-1.9-.8s-1.6.2-2.1.7-.8,1.2-.9,2.1h5.6Z"/>
            <path id="DejaVuSans-20-6" data-name="DejaVuSans-20" d="M453.6,391.4"/>
            <path id="DejaVuSans-61-5" data-name="DejaVuSans-61" d="M465.1,386.6c-1.3,0-2.1.1-2.6.4s-.7.8-.7,1.5.2,1,.5,1.3c.4.3.9.5,1.5.5s1.6-.3,2.1-.9.8-1.4.8-2.5v-.3h-1.6ZM468.2,385.9v5.4h-1.6v-1.4c-.4.6-.8,1-1.3,1.3-.5.3-1.2.4-2,.4s-1.7-.3-2.3-.8c-.6-.5-.9-1.3-.9-2.2s.4-1.9,1.1-2.4c.7-.5,1.8-.8,3.2-.8h2.2v-.2c0-.7-.2-1.3-.7-1.7s-1.1-.6-2-.6-1.1,0-1.6.2c-.5.1-1,.3-1.5.6v-1.4c.6-.2,1.1-.4,1.7-.5.5-.1,1.1-.2,1.6-.2,1.4,0,2.4.4,3.1,1.1.7.7,1,1.8,1,3.2Z"/>
            <path id="DejaVuSans-6e-3" data-name="DejaVuSans-6e" d="M479.3,385.6v5.7h-1.6v-5.7c0-.9-.2-1.6-.5-2-.4-.4-.9-.7-1.6-.7s-1.5.3-2,.8c-.5.5-.7,1.3-.7,2.2v5.4h-1.6v-9.5h1.6v1.5c.4-.6.8-1,1.3-1.3.5-.3,1.1-.4,1.8-.4,1.1,0,1.9.3,2.5,1,.6.7.8,1.7.8,3Z"/>
            <path id="DejaVuSans-64" d="M488.7,383.3v-5.2h1.6v13.2h-1.6v-1.4c-.3.6-.7,1-1.2,1.3-.5.3-1.1.4-1.8.4-1.2,0-2.1-.5-2.8-1.4-.7-.9-1.1-2.1-1.1-3.6s.4-2.7,1.1-3.6c.7-.9,1.7-1.4,2.8-1.4s1.3.1,1.8.4c.5.3.9.7,1.2,1.3ZM483.4,386.6c0,1.2.2,2.1.7,2.7.5.7,1.1,1,2,1s1.5-.3,2-1c.5-.7.7-1.6.7-2.7s-.2-2.1-.7-2.7c-.5-.7-1.1-1-2-1s-1.5.3-2,1-.7,1.6-.7,2.7Z"/>
            <path id="DejaVuSans-20-7" data-name="DejaVuSans-20" d="M491.9,391.4"/>
            <path id="DejaVuSans-53" d="M506.7,379.1v1.7c-.7-.3-1.3-.5-1.8-.7-.6-.2-1.1-.2-1.7-.2-.9,0-1.7.2-2.2.5-.5.4-.8.9-.8,1.5s.2,1,.5,1.3c.3.3,1,.5,1.9.7l1,.2c1.3.2,2.2.7,2.8,1.3s.9,1.4.9,2.5-.4,2.2-1.2,2.8c-.8.6-2,1-3.6,1s-1.2,0-1.9-.2c-.7-.1-1.4-.3-2.1-.6v-1.8c.7.4,1.4.7,2,.9.7.2,1.3.3,2,.3,1,0,1.7-.2,2.3-.6.5-.4.8-.9.8-1.7s-.2-1.1-.6-1.5-1-.6-1.9-.8l-1-.2c-1.3-.3-2.2-.7-2.8-1.2-.6-.5-.9-1.3-.9-2.3s.4-2,1.2-2.7c.8-.6,1.9-1,3.3-1s1.2,0,1.8.2c.6.1,1.3.3,1.9.5Z"/>
            <path id="DejaVuSans-63" d="M516.9,382.2v1.5c-.4-.2-.9-.4-1.3-.5s-.9-.2-1.3-.2c-1,0-1.8.3-2.4,1-.6.6-.8,1.5-.8,2.7s.3,2.1.8,2.7c.6.6,1.4,1,2.4,1s.9,0,1.3-.2.9-.3,1.3-.5v1.4c-.4.2-.9.4-1.4.5-.5.1-1,.2-1.5.2-1.4,0-2.6-.5-3.4-1.4-.8-.9-1.3-2.1-1.3-3.6s.4-2.8,1.3-3.7c.9-.9,2-1.3,3.5-1.3s1,0,1.4.1c.5,0,.9.2,1.3.4Z"/>
            <path id="DejaVuSans-69-2" data-name="DejaVuSans-69" d="M519.7,381.8h1.6v9.5h-1.6v-9.5ZM519.7,378.1h1.6v2h-1.6v-2Z"/>
            <path id="DejaVuSans-65-8" data-name="DejaVuSans-65" d="M532.6,386.2v.8h-7.2c0,1.1.4,1.9,1,2.5.6.6,1.4.8,2.4.8s1.2,0,1.7-.2,1.1-.4,1.7-.7v1.5c-.6.2-1.1.4-1.7.5s-1.2.2-1.8.2c-1.5,0-2.7-.4-3.6-1.3-.9-.9-1.3-2.1-1.3-3.6s.4-2.8,1.3-3.7c.8-.9,2-1.4,3.4-1.4s2.3.4,3,1.2c.7.8,1.1,1.9,1.1,3.4ZM531.1,385.7c0-.9-.3-1.5-.7-2-.5-.5-1.1-.8-1.9-.8s-1.6.2-2.1.7-.8,1.2-.9,2.1h5.6Z"/>
            <path id="DejaVuSans-6e-4" data-name="DejaVuSans-6e" d="M543.1,385.6v5.7h-1.6v-5.7c0-.9-.2-1.6-.5-2-.4-.4-.9-.7-1.6-.7s-1.5.3-2,.8c-.5.5-.7,1.3-.7,2.2v5.4h-1.6v-9.5h1.6v1.5c.4-.6.8-1,1.3-1.3.5-.3,1.1-.4,1.8-.4,1.1,0,1.9.3,2.5,1,.6.7.8,1.7.8,3Z"/>
            <path id="DejaVuSans-63-2" data-name="DejaVuSans-63" d="M553.1,382.2v1.5c-.4-.2-.9-.4-1.3-.5s-.9-.2-1.3-.2c-1,0-1.8.3-2.4,1-.6.6-.8,1.5-.8,2.7s.3,2.1.8,2.7c.6.6,1.4,1,2.4,1s.9,0,1.3-.2.9-.3,1.3-.5v1.4c-.4.2-.9.4-1.4.5-.5.1-1,.2-1.5.2-1.4,0-2.6-.5-3.4-1.4-.8-.9-1.3-2.1-1.3-3.6s.4-2.8,1.3-3.7c.9-.9,2-1.3,3.5-1.3s1,0,1.4.1c.5,0,.9.2,1.3.4Z"/>
            <path id="DejaVuSans-65-9" data-name="DejaVuSans-65" d="M564,386.2v.8h-7.2c0,1.1.4,1.9,1,2.5.6.6,1.4.8,2.4.8s1.2,0,1.7-.2,1.1-.4,1.7-.7v1.5c-.6.2-1.1.4-1.7.5s-1.2.2-1.8.2c-1.5,0-2.7-.4-3.6-1.3-.9-.9-1.3-2.1-1.3-3.6s.4-2.8,1.3-3.7c.8-.9,2-1.4,3.4-1.4s2.3.4,3,1.2c.7.8,1.1,1.9,1.1,3.4ZM562.4,385.7c0-.9-.3-1.5-.7-2-.5-.5-1.1-.8-1.9-.8s-1.6.2-2.1.7-.8,1.2-.9,2.1h5.6Z"/>
          </g>
        </g>
        <g id="text_4">
          <g>
            <path id="DejaVuSans-44-2" data-name="DejaVuSans-44" class="cls-25" d="M175,52.1v7.9h1.7c1.4,0,2.4-.3,3.1-1,.7-.6,1-1.6,1-3s-.3-2.4-1-3-1.7-1-3.1-1h-1.7ZM173.6,51h2.8c2,0,3.4.4,4.4,1.2.9.8,1.4,2.1,1.4,3.9s-.5,3.1-1.4,3.9c-.9.8-2.4,1.2-4.3,1.2h-2.8v-10.2Z"/>
            <path id="DejaVuSans-61-6" data-name="DejaVuSans-61" class="cls-25" d="M187.8,57.4c-1,0-1.7.1-2.1.3s-.6.6-.6,1.2.1.8.4,1.1c.3.3.7.4,1.2.4s1.3-.2,1.7-.7.6-1.2.6-2v-.3h-1.3ZM190.3,56.8v4.4h-1.3v-1.2c-.3.5-.6.8-1.1,1-.4.2-1,.3-1.6.3s-1.4-.2-1.9-.7c-.5-.4-.7-1-.7-1.8s.3-1.5.9-1.9c.6-.4,1.4-.7,2.6-.7h1.8c0-.7-.2-1.2-.6-1.5s-.9-.5-1.6-.5-.9,0-1.3.2c-.4.1-.8.3-1.2.5v-1.2c.5-.2.9-.3,1.3-.4.4,0,.9-.1,1.3-.1,1.1,0,1.9.3,2.5.9.5.6.8,1.4.8,2.6Z"/>
            <path id="DejaVuSans-6c-3" data-name="DejaVuSans-6c" class="cls-25" d="M192.9,50.6h1.3v10.6h-1.3v-10.6Z"/>
            <path id="DejaVuSans-6c-4" data-name="DejaVuSans-6c" class="cls-25" d="M196.8,50.6h1.3v10.6h-1.3v-10.6Z"/>
            <path id="DejaVuSans-61-7" data-name="DejaVuSans-61" class="cls-25" d="M204.1,57.4c-1,0-1.7.1-2.1.3s-.6.6-.6,1.2.1.8.4,1.1c.3.3.7.4,1.2.4s1.3-.2,1.7-.7.6-1.2.6-2v-.3h-1.3ZM206.6,56.8v4.4h-1.3v-1.2c-.3.5-.6.8-1.1,1-.4.2-1,.3-1.6.3s-1.4-.2-1.9-.7c-.5-.4-.7-1-.7-1.8s.3-1.5.9-1.9c.6-.4,1.4-.7,2.6-.7h1.8c0-.7-.2-1.2-.6-1.5s-.9-.5-1.6-.5-.9,0-1.3.2c-.4.1-.8.3-1.2.5v-1.2c.5-.2.9-.3,1.3-.4.4,0,.9-.1,1.3-.1,1.1,0,1.9.3,2.5.9.5.6.8,1.4.8,2.6Z"/>
            <path id="DejaVuSans-73-2" data-name="DejaVuSans-73" class="cls-25" d="M214.1,53.8v1.2c-.4-.2-.7-.3-1.1-.4-.4,0-.8-.1-1.2-.1-.6,0-1.1,0-1.4.3-.3.2-.5.5-.5.9s.1.5.3.7.7.3,1.3.5h.4c.9.3,1.5.6,1.9.9s.6.8.6,1.5-.3,1.3-.8,1.7c-.6.4-1.3.6-2.3.6s-.8,0-1.3-.1c-.4,0-.9-.2-1.4-.4v-1.3c.5.2.9.4,1.4.5.5.1.9.2,1.3.2s1-.1,1.4-.3c.3-.2.5-.5.5-.9s-.1-.6-.3-.8c-.2-.2-.7-.4-1.5-.5h-.4c-.8-.3-1.3-.5-1.7-.9-.3-.3-.5-.8-.5-1.4s.3-1.3.8-1.7c.5-.4,1.2-.6,2.2-.6s.9,0,1.3.1c.4,0,.8.2,1.1.3Z"/>
            <path id="DejaVuSans-20-8" data-name="DejaVuSans-20" class="cls-25" d="M215.2,61.2"/>
            <path id="DejaVuSans-2013" class="cls-25" d="M220.3,56.9h5.6v1h-5.6v-1Z"/>
            <path id="DejaVuSans-20-9" data-name="DejaVuSans-20" class="cls-25" d="M226.7,61.2"/>
            <path id="DejaVuSans-49" class="cls-25" d="M232.5,51h1.4v10.2h-1.4v-10.2Z"/>
            <path id="DejaVuSans-6e-5" data-name="DejaVuSans-6e" class="cls-25" d="M242.9,56.6v4.6h-1.3v-4.6c0-.7-.1-1.3-.4-1.6-.3-.4-.7-.5-1.3-.5s-1.2.2-1.6.6c-.4.4-.6,1-.6,1.8v4.3h-1.3v-7.7h1.3v1.2c.3-.5.7-.8,1.1-1,.4-.2.9-.3,1.4-.3.9,0,1.5.3,2,.8.5.5.7,1.3.7,2.4Z"/>
            <path id="DejaVuSans-73-3" data-name="DejaVuSans-73" class="cls-25" d="M250.3,53.8v1.2c-.4-.2-.7-.3-1.1-.4-.4,0-.8-.1-1.2-.1-.6,0-1.1,0-1.4.3-.3.2-.5.5-.5.9s.1.5.3.7.7.3,1.3.5h.4c.9.3,1.5.6,1.9.9s.6.8.6,1.5-.3,1.3-.8,1.7c-.6.4-1.3.6-2.3.6s-.8,0-1.3-.1c-.4,0-.9-.2-1.4-.4v-1.3c.5.2.9.4,1.4.5.5.1.9.2,1.3.2s1-.1,1.4-.3c.3-.2.5-.5.5-.9s-.1-.6-.3-.8c-.2-.2-.7-.4-1.5-.5h-.4c-.8-.3-1.3-.5-1.7-.9-.3-.3-.5-.8-.5-1.4s.3-1.3.8-1.7c.5-.4,1.2-.6,2.2-.6s.9,0,1.3.1c.4,0,.8.2,1.1.3Z"/>
            <path id="DejaVuSans-74-3" data-name="DejaVuSans-74" class="cls-25" d="M254,51.4v2.2h2.6v1h-2.6v4.2c0,.6,0,1,.3,1.2s.5.3,1,.3h1.3v1.1h-1.3c-1,0-1.6-.2-2-.5-.4-.4-.6-1-.6-2v-4.2h-.9v-1h.9v-2.2h1.3Z"/>
            <path id="DejaVuSans-61-8" data-name="DejaVuSans-61" class="cls-25" d="M261.7,57.4c-1,0-1.7.1-2.1.3s-.6.6-.6,1.2.1.8.4,1.1c.3.3.7.4,1.2.4s1.3-.2,1.7-.7.6-1.2.6-2v-.3h-1.3ZM264.2,56.8v4.4h-1.3v-1.2c-.3.5-.6.8-1.1,1-.4.2-1,.3-1.6.3s-1.4-.2-1.9-.7c-.5-.4-.7-1-.7-1.8s.3-1.5.9-1.9c.6-.4,1.4-.7,2.6-.7h1.8c0-.7-.2-1.2-.6-1.5s-.9-.5-1.6-.5-.9,0-1.3.2c-.4.1-.8.3-1.2.5v-1.2c.5-.2.9-.3,1.3-.4.4,0,.9-.1,1.3-.1,1.1,0,1.9.3,2.5.9.5.6.8,1.4.8,2.6Z"/>
            <path id="DejaVuSans-67" class="cls-25" d="M271.8,57.3c0-.9-.2-1.6-.6-2.1-.4-.5-.9-.8-1.6-.8s-1.2.3-1.6.8c-.4.5-.6,1.2-.6,2.1s.2,1.6.6,2.1c.4.5.9.8,1.6.8s1.2-.3,1.6-.8c.4-.5.6-1.2.6-2.1ZM273.1,60.3c0,1.3-.3,2.3-.9,2.9-.6.6-1.5,1-2.7,1s-.9,0-1.3,0-.8-.2-1.1-.3v-1.2c.4.2.7.3,1.1.4.4,0,.7.1,1.1.1.8,0,1.4-.2,1.9-.6.4-.4.6-1.1.6-2v-.6c-.3.5-.6.8-1,1s-.9.3-1.5.3c-.9,0-1.7-.4-2.3-1.1-.6-.7-.9-1.7-.9-2.8s.3-2.1.9-2.8c.6-.7,1.3-1.1,2.3-1.1s1.1.1,1.5.3.7.6,1,1v-1.2h1.3v6.7Z"/>
            <path id="DejaVuSans-72-4" data-name="DejaVuSans-72" class="cls-25" d="M280.1,54.7c-.1,0-.3-.1-.5-.2-.2,0-.3,0-.5,0-.7,0-1.3.2-1.6.7s-.6,1.1-.6,2v4h-1.3v-7.7h1.3v1.2c.3-.5.6-.8,1-1,.4-.2.9-.3,1.5-.3s.2,0,.3,0c.1,0,.2,0,.3,0v1.3Z"/>
            <path id="DejaVuSans-61-9" data-name="DejaVuSans-61" class="cls-25" d="M284.9,57.4c-1,0-1.7.1-2.1.3s-.6.6-.6,1.2.1.8.4,1.1c.3.3.7.4,1.2.4s1.3-.2,1.7-.7.6-1.2.6-2v-.3h-1.3ZM287.4,56.8v4.4h-1.3v-1.2c-.3.5-.6.8-1.1,1-.4.2-1,.3-1.6.3s-1.4-.2-1.9-.7c-.5-.4-.7-1-.7-1.8s.3-1.5.9-1.9c.6-.4,1.4-.7,2.6-.7h1.8c0-.7-.2-1.2-.6-1.5s-.9-.5-1.6-.5-.9,0-1.3.2c-.4.1-.8.3-1.2.5v-1.2c.5-.2.9-.3,1.3-.4.4,0,.9-.1,1.3-.1,1.1,0,1.9.3,2.5.9.5.6.8,1.4.8,2.6Z"/>
            <path id="DejaVuSans-6d-2" data-name="DejaVuSans-6d" class="cls-25" d="M296,55c.3-.6.7-1,1.1-1.3s1-.4,1.5-.4,1.4.3,1.8.8c.4.6.6,1.4.6,2.4v4.6h-1.3v-4.6c0-.7-.1-1.3-.4-1.6-.3-.4-.7-.5-1.2-.5s-1.2.2-1.5.6c-.4.4-.6,1-.6,1.8v4.3h-1.3v-4.6c0-.7-.1-1.3-.4-1.6s-.7-.5-1.2-.5-1.2.2-1.5.7c-.4.4-.6,1-.6,1.8v4.3h-1.3v-7.7h1.3v1.2c.3-.5.6-.8,1-1s.9-.3,1.4-.3,1,.1,1.4.4c.4.3.7.7.9,1.2Z"/>
            <path id="DejaVuSans-20-10" data-name="DejaVuSans-20" class="cls-25" d="M302.3,61.2"/>
            <path id="DejaVuSans-43" class="cls-25" d="M315.8,51.8v1.5c-.5-.4-1-.8-1.5-1-.5-.2-1.1-.3-1.7-.3-1.2,0-2.1.4-2.7,1.1s-.9,1.7-.9,3.1.3,2.4.9,3.1,1.5,1.1,2.7,1.1,1.2-.1,1.7-.3,1-.5,1.5-1v1.4c-.5.3-1,.6-1.5.7-.5.2-1.1.2-1.7.2-1.5,0-2.8-.5-3.7-1.4-.9-.9-1.3-2.2-1.3-3.9s.4-2.9,1.3-3.9c.9-.9,2.1-1.4,3.7-1.4s1.2,0,1.7.2c.5.2,1,.4,1.5.7Z"/>
            <path id="DejaVuSans-61-10" data-name="DejaVuSans-61" class="cls-25" d="M321.4,57.4c-1,0-1.7.1-2.1.3s-.6.6-.6,1.2.1.8.4,1.1c.3.3.7.4,1.2.4s1.3-.2,1.7-.7.6-1.2.6-2v-.3h-1.3ZM323.9,56.8v4.4h-1.3v-1.2c-.3.5-.6.8-1.1,1-.4.2-1,.3-1.6.3s-1.4-.2-1.9-.7c-.5-.4-.7-1-.7-1.8s.3-1.5.9-1.9c.6-.4,1.4-.7,2.6-.7h1.8c0-.7-.2-1.2-.6-1.5s-.9-.5-1.6-.5-.9,0-1.3.2c-.4.1-.8.3-1.2.5v-1.2c.5-.2.9-.3,1.3-.4.4,0,.9-.1,1.3-.1,1.1,0,1.9.3,2.5.9.5.6.8,1.4.8,2.6Z"/>
            <path id="DejaVuSans-66-2" data-name="DejaVuSans-66" class="cls-25" d="M330.3,50.6v1h-1.2c-.5,0-.8,0-.9.3-.2.2-.3.5-.3,1v.7h2.1v1h-2.1v6.7h-1.3v-6.7h-1.2v-1h1.2v-.5c0-.9.2-1.5.6-1.9.4-.4,1-.6,1.9-.6h1.2Z"/>
            <path id="DejaVuSans-e9" class="cls-25" d="M337.9,57.1v.6h-5.8c0,.9.3,1.5.8,2,.5.5,1.1.7,2,.7s1,0,1.4-.2.9-.3,1.4-.5v1.2c-.5.2-.9.3-1.4.4s-1,.2-1.4.2c-1.2,0-2.2-.4-2.9-1.1-.7-.7-1.1-1.7-1.1-2.9s.3-2.2,1-3c.7-.7,1.6-1.1,2.7-1.1s1.8.3,2.4,1c.6.7.9,1.6.9,2.7ZM336.7,56.7c0-.7-.2-1.2-.6-1.6-.4-.4-.9-.6-1.5-.6s-1.3.2-1.7.6-.7,1-.7,1.7h4.5ZM335.5,50h1.4l-2.2,2.6h-1l1.9-2.6Z"/>
            <path id="DejaVuSans-73-4" data-name="DejaVuSans-73" class="cls-25" d="M344.9,53.8v1.2c-.4-.2-.7-.3-1.1-.4-.4,0-.8-.1-1.2-.1-.6,0-1.1,0-1.4.3-.3.2-.5.5-.5.9s.1.5.3.7.7.3,1.3.5h.4c.9.3,1.5.6,1.9.9s.6.8.6,1.5-.3,1.3-.8,1.7c-.6.4-1.3.6-2.3.6s-.8,0-1.3-.1c-.4,0-.9-.2-1.4-.4v-1.3c.5.2.9.4,1.4.5.5.1.9.2,1.3.2s1-.1,1.4-.3c.3-.2.5-.5.5-.9s-.1-.6-.3-.8c-.2-.2-.7-.4-1.5-.5h-.4c-.8-.3-1.3-.5-1.7-.9-.3-.3-.5-.8-.5-1.4s.3-1.3.8-1.7c.5-.4,1.2-.6,2.2-.6s.9,0,1.3.1c.4,0,.8.2,1.1.3Z"/>
            <path id="DejaVuSans-20-11" data-name="DejaVuSans-20" class="cls-25" d="M346,61.2"/>
            <path id="DejaVuSans-62" class="cls-25" d="M357.2,57.4c0-.9-.2-1.7-.6-2.2s-.9-.8-1.6-.8-1.2.3-1.6.8-.6,1.3-.6,2.2.2,1.7.6,2.2c.4.5.9.8,1.6.8s1.2-.3,1.6-.8c.4-.5.6-1.3.6-2.2ZM353,54.7c.3-.5.6-.8,1-1,.4-.2.9-.3,1.4-.3.9,0,1.7.4,2.3,1.1.6.7.9,1.7.9,2.9s-.3,2.2-.9,2.9c-.6.7-1.3,1.1-2.3,1.1s-1-.1-1.4-.3c-.4-.2-.7-.6-1-1v1.1h-1.3v-10.6h1.3v4.1Z"/>
            <path id="DejaVuSans-79-2" data-name="DejaVuSans-79" class="cls-25" d="M363.8,61.9c-.4.9-.7,1.5-1,1.8-.3.3-.8.4-1.4.4h-1v-1.1h.7c.3,0,.6,0,.8-.2.2-.2.4-.6.6-1.2l.2-.6-3.1-7.5h1.3l2.4,6,2.4-6h1.3l-3.4,8.4Z"/>
            <path id="DejaVuSans-20-12" data-name="DejaVuSans-20" class="cls-25" d="M367.6,61.2"/>
            <path id="DejaVuSans-54-2" data-name="DejaVuSans-54" class="cls-25" d="M372,51h8.6v1.2h-3.6v9h-1.4v-9h-3.6v-1.2Z"/>
            <path id="DejaVuSans-68" class="cls-25" d="M388.3,56.6v4.6h-1.3v-4.6c0-.7-.1-1.3-.4-1.6-.3-.4-.7-.5-1.3-.5s-1.2.2-1.6.6c-.4.4-.6,1-.6,1.8v4.3h-1.3v-10.6h1.3v4.2c.3-.5.7-.8,1.1-1,.4-.2.9-.3,1.4-.3.9,0,1.5.3,2,.8.5.5.7,1.3.7,2.4Z"/>
            <path id="DejaVuSans-65-10" data-name="DejaVuSans-65" class="cls-25" d="M397.3,57.1v.6h-5.8c0,.9.3,1.5.8,2,.5.5,1.1.7,2,.7s1,0,1.4-.2.9-.3,1.4-.5v1.2c-.5.2-.9.3-1.4.4s-1,.2-1.4.2c-1.2,0-2.2-.4-2.9-1.1-.7-.7-1.1-1.7-1.1-2.9s.3-2.2,1-3c.7-.7,1.6-1.1,2.7-1.1s1.8.3,2.4,1c.6.7.9,1.6.9,2.7ZM396.1,56.7c0-.7-.2-1.2-.6-1.6-.4-.4-.9-.6-1.5-.6s-1.3.2-1.7.6-.7,1-.7,1.7h4.5Z"/>
            <path id="DejaVuSans-6d-3" data-name="DejaVuSans-6d" class="cls-25" d="M405.4,55c.3-.6.7-1,1.1-1.3s1-.4,1.5-.4,1.4.3,1.8.8c.4.6.6,1.4.6,2.4v4.6h-1.3v-4.6c0-.7-.1-1.3-.4-1.6-.3-.4-.7-.5-1.2-.5s-1.2.2-1.5.6c-.4.4-.6,1-.6,1.8v4.3h-1.3v-4.6c0-.7-.1-1.3-.4-1.6s-.7-.5-1.2-.5-1.2.2-1.5.7c-.4.4-.6,1-.6,1.8v4.3h-1.3v-7.7h1.3v1.2c.3-.5.6-.8,1-1s.9-.3,1.4-.3,1,.1,1.4.4c.4.3.7.7.9,1.2Z"/>
            <path id="DejaVuSans-65-11" data-name="DejaVuSans-65" class="cls-25" d="M419.6,57.1v.6h-5.8c0,.9.3,1.5.8,2,.5.5,1.1.7,2,.7s1,0,1.4-.2.9-.3,1.4-.5v1.2c-.5.2-.9.3-1.4.4s-1,.2-1.4.2c-1.2,0-2.2-.4-2.9-1.1-.7-.7-1.1-1.7-1.1-2.9s.3-2.2,1-3c.7-.7,1.6-1.1,2.7-1.1s1.8.3,2.4,1c.6.7.9,1.6.9,2.7ZM418.3,56.7c0-.7-.2-1.2-.6-1.6-.4-.4-.9-.6-1.5-.6s-1.3.2-1.7.6-.7,1-.7,1.7h4.5Z"/>
          </g>
        </g>
        <rect class="cls-1" x="-319.2" y="-95.7" width="634.8" height="566.2"/>
        <g id="legend_1">
          <g id="text_5">
            <g>
              <path id="DejaVuSans-50-3" data-name="DejaVuSans-50" class="cls-25" d="M448,109.7v3.3h1.5c.6,0,1-.1,1.3-.4.3-.3.5-.7.5-1.2s-.2-.9-.5-1.2c-.3-.3-.7-.4-1.3-.4h-1.5ZM446.8,108.8h2.7c1,0,1.7.2,2.2.7.5.4.8,1.1.8,1.9s-.3,1.5-.8,2c-.5.4-1.2.7-2.2.7h-1.5v3.5h-1.2v-8.7Z"/>
              <path id="DejaVuSans-72-5" data-name="DejaVuSans-72" class="cls-25" d="M457.6,111.9c-.1,0-.3-.1-.4-.2-.1,0-.3,0-.5,0-.6,0-1.1.2-1.4.6s-.5,1-.5,1.7v3.5h-1.1v-6.6h1.1v1c.2-.4.5-.7.9-.9.4-.2.8-.3,1.3-.3s.2,0,.2,0c0,0,.2,0,.3,0v1.1Z"/>
              <path id="DejaVuSans-69-3" data-name="DejaVuSans-69" class="cls-25" d="M458.8,110.9h1.1v6.6h-1.1v-6.6ZM458.8,108.4h1.1v1.4h-1.1v-1.4Z"/>
              <path id="DejaVuSans-6d-4" data-name="DejaVuSans-6d" class="cls-25" d="M467.2,112.2c.3-.5.6-.8,1-1.1s.8-.3,1.3-.3,1.2.2,1.6.7c.4.5.6,1.2.6,2v4h-1.1v-3.9c0-.6-.1-1.1-.3-1.4-.2-.3-.6-.5-1-.5s-1,.2-1.3.6c-.3.4-.5.9-.5,1.5v3.7h-1.1v-3.9c0-.6-.1-1.1-.3-1.4s-.6-.5-1-.5-1,.2-1.3.6c-.3.4-.5.9-.5,1.5v3.7h-1.1v-6.6h1.1v1c.2-.4.5-.7.9-.9s.8-.3,1.2-.3.9.1,1.2.4c.3.2.6.6.7,1.1Z"/>
              <path id="DejaVuSans-61-11" data-name="DejaVuSans-61" class="cls-25" d="M476.8,114.2c-.9,0-1.5,0-1.8.3s-.5.5-.5,1,.1.7.4.9c.3.2.6.3,1,.3s1.1-.2,1.4-.6.5-1,.5-1.7v-.2h-1.1ZM478.9,113.8v3.7h-1.1v-1c-.2.4-.6.7-.9.9-.4.2-.8.3-1.3.3s-1.2-.2-1.6-.6c-.4-.4-.6-.9-.6-1.5s.2-1.3.7-1.7c.5-.4,1.2-.6,2.2-.6h1.5c0-.6-.2-1-.5-1.3s-.8-.4-1.4-.4-.7,0-1.1.1c-.4,0-.7.2-1,.4v-1c.4-.2.8-.3,1.1-.3.4,0,.7-.1,1.1-.1,1,0,1.7.2,2.1.7.5.5.7,1.2.7,2.2Z"/>
              <path id="DejaVuSans-72-6" data-name="DejaVuSans-72" class="cls-25" d="M484.9,111.9c-.1,0-.3-.1-.4-.2-.1,0-.3,0-.5,0-.6,0-1.1.2-1.4.6s-.5,1-.5,1.7v3.5h-1.1v-6.6h1.1v1c.2-.4.5-.7.9-.9.4-.2.8-.3,1.3-.3s.2,0,.2,0c0,0,.2,0,.3,0v1.1Z"/>
              <path id="DejaVuSans-79-3" data-name="DejaVuSans-79" class="cls-25" d="M488.8,118.1c-.3.8-.6,1.3-.9,1.5-.3.2-.7.4-1.2.4h-.9v-.9h.6c.3,0,.5,0,.7-.2.2-.1.3-.5.5-1l.2-.5-2.7-6.5h1.1l2.1,5.1,2.1-5.1h1.1l-2.9,7.2Z"/>
              <path id="DejaVuSans-20-13" data-name="DejaVuSans-20" class="cls-25" d="M492,117.5"/>
              <path id="DejaVuSans-54-3" data-name="DejaVuSans-54" class="cls-25" d="M495.8,108.8h7.4v1h-3.1v7.8h-1.2v-7.8h-3.1v-1Z"/>
              <path id="DejaVuSans-68-2" data-name="DejaVuSans-68" class="cls-25" d="M509.8,113.5v4h-1.1v-3.9c0-.6-.1-1.1-.4-1.4-.2-.3-.6-.5-1.1-.5s-1,.2-1.4.6c-.3.4-.5.9-.5,1.5v3.7h-1.1v-9.1h1.1v3.6c.3-.4.6-.7.9-.9.3-.2.8-.3,1.2-.3.8,0,1.3.2,1.7.7.4.5.6,1.2.6,2.1Z"/>
              <path id="DejaVuSans-65-12" data-name="DejaVuSans-65" class="cls-25" d="M517.5,113.9v.5h-5c0,.7.3,1.3.7,1.7.4.4,1,.6,1.7.6s.8,0,1.2-.2.8-.3,1.2-.5v1c-.4.2-.8.3-1.2.4s-.8.1-1.2.1c-1,0-1.9-.3-2.5-.9-.6-.6-.9-1.4-.9-2.5s.3-1.9.9-2.6c.6-.6,1.4-.9,2.3-.9s1.6.3,2.1.9c.5.6.8,1.3.8,2.3ZM516.5,113.6c0-.6-.2-1.1-.5-1.4-.3-.4-.7-.5-1.3-.5s-1.1.2-1.4.5-.6.8-.6,1.4h3.8Z"/>
              <path id="DejaVuSans-6d-5" data-name="DejaVuSans-6d" class="cls-25" d="M524.4,112.2c.3-.5.6-.8,1-1.1s.8-.3,1.3-.3,1.2.2,1.6.7c.4.5.6,1.2.6,2v4h-1.1v-3.9c0-.6-.1-1.1-.3-1.4-.2-.3-.6-.5-1-.5s-1,.2-1.3.6c-.3.4-.5.9-.5,1.5v3.7h-1.1v-3.9c0-.6-.1-1.1-.3-1.4s-.6-.5-1-.5-1,.2-1.3.6c-.3.4-.5.9-.5,1.5v3.7h-1.1v-6.6h1.1v1c.2-.4.5-.7.9-.9s.8-.3,1.2-.3.9.1,1.2.4c.3.2.6.6.7,1.1Z"/>
              <path id="DejaVuSans-65-13" data-name="DejaVuSans-65" class="cls-25" d="M536.6,113.9v.5h-5c0,.7.3,1.3.7,1.7.4.4,1,.6,1.7.6s.8,0,1.2-.2.8-.3,1.2-.5v1c-.4.2-.8.3-1.2.4s-.8.1-1.2.1c-1,0-1.9-.3-2.5-.9-.6-.6-.9-1.4-.9-2.5s.3-1.9.9-2.6c.6-.6,1.4-.9,2.3-.9s1.6.3,2.1.9c.5.6.8,1.3.8,2.3ZM535.5,113.6c0-.6-.2-1.1-.5-1.4-.3-.4-.7-.5-1.3-.5s-1.1.2-1.4.5-.6.8-.6,1.4h3.8Z"/>
            </g>
          </g>
          <g id="PathCollection_7">
            <path id="m8b754c6df4" class="cls-5" d="M434.8,134.5c.9,0,1.8-.4,2.5-1s1-1.6,1-2.5-.4-1.8-1-2.5-1.6-1-2.5-1-1.8.4-2.5,1-1,1.6-1,2.5.4,1.8,1,2.5,1.6,1,2.5,1Z"/>
          </g>
          <g id="text_6">
            <g>
              <path id="DejaVuSans-63-3" data-name="DejaVuSans-63" class="cls-25" d="M459.9,128.1v.9c-.3-.2-.6-.3-.8-.3s-.6-.1-.9-.1c-.6,0-1.1.2-1.5.6-.4.4-.5,1-.5,1.7s.2,1.3.5,1.7c.4.4.9.6,1.5.6s.6,0,.9-.1.6-.2.8-.3v.9c-.3.1-.6.2-.9.3-.3,0-.6,0-.9,0-.9,0-1.6-.3-2.2-.9-.5-.6-.8-1.3-.8-2.3s.3-1.8.8-2.3c.5-.6,1.3-.8,2.2-.8s.6,0,.9,0c.3,0,.6.2.8.3Z"/>
              <path id="DejaVuSans-6f-5" data-name="DejaVuSans-6f" class="cls-25" d="M464,128.5c-.5,0-.9.2-1.3.6s-.5,1-.5,1.7.2,1.3.5,1.7c.3.4.7.6,1.3.6s.9-.2,1.3-.6c.3-.4.5-1,.5-1.7s-.2-1.3-.5-1.7c-.3-.4-.7-.6-1.3-.6ZM464,127.7c.9,0,1.5.3,2,.8.5.6.7,1.3.7,2.3s-.2,1.8-.7,2.3c-.5.6-1.2.8-2,.8s-1.5-.3-2-.8c-.5-.6-.7-1.3-.7-2.3s.2-1.8.7-2.3c.5-.6,1.2-.8,2-.8Z"/>
              <path id="DejaVuSans-6d-6" data-name="DejaVuSans-6d" class="cls-25" d="M473.1,129c.2-.4.5-.8.9-1s.7-.3,1.2-.3,1.1.2,1.5.7c.3.4.5,1.1.5,1.9v3.6h-1v-3.6c0-.6-.1-1-.3-1.3-.2-.3-.5-.4-.9-.4s-.9.2-1.2.5c-.3.3-.4.8-.4,1.4v3.4h-1v-3.6c0-.6-.1-1-.3-1.3s-.5-.4-.9-.4-.9.2-1.2.5c-.3.3-.4.8-.4,1.4v3.4h-1v-6h1v.9c.2-.4.5-.6.8-.8s.7-.3,1.1-.3.8.1,1.1.3c.3.2.5.5.7,1Z"/>
              <path id="DejaVuSans-6d-7" data-name="DejaVuSans-6d" class="cls-25" d="M483.8,129c.2-.4.5-.8.9-1s.7-.3,1.2-.3,1.1.2,1.5.7c.3.4.5,1.1.5,1.9v3.6h-1v-3.6c0-.6-.1-1-.3-1.3-.2-.3-.5-.4-.9-.4s-.9.2-1.2.5c-.3.3-.4.8-.4,1.4v3.4h-1v-3.6c0-.6-.1-1-.3-1.3s-.5-.4-.9-.4-.9.2-1.2.5c-.3.3-.4.8-.4,1.4v3.4h-1v-6h1v.9c.2-.4.5-.6.8-.8s.7-.3,1.1-.3.8.1,1.1.3c.3.2.5.5.7,1Z"/>
              <path id="DejaVuSans-75-5" data-name="DejaVuSans-75" class="cls-25" d="M489.7,131.5v-3.6h1v3.6c0,.6.1,1,.3,1.3.2.3.6.4,1,.4s1-.2,1.3-.5c.3-.3.5-.8.5-1.4v-3.4h1v6h-1v-.9c-.2.4-.5.6-.8.8-.3.2-.7.3-1.1.3-.7,0-1.2-.2-1.6-.6-.4-.4-.5-1.1-.5-1.9ZM492.2,127.7h0Z"/>
              <path id="DejaVuSans-6e-6" data-name="DejaVuSans-6e" class="cls-25" d="M501.8,130.2v3.6h-1v-3.6c0-.6-.1-1-.3-1.3-.2-.3-.6-.4-1-.4s-1,.2-1.3.5c-.3.3-.5.8-.5,1.4v3.4h-1v-6h1v.9c.2-.4.5-.6.8-.8.3-.2.7-.3,1.1-.3.7,0,1.2.2,1.6.6.4.4.5,1.1.5,1.9Z"/>
              <path id="DejaVuSans-69-4" data-name="DejaVuSans-69" class="cls-25" d="M503.8,127.8h1v6h-1v-6ZM503.8,125.5h1v1.3h-1v-1.3Z"/>
              <path id="DejaVuSans-74-4" data-name="DejaVuSans-74" class="cls-25" d="M507.8,126.1v1.7h2v.8h-2v3.3c0,.5,0,.8.2.9s.4.2.8.2h1v.8h-1c-.8,0-1.3-.1-1.6-.4-.3-.3-.4-.8-.4-1.6v-3.3h-.7v-.8h.7v-1.7h1Z"/>
              <path id="DejaVuSans-79-4" data-name="DejaVuSans-79" class="cls-25" d="M513.6,134.4c-.3.7-.6,1.2-.8,1.4-.3.2-.6.3-1.1.3h-.8v-.8h.6c.3,0,.5,0,.6-.2.2-.1.3-.4.5-.9l.2-.5-2.4-5.9h1l1.9,4.7,1.9-4.7h1l-2.6,6.6Z"/>
              <path id="DejaVuSans-5f" class="cls-25" d="M522.2,135.7v.8h-5.7v-.8h5.7Z"/>
              <path id="DejaVuSans-65-14" data-name="DejaVuSans-65" class="cls-25" d="M528.3,130.6v.5h-4.5c0,.7.2,1.2.6,1.6.4.4.9.5,1.5.5s.7,0,1.1-.1.7-.2,1.1-.4v.9c-.4.2-.7.3-1.1.3s-.7.1-1.1.1c-1,0-1.7-.3-2.3-.8-.6-.6-.8-1.3-.8-2.3s.3-1.8.8-2.3c.5-.6,1.2-.9,2.2-.9s1.4.3,1.9.8c.5.5.7,1.2.7,2.1ZM527.3,130.3c0-.5-.2-1-.5-1.3-.3-.3-.7-.5-1.2-.5s-1,.2-1.3.5-.5.8-.6,1.3h3.5Z"/>
              <path id="DejaVuSans-76" class="cls-25" d="M529.2,127.8h1l1.9,5,1.9-5h1l-2.3,6h-1.3l-2.3-6Z"/>
              <path id="DejaVuSans-65-15" data-name="DejaVuSans-65" class="cls-25" d="M541.6,130.6v.5h-4.5c0,.7.2,1.2.6,1.6.4.4.9.5,1.5.5s.7,0,1.1-.1.7-.2,1.1-.4v.9c-.4.2-.7.3-1.1.3s-.7.1-1.1.1c-1,0-1.7-.3-2.3-.8-.6-.6-.8-1.3-.8-2.3s.3-1.8.8-2.3c.5-.6,1.2-.9,2.2-.9s1.4.3,1.9.8c.5.5.7,1.2.7,2.1ZM540.6,130.3c0-.5-.2-1-.5-1.3-.3-.3-.7-.5-1.2-.5s-1,.2-1.3.5-.5.8-.6,1.3h3.5Z"/>
              <path id="DejaVuSans-6e-7" data-name="DejaVuSans-6e" class="cls-25" d="M548.2,130.2v3.6h-1v-3.6c0-.6-.1-1-.3-1.3-.2-.3-.6-.4-1-.4s-1,.2-1.3.5c-.3.3-.5.8-.5,1.4v3.4h-1v-6h1v.9c.2-.4.5-.6.8-.8.3-.2.7-.3,1.1-.3.7,0,1.2.2,1.6.6.4.4.5,1.1.5,1.9Z"/>
              <path id="DejaVuSans-74-5" data-name="DejaVuSans-74" class="cls-25" d="M551.1,126.1v1.7h2v.8h-2v3.3c0,.5,0,.8.2.9s.4.2.8.2h1v.8h-1c-.8,0-1.3-.1-1.6-.4-.3-.3-.4-.8-.4-1.6v-3.3h-.7v-.8h.7v-1.7h1Z"/>
              <path id="DejaVuSans-73-5" data-name="DejaVuSans-73" class="cls-25" d="M558.3,128v.9c-.3-.1-.6-.3-.9-.3-.3,0-.6-.1-.9-.1-.5,0-.9,0-1.1.2-.2.2-.4.4-.4.7s0,.4.3.5.5.3,1.1.4h.3c.7.2,1.2.4,1.5.7s.4.7.4,1.1-.2,1-.7,1.3c-.4.3-1.1.5-1.8.5s-.7,0-1,0c-.3,0-.7-.2-1.1-.3v-1c.4.2.7.3,1.1.4.4,0,.7.1,1.1.1s.8,0,1.1-.2c.3-.2.4-.4.4-.7s0-.5-.3-.6c-.2-.1-.6-.3-1.2-.4h-.3c-.6-.2-1.1-.4-1.3-.7-.3-.3-.4-.6-.4-1.1s.2-1,.6-1.3c.4-.3,1-.5,1.7-.5s.7,0,1,0c.3,0,.6.1.9.2Z"/>
            </g>
          </g>
          <g id="PathCollection_8">
            <path id="m6186152b22" class="cls-8" d="M434.8,151c.9,0,1.8-.4,2.5-1s1-1.6,1-2.5-.4-1.8-1-2.5-1.6-1-2.5-1-1.8.4-2.5,1-1,1.6-1,2.5.4,1.8,1,2.5,1.6,1,2.5,1Z"/>
          </g>
          <g id="text_7">
            <g>
              <path id="DejaVuSans-64-2" data-name="DejaVuSans-64" class="cls-25" d="M459.6,145.2v-3.3h1v8.4h-1v-.9c-.2.4-.5.6-.8.8-.3.2-.7.3-1.1.3-.7,0-1.3-.3-1.8-.9-.5-.6-.7-1.3-.7-2.3s.2-1.7.7-2.3c.5-.6,1-.9,1.8-.9s.8,0,1.1.3c.3.2.6.4.8.8ZM456.2,147.3c0,.7.1,1.3.4,1.7.3.4.7.6,1.2.6s.9-.2,1.2-.6c.3-.4.5-1,.5-1.7s-.2-1.3-.5-1.7c-.3-.4-.7-.6-1.2-.6s-.9.2-1.2.6-.4,1-.4,1.7Z"/>
              <path id="DejaVuSans-65-16" data-name="DejaVuSans-65" class="cls-25" d="M467.7,147.1v.5h-4.5c0,.7.2,1.2.6,1.6.4.4.9.5,1.5.5s.7,0,1.1-.1.7-.2,1.1-.4v.9c-.4.2-.7.3-1.1.3s-.7.1-1.1.1c-1,0-1.7-.3-2.3-.8-.6-.6-.8-1.3-.8-2.3s.3-1.8.8-2.3c.5-.6,1.2-.9,2.2-.9s1.4.3,1.9.8c.5.5.7,1.2.7,2.1ZM466.7,146.8c0-.5-.2-1-.5-1.3-.3-.3-.7-.5-1.2-.5s-1,.2-1.3.5-.5.8-.6,1.3h3.5Z"/>
              <path id="DejaVuSans-73-6" data-name="DejaVuSans-73" class="cls-25" d="M473.2,144.5v.9c-.3-.1-.6-.3-.9-.3-.3,0-.6-.1-.9-.1-.5,0-.9,0-1.1.2-.2.2-.4.4-.4.7s0,.4.3.5.5.3,1.1.4h.3c.7.2,1.2.4,1.5.7s.4.7.4,1.1-.2,1-.7,1.3c-.4.3-1.1.5-1.8.5s-.7,0-1,0c-.3,0-.7-.2-1.1-.3v-1c.4.2.7.3,1.1.4.4,0,.7.1,1.1.1s.8,0,1.1-.2c.3-.2.4-.4.4-.7s0-.5-.3-.6c-.2-.1-.6-.3-1.2-.4h-.3c-.6-.2-1.1-.4-1.3-.7-.3-.3-.4-.6-.4-1.1s.2-1,.6-1.3c.4-.3,1-.5,1.7-.5s.7,0,1,0c.3,0,.6.1.9.2Z"/>
              <path id="DejaVuSans-69-5" data-name="DejaVuSans-69" class="cls-25" d="M475.1,144.3h1v6h-1v-6ZM475.1,141.9h1v1.3h-1v-1.3Z"/>
              <path id="DejaVuSans-67-2" data-name="DejaVuSans-67" class="cls-25" d="M482.1,147.2c0-.7-.1-1.3-.4-1.7-.3-.4-.7-.6-1.2-.6s-.9.2-1.2.6c-.3.4-.4.9-.4,1.7s.1,1.3.4,1.7c.3.4.7.6,1.2.6s.9-.2,1.2-.6c.3-.4.4-.9.4-1.7ZM483.1,149.6c0,1-.2,1.8-.7,2.3-.5.5-1.1.7-2.1.7s-.7,0-1,0-.6-.1-.9-.2v-1c.3.2.6.3.9.3.3,0,.6.1.9.1.6,0,1.1-.2,1.5-.5.3-.3.5-.8.5-1.5v-.5c-.2.4-.5.6-.8.8s-.7.3-1.1.3c-.7,0-1.3-.3-1.8-.8-.5-.6-.7-1.3-.7-2.2s.2-1.7.7-2.2c.5-.6,1-.8,1.8-.8s.8,0,1.1.3.6.4.8.8v-.9h1v5.3Z"/>
              <path id="DejaVuSans-6e-8" data-name="DejaVuSans-6e" class="cls-25" d="M490.1,146.7v3.6h-1v-3.6c0-.6-.1-1-.3-1.3-.2-.3-.6-.4-1-.4s-1,.2-1.3.5c-.3.3-.5.8-.5,1.4v3.4h-1v-6h1v.9c.2-.4.5-.6.8-.8.3-.2.7-.3,1.1-.3.7,0,1.2.2,1.6.6.4.4.5,1.1.5,1.9Z"/>
              <path id="DejaVuSans-5f-2" data-name="DejaVuSans-5f" class="cls-25" d="M496.7,152.1v.8h-5.7v-.8h5.7Z"/>
              <path id="DejaVuSans-6d-8" data-name="DejaVuSans-6d" class="cls-25" d="M502.3,145.4c.2-.4.5-.8.9-1s.7-.3,1.2-.3,1.1.2,1.5.7c.3.4.5,1.1.5,1.9v3.6h-1v-3.6c0-.6-.1-1-.3-1.3-.2-.3-.5-.4-.9-.4s-.9.2-1.2.5c-.3.3-.4.8-.4,1.4v3.4h-1v-3.6c0-.6-.1-1-.3-1.3s-.5-.4-.9-.4-.9.2-1.2.5c-.3.3-.4.8-.4,1.4v3.4h-1v-6h1v.9c.2-.4.5-.6.8-.8s.7-.3,1.1-.3.8.1,1.1.3c.3.2.5.5.7,1Z"/>
              <path id="DejaVuSans-69-6" data-name="DejaVuSans-69" class="cls-25" d="M508.3,144.3h1v6h-1v-6ZM508.3,141.9h1v1.3h-1v-1.3Z"/>
              <path id="DejaVuSans-6e-9" data-name="DejaVuSans-6e" class="cls-25" d="M516.4,146.7v3.6h-1v-3.6c0-.6-.1-1-.3-1.3-.2-.3-.6-.4-1-.4s-1,.2-1.3.5c-.3.3-.5.8-.5,1.4v3.4h-1v-6h1v.9c.2-.4.5-.6.8-.8.3-.2.7-.3,1.1-.3.7,0,1.2.2,1.6.6.4.4.5,1.1.5,1.9Z"/>
              <path id="DejaVuSans-69-7" data-name="DejaVuSans-69" class="cls-25" d="M518.3,144.3h1v6h-1v-6ZM518.3,141.9h1v1.3h-1v-1.3Z"/>
              <path id="DejaVuSans-6d-9" data-name="DejaVuSans-6d" class="cls-25" d="M526.1,145.4c.2-.4.5-.8.9-1s.7-.3,1.2-.3,1.1.2,1.5.7c.3.4.5,1.1.5,1.9v3.6h-1v-3.6c0-.6-.1-1-.3-1.3-.2-.3-.5-.4-.9-.4s-.9.2-1.2.5c-.3.3-.4.8-.4,1.4v3.4h-1v-3.6c0-.6-.1-1-.3-1.3s-.5-.4-.9-.4-.9.2-1.2.5c-.3.3-.4.8-.4,1.4v3.4h-1v-6h1v.9c.2-.4.5-.6.8-.8s.7-.3,1.1-.3.8.1,1.1.3c.3.2.5.5.7,1Z"/>
              <path id="DejaVuSans-61-12" data-name="DejaVuSans-61" class="cls-25" d="M534.8,147.3c-.8,0-1.4,0-1.7.3s-.5.5-.5.9.1.6.3.8c.2.2.5.3.9.3s1-.2,1.3-.6.5-.9.5-1.5v-.2h-1ZM536.8,146.9v3.4h-1v-.9c-.2.4-.5.6-.8.8-.3.2-.7.3-1.2.3s-1.1-.2-1.5-.5c-.4-.3-.5-.8-.5-1.4s.2-1.2.7-1.5c.5-.3,1.1-.5,2-.5h1.4c0-.6-.1-.9-.4-1.2s-.7-.4-1.3-.4-.7,0-1,.1c-.3,0-.6.2-.9.4v-.9c.4-.1.7-.2,1.1-.3.3,0,.7-.1,1-.1.9,0,1.5.2,2,.7.4.5.6,1.1.6,2.1Z"/>
              <path id="DejaVuSans-6c-5" data-name="DejaVuSans-6c" class="cls-25" d="M538.8,141.9h1v8.4h-1v-8.4Z"/>
            </g>
          </g>
          <g id="PathCollection_9">
            <path id="ma92b3bec1e-2" data-name="ma92b3bec1e" class="cls-2" d="M434.8,167.4c.9,0,1.8-.4,2.5-1s1-1.6,1-2.5-.4-1.8-1-2.5-1.6-1-2.5-1-1.8.4-2.5,1-1,1.6-1,2.5.4,1.8,1,2.5,1.6,1,2.5,1Z"/>
          </g>
          <g id="text_8">
            <g>
              <path id="DejaVuSans-65-17" data-name="DejaVuSans-65" class="cls-25" d="M460.7,163.5v.5h-4.5c0,.7.2,1.2.6,1.6.4.4.9.5,1.5.5s.7,0,1.1-.1.7-.2,1.1-.4v.9c-.4.2-.7.3-1.1.3s-.7.1-1.1.1c-1,0-1.7-.3-2.3-.8-.6-.6-.8-1.3-.8-2.3s.3-1.8.8-2.3c.5-.6,1.2-.9,2.2-.9s1.4.3,1.9.8c.5.5.7,1.2.7,2.1ZM459.8,163.2c0-.5-.2-1-.5-1.3-.3-.3-.7-.5-1.2-.5s-1,.2-1.3.5-.5.8-.6,1.3h3.5Z"/>
              <path id="DejaVuSans-74-6" data-name="DejaVuSans-74" class="cls-25" d="M463.3,159v1.7h2v.8h-2v3.3c0,.5,0,.8.2.9s.4.2.8.2h1v.8h-1c-.8,0-1.3-.1-1.6-.4-.3-.3-.4-.8-.4-1.6v-3.3h-.7v-.8h.7v-1.7h1Z"/>
              <path id="DejaVuSans-68-3" data-name="DejaVuSans-68" class="cls-25" d="M471.7,163.1v3.6h-1v-3.6c0-.6-.1-1-.3-1.3-.2-.3-.6-.4-1-.4s-1,.2-1.3.5c-.3.3-.5.8-.5,1.4v3.4h-1v-8.4h1v3.3c.2-.4.5-.6.8-.8.3-.2.7-.3,1.1-.3.7,0,1.2.2,1.6.6.4.4.5,1.1.5,1.9Z"/>
              <path id="DejaVuSans-69-8" data-name="DejaVuSans-69" class="cls-25" d="M473.7,160.7h1v6h-1v-6ZM473.7,158.4h1v1.3h-1v-1.3Z"/>
              <path id="DejaVuSans-63-4" data-name="DejaVuSans-63" class="cls-25" d="M481,161v.9c-.3-.2-.6-.3-.8-.3s-.6-.1-.9-.1c-.6,0-1.1.2-1.5.6-.4.4-.5,1-.5,1.7s.2,1.3.5,1.7c.4.4.9.6,1.5.6s.6,0,.9-.1.6-.2.8-.3v.9c-.3.1-.6.2-.9.3-.3,0-.6,0-.9,0-.9,0-1.6-.3-2.2-.9-.5-.6-.8-1.3-.8-2.3s.3-1.8.8-2.3c.5-.6,1.3-.8,2.2-.8s.6,0,.9,0c.3,0,.6.2.8.3Z"/>
              <path id="DejaVuSans-61-13" data-name="DejaVuSans-61" class="cls-25" d="M485.5,163.7c-.8,0-1.4,0-1.7.3s-.5.5-.5.9.1.6.3.8c.2.2.5.3.9.3s1-.2,1.3-.6.5-.9.5-1.5v-.2h-1ZM487.5,163.3v3.4h-1v-.9c-.2.4-.5.6-.8.8-.3.2-.7.3-1.2.3s-1.1-.2-1.5-.5c-.4-.3-.5-.8-.5-1.4s.2-1.2.7-1.5c.5-.3,1.1-.5,2-.5h1.4c0-.6-.1-.9-.4-1.2s-.7-.4-1.3-.4-.7,0-1,.1c-.3,0-.6.2-.9.4v-.9c.4-.1.7-.2,1.1-.3.3,0,.7-.1,1-.1.9,0,1.5.2,2,.7.4.5.6,1.1.6,2.1Z"/>
              <path id="DejaVuSans-6c-6" data-name="DejaVuSans-6c" class="cls-25" d="M489.5,158.4h1v8.4h-1v-8.4Z"/>
              <path id="DejaVuSans-5f-3" data-name="DejaVuSans-5f" class="cls-25" d="M497.1,168.6v.8h-5.7v-.8h5.7Z"/>
              <path id="DejaVuSans-73-7" data-name="DejaVuSans-73" class="cls-25" d="M501.9,160.9v.9c-.3-.1-.6-.3-.9-.3-.3,0-.6-.1-.9-.1-.5,0-.9,0-1.1.2-.2.2-.4.4-.4.7s0,.4.3.5.5.3,1.1.4h.3c.7.2,1.2.4,1.5.7s.4.7.4,1.1-.2,1-.7,1.3c-.4.3-1.1.5-1.8.5s-.7,0-1,0c-.3,0-.7-.2-1.1-.3v-1c.4.2.7.3,1.1.4.4,0,.7.1,1.1.1s.8,0,1.1-.2c.3-.2.4-.4.4-.7s0-.5-.3-.6c-.2-.1-.6-.3-1.2-.4h-.3c-.6-.2-1.1-.4-1.3-.7-.3-.3-.4-.6-.4-1.1s.2-1,.6-1.3c.4-.3,1-.5,1.7-.5s.7,0,1,0c.3,0,.6.1.9.2Z"/>
              <path id="DejaVuSans-6f-6" data-name="DejaVuSans-6f" class="cls-25" d="M506.1,161.4c-.5,0-.9.2-1.3.6s-.5,1-.5,1.7.2,1.3.5,1.7c.3.4.7.6,1.3.6s.9-.2,1.3-.6c.3-.4.5-1,.5-1.7s-.2-1.3-.5-1.7c-.3-.4-.7-.6-1.3-.6ZM506.1,160.6c.9,0,1.5.3,2,.8.5.6.7,1.3.7,2.3s-.2,1.8-.7,2.3c-.5.6-1.2.8-2,.8s-1.5-.3-2-.8c-.5-.6-.7-1.3-.7-2.3s.2-1.8.7-2.3c.5-.6,1.2-.8,2-.8Z"/>
              <path id="DejaVuSans-75-6" data-name="DejaVuSans-75" class="cls-25" d="M510.4,164.4v-3.6h1v3.6c0,.6.1,1,.3,1.3.2.3.6.4,1,.4s1-.2,1.3-.5c.3-.3.5-.8.5-1.4v-3.4h1v6h-1v-.9c-.2.4-.5.6-.8.8-.3.2-.7.3-1.1.3-.7,0-1.2-.2-1.6-.6-.4-.4-.5-1.1-.5-1.9ZM512.9,160.6h0Z"/>
              <path id="DejaVuSans-72-7" data-name="DejaVuSans-72" class="cls-25" d="M521,161.7c-.1,0-.2-.1-.4-.1-.1,0-.3,0-.4,0-.6,0-1,.2-1.3.5s-.4.9-.4,1.6v3.2h-1v-6h1v.9c.2-.4.5-.6.8-.8.3-.2.7-.3,1.2-.3s.1,0,.2,0c0,0,.2,0,.3,0v1Z"/>
              <path id="DejaVuSans-63-5" data-name="DejaVuSans-63" class="cls-25" d="M526.1,161v.9c-.3-.2-.6-.3-.8-.3s-.6-.1-.9-.1c-.6,0-1.1.2-1.5.6-.4.4-.5,1-.5,1.7s.2,1.3.5,1.7c.4.4.9.6,1.5.6s.6,0,.9-.1.6-.2.8-.3v.9c-.3.1-.6.2-.9.3-.3,0-.6,0-.9,0-.9,0-1.6-.3-2.2-.9-.5-.6-.8-1.3-.8-2.3s.3-1.8.8-2.3c.5-.6,1.3-.8,2.2-.8s.6,0,.9,0c.3,0,.6.2.8.3Z"/>
              <path id="DejaVuSans-69-9" data-name="DejaVuSans-69" class="cls-25" d="M527.8,160.7h1v6h-1v-6ZM527.8,158.4h1v1.3h-1v-1.3Z"/>
              <path id="DejaVuSans-6e-10" data-name="DejaVuSans-6e" class="cls-25" d="M535.9,163.1v3.6h-1v-3.6c0-.6-.1-1-.3-1.3-.2-.3-.6-.4-1-.4s-1,.2-1.3.5c-.3.3-.5.8-.5,1.4v3.4h-1v-6h1v.9c.2-.4.5-.6.8-.8.3-.2.7-.3,1.1-.3.7,0,1.2.2,1.6.6.4.4.5,1.1.5,1.9Z"/>
              <path id="DejaVuSans-67-3" data-name="DejaVuSans-67" class="cls-25" d="M541.8,163.7c0-.7-.1-1.3-.4-1.7-.3-.4-.7-.6-1.2-.6s-.9.2-1.2.6c-.3.4-.4.9-.4,1.7s.1,1.3.4,1.7c.3.4.7.6,1.2.6s.9-.2,1.2-.6c.3-.4.4-.9.4-1.7ZM542.8,166c0,1-.2,1.8-.7,2.3-.5.5-1.1.7-2.1.7s-.7,0-1,0-.6-.1-.9-.2v-1c.3.2.6.3.9.3.3,0,.6.1.9.1.6,0,1.1-.2,1.5-.5.3-.3.5-.8.5-1.5v-.5c-.2.4-.5.6-.8.8s-.7.3-1.1.3c-.7,0-1.3-.3-1.8-.8-.5-.6-.7-1.3-.7-2.2s.2-1.7.7-2.2c.5-.6,1-.8,1.8-.8s.8,0,1.1.3.6.4.8.8v-.9h1v5.3Z"/>
            </g>
          </g>
          <g id="PathCollection_10">
            <path id="m7d98702c16" class="cls-3" d="M434.8,183.9c.9,0,1.8-.4,2.5-1s1-1.6,1-2.5-.4-1.8-1-2.5-1.6-1-2.5-1-1.8.4-2.5,1-1,1.6-1,2.5.4,1.8,1,2.5,1.6,1,2.5,1Z"/>
          </g>
          <g id="text_9">
            <g>
              <path id="DejaVuSans-68-4" data-name="DejaVuSans-68" class="cls-25" d="M460.6,179.6v3.6h-1v-3.6c0-.6-.1-1-.3-1.3-.2-.3-.6-.4-1-.4s-1,.2-1.3.5c-.3.3-.5.8-.5,1.4v3.4h-1v-8.4h1v3.3c.2-.4.5-.6.8-.8.3-.2.7-.3,1.1-.3.7,0,1.2.2,1.6.6.4.4.5,1.1.5,1.9Z"/>
              <path id="DejaVuSans-6f-7" data-name="DejaVuSans-6f" class="cls-25" d="M464.9,177.9c-.5,0-.9.2-1.3.6s-.5,1-.5,1.7.2,1.3.5,1.7c.3.4.7.6,1.3.6s.9-.2,1.3-.6c.3-.4.5-1,.5-1.7s-.2-1.3-.5-1.7c-.3-.4-.7-.6-1.3-.6ZM464.9,177c.9,0,1.5.3,2,.8.5.6.7,1.3.7,2.3s-.2,1.8-.7,2.3c-.5.6-1.2.8-2,.8s-1.5-.3-2-.8c-.5-.6-.7-1.3-.7-2.3s.2-1.8.7-2.3c.5-.6,1.2-.8,2-.8Z"/>
              <path id="DejaVuSans-6d-10" data-name="DejaVuSans-6d" class="cls-25" d="M474,178.3c.2-.4.5-.8.9-1s.7-.3,1.2-.3,1.1.2,1.5.7c.3.4.5,1.1.5,1.9v3.6h-1v-3.6c0-.6-.1-1-.3-1.3-.2-.3-.5-.4-.9-.4s-.9.2-1.2.5c-.3.3-.4.8-.4,1.4v3.4h-1v-3.6c0-.6-.1-1-.3-1.3s-.5-.4-.9-.4-.9.2-1.2.5c-.3.3-.4.8-.4,1.4v3.4h-1v-6h1v.9c.2-.4.5-.6.8-.8s.7-.3,1.1-.3.8.1,1.1.3c.3.2.5.5.7,1Z"/>
              <path id="DejaVuSans-65-18" data-name="DejaVuSans-65" class="cls-25" d="M485.2,180v.5h-4.5c0,.7.2,1.2.6,1.6.4.4.9.5,1.5.5s.7,0,1.1-.1.7-.2,1.1-.4v.9c-.4.2-.7.3-1.1.3s-.7.1-1.1.1c-1,0-1.7-.3-2.3-.8-.6-.6-.8-1.3-.8-2.3s.3-1.8.8-2.3c.5-.6,1.2-.9,2.2-.9s1.4.3,1.9.8c.5.5.7,1.2.7,2.1ZM484.2,179.7c0-.5-.2-1-.5-1.3-.3-.3-.7-.5-1.2-.5s-1,.2-1.3.5-.5.8-.6,1.3h3.5Z"/>
              <path id="DejaVuSans-6d-11" data-name="DejaVuSans-6d" class="cls-25" d="M491.5,178.3c.2-.4.5-.8.9-1s.7-.3,1.2-.3,1.1.2,1.5.7c.3.4.5,1.1.5,1.9v3.6h-1v-3.6c0-.6-.1-1-.3-1.3-.2-.3-.5-.4-.9-.4s-.9.2-1.2.5c-.3.3-.4.8-.4,1.4v3.4h-1v-3.6c0-.6-.1-1-.3-1.3s-.5-.4-.9-.4-.9.2-1.2.5c-.3.3-.4.8-.4,1.4v3.4h-1v-6h1v.9c.2-.4.5-.6.8-.8s.7-.3,1.1-.3.8.1,1.1.3c.3.2.5.5.7,1Z"/>
              <path id="DejaVuSans-61-14" data-name="DejaVuSans-61" class="cls-25" d="M500.2,180.2c-.8,0-1.4,0-1.7.3s-.5.5-.5.9.1.6.3.8c.2.2.5.3.9.3s1-.2,1.3-.6.5-.9.5-1.5v-.2h-1ZM502.2,179.8v3.4h-1v-.9c-.2.4-.5.6-.8.8-.3.2-.7.3-1.2.3s-1.1-.2-1.5-.5c-.4-.3-.5-.8-.5-1.4s.2-1.2.7-1.5c.5-.3,1.1-.5,2-.5h1.4c0-.6-.1-.9-.4-1.2s-.7-.4-1.3-.4-.7,0-1,.1c-.3,0-.6.2-.9.4v-.9c.4-.1.7-.2,1.1-.3.3,0,.7-.1,1-.1.9,0,1.5.2,2,.7.4.5.6,1.1.6,2.1Z"/>
              <path id="DejaVuSans-64-3" data-name="DejaVuSans-64" class="cls-25" d="M508.2,178.1v-3.3h1v8.4h-1v-.9c-.2.4-.5.6-.8.8-.3.2-.7.3-1.1.3-.7,0-1.3-.3-1.8-.9-.5-.6-.7-1.3-.7-2.3s.2-1.7.7-2.3c.5-.6,1-.9,1.8-.9s.8,0,1.1.3c.3.2.6.4.8.8ZM504.8,180.2c0,.7.1,1.3.4,1.7.3.4.7.6,1.2.6s.9-.2,1.2-.6c.3-.4.5-1,.5-1.7s-.2-1.3-.5-1.7c-.3-.4-.7-.6-1.2-.6s-.9.2-1.2.6-.4,1-.4,1.7Z"/>
              <path id="DejaVuSans-65-19" data-name="DejaVuSans-65" class="cls-25" d="M516.4,180v.5h-4.5c0,.7.2,1.2.6,1.6.4.4.9.5,1.5.5s.7,0,1.1-.1.7-.2,1.1-.4v.9c-.4.2-.7.3-1.1.3s-.7.1-1.1.1c-1,0-1.7-.3-2.3-.8-.6-.6-.8-1.3-.8-2.3s.3-1.8.8-2.3c.5-.6,1.2-.9,2.2-.9s1.4.3,1.9.8c.5.5.7,1.2.7,2.1ZM515.4,179.7c0-.5-.2-1-.5-1.3-.3-.3-.7-.5-1.2-.5s-1,.2-1.3.5-.5.8-.6,1.3h3.5Z"/>
              <path id="DejaVuSans-5f-4" data-name="DejaVuSans-5f" class="cls-25" d="M522.6,185v.8h-5.7v-.8h5.7Z"/>
              <path id="DejaVuSans-62-2" data-name="DejaVuSans-62" class="cls-25" d="M527.8,180.2c0-.7-.1-1.3-.4-1.7s-.7-.6-1.2-.6-.9.2-1.2.6-.4,1-.4,1.7.1,1.3.4,1.7c.3.4.7.6,1.2.6s.9-.2,1.2-.6c.3-.4.4-1,.4-1.7ZM524.4,178.1c.2-.4.5-.6.8-.8.3-.2.7-.3,1.1-.3.7,0,1.3.3,1.8.9.5.6.7,1.3.7,2.3s-.2,1.7-.7,2.3c-.5.6-1,.9-1.8.9s-.8,0-1.1-.3c-.3-.2-.6-.4-.8-.8v.9h-1v-8.4h1v3.3Z"/>
              <path id="DejaVuSans-61-15" data-name="DejaVuSans-61" class="cls-25" d="M533.2,180.2c-.8,0-1.4,0-1.7.3s-.5.5-.5.9.1.6.3.8c.2.2.5.3.9.3s1-.2,1.3-.6.5-.9.5-1.5v-.2h-1ZM535.2,179.8v3.4h-1v-.9c-.2.4-.5.6-.8.8-.3.2-.7.3-1.2.3s-1.1-.2-1.5-.5c-.4-.3-.5-.8-.5-1.4s.2-1.2.7-1.5c.5-.3,1.1-.5,2-.5h1.4c0-.6-.1-.9-.4-1.2s-.7-.4-1.3-.4-.7,0-1,.1c-.3,0-.6.2-.9.4v-.9c.4-.1.7-.2,1.1-.3.3,0,.7-.1,1-.1.9,0,1.5.2,2,.7.4.5.6,1.1.6,2.1Z"/>
              <path id="DejaVuSans-6b" class="cls-25" d="M537.2,174.9h1v4.9l2.9-2.6h1.3l-3.2,2.8,3.3,3.2h-1.3l-3.1-2.9v2.9h-1v-8.4Z"/>
              <path id="DejaVuSans-65-20" data-name="DejaVuSans-65" class="cls-25" d="M548.3,180v.5h-4.5c0,.7.2,1.2.6,1.6.4.4.9.5,1.5.5s.7,0,1.1-.1.7-.2,1.1-.4v.9c-.4.2-.7.3-1.1.3s-.7.1-1.1.1c-1,0-1.7-.3-2.3-.8-.6-.6-.8-1.3-.8-2.3s.3-1.8.8-2.3c.5-.6,1.2-.9,2.2-.9s1.4.3,1.9.8c.5.5.7,1.2.7,2.1ZM547.3,179.7c0-.5-.2-1-.5-1.3-.3-.3-.7-.5-1.2-.5s-1,.2-1.3.5-.5.8-.6,1.3h3.5Z"/>
              <path id="DejaVuSans-73-8" data-name="DejaVuSans-73" class="cls-25" d="M553.8,177.4v.9c-.3-.1-.6-.3-.9-.3-.3,0-.6-.1-.9-.1-.5,0-.9,0-1.1.2-.2.2-.4.4-.4.7s0,.4.3.5.5.3,1.1.4h.3c.7.2,1.2.4,1.5.7s.4.7.4,1.1-.2,1-.7,1.3c-.4.3-1.1.5-1.8.5s-.7,0-1,0c-.3,0-.7-.2-1.1-.3v-1c.4.2.7.3,1.1.4.4,0,.7.1,1.1.1s.8,0,1.1-.2c.3-.2.4-.4.4-.7s0-.5-.3-.6c-.2-.1-.6-.3-1.2-.4h-.3c-.6-.2-1.1-.4-1.3-.7-.3-.3-.4-.6-.4-1.1s.2-1,.6-1.3c.4-.3,1-.5,1.7-.5s.7,0,1,0c.3,0,.6.1.9.2Z"/>
            </g>
          </g>
          <g id="PathCollection_11">
            <path id="me1038a3880-27" data-name="me1038a3880" class="cls-6" d="M434.8,200.3c.9,0,1.8-.4,2.5-1s1-1.6,1-2.5-.4-1.8-1-2.5-1.6-1-2.5-1-1.8.4-2.5,1-1,1.6-1,2.5.4,1.8,1,2.5,1.6,1,2.5,1Z"/>
          </g>
          <g id="text_10">
            <g>
              <path id="DejaVuSans-6d-12" data-name="DejaVuSans-6d" class="cls-25" d="M460.3,194.8c.2-.4.5-.8.9-1s.7-.3,1.2-.3,1.1.2,1.5.7c.3.4.5,1.1.5,1.9v3.6h-1v-3.6c0-.6-.1-1-.3-1.3-.2-.3-.5-.4-.9-.4s-.9.2-1.2.5c-.3.3-.4.8-.4,1.4v3.4h-1v-3.6c0-.6-.1-1-.3-1.3s-.5-.4-.9-.4-.9.2-1.2.5c-.3.3-.4.8-.4,1.4v3.4h-1v-6h1v.9c.2-.4.5-.6.8-.8s.7-.3,1.1-.3.8.1,1.1.3c.3.2.5.5.7,1Z"/>
              <path id="DejaVuSans-75-7" data-name="DejaVuSans-75" class="cls-25" d="M466.2,197.3v-3.6h1v3.6c0,.6.1,1,.3,1.3.2.3.6.4,1,.4s1-.2,1.3-.5c.3-.3.5-.8.5-1.4v-3.4h1v6h-1v-.9c-.2.4-.5.6-.8.8-.3.2-.7.3-1.1.3-.7,0-1.2-.2-1.6-.6-.4-.4-.5-1.1-.5-1.9ZM468.7,193.5h0Z"/>
              <path id="DejaVuSans-6c-7" data-name="DejaVuSans-6c" class="cls-25" d="M473.3,191.3h1v8.4h-1v-8.4Z"/>
              <path id="DejaVuSans-74-7" data-name="DejaVuSans-74" class="cls-25" d="M477.3,191.9v1.7h2v.8h-2v3.3c0,.5,0,.8.2.9s.4.2.8.2h1v.8h-1c-.8,0-1.3-.1-1.6-.4-.3-.3-.4-.8-.4-1.6v-3.3h-.7v-.8h.7v-1.7h1Z"/>
              <path id="DejaVuSans-69-10" data-name="DejaVuSans-69" class="cls-25" d="M480.7,193.6h1v6h-1v-6ZM480.7,191.3h1v1.3h-1v-1.3Z"/>
              <path id="DejaVuSans-5f-5" data-name="DejaVuSans-5f" class="cls-25" d="M488.3,201.5v.8h-5.7v-.8h5.7Z"/>
              <path id="DejaVuSans-6c-8" data-name="DejaVuSans-6c" class="cls-25" d="M489.2,191.3h1v8.4h-1v-8.4Z"/>
              <path id="DejaVuSans-6f-8" data-name="DejaVuSans-6f" class="cls-25" d="M494.6,194.3c-.5,0-.9.2-1.3.6s-.5,1-.5,1.7.2,1.3.5,1.7c.3.4.7.6,1.3.6s.9-.2,1.3-.6c.3-.4.5-1,.5-1.7s-.2-1.3-.5-1.7c-.3-.4-.7-.6-1.3-.6ZM494.6,193.5c.9,0,1.5.3,2,.8.5.6.7,1.3.7,2.3s-.2,1.8-.7,2.3c-.5.6-1.2.8-2,.8s-1.5-.3-2-.8c-.5-.6-.7-1.3-.7-2.3s.2-1.8.7-2.3c.5-.6,1.2-.8,2-.8Z"/>
              <path id="DejaVuSans-63-6" data-name="DejaVuSans-63" class="cls-25" d="M503.3,193.9v.9c-.3-.2-.6-.3-.8-.3s-.6-.1-.9-.1c-.6,0-1.1.2-1.5.6-.4.4-.5,1-.5,1.7s.2,1.3.5,1.7c.4.4.9.6,1.5.6s.6,0,.9-.1.6-.2.8-.3v.9c-.3.1-.6.2-.9.3-.3,0-.6,0-.9,0-.9,0-1.6-.3-2.2-.9-.5-.6-.8-1.3-.8-2.3s.3-1.8.8-2.3c.5-.6,1.3-.8,2.2-.8s.6,0,.9,0c.3,0,.6.2.8.3Z"/>
              <path id="DejaVuSans-61-16" data-name="DejaVuSans-61" class="cls-25" d="M507.8,196.6c-.8,0-1.4,0-1.7.3s-.5.5-.5.9.1.6.3.8c.2.2.5.3.9.3s1-.2,1.3-.6.5-.9.5-1.5v-.2h-1ZM509.8,196.2v3.4h-1v-.9c-.2.4-.5.6-.8.8-.3.2-.7.3-1.2.3s-1.1-.2-1.5-.5c-.4-.3-.5-.8-.5-1.4s.2-1.2.7-1.5c.5-.3,1.1-.5,2-.5h1.4c0-.6-.1-.9-.4-1.2s-.7-.4-1.3-.4-.7,0-1,.1c-.3,0-.6.2-.9.4v-.9c.4-.1.7-.2,1.1-.3.3,0,.7-.1,1-.1.9,0,1.5.2,2,.7.4.5.6,1.1.6,2.1Z"/>
              <path id="DejaVuSans-74-8" data-name="DejaVuSans-74" class="cls-25" d="M512.8,191.9v1.7h2v.8h-2v3.3c0,.5,0,.8.2.9s.4.2.8.2h1v.8h-1c-.8,0-1.3-.1-1.6-.4-.3-.3-.4-.8-.4-1.6v-3.3h-.7v-.8h.7v-1.7h1Z"/>
              <path id="DejaVuSans-69-11" data-name="DejaVuSans-69" class="cls-25" d="M516.1,193.6h1v6h-1v-6ZM516.1,191.3h1v1.3h-1v-1.3Z"/>
              <path id="DejaVuSans-6f-9" data-name="DejaVuSans-6f" class="cls-25" d="M521.5,194.3c-.5,0-.9.2-1.3.6s-.5,1-.5,1.7.2,1.3.5,1.7c.3.4.7.6,1.3.6s.9-.2,1.3-.6c.3-.4.5-1,.5-1.7s-.2-1.3-.5-1.7c-.3-.4-.7-.6-1.3-.6ZM521.5,193.5c.9,0,1.5.3,2,.8.5.6.7,1.3.7,2.3s-.2,1.8-.7,2.3c-.5.6-1.2.8-2,.8s-1.5-.3-2-.8c-.5-.6-.7-1.3-.7-2.3s.2-1.8.7-2.3c.5-.6,1.2-.8,2-.8Z"/>
              <path id="DejaVuSans-6e-11" data-name="DejaVuSans-6e" class="cls-25" d="M530.9,196v3.6h-1v-3.6c0-.6-.1-1-.3-1.3-.2-.3-.6-.4-1-.4s-1,.2-1.3.5c-.3.3-.5.8-.5,1.4v3.4h-1v-6h1v.9c.2-.4.5-.6.8-.8.3-.2.7-.3,1.1-.3.7,0,1.2.2,1.6.6.4.4.5,1.1.5,1.9Z"/>
            </g>
          </g>
        </g>
      </g>
      <g>
        <path id="m7d98702c16-2" data-name="m7d98702c16" class="cls-3" d="M194.7,395.9c2,0,4-.8,5.4-2.3s2.3-3.4,2.3-5.4-.8-4-2.3-5.4-3.4-2.3-5.4-2.3-4,.8-5.4,2.3-2.3,3.4-2.3,5.4.8,4,2.3,5.4,3.4,2.3,5.4,2.3Z"/>
        <path id="m7d98702c16-3" data-name="m7d98702c16" class="cls-3" d="M232.4,295.1c2,0,4-.8,5.4-2.3s2.3-3.4,2.3-5.4-.8-4-2.3-5.4-3.4-2.3-5.4-2.3-4,.8-5.4,2.3c-1.4,1.4-2.3,3.4-2.3,5.4s.8,4,2.3,5.4,3.4,2.3,5.4,2.3Z"/>
      </g>
      <g>
        <path id="m6186152b22-2" data-name="m6186152b22" class="cls-8" d="M204.7,402.7c2,0,4-.8,5.4-2.3s2.3-3.4,2.3-5.4-.8-4-2.3-5.4-3.4-2.3-5.4-2.3-4,.8-5.4,2.3-2.3,3.4-2.3,5.4.8,4,2.3,5.4,3.4,2.3,5.4,2.3Z"/>
        <path id="m6186152b22-3" data-name="m6186152b22" class="cls-8" d="M184.9,386.5c2,0,4-.8,5.4-2.3s2.3-3.4,2.3-5.4-.8-4-2.3-5.4-3.4-2.3-5.4-2.3-4,.8-5.4,2.3-2.3,3.4-2.3,5.4.8,4,2.3,5.4,3.4,2.3,5.4,2.3Z"/>
        <path id="m6186152b22-4" data-name="m6186152b22" class="cls-8" d="M199.5,390c2,0,4-.8,5.4-2.3s2.3-3.4,2.3-5.4-.8-4-2.3-5.4-3.4-2.3-5.4-2.3-4,.8-5.4,2.3-2.3,3.4-2.3,5.4.8,4,2.3,5.4,3.4,2.3,5.4,2.3Z"/>
      </g>
      <g>
        <path id="md7676bd785" class="cls-4" d="M195.4,406.5c1.3,0,2.5-.5,3.4-1.4.9-.9,1.4-2.2,1.4-3.4s-.5-2.5-1.4-3.4c-.9-.9-2.2-1.4-3.4-1.4s-2.5.5-3.4,1.4c-.9.9-1.4,2.2-1.4,3.4s.5,2.5,1.4,3.4c.9.9,2.2,1.4,3.4,1.4Z"/>
        <path id="md7676bd785-2" data-name="md7676bd785" class="cls-4" d="M194.9,403c1.3,0,2.5-.5,3.4-1.4.9-.9,1.4-2.2,1.4-3.4s-.5-2.5-1.4-3.4c-.9-.9-2.2-1.4-3.4-1.4s-2.5.5-3.4,1.4c-.9.9-1.4,2.2-1.4,3.4s.5,2.5,1.4,3.4c.9.9,2.2,1.4,3.4,1.4Z"/>
        <path id="md7676bd785-3" data-name="md7676bd785" class="cls-4" d="M196.7,393.8c1.3,0,2.5-.5,3.4-1.4.9-.9,1.4-2.2,1.4-3.4s-.5-2.5-1.4-3.4c-.9-.9-2.2-1.4-3.4-1.4s-2.5.5-3.4,1.4c-.9.9-1.4,2.2-1.4,3.4s.5,2.5,1.4,3.4c.9.9,2.2,1.4,3.4,1.4Z"/>
      </g>
    </g>
  </g>
</svg>