<?xml version="1.0" encoding="UTF-8"?>
<svg xmlns="http://www.w3.org/2000/svg" version="1.1" viewBox="0 0 572.6 576">
  <defs>
    <style>
      .cls-1 {
        fill: #8da0cb;
      }

      .cls-1, .cls-2, .cls-3, .cls-4, .cls-5, .cls-6, .cls-7, .cls-8, .cls-9 {
        stroke-linejoin: round;
      }

      .cls-1, .cls-2, .cls-3, .cls-4, .cls-5, .cls-6, .cls-7, .cls-9 {
        stroke: #fff;
      }

      .cls-1, .cls-2, .cls-4, .cls-6, .cls-7, .cls-9 {
        stroke-width: 2px;
      }

      .cls-1, .cls-3, .cls-4, .cls-6, .cls-7, .cls-9 {
        fill-opacity: .9;
        stroke-opacity: .9;
      }

      .cls-2, .cls-9 {
        fill: #407f00;
      }

      .cls-3 {
        fill: #e78ac3;
        stroke-width: .6px;
      }

      .cls-4 {
        fill: #d24f13;
      }

      .cls-10, .cls-11 {
        isolation: isolate;
      }

      .cls-12 {
        fill: #262626;
      }

      .cls-6 {
        fill: #fc8d62;
      }

      .cls-7 {
        fill: #66c2a5;
      }

      .cls-8 {
        fill-opacity: .4;
        opacity: .2;
        stroke: #ccc;
        stroke-opacity: .4;
        stroke-width: .5px;
      }

      .cls-11 {
        font-family: HelveticaNeue, 'Helvetica Neue';
        font-size: 22.5px;
      }
    </style>
  </defs>
  <!-- Generator: Adobe Illustrator 28.7.7, SVG Export Plug-In . SVG Version: 1.2.0 Build 194)  -->
  <g>
    <g id="Layer_1">
      <path id="m628a949dac" class="cls-8" d="M334.5,50.2l-.5-.3-1.9-1.8-.4-.5-.7-1.1-.2-.6v-.8c0,0-.2-.8-.2-.8l-.3-1.4-.5-1.2-.4-.5-.5-.4-2-.7-.6-.3-.9-.7-.5-.2h-.4l-3.4.6h-1.5c0,0-2.7-1-2.7-1h-.7c0,0-.7,0-.7,0l-.6.2-.6.2-.5.4-1.4,1.2-1.7,1-.5.4-.5,1.2-1.4,5.8-.7,1.6-.7,1-.6.3-.5.3-.5.5-.3.5-.9,1-.3.9v1.3l.8,4.1.4.9.9,1,.5.4,1.7.9.5.7.4,1,.3,1.9.3,1,.2.9-.2.6-.6.5-.8.2-2.3.4-.7.2-.6.3-.5.4-.5.5-.3.5-.3.7-.5,1.9-.4.6-1.2,1.5-.3.8-.3,1.1-1.4,7-1.2,2.1-.5.7-.5,1.2-.6.4h-1.3c0,0-.8,0-.8,0h-.7c0,0-.6.3-.6.3l-1.1.8-.5.4-.4.5-.3.5-.5,1.2-.3.6-.4.5-.5.4-4,2.3-1.9,1.6-.8,1-.3.6-.3.7-.2.7-.2.8.2,1.3.4,1.7,1.2,3.3.8,1.4.8.8.8.2h1.5c0,0,.6.3.6.3l.4.5.4,1,1.1,4.1.5,1.3.5.9.4.5.5.4.9.9.3.7v.9l-.5,1.5-.5.8-.5.6-2.6,2.8-1.2,1.6v.2c0,0,0,.5,0,.5l.3.8,2,2.5.4.6.3.7.5,1.9v.9c0,0,0,1,0,1l-.5,2.7v1.2l.3,1.2,2.3,5.6,1.2,5.5v.9l-.4,1.2-1.2,1.9-.2.6.2,1.6,3.4,12.1v1.2l-.2,2.2-.3,1.2-.3.8-2.7,2.7-.4.5-.3.6-1.9,8,.2,1.6,2.8,10.6.7,1.3,8.4,10.3,1.6,1.6.9,2.6,1.9,8.6-4.3,2.8-.9,1.7v.7c0,0,1,2.7,1,2.7l.4,1.4v1.4l-.9,5.9-.5,1.8-.5,1.2-.5.4-1.2.6-2.3.9-.9.6-1,.9-1.6,2.1-.5,1.2v.9c0,0,.2.5.2.5l.5.4.6.2h.7c0,0,1.2-.5,1.2-.5l.5.2.5.6.2,4.2.4,1.3.5,2.9.5,1.3.6,1.1.4.5.2,1,.2,1.4v2.9c0,0,0,1.4,0,1.4l-.3,1-.4.5-1.7,1.9-.6,1.1-2.5,7.3-.5,2v1.4c0,0,1.2,2.7,1.2,2.7l.4,1.1-.2.7-.5.5-.7.5-.7.9-.9,2-.2,1.2v.9c0,0,.5.4.5.4l1.2.6.6.2.7.2h.9l.9.3.6.5.4,1.4-.2,1.3-.5,2.3-.5,1.1-.5.8-1.4.6-.8.5-.8,1.2-.2,1.3v2.2l-.2,1.2-.4.9-.4.4-1.2,1-1-.9-2.5-1-1.1-.7-5.1-4.6-3-1.5-4.7-3.4-.5-.4-.4-.5-.2-.6v-.7l.2-.7.4-.6.9-.4.6-.5.5-.6.2-.8v-1.4l-.2-.9-.9-2.7-.4-.5-.5-.4-.5-.3-1.2-.5-.5-.4-.5-.5-.4-.5-.3-.5-2.3-2.9-.2-.6v-.6c0,0,.3-1.2.3-1.2v-.6c0,0-.2-.5-.2-.5l-.4-.5-.5-.3-.6-.2-2,.4-4.1.2-1.4.4-.6.3-.7.6-2.3,2.4-.9.7-.9.4h-.9c0,0-3.2.2-3.2.2h-.7c0,0-.7.3-.7.3l-.7.3-.6.5-3.1,3.1-.7.4h-.6c0,0-.4,0-.4,0l-.3-.3-.5-.7-.8-.9-.5-.4-.5-.3-.5-.2-.5-.2h-1.1l-.6.2-.6.3-.9,1.3-5.1,10.4-2.2,1.1-1.4,3.5-4.8,7.3-1,3.2-16.9,8.6-7.4,6.1-3.5,2-10.9,2.3-2.9,1.6,1.5,1.9.2,2.3-.8,2.3-1.4,2.1-.9,2.3.8,2,1.3,1.9.7,1.7-.9.8-3.4,4.1-.5,2,1.9.9,4.5,1.6,11.9,6.9,1,.8.8,1,.5,1.2.2.7.3,2.2.4,8,.2,1.6.4,1,1.4,1.3.4.5.3.5.4,1.4.2.9.2,8.7.2,1.5v2.3l-2.7,15v.2c0,0,.9,3.7.9,3.7l.5,1.3.3.5.5.4.6.2h.7c0,0,.6,0,.6,0l2.3-.5h1.9c0,0,.6.5.6.5l.4.5.3.6,1.2,5.6,1.9,5.1.2.7.4,2.2.5,1.3,1.1,2.3.2.7.5,2.9.5,1.2.3.6.3.5,1.4,1.3.4.5.3.5.2.5.2.8v.8l-1.4,6.3-.2.6-.4,1.5-.3,2.3v3.3l-.3.6-.4.5-1.1.7-.5.5-.3.5-.6.5-1,.5-2.2.4-1.1.4-.8.4-.5.4-.6.3-.7.2-.7.2-1-.2-1.2-.5-4-2.9-7.1-3.4-2.9-.9h-7.5l-2,1.3-1.9.9-4.5,1.5-.5.3-.5.4-.5.5-.4.5-.6,1.2-.2.6v.7c0,0,0,.6,0,.6l.3,1.3v.7l-.3.6-.3.5-.9.9-.5.3-1,.8-.4.5-1.9,1.6-.4.5-.5.4-.9.9-.3.6-.2.6v.7l.2.6.3.6.2.6v.8c0,0,0,1.6,0,1.6v.7c0,0,.4.6.4.6l1.2,1.5.3.5.2.6.2,1.4v.8l-.2.7-.2.6-.7,1.1-.5,1.2-.9,1.7-.6.5-.9.3-4.2.5-.6.2-3.1,1.2-.5.3-.5.4-.5.5-.4.5-.9,1.7-1.9,5.1-.5,2.9-.2,2.7.2,3.3.3,1.4.2.6.3.5.4.5,3.4,2.9.7,1,.5,1.2.2.7.2,1.6v.9l-.2,1.6-.3,1.4-.9,2.6-1.3,2.2-.2.6-.2.6v.6l.3.5.5.4.5.3,1.4.5.5.3.4.4.2.6v1.3l-.2.7v.8l.4,2.2v.7l-.7,3.6-.2.6-.4.5-.5.4-1.4.5-2.5.7-1.9.8-4.8,1.2-2.3.2h-4.1l-.6.2-5.7,3.2-.6.2-.9.2h-1.2c0,0-1.2,0-1.2,0l-.8-.2-.6-.3-.9-.9-.8-.9-.5-.4-.5-.4-1.9-.8-.5-.3-.5-.4-1.2-1.4-.5-.4-.5-.4-3.1-1.3-1-.8-.5-.5-.4-.5-.3-.5-.2-.8v-.9l.4-1.5.4-.9v-1.4c0,0,0-1.6,0-1.6l-1.6-6.5-.3-.6-.3-.5-2.1-2.3-.2-.6v-.7l.7-1.1.7-.5,1.7-1.1.4-.5.3-.5v-.8c0,0,0-.8,0-.8l-.7-.9-.7-.5-1.4-.5-.5-.3-.3-.8v-1.1l1.5-6.6.5-4.4v-1.5c0,0-.4-1.6-.4-1.6l-2.7-8.1-.3-.6-.4-.5-.6-.3-1.9-.7-.7-.2h-.7l-.7.2-.6.2-.6.2h-1.4c0,0-.5-.5-.5-.5l-.3-.9-.2-2.6v-7.6c0,0,0-1.5,0-1.5l.4-1.5.5-1,.9-1.1,3.3-2.3,1.6-1.3,1.5-3.4-10.4-4.3-2.3-2v-1.6l-1.2-2.7-1.9-2.7-.7-1.5-.2-1.1.2-.6.5-.4.7-.2.5-.4.5-.6-.2-1.6v-1l.3-.8.4-.5,1.5-1.2.5-.3.5-.6.3-.8v-1.6c0,0-.5-1.2-.5-1.2l-.8-1.3-.9-1.1-.7-.7-.7-.4-.7-.2-1-.7-1.2-1.1-3.9-5.1-.9-.9-4.5-5.9-.5-.5-5.6-3.3-3.7-3.5-.9-1.1-.7-1.2-1.2-3.5-.6-3.4v-1c0,0,0-.9,0-.9l.2-.6.6-1.2.2-.6.9-4.4.2-.6.6-1.1.8-.9.5-.4,1.1-.7,1.8-.8.5-.4.3-.8v-1.2c0,0,0-2,0-2l-.3-1.1-.5-1.2-2.3-3.6-.6-1.6-.2-1.2.7-2.9v-.8c0,0,.2-4.4.2-4.4l-.3-2.6-.3-1.3-.5-1-1.7-1.7-.4-.9v-.8l2.4-8.3,1-2.4,1.2-2,.4-1.2v-.8c0,0-.4-.5-.4-.5l-1.4-.9-.9-.9-.4-.9-.3-1.2v-.9c0,0-.2-.9-.2-.9v-.7l.3-.6.3-.5.3-.5.4-.5,7.7-6.5.8-1,1.2-2.3.5-1.3.5-2.2.5-1.4.3-.5.4-.4.5-.2h.6l1.2.5.6.2h.7c0,0,.7,0,.7,0l.7-.2.6-.5.6-.7.5-1.2v-.9l-.2-.6-1-.8-1.1-.6-2.1-1.5-.5-.3-1.3-.5-.7-.2-.7-.2-1.2-.6-.5-.4-5.1-6.4-2.7-4.2-.3-1.1v-.9l.5-1.3.3-1.5v-6.5c0,0-.3-1.6-.3-1.6l-.3-1.1-1.5-2.1-.9-1.6-.3-1.1v-.9l.2-.6.3-.5.8-1,.3-.5.2-1.1v-1.6l-.4-3.1v-7.7c0,0,.3-1.6.3-1.6l.7-2,.3-.5.7-1.7.3-1.7v-.9l-.4-.7-.5-.3h-.7l-1.4.2-.7-.2-.5-.4-.6-1.2-1.9-5.9-.3-1.9v-1.3l5.2-11.8,1.6-5.8.5-3.4v-1.2l-.2-1-.6-2.1-1.8-4.7-.2-1.3v-.9l.2-.6v-.2c0,0,4.1-7.7,4.1-7.7v-.9c0,0,0-.8,0-.8l-2.5-5.5v-.9l.2-.7.4-.5,1-.9,2.4-1.6.9-.8.5-.7.4-.7.5-2.3.6-3.9.5-.9.6-.2h.7c0,0,.7-.2.7-.2l.5-.3,1.2-1.3.5-.3.6-.2.8-.2h3.1c0,0,.6.3.6.3l.5.4.8,1,.5.5.5.3.6.2,1.6.2.6.2.6.3.9.9,2.5,2.7.4.5,1.8,4.3.4.5.5.5.5.4,2.6,1.8.9.9.8,1,.6,1.2,2.1,2.3.7,1.1.9,1.8.4.5.9.9.5.3,1.2.6.7.2,1.5.2,5.8-.3,3.2.3,3,.6,2.7.9,1.8.9,1.9,1.6.5.3h.6c0,0,.7-.6.7-.6l1.9-4.1.4-.5.5-.4.6-.2h.7c0,0,.8,0,.8,0l2.3.5,5.4,1.8,1.5.2h.8l1.5-.2.7-.2.6-.2,2.3-1.2,1.8-.7.7-.2,3.2-.2,1.6-.3.6-.2,1.2-.5,2.7-1.9.7-.9.8-1.4,1.2-3.2.7-3.4-.8-4.4-.2-.6-4.6-7.8-1.3-1.4-3.8-3.3-.5-.5-.5-.6-.5-1.1v-.8l.2-.7,1.6-4,2.2-8.6.2-1.8-.2-1.9v-5.1c0,0-.5-1.4-.5-1.4l-.3-2v-3l-.2-.9-.3-.5-.5-.5-.5-.7-.5-1-.4-1.9v-1.2c0,0,.5-1,.5-1l.7-1,.2-.9v-1.4c0,0,0-1.6,0-1.6v-3.7c0,0,.5-2.3.5-2.3l.9-3,.2-1.4v-1.1l-.2-.7-.5-1.2-.6-1.1-1.3-1.5-1-.6-1.2-.5-.5-.5-.3-.6-.2-.7v-3.9c0,0-.2-.7-.2-.7l-.3-.5-.4-.5-1.5-1.3-.4-.5-.3-.5-.9-2.7-.3-1.5-.3-4.8-.2-.7-.4-.5-.5-.5-4.4-2.7-1.5-1.2-1.8-1.8-.4-.3-.2-.2-1.6-1.7-1.5-2.1-.6-1.8-.5-4,.3-2.3,2-.2,1.6,1.2,1.4,1.8,1.9,1.6,3.1,1.5.7-.2.2-1.3,1.9-1.7,3.7-1.4,4.1-.8,1.4-.9,3.1-4.1,1.6-1.5,3.2-1.5,16.3-2.4,3.5-1.2,10.8-8.4,5.5,2.6,2.6,1.9,2.3,2.1,3.5,5.4,2.9-.6,6.5-4.8,7.1-2.9,2.6-2.2,2.4-4.2,1.4-4.8-.2-3.7-.9-3.7-.6-4.7.4-1.9.9-1.4.9-1,.5-.9-.2-1.8-1.1-3.6-.2-1.9,2-13.4,3.6-6.7,6.8-5.1,8.1-3.3,7.5-1.1,3.5.3,7.6,2.2,3.2,1.5,7.1,6,3.7,1.9,4.7-.7,22.1-6.9,6.1-5.1,2.4-2.6,2.2-1.1,1.7-1.2,1.3,1.4,1.9,1.4,1.1.6,1.3.5,2.8.8,1.3.5.5.3.2.7-.2.9-.8,1.2-.7.7-3.7,2.7-.6.2-4.1,1.3-.6.3-.5.4-.3.8v1l.4,1.8.5.9.5.7,1.1.8,2.9,1.6.5.4,1.2,1.5.9.9,1,.7.6.2,4.6.6.6.2.5.3.4.5.2,1.3-.5,6.4-1.4,3.6-1.4,1.5-.5,1-1.6,4.1-.8,1-.7.4"/>
      <path id="m8fd626b24d" class="cls-7" d="M222,289.2c1.9,0,3.6-.7,5.1-2.1s2.1-3.1,2.1-5.1-.7-3.6-2.1-5.1-3.1-2.1-5.1-2.1-3.6.7-5.1,2.1-2.1,3.1-2.1,5.1.7,3.6,2.1,5.1,3.1,2.1,5.1,2.1Z"/>
      <path id="m8fd626b24d-2" class="cls-7" d="M234,273.4c1.9,0,3.6-.7,5.1-2.1s2.1-3.1,2.1-5.1-.7-3.6-2.1-5.1-3.1-2.1-5.1-2.1-3.6.7-5.1,2.1-2.1,3.1-2.1,5.1.7,3.6,2.1,5.1,3.1,2.1,5.1,2.1Z"/>
      <path id="m8fd626b24d-3" class="cls-7" d="M226.1,276.7c1.9,0,3.6-.7,5.1-2.1s2.1-3.1,2.1-5.1-.7-3.6-2.1-5.1-3.1-2.1-5.1-2.1-3.6.7-5.1,2.1-2.1,3.1-2.1,5.1.7,3.6,2.1,5.1,3.1,2.1,5.1,2.1Z"/>
      <path id="m8fd626b24d-4" class="cls-7" d="M227.6,277.1c1.9,0,3.6-.7,5.1-2.1s2.1-3.1,2.1-5.1-.7-3.6-2.1-5.1-3.1-2.1-5.1-2.1-3.6.7-5.1,2.1-2.1,3.1-2.1,5.1.7,3.6,2.1,5.1,3.1,2.1,5.1,2.1Z"/>
      <path id="m8fd626b24d-5" class="cls-7" d="M235,315.4c1.9,0,3.6-.7,5.1-2.1s2.1-3.1,2.1-5.1-.7-3.6-2.1-5.1-3.1-2.1-5.1-2.1-3.6.7-5.1,2.1-2.1,3.1-2.1,5.1.7,3.6,2.1,5.1,3.1,2.1,5.1,2.1Z"/>
      <path id="m8fd626b24d-6" class="cls-7" d="M276.8,255c1.9,0,3.6-.7,5.1-2.1s2.1-3.1,2.1-5.1-.7-3.6-2.1-5.1-3.1-2.1-5.1-2.1-3.6.7-5.1,2.1-2.1,3.1-2.1,5.1.7,3.6,2.1,5.1,3.1,2.1,5.1,2.1Z"/>
      <path id="m8fd626b24d-7" class="cls-7" d="M233.4,275.7c1.9,0,3.6-.7,5.1-2.1s2.1-3.1,2.1-5.1-.7-3.6-2.1-5.1-3.1-2.1-5.1-2.1-3.6.7-5.1,2.1-2.1,3.1-2.1,5.1.7,3.6,2.1,5.1,3.1,2.1,5.1,2.1Z"/>
      <path id="m8fd626b24d-8" class="cls-7" d="M232.6,276c1.9,0,3.6-.7,5.1-2.1s2.1-3.1,2.1-5.1-.7-3.6-2.1-5.1-3.1-2.1-5.1-2.1-3.6.7-5.1,2.1-2.1,3.1-2.1,5.1.7,3.6,2.1,5.1,3.1,2.1,5.1,2.1Z"/>
      <path id="m8fd626b24d-9" class="cls-7" d="M231.8,275.7c1.9,0,3.6-.7,5.1-2.1s2.1-3.1,2.1-5.1-.7-3.6-2.1-5.1-3.1-2.1-5.1-2.1-3.6.7-5.1,2.1-2.1,3.1-2.1,5.1.7,3.6,2.1,5.1,3.1,2.1,5.1,2.1Z"/>
      <path id="m8fd626b24d-10" class="cls-7" d="M227.3,275c1.9,0,3.6-.7,5.1-2.1s2.1-3.1,2.1-5.1-.7-3.6-2.1-5.1-3.1-2.1-5.1-2.1-3.6.7-5.1,2.1-2.1,3.1-2.1,5.1.7,3.6,2.1,5.1,3.1,2.1,5.1,2.1Z"/>
      <path id="m8fd626b24d-11" class="cls-7" d="M227.7,274.5c1.9,0,3.6-.7,5.1-2.1s2.1-3.1,2.1-5.1-.7-3.6-2.1-5.1-3.1-2.1-5.1-2.1-3.6.7-5.1,2.1-2.1,3.1-2.1,5.1.7,3.6,2.1,5.1,3.1,2.1,5.1,2.1Z"/>
      <path id="m8fd626b24d-12" class="cls-7" d="M233,274.2c1.9,0,3.6-.7,5.1-2.1s2.1-3.1,2.1-5.1-.7-3.6-2.1-5.1-3.1-2.1-5.1-2.1-3.6.7-5.1,2.1-2.1,3.1-2.1,5.1.7,3.6,2.1,5.1,3.1,2.1,5.1,2.1Z"/>
      <path id="m8fd626b24d-13" class="cls-7" d="M233.1,271.2c1.9,0,3.6-.7,5.1-2.1s2.1-3.1,2.1-5.1-.7-3.6-2.1-5.1-3.1-2.1-5.1-2.1-3.6.7-5.1,2.1-2.1,3.1-2.1,5.1.7,3.6,2.1,5.1,3.1,2.1,5.1,2.1Z"/>
      <path id="m8fd626b24d-14" class="cls-7" d="M228.8,291.8c1.9,0,3.6-.7,5.1-2.1s2.1-3.1,2.1-5.1-.7-3.6-2.1-5.1-3.1-2.1-5.1-2.1-3.6.7-5.1,2.1-2.1,3.1-2.1,5.1.7,3.6,2.1,5.1,3.1,2.1,5.1,2.1Z"/>
      <path id="m3c81ca1168" class="cls-6" d="M223.8,280c1.9,0,3.6-.7,5.1-2.1s2.1-3.1,2.1-5.1-.7-3.6-2.1-5.1-3.1-2.1-5.1-2.1-3.6.7-5.1,2.1-2.1,3.1-2.1,5.1.7,3.6,2.1,5.1,3.1,2.1,5.1,2.1Z"/>
      <path id="m3c81ca1168-2" class="cls-6" d="M235.1,281.9c1.9,0,3.6-.7,5.1-2.1s2.1-3.1,2.1-5.1-.7-3.6-2.1-5.1-3.1-2.1-5.1-2.1-3.6.7-5.1,2.1-2.1,3.1-2.1,5.1.7,3.6,2.1,5.1,3.1,2.1,5.1,2.1Z"/>
      <path id="m3c81ca1168-3" class="cls-6" d="M234.8,284c1.9,0,3.6-.7,5.1-2.1s2.1-3.1,2.1-5.1-.7-3.6-2.1-5.1-3.1-2.1-5.1-2.1-3.6.7-5.1,2.1-2.1,3.1-2.1,5.1.7,3.6,2.1,5.1,3.1,2.1,5.1,2.1Z"/>
      <path id="m3c81ca1168-4" class="cls-6" d="M230.1,273.4c1.9,0,3.6-.7,5.1-2.1s2.1-3.1,2.1-5.1-.7-3.6-2.1-5.1-3.1-2.1-5.1-2.1-3.6.7-5.1,2.1-2.1,3.1-2.1,5.1.7,3.6,2.1,5.1,3.1,2.1,5.1,2.1Z"/>
      <path id="m3c81ca1168-5" class="cls-6" d="M234.7,269.8c1.9,0,3.6-.7,5.1-2.1s2.1-3.1,2.1-5.1-.7-3.6-2.1-5.1-3.1-2.1-5.1-2.1-3.6.7-5.1,2.1-2.1,3.1-2.1,5.1.7,3.6,2.1,5.1,3.1,2.1,5.1,2.1Z"/>
      <path id="m3c81ca1168-6" class="cls-6" d="M234.7,276.2c1.9,0,3.6-.7,5.1-2.1s2.1-3.1,2.1-5.1-.7-3.6-2.1-5.1-3.1-2.1-5.1-2.1-3.6.7-5.1,2.1-2.1,3.1-2.1,5.1.7,3.6,2.1,5.1,3.1,2.1,5.1,2.1Z"/>
      <path id="m3c81ca1168-7" class="cls-6" d="M235.3,277.4c1.9,0,3.6-.7,5.1-2.1s2.1-3.1,2.1-5.1-.7-3.6-2.1-5.1-3.1-2.1-5.1-2.1-3.6.7-5.1,2.1-2.1,3.1-2.1,5.1.7,3.6,2.1,5.1,3.1,2.1,5.1,2.1Z"/>
      <path id="m3c81ca1168-8" class="cls-6" d="M217.9,287.6c1.9,0,3.6-.7,5.1-2.1s2.1-3.1,2.1-5.1-.7-3.6-2.1-5.1-3.1-2.1-5.1-2.1-3.6.7-5.1,2.1-2.1,3.1-2.1,5.1.7,3.6,2.1,5.1,3.1,2.1,5.1,2.1Z"/>
      <path id="m3c81ca1168-9" class="cls-6" d="M224.1,269.3c1.9,0,3.6-.7,5.1-2.1s2.1-3.1,2.1-5.1-.7-3.6-2.1-5.1-3.1-2.1-5.1-2.1-3.6.7-5.1,2.1-2.1,3.1-2.1,5.1.7,3.6,2.1,5.1,3.1,2.1,5.1,2.1Z"/>
      <path id="m3c81ca1168-10" class="cls-6" d="M233,279.9c1.9,0,3.6-.7,5.1-2.1s2.1-3.1,2.1-5.1-.7-3.6-2.1-5.1-3.1-2.1-5.1-2.1-3.6.7-5.1,2.1-2.1,3.1-2.1,5.1.7,3.6,2.1,5.1,3.1,2.1,5.1,2.1Z"/>
      <path id="m3c81ca1168-11" class="cls-6" d="M227.8,277.1c1.9,0,3.6-.7,5.1-2.1s2.1-3.1,2.1-5.1-.7-3.6-2.1-5.1-3.1-2.1-5.1-2.1-3.6.7-5.1,2.1-2.1,3.1-2.1,5.1.7,3.6,2.1,5.1,3.1,2.1,5.1,2.1Z"/>
      <path id="m3c81ca1168-12" class="cls-6" d="M228.4,273.4c1.9,0,3.6-.7,5.1-2.1s2.1-3.1,2.1-5.1-.7-3.6-2.1-5.1-3.1-2.1-5.1-2.1-3.6.7-5.1,2.1-2.1,3.1-2.1,5.1.7,3.6,2.1,5.1,3.1,2.1,5.1,2.1Z"/>
      <path id="m3c81ca1168-13" class="cls-6" d="M236.2,282.1c1.9,0,3.6-.7,5.1-2.1s2.1-3.1,2.1-5.1-.7-3.6-2.1-5.1-3.1-2.1-5.1-2.1-3.6.7-5.1,2.1-2.1,3.1-2.1,5.1.7,3.6,2.1,5.1,3.1,2.1,5.1,2.1Z"/>
      <path id="m3c81ca1168-14" class="cls-6" d="M228.7,275c1.9,0,3.6-.7,5.1-2.1s2.1-3.1,2.1-5.1-.7-3.6-2.1-5.1-3.1-2.1-5.1-2.1-3.6.7-5.1,2.1-2.1,3.1-2.1,5.1.7,3.6,2.1,5.1,3.1,2.1,5.1,2.1Z"/>
      <path id="m3c81ca1168-15" class="cls-6" d="M226.6,276.3c1.9,0,3.6-.7,5.1-2.1s2.1-3.1,2.1-5.1-.7-3.6-2.1-5.1-3.1-2.1-5.1-2.1-3.6.7-5.1,2.1-2.1,3.1-2.1,5.1.7,3.6,2.1,5.1,3.1,2.1,5.1,2.1Z"/>
      <path id="m3c81ca1168-16" class="cls-6" d="M224.3,275.7c1.9,0,3.6-.7,5.1-2.1s2.1-3.1,2.1-5.1-.7-3.6-2.1-5.1-3.1-2.1-5.1-2.1-3.6.7-5.1,2.1-2.1,3.1-2.1,5.1.7,3.6,2.1,5.1,3.1,2.1,5.1,2.1Z"/>
      <path id="m3c81ca1168-17" class="cls-6" d="M237.5,274.8c1.9,0,3.6-.7,5.1-2.1s2.1-3.1,2.1-5.1-.7-3.6-2.1-5.1-3.1-2.1-5.1-2.1-3.6.7-5.1,2.1-2.1,3.1-2.1,5.1.7,3.6,2.1,5.1,3.1,2.1,5.1,2.1Z"/>
      <path id="m3c81ca1168-18" class="cls-6" d="M232.1,272.8c1.9,0,3.6-.7,5.1-2.1s2.1-3.1,2.1-5.1-.7-3.6-2.1-5.1-3.1-2.1-5.1-2.1-3.6.7-5.1,2.1-2.1,3.1-2.1,5.1.7,3.6,2.1,5.1,3.1,2.1,5.1,2.1Z"/>
      <path id="m3c81ca1168-19" class="cls-6" d="M226.1,285.3c1.9,0,3.6-.7,5.1-2.1s2.1-3.1,2.1-5.1-.7-3.6-2.1-5.1-3.1-2.1-5.1-2.1-3.6.7-5.1,2.1-2.1,3.1-2.1,5.1.7,3.6,2.1,5.1,3.1,2.1,5.1,2.1Z"/>
      <path id="m3c81ca1168-20" class="cls-6" d="M229.2,274.6c1.9,0,3.6-.7,5.1-2.1s2.1-3.1,2.1-5.1-.7-3.6-2.1-5.1-3.1-2.1-5.1-2.1-3.6.7-5.1,2.1-2.1,3.1-2.1,5.1.7,3.6,2.1,5.1,3.1,2.1,5.1,2.1Z"/>
      <path id="m3c81ca1168-21" class="cls-6" d="M228.7,279.9c1.9,0,3.6-.7,5.1-2.1s2.1-3.1,2.1-5.1-.7-3.6-2.1-5.1-3.1-2.1-5.1-2.1-3.6.7-5.1,2.1-2.1,3.1-2.1,5.1.7,3.6,2.1,5.1,3.1,2.1,5.1,2.1Z"/>
      <path id="m3c81ca1168-22" class="cls-6" d="M231.5,281.2c1.9,0,3.6-.7,5.1-2.1s2.1-3.1,2.1-5.1-.7-3.6-2.1-5.1-3.1-2.1-5.1-2.1-3.6.7-5.1,2.1-2.1,3.1-2.1,5.1.7,3.6,2.1,5.1,3.1,2.1,5.1,2.1Z"/>
      <path id="m3c81ca1168-23" class="cls-6" d="M226.6,272.8c1.9,0,3.6-.7,5.1-2.1s2.1-3.1,2.1-5.1-.7-3.6-2.1-5.1-3.1-2.1-5.1-2.1-3.6.7-5.1,2.1-2.1,3.1-2.1,5.1.7,3.6,2.1,5.1,3.1,2.1,5.1,2.1Z"/>
      <path id="m3c81ca1168-24" class="cls-6" d="M234.5,276.8c1.9,0,3.6-.7,5.1-2.1s2.1-3.1,2.1-5.1-.7-3.6-2.1-5.1-3.1-2.1-5.1-2.1-3.6.7-5.1,2.1-2.1,3.1-2.1,5.1.7,3.6,2.1,5.1,3.1,2.1,5.1,2.1Z"/>
      <path id="m6d51cdcdbe" class="cls-3" d="M231.8,275.2c1.5,0,2.8-.5,3.9-1.6s1.6-2.4,1.6-3.9-.5-2.8-1.6-3.9-2.4-1.6-3.9-1.6-2.8.5-3.9,1.6-1.6,2.4-1.6,3.9.5,2.8,1.6,3.9,2.4,1.6,3.9,1.6Z"/>
      <path id="m6d51cdcdbe-2" class="cls-3" d="M226.5,248.3c1.5,0,2.8-.5,3.9-1.6s1.6-2.4,1.6-3.9-.5-2.8-1.6-3.9-2.4-1.6-3.9-1.6-2.8.5-3.9,1.6-1.6,2.4-1.6,3.9.5,2.8,1.6,3.9,2.4,1.6,3.9,1.6Z"/>
      <path id="m6d51cdcdbe-3" class="cls-3" d="M232.7,274.8c1.5,0,2.8-.5,3.9-1.6s1.6-2.4,1.6-3.9-.5-2.8-1.6-3.9-2.4-1.6-3.9-1.6-2.8.5-3.9,1.6-1.6,2.4-1.6,3.9.5,2.8,1.6,3.9,2.4,1.6,3.9,1.6Z"/>
      <path id="m6d51cdcdbe-4" class="cls-3" d="M233.2,275c1.5,0,2.8-.5,3.9-1.6s1.6-2.4,1.6-3.9-.5-2.8-1.6-3.9-2.4-1.6-3.9-1.6-2.8.5-3.9,1.6-1.6,2.4-1.6,3.9.5,2.8,1.6,3.9,2.4,1.6,3.9,1.6Z"/>
      <path id="m6d51cdcdbe-5" class="cls-3" d="M230.9,274.9c1.5,0,2.8-.5,3.9-1.6s1.6-2.4,1.6-3.9-.5-2.8-1.6-3.9-2.4-1.6-3.9-1.6-2.8.5-3.9,1.6-1.6,2.4-1.6,3.9.5,2.8,1.6,3.9,2.4,1.6,3.9,1.6Z"/>
      <path id="m6d51cdcdbe-6" class="cls-3" d="M223.9,279.7c1.5,0,2.8-.5,3.9-1.6s1.6-2.4,1.6-3.9-.5-2.8-1.6-3.9-2.4-1.6-3.9-1.6-2.8.5-3.9,1.6-1.6,2.4-1.6,3.9.5,2.8,1.6,3.9,2.4,1.6,3.9,1.6Z"/>
      <path id="m6d51cdcdbe-7" class="cls-3" d="M231.7,275.1c1.5,0,2.8-.5,3.9-1.6s1.6-2.4,1.6-3.9-.5-2.8-1.6-3.9-2.4-1.6-3.9-1.6-2.8.5-3.9,1.6-1.6,2.4-1.6,3.9.5,2.8,1.6,3.9,2.4,1.6,3.9,1.6Z"/>
      <path id="m0251bc5e48" class="cls-4" d="M231.6,277.9c2.2,0,4.1-.8,5.7-2.4s2.4-3.5,2.4-5.7-.8-4.1-2.4-5.7-3.5-2.4-5.7-2.4-4.1.8-5.7,2.4-2.4,3.5-2.4,5.7.8,4.1,2.4,5.7,3.5,2.4,5.7,2.4Z"/>
      <path id="m0251bc5e48-2" class="cls-4" d="M234.3,277.7c2.2,0,4.1-.8,5.7-2.4s2.4-3.5,2.4-5.7-.8-4.1-2.4-5.7-3.5-2.4-5.7-2.4-4.1.8-5.7,2.4-2.4,3.5-2.4,5.7.8,4.1,2.4,5.7,3.5,2.4,5.7,2.4Z"/>
      <path id="m0251bc5e48-3" class="cls-4" d="M231.1,278.7c2.2,0,4.1-.8,5.7-2.4s2.4-3.5,2.4-5.7-.8-4.1-2.4-5.7-3.5-2.4-5.7-2.4-4.1.8-5.7,2.4-2.4,3.5-2.4,5.7.8,4.1,2.4,5.7,3.5,2.4,5.7,2.4Z"/>
      <path id="m0251bc5e48-4" class="cls-4" d="M233.6,278.4c2.2,0,4.1-.8,5.7-2.4s2.4-3.5,2.4-5.7-.8-4.1-2.4-5.7-3.5-2.4-5.7-2.4-4.1.8-5.7,2.4-2.4,3.5-2.4,5.7.8,4.1,2.4,5.7,3.5,2.4,5.7,2.4Z"/>
      <path id="m0251bc5e48-5" class="cls-4" d="M227.2,273.8c2.2,0,4.1-.8,5.7-2.4s2.4-3.5,2.4-5.7-.8-4.1-2.4-5.7-3.5-2.4-5.7-2.4-4.1.8-5.7,2.4-2.4,3.5-2.4,5.7.8,4.1,2.4,5.7,3.5,2.4,5.7,2.4Z"/>
      <path id="m0251bc5e48-6" class="cls-4" d="M223.4,273.1c2.2,0,4.1-.8,5.7-2.4s2.4-3.5,2.4-5.7-.8-4.1-2.4-5.7-3.5-2.4-5.7-2.4-4.1.8-5.7,2.4-2.4,3.5-2.4,5.7.8,4.1,2.4,5.7,3.5,2.4,5.7,2.4Z"/>
      <path id="m0251bc5e48-7" class="cls-4" d="M226,277.6c2.2,0,4.1-.8,5.7-2.4s2.4-3.5,2.4-5.7-.8-4.1-2.4-5.7-3.5-2.4-5.7-2.4-4.1.8-5.7,2.4-2.4,3.5-2.4,5.7.8,4.1,2.4,5.7,3.5,2.4,5.7,2.4Z"/>
      <path id="m0251bc5e48-8" class="cls-4" d="M236.3,273.9c2.2,0,4.1-.8,5.7-2.4s2.4-3.5,2.4-5.7-.8-4.1-2.4-5.7-3.5-2.4-5.7-2.4-4.1.8-5.7,2.4-2.4,3.5-2.4,5.7.8,4.1,2.4,5.7,3.5,2.4,5.7,2.4Z"/>
      <path id="m0251bc5e48-9" class="cls-4" d="M224.5,278.3c2.2,0,4.1-.8,5.7-2.4s2.4-3.5,2.4-5.7-.8-4.1-2.4-5.7-3.5-2.4-5.7-2.4-4.1.8-5.7,2.4-2.4,3.5-2.4,5.7.8,4.1,2.4,5.7,3.5,2.4,5.7,2.4Z"/>
      <path id="m0251bc5e48-10" class="cls-4" d="M235.2,276.9c2.2,0,4.1-.8,5.7-2.4s2.4-3.5,2.4-5.7-.8-4.1-2.4-5.7-3.5-2.4-5.7-2.4-4.1.8-5.7,2.4-2.4,3.5-2.4,5.7.8,4.1,2.4,5.7,3.5,2.4,5.7,2.4Z"/>
      <path id="m0251bc5e48-11" class="cls-4" d="M232.2,276.7c2.2,0,4.1-.8,5.7-2.4s2.4-3.5,2.4-5.7-.8-4.1-2.4-5.7-3.5-2.4-5.7-2.4-4.1.8-5.7,2.4-2.4,3.5-2.4,5.7.8,4.1,2.4,5.7,3.5,2.4,5.7,2.4Z"/>
      <path id="m0251bc5e48-12" class="cls-4" d="M230.2,278.6c2.2,0,4.1-.8,5.7-2.4s2.4-3.5,2.4-5.7-.8-4.1-2.4-5.7-3.5-2.4-5.7-2.4-4.1.8-5.7,2.4-2.4,3.5-2.4,5.7.8,4.1,2.4,5.7,3.5,2.4,5.7,2.4Z"/>
      <path id="m0251bc5e48-13" class="cls-4" d="M227.1,274.4c2.2,0,4.1-.8,5.7-2.4s2.4-3.5,2.4-5.7-.8-4.1-2.4-5.7-3.5-2.4-5.7-2.4-4.1.8-5.7,2.4-2.4,3.5-2.4,5.7.8,4.1,2.4,5.7,3.5,2.4,5.7,2.4Z"/>
      <path id="m0251bc5e48-14" class="cls-4" d="M234.6,284c2.2,0,4.1-.8,5.7-2.4s2.4-3.5,2.4-5.7-.8-4.1-2.4-5.7-3.5-2.4-5.7-2.4-4.1.8-5.7,2.4-2.4,3.5-2.4,5.7.8,4.1,2.4,5.7,3.5,2.4,5.7,2.4Z"/>
      <path id="m0251bc5e48-15" class="cls-4" d="M233.3,281.2c2.2,0,4.1-.8,5.7-2.4s2.4-3.5,2.4-5.7-.8-4.1-2.4-5.7-3.5-2.4-5.7-2.4-4.1.8-5.7,2.4-2.4,3.5-2.4,5.7.8,4.1,2.4,5.7,3.5,2.4,5.7,2.4Z"/>
      <path id="m0251bc5e48-16" class="cls-4" d="M221.8,286.5c2.2,0,4.1-.8,5.7-2.4s2.4-3.5,2.4-5.7-.8-4.1-2.4-5.7-3.5-2.4-5.7-2.4-4.1.8-5.7,2.4-2.4,3.5-2.4,5.7.8,4.1,2.4,5.7,3.5,2.4,5.7,2.4Z"/>
      <path id="m0251bc5e48-17" class="cls-4" d="M232.8,278.8c2.2,0,4.1-.8,5.7-2.4s2.4-3.5,2.4-5.7-.8-4.1-2.4-5.7-3.5-2.4-5.7-2.4-4.1.8-5.7,2.4-2.4,3.5-2.4,5.7.8,4.1,2.4,5.7,3.5,2.4,5.7,2.4Z"/>
      <path id="m0251bc5e48-18" class="cls-4" d="M232.4,278.3c2.2,0,4.1-.8,5.7-2.4s2.4-3.5,2.4-5.7-.8-4.1-2.4-5.7-3.5-2.4-5.7-2.4-4.1.8-5.7,2.4-2.4,3.5-2.4,5.7.8,4.1,2.4,5.7,3.5,2.4,5.7,2.4Z"/>
      <path id="m0251bc5e48-19" class="cls-4" d="M234.1,317.6c2.2,0,4.1-.8,5.7-2.4s2.4-3.5,2.4-5.7-.8-4.1-2.4-5.7-3.5-2.4-5.7-2.4-4.1.8-5.7,2.4-2.4,3.5-2.4,5.7.8,4.1,2.4,5.7,3.5,2.4,5.7,2.4Z"/>
      <path id="m0251bc5e48-20" class="cls-4" d="M214.1,297.3c2.2,0,4.1-.8,5.7-2.4s2.4-3.5,2.4-5.7-.8-4.1-2.4-5.7-3.5-2.4-5.7-2.4-4.1.8-5.7,2.4-2.4,3.5-2.4,5.7.8,4.1,2.4,5.7,3.5,2.4,5.7,2.4Z"/>
      <path id="m0251bc5e48-21" class="cls-4" d="M219.8,247.2c2.2,0,4.1-.8,5.7-2.4s2.4-3.5,2.4-5.7-.8-4.1-2.4-5.7-3.5-2.4-5.7-2.4-4.1.8-5.7,2.4-2.4,3.5-2.4,5.7.8,4.1,2.4,5.7,3.5,2.4,5.7,2.4Z"/>
      <path id="m0251bc5e48-22" class="cls-4" d="M217.7,299c2.2,0,4.1-.8,5.7-2.4s2.4-3.5,2.4-5.7-.8-4.1-2.4-5.7-3.5-2.4-5.7-2.4-4.1.8-5.7,2.4-2.4,3.5-2.4,5.7.8,4.1,2.4,5.7,3.5,2.4,5.7,2.4Z"/>
      <path id="m0251bc5e48-23" class="cls-4" d="M224.9,277.2c2.2,0,4.1-.8,5.7-2.4s2.4-3.5,2.4-5.7-.8-4.1-2.4-5.7-3.5-2.4-5.7-2.4-4.1.8-5.7,2.4-2.4,3.5-2.4,5.7.8,4.1,2.4,5.7,3.5,2.4,5.7,2.4Z"/>
      <path id="m0251bc5e48-24" class="cls-4" d="M227.2,275.2c2.2,0,4.1-.8,5.7-2.4s2.4-3.5,2.4-5.7-.8-4.1-2.4-5.7-3.5-2.4-5.7-2.4-4.1.8-5.7,2.4-2.4,3.5-2.4,5.7.8,4.1,2.4,5.7,3.5,2.4,5.7,2.4Z"/>
      <path id="m0251bc5e48-25" class="cls-4" d="M259.1,260.8c2.2,0,4.1-.8,5.7-2.4s2.4-3.5,2.4-5.7-.8-4.1-2.4-5.7-3.5-2.4-5.7-2.4-4.1.8-5.7,2.4-2.4,3.5-2.4,5.7.8,4.1,2.4,5.7,3.5,2.4,5.7,2.4Z"/>
      <path id="m0251bc5e48-26" class="cls-4" d="M226.9,274.8c2.2,0,4.1-.8,5.7-2.4s2.4-3.5,2.4-5.7-.8-4.1-2.4-5.7-3.5-2.4-5.7-2.4-4.1.8-5.7,2.4-2.4,3.5-2.4,5.7.8,4.1,2.4,5.7,3.5,2.4,5.7,2.4Z"/>
      <path id="m0251bc5e48-27" class="cls-4" d="M227.2,275.2c2.2,0,4.1-.8,5.7-2.4s2.4-3.5,2.4-5.7-.8-4.1-2.4-5.7-3.5-2.4-5.7-2.4-4.1.8-5.7,2.4-2.4,3.5-2.4,5.7.8,4.1,2.4,5.7,3.5,2.4,5.7,2.4Z"/>
      <path id="m0251bc5e48-28" class="cls-4" d="M227.6,277.6c2.2,0,4.1-.8,5.7-2.4s2.4-3.5,2.4-5.7-.8-4.1-2.4-5.7-3.5-2.4-5.7-2.4-4.1.8-5.7,2.4-2.4,3.5-2.4,5.7.8,4.1,2.4,5.7,3.5,2.4,5.7,2.4Z"/>
      <path id="m0251bc5e48-29" class="cls-4" d="M224.3,279c2.2,0,4.1-.8,5.7-2.4s2.4-3.5,2.4-5.7-.8-4.1-2.4-5.7-3.5-2.4-5.7-2.4-4.1.8-5.7,2.4-2.4,3.5-2.4,5.7.8,4.1,2.4,5.7,3.5,2.4,5.7,2.4Z"/>
      <path id="m0251bc5e48-30" class="cls-4" d="M227.7,275.4c2.2,0,4.1-.8,5.7-2.4s2.4-3.5,2.4-5.7-.8-4.1-2.4-5.7-3.5-2.4-5.7-2.4-4.1.8-5.7,2.4-2.4,3.5-2.4,5.7.8,4.1,2.4,5.7,3.5,2.4,5.7,2.4Z"/>
      <path id="m0251bc5e48-31" class="cls-4" d="M222.3,280.8c2.2,0,4.1-.8,5.7-2.4s2.4-3.5,2.4-5.7-.8-4.1-2.4-5.7-3.5-2.4-5.7-2.4-4.1.8-5.7,2.4-2.4,3.5-2.4,5.7.8,4.1,2.4,5.7,3.5,2.4,5.7,2.4Z"/>
      <path id="m0251bc5e48-32" class="cls-4" d="M231.2,274.1c2.2,0,4.1-.8,5.7-2.4s2.4-3.5,2.4-5.7-.8-4.1-2.4-5.7-3.5-2.4-5.7-2.4-4.1.8-5.7,2.4-2.4,3.5-2.4,5.7.8,4.1,2.4,5.7,3.5,2.4,5.7,2.4Z"/>
      <path id="m0251bc5e48-33" class="cls-4" d="M227,275.4c2.2,0,4.1-.8,5.7-2.4s2.4-3.5,2.4-5.7-.8-4.1-2.4-5.7-3.5-2.4-5.7-2.4-4.1.8-5.7,2.4-2.4,3.5-2.4,5.7.8,4.1,2.4,5.7,3.5,2.4,5.7,2.4Z"/>
      <path id="m0251bc5e48-34" class="cls-4" d="M227.4,278.1c2.2,0,4.1-.8,5.7-2.4s2.4-3.5,2.4-5.7-.8-4.1-2.4-5.7-3.5-2.4-5.7-2.4-4.1.8-5.7,2.4-2.4,3.5-2.4,5.7.8,4.1,2.4,5.7,3.5,2.4,5.7,2.4Z"/>
      <path id="m0251bc5e48-35" class="cls-4" d="M234.4,317.7c2.2,0,4.1-.8,5.7-2.4s2.4-3.5,2.4-5.7-.8-4.1-2.4-5.7-3.5-2.4-5.7-2.4-4.1.8-5.7,2.4-2.4,3.5-2.4,5.7.8,4.1,2.4,5.7,3.5,2.4,5.7,2.4Z"/>
      <path id="m0251bc5e48-36" class="cls-4" d="M227.1,252.1c2.2,0,4.1-.8,5.7-2.4s2.4-3.5,2.4-5.7-.8-4.1-2.4-5.7-3.5-2.4-5.7-2.4-4.1.8-5.7,2.4-2.4,3.5-2.4,5.7.8,4.1,2.4,5.7,3.5,2.4,5.7,2.4Z"/>
      <path id="m0251bc5e48-37" class="cls-4" d="M227.2,275.5c2.2,0,4.1-.8,5.7-2.4s2.4-3.5,2.4-5.7-.8-4.1-2.4-5.7-3.5-2.4-5.7-2.4-4.1.8-5.7,2.4-2.4,3.5-2.4,5.7.8,4.1,2.4,5.7,3.5,2.4,5.7,2.4Z"/>
      <path id="m0251bc5e48-38" class="cls-4" d="M231.2,276.5c2.2,0,4.1-.8,5.7-2.4s2.4-3.5,2.4-5.7-.8-4.1-2.4-5.7-3.5-2.4-5.7-2.4-4.1.8-5.7,2.4-2.4,3.5-2.4,5.7.8,4.1,2.4,5.7,3.5,2.4,5.7,2.4Z"/>
      <path id="m0251bc5e48-39" class="cls-4" d="M233.4,277.2c2.2,0,4.1-.8,5.7-2.4s2.4-3.5,2.4-5.7-.8-4.1-2.4-5.7-3.5-2.4-5.7-2.4-4.1.8-5.7,2.4-2.4,3.5-2.4,5.7.8,4.1,2.4,5.7,3.5,2.4,5.7,2.4Z"/>
      <path id="m0251bc5e48-40" class="cls-4" d="M223.5,279.8c2.2,0,4.1-.8,5.7-2.4s2.4-3.5,2.4-5.7-.8-4.1-2.4-5.7-3.5-2.4-5.7-2.4-4.1.8-5.7,2.4-2.4,3.5-2.4,5.7.8,4.1,2.4,5.7,3.5,2.4,5.7,2.4Z"/>
      <path id="m0251bc5e48-41" class="cls-4" d="M234.5,275.9c2.2,0,4.1-.8,5.7-2.4s2.4-3.5,2.4-5.7-.8-4.1-2.4-5.7-3.5-2.4-5.7-2.4-4.1.8-5.7,2.4-2.4,3.5-2.4,5.7.8,4.1,2.4,5.7,3.5,2.4,5.7,2.4Z"/>
      <path id="m0251bc5e48-42" class="cls-4" d="M225.1,291.3c2.2,0,4.1-.8,5.7-2.4s2.4-3.5,2.4-5.7-.8-4.1-2.4-5.7-3.5-2.4-5.7-2.4-4.1.8-5.7,2.4-2.4,3.5-2.4,5.7.8,4.1,2.4,5.7,3.5,2.4,5.7,2.4Z"/>
      <path id="m0251bc5e48-43" class="cls-4" d="M220,286.1c2.2,0,4.1-.8,5.7-2.4s2.4-3.5,2.4-5.7-.8-4.1-2.4-5.7-3.5-2.4-5.7-2.4-4.1.8-5.7,2.4-2.4,3.5-2.4,5.7.8,4.1,2.4,5.7,3.5,2.4,5.7,2.4Z"/>
      <path id="m0251bc5e48-44" class="cls-4" d="M227.6,282.6c2.2,0,4.1-.8,5.7-2.4s2.4-3.5,2.4-5.7-.8-4.1-2.4-5.7-3.5-2.4-5.7-2.4-4.1.8-5.7,2.4-2.4,3.5-2.4,5.7.8,4.1,2.4,5.7,3.5,2.4,5.7,2.4Z"/>
      <path id="m0251bc5e48-45" class="cls-4" d="M223.5,289.7c2.2,0,4.1-.8,5.7-2.4s2.4-3.5,2.4-5.7-.8-4.1-2.4-5.7-3.5-2.4-5.7-2.4-4.1.8-5.7,2.4-2.4,3.5-2.4,5.7.8,4.1,2.4,5.7,3.5,2.4,5.7,2.4Z"/>
      <path id="m0251bc5e48-46" class="cls-4" d="M234.5,277.7c2.2,0,4.1-.8,5.7-2.4s2.4-3.5,2.4-5.7-.8-4.1-2.4-5.7-3.5-2.4-5.7-2.4-4.1.8-5.7,2.4-2.4,3.5-2.4,5.7.8,4.1,2.4,5.7,3.5,2.4,5.7,2.4Z"/>
      <path id="m0251bc5e48-47" class="cls-4" d="M217.3,254.1c2.2,0,4.1-.8,5.7-2.4s2.4-3.5,2.4-5.7-.8-4.1-2.4-5.7-3.5-2.4-5.7-2.4-4.1.8-5.7,2.4-2.4,3.5-2.4,5.7.8,4.1,2.4,5.7,3.5,2.4,5.7,2.4Z"/>
      <path id="m0251bc5e48-48" class="cls-4" d="M228.1,276.6c2.2,0,4.1-.8,5.7-2.4s2.4-3.5,2.4-5.7-.8-4.1-2.4-5.7-3.5-2.4-5.7-2.4-4.1.8-5.7,2.4-2.4,3.5-2.4,5.7.8,4.1,2.4,5.7,3.5,2.4,5.7,2.4Z"/>
      <path id="m0251bc5e48-49" class="cls-4" d="M224.2,277.6c2.2,0,4.1-.8,5.7-2.4s2.4-3.5,2.4-5.7-.8-4.1-2.4-5.7-3.5-2.4-5.7-2.4-4.1.8-5.7,2.4-2.4,3.5-2.4,5.7.8,4.1,2.4,5.7,3.5,2.4,5.7,2.4Z"/>
      <path id="m0251bc5e48-50" class="cls-4" d="M231.9,278.3c2.2,0,4.1-.8,5.7-2.4s2.4-3.5,2.4-5.7-.8-4.1-2.4-5.7-3.5-2.4-5.7-2.4-4.1.8-5.7,2.4-2.4,3.5-2.4,5.7.8,4.1,2.4,5.7,3.5,2.4,5.7,2.4Z"/>
      <path id="m0251bc5e48-51" class="cls-4" d="M228.8,274.2c2.2,0,4.1-.8,5.7-2.4s2.4-3.5,2.4-5.7-.8-4.1-2.4-5.7-3.5-2.4-5.7-2.4-4.1.8-5.7,2.4-2.4,3.5-2.4,5.7.8,4.1,2.4,5.7,3.5,2.4,5.7,2.4Z"/>
      <path id="m0251bc5e48-52" class="cls-4" d="M231.1,278.9c2.2,0,4.1-.8,5.7-2.4s2.4-3.5,2.4-5.7-.8-4.1-2.4-5.7-3.5-2.4-5.7-2.4-4.1.8-5.7,2.4-2.4,3.5-2.4,5.7.8,4.1,2.4,5.7,3.5,2.4,5.7,2.4Z"/>
      <path id="m0251bc5e48-53" class="cls-4" d="M223.9,276.9c2.2,0,4.1-.8,5.7-2.4s2.4-3.5,2.4-5.7-.8-4.1-2.4-5.7-3.5-2.4-5.7-2.4-4.1.8-5.7,2.4-2.4,3.5-2.4,5.7.8,4.1,2.4,5.7,3.5,2.4,5.7,2.4Z"/>
      <path id="m0251bc5e48-54" class="cls-4" d="M231.8,276.8c2.2,0,4.1-.8,5.7-2.4s2.4-3.5,2.4-5.7-.8-4.1-2.4-5.7-3.5-2.4-5.7-2.4-4.1.8-5.7,2.4-2.4,3.5-2.4,5.7.8,4.1,2.4,5.7,3.5,2.4,5.7,2.4Z"/>
      <path id="m0251bc5e48-55" class="cls-4" d="M198.6,261c2.2,0,4.1-.8,5.7-2.4s2.4-3.5,2.4-5.7-.8-4.1-2.4-5.7c-1.5-1.5-3.5-2.4-5.7-2.4s-4.1.8-5.7,2.4-2.4,3.5-2.4,5.7.8,4.1,2.4,5.7,3.5,2.4,5.7,2.4Z"/>
      <path id="m0251bc5e48-56" class="cls-4" d="M229.7,278.7c2.2,0,4.1-.8,5.7-2.4s2.4-3.5,2.4-5.7-.8-4.1-2.4-5.7-3.5-2.4-5.7-2.4-4.1.8-5.7,2.4-2.4,3.5-2.4,5.7.8,4.1,2.4,5.7,3.5,2.4,5.7,2.4Z"/>
      <path id="m0251bc5e48-57" class="cls-4" d="M230.4,279.8c2.2,0,4.1-.8,5.7-2.4s2.4-3.5,2.4-5.7-.8-4.1-2.4-5.7-3.5-2.4-5.7-2.4-4.1.8-5.7,2.4-2.4,3.5-2.4,5.7.8,4.1,2.4,5.7,3.5,2.4,5.7,2.4Z"/>
      <path id="m0251bc5e48-58" class="cls-4" d="M231.8,277.4c2.2,0,4.1-.8,5.7-2.4s2.4-3.5,2.4-5.7-.8-4.1-2.4-5.7-3.5-2.4-5.7-2.4-4.1.8-5.7,2.4-2.4,3.5-2.4,5.7.8,4.1,2.4,5.7,3.5,2.4,5.7,2.4Z"/>
      <path id="m0251bc5e48-59" class="cls-4" d="M234.5,277.7c2.2,0,4.1-.8,5.7-2.4s2.4-3.5,2.4-5.7-.8-4.1-2.4-5.7-3.5-2.4-5.7-2.4-4.1.8-5.7,2.4-2.4,3.5-2.4,5.7.8,4.1,2.4,5.7,3.5,2.4,5.7,2.4Z"/>
      <path id="m0251bc5e48-60" class="cls-4" d="M298.7,247c2.2,0,4.1-.8,5.7-2.4s2.4-3.5,2.4-5.7-.8-4.1-2.4-5.7-3.5-2.4-5.7-2.4-4.1.8-5.7,2.4-2.4,3.5-2.4,5.7.8,4.1,2.4,5.7,3.5,2.4,5.7,2.4Z"/>
      <path id="m0251bc5e48-61" class="cls-4" d="M232.7,278.8c2.2,0,4.1-.8,5.7-2.4s2.4-3.5,2.4-5.7-.8-4.1-2.4-5.7-3.5-2.4-5.7-2.4-4.1.8-5.7,2.4-2.4,3.5-2.4,5.7.8,4.1,2.4,5.7,3.5,2.4,5.7,2.4Z"/>
      <path id="m0251bc5e48-62" class="cls-4" d="M226,277.6c2.2,0,4.1-.8,5.7-2.4s2.4-3.5,2.4-5.7-.8-4.1-2.4-5.7-3.5-2.4-5.7-2.4-4.1.8-5.7,2.4-2.4,3.5-2.4,5.7.8,4.1,2.4,5.7,3.5,2.4,5.7,2.4Z"/>
      <path id="m0251bc5e48-63" class="cls-4" d="M216.3,255.3c2.2,0,4.1-.8,5.7-2.4s2.4-3.5,2.4-5.7-.8-4.1-2.4-5.7-3.5-2.4-5.7-2.4-4.1.8-5.7,2.4-2.4,3.5-2.4,5.7.8,4.1,2.4,5.7,3.5,2.4,5.7,2.4Z"/>
      <path id="m0251bc5e48-64" class="cls-4" d="M228.2,273.1c2.2,0,4.1-.8,5.7-2.4s2.4-3.5,2.4-5.7-.8-4.1-2.4-5.7-3.5-2.4-5.7-2.4-4.1.8-5.7,2.4-2.4,3.5-2.4,5.7.8,4.1,2.4,5.7,3.5,2.4,5.7,2.4Z"/>
      <path id="m0251bc5e48-65" class="cls-4" d="M231.8,277c2.2,0,4.1-.8,5.7-2.4s2.4-3.5,2.4-5.7-.8-4.1-2.4-5.7-3.5-2.4-5.7-2.4-4.1.8-5.7,2.4-2.4,3.5-2.4,5.7.8,4.1,2.4,5.7,3.5,2.4,5.7,2.4Z"/>
      <path id="m0251bc5e48-66" class="cls-4" d="M225.7,282.8c2.2,0,4.1-.8,5.7-2.4s2.4-3.5,2.4-5.7-.8-4.1-2.4-5.7-3.5-2.4-5.7-2.4-4.1.8-5.7,2.4-2.4,3.5-2.4,5.7.8,4.1,2.4,5.7,3.5,2.4,5.7,2.4Z"/>
      <path id="m0251bc5e48-67" class="cls-4" d="M221.1,282.6c2.2,0,4.1-.8,5.7-2.4s2.4-3.5,2.4-5.7-.8-4.1-2.4-5.7-3.5-2.4-5.7-2.4-4.1.8-5.7,2.4-2.4,3.5-2.4,5.7.8,4.1,2.4,5.7,3.5,2.4,5.7,2.4Z"/>
      <path id="m0251bc5e48-68" class="cls-4" d="M237.1,278.2c2.2,0,4.1-.8,5.7-2.4s2.4-3.5,2.4-5.7-.8-4.1-2.4-5.7-3.5-2.4-5.7-2.4-4.1.8-5.7,2.4-2.4,3.5-2.4,5.7.8,4.1,2.4,5.7,3.5,2.4,5.7,2.4Z"/>
      <path id="m0251bc5e48-69" class="cls-4" d="M231.6,276.4c2.2,0,4.1-.8,5.7-2.4s2.4-3.5,2.4-5.7-.8-4.1-2.4-5.7-3.5-2.4-5.7-2.4-4.1.8-5.7,2.4-2.4,3.5-2.4,5.7.8,4.1,2.4,5.7,3.5,2.4,5.7,2.4Z"/>
      <path id="m0251bc5e48-70" class="cls-4" d="M234.7,277.1c2.2,0,4.1-.8,5.7-2.4s2.4-3.5,2.4-5.7-.8-4.1-2.4-5.7-3.5-2.4-5.7-2.4-4.1.8-5.7,2.4-2.4,3.5-2.4,5.7.8,4.1,2.4,5.7,3.5,2.4,5.7,2.4Z"/>
      <path id="m0251bc5e48-71" class="cls-4" d="M229.7,277.8c2.2,0,4.1-.8,5.7-2.4s2.4-3.5,2.4-5.7-.8-4.1-2.4-5.7-3.5-2.4-5.7-2.4-4.1.8-5.7,2.4-2.4,3.5-2.4,5.7.8,4.1,2.4,5.7,3.5,2.4,5.7,2.4Z"/>
      <path id="m0251bc5e48-72" class="cls-4" d="M230.8,275.2c2.2,0,4.1-.8,5.7-2.4s2.4-3.5,2.4-5.7-.8-4.1-2.4-5.7-3.5-2.4-5.7-2.4-4.1.8-5.7,2.4-2.4,3.5-2.4,5.7.8,4.1,2.4,5.7,3.5,2.4,5.7,2.4Z"/>
      <path id="m0251bc5e48-73" class="cls-4" d="M228.1,272.8c2.2,0,4.1-.8,5.7-2.4s2.4-3.5,2.4-5.7-.8-4.1-2.4-5.7-3.5-2.4-5.7-2.4-4.1.8-5.7,2.4-2.4,3.5-2.4,5.7.8,4.1,2.4,5.7,3.5,2.4,5.7,2.4Z"/>
      <path id="m0251bc5e48-74" class="cls-4" d="M230.6,277.5c2.2,0,4.1-.8,5.7-2.4s2.4-3.5,2.4-5.7-.8-4.1-2.4-5.7-3.5-2.4-5.7-2.4-4.1.8-5.7,2.4-2.4,3.5-2.4,5.7.8,4.1,2.4,5.7,3.5,2.4,5.7,2.4Z"/>
      <path id="m0251bc5e48-75" class="cls-4" d="M234.2,277.6c2.2,0,4.1-.8,5.7-2.4s2.4-3.5,2.4-5.7-.8-4.1-2.4-5.7-3.5-2.4-5.7-2.4-4.1.8-5.7,2.4-2.4,3.5-2.4,5.7.8,4.1,2.4,5.7,3.5,2.4,5.7,2.4Z"/>
      <path id="m0251bc5e48-76" class="cls-4" d="M230.8,277.5c2.2,0,4.1-.8,5.7-2.4s2.4-3.5,2.4-5.7-.8-4.1-2.4-5.7-3.5-2.4-5.7-2.4-4.1.8-5.7,2.4-2.4,3.5-2.4,5.7.8,4.1,2.4,5.7,3.5,2.4,5.7,2.4Z"/>
      <path id="m0251bc5e48-77" class="cls-4" d="M201.6,258.2c2.2,0,4.1-.8,5.7-2.4s2.4-3.5,2.4-5.7-.8-4.1-2.4-5.7-3.5-2.4-5.7-2.4-4.1.8-5.7,2.4c-1.5,1.5-2.4,3.5-2.4,5.7s.8,4.1,2.4,5.7c1.5,1.5,3.5,2.4,5.7,2.4Z"/>
      <path id="m0251bc5e48-78" class="cls-4" d="M237.2,279.7c2.2,0,4.1-.8,5.7-2.4s2.4-3.5,2.4-5.7-.8-4.1-2.4-5.7-3.5-2.4-5.7-2.4-4.1.8-5.7,2.4-2.4,3.5-2.4,5.7.8,4.1,2.4,5.7,3.5,2.4,5.7,2.4Z"/>
      <path id="m0251bc5e48-79" class="cls-4" d="M237.5,275.7c2.2,0,4.1-.8,5.7-2.4s2.4-3.5,2.4-5.7-.8-4.1-2.4-5.7-3.5-2.4-5.7-2.4-4.1.8-5.7,2.4-2.4,3.5-2.4,5.7.8,4.1,2.4,5.7,3.5,2.4,5.7,2.4Z"/>
      <path id="m0251bc5e48-80" class="cls-4" d="M229.1,274.8c2.2,0,4.1-.8,5.7-2.4s2.4-3.5,2.4-5.7-.8-4.1-2.4-5.7-3.5-2.4-5.7-2.4-4.1.8-5.7,2.4-2.4,3.5-2.4,5.7.8,4.1,2.4,5.7,3.5,2.4,5.7,2.4Z"/>
      <path id="m0251bc5e48-81" class="cls-4" d="M232.4,276.5c2.2,0,4.1-.8,5.7-2.4s2.4-3.5,2.4-5.7-.8-4.1-2.4-5.7-3.5-2.4-5.7-2.4-4.1.8-5.7,2.4-2.4,3.5-2.4,5.7.8,4.1,2.4,5.7,3.5,2.4,5.7,2.4Z"/>
      <path id="m0251bc5e48-82" class="cls-4" d="M227.2,275.9c2.2,0,4.1-.8,5.7-2.4s2.4-3.5,2.4-5.7-.8-4.1-2.4-5.7-3.5-2.4-5.7-2.4-4.1.8-5.7,2.4-2.4,3.5-2.4,5.7.8,4.1,2.4,5.7,3.5,2.4,5.7,2.4Z"/>
      <path id="m0251bc5e48-83" class="cls-4" d="M225.7,272.9c2.2,0,4.1-.8,5.7-2.4s2.4-3.5,2.4-5.7-.8-4.1-2.4-5.7-3.5-2.4-5.7-2.4-4.1.8-5.7,2.4-2.4,3.5-2.4,5.7.8,4.1,2.4,5.7,3.5,2.4,5.7,2.4Z"/>
      <path id="m0251bc5e48-84" class="cls-4" d="M226.9,277.6c2.2,0,4.1-.8,5.7-2.4s2.4-3.5,2.4-5.7-.8-4.1-2.4-5.7-3.5-2.4-5.7-2.4-4.1.8-5.7,2.4-2.4,3.5-2.4,5.7.8,4.1,2.4,5.7,3.5,2.4,5.7,2.4Z"/>
      <path id="m0251bc5e48-85" class="cls-4" d="M246.1,318.1c2.2,0,4.1-.8,5.7-2.4s2.4-3.5,2.4-5.7-.8-4.1-2.4-5.7-3.5-2.4-5.7-2.4-4.1.8-5.7,2.4-2.4,3.5-2.4,5.7.8,4.1,2.4,5.7,3.5,2.4,5.7,2.4Z"/>
      <path id="m0251bc5e48-86" class="cls-4" d="M283.5,263.8c2.2,0,4.1-.8,5.7-2.4s2.4-3.5,2.4-5.7-.8-4.1-2.4-5.7-3.5-2.4-5.7-2.4-4.1.8-5.7,2.4-2.4,3.5-2.4,5.7.8,4.1,2.4,5.7,3.5,2.4,5.7,2.4Z"/>
      <path id="m0251bc5e48-87" class="cls-4" d="M225.2,273.7c2.2,0,4.1-.8,5.7-2.4s2.4-3.5,2.4-5.7-.8-4.1-2.4-5.7-3.5-2.4-5.7-2.4-4.1.8-5.7,2.4-2.4,3.5-2.4,5.7.8,4.1,2.4,5.7,3.5,2.4,5.7,2.4Z"/>
      <path id="m0251bc5e48-88" class="cls-4" d="M234,274.3c2.2,0,4.1-.8,5.7-2.4s2.4-3.5,2.4-5.7-.8-4.1-2.4-5.7-3.5-2.4-5.7-2.4-4.1.8-5.7,2.4-2.4,3.5-2.4,5.7.8,4.1,2.4,5.7,3.5,2.4,5.7,2.4Z"/>
      <path id="m0251bc5e48-89" class="cls-4" d="M234.1,277.6c2.2,0,4.1-.8,5.7-2.4s2.4-3.5,2.4-5.7-.8-4.1-2.4-5.7-3.5-2.4-5.7-2.4-4.1.8-5.7,2.4-2.4,3.5-2.4,5.7.8,4.1,2.4,5.7,3.5,2.4,5.7,2.4Z"/>
      <path id="m0251bc5e48-90" class="cls-4" d="M228.2,272.6c2.2,0,4.1-.8,5.7-2.4s2.4-3.5,2.4-5.7-.8-4.1-2.4-5.7-3.5-2.4-5.7-2.4-4.1.8-5.7,2.4-2.4,3.5-2.4,5.7.8,4.1,2.4,5.7,3.5,2.4,5.7,2.4Z"/>
      <path id="m0251bc5e48-91" class="cls-4" d="M231.1,277.6c2.2,0,4.1-.8,5.7-2.4s2.4-3.5,2.4-5.7-.8-4.1-2.4-5.7-3.5-2.4-5.7-2.4-4.1.8-5.7,2.4-2.4,3.5-2.4,5.7.8,4.1,2.4,5.7,3.5,2.4,5.7,2.4Z"/>
      <path id="m0251bc5e48-92" class="cls-4" d="M237.5,210.8c2.2,0,4.1-.8,5.7-2.4s2.4-3.5,2.4-5.7-.8-4.1-2.4-5.7-3.5-2.4-5.7-2.4-4.1.8-5.7,2.4-2.4,3.5-2.4,5.7.8,4.1,2.4,5.7,3.5,2.4,5.7,2.4Z"/>
      <path id="m0251bc5e48-93" class="cls-4" d="M239.5,278.7c2.2,0,4.1-.8,5.7-2.4s2.4-3.5,2.4-5.7-.8-4.1-2.4-5.7-3.5-2.4-5.7-2.4-4.1.8-5.7,2.4-2.4,3.5-2.4,5.7.8,4.1,2.4,5.7,3.5,2.4,5.7,2.4Z"/>
      <path id="m0251bc5e48-94" class="cls-4" d="M233,280.8c2.2,0,4.1-.8,5.7-2.4s2.4-3.5,2.4-5.7-.8-4.1-2.4-5.7-3.5-2.4-5.7-2.4-4.1.8-5.7,2.4-2.4,3.5-2.4,5.7.8,4.1,2.4,5.7,3.5,2.4,5.7,2.4Z"/>
      <path id="m0251bc5e48-95" class="cls-4" d="M224.4,282c2.2,0,4.1-.8,5.7-2.4s2.4-3.5,2.4-5.7-.8-4.1-2.4-5.7-3.5-2.4-5.7-2.4-4.1.8-5.7,2.4-2.4,3.5-2.4,5.7.8,4.1,2.4,5.7,3.5,2.4,5.7,2.4Z"/>
      <path id="m0251bc5e48-96" class="cls-4" d="M221.7,261.4c2.2,0,4.1-.8,5.7-2.4s2.4-3.5,2.4-5.7-.8-4.1-2.4-5.7-3.5-2.4-5.7-2.4-4.1.8-5.7,2.4-2.4,3.5-2.4,5.7.8,4.1,2.4,5.7,3.5,2.4,5.7,2.4Z"/>
      <path id="m0251bc5e48-97" class="cls-4" d="M230.1,277c2.2,0,4.1-.8,5.7-2.4s2.4-3.5,2.4-5.7-.8-4.1-2.4-5.7-3.5-2.4-5.7-2.4-4.1.8-5.7,2.4-2.4,3.5-2.4,5.7.8,4.1,2.4,5.7,3.5,2.4,5.7,2.4Z"/>
      <path id="m0251bc5e48-98" class="cls-4" d="M227,275c2.2,0,4.1-.8,5.7-2.4s2.4-3.5,2.4-5.7-.8-4.1-2.4-5.7-3.5-2.4-5.7-2.4-4.1.8-5.7,2.4-2.4,3.5-2.4,5.7.8,4.1,2.4,5.7,3.5,2.4,5.7,2.4Z"/>
      <path id="m0251bc5e48-99" class="cls-4" d="M226.5,277.2c2.2,0,4.1-.8,5.7-2.4s2.4-3.5,2.4-5.7-.8-4.1-2.4-5.7-3.5-2.4-5.7-2.4-4.1.8-5.7,2.4-2.4,3.5-2.4,5.7.8,4.1,2.4,5.7,3.5,2.4,5.7,2.4Z"/>
      <path id="m0251bc5e48-100" class="cls-4" d="M232.3,277.5c2.2,0,4.1-.8,5.7-2.4s2.4-3.5,2.4-5.7-.8-4.1-2.4-5.7-3.5-2.4-5.7-2.4-4.1.8-5.7,2.4-2.4,3.5-2.4,5.7.8,4.1,2.4,5.7,3.5,2.4,5.7,2.4Z"/>
      <path id="m0251bc5e48-101" class="cls-4" d="M224.2,279.6c2.2,0,4.1-.8,5.7-2.4s2.4-3.5,2.4-5.7-.8-4.1-2.4-5.7-3.5-2.4-5.7-2.4-4.1.8-5.7,2.4-2.4,3.5-2.4,5.7.8,4.1,2.4,5.7,3.5,2.4,5.7,2.4Z"/>
      <path id="m0251bc5e48-102" class="cls-4" d="M232.3,279.8c2.2,0,4.1-.8,5.7-2.4s2.4-3.5,2.4-5.7-.8-4.1-2.4-5.7-3.5-2.4-5.7-2.4-4.1.8-5.7,2.4-2.4,3.5-2.4,5.7.8,4.1,2.4,5.7,3.5,2.4,5.7,2.4Z"/>
      <path id="m0251bc5e48-103" class="cls-4" d="M224.8,285.8c2.2,0,4.1-.8,5.7-2.4s2.4-3.5,2.4-5.7-.8-4.1-2.4-5.7-3.5-2.4-5.7-2.4-4.1.8-5.7,2.4-2.4,3.5-2.4,5.7.8,4.1,2.4,5.7,3.5,2.4,5.7,2.4Z"/>
      <path id="m0251bc5e48-104" class="cls-4" d="M233.3,276.2c2.2,0,4.1-.8,5.7-2.4s2.4-3.5,2.4-5.7-.8-4.1-2.4-5.7-3.5-2.4-5.7-2.4-4.1.8-5.7,2.4-2.4,3.5-2.4,5.7.8,4.1,2.4,5.7,3.5,2.4,5.7,2.4Z"/>
      <path id="m0251bc5e48-105" class="cls-4" d="M231,278.9c2.2,0,4.1-.8,5.7-2.4s2.4-3.5,2.4-5.7-.8-4.1-2.4-5.7-3.5-2.4-5.7-2.4-4.1.8-5.7,2.4-2.4,3.5-2.4,5.7.8,4.1,2.4,5.7,3.5,2.4,5.7,2.4Z"/>
      <path id="m0251bc5e48-106" class="cls-4" d="M231.3,277.4c2.2,0,4.1-.8,5.7-2.4s2.4-3.5,2.4-5.7-.8-4.1-2.4-5.7-3.5-2.4-5.7-2.4-4.1.8-5.7,2.4-2.4,3.5-2.4,5.7.8,4.1,2.4,5.7,3.5,2.4,5.7,2.4Z"/>
      <path id="m0251bc5e48-107" class="cls-4" d="M222.7,282.9c2.2,0,4.1-.8,5.7-2.4s2.4-3.5,2.4-5.7-.8-4.1-2.4-5.7-3.5-2.4-5.7-2.4-4.1.8-5.7,2.4-2.4,3.5-2.4,5.7.8,4.1,2.4,5.7,3.5,2.4,5.7,2.4Z"/>
      <path id="m0251bc5e48-108" class="cls-4" d="M223.7,276.4c2.2,0,4.1-.8,5.7-2.4s2.4-3.5,2.4-5.7-.8-4.1-2.4-5.7-3.5-2.4-5.7-2.4-4.1.8-5.7,2.4-2.4,3.5-2.4,5.7.8,4.1,2.4,5.7,3.5,2.4,5.7,2.4Z"/>
      <path id="m0251bc5e48-109" class="cls-4" d="M243.5,322.6c2.2,0,4.1-.8,5.7-2.4s2.4-3.5,2.4-5.7-.8-4.1-2.4-5.7-3.5-2.4-5.7-2.4-4.1.8-5.7,2.4-2.4,3.5-2.4,5.7.8,4.1,2.4,5.7,3.5,2.4,5.7,2.4Z"/>
      <path id="m0251bc5e48-110" class="cls-4" d="M224.2,276.7c2.2,0,4.1-.8,5.7-2.4s2.4-3.5,2.4-5.7-.8-4.1-2.4-5.7-3.5-2.4-5.7-2.4-4.1.8-5.7,2.4-2.4,3.5-2.4,5.7.8,4.1,2.4,5.7,3.5,2.4,5.7,2.4Z"/>
      <path id="m0251bc5e48-111" class="cls-4" d="M231.7,276.2c2.2,0,4.1-.8,5.7-2.4s2.4-3.5,2.4-5.7-.8-4.1-2.4-5.7-3.5-2.4-5.7-2.4-4.1.8-5.7,2.4-2.4,3.5-2.4,5.7.8,4.1,2.4,5.7,3.5,2.4,5.7,2.4Z"/>
      <path id="m0251bc5e48-112" class="cls-4" d="M224.3,276.6c2.2,0,4.1-.8,5.7-2.4s2.4-3.5,2.4-5.7-.8-4.1-2.4-5.7-3.5-2.4-5.7-2.4-4.1.8-5.7,2.4-2.4,3.5-2.4,5.7.8,4.1,2.4,5.7,3.5,2.4,5.7,2.4Z"/>
      <path id="m0251bc5e48-113" class="cls-4" d="M219.7,252.6c2.2,0,4.1-.8,5.7-2.4s2.4-3.5,2.4-5.7-.8-4.1-2.4-5.7-3.5-2.4-5.7-2.4-4.1.8-5.7,2.4-2.4,3.5-2.4,5.7.8,4.1,2.4,5.7,3.5,2.4,5.7,2.4Z"/>
      <path id="m0251bc5e48-114" class="cls-4" d="M232.4,277.5c2.2,0,4.1-.8,5.7-2.4s2.4-3.5,2.4-5.7-.8-4.1-2.4-5.7-3.5-2.4-5.7-2.4-4.1.8-5.7,2.4-2.4,3.5-2.4,5.7.8,4.1,2.4,5.7,3.5,2.4,5.7,2.4Z"/>
      <path id="m0251bc5e48-115" class="cls-4" d="M228.5,282c2.2,0,4.1-.8,5.7-2.4s2.4-3.5,2.4-5.7-.8-4.1-2.4-5.7-3.5-2.4-5.7-2.4-4.1.8-5.7,2.4-2.4,3.5-2.4,5.7.8,4.1,2.4,5.7,3.5,2.4,5.7,2.4Z"/>
      <path id="m0251bc5e48-116" class="cls-4" d="M239.7,276.3c2.2,0,4.1-.8,5.7-2.4s2.4-3.5,2.4-5.7-.8-4.1-2.4-5.7-3.5-2.4-5.7-2.4-4.1.8-5.7,2.4-2.4,3.5-2.4,5.7.8,4.1,2.4,5.7,3.5,2.4,5.7,2.4Z"/>
      <path id="m0251bc5e48-117" class="cls-4" d="M226.1,277.4c2.2,0,4.1-.8,5.7-2.4s2.4-3.5,2.4-5.7-.8-4.1-2.4-5.7-3.5-2.4-5.7-2.4-4.1.8-5.7,2.4-2.4,3.5-2.4,5.7.8,4.1,2.4,5.7,3.5,2.4,5.7,2.4Z"/>
      <path id="m0251bc5e48-118" class="cls-4" d="M223.8,280.9c2.2,0,4.1-.8,5.7-2.4s2.4-3.5,2.4-5.7-.8-4.1-2.4-5.7-3.5-2.4-5.7-2.4-4.1.8-5.7,2.4-2.4,3.5-2.4,5.7.8,4.1,2.4,5.7,3.5,2.4,5.7,2.4Z"/>
      <path id="m0251bc5e48-119" class="cls-4" d="M237.6,289.8c2.2,0,4.1-.8,5.7-2.4s2.4-3.5,2.4-5.7-.8-4.1-2.4-5.7-3.5-2.4-5.7-2.4-4.1.8-5.7,2.4-2.4,3.5-2.4,5.7.8,4.1,2.4,5.7,3.5,2.4,5.7,2.4Z"/>
      <path id="m0251bc5e48-120" class="cls-4" d="M229,277.3c2.2,0,4.1-.8,5.7-2.4s2.4-3.5,2.4-5.7-.8-4.1-2.4-5.7-3.5-2.4-5.7-2.4-4.1.8-5.7,2.4-2.4,3.5-2.4,5.7.8,4.1,2.4,5.7,3.5,2.4,5.7,2.4Z"/>
      <path id="m0251bc5e48-121" class="cls-4" d="M228.7,280.8c2.2,0,4.1-.8,5.7-2.4s2.4-3.5,2.4-5.7-.8-4.1-2.4-5.7-3.5-2.4-5.7-2.4-4.1.8-5.7,2.4-2.4,3.5-2.4,5.7.8,4.1,2.4,5.7,3.5,2.4,5.7,2.4Z"/>
      <path id="m0251bc5e48-122" class="cls-4" d="M221.8,286.5c2.2,0,4.1-.8,5.7-2.4s2.4-3.5,2.4-5.7-.8-4.1-2.4-5.7-3.5-2.4-5.7-2.4-4.1.8-5.7,2.4-2.4,3.5-2.4,5.7.8,4.1,2.4,5.7,3.5,2.4,5.7,2.4Z"/>
      <path id="m0251bc5e48-123" class="cls-4" d="M228.4,265.7c2.2,0,4.1-.8,5.7-2.4s2.4-3.5,2.4-5.7-.8-4.1-2.4-5.7-3.5-2.4-5.7-2.4-4.1.8-5.7,2.4-2.4,3.5-2.4,5.7.8,4.1,2.4,5.7,3.5,2.4,5.7,2.4Z"/>
      <path id="m0251bc5e48-124" class="cls-4" d="M229.4,274.3c2.2,0,4.1-.8,5.7-2.4s2.4-3.5,2.4-5.7-.8-4.1-2.4-5.7-3.5-2.4-5.7-2.4-4.1.8-5.7,2.4-2.4,3.5-2.4,5.7.8,4.1,2.4,5.7,3.5,2.4,5.7,2.4Z"/>
      <path id="m0251bc5e48-125" class="cls-4" d="M214.2,307.8c2.2,0,4.1-.8,5.7-2.4s2.4-3.5,2.4-5.7-.8-4.1-2.4-5.7-3.5-2.4-5.7-2.4-4.1.8-5.7,2.4-2.4,3.5-2.4,5.7.8,4.1,2.4,5.7,3.5,2.4,5.7,2.4Z"/>
      <path id="m0251bc5e48-126" class="cls-4" d="M224.1,277.2c2.2,0,4.1-.8,5.7-2.4s2.4-3.5,2.4-5.7-.8-4.1-2.4-5.7-3.5-2.4-5.7-2.4-4.1.8-5.7,2.4-2.4,3.5-2.4,5.7.8,4.1,2.4,5.7,3.5,2.4,5.7,2.4Z"/>
      <path id="m0251bc5e48-127" class="cls-4" d="M228.2,272.6c2.2,0,4.1-.8,5.7-2.4s2.4-3.5,2.4-5.7-.8-4.1-2.4-5.7-3.5-2.4-5.7-2.4-4.1.8-5.7,2.4-2.4,3.5-2.4,5.7.8,4.1,2.4,5.7,3.5,2.4,5.7,2.4Z"/>
      <path id="m0251bc5e48-128" class="cls-4" d="M202.8,306c2.2,0,4.1-.8,5.7-2.4s2.4-3.5,2.4-5.7-.8-4.1-2.4-5.7c-1.5-1.5-3.5-2.4-5.7-2.4s-4.1.8-5.7,2.4c-1.5,1.5-2.4,3.5-2.4,5.7s.8,4.1,2.4,5.7c1.5,1.5,3.5,2.4,5.7,2.4Z"/>
      <path id="m0251bc5e48-129" class="cls-4" d="M226.9,275.9c2.2,0,4.1-.8,5.7-2.4s2.4-3.5,2.4-5.7-.8-4.1-2.4-5.7-3.5-2.4-5.7-2.4-4.1.8-5.7,2.4-2.4,3.5-2.4,5.7.8,4.1,2.4,5.7,3.5,2.4,5.7,2.4Z"/>
      <path id="m0251bc5e48-130" class="cls-4" d="M230.4,280.5c2.2,0,4.1-.8,5.7-2.4s2.4-3.5,2.4-5.7-.8-4.1-2.4-5.7-3.5-2.4-5.7-2.4-4.1.8-5.7,2.4-2.4,3.5-2.4,5.7.8,4.1,2.4,5.7,3.5,2.4,5.7,2.4Z"/>
      <path id="m0251bc5e48-131" class="cls-4" d="M178,264.6c2.2,0,4.1-.8,5.7-2.4s2.4-3.5,2.4-5.7-.8-4.1-2.4-5.7-3.5-2.4-5.7-2.4-4.1.8-5.7,2.4-2.4,3.5-2.4,5.7.8,4.1,2.4,5.7c1.5,1.5,3.5,2.4,5.7,2.4Z"/>
      <path id="m0251bc5e48-132" class="cls-4" d="M224.1,276.2c2.2,0,4.1-.8,5.7-2.4s2.4-3.5,2.4-5.7-.8-4.1-2.4-5.7-3.5-2.4-5.7-2.4-4.1.8-5.7,2.4-2.4,3.5-2.4,5.7.8,4.1,2.4,5.7,3.5,2.4,5.7,2.4Z"/>
      <path id="m0251bc5e48-133" class="cls-4" d="M223.1,252.9c2.2,0,4.1-.8,5.7-2.4s2.4-3.5,2.4-5.7-.8-4.1-2.4-5.7-3.5-2.4-5.7-2.4-4.1.8-5.7,2.4-2.4,3.5-2.4,5.7.8,4.1,2.4,5.7,3.5,2.4,5.7,2.4Z"/>
      <path id="m0251bc5e48-134" class="cls-4" d="M227.1,266.4c2.2,0,4.1-.8,5.7-2.4s2.4-3.5,2.4-5.7-.8-4.1-2.4-5.7-3.5-2.4-5.7-2.4-4.1.8-5.7,2.4-2.4,3.5-2.4,5.7.8,4.1,2.4,5.7,3.5,2.4,5.7,2.4Z"/>
      <path id="m0251bc5e48-135" class="cls-4" d="M224.6,278.3c2.2,0,4.1-.8,5.7-2.4s2.4-3.5,2.4-5.7-.8-4.1-2.4-5.7-3.5-2.4-5.7-2.4-4.1.8-5.7,2.4-2.4,3.5-2.4,5.7.8,4.1,2.4,5.7,3.5,2.4,5.7,2.4Z"/>
      <path id="m0251bc5e48-136" class="cls-4" d="M229.4,270.6c2.2,0,4.1-.8,5.7-2.4s2.4-3.5,2.4-5.7-.8-4.1-2.4-5.7-3.5-2.4-5.7-2.4-4.1.8-5.7,2.4-2.4,3.5-2.4,5.7.8,4.1,2.4,5.7,3.5,2.4,5.7,2.4Z"/>
      <path id="m0251bc5e48-137" class="cls-4" d="M239.4,259.5c2.2,0,4.1-.8,5.7-2.4s2.4-3.5,2.4-5.7-.8-4.1-2.4-5.7-3.5-2.4-5.7-2.4-4.1.8-5.7,2.4-2.4,3.5-2.4,5.7.8,4.1,2.4,5.7,3.5,2.4,5.7,2.4Z"/>
      <path id="m0251bc5e48-138" class="cls-4" d="M234,280.2c2.2,0,4.1-.8,5.7-2.4s2.4-3.5,2.4-5.7-.8-4.1-2.4-5.7-3.5-2.4-5.7-2.4-4.1.8-5.7,2.4-2.4,3.5-2.4,5.7.8,4.1,2.4,5.7,3.5,2.4,5.7,2.4Z"/>
      <path id="m0251bc5e48-139" class="cls-4" d="M231.5,276.7c2.2,0,4.1-.8,5.7-2.4s2.4-3.5,2.4-5.7-.8-4.1-2.4-5.7-3.5-2.4-5.7-2.4-4.1.8-5.7,2.4-2.4,3.5-2.4,5.7.8,4.1,2.4,5.7,3.5,2.4,5.7,2.4Z"/>
      <path id="m0251bc5e48-140" class="cls-4" d="M227.6,275.7c2.2,0,4.1-.8,5.7-2.4s2.4-3.5,2.4-5.7-.8-4.1-2.4-5.7-3.5-2.4-5.7-2.4-4.1.8-5.7,2.4-2.4,3.5-2.4,5.7.8,4.1,2.4,5.7,3.5,2.4,5.7,2.4Z"/>
      <path id="m0251bc5e48-141" class="cls-4" d="M227.2,275.2c2.2,0,4.1-.8,5.7-2.4s2.4-3.5,2.4-5.7-.8-4.1-2.4-5.7-3.5-2.4-5.7-2.4-4.1.8-5.7,2.4-2.4,3.5-2.4,5.7.8,4.1,2.4,5.7,3.5,2.4,5.7,2.4Z"/>
      <path id="m0251bc5e48-142" class="cls-4" d="M239,275.4c2.2,0,4.1-.8,5.7-2.4s2.4-3.5,2.4-5.7-.8-4.1-2.4-5.7-3.5-2.4-5.7-2.4-4.1.8-5.7,2.4-2.4,3.5-2.4,5.7.8,4.1,2.4,5.7,3.5,2.4,5.7,2.4Z"/>
      <path id="m0251bc5e48-143" class="cls-4" d="M236.5,275.2c2.2,0,4.1-.8,5.7-2.4s2.4-3.5,2.4-5.7-.8-4.1-2.4-5.7-3.5-2.4-5.7-2.4-4.1.8-5.7,2.4-2.4,3.5-2.4,5.7.8,4.1,2.4,5.7,3.5,2.4,5.7,2.4Z"/>
      <path id="m0251bc5e48-144" class="cls-4" d="M229.4,267.9c2.2,0,4.1-.8,5.7-2.4s2.4-3.5,2.4-5.7-.8-4.1-2.4-5.7-3.5-2.4-5.7-2.4-4.1.8-5.7,2.4-2.4,3.5-2.4,5.7.8,4.1,2.4,5.7,3.5,2.4,5.7,2.4Z"/>
      <path id="m0251bc5e48-145" class="cls-4" d="M224.7,277.4c2.2,0,4.1-.8,5.7-2.4s2.4-3.5,2.4-5.7-.8-4.1-2.4-5.7-3.5-2.4-5.7-2.4-4.1.8-5.7,2.4-2.4,3.5-2.4,5.7.8,4.1,2.4,5.7,3.5,2.4,5.7,2.4Z"/>
      <path id="m0251bc5e48-146" class="cls-4" d="M234.4,268.2c2.2,0,4.1-.8,5.7-2.4s2.4-3.5,2.4-5.7-.8-4.1-2.4-5.7-3.5-2.4-5.7-2.4-4.1.8-5.7,2.4-2.4,3.5-2.4,5.7.8,4.1,2.4,5.7,3.5,2.4,5.7,2.4Z"/>
      <path id="m0251bc5e48-147" class="cls-4" d="M231.1,276.6c2.2,0,4.1-.8,5.7-2.4s2.4-3.5,2.4-5.7-.8-4.1-2.4-5.7-3.5-2.4-5.7-2.4-4.1.8-5.7,2.4-2.4,3.5-2.4,5.7.8,4.1,2.4,5.7,3.5,2.4,5.7,2.4Z"/>
      <path id="m0251bc5e48-148" class="cls-4" d="M235.6,254.4c2.2,0,4.1-.8,5.7-2.4s2.4-3.5,2.4-5.7-.8-4.1-2.4-5.7-3.5-2.4-5.7-2.4-4.1.8-5.7,2.4-2.4,3.5-2.4,5.7.8,4.1,2.4,5.7,3.5,2.4,5.7,2.4Z"/>
      <path id="m0251bc5e48-149" class="cls-4" d="M234.8,257c2.2,0,4.1-.8,5.7-2.4s2.4-3.5,2.4-5.7-.8-4.1-2.4-5.7-3.5-2.4-5.7-2.4-4.1.8-5.7,2.4-2.4,3.5-2.4,5.7.8,4.1,2.4,5.7,3.5,2.4,5.7,2.4Z"/>
      <path id="m0251bc5e48-150" class="cls-4" d="M226.2,276.2c2.2,0,4.1-.8,5.7-2.4s2.4-3.5,2.4-5.7-.8-4.1-2.4-5.7-3.5-2.4-5.7-2.4-4.1.8-5.7,2.4-2.4,3.5-2.4,5.7.8,4.1,2.4,5.7,3.5,2.4,5.7,2.4Z"/>
      <path id="m0251bc5e48-151" class="cls-4" d="M232.1,277.1c2.2,0,4.1-.8,5.7-2.4s2.4-3.5,2.4-5.7-.8-4.1-2.4-5.7-3.5-2.4-5.7-2.4-4.1.8-5.7,2.4-2.4,3.5-2.4,5.7.8,4.1,2.4,5.7,3.5,2.4,5.7,2.4Z"/>
      <path id="m0251bc5e48-152" class="cls-4" d="M231.3,267.7c2.2,0,4.1-.8,5.7-2.4s2.4-3.5,2.4-5.7-.8-4.1-2.4-5.7-3.5-2.4-5.7-2.4-4.1.8-5.7,2.4-2.4,3.5-2.4,5.7.8,4.1,2.4,5.7,3.5,2.4,5.7,2.4Z"/>
      <path id="m0251bc5e48-153" class="cls-4" d="M231.7,276.8c2.2,0,4.1-.8,5.7-2.4s2.4-3.5,2.4-5.7-.8-4.1-2.4-5.7-3.5-2.4-5.7-2.4-4.1.8-5.7,2.4-2.4,3.5-2.4,5.7.8,4.1,2.4,5.7,3.5,2.4,5.7,2.4Z"/>
      <path id="m0251bc5e48-154" class="cls-4" d="M231.7,276.2c2.2,0,4.1-.8,5.7-2.4s2.4-3.5,2.4-5.7-.8-4.1-2.4-5.7-3.5-2.4-5.7-2.4-4.1.8-5.7,2.4-2.4,3.5-2.4,5.7.8,4.1,2.4,5.7,3.5,2.4,5.7,2.4Z"/>
      <path id="m0251bc5e48-155" class="cls-4" d="M227.2,275.2c2.2,0,4.1-.8,5.7-2.4s2.4-3.5,2.4-5.7-.8-4.1-2.4-5.7-3.5-2.4-5.7-2.4-4.1.8-5.7,2.4-2.4,3.5-2.4,5.7.8,4.1,2.4,5.7,3.5,2.4,5.7,2.4Z"/>
      <path id="m0251bc5e48-156" class="cls-4" d="M216.8,289c2.2,0,4.1-.8,5.7-2.4s2.4-3.5,2.4-5.7-.8-4.1-2.4-5.7-3.5-2.4-5.7-2.4-4.1.8-5.7,2.4-2.4,3.5-2.4,5.7.8,4.1,2.4,5.7,3.5,2.4,5.7,2.4Z"/>
      <path id="m0251bc5e48-157" class="cls-4" d="M234.7,277.9c2.2,0,4.1-.8,5.7-2.4s2.4-3.5,2.4-5.7-.8-4.1-2.4-5.7-3.5-2.4-5.7-2.4-4.1.8-5.7,2.4-2.4,3.5-2.4,5.7.8,4.1,2.4,5.7,3.5,2.4,5.7,2.4Z"/>
      <path id="m0251bc5e48-158" class="cls-4" d="M200.1,216.3c2.2,0,4.1-.8,5.7-2.4s2.4-3.5,2.4-5.7-.8-4.1-2.4-5.7-3.5-2.4-5.7-2.4-4.1.8-5.7,2.4-2.4,3.5-2.4,5.7.8,4.1,2.4,5.7,3.5,2.4,5.7,2.4Z"/>
      <path id="m0251bc5e48-159" class="cls-4" d="M240.3,269.2c2.2,0,4.1-.8,5.7-2.4s2.4-3.5,2.4-5.7-.8-4.1-2.4-5.7-3.5-2.4-5.7-2.4-4.1.8-5.7,2.4-2.4,3.5-2.4,5.7.8,4.1,2.4,5.7,3.5,2.4,5.7,2.4Z"/>
      <path id="m0251bc5e48-160" class="cls-4" d="M233.2,277.5c2.2,0,4.1-.8,5.7-2.4s2.4-3.5,2.4-5.7-.8-4.1-2.4-5.7-3.5-2.4-5.7-2.4-4.1.8-5.7,2.4-2.4,3.5-2.4,5.7.8,4.1,2.4,5.7,3.5,2.4,5.7,2.4Z"/>
      <path id="m0251bc5e48-161" class="cls-4" d="M227.6,276.4c2.2,0,4.1-.8,5.7-2.4s2.4-3.5,2.4-5.7-.8-4.1-2.4-5.7-3.5-2.4-5.7-2.4-4.1.8-5.7,2.4-2.4,3.5-2.4,5.7.8,4.1,2.4,5.7,3.5,2.4,5.7,2.4Z"/>
      <path id="m0251bc5e48-162" class="cls-4" d="M224.7,280.7c2.2,0,4.1-.8,5.7-2.4s2.4-3.5,2.4-5.7-.8-4.1-2.4-5.7-3.5-2.4-5.7-2.4-4.1.8-5.7,2.4-2.4,3.5-2.4,5.7.8,4.1,2.4,5.7,3.5,2.4,5.7,2.4Z"/>
      <path id="m0251bc5e48-163" class="cls-4" d="M226.9,275.4c2.2,0,4.1-.8,5.7-2.4s2.4-3.5,2.4-5.7-.8-4.1-2.4-5.7-3.5-2.4-5.7-2.4-4.1.8-5.7,2.4-2.4,3.5-2.4,5.7.8,4.1,2.4,5.7,3.5,2.4,5.7,2.4Z"/>
      <path id="m0251bc5e48-164" class="cls-4" d="M219.3,289.7c2.2,0,4.1-.8,5.7-2.4s2.4-3.5,2.4-5.7-.8-4.1-2.4-5.7-3.5-2.4-5.7-2.4-4.1.8-5.7,2.4-2.4,3.5-2.4,5.7.8,4.1,2.4,5.7,3.5,2.4,5.7,2.4Z"/>
      <path id="m0251bc5e48-165" class="cls-4" d="M230.4,275.3c2.2,0,4.1-.8,5.7-2.4s2.4-3.5,2.4-5.7-.8-4.1-2.4-5.7-3.5-2.4-5.7-2.4-4.1.8-5.7,2.4-2.4,3.5-2.4,5.7.8,4.1,2.4,5.7,3.5,2.4,5.7,2.4Z"/>
      <path id="m0251bc5e48-166" class="cls-4" d="M227.2,276.2c2.2,0,4.1-.8,5.7-2.4s2.4-3.5,2.4-5.7-.8-4.1-2.4-5.7-3.5-2.4-5.7-2.4-4.1.8-5.7,2.4-2.4,3.5-2.4,5.7.8,4.1,2.4,5.7,3.5,2.4,5.7,2.4Z"/>
      <path id="m0251bc5e48-167" class="cls-4" d="M230.9,274c2.2,0,4.1-.8,5.7-2.4s2.4-3.5,2.4-5.7-.8-4.1-2.4-5.7-3.5-2.4-5.7-2.4-4.1.8-5.7,2.4-2.4,3.5-2.4,5.7.8,4.1,2.4,5.7,3.5,2.4,5.7,2.4Z"/>
      <path id="m0251bc5e48-168" class="cls-4" d="M226.9,277.3c2.2,0,4.1-.8,5.7-2.4s2.4-3.5,2.4-5.7-.8-4.1-2.4-5.7-3.5-2.4-5.7-2.4-4.1.8-5.7,2.4-2.4,3.5-2.4,5.7.8,4.1,2.4,5.7,3.5,2.4,5.7,2.4Z"/>
      <path id="m0251bc5e48-169" class="cls-4" d="M240.3,292.5c2.2,0,4.1-.8,5.7-2.4s2.4-3.5,2.4-5.7-.8-4.1-2.4-5.7-3.5-2.4-5.7-2.4-4.1.8-5.7,2.4-2.4,3.5-2.4,5.7.8,4.1,2.4,5.7,3.5,2.4,5.7,2.4Z"/>
      <path id="m0251bc5e48-170" class="cls-4" d="M232.3,276.1c2.2,0,4.1-.8,5.7-2.4s2.4-3.5,2.4-5.7-.8-4.1-2.4-5.7-3.5-2.4-5.7-2.4-4.1.8-5.7,2.4-2.4,3.5-2.4,5.7.8,4.1,2.4,5.7,3.5,2.4,5.7,2.4Z"/>
      <path id="m0251bc5e48-171" class="cls-4" d="M227.2,275.7c2.2,0,4.1-.8,5.7-2.4s2.4-3.5,2.4-5.7-.8-4.1-2.4-5.7-3.5-2.4-5.7-2.4-4.1.8-5.7,2.4-2.4,3.5-2.4,5.7.8,4.1,2.4,5.7,3.5,2.4,5.7,2.4Z"/>
      <path id="m0251bc5e48-172" class="cls-4" d="M214.5,308.9c2.2,0,4.1-.8,5.7-2.4s2.4-3.5,2.4-5.7-.8-4.1-2.4-5.7-3.5-2.4-5.7-2.4-4.1.8-5.7,2.4-2.4,3.5-2.4,5.7.8,4.1,2.4,5.7,3.5,2.4,5.7,2.4Z"/>
      <path id="m0251bc5e48-173" class="cls-4" d="M225.7,273.4c2.2,0,4.1-.8,5.7-2.4s2.4-3.5,2.4-5.7-.8-4.1-2.4-5.7-3.5-2.4-5.7-2.4-4.1.8-5.7,2.4-2.4,3.5-2.4,5.7.8,4.1,2.4,5.7,3.5,2.4,5.7,2.4Z"/>
      <path id="m0251bc5e48-174" class="cls-4" d="M228,276.2c2.2,0,4.1-.8,5.7-2.4s2.4-3.5,2.4-5.7-.8-4.1-2.4-5.7-3.5-2.4-5.7-2.4-4.1.8-5.7,2.4-2.4,3.5-2.4,5.7.8,4.1,2.4,5.7,3.5,2.4,5.7,2.4Z"/>
      <path id="m0251bc5e48-175" class="cls-4" d="M226.1,277.2c2.2,0,4.1-.8,5.7-2.4s2.4-3.5,2.4-5.7-.8-4.1-2.4-5.7-3.5-2.4-5.7-2.4-4.1.8-5.7,2.4-2.4,3.5-2.4,5.7.8,4.1,2.4,5.7,3.5,2.4,5.7,2.4Z"/>
      <path id="m0251bc5e48-176" class="cls-4" d="M232.2,273.4c2.2,0,4.1-.8,5.7-2.4s2.4-3.5,2.4-5.7-.8-4.1-2.4-5.7-3.5-2.4-5.7-2.4-4.1.8-5.7,2.4-2.4,3.5-2.4,5.7.8,4.1,2.4,5.7,3.5,2.4,5.7,2.4Z"/>
      <path id="m0251bc5e48-177" class="cls-4" d="M226.9,277.4c2.2,0,4.1-.8,5.7-2.4s2.4-3.5,2.4-5.7-.8-4.1-2.4-5.7-3.5-2.4-5.7-2.4-4.1.8-5.7,2.4-2.4,3.5-2.4,5.7.8,4.1,2.4,5.7,3.5,2.4,5.7,2.4Z"/>
      <path id="m0251bc5e48-178" class="cls-4" d="M230.2,279.4c2.2,0,4.1-.8,5.7-2.4s2.4-3.5,2.4-5.7-.8-4.1-2.4-5.7-3.5-2.4-5.7-2.4-4.1.8-5.7,2.4-2.4,3.5-2.4,5.7.8,4.1,2.4,5.7,3.5,2.4,5.7,2.4Z"/>
      <path id="m0251bc5e48-179" class="cls-4" d="M230.2,277.3c2.2,0,4.1-.8,5.7-2.4s2.4-3.5,2.4-5.7-.8-4.1-2.4-5.7-3.5-2.4-5.7-2.4-4.1.8-5.7,2.4-2.4,3.5-2.4,5.7.8,4.1,2.4,5.7,3.5,2.4,5.7,2.4Z"/>
      <path id="m0251bc5e48-180" class="cls-4" d="M231.8,282c2.2,0,4.1-.8,5.7-2.4s2.4-3.5,2.4-5.7-.8-4.1-2.4-5.7-3.5-2.4-5.7-2.4-4.1.8-5.7,2.4-2.4,3.5-2.4,5.7.8,4.1,2.4,5.7,3.5,2.4,5.7,2.4Z"/>
      <path id="m0251bc5e48-181" class="cls-4" d="M240.7,316c2.2,0,4.1-.8,5.7-2.4s2.4-3.5,2.4-5.7-.8-4.1-2.4-5.7-3.5-2.4-5.7-2.4-4.1.8-5.7,2.4-2.4,3.5-2.4,5.7.8,4.1,2.4,5.7,3.5,2.4,5.7,2.4Z"/>
      <path id="m0251bc5e48-182" class="cls-4" d="M229,274.1c2.2,0,4.1-.8,5.7-2.4s2.4-3.5,2.4-5.7-.8-4.1-2.4-5.7-3.5-2.4-5.7-2.4-4.1.8-5.7,2.4-2.4,3.5-2.4,5.7.8,4.1,2.4,5.7,3.5,2.4,5.7,2.4Z"/>
      <path id="m0251bc5e48-183" class="cls-4" d="M230.8,277.2c2.2,0,4.1-.8,5.7-2.4s2.4-3.5,2.4-5.7-.8-4.1-2.4-5.7-3.5-2.4-5.7-2.4-4.1.8-5.7,2.4-2.4,3.5-2.4,5.7.8,4.1,2.4,5.7,3.5,2.4,5.7,2.4Z"/>
      <path id="m0251bc5e48-184" class="cls-4" d="M233.6,278.4c2.2,0,4.1-.8,5.7-2.4s2.4-3.5,2.4-5.7-.8-4.1-2.4-5.7-3.5-2.4-5.7-2.4-4.1.8-5.7,2.4-2.4,3.5-2.4,5.7.8,4.1,2.4,5.7,3.5,2.4,5.7,2.4Z"/>
      <path id="m0251bc5e48-185" class="cls-4" d="M230.5,277.1c2.2,0,4.1-.8,5.7-2.4s2.4-3.5,2.4-5.7-.8-4.1-2.4-5.7-3.5-2.4-5.7-2.4-4.1.8-5.7,2.4-2.4,3.5-2.4,5.7.8,4.1,2.4,5.7,3.5,2.4,5.7,2.4Z"/>
      <path id="m0251bc5e48-186" class="cls-4" d="M194.9,214.7c2.2,0,4.1-.8,5.7-2.4s2.4-3.5,2.4-5.7-.8-4.1-2.4-5.7c-1.5-1.5-3.5-2.4-5.7-2.4s-4.1.8-5.7,2.4c-1.5,1.5-2.4,3.5-2.4,5.7s.8,4.1,2.4,5.7,3.5,2.4,5.7,2.4Z"/>
      <path id="m0251bc5e48-187" class="cls-4" d="M227.1,284.5c2.2,0,4.1-.8,5.7-2.4s2.4-3.5,2.4-5.7-.8-4.1-2.4-5.7-3.5-2.4-5.7-2.4-4.1.8-5.7,2.4-2.4,3.5-2.4,5.7.8,4.1,2.4,5.7,3.5,2.4,5.7,2.4Z"/>
      <path id="m0251bc5e48-188" class="cls-4" d="M229.4,273.4c2.2,0,4.1-.8,5.7-2.4s2.4-3.5,2.4-5.7-.8-4.1-2.4-5.7-3.5-2.4-5.7-2.4-4.1.8-5.7,2.4-2.4,3.5-2.4,5.7.8,4.1,2.4,5.7,3.5,2.4,5.7,2.4Z"/>
      <path id="m0251bc5e48-189" class="cls-4" d="M231,279.6c2.2,0,4.1-.8,5.7-2.4s2.4-3.5,2.4-5.7-.8-4.1-2.4-5.7-3.5-2.4-5.7-2.4-4.1.8-5.7,2.4-2.4,3.5-2.4,5.7.8,4.1,2.4,5.7,3.5,2.4,5.7,2.4Z"/>
      <path id="m0251bc5e48-190" class="cls-4" d="M217.9,253.9c2.2,0,4.1-.8,5.7-2.4s2.4-3.5,2.4-5.7-.8-4.1-2.4-5.7-3.5-2.4-5.7-2.4-4.1.8-5.7,2.4-2.4,3.5-2.4,5.7.8,4.1,2.4,5.7,3.5,2.4,5.7,2.4Z"/>
      <path id="m0251bc5e48-191" class="cls-4" d="M229.9,277.4c2.2,0,4.1-.8,5.7-2.4s2.4-3.5,2.4-5.7-.8-4.1-2.4-5.7-3.5-2.4-5.7-2.4-4.1.8-5.7,2.4-2.4,3.5-2.4,5.7.8,4.1,2.4,5.7,3.5,2.4,5.7,2.4Z"/>
      <path id="m0251bc5e48-192" class="cls-4" d="M225.4,278.3c2.2,0,4.1-.8,5.7-2.4s2.4-3.5,2.4-5.7-.8-4.1-2.4-5.7-3.5-2.4-5.7-2.4-4.1.8-5.7,2.4-2.4,3.5-2.4,5.7.8,4.1,2.4,5.7,3.5,2.4,5.7,2.4Z"/>
      <path id="m0251bc5e48-193" class="cls-4" d="M232.4,320.1c2.2,0,4.1-.8,5.7-2.4s2.4-3.5,2.4-5.7-.8-4.1-2.4-5.7-3.5-2.4-5.7-2.4-4.1.8-5.7,2.4-2.4,3.5-2.4,5.7.8,4.1,2.4,5.7,3.5,2.4,5.7,2.4Z"/>
      <path id="m0251bc5e48-194" class="cls-4" d="M234.7,316.7c2.2,0,4.1-.8,5.7-2.4s2.4-3.5,2.4-5.7-.8-4.1-2.4-5.7-3.5-2.4-5.7-2.4-4.1.8-5.7,2.4-2.4,3.5-2.4,5.7.8,4.1,2.4,5.7,3.5,2.4,5.7,2.4Z"/>
      <path id="m0251bc5e48-195" class="cls-4" d="M224.4,153.3c2.2,0,4.1-.8,5.7-2.4s2.4-3.5,2.4-5.7-.8-4.1-2.4-5.7-3.5-2.4-5.7-2.4-4.1.8-5.7,2.4-2.4,3.5-2.4,5.7.8,4.1,2.4,5.7,3.5,2.4,5.7,2.4Z"/>
      <path id="m0251bc5e48-196" class="cls-4" d="M237.5,275.9c2.2,0,4.1-.8,5.7-2.4s2.4-3.5,2.4-5.7-.8-4.1-2.4-5.7-3.5-2.4-5.7-2.4-4.1.8-5.7,2.4-2.4,3.5-2.4,5.7.8,4.1,2.4,5.7,3.5,2.4,5.7,2.4Z"/>
      <path id="m0251bc5e48-197" class="cls-4" d="M227.9,272.3c2.2,0,4.1-.8,5.7-2.4s2.4-3.5,2.4-5.7-.8-4.1-2.4-5.7-3.5-2.4-5.7-2.4-4.1.8-5.7,2.4-2.4,3.5-2.4,5.7.8,4.1,2.4,5.7,3.5,2.4,5.7,2.4Z"/>
      <path id="m0251bc5e48-198" class="cls-4" d="M229.9,272.3c2.2,0,4.1-.8,5.7-2.4s2.4-3.5,2.4-5.7-.8-4.1-2.4-5.7-3.5-2.4-5.7-2.4-4.1.8-5.7,2.4-2.4,3.5-2.4,5.7.8,4.1,2.4,5.7,3.5,2.4,5.7,2.4Z"/>
      <path id="m0251bc5e48-199" class="cls-4" d="M227.2,275.9c2.2,0,4.1-.8,5.7-2.4s2.4-3.5,2.4-5.7-.8-4.1-2.4-5.7-3.5-2.4-5.7-2.4-4.1.8-5.7,2.4-2.4,3.5-2.4,5.7.8,4.1,2.4,5.7,3.5,2.4,5.7,2.4Z"/>
      <path id="m0251bc5e48-200" class="cls-4" d="M227.2,275.2c2.2,0,4.1-.8,5.7-2.4s2.4-3.5,2.4-5.7-.8-4.1-2.4-5.7-3.5-2.4-5.7-2.4-4.1.8-5.7,2.4-2.4,3.5-2.4,5.7.8,4.1,2.4,5.7,3.5,2.4,5.7,2.4Z"/>
      <path id="m0251bc5e48-201" class="cls-4" d="M230.8,277.1c2.2,0,4.1-.8,5.7-2.4s2.4-3.5,2.4-5.7-.8-4.1-2.4-5.7-3.5-2.4-5.7-2.4-4.1.8-5.7,2.4-2.4,3.5-2.4,5.7.8,4.1,2.4,5.7,3.5,2.4,5.7,2.4Z"/>
      <path id="m0251bc5e48-202" class="cls-4" d="M227.5,266.2c2.2,0,4.1-.8,5.7-2.4s2.4-3.5,2.4-5.7-.8-4.1-2.4-5.7-3.5-2.4-5.7-2.4-4.1.8-5.7,2.4-2.4,3.5-2.4,5.7.8,4.1,2.4,5.7,3.5,2.4,5.7,2.4Z"/>
      <path id="m0251bc5e48-203" class="cls-4" d="M224.6,278.9c2.2,0,4.1-.8,5.7-2.4s2.4-3.5,2.4-5.7-.8-4.1-2.4-5.7-3.5-2.4-5.7-2.4-4.1.8-5.7,2.4-2.4,3.5-2.4,5.7.8,4.1,2.4,5.7,3.5,2.4,5.7,2.4Z"/>
      <path id="m0251bc5e48-204" class="cls-4" d="M228.5,281.2c2.2,0,4.1-.8,5.7-2.4s2.4-3.5,2.4-5.7-.8-4.1-2.4-5.7-3.5-2.4-5.7-2.4-4.1.8-5.7,2.4-2.4,3.5-2.4,5.7.8,4.1,2.4,5.7,3.5,2.4,5.7,2.4Z"/>
      <path id="m0251bc5e48-205" class="cls-4" d="M231.1,277.7c2.2,0,4.1-.8,5.7-2.4s2.4-3.5,2.4-5.7-.8-4.1-2.4-5.7-3.5-2.4-5.7-2.4-4.1.8-5.7,2.4-2.4,3.5-2.4,5.7.8,4.1,2.4,5.7,3.5,2.4,5.7,2.4Z"/>
      <path id="m0251bc5e48-207" class="cls-4" d="M203.7,315.1c2.2,0,4.1-.8,5.7-2.4s2.4-3.5,2.4-5.7-.8-4.1-2.4-5.7-3.5-2.4-5.7-2.4-4.1.8-5.7,2.4-2.4,3.5-2.4,5.7.8,4.1,2.4,5.7,3.5,2.4,5.7,2.4Z"/>
      <path id="m0251bc5e48-208" class="cls-4" d="M225.7,277.7c2.2,0,4.1-.8,5.7-2.4s2.4-3.5,2.4-5.7-.8-4.1-2.4-5.7-3.5-2.4-5.7-2.4-4.1.8-5.7,2.4-2.4,3.5-2.4,5.7.8,4.1,2.4,5.7,3.5,2.4,5.7,2.4Z"/>
      <path id="m0251bc5e48-209" class="cls-4" d="M221,286.8c2.2,0,4.1-.8,5.7-2.4s2.4-3.5,2.4-5.7-.8-4.1-2.4-5.7-3.5-2.4-5.7-2.4-4.1.8-5.7,2.4-2.4,3.5-2.4,5.7.8,4.1,2.4,5.7,3.5,2.4,5.7,2.4Z"/>
      <path id="m0251bc5e48-210" class="cls-4" d="M230.4,276.2c2.2,0,4.1-.8,5.7-2.4s2.4-3.5,2.4-5.7-.8-4.1-2.4-5.7-3.5-2.4-5.7-2.4-4.1.8-5.7,2.4-2.4,3.5-2.4,5.7.8,4.1,2.4,5.7,3.5,2.4,5.7,2.4Z"/>
      <path id="m0251bc5e48-211" class="cls-4" d="M227.2,275.2c2.2,0,4.1-.8,5.7-2.4s2.4-3.5,2.4-5.7-.8-4.1-2.4-5.7-3.5-2.4-5.7-2.4-4.1.8-5.7,2.4-2.4,3.5-2.4,5.7.8,4.1,2.4,5.7,3.5,2.4,5.7,2.4Z"/>
      <path id="m0251bc5e48-212" class="cls-4" d="M225.3,282.4c2.2,0,4.1-.8,5.7-2.4s2.4-3.5,2.4-5.7-.8-4.1-2.4-5.7-3.5-2.4-5.7-2.4-4.1.8-5.7,2.4-2.4,3.5-2.4,5.7.8,4.1,2.4,5.7,3.5,2.4,5.7,2.4Z"/>
      <path id="m0251bc5e48-213" class="cls-4" d="M230,279.6c2.2,0,4.1-.8,5.7-2.4s2.4-3.5,2.4-5.7-.8-4.1-2.4-5.7-3.5-2.4-5.7-2.4-4.1.8-5.7,2.4-2.4,3.5-2.4,5.7.8,4.1,2.4,5.7,3.5,2.4,5.7,2.4Z"/>
      <path id="m0251bc5e48-214" class="cls-4" d="M218.3,306.1c2.2,0,4.1-.8,5.7-2.4s2.4-3.5,2.4-5.7-.8-4.1-2.4-5.7-3.5-2.4-5.7-2.4-4.1.8-5.7,2.4-2.4,3.5-2.4,5.7.8,4.1,2.4,5.7,3.5,2.4,5.7,2.4Z"/>
      <path id="m0251bc5e48-215" class="cls-4" d="M231.1,278.8c2.2,0,4.1-.8,5.7-2.4s2.4-3.5,2.4-5.7-.8-4.1-2.4-5.7-3.5-2.4-5.7-2.4-4.1.8-5.7,2.4-2.4,3.5-2.4,5.7.8,4.1,2.4,5.7,3.5,2.4,5.7,2.4Z"/>
      <path id="m0251bc5e48-216" class="cls-4" d="M229.4,277.4c2.2,0,4.1-.8,5.7-2.4s2.4-3.5,2.4-5.7-.8-4.1-2.4-5.7-3.5-2.4-5.7-2.4-4.1.8-5.7,2.4-2.4,3.5-2.4,5.7.8,4.1,2.4,5.7,3.5,2.4,5.7,2.4Z"/>
      <path id="m0251bc5e48-217" class="cls-4" d="M227.6,277.3c2.2,0,4.1-.8,5.7-2.4s2.4-3.5,2.4-5.7-.8-4.1-2.4-5.7-3.5-2.4-5.7-2.4-4.1.8-5.7,2.4-2.4,3.5-2.4,5.7.8,4.1,2.4,5.7,3.5,2.4,5.7,2.4Z"/>
      <path id="m0251bc5e48-218" class="cls-4" d="M227.7,275.6c2.2,0,4.1-.8,5.7-2.4s2.4-3.5,2.4-5.7-.8-4.1-2.4-5.7-3.5-2.4-5.7-2.4-4.1.8-5.7,2.4-2.4,3.5-2.4,5.7.8,4.1,2.4,5.7,3.5,2.4,5.7,2.4Z"/>
      <path id="m0251bc5e48-219" class="cls-4" d="M229.5,279.5c2.2,0,4.1-.8,5.7-2.4s2.4-3.5,2.4-5.7-.8-4.1-2.4-5.7-3.5-2.4-5.7-2.4-4.1.8-5.7,2.4-2.4,3.5-2.4,5.7.8,4.1,2.4,5.7,3.5,2.4,5.7,2.4Z"/>
      <path id="m0251bc5e48-220" class="cls-4" d="M227.6,277.4c2.2,0,4.1-.8,5.7-2.4s2.4-3.5,2.4-5.7-.8-4.1-2.4-5.7-3.5-2.4-5.7-2.4-4.1.8-5.7,2.4-2.4,3.5-2.4,5.7.8,4.1,2.4,5.7,3.5,2.4,5.7,2.4Z"/>
      <path id="m0251bc5e48-221" class="cls-4" d="M232.1,279.8c2.2,0,4.1-.8,5.7-2.4s2.4-3.5,2.4-5.7-.8-4.1-2.4-5.7-3.5-2.4-5.7-2.4-4.1.8-5.7,2.4-2.4,3.5-2.4,5.7.8,4.1,2.4,5.7,3.5,2.4,5.7,2.4Z"/>
      <path id="m0251bc5e48-222" class="cls-4" d="M297.4,262.5c2.2,0,4.1-.8,5.7-2.4s2.4-3.5,2.4-5.7-.8-4.1-2.4-5.7-3.5-2.4-5.7-2.4-4.1.8-5.7,2.4-2.4,3.5-2.4,5.7.8,4.1,2.4,5.7,3.5,2.4,5.7,2.4Z"/>
      <path id="m0251bc5e48-223" class="cls-4" d="M221.4,282.2c2.2,0,4.1-.8,5.7-2.4s2.4-3.5,2.4-5.7-.8-4.1-2.4-5.7-3.5-2.4-5.7-2.4-4.1.8-5.7,2.4-2.4,3.5-2.4,5.7.8,4.1,2.4,5.7,3.5,2.4,5.7,2.4Z"/>
      <path id="m0251bc5e48-224" class="cls-4" d="M227.6,275.8c2.2,0,4.1-.8,5.7-2.4s2.4-3.5,2.4-5.7-.8-4.1-2.4-5.7-3.5-2.4-5.7-2.4-4.1.8-5.7,2.4-2.4,3.5-2.4,5.7.8,4.1,2.4,5.7,3.5,2.4,5.7,2.4Z"/>
      <path id="m0251bc5e48-225" class="cls-4" d="M233.3,277.3c2.2,0,4.1-.8,5.7-2.4s2.4-3.5,2.4-5.7-.8-4.1-2.4-5.7-3.5-2.4-5.7-2.4-4.1.8-5.7,2.4-2.4,3.5-2.4,5.7.8,4.1,2.4,5.7,3.5,2.4,5.7,2.4Z"/>
      <path id="m0251bc5e48-226" class="cls-4" d="M231.9,277.1c2.2,0,4.1-.8,5.7-2.4s2.4-3.5,2.4-5.7-.8-4.1-2.4-5.7-3.5-2.4-5.7-2.4-4.1.8-5.7,2.4-2.4,3.5-2.4,5.7.8,4.1,2.4,5.7,3.5,2.4,5.7,2.4Z"/>
      <path id="m0251bc5e48-227" class="cls-4" d="M234.3,271.6c2.2,0,4.1-.8,5.7-2.4s2.4-3.5,2.4-5.7-.8-4.1-2.4-5.7-3.5-2.4-5.7-2.4-4.1.8-5.7,2.4-2.4,3.5-2.4,5.7.8,4.1,2.4,5.7,3.5,2.4,5.7,2.4Z"/>
      <path id="m0251bc5e48-228" class="cls-4" d="M229.1,287.2c2.2,0,4.1-.8,5.7-2.4s2.4-3.5,2.4-5.7-.8-4.1-2.4-5.7-3.5-2.4-5.7-2.4-4.1.8-5.7,2.4-2.4,3.5-2.4,5.7.8,4.1,2.4,5.7,3.5,2.4,5.7,2.4Z"/>
      <path id="m0251bc5e48-229" class="cls-4" d="M227,275.3c2.2,0,4.1-.8,5.7-2.4s2.4-3.5,2.4-5.7-.8-4.1-2.4-5.7-3.5-2.4-5.7-2.4-4.1.8-5.7,2.4-2.4,3.5-2.4,5.7.8,4.1,2.4,5.7,3.5,2.4,5.7,2.4Z"/>
      <path id="m0251bc5e48-231" class="cls-4" d="M194.7,395.3c2.2,0,4.1-.8,5.7-2.4s2.4-3.5,2.4-5.7-.8-4.1-2.4-5.7-3.5-2.4-5.7-2.4-4.1.8-5.7,2.4-2.4,3.5-2.4,5.7.8,4.1,2.4,5.7,3.5,2.4,5.7,2.4Z"/>
      <path id="m0251bc5e48-232" class="cls-4" d="M230.8,277.5c2.2,0,4.1-.8,5.7-2.4s2.4-3.5,2.4-5.7-.8-4.1-2.4-5.7-3.5-2.4-5.7-2.4-4.1.8-5.7,2.4-2.4,3.5-2.4,5.7.8,4.1,2.4,5.7,3.5,2.4,5.7,2.4Z"/>
      <path id="m0251bc5e48-233" class="cls-4" d="M227.2,275.9c2.2,0,4.1-.8,5.7-2.4s2.4-3.5,2.4-5.7-.8-4.1-2.4-5.7-3.5-2.4-5.7-2.4-4.1.8-5.7,2.4-2.4,3.5-2.4,5.7.8,4.1,2.4,5.7,3.5,2.4,5.7,2.4Z"/>
      <path id="m0251bc5e48-234" class="cls-4" d="M231.4,276.7c2.2,0,4.1-.8,5.7-2.4s2.4-3.5,2.4-5.7-.8-4.1-2.4-5.7-3.5-2.4-5.7-2.4-4.1.8-5.7,2.4-2.4,3.5-2.4,5.7.8,4.1,2.4,5.7,3.5,2.4,5.7,2.4Z"/>
      <path id="m0251bc5e48-235" class="cls-4" d="M230.7,274.4c2.2,0,4.1-.8,5.7-2.4s2.4-3.5,2.4-5.7-.8-4.1-2.4-5.7-3.5-2.4-5.7-2.4-4.1.8-5.7,2.4-2.4,3.5-2.4,5.7.8,4.1,2.4,5.7,3.5,2.4,5.7,2.4Z"/>
      <path id="m0251bc5e48-236" class="cls-4" d="M222,286.2c2.2,0,4.1-.8,5.7-2.4s2.4-3.5,2.4-5.7-.8-4.1-2.4-5.7-3.5-2.4-5.7-2.4-4.1.8-5.7,2.4-2.4,3.5-2.4,5.7.8,4.1,2.4,5.7,3.5,2.4,5.7,2.4Z"/>
      <path id="m0251bc5e48-237" class="cls-4" d="M237.6,284.7c2.2,0,4.1-.8,5.7-2.4s2.4-3.5,2.4-5.7-.8-4.1-2.4-5.7-3.5-2.4-5.7-2.4-4.1.8-5.7,2.4-2.4,3.5-2.4,5.7.8,4.1,2.4,5.7,3.5,2.4,5.7,2.4Z"/>
      <path id="m0251bc5e48-238" class="cls-4" d="M227,275.5c2.2,0,4.1-.8,5.7-2.4s2.4-3.5,2.4-5.7-.8-4.1-2.4-5.7-3.5-2.4-5.7-2.4-4.1.8-5.7,2.4-2.4,3.5-2.4,5.7.8,4.1,2.4,5.7,3.5,2.4,5.7,2.4Z"/>
      <path id="m0251bc5e48-239" class="cls-4" d="M234.7,277.6c2.2,0,4.1-.8,5.7-2.4s2.4-3.5,2.4-5.7-.8-4.1-2.4-5.7-3.5-2.4-5.7-2.4-4.1.8-5.7,2.4-2.4,3.5-2.4,5.7.8,4.1,2.4,5.7,3.5,2.4,5.7,2.4Z"/>
      <path id="m0251bc5e48-240" class="cls-4" d="M232.6,278.9c2.2,0,4.1-.8,5.7-2.4s2.4-3.5,2.4-5.7-.8-4.1-2.4-5.7-3.5-2.4-5.7-2.4-4.1.8-5.7,2.4-2.4,3.5-2.4,5.7.8,4.1,2.4,5.7,3.5,2.4,5.7,2.4Z"/>
      <path id="m0251bc5e48-241" class="cls-4" d="M237.1,267.2c2.2,0,4.1-.8,5.7-2.4s2.4-3.5,2.4-5.7-.8-4.1-2.4-5.7-3.5-2.4-5.7-2.4-4.1.8-5.7,2.4-2.4,3.5-2.4,5.7.8,4.1,2.4,5.7,3.5,2.4,5.7,2.4Z"/>
      <path id="m0251bc5e48-242" class="cls-4" d="M229.7,278.4c2.2,0,4.1-.8,5.7-2.4s2.4-3.5,2.4-5.7-.8-4.1-2.4-5.7-3.5-2.4-5.7-2.4-4.1.8-5.7,2.4-2.4,3.5-2.4,5.7.8,4.1,2.4,5.7,3.5,2.4,5.7,2.4Z"/>
      <path id="m0251bc5e48-243" class="cls-4" d="M234,277.6c2.2,0,4.1-.8,5.7-2.4s2.4-3.5,2.4-5.7-.8-4.1-2.4-5.7-3.5-2.4-5.7-2.4-4.1.8-5.7,2.4-2.4,3.5-2.4,5.7.8,4.1,2.4,5.7,3.5,2.4,5.7,2.4Z"/>
      <path id="m0251bc5e48-244" class="cls-4" d="M227.3,275.9c2.2,0,4.1-.8,5.7-2.4s2.4-3.5,2.4-5.7-.8-4.1-2.4-5.7-3.5-2.4-5.7-2.4-4.1.8-5.7,2.4-2.4,3.5-2.4,5.7.8,4.1,2.4,5.7,3.5,2.4,5.7,2.4Z"/>
      <path id="m0251bc5e48-245" class="cls-4" d="M240.7,280.3c2.2,0,4.1-.8,5.7-2.4s2.4-3.5,2.4-5.7-.8-4.1-2.4-5.7-3.5-2.4-5.7-2.4-4.1.8-5.7,2.4-2.4,3.5-2.4,5.7.8,4.1,2.4,5.7,3.5,2.4,5.7,2.4Z"/>
      <path id="m0251bc5e48-246" class="cls-4" d="M234.2,318.2c2.2,0,4.1-.8,5.7-2.4s2.4-3.5,2.4-5.7-.8-4.1-2.4-5.7-3.5-2.4-5.7-2.4-4.1.8-5.7,2.4-2.4,3.5-2.4,5.7.8,4.1,2.4,5.7,3.5,2.4,5.7,2.4Z"/>
      <path id="m0251bc5e48-247" class="cls-4" d="M234.8,271.7c2.2,0,4.1-.8,5.7-2.4s2.4-3.5,2.4-5.7-.8-4.1-2.4-5.7-3.5-2.4-5.7-2.4-4.1.8-5.7,2.4-2.4,3.5-2.4,5.7.8,4.1,2.4,5.7,3.5,2.4,5.7,2.4Z"/>
      <path id="m0251bc5e48-248" class="cls-4" d="M227.2,275.2c2.2,0,4.1-.8,5.7-2.4s2.4-3.5,2.4-5.7-.8-4.1-2.4-5.7-3.5-2.4-5.7-2.4-4.1.8-5.7,2.4-2.4,3.5-2.4,5.7.8,4.1,2.4,5.7,3.5,2.4,5.7,2.4Z"/>
      <path id="m0251bc5e48-249" class="cls-4" d="M233.5,274.8c2.2,0,4.1-.8,5.7-2.4s2.4-3.5,2.4-5.7-.8-4.1-2.4-5.7-3.5-2.4-5.7-2.4-4.1.8-5.7,2.4-2.4,3.5-2.4,5.7.8,4.1,2.4,5.7,3.5,2.4,5.7,2.4Z"/>
      <path id="m0251bc5e48-250" class="cls-4" d="M226.4,273.6c2.2,0,4.1-.8,5.7-2.4s2.4-3.5,2.4-5.7-.8-4.1-2.4-5.7-3.5-2.4-5.7-2.4-4.1.8-5.7,2.4-2.4,3.5-2.4,5.7.8,4.1,2.4,5.7,3.5,2.4,5.7,2.4Z"/>
      <path id="m0251bc5e48-251" class="cls-4" d="M238,255.9c2.2,0,4.1-.8,5.7-2.4s2.4-3.5,2.4-5.7-.8-4.1-2.4-5.7-3.5-2.4-5.7-2.4-4.1.8-5.7,2.4-2.4,3.5-2.4,5.7.8,4.1,2.4,5.7,3.5,2.4,5.7,2.4Z"/>
      <path id="m0251bc5e48-252" class="cls-4" d="M231.1,277.1c2.2,0,4.1-.8,5.7-2.4s2.4-3.5,2.4-5.7-.8-4.1-2.4-5.7-3.5-2.4-5.7-2.4-4.1.8-5.7,2.4-2.4,3.5-2.4,5.7.8,4.1,2.4,5.7,3.5,2.4,5.7,2.4Z"/>
      <path id="m0251bc5e48-253" class="cls-4" d="M225.5,276.2c2.2,0,4.1-.8,5.7-2.4s2.4-3.5,2.4-5.7-.8-4.1-2.4-5.7-3.5-2.4-5.7-2.4-4.1.8-5.7,2.4-2.4,3.5-2.4,5.7.8,4.1,2.4,5.7,3.5,2.4,5.7,2.4Z"/>
      <path id="m0251bc5e48-254" class="cls-4" d="M218,247.2c2.2,0,4.1-.8,5.7-2.4s2.4-3.5,2.4-5.7-.8-4.1-2.4-5.7-3.5-2.4-5.7-2.4-4.1.8-5.7,2.4-2.4,3.5-2.4,5.7.8,4.1,2.4,5.7,3.5,2.4,5.7,2.4Z"/>
      <path id="m4d1cf1e7ec" class="cls-9" d="M230,271.8c1.9,0,3.6-.7,5.1-2.1s2.1-3.1,2.1-5.1-.7-3.6-2.1-5.1-3.1-2.1-5.1-2.1-3.6.7-5.1,2.1-2.1,3.1-2.1,5.1.7,3.6,2.1,5.1,3.1,2.1,5.1,2.1Z"/>
      <path id="m4d1cf1e7ec-3" class="cls-9" d="M299.6,247c1.9,0,3.6-.7,5.1-2.1s2.1-3.1,2.1-5.1-.7-3.6-2.1-5.1-3.1-2.1-5.1-2.1-3.6.7-5.1,2.1-2.1,3.1-2.1,5.1.7,3.6,2.1,5.1,3.1,2.1,5.1,2.1Z"/>
      <path id="m4d1cf1e7ec-4" class="cls-9" d="M231.8,265.4c1.9,0,3.6-.7,5.1-2.1s2.1-3.1,2.1-5.1-.7-3.6-2.1-5.1-3.1-2.1-5.1-2.1-3.6.7-5.1,2.1-2.1,3.1-2.1,5.1.7,3.6,2.1,5.1,3.1,2.1,5.1,2.1Z"/>
      <path id="m4d1cf1e7ec-5" class="cls-9" d="M231.8,283.1c1.9,0,3.6-.7,5.1-2.1s2.1-3.1,2.1-5.1-.7-3.6-2.1-5.1-3.1-2.1-5.1-2.1-3.6.7-5.1,2.1-2.1,3.1-2.1,5.1.7,3.6,2.1,5.1,3.1,2.1,5.1,2.1Z"/>
      <path id="m4d1cf1e7ec-6" class="cls-9" d="M236,277.8c1.9,0,3.6-.7,5.1-2.1s2.1-3.1,2.1-5.1-.7-3.6-2.1-5.1-3.1-2.1-5.1-2.1-3.6.7-5.1,2.1-2.1,3.1-2.1,5.1.7,3.6,2.1,5.1,3.1,2.1,5.1,2.1Z"/>
      <path id="m4d1cf1e7ec-7" class="cls-9" d="M225.9,286.4c1.9,0,3.6-.7,5.1-2.1s2.1-3.1,2.1-5.1-.7-3.6-2.1-5.1-3.1-2.1-5.1-2.1-3.6.7-5.1,2.1-2.1,3.1-2.1,5.1.7,3.6,2.1,5.1,3.1,2.1,5.1,2.1Z"/>
      <path id="m4d1cf1e7ec-8" class="cls-9" d="M244,293c1.9,0,3.6-.7,5.1-2.1s2.1-3.1,2.1-5.1-.7-3.6-2.1-5.1-3.1-2.1-5.1-2.1-3.6.7-5.1,2.1-2.1,3.1-2.1,5.1.7,3.6,2.1,5.1,3.1,2.1,5.1,2.1Z"/>
      <path id="m4d1cf1e7ec-9" class="cls-9" d="M230.8,276.4c1.9,0,3.6-.7,5.1-2.1s2.1-3.1,2.1-5.1-.7-3.6-2.1-5.1-3.1-2.1-5.1-2.1-3.6.7-5.1,2.1-2.1,3.1-2.1,5.1.7,3.6,2.1,5.1,3.1,2.1,5.1,2.1Z"/>
      <path id="m4d1cf1e7ec-10" class="cls-9" d="M226,276.7c1.9,0,3.6-.7,5.1-2.1s2.1-3.1,2.1-5.1-.7-3.6-2.1-5.1-3.1-2.1-5.1-2.1-3.6.7-5.1,2.1-2.1,3.1-2.1,5.1.7,3.6,2.1,5.1,3.1,2.1,5.1,2.1Z"/>
      <path id="m8fd626b24d-15" class="cls-7" d="M223.6,275.4c1.9,0,3.6-.7,5.1-2.1s2.1-3.1,2.1-5.1-.7-3.6-2.1-5.1-3.1-2.1-5.1-2.1-3.6.7-5.1,2.1-2.1,3.1-2.1,5.1.7,3.6,2.1,5.1,3.1,2.1,5.1,2.1Z"/>
      <path id="m8fd626b24d-16" class="cls-7" d="M226.8,274.5c1.9,0,3.6-.7,5.1-2.1s2.1-3.1,2.1-5.1-.7-3.6-2.1-5.1-3.1-2.1-5.1-2.1-3.6.7-5.1,2.1-2.1,3.1-2.1,5.1.7,3.6,2.1,5.1,3.1,2.1,5.1,2.1Z"/>
      <path id="m8fd626b24d-17" class="cls-7" d="M227.2,274.2c1.9,0,3.6-.7,5.1-2.1s2.1-3.1,2.1-5.1-.7-3.6-2.1-5.1-3.1-2.1-5.1-2.1-3.6.7-5.1,2.1-2.1,3.1-2.1,5.1.7,3.6,2.1,5.1,3.1,2.1,5.1,2.1Z"/>
      <path id="m8fd626b24d-18" class="cls-7" d="M227.2,274.2c1.9,0,3.6-.7,5.1-2.1s2.1-3.1,2.1-5.1-.7-3.6-2.1-5.1-3.1-2.1-5.1-2.1-3.6.7-5.1,2.1-2.1,3.1-2.1,5.1.7,3.6,2.1,5.1,3.1,2.1,5.1,2.1Z"/>
      <path id="m8fd626b24d-19" class="cls-7" d="M232.2,272.4c1.9,0,3.6-.7,5.1-2.1s2.1-3.1,2.1-5.1-.7-3.6-2.1-5.1-3.1-2.1-5.1-2.1-3.6.7-5.1,2.1-2.1,3.1-2.1,5.1.7,3.6,2.1,5.1,3.1,2.1,5.1,2.1Z"/>
      <path id="m8fd626b24d-20" class="cls-7" d="M227.2,274.3c1.9,0,3.6-.7,5.1-2.1s2.1-3.1,2.1-5.1-.7-3.6-2.1-5.1-3.1-2.1-5.1-2.1-3.6.7-5.1,2.1-2.1,3.1-2.1,5.1.7,3.6,2.1,5.1,3.1,2.1,5.1,2.1Z"/>
      <path id="DejaVuSans-50" class="cls-12" d="M610.8,598.9v2.6h1.2c.5,0,.8,0,1-.3.2-.2.4-.5.4-.9s-.2-.7-.4-.9-.5-.3-1-.3h-1.2ZM609.9,598.2h2.1c.8,0,1.3.2,1.7.5.4.3.6.9.6,1.5s-.2,1.2-.6,1.6c-.4.3-.9.5-1.7.5h-1.2v2.7h-.9v-6.8h0Z"/>
      <path id="DejaVuSans-72" class="cls-12" d="M618.3,600.7c0,0-.2,0-.3-.2h-.4c-.5,0-.9.2-1.1.5s-.4.8-.4,1.3v2.7h-.9v-5.1h.9v.8c.2-.3.4-.5.7-.7s.6-.2,1-.2.2,0,.2,0h.2v.9h0Z"/>
      <path id="DejaVuSans-69" class="cls-12" d="M619.1,599.9h.9v5.1h-.9v-5.1ZM619.1,597.9h.9v1.1h-.9v-1.1Z"/>
      <path id="DejaVuSans-6d" class="cls-12" d="M625.7,600.8c.2-.4.5-.6.8-.9s.6-.2,1-.2.9.2,1.2.5c.3.4.5.9.5,1.6v3.1h-.9v-3c0-.5,0-.9-.2-1.1-.2-.2-.5-.4-.8-.4s-.8.2-1,.5c-.2.3-.4.7-.4,1.2v2.9h-.9v-3c0-.5,0-.9-.2-1.1s-.5-.4-.8-.4-.8.2-1,.5c-.2.3-.4.7-.4,1.2v2.9h-.9v-5.1h.9v.8c.2-.3.4-.5.7-.7s.6-.2.9-.2.7,0,.9.3c.2.2.5.5.5.9h0Z"/>
      <path id="DejaVuSans-61" class="cls-12" d="M633.2,602.4c-.7,0-1.2,0-1.4.2s-.4.4-.4.8,0,.5.3.7c.2.2.5.2.8.2s.9-.2,1.1-.5.4-.8.4-1.3v-.2h-.9,0ZM634.8,602.1v2.9h-.9v-.8c-.2.3-.5.5-.7.7-.3.2-.6.2-1,.2s-.9-.2-1.2-.5-.5-.7-.5-1.2.2-1,.5-1.3.9-.5,1.7-.5h1.2c0-.5-.2-.8-.4-1s-.6-.3-1.1-.3-.5,0-.9,0c-.3,0-.5.2-.8.3v-.8c.3-.2.6-.2.9-.2s.5,0,.9,0c.8,0,1.3.2,1.6.5.4.4.5.9.5,1.7v.2Z"/>
      <path id="DejaVuSans-72-2" class="cls-12" d="M639.6,600.7c0,0-.2,0-.3-.2h-.4c-.5,0-.9.2-1.1.5s-.4.8-.4,1.3v2.7h-.9v-5.1h.9v.8c.2-.3.4-.5.7-.7s.6-.2,1-.2.2,0,.2,0h.2v.9h0Z"/>
      <path id="DejaVuSans-79" class="cls-12" d="M642.5,605.4c-.2.6-.5,1-.7,1.2-.2.2-.5.3-.9.3h-.7v-.7h.5c.2,0,.4,0,.5-.2.2,0,.2-.4.4-.8l.2-.4-2.1-5.1h.9l1.6,4,1.6-4h.9l-2.3,5.6h.2Z"/>
      <path id="DejaVuSans-20" class="cls-12" d="M645.1,605"/>
      <path id="DejaVuSans-54" class="cls-12" d="M648,598.2h5.8v.8h-2.4v6.1h-.9v-6.1h-2.4v-.8h0Z"/>
      <path id="DejaVuSans-68" class="cls-12" d="M658.9,601.9v3.1h-.9v-3c0-.5,0-.9-.3-1.1-.2-.2-.5-.4-.9-.4s-.8.2-1.1.5c-.2.3-.4.7-.4,1.2v2.9h-.9v-7.1h.9v2.8c.2-.3.5-.5.7-.7.2-.2.6-.2.9-.2.6,0,1,.2,1.3.5s.5.9.5,1.6h0Z"/>
      <path id="DejaVuSans-65" class="cls-12" d="M665,602.2v.4h-3.9c0,.5.2,1,.5,1.3s.8.5,1.3.5.6,0,.9-.2.6-.2.9-.4v.8c-.3.2-.6.2-.9.3s-.6,0-.9,0c-.8,0-1.5-.2-1.9-.7-.5-.5-.7-1.1-.7-1.9s.2-1.5.7-2c.5-.5,1.1-.7,1.8-.7s1.2.2,1.6.7c.4.5.6,1,.6,1.8h0ZM664.1,602c0-.5-.2-.9-.4-1.1-.2-.3-.5-.4-1-.4s-.9.2-1.1.4-.5.6-.5,1.1h3Z"/>
      <path id="DejaVuSans-6d-2" class="cls-12" d="M670.3,600.8c.2-.4.5-.6.8-.9s.6-.2,1-.2.9.2,1.2.5c.3.4.5.9.5,1.6v3.1h-.9v-3c0-.5,0-.9-.2-1.1-.2-.2-.5-.4-.8-.4s-.8.2-1,.5c-.2.3-.4.7-.4,1.2v2.9h-.9v-3c0-.5,0-.9-.2-1.1s-.5-.4-.8-.4-.8.2-1,.5c-.2.3-.4.7-.4,1.2v2.9h-.9v-5.1h.9v.8c.2-.3.4-.5.7-.7s.6-.2.9-.2.7,0,.9.3c.2.2.5.5.5.9h0Z"/>
      <path id="DejaVuSans-65-2" class="cls-12" d="M679.8,602.2v.4h-3.9c0,.5.2,1,.5,1.3s.8.5,1.3.5.6,0,.9-.2.6-.2.9-.4v.8c-.3.2-.6.2-.9.3s-.6,0-.9,0c-.8,0-1.5-.2-1.9-.7-.5-.5-.7-1.1-.7-1.9s.2-1.5.7-2c.5-.5,1.1-.7,1.8-.7s1.2.2,1.6.7c.4.5.6,1,.6,1.8h0ZM679,602c0-.5-.2-.9-.4-1.1-.2-.3-.5-.4-1-.4s-.9.2-1.1.4-.5.6-.5,1.1h3Z"/>
      <path id="m8fd626b24d-21" class="cls-7" d="M600.4,619c.9,0,1.8-.4,2.5-1s1-1.6,1-2.5-.4-1.8-1-2.5-1.6-1-2.5-1-1.8.4-2.5,1-1,1.6-1,2.5.4,1.8,1,2.5,1.6,1,2.5,1Z"/>
      <path id="DejaVuSans-63" class="cls-12" d="M620.1,613.2v.7c-.2-.2-.5-.2-.6-.2s-.5,0-.7,0c-.5,0-.9.2-1.2.5-.3.3-.4.8-.4,1.3s.2,1,.4,1.3c.3.3.7.5,1.2.5s.5,0,.7,0,.5-.2.6-.2v.7c-.2,0-.5.2-.7.2h-.7c-.7,0-1.2-.2-1.7-.7-.4-.5-.6-1-.6-1.8s.2-1.4.6-1.8c.4-.5,1-.6,1.7-.6h.7c.2,0,.5.2.6.2h0Z"/>
      <path id="DejaVuSans-6f" class="cls-12" d="M623.2,613.6c-.4,0-.7.2-1,.5s-.4.8-.4,1.3.2,1,.4,1.3.5.5,1,.5.7-.2,1-.5c.2-.3.4-.8.4-1.3s-.2-1-.4-1.3-.5-.5-1-.5ZM623.2,612.9c.7,0,1.2.2,1.6.6.4.5.5,1,.5,1.8s-.2,1.4-.5,1.8c-.4.5-.9.6-1.6.6s-1.2-.2-1.6-.6c-.4-.5-.5-1-.5-1.8s.2-1.4.5-1.8c.4-.5.9-.6,1.6-.6Z"/>
      <path id="DejaVuSans-6d-3" class="cls-12" d="M630.3,613.9c.2-.3.4-.6.7-.8s.5-.2.9-.2.9.2,1.2.5c.2.3.4.9.4,1.5v2.8h-.8v-2.8c0-.5,0-.8-.2-1s-.4-.3-.7-.3-.7.2-.9.4-.3.6-.3,1.1v2.7h-.8v-2.8c0-.5,0-.8-.2-1s-.4-.3-.7-.3-.7.2-.9.4-.3.6-.3,1.1v2.7h-.8v-4.7h.8v.7c.2-.3.4-.5.6-.6s.5-.2.9-.2.6,0,.9.2.4.4.5.8h-.2Z"/>
      <path id="DejaVuSans-6d-4" class="cls-12" d="M638.6,613.9c.2-.3.4-.6.7-.8s.5-.2.9-.2.9.2,1.2.5c.2.3.4.9.4,1.5v2.8h-.8v-2.8c0-.5,0-.8-.2-1s-.4-.3-.7-.3-.7.2-.9.4-.3.6-.3,1.1v2.7h-.8v-2.8c0-.5,0-.8-.2-1s-.4-.3-.7-.3-.7.2-.9.4-.3.6-.3,1.1v2.7h-.8v-4.7h.8v.7c.2-.3.4-.5.6-.6s.5-.2.9-.2.6,0,.9.2.4.4.5.8h-.2Z"/>
      <path id="DejaVuSans-75" class="cls-12" d="M643.2,615.9v-2.8h.8v2.8c0,.5,0,.8.2,1s.5.3.8.3.8-.2,1-.4.4-.6.4-1.1v-2.7h.8v4.7h-.8v-.7c-.2.3-.4.5-.6.6s-.5.2-.9.2c-.5,0-.9-.2-1.2-.5s-.4-.9-.4-1.5h0ZM645.2,612.9h0Z"/>
      <path id="DejaVuSans-6e" class="cls-12" d="M652.7,614.9v2.8h-.8v-2.8c0-.5,0-.8-.2-1s-.5-.3-.8-.3-.8.2-1,.4-.4.6-.4,1.1v2.7h-.8v-4.7h.8v.7c.2-.3.4-.5.6-.6s.5-.2.9-.2c.5,0,.9.2,1.2.5s.4.9.4,1.5h0Z"/>
      <path id="DejaVuSans-69-2" class="cls-12" d="M654.2,613.1h.8v4.7h-.8v-4.7ZM654.2,611.2h.8v1h-.8v-1Z"/>
      <path id="DejaVuSans-74" class="cls-12" d="M657.3,611.7v1.3h1.6v.6h-1.6v2.6c0,.4,0,.6.2.7s.3.2.6.2h.8v.6h-.8c-.6,0-1,0-1.2-.3-.2-.2-.3-.6-.3-1.2v-2.6h-.5v-.6h.5v-1.3h.8Z"/>
      <path id="DejaVuSans-79-2" class="cls-12" d="M661.9,618.1c-.2.5-.5.9-.6,1.1-.2.2-.5.2-.9.2h-.6v-.6h.5c.2,0,.4,0,.5-.2.2,0,.2-.3.4-.7l.2-.4-1.9-4.6h.8l1.5,3.7,1.5-3.7h.8l-2,5.1h0Z"/>
      <path id="DejaVuSans-5f" class="cls-12" d="M668.6,619.1v.6h-4.4v-.6h4.4Z"/>
      <path id="DejaVuSans-65-3" class="cls-12" d="M673.3,615.2v.4h-3.5c0,.5.2.9.5,1.2s.7.4,1.2.4.5,0,.9,0,.5-.2.9-.3v.7c-.3.2-.5.2-.9.2s-.5,0-.9,0c-.8,0-1.3-.2-1.8-.6-.5-.5-.6-1-.6-1.8s.2-1.4.6-1.8c.4-.5.9-.7,1.7-.7s1.1.2,1.5.6.5.9.5,1.6h0ZM672.5,614.9c0-.4-.2-.8-.4-1s-.5-.4-.9-.4-.8.2-1,.4-.4.6-.5,1h2.8Z"/>
      <path id="DejaVuSans-76" class="cls-12" d="M674,613.1h.8l1.5,3.9,1.5-3.9h.8l-1.8,4.7h-1l-1.8-4.7h0Z"/>
      <path id="DejaVuSans-65-4" class="cls-12" d="M683.7,615.2v.4h-3.5c0,.5.2.9.5,1.2s.7.4,1.2.4.5,0,.9,0,.5-.2.9-.3v.7c-.3.2-.5.2-.9.2s-.5,0-.9,0c-.8,0-1.3-.2-1.8-.6-.5-.5-.6-1-.6-1.8s.2-1.4.6-1.8c.4-.5.9-.7,1.7-.7s1.1.2,1.5.6.5.9.5,1.6h0ZM682.9,614.9c0-.4-.2-.8-.4-1s-.5-.4-.9-.4-.8.2-1,.4-.4.6-.5,1h2.8Z"/>
      <path id="DejaVuSans-6e-2" class="cls-12" d="M688.8,614.9v2.8h-.8v-2.8c0-.5,0-.8-.2-1s-.5-.3-.8-.3-.8.2-1,.4-.4.6-.4,1.1v2.7h-.8v-4.7h.8v.7c.2-.3.4-.5.6-.6s.5-.2.9-.2c.5,0,.9.2,1.2.5s.4.9.4,1.5h0Z"/>
      <path id="DejaVuSans-74-2" class="cls-12" d="M691.2,611.7v1.3h1.6v.6h-1.6v2.6c0,.4,0,.6.2.7s.3.2.6.2h.8v.6h-.8c-.6,0-1,0-1.2-.3-.2-.2-.3-.6-.3-1.2v-2.6h-.5v-.6h.5v-1.3h.8Z"/>
      <path id="DejaVuSans-73" class="cls-12" d="M696.7,613.1v.7c-.2,0-.5-.2-.7-.2s-.5,0-.7,0c-.4,0-.7,0-.9.2-.2.2-.3.3-.3.5s0,.3.2.4.4.2.9.3h.2c.5.2.9.3,1.2.5s.3.5.3.9-.2.8-.5,1c-.3.2-.9.4-1.4.4h-.8c-.2,0-.5-.2-.9-.2v-.8c.3.2.5.2.9.3.3,0,.5,0,.9,0s.6,0,.9-.2.3-.3.3-.5,0-.4-.2-.5c-.2,0-.5-.2-.9-.3h-.2c-.5-.2-.9-.3-1-.5-.2-.2-.3-.5-.3-.9s.2-.8.5-1c.3-.2.8-.4,1.3-.4h.8c.2,0,.5,0,.7.2v.2Z"/>
      <path id="m3c81ca1168-25" class="cls-6" d="M600.4,631.9c.9,0,1.8-.4,2.5-1s1-1.6,1-2.5-.4-1.8-1-2.5-1.6-1-2.5-1-1.8.4-2.5,1-1,1.6-1,2.5.4,1.8,1,2.5,1.6,1,2.5,1Z"/>
      <path id="DejaVuSans-64" class="cls-12" d="M619.8,626.5v-2.6h.8v6.5h-.8v-.7c-.2.3-.4.5-.6.6s-.5.2-.9.2c-.5,0-1-.2-1.4-.7-.4-.5-.5-1-.5-1.8s.2-1.3.5-1.8.8-.7,1.4-.7.6,0,.9.2c.2.2.5.3.6.6h0ZM617.1,628.2c0,.5,0,1,.3,1.3.2.3.5.5.9.5s.7-.2.9-.5c.2-.3.4-.8.4-1.3s-.2-1-.4-1.3-.5-.5-.9-.5-.7.2-.9.5-.3.8-.3,1.3Z"/>
      <path id="DejaVuSans-65-5" class="cls-12" d="M626.2,628v.4h-3.5c0,.5.2.9.5,1.2s.7.4,1.2.4.5,0,.9,0,.5-.2.9-.3v.7c-.3.2-.5.2-.9.2s-.5,0-.9,0c-.8,0-1.3-.2-1.8-.6-.5-.5-.6-1-.6-1.8s.2-1.4.6-1.8c.4-.5.9-.7,1.7-.7s1.1.2,1.5.6.5.9.5,1.6h0ZM625.4,627.8c0-.4-.2-.8-.4-1s-.5-.4-.9-.4-.8.2-1,.4-.4.6-.5,1h2.8Z"/>
      <path id="DejaVuSans-73-2" class="cls-12" d="M630.4,626v.7c-.2,0-.5-.2-.7-.2s-.5,0-.7,0c-.4,0-.7,0-.9.2-.2.2-.3.3-.3.5s0,.3.2.4.4.2.9.3h.2c.5.2.9.3,1.2.5s.3.5.3.9-.2.8-.5,1c-.3.2-.9.4-1.4.4h-.8c-.2,0-.5-.2-.9-.2v-.8c.3.2.5.2.9.3.3,0,.5,0,.9,0s.6,0,.9-.2.3-.3.3-.5,0-.4-.2-.5c-.2,0-.5-.2-.9-.3h-.2c-.5-.2-.9-.3-1-.5-.2-.2-.3-.5-.3-.9s.2-.8.5-1c.3-.2.8-.4,1.3-.4h.8c.2,0,.5,0,.7.2v.2Z"/>
      <path id="DejaVuSans-69-3" class="cls-12" d="M631.9,625.8h.8v4.7h-.8v-4.7ZM631.9,624.1h.8v1h-.8v-1Z"/>
      <path id="DejaVuSans-67" class="cls-12" d="M637.3,628.1c0-.5,0-1-.3-1.3-.2-.3-.5-.5-.9-.5s-.7.2-.9.5c-.2.3-.3.7-.3,1.3s0,1,.3,1.3c.2.3.5.5.9.5s.7-.2.9-.5c.2-.3.3-.7.3-1.3ZM638.1,630c0,.8-.2,1.4-.5,1.8s-.9.5-1.6.5h-.8c-.2,0-.5,0-.7-.2v-.8c.2.2.5.2.7.2s.5,0,.7,0c.5,0,.9-.2,1.2-.4.2-.2.4-.6.4-1.2v-.4c-.2.3-.4.5-.6.6s-.5.2-.9.2c-.5,0-1-.2-1.4-.6-.4-.5-.5-1-.5-1.7s.2-1.3.5-1.7c.4-.5.8-.6,1.4-.6s.6,0,.9.2.5.3.6.6v-.7h.8v4.1-.2Z"/>
      <path id="DejaVuSans-6e-3" class="cls-12" d="M643.5,627.7v2.8h-.8v-2.8c0-.5,0-.8-.2-1s-.5-.3-.8-.3-.8.2-1,.4-.4.6-.4,1.1v2.7h-.8v-4.7h.8v.7c.2-.3.4-.5.6-.6s.5-.2.9-.2c.5,0,.9.2,1.2.5s.4.9.4,1.5h0Z"/>
      <path id="DejaVuSans-5f-2" class="cls-12" d="M648.7,632v.6h-4.4v-.6h4.4Z"/>
      <path id="DejaVuSans-6d-5" class="cls-12" d="M653.1,626.8c.2-.3.4-.6.7-.8s.5-.2.9-.2.9.2,1.2.5c.2.3.4.9.4,1.5v2.8h-.8v-2.8c0-.5,0-.8-.2-1s-.4-.3-.7-.3-.7.2-.9.4-.3.6-.3,1.1v2.7h-.8v-2.8c0-.5,0-.8-.2-1s-.4-.3-.7-.3-.7.2-.9.4-.3.6-.3,1.1v2.7h-.8v-4.7h.8v.7c.2-.3.4-.5.6-.6s.5-.2.9-.2.6,0,.9.2.4.4.5.8h-.2Z"/>
      <path id="DejaVuSans-69-4" class="cls-12" d="M657.7,625.8h.8v4.7h-.8v-4.7ZM657.7,624.1h.8v1h-.8v-1Z"/>
      <path id="DejaVuSans-6e-4" class="cls-12" d="M664.1,627.7v2.8h-.8v-2.8c0-.5,0-.8-.2-1s-.5-.3-.8-.3-.8.2-1,.4-.4.6-.4,1.1v2.7h-.8v-4.7h.8v.7c.2-.3.4-.5.6-.6s.5-.2.9-.2c.5,0,.9.2,1.2.5s.4.9.4,1.5h0Z"/>
      <path id="DejaVuSans-69-5" class="cls-12" d="M665.6,625.8h.8v4.7h-.8v-4.7ZM665.6,624.1h.8v1h-.8v-1Z"/>
      <path id="DejaVuSans-6d-6" class="cls-12" d="M671.6,626.8c.2-.3.4-.6.7-.8s.5-.2.9-.2.9.2,1.2.5c.2.3.4.9.4,1.5v2.8h-.8v-2.8c0-.5,0-.8-.2-1s-.4-.3-.7-.3-.7.2-.9.4-.3.6-.3,1.1v2.7h-.8v-2.8c0-.5,0-.8-.2-1s-.4-.3-.7-.3-.7.2-.9.4-.3.6-.3,1.1v2.7h-.8v-4.7h.8v.7c.2-.3.4-.5.6-.6s.5-.2.9-.2.6,0,.9.2.4.4.5.8h-.2Z"/>
      <path id="DejaVuSans-61-2" class="cls-12" d="M678.5,628.2c-.6,0-1.1,0-1.3.2s-.4.4-.4.7,0,.5.2.6.4.2.7.2.8-.2,1-.5.4-.7.4-1.2v-.2h-.8.2ZM680,627.9v2.7h-.8v-.7c-.2.3-.4.5-.6.6s-.5.2-.9.2-.9-.2-1.2-.4-.4-.6-.4-1.1.2-.9.5-1.2.9-.4,1.6-.4h1.1c0-.5,0-.7-.3-.9s-.5-.3-1-.3-.5,0-.8,0c-.2,0-.5.2-.7.3v-.7c.3,0,.5-.2.9-.2.2,0,.5,0,.8,0,.7,0,1.2.2,1.6.5.3.4.5.9.5,1.6h-.2Z"/>
      <path id="DejaVuSans-6c" class="cls-12" d="M681.6,624.1h.8v6.5h-.8v-6.5Z"/>
      <path id="DejaVuSans-65-6" class="cls-12" d="M620.7,640.8v.4h-3.5c0,.5.2.9.5,1.2s.7.4,1.2.4.5,0,.9,0,.5-.2.9-.3v.7c-.3.2-.5.2-.9.2s-.5,0-.9,0c-.8,0-1.3-.2-1.8-.6-.5-.5-.6-1-.6-1.8s.2-1.4.6-1.8c.4-.5.9-.7,1.7-.7s1.1.2,1.5.6.5.9.5,1.6h0ZM619.9,640.6c0-.4-.2-.8-.4-1s-.5-.4-.9-.4-.8.2-1,.4-.4.6-.5,1h2.8Z"/>
      <path id="DejaVuSans-74-3" class="cls-12" d="M622.7,637.4v1.3h1.6v.6h-1.6v2.6c0,.4,0,.6.2.7s.3.2.6.2h.8v.6h-.8c-.6,0-1,0-1.2-.3-.2-.2-.3-.6-.3-1.2v-2.6h-.5v-.6h.5v-1.3h.8Z"/>
      <path id="DejaVuSans-68-2" class="cls-12" d="M629.2,640.5v2.8h-.8v-2.8c0-.5,0-.8-.2-1s-.5-.3-.8-.3-.8.2-1,.4-.4.6-.4,1.1v2.7h-.8v-6.5h.8v2.6c.2-.3.4-.5.6-.6s.5-.2.9-.2c.5,0,.9.2,1.2.5s.4.9.4,1.5h0Z"/>
      <path id="DejaVuSans-69-6" class="cls-12" d="M630.8,638.7h.8v4.7h-.8v-4.7ZM630.8,636.8h.8v1h-.8v-1Z"/>
      <path id="DejaVuSans-63-2" class="cls-12" d="M636.5,638.9v.7c-.2-.2-.5-.2-.6-.2s-.5,0-.7,0c-.5,0-.9.2-1.2.5-.3.3-.4.8-.4,1.3s.2,1,.4,1.3c.3.3.7.5,1.2.5s.5,0,.7,0,.5-.2.6-.2v.7c-.2,0-.5.2-.7.2h-.7c-.7,0-1.2-.2-1.7-.7-.4-.5-.6-1-.6-1.8s.2-1.4.6-1.8c.4-.5,1-.6,1.7-.6h.7c.2,0,.5.2.6.2h0Z"/>
      <path id="DejaVuSans-61-3" class="cls-12" d="M640,641.1c-.6,0-1.1,0-1.3.2s-.4.4-.4.7,0,.5.2.6.4.2.7.2.8-.2,1-.5.4-.7.4-1.2v-.2h-.8.2ZM641.5,640.7v2.7h-.8v-.7c-.2.3-.4.5-.6.6s-.5.2-.9.2-.9-.2-1.2-.4-.4-.6-.4-1.1.2-.9.5-1.2.9-.4,1.6-.4h1.1c0-.5,0-.7-.3-.9s-.5-.3-1-.3-.5,0-.8,0c-.2,0-.5.2-.7.3v-.7c.3,0,.5-.2.9-.2.2,0,.5,0,.8,0,.7,0,1.2.2,1.6.5.3.4.5.9.5,1.6h-.2Z"/>
      <path id="DejaVuSans-6c-2" class="cls-12" d="M643.1,636.8h.8v6.5h-.8v-6.5Z"/>
      <path id="DejaVuSans-5f-3" class="cls-12" d="M649.1,644.8v.6h-4.4v-.6h4.4Z"/>
      <path id="DejaVuSans-73-3" class="cls-12" d="M652.7,638.8v.7c-.2,0-.5-.2-.7-.2s-.5,0-.7,0c-.4,0-.7,0-.9.2-.2.2-.3.3-.3.5s0,.3.2.4.4.2.9.3h.2c.5.2.9.3,1.2.5s.3.5.3.9-.2.8-.5,1c-.3.2-.9.4-1.4.4h-.8c-.2,0-.5-.2-.9-.2v-.8c.3.2.5.2.9.3.3,0,.5,0,.9,0s.6,0,.9-.2.3-.3.3-.5,0-.4-.2-.5c-.2,0-.5-.2-.9-.3h-.2c-.5-.2-.9-.3-1-.5-.2-.2-.3-.5-.3-.9s.2-.8.5-1c.3-.2.8-.4,1.3-.4h.8c.2,0,.5,0,.7.2v.2Z"/>
      <path id="DejaVuSans-6f-2" class="cls-12" d="M656,639.3c-.4,0-.7.2-1,.5s-.4.8-.4,1.3.2,1,.4,1.3.5.5,1,.5.7-.2,1-.5c.2-.3.4-.8.4-1.3s-.2-1-.4-1.3-.5-.5-1-.5ZM656,638.6c.7,0,1.2.2,1.6.6.4.5.5,1,.5,1.8s-.2,1.4-.5,1.8c-.4.5-.9.6-1.6.6s-1.2-.2-1.6-.6c-.4-.5-.5-1-.5-1.8s.2-1.4.5-1.8c.4-.5.9-.6,1.6-.6Z"/>
      <path id="DejaVuSans-75-2" class="cls-12" d="M659.4,641.5v-2.8h.8v2.8c0,.5,0,.8.2,1s.5.3.8.3.8-.2,1-.4.4-.6.4-1.1v-2.7h.8v4.7h-.8v-.7c-.2.3-.4.5-.6.6s-.5.2-.9.2c-.5,0-.9-.2-1.2-.5s-.4-.9-.4-1.5h0ZM661.3,638.6h0Z"/>
      <path id="DejaVuSans-72-3" class="cls-12" d="M667.6,639.4c0,0-.2,0-.3,0h-.3c-.5,0-.8.2-1,.4s-.3.7-.3,1.2v2.5h-.8v-4.7h.8v.7c.2-.3.4-.5.6-.6s.5-.2.9-.2,0,0,.2,0h.2v.8h0Z"/>
      <path id="DejaVuSans-63-3" class="cls-12" d="M671.6,638.9v.7c-.2-.2-.5-.2-.6-.2s-.5,0-.7,0c-.5,0-.9.2-1.2.5-.3.3-.4.8-.4,1.3s.2,1,.4,1.3c.3.3.7.5,1.2.5s.5,0,.7,0,.5-.2.6-.2v.7c-.2,0-.5.2-.7.2h-.7c-.7,0-1.2-.2-1.7-.7-.4-.5-.6-1-.6-1.8s.2-1.4.6-1.8c.4-.5,1-.6,1.7-.6h.7c.2,0,.5.2.6.2h0Z"/>
      <path id="DejaVuSans-69-7" class="cls-12" d="M672.9,638.7h.8v4.7h-.8v-4.7ZM672.9,636.8h.8v1h-.8v-1Z"/>
      <path id="DejaVuSans-6e-5" class="cls-12" d="M679.3,640.5v2.8h-.8v-2.8c0-.5,0-.8-.2-1s-.5-.3-.8-.3-.8.2-1,.4-.4.6-.4,1.1v2.7h-.8v-4.7h.8v.7c.2-.3.4-.5.6-.6s.5-.2.9-.2c.5,0,.9.2,1.2.5s.4.9.4,1.5h0Z"/>
      <path id="DejaVuSans-67-2" class="cls-12" d="M683.9,641c0-.5,0-1-.3-1.3-.2-.3-.5-.5-.9-.5s-.7.2-.9.5c-.2.3-.3.7-.3,1.3s0,1,.3,1.3c.2.3.5.5.9.5s.7-.2.9-.5c.2-.3.3-.7.3-1.3ZM684.6,642.8c0,.8-.2,1.4-.5,1.8s-.9.5-1.6.5h-.8c-.2,0-.5,0-.7-.2v-.8c.2.2.5.2.7.2s.5,0,.7,0c.5,0,.9-.2,1.2-.4.2-.2.4-.6.4-1.2v-.4c-.2.3-.4.5-.6.6s-.5.2-.9.2c-.5,0-1-.2-1.4-.6-.4-.5-.5-1-.5-1.7s.2-1.3.5-1.7c.4-.5.8-.6,1.4-.6s.6,0,.9.2.5.3.6.6v-.7h.8v4.1-.2Z"/>
      <path id="m6d51cdcdbe-8" class="cls-3" d="M600.4,656.7c.7,0,1.4-.3,1.9-.8s.8-1.2.8-1.9-.3-1.4-.8-1.9-1.2-.8-1.9-.8-1.4.3-1.9.8-.8,1.2-.8,1.9.3,1.4.8,1.9,1.2.8,1.9.8Z"/>
      <path id="DejaVuSans-68-3" class="cls-12" d="M620.5,653.4v2.8h-.8v-2.8c0-.5,0-.8-.2-1s-.5-.3-.8-.3-.8.2-1,.4-.4.6-.4,1.1v2.7h-.8v-6.5h.8v2.6c.2-.3.4-.5.6-.6s.5-.2.9-.2c.5,0,.9.2,1.2.5s.4.9.4,1.5h0Z"/>
      <path id="DejaVuSans-6f-3" class="cls-12" d="M623.9,652c-.4,0-.7.2-1,.5s-.4.8-.4,1.3.2,1,.4,1.3.5.5,1,.5.7-.2,1-.5c.2-.3.4-.8.4-1.3s-.2-1-.4-1.3-.5-.5-1-.5ZM623.9,651.4c.7,0,1.2.2,1.6.6.4.5.5,1,.5,1.8s-.2,1.4-.5,1.8c-.4.5-.9.6-1.6.6s-1.2-.2-1.6-.6c-.4-.5-.5-1-.5-1.8s.2-1.4.5-1.8c.4-.5.9-.6,1.6-.6Z"/>
      <path id="DejaVuSans-6d-7" class="cls-12" d="M631,652.4c.2-.3.4-.6.7-.8s.5-.2.9-.2.9.2,1.2.5c.2.3.4.9.4,1.5v2.8h-.8v-2.8c0-.5,0-.8-.2-1s-.4-.3-.7-.3-.7.2-.9.4-.3.6-.3,1.1v2.7h-.8v-2.8c0-.5,0-.8-.2-1s-.4-.3-.7-.3-.7.2-.9.4-.3.6-.3,1.1v2.7h-.8v-4.7h.8v.7c.2-.3.4-.5.6-.6s.5-.2.9-.2.6,0,.9.2.4.4.5.8h-.2Z"/>
      <path id="DejaVuSans-65-7" class="cls-12" d="M639.7,653.7v.4h-3.5c0,.5.2.9.5,1.2s.7.4,1.2.4.5,0,.9,0,.5-.2.9-.3v.7c-.3.2-.5.2-.9.2s-.5,0-.9,0c-.8,0-1.3-.2-1.8-.6-.5-.5-.6-1-.6-1.8s.2-1.4.6-1.8c.4-.5.9-.7,1.7-.7s1.1.2,1.5.6.5.9.5,1.6h0ZM638.9,653.4c0-.4-.2-.8-.4-1s-.5-.4-.9-.4-.8.2-1,.4-.4.6-.5,1h2.8Z"/>
      <path id="DejaVuSans-6d-8" class="cls-12" d="M644.6,652.4c.2-.3.4-.6.7-.8s.5-.2.9-.2.9.2,1.2.5c.2.3.4.9.4,1.5v2.8h-.8v-2.8c0-.5,0-.8-.2-1s-.4-.3-.7-.3-.7.2-.9.4-.3.6-.3,1.1v2.7h-.8v-2.8c0-.5,0-.8-.2-1s-.4-.3-.7-.3-.7.2-.9.4-.3.6-.3,1.1v2.7h-.8v-4.7h.8v.7c.2-.3.4-.5.6-.6s.5-.2.9-.2.6,0,.9.2.4.4.5.8h-.2Z"/>
      <path id="DejaVuSans-61-4" class="cls-12" d="M651.5,653.8c-.6,0-1.1,0-1.3.2s-.4.4-.4.7,0,.5.2.6.4.2.7.2.8-.2,1-.5.4-.7.4-1.2v-.2h-.8.2ZM653,653.5v2.7h-.8v-.7c-.2.3-.4.5-.6.6s-.5.2-.9.2-.9-.2-1.2-.4-.4-.6-.4-1.1.2-.9.5-1.2.9-.4,1.6-.4h1.1c0-.5,0-.7-.3-.9s-.5-.3-1-.3-.5,0-.8,0c-.2,0-.5.2-.7.3v-.7c.3,0,.5-.2.9-.2.2,0,.5,0,.8,0,.7,0,1.2.2,1.6.5.3.4.5.9.5,1.6h-.2Z"/>
      <path id="DejaVuSans-64-2" class="cls-12" d="M657.7,652.2v-2.6h.8v6.5h-.8v-.7c-.2.3-.4.5-.6.6s-.5.2-.9.2c-.5,0-1-.2-1.4-.7-.4-.5-.5-1-.5-1.8s.2-1.3.5-1.8.8-.7,1.4-.7.6,0,.9.2c.2.2.5.3.6.6h0ZM655.1,653.8c0,.5,0,1,.3,1.3.2.3.5.5.9.5s.7-.2.9-.5c.2-.3.4-.8.4-1.3s-.2-1-.4-1.3-.5-.5-.9-.5-.7.2-.9.5-.3.8-.3,1.3Z"/>
      <path id="DejaVuSans-65-8" class="cls-12" d="M664.1,653.7v.4h-3.5c0,.5.2.9.5,1.2s.7.4,1.2.4.5,0,.9,0,.5-.2.9-.3v.7c-.3.2-.5.2-.9.2s-.5,0-.9,0c-.8,0-1.3-.2-1.8-.6-.5-.5-.6-1-.6-1.8s.2-1.4.6-1.8c.4-.5.9-.7,1.7-.7s1.1.2,1.5.6.5.9.5,1.6h0ZM663.3,653.4c0-.4-.2-.8-.4-1s-.5-.4-.9-.4-.8.2-1,.4-.4.6-.5,1h2.8Z"/>
      <path id="DejaVuSans-5f-4" class="cls-12" d="M668.9,657.7v.6h-4.4v-.6h4.4Z"/>
      <path id="DejaVuSans-62" class="cls-12" d="M672.9,653.8c0-.5,0-1-.3-1.3s-.5-.5-.9-.5-.7.2-.9.5-.3.8-.3,1.3,0,1,.3,1.3c.2.3.5.5.9.5s.7-.2.9-.5c.2-.3.3-.8.3-1.3ZM670.4,652.2c.2-.3.4-.5.6-.6s.5-.2.9-.2c.5,0,1,.2,1.4.7.4.5.5,1,.5,1.8s-.2,1.3-.5,1.8-.8.7-1.4.7-.6,0-.9-.2c-.2-.2-.5-.3-.6-.6v.7h-.8v-6.5h.8v2.6h0Z"/>
      <path id="DejaVuSans-61-5" class="cls-12" d="M677.1,653.8c-.6,0-1.1,0-1.3.2s-.4.4-.4.7,0,.5.2.6.4.2.7.2.8-.2,1-.5.4-.7.4-1.2v-.2h-.8.2ZM678.7,653.5v2.7h-.8v-.7c-.2.3-.4.5-.6.6s-.5.2-.9.2-.9-.2-1.2-.4-.4-.6-.4-1.1.2-.9.5-1.2.9-.4,1.6-.4h1.1c0-.5,0-.7-.3-.9s-.5-.3-1-.3-.5,0-.8,0c-.2,0-.5.2-.7.3v-.7c.3,0,.5-.2.9-.2.2,0,.5,0,.8,0,.7,0,1.2.2,1.6.5.3.4.5.9.5,1.6h-.2Z"/>
      <path id="DejaVuSans-6b" class="cls-12" d="M680.3,649.7h.8v3.8l2.3-2h1l-2.5,2.2,2.6,2.5h-1l-2.4-2.3v2.3h-.8v-6.5h0Z"/>
      <path id="DejaVuSans-65-9" class="cls-12" d="M689,653.7v.4h-3.5c0,.5.2.9.5,1.2s.7.4,1.2.4.5,0,.9,0,.5-.2.9-.3v.7c-.3.2-.5.2-.9.2s-.5,0-.9,0c-.8,0-1.3-.2-1.8-.6-.5-.5-.6-1-.6-1.8s.2-1.4.6-1.8c.4-.5.9-.7,1.7-.7s1.1.2,1.5.6.5.9.5,1.6h0ZM688.2,653.4c0-.4-.2-.8-.4-1s-.5-.4-.9-.4-.8.2-1,.4-.4.6-.5,1h2.8Z"/>
      <path id="DejaVuSans-73-4" class="cls-12" d="M693.2,651.7v.7c-.2,0-.5-.2-.7-.2s-.5,0-.7,0c-.4,0-.7,0-.9.2-.2.2-.3.3-.3.5s0,.3.2.4.4.2.9.3h.2c.5.2.9.3,1.2.5s.3.5.3.9-.2.8-.5,1c-.3.2-.9.4-1.4.4h-.8c-.2,0-.5-.2-.9-.2v-.8c.3.2.5.2.9.3.3,0,.5,0,.9,0s.6,0,.9-.2.3-.3.3-.5,0-.4-.2-.5c-.2,0-.5-.2-.9-.3h-.2c-.5-.2-.9-.3-1-.5-.2-.2-.3-.5-.3-.9s.2-.8.5-1c.3-.2.8-.4,1.3-.4h.8c.2,0,.5,0,.7.2v.2Z"/>
      <path id="m0251bc5e48-255" class="cls-4" d="M600.4,670.8c1,0,2.1-.5,2.9-1.1s1.1-1.8,1.1-2.9-.5-2.1-1.1-2.9-1.8-1.1-2.9-1.1-2.1.5-2.9,1.1-1.1,1.8-1.1,2.9.5,2.1,1.1,2.9,1.8,1.1,2.9,1.1Z"/>
      <path id="DejaVuSans-6d-9" class="cls-12" d="M620.3,665.2c.2-.3.4-.6.7-.8s.5-.2.9-.2.9.2,1.2.5c.2.3.4.9.4,1.5v2.8h-.8v-2.8c0-.5,0-.8-.2-1s-.4-.3-.7-.3-.7.2-.9.4-.3.6-.3,1.1v2.7h-.8v-2.8c0-.5,0-.8-.2-1s-.4-.3-.7-.3-.7.2-.9.4-.3.6-.3,1.1v2.7h-.8v-4.7h.8v.7c.2-.3.4-.5.6-.6s.5-.2.9-.2.6,0,.9.2.4.4.5.8h-.2Z"/>
      <path id="DejaVuSans-75-3" class="cls-12" d="M624.9,667.2v-2.8h.8v2.8c0,.5,0,.8.2,1s.5.3.8.3.8-.2,1-.4.4-.6.4-1.1v-2.7h.8v4.7h-.8v-.7c-.2.3-.4.5-.6.6s-.5.2-.9.2c-.5,0-.9-.2-1.2-.5s-.4-.9-.4-1.5h0ZM626.9,664.2h0Z"/>
      <path id="DejaVuSans-6c-3" class="cls-12" d="M630.4,662.5h.8v6.5h-.8v-6.5Z"/>
      <path id="DejaVuSans-74-4" class="cls-12" d="M633.6,663v1.3h1.6v.6h-1.6v2.6c0,.4,0,.6.2.7s.3.2.6.2h.8v.6h-.8c-.6,0-1,0-1.2-.3-.2-.2-.3-.6-.3-1.2v-2.6h-.5v-.6h.5v-1.3h.8Z"/>
      <path id="DejaVuSans-69-8" class="cls-12" d="M636.2,664.4h.8v4.7h-.8v-4.7ZM636.2,662.5h.8v1h-.8v-1Z"/>
      <path id="DejaVuSans-5f-5" class="cls-12" d="M642.1,670.4v.6h-4.4v-.6h4.4Z"/>
      <path id="DejaVuSans-6c-4" class="cls-12" d="M642.8,662.5h.8v6.5h-.8v-6.5Z"/>
      <path id="DejaVuSans-6f-4" class="cls-12" d="M647.1,664.9c-.4,0-.7.2-1,.5s-.4.8-.4,1.3.2,1,.4,1.3.5.5,1,.5.7-.2,1-.5c.2-.3.4-.8.4-1.3s-.2-1-.4-1.3-.5-.5-1-.5ZM647.1,664.2c.7,0,1.2.2,1.6.6.4.5.5,1,.5,1.8s-.2,1.4-.5,1.8c-.4.5-.9.6-1.6.6s-1.2-.2-1.6-.6c-.4-.5-.5-1-.5-1.8s.2-1.4.5-1.8c.4-.5.9-.6,1.6-.6Z"/>
      <path id="DejaVuSans-63-4" class="cls-12" d="M653.9,664.5v.7c-.2-.2-.5-.2-.6-.2s-.5,0-.7,0c-.5,0-.9.2-1.2.5-.3.3-.4.8-.4,1.3s.2,1,.4,1.3c.3.3.7.5,1.2.5s.5,0,.7,0,.5-.2.6-.2v.7c-.2,0-.5.2-.7.2h-.7c-.7,0-1.2-.2-1.7-.7-.4-.5-.6-1-.6-1.8s.2-1.4.6-1.8c.4-.5,1-.6,1.7-.6h.7c.2,0,.5.2.6.2h0Z"/>
      <path id="DejaVuSans-61-6" class="cls-12" d="M657.3,666.7c-.6,0-1.1,0-1.3.2s-.4.4-.4.7,0,.5.2.6.4.2.7.2.8-.2,1-.5.4-.7.4-1.2v-.2h-.8.2ZM658.9,666.3v2.7h-.8v-.7c-.2.3-.4.5-.6.6s-.5.2-.9.2-.9-.2-1.2-.4-.4-.6-.4-1.1.2-.9.5-1.2.9-.4,1.6-.4h1.1c0-.5,0-.7-.3-.9s-.5-.3-1-.3-.5,0-.8,0c-.2,0-.5.2-.7.3v-.7c.3,0,.5-.2.9-.2.2,0,.5,0,.8,0,.7,0,1.2.2,1.6.5.3.4.5.9.5,1.6h-.2Z"/>
      <path id="DejaVuSans-74-5" class="cls-12" d="M661.2,663v1.3h1.6v.6h-1.6v2.6c0,.4,0,.6.2.7s.3.2.6.2h.8v.6h-.8c-.6,0-1,0-1.2-.3-.2-.2-.3-.6-.3-1.2v-2.6h-.5v-.6h.5v-1.3h.8Z"/>
      <path id="DejaVuSans-69-9" class="cls-12" d="M663.8,664.4h.8v4.7h-.8v-4.7ZM663.8,662.5h.8v1h-.8v-1Z"/>
      <path id="DejaVuSans-6f-5" class="cls-12" d="M668,664.9c-.4,0-.7.2-1,.5s-.4.8-.4,1.3.2,1,.4,1.3.5.5,1,.5.7-.2,1-.5c.2-.3.4-.8.4-1.3s-.2-1-.4-1.3-.5-.5-1-.5ZM668,664.2c.7,0,1.2.2,1.6.6.4.5.5,1,.5,1.8s-.2,1.4-.5,1.8c-.4.5-.9.6-1.6.6s-1.2-.2-1.6-.6c-.4-.5-.5-1-.5-1.8s.2-1.4.5-1.8c.4-.5.9-.6,1.6-.6Z"/>
      <path id="DejaVuSans-6e-6" class="cls-12" d="M675.4,666.2v2.8h-.8v-2.8c0-.5,0-.8-.2-1s-.5-.3-.8-.3-.8.2-1,.4-.4.6-.4,1.1v2.7h-.8v-4.7h.8v.7c.2-.3.4-.5.6-.6s.5-.2.9-.2c.5,0,.9.2,1.2.5s.4.9.4,1.5h0Z"/>
      <path id="m4d1cf1e7ec-11" class="cls-9" d="M600.4,683.2c.9,0,1.8-.4,2.5-1s1-1.6,1-2.5-.4-1.8-1-2.5-1.6-1-2.5-1-1.8.4-2.5,1-1,1.6-1,2.5.4,1.8,1,2.5,1.6,1,2.5,1Z"/>
      <path id="DejaVuSans-6f-6" class="cls-12" d="M618.5,677.7c-.4,0-.7.2-1,.5s-.4.8-.4,1.3.2,1,.4,1.3.5.5,1,.5.7-.2,1-.5c.2-.3.4-.8.4-1.3s-.2-1-.4-1.3-.5-.5-1-.5ZM618.5,677.1c.7,0,1.2.2,1.6.6.4.5.5,1,.5,1.8s-.2,1.4-.5,1.8c-.4.5-.9.6-1.6.6s-1.2-.2-1.6-.6c-.4-.5-.5-1-.5-1.8s.2-1.4.5-1.8c.4-.5.9-.6,1.6-.6Z"/>
      <path id="DejaVuSans-72-4" class="cls-12" d="M624.6,677.9c0,0-.2,0-.3,0h-.3c-.5,0-.8.2-1,.4s-.3.7-.3,1.2v2.5h-.8v-4.7h.8v.7c.2-.3.4-.5.6-.6s.5-.2.9-.2,0,0,.2,0h.2v.8h0Z"/>
      <path id="DejaVuSans-69-10" class="cls-12" d="M625.5,677.1h.8v4.7h-.8v-4.7ZM625.5,675.4h.8v1h-.8v-1Z"/>
      <path id="DejaVuSans-67-3" class="cls-12" d="M630.9,679.5c0-.5,0-1-.3-1.3-.2-.3-.5-.5-.9-.5s-.7.2-.9.5c-.2.3-.3.7-.3,1.3s0,1,.3,1.3c.2.3.5.5.9.5s.7-.2.9-.5c.2-.3.3-.7.3-1.3ZM631.7,681.3c0,.8-.2,1.4-.5,1.8s-.9.5-1.6.5h-.8c-.2,0-.5,0-.7-.2v-.8c.2.2.5.2.7.2s.5,0,.7,0c.5,0,.9-.2,1.2-.4.2-.2.4-.6.4-1.2v-.4c-.2.3-.4.5-.6.6s-.5.2-.9.2c-.5,0-1-.2-1.4-.6-.4-.5-.5-1-.5-1.7s.2-1.3.5-1.7c.4-.5.8-.6,1.4-.6s.6,0,.9.2.5.3.6.6v-.7h.8v4.1-.2Z"/>
      <path id="DejaVuSans-69-11" class="cls-12" d="M633.3,677.1h.8v4.7h-.8v-4.7ZM633.3,675.4h.8v1h-.8v-1Z"/>
      <path id="DejaVuSans-6e-7" class="cls-12" d="M639.6,679v2.8h-.8v-2.8c0-.5,0-.8-.2-1s-.5-.3-.8-.3-.8.2-1,.4-.4.6-.4,1.1v2.7h-.8v-4.7h.8v.7c.2-.3.4-.5.6-.6s.5-.2.9-.2c.5,0,.9.2,1.2.5s.4.9.4,1.5h0Z"/>
      <path id="DejaVuSans-5f-6" class="cls-12" d="M644.6,683.3v.6h-4.4v-.6h4.4Z"/>
      <path id="DejaVuSans-66" class="cls-12" d="M647.8,675.4v.6h-.7c-.3,0-.5,0-.5.2,0,0-.2.3-.2.6v.4h1.2v.6h-1.2v4.1h-.8v-4.1h-.7v-.6h.7v-.3c0-.5.2-.9.4-1.2s.6-.4,1.2-.4h.7,0Z"/>
      <path id="DejaVuSans-6f-7" class="cls-12" d="M650.2,677.7c-.4,0-.7.2-1,.5s-.4.8-.4,1.3.2,1,.4,1.3.5.5,1,.5.7-.2,1-.5c.2-.3.4-.8.4-1.3s-.2-1-.4-1.3-.5-.5-1-.5ZM650.2,677.1c.7,0,1.2.2,1.6.6.4.5.5,1,.5,1.8s-.2,1.4-.5,1.8c-.4.5-.9.6-1.6.6s-1.2-.2-1.6-.6c-.4-.5-.5-1-.5-1.8s.2-1.4.5-1.8c.4-.5.9-.6,1.6-.6Z"/>
      <path id="DejaVuSans-63-5" class="cls-12" d="M657,677.3v.7c-.2-.2-.5-.2-.6-.2s-.5,0-.7,0c-.5,0-.9.2-1.2.5-.3.3-.4.8-.4,1.3s.2,1,.4,1.3c.3.3.7.5,1.2.5s.5,0,.7,0,.5-.2.6-.2v.7c-.2,0-.5.2-.7.2h-.7c-.7,0-1.2-.2-1.7-.7-.4-.5-.6-1-.6-1.8s.2-1.4.6-1.8c.4-.5,1-.6,1.7-.6h.7c.2,0,.5.2.6.2h0Z"/>
      <path id="DejaVuSans-75-4" class="cls-12" d="M658.3,680v-2.8h.8v2.8c0,.5,0,.8.2,1s.5.3.8.3.8-.2,1-.4.4-.6.4-1.1v-2.7h.8v4.7h-.8v-.7c-.2.3-.4.5-.6.6s-.5.2-.9.2c-.5,0-.9-.2-1.2-.5s-.4-.9-.4-1.5h0ZM660.2,677.1h0Z"/>
      <path id="DejaVuSans-73-5" class="cls-12" d="M666.8,677.3v.7c-.2,0-.5-.2-.7-.2s-.5,0-.7,0c-.4,0-.7,0-.9.2-.2.2-.3.3-.3.5s0,.3.2.4.4.2.9.3h.2c.5.2.9.3,1.2.5s.3.5.3.9-.2.8-.5,1c-.3.2-.9.4-1.4.4h-.8c-.2,0-.5-.2-.9-.2v-.8c.3.2.5.2.9.3.3,0,.5,0,.9,0s.6,0,.9-.2.3-.3.3-.5,0-.4-.2-.5c-.2,0-.5-.2-.9-.3h-.2c-.5-.2-.9-.3-1-.5-.2-.2-.3-.5-.3-.9s.2-.8.5-1c.3-.2.8-.4,1.3-.4h.8c.2,0,.5,0,.7.2v.2Z"/>
      <path id="m8fd626b24d-22" class="cls-7" d="M600.4,696c.9,0,1.8-.4,2.5-1s1-1.6,1-2.5-.4-1.8-1-2.5-1.6-1-2.5-1-1.8.4-2.5,1-1,1.6-1,2.5.4,1.8,1,2.5,1.6,1,2.5,1Z"/>
      <path id="DejaVuSans-70" class="cls-12" d="M617.4,694v2.5h-.8v-6.5h.8v.7c.2-.3.4-.5.6-.6s.5-.2.9-.2c.5,0,1,.2,1.4.7.4.5.5,1,.5,1.8s-.2,1.3-.5,1.8-.8.7-1.4.7-.6,0-.9-.2c-.2-.2-.5-.3-.6-.6h0ZM620,692.4c0-.5,0-1-.3-1.3s-.5-.5-.9-.5-.7.2-.9.5-.3.8-.3,1.3,0,1,.3,1.3c.2.3.5.5.9.5s.7-.2.9-.5c.2-.3.3-.8.3-1.3Z"/>
      <path id="DejaVuSans-65-10" class="cls-12" d="M626.2,692.1v.4h-3.5c0,.5.2.9.5,1.2s.7.4,1.2.4.5,0,.9,0,.5-.2.9-.3v.7c-.3.2-.5.2-.9.2s-.5,0-.9,0c-.8,0-1.3-.2-1.8-.6-.5-.5-.6-1-.6-1.8s.2-1.4.6-1.8c.4-.5.9-.7,1.7-.7s1.1.2,1.5.6.5.9.5,1.6h0ZM625.4,691.9c0-.4-.2-.8-.4-1s-.5-.4-.9-.4-.8.2-1,.4-.4.6-.5,1h2.8Z"/>
      <path id="DejaVuSans-74-6" class="cls-12" d="M628.2,688.7v1.3h1.6v.6h-1.6v2.6c0,.4,0,.6.2.7s.3.2.6.2h.8v.6h-.8c-.6,0-1,0-1.2-.3-.2-.2-.3-.6-.3-1.2v-2.6h-.5v-.6h.5v-1.3h.8Z"/>
      <path id="DejaVuSans-5f-7" class="cls-12" d="M523.5,582.4v.6h-4.4v-.6h4.4Z"/>
      <path id="DejaVuSans-66-2" class="cls-12" d="M637.4,688.1v.6h-.7c-.3,0-.5,0-.5.2,0,0-.2.3-.2.6v.4h1.2v.6h-1.2v4.1h-.8v-4.1h-.7v-.6h.7v-.3c0-.5.2-.9.4-1.2s.6-.4,1.2-.4h.7,0Z"/>
      <path id="DejaVuSans-72-5" class="cls-12" d="M640.7,690.7c0,0-.2,0-.3,0h-.3c-.5,0-.8.2-1,.4s-.3.7-.3,1.2v2.5h-.8v-4.7h.8v.7c.2-.3.4-.5.6-.6s.5-.2.9-.2,0,0,.2,0h.2v.8h0Z"/>
      <path id="DejaVuSans-69-12" class="cls-12" d="M641.6,690h.8v4.7h-.8v-4.7ZM641.6,688.1h.8v1h-.8v-1Z"/>
      <path id="DejaVuSans-65-11" class="cls-12" d="M648,692.1v.4h-3.5c0,.5.2.9.5,1.2s.7.4,1.2.4.5,0,.9,0,.5-.2.9-.3v.7c-.3.2-.5.2-.9.2s-.5,0-.9,0c-.8,0-1.3-.2-1.8-.6-.5-.5-.6-1-.6-1.8s.2-1.4.6-1.8c.4-.5.9-.7,1.7-.7s1.1.2,1.5.6.5.9.5,1.6h0ZM647.2,691.9c0-.4-.2-.8-.4-1s-.5-.4-.9-.4-.8.2-1,.4-.4.6-.5,1h2.8Z"/>
      <path id="DejaVuSans-6e-8" class="cls-12" d="M653.1,691.9v2.8h-.8v-2.8c0-.5,0-.8-.2-1s-.5-.3-.8-.3-.8.2-1,.4-.4.6-.4,1.1v2.7h-.8v-4.7h.8v.7c.2-.3.4-.5.6-.6s.5-.2.9-.2c.5,0,.9.2,1.2.5s.4.9.4,1.5h0Z"/>
      <path id="DejaVuSans-64-3" class="cls-12" d="M657.7,690.7v-2.6h.8v6.5h-.8v-.7c-.2.3-.4.5-.6.6s-.5.2-.9.2c-.5,0-1-.2-1.4-.7-.4-.5-.5-1-.5-1.8s.2-1.3.5-1.8.8-.7,1.4-.7.6,0,.9.2c.2.2.5.3.6.6h0ZM655.2,692.4c0,.5,0,1,.3,1.3.2.3.5.5.9.5s.7-.2.9-.5c.2-.3.4-.8.4-1.3s-.2-1-.4-1.3-.5-.5-.9-.5-.7.2-.9.5-.3.8-.3,1.3Z"/>
      <path id="DejaVuSans-6c-5" class="cls-12" d="M660.2,688.1h.8v6.5h-.8v-6.5Z"/>
      <path id="DejaVuSans-79-3" class="cls-12" d="M664.4,695.1c-.2.5-.5.9-.6,1.1-.2.2-.5.2-.9.2h-.6v-.6h.5c.2,0,.4,0,.5-.2.2,0,.2-.3.4-.7l.2-.4-1.9-4.6h.8l1.5,3.7,1.5-3.7h.8l-2,5.1h0Z"/>
      <path id="m3c81ca1168-26" class="cls-6" d="M215.6,266.1c1.9,0,3.6-.7,5.1-2.1s2.1-3.1,2.1-5.1-.7-3.6-2.1-5.1-3.1-2.1-5.1-2.1-3.6.7-5.1,2.1-2.1,3.1-2.1,5.1.7,3.6,2.1,5.1,3.1,2.1,5.1,2.1Z"/>
      <path id="m3c81ca1168-27" class="cls-6" d="M246,284.6c1.9,0,3.6-.7,5.1-2.1s2.1-3.1,2.1-5.1-.7-3.6-2.1-5.1-3.1-2.1-5.1-2.1-3.6.7-5.1,2.1-2.1,3.1-2.1,5.1.7,3.6,2.1,5.1,3.1,2.1,5.1,2.1Z"/>
      <g class="cls-10">
        <text class="cls-11" transform="translate(260.7 285.1)"><tspan x="0" y="0">Wat Phra That Doi Suthep</tspan></text>
        <text class="cls-11" transform="translate(260.7 312)"><tspan x="0" y="0">Wat Chedi Luang</tspan></text>
        <text class="cls-11" transform="translate(260.7 339)"><tspan x="0" y="0">Wat Chiang Man</tspan></text>
      </g>
      <path id="m2816ee5f9a" class="cls-1" d="M295.7,226.8c1.9,0,3.6-.7,5.1-2.1s2.1-3.1,2.1-5.1-.7-3.6-2.1-5.1-3.1-2.1-5.1-2.1-3.6.7-5.1,2.1-2.1,3.1-2.1,5.1.7,3.6,2.1,5.1,3.1,2.1,5.1,2.1Z"/>
      <path id="m2816ee5f9a-2" class="cls-1" d="M226.9,274.9c1.9,0,3.6-.7,5.1-2.1s2.1-3.1,2.1-5.1-.7-3.6-2.1-5.1-3.1-2.1-5.1-2.1-3.6.7-5.1,2.1-2.1,3.1-2.1,5.1.7,3.6,2.1,5.1,3.1,2.1,5.1,2.1Z"/>
      <path id="m2816ee5f9a-3" class="cls-1" d="M144.4,308.9c1.9,0,3.6-.7,5.1-2.1s2.1-3.1,2.1-5.1-.7-3.6-2.1-5.1-3.1-2.1-5.1-2.1-3.6.7-5.1,2.1-2.1,3.1-2.1,5.1.7,3.6,2.1,5.1,3.1,2.1,5.1,2.1Z"/>
      <path id="m2816ee5f9a-4" class="cls-1" d="M600.4,644.7c.9,0,1.8-.4,2.5-1s1-1.6,1-2.5-.4-1.8-1-2.5-1.6-1-2.5-1-1.8.4-2.5,1-1,1.6-1,2.5.4,1.8,1,2.5,1.6,1,2.5,1Z"/>
      <path id="mea0f3bbb4b" class="cls-5" d="M218.6,270.7c1.2,0,2.3-.5,3.1-1.3.8-.8,1.3-2,1.3-3.1s-.5-2.3-1.3-3.1c-.8-.8-2-1.3-3.1-1.3s-2.3.5-3.1,1.3c-.8.8-1.3,2-1.3,3.1s.5,2.3,1.3,3.1c.8.8,2,1.3,3.1,1.3Z"/>
      <path id="mea0f3bbb4b-2" class="cls-5" d="M230.4,274.2c1.2,0,2.3-.5,3.1-1.3.8-.8,1.3-2,1.3-3.1s-.5-2.3-1.3-3.1c-.8-.8-2-1.3-3.1-1.3s-2.3.5-3.1,1.3c-.8.8-1.3,2-1.3,3.1s.5,2.3,1.3,3.1c.8.8,2,1.3,3.1,1.3Z"/>
      <path id="mea0f3bbb4b-3" class="cls-5" d="M230.8,271.4c1.2,0,2.3-.5,3.1-1.3.8-.8,1.3-2,1.3-3.1s-.5-2.3-1.3-3.1c-.8-.8-2-1.3-3.1-1.3s-2.3.5-3.1,1.3c-.8.8-1.3,2-1.3,3.1s.5,2.3,1.3,3.1c.8.8,2,1.3,3.1,1.3Z"/>
      <rect class="cls-2" x="653" width="576" height="576"/>
    </g>
  </g>
</svg>