<?xml version="1.0" encoding="UTF-8"?>
<svg xmlns="http://www.w3.org/2000/svg" version="1.1" viewBox="0 0 576 576">
  <defs>
    <style>
      .cls-1 {
        fill: none;
      }

      .cls-2 {
        fill: #8da0cb;
      }

      .cls-2, .cls-3, .cls-4, .cls-5, .cls-6, .cls-7, .cls-8 {
        stroke-linejoin: round;
      }

      .cls-2, .cls-3, .cls-4, .cls-5, .cls-8 {
        fill-opacity: .9;
        stroke: #fff;
        stroke-opacity: .9;
        stroke-width: .6px;
      }

      .cls-3 {
        fill: #ffd92f;
      }

      .cls-9 {
        fill: #262626;
      }

      .cls-4 {
        fill: #b3b3b3;
      }

      .cls-10 {
        opacity: .2;
      }

      .cls-5 {
        fill: #fc8d62;
      }

      .cls-6 {
        stroke: #000;
      }

      .cls-7 {
        fill-opacity: .4;
        stroke: #ccc;
        stroke-opacity: .4;
        stroke-width: .5px;
      }

      .cls-8 {
        fill: #66c2a5;
      }
    </style>
  </defs>
  <!-- Generator: Adobe Illustrator 28.7.7, SVG Export Plug-In . SVG Version: 1.2.0 Build 194)  -->
  <g>
    <g id="Layer_1">
      <g class="cls-10">
        <path class="cls-7" d="M186.3,357.2l3.4,1.7v3.7c-.2,0,.8,2.6.8,2.6l2.2,2.5,3.6,1.9-1.4,2.2,2.3.9-.3,2.6,1.2,1.7,2.9,1.1v1.1h1.2l7.6-.8.5.9-.5.9,2.6,3.4-.8,1.9.6,1.2,1.9-3.1,1.9.8,1.1-.5,9.9.3v.6l2.9,8.4.3,5.6,2,8.5,1.4,5.3.5,3.3-2,2.8-1.4.3h-2.2l-5.4-1.2h-1.7l-3.4,1.4-1.6,1.6-3.6,4.2-4.2,3.4-.9.8h0l.5-3.1-3.4-.3-.6-4v-1.6l.3-2.2.9-1.7,3.6-1.6v-.9l-9.5-.2v-6.8l-5.7-.2-.3-10.7.3-1.1-.5-2.3.3-3.1h-2.9v-6.8l-.6-8.2-1.6-2.8.5-3.4-2.3-3.3,1.1-4.3-1.4-3.6"/>
      </g>
      <g class="cls-10">
        <path class="cls-7" d="M292.4,366.9l1.6.5,8.1-.5,4.8-.6,15-.5v.5l1.9,1.7,1.6,1.4,2.3,1.7,2.6,1.7,1.4.9,1.6,1.2,1.2.9,1.7,1.4v2.3h-29.3l-9.5.2-.8-.3h-4.3c0-.2-1.4.2-1.4.2h-.6c0,.2-3.1.2-3.1.2v-14.3h0l1.2.3,1.6.5,2.6.6"/>
      </g>
      <g class="cls-10">
        <path class="cls-7" d="M218.3,334.2l1.7-3.9,1.2-3.3,2-8.2-.6-1.4h.9l10.2-.2h5.6v1.4l-.6,1.2,1.2.5-.5,1.4,1.2.5-.5,1.1,1.7.6-.8,2,2.9,1.1-2.6,8.8,3.9,10.4-2.9,2.2-4.8,2.5h-3.3l-4.5-1.2-4.7-2.8-4.3-4.5-2.8-5.1v-2.9"/>
      </g>
      <g class="cls-10">
        <path class="cls-7" d="M192.8,218.2v-4.7l39.2.3v20.6h-27.3l-.5-3.6-1.1-3.3-.6-2.2-2.5-3.6-3.1-2.5-4.3-1.1"/>
      </g>
      <g class="cls-10">
        <path class="cls-7" d="M388.2,367.4l3.1,1.4,15.3-1.7h0l-.3,12.9-1.4,2.8-.5,2.3.3,21.5.5,1.6,1.2,2-.5,1.9v13.3l.3,2.6-.3.6v-.5h-14.1v6.5h-8.8v2.3h-.8v5h-3.7v-.8h-4l.9-1.4v-1.7c-.2,0,0,0,0,0v-1.9l.2-.5.8-1.1h-4.7l-6.8-.3v-40.5l.2-28.1h18.8l4.2,1.9"/>
      </g>
      <g class="cls-10">
        <path class="cls-7" d="M238.1,300.6h.2l7.8-6.5,13,.3h11v4l1.4,1.4v1.2h-4.5v4.8l-10.7,6.4-6.2,5.1-3.9,3.1h0l-1.2-11.3-6.7-8.5"/>
      </g>
      <g class="cls-10">
        <path class="cls-7" d="M224.1,175.1l2.5-13.2,6.4,1.2,37.1,2,10.4.6h0l17.4,1.1-1.6,2.9-5.7,10.9,4,9.9-.8,10.1-.9,6,1.4,13-21.1-6.7-9.1-2.9-8.5-3.6-6.8-2.9-11.9-2.6-3.3-.5-1.2.3-3.6-10.4-2.6-7.9-1.6-7.4"/>
      </g>
      <g class="cls-10">
        <path class="cls-7" d="M381.4,253.6l1.7-5.4,25-28.4,5.9,4.8,13.6,4.7-6.5,18v24.8l-.3,24.5h-27.4c0,.2-8.1.5-8.1.5l-1.9,1.9,3.1-12.1,3.3-16.3h1.7c0,.2.2.5.2.5v1.4h.9v-1.4h0v-.3h0v-1.6h.6v-13.8h-11.3l-.6-1.7"/>
      </g>
      <g class="cls-10">
        <path class="cls-7" d="M414.5,352.7h2.9c0,.2,6.2.2,6.2.2h5.6c0,.2,13.8,0,13.8,0l7.1-.3h0l-1.2.9v14.6l-2.8-.2.3,2v2.5c-.2,0,.2,2.5.2,2.5v3.4l.2,2.3,2.6-.3-.5,6,2.2.3.5,7.8v5.3l-4-2-4.3-1.4-3.4-1.1h-3.7c0-.2-3.9-.5-3.9-.5l-3.4.9-6.8,2.3-.5.9v6.2h-2.6l-5.3.6-8.2.9-.3-21.5.5-2.3,1.4-2.8.3-13h0l-15.3,1.7-3.1-1.4-4.2-1.7h-18.8v-14h4.3l14.6.3,22.6.5h7.6"/>
      </g>
      <g class="cls-10">
        <path class="cls-7" d="M290.3,180.6l5.7-10.9,1.6-2.9,5.1.3,30.5,1.9,28.7,13.2,45.1,36.9,1.1.8-12.1,13.6-5.4-.8-2.3-1.4h-2c0-.2-1.2-.8-1.2-.8l-7.3-.3-10.5-2.8-4.8-1.9-4.7-3.1-6.7-3.9h-10.4l-4.2-1.9-3.6-.5-3.6-1.4-2.5-.9-5.4.3-2.8-1.2v12.9l-22.3-5.9-2.2-.8-1.4-13,.9-6,.8-10.1-4-9.9"/>
      </g>
      <g class="cls-10">
        <path class="cls-7" d="M405.1,406.6l8.2-.9,5.3-.6h2.6v-6.4l.3-.9,6.8-2.3,3.4-.9,3.9.3h3.7c0,.2,3.4,1.2,3.4,1.2l4.3,1.4,3.9,2v-5.3l-.3-7.8-2.2-.3.5-6-2.6.3v-2.3l-.2-3.4-.3-2.5v-2.5c.2,0,0-2,0-2h2.8c0,.2,2.8-.2,2.8-.2l5,.5h1.9c0,.2,2-.3,2-.3h2.2c0-.2,5.1.5,5.1.5l.5-6.4,4.3-.3h1.1c0,.2,1.9,1.4,1.9,1.4h2l1.4,2.2,1.1,22h-.5l.5.3.3,6.7-.5.6h.9l.5.2-1.2,1.6-.3.8v2l-.5.5h.8c0-.2,0,7,0,7v-.3l.6-.6.3-.3.6-.6,2.2-2.5.8-1.2,1.6,1.1,1.7-2.8,2.9-2.9v3.7h-.3v7.1h-5.9v5.6h-5v-.6c-.2,0-4.3-.9-4.3-.9v17.7h1.1v.5h1.4v1.1h-2.5v1.9h-4.7v.8l.5,1.9h4.3v14.1h-6l-1.4-1.4-.6-3.7-.3-2v-4.7l.3-2.5h2.2l.8-7.3h1.2v-2.6h-1.2v-5.7h-4.8v2h1.7v1.7c-.2,0-.9.9-.9.9v.3c-.2,0-.5.2-.5.2h-.8l-.3.5h-.2c0-.2-.2,0-.2,0l-.3-.3-.6.3-.5-.5-.5.9v2.5h-2.2c0,.2-.5-.3-.5-.3h0l-.6-.2-.8-.5-.3-.5h-1.1l3.6,3.9h2v1.4h-5.6v2.8h-4.3v2.3l-4,.8.9-3.1h-17.8l-1.1-.6h-2v3.9l4.8-.3v.6c.2,0,.3,1.1.3,1.1h.2l.8.3v2.2h-3.1v1.4h-2.9v-2.2h-3.6v2.6h-7.9l-.6-1.6-2.3-3.7-.3-.5-.3-.3-.3-.3h-.3c0-.2-.2-.3-.2-.3h-.5c0-.2-3.7-1.4-3.7-1.4h-.3l-.3-.2h-.3l-.2-.5v-5.9l.3-.6-.3-2.6v-13.3l.5-1.9-1.2-2-.5-1.6"/>
      </g>
      <g class="cls-10">
        <path class="cls-7" d="M484.5,405.4l-.9.6v-.3c-.2,0-.8-.9-.8-.9l1.7.8"/>
      </g>
      <g class="cls-10">
        <path class="cls-7" d="M278.9,379.6h11.9c0-.2,1.4-.6,1.4-.6h4.3c0,.2.8.6.8.6h9.5v20.8h-6l-.6-.3h-1.1l-.6.3h-1.6l-1.2.3h-1.4c0-.2-.5-.3-.5-.3h-.6l-.5.3-1.2.5h-.8c0-.2-1.7-4.5-1.7-4.5h-.2c0-.2-.2-.3-.2-.3h-.3l-1.2-.3h-5.3l-3.1-16.3"/>
      </g>
      <g class="cls-10">
        <path class="cls-7" d="M156.9,353.7h0l.3.3,1.4.9.3-1.4h1.1l.5-.2.8-.3v-.5h4.5l-.5,1.4h2.5v-.9h1.6v-2h.3v-.3h.2v-.5h1.7v.3h.8v-.5l.8-.8.5-.6-.3-3.3h0l8.2,3.1h4.3c0-.2,5.4-1.9,5.4-1.9l.9-1.6,1.6-4.8,6.5-4.2,2.9-5.3,3.9-.8h1.1l6,2,1.7.3,1.4.8.6.9v2.8l2.8,5.1,2.9,3.3-1.2,2.5,1.2,3.4-.5.9-.8.6-1.4,1.1h-5.4l-2.5-2.9-5.1-1.6-.6.8-4-.9-.9,1.9h1.4l1.4,2.8,1.9,3.6-1.4,2.6.9,4.3-2.5,3.7,2.2,1.1.8.3.9.9-.5,2.3h1.9l-.6,3.1,1.1,2.2-7.6.8h-1.2v-1.1l-2.9-1.1-1.2-1.7.3-2.6-2.3-.9,1.4-2.2-3.6-1.9-2.2-2.5-.9-2.6v-3.7c.2,0-3.3-1.7-3.3-1.7l-3.7,3.4h-2.2c0,.2-2.6,2.5-2.6,2.5l-5.3,1.1-.3-1.1h-.5c0,.2,0-.9,0-.9h1.6l.8.2.5-.8-.3-.9v-.8l-.3-.3h-.3l-.3.3h-.2c0,.2-.3,0-.3,0h0l-.2.5.3.8-.9.5h-.3v.2h-.3c0,.2-1.6.2-1.6.2l-1.2-.8v2.3h-.8l-.3.2h-.3l-.8.3h0l-1.6-.8v.8h0l-.8-.9h0l-.2-.5v-1.1l-.5.3v-.3h-.6l-.5.3-.5.3v.3l.2.6h0v.5h0v.3h-.3v-.3l.2-.2h0v-.3h0v-.3h0v-.9h.2c0-.2.5-.6.5-.6h0v-.9h-2.3v-.8l-.5-1.1-.5-.9-1.1-2.8-.6-1.9"/>
      </g>
      <g class="cls-10">
        <path class="cls-7" d="M20.7,155.6v-3.7h4v2.6h1.6v2.6h8.4v7h14.6v-9.1h.3l.9-3.4-.9-7.8,5.3,2h.6l.9-2.6v-1.6c.2,0,1.1-4,1.1-4l2-1.2h1.2l.5.5h.3v.5l-.5.6.5.3-.3.3h.2v-.3h0c0-.2-.2,0-.2,0l.3-.3h0l.8.6h0l.6.5v.8h0l-.3.5-.6.8.5.8h-.2c0,.2-.3.6-.3.6l-.5.5.9.6.3-.3h.2c0-.2.5-.6.5-.6h0v-.8l-.2-.2h1.2c0-.2.5-.6.5-.6h0v-.2h0l-.6-.6h0l-.3.5h0v.5h-.3l-.3-.3-.3-.3v-.3c.2,0,.8-.8.8-.8h0v-.2l.6.5h.2c0,.2.6.8.6.8l.3.3.3.3.3-.5v-.9l.9-3.9.8-2.8v-1.4l3.7,1.1,3.4,1.2,3.6-.8,2,2.9h0l4.7,11.8,17.5,31.8,12.7,17.2,3.6,5,2.9,1.6-2.9,1.4-1.6.8-.9,2.3,3.1,4.3,11,17.2,3.9,3.6,3.3,3.1,2.2,2.5-.8,1.1-3.1,4.3-.6-6.2-5-3.9-2.3-.3-3.1,3.9-.8-3.1-5.9,4.8.6-2.6h-1.4c0-.2,1.6-3.1,1.6-3.1l-1.6-1.9.6-2.8-5.1,3.9-.6,1.6-1.2.6-1.6,2.8h-1.2l-5,8.4-.6-2.8-3.1,1.9h-3.4c0,.2-2.3-2.3-2.3-2.3l-4.3.8-.9.9-6.2-8.5-1.2-4.2h-.8l.3-2.6v-.9l.8-1.6v-.6c-.2,0-.3-1.2-.3-1.2l-.5-.5h-.6c0-.2-1.9,0-1.9,0l-1.4-.9-1.1-1.6v-6.8h-1.6l.3-1.2-.3-.8h-.8v-.2l-.5-.3-.6-.5-.3-.5-.6.6h-.8l-.5-.6h-1.6v-5.4h1.1l-1.1-1.4-.5-.6-.5.6-.9-.9-.6.6-1.4-1.6,1.2-1.2-2.6-3.6h-1.4c0,.2,0-1.7,0-1.7h0c0-.2-2.2.9-2.2.9l-2.2-2.3h.2c0-.2.3-.5.3-.5h0l.5-.5.5-.3h-1.6l-.2-.2v-.5l-.2-.5v-.6c.2,0,.5-.6.5-.6l-.9-.3-1.4-.5-2,1.4.9.9h-5.9v-3.9h-2.2v-2.5h-25.1v-23.9l.6-6h-.5l-.8-.6"/>
      </g>
      <g class="cls-10">
        <path class="cls-7" d="M100.6,175l25.1-10.2,2.8-1.1,8.5,13.5h1.6l26.2,8.7-9.3,11-6.8,7.8-7.6,10.7-7.6-6-14-7.3-3.6-5-12.7-17.2-2.8-5"/>
      </g>
      <g class="cls-10">
        <path class="cls-7" d="M302.4,296.5v-3.6l.3-3.7-.3-2.6v-5.9h4.2v-2.5l1.1-1.9,1.9-2v-5.6h7.6l20.9.3v-14h27.8v5.7l11-6.2,1.4.3,1.4.3h2.5v1.7l.5,2.3-1.1,6-.5,1.2-1.1.9-1.1,5,.6,1.2v3.1l-19.4.5v4.2l-9.8.2-9.6,1.1-2.8,1.4v12.6l.8,1.2v4.7c.2,0-8.1,5.3-8.1,5.3l-5.1.5-8.4-6.2-7.8-3.4-6.2-2.2h-.8"/>
      </g>
      <g class="cls-10">
        <path class="cls-7" d="M168,180.6l1.1-1.6,1.7-1.4,26-31.5,1.1-1.7,26.2,16.9,2.5.5-2.5,13.2,1.6,7.4,6.4,18.9v12.4l-39.2-.3v-12.9c.2,0,0-2.3,0-2.3l2.6-2.6.8-.8.3-1.6v-6.4l-7.3-2.6-3.3-1.1-5.7-2.2h-4.3l-5.9-.3-2-.5"/>
      </g>
      <g class="cls-10">
        <path class="cls-7" d="M334.2,388.8v18.3h-12.2c0,.2,0-.8,0-.8h-6.8v3.1h.8v25.3h-1.2v.8h-.8v.5h-.2l-.5-.3h-.5v-.2h-.3v-.9h-4.8v1.4h0l-.2-5v-51.3h28.4v9.3h-.9"/>
      </g>
      <g class="cls-10">
        <path class="cls-7" d="M144.8,478.1l1.2-4,2.6-4,3.6-3.7,6.2-2.2,2.2-1.7,2.2-2.5,1.9-4.2,1.7-3.4,3.7-2.2,5.6-.8h2.6c0,.2,3.9-.5,3.9-.5l2.5-1.6,18.9-15.2,5.1-3.6,4.2-3.4,3.6-4.2,1.6-1.6,3.4-1.2h1.4l-.5,3.4,3.4,3.4v4.8l-1.4,1.1v1.1l5.1-.9,9.1-4.8,1.7-.9,2.3-3.1,5.1-2.5h.3l.9,10.4,9.5,18.8v.6c.2,0-.9,1.1-.9,1.1l-.5.3-1.6-3.3-.6-1.2h-.5c0,.2-3.3,2.5-3.3,2.5l-.8.5v.8h-.3l-.2-.2h0v.5c-.2,0-.3.3-.3.3v.3h0v.3h0v.2h0v.3l.5,1.6h-1.2c0-.2.5.6.5.6l1.7,2.2-.3.3-.5.6h-.9l-.5-.3h-.3v1.9h-1.6v1.7h-.8v.3h-.8v1.1h2.3v2.6h-1.6v2.3h-.9v-2.2h-.9v2.6h-4.7v2.9h0v4.5h.6v-.6l.8-.2.8-.3.8-.9-.3-.3.3-.5h.6l.5.2h0c0-.2.2-.2.2-.2h.5v.3l.5.3v-.3l.6.8h0c0,.2-2,.6-2,.6h.2c0,.2.6.8.6.8l.5.5.3.5.3.5v.5c.2,0,.3.5.3.5l.6,2.5.5,1.7h-4.5l.6,2.8,2,.6,1.6.3-1.1,2.8h3.6l.5,1.2h-2c0-.2-2.5-.2-2.5-.2h-8.2l-2-.3,2-4.8-7.3.6-1.6,2h-2l-.5-.9-3.4-3.1v-.9h-.6v1.1h-13.2l-.5.3h-.2v6h0v1.9l-2.3-.3v-1.4h-.6l-.6-.6h-2.5.2c0-.2.2-.5.2-.5l.9-.8.5-.5-5.3-1.4-1.2-.3h-2.8v-4.3h.9v-2.9c-.2,0,.8,0,.8,0v-2.6h-4.7v.2h-.5v5.4h0v5.1h-.8l-.3-.2v-.3h-2.8v-9.6c.2,0,0-.8,0-.8h-.3l-1.2.5h-1.2c0-.2,0,3.1,0,3.1v.3l-2.9.3v-4h-7.9c0-.2-1.1-.2-1.1-.2l.5.6h-.9l-.6-.6-.3.3h-3.1v3.1l.2.8v.5c.2,0,.6.8.6.8h0l.3.5.5.6h.2c0,.2-1.6.5-1.6.5l-1.4,4-3.1.8h-4v1.4h-1.9l-.6-.2h-1.1l-2.5.2h-2.9l-1.4-.3-2.6.3h-.9v-7l-.3-2v-.9"/>
      </g>
      <g class="cls-10">
        <path class="cls-7" d="M241.8,335.8l4.3-14.4v-.6h0l3.9-3.1h16.1l.5-.3.6-.3,1.4-.8v1.4h19.1v20.5l-38-.3h-2.2l-1.1-.6-4.5-1.6"/>
      </g>
      <g class="cls-10">
        <path class="cls-7" d="M358.1,293.6l14.4,7,10.9-1.7v6c-.2,0,0,5.7,0,5.7l.9,34.7v6.7l-14.7-.3h-4.3l-2.5-.6-2.8-.5h-3.1v-25.6l-.8-.6v-6.7h-1.4l-1.4-.8h-7.8l-.9-2v-11.9l1.4-2.2.8-1.4v-2.2l6-3.9h5.1"/>
      </g>
      <g class="cls-10">
        <path class="cls-7" d="M250,317.3l6.2-5.1,12.9-7.8,8.4-.5,10.1-.6,3.7-1.4,5-5.4v9.8l-.8,3.1-.3,1.2-.3,1.6v6.7l-.6.6v5h-7v-6.8h-19.2v-1.4l-1.4.8-.6.3-.5.3h-16.1"/>
      </g>
      <g class="cls-10">
        <path class="cls-7" d="M259,269.4h5.1v5.6h13.8v5.9h4.2v14.9h15l-5.9,6.4-3.7,1.4-10.1.6-8.4.5-2.2,1.4v-4.8h4.5v-1.2l-1.4-1.4v-4h-11v-25.1"/>
      </g>
      <g class="cls-10">
        <path class="cls-7" d="M365.4,365.5v28.1c-.2,0-8.2-4.2-8.2-4.2l-5-2.3-10.9-6.4-1.2-.9-1.6-.8-1.1-.8-1.2-.9-1.7-1.4-1.2-.9-1.6-1.2-1.4-.9-2.6-1.7-2.3-1.7-1.6-1.4-1.7-1.7v-.5h43.6"/>
      </g>
      <g class="cls-10">
        <path class="cls-7" d="M247.9,234.4h31.2v6.8l.9.9v13h1.4v7.4h-3.1v12.6h-13.8v-5.6h-5.1l-3.9-.3v-2.6h-4.3v-2.3h-2.9v-29.8"/>
      </g>
      <g class="cls-10">
        <path class="cls-7" d="M127.6,428.5v-2.5h4.5l.5-.6,1.9-2.2h0v-.3l.6-.8,1.1-1.1.5-.6.3-.5h.2v-.3h0l.6,1.4h.2v2.9h.8v1.1h0c0,.2.3-.3.3-.3v-.3c.2,0,.5-.3.5-.3l.3-.3h.3c0-.2.3-.5.3-.5l.3-.3v-.8h1.1v.3h.5l.2-.2h.3v-2.9h0l.5-.5h.9v-10.2h-1.9v-1.4h.8l-.5-.3h0l.2-.2h.3l.2-.3.6.3h.5v-1.6h0c0-.2-.6,0-.6,0v.9h-.6v-.9h.6v-1.2h1.9c0,.2,3.1,1.4,3.1,1.4l44.2.9h5.9v7h9.5v1.2l-3.6,1.6-.9,1.7-.3,2.2v1.6l.6,4,3.4.3-.5,3.1h0l-4.2,2.9-18.9,15.2-2.5,1.6-3.9.6h-2.6c0-.2-5.6.6-5.6.6l-3.7,2.2-1.7,3.4-1.9,4.2-2.2,2.5-2.2,1.7-6.2,2.2-3.6,3.7-2.6,4-1.2,4h0v-2.9l.2-1.9v-3.3h0c0-.2.2-.5.2-.5h0v-.2h0v-4h-.2c0-.2-1.2,0-1.2,0v.9h0c0,.2-.5,0-.5,0h-.8v-1.9h.8v-3.7h.9v.5h.9v-.8h0v-2.6c-.2,0,0-2.3,0-2.3l-.5-1.4.3-1.6h0v-2.8h0v-6.5h-2.8v-.8h-.3v-1.9c.2,0,.9-.3.9-.3l.8-.3h1.6c0,.2,0,0,0,0h.6c0-.2.3-2.6.3-2.6v-3.3l-.9-1.2v-6.8h-2v.3h-2.5v-.3h-.8l.2,1.4v2h-.9v-2.2h-.8v-.5l-.6.3v.3h-1.1v-.3h-.8v.6h-.6v.3h-.8l.3-.8h-.8v-.3h0v.2h0v.3l-.5.8h-1.9c0-.2-.8-.6-.8-.6h-.2c0,.2,0-.9,0-.9h0l-.5.3h-.2c0,.2-.9,0-.9,0l-1.1,1.1h-.2"/>
      </g>
      <g class="cls-10">
        <path class="cls-7" d="M141,425.1l2.2-.3v1.1h-1.7l-.8-.5.3-.3"/>
      </g>
      <g class="cls-10">
        <path class="cls-7" d="M264.9,379.6h-4l-1.1-.8-2.2-3.4-1.6-5.9-.8-8.2-2-2.8h2c0-.2,5.1,0,5.1,0h2.6l1.4.2.8.3,3.7,1.2,3.4.6,2.5.5,1.4.6,4.7,1.9,1.9.8,1.4.3,2.8.5v14.3h-22.2"/>
      </g>
      <g class="cls-10">
        <path class="cls-7" d="M226.6,288.8l10.1-11.3h0c0-.2,9.6-8.5,9.6-8.5l12.7.5v25l-13-.3-7.8,6.4h-.2l-4.2-5.1-7.3-6.5"/>
      </g>
      <g class="cls-10">
        <path class="cls-7" d="M233.6,304.3l1.9-1.7,2.6-2,6.8,8.7,1.2,11.3v.6l-1.7,6-2.9-1.1.8-2-1.7-.6.5-1.1-1.2-.5.5-1.4-1.2-.5.5-1.2v-1.4h-5.6l-.3-13"/>
      </g>
      <g class="cls-10">
        <path class="cls-7" d="M142.3,384.8v-.9l3.3-.3v-1.9c.2,0,0-1.6,0-1.6v-1.6h-1.7v-.5c.2,0,.6-.9.6-.9l.3-.6.3-.6v-1.2l.2-1.2v-1.7h.8v.3h4.2c0-.2,3.9,0,3.9,0h4.2l3.4-.3h.5c0,.2.2.2.2.2h5.6l.3-.5v-.3h4.3v-.9l.2-1.6h-1.2l.5-.5v-1.4h1.4v-1.2l-.3-.9,5.3-1.1,2.6-2.3h2.2c0-.2,3.7-3.7,3.7-3.7l1.4,3.6-1.1,4.3,2.3,3.3-.5,3.4,1.6,2.8.5,8.2v6.8h3.1l-.3,3.1.5,2.3-.3,1.1-3.6-.3-12.2-6.8h-3.1l-1.7-.8h-2.5c0-.2-2.8-2.2-2.8-2.2h-20.5l-1.7-.3h0v-.3h-1.7l-.3.2h-.3v.2h0v-.9h-.5"/>
      </g>
      <g class="cls-10">
        <path class="cls-7" d="M278.4,214.7l17.7,5.7,13.8,3.6v25.9h-13.5v5.3h-16.6v-13l-.9-.9v-21.5l-.6-2v-2.9"/>
      </g>
      <g class="cls-10">
        <path class="cls-7" d="M291,401.2h.6l1.2-.5.5-.3h1.1l.5.3h.9l1.2-.3h3.9l.5.3h5.6v35.3c.2,0,0,0,0,0h-.3v4h-2.3v-1.9h-.6v1.7h-2c0,.2,0-1.1,0-1.1v-4.2h-4.8l-1.6.2h-11l.9-5.9-2.6-17.7v-1.4c-.2,0-.8-3.9-.8-3.9l.6-.3.3-.5.5-.6v-8.1h4.7l.3.3h.2l.2.3,1.7,4.3h.2"/>
      </g>
      <g class="cls-10">
        <path class="cls-7" d="M353.4,317l1.4.8h1.4v6.7l.8.6v25.6h-34.7l1.9-5.1h-1.7l-.5-7.6-.9-1.6-.3-12.2h-.8v-2h-1.4v-4l.2-1.2h34.7"/>
      </g>
      <g class="cls-10">
        <path class="cls-7" d="M75.6,233v-.3l.2-.3h.2c0-.2.2-.3.2-.3h0l1.1-.3h3.4c0-.2,1.7,0,1.7,0l1.2,4.2,6.2,8.5.9-.9,4.3-.8,2.3,2.5h3.4c0-.2,3.1-2.2,3.1-2.2l.6,2.8,5-8.4h1.2l1.6-2.8,1.2-.6.6-1.6,5.1-3.9-.6,2.8,1.6,1.9-1.6,2.8h1.4c0,.2-.6,2.8-.6,2.8l5.9-4.8.8,3.1,3.1-3.9,2.3.3,5,3.9.6,6.2,3.1-4.3.8-1.1,10.9,12.4,4.2,2.6,2.6,3.3,10.7,12.9,3.4,3.1,6.2,10.2-5.7-.3-2.6,1.2-2.2,1.4-.3,3.3,2.3-1.4,2.6-.3,3.1,1.4,2.6,2.8.9,2.8-.5,1.6v3.6l-.5,4,2.5-.3,2.5-2.5,2-4,.3-3.1,3.4.5.6,5.7-1.4.9,2.9,2.8,1.4,1.7v5.6l4,.3,1.7,2.9-.5,1.4.5,4.8,1.4,1.4h2.3c0,.2-.9,1.7-.9,1.7l2.6,2v1.2l.3,1.2.3,1.1-.8,2.5-2.9,5.3-6.5,4.2-1.6,4.8-.9,1.6-5.4,1.7h-4.3c0,.2-8.2-2.8-8.2-2.8h0v-.6h0l-.5-.5.8.5h0l.3-.3h0l.3.3v-.6l.3-.8h-.2v-.3h.2c0-.2.5.3.5.3v.3c.2,0-.3.9-.3.9v.3c-.2,0,0,0,0,0l1.9.5v-10.1c-.2,0-.3-1.6-.3-1.6l-.9.3h0v.2l-.5.6h0v.2h-.6v-.3h0v.2h-.2c0,.2.8-1.2.8-1.2l-.6-.5,1.1-.9h1.1l.9-.3h0v-.2h0v-.5l-.9-1.9-2.9.9h.3l.2.6v1.4c.2,0,.2.5.2.5h-.3c0-.2-.3,0-.3,0v.8l-1.1,1.4-.8.8-.3.9h0l-.5-.3,2.2-4.8h.5v-.6l-.5-.3-.3.9-.3.3-.5.6h-1.2v.8l-.2.3-.3.5-.3.3h.9l-1.9,2.2,1.1.5v.6c.2,0,.5.2.5.2h.6l.8.3.6-1.6h0c0-.2,1.4-.2,1.4-.2h.3l1.4.3v1.1h-.5v-.6h-1.1c0,.2-.6,0-.6,0l-.3.6.8.3-.6,1.1-.3.8h-.8c0,.2-.2.8-.2.8l.8.5.9-1.2,1.2-1.9h.3l.3.3-1.1,1.7-.6.9.6.6-.3.6-.3.5.3.3-.8.8h-.5v.8l-.3-.2-1.4-.9-1.2-.5-1.1-.3h-1.2l-1.1.2-1.2.3-2,.6v4.3h.8v.3h.9v1.2h-.3l-.5-.5h-.2l-.3-.2h-.8l-.3-.5-.3-.3v2.5h-2.2v-2.2h0v-2h-.5v-1.1h-.6v-.3h-1.2v.3h0v.3h0c0,.2.3-.3.3-.3l1.2,1.6-.3.6h-1.4l-1.6,2.2-1.4-1.9-.9-1.2h-.5l-.6.9-1.9,2.5-.5.6h-.8v-.5l-.3.3h-1.4v-3.4l-.6.3h-.2l-.5.5v1.1h0v-1.2l.6-.6v-.8l-1.4,1.2h0v-.3l1.1-1.2h-.2c0-.2-.5-.3-.5-.3h.3v-.3h0l.9-.6h-.3l-2,.8h0v-1.2c.2,0,0-2.5,0-2.5h3.1v.8l-.6.3h0l.6-.2h.8v.2h1.4l-.9-.8-.8-.6h-.3c0-.2-.3-.6-.3-.6v-.3h-.3v-.6h.3v.9l.8.8h3.3v-1.4h-.5v-.9l-1.4-.2v1.2h-.9v-1.2h-1.7v-.9l.3-2.2v-1.1c.2,0,0-.5,0-.5l-.3-.9h.3l1.1-.3h0v-.2h0v-.3h0v-.3h0l-.2-.3h0v-.2h0v-.3h0l-.8-.5v-.5h.2l.6.2.8-.8v-.5h0v-.3h-.2l-.6-.2h-.6c0,.2-1.1.9-1.1.9h-.5v2.2h-.6v-1.6h-.2l-.2.2h-3.4v-.3h.3l1.6-.9.5-.3h.3v-5.3l-.3-2.6v-1.1h-.6c0-.2-.2-.3-.2-.3l-.3-.5h0v-1.2l-.2-.3h0c0-.2-.2-.5-.2-.5h-.3c0-.2-.3-.5-.3-.5h-.2c0-.2-.2-.3-.2-.3l-.3-.5-.5-.8v-.3l-.2-.2-.3-1.7h0v-.3h0v-.3h-.3l.9-1.1.6-.8.5-.6h0l.2-.3v-.3l.2-.3v.6c.2,0,.3.2.3.2h0c0,.2.3.5.3.5v.3c.2,0,.2.3.2.3h1.1v-.5h0v-.5h3.6v6.8h14.3v4.3h.6v-.3h2.2v-4h1.9l1.2-.9v-.3h.3l.5-.6h.8v-2.5l1.2,1.7v.5h.5l.5-3.9-2.2,1.7-1.9,1.4v.5h-2.6l1.2-5h-1.2c0,.2-.8.3-.8.3l-2,.3h-.2l.5,1.7-.6,1.1h-4.8v-3.1h2.8v-2.2l-.3-.3h-1.1l-.3-1.4h1.1v-.8c-.2,0-.5-.3-.5-.3v-.3c-.2,0-.5-.3-.5-.3l-.3-.3h-.3c0-.2-.5-.5-.5-.5h-.5l-.9-.2v-.5h0l.9.2h.9l.2-.2.3-.3h.3v.3h0v.3h0v.2h.5v-.2h.2l.2-.3h0l1.4.2,4.8,1.1h1.9l.9-.5v-1.9h0v.9c.2,0,.5.2.5.2h.6l1.1-.6v-2.8h-.5v-.8h-.6v-.9h-3.3l-4.3-1.7h-3.9v1.6l-.5-.5h-2.5v1.6h-2.8v1.1l-2.6-2.2v-1.6h-2.3l-.3-.8.8-.9h4v-1.6h-5l.6-1.2h5.4v-1.9h-4.7l.3-.6v-.6h2.9v-1.1h-3.1v-.2h0c0-.2-.5-.8-.5-.8l-.5-.6-.5-.6-2.5-1.7-.5-.5h0l-.2-.2h-.5l-.3-.3h-.2v-14h-11.6v6.2h-1.6v1.2h-.5v-1.4h-.5l.3-.5v-5.4h-11.9v-6.5l-2.8.3-3.9,2.9h-3.1v.6l.3.3h.2c0,.2.3.5.3.5l.3.3,1.4,1.2,2.3,2.2h.2c0,.2.3.3.3.3h.9l.2-.2.6-.3h1.7c0,.2.6.5.6.5h.5l.3.3h.2c0,.2.2.3.2.3h.2v.5l1.4,2.5v.3l.3.3.3,1.2v1.1h.8l5.4-1.1v1.4h0v2.9h.2v1.2h3.3l-.3,7.4h-3.4l-.8-.9v-1.2h-1.4v-.6h1.1v-.6h.9v-.3l-.8-.5h-1.7l-.5-.6-.3-.5v1.7h0v.8h0v.3l-.5.5h0v1.2l.2.2h.2v.3l.6.3h.2l.2.3h0c0,.2.8,1.7.8,1.7h0v.6h1.1l-.2.6-.5.5v.5l.2.6.6-.5,1.1,1.2v.5h3.1l.5-2.8-.6-3.6h5.4c0-.2,0,.6,0,.6v5.3h.6v7h-2.6v-1.9h-2.9l-.3-.2-1.1,1.1-.9,1.2h-1.4l-.9,1.1-.5.6h0c0,.2-1.7-1.7-1.7-1.7l-3.3.6h-.8l-.8.2h-.5l.5.6h0l.2.5v1.7h-1.2v.8h-2v-.8h-.8c0,.2-1.6,0-1.6,0v-1.2h1.6v-1.6h.6v.9h1.1v-3.6h-1.9v-.3h-1.2v-4.8h-8.7l-2.8.3h-.3v6.4h0c0,.2-4.3,0-4.3,0h-3.4v-.3l-.3-3.9-.6-2.9h-4.7v-13.3l.2-2.5h2.9l-1.2-2.5h0c0-.2-.3-.6-.3-.6h0l.2-.2v.3c.2,0,.6.5.6.5l.6-.3.3.5.5-.6.8,2.2v1.1c.2,0,.3-.2.3-.2v-.3c.2,0,.6-.2.6-.2h.3c0-.2.6-.5.6-.5l-.9-5.3h.8l3.1,1.7.6-.9-2-1.1v-5.3h-3.6v-.6h-1.7v.8h-2.8v-.5h1.7v-2.5h-1.7v-12.2h-9v-6.8c-.2,0-2.8-6.2-2.8-6.2l-2.9-7.3v-.3"/>
      </g>
      <g class="cls-10">
        <path class="cls-7" d="M157.2,328.6l.8.3h.6c0,.2.3.3.3.3h.9l.5-.3.8-.6h.3c0-.2.3-.3.3-.3h.3l-.5,2.5v1.1l.3.3h.2c0,.2.2.3.2.3h1.1l1.1-.5v1.2l-3.7.8h-.5v.6h-2.3v-.5h-1.1v-5.7l.9.6"/>
      </g>
      <g class="cls-10">
        <path class="cls-7" d="M169.3,316.5l1.1-.3h.6c0-.2,0,1.2,0,1.2h-2.2l.5-.8"/>
      </g>
      <g class="cls-10">
        <path class="cls-7" d="M392.8,327.2v-2.8h27.9c0-.2,10.2-.2,10.2-.2l.3,25.1v3.6h-7.4c0-.2-6.2-.2-6.2-.2h-2.9c0-.2-7.6-.3-7.6-.3v-7.1l-.2-6.5-.3-1.6-2.3-1.9-1.9-1.2-4.5-2.8-3.4-2.8-1.6-1.4"/>
      </g>
      <g class="cls-10">
        <path class="cls-7" d="M232.1,258.2v-23.9h15.8v29.8h2.9v2.3h4.3v2.8l-8.8-.3-9.6,8.4-4-6-.6-13"/>
      </g>
      <g class="cls-10">
        <path class="cls-7" d="M146.8,91.4v-.5c-.2,0-.3-.5-.3-.5h1.7l4.3.8,7.9,6.8,14.1,6.7,3.4-1.9,19.4,11.8,6.2,6,5.4,8.7,6.2,5.1,2.6-1.9,3.4.8,11.5,7.6,7.9,5.9,1.9,2.6-14.7,2.9-21.2-12.6-15-8.4-9.8-6.8-2.6-3.4-6.2-2.5-16-14.4-8.8-9.5-1.6-3.4"/>
      </g>
      <g class="cls-10">
        <path class="cls-7" d="M81.2,136.2l.5-3.3v-.5l2-24.2,6.2.3-.3-5.1h-5.7c0,.2,4.8-3.3,4.8-3.3l5.3-3.9,17.8-17.7,5.6-10.9.9-1.7,1.1,1.4,13.3,12.9-1.1,1.1,7.3,8.7,6.2,6.4,9.8,9.9.9.9,2.6,2.6,5.7,7.4,8.7,3.7,7.3,7.8,2.8,1.7,11,6.7h3.6l3.3,3.4-2,3.3-1.4,2.3-26,31.5-1.7,1.4-1.1,1.6-.8,2.6-2.3,2.8-26.2-8.5h-1.6l-8.5-13.6-2.8,1.1-25.1,10.2-14.7-26.8-5.3-12.1h0"/>
      </g>
      <g class="cls-10">
        <path class="cls-7" d="M221.4,295.8l.6-2.2,4.3-4.7v-.5l7.6,6.7,4.2,5.3-2.6,2-1.9,1.7.3,13.2h-10.2c0,.2-.9.2-.9.2l-.5-1.2-.5-5.4-.3-15.2"/>
      </g>
      <g class="cls-10">
        <path class="cls-7" d="M155.6,196.9l11.6-13.8.8-2.6,2,.5h5.9c0,.2,4.3.3,4.3.3l5.7,2.2,3.3,1.1,7.1,2.6v7.9l-.8.8-2.6,2.6.3,2.3v12.9h-1.7l-4.3-2-23.3-11.6-1.9-.9-6.5-2.2"/>
      </g>
      <g class="cls-10">
        <path class="cls-7" d="M315.2,406.3h6.8v.9h12.2c0-.2,29.5-.3,29.5-.3v-1.7h1.4v28.8h-.3v-2h-1.2v2h-3.6l-1.9.2h-.6c0-.2-1.2-.2-1.2-.2v-1.7h1.2v-1.7h-1.2v.9h-.6v-.9h-1.4v2.2h.9v.6h-.9v.5h-1.1v-1.7h-.9v.8h-.5v.8h-8.8v1.2h-.3v-1.2h-.6v1.2l-.6-.3h0v-1.1h-.5v1.2h-.3v-.5h-.3v-.8h-8.4l-1.2-.2h-1.4v.8h-1.1l-1.2.5-.3-.9h-1.6v2h.8l-.5.8h.5l-.5,1.6-.8-.5h-.3v-.2h-.3v-2l-1.1-1.4h0l-.5-1.1-.6-.3-.5-.6-2.2,1.7-.5.3v1.1l-1.9-.8h-.2l-.8-.2h-.5v-25.3h-.5v-3.1"/>
      </g>
      <g class="cls-10">
        <path class="cls-7" d="M202.8,351.3l.9-1.9,4,.9.6-.8,5.1,1.6,2.5,2.8h5.4l1.4-.9.8-.6.5-.9-1.2-3.4,1.2-2.5,1.2,1.4,2.8,1.7h0c0,.2.2,8.4.2,8.4l5.6,12.4.5,2.6.6,2.5-2.2,4-2.5,1.1-3.1,2.6-.3,2-9.9-.3-1.1.5-1.9-.8-1.9,3.1-.6-1.2.8-1.9-2.6-3.4.5-.9-1.4-3.1.6-3.1h-1.9l.5-2.3-.9-.9-.8-.3-2.2-1.1,2.5-3.7-.9-4.3,1.4-2.6-1.9-3.6-1.4-2.8h-1.4"/>
      </g>
      <g class="cls-10">
        <path class="cls-7" d="M146.3,208l2.5-3.4,6.8-7.8h0l6.5,2.2,1.9.9,23.3,11.6,4.3,2h1.4v4.7l-6.7-.8-5.7.5-2.9,1.6-5.1,5.1.5.5-7.1,3.6-6.4-2.8-13.2-17.8"/>
      </g>
      <g class="cls-10">
        <path class="cls-7" d="M320.7,324.3l.3,12.2.9,1.6.5,7.6h1.7l-1.9,5v7.1l-.5,1.6v6.2l-15,.5-4.8.6-8.1.5-1.6-.5v-10.7h-1.4v-8.1h-1.6v-10.2h-1.7v-13.6h33.3"/>
      </g>
      <g class="cls-10">
        <path class="cls-7" d="M248.3,396.2l1.2-24.3,2.8-10.4v.3l.6,1.2,1.2,7.9,3.7,8.4-6.4,15.3,2.6,4.2,3.4-8.4,2.6-2-2-1.1v-4.7c.2,0,2-2.3,2-2.3l4.3,5.9h0c0,.2-11.3,18-11.3,18l-1.1,1.2v-1.7l.5-3.3-.9-2.2-.3.8-3.1-3.3"/>
      </g>
      <g class="cls-10">
        <path class="cls-7" d="M278.1,280.9v-18.3h3.1v-7.3h15.2v18.1h2.6l1.1,1.4v1.2h2.5l5,.6-1.1,1.9v2.5h-4v12.2l-.3,3.6-5.1-.9h-15v-14.9h-4.2"/>
      </g>
      <g class="cls-10">
        <path class="cls-7" d="M337.9,296.8v-12.6l2.8-1.4,9.6-1.1h9.8v-4.5l19.4-.5v-3.1l-.6-1.2,1.1-5,1.1-.9.5-1.2,1.1-6,4.8,5.1,2.5,4.2v2.2l-3.1,16.1-3.1,12.1-10.9,1.7-14.4-7h-5.1c0-.2-14.3,9.1-14.3,9.1v-4.7c-.2,0-.9-1.2-.9-1.2"/>
      </g>
      <g class="cls-10">
        <path class="cls-7" d="M231.9,200.7l1.2-.3,3.3.5,11.9,2.6,6.8,2.9,8.5,3.6,9.1,2.9,5.6,1.9v2.9l.8,2v10.9l-.2,3.7h-47v-33.5"/>
      </g>
      <g class="cls-10">
        <path class="cls-7" d="M169.9,235l6-3.6,6.4,5.6,7.6,5.4,8.7,7.3,4.5,1.1-1.7-3.4-3.9-4.3-7.9-6-5.4-6-5.6-4-6-2.2,5.1-5.1,2.9-1.6,5.7-.5,6.5.8,4.3,1.1,3.1,2.5,2.5,3.6.6,2.2,1.1,3.3.5,3.6h27.1v23.9l.6,13,4.2,6.2-10.1,11.3-2.6-2.3-9.3-11-.6-6.7-5.4-10.4-6.2-2.5-6-.8-7.9-2.5-18.6-17.8"/>
      </g>
      <g class="cls-10">
        <path class="cls-7" d="M365.4,365.5h-41.9c0,.2-1.7,0-1.7,0v-6.2l.5-1.6v-7.1h37.8l2.8.5,2.5.5v14"/>
      </g>
      <g class="cls-10">
        <path class="cls-7" d="M222.6,421.5l.5-3.6h.2l5.4,1.2h2.2l1.4-.5,2-2.8-.5-3.3-1.4-5.3-2-8.5-.3-5.6-3.1-8.4.5-2.6,3.1-2.6,2.5-1.1,2.2-4-.6-2.5-.5-2.6-5.6-12.4v-8.2c-.2,0-.2-.2-.2-.2l1.9,1.1,4.5,1.4h3.3l4.8-2.5,2.9-2.2,4.7,12.4-2,9.5-4.5,14.1-.5,8.7,1.9,8.2,4,7.6-1.9,5,.6,8.1h-.3l-5.1,2.6-2.3,3.1-1.7.9-9.1,4.8-5.1.9v-1.1l1.2-1.1v-4.8l-3.3-3.4"/>
      </g>
      <g class="cls-10">
        <path class="cls-7" d="M140.3,405.7v-.8l.3-1.6h0v-.8l-.2-.5v-.3h-.3,1.4l.5.3h.8c0,.2,2.3.9,2.3.9v-1.2c-.2,0-.3-2.8-.3-2.8v-7.9c-.2,0-.2-.2-.2-.2v-2.9l.2-.2v-1.9h1.7c0,.2,20.5.3,20.5.3l2.8,2h2.5c0,.2,1.7.9,1.7.9h3.1l12.2,6.8,3.6.3.3,10.7-44.2-.9-3.1-1.2h-1.9c0-.2-1.7-.8-1.7-.8l-1.4-.3.6.5.3.3h0v.2h0v1.2h-1.2v-.8h-.5v.6h-.5"/>
      </g>
      <g class="cls-10">
        <path class="cls-7" d="M363.8,406.9h-29.5v-18.1h1.1v-9.3h.8v-2.3l1.2.9,1.1.8,1.6.8,1.2.9,10.9,6.4,5,2.3,8.1,4.2v11.6h-1.4v1.7"/>
      </g>
      <g class="cls-10">
        <path class="cls-7" d="M241.7,336.1v-.3l4.7,1.6,1.1.6h2.2l38,.3h1.6l.2,10.2h1.6v8.1h1.6v10.7l-2.6-.6-1.6-.5-1.2-.3-2.8-.5-1.4-.3-1.9-.8-4.7-1.9-1.4-.6-2.5-.5-3.4-.6-3.7-1.2-.8-.3h-1.4l-2.6-.2h-5.1c0-.2-5.1.3-5.1.3l-4.7-12.4-3.9-10.4"/>
      </g>
      <g class="cls-10">
        <path class="cls-7" d="M117.2,208l.9-2.3,1.6-.8,2.9-1.4,11,5.7,20,16,13.8,14.7,18.3,14,4.2,3.3,16.4,8.2,17.8,21.1,2.3,2v.5l-4.3,4.7-.6,2.2.3,15.2.5,5.4,1.1,2.6-2,8.2-1.2,3.3-1.7,3.9h0l-.6-.9-1.4-.8-1.7-.3-6-1.9h-1.1l-3.9.8.8-2.5-.3-1.1-.5-1.2v-1.2l-2.5-2,.9-1.6h-2.3c0-.2-1.4-1.6-1.4-1.6l-.5-4.8.5-1.4-1.7-2.9-3.9-.3v-5.6l-1.6-1.7-2.9-2.8,1.4-.9-.6-5.7-3.4-.5-.3,3.1-2,4-2.5,2.5-2.5.3.5-4v-3.6l.5-1.6-.9-2.8-2.6-2.8-3.1-1.4-2.6.3-2.3,1.4.3-3.3,2.2-1.4,2.6-1.2,5.7.3-6.2-10.2-3.4-3.1-10.7-12.9-2.6-3.3-4.2-2.6-10.9-12.4-2.2-2.5-3.3-3.1-3.9-3.6-11-17.2-3.1-4.3"/>
      </g>
      <g class="cls-10">
        <path class="cls-7" d="M448.3,296.4v-7l.8-1.1.3-4.8,1.6.3v-1.7c-.2,0-.3-.9-.3-.9l-.3-2.6,6.7,1.4.5-13.6-.5-5.6v-14.1c.2,0,.3-7.1.3-7.1l12.9,4.2h23.9l7.6,1.6v3.9h1.9l2.9-.3v14.1h1.6v.8h-1.4v1.9l.3.6v.5l.2.6h-1.6l-.5-.9h0c0-.2-2.5-.3-2.5-.3l-1.6-1.2v2.2h-1.1v1.9l-11.6-1.4-4.8-.6h-.6v.2l.6,1.6h-.6c0-.2,0,10.5,0,10.5v.8h-6.7v.5h0v10.9h0v6.2h-1.2v.6h0v.8h-.5v.8h-.5v.8h-.2v1.1h.8v.3h.6v1.2h.5v1.6h-1.2v1.9h-.6v.8h-1.1v2.3h.5v.9h.6l.8,2v4.7h-.8v1.2h.8v.3h0v3.9h.6v1.2h-18.1v-15.7c.2,0,2.8-4,2.8-4l-.5-7.9h-10.5"/>
      </g>
      <g class="cls-10">
        <path class="cls-7" d="M420.7,296.5l.3-24.5v-24.8l6.5-18,18.4,6.4,11.5,3.7v7.1l-.3,14.1.5,5.6-.5,13.6-6.7-1.4.3,2.6v.9l.3,1.7-1.6-.3-.3,4.8-.6,1.1v7l-27.6.2"/>
      </g>
      <g class="cls-10">
        <path class="cls-7" d="M294.5,319.5l.6-.6v-6.7l.3-1.6.3-1.2.8-3.1v-9.8l.9-.9,5.9,1.1,6.2,2.2,7.8,3.6,8.4,6.2,5.1-.5,16.3-10.7v2.2l-.8,1.4-1.4,2.2v11.9l.9,2h-27v5.3h1.4v2h-25.4v-5"/>
      </g>
      <g class="cls-10">
        <path class="cls-7" d="M383.2,304.9v-6c.2,0,2-1.9,2-1.9l8.1-.3,55-.5h10.5l.5,7.9-2.6,4v10.2c-.2,0-.3,5.6-.3,5.6h-8.7v7.3l.9,4.2v2.3l1.1,1.1v2.2c.2,0,.3,1.2.3,1.2v10.2l-7.1.3h-11.8c0,.2,0-3.4,0-3.4l-.3-25.1h-25.9c0,.2-1.9,0-1.9,0h-10.4v2.8l1.6,1.4,3.4,2.8,4.5,2.8,1.9,1.2,2.3,1.9.3,1.6v6.5l.2,7.1h0l-22.6-.5v-6.5l-.9-34.7v-5.7"/>
      </g>
      <g class="cls-10">
        <path class="cls-7" d="M422.6,318.6v-.3h.9v1.1h-.9v-.8"/>
      </g>
      <g class="cls-10">
        <path class="cls-7" d="M428.5,316.5v-.5h.5v.8h-.5v-.3"/>
      </g>
      <g class="cls-10">
        <path class="cls-7" d="M278.9,379.6l3.1,16.3h1.9v8.1l-.5.6-.3.5-.6.3.6,3.9v1.4c.2,0,2.8,17.7,2.8,17.7l-.9,6h-3.3v.5h0v2.8h0v.9l.2,1.1h-7.4v.5c.2,0,.3.2.3.2h0v2.5c.2,0-.8.3-.8.3v2.2l-1.2-.2h-.9l-2.3.3h-1.6v.2h-2v-5.4h-.6l-1.7.2h-2.5v-.5h-.3l-2.5,1.1h-.8l-1.9-5.1-1.2-3.1-2.5-3.3.3-18.8,8.1-7.3,1.7-2.9,1.6-5.1,1.7-3.9-.3-9.1-3.7-3.1h18"/>
      </g>
      <g class="cls-10">
        <path class="cls-7" d="M296.4,273.3v-23.4h13.6v-20l-.2-1.1v-4.8l8.7,2.2v-12.9l2.8,1.2,5.4-.3,2.5.9,3.6,1.4,3.6.5,4.2,1.9h10.4l6.7,3.9,4.7,3.1,4.8,1.9,10.5,2.8,7.3.3,1.2.6h2c0,.2,2.3,1.6,2.3,1.6l5.4.8-13,14.7-1.7,5.4.6,1.7h-2.5l-1.4-.5-1.4-.3-11,6.2v-5.7h-27.6v14l-21.1-.3h-7.4v5.6l-1.9,2-5-.6h-2.5v-1.2l-1.1-1.4h-2.6"/>
      </g>
      <g class="cls-10">
        <path class="cls-7" d="M447.7,324h26.8v.3h.6v1.1h2.2v.5h.5v-.5h.8c0-.2.9-.2.9-.2v.5h.9l.8.3v-.3h.9v.5h.8v-.5h0l.6-.6h0v.6h.9v.8h2.8v-.6h1.2c0-.2.6-.2.6-.2h0c0,.2.5.2.5.2v.3h.2v.3h.3v-.3h.6v.5h.5v-.9h1.2v12.9l.5,1.4h.9v1.7c.2,0,0,0,0,0v.6h-.9v7.4h.5v2.8h-.8v.9l.3.3v1.4h-.3v.3h-.2v.5h0l-.2.6h.2v2.5h2.9v1.1h-.3v1.6l.5.9v2.9h-3.4v3.7l2.6-.5v.5h6v1.7h-.6l-.5,1.2h-5.7l-.5,3.1v.5l.6,2-.3,1.4h-1.7v1.4h-2.3v-1.7h-4.5v5.3h.2v.3h0v1.2l-4.7.8-1.1-22-1.4-2.2h-2l-1.9-1.1h-1.1c0-.2-4.3,0-4.3,0l-.5,6.4-5.1-.6h-2.2c0,.2-2,.6-2,.6h-1.9c0-.2-5-.6-5-.6l-2.8.3v-14.6l1.4-.8.3-9v-1.4l-.2-1.2v-2.2c-.2,0-1.1-1.1-1.1-1.1v-2.3l-1.1-4.2v-7.3"/>
      </g>
      <g class="cls-10">
        <path class="cls-7" d="M479.8,387.5l3.3,1.4.3-.9.5-.8h2.3l-.5.9v.3h.5v.5h-.3c0,.2-.9.6-.9.6h-.6c0,.2-1.7,2.6-1.7,2.6h-.8v1.1l-.6.3-.8.9-.3-6.7"/>
      </g>
      <g class="cls-10">
        <path class="cls-7" d="M393,182.7l9.6,5.9,5.3,5.1,9.6,5.9,7,2.5,12.2,5,1.9,4.3,1.9,4.3,2.6,4.3,5.3,1.7-.9-5.3-6.4-12.1,3.6.8,20.9,5.7,11.3-.3,16.6,5,14,5,10.5,7.6-8.7,2.8-15.7-1.4-7,.9-13,3.7-5.3-.8-14.1-6.7-11.3-.6-2.6-.8-9.8-13.8-11.3.3-8.8-3.3-5.3-5.1-11.6-14.6-.9-6"/>
      </g>
      <g>
        <path id="m5f32ede703" class="cls-8" d="M272.1,420.9c1.4,0,2.8-.6,3.9-1.6s1.6-2.5,1.6-3.9-.6-2.8-1.6-3.9-2.5-1.6-3.9-1.6-2.8.6-3.9,1.6-1.6,2.5-1.6,3.9.6,2.8,1.6,3.9,2.5,1.6,3.9,1.6Z"/>
        <path id="m5f32ede703-2" class="cls-8" d="M280,315.3c1.4,0,2.8-.6,3.9-1.6s1.6-2.5,1.6-3.9-.6-2.8-1.6-3.9-2.5-1.6-3.9-1.6-2.8.6-3.9,1.6-1.6,2.5-1.6,3.9.6,2.8,1.6,3.9,2.5,1.6,3.9,1.6Z"/>
        <path id="m5f32ede703-3" class="cls-8" d="M287.2,384.4c1.4,0,2.8-.6,3.9-1.6s1.6-2.5,1.6-3.9-.6-2.8-1.6-3.9-2.5-1.6-3.9-1.6-2.8.6-3.9,1.6-1.6,2.5-1.6,3.9.6,2.8,1.6,3.9,2.5,1.6,3.9,1.6Z"/>
        <path id="m5f32ede703-4" class="cls-8" d="M265.5,338.9c1.4,0,2.8-.6,3.9-1.6s1.6-2.5,1.6-3.9-.6-2.8-1.6-3.9-2.5-1.6-3.9-1.6-2.8.6-3.9,1.6-1.6,2.5-1.6,3.9.6,2.8,1.6,3.9,2.5,1.6,3.9,1.6Z"/>
      </g>
      <rect class="cls-1" x="101.4" y="160.6" width="452.1" height="293"/>
      <path id="m55f24ed21c" class="cls-5" d="M249.9,337.3c1.4,0,2.8-.6,3.9-1.6s1.6-2.5,1.6-3.9-.6-2.8-1.6-3.9-2.5-1.6-3.9-1.6-2.8.6-3.9,1.6-1.6,2.5-1.6,3.9.6,2.8,1.6,3.9,2.5,1.6,3.9,1.6Z"/>
      <rect class="cls-1" x="101.4" y="160.6" width="452.1" height="293"/>
      <g>
        <path id="md9496a7ec6" class="cls-2" d="M131.3,196.1c1.4,0,2.8-.6,3.9-1.6s1.6-2.5,1.6-3.9-.6-2.8-1.6-3.9-2.5-1.6-3.9-1.6-2.8.6-3.9,1.6-1.6,2.5-1.6,3.9.6,2.8,1.6,3.9,2.5,1.6,3.9,1.6Z"/>
        <path id="md9496a7ec6-2" class="cls-2" d="M240.9,328c1.4,0,2.8-.6,3.9-1.6s1.6-2.5,1.6-3.9-.6-2.8-1.6-3.9-2.5-1.6-3.9-1.6-2.8.6-3.9,1.6-1.6,2.5-1.6,3.9.6,2.8,1.6,3.9,2.5,1.6,3.9,1.6Z"/>
        <path id="md9496a7ec6-3" class="cls-2" d="M203.5,295.3c1.4,0,2.8-.6,3.9-1.6s1.6-2.5,1.6-3.9-.6-2.8-1.6-3.9-2.5-1.6-3.9-1.6-2.8.6-3.9,1.6-1.6,2.5-1.6,3.9.6,2.8,1.6,3.9,2.5,1.6,3.9,1.6Z"/>
        <path id="md9496a7ec6-4" class="cls-2" d="M318.3,343.4c1.4,0,2.8-.6,3.9-1.6s1.6-2.5,1.6-3.9-.6-2.8-1.6-3.9-2.5-1.6-3.9-1.6-2.8.6-3.9,1.6-1.6,2.5-1.6,3.9.6,2.8,1.6,3.9,2.5,1.6,3.9,1.6Z"/>
        <path id="md9496a7ec6-5" class="cls-2" d="M263.7,350c1.4,0,2.8-.6,3.9-1.6s1.6-2.5,1.6-3.9-.6-2.8-1.6-3.9-2.5-1.6-3.9-1.6-2.8.6-3.9,1.6-1.6,2.5-1.6,3.9.6,2.8,1.6,3.9,2.5,1.6,3.9,1.6Z"/>
      </g>
      <rect class="cls-1" x="101.4" y="160.6" width="452.1" height="293"/>
      <g>
        <path id="m66dda572d2" class="cls-3" d="M227.9,324.4c1.4,0,2.8-.6,3.9-1.6s1.6-2.5,1.6-3.9-.6-2.8-1.6-3.9-2.5-1.6-3.9-1.6-2.8.6-3.9,1.6-1.6,2.5-1.6,3.9.6,2.8,1.6,3.9,2.5,1.6,3.9,1.6Z"/>
        <path id="m66dda572d2-2" class="cls-3" d="M269.6,260.3c1.4,0,2.8-.6,3.9-1.6s1.6-2.5,1.6-3.9-.6-2.8-1.6-3.9-2.5-1.6-3.9-1.6-2.8.6-3.9,1.6-1.6,2.5-1.6,3.9.6,2.8,1.6,3.9,2.5,1.6,3.9,1.6Z"/>
        <path id="m66dda572d2-3" class="cls-3" d="M282.7,231c1.4,0,2.8-.6,3.9-1.6s1.6-2.5,1.6-3.9-.6-2.8-1.6-3.9-2.5-1.6-3.9-1.6-2.8.6-3.9,1.6-1.6,2.5-1.6,3.9.6,2.8,1.6,3.9c.9,1.1,2.5,1.6,3.9,1.6Z"/>
        <path id="m66dda572d2-4" class="cls-3" d="M325.8,288.3c1.4,0,2.8-.6,3.9-1.6s1.6-2.5,1.6-3.9-.6-2.8-1.6-3.9-2.5-1.6-3.9-1.6-2.8.6-3.9,1.6-1.6,2.5-1.6,3.9.6,2.8,1.6,3.9,2.5,1.6,3.9,1.6Z"/>
        <path id="m66dda572d2-5" class="cls-3" d="M523.4,283.4c1.4,0,2.8-.6,3.9-1.6s1.6-2.5,1.6-3.9-.6-2.8-1.6-3.9-2.5-1.6-3.9-1.6-2.8.6-3.9,1.6-1.6,2.5-1.6,3.9.6,2.8,1.6,3.9,2.5,1.6,3.9,1.6Z"/>
        <path id="m66dda572d2-6" class="cls-3" d="M248.3,270.5c1.4,0,2.8-.6,3.9-1.6s1.6-2.5,1.6-3.9-.6-2.8-1.6-3.9-2.5-1.6-3.9-1.6-2.8.6-3.9,1.6-1.6,2.5-1.6,3.9.6,2.8,1.6,3.9,2.5,1.6,3.9,1.6Z"/>
        <path id="m66dda572d2-7" class="cls-3" d="M210.5,317c1.4,0,2.8-.6,3.9-1.6s1.6-2.5,1.6-3.9-.6-2.8-1.6-3.9-2.5-1.6-3.9-1.6-2.8.6-3.9,1.6-1.6,2.5-1.6,3.9.6,2.8,1.6,3.9,2.5,1.6,3.9,1.6Z"/>
        <path id="m66dda572d2-8" class="cls-3" d="M266,429.1c1.4,0,2.8-.6,3.9-1.6s1.6-2.5,1.6-3.9-.6-2.8-1.6-3.9-2.5-1.6-3.9-1.6-2.8.6-3.9,1.6-1.6,2.5-1.6,3.9.6,2.8,1.6,3.9,2.5,1.6,3.9,1.6Z"/>
        <path id="m66dda572d2-9" class="cls-3" d="M297.2,357c1.4,0,2.8-.6,3.9-1.6s1.6-2.5,1.6-3.9-.6-2.8-1.6-3.9-2.5-1.6-3.9-1.6-2.8.6-3.9,1.6-1.6,2.5-1.6,3.9.6,2.8,1.6,3.9,2.5,1.6,3.9,1.6Z"/>
        <path id="m66dda572d2-10" class="cls-3" d="M233.9,247.2c1.4,0,2.8-.6,3.9-1.6s1.6-2.5,1.6-3.9-.6-2.8-1.6-3.9-2.5-1.6-3.9-1.6-2.8.6-3.9,1.6-1.6,2.5-1.6,3.9.6,2.8,1.6,3.9,2.5,1.6,3.9,1.6Z"/>
        <path id="m66dda572d2-11" class="cls-3" d="M257,321.2c1.4,0,2.8-.6,3.9-1.6s1.6-2.5,1.6-3.9-.6-2.8-1.6-3.9-2.5-1.6-3.9-1.6-2.8.6-3.9,1.6-1.6,2.5-1.6,3.9.6,2.8,1.6,3.9,2.5,1.6,3.9,1.6Z"/>
        <path id="m66dda572d2-12" class="cls-3" d="M233.4,341c1.4,0,2.8-.6,3.9-1.6s1.6-2.5,1.6-3.9-.6-2.8-1.6-3.9-2.5-1.6-3.9-1.6-2.8.6-3.9,1.6-1.6,2.5-1.6,3.9.6,2.8,1.6,3.9,2.5,1.6,3.9,1.6Z"/>
        <path id="m66dda572d2-13" class="cls-3" d="M227.1,330c1.4,0,2.8-.6,3.9-1.6s1.6-2.5,1.6-3.9-.6-2.8-1.6-3.9-2.5-1.6-3.9-1.6-2.8.6-3.9,1.6-1.6,2.5-1.6,3.9.6,2.8,1.6,3.9,2.5,1.6,3.9,1.6Z"/>
        <path id="m66dda572d2-14" class="cls-3" d="M378.9,234.5c1.4,0,2.8-.6,3.9-1.6s1.6-2.5,1.6-3.9-.6-2.8-1.6-3.9-2.5-1.6-3.9-1.6-2.8.6-3.9,1.6-1.6,2.5-1.6,3.9.6,2.8,1.6,3.9,2.5,1.6,3.9,1.6Z"/>
        <path id="m66dda572d2-15" class="cls-3" d="M289.4,253.6c1.4,0,2.8-.6,3.9-1.6s1.6-2.5,1.6-3.9-.6-2.8-1.6-3.9-2.5-1.6-3.9-1.6-2.8.6-3.9,1.6-1.6,2.5-1.6,3.9.6,2.8,1.6,3.9,2.5,1.6,3.9,1.6Z"/>
        <path id="m66dda572d2-16" class="cls-3" d="M262.9,334.2c1.4,0,2.8-.6,3.9-1.6s1.6-2.5,1.6-3.9-.6-2.8-1.6-3.9-2.5-1.6-3.9-1.6-2.8.6-3.9,1.6-1.6,2.5-1.6,3.9.6,2.8,1.6,3.9,2.5,1.6,3.9,1.6Z"/>
        <path id="m66dda572d2-17" class="cls-3" d="M288.6,310.5c1.4,0,2.8-.6,3.9-1.6s1.6-2.5,1.6-3.9-.6-2.8-1.6-3.9-2.5-1.6-3.9-1.6-2.8.6-3.9,1.6-1.6,2.5-1.6,3.9.6,2.8,1.6,3.9,2.5,1.6,3.9,1.6Z"/>
        <path id="m66dda572d2-18" class="cls-3" d="M224.9,325.5c1.4,0,2.8-.6,3.9-1.6s1.6-2.5,1.6-3.9-.6-2.8-1.6-3.9-2.5-1.6-3.9-1.6-2.8.6-3.9,1.6-1.6,2.5-1.6,3.9.6,2.8,1.6,3.9,2.5,1.6,3.9,1.6Z"/>
        <path id="m66dda572d2-19" class="cls-3" d="M207.7,287.1c1.4,0,2.8-.6,3.9-1.6s1.6-2.5,1.6-3.9-.6-2.8-1.6-3.9-2.5-1.6-3.9-1.6-2.8.6-3.9,1.6-1.6,2.5-1.6,3.9.6,2.8,1.6,3.9,2.5,1.6,3.9,1.6Z"/>
        <path id="m66dda572d2-20" class="cls-3" d="M289.7,246.5c1.4,0,2.8-.6,3.9-1.6s1.6-2.5,1.6-3.9-.6-2.8-1.6-3.9-2.5-1.6-3.9-1.6-2.8.6-3.9,1.6-1.6,2.5-1.6,3.9.6,2.8,1.6,3.9,2.5,1.6,3.9,1.6Z"/>
        <path id="m66dda572d2-21" class="cls-3" d="M268.6,254.1c1.4,0,2.8-.6,3.9-1.6s1.6-2.5,1.6-3.9-.6-2.8-1.6-3.9-2.5-1.6-3.9-1.6-2.8.6-3.9,1.6-1.6,2.5-1.6,3.9.6,2.8,1.6,3.9,2.5,1.6,3.9,1.6Z"/>
        <path id="m66dda572d2-22" class="cls-3" d="M203.2,294.8c1.4,0,2.8-.6,3.9-1.6s1.6-2.5,1.6-3.9-.6-2.8-1.6-3.9-2.5-1.6-3.9-1.6-2.8.6-3.9,1.6-1.6,2.5-1.6,3.9.6,2.8,1.6,3.9,2.5,1.6,3.9,1.6Z"/>
        <path id="m66dda572d2-23" class="cls-3" d="M229.4,322.9c1.4,0,2.8-.6,3.9-1.6s1.6-2.5,1.6-3.9-.6-2.8-1.6-3.9-2.5-1.6-3.9-1.6-2.8.6-3.9,1.6-1.6,2.5-1.6,3.9.6,2.8,1.6,3.9,2.5,1.6,3.9,1.6Z"/>
        <path id="m66dda572d2-24" class="cls-3" d="M257,324.8c1.4,0,2.8-.6,3.9-1.6s1.6-2.5,1.6-3.9-.6-2.8-1.6-3.9-2.5-1.6-3.9-1.6-2.8.6-3.9,1.6-1.6,2.5-1.6,3.9.6,2.8,1.6,3.9,2.5,1.6,3.9,1.6Z"/>
        <path id="m66dda572d2-25" class="cls-3" d="M279.3,322.4c1.4,0,2.8-.6,3.9-1.6s1.6-2.5,1.6-3.9-.6-2.8-1.6-3.9-2.5-1.6-3.9-1.6-2.8.6-3.9,1.6-1.6,2.5-1.6,3.9.6,2.8,1.6,3.9,2.5,1.6,3.9,1.6Z"/>
        <path id="m66dda572d2-26" class="cls-3" d="M234.4,328.9c1.4,0,2.8-.6,3.9-1.6s1.6-2.5,1.6-3.9-.6-2.8-1.6-3.9-2.5-1.6-3.9-1.6-2.8.6-3.9,1.6-1.6,2.5-1.6,3.9.6,2.8,1.6,3.9,2.5,1.6,3.9,1.6Z"/>
        <path id="m66dda572d2-27" class="cls-3" d="M265.7,344.8c1.4,0,2.8-.6,3.9-1.6s1.6-2.5,1.6-3.9-.6-2.8-1.6-3.9-2.5-1.6-3.9-1.6-2.8.6-3.9,1.6-1.6,2.5-1.6,3.9.6,2.8,1.6,3.9,2.5,1.6,3.9,1.6Z"/>
        <path id="m66dda572d2-28" class="cls-3" d="M259,327.7c1.4,0,2.8-.6,3.9-1.6s1.6-2.5,1.6-3.9-.6-2.8-1.6-3.9-2.5-1.6-3.9-1.6-2.8.6-3.9,1.6-1.6,2.5-1.6,3.9.6,2.8,1.6,3.9,2.5,1.6,3.9,1.6Z"/>
        <path id="m66dda572d2-29" class="cls-3" d="M224.3,311.4c1.4,0,2.8-.6,3.9-1.6s1.6-2.5,1.6-3.9-.6-2.8-1.6-3.9-2.5-1.6-3.9-1.6-2.8.6-3.9,1.6-1.6,2.5-1.6,3.9.6,2.8,1.6,3.9,2.5,1.6,3.9,1.6Z"/>
        <path id="m66dda572d2-30" class="cls-3" d="M291.4,329.4c1.4,0,2.8-.6,3.9-1.6s1.6-2.5,1.6-3.9-.6-2.8-1.6-3.9-2.5-1.6-3.9-1.6-2.8.6-3.9,1.6-1.6,2.5-1.6,3.9.6,2.8,1.6,3.9,2.5,1.6,3.9,1.6Z"/>
        <path id="m66dda572d2-31" class="cls-3" d="M229.4,327.4c1.4,0,2.8-.6,3.9-1.6s1.6-2.5,1.6-3.9-.6-2.8-1.6-3.9-2.5-1.6-3.9-1.6-2.8.6-3.9,1.6-1.6,2.5-1.6,3.9.6,2.8,1.6,3.9,2.5,1.6,3.9,1.6Z"/>
        <path id="m66dda572d2-32" class="cls-3" d="M311.9,334.7c1.4,0,2.8-.6,3.9-1.6s1.6-2.5,1.6-3.9-.6-2.8-1.6-3.9-2.5-1.6-3.9-1.6-2.8.6-3.9,1.6-1.6,2.5-1.6,3.9.6,2.8,1.6,3.9,2.5,1.6,3.9,1.6Z"/>
        <path id="m66dda572d2-33" class="cls-3" d="M284.1,359.9c1.4,0,2.8-.6,3.9-1.6s1.6-2.5,1.6-3.9-.6-2.8-1.6-3.9-2.5-1.6-3.9-1.6-2.8.6-3.9,1.6-1.6,2.5-1.6,3.9.6,2.8,1.6,3.9c.9,1.1,2.5,1.6,3.9,1.6Z"/>
        <path id="m66dda572d2-34" class="cls-3" d="M228,337.9c1.4,0,2.8-.6,3.9-1.6s1.6-2.5,1.6-3.9-.6-2.8-1.6-3.9-2.5-1.6-3.9-1.6-2.8.6-3.9,1.6-1.6,2.5-1.6,3.9.6,2.8,1.6,3.9,2.5,1.6,3.9,1.6Z"/>
        <path id="m66dda572d2-35" class="cls-3" d="M267.4,361.2c1.4,0,2.8-.6,3.9-1.6s1.6-2.5,1.6-3.9-.6-2.8-1.6-3.9-2.5-1.6-3.9-1.6-2.8.6-3.9,1.6-1.6,2.5-1.6,3.9.6,2.8,1.6,3.9,2.5,1.6,3.9,1.6Z"/>
        <path id="m66dda572d2-36" class="cls-3" d="M417,250c1.4,0,2.8-.6,3.9-1.6s1.6-2.5,1.6-3.9-.6-2.8-1.6-3.9-2.5-1.6-3.9-1.6-2.8.6-3.9,1.6-1.6,2.5-1.6,3.9.6,2.8,1.6,3.9,2.5,1.6,3.9,1.6Z"/>
        <path id="m66dda572d2-37" class="cls-3" d="M231.4,337.8c1.4,0,2.8-.6,3.9-1.6s1.6-2.5,1.6-3.9-.6-2.8-1.6-3.9-2.5-1.6-3.9-1.6-2.8.6-3.9,1.6-1.6,2.5-1.6,3.9.6,2.8,1.6,3.9,2.5,1.6,3.9,1.6Z"/>
      </g>
      <rect class="cls-1" x="101.4" y="160.6" width="452.1" height="293"/>
      <g>
        <path id="mb6fe50044d" class="cls-4" d="M285.5,343.2c1.4,0,2.8-.6,3.9-1.6s1.6-2.5,1.6-3.9-.6-2.8-1.6-3.9-2.5-1.6-3.9-1.6-2.8.6-3.9,1.6-1.6,2.5-1.6,3.9.6,2.8,1.6,3.9,2.5,1.6,3.9,1.6Z"/>
        <path id="mb6fe50044d-2" class="cls-4" d="M256.2,340.7c1.4,0,2.8-.6,3.9-1.6s1.6-2.5,1.6-3.9-.6-2.8-1.6-3.9-2.5-1.6-3.9-1.6-2.8.6-3.9,1.6-1.6,2.5-1.6,3.9.6,2.8,1.6,3.9,2.5,1.6,3.9,1.6Z"/>
      </g>
      <rect class="cls-1" x="101.4" y="160.6" width="452.1" height="293"/>
      <g>
        <path id="m55f24ed21c-2" class="cls-5" d="M333.8,316.2c1.4,0,2.8-.6,3.9-1.6s1.6-2.5,1.6-3.9-.6-2.8-1.6-3.9-2.5-1.6-3.9-1.6-2.8.6-3.9,1.6-1.6,2.5-1.6,3.9.6,2.8,1.6,3.9,2.5,1.6,3.9,1.6Z"/>
        <path id="m55f24ed21c-3" class="cls-5" d="M286.6,310.8c1.4,0,2.8-.6,3.9-1.6s1.6-2.5,1.6-3.9-.6-2.8-1.6-3.9-2.5-1.6-3.9-1.6-2.8.6-3.9,1.6-1.6,2.5-1.6,3.9.6,2.8,1.6,3.9,2.5,1.6,3.9,1.6Z"/>
        <path id="m55f24ed21c-4" class="cls-5" d="M247.6,266.6c1.4,0,2.8-.6,3.9-1.6s1.6-2.5,1.6-3.9-.6-2.8-1.6-3.9-2.5-1.6-3.9-1.6-2.8.6-3.9,1.6-1.6,2.5-1.6,3.9.6,2.8,1.6,3.9,2.5,1.6,3.9,1.6Z"/>
      </g>
      <g>
        <path id="DejaVuSans-50" d="M117.6,305.1v2h.9c.3,0,.6,0,.8-.3.2-.2.3-.5.3-.8s0-.6-.3-.8c-.2-.2-.5-.3-.8-.3h-.9v.2ZM116.9,304.4h1.7c.6,0,1.1,0,1.4.5.3.3.5.6.5,1.2s-.2.9-.5,1.2c-.3.3-.8.5-1.4.5h-.9v2.2h-.8v-5.6h0Z"/>
        <path id="DejaVuSans-69" d="M121.2,305.7h.6v4.2h-.6v-4.2ZM121.2,304.1h.6v.9h-.6v-.9Z"/>
        <path id="DejaVuSans-74" d="M124,304.6v1.2h1.4v.5h-1.4v2.9h1.4v.6h-.8c-.5,0-.9,0-1.1-.3-.2-.2-.3-.6-.3-1.1v-2.3h-.5v-.5h.5v-1.2h.6l.2.2Z"/>
        <path id="DejaVuSans-74-2" d="M126.9,304.6v1.2h1.4v.5h-1.4v2.9h1.4v.6h-.8c-.5,0-.9,0-1.1-.3-.2-.2-.3-.6-.3-1.1v-2.3h-.5v-.5h.5v-1.2h.6l.2.2Z"/>
        <path id="DejaVuSans-6f" d="M130.8,306.3c-.3,0-.6,0-.9.5s-.3.6-.3,1.2,0,.9.3,1.2c.2.3.5.5.9.5s.6,0,.9-.5c.2-.3.3-.6.3-1.2s0-.9-.3-1.2c-.2-.3-.5-.5-.9-.5ZM130.8,305.7c.6,0,1.1.2,1.4.6.3.3.5.9.5,1.6s-.2,1.2-.5,1.6-.8.6-1.4.6-1.1-.2-1.4-.6c-.3-.3-.5-.9-.5-1.6s.2-1.2.5-1.6c.3-.3.8-.6,1.4-.6Z"/>
        <path id="DejaVuSans-63" d="M136.9,306v.6c-.2,0-.3-.2-.6-.3s-.5,0-.6,0c-.5,0-.8,0-1.1.5-.3.3-.3.6-.3,1.2s0,.9.3,1.2c.3.3.6.5,1.1.5h.6c.2,0,.3,0,.6-.3v.6c-.2,0-.5,0-.6.2h-.6c-.6,0-1.1-.2-1.6-.6-.3-.5-.6-.9-.6-1.6s.2-1.2.6-1.6c.3-.5.9-.6,1.6-.6h.6c.2,0,.5,0,.6.2h0Z"/>
        <path id="DejaVuSans-6b" d="M138.1,304.1h.6v3.4l2-1.9h.9l-2.2,2,2.3,2.2h-.9l-2.2-2v2h-.6v-5.7h0Z"/>
        <path id="DejaVuSans-20" d="M141.8,309.9"/>
        <path id="DejaVuSans-4d" d="M144.9,304.4h1.1l1.4,3.7,1.4-3.7h1.1v5.6h-.8v-4.8l-1.4,3.7h-.8l-1.4-3.7v4.8h-.8v-5.6h.2Z"/>
        <path id="DejaVuSans-61" d="M153.3,307.9c-.6,0-.9,0-1.1.2s-.3.3-.3.6,0,.5.3.6c.2,0,.3.2.6.2s.6,0,.9-.5.3-.6.3-1.1h-.8ZM154.7,307.5v2.3h-.6v-.6c-.2.3-.3.5-.6.6-.2,0-.5.2-.8.2s-.8,0-1.1-.3-.3-.6-.3-.9.2-.8.5-1.1.8-.3,1.4-.3h.9c0-.3,0-.6-.3-.8s-.5-.3-.9-.3h-.6c-.2,0-.5,0-.6.3v-.6c.3,0,.5-.2.8-.2h.6c.6,0,1.1.2,1.4.5.3.3.5.8.5,1.4l-.2-.2Z"/>
        <path id="DejaVuSans-6e" d="M159.5,307.4v2.5h-.6v-2.5c0-.5,0-.6-.2-.9,0-.2-.3-.3-.6-.3s-.6,0-.9.3c-.2.3-.3.6-.3.9v2.3h-.6v-4.2h.6v.6c.2-.3.3-.5.6-.6.2,0,.5-.2.8-.2.5,0,.8,0,1.1.5.3.3.3.8.3,1.2l-.2.3Z"/>
        <path id="DejaVuSans-73" d="M163.5,305.8v.6c-.2,0-.5-.2-.6-.2h-.6c-.3,0-.6,0-.8.2-.2,0-.3.3-.3.5s0,.3.2.3.3.2.8.3h.3c.5.2.8.3,1.1.5s.3.5.3.8,0,.6-.5.9c-.3.2-.8.3-1.2.3h-.6c-.3,0-.5,0-.8-.2v-.8c.3,0,.5.2.8.3h.8c.3,0,.6,0,.8-.2.2,0,.3-.3.3-.5s0-.3-.2-.5c0,0-.5-.2-.8-.3h-.3c-.5,0-.8-.3-.9-.5-.2-.2-.3-.5-.3-.8s0-.6.5-.9c.3-.2.6-.3,1.2-.3h.8c.2,0,.5,0,.6.2l-.5.2Z"/>
        <path id="DejaVuSans-69-2" d="M164.9,305.7h.6v4.2h-.6v-4.2ZM164.9,304.1h.6v.9h-.6v-.9Z"/>
        <path id="DejaVuSans-6f-2" d="M168.6,306.3c-.3,0-.6,0-.9.5s-.3.6-.3,1.2,0,.9.3,1.2c.2.3.5.5.9.5s.6,0,.9-.5c.2-.3.3-.6.3-1.2s0-.9-.3-1.2c-.2-.3-.5-.5-.9-.5ZM168.6,305.7c.6,0,1.1.2,1.4.6.3.3.5.9.5,1.6s-.2,1.2-.5,1.6-.8.6-1.4.6-1.1-.2-1.4-.6c-.3-.3-.5-.9-.5-1.6s.2-1.2.5-1.6.8-.6,1.4-.6Z"/>
        <path id="DejaVuSans-6e-2" d="M175,307.4v2.5h-.6v-2.5c0-.5,0-.6-.2-.9,0-.2-.3-.3-.6-.3s-.6,0-.9.3c-.2.3-.3.6-.3.9v2.3h-.6v-4.2h.6v.6c.2-.3.3-.5.6-.6.2,0,.5-.2.8-.2.5,0,.8,0,1.1.5.3.3.3.8.3,1.2l-.2.3Z"/>
      </g>
      <g>
        <path id="DejaVuSans-50-2" d="M115.5,337.5v1.9h.8c.3,0,.5,0,.8-.3s.3-.3.3-.6,0-.5-.3-.6c-.2-.2-.5-.3-.8-.3h-.8ZM114.8,337h1.4c.5,0,.9,0,1.2.3.3.3.5.6.5,1.1s0,.8-.5,1.1c-.3.3-.6.3-1.2.3h-.8v1.9h-.6v-4.8.2Z"/>
        <path id="DejaVuSans-6f-3" d="M119.8,338.6c-.3,0-.6,0-.8.3s-.3.6-.3,1.1,0,.8.3,1.1c.2.3.5.3.8.3s.6,0,.8-.3.3-.6.3-1.1,0-.8-.3-1.1c-.2-.3-.5-.3-.8-.3ZM119.8,338.1c.5,0,.9.2,1.2.5.3.3.5.8.5,1.4s0,1.1-.5,1.4c-.3.3-.8.5-1.2.5s-.9-.2-1.2-.5c-.3-.3-.5-.8-.5-1.4s0-1.1.5-1.4c.3-.3.8-.5,1.2-.5Z"/>
        <path id="DejaVuSans-72" d="M124.6,338.7h-.5c-.3,0-.6,0-.8.3s-.3.5-.3.9v1.9h-.6v-3.6h.6v.6c0-.2.3-.3.5-.5.2,0,.5-.2.8-.2s0,0,0,0h.2v.6l.2-.2Z"/>
        <path id="DejaVuSans-74-3" d="M125.9,337.2v1.1h1.2v.5h-1.2v2.6c0,.2.3,0,.5,0h.6v.5h-.6c-.5,0-.8,0-.9-.3-.2-.2-.3-.5-.3-.9v-2h-.5v-.5h.5v-1.1h.6l.2.2Z"/>
        <path id="DejaVuSans-6c" d="M127.9,336.7h.6v5h-.6v-5Z"/>
        <path id="DejaVuSans-61-2" d="M131.3,339.9c-.5,0-.8,0-.9.2s-.3.3-.3.6,0,.3.2.5c0,0,.3.2.6.2s.6,0,.8-.3.3-.5.3-.9h-.6v-.2ZM132.5,339.6v2h-.6v-.6c0,.2-.3.3-.5.5-.2,0-.5.2-.8.2s-.6,0-.9-.3-.3-.5-.3-.8,0-.8.5-.9c.3-.2.6-.3,1.2-.3h.8c0-.3,0-.5-.3-.6s-.5-.2-.8-.2h-.6c-.2,0-.3,0-.6.2v-.6c.2,0,.5,0,.6-.2h.6c.5,0,.9,0,1.2.5.3.3.3.6.3,1.2h.2Z"/>
        <path id="DejaVuSans-6e-3" d="M136.7,339.6v2.2h-.6v-2.2c0-.3,0-.6-.2-.8,0-.2-.3-.3-.6-.3s-.6,0-.8.3c-.2.2-.3.5-.3.8v2h-.6v-3.6h.6v.6c0-.2.3-.3.5-.5.2,0,.5-.2.6-.2.5,0,.8,0,.9.3s.3.6.3,1.1l.2.2Z"/>
        <path id="DejaVuSans-64" d="M140.3,338.7v-2h.6v5h-.6v-.5c0,.2-.3.3-.5.5-.2,0-.5.2-.6.2-.5,0-.8-.2-1.1-.5-.3-.3-.5-.8-.5-1.4s0-1.1.5-1.4c.3-.3.6-.5,1.1-.5s.5,0,.6.2c.2,0,.3.3.5.5h0ZM138.3,339.9c0,.5,0,.8.3,1.1.2.3.5.3.8.3s.6,0,.8-.3.3-.6.3-1.1,0-.8-.3-1.1c-.2-.3-.5-.3-.8-.3s-.6,0-.8.3-.3.6-.3,1.1Z"/>
        <path id="DejaVuSans-20-2" d="M141.5,341.8"/>
        <path id="DejaVuSans-4a" d="M144.1,337h.6v4.5c0,.6,0,.9-.3,1.2-.2.3-.6.5-1.1.5h-.3v-.6h.2c.3,0,.5,0,.6-.3,0-.2.2-.5.2-.9v-4.5l.2.2Z"/>
        <path id="DejaVuSans-61-3" d="M147.7,339.9c-.5,0-.8,0-.9.2s-.3.3-.3.6,0,.3.2.5c0,0,.3.2.6.2s.6,0,.8-.3.3-.5.3-.9h-.6v-.2ZM149,339.6v2h-.6v-.6c0,.2-.3.3-.5.5-.2,0-.5.2-.8.2s-.6,0-.9-.3-.3-.5-.3-.8,0-.8.5-.9c.3-.2.6-.3,1.2-.3h.8c0-.3,0-.5-.3-.6s-.5-.2-.8-.2h-.6c-.2,0-.3,0-.6.2v-.6c.2,0,.5,0,.6-.2h.6c.5,0,.9,0,1.2.5.3.3.3.6.3,1.2h.2Z"/>
        <path id="DejaVuSans-70" d="M150.7,341.2v1.9h-.6v-5h.6v.6c0-.2.3-.3.5-.5.2,0,.5-.2.6-.2.5,0,.8.2,1.1.5.3.3.5.8.5,1.4s0,1.1-.5,1.4c-.3.3-.6.5-1.1.5s-.5,0-.6-.2c-.2,0-.3-.3-.5-.5h0ZM152.7,339.9c0-.5,0-.8-.3-1.1s-.5-.3-.8-.3-.6,0-.8.3-.3.6-.3,1.1,0,.8.3,1.1c.2.3.5.3.8.3s.6,0,.8-.3.3-.6.3-1.1Z"/>
        <path id="DejaVuSans-61-4" d="M155.9,339.9c-.5,0-.8,0-.9.2s-.3.3-.3.6,0,.3.2.5c0,0,.3.2.6.2s.6,0,.8-.3.3-.5.3-.9h-.6v-.2ZM157.2,339.6v2h-.6v-.6c0,.2-.3.3-.5.5-.2,0-.5.2-.8.2s-.6,0-.9-.3-.3-.5-.3-.8,0-.8.5-.9c.3-.2.6-.3,1.2-.3h.8c0-.3,0-.5-.3-.6s-.5-.2-.8-.2h-.6c-.2,0-.3,0-.6.2v-.6c.2,0,.5,0,.6-.2h.6c.5,0,.9,0,1.2.5.3.3.3.6.3,1.2h.2Z"/>
        <path id="DejaVuSans-6e-4" d="M161.4,339.6v2.2h-.6v-2.2c0-.3,0-.6-.2-.8,0-.2-.3-.3-.6-.3s-.6,0-.8.3c-.2.2-.3.5-.3.8v2h-.6v-3.6h.6v.6c0-.2.3-.3.5-.5.2,0,.5-.2.6-.2.5,0,.8,0,.9.3s.3.6.3,1.1l.2.2Z"/>
        <path id="DejaVuSans-65" d="M165.7,339.8v.3h-2.8c0,.5,0,.8.3.9.2.2.5.3.9.3h.6c.2,0,.5,0,.6-.3v.6c-.2,0-.5.2-.6.2h-.6c-.6,0-1.1-.2-1.4-.5-.3-.3-.5-.8-.5-1.4s.2-1.1.5-1.4c.3-.3.8-.5,1.2-.5s.9.2,1.1.5c.3.3.5.8.5,1.2h.2ZM165.1,339.6c0-.3,0-.6-.3-.8-.2-.2-.5-.3-.8-.3s-.6,0-.8.3-.3.5-.3.8h2.2Z"/>
        <path id="DejaVuSans-73-2" d="M169,338.2v.6c-.2,0-.3,0-.5-.2h-1.2s-.2.2-.2.5,0,.3.2.3.3,0,.6.2h.2c.5,0,.8.3.9.5s.3.5.3.6,0,.6-.5.8c-.3.2-.6.3-1.1.3h-.6c-.2,0-.5,0-.6-.2v-.6c.2,0,.5.2.6.3h1.2s.2-.2.2-.5,0-.3-.2-.3c0,0-.3-.2-.8-.3h-.2c-.3,0-.6-.3-.8-.5-.2-.2-.3-.3-.3-.6s0-.6.3-.8.6-.3,1.1-.3h1.1l.2.2Z"/>
        <path id="DejaVuSans-65-2" d="M173.1,339.8v.3h-2.8c0,.5,0,.8.3.9.2.2.5.3.9.3h.6c.2,0,.5,0,.6-.3v.6c-.2,0-.5.2-.6.2h-.6c-.6,0-1.1-.2-1.4-.5-.3-.3-.5-.8-.5-1.4s.2-1.1.5-1.4c.3-.3.8-.5,1.2-.5s.9.2,1.1.5c.3.3.5.8.5,1.2h.2ZM172.5,339.6c0-.3,0-.6-.3-.8-.2-.2-.5-.3-.8-.3s-.6,0-.8.3-.3.5-.3.8h2.2Z"/>
        <path id="DejaVuSans-20-3" d="M173.4,341.8"/>
        <path id="DejaVuSans-47" d="M179.5,341v-1.2h-1.1v-.5h1.7v2c-.3.2-.5.3-.8.5h-.9c-.8,0-1.4-.2-1.7-.6-.5-.5-.6-1.1-.6-1.9s.2-1.4.6-1.9c.5-.5,1.1-.6,1.7-.6h.9c.3,0,.6.2.8.3v.6c-.3-.2-.5-.3-.8-.5s-.6,0-.9,0c-.6,0-1.1.2-1.4.5-.3.3-.5.8-.5,1.4s0,1.1.5,1.4c.3.3.8.5,1.4.5h.6c.2,0,.3,0,.5-.2v.2Z"/>
        <path id="DejaVuSans-61-5" d="M182.9,339.9c-.5,0-.8,0-.9.2s-.3.3-.3.6,0,.3.2.5c0,0,.3.2.6.2s.6,0,.8-.3.3-.5.3-.9h-.6v-.2ZM184.1,339.6v2h-.6v-.6c0,.2-.3.3-.5.5-.2,0-.5.2-.8.2s-.6,0-.9-.3-.3-.5-.3-.8,0-.8.5-.9c.3-.2.6-.3,1.2-.3h.8c0-.3,0-.5-.3-.6s-.5-.2-.8-.2h-.6c-.2,0-.3,0-.6.2v-.6c.2,0,.5,0,.6-.2h.6c.5,0,.9,0,1.2.5.3.3.3.6.3,1.2h.2Z"/>
        <path id="DejaVuSans-72-2" d="M187.4,338.7h-.5c-.3,0-.6,0-.8.3s-.3.5-.3.9v1.9h-.6v-3.6h.6v.6c0-.2.3-.3.5-.5.2,0,.5-.2.8-.2s0,0,0,0h.2v.6l.2-.2Z"/>
        <path id="DejaVuSans-64-2" d="M190.3,338.7v-2h.6v5h-.6v-.5c0,.2-.3.3-.5.5-.2,0-.5.2-.6.2-.5,0-.8-.2-1.1-.5-.3-.3-.5-.8-.5-1.4s0-1.1.5-1.4c.3-.3.6-.5,1.1-.5s.5,0,.6.2c.2,0,.3.3.5.5h0ZM188.3,339.9c0,.5,0,.8.3,1.1.2.3.5.3.8.3s.6,0,.8-.3.3-.6.3-1.1,0-.8-.3-1.1c-.2-.3-.5-.3-.8-.3s-.6,0-.8.3-.3.6-.3,1.1Z"/>
        <path id="DejaVuSans-65-3" d="M195.2,339.8v.3h-2.8c0,.5,0,.8.3.9.2.2.5.3.9.3h.6c.2,0,.5,0,.6-.3v.6c-.2,0-.5.2-.6.2h-.6c-.6,0-1.1-.2-1.4-.5-.3-.3-.5-.8-.5-1.4s.2-1.1.5-1.4c.3-.3.8-.5,1.2-.5s.9.2,1.1.5c.3.3.5.8.5,1.2h.2ZM194.7,339.6c0-.3,0-.6-.3-.8-.2-.2-.5-.3-.8-.3s-.6,0-.8.3-.3.5-.3.8c0,0,2.2,0,2.2,0Z"/>
        <path id="DejaVuSans-6e-5" d="M199.2,339.6v2.2h-.6v-2.2c0-.3,0-.6-.2-.8,0-.2-.3-.3-.6-.3s-.6,0-.8.3c-.2.2-.3.5-.3.8v2h-.6v-3.6h.6v.6c0-.2.3-.3.5-.5.2,0,.5-.2.6-.2.5,0,.8,0,.9.3s.3.6.3,1.1l.2.2Z"/>
      </g>
      <g>
        <path id="DejaVuSans-57" d="M113.8,323.7h.8l1.1,4.3,1.1-4.3h.8l1.1,4.3,1.1-4.3h.8l-1.2,5.1h-.9l-1.1-4.5-1.1,4.5h-.9l-1.2-5.1h-.2Z"/>
        <path id="DejaVuSans-61-6" d="M122.4,326.9c-.5,0-.9,0-1.1.2s-.3.3-.3.6,0,.5.2.5c0,0,.3.2.6.2s.6,0,.8-.3.3-.6.3-.9h-.6l.2-.2ZM123.7,326.6v2.2h-.6v-.6c0,.3-.3.5-.5.5s-.5.2-.8.2-.8,0-.9-.3c-.2-.2-.3-.5-.3-.9s0-.8.5-.9c.3-.2.8-.3,1.2-.3h.9c0-.3,0-.6-.3-.8s-.5-.3-.8-.3h-.6c-.2,0-.5,0-.6.3v-.6c.2,0,.5-.2.6-.2h.6c.6,0,.9,0,1.2.5.3.3.5.8.5,1.2l-.2.2Z"/>
        <path id="DejaVuSans-73-3" d="M127.4,325.1v.6c-.2,0-.3-.2-.6-.2h-1.4c-.2,0-.3.3-.3.5s0,.3.2.3.3.2.6.3h.2c.5,0,.8.3.9.5s.3.5.3.8,0,.6-.5.8c-.3.2-.6.3-1.2.3h-.6c-.2,0-.5,0-.8-.2v-.6c.3,0,.5.2.6.3h1.2c.2,0,.3-.3.3-.5s0-.3-.2-.5c0,0-.3-.2-.8-.3h-.2c-.5,0-.6-.3-.8-.5-.2-.2-.3-.5-.3-.8s0-.6.3-.8.6-.3,1.1-.3h1.2l.6.2Z"/>
        <path id="DejaVuSans-68" d="M131.9,326.5v2.3h-.6v-2.3c0-.3,0-.6-.2-.8,0-.2-.3-.3-.6-.3s-.6,0-.8.3c-.2.2-.3.5-.3.9v2.2h-.6v-5.3h.6v2.2c0-.2.3-.5.5-.5s.5-.2.8-.2c.5,0,.8,0,.9.5.2.3.3.6.3,1.2v-.3Z"/>
        <path id="DejaVuSans-69-3" d="M133.1,325.1h.6v3.9h-.6v-3.9ZM133.1,323.5h.6v.8h-.6v-.8Z"/>
        <path id="DejaVuSans-6e-6" d="M138.3,326.5v2.3h-.6v-2.3c0-.3,0-.6-.2-.8,0-.2-.3-.3-.6-.3s-.6,0-.8.3c-.2.2-.3.5-.3.9v2.2h-.6v-3.9h.6v.6c0-.2.3-.5.5-.5s.5-.2.8-.2c.5,0,.8,0,.9.5.2.3.3.6.3,1.2v-.2Z"/>
        <path id="DejaVuSans-67" d="M142.1,326.9c0-.5,0-.8-.3-1.1-.2-.3-.5-.3-.8-.3s-.6,0-.8.3-.3.6-.3,1.1,0,.8.3,1.1c.2.3.5.3.8.3s.6,0,.8-.3.3-.6.3-1.1ZM142.8,328.3c0,.6,0,1.1-.5,1.4-.3.3-.8.5-1.4.5h-1.2v-.6c.2,0,.3.2.6.2h.6c.5,0,.8,0,.9-.3.2-.2.3-.6.3-.9v-.3c0,.2-.3.5-.5.5s-.5.2-.8.2c-.5,0-.8-.2-1.1-.5-.3-.3-.5-.8-.5-1.4s0-1.1.5-1.4c.3-.3.6-.5,1.1-.5s.5,0,.8.2.3.3.5.5v-.6h.6v3.4-.2Z"/>
        <path id="DejaVuSans-74-4" d="M144.6,323.8v1.1h1.2v.5h-1.2v2.6c0,.2.3,0,.5,0h.6v.5h-.6c-.5,0-.8,0-1.1-.3-.2-.2-.3-.5-.3-.9v-2h-.5v-.5h.5v-1.1h.6l.3.2Z"/>
        <path id="DejaVuSans-6f-4" d="M148.3,325.4c-.3,0-.6,0-.8.5s-.3.6-.3,1.1,0,.8.3,1.1c.2.3.5.5.8.5s.6,0,.8-.5c.2-.3.3-.6.3-1.1s0-.8-.3-1.1c-.2-.3-.5-.5-.8-.5ZM148.3,324.9c.6,0,.9.2,1.2.5.3.3.5.8.5,1.6s-.2,1.1-.5,1.6c-.3.3-.8.5-1.2.5s-.9-.2-1.2-.5c-.3-.3-.5-.9-.5-1.6s.2-1.1.5-1.6c.3-.3.8-.5,1.2-.5Z"/>
        <path id="DejaVuSans-6e-7" d="M154.2,326.5v2.3h-.6v-2.3c0-.3,0-.6-.2-.8,0-.2-.3-.3-.6-.3s-.6,0-.8.3c-.2.2-.3.5-.3.9v2.2h-.6v-3.9h.6v.6c0-.2.3-.5.5-.5s.5-.2.8-.2c.5,0,.8,0,.9.5.2.3.3.6.3,1.2v-.2Z"/>
        <path id="DejaVuSans-20-4" d="M154.8,328.8"/>
        <path id="DejaVuSans-50-3" d="M158.6,324.3v1.9h.9c.3,0,.6,0,.8-.3.2-.2.3-.5.3-.8s0-.6-.3-.8c-.2-.2-.5-.3-.8-.3h-.9v.3ZM157.8,323.7h1.6c.6,0,1.1,0,1.2.5.3.3.5.6.5,1.1s0,.9-.5,1.1c-.3.3-.8.5-1.2.5h-.9v2h-.6v-5.1Z"/>
        <path id="DejaVuSans-61-7" d="M163.5,326.9c-.5,0-.9,0-1.1.2s-.3.3-.3.6,0,.5.2.5c0,0,.3.2.6.2s.6,0,.8-.3.3-.6.3-.9h-.6l.2-.2ZM164.8,326.6v2.2h-.6v-.6c0,.3-.3.5-.5.5s-.5.2-.8.2-.8,0-.9-.3c-.2-.2-.3-.5-.3-.9s0-.8.5-.9c.3-.2.8-.3,1.2-.3h.9c0-.3,0-.6-.3-.8s-.5-.3-.8-.3h-.6c-.2,0-.5,0-.6.3v-.6c.2,0,.5-.2.6-.2h.6c.6,0,.9,0,1.2.5.3.3.5.8.5,1.2l-.2.2Z"/>
        <path id="DejaVuSans-72-3" d="M168.3,325.5h-.5c-.3,0-.6,0-.8.3s-.3.6-.3.9v2h-.6v-3.9h.6v.6c0-.3.3-.5.5-.5s.5-.2.8-.2,0,0,0,0h.2v.6h.2Z"/>
        <path id="DejaVuSans-6b-2" d="M169,323.5h.6v3.1l1.9-1.7h.8l-2,1.9,2.2,2h-.8l-2-1.9v1.9h-.6s0-5.3,0-5.3Z"/>
      </g>
      <g>
        <path id="DejaVuSans-50-4" class="cls-9" d="M30.5-118.8v3.8h1.7c.6,0,1.1-.2,1.5-.5s.5-.8.5-1.4-.2-1.1-.5-1.4c-.4-.3-.8-.5-1.5-.5h-1.7ZM29.1-120h3.1c1.1,0,2,.3,2.6.8s.9,1.3.9,2.3-.3,1.8-.9,2.3c-.6.5-1.4.8-2.6.8h-1.7v4.1h-1.4v-10.2h0Z"/>
        <path id="DejaVuSans-6f-5" class="cls-9" d="M39.9-116.5c-.7,0-1.2.3-1.6.8s-.6,1.2-.6,2.2.2,1.6.6,2.2c.4.5.9.8,1.6.8s1.2-.3,1.6-.8c.4-.5.6-1.2.6-2.2s-.2-1.6-.6-2.2c-.4-.5-.9-.8-1.6-.8ZM39.9-117.6c1.1,0,2,.4,2.6,1.1.6.7.9,1.7.9,3s-.3,2.2-.9,3c-.6.7-1.5,1.1-2.6,1.1s-2-.4-2.6-1.1c-.6-.7-.9-1.7-.9-3s.3-2.2.9-3c.6-.7,1.5-1.1,2.6-1.1Z"/>
        <path id="DejaVuSans-72-4" class="cls-9" d="M50-116.2c0,0-.3-.1-.5-.2h-.5c-.7,0-1.3.2-1.6.7s-.6,1.1-.6,2v4h-1.3v-7.7h1.3v1.2c.3-.5.6-.8,1-1s.9-.3,1.5-.3.2,0,.3,0h.3v1.3h0Z"/>
        <path id="DejaVuSans-74-5" class="cls-9" d="M52.5-119.6v2.2h2.6v1h-2.6v4.2c0,.6,0,1,.3,1.2s.5.3,1,.3h1.3v1.1h-1.3c-1,0-1.6-.2-2-.5-.4-.4-.6-1-.6-2v-4.2h-.9v-1h.9v-2.2h1.3Z"/>
        <path id="DejaVuSans-6c-2" class="cls-9" d="M56.8-120.4h1.3v10.6h-1.3v-10.6Z"/>
        <path id="DejaVuSans-61-8" class="cls-9" d="M64.1-113.6c-1,0-1.7.1-2.1.3s-.6.6-.6,1.2,0,.8.4,1.1c.3.3.7.4,1.2.4s1.3-.2,1.7-.7.6-1.2.6-2v-.3h-1.3,0ZM66.6-114.1v4.4h-1.3v-1.2c-.3.5-.6.8-1.1,1-.4.2-1,.3-1.6.3s-1.4-.2-1.9-.7c-.5-.4-.7-1-.7-1.8s.3-1.5.9-1.9c.6-.4,1.4-.7,2.6-.7h1.8c0-.7-.2-1.2-.6-1.5s-.9-.5-1.6-.5-.9,0-1.3.2c-.4.1-.8.3-1.2.5v-1.2c.5-.2.9-.3,1.3-.4.4,0,.9-.1,1.3-.1,1.1,0,1.9.3,2.5.9.5.6.8,1.4.8,2.6h0Z"/>
        <path id="DejaVuSans-6e-8" class="cls-9" d="M75.6-114.4v4.6h-1.3v-4.6c0-.7,0-1.3-.4-1.6-.3-.4-.7-.5-1.3-.5s-1.2.2-1.6.6c-.4.4-.6,1-.6,1.8v4.3h-1.3v-7.7h1.3v1.2c.3-.5.7-.8,1.1-1s.9-.3,1.4-.3c.9,0,1.5.3,2,.8s.7,1.3.7,2.4Z"/>
        <path id="DejaVuSans-64-3" class="cls-9" d="M83.2-116.3v-4.1h1.3v10.6h-1.3v-1.1c-.3.5-.6.8-1,1s-.9.3-1.5.3c-.9,0-1.7-.4-2.3-1.1-.6-.7-.9-1.7-.9-2.9s.3-2.2.9-2.9,1.3-1.1,2.3-1.1,1.1.1,1.5.3.7.6,1,1ZM78.9-113.6c0,.9.2,1.7.6,2.2s.9.8,1.6.8,1.2-.3,1.6-.8.6-1.3.6-2.2-.2-1.7-.6-2.2-.9-.8-1.6-.8-1.2.3-1.6.8-.6,1.3-.6,2.2Z"/>
        <path id="DejaVuSans-20-5" class="cls-9" d="M85.7-109.8"/>
        <path id="DejaVuSans-2013" class="cls-9" d="M90.8-114.1h5.6v1h-5.6v-1Z"/>
        <path id="DejaVuSans-20-6" class="cls-9" d="M97.1-109.8"/>
        <path id="DejaVuSans-49" class="cls-9" d="M103-120h1.4v10.2h-1.4v-10.2Z"/>
        <path id="DejaVuSans-6e-9" class="cls-9" d="M113.4-114.4v4.6h-1.3v-4.6c0-.7,0-1.3-.4-1.6-.3-.4-.7-.5-1.3-.5s-1.2.2-1.6.6c-.4.4-.6,1-.6,1.8v4.3h-1.3v-7.7h1.3v1.2c.3-.5.7-.8,1.1-1s.9-.3,1.4-.3c.9,0,1.5.3,2,.8s.7,1.3.7,2.4Z"/>
        <path id="DejaVuSans-73-4" class="cls-9" d="M120.8-117.2v1.2c-.4-.2-.7-.3-1.1-.4-.4,0-.8-.1-1.2-.1-.6,0-1.1,0-1.4.3-.3.2-.5.5-.5.9s0,.5.3.7.7.3,1.3.5h.4c.9.3,1.5.6,1.9.9s.6.8.6,1.5-.3,1.3-.8,1.7c-.6.4-1.3.6-2.3.6s-.8,0-1.3-.1c-.4,0-.9-.2-1.4-.4v-1.3c.5.2.9.4,1.4.5s.9.2,1.3.2,1-.1,1.4-.3c.3-.2.5-.5.5-.9s0-.6-.3-.8c-.2-.2-.7-.4-1.5-.5h-.4c-.8-.3-1.3-.5-1.7-.9s-.5-.8-.5-1.4.3-1.3.8-1.7,1.2-.6,2.2-.6.9,0,1.3.1c.4,0,.8.2,1.1.3h-.1Z"/>
        <path id="DejaVuSans-74-6" class="cls-9" d="M124.4-119.6v2.2h2.6v1h-2.6v4.2c0,.6,0,1,.3,1.2s.5.3,1,.3h1.3v1.1h-1.3c-1,0-1.6-.2-2-.5-.4-.4-.6-1-.6-2v-4.2h-.9v-1h.9v-2.2h1.3,0Z"/>
        <path id="DejaVuSans-61-9" class="cls-9" d="M132.2-113.6c-1,0-1.7.1-2.1.3s-.6.6-.6,1.2.1.8.4,1.1c.3.3.7.4,1.2.4s1.3-.2,1.7-.7.6-1.2.6-2v-.3h-1.3.1ZM134.7-114.1v4.4h-1.3v-1.2c-.3.5-.6.8-1.1,1-.4.2-1,.3-1.6.3s-1.4-.2-1.9-.7c-.5-.4-.7-1-.7-1.8s.3-1.5.9-1.9c.6-.4,1.4-.7,2.6-.7h1.8c0-.7-.2-1.2-.6-1.5s-.9-.5-1.6-.5-.9,0-1.3.2c-.4.1-.8.3-1.2.5v-1.2c.5-.2.9-.3,1.3-.4.4,0,.9-.1,1.3-.1,1.1,0,1.9.3,2.5.9.5.6.8,1.4.8,2.6h.1Z"/>
        <path id="DejaVuSans-67-2" class="cls-9" d="M142.3-113.7c0-.9-.2-1.6-.6-2.1-.4-.5-.9-.8-1.6-.8s-1.2.3-1.6.8c-.4.5-.6,1.2-.6,2.1s.2,1.6.6,2.1c.4.5.9.8,1.6.8s1.2-.3,1.6-.8c.4-.5.6-1.2.6-2.1ZM143.6-110.7c0,1.3-.3,2.3-.9,2.9s-1.5,1-2.7,1h-1.3c-.4,0-.8-.2-1.1-.3v-1.2c.4.2.7.3,1.1.4.4,0,.7.1,1.1.1.8,0,1.4-.2,1.9-.6.4-.4.6-1.1.6-2v-.6c-.3.5-.6.8-1,1s-.9.3-1.5.3c-.9,0-1.7-.4-2.3-1.1-.6-.7-.9-1.7-.9-2.8s.3-2.1.9-2.8c.6-.7,1.3-1.1,2.3-1.1s1.1.1,1.5.3.7.6,1,1v-1.2h1.3v6.7h0Z"/>
        <path id="DejaVuSans-72-5" class="cls-9" d="M150.6-116.2c-.1,0-.3-.1-.5-.2h-.5c-.7,0-1.3.2-1.6.7s-.6,1.1-.6,2v4h-1.3v-7.7h1.3v1.2c.3-.5.6-.8,1-1s.9-.3,1.5-.3.2,0,.3,0h.3v1.3h.1Z"/>
        <path id="DejaVuSans-61-10" class="cls-9" d="M155.4-113.6c-1,0-1.7.1-2.1.3s-.6.6-.6,1.2.1.8.4,1.1c.3.3.7.4,1.2.4s1.3-.2,1.7-.7.6-1.2.6-2v-.3h-1.3.1ZM157.9-114.1v4.4h-1.3v-1.2c-.3.5-.6.8-1.1,1-.4.2-1,.3-1.6.3s-1.4-.2-1.9-.7c-.5-.4-.7-1-.7-1.8s.3-1.5.9-1.9c.6-.4,1.4-.7,2.6-.7h1.8c0-.7-.2-1.2-.6-1.5s-.9-.5-1.6-.5-.9,0-1.3.2c-.4.1-.8.3-1.2.5v-1.2c.5-.2.9-.3,1.3-.4.4,0,.9-.1,1.3-.1,1.1,0,1.9.3,2.5.9.5.6.8,1.4.8,2.6h.1Z"/>
        <path id="DejaVuSans-6d" class="cls-9" d="M166.4-115.9c.3-.6.7-1,1.1-1.3s1-.4,1.5-.4,1.4.3,1.8.8c.4.6.6,1.4.6,2.4v4.6h-1.3v-4.6c0-.7-.1-1.3-.4-1.6-.3-.4-.7-.5-1.2-.5s-1.2.2-1.5.6c-.4.4-.6,1-.6,1.8v4.3h-1.3v-4.6c0-.7-.1-1.3-.4-1.6s-.7-.5-1.2-.5-1.2.2-1.5.7c-.4.4-.6,1-.6,1.8v4.3h-1.3v-7.7h1.3v1.2c.3-.5.6-.8,1-1s.9-.3,1.4-.3,1,.1,1.4.4c.4.3.7.7.9,1.2h.3Z"/>
        <path id="DejaVuSans-20-7" class="cls-9" d="M172.8-109.8"/>
        <path id="DejaVuSans-43" class="cls-9" d="M186.3-119.2v1.5c-.5-.4-1-.8-1.5-1s-1.1-.3-1.7-.3c-1.2,0-2.1.4-2.7,1.1s-.9,1.7-.9,3.1.3,2.4.9,3.1,1.5,1.1,2.7,1.1,1.2-.1,1.7-.3,1-.5,1.5-1v1.4c-.5.3-1,.6-1.5.7-.5.2-1.1.2-1.7.2-1.5,0-2.8-.5-3.7-1.4s-1.3-2.2-1.3-3.9.4-2.9,1.3-3.9c.9-.9,2.1-1.4,3.7-1.4s1.2,0,1.7.2,1,.4,1.5.7h0Z"/>
        <path id="DejaVuSans-61-11" class="cls-9" d="M191.8-113.6c-1,0-1.7.1-2.1.3s-.6.6-.6,1.2.1.8.4,1.1c.3.3.7.4,1.2.4s1.3-.2,1.7-.7.6-1.2.6-2v-.3h-1.3.1ZM194.3-114.1v4.4h-1.3v-1.2c-.3.5-.6.8-1.1,1-.4.2-1,.3-1.6.3s-1.4-.2-1.9-.7c-.5-.4-.7-1-.7-1.8s.3-1.5.9-1.9c.6-.4,1.4-.7,2.6-.7h1.8c0-.7-.2-1.2-.6-1.5s-.9-.5-1.6-.5-.9,0-1.3.2c-.4.1-.8.3-1.2.5v-1.2c.5-.2.9-.3,1.3-.4.4,0,.9-.1,1.3-.1,1.1,0,1.9.3,2.5.9.5.6.8,1.4.8,2.6h.1Z"/>
        <path id="DejaVuSans-66" class="cls-9" d="M200.8-120.4v1h-1.2c-.5,0-.8,0-.9.3-.2.2-.3.5-.3,1v.7h2.1v1h-2.1v6.7h-1.3v-6.7h-1.2v-1h1.2v-.5c0-.9.2-1.5.6-1.9.4-.4,1-.6,1.9-.6h1.2Z"/>
        <path id="DejaVuSans-e9" class="cls-9" d="M208.4-113.9v.6h-5.8c0,.9.3,1.5.8,2s1.1.7,2,.7,1,0,1.4-.2.9-.3,1.4-.5v1.2c-.5.2-.9.3-1.4.4s-1,.2-1.4.2c-1.2,0-2.2-.4-2.9-1.1-.7-.7-1.1-1.7-1.1-2.9s.3-2.2,1-3c.7-.7,1.6-1.1,2.7-1.1s1.8.3,2.4,1c.6.7.9,1.6.9,2.7h0ZM207.1-114.3c0-.7-.2-1.2-.6-1.6s-.9-.6-1.5-.6-1.3.2-1.7.6-.7,1-.7,1.7h4.5ZM205.9-121h1.4l-2.2,2.6h-1l1.9-2.6h0Z"/>
        <path id="DejaVuSans-73-5" class="cls-9" d="M215.4-117.2v1.2c-.4-.2-.7-.3-1.1-.4-.4,0-.8-.1-1.2-.1-.6,0-1.1,0-1.4.3-.3.2-.5.5-.5.9s.1.5.3.7.7.3,1.3.5h.4c.9.3,1.5.6,1.9.9s.6.8.6,1.5-.3,1.3-.8,1.7c-.6.4-1.3.6-2.3.6s-.8,0-1.3-.1c-.4,0-.9-.2-1.4-.4v-1.3c.5.2.9.4,1.4.5s.9.2,1.3.2,1-.1,1.4-.3c.3-.2.5-.5.5-.9s-.1-.6-.3-.8-.7-.4-1.5-.5h-.4c-.8-.3-1.3-.5-1.7-.9s-.5-.8-.5-1.4.3-1.3.8-1.7,1.2-.6,2.2-.6.9,0,1.3.1c.4,0,.8.2,1.1.3h-.1Z"/>
        <path id="DejaVuSans-20-8" class="cls-9" d="M216.4-109.8"/>
        <path id="DejaVuSans-62" class="cls-9" d="M227.7-113.6c0-.9-.2-1.7-.6-2.2s-.9-.8-1.6-.8-1.2.3-1.6.8-.6,1.3-.6,2.2.2,1.7.6,2.2c.4.5.9.8,1.6.8s1.2-.3,1.6-.8c.4-.5.6-1.3.6-2.2ZM223.4-116.3c.3-.5.6-.8,1-1s.9-.3,1.4-.3c.9,0,1.7.4,2.3,1.1.6.7.9,1.7.9,2.9s-.3,2.2-.9,2.9c-.6.7-1.3,1.1-2.3,1.1s-1-.1-1.4-.3-.7-.6-1-1v1.1h-1.3v-10.6h1.3v4.1Z"/>
        <path id="DejaVuSans-79" class="cls-9" d="M234.3-109c-.4.9-.7,1.5-1,1.8s-.8.4-1.4.4h-1v-1.1h.7c.3,0,.6,0,.8-.2s.4-.6.6-1.2l.2-.6-3.1-7.5h1.3l2.4,6,2.4-6h1.3l-3.4,8.4h.2Z"/>
        <path id="DejaVuSans-20-9" class="cls-9" d="M238.1-109.8"/>
        <path id="DejaVuSans-54" class="cls-9" d="M242.5-120h8.6v1.2h-3.6v9h-1.4v-9h-3.6v-1.2Z"/>
        <path id="DejaVuSans-68-2" class="cls-9" d="M258.8-114.4v4.6h-1.3v-4.6c0-.7-.1-1.3-.4-1.6-.3-.4-.7-.5-1.3-.5s-1.2.2-1.6.6-.6,1-.6,1.8v4.3h-1.3v-10.6h1.3v4.2c.3-.5.7-.8,1.1-1,.4-.2.9-.3,1.4-.3.9,0,1.5.3,2,.8s.7,1.3.7,2.4h0Z"/>
        <path id="DejaVuSans-65-4" class="cls-9" d="M267.8-113.9v.6h-5.8c0,.9.3,1.5.8,2s1.1.7,2,.7,1,0,1.4-.2.9-.3,1.4-.5v1.2c-.5.2-.9.3-1.4.4s-1,.2-1.4.2c-1.2,0-2.2-.4-2.9-1.1-.7-.7-1.1-1.7-1.1-2.9s.3-2.2,1-3c.7-.7,1.6-1.1,2.7-1.1s1.8.3,2.4,1,.9,1.6.9,2.7h0ZM266.6-114.3c0-.7-.2-1.2-.6-1.6-.4-.4-.9-.6-1.5-.6s-1.3.2-1.7.6-.7,1-.7,1.7h4.5Z"/>
        <path id="DejaVuSans-6d-2" class="cls-9" d="M275.8-115.9c.3-.6.7-1,1.1-1.3s1-.4,1.5-.4,1.4.3,1.8.8c.4.6.6,1.4.6,2.4v4.6h-1.3v-4.6c0-.7-.1-1.3-.4-1.6-.3-.4-.7-.5-1.2-.5s-1.2.2-1.5.6c-.4.4-.6,1-.6,1.8v4.3h-1.3v-4.6c0-.7-.1-1.3-.4-1.6s-.7-.5-1.2-.5-1.2.2-1.5.7c-.4.4-.6,1-.6,1.8v4.3h-1.3v-7.7h1.3v1.2c.3-.5.6-.8,1-1s.9-.3,1.4-.3,1,.1,1.4.4c.4.3.7.7.9,1.2h.3Z"/>
        <path id="DejaVuSans-65-5" class="cls-9" d="M290.1-113.9v.6h-5.8c0,.9.3,1.5.8,2s1.1.7,2,.7,1,0,1.4-.2.9-.3,1.4-.5v1.2c-.5.2-.9.3-1.4.4s-1,.2-1.4.2c-1.2,0-2.2-.4-2.9-1.1-.7-.7-1.1-1.7-1.1-2.9s.3-2.2,1-3c.7-.7,1.6-1.1,2.7-1.1s1.8.3,2.4,1,.9,1.6.9,2.7h0ZM288.8-114.3c0-.7-.2-1.2-.6-1.6-.4-.4-.9-.6-1.5-.6s-1.3.2-1.7.6-.7,1-.7,1.7h4.5Z"/>
      </g>
      <rect class="cls-1" x="101.4" y="160.6" width="452.1" height="293"/>
      <g>
        <path id="m8c26b7df59" class="cls-6" d="M181.5,309.3c.9,0,1.9-.3,2.5-1.1.6-.6,1.1-1.6,1.1-2.5s-.3-1.9-1.1-2.5c-.6-.6-1.6-1.1-2.5-1.1s-1.9.3-2.5,1.1c-.6.6-1.1,1.6-1.1,2.5s.3,1.9,1.1,2.5c.6.6,1.6,1.1,2.5,1.1Z"/>
        <path id="m8c26b7df59-2" class="cls-6" d="M193.8,333.4c.9,0,1.9-.3,2.5-1.1.6-.6,1.1-1.6,1.1-2.5s-.3-1.9-1.1-2.5c-.6-.6-1.6-1.1-2.5-1.1s-1.9.3-2.5,1.1c-.6.6-1.1,1.6-1.1,2.5s.3,1.9,1.1,2.5c.6.6,1.6,1.1,2.5,1.1Z"/>
        <path id="m8c26b7df59-3" class="cls-6" d="M181.5,330c.9,0,1.9-.3,2.5-1.1.6-.6,1.1-1.6,1.1-2.5s-.3-1.9-1.1-2.5c-.6-.6-1.6-1.1-2.5-1.1s-1.9.3-2.5,1.1c-.6.6-1.1,1.6-1.1,2.5s.3,1.9,1.1,2.5c.6.6,1.6,1.1,2.5,1.1Z"/>
      </g>
      <g id="text_5">
        <g>
          <path id="DejaVuSans-50-5" class="cls-9" d="M688.5,482.7v3.3h1.5c.6,0,1-.1,1.3-.4.3-.3.5-.7.5-1.2s-.2-.9-.5-1.2-.7-.4-1.3-.4h-1.5ZM687.3,481.8h2.7c1,0,1.7.2,2.2.7.5.4.8,1.1.8,1.9s-.3,1.5-.8,2c-.5.4-1.2.7-2.2.7h-1.5v3.5h-1.2v-8.7h0Z"/>
          <path id="DejaVuSans-72-6" class="cls-9" d="M698.1,485c-.1,0-.3-.1-.4-.2h-.5c-.6,0-1.1.2-1.4.6s-.5,1-.5,1.7v3.5h-1.1v-6.6h1.1v1c.2-.4.5-.7.9-.9s.8-.3,1.3-.3.2,0,.2,0h.3v1.1h.1Z"/>
          <path id="DejaVuSans-69-4" class="cls-9" d="M699.2,484h1.1v6.6h-1.1v-6.6ZM699.2,481.4h1.1v1.4h-1.1v-1.4Z"/>
          <path id="DejaVuSans-6d-3" class="cls-9" d="M707.7,485.2c.3-.5.6-.8,1-1.1s.8-.3,1.3-.3,1.2.2,1.6.7.6,1.2.6,2v4h-1.1v-3.9c0-.6-.1-1.1-.3-1.4-.2-.3-.6-.5-1-.5s-1,.2-1.3.6c-.3.4-.5.9-.5,1.5v3.7h-1.1v-3.9c0-.6-.1-1.1-.3-1.4s-.6-.5-1-.5-1,.2-1.3.6c-.3.4-.5.9-.5,1.5v3.7h-1.1v-6.6h1.1v1c.2-.4.5-.7.9-.9s.8-.3,1.2-.3.9.1,1.2.4c.3.2.6.6.7,1.1h-.1Z"/>
          <path id="DejaVuSans-61-12" class="cls-9" d="M717.2,487.2c-.9,0-1.5,0-1.8.3s-.5.5-.5,1,.1.7.4.9.6.3,1,.3,1.1-.2,1.4-.6.5-1,.5-1.7v-.2h-1.1.1ZM719.4,486.8v3.7h-1.1v-1c-.2.4-.6.7-.9.9-.4.2-.8.3-1.3.3s-1.2-.2-1.6-.6c-.4-.4-.6-.9-.6-1.5s.2-1.3.7-1.7,1.2-.6,2.2-.6h1.5c0-.6-.2-1-.5-1.3s-.8-.4-1.4-.4-.7,0-1.1.1c-.4,0-.7.2-1,.4v-1c.4-.2.8-.3,1.1-.3s.7-.1,1.1-.1c1,0,1.7.2,2.1.7.5.5.7,1.2.7,2.2v.2Z"/>
          <path id="DejaVuSans-72-7" class="cls-9" d="M725.4,485c-.1,0-.3-.1-.4-.2h-.5c-.6,0-1.1.2-1.4.6s-.5,1-.5,1.7v3.5h-1.1v-6.6h1.1v1c.2-.4.5-.7.9-.9s.8-.3,1.3-.3.2,0,.2,0h.3v1.1h.1Z"/>
          <path id="DejaVuSans-79-2" class="cls-9" d="M729.3,491.1c-.3.8-.6,1.3-.9,1.5s-.7.4-1.2.4h-.9v-.9h.6c.3,0,.5,0,.7-.2.2-.1.3-.5.5-1l.2-.5-2.7-6.5h1.1l2.1,5.1,2.1-5.1h1.1l-2.9,7.2h.2Z"/>
          <path id="DejaVuSans-20-10" class="cls-9" d="M732.5,490.5"/>
          <path id="DejaVuSans-54-2" class="cls-9" d="M736.3,481.8h7.4v1h-3.1v7.8h-1.2v-7.8h-3.1v-1h0Z"/>
          <path id="DejaVuSans-68-3" class="cls-9" d="M750.2,486.6v4h-1.1v-3.9c0-.6-.1-1.1-.4-1.4-.2-.3-.6-.5-1.1-.5s-1,.2-1.4.6c-.3.4-.5.9-.5,1.5v3.7h-1.1v-9.1h1.1v3.6c.3-.4.6-.7.9-.9s.8-.3,1.2-.3c.8,0,1.3.2,1.7.7.4.5.6,1.2.6,2.1h0Z"/>
          <path id="DejaVuSans-65-6" class="cls-9" d="M758,487v.5h-5c0,.7.3,1.3.7,1.7.4.4,1,.6,1.7.6s.8,0,1.2-.2.8-.3,1.2-.5v1c-.4.2-.8.3-1.2.4s-.8.1-1.2.1c-1,0-1.9-.3-2.5-.9-.6-.6-.9-1.4-.9-2.5s.3-1.9.9-2.6c.6-.6,1.4-.9,2.3-.9s1.6.3,2.1.9c.5.6.8,1.3.8,2.3h-.1ZM756.9,486.6c0-.6-.2-1.1-.5-1.4-.3-.4-.7-.5-1.3-.5s-1.1.2-1.4.5-.6.8-.6,1.4h3.8Z"/>
          <path id="DejaVuSans-6d-4" class="cls-9" d="M764.9,485.2c.3-.5.6-.8,1-1.1s.8-.3,1.3-.3,1.2.2,1.6.7.6,1.2.6,2v4h-1.1v-3.9c0-.6-.1-1.1-.3-1.4-.2-.3-.6-.5-1-.5s-1,.2-1.3.6c-.3.4-.5.9-.5,1.5v3.7h-1.1v-3.9c0-.6-.1-1.1-.3-1.4s-.6-.5-1-.5-1,.2-1.3.6c-.3.4-.5.9-.5,1.5v3.7h-1.1v-6.6h1.1v1c.2-.4.5-.7.9-.9s.8-.3,1.2-.3.9.1,1.2.4c.3.2.6.6.7,1.1h-.1Z"/>
          <path id="DejaVuSans-65-7" class="cls-9" d="M777.1,487v.5h-5c0,.7.3,1.3.7,1.7.4.4,1,.6,1.7.6s.8,0,1.2-.2.8-.3,1.2-.5v1c-.4.2-.8.3-1.2.4s-.8.1-1.2.1c-1,0-1.9-.3-2.5-.9-.6-.6-.9-1.4-.9-2.5s.3-1.9.9-2.6c.6-.6,1.4-.9,2.3-.9s1.6.3,2.1.9c.5.6.8,1.3.8,2.3h-.1ZM776,486.6c0-.6-.2-1.1-.5-1.4-.3-.4-.7-.5-1.3-.5s-1.1.2-1.4.5-.6.8-.6,1.4h3.8Z"/>
        </g>
      </g>
      <g id="PathCollection_8">
        <path id="m5f32ede703-5" class="cls-8" d="M675.2,507.5c.9,0,1.8-.4,2.5-1s1-1.6,1-2.5-.4-1.8-1-2.5-1.6-1-2.5-1-1.8.4-2.5,1-1,1.6-1,2.5.4,1.8,1,2.5,1.6,1,2.5,1Z"/>
      </g>
      <g id="text_6">
        <g>
          <path id="DejaVuSans-63-2" class="cls-9" d="M700.4,501.1v.9c-.3-.2-.6-.3-.8-.3s-.6-.1-.9-.1c-.6,0-1.1.2-1.5.6-.4.4-.5,1-.5,1.7s.2,1.3.5,1.7c.4.4.9.6,1.5.6s.6,0,.9-.1.6-.2.8-.3v.9c-.3.1-.6.2-.9.3h-.9c-.9,0-1.6-.3-2.2-.9-.5-.6-.8-1.3-.8-2.3s.3-1.8.8-2.3c.5-.6,1.3-.8,2.2-.8s.6,0,.9,0,.6.2.8.3h.1Z"/>
          <path id="DejaVuSans-6f-6" class="cls-9" d="M704.4,501.5c-.5,0-.9.2-1.3.6s-.5,1-.5,1.7.2,1.3.5,1.7.7.6,1.3.6.9-.2,1.3-.6c.3-.4.5-1,.5-1.7s-.2-1.3-.5-1.7-.7-.6-1.3-.6ZM704.4,500.7c.9,0,1.5.3,2,.8.5.6.7,1.3.7,2.3s-.2,1.8-.7,2.3c-.5.6-1.2.8-2,.8s-1.5-.3-2-.8c-.5-.6-.7-1.3-.7-2.3s.2-1.8.7-2.3c.5-.6,1.2-.8,2-.8Z"/>
          <path id="DejaVuSans-6d-5" class="cls-9" d="M713.5,502c.2-.4.5-.8.9-1s.7-.3,1.2-.3,1.1.2,1.5.7c.3.4.5,1.1.5,1.9v3.6h-1v-3.6c0-.6-.1-1-.3-1.3-.2-.3-.5-.4-.9-.4s-.9.2-1.2.5c-.3.3-.4.8-.4,1.4v3.4h-1v-3.6c0-.6-.1-1-.3-1.3s-.5-.4-.9-.4-.9.2-1.2.5c-.3.3-.4.8-.4,1.4v3.4h-1v-6h1v.9c.2-.4.5-.6.8-.8s.7-.3,1.1-.3.8.1,1.1.3c.3.2.5.5.7,1h-.2Z"/>
          <path id="DejaVuSans-6d-6" class="cls-9" d="M724.2,502c.2-.4.5-.8.9-1s.7-.3,1.2-.3,1.1.2,1.5.7c.3.4.5,1.1.5,1.9v3.6h-1v-3.6c0-.6-.1-1-.3-1.3-.2-.3-.5-.4-.9-.4s-.9.2-1.2.5c-.3.3-.4.8-.4,1.4v3.4h-1v-3.6c0-.6-.1-1-.3-1.3s-.5-.4-.9-.4-.9.2-1.2.5c-.3.3-.4.8-.4,1.4v3.4h-1v-6h1v.9c.2-.4.5-.6.8-.8s.7-.3,1.1-.3.8.1,1.1.3c.3.2.5.5.7,1h-.2Z"/>
          <path id="DejaVuSans-75" class="cls-9" d="M730.2,504.5v-3.6h1v3.6c0,.6.1,1,.3,1.3.2.3.6.4,1,.4s1-.2,1.3-.5.5-.8.5-1.4v-3.4h1v6h-1v-.9c-.2.4-.5.6-.8.8s-.7.3-1.1.3c-.7,0-1.2-.2-1.6-.6-.4-.4-.5-1.1-.5-1.9h0ZM732.7,500.7h0Z"/>
          <path id="DejaVuSans-6e-10" class="cls-9" d="M742.2,503.2v3.6h-1v-3.6c0-.6-.1-1-.3-1.3-.2-.3-.6-.4-1-.4s-1,.2-1.3.5-.5.8-.5,1.4v3.4h-1v-6h1v.9c.2-.4.5-.6.8-.8s.7-.3,1.1-.3c.7,0,1.2.2,1.6.6.4.4.5,1.1.5,1.9h0Z"/>
          <path id="DejaVuSans-69-5" class="cls-9" d="M744.2,500.9h1v6h-1v-6ZM744.2,498.5h1v1.3h-1v-1.3Z"/>
          <path id="DejaVuSans-74-7" class="cls-9" d="M748.3,499.1v1.7h2v.8h-2v3.3c0,.5,0,.8.2.9s.4.2.8.2h1v.8h-1c-.8,0-1.3-.1-1.6-.4-.3-.3-.4-.8-.4-1.6v-3.3h-.7v-.8h.7v-1.7h1Z"/>
          <path id="DejaVuSans-79-3" class="cls-9" d="M754.1,507.4c-.3.7-.6,1.2-.8,1.4-.3.2-.6.3-1.1.3h-.8v-.8h.6c.3,0,.5,0,.6-.2.2-.1.3-.4.5-.9l.2-.5-2.4-5.9h1l1.9,4.7,1.9-4.7h1l-2.6,6.6h0Z"/>
          <path id="DejaVuSans-5f" class="cls-9" d="M762.7,508.7v.8h-5.7v-.8h5.7Z"/>
          <path id="DejaVuSans-65-8" class="cls-9" d="M768.7,503.6v.5h-4.5c0,.7.2,1.2.6,1.6.4.4.9.5,1.5.5s.7,0,1.1-.1.7-.2,1.1-.4v.9c-.4.2-.7.3-1.1.3s-.7.1-1.1.1c-1,0-1.7-.3-2.3-.8-.6-.6-.8-1.3-.8-2.3s.3-1.8.8-2.3c.5-.6,1.2-.9,2.2-.9s1.4.3,1.9.8.7,1.2.7,2.1h-.1ZM767.8,503.3c0-.5-.2-1-.5-1.3s-.7-.5-1.2-.5-1,.2-1.3.5-.5.8-.6,1.3h3.6Z"/>
          <path id="DejaVuSans-76" class="cls-9" d="M769.7,500.9h1l1.9,5,1.9-5h1l-2.3,6h-1.3l-2.3-6h0Z"/>
          <path id="DejaVuSans-65-9" class="cls-9" d="M782,503.6v.5h-4.5c0,.7.2,1.2.6,1.6.4.4.9.5,1.5.5s.7,0,1.1-.1.7-.2,1.1-.4v.9c-.4.2-.7.3-1.1.3s-.7.1-1.1.1c-1,0-1.7-.3-2.3-.8-.6-.6-.8-1.3-.8-2.3s.3-1.8.8-2.3c.5-.6,1.2-.9,2.2-.9s1.4.3,1.9.8.7,1.2.7,2.1h-.1ZM781,503.3c0-.5-.2-1-.5-1.3s-.7-.5-1.2-.5-1,.2-1.3.5-.5.8-.6,1.3h3.6Z"/>
          <path id="DejaVuSans-6e-11" class="cls-9" d="M788.6,503.2v3.6h-1v-3.6c0-.6-.1-1-.3-1.3-.2-.3-.6-.4-1-.4s-1,.2-1.3.5-.5.8-.5,1.4v3.4h-1v-6h1v.9c.2-.4.5-.6.8-.8s.7-.3,1.1-.3c.7,0,1.2.2,1.6.6.4.4.5,1.1.5,1.9h0Z"/>
          <path id="DejaVuSans-74-8" class="cls-9" d="M791.6,499.1v1.7h2v.8h-2v3.3c0,.5,0,.8.2.9s.4.2.8.2h1v.8h-1c-.8,0-1.3-.1-1.6-.4-.3-.3-.4-.8-.4-1.6v-3.3h-.7v-.8h.7v-1.7h1Z"/>
          <path id="DejaVuSans-73-6" class="cls-9" d="M798.8,501v.9c-.3-.1-.6-.3-.9-.3s-.6-.1-.9-.1c-.5,0-.9,0-1.1.2s-.4.4-.4.7,0,.4.3.5.5.3,1.1.4h.3c.7.2,1.2.4,1.5.7s.4.7.4,1.1-.2,1-.7,1.3c-.4.3-1.1.5-1.8.5h-1c-.3,0-.7-.2-1.1-.3v-1c.4.2.7.3,1.1.4.4,0,.7.1,1.1.1s.8,0,1.1-.2c.3-.2.4-.4.4-.7s0-.5-.3-.6c-.2-.1-.6-.3-1.2-.4h-.3c-.6-.2-1.1-.4-1.3-.7-.3-.3-.4-.6-.4-1.1s.2-1,.6-1.3,1-.5,1.7-.5h1c.3,0,.6.1.9.2v.2Z"/>
        </g>
      </g>
      <g id="PathCollection_9">
        <path id="m55f24ed21c-5" class="cls-5" d="M675.2,524c.9,0,1.8-.4,2.5-1s1-1.6,1-2.5-.4-1.8-1-2.5-1.6-1-2.5-1-1.8.4-2.5,1-1,1.6-1,2.5.4,1.8,1,2.5,1.6,1,2.5,1Z"/>
      </g>
      <g id="text_7">
        <g>
          <path id="DejaVuSans-64-4" class="cls-9" d="M700,518.2v-3.3h1v8.4h-1v-.9c-.2.4-.5.6-.8.8-.3.2-.7.3-1.1.3-.7,0-1.3-.3-1.8-.9s-.7-1.3-.7-2.3.2-1.7.7-2.3,1-.9,1.8-.9.8,0,1.1.3c.3.2.6.4.8.8h0ZM696.7,520.3c0,.7.1,1.3.4,1.7.3.4.7.6,1.2.6s.9-.2,1.2-.6c.3-.4.5-1,.5-1.7s-.2-1.3-.5-1.7-.7-.6-1.2-.6-.9.2-1.2.6-.4,1-.4,1.7Z"/>
          <path id="DejaVuSans-65-10" class="cls-9" d="M708.2,520.1v.5h-4.5c0,.7.2,1.2.6,1.6s.9.5,1.5.5.7,0,1.1-.1.7-.2,1.1-.4v.9c-.4.2-.7.3-1.1.3s-.7.1-1.1.1c-1,0-1.7-.3-2.3-.8-.6-.6-.8-1.3-.8-2.3s.3-1.8.8-2.3c.5-.6,1.2-.9,2.2-.9s1.4.3,1.9.8.7,1.2.7,2.1h-.1ZM707.2,519.8c0-.5-.2-1-.5-1.3s-.7-.5-1.2-.5-1,.2-1.3.5-.5.8-.6,1.3h3.6Z"/>
          <path id="DejaVuSans-73-7" class="cls-9" d="M713.7,517.5v.9c-.3-.1-.6-.3-.9-.3s-.6-.1-.9-.1c-.5,0-.9,0-1.1.2s-.4.4-.4.7,0,.4.3.5.5.3,1.1.4h.3c.7.2,1.2.4,1.5.7s.4.7.4,1.1-.2,1-.7,1.3c-.4.3-1.1.5-1.8.5h-1c-.3,0-.7-.2-1.1-.3v-1c.4.2.7.3,1.1.4.4,0,.7.1,1.1.1s.8,0,1.1-.2c.3-.2.4-.4.4-.7s0-.5-.3-.6c-.2-.1-.6-.3-1.2-.4h-.3c-.6-.2-1.1-.4-1.3-.7-.3-.3-.4-.6-.4-1.1s.2-1,.6-1.3,1-.5,1.7-.5h1c.3,0,.6.1.9.2v.2Z"/>
          <path id="DejaVuSans-69-6" class="cls-9" d="M715.5,517.3h1v6h-1v-6h0ZM715.5,515h1v1.3h-1v-1.3Z"/>
          <path id="DejaVuSans-67-3" class="cls-9" d="M722.6,520.2c0-.7-.1-1.3-.4-1.7s-.7-.6-1.2-.6-.9.2-1.2.6c-.3.4-.4.9-.4,1.7s.1,1.3.4,1.7c.3.4.7.6,1.2.6s.9-.2,1.2-.6c.3-.4.4-.9.4-1.7ZM723.5,522.6c0,1-.2,1.8-.7,2.3s-1.1.7-2.1.7h-1c-.3,0-.6-.1-.9-.2v-1c.3.2.6.3.9.3s.6.1.9.1c.6,0,1.1-.2,1.5-.5.3-.3.5-.8.5-1.5v-.5c-.2.4-.5.6-.8.8s-.7.3-1.1.3c-.7,0-1.3-.3-1.8-.8-.5-.6-.7-1.3-.7-2.2s.2-1.7.7-2.2c.5-.6,1-.8,1.8-.8s.8,0,1.1.3.6.4.8.8v-.9h1v5.3-.3Z"/>
          <path id="DejaVuSans-6e-12" class="cls-9" d="M730.6,519.7v3.6h-1v-3.6c0-.6-.1-1-.3-1.3-.2-.3-.6-.4-1-.4s-1,.2-1.3.5-.5.8-.5,1.4v3.4h-1v-6h1v.9c.2-.4.5-.6.8-.8s.7-.3,1.1-.3c.7,0,1.2.2,1.6.6.4.4.5,1.1.5,1.9h0Z"/>
          <path id="DejaVuSans-5f-2" class="cls-9" d="M737.1,525.2v.8h-5.7v-.8h5.7Z"/>
          <path id="DejaVuSans-6d-7" class="cls-9" d="M742.7,518.5c.2-.4.5-.8.9-1s.7-.3,1.2-.3,1.1.2,1.5.7c.3.4.5,1.1.5,1.9v3.6h-1v-3.6c0-.6-.1-1-.3-1.3-.2-.3-.5-.4-.9-.4s-.9.2-1.2.5c-.3.3-.4.8-.4,1.4v3.4h-1v-3.6c0-.6-.1-1-.3-1.3s-.5-.4-.9-.4-.9.2-1.2.5c-.3.3-.4.8-.4,1.4v3.4h-1v-6h1v.9c.2-.4.5-.6.8-.8s.7-.3,1.1-.3.8.1,1.1.3c.3.2.5.5.7,1h-.2Z"/>
          <path id="DejaVuSans-69-7" class="cls-9" d="M748.8,517.3h1v6h-1v-6h0ZM748.8,515h1v1.3h-1v-1.3Z"/>
          <path id="DejaVuSans-6e-13" class="cls-9" d="M756.8,519.7v3.6h-1v-3.6c0-.6-.1-1-.3-1.3-.2-.3-.6-.4-1-.4s-1,.2-1.3.5-.5.8-.5,1.4v3.4h-1v-6h1v.9c.2-.4.5-.6.8-.8s.7-.3,1.1-.3c.7,0,1.2.2,1.6.6.4.4.5,1.1.5,1.9h0Z"/>
          <path id="DejaVuSans-69-8" class="cls-9" d="M758.8,517.3h1v6h-1v-6h0ZM758.8,515h1v1.3h-1v-1.3Z"/>
          <path id="DejaVuSans-6d-8" class="cls-9" d="M766.5,518.5c.2-.4.5-.8.9-1s.7-.3,1.2-.3,1.1.2,1.5.7c.3.4.5,1.1.5,1.9v3.6h-1v-3.6c0-.6-.1-1-.3-1.3-.2-.3-.5-.4-.9-.4s-.9.2-1.2.5c-.3.3-.4.8-.4,1.4v3.4h-1v-3.6c0-.6-.1-1-.3-1.3s-.5-.4-.9-.4-.9.2-1.2.5c-.3.3-.4.8-.4,1.4v3.4h-1v-6h1v.9c.2-.4.5-.6.8-.8s.7-.3,1.1-.3.8.1,1.1.3c.3.2.5.5.7,1h-.2Z"/>
          <path id="DejaVuSans-61-13" class="cls-9" d="M775.3,520.3c-.8,0-1.4,0-1.7.3s-.5.5-.5.9.1.6.3.8.5.3.9.3,1-.2,1.3-.6.5-.9.5-1.5v-.2h-1,.2ZM777.3,519.9v3.4h-1v-.9c-.2.4-.5.6-.8.8-.3.2-.7.3-1.2.3s-1.1-.2-1.5-.5-.5-.8-.5-1.4.2-1.2.7-1.5,1.1-.5,2-.5h1.4c0-.6-.1-.9-.4-1.2s-.7-.4-1.3-.4-.7,0-1,.1c-.3,0-.6.2-.9.4v-.9c.4-.1.7-.2,1.1-.3.3,0,.7-.1,1-.1.9,0,1.5.2,2,.7.4.5.6,1.1.6,2.1h-.2Z"/>
          <path id="DejaVuSans-6c-3" class="cls-9" d="M779.3,515h1v8.4h-1v-8.4Z"/>
        </g>
      </g>
      <g id="PathCollection_10">
        <path id="md9496a7ec6-6" class="cls-2" d="M675.2,540.4c.9,0,1.8-.4,2.5-1s1-1.6,1-2.5-.4-1.8-1-2.5-1.6-1-2.5-1-1.8.4-2.5,1-1,1.6-1,2.5.4,1.8,1,2.5,1.6,1,2.5,1Z"/>
      </g>
      <g id="text_8">
        <g>
          <path id="DejaVuSans-65-11" class="cls-9" d="M701.2,536.5v.5h-4.5c0,.7.2,1.2.6,1.6s.9.5,1.5.5.7,0,1.1-.1.7-.2,1.1-.4v.9c-.4.2-.7.3-1.1.3s-.7.1-1.1.1c-1,0-1.7-.3-2.3-.8-.6-.6-.8-1.3-.8-2.3s.3-1.8.8-2.3c.5-.6,1.2-.9,2.2-.9s1.4.3,1.9.8.7,1.2.7,2.1h-.1ZM700.2,536.2c0-.5-.2-1-.5-1.3s-.7-.5-1.2-.5-1,.2-1.3.5-.5.8-.6,1.3h3.6Z"/>
          <path id="DejaVuSans-74-9" class="cls-9" d="M703.8,532.1v1.7h2v.8h-2v3.3c0,.5,0,.8.2.9s.4.2.8.2h1v.8h-1c-.8,0-1.3-.1-1.6-.4-.3-.3-.4-.8-.4-1.6v-3.3h-.7v-.8h.7v-1.7h1Z"/>
          <path id="DejaVuSans-68-4" class="cls-9" d="M712.1,536.1v3.6h-1v-3.6c0-.6-.1-1-.3-1.3-.2-.3-.6-.4-1-.4s-1,.2-1.3.5-.5.8-.5,1.4v3.4h-1v-8.4h1v3.3c.2-.4.5-.6.8-.8.3-.2.7-.3,1.1-.3.7,0,1.2.2,1.6.6s.5,1.1.5,1.9h0Z"/>
          <path id="DejaVuSans-69-9" class="cls-9" d="M714.1,533.8h1v6h-1v-6ZM714.1,531.4h1v1.3h-1v-1.3Z"/>
          <path id="DejaVuSans-63-3" class="cls-9" d="M721.5,534v.9c-.3-.2-.6-.3-.8-.3s-.6-.1-.9-.1c-.6,0-1.1.2-1.5.6s-.5,1-.5,1.7.2,1.3.5,1.7c.4.4.9.6,1.5.6s.6,0,.9-.1.6-.2.8-.3v.9c-.3.1-.6.2-.9.3h-.9c-.9,0-1.6-.3-2.2-.9-.5-.6-.8-1.3-.8-2.3s.3-1.8.8-2.3c.5-.6,1.3-.8,2.2-.8s.6,0,.9,0,.6.2.8.3h.1Z"/>
          <path id="DejaVuSans-61-14" class="cls-9" d="M726,536.8c-.8,0-1.4,0-1.7.3s-.5.5-.5.9.1.6.3.8.5.3.9.3,1-.2,1.3-.6.5-.9.5-1.5v-.2h-1,.2ZM727.9,536.3v3.4h-1v-.9c-.2.4-.5.6-.8.8-.3.2-.7.3-1.2.3s-1.1-.2-1.5-.5-.5-.8-.5-1.4.2-1.2.7-1.5,1.1-.5,2-.5h1.4c0-.6-.1-.9-.4-1.2s-.7-.4-1.3-.4-.7,0-1,.1c-.3,0-.6.2-.9.4v-.9c.4-.1.7-.2,1.1-.3.3,0,.7-.1,1-.1.9,0,1.5.2,2,.7.4.5.6,1.1.6,2.1h-.2Z"/>
          <path id="DejaVuSans-6c-4" class="cls-9" d="M730,531.4h1v8.4h-1v-8.4Z"/>
          <path id="DejaVuSans-5f-3" class="cls-9" d="M737.6,541.6v.8h-5.7v-.8h5.7Z"/>
          <path id="DejaVuSans-73-8" class="cls-9" d="M742.4,533.9v.9c-.3-.1-.6-.3-.9-.3s-.6-.1-.9-.1c-.5,0-.9,0-1.1.2s-.4.4-.4.7,0,.4.3.5.5.3,1.1.4h.3c.7.2,1.2.4,1.5.7s.4.7.4,1.1-.2,1-.7,1.3c-.4.3-1.1.5-1.8.5h-1c-.3,0-.7-.2-1.1-.3v-1c.4.2.7.3,1.1.4.4,0,.7.1,1.1.1s.8,0,1.1-.2c.3-.2.4-.4.4-.7s0-.5-.3-.6c-.2-.1-.6-.3-1.2-.4h-.3c-.6-.2-1.1-.4-1.3-.7-.3-.3-.4-.6-.4-1.1s.2-1,.6-1.3,1-.5,1.7-.5h1c.3,0,.6.1.9.2v.2Z"/>
          <path id="DejaVuSans-6f-7" class="cls-9" d="M746.6,534.5c-.5,0-.9.2-1.3.6s-.5,1-.5,1.7.2,1.3.5,1.7c.3.4.7.6,1.3.6s.9-.2,1.3-.6c.3-.4.5-1,.5-1.7s-.2-1.3-.5-1.7c-.3-.4-.7-.6-1.3-.6ZM746.6,533.6c.9,0,1.5.3,2,.8.5.6.7,1.3.7,2.3s-.2,1.8-.7,2.3c-.5.6-1.2.8-2,.8s-1.5-.3-2-.8c-.5-.6-.7-1.3-.7-2.3s.2-1.8.7-2.3c.5-.6,1.2-.8,2-.8Z"/>
          <path id="DejaVuSans-75-2" class="cls-9" d="M750.9,537.4v-3.6h1v3.6c0,.6.1,1,.3,1.3.2.3.6.4,1,.4s1-.2,1.3-.5.5-.8.5-1.4v-3.4h1v6h-1v-.9c-.2.4-.5.6-.8.8-.3.2-.7.3-1.1.3-.7,0-1.2-.2-1.6-.6s-.5-1.1-.5-1.9h0ZM753.4,533.6h0Z"/>
          <path id="DejaVuSans-72-8" class="cls-9" d="M761.4,534.7c-.1,0-.2-.1-.4-.1h-.4c-.6,0-1,.2-1.3.5s-.4.9-.4,1.6v3.2h-1v-6h1v.9c.2-.4.5-.6.8-.8.3-.2.7-.3,1.2-.3s.1,0,.2,0h.3v1h0Z"/>
          <path id="DejaVuSans-63-4" class="cls-9" d="M766.6,534v.9c-.3-.2-.6-.3-.8-.3s-.6-.1-.9-.1c-.6,0-1.1.2-1.5.6s-.5,1-.5,1.7.2,1.3.5,1.7c.4.4.9.6,1.5.6s.6,0,.9-.1.6-.2.8-.3v.9c-.3.1-.6.2-.9.3h-.9c-.9,0-1.6-.3-2.2-.9-.5-.6-.8-1.3-.8-2.3s.3-1.8.8-2.3c.5-.6,1.3-.8,2.2-.8s.6,0,.9,0,.6.2.8.3h.1Z"/>
          <path id="DejaVuSans-69-10" class="cls-9" d="M768.3,533.8h1v6h-1v-6ZM768.3,531.4h1v1.3h-1v-1.3Z"/>
          <path id="DejaVuSans-6e-14" class="cls-9" d="M776.3,536.1v3.6h-1v-3.6c0-.6-.1-1-.3-1.3-.2-.3-.6-.4-1-.4s-1,.2-1.3.5-.5.8-.5,1.4v3.4h-1v-6h1v.9c.2-.4.5-.6.8-.8.3-.2.7-.3,1.1-.3.7,0,1.2.2,1.6.6s.5,1.1.5,1.9h0Z"/>
          <path id="DejaVuSans-67-4" class="cls-9" d="M782.3,536.7c0-.7-.1-1.3-.4-1.7-.3-.4-.7-.6-1.2-.6s-.9.2-1.2.6c-.3.4-.4.9-.4,1.7s.1,1.3.4,1.7c.3.4.7.6,1.2.6s.9-.2,1.2-.6c.3-.4.4-.9.4-1.7ZM783.2,539c0,1-.2,1.8-.7,2.3s-1.1.7-2.1.7h-1c-.3,0-.6-.1-.9-.2v-1c.3.2.6.3.9.3s.6.1.9.1c.6,0,1.1-.2,1.5-.5.3-.3.5-.8.5-1.5v-.5c-.2.4-.5.6-.8.8s-.7.3-1.1.3c-.7,0-1.3-.3-1.8-.8-.5-.6-.7-1.3-.7-2.2s.2-1.7.7-2.2c.5-.6,1-.8,1.8-.8s.8,0,1.1.3.6.4.8.8v-.9h1v5.3-.3Z"/>
        </g>
      </g>
      <g id="PathCollection_11">
        <path id="m66dda572d2-38" class="cls-3" d="M675.2,556.9c.9,0,1.8-.4,2.5-1s1-1.6,1-2.5-.4-1.8-1-2.5-1.6-1-2.5-1-1.8.4-2.5,1-1,1.6-1,2.5.4,1.8,1,2.5,1.6,1,2.5,1Z"/>
      </g>
      <g id="text_9">
        <g>
          <path id="DejaVuSans-6d-9" class="cls-9" d="M700.7,551.4c.2-.4.5-.8.9-1s.7-.3,1.2-.3,1.1.2,1.5.7c.3.4.5,1.1.5,1.9v3.6h-1v-3.6c0-.6-.1-1-.3-1.3-.2-.3-.5-.4-.9-.4s-.9.2-1.2.5c-.3.3-.4.8-.4,1.4v3.4h-1v-3.6c0-.6-.1-1-.3-1.3s-.5-.4-.9-.4-.9.2-1.2.5c-.3.3-.4.8-.4,1.4v3.4h-1v-6h1v.9c.2-.4.5-.6.8-.8s.7-.3,1.1-.3.8.1,1.1.3c.3.2.5.5.7,1h-.2Z"/>
          <path id="DejaVuSans-75-3" class="cls-9" d="M706.7,553.9v-3.6h1v3.6c0,.6.1,1,.3,1.3.2.3.6.4,1,.4s1-.2,1.3-.5.5-.8.5-1.4v-3.4h1v6h-1v-.9c-.2.4-.5.6-.8.8-.3.2-.7.3-1.1.3-.7,0-1.2-.2-1.6-.6s-.5-1.1-.5-1.9h0ZM709.2,550.1h0Z"/>
          <path id="DejaVuSans-6c-5" class="cls-9" d="M713.8,547.9h1v8.4h-1v-8.4Z"/>
          <path id="DejaVuSans-74-10" class="cls-9" d="M717.8,548.5v1.7h2v.8h-2v3.3c0,.5,0,.8.2.9s.4.2.8.2h1v.8h-1c-.8,0-1.3-.1-1.6-.4-.3-.3-.4-.8-.4-1.6v-3.3h-.7v-.8h.7v-1.7h1Z"/>
          <path id="DejaVuSans-69-11" class="cls-9" d="M721.1,550.2h1v6h-1v-6ZM721.1,547.9h1v1.3h-1v-1.3Z"/>
          <path id="DejaVuSans-5f-4" class="cls-9" d="M728.8,558.1v.8h-5.7v-.8h5.7Z"/>
          <path id="DejaVuSans-6c-6" class="cls-9" d="M729.7,547.9h1v8.4h-1v-8.4Z"/>
          <path id="DejaVuSans-6f-8" class="cls-9" d="M735.1,550.9c-.5,0-.9.2-1.3.6s-.5,1-.5,1.7.2,1.3.5,1.7c.3.4.7.6,1.3.6s.9-.2,1.3-.6c.3-.4.5-1,.5-1.7s-.2-1.3-.5-1.7c-.3-.4-.7-.6-1.3-.6ZM735.1,550.1c.9,0,1.5.3,2,.8.5.6.7,1.3.7,2.3s-.2,1.8-.7,2.3c-.5.6-1.2.8-2,.8s-1.5-.3-2-.8c-.5-.6-.7-1.3-.7-2.3s.2-1.8.7-2.3c.5-.6,1.2-.8,2-.8Z"/>
          <path id="DejaVuSans-63-5" class="cls-9" d="M743.8,550.4v.9c-.3-.2-.6-.3-.8-.3s-.6-.1-.9-.1c-.6,0-1.1.2-1.5.6s-.5,1-.5,1.7.2,1.3.5,1.7c.4.4.9.6,1.5.6s.6,0,.9-.1.6-.2.8-.3v.9c-.3.1-.6.2-.9.3h-.9c-.9,0-1.6-.3-2.2-.9-.5-.6-.8-1.3-.8-2.3s.3-1.8.8-2.3c.5-.6,1.3-.8,2.2-.8s.6,0,.9,0,.6.2.8.3h.1Z"/>
          <path id="DejaVuSans-61-15" class="cls-9" d="M748.2,553.2c-.8,0-1.4,0-1.7.3s-.5.5-.5.9.1.6.3.8.5.3.9.3,1-.2,1.3-.6.5-.9.5-1.5v-.2h-1,.2ZM750.2,552.8v3.4h-1v-.9c-.2.4-.5.6-.8.8-.3.2-.7.3-1.2.3s-1.1-.2-1.5-.5-.5-.8-.5-1.4.2-1.2.7-1.5,1.1-.5,2-.5h1.4c0-.6-.1-.9-.4-1.2s-.7-.4-1.3-.4-.7,0-1,.1c-.3,0-.6.2-.9.4v-.9c.4-.1.7-.2,1.1-.3.3,0,.7-.1,1-.1.9,0,1.5.2,2,.7.4.5.6,1.1.6,2.1h-.2Z"/>
          <path id="DejaVuSans-74-11" class="cls-9" d="M753.2,548.5v1.7h2v.8h-2v3.3c0,.5,0,.8.2.9s.4.2.8.2h1v.8h-1c-.8,0-1.3-.1-1.6-.4-.3-.3-.4-.8-.4-1.6v-3.3h-.7v-.8h.7v-1.7h1Z"/>
          <path id="DejaVuSans-69-12" class="cls-9" d="M756.6,550.2h1v6h-1v-6ZM756.6,547.9h1v1.3h-1v-1.3Z"/>
          <path id="DejaVuSans-6f-9" class="cls-9" d="M762,550.9c-.5,0-.9.2-1.3.6s-.5,1-.5,1.7.2,1.3.5,1.7c.3.4.7.6,1.3.6s.9-.2,1.3-.6c.3-.4.5-1,.5-1.7s-.2-1.3-.5-1.7c-.3-.4-.7-.6-1.3-.6ZM762,550.1c.9,0,1.5.3,2,.8.5.6.7,1.3.7,2.3s-.2,1.8-.7,2.3c-.5.6-1.2.8-2,.8s-1.5-.3-2-.8c-.5-.6-.7-1.3-.7-2.3s.2-1.8.7-2.3c.5-.6,1.2-.8,2-.8Z"/>
          <path id="DejaVuSans-6e-15" class="cls-9" d="M771.4,552.6v3.6h-1v-3.6c0-.6-.1-1-.3-1.3-.2-.3-.6-.4-1-.4s-1,.2-1.3.5-.5.8-.5,1.4v3.4h-1v-6h1v.9c.2-.4.5-.6.8-.8.3-.2.7-.3,1.1-.3.7,0,1.2.2,1.6.6s.5,1.1.5,1.9h0Z"/>
        </g>
      </g>
      <g id="PathCollection_12">
        <path id="mb6fe50044d-3" class="cls-4" d="M675.2,573.3c.9,0,1.8-.4,2.5-1s1-1.6,1-2.5-.4-1.8-1-2.5-1.6-1-2.5-1-1.8.4-2.5,1-1,1.6-1,2.5.4,1.8,1,2.5,1.6,1,2.5,1Z"/>
      </g>
      <g id="text_10">
        <g>
          <path id="DejaVuSans-6f-10" class="cls-9" d="M698.4,567.4c-.5,0-.9.2-1.3.6s-.5,1-.5,1.7.2,1.3.5,1.7c.3.4.7.6,1.3.6s.9-.2,1.3-.6c.3-.4.5-1,.5-1.7s-.2-1.3-.5-1.7c-.3-.4-.7-.6-1.3-.6ZM698.4,566.5c.9,0,1.5.3,2,.8.5.6.7,1.3.7,2.3s-.2,1.8-.7,2.3c-.5.6-1.2.8-2,.8s-1.5-.3-2-.8c-.5-.6-.7-1.3-.7-2.3s.2-1.8.7-2.3c.5-.6,1.2-.8,2-.8Z"/>
          <path id="DejaVuSans-72-9" class="cls-9" d="M706.3,567.6c-.1,0-.2-.1-.4-.1h-.4c-.6,0-1,.2-1.3.5s-.4.9-.4,1.6v3.2h-1v-6h1v.9c.2-.4.5-.6.8-.8.3-.2.7-.3,1.2-.3s.1,0,.2,0h.3v1h0Z"/>
          <path id="DejaVuSans-69-13" class="cls-9" d="M707.3,566.7h1v6h-1v-6ZM707.3,564.3h1v1.3h-1v-1.3Z"/>
          <path id="DejaVuSans-67-5" class="cls-9" d="M714.3,569.6c0-.7-.1-1.3-.4-1.7-.3-.4-.7-.6-1.2-.6s-.9.2-1.2.6c-.3.4-.4.9-.4,1.7s.1,1.3.4,1.7c.3.4.7.6,1.2.6s.9-.2,1.2-.6c.3-.4.4-.9.4-1.7ZM715.3,571.9c0,1-.2,1.8-.7,2.3s-1.1.7-2.1.7h-1c-.3,0-.6-.1-.9-.2v-1c.3.2.6.3.9.3s.6.1.9.1c.6,0,1.1-.2,1.5-.5.3-.3.5-.8.5-1.5v-.5c-.2.4-.5.6-.8.8s-.7.3-1.1.3c-.7,0-1.3-.3-1.8-.8-.5-.6-.7-1.3-.7-2.2s.2-1.7.7-2.2c.5-.6,1-.8,1.8-.8s.8,0,1.1.3.6.4.8.8v-.9h1v5.3-.3Z"/>
          <path id="DejaVuSans-69-14" class="cls-9" d="M717.4,566.7h1v6h-1v-6ZM717.4,564.3h1v1.3h-1v-1.3Z"/>
          <path id="DejaVuSans-6e-16" class="cls-9" d="M725.4,569v3.6h-1v-3.6c0-.6-.1-1-.3-1.3-.2-.3-.6-.4-1-.4s-1,.2-1.3.5-.5.8-.5,1.4v3.4h-1v-6h1v.9c.2-.4.5-.6.8-.8.3-.2.7-.3,1.1-.3.7,0,1.2.2,1.6.6s.5,1.1.5,1.9h0Z"/>
          <path id="DejaVuSans-5f-5" class="cls-9" d="M732,574.5v.8h-5.7v-.8h5.7Z"/>
          <path id="DejaVuSans-66-2" class="cls-9" d="M735.9,564.3v.8h-.9c-.4,0-.6,0-.7.2-.1.1-.2.4-.2.8v.5h1.6v.8h-1.6v5.2h-1v-5.2h-.9v-.8h.9v-.4c0-.7.2-1.2.5-1.5s.8-.5,1.5-.5h.9,0Z"/>
          <path id="DejaVuSans-6f-11" class="cls-9" d="M739.1,567.4c-.5,0-.9.2-1.3.6s-.5,1-.5,1.7.2,1.3.5,1.7c.3.4.7.6,1.3.6s.9-.2,1.3-.6c.3-.4.5-1,.5-1.7s-.2-1.3-.5-1.7c-.3-.4-.7-.6-1.3-.6ZM739.1,566.5c.9,0,1.5.3,2,.8.5.6.7,1.3.7,2.3s-.2,1.8-.7,2.3c-.5.6-1.2.8-2,.8s-1.5-.3-2-.8c-.5-.6-.7-1.3-.7-2.3s.2-1.8.7-2.3c.5-.6,1.2-.8,2-.8Z"/>
          <path id="DejaVuSans-63-6" class="cls-9" d="M747.8,566.9v.9c-.3-.2-.6-.3-.8-.3s-.6-.1-.9-.1c-.6,0-1.1.2-1.5.6s-.5,1-.5,1.7.2,1.3.5,1.7c.4.4.9.6,1.5.6s.6,0,.9-.1.6-.2.8-.3v.9c-.3.1-.6.2-.9.3h-.9c-.9,0-1.6-.3-2.2-.9-.5-.6-.8-1.3-.8-2.3s.3-1.8.8-2.3c.5-.6,1.3-.8,2.2-.8s.6,0,.9,0,.6.2.8.3h.1Z"/>
          <path id="DejaVuSans-75-4" class="cls-9" d="M749.4,570.3v-3.6h1v3.6c0,.6.1,1,.3,1.3.2.3.6.4,1,.4s1-.2,1.3-.5.5-.8.5-1.4v-3.4h1v6h-1v-.9c-.2.4-.5.6-.8.8-.3.2-.7.3-1.1.3-.7,0-1.2-.2-1.6-.6s-.5-1.1-.5-1.9h0ZM751.9,566.5h0Z"/>
          <path id="DejaVuSans-73-9" class="cls-9" d="M760.3,566.8v.9c-.3-.1-.6-.3-.9-.3s-.6-.1-.9-.1c-.5,0-.9,0-1.1.2s-.4.4-.4.7,0,.4.3.5.5.3,1.1.4h.3c.7.2,1.2.4,1.5.7s.4.7.4,1.1-.2,1-.7,1.3c-.4.3-1.1.5-1.8.5h-1c-.3,0-.7-.2-1.1-.3v-1c.4.2.7.3,1.1.4.4,0,.7.1,1.1.1s.8,0,1.1-.2c.3-.2.4-.4.4-.7s0-.5-.3-.6c-.2-.1-.6-.3-1.2-.4h-.3c-.6-.2-1.1-.4-1.3-.7-.3-.3-.4-.6-.4-1.1s.2-1,.6-1.3,1-.5,1.7-.5h1c.3,0,.6.1.9.2v.2Z"/>
        </g>
      </g>
      <g id="PathCollection_13">
        <path id="m55f24ed21c-6" class="cls-5" d="M675.2,589.8c.9,0,1.8-.4,2.5-1s1-1.6,1-2.5-.4-1.8-1-2.5-1.6-1-2.5-1-1.8.4-2.5,1-1,1.6-1,2.5.4,1.8,1,2.5,1.6,1,2.5,1Z"/>
      </g>
      <g id="text_11">
        <g>
          <path id="DejaVuSans-76-2" class="cls-9" d="M695.4,583.1h1l1.9,5,1.9-5h1l-2.3,6h-1.3l-2.3-6h0Z"/>
          <path id="DejaVuSans-65-12" class="cls-9" d="M707.7,585.9v.5h-4.5c0,.7.2,1.2.6,1.6s.9.5,1.5.5.7,0,1.1-.1.7-.2,1.1-.4v.9c-.4.2-.7.3-1.1.3s-.7.1-1.1.1c-1,0-1.7-.3-2.3-.8-.6-.6-.8-1.3-.8-2.3s.3-1.8.8-2.3c.5-.6,1.2-.9,2.2-.9s1.4.3,1.9.8.7,1.2.7,2.1h-.1ZM706.7,585.6c0-.5-.2-1-.5-1.3s-.7-.5-1.2-.5-1,.2-1.3.5-.5.8-.6,1.3h3.6Z"/>
          <path id="DejaVuSans-67-6" class="cls-9" d="M713.3,586.1c0-.7-.1-1.3-.4-1.7-.3-.4-.7-.6-1.2-.6s-.9.2-1.2.6c-.3.4-.4.9-.4,1.7s.1,1.3.4,1.7c.3.4.7.6,1.2.6s.9-.2,1.2-.6c.3-.4.4-.9.4-1.7ZM714.3,588.4c0,1-.2,1.8-.7,2.3s-1.1.7-2.1.7h-1c-.3,0-.6-.1-.9-.2v-1c.3.2.6.3.9.3s.6.1.9.1c.6,0,1.1-.2,1.5-.5.3-.3.5-.8.5-1.5v-.5c-.2.4-.5.6-.8.8s-.7.3-1.1.3c-.7,0-1.3-.3-1.8-.8-.5-.6-.7-1.3-.7-2.2s.2-1.7.7-2.2c.5-.6,1-.8,1.8-.8s.8,0,1.1.3.6.4.8.8v-.9h1v5.3-.3Z"/>
          <path id="DejaVuSans-61-16" class="cls-9" d="M719.1,586.1c-.8,0-1.4,0-1.7.3s-.5.5-.5.9.1.6.3.8.5.3.9.3,1-.2,1.3-.6.5-.9.5-1.5v-.2h-1,.2ZM721,585.7v3.4h-1v-.9c-.2.4-.5.6-.8.8-.3.2-.7.3-1.2.3s-1.1-.2-1.5-.5-.5-.8-.5-1.4.2-1.2.7-1.5,1.1-.5,2-.5h1.4c0-.6-.1-.9-.4-1.2s-.7-.4-1.3-.4-.7,0-1,.1c-.3,0-.6.2-.9.4v-.9c.4-.1.7-.2,1.1-.3.3,0,.7-.1,1-.1.9,0,1.5.2,2,.7.4.5.6,1.1.6,2.1h-.2Z"/>
          <path id="DejaVuSans-6e-17" class="cls-9" d="M728.1,585.5v3.6h-1v-3.6c0-.6-.1-1-.3-1.3-.2-.3-.6-.4-1-.4s-1,.2-1.3.5-.5.8-.5,1.4v3.4h-1v-6h1v.9c.2-.4.5-.6.8-.8.3-.2.7-.3,1.1-.3.7,0,1.2.2,1.6.6s.5,1.1.5,1.9h0Z"/>
          <path id="DejaVuSans-5f-6" class="cls-9" d="M734.6,591v.8h-5.7v-.8h5.7Z"/>
          <path id="DejaVuSans-66-3" class="cls-9" d="M738.6,580.8v.8h-.9c-.4,0-.6,0-.7.2-.1.1-.2.4-.2.8v.5h1.6v.8h-1.6v5.2h-1v-5.2h-.9v-.8h.9v-.4c0-.7.2-1.2.5-1.5s.8-.5,1.5-.5h.9,0Z"/>
          <path id="DejaVuSans-72-10" class="cls-9" d="M742.9,584c-.1,0-.2-.1-.4-.1h-.4c-.6,0-1,.2-1.3.5s-.4.9-.4,1.6v3.2h-1v-6h1v.9c.2-.4.5-.6.8-.8.3-.2.7-.3,1.2-.3s.1,0,.2,0h.3v1h0Z"/>
          <path id="DejaVuSans-69-15" class="cls-9" d="M743.9,583.1h1v6h-1v-6ZM743.9,580.8h1v1.3h-1v-1.3Z"/>
          <path id="DejaVuSans-65-13" class="cls-9" d="M752.1,585.9v.5h-4.5c0,.7.2,1.2.6,1.6s.9.5,1.5.5.7,0,1.1-.1.7-.2,1.1-.4v.9c-.4.2-.7.3-1.1.3s-.7.1-1.1.1c-1,0-1.7-.3-2.3-.8-.6-.6-.8-1.3-.8-2.3s.3-1.8.8-2.3c.5-.6,1.2-.9,2.2-.9s1.4.3,1.9.8.7,1.2.7,2.1h-.1ZM751.1,585.6c0-.5-.2-1-.5-1.3s-.7-.5-1.2-.5-1,.2-1.3.5-.5.8-.6,1.3h3.6Z"/>
          <path id="DejaVuSans-6e-18" class="cls-9" d="M758.8,585.5v3.6h-1v-3.6c0-.6-.1-1-.3-1.3-.2-.3-.6-.4-1-.4s-1,.2-1.3.5-.5.8-.5,1.4v3.4h-1v-6h1v.9c.2-.4.5-.6.8-.8.3-.2.7-.3,1.1-.3.7,0,1.2.2,1.6.6s.5,1.1.5,1.9h0Z"/>
          <path id="DejaVuSans-64-5" class="cls-9" d="M764.7,584v-3.3h1v8.4h-1v-.9c-.2.4-.5.6-.8.8-.3.2-.7.3-1.1.3-.7,0-1.3-.3-1.8-.9s-.7-1.3-.7-2.3.2-1.7.7-2.3c.5-.6,1-.9,1.8-.9s.8,0,1.1.3c.3.2.6.4.8.8ZM761.3,586.1c0,.7.1,1.3.4,1.7.3.4.7.6,1.2.6s.9-.2,1.2-.6c.3-.4.5-1,.5-1.7s-.2-1.3-.5-1.7c-.3-.4-.7-.6-1.2-.6s-.9.2-1.2.6-.4,1-.4,1.7Z"/>
          <path id="DejaVuSans-6c-7" class="cls-9" d="M767.7,580.8h1v8.4h-1v-8.4Z"/>
          <path id="DejaVuSans-79-4" class="cls-9" d="M773.3,589.7c-.3.7-.6,1.2-.8,1.4-.3.2-.6.3-1.1.3h-.8v-.8h.6c.3,0,.5,0,.6-.2.2-.1.3-.4.5-.9l.2-.5-2.4-5.9h1l1.9,4.7,1.9-4.7h1l-2.6,6.6h0Z"/>
        </g>
      </g>
    </g>
  </g>
</svg>