<?xml version="1.0" encoding="UTF-8"?>
<svg xmlns="http://www.w3.org/2000/svg" version="1.1" viewBox="0 0 576 576">
  <defs>
    <style>
      .cls-1 {
        fill: none;
      }

      .cls-2 {
        fill: #e78ac3;
      }

      .cls-2, .cls-3, .cls-4, .cls-5, .cls-6, .cls-7, .cls-8 {
        stroke-linejoin: round;
      }

      .cls-2, .cls-3, .cls-5, .cls-6, .cls-8 {
        fill-opacity: .9;
        stroke: #fff;
        stroke-opacity: .9;
        stroke-width: .6px;
      }

      .cls-3 {
        fill: #ffd92f;
      }

      .cls-9 {
        fill: #262626;
      }

      .cls-4 {
        fill-opacity: .4;
        opacity: .2;
        stroke: #ccc;
        stroke-opacity: .4;
        stroke-width: .5px;
      }

      .cls-5 {
        fill: #b3b3b3;
      }

      .cls-6 {
        fill: #fc8d62;
      }

      .cls-7 {
        stroke: #000;
      }

      .cls-8 {
        fill: #66c2a5;
      }
    </style>
  </defs>
  <!-- Generator: Adobe Illustrator 28.7.7, SVG Export Plug-In . SVG Version: 1.2.0 Build 194)  -->
  <g>
    <g id="Layer_1">
      <rect class="cls-1" x="158.8" y="-693.5" width="296.4" height="1217.4"/>
      <path id="m49446855ba" class="cls-4" d="M386.8,365.5l3.5-5.1,6.5-5.2,3.9-4.5,8.5,16.7v16.5c.1,0-8.3,12.5-8.3,12.5l-34.3,11.2-4.6,15.2,2.9,38.2-38.2-18.8-19.6-.5-8.3,23.2-3.9,27.2-10.1,16.1-14.9,3.5-18.4-10.5-5.5-15.3-5.5-69.1-4-8.1-5.1-7.8-4.2-9.2-1.4-11.8,4.5-3.6,8.5-3.7,5.7-7.3-4.2-14.7-6-3.9-18.9-5.8-4.1-2,4.8-10.7,9.5-8.5,7-7.9-2.8-9-5.9-12.5,4.3-11,8.1-10.4,4.1-10.2-1.1-12-4.6-21.1-1.8-38.2.7-6.9,2.6-8.1,8.2-16.9,3.1-11.1,2-22.5-1.4-23.4-7.9-43.1,4.8.7,3.3,1.6,7,5.1,7.7-3.4,9.2,2.8,9.9,7,9.9,9.3,6,15.2,8.3,50.9h6.5l11.2-10.4,14.5,8.5,16.5,16.6,17.5,14,7.8-12.8,10.4-5.4,10.1,3.6,7.5,14.5-.7,18.1-7,17.2-14.1,24.2-1,8.8,2.3,19.5-1.4,8.5-4.6,4.6-6.5,3.5-6.4,4.9-4.3,9-.7,19,4.3,20.7,7.9,19.4,10.4,15.1"/>
      <rect class="cls-1" x="158.8" y="-693.5" width="296.4" height="1217.4"/>
      <g>
        <path id="md15af0dd22" class="cls-8" d="M355.3,393.4c2.3,0,4.5-.8,6-2.5s2.5-3.7,2.5-6-.8-4.5-2.5-6-3.7-2.5-6-2.5-4.5.8-6,2.5-2.5,3.7-2.5,6,.8,4.5,2.5,6,3.7,2.5,6,2.5Z"/>
        <path id="md15af0dd22-2" class="cls-8" d="M269.9,281.7c2.3,0,4.5-.8,6-2.5s2.5-3.7,2.5-6-.8-4.5-2.5-6-3.7-2.5-6-2.5-4.5.8-6,2.5-2.5,3.7-2.5,6,.8,4.5,2.5,6,3.7,2.5,6,2.5Z"/>
        <path id="md15af0dd22-3" class="cls-8" d="M357.4,393.2c2.3,0,4.5-.8,6-2.5s2.5-3.7,2.5-6-.8-4.5-2.5-6-3.7-2.5-6-2.5-4.5.8-6,2.5-2.5,3.7-2.5,6,.8,4.5,2.5,6,3.7,2.5,6,2.5Z"/>
        <path id="md15af0dd22-4" class="cls-8" d="M356.2,396.2c2.3,0,4.5-.8,6-2.5s2.5-3.7,2.5-6-.8-4.5-2.5-6-3.7-2.5-6-2.5-4.5.8-6,2.5-2.5,3.7-2.5,6,.8,4.5,2.5,6,3.7,2.5,6,2.5Z"/>
        <path id="md15af0dd22-5" class="cls-8" d="M353.4,394.2c2.3,0,4.5-.8,6-2.5s2.5-3.7,2.5-6-.8-4.5-2.5-6-3.7-2.5-6-2.5-4.5.8-6,2.5-2.5,3.7-2.5,6,.8,4.5,2.5,6,3.7,2.5,6,2.5Z"/>
      </g>
      <rect class="cls-1" x="158.8" y="-693.5" width="296.4" height="1217.4"/>
      <g>
        <path id="mc2a4c99029" class="cls-6" d="M353.6,394.3c2.3,0,4.5-.8,6-2.5s2.5-3.7,2.5-6-.8-4.5-2.5-6-3.7-2.5-6-2.5-4.5.8-6,2.5-2.5,3.7-2.5,6,.8,4.5,2.5,6,3.7,2.5,6,2.5Z"/>
        <path id="mc2a4c99029-2" class="cls-6" d="M353.6,394.3c2.3,0,4.5-.8,6-2.5s2.5-3.7,2.5-6-.8-4.5-2.5-6-3.7-2.5-6-2.5-4.5.8-6,2.5-2.5,3.7-2.5,6,.8,4.5,2.5,6,3.7,2.5,6,2.5Z"/>
        <path id="mc2a4c99029-3" class="cls-6" d="M355.1,394.4c2.3,0,4.5-.8,6-2.5s2.5-3.7,2.5-6-.8-4.5-2.5-6-3.7-2.5-6-2.5-4.5.8-6,2.5-2.5,3.7-2.5,6,.8,4.5,2.5,6,3.7,2.5,6,2.5Z"/>
        <path id="mc2a4c99029-4" class="cls-6" d="M267.3,271c2.3,0,4.5-.8,6-2.5s2.5-3.7,2.5-6-.8-4.5-2.5-6-3.7-2.5-6-2.5-4.5.8-6,2.5-2.5,3.7-2.5,6,.8,4.5,2.5,6,3.7,2.5,6,2.5Z"/>
        <path id="mc2a4c99029-5" class="cls-6" d="M353.8,393.8c2.3,0,4.5-.8,6-2.5s2.5-3.7,2.5-6-.8-4.5-2.5-6-3.7-2.5-6-2.5-4.5.8-6,2.5-2.5,3.7-2.5,6,.8,4.5,2.5,6,3.7,2.5,6,2.5Z"/>
      </g>
      <rect class="cls-1" x="158.8" y="-693.5" width="296.4" height="1217.4"/>
      <g>
        <path id="medeb8074ca" class="cls-2" d="M289.2,273.1c2.3,0,4.5-.8,6-2.5s2.5-3.7,2.5-6-.8-4.5-2.5-6-3.7-2.5-6-2.5-4.5.8-6,2.5-2.5,3.7-2.5,6,.8,4.5,2.5,6,3.7,2.5,6,2.5Z"/>
        <path id="medeb8074ca-2" class="cls-2" d="M353.6,394.8c2.3,0,4.5-.8,6-2.5s2.5-3.7,2.5-6-.8-4.5-2.5-6-3.7-2.5-6-2.5-4.5.8-6,2.5-2.5,3.7-2.5,6,.8,4.5,2.5,6,3.7,2.5,6,2.5Z"/>
        <path id="medeb8074ca-3" class="cls-2" d="M361.3,393.4c2.3,0,4.5-.8,6-2.5s2.5-3.7,2.5-6-.8-4.5-2.5-6-3.7-2.5-6-2.5-4.5.8-6,2.5-2.5,3.7-2.5,6,.8,4.5,2.5,6,3.7,2.5,6,2.5Z"/>
        <path id="medeb8074ca-4" class="cls-2" d="M287.6,508.6c2.3,0,4.5-.8,6-2.5s2.5-3.7,2.5-6-.8-4.5-2.5-6-3.7-2.5-6-2.5-4.5.8-6,2.5-2.5,3.7-2.5,6,.8,4.5,2.5,6,3.7,2.5,6,2.5Z"/>
        <path id="medeb8074ca-5" class="cls-2" d="M278.4,494.7c2.3,0,4.5-.8,6-2.5s2.5-3.7,2.5-6-.8-4.5-2.5-6-3.7-2.5-6-2.5-4.5.8-6,2.5-2.5,3.7-2.5,6,.8,4.5,2.5,6,3.7,2.5,6,2.5Z"/>
        <path id="medeb8074ca-6" class="cls-2" d="M357.1,394c2.3,0,4.5-.8,6-2.5s2.5-3.7,2.5-6-.8-4.5-2.5-6-3.7-2.5-6-2.5-4.5.8-6,2.5-2.5,3.7-2.5,6,.8,4.5,2.5,6,3.7,2.5,6,2.5Z"/>
        <path id="medeb8074ca-7" class="cls-2" d="M356.9,395.6c2.3,0,4.5-.8,6-2.5s2.5-3.7,2.5-6-.8-4.5-2.5-6-3.7-2.5-6-2.5-4.5.8-6,2.5-2.5,3.7-2.5,6,.8,4.5,2.5,6,3.7,2.5,6,2.5Z"/>
        <path id="medeb8074ca-8" class="cls-2" d="M301.5,472.4c2.3,0,4.5-.8,6-2.5s2.5-3.7,2.5-6-.8-4.5-2.5-6-3.7-2.5-6-2.5-4.5.8-6,2.5-2.5,3.7-2.5,6,.8,4.5,2.5,6,3.7,2.5,6,2.5Z"/>
        <path id="medeb8074ca-9" class="cls-2" d="M353.4,394.3c2.3,0,4.5-.8,6-2.5s2.5-3.7,2.5-6-.8-4.5-2.5-6-3.7-2.5-6-2.5-4.5.8-6,2.5-2.5,3.7-2.5,6,.8,4.5,2.5,6,3.7,2.5,6,2.5Z"/>
        <path id="medeb8074ca-10" class="cls-2" d="M340.6,374.7c2.3,0,4.5-.8,6-2.5s2.5-3.7,2.5-6-.8-4.5-2.5-6-3.7-2.5-6-2.5-4.5.8-6,2.5-2.5,3.7-2.5,6,.8,4.5,2.5,6,3.7,2.5,6,2.5Z"/>
        <path id="medeb8074ca-11" class="cls-2" d="M259.5,288.3c2.3,0,4.5-.8,6-2.5s2.5-3.7,2.5-6-.8-4.5-2.5-6-3.7-2.5-6-2.5-4.5.8-6,2.5-2.5,3.7-2.5,6,.8,4.5,2.5,6,3.7,2.5,6,2.5Z"/>
      </g>
      <path id="m57cc284f40" class="cls-3" d="M257.7,393.2c2.3,0,4.5-.8,6-2.5s2.5-3.7,2.5-6-.8-4.5-2.5-6-3.7-2.5-6-2.5-4.5.8-6,2.5-2.5,3.7-2.5,6,.8,4.5,2.5,6,3.7,2.5,6,2.5Z"/>
      <path id="m57cc284f40-2" class="cls-3" d="M285.6,250c2.3,0,4.5-.8,6-2.5s2.5-3.7,2.5-6-.8-4.5-2.5-6-3.7-2.5-6-2.5-4.5.8-6,2.5-2.5,3.7-2.5,6,.8,4.5,2.5,6,3.7,2.5,6,2.5Z"/>
      <path id="m57cc284f40-3" class="cls-3" d="M265.2,151.6c2.3,0,4.5-.8,6-2.5s2.5-3.7,2.5-6-.8-4.5-2.5-6-3.7-2.5-6-2.5-4.5.8-6,2.5-2.5,3.7-2.5,6,.8,4.5,2.5,6,3.7,2.5,6,2.5Z"/>
      <path id="m57cc284f40-4" class="cls-3" d="M359.4,366.3c2.3,0,4.5-.8,6-2.5s2.5-3.7,2.5-6-.8-4.5-2.5-6-3.7-2.5-6-2.5-4.5.8-6,2.5-2.5,3.7-2.5,6,.8,4.5,2.5,6,3.7,2.5,6,2.5Z"/>
      <path id="m57cc284f40-5" class="cls-3" d="M353.8,393.2c2.3,0,4.5-.8,6-2.5s2.5-3.7,2.5-6-.8-4.5-2.5-6-3.7-2.5-6-2.5-4.5.8-6,2.5-2.5,3.7-2.5,6,.8,4.5,2.5,6,3.7,2.5,6,2.5Z"/>
      <path id="m57cc284f40-6" class="cls-3" d="M314.6,379.4c2.3,0,4.5-.8,6-2.5s2.5-3.7,2.5-6-.8-4.5-2.5-6-3.7-2.5-6-2.5-4.5.8-6,2.5-2.5,3.7-2.5,6,.8,4.5,2.5,6,3.7,2.5,6,2.5Z"/>
      <path id="m57cc284f40-7" class="cls-3" d="M307.3,194.9c2.3,0,4.5-.8,6-2.5s2.5-3.7,2.5-6-.8-4.5-2.5-6-3.7-2.5-6-2.5-4.5.8-6,2.5-2.5,3.7-2.5,6,.8,4.5,2.5,6,3.7,2.5,6,2.5Z"/>
      <path id="m57cc284f40-8" class="cls-3" d="M297.6,486.9c2.3,0,4.5-.8,6-2.5s2.5-3.7,2.5-6-.8-4.5-2.5-6-3.7-2.5-6-2.5-4.5.8-6,2.5-2.5,3.7-2.5,6,.8,4.5,2.5,6,3.7,2.5,6,2.5Z"/>
      <path id="m57cc284f40-9" class="cls-3" d="M253.2,333.8c2.3,0,4.5-.8,6-2.5s2.5-3.7,2.5-6-.8-4.5-2.5-6-3.7-2.5-6-2.5-4.5.8-6,2.5-2.5,3.7-2.5,6,.8,4.5,2.5,6,3.7,2.5,6,2.5Z"/>
      <path id="m57cc284f40-10" class="cls-3" d="M255.3,177c2.3,0,4.5-.8,6-2.5s2.5-3.7,2.5-6-.8-4.5-2.5-6-3.7-2.5-6-2.5-4.5.8-6,2.5-2.5,3.7-2.5,6,.8,4.5,2.5,6,3.7,2.5,6,2.5Z"/>
      <path id="m57cc284f40-11" class="cls-3" d="M351.3,393.1c2.3,0,4.5-.8,6-2.5s2.5-3.7,2.5-6-.8-4.5-2.5-6-3.7-2.5-6-2.5-4.5.8-6,2.5-2.5,3.7-2.5,6,.8,4.5,2.5,6,3.7,2.5,6,2.5Z"/>
      <path id="m57cc284f40-12" class="cls-3" d="M309.1,429.3c2.3,0,4.5-.8,6-2.5s2.5-3.7,2.5-6-.8-4.5-2.5-6-3.7-2.5-6-2.5-4.5.8-6,2.5-2.5,3.7-2.5,6,.8,4.5,2.5,6,3.7,2.5,6,2.5Z"/>
      <path id="m57cc284f40-13" class="cls-3" d="M357.6,273.1c2.3,0,4.5-.8,6-2.5s2.5-3.7,2.5-6-.8-4.5-2.5-6-3.7-2.5-6-2.5-4.5.8-6,2.5-2.5,3.7-2.5,6,.8,4.5,2.5,6,3.7,2.5,6,2.5Z"/>
      <path id="m57cc284f40-14" class="cls-3" d="M297.2,455.3c2.3,0,4.5-.8,6-2.5s2.5-3.7,2.5-6-.8-4.5-2.5-6-3.7-2.5-6-2.5-4.5.8-6,2.5-2.5,3.7-2.5,6,.8,4.5,2.5,6,3.7,2.5,6,2.5Z"/>
      <path id="m57cc284f40-15" class="cls-3" d="M335.8,361.6c2.3,0,4.5-.8,6-2.5s2.5-3.7,2.5-6-.8-4.5-2.5-6-3.7-2.5-6-2.5-4.5.8-6,2.5-2.5,3.7-2.5,6,.8,4.5,2.5,6,3.7,2.5,6,2.5Z"/>
      <path id="m57cc284f40-16" class="cls-3" d="M353.8,317.2c2.3,0,4.5-.8,6-2.5s2.5-3.7,2.5-6-.8-4.5-2.5-6-3.7-2.5-6-2.5-4.5.8-6,2.5-2.5,3.7-2.5,6,.8,4.5,2.5,6,3.7,2.5,6,2.5Z"/>
      <path id="m57cc284f40-17" class="cls-3" d="M361.3,395.6c2.3,0,4.5-.8,6-2.5s2.5-3.7,2.5-6-.8-4.5-2.5-6-3.7-2.5-6-2.5-4.5.8-6,2.5-2.5,3.7-2.5,6,.8,4.5,2.5,6,3.7,2.5,6,2.5Z"/>
      <path id="m57cc284f40-18" class="cls-3" d="M350.5,395.8c2.3,0,4.5-.8,6-2.5s2.5-3.7,2.5-6-.8-4.5-2.5-6-3.7-2.5-6-2.5-4.5.8-6,2.5-2.5,3.7-2.5,6,.8,4.5,2.5,6,3.7,2.5,6,2.5Z"/>
      <path id="m57cc284f40-19" class="cls-3" d="M332.4,386.9c2.3,0,4.5-.8,6-2.5s2.5-3.7,2.5-6-.8-4.5-2.5-6-3.7-2.5-6-2.5-4.5.8-6,2.5-2.5,3.7-2.5,6,.8,4.5,2.5,6,3.7,2.5,6,2.5Z"/>
      <path id="m57cc284f40-20" class="cls-3" d="M298,485.6c2.3,0,4.5-.8,6-2.5s2.5-3.7,2.5-6-.8-4.5-2.5-6-3.7-2.5-6-2.5-4.5.8-6,2.5-2.5,3.7-2.5,6,.8,4.5,2.5,6,3.7,2.5,6,2.5Z"/>
      <path id="m57cc284f40-21" class="cls-3" d="M350.1,378c2.3,0,4.5-.8,6-2.5s2.5-3.7,2.5-6-.8-4.5-2.5-6-3.7-2.5-6-2.5-4.5.8-6,2.5-2.5,3.7-2.5,6,.8,4.5,2.5,6,3.7,2.5,6,2.5Z"/>
      <path id="m57cc284f40-22" class="cls-3" d="M316.1,373.9c2.3,0,4.5-.8,6-2.5s2.5-3.7,2.5-6-.8-4.5-2.5-6-3.7-2.5-6-2.5-4.5.8-6,2.5-2.5,3.7-2.5,6,.8,4.5,2.5,6,3.7,2.5,6,2.5Z"/>
      <path id="m57cc284f40-23" class="cls-3" d="M344.6,376.5c2.3,0,4.5-.8,6-2.5s2.5-3.7,2.5-6-.8-4.5-2.5-6-3.7-2.5-6-2.5-4.5.8-6,2.5-2.5,3.7-2.5,6,.8,4.5,2.5,6,3.7,2.5,6,2.5Z"/>
      <path id="m57cc284f40-24" class="cls-3" d="M266.9,271.3c2.3,0,4.5-.8,6-2.5s2.5-3.7,2.5-6-.8-4.5-2.5-6-3.7-2.5-6-2.5-4.5.8-6,2.5-2.5,3.7-2.5,6,.8,4.5,2.5,6,3.7,2.5,6,2.5Z"/>
      <path id="m57cc284f40-25" class="cls-3" d="M351.9,393.4c2.3,0,4.5-.8,6-2.5s2.5-3.7,2.5-6-.8-4.5-2.5-6-3.7-2.5-6-2.5-4.5.8-6,2.5-2.5,3.7-2.5,6,.8,4.5,2.5,6,3.7,2.5,6,2.5Z"/>
      <path id="m57cc284f40-26" class="cls-3" d="M298.2,261c2.3,0,4.5-.8,6-2.5s2.5-3.7,2.5-6-.8-4.5-2.5-6-3.7-2.5-6-2.5-4.5.8-6,2.5-2.5,3.7-2.5,6,.8,4.5,2.5,6,3.7,2.5,6,2.5Z"/>
      <path id="m57cc284f40-27" class="cls-3" d="M302.1,252.1c2.3,0,4.5-.8,6-2.5s2.5-3.7,2.5-6-.8-4.5-2.5-6-3.7-2.5-6-2.5-4.5.8-6,2.5-2.5,3.7-2.5,6,.8,4.5,2.5,6,3.7,2.5,6,2.5Z"/>
      <path id="m57cc284f40-28" class="cls-3" d="M355.8,395.7c2.3,0,4.5-.8,6-2.5s2.5-3.7,2.5-6-.8-4.5-2.5-6-3.7-2.5-6-2.5-4.5.8-6,2.5-2.5,3.7-2.5,6,.8,4.5,2.5,6,3.7,2.5,6,2.5Z"/>
      <path id="m57cc284f40-29" class="cls-3" d="M355.3,393.8c2.3,0,4.5-.8,6-2.5s2.5-3.7,2.5-6-.8-4.5-2.5-6-3.7-2.5-6-2.5-4.5.8-6,2.5-2.5,3.7-2.5,6,.8,4.5,2.5,6,3.7,2.5,6,2.5Z"/>
      <path id="m57cc284f40-30" class="cls-3" d="M344.7,338.8c2.3,0,4.5-.8,6-2.5s2.5-3.7,2.5-6-.8-4.5-2.5-6-3.7-2.5-6-2.5-4.5.8-6,2.5-2.5,3.7-2.5,6,.8,4.5,2.5,6,3.7,2.5,6,2.5Z"/>
      <path id="m57cc284f40-31" class="cls-3" d="M263.1,282.2c2.3,0,4.5-.8,6-2.5s2.5-3.7,2.5-6-.8-4.5-2.5-6-3.7-2.5-6-2.5-4.5.8-6,2.5-2.5,3.7-2.5,6,.8,4.5,2.5,6,3.7,2.5,6,2.5Z"/>
      <path id="m57cc284f40-32" class="cls-3" d="M239.8,324.1c2.3,0,4.5-.8,6-2.5s2.5-3.7,2.5-6-.8-4.5-2.5-6-3.7-2.5-6-2.5-4.5.8-6,2.5-2.5,3.7-2.5,6,.8,4.5,2.5,6,3.7,2.5,6,2.5Z"/>
      <path id="m57cc284f40-33" class="cls-3" d="M351.9,392.7c2.3,0,4.5-.8,6-2.5s2.5-3.7,2.5-6-.8-4.5-2.5-6-3.7-2.5-6-2.5-4.5.8-6,2.5-2.5,3.7-2.5,6,.8,4.5,2.5,6,3.7,2.5,6,2.5Z"/>
      <path id="m57cc284f40-34" class="cls-3" d="M261.6,467c2.3,0,4.5-.8,6-2.5s2.5-3.7,2.5-6-.8-4.5-2.5-6-3.7-2.5-6-2.5-4.5.8-6,2.5-2.5,3.7-2.5,6,.8,4.5,2.5,6,3.7,2.5,6,2.5Z"/>
      <path id="m57cc284f40-35" class="cls-3" d="M266.2,275.7c2.3,0,4.5-.8,6-2.5s2.5-3.7,2.5-6-.8-4.5-2.5-6-3.7-2.5-6-2.5-4.5.8-6,2.5-2.5,3.7-2.5,6,.8,4.5,2.5,6,3.7,2.5,6,2.5Z"/>
      <path id="m57cc284f40-36" class="cls-3" d="M261.2,275.8c2.3,0,4.5-.8,6-2.5s2.5-3.7,2.5-6-.8-4.5-2.5-6-3.7-2.5-6-2.5-4.5.8-6,2.5-2.5,3.7-2.5,6,.8,4.5,2.5,6,3.7,2.5,6,2.5Z"/>
      <path id="m57cc284f40-37" class="cls-3" d="M279,501.6c2.3,0,4.5-.8,6-2.5s2.5-3.7,2.5-6-.8-4.5-2.5-6-3.7-2.5-6-2.5-4.5.8-6,2.5-2.5,3.7-2.5,6,.8,4.5,2.5,6,3.7,2.5,6,2.5Z"/>
      <path id="m57cc284f40-38" class="cls-3" d="M353.6,394c2.3,0,4.5-.8,6-2.5s2.5-3.7,2.5-6-.8-4.5-2.5-6-3.7-2.5-6-2.5-4.5.8-6,2.5-2.5,3.7-2.5,6,.8,4.5,2.5,6,3.7,2.5,6,2.5Z"/>
      <path id="m57cc284f40-39" class="cls-3" d="M340.3,392.7c2.3,0,4.5-.8,6-2.5s2.5-3.7,2.5-6-.8-4.5-2.5-6-3.7-2.5-6-2.5-4.5.8-6,2.5-2.5,3.7-2.5,6,.8,4.5,2.5,6,3.7,2.5,6,2.5Z"/>
      <path id="m57cc284f40-40" class="cls-3" d="M358.3,369.7c2.3,0,4.5-.8,6-2.5s2.5-3.7,2.5-6-.8-4.5-2.5-6-3.7-2.5-6-2.5-4.5.8-6,2.5-2.5,3.7-2.5,6,.8,4.5,2.5,6,3.7,2.5,6,2.5Z"/>
      <path id="m57cc284f40-41" class="cls-3" d="M355.3,405.5c2.3,0,4.5-.8,6-2.5s2.5-3.7,2.5-6-.8-4.5-2.5-6-3.7-2.5-6-2.5-4.5.8-6,2.5-2.5,3.7-2.5,6,.8,4.5,2.5,6,3.7,2.5,6,2.5Z"/>
      <path id="m57cc284f40-42" class="cls-3" d="M294.1,466.9c2.3,0,4.5-.8,6-2.5s2.5-3.7,2.5-6-.8-4.5-2.5-6-3.7-2.5-6-2.5-4.5.8-6,2.5-2.5,3.7-2.5,6,.8,4.5,2.5,6,3.7,2.5,6,2.5Z"/>
      <path id="m57cc284f40-43" class="cls-3" d="M265.5,275.2c2.3,0,4.5-.8,6-2.5s2.5-3.7,2.5-6-.8-4.5-2.5-6-3.7-2.5-6-2.5-4.5.8-6,2.5-2.5,3.7-2.5,6,.8,4.5,2.5,6,3.7,2.5,6,2.5Z"/>
      <path id="m57cc284f40-44" class="cls-3" d="M313.4,444.7c2.3,0,4.5-.8,6-2.5s2.5-3.7,2.5-6-.8-4.5-2.5-6-3.7-2.5-6-2.5-4.5.8-6,2.5-2.5,3.7-2.5,6,.8,4.5,2.5,6,3.7,2.5,6,2.5Z"/>
      <path id="m57cc284f40-45" class="cls-3" d="M431.2,241.4c2.3,0,4.5-.8,6-2.5,1.6-1.6,2.5-3.7,2.5-6s-.8-4.5-2.5-6c-1.6-1.6-3.7-2.5-6-2.5s-4.5.8-6,2.5-2.5,3.7-2.5,6,.8,4.5,2.5,6,3.7,2.5,6,2.5Z"/>
      <path id="m57cc284f40-46" class="cls-3" d="M354.1,394.3c2.3,0,4.5-.8,6-2.5s2.5-3.7,2.5-6-.8-4.5-2.5-6-3.7-2.5-6-2.5-4.5.8-6,2.5-2.5,3.7-2.5,6,.8,4.5,2.5,6,3.7,2.5,6,2.5Z"/>
      <path id="m57cc284f40-47" class="cls-3" d="M295.8,292c2.3,0,4.5-.8,6-2.5s2.5-3.7,2.5-6-.8-4.5-2.5-6-3.7-2.5-6-2.5-4.5.8-6,2.5-2.5,3.7-2.5,6,.8,4.5,2.5,6,3.7,2.5,6,2.5Z"/>
      <path id="m57cc284f40-48" class="cls-3" d="M268,163.1c2.3,0,4.5-.8,6-2.5s2.5-3.7,2.5-6-.8-4.5-2.5-6-3.7-2.5-6-2.5-4.5.8-6,2.5-2.5,3.7-2.5,6,.8,4.5,2.5,6,3.7,2.5,6,2.5Z"/>
      <path id="m57cc284f40-49" class="cls-3" d="M356.9,395.6c2.3,0,4.5-.8,6-2.5s2.5-3.7,2.5-6-.8-4.5-2.5-6-3.7-2.5-6-2.5-4.5.8-6,2.5-2.5,3.7-2.5,6,.8,4.5,2.5,6,3.7,2.5,6,2.5Z"/>
      <path id="m57cc284f40-50" class="cls-3" d="M373.5,454.1c2.3,0,4.5-.8,6-2.5s2.5-3.7,2.5-6-.8-4.5-2.5-6-3.7-2.5-6-2.5-4.5.8-6,2.5-2.5,3.7-2.5,6,.8,4.5,2.5,6,3.7,2.5,6,2.5Z"/>
      <path id="m57cc284f40-51" class="cls-3" d="M287.6,235.2c2.3,0,4.5-.8,6-2.5s2.5-3.7,2.5-6-.8-4.5-2.5-6-3.7-2.5-6-2.5-4.5.8-6,2.5-2.5,3.7-2.5,6,.8,4.5,2.5,6,3.7,2.5,6,2.5Z"/>
      <path id="m57cc284f40-52" class="cls-3" d="M254.5,198.8c2.3,0,4.5-.8,6-2.5s2.5-3.7,2.5-6-.8-4.5-2.5-6-3.7-2.5-6-2.5-4.5.8-6,2.5-2.5,3.7-2.5,6,.8,4.5,2.5,6,3.7,2.5,6,2.5Z"/>
      <path id="m57cc284f40-53" class="cls-3" d="M277.5,493.5c2.3,0,4.5-.8,6-2.5s2.5-3.7,2.5-6-.8-4.5-2.5-6-3.7-2.5-6-2.5-4.5.8-6,2.5-2.5,3.7-2.5,6,.8,4.5,2.5,6,3.7,2.5,6,2.5Z"/>
      <rect class="cls-1" x="158.8" y="-693.5" width="296.4" height="1217.4"/>
      <path id="mcd28b8d163" class="cls-5" d="M343.3,373.7c2.3,0,4.5-.8,6-2.5s2.5-3.7,2.5-6-.8-4.5-2.5-6-3.7-2.5-6-2.5-4.5.8-6,2.5-2.5,3.7-2.5,6,.8,4.5,2.5,6,3.7,2.5,6,2.5Z"/>
      <rect class="cls-1" x="158.8" y="-693.5" width="296.4" height="1217.4"/>
      <g>
        <path id="md15af0dd22-6" class="cls-8" d="M352.3,393.1c2.3,0,4.5-.8,6-2.5s2.5-3.7,2.5-6-.8-4.5-2.5-6-3.7-2.5-6-2.5-4.5.8-6,2.5-2.5,3.7-2.5,6,.8,4.5,2.5,6,3.7,2.5,6,2.5Z"/>
        <path id="md15af0dd22-7" class="cls-8" d="M301.9,470.9c2.3,0,4.5-.8,6-2.5s2.5-3.7,2.5-6-.8-4.5-2.5-6-3.7-2.5-6-2.5-4.5.8-6,2.5-2.5,3.7-2.5,6,.8,4.5,2.5,6,3.7,2.5,6,2.5Z"/>
      </g>
      <g>
        <path id="DejaVuSans-42" d="M82.5,441.6v5.2h3c1.1,0,1.8-.2,2.3-.6.5-.5.7-1.1.7-1.9s-.2-1.6-.7-1.9c-.5-.4-1.2-.6-2.3-.6h-3ZM82.5,435.8v4.2h2.8c1,0,1.6-.1,2-.5s.7-.8.7-1.6-.2-1.2-.7-1.6c-.5-.4-1.2-.5-2-.5h-2.8,0ZM80.6,434.3h4.8c1.4,0,2.5.4,3.4,1s1.2,1.4,1.2,2.5-.2,1.6-.6,2-1,.8-1.8,1c1,.2,1.7.6,2.2,1.2.5.6.7,1.4.7,2.4s-.5,2.3-1.3,2.9c-.8.7-2,1.1-3.6,1.1h-4.9v-14.1h0Z"/>
        <path id="DejaVuSans-69" d="M93.8,437.8h1.7v10.6h-1.7v-10.6ZM93.8,433.7h1.7v2.2h-1.7v-2.2Z"/>
        <path id="DejaVuSans-67" d="M106.2,442.9c0-1.2-.2-2.3-.7-2.9-.5-.7-1.2-1.1-2.2-1.1s-1.7.4-2.2,1.1-.7,1.7-.7,2.9.2,2.2.7,2.9,1.2,1.1,2.2,1.1,1.7-.4,2.2-1.1.7-1.7.7-2.9ZM107.9,447c0,1.8-.4,3.1-1.2,4-.8.8-2,1.3-3.6,1.3s-1.2,0-1.7-.1-1.1-.2-1.6-.4v-1.7c.5.2,1,.5,1.6.6.5.1,1,.2,1.6.2,1.1,0,2-.2,2.5-.8.6-.6.8-1.4.8-2.6v-.8c-.4.6-.8,1.1-1.3,1.4s-1.2.5-2,.5c-1.3,0-2.3-.5-3.1-1.4-.8-1-1.2-2.3-1.2-4s.4-2.9,1.2-4c.8-1,1.8-1.4,3.1-1.4s1.4.1,2,.5,1,.7,1.3,1.4v-1.6h1.7v9.3-.4Z"/>
        <path id="DejaVuSans-20" d="M109.7,448.4"/>
        <path id="DejaVuSans-42-2" d="M119.5,441.6v5.2h3c1.1,0,1.8-.2,2.3-.6.5-.5.7-1.1.7-1.9s-.2-1.6-.7-1.9c-.5-.4-1.2-.6-2.3-.6h-3ZM119.5,435.8v4.2h2.8c1,0,1.6-.1,2-.5s.7-.8.7-1.6-.2-1.2-.7-1.6c-.5-.4-1.2-.5-2-.5h-2.8ZM117.6,434.3h4.8c1.4,0,2.5.4,3.4,1s1.2,1.4,1.2,2.5-.2,1.6-.6,2-1,.8-1.8,1c1,.2,1.7.6,2.2,1.2.5.6.7,1.4.7,2.4s-.5,2.3-1.3,2.9c-.8.7-2,1.1-3.6,1.1h-5.1v-14.1h.1Z"/>
        <path id="DejaVuSans-75" d="M130.6,444.1v-6.4h1.7v6.4c0,1,.2,1.8.6,2.3s1,.7,1.8.7,1.7-.2,2.2-.8c.6-.6.8-1.4.8-2.4v-6h1.7v10.6h-1.7v-1.6c-.4.6-1,1.1-1.4,1.4-.6.4-1.2.5-1.9.5-1.2,0-2.2-.4-2.8-1.1s-1-1.8-1-3.4v-.2ZM135.1,437.5h0Z"/>
        <path id="DejaVuSans-64" d="M150,439.3v-5.8h1.7v14.7h-1.7v-1.6c-.4.6-.8,1.1-1.3,1.4-.6.4-1.2.5-2,.5-1.3,0-2.3-.5-3.1-1.6-.8-1-1.2-2.4-1.2-4s.4-3,1.2-4,1.8-1.6,3.1-1.6,1.4.1,2,.5,1,.7,1.3,1.4h0ZM144.1,443.1c0,1.3.2,2.3.8,3,.5.7,1.2,1.1,2.2,1.1s1.7-.4,2.2-1.1c.5-.7.8-1.7.8-3s-.2-2.3-.8-3c-.5-.7-1.2-1.1-2.2-1.1s-1.7.4-2.2,1.1-.8,1.7-.8,3Z"/>
        <path id="DejaVuSans-64-2" d="M162.3,439.3v-5.8h1.7v14.7h-1.7v-1.6c-.4.6-.8,1.1-1.3,1.4-.6.4-1.2.5-2,.5-1.3,0-2.3-.5-3.1-1.6-.8-1-1.2-2.4-1.2-4s.4-3,1.2-4,1.8-1.6,3.1-1.6,1.4.1,2,.5,1,.7,1.3,1.4h0ZM156.4,443.1c0,1.3.2,2.3.8,3,.5.7,1.2,1.1,2.2,1.1s1.7-.4,2.2-1.1.8-1.7.8-3-.2-2.3-.8-3c-.5-.7-1.2-1.1-2.2-1.1s-1.7.4-2.2,1.1-.8,1.7-.8,3Z"/>
        <path id="DejaVuSans-68" d="M176.4,442v6.4h-1.7v-6.4c0-1-.2-1.8-.6-2.3s-1-.7-1.8-.7-1.7.2-2.2.8-.8,1.4-.8,2.4v6h-1.8v-14.7h1.8v5.8c.4-.6,1-1.1,1.4-1.4.6-.4,1.2-.5,1.9-.5,1.2,0,2.2.4,2.8,1.1s1,1.8,1,3.4h0Z"/>
        <path id="DejaVuSans-61" d="M184.7,443.1c-1.4,0-2.4.1-2.9.5s-.8.8-.8,1.7.2,1.1.6,1.4c.4.4,1,.5,1.7.5s1.7-.4,2.3-1.1.8-1.6.8-2.8v-.4h-1.7ZM188.2,442.3v6h-1.7v-1.6c-.4.6-.8,1.1-1.4,1.4-.6.4-1.3.5-2.2.5s-1.9-.4-2.5-1-1-1.4-1-2.4.4-2,1.2-2.6,1.9-1,3.6-1h2.4c0-1-.2-1.6-.8-2s-1.2-.6-2.2-.6-1.2,0-1.8.2c-.6.1-1.1.4-1.7.6v-1.6c.6-.2,1.2-.5,1.8-.6s1.2-.2,1.8-.2c1.6,0,2.6.4,3.4,1.2.7.8,1.1,2,1.1,3.6h0Z"/>
        <path id="DejaVuSans-20-2" d="M189.9,448.4"/>
        <path id="DejaVuSans-50" d="M199.9,435.8v5.3h2.4c.8,0,1.6-.2,2-.7.5-.5.7-1.1.7-1.9s-.2-1.4-.7-1.9-1.2-.7-2-.7h-2.4ZM197.9,434.3h4.3c1.6,0,2.8.4,3.6,1.1s1.2,1.8,1.2,3.1-.4,2.4-1.2,3.1-2,1.1-3.6,1.1h-2.4v5.7h-1.9v-14.1Z"/>
        <path id="DejaVuSans-68-2" d="M218.3,442v6.4h-1.7v-6.4c0-1-.2-1.8-.6-2.3s-1-.7-1.8-.7-1.7.2-2.2.8-.8,1.4-.8,2.4v6h-1.8v-14.7h1.8v5.8c.4-.6,1-1.1,1.4-1.4.6-.4,1.2-.5,1.9-.5,1.2,0,2.2.4,2.8,1.1s1,1.8,1,3.4h0Z"/>
        <path id="DejaVuSans-75-2" d="M221.7,444.1v-6.4h1.7v6.4c0,1,.2,1.8.6,2.3s1,.7,1.8.7,1.7-.2,2.2-.8c.6-.6.8-1.4.8-2.4v-6h1.7v10.6h-1.7v-1.6c-.4.6-1,1.1-1.4,1.4-.6.4-1.2.5-1.9.5-1.2,0-2.2-.4-2.8-1.1s-1-1.8-1-3.4v-.2ZM226,437.5h0Z"/>
        <path id="DejaVuSans-6b" d="M233.9,433.7h1.8v8.7l5.2-4.6h2.2l-5.7,4.9,5.9,5.7h-2.3l-5.4-5.2v5.2h-1.8v-14.7h.1Z"/>
        <path id="DejaVuSans-65" d="M253.6,442.6v.8h-7.9c0,1.2.5,2.2,1.1,2.8s1.6,1,2.6,1,1.3,0,1.9-.2,1.2-.4,1.9-.7v1.7c-.6.2-1.2.5-1.9.6s-1.3.2-2,.2c-1.7,0-3-.5-4-1.4-1-1-1.4-2.3-1.4-4s.5-3.1,1.4-4.1,2.2-1.6,3.7-1.6,2.5.5,3.4,1.3c.8,1,1.2,2.2,1.2,3.7h0ZM251.9,442.1c0-1-.2-1.7-.8-2.3-.5-.6-1.2-.8-2-.8s-1.7.2-2.3.8-1,1.3-1,2.3h6.1,0Z"/>
        <path id="DejaVuSans-74" d="M258.1,434.7v3h3.6v1.3h-3.6v5.8c0,.8,0,1.4.4,1.7s.7.4,1.4.4h1.8v1.4h-1.8c-1.3,0-2.3-.2-2.8-.7-.5-.5-.7-1.4-.7-2.8v-5.8h-1.3v-1.3h1.3v-3h1.8-.1Z"/>
      </g>
      <g>
        <path id="DejaVuSans-50-2" d="M121.9,369.2v5.3h2.4c.8,0,1.6-.2,2-.7s.7-1.1.7-1.9-.2-1.4-.7-1.9c-.5-.5-1.2-.7-2-.7h-2.4ZM120,367.7h4.3c1.6,0,2.8.4,3.6,1.1s1.2,1.8,1.2,3.1-.4,2.4-1.2,3.1-2,1.1-3.6,1.1h-2.4v5.7h-1.9v-14.1Z"/>
        <path id="DejaVuSans-61-2" d="M135.6,376.5c-1.4,0-2.4.1-2.9.5s-.8.8-.8,1.7.2,1.1.6,1.4c.4.4,1,.5,1.7.5s1.7-.4,2.3-1.1.8-1.6.8-2.8v-.4h-1.7ZM139,375.7v6h-1.7v-1.6c-.4.6-.8,1.1-1.4,1.4-.6.4-1.3.5-2.2.5s-1.9-.4-2.5-1-1-1.4-1-2.4.4-2,1.2-2.6,1.9-1,3.6-1h2.4c0-1-.2-1.6-.8-2s-1.2-.6-2.2-.6-1.2,0-1.8.2c-.6.1-1.1.4-1.7.6v-1.6c.6-.2,1.2-.5,1.8-.6s1.2-.2,1.8-.2c1.6,0,2.6.4,3.4,1.2s1.1,2,1.1,3.6h0Z"/>
        <path id="DejaVuSans-74-2" d="M144.3,368.2v3h3.6v1.3h-3.6v5.8c0,.8,0,1.4.4,1.7s.7.4,1.4.4h1.8v1.4h-1.8c-1.3,0-2.3-.2-2.8-.7-.5-.5-.7-1.4-.7-2.8v-5.8h-1.3v-1.3h1.3v-3h1.8-.1Z"/>
        <path id="DejaVuSans-6f" d="M154.3,372.4c-1,0-1.7.4-2.2,1.1s-.8,1.7-.8,3,.2,2.3.8,3c.5.7,1.3,1.1,2.2,1.1s1.7-.4,2.2-1.1.8-1.7.8-3-.2-2.3-.8-3c-.5-.7-1.3-1.1-2.2-1.1ZM154.3,370.9c1.6,0,2.6.5,3.6,1.4.8,1,1.3,2.3,1.3,4.1s-.5,3.1-1.3,4.1-2,1.4-3.6,1.4-2.6-.5-3.6-1.4c-.8-1-1.3-2.3-1.3-4.1s.5-3.1,1.3-4.1c.8-1,2-1.4,3.6-1.4Z"/>
        <path id="DejaVuSans-6e" d="M170.8,375.4v6.4h-1.7v-6.4c0-1-.2-1.8-.6-2.3s-1-.7-1.8-.7-1.7.2-2.2.8-.8,1.4-.8,2.4v6h-1.8v-10.6h1.8v1.7c.4-.6,1-1.1,1.4-1.4.6-.4,1.2-.5,1.9-.5,1.2,0,2.2.4,2.8,1.1s1,1.8,1,3.4h0Z"/>
        <path id="DejaVuSans-67-2" d="M181.2,376.3c0-1.2-.2-2.3-.7-2.9-.5-.7-1.2-1.1-2.2-1.1s-1.7.4-2.2,1.1-.7,1.7-.7,2.9.2,2.2.7,2.9,1.2,1.1,2.2,1.1,1.7-.4,2.2-1.1.7-1.7.7-2.9ZM183,380.4c0,1.8-.4,3.1-1.2,4-.8.8-2,1.3-3.6,1.3s-1.2,0-1.7-.1-1.1-.2-1.6-.4v-1.7c.5.2,1,.5,1.6.6.5.1,1,.2,1.6.2,1.1,0,2-.2,2.5-.8.6-.6.8-1.4.8-2.6v-.8c-.4.6-.8,1.1-1.3,1.4s-1.2.5-2,.5c-1.3,0-2.3-.5-3.1-1.4-.8-1-1.2-2.3-1.2-4s.4-2.9,1.2-4c.8-1,1.8-1.4,3.1-1.4s1.4.1,2,.5,1,.7,1.3,1.4v-1.6h1.7v9.3-.4Z"/>
        <path id="DejaVuSans-20-3" d="M184.7,381.8"/>
        <path id="DejaVuSans-42-3" d="M194.7,375v5.2h3c1.1,0,1.8-.2,2.3-.6.5-.5.7-1.1.7-1.9s-.2-1.6-.7-1.9c-.5-.4-1.2-.6-2.3-.6h-3ZM194.7,369.2v4.2h2.8c1,0,1.6-.1,2-.5.5-.4.7-.8.7-1.6s-.2-1.2-.7-1.6-1.2-.5-2-.5h-2.8ZM192.8,367.7h4.8c1.4,0,2.5.4,3.4,1,.8.6,1.2,1.4,1.2,2.5s-.2,1.6-.6,2-1,.8-1.8,1c1,.2,1.7.6,2.2,1.2s.7,1.4.7,2.4-.5,2.3-1.3,2.9c-.8.7-2,1.1-3.6,1.1h-5.1v-14.1h.1Z"/>
        <path id="DejaVuSans-65-2" d="M215,376v.8h-7.9c0,1.2.5,2.2,1.1,2.8s1.6,1,2.6,1,1.3,0,1.9-.2,1.2-.4,1.9-.7v1.7c-.6.2-1.2.5-1.9.6s-1.3.2-2,.2c-1.7,0-3-.5-4-1.4-1-1-1.4-2.3-1.4-4s.5-3.1,1.4-4.1c1-1,2.2-1.6,3.7-1.6s2.5.5,3.4,1.3c.8,1,1.2,2.2,1.2,3.7h0ZM213.2,375.5c0-1-.2-1.7-.8-2.3-.5-.6-1.2-.8-2-.8s-1.7.2-2.3.8-1,1.3-1,2.3h6.1Z"/>
        <path id="DejaVuSans-61-3" d="M222.6,376.5c-1.4,0-2.4.1-2.9.5s-.8.8-.8,1.7.2,1.1.6,1.4c.4.4,1,.5,1.7.5s1.7-.4,2.3-1.1.8-1.6.8-2.8v-.4h-1.7ZM226.1,375.7v6h-1.7v-1.6c-.4.6-.8,1.1-1.4,1.4-.6.4-1.3.5-2.2.5s-1.9-.4-2.5-1-1-1.4-1-2.4.4-2,1.2-2.6,1.9-1,3.6-1h2.4c0-1-.2-1.6-.8-2s-1.2-.6-2.2-.6-1.2,0-1.8.2c-.6.1-1.1.4-1.7.6v-1.6c.6-.2,1.2-.5,1.8-.6s1.2-.2,1.8-.2c1.6,0,2.6.4,3.4,1.2.7.8,1.1,2,1.1,3.6h0Z"/>
        <path id="DejaVuSans-63" d="M237.3,371.5v1.6c-.5-.2-1-.5-1.4-.6s-1-.2-1.4-.2c-1.1,0-2,.4-2.6,1.1s-1,1.7-1,3,.4,2.3,1,3,1.4,1.1,2.6,1.1,1,0,1.4-.2,1-.4,1.4-.6v1.6c-.5.2-1,.4-1.6.5-.5,0-1.1.1-1.7.1-1.6,0-2.9-.5-3.9-1.4-1-1-1.4-2.4-1.4-4.1s.5-3.1,1.4-4.1c1-1,2.3-1.4,3.9-1.4s1.1,0,1.6.1c.5,0,1,.2,1.4.5l.2.2Z"/>
        <path id="DejaVuSans-68-3" d="M249.1,375.4v6.4h-1.7v-6.4c0-1-.2-1.8-.6-2.3s-1-.7-1.8-.7-1.7.2-2.2.8c-.5.6-.8,1.4-.8,2.4v6h-1.8v-14.7h1.8v5.8c.4-.6,1-1.1,1.4-1.4.6-.4,1.2-.5,1.9-.5,1.2,0,2.2.4,2.8,1.1s1,1.8,1,3.4h0Z"/>
      </g>
      <g>
        <path id="DejaVuSans-50-3" d="M376.2,387.8v5.3h2.4c.8,0,1.6-.2,2-.7s.7-1.1.7-1.9-.2-1.4-.7-1.9c-.5-.5-1.2-.7-2-.7h-2.4ZM374.3,386.2h4.3c1.6,0,2.8.4,3.6,1.1s1.2,1.8,1.2,3.1-.4,2.4-1.2,3.1-2,1.1-3.6,1.1h-2.4v5.7h-1.9v-14.1Z"/>
        <path id="DejaVuSans-68-4" d="M394.7,393.9v6.4h-1.7v-6.4c0-1-.2-1.8-.6-2.3s-1-.7-1.8-.7-1.7.2-2.2.8-.8,1.4-.8,2.4v6h-1.8v-14.7h1.8v5.8c.4-.6,1-1.1,1.4-1.4.6-.4,1.2-.5,1.9-.5,1.2,0,2.2.4,2.8,1.1s1,1.8,1,3.4h0Z"/>
        <path id="DejaVuSans-75-3" d="M398,396.1v-6.4h1.7v6.4c0,1,.2,1.8.6,2.3s1,.7,1.8.7,1.7-.2,2.2-.8c.6-.6.8-1.4.8-2.4v-6h1.7v10.6h-1.7v-1.6c-.4.6-1,1.1-1.4,1.4-.6.4-1.2.5-1.9.5-1.2,0-2.2-.4-2.8-1.1s-1-1.8-1-3.4v-.2ZM402.3,389.5h0Z"/>
        <path id="DejaVuSans-6b-2" d="M410.4,385.6h1.8v8.7l5.2-4.6h2.2l-5.7,4.9,5.9,5.7h-2.3l-5.4-5.2v5.2h-1.8v-14.7h.1Z"/>
        <path id="DejaVuSans-65-3" d="M430,394.5v.8h-7.9c0,1.2.5,2.2,1.1,2.8s1.6,1,2.6,1,1.3,0,1.9-.2,1.2-.4,1.9-.7v1.7c-.6.2-1.2.5-1.9.6s-1.3.2-2,.2c-1.7,0-3-.5-4-1.4-1-1-1.4-2.3-1.4-4s.5-3.1,1.4-4.1c1-1,2.2-1.6,3.7-1.6s2.5.5,3.4,1.3c.8,1,1.2,2.2,1.2,3.7h0ZM428.2,394c0-1-.2-1.7-.8-2.3-.5-.6-1.2-.8-2-.8s-1.7.2-2.3.8-1,1.3-1,2.3h6.1Z"/>
        <path id="DejaVuSans-74-3" d="M434.6,386.7v3h3.6v1.3h-3.6v5.8c0,.8,0,1.4.4,1.7s.7.4,1.4.4h1.8v1.4h-1.8c-1.3,0-2.3-.2-2.8-.7s-.7-1.4-.7-2.8v-5.8h-1.3v-1.3h1.3v-3h1.8-.1Z"/>
        <path id="DejaVuSans-20-4" d="M438.5,400.3"/>
        <path id="DejaVuSans-4f" d="M452.3,387.4c-1.4,0-2.5.5-3.3,1.6-.8,1.1-1.2,2.4-1.2,4.2s.4,3.1,1.2,4.2,1.9,1.6,3.3,1.6,2.5-.5,3.3-1.6c.8-1.1,1.2-2.4,1.2-4.2s-.4-3.1-1.2-4.2-1.9-1.6-3.3-1.6ZM452.3,385.9c1.9,0,3.6.7,4.7,2,1.2,1.3,1.8,3.1,1.8,5.3s-.6,4-1.8,5.3-2.8,2-4.7,2-3.6-.6-4.7-1.9c-1.2-1.3-1.8-3.1-1.8-5.3s.6-4,1.8-5.3,2.8-2,4.7-2h0Z"/>
        <path id="DejaVuSans-6c" d="M461.8,385.6h1.7v14.7h-1.7v-14.7Z"/>
        <path id="DejaVuSans-64-3" d="M474.1,391.3v-5.8h1.7v14.7h-1.7v-1.6c-.4.6-.8,1.1-1.3,1.4-.6.4-1.2.5-2,.5-1.3,0-2.3-.5-3.1-1.6-.8-1-1.2-2.4-1.2-4s.4-3,1.2-4,1.8-1.6,3.1-1.6,1.4.1,2,.5,1,.7,1.3,1.4h0ZM468.2,395c0,1.3.2,2.3.8,3,.5.7,1.2,1.1,2.2,1.1s1.7-.4,2.2-1.1.8-1.7.8-3-.2-2.3-.8-3c-.5-.7-1.2-1.1-2.2-1.1s-1.7.4-2.2,1.1-.8,1.7-.8,3Z"/>
        <path id="DejaVuSans-20-5" d="M477.5,400.3"/>
        <path id="DejaVuSans-54" d="M483.7,386.2h11.9v1.6h-5.1v12.5h-1.9v-12.5h-5.1v-1.6h.1Z"/>
        <path id="DejaVuSans-6f-2" d="M498.1,390.9c-1,0-1.7.4-2.2,1.1s-.8,1.7-.8,3,.2,2.3.8,3c.5.7,1.3,1.1,2.2,1.1s1.7-.4,2.2-1.1.8-1.7.8-3-.2-2.3-.8-3c-.5-.7-1.3-1.1-2.2-1.1ZM498.1,389.5c1.6,0,2.6.5,3.6,1.4.8,1,1.3,2.3,1.3,4.1s-.5,3.1-1.3,4.1-2,1.4-3.6,1.4-2.6-.5-3.6-1.4c-.8-1-1.3-2.3-1.3-4.1s.5-3.1,1.3-4.1,2-1.4,3.6-1.4Z"/>
        <path id="DejaVuSans-77" d="M504.9,389.7h1.7l2.2,8.3,2.2-8.3h2l2.2,8.3,2.2-8.3h1.7l-2.8,10.6h-2l-2.3-8.7-2.3,8.7h-2l-2.8-10.6h.1Z"/>
        <path id="DejaVuSans-6e-2" d="M530.5,393.9v6.4h-1.7v-6.4c0-1-.2-1.8-.6-2.3s-1-.7-1.8-.7-1.7.2-2.2.8-.8,1.4-.8,2.4v6h-1.8v-10.6h1.8v1.7c.4-.6,1-1.1,1.4-1.4.6-.4,1.2-.5,1.9-.5,1.2,0,2.2.4,2.8,1.1s1,1.8,1,3.4h0Z"/>
      </g>
      <g>
        <path id="DejaVuSans-50-4" class="cls-9" d="M132.2-67.8v3.8h1.7c.6,0,1.1-.2,1.5-.5s.5-.8.5-1.4-.2-1.1-.5-1.4c-.4-.3-.8-.5-1.5-.5,0,0-1.7,0-1.7,0ZM130.9-68.9h3.1c1.1,0,2,.3,2.6.8s.9,1.3.9,2.3-.3,1.8-.9,2.3-1.4.8-2.6.8h-1.7v4.1h-1.4v-10.2h0Z"/>
        <path id="DejaVuSans-68-5" class="cls-9" d="M145.6-63.3v4.6h-1.3v-4.6c0-.7-.1-1.3-.4-1.6-.3-.4-.7-.5-1.3-.5s-1.2.2-1.6.6c-.4.4-.6,1-.6,1.8v4.3h-1.3v-10.6h1.3v4.2c.3-.5.7-.8,1.1-1,.4-.2.9-.3,1.4-.3.9,0,1.5.3,2,.8s.7,1.3.7,2.4h0Z"/>
        <path id="DejaVuSans-75-4" class="cls-9" d="M148-61.7v-4.6h1.3v4.6c0,.7.1,1.3.4,1.6.3.4.7.5,1.3.5s1.2-.2,1.6-.6c.4-.4.6-1,.6-1.8v-4.3h1.3v7.7h-1.3v-1.2c-.3.5-.7.8-1.1,1-.4.2-.9.3-1.4.3-.9,0-1.5-.3-2-.8s-.7-1.3-.7-2.4h0ZM151.2-66.6h0Z"/>
        <path id="DejaVuSans-6b-3" class="cls-9" d="M157-69.4h1.3v6.3l3.8-3.3h1.6l-4.1,3.6,4.2,4.1h-1.6l-3.9-3.7v3.7h-1.3v-10.6h0Z"/>
        <path id="DejaVuSans-65-4" class="cls-9" d="M171.2-62.9v.6h-5.8c0,.9.3,1.5.8,2s1.1.7,2,.7,1,0,1.4-.2.9-.3,1.4-.5v1.2c-.5.2-.9.3-1.4.4s-1,.2-1.4.2c-1.2,0-2.2-.4-2.9-1.1-.7-.7-1.1-1.7-1.1-2.9s.3-2.2,1-3c.7-.7,1.6-1.1,2.7-1.1s1.8.3,2.4,1c.6.7.9,1.6.9,2.7h0ZM169.9-63.2c0-.7-.2-1.2-.6-1.6-.4-.4-.9-.6-1.5-.6s-1.3.2-1.7.6-.7,1-.7,1.7h4.5Z"/>
        <path id="DejaVuSans-74-4" class="cls-9" d="M174.5-68.6v2.2h2.6v1h-2.6v4.2c0,.6,0,1,.3,1.2s.5.3,1,.3h1.3v1.1h-1.3c-1,0-1.6-.2-2-.5-.4-.4-.6-1-.6-2v-4.2h-.9v-1h.9v-2.2h1.3Z"/>
        <path id="DejaVuSans-20-6" class="cls-9" d="M177.4-58.7"/>
        <path id="DejaVuSans-2013" class="cls-9" d="M182.5-63h5.6v1h-5.6v-1Z"/>
        <path id="DejaVuSans-20-7" class="cls-9" d="M188.8-58.7"/>
        <path id="DejaVuSans-49" class="cls-9" d="M194.7-68.9h1.4v10.2h-1.4v-10.2Z"/>
        <path id="DejaVuSans-6e-3" class="cls-9" d="M205.1-63.3v4.6h-1.3v-4.6c0-.7-.1-1.3-.4-1.6-.3-.4-.7-.5-1.3-.5s-1.2.2-1.6.6c-.4.4-.6,1-.6,1.8v4.3h-1.3v-7.7h1.3v1.2c.3-.5.7-.8,1.1-1,.4-.2.9-.3,1.4-.3.9,0,1.5.3,2,.8s.7,1.3.7,2.4h0Z"/>
        <path id="DejaVuSans-73" class="cls-9" d="M212.5-66.2v1.2c-.4-.2-.7-.3-1.1-.4-.4,0-.8,0-1.2,0-.6,0-1.1,0-1.4.3-.3.2-.5.5-.5.9s.1.5.3.7.7.3,1.3.5h.4c.9.3,1.5.6,1.9.9s.6.8.6,1.5-.3,1.3-.8,1.7c-.6.4-1.3.6-2.3.6s-.8,0-1.3,0c-.4,0-.9-.2-1.4-.4v-1.3c.5.2.9.4,1.4.5s.9.2,1.3.2,1,0,1.4-.3c.3-.2.5-.5.5-.9s-.1-.6-.3-.8-.7-.4-1.5-.5h-.4c-.8-.3-1.3-.5-1.7-.9-.3-.3-.5-.8-.5-1.4s.3-1.3.8-1.7,1.2-.6,2.2-.6.9,0,1.3,0c.4,0,.8.2,1.1.3h-.1Z"/>
        <path id="DejaVuSans-74-5" class="cls-9" d="M216.1-68.6v2.2h2.6v1h-2.6v4.2c0,.6,0,1,.3,1.2s.5.3,1,.3h1.3v1.1h-1.3c-1,0-1.6-.2-2-.5-.4-.4-.6-1-.6-2v-4.2h-.9v-1h.9v-2.2h1.3Z"/>
        <path id="DejaVuSans-61-4" class="cls-9" d="M223.9-62.6c-1,0-1.7,0-2.1.3s-.6.6-.6,1.2.1.8.4,1.1c.3.3.7.4,1.2.4s1.3-.2,1.7-.7.6-1.2.6-2v-.3h-1.3.1ZM226.4-63.1v4.4h-1.3v-1.2c-.3.5-.6.8-1.1,1-.4.2-1,.3-1.6.3s-1.4-.2-1.9-.7c-.5-.4-.7-1-.7-1.8s.3-1.5.9-1.9c.6-.4,1.4-.7,2.6-.7h1.8c0-.7-.2-1.2-.6-1.5s-.9-.5-1.6-.5-.9,0-1.3.2c-.4,0-.8.3-1.2.5v-1.2c.5-.2.9-.3,1.3-.4.4,0,.9,0,1.3,0,1.1,0,1.9.3,2.5.9.5.6.8,1.4.8,2.6h.1Z"/>
        <path id="DejaVuSans-67-3" class="cls-9" d="M234-62.6c0-.9-.2-1.6-.6-2.1-.4-.5-.9-.8-1.6-.8s-1.2.3-1.6.8c-.4.5-.6,1.2-.6,2.1s.2,1.6.6,2.1c.4.5.9.8,1.6.8s1.2-.3,1.6-.8c.4-.5.6-1.2.6-2.1ZM235.3-59.7c0,1.3-.3,2.3-.9,2.9-.6.6-1.5,1-2.7,1h-1.3c-.4,0-.8-.2-1.1-.3v-1.2c.4.2.7.3,1.1.4.4,0,.7,0,1.1,0,.8,0,1.4-.2,1.9-.6.4-.4.6-1.1.6-2v-.6c-.3.5-.6.8-1,1s-.9.3-1.5.3c-.9,0-1.7-.4-2.3-1.1-.6-.7-.9-1.7-.9-2.8s.3-2.1.9-2.8c.6-.7,1.3-1.1,2.3-1.1s1.1,0,1.5.3.7.6,1,1v-1.2h1.3v6.7h0Z"/>
        <path id="DejaVuSans-72" class="cls-9" d="M242.3-65.2c-.1,0-.3,0-.5-.2h-.5c-.7,0-1.3.2-1.6.7s-.6,1.1-.6,2v4h-1.3v-7.7h1.3v1.2c.3-.5.6-.8,1-1s.9-.3,1.5-.3.2,0,.3,0h.3v1.3h.1Z"/>
        <path id="DejaVuSans-61-5" class="cls-9" d="M247.1-62.6c-1,0-1.7,0-2.1.3s-.6.6-.6,1.2.1.8.4,1.1c.3.3.7.4,1.2.4s1.3-.2,1.7-.7.6-1.2.6-2v-.3h-1.3.1ZM249.6-63.1v4.4h-1.3v-1.2c-.3.5-.6.8-1.1,1-.4.2-1,.3-1.6.3s-1.4-.2-1.9-.7c-.5-.4-.7-1-.7-1.8s.3-1.5.9-1.9c.6-.4,1.4-.7,2.6-.7h1.8c0-.7-.2-1.2-.6-1.5s-.9-.5-1.6-.5-.9,0-1.3.2c-.4,0-.8.3-1.2.5v-1.2c.5-.2.9-.3,1.3-.4.4,0,.9,0,1.3,0,1.1,0,1.9.3,2.5.9.5.6.8,1.4.8,2.6h.1Z"/>
        <path id="DejaVuSans-6d" class="cls-9" d="M258.2-64.9c.3-.6.7-1,1.1-1.3s1-.4,1.5-.4,1.4.3,1.8.8c.4.6.6,1.4.6,2.4v4.6h-1.3v-4.6c0-.7-.1-1.3-.4-1.6-.3-.4-.7-.5-1.2-.5s-1.2.2-1.5.6c-.4.4-.6,1-.6,1.8v4.3h-1.3v-4.6c0-.7-.1-1.3-.4-1.6s-.7-.5-1.2-.5-1.2.2-1.5.7c-.4.4-.6,1-.6,1.8v4.3h-1.3v-7.7h1.3v1.2c.3-.5.6-.8,1-1s.9-.3,1.4-.3,1,0,1.4.4c.4.3.7.7.9,1.2h.3Z"/>
        <path id="DejaVuSans-20-8" class="cls-9" d="M264.5-58.7"/>
        <path id="DejaVuSans-43" class="cls-9" d="M278-68.1v1.5c-.5-.4-1-.8-1.5-1s-1.1-.3-1.7-.3c-1.2,0-2.1.4-2.7,1.1s-.9,1.7-.9,3.1.3,2.4.9,3.1,1.5,1.1,2.7,1.1,1.2,0,1.7-.3,1-.5,1.5-1v1.4c-.5.3-1,.6-1.5.7-.5.2-1.1.2-1.7.2-1.5,0-2.8-.5-3.7-1.4-.9-.9-1.3-2.2-1.3-3.9s.4-2.9,1.3-3.9c.9-.9,2.1-1.4,3.7-1.4s1.2,0,1.7.2,1,.4,1.5.7h0Z"/>
        <path id="DejaVuSans-61-6" class="cls-9" d="M283.5-62.6c-1,0-1.7,0-2.1.3s-.6.6-.6,1.2.1.8.4,1.1.7.4,1.2.4,1.3-.2,1.7-.7.6-1.2.6-2v-.3h-1.3,0ZM286-63.1v4.4h-1.3v-1.2c-.3.5-.6.8-1.1,1-.4.2-1,.3-1.6.3s-1.4-.2-1.9-.7c-.5-.4-.7-1-.7-1.8s.3-1.5.9-1.9,1.4-.7,2.6-.7h1.8c0-.7-.2-1.2-.6-1.5s-.9-.5-1.6-.5-.9,0-1.3.2c-.4,0-.8.3-1.2.5v-1.2c.5-.2.9-.3,1.3-.4.4,0,.9,0,1.3,0,1.1,0,1.9.3,2.5.9.5.6.8,1.4.8,2.6h.1Z"/>
        <path id="DejaVuSans-66" class="cls-9" d="M292.5-69.4v1h-1.2c-.5,0-.8,0-.9.3-.2.2-.3.5-.3,1v.7h2.1v1h-2.1v6.7h-1.3v-6.7h-1.2v-1h1.2v-.5c0-.9.2-1.5.6-1.9s1-.6,1.9-.6h1.2,0Z"/>
        <path id="DejaVuSans-e9" class="cls-9" d="M300.1-62.9v.6h-5.8c0,.9.3,1.5.8,2s1.1.7,2,.7,1,0,1.4-.2.9-.3,1.4-.5v1.2c-.5.2-.9.3-1.4.4s-1,.2-1.4.2c-1.2,0-2.2-.4-2.9-1.1-.7-.7-1.1-1.7-1.1-2.9s.3-2.2,1-3c.7-.7,1.6-1.1,2.7-1.1s1.8.3,2.4,1,.9,1.6.9,2.7ZM298.9-63.2c0-.7-.2-1.2-.6-1.6-.4-.4-.9-.6-1.5-.6s-1.3.2-1.7.6-.7,1-.7,1.7h4.5ZM297.6-69.9h1.4l-2.2,2.6h-1l1.9-2.6h0Z"/>
        <path id="DejaVuSans-73-2" class="cls-9" d="M307.1-66.2v1.2c-.4-.2-.7-.3-1.1-.4-.4,0-.8,0-1.2,0-.6,0-1.1,0-1.4.3-.3.2-.5.5-.5.9s.1.5.3.7.7.3,1.3.5h.4c.9.3,1.5.6,1.9.9s.6.8.6,1.5-.3,1.3-.8,1.7c-.6.4-1.3.6-2.3.6s-.8,0-1.3,0c-.4,0-.9-.2-1.4-.4v-1.3c.5.2.9.4,1.4.5s.9.2,1.3.2,1,0,1.4-.3c.3-.2.5-.5.5-.9s-.1-.6-.3-.8c-.2-.2-.7-.4-1.5-.5h-.4c-.8-.3-1.3-.5-1.7-.9-.3-.3-.5-.8-.5-1.4s.3-1.3.8-1.7,1.2-.6,2.2-.6.9,0,1.3,0c.4,0,.8.2,1.1.3h0Z"/>
        <path id="DejaVuSans-20-9" class="cls-9" d="M308.1-58.7"/>
        <path id="DejaVuSans-62" class="cls-9" d="M319.4-62.5c0-.9-.2-1.7-.6-2.2s-.9-.8-1.6-.8-1.2.3-1.6.8-.6,1.3-.6,2.2.2,1.7.6,2.2.9.8,1.6.8,1.2-.3,1.6-.8.6-1.3.6-2.2ZM315.1-65.2c.3-.5.6-.8,1-1s.9-.3,1.4-.3c.9,0,1.7.4,2.3,1.1.6.7.9,1.7.9,2.9s-.3,2.2-.9,2.9-1.3,1.1-2.3,1.1-1,0-1.4-.3-.7-.6-1-1v1.1h-1.3v-10.6h1.3v4.1Z"/>
        <path id="DejaVuSans-79" class="cls-9" d="M326-58c-.4.9-.7,1.5-1,1.8s-.8.4-1.4.4h-1v-1.1h.7c.3,0,.6,0,.8-.2.2-.2.4-.6.6-1.2l.2-.6-3.1-7.5h1.3l2.4,6,2.4-6h1.3l-3.4,8.4h.2Z"/>
        <path id="DejaVuSans-20-10" class="cls-9" d="M329.8-58.7"/>
        <path id="DejaVuSans-54-2" class="cls-9" d="M334.2-68.9h8.6v1.2h-3.6v9h-1.4v-9h-3.6v-1.2Z"/>
        <path id="DejaVuSans-68-6" class="cls-9" d="M350.5-63.3v4.6h-1.3v-4.6c0-.7-.1-1.3-.4-1.6-.3-.4-.7-.5-1.3-.5s-1.2.2-1.6.6c-.4.4-.6,1-.6,1.8v4.3h-1.3v-10.6h1.3v4.2c.3-.5.7-.8,1.1-1s.9-.3,1.4-.3c.9,0,1.5.3,2,.8s.7,1.3.7,2.4h0Z"/>
        <path id="DejaVuSans-65-5" class="cls-9" d="M359.5-62.9v.6h-5.8c0,.9.3,1.5.8,2s1.1.7,2,.7,1,0,1.4-.2.9-.3,1.4-.5v1.2c-.5.2-.9.3-1.4.4s-1,.2-1.4.2c-1.2,0-2.2-.4-2.9-1.1-.7-.7-1.1-1.7-1.1-2.9s.3-2.2,1-3c.7-.7,1.6-1.1,2.7-1.1s1.8.3,2.4,1,.9,1.6.9,2.7ZM358.3-63.2c0-.7-.2-1.2-.6-1.6-.4-.4-.9-.6-1.5-.6s-1.3.2-1.7.6-.7,1-.7,1.7h4.5Z"/>
        <path id="DejaVuSans-6d-2" class="cls-9" d="M367.5-64.9c.3-.6.7-1,1.1-1.3s1-.4,1.5-.4,1.4.3,1.8.8c.4.6.6,1.4.6,2.4v4.6h-1.3v-4.6c0-.7-.1-1.3-.4-1.6-.3-.4-.7-.5-1.2-.5s-1.2.2-1.5.6c-.4.4-.6,1-.6,1.8v4.3h-1.3v-4.6c0-.7-.1-1.3-.4-1.6s-.7-.5-1.2-.5-1.2.2-1.5.7c-.4.4-.6,1-.6,1.8v4.3h-1.3v-7.7h1.3v1.2c.3-.5.6-.8,1-1s.9-.3,1.4-.3,1,0,1.4.4c.4.3.7.7.9,1.2h.3Z"/>
        <path id="DejaVuSans-65-6" class="cls-9" d="M381.8-62.9v.6h-5.8c0,.9.3,1.5.8,2s1.1.7,2,.7,1,0,1.4-.2.9-.3,1.4-.5v1.2c-.5.2-.9.3-1.4.4s-1,.2-1.4.2c-1.2,0-2.2-.4-2.9-1.1-.7-.7-1.1-1.7-1.1-2.9s.3-2.2,1-3c.7-.7,1.6-1.1,2.7-1.1s1.8.3,2.4,1,.9,1.6.9,2.7ZM380.5-63.2c0-.7-.2-1.2-.6-1.6-.4-.4-.9-.6-1.5-.6s-1.3.2-1.7.6-.7,1-.7,1.7h4.5Z"/>
      </g>
      <rect class="cls-1" x="158.8" y="-693.5" width="296.4" height="1217.4"/>
      <g>
        <path id="m4be9174e9d" class="cls-7" d="M273.4,452.6c1.4,0,2.8-.6,3.9-1.6,1-1,1.6-2.4,1.6-3.9s-.6-2.8-1.6-3.9c-1-1-2.4-1.6-3.9-1.6s-2.8.6-3.9,1.6c-1,1-1.6,2.4-1.6,3.9s.6,2.8,1.6,3.9c1,1,2.4,1.6,3.9,1.6Z"/>
        <path id="m4be9174e9d-2" class="cls-7" d="M258.5,379.1c1.4,0,2.8-.6,3.9-1.6,1-1,1.6-2.4,1.6-3.9s-.6-2.8-1.6-3.9c-1-1-2.4-1.6-3.9-1.6s-2.8.6-3.9,1.6c-1,1-1.6,2.4-1.6,3.9s.6,2.8,1.6,3.9c1,1,2.4,1.6,3.9,1.6Z"/>
        <path id="m4be9174e9d-3" class="cls-7" d="M358.7,396c1.4,0,2.8-.6,3.9-1.6,1-1,1.6-2.4,1.6-3.9s-.6-2.8-1.6-3.9c-1-1-2.4-1.6-3.9-1.6s-2.8.6-3.9,1.6c-1,1-1.6,2.4-1.6,3.9s.6,2.8,1.6,3.9c1,1,2.4,1.6,3.9,1.6Z"/>
      </g>
      <g id="text_5">
        <g>
          <path id="DejaVuSans-50-5" class="cls-9" d="M651.1-42.8v3.3h1.5c.6,0,1,0,1.3-.4s.5-.7.5-1.2-.2-.9-.5-1.2c-.3-.3-.7-.4-1.3-.4h-1.5ZM649.9-43.8h2.7c1,0,1.7.2,2.2.7.5.4.8,1.1.8,1.9s-.3,1.5-.8,2c-.5.4-1.2.7-2.2.7h-1.5v3.5h-1.2v-8.7h0Z"/>
          <path id="DejaVuSans-72-2" class="cls-9" d="M660.7-40.6c-.1,0-.3,0-.4-.2h-.5c-.6,0-1.1.2-1.4.6s-.5,1-.5,1.7v3.5h-1.1v-6.6h1.1v1c.2-.4.5-.7.9-.9.4-.2.8-.3,1.3-.3s.2,0,.2,0h.3v1.1h.1Z"/>
          <path id="DejaVuSans-69-2" class="cls-9" d="M661.8-41.6h1.1v6.6h-1.1v-6.6ZM661.8-44.1h1.1v1.4h-1.1v-1.4Z"/>
          <path id="DejaVuSans-6d-3" class="cls-9" d="M670.3-40.3c.3-.5.6-.8,1-1.1s.8-.3,1.3-.3,1.2.2,1.6.7.6,1.2.6,2v4h-1.1v-3.9c0-.6-.1-1.1-.3-1.4-.2-.3-.6-.5-1-.5s-1,.2-1.3.6-.5.9-.5,1.5v3.7h-1.1v-3.9c0-.6-.1-1.1-.3-1.4s-.6-.5-1-.5-1,.2-1.3.6-.5.9-.5,1.5v3.7h-1.1v-6.6h1.1v1c.2-.4.5-.7.9-.9s.8-.3,1.2-.3.9,0,1.2.4c.3.2.6.6.7,1.1h-.1Z"/>
          <path id="DejaVuSans-61-7" class="cls-9" d="M679.8-38.3c-.9,0-1.5,0-1.8.3s-.5.5-.5,1,.1.7.4.9c.3.2.6.3,1,.3s1.1-.2,1.4-.6.5-1,.5-1.7v-.2h-1.1.1ZM682-38.7v3.7h-1.1v-1c-.2.4-.6.7-.9.9-.4.2-.8.3-1.3.3s-1.2-.2-1.6-.6-.6-.9-.6-1.5.2-1.3.7-1.7c.5-.4,1.2-.6,2.2-.6h1.5c0-.6-.2-1-.5-1.3s-.8-.4-1.4-.4-.7,0-1.1,0c-.4,0-.7.2-1,.4v-1c.4-.2.8-.3,1.1-.3s.7,0,1.1,0c1,0,1.7.2,2.1.7.5.5.7,1.2.7,2.2v.2Z"/>
          <path id="DejaVuSans-72-3" class="cls-9" d="M688-40.6c-.1,0-.3,0-.4-.2h-.5c-.6,0-1.1.2-1.4.6s-.5,1-.5,1.7v3.5h-1.1v-6.6h1.1v1c.2-.4.5-.7.9-.9.4-.2.8-.3,1.3-.3s.2,0,.2,0h.3v1.1h.1Z"/>
          <path id="DejaVuSans-79-2" class="cls-9" d="M691.9-34.4c-.3.8-.6,1.3-.9,1.5s-.7.4-1.2.4h-.9v-.9h.6c.3,0,.5,0,.7-.2.2,0,.3-.5.5-1l.2-.5-2.7-6.5h1.1l2.1,5.1,2.1-5.1h1.1l-2.9,7.2h.2Z"/>
          <path id="DejaVuSans-20-11" class="cls-9" d="M695.1-35"/>
          <path id="DejaVuSans-54-3" class="cls-9" d="M698.9-43.8h7.4v1h-3.1v7.8h-1.2v-7.8h-3.1v-1h0Z"/>
          <path id="DejaVuSans-68-7" class="cls-9" d="M712.9-39v4h-1.1v-3.9c0-.6-.1-1.1-.4-1.4-.2-.3-.6-.5-1.1-.5s-1,.2-1.4.6c-.3.4-.5.9-.5,1.5v3.7h-1.1v-9.1h1.1v3.6c.3-.4.6-.7.9-.9.3-.2.8-.3,1.2-.3.8,0,1.3.2,1.7.7.4.5.6,1.2.6,2.1h0Z"/>
          <path id="DejaVuSans-65-7" class="cls-9" d="M720.6-38.6v.5h-5c0,.7.3,1.3.7,1.7.4.4,1,.6,1.7.6s.8,0,1.2-.2.8-.3,1.2-.5v1c-.4.2-.8.3-1.2.4s-.8,0-1.2,0c-1,0-1.9-.3-2.5-.9s-.9-1.4-.9-2.5.3-1.9.9-2.6c.6-.6,1.4-.9,2.3-.9s1.6.3,2.1.9.8,1.3.8,2.3h-.1ZM719.5-38.9c0-.6-.2-1.1-.5-1.4-.3-.4-.7-.5-1.3-.5s-1.1.2-1.4.5-.6.8-.6,1.4h3.8Z"/>
          <path id="DejaVuSans-6d-4" class="cls-9" d="M727.5-40.3c.3-.5.6-.8,1-1.1s.8-.3,1.3-.3,1.2.2,1.6.7.6,1.2.6,2v4h-1.1v-3.9c0-.6-.1-1.1-.3-1.4-.2-.3-.6-.5-1-.5s-1,.2-1.3.6-.5.9-.5,1.5v3.7h-1.1v-3.9c0-.6-.1-1.1-.3-1.4s-.6-.5-1-.5-1,.2-1.3.6-.5.9-.5,1.5v3.7h-1.1v-6.6h1.1v1c.2-.4.5-.7.9-.9s.8-.3,1.2-.3.9,0,1.2.4c.3.2.6.6.7,1.1h-.1Z"/>
          <path id="DejaVuSans-65-8" class="cls-9" d="M739.7-38.6v.5h-5c0,.7.3,1.3.7,1.7.4.4,1,.6,1.7.6s.8,0,1.2-.2.8-.3,1.2-.5v1c-.4.2-.8.3-1.2.4s-.8,0-1.2,0c-1,0-1.9-.3-2.5-.9s-.9-1.4-.9-2.5.3-1.9.9-2.6c.6-.6,1.4-.9,2.3-.9s1.6.3,2.1.9.8,1.3.8,2.3h-.1ZM738.6-38.9c0-.6-.2-1.1-.5-1.4-.3-.4-.7-.5-1.3-.5s-1.1.2-1.4.5-.6.8-.6,1.4h3.8Z"/>
        </g>
      </g>
      <g id="PathCollection_8">
        <path id="md15af0dd22-8" class="cls-8" d="M637.8-18c.9,0,1.8-.4,2.5-1s1-1.6,1-2.5-.4-1.8-1-2.5-1.6-1-2.5-1-1.8.4-2.5,1-1,1.6-1,2.5.4,1.8,1,2.5,1.6,1,2.5,1Z"/>
      </g>
      <g id="text_6">
        <g>
          <path id="DejaVuSans-63-2" class="cls-9" d="M663-24.4v.9c-.3-.2-.6-.3-.8-.3s-.6,0-.9,0c-.6,0-1.1.2-1.5.6s-.5,1-.5,1.7.2,1.3.5,1.7c.4.4.9.6,1.5.6s.6,0,.9,0,.6-.2.8-.3v.9c-.3,0-.6.2-.9.3h-.9c-.9,0-1.6-.3-2.2-.9-.5-.6-.8-1.3-.8-2.3s.3-1.8.8-2.3c.5-.6,1.3-.8,2.2-.8s.6,0,.9,0,.6.2.8.3h.1Z"/>
          <path id="DejaVuSans-6f-3" class="cls-9" d="M667.1-24c-.5,0-.9.2-1.3.6s-.5,1-.5,1.7.2,1.3.5,1.7c.3.4.7.6,1.3.6s.9-.2,1.3-.6c.3-.4.5-1,.5-1.7s-.2-1.3-.5-1.7c-.3-.4-.7-.6-1.3-.6ZM667.1-24.8c.9,0,1.5.3,2,.8.5.6.7,1.3.7,2.3s-.2,1.8-.7,2.3c-.5.6-1.2.8-2,.8s-1.5-.3-2-.8c-.5-.6-.7-1.3-.7-2.3s.2-1.8.7-2.3c.5-.6,1.2-.8,2-.8Z"/>
          <path id="DejaVuSans-6d-5" class="cls-9" d="M676.1-23.5c.2-.4.5-.8.9-1s.7-.3,1.2-.3,1.1.2,1.5.7c.3.4.5,1.1.5,1.9v3.6h-1v-3.6c0-.6-.1-1-.3-1.3-.2-.3-.5-.4-.9-.4s-.9.2-1.2.5c-.3.3-.4.8-.4,1.4v3.4h-1v-3.6c0-.6-.1-1-.3-1.3s-.5-.4-.9-.4-.9.2-1.2.5c-.3.3-.4.8-.4,1.4v3.4h-1v-6h1v.9c.2-.4.5-.6.8-.8s.7-.3,1.1-.3.8,0,1.1.3c.3.2.5.5.7,1h-.2Z"/>
          <path id="DejaVuSans-6d-6" class="cls-9" d="M686.9-23.5c.2-.4.5-.8.9-1s.7-.3,1.2-.3,1.1.2,1.5.7c.3.4.5,1.1.5,1.9v3.6h-1v-3.6c0-.6-.1-1-.3-1.3-.2-.3-.5-.4-.9-.4s-.9.2-1.2.5c-.3.3-.4.8-.4,1.4v3.4h-1v-3.6c0-.6-.1-1-.3-1.3s-.5-.4-.9-.4-.9.2-1.2.5c-.3.3-.4.8-.4,1.4v3.4h-1v-6h1v.9c.2-.4.5-.6.8-.8s.7-.3,1.1-.3.8,0,1.1.3c.3.2.5.5.7,1h-.2Z"/>
          <path id="DejaVuSans-75-5" class="cls-9" d="M692.8-21v-3.6h1v3.6c0,.6.1,1,.3,1.3.2.3.6.4,1,.4s1-.2,1.3-.5.5-.8.5-1.4v-3.4h1v6h-1v-.9c-.2.4-.5.6-.8.8-.3.2-.7.3-1.1.3-.7,0-1.2-.2-1.6-.6s-.5-1.1-.5-1.9h0ZM695.3-24.8h0Z"/>
          <path id="DejaVuSans-6e-4" class="cls-9" d="M704.9-22.3v3.6h-1v-3.6c0-.6-.1-1-.3-1.3-.2-.3-.6-.4-1-.4s-1,.2-1.3.5-.5.8-.5,1.4v3.4h-1v-6h1v.9c.2-.4.5-.6.8-.8.3-.2.7-.3,1.1-.3.7,0,1.2.2,1.6.6s.5,1.1.5,1.9h0Z"/>
          <path id="DejaVuSans-69-3" class="cls-9" d="M706.8-24.7h1v6h-1v-6ZM706.8-27h1v1.3h-1v-1.3Z"/>
          <path id="DejaVuSans-74-6" class="cls-9" d="M710.9-26.4v1.7h2v.8h-2v3.3c0,.5,0,.8.2.9s.4.2.8.2h1v.8h-1c-.8,0-1.3,0-1.6-.4-.3-.3-.4-.8-.4-1.6v-3.3h-.7v-.8h.7v-1.7h1Z"/>
          <path id="DejaVuSans-79-3" class="cls-9" d="M716.7-18.1c-.3.7-.6,1.2-.8,1.4-.3.2-.6.3-1.1.3h-.8v-.8h.6c.3,0,.5,0,.6-.2.2,0,.3-.4.5-.9l.2-.5-2.4-5.9h1l1.9,4.7,1.9-4.7h1l-2.6,6.6h0Z"/>
          <path id="DejaVuSans-5f" class="cls-9" d="M725.3-16.8v.8h-5.7v-.8h5.7Z"/>
          <path id="DejaVuSans-65-9" class="cls-9" d="M731.4-21.9v.5h-4.5c0,.7.2,1.2.6,1.6s.9.5,1.5.5.7,0,1.1,0,.7-.2,1.1-.4v.9c-.4.2-.7.3-1.1.3s-.7,0-1.1,0c-1,0-1.7-.3-2.3-.8-.6-.6-.8-1.3-.8-2.3s.3-1.8.8-2.3c.5-.6,1.2-.9,2.2-.9s1.4.3,1.9.8.7,1.2.7,2.1h-.1ZM730.4-22.2c0-.5-.2-1-.5-1.3s-.7-.5-1.2-.5-1,.2-1.3.5-.5.8-.6,1.3h3.6Z"/>
          <path id="DejaVuSans-76" class="cls-9" d="M732.3-24.7h1l1.9,5,1.9-5h1l-2.3,6h-1.3l-2.3-6h0Z"/>
          <path id="DejaVuSans-65-10" class="cls-9" d="M744.6-21.9v.5h-4.5c0,.7.2,1.2.6,1.6s.9.5,1.5.5.7,0,1.1,0,.7-.2,1.1-.4v.9c-.4.2-.7.3-1.1.3s-.7,0-1.1,0c-1,0-1.7-.3-2.3-.8-.6-.6-.8-1.3-.8-2.3s.3-1.8.8-2.3c.5-.6,1.2-.9,2.2-.9s1.4.3,1.9.8.7,1.2.7,2.1h-.1ZM743.6-22.2c0-.5-.2-1-.5-1.3s-.7-.5-1.2-.5-1,.2-1.3.5-.5.8-.6,1.3h3.6Z"/>
          <path id="DejaVuSans-6e-5" class="cls-9" d="M751.3-22.3v3.6h-1v-3.6c0-.6-.1-1-.3-1.3-.2-.3-.6-.4-1-.4s-1,.2-1.3.5-.5.8-.5,1.4v3.4h-1v-6h1v.9c.2-.4.5-.6.8-.8.3-.2.7-.3,1.1-.3.7,0,1.2.2,1.6.6s.5,1.1.5,1.9h0Z"/>
          <path id="DejaVuSans-74-7" class="cls-9" d="M754.2-26.4v1.7h2v.8h-2v3.3c0,.5,0,.8.2.9s.4.2.8.2h1v.8h-1c-.8,0-1.3,0-1.6-.4-.3-.3-.4-.8-.4-1.6v-3.3h-.7v-.8h.7v-1.7h1Z"/>
          <path id="DejaVuSans-73-3" class="cls-9" d="M761.4-24.5v.9c-.3,0-.6-.3-.9-.3s-.6,0-.9,0c-.5,0-.9,0-1.1.2s-.4.4-.4.7,0,.4.3.5.5.3,1.1.4h.3c.7.2,1.2.4,1.5.7s.4.7.4,1.1-.2,1-.7,1.3c-.4.3-1.1.5-1.8.5h-1c-.3,0-.7-.2-1.1-.3v-1c.4.2.7.3,1.1.4.4,0,.7,0,1.1,0s.8,0,1.1-.2c.3-.2.4-.4.4-.7s0-.5-.3-.6c-.2,0-.6-.3-1.2-.4h-.3c-.6-.2-1.1-.4-1.3-.7-.3-.3-.4-.6-.4-1.1s.2-1,.6-1.3,1-.5,1.7-.5h1c.3,0,.6,0,.9.2v.2Z"/>
        </g>
      </g>
      <g id="PathCollection_9">
        <path id="mc2a4c99029-6" class="cls-6" d="M637.8-1.5c.9,0,1.8-.4,2.5-1s1-1.6,1-2.5-.4-1.8-1-2.5-1.6-1-2.5-1-1.8.4-2.5,1-1,1.6-1,2.5.4,1.8,1,2.5,1.6,1,2.5,1Z"/>
      </g>
      <g id="text_7">
        <g>
          <path id="DejaVuSans-64-4" class="cls-9" d="M662.6-7.3v-3.3h1V-2.2h-1v-.9c-.2.4-.5.6-.8.8-.3.2-.7.3-1.1.3-.7,0-1.3-.3-1.8-.9s-.7-1.3-.7-2.3.2-1.7.7-2.3c.5-.6,1-.9,1.8-.9s.8,0,1.1.3c.3.2.6.4.8.8ZM659.3-5.2c0,.7.1,1.3.4,1.7.3.4.7.6,1.2.6s.9-.2,1.2-.6c.3-.4.5-1,.5-1.7s-.2-1.3-.5-1.7c-.3-.4-.7-.6-1.2-.6s-.9.2-1.2.6-.4,1-.4,1.7Z"/>
          <path id="DejaVuSans-65-11" class="cls-9" d="M670.8-5.5v.5h-4.5c0,.7.2,1.2.6,1.6s.9.5,1.5.5.7,0,1.1,0,.7-.2,1.1-.4v.9c-.4.2-.7.3-1.1.3s-.7,0-1.1,0c-1,0-1.7-.3-2.3-.8-.6-.6-.8-1.3-.8-2.3s.3-1.8.8-2.3c.5-.6,1.2-.9,2.2-.9s1.4.3,1.9.8.7,1.2.7,2.1h-.1ZM669.8-5.7c0-.5-.2-1-.5-1.3s-.7-.5-1.2-.5-1,.2-1.3.5-.5.8-.6,1.3h3.6Z"/>
          <path id="DejaVuSans-73-4" class="cls-9" d="M676.3-8v.9c-.3,0-.6-.3-.9-.3s-.6,0-.9,0c-.5,0-.9,0-1.1.2s-.4.4-.4.7,0,.4.3.5.5.3,1.1.4h.3c.7.2,1.2.4,1.5.7s.4.7.4,1.1-.2,1-.7,1.3c-.4.3-1.1.5-1.8.5h-1c-.3,0-.7-.2-1.1-.3v-1c.4.2.7.3,1.1.4.4,0,.7,0,1.1,0s.8,0,1.1-.2c.3-.2.4-.4.4-.7s0-.5-.3-.6c-.2,0-.6-.3-1.2-.4h-.3c-.6-.2-1.1-.4-1.3-.7-.3-.3-.4-.6-.4-1.1s.2-1,.6-1.3,1-.5,1.7-.5h1c.3,0,.6,0,.9.2v.2Z"/>
          <path id="DejaVuSans-69-4" class="cls-9" d="M678.2-8.2h1V-2.2h-1v-6ZM678.2-10.6h1v1.3h-1v-1.3Z"/>
          <path id="DejaVuSans-67-4" class="cls-9" d="M685.2-5.3c0-.7-.1-1.3-.4-1.7-.3-.4-.7-.6-1.2-.6s-.9.2-1.2.6c-.3.4-.4.9-.4,1.7s.1,1.3.4,1.7c.3.4.7.6,1.2.6s.9-.2,1.2-.6c.3-.4.4-.9.4-1.7ZM686.2-2.9c0,1-.2,1.8-.7,2.3s-1.1.7-2.1.7h-1c-.3,0-.6,0-.9-.2v-1c.3.2.6.3.9.3s.6,0,.9,0c.6,0,1.1-.2,1.5-.5.3-.3.5-.8.5-1.5v-.5c-.2.4-.5.6-.8.8s-.7.3-1.1.3c-.7,0-1.3-.3-1.8-.8-.5-.6-.7-1.3-.7-2.2s.2-1.7.7-2.2c.5-.6,1-.8,1.8-.8s.8,0,1.1.3.6.4.8.8v-.9h1V-2.6v-.3Z"/>
          <path id="DejaVuSans-6e-6" class="cls-9" d="M693.2-5.8v3.6h-1v-3.6c0-.6-.1-1-.3-1.3-.2-.3-.6-.4-1-.4s-1,.2-1.3.5-.5.8-.5,1.4v3.4h-1v-6h1v.9c.2-.4.5-.6.8-.8.3-.2.7-.3,1.1-.3.7,0,1.2.2,1.6.6s.5,1.1.5,1.9h0Z"/>
          <path id="DejaVuSans-5f-2" class="cls-9" d="M699.7-.4V.4h-5.7V-.4h5.7Z"/>
          <path id="DejaVuSans-6d-7" class="cls-9" d="M705.4-7.1c.2-.4.5-.8.9-1s.7-.3,1.2-.3,1.1.2,1.5.7c.3.4.5,1.1.5,1.9v3.6h-1v-3.6c0-.6-.1-1-.3-1.3-.2-.3-.5-.4-.9-.4s-.9.2-1.2.5c-.3.3-.4.8-.4,1.4v3.4h-1v-3.6c0-.6-.1-1-.3-1.3s-.5-.4-.9-.4-.9.2-1.2.5c-.3.3-.4.8-.4,1.4v3.4h-1v-6h1v.9c.2-.4.5-.6.8-.8s.7-.3,1.1-.3.8,0,1.1.3c.3.2.5.5.7,1h-.2Z"/>
          <path id="DejaVuSans-69-5" class="cls-9" d="M711.4-8.2h1V-2.2h-1v-6ZM711.4-10.6h1v1.3h-1v-1.3Z"/>
          <path id="DejaVuSans-6e-7" class="cls-9" d="M719.4-5.8v3.6h-1v-3.6c0-.6-.1-1-.3-1.3-.2-.3-.6-.4-1-.4s-1,.2-1.3.5-.5.8-.5,1.4v3.4h-1v-6h1v.9c.2-.4.5-.6.8-.8.3-.2.7-.3,1.1-.3.7,0,1.2.2,1.6.6s.5,1.1.5,1.9h0Z"/>
          <path id="DejaVuSans-69-6" class="cls-9" d="M721.4-8.2h1V-2.2h-1v-6ZM721.4-10.6h1v1.3h-1v-1.3Z"/>
          <path id="DejaVuSans-6d-8" class="cls-9" d="M729.1-7.1c.2-.4.5-.8.9-1s.7-.3,1.2-.3,1.1.2,1.5.7c.3.4.5,1.1.5,1.9v3.6h-1v-3.6c0-.6-.1-1-.3-1.3-.2-.3-.5-.4-.9-.4s-.9.2-1.2.5c-.3.3-.4.8-.4,1.4v3.4h-1v-3.6c0-.6-.1-1-.3-1.3s-.5-.4-.9-.4-.9.2-1.2.5c-.3.3-.4.8-.4,1.4v3.4h-1v-6h1v.9c.2-.4.5-.6.8-.8s.7-.3,1.1-.3.8,0,1.1.3c.3.2.5.5.7,1h-.2Z"/>
          <path id="DejaVuSans-61-8" class="cls-9" d="M737.9-5.2c-.8,0-1.4,0-1.7.3s-.5.5-.5.9.1.6.3.8c.2.2.5.3.9.3s1-.2,1.3-.6.5-.9.5-1.5v-.2h-1,.2ZM739.9-5.6v3.4h-1v-.9c-.2.4-.5.6-.8.8-.3.2-.7.3-1.2.3s-1.1-.2-1.5-.5-.5-.8-.5-1.4.2-1.2.7-1.5,1.1-.5,2-.5h1.4c0-.6-.1-.9-.4-1.2s-.7-.4-1.3-.4-.7,0-1,0c-.3,0-.6.2-.9.4v-.9c.4,0,.7-.2,1.1-.3.3,0,.7,0,1,0,.9,0,1.5.2,2,.7.4.5.6,1.1.6,2.1h-.2Z"/>
          <path id="DejaVuSans-6c-2" class="cls-9" d="M741.9-10.6h1V-2.2h-1v-8.4Z"/>
        </g>
      </g>
      <g id="PathCollection_10">
        <path id="medeb8074ca-12" class="cls-2" d="M637.8,14.9c.9,0,1.8-.4,2.5-1s1-1.6,1-2.5-.4-1.8-1-2.5-1.6-1-2.5-1-1.8.4-2.5,1-1,1.6-1,2.5.4,1.8,1,2.5,1.6,1,2.5,1Z"/>
      </g>
      <g id="text_8">
        <g>
          <path id="DejaVuSans-68-8" class="cls-9" d="M663.7,10.6v3.6h-1v-3.6c0-.6-.1-1-.3-1.3-.2-.3-.6-.4-1-.4s-1,.2-1.3.5-.5.8-.5,1.4v3.4h-1V5.8h1v3.3c.2-.4.5-.6.8-.8.3-.2.7-.3,1.1-.3.7,0,1.2.2,1.6.6s.5,1.1.5,1.9h0Z"/>
          <path id="DejaVuSans-6f-4" class="cls-9" d="M668,8.9c-.5,0-.9.2-1.3.6s-.5,1-.5,1.7.2,1.3.5,1.7c.3.4.7.6,1.3.6s.9-.2,1.3-.6c.3-.4.5-1,.5-1.7s-.2-1.3-.5-1.7c-.3-.4-.7-.6-1.3-.6ZM668,8.1c.9,0,1.5.3,2,.8.5.6.7,1.3.7,2.3s-.2,1.8-.7,2.3c-.5.6-1.2.8-2,.8s-1.5-.3-2-.8c-.5-.6-.7-1.3-.7-2.3s.2-1.8.7-2.3c.5-.6,1.2-.8,2-.8Z"/>
          <path id="DejaVuSans-6d-9" class="cls-9" d="M677.1,9.4c.2-.4.5-.8.9-1s.7-.3,1.2-.3,1.1.2,1.5.7c.3.4.5,1.1.5,1.9v3.6h-1v-3.6c0-.6-.1-1-.3-1.3-.2-.3-.5-.4-.9-.4s-.9.2-1.2.5c-.3.3-.4.8-.4,1.4v3.4h-1v-3.6c0-.6-.1-1-.3-1.3s-.5-.4-.9-.4-.9.2-1.2.5c-.3.3-.4.8-.4,1.4v3.4h-1v-6h1v.9c.2-.4.5-.6.8-.8s.7-.3,1.1-.3.8,0,1.1.3c.3.2.5.5.7,1h-.2Z"/>
          <path id="DejaVuSans-65-12" class="cls-9" d="M688.2,11v.5h-4.5c0,.7.2,1.2.6,1.6s.9.5,1.5.5.7,0,1.1,0,.7-.2,1.1-.4v.9c-.4.2-.7.3-1.1.3s-.7,0-1.1,0c-1,0-1.7-.3-2.3-.8-.6-.6-.8-1.3-.8-2.3s.3-1.8.8-2.3c.5-.6,1.2-.9,2.2-.9s1.4.3,1.9.8.7,1.2.7,2.1h-.1ZM687.2,10.7c0-.5-.2-1-.5-1.3s-.7-.5-1.2-.5-1,.2-1.3.5-.5.8-.6,1.3h3.6Z"/>
          <path id="DejaVuSans-6d-10" class="cls-9" d="M694.5,9.4c.2-.4.5-.8.9-1s.7-.3,1.2-.3,1.1.2,1.5.7c.3.4.5,1.1.5,1.9v3.6h-1v-3.6c0-.6-.1-1-.3-1.3-.2-.3-.5-.4-.9-.4s-.9.2-1.2.5c-.3.3-.4.8-.4,1.4v3.4h-1v-3.6c0-.6-.1-1-.3-1.3s-.5-.4-.9-.4-.9.2-1.2.5c-.3.3-.4.8-.4,1.4v3.4h-1v-6h1v.9c.2-.4.5-.6.8-.8s.7-.3,1.1-.3.8,0,1.1.3c.3.2.5.5.7,1h-.2Z"/>
          <path id="DejaVuSans-61-9" class="cls-9" d="M703.3,11.2c-.8,0-1.4,0-1.7.3s-.5.5-.5.9.1.6.3.8c.2.2.5.3.9.3s1-.2,1.3-.6.5-.9.5-1.5v-.2h-1,.2ZM705.3,10.8v3.4h-1v-.9c-.2.4-.5.6-.8.8-.3.2-.7.3-1.2.3s-1.1-.2-1.5-.5-.5-.8-.5-1.4.2-1.2.7-1.5,1.1-.5,2-.5h1.4c0-.6-.1-.9-.4-1.2s-.7-.4-1.3-.4-.7,0-1,0c-.3,0-.6.2-.9.4v-.9c.4,0,.7-.2,1.1-.3.3,0,.7,0,1,0,.9,0,1.5.2,2,.7.4.5.6,1.1.6,2.1h-.2Z"/>
          <path id="DejaVuSans-64-5" class="cls-9" d="M711.3,9.2v-3.3h1v8.4h-1v-.9c-.2.4-.5.6-.8.8-.3.2-.7.3-1.1.3-.7,0-1.3-.3-1.8-.9s-.7-1.3-.7-2.3.2-1.7.7-2.3c.5-.6,1-.9,1.8-.9s.8,0,1.1.3c.3.2.6.4.8.8ZM707.9,11.3c0,.7.1,1.3.4,1.7.3.4.7.6,1.2.6s.9-.2,1.2-.6c.3-.4.5-1,.5-1.7s-.2-1.3-.5-1.7c-.3-.4-.7-.6-1.2-.6s-.9.2-1.2.6-.4,1-.4,1.7Z"/>
          <path id="DejaVuSans-65-13" class="cls-9" d="M719.4,11v.5h-4.5c0,.7.2,1.2.6,1.6s.9.5,1.5.5.7,0,1.1,0,.7-.2,1.1-.4v.9c-.4.2-.7.3-1.1.3s-.7,0-1.1,0c-1,0-1.7-.3-2.3-.8-.6-.6-.8-1.3-.8-2.3s.3-1.8.8-2.3c.5-.6,1.2-.9,2.2-.9s1.4.3,1.9.8.7,1.2.7,2.1h-.1ZM718.5,10.7c0-.5-.2-1-.5-1.3s-.7-.5-1.2-.5-1,.2-1.3.5-.5.8-.6,1.3h3.6Z"/>
          <path id="DejaVuSans-5f-3" class="cls-9" d="M725.6,16.1v.8h-5.7v-.8h5.7Z"/>
          <path id="DejaVuSans-62-2" class="cls-9" d="M730.9,11.3c0-.7-.1-1.3-.4-1.7s-.7-.6-1.2-.6-.9.2-1.2.6-.4,1-.4,1.7.1,1.3.4,1.7c.3.4.7.6,1.2.6s.9-.2,1.2-.6c.3-.4.4-1,.4-1.7ZM727.5,9.2c.2-.4.5-.6.8-.8.3-.2.7-.3,1.1-.3.7,0,1.3.3,1.8.9s.7,1.3.7,2.3-.2,1.7-.7,2.3c-.5.6-1,.9-1.8.9s-.8,0-1.1-.3c-.3-.2-.6-.4-.8-.8v.9h-1V5.9h1v3.3Z"/>
          <path id="DejaVuSans-61-10" class="cls-9" d="M736.3,11.2c-.8,0-1.4,0-1.7.3s-.5.5-.5.9.1.6.3.8c.2.2.5.3.9.3s1-.2,1.3-.6.5-.9.5-1.5v-.2h-1,.2ZM738.3,10.8v3.4h-1v-.9c-.2.4-.5.6-.8.8-.3.2-.7.3-1.2.3s-1.1-.2-1.5-.5-.5-.8-.5-1.4.2-1.2.7-1.5,1.1-.5,2-.5h1.4c0-.6-.1-.9-.4-1.2s-.7-.4-1.3-.4-.7,0-1,0c-.3,0-.6.2-.9.4v-.9c.4,0,.7-.2,1.1-.3.3,0,.7,0,1,0,.9,0,1.5.2,2,.7.4.5.6,1.1.6,2.1h-.2Z"/>
          <path id="DejaVuSans-6b-4" class="cls-9" d="M740.3,5.9h1v4.9l2.9-2.6h1.3l-3.2,2.8,3.3,3.2h-1.3l-3.1-2.9v2.9h-1V5.8h.1Z"/>
          <path id="DejaVuSans-65-14" class="cls-9" d="M751.4,11v.5h-4.5c0,.7.2,1.2.6,1.6s.9.5,1.5.5.7,0,1.1,0,.7-.2,1.1-.4v.9c-.4.2-.7.3-1.1.3s-.7,0-1.1,0c-1,0-1.7-.3-2.3-.8-.6-.6-.8-1.3-.8-2.3s.3-1.8.8-2.3c.5-.6,1.2-.9,2.2-.9s1.4.3,1.9.8.7,1.2.7,2.1h-.1ZM750.4,10.7c0-.5-.2-1-.5-1.3s-.7-.5-1.2-.5-1,.2-1.3.5-.5.8-.6,1.3h3.6Z"/>
          <path id="DejaVuSans-73-5" class="cls-9" d="M756.9,8.4v.9c-.3,0-.6-.3-.9-.3s-.6,0-.9,0c-.5,0-.9,0-1.1.2s-.4.4-.4.7,0,.4.3.5.5.3,1.1.4h.3c.7.2,1.2.4,1.5.7s.4.7.4,1.1-.2,1-.7,1.3c-.4.3-1.1.5-1.8.5h-1c-.3,0-.7-.2-1.1-.3v-1c.4.2.7.3,1.1.4.4,0,.7,0,1.1,0s.8,0,1.1-.2c.3-.2.4-.4.4-.7s0-.5-.3-.6c-.2,0-.6-.3-1.2-.4h-.3c-.6-.2-1.1-.4-1.3-.7-.3-.3-.4-.6-.4-1.1s.2-1,.6-1.3,1-.5,1.7-.5h1c.3,0,.6,0,.9.2v.2Z"/>
        </g>
      </g>
      <g id="PathCollection_11">
        <path id="m57cc284f40-54" class="cls-3" d="M637.8,31.4c.9,0,1.8-.4,2.5-1s1-1.6,1-2.5-.4-1.8-1-2.5-1.6-1-2.5-1-1.8.4-2.5,1-1,1.6-1,2.5.4,1.8,1,2.5,1.6,1,2.5,1Z"/>
      </g>
      <g id="text_9">
        <g>
          <path id="DejaVuSans-6d-11" class="cls-9" d="M663.4,25.8c.2-.4.5-.8.9-1s.7-.3,1.2-.3,1.1.2,1.5.7c.3.4.5,1.1.5,1.9v3.6h-1v-3.6c0-.6-.1-1-.3-1.3-.2-.3-.5-.4-.9-.4s-.9.2-1.2.5c-.3.3-.4.8-.4,1.4v3.4h-1v-3.6c0-.6-.1-1-.3-1.3s-.5-.4-.9-.4-.9.2-1.2.5c-.3.3-.4.8-.4,1.4v3.4h-1v-6h1v.9c.2-.4.5-.6.8-.8s.7-.3,1.1-.3.8.1,1.1.3c.3.2.5.5.7,1h-.2Z"/>
          <path id="DejaVuSans-75-6" class="cls-9" d="M669.3,28.3v-3.6h1v3.6c0,.6.1,1,.3,1.3.2.3.6.4,1,.4s1-.2,1.3-.5.5-.8.5-1.4v-3.4h1v6h-1v-.9c-.2.4-.5.6-.8.8s-.7.3-1.1.3c-.7,0-1.2-.2-1.6-.6-.4-.4-.5-1.1-.5-1.9h0ZM671.8,24.5h0Z"/>
          <path id="DejaVuSans-6c-3" class="cls-9" d="M676.4,22.3h1v8.4h-1v-8.4Z"/>
          <path id="DejaVuSans-74-8" class="cls-9" d="M680.4,23v1.7h2v.8h-2v3.3c0,.5,0,.8.2.9s.4.2.8.2h1v.8h-1c-.8,0-1.3-.1-1.6-.4-.3-.3-.4-.8-.4-1.6v-3.3h-.7v-.8h.7v-1.7h1Z"/>
          <path id="DejaVuSans-69-7" class="cls-9" d="M683.7,24.7h1v6h-1v-6ZM683.7,22.3h1v1.3h-1v-1.3Z"/>
          <path id="DejaVuSans-5f-4" class="cls-9" d="M691.4,32.5v.8h-5.7v-.8h5.7Z"/>
          <path id="DejaVuSans-6c-4" class="cls-9" d="M692.3,22.3h1v8.4h-1v-8.4Z"/>
          <path id="DejaVuSans-6f-5" class="cls-9" d="M697.7,25.4c-.5,0-.9.2-1.3.6s-.5,1-.5,1.7.2,1.3.5,1.7.7.6,1.3.6.9-.2,1.3-.6c.3-.4.5-1,.5-1.7s-.2-1.3-.5-1.7-.7-.6-1.3-.6ZM697.7,24.5c.9,0,1.5.3,2,.8.5.6.7,1.3.7,2.3s-.2,1.8-.7,2.3c-.5.6-1.2.8-2,.8s-1.5-.3-2-.8c-.5-.6-.7-1.3-.7-2.3s.2-1.8.7-2.3c.5-.6,1.2-.8,2-.8Z"/>
          <path id="DejaVuSans-63-3" class="cls-9" d="M706.4,24.9v.9c-.3-.2-.6-.3-.8-.3s-.6-.1-.9-.1c-.6,0-1.1.2-1.5.6-.4.4-.5,1-.5,1.7s.2,1.3.5,1.7c.4.4.9.6,1.5.6s.6,0,.9-.1.6-.2.8-.3v.9c-.3.1-.6.2-.9.3h-.9c-.9,0-1.6-.3-2.2-.9-.5-.6-.8-1.3-.8-2.3s.3-1.8.8-2.3c.5-.6,1.3-.8,2.2-.8s.6,0,.9,0,.6.2.8.3h.1Z"/>
          <path id="DejaVuSans-61-11" class="cls-9" d="M710.9,27.7c-.8,0-1.4,0-1.7.3s-.5.5-.5.9.1.6.3.8c.2.2.5.3.9.3s1-.2,1.3-.6.5-.9.5-1.5v-.2h-1,.2ZM712.8,27.3v3.4h-1v-.9c-.2.4-.5.6-.8.8s-.7.3-1.2.3-1.1-.2-1.5-.5-.5-.8-.5-1.4.2-1.2.7-1.5,1.1-.5,2-.5h1.4c0-.6-.1-.9-.4-1.2s-.7-.4-1.3-.4-.7,0-1,.1c-.3,0-.6.2-.9.4v-.9c.4-.1.7-.2,1.1-.3.3,0,.7-.1,1-.1.9,0,1.5.2,2,.7.4.5.6,1.1.6,2.1h-.2Z"/>
          <path id="DejaVuSans-74-9" class="cls-9" d="M715.8,23v1.7h2v.8h-2v3.3c0,.5,0,.8.2.9s.4.2.8.2h1v.8h-1c-.8,0-1.3-.1-1.6-.4-.3-.3-.4-.8-.4-1.6v-3.3h-.7v-.8h.7v-1.7h1Z"/>
          <path id="DejaVuSans-69-8" class="cls-9" d="M719.2,24.7h1v6h-1v-6ZM719.2,22.3h1v1.3h-1v-1.3Z"/>
          <path id="DejaVuSans-6f-6" class="cls-9" d="M724.6,25.4c-.5,0-.9.2-1.3.6s-.5,1-.5,1.7.2,1.3.5,1.7.7.6,1.3.6.9-.2,1.3-.6c.3-.4.5-1,.5-1.7s-.2-1.3-.5-1.7-.7-.6-1.3-.6ZM724.6,24.5c.9,0,1.5.3,2,.8.5.6.7,1.3.7,2.3s-.2,1.8-.7,2.3c-.5.6-1.2.8-2,.8s-1.5-.3-2-.8c-.5-.6-.7-1.3-.7-2.3s.2-1.8.7-2.3c.5-.6,1.2-.8,2-.8Z"/>
          <path id="DejaVuSans-6e-8" class="cls-9" d="M734,27.1v3.6h-1v-3.6c0-.6-.1-1-.3-1.3-.2-.3-.6-.4-1-.4s-1,.2-1.3.5-.5.8-.5,1.4v3.4h-1v-6h1v.9c.2-.4.5-.6.8-.8s.7-.3,1.1-.3c.7,0,1.2.2,1.6.6.4.4.5,1.1.5,1.9h0Z"/>
        </g>
      </g>
      <g id="PathCollection_12">
        <path id="mcd28b8d163-2" class="cls-5" d="M637.8,47.8c.9,0,1.8-.4,2.5-1s1-1.6,1-2.5-.4-1.8-1-2.5-1.6-1-2.5-1-1.8.4-2.5,1-1,1.6-1,2.5.4,1.8,1,2.5,1.6,1,2.5,1Z"/>
      </g>
      <g id="text_10">
        <g>
          <path id="DejaVuSans-6f-7" class="cls-9" d="M661,41.8c-.5,0-.9.2-1.3.6s-.5,1-.5,1.7.2,1.3.5,1.7.7.6,1.3.6.9-.2,1.3-.6c.3-.4.5-1,.5-1.7s-.2-1.3-.5-1.7-.7-.6-1.3-.6ZM661,41c.9,0,1.5.3,2,.8.5.6.7,1.3.7,2.3s-.2,1.8-.7,2.3c-.5.6-1.2.8-2,.8s-1.5-.3-2-.8c-.5-.6-.7-1.3-.7-2.3s.2-1.8.7-2.3c.5-.6,1.2-.8,2-.8Z"/>
          <path id="DejaVuSans-72-4" class="cls-9" d="M668.9,42.1c-.1,0-.2-.1-.4-.1h-.4c-.6,0-1,.2-1.3.5s-.4.9-.4,1.6v3.2h-1v-6h1v.9c.2-.4.5-.6.8-.8s.7-.3,1.2-.3.1,0,.2,0h.3v1h0Z"/>
          <path id="DejaVuSans-69-9" class="cls-9" d="M669.9,41.1h1v6h-1v-6ZM669.9,38.8h1v1.3h-1v-1.3Z"/>
          <path id="DejaVuSans-67-5" class="cls-9" d="M676.9,44.1c0-.7-.1-1.3-.4-1.7s-.7-.6-1.2-.6-.9.2-1.2.6c-.3.4-.4.9-.4,1.7s.1,1.3.4,1.7.7.6,1.2.6.9-.2,1.2-.6c.3-.4.4-.9.4-1.7ZM677.9,46.4c0,1-.2,1.8-.7,2.3s-1.1.7-2.1.7h-1c-.3,0-.6-.1-.9-.2v-1c.3.2.6.3.9.3s.6.1.9.1c.6,0,1.1-.2,1.5-.5.3-.3.5-.8.5-1.5v-.5c-.2.4-.5.6-.8.8s-.7.3-1.1.3c-.7,0-1.3-.3-1.8-.8-.5-.6-.7-1.3-.7-2.2s.2-1.7.7-2.2c.5-.6,1-.8,1.8-.8s.8,0,1.1.3.6.4.8.8v-.9h1v5.3-.3Z"/>
          <path id="DejaVuSans-69-10" class="cls-9" d="M680,41.1h1v6h-1v-6ZM680,38.8h1v1.3h-1v-1.3Z"/>
          <path id="DejaVuSans-6e-9" class="cls-9" d="M688,43.5v3.6h-1v-3.6c0-.6-.1-1-.3-1.3-.2-.3-.6-.4-1-.4s-1,.2-1.3.5-.5.8-.5,1.4v3.4h-1v-6h1v.9c.2-.4.5-.6.8-.8s.7-.3,1.1-.3c.7,0,1.2.2,1.6.6.4.4.5,1.1.5,1.9h0Z"/>
          <path id="DejaVuSans-5f-5" class="cls-9" d="M694.6,49v.8h-5.7v-.8h5.7Z"/>
          <path id="DejaVuSans-66-2" class="cls-9" d="M698.5,38.8v.8h-.9c-.4,0-.6,0-.7.2-.1.1-.2.4-.2.8v.5h1.6v.8h-1.6v5.2h-1v-5.2h-.9v-.8h.9v-.4c0-.7.2-1.2.5-1.5s.8-.5,1.5-.5h.9,0Z"/>
          <path id="DejaVuSans-6f-8" class="cls-9" d="M701.7,41.8c-.5,0-.9.2-1.3.6s-.5,1-.5,1.7.2,1.3.5,1.7.7.6,1.3.6.9-.2,1.3-.6c.3-.4.5-1,.5-1.7s-.2-1.3-.5-1.7-.7-.6-1.3-.6ZM701.7,41c.9,0,1.5.3,2,.8.5.6.7,1.3.7,2.3s-.2,1.8-.7,2.3c-.5.6-1.2.8-2,.8s-1.5-.3-2-.8c-.5-.6-.7-1.3-.7-2.3s.2-1.8.7-2.3c.5-.6,1.2-.8,2-.8Z"/>
          <path id="DejaVuSans-63-4" class="cls-9" d="M710.4,41.4v.9c-.3-.2-.6-.3-.8-.3s-.6-.1-.9-.1c-.6,0-1.1.2-1.5.6-.4.4-.5,1-.5,1.7s.2,1.3.5,1.7c.4.4.9.6,1.5.6s.6,0,.9-.1.6-.2.8-.3v.9c-.3.1-.6.2-.9.3h-.9c-.9,0-1.6-.3-2.2-.9-.5-.6-.8-1.3-.8-2.3s.3-1.8.8-2.3c.5-.6,1.3-.8,2.2-.8s.6,0,.9,0,.6.2.8.3h.1Z"/>
          <path id="DejaVuSans-75-7" class="cls-9" d="M712,44.8v-3.6h1v3.6c0,.6.1,1,.3,1.3.2.3.6.4,1,.4s1-.2,1.3-.5.5-.8.5-1.4v-3.4h1v6h-1v-.9c-.2.4-.5.6-.8.8s-.7.3-1.1.3c-.7,0-1.2-.2-1.6-.6-.4-.4-.5-1.1-.5-1.9h0ZM714.5,41h0Z"/>
          <path id="DejaVuSans-73-6" class="cls-9" d="M723,41.3v.9c-.3-.1-.6-.3-.9-.3s-.6-.1-.9-.1c-.5,0-.9,0-1.1.2s-.4.4-.4.7,0,.4.3.5.5.3,1.1.4h.3c.7.2,1.2.4,1.5.7s.4.7.4,1.1-.2,1-.7,1.3c-.4.3-1.1.5-1.8.5h-1c-.3,0-.7-.2-1.1-.3v-1c.4.2.7.3,1.1.4.4,0,.7.1,1.1.1s.8,0,1.1-.2c.3-.2.4-.4.4-.7s0-.5-.3-.6c-.2-.1-.6-.3-1.2-.4h-.3c-.6-.2-1.1-.4-1.3-.7-.3-.3-.4-.6-.4-1.1s.2-1,.6-1.3,1-.5,1.7-.5h1c.3,0,.6.1.9.2v.2Z"/>
        </g>
      </g>
      <g id="PathCollection_13">
        <path id="md15af0dd22-9" class="cls-8" d="M637.8,64.3c.9,0,1.8-.4,2.5-1s1-1.6,1-2.5-.4-1.8-1-2.5-1.6-1-2.5-1-1.8.4-2.5,1-1,1.6-1,2.5.4,1.8,1,2.5,1.6,1,2.5,1Z"/>
      </g>
      <g id="text_11">
        <g>
          <path id="DejaVuSans-70" class="cls-9" d="M659.6,62.7v3.2h-1v-8.3h1v.9c.2-.4.5-.6.8-.8s.7-.3,1.1-.3c.7,0,1.3.3,1.8.9.5.6.7,1.3.7,2.3s-.2,1.7-.7,2.3-1,.9-1.8.9-.8,0-1.1-.3c-.3-.2-.6-.4-.8-.8h0ZM663,60.6c0-.7-.1-1.3-.4-1.7s-.7-.6-1.2-.6-.9.2-1.2.6-.4,1-.4,1.7.1,1.3.4,1.7.7.6,1.2.6.9-.2,1.2-.6c.3-.4.4-1,.4-1.7Z"/>
          <path id="DejaVuSans-65-15" class="cls-9" d="M670.8,60.4v.5h-4.5c0,.7.2,1.2.6,1.6.4.4.9.5,1.5.5s.7,0,1.1-.1.7-.2,1.1-.4v.9c-.4.2-.7.3-1.1.3s-.7.1-1.1.1c-1,0-1.7-.3-2.3-.8-.6-.6-.8-1.3-.8-2.3s.3-1.8.8-2.3c.5-.6,1.2-.9,2.2-.9s1.4.3,1.9.8.7,1.2.7,2.1h-.1ZM669.8,60.1c0-.5-.2-1-.5-1.3s-.7-.5-1.2-.5-1,.2-1.3.5-.5.8-.6,1.3h3.6Z"/>
          <path id="DejaVuSans-74-10" class="cls-9" d="M673.4,55.9v1.7h2v.8h-2v3.3c0,.5,0,.8.2.9s.4.2.8.2h1v.8h-1c-.8,0-1.3-.1-1.6-.4-.3-.3-.4-.8-.4-1.6v-3.3h-.7v-.8h.7v-1.7h1Z"/>
          <path id="DejaVuSans-5f-6" class="cls-9" d="M681.3,65.4v.8h-5.7v-.8h5.7Z"/>
          <path id="DejaVuSans-66-3" class="cls-9" d="M685.3,55.3v.8h-.9c-.4,0-.6,0-.7.2-.1.1-.2.4-.2.8v.5h1.6v.8h-1.6v5.2h-1v-5.2h-.9v-.8h.9v-.4c0-.7.2-1.2.5-1.5s.8-.5,1.5-.5h.9,0Z"/>
          <path id="DejaVuSans-72-5" class="cls-9" d="M689.6,58.5c-.1,0-.2-.1-.4-.1h-.4c-.6,0-1,.2-1.3.5s-.4.9-.4,1.6v3.2h-1v-6h1v.9c.2-.4.5-.6.8-.8s.7-.3,1.2-.3.1,0,.2,0h.3v1h0Z"/>
          <path id="DejaVuSans-69-11" class="cls-9" d="M690.6,57.6h1v6h-1v-6ZM690.6,55.3h1v1.3h-1v-1.3Z"/>
          <path id="DejaVuSans-65-16" class="cls-9" d="M698.8,60.4v.5h-4.5c0,.7.2,1.2.6,1.6.4.4.9.5,1.5.5s.7,0,1.1-.1.7-.2,1.1-.4v.9c-.4.2-.7.3-1.1.3s-.7.1-1.1.1c-1,0-1.7-.3-2.3-.8-.6-.6-.8-1.3-.8-2.3s.3-1.8.8-2.3c.5-.6,1.2-.9,2.2-.9s1.4.3,1.9.8.7,1.2.7,2.1h-.1ZM697.8,60.1c0-.5-.2-1-.5-1.3s-.7-.5-1.2-.5-1,.2-1.3.5-.5.8-.6,1.3h3.6Z"/>
          <path id="DejaVuSans-6e-10" class="cls-9" d="M705.5,60v3.6h-1v-3.6c0-.6-.1-1-.3-1.3-.2-.3-.6-.4-1-.4s-1,.2-1.3.5-.5.8-.5,1.4v3.4h-1v-6h1v.9c.2-.4.5-.6.8-.8s.7-.3,1.1-.3c.7,0,1.2.2,1.6.6.4.4.5,1.1.5,1.9h0Z"/>
          <path id="DejaVuSans-64-6" class="cls-9" d="M711.4,58.5v-3.3h1v8.4h-1v-.9c-.2.4-.5.6-.8.8s-.7.3-1.1.3c-.7,0-1.3-.3-1.8-.9-.5-.6-.7-1.3-.7-2.3s.2-1.7.7-2.3,1-.9,1.8-.9.8,0,1.1.3c.3.2.6.4.8.8h0ZM708,60.6c0,.7.1,1.3.4,1.7s.7.6,1.2.6.9-.2,1.2-.6c.3-.4.5-1,.5-1.7s-.2-1.3-.5-1.7-.7-.6-1.2-.6-.9.2-1.2.6-.4,1-.4,1.7Z"/>
          <path id="DejaVuSans-6c-5" class="cls-9" d="M714.4,55.3h1v8.4h-1v-8.4Z"/>
          <path id="DejaVuSans-79-4" class="cls-9" d="M720,64.2c-.3.7-.6,1.2-.8,1.4-.3.2-.6.3-1.1.3h-.8v-.8h.6c.3,0,.5,0,.6-.2.2-.1.3-.4.5-.9l.2-.5-2.4-5.9h1l1.9,4.7,1.9-4.7h1l-2.6,6.6h0Z"/>
        </g>
      </g>
    </g>
  </g>
</svg>