<?xml version="1.0" encoding="UTF-8"?>
<svg xmlns="http://www.w3.org/2000/svg" version="1.1" viewBox="0 0 576 576">
  <defs>
    <style>
      .cls-1, .cls-2, .cls-3 {
        fill: none;
      }

      .cls-4 {
        fill: #8da0cb;
      }

      .cls-4, .cls-5, .cls-6, .cls-7, .cls-8, .cls-9, .cls-3, .cls-10, .cls-11 {
        stroke-linejoin: round;
      }

      .cls-4, .cls-5, .cls-6, .cls-7, .cls-8, .cls-9, .cls-11 {
        stroke: #fff;
        stroke-width: 2px;
      }

      .cls-4, .cls-5, .cls-6, .cls-8, .cls-9, .cls-11 {
        fill-opacity: .9;
        stroke-opacity: .9;
      }

      .cls-12 {
        font-family: HelveticaNeue, 'Helvetica Neue';
        font-size: 25px;
      }

      .cls-12, .cls-13, .cls-10 {
        isolation: isolate;
      }

      .cls-5 {
        fill: #e78ac3;
      }

      .cls-6 {
        fill: #d24f13;
      }

      .cls-14 {
        fill: #262626;
      }

      .cls-8 {
        fill: #fc8d62;
      }

      .cls-9 {
        fill: #66c2a5;
      }

      .cls-2 {
        stroke-miterlimit: 10;
      }

      .cls-2, .cls-3 {
        stroke: #000;
      }

      .cls-10 {
        fill-opacity: .4;
        opacity: .2;
        stroke: #ccc;
        stroke-opacity: .4;
        stroke-width: .5px;
      }

      .cls-11 {
        fill: #407f00;
      }
    </style>
  </defs>
  <!-- Generator: Adobe Illustrator 28.7.7, SVG Export Plug-In . SVG Version: 1.2.0 Build 194)  -->
  <g>
    <g id="Layer_1">
      <g id="Layer_1-2" data-name="Layer_1">
        <rect class="cls-1" x="122.2" y="166.2" width="185.4" height="160.5"/>
        <path class="cls-10" d="M341.1,50.5h4l4.9,1,4.5,2.8,2.2,3,1.7,3.5,2.7,4,15,9.6-.7,12.6,1.9,7.1,4.7,5.7,6.2,3.2h6.1l5.2-5.3-.2-14.2,3.2-2.9,1.1-.7,7.6-2.9,1.9-.3.7-.7,3.9-13.1,6.7-8.7,10.2-6.9,12.4-2.9,12.9,3.5,6.8,7.7,19.5,43.3,8.8,11.7,1.6,2.8,1.8,5,1.3,2.1,2.6,1.8,5.8,2.5,1.1,2,2.5,3.1,5.6,3.5,5.6,2,2.5-1.4,1.8-4.8,1.6-.4.7,3.6.7,18.7-2.5,14.5-8.5,25.8h0l-8.8,23.2-1.6,12.6-1.4,5.9-3.3,5.6-2.9,2-6.6,2.8-2.7,1.8-2.4,3.2-3.7,10.1-4.4,5.9-8.2,11-1.5,6.6,1.6,5,2.1,2.8-2.5,2.2-12.8,15.3-2.6,2.3-1.6.7-2.4.8-9.4,1.4-1.8.5-1.8.9-2.5,2.1-1.1,1.3-.6,1-.4,1-.6.9-1.2.9-1.7.6-3.3.2-8.4-.6-1.4.2-2.1.8-2.6,1.3-8.7,6-.8.8-.7.9-1.6,2.8-2.8,7.3-.8,1.8-.5,2.2v1.3l.3,1.2.7,2.2v1.2c.1,0,0,1.1,0,1.1l-.4,1-.6.8-.7.7-1.6,1.3-.6.7-.4,1v1.2l.3,1.2.4,1.1v1.1c.1,0-.2,1-.2,1l-.5.8-2.6,3.2-2,2.2-.4.7v.4c-.1,0-.2.3-.2.3l.3,4.9v1.4l-.2,1.3-.3,1.1-.6.9-1.6,1-13.7,5.6-.9.5-.8.6-.6.7-.3.8.2,2.3v1.3l-.3,1.2-.4,1-.7.9-1.4.4h-1.9l-3.9-1.3-3.4-1.6-1.1-.3h-2.1l-2.8.4-5.3,1.2-2.6.9-1.7.9-11.8,11.4-3.5,2.7-2.2,1.1-2.5.8h-1.9l-2.4-.6-4.2-2-1.9-1.3-1.2-1.4-.6-2.7v-3.1l.4-2.9,3.7-13v-3c-.1,0-.5-1.3-.5-1.3l-.5-1.2-.6-1-.8-.9-2.1-1.3-55.7,9.7-2,.8-2.4,1.4-4.4,3.5-4.7,2.9-6.5.8-1.1-6.9-3.6-4.4-6.5-3-2.2-3.7-.8-2.6-.5-2.5-.8-2.7-2.1-1.6-1.6-.8h-1.6c0-.1-1.3,0-1.3,0l-1.2.5-1,.6-.8.7-1.2,1.3-5.1,7.6-2,2.4-.6,1.2-.3,1.4v1.3c.1,0,.4,1.3.4,1.3v2.7c-.1,0-.6,1.2-.6,1.2l-3.9,5.9-.5,1.3-.4,1.3-.7,5.9v1.5c-.1,0,.2,2.7.2,2.7l1,2.3,2,3.1.5,1.2.4,1.2.4,2.8.2,4.5-.6,5.8-.2,5-.5,2.6v3.6l.2,1.4v1.7l-.6,2.1-7,14.6-1.2,3.3-.4,2.4.2,3.1-.2,1.9-2,8.9-.2,5.9-1.5,6.1-.2,1.7.4,1.3.9.6,1.3.2h2.6l1,.6.6.9.4,1.8v2.2c.1,0-.2,3.7-.2,3.7l-.7,1.8-1.2,1.6-1.4,1.4-2.3,3.4-1.2,3.2-1.3,5.4-1.1,2.2-1,1.5-1.2.4-1.3.3h-4.6l-2.7.3-1.9.5-.8.3-2.1,1.3-1.1.9-15.6,18.6-1.8,1.5-.9.6-1.1.5-1.3.4-9.4,1.1-3.6-16-1.8-4.7-2.9-2.9-15.7-19.1-1.4-2.4-5.2-19.8-.4-2.9,3.5-15,.5-1.1.7-1,5-4.9.6-1.5.5-2.2.4-4.1v-2.3l-6.5-22.5-.3-3.1.4-1.2,2.3-3.6.8-2.2v-1.6l-2.3-10.1-4.3-10.5-.5-2.3v-2.2l1-5.1v-2l-.2-1.8-1-3.5-.5-1.4-.7-1.2-3.8-4.6-.6-1.5v-1.3l2.4-3,4.8-5.2.8-1.2.8-1.5.8-2.7v-1.7l-.5-1.3-1.7-1.7-.9-.7-.8-.9-1.1-1.6-.9-2.4-2-7.7-.8-1.9-.8-.9-1.1-.5h-2.8c0-.1-1.4-.4-1.4-.4l-1.4-1.5-1.5-2.7-2.4-6.1-.7-3.1-.3-2.4.3-1.4.3-1.3.5-1.2.6-1.1,1.4-1.9,3.5-3,7.4-4.3.9-.8.7-.9.6-1.1,1-2.2.6-1,.7-.9.8-.7,2.1-1.4,1.2-.5,1.3-.3h1.4l1.3.4h1.2l1.2-.8.8-2.2,1-1.2,2.3-3.9,2.6-13.1.6-2,.6-1.5,2.4-2.7.7-1.2.9-3.5.5-1.4.6-1,.8-.9.9-.8,1.1-.6,1.2-.4,4.3-.7,1.4-.5,1.2-.9.3-1.1-.3-1.6-.6-1.9-.6-3.5-.7-1.8-.9-1.3-3.1-1.7-1-.8-1.6-1.8-.7-1.8-1.5-7.6v-2.5l.5-1.7,1.6-2,.6-1,.8-.8,1-.6,1.1-.5,1.3-1.9,1.4-2.9,2.5-10.8.8-2.3.8-.7,3.2-1.8,2.5-2.3,1-.7,1.2-.5,1.2-.4h1.4c0-.1,1.3,0,1.3,0l5.1,1.7,2.8.2,6.4-1.3h.7l.9.4,1.8,1.3,1.1.6,3.7,1.3,1,.7.7.9,1,2.2.5,2.7v1.4l.3,1.4.4,1.2,1.3,2.1.7.9,3.5,3.3,1,.6,1.4-.7,1.4-1.8,2.9-7.7.9-1.8,2.6-2.8,2.5-6.7,1-11.9-.4-2.4-.8-.9-1.1-.6-1.1-.5-8.5-1.2-1.2-.4-1.9-1.3-1.7-1.6-2.2-2.8-.8-.8-5.4-2.8-2.1-1.4-1.1-1.2-.8-1.7-.8-3.4v-1.9c.1,0,.7-1.4.7-1.4l.8-.8,1.1-.6,7.6-2.4,1.1-.5,7-5,1.3-1.3,1.5-2.3.4-1.7-.3-1.3-1-.6-2.4-1-5.3-1.4-2.4-1-2.1-1.1-3.5-2.6-2.5-2.6.5-.4,3.5-6.2,1.8-9.2-2.4-5.8-11.2-12.1-3.8-21.2-2.9-6.7-12.6-13.3-3.1-6.1,6.6-2.4,4.8,1.8,16.7,11.6,26.2,8.7,3.3.2,6.2-.9,3.6.3,3.1,1.3,5.2,3.6,3.3.7,6.6-1.2,12.7-5.4,7.1-1.3h13.8l6-2,5.8-5.4,3.1-5.9,4.6-13.2,3.9-5.6,6.1-4.1,7.6-2.6,18.6-2.8,1.6-.8,1.7.4,3.5,2.8,2.2,3.2.8,3.5,1.2,3.4,3.3,2.8,4,5,3.7,1.3"/>
        <rect class="cls-1" x="122.2" y="166.2" width="185.4" height="160.5"/>
        <g>
          <path id="md912113257" class="cls-9" d="M285.3,230.2c1.2,0,2.5-.4,3.3-1.5s1.5-2.1,1.5-3.3-.4-2.5-1.5-3.3-2.1-1.5-3.3-1.5-2.5.4-3.3,1.5-1.5,2.1-1.5,3.3.4,2.5,1.5,3.3,2.1,1.5,3.3,1.5Z"/>
          <path id="md912113257-2" class="cls-9" d="M285.3,230.2c1.2,0,2.5-.4,3.3-1.5s1.5-2.1,1.5-3.3-.4-2.5-1.5-3.3-2.1-1.5-3.3-1.5-2.5.4-3.3,1.5-1.5,2.1-1.5,3.3.4,2.5,1.5,3.3,2.1,1.5,3.3,1.5Z"/>
        </g>
        <rect class="cls-1" x="122.2" y="166.2" width="185.4" height="160.5"/>
        <path id="m173503fbaf" class="cls-8" d="M283.6,229.3c1.2,0,2.5-.4,3.3-1.5s1.5-2.1,1.5-3.3-.4-2.5-1.5-3.3-2.1-1.5-3.3-1.5-2.5.4-3.3,1.5-1.5,2.1-1.5,3.3.4,2.5,1.5,3.3,2.1,1.5,3.3,1.5Z"/>
        <rect class="cls-1" x="122.2" y="166.2" width="185.4" height="160.5"/>
        <path id="mfd0062cd41" class="cls-4" d="M284.8,217.4c1.9,0,3.7-.8,5-2.1s2.1-3.1,2.1-5-.8-3.7-2.1-5-3.1-2.1-5-2.1-3.7.8-5,2.1-2.1,3.1-2.1,5,.8,3.7,2.1,5,3.1,2.1,5,2.1Z"/>
        <rect class="cls-1" x="122.2" y="166.2" width="185.4" height="160.5"/>
        <path id="ma60fb8a359" class="cls-5" d="M132.4,328.7c1.9,0,3.8-.6,5-2.2s2.2-3.1,2.2-5-.6-3.8-2.2-5c-1.6-1.3-3.1-2.2-5-2.2s-3.8.6-5,2.2-2.2,3.1-2.2,5,.6,3.8,2.2,5c1.6,1.3,3.1,2.2,5,2.2Z"/>
        <path id="m908a85ad96" class="cls-6" d="M284.5,231.3c1.9,0,3.7-.8,5-2.1s2.1-3.1,2.1-5-.8-3.7-2.1-5-3.1-2.1-5-2.1-3.7.8-5,2.1-2.1,3.1-2.1,5,.8,3.7,2.1,5,3.1,2.1,5,2.1Z"/>
        <path id="m908a85ad96-2" class="cls-6" d="M282.5,230.6c1.9,0,3.7-.8,5-2.1s2.1-3.1,2.1-5-.8-3.7-2.1-5-3.1-2.1-5-2.1-3.7.8-5,2.1-2.1,3.1-2.1,5,.8,3.7,2.1,5,3.1,2.1,5,2.1Z"/>
        <path id="m908a85ad96-3" class="cls-6" d="M284.4,236.3c1.9,0,3.7-.8,5-2.1s2.1-3.1,2.1-5-.8-3.7-2.1-5-3.1-2.1-5-2.1-3.7.8-5,2.1-2.1,3.1-2.1,5,.8,3.7,2.1,5,3.1,2.1,5,2.1Z"/>
        <path id="m908a85ad96-4" class="cls-6" d="M285.2,231.9c1.9,0,3.7-.8,5-2.1s2.1-3.1,2.1-5-.8-3.7-2.1-5-3.1-2.1-5-2.1-3.7.8-5,2.1-2.1,3.1-2.1,5,.8,3.7,2.1,5,3.1,2.1,5,2.1Z"/>
        <path id="m908a85ad96-5" class="cls-6" d="M275.2,231c1.9,0,3.7-.8,5-2.1s2.1-3.1,2.1-5-.8-3.7-2.1-5-3.1-2.1-5-2.1-3.7.8-5,2.1-2.1,3.1-2.1,5,.8,3.7,2.1,5,3.1,2.1,5,2.1Z"/>
        <path id="m908a85ad96-6" class="cls-6" d="M274.4,218.5c1.9,0,3.7-.8,5-2.1s2.1-3.1,2.1-5-.8-3.7-2.1-5-3.1-2.1-5-2.1-3.7.8-5,2.1-2.1,3.1-2.1,5,.8,3.7,2.1,5,3.1,2.1,5,2.1Z"/>
        <path id="m908a85ad96-7" class="cls-6" d="M190.6,266.2c1.9,0,3.7-.8,5-2.1s2.1-3.1,2.1-5-.8-3.7-2.1-5-3.1-2.1-5-2.1-3.7.8-5,2.1-2.1,3.1-2.1,5,.8,3.7,2.1,5,3.1,2.1,5,2.1Z"/>
        <path id="m908a85ad96-8" class="cls-6" d="M267.6,243.8c1.9,0,3.7-.8,5-2.1s2.1-3.1,2.1-5-.8-3.7-2.1-5-3.1-2.1-5-2.1-3.7.8-5,2.1-2.1,3.1-2.1,5,.8,3.7,2.1,5,3.1,2.1,5,2.1Z"/>
        <path id="m908a85ad96-9" class="cls-6" d="M189.6,266.6c1.9,0,3.7-.8,5-2.1s2.1-3.1,2.1-5-.8-3.7-2.1-5-3.1-2.1-5-2.1-3.7.8-5,2.1-2.1,3.1-2.1,5,.8,3.7,2.1,5,3.1,2.1,5,2.1Z"/>
        <path id="m908a85ad96-10" class="cls-6" d="M230.3,255.5c1.9,0,3.7-.8,5-2.1s2.1-3.1,2.1-5-.8-3.7-2.1-5-3.1-2.1-5-2.1-3.7.8-5,2.1-2.1,3.1-2.1,5,.8,3.7,2.1,5,3.1,2.1,5,2.1Z"/>
        <path id="m908a85ad96-11" class="cls-6" d="M287.4,234.6c1.9,0,3.7-.8,5-2.1s2.1-3.1,2.1-5-.8-3.7-2.1-5-3.1-2.1-5-2.1-3.7.8-5,2.1-2.1,3.1-2.1,5,.8,3.7,2.1,5,3.1,2.1,5,2.1Z"/>
        <path id="m908a85ad96-12" class="cls-6" d="M283.6,231.8c1.9,0,3.7-.8,5-2.1s2.1-3.1,2.1-5-.8-3.7-2.1-5-3.1-2.1-5-2.1-3.7.8-5,2.1-2.1,3.1-2.1,5,.8,3.7,2.1,5,3.1,2.1,5,2.1Z"/>
        <path id="m908a85ad96-13" class="cls-6" d="M287.5,247.1c1.9,0,3.7-.8,5-2.1s2.1-3.1,2.1-5-.8-3.7-2.1-5-3.1-2.1-5-2.1-3.7.8-5,2.1-2.1,3.1-2.1,5,.8,3.7,2.1,5,3.1,2.1,5,2.1Z"/>
        <path id="m908a85ad96-14" class="cls-6" d="M282.3,234.1c1.9,0,3.7-.8,5-2.1s2.1-3.1,2.1-5-.8-3.7-2.1-5-3.1-2.1-5-2.1-3.7.8-5,2.1-2.1,3.1-2.1,5,.8,3.7,2.1,5,3.1,2.1,5,2.1Z"/>
        <path id="m908a85ad96-15" class="cls-6" d="M299.9,180.9c1.9,0,3.7-.8,5-2.1s2.1-3.1,2.1-5-.8-3.7-2.1-5-3.1-2.1-5-2.1-3.7.8-5,2.1-2.1,3.1-2.1,5,.8,3.7,2.1,5,3.1,2.1,5,2.1Z"/>
        <path id="m908a85ad96-16" class="cls-6" d="M283.2,233.6c1.9,0,3.7-.8,5-2.1s2.1-3.1,2.1-5-.8-3.7-2.1-5-3.1-2.1-5-2.1-3.7.8-5,2.1-2.1,3.1-2.1,5,.8,3.7,2.1,5,3.1,2.1,5,2.1Z"/>
        <path id="m908a85ad96-17" class="cls-6" d="M287.2,229.6c1.9,0,3.7-.8,5-2.1s2.1-3.1,2.1-5-.8-3.7-2.1-5-3.1-2.1-5-2.1-3.7.8-5,2.1-2.1,3.1-2.1,5,.8,3.7,2.1,5,3.1,2.1,5,2.1Z"/>
        <path id="m908a85ad96-18" class="cls-6" d="M286.3,232.2c1.9,0,3.7-.8,5-2.1s2.1-3.1,2.1-5-.8-3.7-2.1-5-3.1-2.1-5-2.1-3.7.8-5,2.1-2.1,3.1-2.1,5,.8,3.7,2.1,5,3.1,2.1,5,2.1Z"/>
        <path id="m908a85ad96-19" class="cls-6" d="M212.3,233.3c1.9,0,3.7-.8,5-2.1s2.1-3.1,2.1-5-.8-3.7-2.1-5-3.1-2.1-5-2.1-3.7.8-5,2.1-2.1,3.1-2.1,5,.8,3.7,2.1,5,3.1,2.1,5,2.1Z"/>
        <path id="m908a85ad96-20" class="cls-6" d="M282,230.8c1.9,0,3.7-.8,5-2.1s2.1-3.1,2.1-5-.8-3.7-2.1-5-3.1-2.1-5-2.1-3.7.8-5,2.1-2.1,3.1-2.1,5,.8,3.7,2.1,5,3.1,2.1,5,2.1Z"/>
        <path id="m908a85ad96-21" class="cls-6" d="M289.1,228.3c1.9,0,3.7-.8,5-2.1s2.1-3.1,2.1-5-.8-3.7-2.1-5-3.1-2.1-5-2.1-3.7.8-5,2.1-2.1,3.1-2.1,5,.8,3.7,2.1,5,3.1,2.1,5,2.1Z"/>
        <path id="m908a85ad96-22" class="cls-6" d="M283.7,231.7c1.9,0,3.7-.8,5-2.1s2.1-3.1,2.1-5-.8-3.7-2.1-5-3.1-2.1-5-2.1-3.7.8-5,2.1-2.1,3.1-2.1,5,.8,3.7,2.1,5,3.1,2.1,5,2.1Z"/>
        <path id="m908a85ad96-23" class="cls-6" d="M283.3,234.7c1.9,0,3.7-.8,5-2.1s2.1-3.1,2.1-5-.8-3.7-2.1-5-3.1-2.1-5-2.1-3.7.8-5,2.1-2.1,3.1-2.1,5,.8,3.7,2.1,5,3.1,2.1,5,2.1Z"/>
        <path id="m908a85ad96-24" class="cls-6" d="M286.4,232.2c1.9,0,3.7-.8,5-2.1s2.1-3.1,2.1-5-.8-3.7-2.1-5-3.1-2.1-5-2.1-3.7.8-5,2.1-2.1,3.1-2.1,5,.8,3.7,2.1,5,3.1,2.1,5,2.1Z"/>
        <rect class="cls-1" x="122.2" y="166.2" width="185.4" height="160.5"/>
        <path id="m07180bf7b2" class="cls-11" d="M267.5,243.4c1.9,0,3.7-.8,5-2.1s2.1-3.1,2.1-5-.8-3.7-2.1-5-3.1-2.1-5-2.1-3.7.8-5,2.1-2.1,3.1-2.1,5,.8,3.7,2.1,5,3.1,2.1,5,2.1Z"/>
        <path id="DejaVuSans-20" d="M275.1,255.5"/>
        <path id="DejaVuSans-20-2" d="M289.6,255.5"/>
        <path id="DejaVuSans-20-3" d="M304.2,255.5"/>
        <path id="DejaVuSans-20-4" d="M322.6,255.5"/>
        <path id="DejaVuSans-20-5" d="M303.6,224.4"/>
        <path id="DejaVuSans-20-6" d="M316.7,224.4"/>
        <path id="DejaVuSans-20-7" d="M272.1,264.2"/>
        <path id="DejaVuSans-20-8" d="M285.7,264.2"/>
        <path id="DejaVuSans-43" class="cls-14" d="M106.1-128.3v1.5c-.5-.4-1-.8-1.5-1s-1.1-.3-1.7-.3c-1.2,0-2.1.4-2.7,1.1s-.9,1.7-.9,3.1.3,2.4.9,3.1,1.5,1.1,2.7,1.1,1.2,0,1.7-.3,1-.5,1.5-1v1.4c-.5.3-1,.6-1.5.7-.5.2-1.1.2-1.7.2-1.5,0-2.8-.5-3.7-1.4-.9-.9-1.3-2.2-1.3-3.9s.4-2.9,1.3-3.9c.9-.9,2.1-1.4,3.7-1.4s1.2,0,1.7.2,1,.4,1.5.7h0Z"/>
        <path id="DejaVuSans-68-4" class="cls-14" d="M114.6-123.5v4.6h-1.3v-4.6c0-.7,0-1.3-.4-1.6-.3-.4-.7-.5-1.3-.5s-1.2.2-1.6.6-.6,1-.6,1.8v4.3h-1.3v-10.6h1.3v4.2c.3-.5.7-.8,1.1-1s.9-.3,1.4-.3c.9,0,1.5.3,2,.8s.7,1.3.7,2.4h0Z"/>
        <path id="DejaVuSans-69-2" class="cls-14" d="M117.1-126.6h1.3v7.7h-1.3v-7.7ZM117.1-129.6h1.3v1.6h-1.3v-1.6Z"/>
        <path id="DejaVuSans-61-8" class="cls-14" d="M124.5-122.8c-1,0-1.7,0-2.1.3s-.6.6-.6,1.2,0,.8.4,1.1c.3.3.7.4,1.2.4s1.3-.2,1.7-.7.6-1.2.6-2v-.3h-1.3.1ZM127-123.3v4.4h-1.3v-1.2c-.3.5-.6.8-1.1,1-.4.2-1,.3-1.6.3s-1.4-.2-1.9-.7c-.5-.4-.7-1-.7-1.8s.3-1.5.9-1.9,1.4-.7,2.6-.7h1.8c0-.7-.2-1.2-.6-1.5s-.9-.5-1.6-.5-.9,0-1.3.2c-.4,0-.8.3-1.2.5v-1.2c.5-.2.9-.3,1.3-.4h1.3c1.1,0,1.9.3,2.5.9.5.6.8,1.4.8,2.6h0Z"/>
        <path id="DejaVuSans-6e-4" class="cls-14" d="M135.9-123.5v4.6h-1.3v-4.6c0-.7-.1-1.3-.4-1.6-.3-.4-.7-.5-1.3-.5s-1.2.2-1.6.6c-.4.4-.6,1-.6,1.8v4.3h-1.3v-7.7h1.3v1.2c.3-.5.7-.8,1.1-1,.4-.2.9-.3,1.4-.3.9,0,1.5.3,2,.8s.7,1.3.7,2.4h0Z"/>
        <path id="DejaVuSans-67-2" class="cls-14" d="M143.5-122.8c0-.9-.2-1.6-.6-2.1-.4-.5-.9-.8-1.6-.8s-1.2.3-1.6.8c-.4.5-.6,1.2-.6,2.1s.2,1.6.6,2.1c.4.5.9.8,1.6.8s1.2-.3,1.6-.8c.4-.5.6-1.2.6-2.1ZM144.7-119.9c0,1.3-.3,2.3-.9,2.9-.6.6-1.5,1-2.7,1h-1.3c-.4,0-.8-.2-1.1-.3v-1.2c.4.2.7.3,1.1.4h1.1c.8,0,1.4-.2,1.9-.6.4-.4.6-1.1.6-2v-.6c-.3.5-.6.8-1,1s-.9.3-1.5.3c-.9,0-1.7-.4-2.3-1.1s-.9-1.7-.9-2.8.3-2.1.9-2.8c.6-.7,1.3-1.1,2.3-1.1s1.1,0,1.5.3.7.6,1,1v-1.2h1.3v6.7h0Z"/>
        <path id="DejaVuSans-20-9" class="cls-14" d="M146-118.9"/>
        <path id="DejaVuSans-52-2" class="cls-14" d="M156.7-123.7c.3,0,.6.3.9.6s.6.8.8,1.4l1.4,2.8h-1.5l-1.3-2.6c-.3-.7-.7-1.1-1-1.4s-.7-.3-1.3-.3h-1.5v4.3h-1.4v-10.2h3.1c1.2,0,2,.2,2.6.7s.9,1.2.9,2.2-.1,1.2-.4,1.6c-.3.4-.7.7-1.3.9ZM153.2-128v3.6h1.7c.7,0,1.2-.2,1.5-.5s.5-.8.5-1.4-.2-1-.5-1.3-.8-.5-1.5-.5h-1.7Z"/>
        <path id="DejaVuSans-61-9" class="cls-14" d="M164.7-122.8c-1,0-1.7,0-2.1.3s-.6.6-.6,1.2.1.8.4,1.1c.3.3.7.4,1.2.4s1.3-.2,1.7-.7.6-1.2.6-2v-.3h-1.3.1ZM167.2-123.3v4.4h-1.3v-1.2c-.3.5-.6.8-1.1,1-.4.2-1,.3-1.6.3s-1.4-.2-1.9-.7c-.5-.4-.7-1-.7-1.8s.3-1.5.9-1.9c.6-.4,1.4-.7,2.6-.7h1.8c0-.7-.2-1.2-.6-1.5s-.9-.5-1.6-.5-.9,0-1.3.2c-.4,0-.8.3-1.2.5v-1.2c.5-.2.9-.3,1.3-.4h1.3c1.1,0,1.9.3,2.5.9.5.6.8,1.4.8,2.6,0,0,.1,0,.1,0Z"/>
        <path id="DejaVuSans-69-3" class="cls-14" d="M169.8-126.6h1.3v7.7h-1.3v-7.7ZM169.8-129.6h1.3v1.6h-1.3v-1.6Z"/>
        <path id="DejaVuSans-20-10" class="cls-14" d="M172.3-118.9"/>
        <path id="DejaVuSans-2013" class="cls-14" d="M177.5-123.2h5.6v1h-5.6v-1Z"/>
        <path id="DejaVuSans-20-11" class="cls-14" d="M183.8-118.9"/>
        <path id="DejaVuSans-49" class="cls-14" d="M189.6-129.1h1.4v10.2h-1.4v-10.2Z"/>
        <path id="DejaVuSans-6e-5" class="cls-14" d="M200-123.5v4.6h-1.3v-4.6c0-.7-.1-1.3-.4-1.6-.3-.4-.7-.5-1.3-.5s-1.2.2-1.6.6c-.4.4-.6,1-.6,1.8v4.3h-1.3v-7.7h1.3v1.2c.3-.5.7-.8,1.1-1,.4-.2.9-.3,1.4-.3.9,0,1.5.3,2,.8s.7,1.3.7,2.4h0Z"/>
        <path id="DejaVuSans-73-2" class="cls-14" d="M207.4-126.3v1.2c-.4-.2-.7-.3-1.1-.4h-1.2c-.6,0-1.1,0-1.4.3-.3.2-.5.5-.5.9s.1.5.3.7.7.3,1.3.5h.4c.9.3,1.5.6,1.9.9s.6.8.6,1.5-.3,1.3-.8,1.7c-.6.4-1.3.6-2.3.6h-1.3c-.4,0-.9-.2-1.4-.4v-1.3c.5.2.9.4,1.4.5s.9.2,1.3.2,1,0,1.4-.3c.3-.2.5-.5.5-.9s-.1-.6-.3-.8c-.2-.2-.7-.4-1.5-.5h-.4c-.8-.3-1.3-.5-1.7-.9-.3-.3-.5-.8-.5-1.4s.3-1.3.8-1.7c.5-.4,1.2-.6,2.2-.6h1.3c.4,0,.8.2,1.1.3h-.1Z"/>
        <path id="DejaVuSans-74-4" class="cls-14" d="M211.1-128.7v2.2h2.6v1h-2.6v4.2c0,.6,0,1,.3,1.2s.5.3,1,.3h1.3v1.1h-1.3c-1,0-1.6-.2-2-.5-.4-.4-.6-1-.6-2v-4.2h-.9v-1h.9v-2.2h1.3Z"/>
        <path id="DejaVuSans-61-10" class="cls-14" d="M218.8-122.8c-1,0-1.7,0-2.1.3s-.6.6-.6,1.2.1.8.4,1.1c.3.3.7.4,1.2.4s1.3-.2,1.7-.7.6-1.2.6-2v-.3h-1.3.1ZM221.3-123.3v4.4h-1.3v-1.2c-.3.5-.6.8-1.1,1-.4.2-1,.3-1.6.3s-1.4-.2-1.9-.7c-.5-.4-.7-1-.7-1.8s.3-1.5.9-1.9c.6-.4,1.4-.7,2.6-.7h1.8c0-.7-.2-1.2-.6-1.5s-.9-.5-1.6-.5-.9,0-1.3.2c-.4,0-.8.3-1.2.5v-1.2c.5-.2.9-.3,1.3-.4h1.3c1.1,0,1.9.3,2.5.9.5.6.8,1.4.8,2.6,0,0,.1,0,.1,0Z"/>
        <path id="DejaVuSans-67-3" class="cls-14" d="M228.9-122.8c0-.9-.2-1.6-.6-2.1-.4-.5-.9-.8-1.6-.8s-1.2.3-1.6.8c-.4.5-.6,1.2-.6,2.1s.2,1.6.6,2.1c.4.5.9.8,1.6.8s1.2-.3,1.6-.8c.4-.5.6-1.2.6-2.1ZM230.2-119.9c0,1.3-.3,2.3-.9,2.9-.6.6-1.5,1-2.7,1h-1.3c-.4,0-.8-.2-1.1-.3v-1.2c.4.2.7.3,1.1.4h1.1c.8,0,1.4-.2,1.9-.6.4-.4.6-1.1.6-2v-.6c-.3.5-.6.8-1,1s-.9.3-1.5.3c-.9,0-1.7-.4-2.3-1.1s-.9-1.7-.9-2.8.3-2.1.9-2.8c.6-.7,1.3-1.1,2.3-1.1s1.1,0,1.5.3.7.6,1,1v-1.2h1.3v6.7h0Z"/>
        <path id="DejaVuSans-72-2" class="cls-14" d="M237.2-125.4c-.1,0-.3,0-.5-.2h-.5c-.7,0-1.3.2-1.6.7s-.6,1.1-.6,2v4h-1.3v-7.7h1.3v1.2c.3-.5.6-.8,1-1s.9-.3,1.5-.3.2,0,.3,0h.3v1.3h.1Z"/>
        <path id="DejaVuSans-61-11" class="cls-14" d="M242-122.8c-1,0-1.7,0-2.1.3s-.6.6-.6,1.2.1.8.4,1.1c.3.3.7.4,1.2.4s1.3-.2,1.7-.7.6-1.2.6-2v-.3h-1.3.1ZM244.5-123.3v4.4h-1.3v-1.2c-.3.5-.6.8-1.1,1-.4.2-1,.3-1.6.3s-1.4-.2-1.9-.7c-.5-.4-.7-1-.7-1.8s.3-1.5.9-1.9c.6-.4,1.4-.7,2.6-.7h1.8c0-.7-.2-1.2-.6-1.5s-.9-.5-1.6-.5-.9,0-1.3.2c-.4,0-.8.3-1.2.5v-1.2c.5-.2.9-.3,1.3-.4h1.3c1.1,0,1.9.3,2.5.9.5.6.8,1.4.8,2.6,0,0,.1,0,.1,0Z"/>
        <path id="DejaVuSans-6d-4" class="cls-14" d="M253.1-125.1c.3-.6.7-1,1.1-1.3s1-.4,1.5-.4,1.4.3,1.8.8c.4.6.6,1.4.6,2.4v4.6h-1.3v-4.6c0-.7-.1-1.3-.4-1.6-.3-.4-.7-.5-1.2-.5s-1.2.2-1.5.6c-.4.4-.6,1-.6,1.8v4.3h-1.3v-4.6c0-.7-.1-1.3-.4-1.6s-.7-.5-1.2-.5-1.2.2-1.5.7c-.4.4-.6,1-.6,1.8v4.3h-1.3v-7.7h1.3v1.2c.3-.5.6-.8,1-1s.9-.3,1.4-.3,1,0,1.4.4.7.7.9,1.2c0,0,.3,0,.3,0Z"/>
        <path id="DejaVuSans-20-12" class="cls-14" d="M259.5-118.9"/>
        <path id="DejaVuSans-43-2" class="cls-14" d="M272.9-128.3v1.5c-.5-.4-1-.8-1.5-1s-1.1-.3-1.7-.3c-1.2,0-2.1.4-2.7,1.1s-.9,1.7-.9,3.1.3,2.4.9,3.1,1.5,1.1,2.7,1.1,1.2,0,1.7-.3,1-.5,1.5-1v1.4c-.5.3-1,.6-1.5.7-.5.2-1.1.2-1.7.2-1.5,0-2.8-.5-3.7-1.4-.9-.9-1.3-2.2-1.3-3.9s.4-2.9,1.3-3.9c.9-.9,2.1-1.4,3.7-1.4s1.2,0,1.7.2,1,.4,1.5.7h0Z"/>
        <path id="DejaVuSans-61-12" class="cls-14" d="M278.5-122.8c-1,0-1.7,0-2.1.3s-.6.6-.6,1.2.1.8.4,1.1c.3.3.7.4,1.2.4s1.3-.2,1.7-.7.6-1.2.6-2v-.3h-1.3,0ZM281-123.3v4.4h-1.3v-1.2c-.3.5-.6.8-1.1,1-.4.2-1,.3-1.6.3s-1.4-.2-1.9-.7c-.5-.4-.7-1-.7-1.8s.3-1.5.9-1.9,1.4-.7,2.6-.7h1.8c0-.7-.2-1.2-.6-1.5s-.9-.5-1.6-.5-.9,0-1.3.2c-.4,0-.8.3-1.2.5v-1.2c.5-.2.9-.3,1.3-.4h1.3c1.1,0,1.9.3,2.5.9.5.6.8,1.4.8,2.6h.1Z"/>
        <path id="DejaVuSans-66" class="cls-14" d="M287.5-129.6v1h-1.2c-.5,0-.8,0-.9.3-.2.2-.3.5-.3,1v.7h2.1v1h-2.1v6.7h-1.3v-6.7h-1.2v-1h1.2v-.5c0-.9.2-1.5.6-1.9s1-.6,1.9-.6h1.2,0Z"/>
        <path id="DejaVuSans-e9" class="cls-14" d="M295.1-123.1v.6h-5.8c0,.9.3,1.5.8,2s1.1.7,2,.7,1,0,1.4-.2.9-.3,1.4-.5v1.2c-.5.2-.9.3-1.4.4s-1,.2-1.4.2c-1.2,0-2.2-.4-2.9-1.1-.7-.7-1.1-1.7-1.1-2.9s.3-2.2,1-3c.7-.7,1.6-1.1,2.7-1.1s1.8.3,2.4,1,.9,1.6.9,2.7ZM293.8-123.4c0-.7-.2-1.2-.6-1.6s-.9-.6-1.5-.6-1.3.2-1.7.6-.7,1-.7,1.7h4.5ZM292.6-130.1h1.4l-2.2,2.6h-1l1.9-2.6h0Z"/>
        <path id="DejaVuSans-73-3" class="cls-14" d="M302-126.3v1.2c-.4-.2-.7-.3-1.1-.4h-1.2c-.6,0-1.1,0-1.4.3-.3.2-.5.5-.5.9s.1.5.3.7.7.3,1.3.5h.4c.9.3,1.5.6,1.9.9s.6.8.6,1.5-.3,1.3-.8,1.7c-.6.4-1.3.6-2.3.6h-1.3c-.4,0-.9-.2-1.4-.4v-1.3c.5.2.9.4,1.4.5s.9.2,1.3.2,1,0,1.4-.3c.3-.2.5-.5.5-.9s-.1-.6-.3-.8c-.2-.2-.7-.4-1.5-.5h-.4c-.8-.3-1.3-.5-1.7-.9-.3-.3-.5-.8-.5-1.4s.3-1.3.8-1.7c.5-.4,1.2-.6,2.2-.6h1.3c.4,0,.8.2,1.1.3h0Z"/>
        <path id="DejaVuSans-20-13" class="cls-14" d="M303.1-118.9"/>
        <path id="DejaVuSans-62" class="cls-14" d="M314.4-122.7c0-.9-.2-1.7-.6-2.2s-.9-.8-1.6-.8-1.2.3-1.6.8-.6,1.3-.6,2.2.2,1.7.6,2.2.9.8,1.6.8,1.2-.3,1.6-.8.6-1.3.6-2.2ZM310.1-125.4c.3-.5.6-.8,1-1s.9-.3,1.4-.3c.9,0,1.7.4,2.3,1.1.6.7.9,1.7.9,2.9s-.3,2.2-.9,2.9c-.6.7-1.3,1.1-2.3,1.1s-1,0-1.4-.3c-.4-.2-.7-.6-1-1v1.1h-1.3v-10.6h1.3v4.1h0Z"/>
        <path id="DejaVuSans-79" class="cls-14" d="M320.9-118.2c-.4.9-.7,1.5-1,1.8s-.8.4-1.4.4h-1v-1.1h.7c.3,0,.6,0,.8-.2.2-.2.4-.6.6-1.2l.2-.6-3.1-7.5h1.3l2.4,6,2.4-6h1.3l-3.4,8.4h.2Z"/>
        <path id="DejaVuSans-20-14" class="cls-14" d="M324.7-118.9"/>
        <path id="DejaVuSans-54-2" class="cls-14" d="M329.1-129.1h8.6v1.2h-3.6v9h-1.4v-9h-3.6v-1.2Z"/>
        <path id="DejaVuSans-68-5" class="cls-14" d="M345.4-123.5v4.6h-1.3v-4.6c0-.7-.1-1.3-.4-1.6-.3-.4-.7-.5-1.3-.5s-1.2.2-1.6.6-.6,1-.6,1.8v4.3h-1.3v-10.6h1.3v4.2c.3-.5.7-.8,1.1-1s.9-.3,1.4-.3c.9,0,1.5.3,2,.8s.7,1.3.7,2.4h0Z"/>
        <path id="DejaVuSans-65-6" class="cls-14" d="M354.5-123.1v.6h-5.8c0,.9.3,1.5.8,2s1.1.7,2,.7,1,0,1.4-.2.9-.3,1.4-.5v1.2c-.5.2-.9.3-1.4.4s-1,.2-1.4.2c-1.2,0-2.2-.4-2.9-1.1-.7-.7-1.1-1.7-1.1-2.9s.3-2.2,1-3c.7-.7,1.6-1.1,2.7-1.1s1.8.3,2.4,1,.9,1.6.9,2.7ZM353.2-123.4c0-.7-.2-1.2-.6-1.6s-.9-.6-1.5-.6-1.3.2-1.7.6-.7,1-.7,1.7h4.5Z"/>
        <path id="DejaVuSans-6d-5" class="cls-14" d="M362.5-125.1c.3-.6.7-1,1.1-1.3s1-.4,1.5-.4,1.4.3,1.8.8c.4.6.6,1.4.6,2.4v4.6h-1.3v-4.6c0-.7-.1-1.3-.4-1.6-.3-.4-.7-.5-1.2-.5s-1.2.2-1.5.6c-.4.4-.6,1-.6,1.8v4.3h-1.3v-4.6c0-.7-.1-1.3-.4-1.6s-.7-.5-1.2-.5-1.2.2-1.5.7c-.4.4-.6,1-.6,1.8v4.3h-1.3v-7.7h1.3v1.2c.3-.5.6-.8,1-1s.9-.3,1.4-.3,1,0,1.4.4.7.7.9,1.2h.3Z"/>
        <path id="DejaVuSans-65-7" class="cls-14" d="M376.7-123.1v.6h-5.8c0,.9.3,1.5.8,2s1.1.7,2,.7,1,0,1.4-.2.9-.3,1.4-.5v1.2c-.5.2-.9.3-1.4.4s-1,.2-1.4.2c-1.2,0-2.2-.4-2.9-1.1-.7-.7-1.1-1.7-1.1-2.9s.3-2.2,1-3c.7-.7,1.6-1.1,2.7-1.1s1.8.3,2.4,1,.9,1.6.9,2.7ZM375.5-123.4c0-.7-.2-1.2-.6-1.6s-.9-.6-1.5-.6-1.3.2-1.7.6-.7,1-.7,1.7h4.5Z"/>
        <rect class="cls-1" x="122.2" y="166.2" width="185.4" height="160.5"/>
        <path id="m4fe7a62304" class="cls-7" d="M261.4,260.3c1.8,0,3.3-.6,4.5-1.8,1.2-1.2,1.8-2.7,1.8-4.5s-.6-3.3-1.8-4.5-2.7-1.8-4.5-1.8-3.3.6-4.5,1.8c-1.2,1.2-1.8,2.7-1.8,4.5s.6,3.3,1.8,4.5c1.2,1.2,2.7,1.8,4.5,1.8Z"/>
        <path id="m4fe7a62304-2" class="cls-7" d="M284.9,229.2c1.8,0,3.3-.6,4.5-1.8s1.8-2.7,1.8-4.5-.6-3.3-1.8-4.5-2.7-1.8-4.5-1.8-3.3.6-4.5,1.8-1.8,2.7-1.8,4.5.6,3.3,1.8,4.5,2.7,1.8,4.5,1.8Z"/>
        <g>
          <path id="DejaVuSans-50-2" class="cls-14" d="M644.9,205.9v3.3h1.5c.6,0,1-.1,1.3-.4.3-.3.5-.7.5-1.2s-.2-.9-.5-1.2-.7-.4-1.3-.4h-1.5ZM643.7,204.9h2.7c1,0,1.7.2,2.2.7.5.4.8,1.1.8,1.9s-.3,1.5-.8,2c-.5.4-1.2.7-2.2.7h-1.5v3.5h-1.2v-8.7h0Z"/>
          <path id="DejaVuSans-72-3" class="cls-14" d="M654.5,208.1s-.3-.1-.4-.2h-.5c-.6,0-1.1.2-1.4.6s-.5,1-.5,1.7v3.5h-1.1v-6.6h1.1v1c.2-.4.5-.7.9-.9s.8-.3,1.3-.3.2,0,.2,0h.3v1.1h.1Z"/>
          <path id="DejaVuSans-69-4" class="cls-14" d="M655.7,207.1h1.1v6.6h-1.1v-6.6ZM655.7,204.6h1.1v1.4h-1.1v-1.4Z"/>
          <path id="DejaVuSans-6d-6" class="cls-14" d="M664.1,208.4c.3-.5.6-.8,1-1.1s.8-.3,1.3-.3,1.2.2,1.6.7c.4.5.6,1.2.6,2v4h-1.1v-3.9c0-.6,0-1.1-.3-1.4-.2-.3-.6-.5-1-.5s-1,.2-1.3.6c-.3.4-.5.9-.5,1.5v3.7h-1.1v-3.9c0-.6,0-1.1-.3-1.4s-.6-.5-1-.5-1,.2-1.3.6c-.3.4-.5.9-.5,1.5v3.7h-1.1v-6.6h1.1v1c.2-.4.5-.7.9-.9s.8-.3,1.2-.3.9.1,1.2.4c.3.2.6.6.7,1.1h-.1Z"/>
          <path id="DejaVuSans-61-13" class="cls-14" d="M673.7,210.4c-.9,0-1.5,0-1.8.3s-.5.5-.5,1,0,.7.4.9c.3.2.6.3,1,.3s1.1-.2,1.4-.6.5-1,.5-1.7v-.2h-1.1,0ZM675.8,209.9v3.7h-1.1v-1c-.2.4-.6.7-.9.9-.4.2-.8.3-1.3.3s-1.2-.2-1.6-.6c-.4-.4-.6-.9-.6-1.5s.2-1.3.7-1.7,1.2-.6,2.2-.6h1.5c0-.6-.2-1-.5-1.3s-.8-.4-1.4-.4-.7,0-1.1.1c-.4,0-.7.2-1,.4v-1c.4-.2.8-.3,1.1-.3s.7-.1,1.1-.1c1,0,1.7.2,2.1.7.5.5.7,1.2.7,2.2v.2h0Z"/>
          <path id="DejaVuSans-72-4" class="cls-14" d="M681.8,208.1s-.3-.1-.4-.2h-.5c-.6,0-1.1.2-1.4.6s-.5,1-.5,1.7v3.5h-1.1v-6.6h1.1v1c.2-.4.5-.7.9-.9s.8-.3,1.3-.3.2,0,.2,0h.3v1.1h.1Z"/>
          <path id="DejaVuSans-79-2" class="cls-14" d="M685.7,214.3c-.3.8-.6,1.3-.9,1.5-.3.2-.7.4-1.2.4h-.9v-.9h.6c.3,0,.5,0,.7-.2.2-.1.3-.5.5-1l.2-.5-2.7-6.5h1.1l2.1,5.1,2.1-5.1h1.1l-2.9,7.2h.2Z"/>
          <path id="DejaVuSans-20-15" class="cls-14" d="M688.9,213.7"/>
          <path id="DejaVuSans-54-3" class="cls-14" d="M692.7,204.9h7.4v1h-3.1v7.8h-1.2v-7.8h-3.1v-1h0Z"/>
          <path id="DejaVuSans-68-6" class="cls-14" d="M706.7,209.7v4h-1.1v-3.9c0-.6,0-1.1-.4-1.4-.2-.3-.6-.5-1.1-.5s-1,.2-1.4.6c-.3.4-.5.9-.5,1.5v3.7h-1.1v-9.1h1.1v3.6c.3-.4.6-.7.9-.9.3-.2.8-.3,1.2-.3.8,0,1.3.2,1.7.7s.6,1.2.6,2.1h0Z"/>
          <path id="DejaVuSans-65-8" class="cls-14" d="M714.4,210.1v.5h-5c0,.7.3,1.3.7,1.7s1,.6,1.7.6.8,0,1.2-.2.8-.3,1.2-.5v1c-.4.2-.8.3-1.2.4s-.8.1-1.2.1c-1,0-1.9-.3-2.5-.9-.6-.6-.9-1.4-.9-2.5s.3-1.9.9-2.6c.6-.6,1.4-.9,2.3-.9s1.6.3,2.1.9c.5.6.8,1.3.8,2.3h0ZM713.3,209.8c0-.6-.2-1.1-.5-1.4-.3-.4-.7-.5-1.3-.5s-1.1.2-1.4.5-.6.8-.6,1.4h3.8Z"/>
          <path id="DejaVuSans-6d-7" class="cls-14" d="M721.3,208.4c.3-.5.6-.8,1-1.1s.8-.3,1.3-.3,1.2.2,1.6.7c.4.5.6,1.2.6,2v4h-1.1v-3.9c0-.6,0-1.1-.3-1.4-.2-.3-.6-.5-1-.5s-1,.2-1.3.6c-.3.4-.5.9-.5,1.5v3.7h-1.1v-3.9c0-.6,0-1.1-.3-1.4s-.6-.5-1-.5-1,.2-1.3.6c-.3.4-.5.9-.5,1.5v3.7h-1.1v-6.6h1.1v1c.2-.4.5-.7.9-.9s.8-.3,1.2-.3.9.1,1.2.4c.3.2.6.6.7,1.1h-.1Z"/>
          <path id="DejaVuSans-65-9" class="cls-14" d="M733.5,210.1v.5h-5c0,.7.3,1.3.7,1.7s1,.6,1.7.6.8,0,1.2-.2.8-.3,1.2-.5v1c-.4.2-.8.3-1.2.4s-.8.1-1.2.1c-1,0-1.9-.3-2.5-.9-.6-.6-.9-1.4-.9-2.5s.3-1.9.9-2.6c.6-.6,1.4-.9,2.3-.9s1.6.3,2.1.9c.5.6.8,1.3.8,2.3h0ZM732.4,209.8c0-.6-.2-1.1-.5-1.4-.3-.4-.7-.5-1.3-.5s-1.1.2-1.4.5-.6.8-.6,1.4h3.8Z"/>
        </g>
        <path id="md912113257-3" class="cls-9" d="M631.7,234.5c1.9,0,3.7-.8,5.2-2.1s2.1-3.3,2.1-5.2-.8-3.7-2.1-5.2-3.3-2.1-5.2-2.1-3.7.8-5.2,2.1-2.1,3.3-2.1,5.2.8,3.7,2.1,5.2,3.3,2.1,5.2,2.1Z"/>
        <g>
          <path id="DejaVuSans-63" class="cls-14" d="M656.8,224.3v.9c-.3-.2-.6-.3-.8-.3s-.6-.1-.9-.1c-.6,0-1.1.2-1.5.6-.4.4-.5,1-.5,1.7s.2,1.3.5,1.7c.4.4.9.6,1.5.6s.6,0,.9-.1.6-.2.8-.3v.9c-.3.1-.6.2-.9.3h-.9c-.9,0-1.6-.3-2.2-.9-.5-.6-.8-1.3-.8-2.3s.3-1.8.8-2.3c.5-.6,1.3-.8,2.2-.8h.9c.3,0,.6.2.8.3h.1Z"/>
          <path id="DejaVuSans-6f-2" class="cls-14" d="M660.9,224.7c-.5,0-.9.2-1.3.6s-.5,1-.5,1.7.2,1.3.5,1.7.7.6,1.3.6.9-.2,1.3-.6c.3-.4.5-1,.5-1.7s-.2-1.3-.5-1.7-.7-.6-1.3-.6ZM660.9,223.9c.9,0,1.5.3,2,.8.5.6.7,1.3.7,2.3s-.2,1.8-.7,2.3c-.5.6-1.2.8-2,.8s-1.5-.3-2-.8c-.5-.6-.7-1.3-.7-2.3s.2-1.8.7-2.3c.5-.6,1.2-.8,2-.8Z"/>
          <path id="DejaVuSans-6d-8" class="cls-14" d="M670,225.2c.2-.4.5-.8.9-1s.7-.3,1.2-.3,1.1.2,1.5.7c.3.4.5,1.1.5,1.9v3.6h-1v-3.6c0-.6,0-1-.3-1.3s-.5-.4-.9-.4-.9.2-1.2.5-.4.8-.4,1.4v3.4h-1v-3.6c0-.6,0-1-.3-1.3s-.5-.4-.9-.4-.9.2-1.2.5-.4.8-.4,1.4v3.4h-1v-6h1v.9c.2-.4.5-.6.8-.8s.7-.3,1.1-.3.8.1,1.1.3.5.5.7,1h-.2,0Z"/>
          <path id="DejaVuSans-6d-9" class="cls-14" d="M680.7,225.2c.2-.4.5-.8.9-1s.7-.3,1.2-.3,1.1.2,1.5.7c.3.4.5,1.1.5,1.9v3.6h-1v-3.6c0-.6,0-1-.3-1.3s-.5-.4-.9-.4-.9.2-1.2.5-.4.8-.4,1.4v3.4h-1v-3.6c0-.6,0-1-.3-1.3s-.5-.4-.9-.4-.9.2-1.2.5-.4.8-.4,1.4v3.4h-1v-6h1v.9c.2-.4.5-.6.8-.8s.7-.3,1.1-.3.8.1,1.1.3.5.5.7,1h-.2,0Z"/>
          <path id="DejaVuSans-75-4" class="cls-14" d="M686.6,227.7v-3.6h1v3.6c0,.6,0,1,.3,1.3s.6.4,1,.4,1-.2,1.3-.5.5-.8.5-1.4v-3.4h1v6h-1v-.9c-.2.4-.5.6-.8.8s-.7.3-1.1.3c-.7,0-1.2-.2-1.6-.6-.4-.4-.5-1.1-.5-1.9h-.1ZM689.1,223.9h0Z"/>
          <path id="DejaVuSans-6e-6" class="cls-14" d="M698.7,226.4v3.6h-1v-3.6c0-.6,0-1-.3-1.3s-.6-.4-1-.4-1,.2-1.3.5-.5.8-.5,1.4v3.4h-1v-6h1v.9c.2-.4.5-.6.8-.8s.7-.3,1.1-.3c.7,0,1.2.2,1.6.6.4.4.5,1.1.5,1.9h.1Z"/>
          <path id="DejaVuSans-69-5" class="cls-14" d="M700.6,224h1v6h-1v-6ZM700.6,221.7h1v1.3h-1v-1.3Z"/>
          <path id="DejaVuSans-74-5" class="cls-14" d="M704.7,222.3v1.7h2v.8h-2v3.3c0,.5,0,.8.2.9s.4.2.8.2h1v.8h-1c-.8,0-1.3-.1-1.6-.4-.3-.3-.4-.8-.4-1.6v-3.3h-.7v-.8h.7v-1.7h1Z"/>
          <path id="DejaVuSans-79-3" class="cls-14" d="M710.5,230.6c-.3.7-.6,1.2-.8,1.4-.3.2-.6.3-1.1.3h-.8v-.8h.6c.3,0,.5,0,.6-.2.2-.1.3-.4.5-.9l.2-.5-2.4-5.9h1l1.9,4.7,1.9-4.7h1l-2.6,6.6h0Z"/>
          <path id="DejaVuSans-5f" class="cls-14" d="M719.1,231.9v.8h-5.7v-.8h5.7Z"/>
          <path id="DejaVuSans-65-10" class="cls-14" d="M725.2,226.8v.5h-4.5c0,.7.2,1.2.6,1.6.4.4.9.5,1.5.5s.7,0,1.1-.1.7-.2,1.1-.4v.9c-.4.2-.7.3-1.1.3s-.7.1-1.1.1c-1,0-1.7-.3-2.3-.8-.6-.6-.8-1.3-.8-2.3s.3-1.8.8-2.3c.5-.6,1.2-.9,2.2-.9s1.4.3,1.9.8.7,1.2.7,2.1h-.1ZM724.2,226.5c0-.5-.2-1-.5-1.3s-.7-.5-1.2-.5-1,.2-1.3.5-.5.8-.6,1.3h3.6Z"/>
          <path id="DejaVuSans-76" class="cls-14" d="M726.1,224h1l1.9,5,1.9-5h1l-2.3,6h-1.3l-2.3-6h0Z"/>
          <path id="DejaVuSans-65-11" class="cls-14" d="M738.4,226.8v.5h-4.5c0,.7.2,1.2.6,1.6.4.4.9.5,1.5.5s.7,0,1.1-.1.7-.2,1.1-.4v.9c-.4.2-.7.3-1.1.3s-.7.1-1.1.1c-1,0-1.7-.3-2.3-.8-.6-.6-.8-1.3-.8-2.3s.3-1.8.8-2.3c.5-.6,1.2-.9,2.2-.9s1.4.3,1.9.8.7,1.2.7,2.1h-.1ZM737.5,226.5c0-.5-.2-1-.5-1.3s-.7-.5-1.2-.5-1,.2-1.3.5-.5.8-.6,1.3h3.6Z"/>
          <path id="DejaVuSans-6e-7" class="cls-14" d="M745.1,226.4v3.6h-1v-3.6c0-.6,0-1-.3-1.3s-.6-.4-1-.4-1,.2-1.3.5-.5.8-.5,1.4v3.4h-1v-6h1v.9c.2-.4.5-.6.8-.8s.7-.3,1.1-.3c.7,0,1.2.2,1.6.6.4.4.5,1.1.5,1.9h.1Z"/>
          <path id="DejaVuSans-74-6" class="cls-14" d="M748,222.3v1.7h2v.8h-2v3.3c0,.5,0,.8.2.9s.4.2.8.2h1v.8h-1c-.8,0-1.3-.1-1.6-.4-.3-.3-.4-.8-.4-1.6v-3.3h-.7v-.8h.7v-1.7h1Z"/>
          <path id="DejaVuSans-73-4" class="cls-14" d="M755.2,224.2v.9c-.3-.1-.6-.3-.9-.3s-.6-.1-.9-.1c-.5,0-.9,0-1.1.2-.2.2-.4.4-.4.7s0,.4.3.5.5.3,1.1.4h.3c.7.2,1.2.4,1.5.7s.4.7.4,1.1-.2,1-.7,1.3c-.4.3-1.1.5-1.8.5h-1c-.3,0-.7-.2-1.1-.3v-1c.4.2.7.3,1.1.4.4,0,.7.1,1.1.1s.8,0,1.1-.2.4-.4.4-.7,0-.5-.3-.6c-.2-.1-.6-.3-1.2-.4h-.3c-.6-.2-1.1-.4-1.3-.7-.3-.3-.4-.6-.4-1.1s.2-1,.6-1.3c.4-.3,1-.5,1.7-.5h1c.3,0,.6.1.9.2v.2h0Z"/>
        </g>
        <path id="m173503fbaf-2" class="cls-8" d="M631.7,250.9c1.9,0,3.7-.8,5.2-2.1s2.1-3.3,2.1-5.2-.8-3.7-2.1-5.2-3.3-2.1-5.2-2.1-3.7.8-5.2,2.1-2.1,3.3-2.1,5.2.8,3.7,2.1,5.2,3.3,2.1,5.2,2.1Z"/>
        <g>
          <path id="DejaVuSans-64" class="cls-14" d="M656.4,241.4v-3.3h1v8.4h-1v-.9c-.2.4-.5.6-.8.8s-.7.3-1.1.3c-.7,0-1.3-.3-1.8-.9-.5-.6-.7-1.3-.7-2.3s.2-1.7.7-2.3,1-.9,1.8-.9.8,0,1.1.3c.3.2.6.4.8.8h0ZM653.1,243.5c0,.7,0,1.3.4,1.7.3.4.7.6,1.2.6s.9-.2,1.2-.6c.3-.4.5-1,.5-1.7s-.2-1.3-.5-1.7-.7-.6-1.2-.6-.9.2-1.2.6-.4,1-.4,1.7Z"/>
          <path id="DejaVuSans-65-12" class="cls-14" d="M664.6,243.2v.5h-4.5c0,.7.2,1.2.6,1.6.4.4.9.5,1.5.5s.7,0,1.1-.1.7-.2,1.1-.4v.9c-.4.2-.7.3-1.1.3s-.7.1-1.1.1c-1,0-1.7-.3-2.3-.8-.6-.6-.8-1.3-.8-2.3s.3-1.8.8-2.3c.5-.6,1.2-.9,2.2-.9s1.4.3,1.9.8.7,1.2.7,2.1h-.1ZM663.6,242.9c0-.5-.2-1-.5-1.3s-.7-.5-1.2-.5-1,.2-1.3.5-.5.8-.6,1.3h3.6Z"/>
          <path id="DejaVuSans-73-5" class="cls-14" d="M670.1,240.7v.9c-.3-.1-.6-.3-.9-.3s-.6-.1-.9-.1c-.5,0-.9,0-1.1.2-.2.2-.4.4-.4.7s0,.4.3.5.5.3,1.1.4h.3c.7.2,1.2.4,1.5.7s.4.7.4,1.1-.2,1-.7,1.3c-.4.3-1.1.5-1.8.5h-1c-.3,0-.7-.2-1.1-.3v-1c.4.2.7.3,1.1.4.4,0,.7.1,1.1.1s.8,0,1.1-.2.4-.4.4-.7,0-.5-.3-.6c-.2-.1-.6-.3-1.2-.4h-.3c-.6-.2-1.1-.4-1.3-.7-.3-.3-.4-.6-.4-1.1s.2-1,.6-1.3c.4-.3,1-.5,1.7-.5h1c.3,0,.6.1.9.2v.2h0Z"/>
          <path id="DejaVuSans-69-6" class="cls-14" d="M672,240.5h1v6h-1v-6ZM672,238.1h1v1.3h-1v-1.3Z"/>
          <path id="DejaVuSans-67-4" class="cls-14" d="M679,243.4c0-.7,0-1.3-.4-1.7-.3-.4-.7-.6-1.2-.6s-.9.2-1.2.6c-.3.4-.4.9-.4,1.7s0,1.3.4,1.7c.3.4.7.6,1.2.6s.9-.2,1.2-.6c.3-.4.4-.9.4-1.7ZM680,245.7c0,1-.2,1.8-.7,2.3s-1.1.7-2.1.7h-1c-.3,0-.6-.1-.9-.2v-1c.3.2.6.3.9.3s.6.1.9.1c.6,0,1.1-.2,1.5-.5.3-.3.5-.8.5-1.5v-.5c-.2.4-.5.6-.8.8s-.7.3-1.1.3c-.7,0-1.3-.3-1.8-.8-.5-.6-.7-1.3-.7-2.2s.2-1.7.7-2.2c.5-.6,1-.8,1.8-.8s.8,0,1.1.3.6.4.8.8v-.9h1v5.3-.3h-.1Z"/>
          <path id="DejaVuSans-6e-8" class="cls-14" d="M687,242.9v3.6h-1v-3.6c0-.6,0-1-.3-1.3s-.6-.4-1-.4-1,.2-1.3.5-.5.8-.5,1.4v3.4h-1v-6h1v.9c.2-.4.5-.6.8-.8s.7-.3,1.1-.3c.7,0,1.2.2,1.6.6.4.4.5,1.1.5,1.9h.1Z"/>
          <path id="DejaVuSans-5f-2" class="cls-14" d="M693.6,248.3v.8h-5.7v-.8h5.7Z"/>
          <path id="DejaVuSans-6d-10" class="cls-14" d="M699.2,241.6c.2-.4.5-.8.9-1s.7-.3,1.2-.3,1.1.2,1.5.7c.3.4.5,1.1.5,1.9v3.6h-1v-3.6c0-.6,0-1-.3-1.3s-.5-.4-.9-.4-.9.2-1.2.5-.4.8-.4,1.4v3.4h-1v-3.6c0-.6,0-1-.3-1.3s-.5-.4-.9-.4-.9.2-1.2.5-.4.8-.4,1.4v3.4h-1v-6h1v.9c.2-.4.5-.6.8-.8s.7-.3,1.1-.3.8.1,1.1.3.5.5.7,1h-.2,0Z"/>
          <path id="DejaVuSans-69-7" class="cls-14" d="M705.2,240.5h1v6h-1v-6ZM705.2,238.1h1v1.3h-1v-1.3Z"/>
          <path id="DejaVuSans-6e-9" class="cls-14" d="M713.3,242.9v3.6h-1v-3.6c0-.6,0-1-.3-1.3s-.6-.4-1-.4-1,.2-1.3.5-.5.8-.5,1.4v3.4h-1v-6h1v.9c.2-.4.5-.6.8-.8s.7-.3,1.1-.3c.7,0,1.2.2,1.6.6.4.4.5,1.1.5,1.9h.1Z"/>
          <path id="DejaVuSans-69-8" class="cls-14" d="M715.2,240.5h1v6h-1v-6ZM715.2,238.1h1v1.3h-1v-1.3Z"/>
          <path id="DejaVuSans-6d-11" class="cls-14" d="M723,241.6c.2-.4.5-.8.9-1s.7-.3,1.2-.3,1.1.2,1.5.7c.3.4.5,1.1.5,1.9v3.6h-1v-3.6c0-.6,0-1-.3-1.3s-.5-.4-.9-.4-.9.2-1.2.5-.4.8-.4,1.4v3.4h-1v-3.6c0-.6,0-1-.3-1.3s-.5-.4-.9-.4-.9.2-1.2.5-.4.8-.4,1.4v3.4h-1v-6h1v.9c.2-.4.5-.6.8-.8s.7-.3,1.1-.3.8.1,1.1.3.5.5.7,1h-.2,0Z"/>
          <path id="DejaVuSans-61-14" class="cls-14" d="M731.7,243.5c-.8,0-1.4,0-1.7.3s-.5.5-.5.9,0,.6.3.8.5.3.9.3,1-.2,1.3-.6.5-.9.5-1.5v-.2h-1,.2ZM733.7,243.1v3.4h-1v-.9c-.2.4-.5.6-.8.8s-.7.3-1.2.3-1.1-.2-1.5-.5-.5-.8-.5-1.4.2-1.2.7-1.5,1.1-.5,2-.5h1.4c0-.6,0-.9-.4-1.2s-.7-.4-1.3-.4-.7,0-1,.1c-.3,0-.6.2-.9.4v-.9c.4-.1.7-.2,1.1-.3.3,0,.7-.1,1-.1.9,0,1.5.2,2,.7.4.5.6,1.1.6,2.1h-.2,0Z"/>
          <path id="DejaVuSans-6c-2" class="cls-14" d="M735.7,238.1h1v8.4h-1v-8.4Z"/>
        </g>
        <path id="mfd0062cd41-2" class="cls-4" d="M631.7,267.4c1.9,0,3.7-.8,5.2-2.1s2.1-3.3,2.1-5.2-.8-3.7-2.1-5.2-3.3-2.1-5.2-2.1-3.7.8-5.2,2.1-2.1,3.3-2.1,5.2.8,3.7,2.1,5.2,3.3,2.1,5.2,2.1Z"/>
        <g>
          <path id="DejaVuSans-65-13" class="cls-14" d="M657.6,259.7v.5h-4.5c0,.7.2,1.2.6,1.6.4.4.9.5,1.5.5s.7,0,1.1-.1.7-.2,1.1-.4v.9c-.4.2-.7.3-1.1.3s-.7.1-1.1.1c-1,0-1.7-.3-2.3-.8-.6-.6-.8-1.3-.8-2.3s.3-1.8.8-2.3c.5-.6,1.2-.9,2.2-.9s1.4.3,1.9.8.7,1.2.7,2.1h-.1ZM656.6,259.4c0-.5-.2-1-.5-1.3s-.7-.5-1.2-.5-1,.2-1.3.5-.5.8-.6,1.3h3.6Z"/>
          <path id="DejaVuSans-74-7" class="cls-14" d="M660.2,255.2v1.7h2v.8h-2v3.3c0,.5,0,.8.2.9s.4.2.8.2h1v.8h-1c-.8,0-1.3-.1-1.6-.4s-.4-.8-.4-1.6v-3.3h-.7v-.8h.7v-1.7h1Z"/>
          <path id="DejaVuSans-68-7" class="cls-14" d="M668.6,259.3v3.6h-1v-3.6c0-.6,0-1-.3-1.3s-.6-.4-1-.4-1,.2-1.3.5-.5.8-.5,1.4v3.4h-1v-8.4h1v3.3c.2-.4.5-.6.8-.8.3-.2.7-.3,1.1-.3.7,0,1.2.2,1.6.6.4.4.5,1.1.5,1.9h.1Z"/>
          <path id="DejaVuSans-69-9" class="cls-14" d="M670.5,256.9h1v6h-1v-6ZM670.5,254.6h1v1.3h-1v-1.3Z"/>
          <path id="DejaVuSans-63-2" class="cls-14" d="M677.9,257.2v.9c-.3-.2-.6-.3-.8-.3s-.6-.1-.9-.1c-.6,0-1.1.2-1.5.6s-.5,1-.5,1.7.2,1.3.5,1.7c.4.4.9.6,1.5.6s.6,0,.9-.1.6-.2.8-.3v.9c-.3.1-.6.2-.9.3h-.9c-.9,0-1.6-.3-2.2-.9-.5-.6-.8-1.3-.8-2.3s.3-1.8.8-2.3c.5-.6,1.3-.8,2.2-.8h.9c.3,0,.6.2.8.3h.1Z"/>
          <path id="DejaVuSans-61-15" class="cls-14" d="M682.4,259.9c-.8,0-1.4,0-1.7.3s-.5.5-.5.9,0,.6.3.8c.2.2.5.3.9.3s1-.2,1.3-.6.5-.9.5-1.5v-.2h-1,.2ZM684.4,259.5v3.4h-1v-.9c-.2.4-.5.6-.8.8-.3.2-.7.3-1.2.3s-1.1-.2-1.5-.5-.5-.8-.5-1.4.2-1.2.7-1.5,1.1-.5,2-.5h1.4c0-.6,0-.9-.4-1.2s-.7-.4-1.3-.4-.7,0-1,.1c-.3,0-.6.2-.9.4v-.9c.4-.1.7-.2,1.1-.3.3,0,.7-.1,1-.1.9,0,1.5.2,2,.7.4.5.6,1.1.6,2.1h-.2,0Z"/>
          <path id="DejaVuSans-6c-3" class="cls-14" d="M686.4,254.6h1v8.4h-1v-8.4Z"/>
          <path id="DejaVuSans-5f-3" class="cls-14" d="M694,264.8v.8h-5.7v-.8h5.7Z"/>
          <path id="DejaVuSans-73-6" class="cls-14" d="M698.8,257.1v.9c-.3-.1-.6-.3-.9-.3s-.6-.1-.9-.1c-.5,0-.9,0-1.1.2-.2.2-.4.4-.4.7s0,.4.3.5.5.3,1.1.4h.3c.7.2,1.2.4,1.5.7s.4.7.4,1.1-.2,1-.7,1.3c-.4.3-1.1.5-1.8.5h-1c-.3,0-.7-.2-1.1-.3v-1c.4.2.7.3,1.1.4.4,0,.7.1,1.1.1s.8,0,1.1-.2.4-.4.4-.7,0-.5-.3-.6c-.2-.1-.6-.3-1.2-.4h-.3c-.6-.2-1.1-.4-1.3-.7-.3-.3-.4-.6-.4-1.1s.2-1,.6-1.3c.4-.3,1-.5,1.7-.5h1c.3,0,.6.1.9.2v.2h0Z"/>
          <path id="DejaVuSans-6f-3" class="cls-14" d="M703,257.6c-.5,0-.9.2-1.3.6s-.5,1-.5,1.7.2,1.3.5,1.7c.3.4.7.6,1.3.6s.9-.2,1.3-.6c.3-.4.5-1,.5-1.7s-.2-1.3-.5-1.7c-.3-.4-.7-.6-1.3-.6ZM703,256.8c.9,0,1.5.3,2,.8.5.6.7,1.3.7,2.3s-.2,1.8-.7,2.3c-.5.6-1.2.8-2,.8s-1.5-.3-2-.8c-.5-.6-.7-1.3-.7-2.3s.2-1.8.7-2.3c.5-.6,1.2-.8,2-.8Z"/>
          <path id="DejaVuSans-75-5" class="cls-14" d="M707.3,260.6v-3.6h1v3.6c0,.6,0,1,.3,1.3s.6.4,1,.4,1-.2,1.3-.5.5-.8.5-1.4v-3.4h1v6h-1v-.9c-.2.4-.5.6-.8.8-.3.2-.7.3-1.1.3-.7,0-1.2-.2-1.6-.6-.4-.4-.5-1.1-.5-1.9h-.1ZM709.8,256.8h0Z"/>
          <path id="DejaVuSans-72-5" class="cls-14" d="M717.9,257.8s-.2-.1-.4-.1h-.4c-.6,0-1,.2-1.3.5s-.4.9-.4,1.6v3.2h-1v-6h1v.9c.2-.4.5-.6.8-.8.3-.2.7-.3,1.2-.3s0,0,.2,0h.3v1h0Z"/>
          <path id="DejaVuSans-63-3" class="cls-14" d="M723,257.2v.9c-.3-.2-.6-.3-.8-.3s-.6-.1-.9-.1c-.6,0-1.1.2-1.5.6s-.5,1-.5,1.7.2,1.3.5,1.7c.4.4.9.6,1.5.6s.6,0,.9-.1.6-.2.8-.3v.9c-.3.1-.6.2-.9.3h-.9c-.9,0-1.6-.3-2.2-.9-.5-.6-.8-1.3-.8-2.3s.3-1.8.8-2.3c.5-.6,1.3-.8,2.2-.8h.9c.3,0,.6.2.8.3h.1Z"/>
          <path id="DejaVuSans-69-10" class="cls-14" d="M724.7,256.9h1v6h-1v-6ZM724.7,254.6h1v1.3h-1v-1.3Z"/>
          <path id="DejaVuSans-6e-10" class="cls-14" d="M732.8,259.3v3.6h-1v-3.6c0-.6,0-1-.3-1.3s-.6-.4-1-.4-1,.2-1.3.5-.5.8-.5,1.4v3.4h-1v-6h1v.9c.2-.4.5-.6.8-.8.3-.2.7-.3,1.1-.3.7,0,1.2.2,1.6.6.4.4.5,1.1.5,1.9h.1Z"/>
          <path id="DejaVuSans-67-5" class="cls-14" d="M738.7,259.9c0-.7,0-1.3-.4-1.7-.3-.4-.7-.6-1.2-.6s-.9.2-1.2.6-.4.9-.4,1.7,0,1.3.4,1.7c.3.4.7.6,1.2.6s.9-.2,1.2-.6.4-.9.4-1.7ZM739.7,262.2c0,1-.2,1.8-.7,2.3s-1.1.7-2.1.7h-1c-.3,0-.6-.1-.9-.2v-1c.3.2.6.3.9.3s.6.1.9.1c.6,0,1.1-.2,1.5-.5.3-.3.5-.8.5-1.5v-.5c-.2.4-.5.6-.8.8s-.7.3-1.1.3c-.7,0-1.3-.3-1.8-.8-.5-.6-.7-1.3-.7-2.2s.2-1.7.7-2.2c.5-.6,1-.8,1.8-.8s.8,0,1.1.3.6.4.8.8v-.9h1v5.3-.3h-.1Z"/>
        </g>
        <path id="ma60fb8a359-2" class="cls-5" d="M631.7,283.8c1.9,0,3.7-.8,5.2-2.1s2.1-3.3,2.1-5.2-.8-3.7-2.1-5.2-3.3-2.1-5.2-2.1-3.7.8-5.2,2.1-2.1,3.3-2.1,5.2.8,3.7,2.1,5.2,3.3,2.1,5.2,2.1Z"/>
        <g>
          <path id="DejaVuSans-68-8" class="cls-14" d="M657.5,275.8v3.6h-1v-3.6c0-.6,0-1-.3-1.3s-.6-.4-1-.4-1,.2-1.3.5-.5.8-.5,1.4v3.4h-1v-8.4h1v3.3c.2-.4.5-.6.8-.8.3-.2.7-.3,1.1-.3.7,0,1.2.2,1.6.6.4.4.5,1.1.5,1.9h.1Z"/>
          <path id="DejaVuSans-6f-4" class="cls-14" d="M661.8,274.1c-.5,0-.9.2-1.3.6s-.5,1-.5,1.7.2,1.3.5,1.7c.3.4.7.6,1.3.6s.9-.2,1.3-.6c.3-.4.5-1,.5-1.7s-.2-1.3-.5-1.7c-.3-.4-.7-.6-1.3-.6ZM661.8,273.2c.9,0,1.5.3,2,.8.5.6.7,1.3.7,2.3s-.2,1.8-.7,2.3c-.5.6-1.2.8-2,.8s-1.5-.3-2-.8c-.5-.6-.7-1.3-.7-2.3s.2-1.8.7-2.3c.5-.6,1.2-.8,2-.8Z"/>
          <path id="DejaVuSans-6d-12" class="cls-14" d="M670.9,274.5c.2-.4.5-.8.9-1s.7-.3,1.2-.3,1.1.2,1.5.7c.3.4.5,1.1.5,1.9v3.6h-1v-3.6c0-.6,0-1-.3-1.3s-.5-.4-.9-.4-.9.2-1.2.5-.4.8-.4,1.4v3.4h-1v-3.6c0-.6,0-1-.3-1.3s-.5-.4-.9-.4-.9.2-1.2.5-.4.8-.4,1.4v3.4h-1v-6h1v.9c.2-.4.5-.6.8-.8s.7-.3,1.1-.3.8.1,1.1.3c.3.2.5.5.7,1h-.2,0Z"/>
          <path id="DejaVuSans-65-14" class="cls-14" d="M682.1,276.1v.5h-4.5c0,.7.2,1.2.6,1.6.4.4.9.5,1.5.5s.7,0,1.1-.1.7-.2,1.1-.4v.9c-.4.2-.7.3-1.1.3s-.7.1-1.1.1c-1,0-1.7-.3-2.3-.8-.6-.6-.8-1.3-.8-2.3s.3-1.8.8-2.3c.5-.6,1.2-.9,2.2-.9s1.4.3,1.9.8.7,1.2.7,2.1h-.1ZM681.1,275.8c0-.5-.2-1-.5-1.3s-.7-.5-1.2-.5-1,.2-1.3.5-.5.8-.6,1.3h3.6Z"/>
          <path id="DejaVuSans-6d-13" class="cls-14" d="M688.4,274.5c.2-.4.5-.8.9-1s.7-.3,1.2-.3,1.1.2,1.5.7c.3.4.5,1.1.5,1.9v3.6h-1v-3.6c0-.6,0-1-.3-1.3s-.5-.4-.9-.4-.9.2-1.2.5-.4.8-.4,1.4v3.4h-1v-3.6c0-.6,0-1-.3-1.3s-.5-.4-.9-.4-.9.2-1.2.5-.4.8-.4,1.4v3.4h-1v-6h1v.9c.2-.4.5-.6.8-.8s.7-.3,1.1-.3.8.1,1.1.3c.3.2.5.5.7,1h-.2,0Z"/>
          <path id="DejaVuSans-61-16" class="cls-14" d="M697.1,276.4c-.8,0-1.4,0-1.7.3s-.5.5-.5.9,0,.6.3.8c.2.2.5.3.9.3s1-.2,1.3-.6.5-.9.5-1.5v-.2h-1,.2ZM699.1,276v3.4h-1v-.9c-.2.4-.5.6-.8.8-.3.2-.7.3-1.2.3s-1.1-.2-1.5-.5-.5-.8-.5-1.4.2-1.2.7-1.5,1.1-.5,2-.5h1.4c0-.6,0-.9-.4-1.2s-.7-.4-1.3-.4-.7,0-1,.1c-.3,0-.6.2-.9.4v-.9c.4-.1.7-.2,1.1-.3.3,0,.7-.1,1-.1.9,0,1.5.2,2,.7.4.5.6,1.1.6,2.1h-.2,0Z"/>
          <path id="DejaVuSans-64-2" class="cls-14" d="M705.1,274.3v-3.3h1v8.4h-1v-.9c-.2.4-.5.6-.8.8-.3.2-.7.3-1.1.3-.7,0-1.3-.3-1.8-.9s-.7-1.3-.7-2.3.2-1.7.7-2.3c.5-.6,1-.9,1.8-.9s.8,0,1.1.3c.3.2.6.4.8.8ZM701.7,276.4c0,.7,0,1.3.4,1.7.3.4.7.6,1.2.6s.9-.2,1.2-.6.5-1,.5-1.7-.2-1.3-.5-1.7c-.3-.4-.7-.6-1.2-.6s-.9.2-1.2.6-.4,1-.4,1.7Z"/>
          <path id="DejaVuSans-65-15" class="cls-14" d="M713.3,276.1v.5h-4.5c0,.7.2,1.2.6,1.6.4.4.9.5,1.5.5s.7,0,1.1-.1.7-.2,1.1-.4v.9c-.4.2-.7.3-1.1.3s-.7.1-1.1.1c-1,0-1.7-.3-2.3-.8-.6-.6-.8-1.3-.8-2.3s.3-1.8.8-2.3c.5-.6,1.2-.9,2.2-.9s1.4.3,1.9.8.7,1.2.7,2.1h-.1ZM712.3,275.8c0-.5-.2-1-.5-1.3s-.7-.5-1.2-.5-1,.2-1.3.5-.5.8-.6,1.3h3.6Z"/>
          <path id="DejaVuSans-5f-4" class="cls-14" d="M719.5,281.2v.8h-5.7v-.8h5.7Z"/>
          <path id="DejaVuSans-62-2" class="cls-14" d="M724.7,276.4c0-.7,0-1.3-.4-1.7s-.7-.6-1.2-.6-.9.2-1.2.6-.4,1-.4,1.7,0,1.3.4,1.7c.3.4.7.6,1.2.6s.9-.2,1.2-.6.4-1,.4-1.7ZM721.3,274.3c.2-.4.5-.6.8-.8.3-.2.7-.3,1.1-.3.7,0,1.3.3,1.8.9s.7,1.3.7,2.3-.2,1.7-.7,2.3c-.5.6-1,.9-1.8.9s-.8,0-1.1-.3c-.3-.2-.6-.4-.8-.8v.9h-1v-8.4h1v3.3Z"/>
          <path id="DejaVuSans-61-17" class="cls-14" d="M730.1,276.4c-.8,0-1.4,0-1.7.3s-.5.5-.5.9,0,.6.3.8c.2.2.5.3.9.3s1-.2,1.3-.6.5-.9.5-1.5v-.2h-1,.2ZM732.1,276v3.4h-1v-.9c-.2.4-.5.6-.8.8-.3.2-.7.3-1.2.3s-1.1-.2-1.5-.5-.5-.8-.5-1.4.2-1.2.7-1.5,1.1-.5,2-.5h1.4c0-.6,0-.9-.4-1.2s-.7-.4-1.3-.4-.7,0-1,.1c-.3,0-.6.2-.9.4v-.9c.4-.1.7-.2,1.1-.3.3,0,.7-.1,1-.1.9,0,1.5.2,2,.7.4.5.6,1.1.6,2.1h-.2,0Z"/>
          <path id="DejaVuSans-6b" class="cls-14" d="M734.1,271h1v4.9l2.9-2.6h1.3l-3.2,2.8,3.3,3.2h-1.3l-3.1-2.9v2.9h-1v-8.4h0Z"/>
          <path id="DejaVuSans-65-16" class="cls-14" d="M745.2,276.1v.5h-4.5c0,.7.2,1.2.6,1.6.4.4.9.5,1.5.5s.7,0,1.1-.1.7-.2,1.1-.4v.9c-.4.2-.7.3-1.1.3s-.7.1-1.1.1c-1,0-1.7-.3-2.3-.8-.6-.6-.8-1.3-.8-2.3s.3-1.8.8-2.3c.5-.6,1.2-.9,2.2-.9s1.4.3,1.9.8.7,1.2.7,2.1h-.1ZM744.2,275.8c0-.5-.2-1-.5-1.3s-.7-.5-1.2-.5-1,.2-1.3.5-.5.8-.6,1.3h3.6Z"/>
          <path id="DejaVuSans-73-7" class="cls-14" d="M750.7,273.6v.9c-.3-.1-.6-.3-.9-.3s-.6-.1-.9-.1c-.5,0-.9,0-1.1.2-.2.2-.4.4-.4.7s0,.4.3.5.5.3,1.1.4h.3c.7.2,1.2.4,1.5.7s.4.7.4,1.1-.2,1-.7,1.3c-.4.3-1.1.5-1.8.5h-1c-.3,0-.7-.2-1.1-.3v-1c.4.2.7.3,1.1.4.4,0,.7.1,1.1.1s.8,0,1.1-.2.4-.4.4-.7,0-.5-.3-.6c-.2-.1-.6-.3-1.2-.4h-.3c-.6-.2-1.1-.4-1.3-.7-.3-.3-.4-.6-.4-1.1s.2-1,.6-1.3c.4-.3,1-.5,1.7-.5h1c.3,0,.6.1.9.2v.2h0Z"/>
        </g>
        <path id="m908a85ad96-25" class="cls-6" d="M631.7,300.3c1.9,0,3.7-.8,5.2-2.1s2.1-3.3,2.1-5.2-.8-3.7-2.1-5.2-3.3-2.1-5.2-2.1-3.7.8-5.2,2.1-2.1,3.3-2.1,5.2.8,3.7,2.1,5.2,3.3,2.1,5.2,2.1Z"/>
        <g>
          <path id="DejaVuSans-6d-14" class="cls-14" d="M657.2,291c.2-.4.5-.8.9-1s.7-.3,1.2-.3,1.1.2,1.5.7c.3.4.5,1.1.5,1.9v3.6h-1v-3.6c0-.6,0-1-.3-1.3s-.5-.4-.9-.4-.9.2-1.2.5-.4.8-.4,1.4v3.4h-1v-3.6c0-.6,0-1-.3-1.3s-.5-.4-.9-.4-.9.2-1.2.5-.4.8-.4,1.4v3.4h-1v-6h1v.9c.2-.4.5-.6.8-.8s.7-.3,1.1-.3.8.1,1.1.3c.3.2.5.5.7,1h-.2,0Z"/>
          <path id="DejaVuSans-75-6" class="cls-14" d="M663.1,293.5v-3.6h1v3.6c0,.6,0,1,.3,1.3s.6.4,1,.4,1-.2,1.3-.5.5-.8.5-1.4v-3.4h1v6h-1v-.9c-.2.4-.5.6-.8.8-.3.2-.7.3-1.1.3-.7,0-1.2-.2-1.6-.6-.4-.4-.5-1.1-.5-1.9h-.1ZM665.6,289.7h0Z"/>
          <path id="DejaVuSans-6c-4" class="cls-14" d="M670.2,287.5h1v8.4h-1v-8.4Z"/>
          <path id="DejaVuSans-74-8" class="cls-14" d="M674.2,288.1v1.7h2v.8h-2v3.3c0,.5,0,.8.2.9s.4.2.8.2h1v.8h-1c-.8,0-1.3-.1-1.6-.4s-.4-.8-.4-1.6v-3.3h-.7v-.8h.7v-1.7h1Z"/>
          <path id="DejaVuSans-69-11" class="cls-14" d="M677.5,289.8h1v6h-1v-6ZM677.5,287.5h1v1.3h-1v-1.3Z"/>
          <path id="DejaVuSans-5f-5" class="cls-14" d="M685.2,297.7v.8h-5.7v-.8h5.7Z"/>
          <path id="DejaVuSans-6c-5" class="cls-14" d="M686.1,287.5h1v8.4h-1v-8.4Z"/>
          <path id="DejaVuSans-6f-5" class="cls-14" d="M691.5,290.5c-.5,0-.9.2-1.3.6s-.5,1-.5,1.7.2,1.3.5,1.7c.3.4.7.6,1.3.6s.9-.2,1.3-.6c.3-.4.5-1,.5-1.7s-.2-1.3-.5-1.7c-.3-.4-.7-.6-1.3-.6ZM691.5,289.7c.9,0,1.5.3,2,.8.5.6.7,1.3.7,2.3s-.2,1.8-.7,2.3c-.5.6-1.2.8-2,.8s-1.5-.3-2-.8c-.5-.6-.7-1.3-.7-2.3s.2-1.8.7-2.3c.5-.6,1.2-.8,2-.8Z"/>
          <path id="DejaVuSans-63-4" class="cls-14" d="M700.2,290.1v.9c-.3-.2-.6-.3-.8-.3s-.6-.1-.9-.1c-.6,0-1.1.2-1.5.6s-.5,1-.5,1.7.2,1.3.5,1.7c.4.4.9.6,1.5.6s.6,0,.9-.1.6-.2.8-.3v.9c-.3.1-.6.2-.9.3h-.9c-.9,0-1.6-.3-2.2-.9-.5-.6-.8-1.3-.8-2.3s.3-1.8.8-2.3c.5-.6,1.3-.8,2.2-.8h.9c.3,0,.6.2.8.3h.1Z"/>
          <path id="DejaVuSans-61-18" class="cls-14" d="M704.7,292.8c-.8,0-1.4,0-1.7.3s-.5.5-.5.9,0,.6.3.8c.2.2.5.3.9.3s1-.2,1.3-.6.5-.9.5-1.5v-.2h-1,.2ZM706.6,292.4v3.4h-1v-.9c-.2.4-.5.6-.8.8-.3.2-.7.3-1.2.3s-1.1-.2-1.5-.5-.5-.8-.5-1.4.2-1.2.7-1.5,1.1-.5,2-.5h1.4c0-.6,0-.9-.4-1.2s-.7-.4-1.3-.4-.7,0-1,.1c-.3,0-.6.2-.9.4v-.9c.4-.1.7-.2,1.1-.3.3,0,.7-.1,1-.1.9,0,1.5.2,2,.7.4.5.6,1.1.6,2.1h-.2,0Z"/>
          <path id="DejaVuSans-74-9" class="cls-14" d="M709.7,288.1v1.7h2v.8h-2v3.3c0,.5,0,.8.2.9s.4.2.8.2h1v.8h-1c-.8,0-1.3-.1-1.6-.4s-.4-.8-.4-1.6v-3.3h-.7v-.8h.7v-1.7h1Z"/>
          <path id="DejaVuSans-69-12" class="cls-14" d="M713,289.8h1v6h-1v-6ZM713,287.5h1v1.3h-1v-1.3Z"/>
          <path id="DejaVuSans-6f-6" class="cls-14" d="M718.4,290.5c-.5,0-.9.2-1.3.6s-.5,1-.5,1.7.2,1.3.5,1.7c.3.4.7.6,1.3.6s.9-.2,1.3-.6c.3-.4.5-1,.5-1.7s-.2-1.3-.5-1.7c-.3-.4-.7-.6-1.3-.6ZM718.4,289.7c.9,0,1.5.3,2,.8.5.6.7,1.3.7,2.3s-.2,1.8-.7,2.3c-.5.6-1.2.8-2,.8s-1.5-.3-2-.8c-.5-.6-.7-1.3-.7-2.3s.2-1.8.7-2.3c.5-.6,1.2-.8,2-.8Z"/>
          <path id="DejaVuSans-6e-11" class="cls-14" d="M727.8,292.2v3.6h-1v-3.6c0-.6,0-1-.3-1.3s-.6-.4-1-.4-1,.2-1.3.5-.5.8-.5,1.4v3.4h-1v-6h1v.9c.2-.4.5-.6.8-.8.3-.2.7-.3,1.1-.3.7,0,1.2.2,1.6.6.4.4.5,1.1.5,1.9h.1Z"/>
        </g>
        <path id="m07180bf7b2-2" class="cls-11" d="M631.7,316.7c1.9,0,3.7-.8,5.2-2.1s2.1-3.3,2.1-5.2-.8-3.7-2.1-5.2-3.3-2.1-5.2-2.1-3.7.8-5.2,2.1-2.1,3.3-2.1,5.2.8,3.7,2.1,5.2,3.3,2.1,5.2,2.1Z"/>
        <g>
          <path id="DejaVuSans-6f-7" class="cls-14" d="M654.8,307c-.5,0-.9.2-1.3.6s-.5,1-.5,1.7.2,1.3.5,1.7c.3.4.7.6,1.3.6s.9-.2,1.3-.6c.3-.4.5-1,.5-1.7s-.2-1.3-.5-1.7c-.3-.4-.7-.6-1.3-.6ZM654.8,306.1c.9,0,1.5.3,2,.8.5.6.7,1.3.7,2.3s-.2,1.8-.7,2.3c-.5.6-1.2.8-2,.8s-1.5-.3-2-.8c-.5-.6-.7-1.3-.7-2.3s.2-1.8.7-2.3c.5-.6,1.2-.8,2-.8Z"/>
          <path id="DejaVuSans-72-6" class="cls-14" d="M662.7,307.2s-.2-.1-.4-.1h-.4c-.6,0-1,.2-1.3.5s-.4.9-.4,1.6v3.2h-1v-6h1v.9c.2-.4.5-.6.8-.8.3-.2.7-.3,1.2-.3s0,0,.2,0h.3v1h0Z"/>
          <path id="DejaVuSans-69-13" class="cls-14" d="M663.7,306.3h1v6h-1v-6ZM663.7,303.9h1v1.3h-1v-1.3Z"/>
          <path id="DejaVuSans-67-6" class="cls-14" d="M670.8,309.2c0-.7,0-1.3-.4-1.7-.3-.4-.7-.6-1.2-.6s-.9.2-1.2.6-.4.9-.4,1.7,0,1.3.4,1.7c.3.4.7.6,1.2.6s.9-.2,1.2-.6.4-.9.4-1.7ZM671.7,311.6c0,1-.2,1.8-.7,2.3s-1.1.7-2.1.7h-1c-.3,0-.6-.1-.9-.2v-1c.3.2.6.3.9.3s.6.1.9.1c.6,0,1.1-.2,1.5-.5.3-.3.5-.8.5-1.5v-.5c-.2.4-.5.6-.8.8s-.7.3-1.1.3c-.7,0-1.3-.3-1.8-.8-.5-.6-.7-1.3-.7-2.2s.2-1.7.7-2.2c.5-.6,1-.8,1.8-.8s.8,0,1.1.3.6.4.8.8v-.9h1v5.3-.3h-.1Z"/>
          <path id="DejaVuSans-69-14" class="cls-14" d="M673.8,306.3h1v6h-1v-6ZM673.8,303.9h1v1.3h-1v-1.3Z"/>
          <path id="DejaVuSans-6e-12" class="cls-14" d="M681.8,308.7v3.6h-1v-3.6c0-.6,0-1-.3-1.3s-.6-.4-1-.4-1,.2-1.3.5-.5.8-.5,1.4v3.4h-1v-6h1v.9c.2-.4.5-.6.8-.8.3-.2.7-.3,1.1-.3.7,0,1.2.2,1.6.6.4.4.5,1.1.5,1.9h.1Z"/>
          <path id="DejaVuSans-5f-6" class="cls-14" d="M688.4,314.1v.8h-5.7v-.8h5.7Z"/>
          <path id="DejaVuSans-66-2" class="cls-14" d="M692.4,303.9v.8h-.9c-.4,0-.6,0-.7.2,0,.1-.2.4-.2.8v.5h1.6v.8h-1.6v5.2h-1v-5.2h-.9v-.8h.9v-.4c0-.7.2-1.2.5-1.5s.8-.5,1.5-.5h.9,0Z"/>
          <path id="DejaVuSans-6f-8" class="cls-14" d="M695.5,307c-.5,0-.9.2-1.3.6s-.5,1-.5,1.7.2,1.3.5,1.7c.3.4.7.6,1.3.6s.9-.2,1.3-.6c.3-.4.5-1,.5-1.7s-.2-1.3-.5-1.7c-.3-.4-.7-.6-1.3-.6ZM695.5,306.1c.9,0,1.5.3,2,.8.5.6.7,1.3.7,2.3s-.2,1.8-.7,2.3c-.5.6-1.2.8-2,.8s-1.5-.3-2-.8c-.5-.6-.7-1.3-.7-2.3s.2-1.8.7-2.3c.5-.6,1.2-.8,2-.8Z"/>
          <path id="DejaVuSans-63-5" class="cls-14" d="M704.2,306.5v.9c-.3-.2-.6-.3-.8-.3s-.6-.1-.9-.1c-.6,0-1.1.2-1.5.6s-.5,1-.5,1.7.2,1.3.5,1.7c.4.4.9.6,1.5.6s.6,0,.9-.1.6-.2.8-.3v.9c-.3.1-.6.2-.9.3h-.9c-.9,0-1.6-.3-2.2-.9-.5-.6-.8-1.3-.8-2.3s.3-1.8.8-2.3c.5-.6,1.3-.8,2.2-.8h.9c.3,0,.6.2.8.3h.1Z"/>
          <path id="DejaVuSans-75-7" class="cls-14" d="M705.9,309.9v-3.6h1v3.6c0,.6,0,1,.3,1.3s.6.4,1,.4,1-.2,1.3-.5.5-.8.5-1.4v-3.4h1v6h-1v-.9c-.2.4-.5.6-.8.8-.3.2-.7.3-1.1.3-.7,0-1.2-.2-1.6-.6-.4-.4-.5-1.1-.5-1.9h-.1ZM708.3,306.1h0Z"/>
          <path id="DejaVuSans-73-8" class="cls-14" d="M716.8,306.5v.9c-.3-.1-.6-.3-.9-.3s-.6-.1-.9-.1c-.5,0-.9,0-1.1.2-.2.2-.4.4-.4.7s0,.4.3.5.5.3,1.1.4h.3c.7.2,1.2.4,1.5.7s.4.7.4,1.1-.2,1-.7,1.3c-.4.3-1.1.5-1.8.5h-1c-.3,0-.7-.2-1.1-.3v-1c.4.2.7.3,1.1.4.4,0,.7.1,1.1.1s.8,0,1.1-.2.4-.4.4-.7,0-.5-.3-.6c-.2-.1-.6-.3-1.2-.4h-.3c-.6-.2-1.1-.4-1.3-.7-.3-.3-.4-.6-.4-1.1s.2-1,.6-1.3c.4-.3,1-.5,1.7-.5h1c.3,0,.6.1.9.2v.2h0Z"/>
        </g>
        <g class="cls-13">
          <g class="cls-13">
            <text class="cls-12" transform="translate(302.4 260.3)"><tspan x="0" y="0">Wat Rong Khun </tspan></text>
            <text class="cls-12" transform="translate(302.4 290.3)"><tspan x="0" y="0">(White Temple)</tspan></text>
          </g>
        </g>
        <g class="cls-13">
          <g class="cls-13">
            <text class="cls-12" transform="translate(275.4 319.8)"><tspan x="0" y="0">Baan Dam Museum</tspan></text>
          </g>
        </g>
        <polyline class="cls-2" points="261.4 260.3 261.4 312.3 272.1 312.3"/>
        <line class="cls-3" x1="267.7" y1="254" x2="297.4" y2="254"/>
        <path id="m4fe7a62304-3" class="cls-7" d="M261.7,263.3c1.8,0,3.3-.6,4.5-1.8s1.8-2.7,1.8-4.5-.6-3.3-1.8-4.5-2.7-1.8-4.5-1.8-3.3.6-4.5,1.8-1.8,2.7-1.8,4.5.6,3.3,1.8,4.5,2.7,1.8,4.5,1.8Z"/>
        <g class="cls-13">
          <text class="cls-12" transform="translate(299.9 226.2)"><tspan x="0" y="0">Wat Phra Kaew</tspan></text>
        </g>
      </g>
    </g>
  </g>
</svg>