<?xml version="1.0" encoding="UTF-8"?>
<svg xmlns="http://www.w3.org/2000/svg" xmlns:xlink="http://www.w3.org/1999/xlink" version="1.1" viewBox="0 0 394.6 452">
  <defs>
    <style>
      .cls-1 {
        fill: none;
      }

      .cls-2 {
        fill: #b3b3b3;
      }

      .cls-2, .cls-3, .cls-4, .cls-5, .cls-6, .cls-7 {
        stroke-linejoin: round;
      }

      .cls-2, .cls-3, .cls-4, .cls-7 {
        fill-opacity: .9;
        stroke: #fff;
        stroke-opacity: .9;
        stroke-width: .6px;
      }

      .cls-8 {
        clip-path: url(#clippath-11);
      }

      .cls-9 {
        clip-path: url(#clippath-10);
      }

      .cls-10 {
        clip-path: url(#clippath-13);
      }

      .cls-11 {
        clip-path: url(#clippath-14);
      }

      .cls-12 {
        clip-path: url(#clippath-12);
      }

      .cls-3 {
        fill: #e78ac3;
      }

      .cls-13 {
        clip-path: url(#clippath-1);
      }

      .cls-14 {
        clip-path: url(#clippath-3);
      }

      .cls-15 {
        clip-path: url(#clippath-4);
      }

      .cls-16 {
        clip-path: url(#clippath-2);
      }

      .cls-17 {
        clip-path: url(#clippath-7);
      }

      .cls-18 {
        clip-path: url(#clippath-6);
      }

      .cls-19 {
        clip-path: url(#clippath-9);
      }

      .cls-20 {
        clip-path: url(#clippath-8);
      }

      .cls-21 {
        clip-path: url(#clippath-5);
      }

      .cls-22 {
        fill: #262626;
      }

      .cls-4 {
        fill: #ffd92f;
      }

      .cls-5 {
        fill: #f7f7f7;
        fill-opacity: .4;
        stroke: #ccc;
        stroke-opacity: .4;
        stroke-width: .5px;
      }

      .cls-6 {
        stroke: #000;
      }

      .cls-23 {
        clip-path: url(#clippath);
      }

      .cls-7 {
        fill: #fc8d62;
      }
    </style>
    <clipPath id="clippath">
      <rect class="cls-1" x="22.8" y="-10.5" width="348.7" height="492.1"/>
    </clipPath>
    <clipPath id="clippath-1">
      <rect class="cls-1" x="22.8" y="-10.5" width="348.7" height="492.1"/>
    </clipPath>
    <clipPath id="clippath-2">
      <rect class="cls-1" x="22.8" y="-10.5" width="348.7" height="492.1"/>
    </clipPath>
    <clipPath id="clippath-3">
      <rect class="cls-1" x="22.8" y="-10.5" width="348.7" height="492.1"/>
    </clipPath>
    <clipPath id="clippath-4">
      <rect class="cls-1" x="22.8" y="-10.5" width="348.7" height="492.1"/>
    </clipPath>
    <clipPath id="clippath-5">
      <rect class="cls-1" x="22.8" y="-10.5" width="348.7" height="492.1"/>
    </clipPath>
    <clipPath id="clippath-6">
      <rect class="cls-1" x="22.8" y="-10.5" width="348.7" height="492.1"/>
    </clipPath>
    <clipPath id="clippath-7">
      <rect class="cls-1" x="22.8" y="-10.5" width="348.7" height="492.1"/>
    </clipPath>
    <clipPath id="clippath-8">
      <rect class="cls-1" x="22.8" y="-10.5" width="348.7" height="492.1"/>
    </clipPath>
    <clipPath id="clippath-9">
      <rect class="cls-1" x="22.8" y="-10.5" width="348.7" height="492.1"/>
    </clipPath>
    <clipPath id="clippath-10">
      <rect class="cls-1" x="22.8" y="-10.5" width="348.7" height="492.1"/>
    </clipPath>
    <clipPath id="clippath-11">
      <rect class="cls-1" x="22.8" y="-10.5" width="348.7" height="492.1"/>
    </clipPath>
    <clipPath id="clippath-12">
      <rect class="cls-1" x="22.8" y="-10.5" width="348.7" height="492.1"/>
    </clipPath>
    <clipPath id="clippath-13">
      <rect class="cls-1" x="22.8" y="-10.5" width="348.7" height="492.1"/>
    </clipPath>
    <clipPath id="clippath-14">
      <rect class="cls-1" x="22.8" y="-10.5" width="348.7" height="492.1"/>
    </clipPath>
  </defs>
  <!-- Generator: Adobe Illustrator 28.7.7, SVG Export Plug-In . SVG Version: 1.2.0 Build 194)  -->
  <g>
    <g id="Layer_1">
      <g id="PatchCollection_1">
        <g class="cls-23">
          <path class="cls-5" d="M288.3,139.3h-.1s-.1,0-.1,0h0c0,0,0,.2,0,.2h0c0,.1,0,.1,0,.1h0s-1.6.5-1.6.5l-1.1.3-.4-1.6h0s0,0,0,0h-.2s0,.1,0,.1h0s.4,1.6.4,1.6l-.9.3h0s0,0,0,0h0s0,0,0,0h0s0,0,0,0h0s0,0,0,0h0s0,0,0,0h0s0,0,0,0h0s0,0,0,0h0s0,0,0,0h0s0,0,0,0h0s0,0,0,0h0s0,0,0,0h.3c0,0,1,1.2,1,1.2l2.9.8v.4c0,0,.6.2.6.2h0s2.4.8,2.4.8l-.9,2.8-4.2-1.4v-.3c.1,0,.1,0,.1,0h0c0,0-2.3-2.8-2.3-2.8l-1.2-1.4h0s.1-.2.1-.2h0s0,0,0,0h0s0,0,0,0h0s0,0,0,0h0s0,0,0,0h0s0,0,0,0h0s0,0,0,0h0s0,0,0,0h0s0,.1,0,.1v-.2c-.1,0-.1,0-.1,0l-.4-.5h-.3s-14.3,5.7-14.3,5.7h0c0,0-.7.5-.7.5h-.2c0,0-.4-.2-.4-.2v.3c-.1,0-.4-.1-.4-.1l-.3.6-.2.4v.3c-.1,0-.1,0-.1,0v.2c-.1,0-.2.2-.2.2v.2c-.1,0-.2,0-.2,0h-.3c0-.1,0,0,0,0l-.3.4h-.1c0,.1-.3.3-.3.3l-.8.5-.6.4-.6.3-.6.4-.4.4-.3.4-.3.4-.2.4-.2.4v.4c0,0-.2,0-.2,0v.4c0,0-.8,0-.8,0v-.4h0v-.6s0-.5,0-.5v-.4c0,0-.3-.4-.3-.4l-.4-.7-.3-.4-.5-.5-.7-.5-.8-.5h-.3c0-.1-.7-.1-.7-.1l-.5.2.8-1.2.2-.5v-.8s-.1-.3-.1-.3l-.2-.7-.5-1-.3-.7-.3-1.3-.2-1.2-.7-7.1-2,.7-2.2,1-6.3,2.8-1.5.7-1.5.6-2,.8-3.4,1.4-4.3,1.7-.8.3-1.2-3.1-.6-1.9-.5.4-8.9,7.4-1,1.2-.7,1.6-1.1,2.5-4,4.4-1.5,1.9-1.6,1.8h-.2s-2.1,2.4-2.1,2.4l-1.1,1.2h0c0,0-.6.8-.6.8l-.5.7-1.1,1.4-3.1,4.1-.7.9-1,1.3-.9,1.3-.8,1.1-1,1.8-3.3,6.1-3.4,6.3-.4.6-.3.6-.7,1.3v.2s-3.7,25.2-3.7,25.2l-.2,1.4,2.9-.8h.4c0-.1,2.5-1,2.5-1l.9-.3,2.9-1.1,1.4,4,2.6-1.6,1.7-1.1.6-.3h0s0,0,0,0l1.3-.7,3.9,6.3,2.2,3.5v.2c.1,0,4.3,6.1,4.3,6.1l4,5.2,1.2,1.6h.9c0,0,1.4-.2,1.4-.2h0s0,0,0,0h0s0,0,0,0h0c0,0,1.8-3.6,1.8-3.6h0s0,0,0,0h0s0,0,0,0h0s0,0,0,0h0s.9-.2.9-.2h.3c0,0,.6-.2.6-.2h0s0,0,0,0h0s0,0,0,0h0s0,0,0,0h0s0,0,0,0h0s0,0,0,0h0c0,0,.1-.6.1-.6l.7-2.8,1.4-1.4h.4c0,.1,0,0,0,0l.6-.7,3,2.7-.3.4h0s0,0,0,0l.3.2,2.2,1.9.4.4.2.2.2.2.5.5.4.4.5.3h.2c0,.1.4.3.4.3l.4.2,7.3,2.2h.2c0,0,.7.3.7.3h.6c0,.1.6.2.6.2l4.7.4,8.8-2.4h.2s1-.3,1-.3l1.2-1.2,1.2-.4.7-.2h.7c0,0,.6,0,.6,0h.7c0,0,0-.5,0-.5l-.2-.6,2-.7.6.3h.2c0,0,.2.1.2.1h.2s.2,0,.2,0h0s.1,0,.1,0h.2s.2,0,.2,0h0s0,0,0,0h0s.2,0,.2,0h.2c0-.1.2-.2.2-.2h.1c0-.1,0-.2,0-.2v-.2c.1,0,.2-.2.2-.2v-.2c0,0,.1-.2.1-.2h0c0,0,.1-.6.1-.6l4.7-3.6h.4c0,.1.2.2.2.2h.2s.2,0,.2,0h.2c0,0,.2-.2.2-.2h.2c0-.1.2-.3.2-.3l.2-.2.2-.4v-.5c.1,0,.1-.6.1-.6h.2c0-.1.7-.6.7-.6h0s4.6-3.3,4.6-3.3l.5-.6h0s1.8-2.2,1.8-2.2h.6s0,0,0,0h0s0,0,0,0h0s0,0,0,0h0s0,0,0,0h0s0,0,0,0h0s0,0,0,0h0s0,0,0,0h0c0,0,0-.1,0-.1h0c0,0,0-.1,0-.1h0c0,0,0-.1,0-.1h0c0,0,0-.1,0-.1h0c0,0,0-.1,0-.1h0c0,0,0-.1,0-.1h0c0,0,0-.1,0-.1h0s0-.1,0-.1h0c0,0,0-.1,0-.1h0c0,0,0-.1,0-.1h0c0,0,0-.2,0-.2h0c0,0,0-.2,0-.2h0c0,0,0-.1,0-.1h0c0,0,0-.1,0-.1h0s0,0,0,0l-.2-.7,2-2.5.9-2.3,1.2-.2h0s0,0,0,0h0s0,0,0,0h0s0,0,0,0h0s0,0,0,0h0s0-.1,0-.1h0c0,0,0-.1,0-.1h0c0,0,0-.1,0-.1h0c0,0,0-.2,0-.2h0s0,0,0,0h0s0,0,0,0h0c0,0,0-.2,0-.2h0c0,0,0-.2,0-.2h0c0,0,0-.1,0-.1h0c0,0,0-.1,0-.1h0c0,0,0-.1,0-.1h0c0,0,0-.2,0-.2h0c0-.1,0-.3,0-.3h0c0-.1,0-.3,0-.3h0c0-.1,0-.2,0-.2h0c0-.1,0-.2,0-.2h0c0-.1,0-.2,0-.2h0c0-.1,0-.2,0-.2h0c0-.1,0-.2,0-.2h0c0-.1,0-.2,0-.2h0c0,0,0-.1,0-.1l-.5-.8,1.1-2.5.4-2.5h.2c0-.1.2-.2.2-.2h.2c0-.1.4-.3.4-.3h.1c0,0,.1-.2.1-.2h.1c0,0,0-.2,0-.2h0c0,0,0-.2,0-.2h0c0-.1,0-.2,0-.2h0c0-.1,0-.2,0-.2h0c0-.1,0-.2,0-.2h0c0-.1,0-.2,0-.2h0c0-.1,0-.3,0-.3h0c0-.1,0-.3,0-.3h0v-.3h0c0-.1,0-.2,0-.2h0c0-.1,0-.2,0-.2h0c0-.1,0-.2,0-.2h0c0-.1,0-.2,0-.2h0c0,0,0-.2,0-.2h0c0,0-.1-.3-.1-.3l-.2-.2-.8-.8.4-2.4-.2-2.2v-.5s0,0,0,0h0c0-.1,0-.2,0-.2h0c0,0,0-.2,0-.2h0c0,0,0-.1,0-.1h.3c0,0,.4-.2.4-.2l1.9-.5,1.8-2.3,2.3-12.2v-.2c0,0-.3-.3-.3-.3l-.2-.2-.3-.2h-.3c0,0-.4-.2-.4-.2h-.5c0,0-.5-.1-.5-.1h-.4s-.5,0-.5,0h-.2s-3.6.5-3.6.5h-.3c0,0,0,0,0,0h0s0,0,0,0h0s0,0,0,0h0s0,0,0,0h0s0,0,0,0h0s0-.1,0-.1h0s0-.1,0-.1h0s-.1-4.7-.1-4.7h.5c0,0,.3,0,.3,0h0s1.1,0,1.1,0h0s0,0,0,0h1s0,0,0,0h1.1c0,0,0,.2,0,.2h0s0-.1,0-.1h.3c0-.1,0,.1,0,.1h0s0-.2,0-.2h.3c0-.1,0,.1,0,.1h0s0-.2,0-.2h.3c0,0,.1,0,.1,0h0s0-.1,0-.1l1.4-.4,1.2-.3,2.5-.7.8,2.4,1-.3-.7-2.4h0s0-.2,0-.2h0s0,0,0,0v-.2c0,0,0-.1,0-.1h0c0-.1,0-.3,0-.3v-.2c0,0-.1-.3-.1-.3h0c0,0,0,0,0,0h0s0,0,0,0h0s.6-.2.6-.2h0c0,0-.6,0-.6,0h0s0,0,0,0h0s0-.2,0-.2h0c0,0,0,0,0,0h0s0,0,0,0h0s6.7-1.9,6.7-1.9l2.6,1.1h0s0,0,0,0h0s0-.1,0-.1l.6.3h0s0,0,0,0h0s-.6-.3-.6-.3h0c0,0,0-.1,0-.1h0c0,0-1.2-.6-1.2-.6v-.2c0,0,0,0,0,0h.2s.2-.2.2-.2l.4-1.2h0s.4-1.1.4-1.1h0s.6-1.8.6-1.8h0s0,0,0,0l.3-1v-.2s0,0,0,0h0c0,0,0-.2,0-.2h0c0,0,.4,0,.4,0h.1s0,0,0,0h0s0,0,0,0h0c0,0,0-.1,0-.1h0s0,0,0,0h0s0,0,0,0h0s0,0,0,0h0s0,0,0,0h0s0,0,0,0h0s0,0,0,0h0s0,0,0,0h0s0,0,0,0h0s0,0,0,0h0s0,0,0,0h0s0,0,0,0h0s.2-.5.2-.5h0c0-.1,0-.3,0-.3v-.2c0,0,.1,0,.1,0h0s0,0,0,0h.1c0-.1,4.5-3.2,4.5-3.2l1-.5v-.2c.1,0,.1,0,.1,0h0c0-.1,1.7-1.3,1.7-1.3h0c0,0,.2.1.2.1l.2-.2.4-.3h.2c0-.1,0-.1,0-.1h0s.1,0,.1,0h.1s0,0,0,0h0s0,0,0,0h0s.1,0,.1,0h.1c0,0,0-.1,0-.1h0c0,0,0-.1,0-.1h0c0,0,0,0,0,0h0c0,0,0-.1,0-.1h0c0-.1,0-.2,0-.2h0c0,0,0-.1,0-.1l-.2-.7v-.3c0,0-.2-.5-.2-.5v-.5c-.1,0-.2-.6-.2-.6v-.6c-.1,0-.2-.5-.2-.5v-.5c-.1,0-.2-.5-.2-.5v-.5c-.1,0-.2-.5-.2-.5v-.5c-.1,0-.2-.5-.2-.5v-.5c0,0-.2-.3-.2-.3v-.2s0,0,0,0v-.2s0-.1,0-.1h0v-.4s0,0,0,0h0s0-.1,0-.1h0c0,0,0-.1,0-.1h0s0,0,0,0h0s-.1,0-.1,0h-.1s0,0,0,0h0s-.1,0-.1,0h-.1s-.1,0-.1,0h-.3s-.6,0-.6,0l-6.8-.7-8.1-1-1.5-.2h0s0,0,0,0h0s0,0,0,0h0s0,0,0,0h0s0,0,0,0h0s-7.6.7-7.6.7h-.3s-7.2.7-7.2.7"/>
        </g>
        <g class="cls-13">
          <path class="cls-5" d="M296.5,63l-9.1-6.2-11.7-7.6h-.5s-1-.9-1-.9l-1.3-.9h-.6s-.3-.3-.3-.3l-.4-.6-.2-.2h-.2s-.2,0-.2,0l-.2.2v.2c0,0-.4,2-.4,2v.2c0,0,.2,0,.2,0h.4c0-.1,0-.3,0-.3l.2-.9h.2s3.6,2.4,3.6,2.4h.4s3.5,2.4,3.5,2.4l-.9,2.5-7.7-2.8v-.9c.1,0,.2-.3.2-.3l1-.9v-.2c0,0,0-.1,0-.1h-.1c0-.1-.1-.2-.1-.2h-.3c0,0-.5.5-.5.5l-.3.3-.2.2h0c0,.1,0,.4,0,.4l-.3,1.7-.3.4h0c0,.1,0,.3,0,.3v.2s-.1.2-.1.2v.4c0,0,.1.5.1.5v.2s0,0,0,0v.5s-1.8,7.4-1.8,7.4h.2c0,0-.2.7-.2.7l.7.2,7.7,2.8-1.5,4.2-5.4-2-.2.6h0s-4.2-1.5-4.2-1.5l-.2.6-4.5-1.8h0s0,0,0,0h0s0,0,0,0h0s0,0,0,0h0s0,0,0,0h0s-.2-.4-.2-.4h0s0,0,0,0l.3.5-.4.7.4.2-1.2,2.3-2,3.8-.4-.2-.5,1.1.4.2-5.8,14.5v.4c-.1,0-1.1,0-1.1,0h0c0,.1,0,1.4,0,1.4h1.5s3.3,5.9,3.3,5.9h0c0,.1-1.7,1.1-1.7,1.1v.3s-.2,0-.2,0l-.8-2.8h0l-1.8.5.7,2.6h-.4c0,0-.7-2.5-.7-2.5v-.2c0,0-1.5-2.6-1.5-2.6h.2c0-.1,0-.3,0-.3h-.1c0,0,0,0,0,0h0s0-.2,0-.2h-.1c0,0-.3-.4-.3-.4l-.9-1.5h0s-.4-.7-.4-.7h0c0,0,2.8-7,2.8-7v-.2c-.1,0-.3,0-.3,0l.2-.6h0s-.7-.3-.7-.3l-1.1.6h0s-.5-.2-.5-.2h0s0,.2,0,.2h-.1s0,0,0,0h-.2s-.2.6-.2.6h-.3c0,.1-.2.9-.2.9h-.2c0,0,0,0,0,0h-.3c0-.1,0,0,0,0l-1.3-.6.3-.7-2.5-4.8h0c0,0,.2-.2.2-.2h0c0-.1-.8.4-.8.4l-1.2.9h0s0,0,0,0h0s0,0,0,0h0c0,0,0-.2,0-.2h0c0,0-.2-1.2-.2-1.2l-.5-3,6.9-1.6,3.4-.8,1.9-.4h0s.2,0,.2,0h.3s.4,0,.4,0h.3s.3.1.3.1h.2c0,0,.2.2.2.2h.2c0,.1.2.3.2.3h0c0,.1,0,.2,0,.2v.2c.1,0,.2,0,.2,0h0s0,0,0,0h0s0,0,0,0h0c0,0,0-.1,0-.1h-.2c0-.1,0-.2,0-.2h0c0-.1-.1-.3-.1-.3l-.2-.2h0c0,0-.3-.2-.3-.2h0c0,0-.3,0-.3,0h0c0,0-.7-.4-.7-.4l.4-1.1,1.9.8h0s-.4.9-.4.9h0s0,0,0,0h0s.2,0,.2,0h0s0,0,0,0h0c0,0,0,0,0,0h-.1s.7-1.8.7-1.8h0s0,0,0,0h0s0,0,0,0h0s0,0,0,0h0s0,0,0,0h0s0,0,0,0h0c0,0-.2-.2-.2-.2h-.2c0-.1-.1-.2-.1-.2h-.2c0-.1-.1-.2-.1-.2h-.2c0,0-.1-.1-.1-.1h-.2c0,0-.2-.1-.2-.1h-.2c0,0-.1,0-.1,0h-.1s0,0,0,0h0s0,0,0,0h0s-.1,0-.1,0h-.1s-.1,0-.1,0h-.2s-.2,0-.2,0h-.2s-3.8.9-3.8.9h-.3c0,0-.2.1-.2.1h-.2c0,0-.2.1-.2.1h-.2c0,0-.2.3-.2.3h-.1c0,0-.1.2-.1.2h-.1c0,0-.1.1-.1.1h-.1c0,0-.1.2-.1.2l-.2.2h0c0,0,0,.2,0,.2h0c0,0,0,.2,0,.2l-1.2,1.3h0s0,0,0,0h0s0,0,0,0h0s0,0,0,0l-4,1h0s0,0,0,0h0s0,0,0,0h0s0,0,0,0h0s0,0,0,0h0s0,0,0,0h0s0,0,0,0h0s0,0,0,0h0s0,0,0,0h0s0,0,0,0h0s0,0,0,0h0s0,0,0,0h0s0,0,0,0h0s0,0,0,0h0s0,0,0,0h0s0,0,0,0h0s0,0,0,0h0s0,0,0,0h0s0,0,0,0h0s0,0,0,0h0s0,0,0,0h0s0,0,0,0h0s0,0,0,0h0s0,0,0,0h0s0,0,0,0h0s0,0,0,0h0s0,0,0,0h0s0,0,0,0h0s0,0,0,0h0s0,0,0,0h0s0,0,0,0h0s0,0,0,0h0s0,0,0,0h0s0,0,0,0h0s0,0,0,0l-.6-4.3-.2-2.6.6-.4.7-.3.7-.2h.6c0-.1.5-.2.5-.2h.2s.4,0,.4,0h0c0-.1-.4-.1-.4-.1h-.3s-.7,0-.7,0h-.4c0,0-.5.2-.5.2v-.5c-.1,0-.3-.4-.3-.4l-.4-.8-.4-.6-.8-1.2-.2-2.2v-.8s0,0,0,0h-.1s-3.7-.7-3.7-.7l-1.2-.3h-3.1c0,.1-1,.2-1,.2h-.2s-.3,0-.3,0h0c0,0,0-.2,0-.2v-.2c0,0-.1,0-.1,0h-.2s.4-2.4.4-2.4h-.1c0,0,0-.6,0-.6v-.5s-1.5-7.7-1.5-7.7l-1-3.6-.7-2.6v-.6c-.1,0-.2-.5-.2-.5v-.2c.1,0,.9-3.7.9-3.7l-.8-.2-1.8-.5h0c0-.1-2-.3-2-.3l-.6-.2-1.7-.4-1.9-.5h-.6c0-.1-.6-.3-.6-.3h-.6c0-.1-.6-.3-.6-.3h-.3c0,0-3.4-.9-3.4-.9h-.6c0-.1-.3-2-.3-2h0s-.3,0-.3,0l-.4-2.2.2-1.3h0c0,0,0-.4,0-.4l-1-.2-.3-2-2.4-.8v1.9c0,0,.5,2.7.5,2.7h0c0,.1,0,.1,0,.1l-2.3-.6h-.6c0,0-.5-.1-.5-.1h-.2s-.9,0-.9,0l-.3,1.4-.2,1.3v.5c0,0-.7,3.3-.7,3.3l-.3,1.8v.5c0,0-.5,2.4-.5,2.4v.4c0,0-.1.4-.1.4l-.8,4.8-.5,3-.2.9-.4,2.9-.2,1.9v3.7c0,0,.3,1.1.3,1.1l3.4,1.6-.7,1.4-.6,1-1,1.6,2.1,1.6-.2.2-.5.7,2.8,2.2-2.5,3.4-7.6,9.3h0c0,0-1.6,2-1.6,2l-.2.3h0s0-.1,0-.1l-.9,1.1-1.2,1.5-.7.8-1.1,1.3-.8,1-.9,1.2-.4.5h0c0,0-.6.8-.6.8l-.7.9-.8.9-.6.6-.4.4h-.1c0,.1,0,.1,0,.1h0s0,0,0,0h0l.4.4.5.6.5.5.6.6.2.2.2.2h.1c0,.1.2.3.2.3v.2c.1,0,.3.3.3.3h.1c0,.1.2.4.2.4v.2c.1,0,.2.2.2.2v.2c.1,0,.2.2.2.2h0c0,.1,0,.3,0,.3v.2c.1,0,.3.4.3.4v.3c.1,0,.2.2.2.2v.2c0,0,.1.1.1.1v.2c0,0,.2.4.2.4l.3,1,.4,1.2.8,3h0c0,.1,0,.1,0,.1h0c0,0,.4,2,.4,2l.4,2.2v.7c0,0,.3.9.3.9l.4,2.1.6,3.5v.6c.1,0,.2.5.2.5v.2s0,0,0,0h0c0,0,0,.3,0,.3v.2c0,0,.2.2.2.2v.2c.1,0,.2.1.2.1l.2.2,1.7,1.2.2-.4,2.5-4,1-1.6,2.4-3.7h.1c0-.1,0-.2,0-.2h.1c0-.1,0-.2,0-.2h.1c0-.1,0-.2,0-.2h0c0,0,.1-.1.1-.1h.2c0-.1.2-.2.2-.2h.2c0,0,.1-.2.1-.2h.1s-.5,3.1-.5,3.1v.9c-.1,0-.4,3.6-.4,3.6l-.3,5.3v1.6c-.1,0-1.2,17.8-1.2,17.8l-.2,1,2.2,2.2,5,5.2,1.7,1.5,3.2,3.1h0s2.7,2.6,2.7,2.6l1.5-1.9,4-4.4,1.1-2.5.7-1.6,1-1.2,8.9-7.4.5-.4.6,1.9,1.2,3.1.8-.3,4.3-1.7,3.4-1.4,2-.8,1.5-.6,1.5-.7,6.3-2.8,2.2-1,2-.7.7,7.1.2,1.2.3,1.3.3.7.5,1,.2.7v.3c.1,0,.1.4.1.4v.4l-.2.5-.8,1.2.5-.2h.7s.3.1.3.1l.8.5.7.5.5.5.3.4.4.7.2.4v.4c0,0,.1.5.1.5v.6h0v.4h.7s0-.4,0-.4h0s0-.4,0-.4l.2-.4.2-.4.3-.4.3-.4.4-.4.6-.4.6-.3.6-.4.8-.5.3-.2h.1c0-.1.3-.5.3-.5h0s.2,0,.2,0h0s.1.1.1.1v-.2c.1,0,.3-.2.3-.2v-.2c.1,0,0,0,0,0v-.3c.1,0,.3-.4.3-.4l.3-.6h.3c0,.1.1-.1.1-.1h.4c0,.1.2.2.2.2l.7-.4h0c0,0,.2-3.2.2-3.2l1-20.3.2-3.2h0s0-.4,0-.4h0c0,0,0-.2,0-.2l.2-.4h0s0,0,0,0h0s0,0,0,0h0s0,0,0,0h-.1s0,0,0,0l-.7.6-.2.3h0s-1.9,3-1.9,3l-.2,4.6v2.1c0,0-.2,1.9-.2,1.9l-.2,3.4v.3s-.1,2.2-.1,2.2l-.9,9.5-2.3-.3.6-4.5.3-2.1h-.2s.8-3.4.8-3.4l-1.5-.2v-.8c.1,0,0,0,0,0h0c0,0,0-.1,0-.1h0s0,0,0,0h0s0,0,0,0h0s0,0,0,0h0c0,0,0,0,0,0v.8c-.1,0-.4,0-.4,0l-.9,6-.6,3.9-2.8-.4,3.3-17.2-.3-.2-.7-.6,1.3-1.8,1.5-2.1v-.2c0,0,0,0,0,0h0c0,0,0-.1,0-.1h-.1s0,0,0,0h0s0,0,0,0h0s0,0,0,0h0s0,0,0,0h0s0,0,0,0h0s-4.3,4.1-4.3,4.1l-.6-.7-.2-.2.2-.5.3-.8-.2-1.6h0c0,0-.3-.9-.3-.9l4-1.6,1.6-.7,4.2-5.1.3-.3.3-.4h0c0,0,0-.1,0-.1h0c0,0,0-.1,0-.1h0s0,0,0,0h0s-.7,0-.7,0l-1.3,1.4-2.9,3.2-1.9.3v-.5s.4,0,.4,0l1.3-.2,3.6-4v-.3s-.2,0-.2,0l-5,.9h0c0,0-5.9,1.1-5.9,1.1h0c0,0-1.6.4-1.6.4v-.2s0-.3,0-.3v-.3s0-.3,0-.3v-.3c0,0-.1-.3-.1-.3v-.3c0,0-.2-.3-.2-.3v-.3c0,0-.2-.3-.2-.3v-.3c0,0-.2-.3-.2-.3v-.3c0,0-.2-.3-.2-.3l12.4-2.3v.8s.5,0,.5,0v-1.2s0,0,0,0v-.4c.1,0,5.9,2.2,5.9,2.2h0s.6.2.6.2l.8-1-1.2-2.3-4.8-1.9h0c0,0-1.4-.7-1.4-.7v-1.1s-7.5-2.4-7.5-2.4l.3-2.8h.6c0,0,.3-.6.3-.6l18.3,6.6v.2c0,0,.1.2.1.2v.3c0,0,.2.2.2.2v.2s0,.2,0,.2v.2s0,.2,0,.2h0s0,.5,0,.5h0s0,0,0,0h0s0,0,0,0h0s0,0,0,0h0c0,0,0,0,0,0v-.5s-.2,0-.2,0v-.3s0-.2,0-.2v-.3c0,0,0-.2,0-.2h0c0-.1,0-.3,0-.3h0c0-.1,0-.3,0-.3v-.3c-.1,0-.3-.3-.3-.3h0c0-.1,0-.2,0-.2v-.2c-.1,0-.4-.3-.4-.3v-.3s-3.1-3.9-3.1-3.9l-14.7-5.3,1.6-4,2.8,1.1-.3.7,3.7,1.3.3-.9,19.9,7.2-.3.9,1.2.4v.4s.1.1.1.1h0c0,.1,0,.6,0,.6h-.4c0,.1,0,.2,0,.2l1.1-.4h0s0,0,0,0h0s0,0,0,0h0s0,0,0,0h0s0,0,0,0h0s0,0,0,0h0s0,0,0,0h0s0,0,0,0h0s0,0,0,0h0s0,0,0,0h0s0,0,0,0h0s0,0,0,0h0s0-.4,0-.4l.2-.4.2-.4.2-.4.3-.4,6.8-5.6.5-.4.2-.3v-.4s0-.4,0-.4l-.2-.4-.4-.3-17.8-6.4.6-1.8,19.9,7.2h0c0,0,1.4.5,1.4.5l25.4-20.6,16-13-12.3-7.6-1.5-.9h0c0-.1,0-.3,0-.3h0c0-.1,0-.2,0-.2h-.2s-.5-.1-.5-.1h-.8c0,0-.8-.2-.8-.2h-.4s-.4,0-.4,0h-.6s-1.3,0-1.3,0h-1.1s-1,0-1,0l-1.8.2-1.2.2-1.4.3-1.6.3-1.2.3-1.7.5-2.1.8-2.2,1-.6.3-.5.3-.4.3-.4.3-.4.3-.3.3-.3.3-7.6,9.4"/>
        </g>
        <g class="cls-16">
          <path class="cls-5" d="M125.5,241.9l-1.1.3h-.3c0,0-.2.1-.2.1h0s0,0,0,0h0s0,0,0,0h0s-.1,0-.1,0v-.5c0,0-.1,0-.1,0h0c0,0-.3,0-.3,0h0s-1,0-1,0h0s-.6-.2-.6-.2l-.5-.2-.7-.3-1.5-.7h0c0-.1-.8-.2-.8-.2h0c0-.1-.1-.2-.1-.2l-.5-.2-.8-.4v-.2s-.7,0-.7,0l-.4-.2-2.6-1.1h0c0-.1-.5-.1-.5-.1h0c0,0-.6-.3-.6-.3l-.7-.3-.9-.4-1.6-.7-1.4-.6-1.2-.5-3.8-1.7h-.3c0-.1-.3-.2-.3-.2l-.5-.2-.6-.3v.3c0,0,0,0,0,0h0s-1.1.1-1.1.1l-1.9.2h-.3s-.5,0-.5,0h-.6c0,0-.6.1-.6.1h-.8c0,0-1,.2-1,.2h-.6c0,0-2.7.3-2.7.3h-.9c0,0-.9.2-.9.2h-1.1c0,0-.4.1-.4.1h-1.2c0,.1-.8-.7-.8-.7l-2.9.2v.6c0,0-1.9.1-1.9.1h-1.1c0,0-3.1.3-3.1.3l-2.3.2h0s0-.2,0-.2v-.2c0,0-.1-.3-.1-.3v-.2s0-.2,0-.2v-.3c0,0-.1-.4-.1-.4v-.3c0,0-.1-.5-.1-.5v-.6c-.1,0-.3-1-.3-1v-.6c0,0-.1-.3-.1-.3h0c0-.1,0-.7,0-.7v-.5c0,0-.2-.4-.2-.4v-.2s-.1-.5-.1-.5h0c0-.1,0-.5,0-.5v-.2s-.1-.5-.1-.5v-.2s-.2-.8-.2-.8h0s0-.1,0-.1v-.2s-.1-.3-.1-.3h0c0-.1-.2-.9-.2-.9h-.3s0-.3,0-.3v-.3s0,0,0,0h0c0,0-1.1,0-1.1,0h-2.3c0,0,0-.1,0-.1h-.1c0-.1-.4-4.3-.4-4.3l-.2-2.8v-.9c-.1,0-.4-2.8-.4-2.8l-.3-3.6v-1.3s0-1,0-1l-.7-1.5-1.4-2.9-.3-.5-.4.3-.5.5-1,1.1-1.6,1.3-.8.5-1,.6-.6.4-.7.3-.8.3h-.5c0,0-.2,1.5-.2,1.5l-2,1.6-1.9,1.8-.4.8-.6,5.4-.2.9-.5.6-2.8,2.5-.9.7h-2.3s-1.2,0-1.2,0h-.5s-10.3-.3-10.3-.3v.4s.5,0,.5,0v.5s0,0,0,0v.2c0,0,.2.4.2.4l.2.4,6.3.2h.9s0,.3,0,.3v2s0,.4,0,.4v.2s-.1.5-.1.5v.3s0,.5,0,.5v.4s0,.5,0,.5v.6c0,0,0,.1,0,.1v.3s0,.6,0,.6v.6s0,.4,0,.4v.2s0,.5,0,.5v.5s0,.8,0,.8v.3s0,.6,0,.6v.5s0,.1,0,.1v.8s0,.4,0,.4v.3s0,.3,0,.3v.4s-.1.6-.1.6h0c0,0,0,.3,0,.3v.4s0,.4,0,.4h0s0,0,0,0v.2s0,.2,0,.2v.3s0,1,0,1v.5s0,.4,0,.4l-.2.8v.7c0,0-.1.6-.1.6v.2s0,.3,0,.3h0c0,.1.2.2.2.2v.2c.1,0,.2.2.2.2v.2s.1.2.1.2v.2s0,.4,0,.4h-.2c0,0,0,0,0,0v1.8c0,0,.2,0,.2,0v.2s0,1.2,0,1.2h.4s.1,0,.1,0v1.8c0,0-.3.5-.3.5v.2c-.1,0-.3.3-.3.3h0c0,.1,0,.3,0,.3v.4c0,0,0,.1,0,.1v2.1s0,.7,0,.7v.9s0,.4,0,.4v.3s0,1.5,0,1.5v.4s0,.2,0,.2v.3c-.1,0-.2.3-.2.3l-.3,1.2v.3c0,0-.3,1-.3,1v.3c0,0-.1.3-.1.3v.3c0,0-.2,1-.2,1v.7s-.1,1.4-.1,1.4v.6s0,.7,0,.7v.7s0,.5,0,.5v1.3c.1,0,.2.4.2.4v.4c0,0,.2.9.2.9v.6c.1,0,.3.5.3.5l.2.6v.2s0,.2,0,.2v.2c0,0,.2.2.2.2h0c0,.1.1.2.1.2v.3c.1,0,.5.7.5.7l.3.6.4.6.4.5.7.9.5.7.3.4.9,1,.8,1.1h0c0,.1.5.8.5.8l.2.3,1.1,1.4h1.2c0,0,.9.3.9.3l.6.3.6.5.4.4.2.3v.2c.1,0,.1,0,.1,0h0c0,.1,0,.1,0,.1l.4.6.5.6.7.8.8,1,.5.6.4.5.9.9h0c0,0,.4.4.4.4l1.2,1.1.2.2.3.3h0c0,.1.1.3.1.3v.2c.1,0,.2.2.2.2l.2.4h0c0,0,.1.4.1.4l.3,1,.3.9v.5c.1,0,.2.5.2.5l.3.5.4,1,.2.5h0s-.2.7-.2.7l.4.7.2.3.7.8v.3c.1,0,.6,1.1.6,1.1v.3c.1,0,.6,1.1.6,1.1l.2.3v.2c0,0,.2.2.2.2v.2c0,0,.1.2.1.2v.3c0,0,.1.2.1.2v.3c0,0,.1.3.1.3v.6s0,.4,0,.4v.2s.1.4.1.4l.2.7.2.2h.3c0,.1,0,.2,0,.2v.2c.1,0,.3.2.3.2l.2.2.2.2h.2c0,.1.2.3.2.3l.4.2h.2c0,.1.2.2.2.2h.2c0,0,.2.2.2.2h.2c0,0,.2.1.2.1h.2s1.2.2,1.2.2h.3s.5.2.5.2h.4c0,.1.3.2.3.2h.3c0,.1.3.3.3.3h.2c0,.1.2.3.2.3l.3.3.3.2.2.2.2.2.3.3,1.3,1.8.5.7,1.8,2.4.4.5h0c0,.1.2.3.2.3l.2.2.2.2v.3s0,.3,0,.3v.3s.9.8.9.8l.5.2,1.3.5h.1c0,.1.8.8.8.8l.6.5.4.4.6.7.5.4.7.5.5.2h.1c0,.1.1.3.1.3h.1c0,.1,0,.3,0,.3v.2c0,0,.2.2.2.2h0c0,0,0,.3,0,.3l.4,1v.2c0,0,.1,0,.1,0h0s.2.5.2.5h0c0,0,.2.7.2.7h0s0,0,0,0l-.2.4v.4c.1,0,.1,0,.1,0h0s0,0,0,0v.2c0,0,.5,1.2.5,1.2l.5,1.4v.2c0,0,.2.2.2.2v.2c.1,0,.2.2.2.2v.2c.1,0,.2,0,.2,0l2.2,3.2,4.2,6.1h.1c0,0,.7.8.7.8h0c0,0,.2-.1.2-.1h.4c0-.1,0-.1,0-.1l3.4,4.9h0s.7.2.7.2l20.1-9.5,4.3-.4-1.2-7.6-.8-5.1v-.4c0,0,.1,0,.1,0h.2c0,0,.1-.1.1-.1h.1s.1,0,.1,0h.1s.2-.1.2-.1h.2c0,0,.1-.2.1-.2h.1c0,0,.1-.2.1-.2h.1c0,0,.1-.2.1-.2h.1c0,0,0-.2,0-.2h0c0-.1,0-.2,0-.2h0c0-.1,0-.2,0-.2h0c0-.1,0-.3,0-.3h0c0-.1,0-.3,0-.3h0c0-.1,0-.3,0-.3v-.2s0-.2,0-.2v-.2s0-.1,0-.1v-.2s0-.2,0-.2v-.2s0-.2,0-.2v-.2s0-.2,0-.2h0c0-.1,0-.3,0-.3v-.2s0-.2,0-.2v-.2s0-.2,0-.2v-.2s-.1-.2-.1-.2v-.2s0-.2,0-.2v-.4c0,0-.2-.5-.2-.5v-.4c0,0-.1-.3-.1-.3v-.3s0-.3,0-.3v-.3s0-.2,0-.2v-.4s0-.3,0-.3v-.2s0-.3,0-.3v-.2s0-.2,0-.2v-.4c0,0,.2-.4.2-.4v-.5c.1,0,.3-.5.3-.5h0c0-.1,0-.3,0-.3v-.2c0,0,.2-.3.2-.3h0c0-.1.2-.5.2-.5h0c0-.1.1-.3.1-.3l.3-.5v-.2c.1,0,.3-.3.3-.3l-.5-.8-1.3-2.2-.4-.7-5.9-10.6-.2-.3h-.2s-.2-.3-.2-.3h0c0,0-.3-.6-.3-.6l-1.8-2.6-.3-.5-.4-.5-1.3-1.7h0c0-.1,0,0,0,0h.6s2.8,1.1,2.8,1.1l1.1.4h.1c0,0,.9.6.9.6l.9.5.7.4h0s0,0,0,0h0s0,0,0,0h0s0,0,0,0h0s0,0,0,0h0s0,0,0,0h0s0,0,0,0h0s.1,0,.1,0h0s0,0,0,0h0s0,0,0,0h0s0,0,0,0h0s0,0,0,0h0s0,0,0,0h0s0-.2,0-.2h0s-.2-1-.2-1l.6.2h.6c0,0,.2,0,.2,0l1.1.2h0s.4,0,.4,0h.2s.8.2.8.2h.6c0,.1,0,.1,0,.1h1.1s.1,0,.1,0h.6c0,0,1-.3,1-.3l.9-.2,1.3-.2h.6c0-.1.3-.2.3-.2h.1s0,0,0,0h0s0,0,0,0h0s.2-.2.2-.2h0s0,0,0,0h0s0,0,0,0h0s0,0,0,0h0s0,0,0,0h.1s.6-.1.6-.1l.9-.2h.4c0,0-2.2-13.5-2.2-13.5l-1.2-7.3-.8-4.4-1.6-10.2,5.9-2.1h.1s1.5-.1,1.5-.1l3.6-.2h0s0,0,0,0h.2s0-.4,0-.4v-.2s0-1.5,0-1.5h-.7c0,0-3.6-11.5-3.6-11.5l-2.8.9-1,.3-1.5.5h0s-1.6.5-1.6.5h-.3"/>
        </g>
        <g class="cls-14">
          <path class="cls-5" d="M163.1,328.9h0c0,0,0,0,0,0h0s0,0,0,0h0s0,0,0,0h0s0,0,0,0h0s0,0,0,0h0s0,0,0,0h0s0,0,0,0h0s0,0,0,0h0s0,0,0,0h0s0,0,0,0h0s0,0,0,0h0s0,0,0,0h0s0,0,0,0h-.1c0,0-5.3,0-5.3,0l-1.2-7.1.8-1.3,2.3.2,1.6.4,1,.3.7.3v.5c.1,0,.6.2.6.2l.3-.3,1.1.7,1.5,1.1,1,.9v.3c0,0,.2.4.2.4h.4s2.7,3.4,2.7,3.4v.7c0,0,.2.5.2.5h.7l.4-.4.6-.5.4-.4-1.9-3.2v-.2c-.1,0-.2-.2-.2-.2v-.2c0,0,0-.1,0-.1v-.2s0-.2,0-.2h0c0-.1.1-.3.1-.3h0c0,0,.3-.4.3-.4l.3-.4h0c0,0,0-.2,0-.2l.7-1v-.3s0-.2,0-.2h-.2c0-.1,0-.5,0-.5l-.7-.6v-.4s.3,0,.3,0l.8.5h.4s.1,0,.1,0h.1c0-.1.3-.2.3-.2l.6-.9v-.2c.1,0,.2,0,.2,0h0c0,0,0-.2,0-.2h.2c0-.1.3-.4.3-.4l.5-.4h.2c0-.1.6-.7.6-.7l.3-.3.2-.3.4-.4.3-.3.6.4h0s0,0,0,0h0s0,0,0,0h0s0,0,0,0h-.1c0,0-.5-.5-.5-.5h0s0-.1,0-.1h0c0,0-.2-.2-.2-.2l.2-.3.3.2h0s.6-.8.6-.8l-.2-.3.2-.3.2.2h0c0,0,0,0,0,0l1.2-1.5.8-1.1.2-.3.4.4h.1s0,0,0,0h0c0-.1-.3-.5-.3-.5v-.2c0,0,.3-.3.3-.3h0c0,0,.1-.2.1-.2l.4-.5h0s.1-.2.1-.2l.2-.3.4-.7h0s.1-.5.1-.5l.3-.2.3-.2.3-.2h.1c0,0,0-.2,0-.2h0c0-.1,0-.2,0-.2h0c0,0,0-.2,0-.2h0c0,0,0-.2,0-.2h0c0,0,0-.2,0-.2h0c0,0,0-.2,0-.2h0c0,0,0-.1,0-.1h0c0-.1,0-.2,0-.2h0s0,0,0,0h0c0,0,0,0,0,0h0s0,0,0,0h0s0,0,0,0h0s0,0,0,0h0s0,0,0,0h0s0,0,0,0h0s0,0,0,0h0s0,0,0,0h0s0,0,0,0h0s0,0,0,0h0s0,0,0,0h0s0,0,0,0h0s0,.1,0,.1h0c0,0,0,.1,0,.1h0s0,.1,0,.1h0s0,0,0,0h0s0,0,0,0h0s0,.1,0,.1h0c0,0,0,.1,0,.1h0c0,0,0,.1,0,.1h0c0,.1-1.5,2-1.5,2l-.3-.2h-1c0,.1-.3.5-.3.5h0s0,0,0,0l-.5-.3h0c0-.1-2.1-1.5-2.1-1.5h0c0,.1-.5-.2-.5-.2h0c0-.1-2.3-1.6-2.3-1.6l-.6-.4-2-1.3h0c0,.1-.5-.2-.5-.2h0c0-.1-2.8-1.9-2.8-1.9l-.8,3.9,1.3.3.5.2v.3c-.1,0-.7-.2-.7-.2h0c0,.1,0,.3,0,.3l-2.8,4.5-1.3-.2-1-.6,1.8-2.8-2.4-5.5-1.4-3.2-1.5-1-.5-.3h0c0,0,0,0,0,0l-.3-.2-.4-.2-.4-.2-.4-.2-.3-.2-.3-.2.7-1.1h.6c0,.1,2.7,1.9,2.7,1.9h0s1.7-2.6,1.7-2.6h0c0,0,.4-.6.4-.6h0s1.5-2.3,1.5-2.3h.1s3.6.4,3.6.4l-.2,1.3,1,.7v.2c-.1,0-.2,0-.2,0h0c0,0-.3-.1-.3-.1l-2.1,3.3.7.4,1.9-2.9.4-.2.4-.2h.1c0,0-2.3,3.8-2.3,3.8l7.4,4.7.5.3,2.7,1.7,1.3-.2,2.7-3.8,2.6-3.5h0c0-.1,1.7-2.4,1.7-2.4l2.8-3.8-.3-1.7h0s0,0,0,0h0s0,0,0,0h0s0,0,0,0h0s0,0,0,0h0s0,0,0,0h0l-1.3-.6h0s-1.5-.7-1.5-.7l-1-.5-1.2-.6h0s0,0,0,0h0s0,0,0,0h0s0,0,0,0h-.2s-2.5-1.1-2.5-1.1l-1.8-.9-3.2,5-1.3-.8.2-.3h0c0-.1.5-1,.5-1l1.3-2,1-1.5h0s0,0,0,0h0s0,0,0,0h0s0,0,0,0h0s0,0,0,0h0s0,0,0,0h-.3c0-.1-.7-.5-.7-.5l-1.7-.8-.5-.2-2-.9h0c0,0-1.3-.5-1.3-.5v-.3c.1,0,1.2.4,1.2.4l1.3-1.7,1.4.6,2.9,1.3.7.3h0s0,0,0,0h0s0,0,0,0h0s0,0,0,0h0s0,0,0,0h0s0,0,0,0h0s0,0,0,0h0s0,0,0,0h0s4.3,1.8,4.3,1.8h0s0,0,0,0h0s0,0,0,0h.3s.8.3.8.3h0c0,0,.4.3.4.3v-.2c0,0,.3,0,.3,0h0c0,0,0,.1,0,.1h0s.1,0,.1,0h.4c0,0,.4.3.4.3h.3c0,.1,0,.2,0,.2h0s0,0,0,0h0s0,0,0,0h0s0,0,0,0h0s.3.1.3.1h0c0,0,0,.1,0,.1h.1c0,0,.3.2.3.2l.4.2.5.2h.3c0,.1.4.2.4.2h0s0,0,0,0h0s0,0,0,0h0s.4.2.4.2l6.7-15.5h-.3c0-.1,1.5-3.7,1.5-3.7l.4-.8-1.7-.8-6,1.5h0c0,0-.2.1-.2.1h0c0,0-.2.1-.2.1v-.2c0,0-.3,0-.3,0v.2s-.1,0-.1,0h0c0,0-.2,0-.2,0h0c0,0-.4-1.6-.4-1.6l2.9-.7,1.3-2.9.4.2-.6,1.4.7.3.8.3,2.8-.7,1.1-.3h.2s0,0,0,0h0s0,0,0,0h.1c0,0,0,0,0,0h0c0,0,.2,0,.2,0h0c0,0,0,0,0,0h0c0-.1,0,0,0,0h0s1.2-.3,1.2-.3l.5-1.1h.2c0-.1.1-.2.1-.2h0c0,0,.2,0,.2,0h0s0,0,0,0h0c0,0,0,0,0,0v-.2c-.1,0,1.5-3.8,1.5-3.8v-.3c.1,0,2.1-4.6,2.1-4.6l-4.5,3.6-.3-.3h0s-.8-1-.8-1l-.3-.3.4-.3.7-.5-.8-1,2.2-1.7.8,1-.5.4.4.5,2-1.5-.4-.5h-.2c0,.1,0,0,0,0l-.6-.8.3-.2-.6-.7.3-.3.8-.6.4-.4h.9c0,0,0-.8,0-.8l2.8-2.2.3.3.6-.5-.2-.3,3.5-2.8.3-.2.5-.4.3.3.6-.4-.3-.3,1.2-.9.9-.7,1-1-1.2-1.6-4-5.2-4.1-6.1v-.2c-.1,0-2.3-3.5-2.3-3.5l-3.9-6.3-1.3.7h0s0,0,0,0l-.6.3-1.7,1.1-2.6,1.6-1.4-4-2.9,1.1-.9.3-2.5.9h-.4c0,.1-2.9.9-2.9.9v.4c0,0-.2,0-.2,0h-1.1c0,.1-.7.2-.7.2h0c0,0-1.5-.7-1.5-.7l-3.6-1.5-2.6-1.1h0s.2,1.9.2,1.9v.6c0,0-.2,0-.2,0v.5s0,.2,0,.2v.5s0,0,0,0v.9c0,0,.1.8.1.8v.2s0,0,0,0h0c0,0-.1.1-.1.1h-.4c0-.1,0,0,0,0h-.2c0-.1-2-1-2-1h-.9c0-.1,0-.2,0-.2h-.8c0,0,0,0,0,0h0c0,0-.2.2-.2.2h-.1c0,0,0,.1,0,.1h-.2c0,0,0,0,0,0h-.1s-.1,0-.1,0v.3c0,0-3.7,1.9-3.7,1.9h0s-.2,0-.2,0l-5.5,2.8-.4.2-.7.3-1.6.8h0s-.3.1-.3.1h0s-1,.5-1,.5l-.5.3h-.2c0,.1-.2,1.5-.2,1.5l-2-.3-.5.2-6.1,3.1.4,1.1h-.3c0,.1,0,.5,0,.5l-.8.4-4,1.8-1.5.5h0s-.1,0-.1,0l-1,.4-.9.3h-.1c0,0-.1,0-.1,0h-.2s-.4-.1-.4-.1h0s0,0,0,0h0c0,0,0,.1,0,.1h0c0,0,0,.1,0,.1h0s0,0,0,0h0s0,0,0,0l-.4.2-.5.2-.4.2-.7.3h-.3c0,.1,0,.1,0,.1h-.1s3.6,11.5,3.6,11.5h.7c0,0,0,1.5,0,1.5v.2s0,.4,0,.4h-.2s0,0,0,0h0s-3.6.2-3.6.2h-1.5c0,.1-.1.1-.1.1l-5.9,2.1,1.6,10.2.8,4.4,1.2,7.3,2.2,13.5h-.4c0,0-.9.2-.9.2h-.6c0,0-.1.1-.1.1h0s0,0,0,0h0s0,0,0,0h0s0,0,0,0h0s0,0,0,0l-.2.2h0s0,0,0,0h0s0,0,0,0h-.1s-.3,0-.3,0h-.6c0,.1-1.3.3-1.3.3l-.9.2-1,.3h-.6c0,0-.1,0-.1,0h-.5s-.6,0-.6,0h0s-.6-.1-.6-.1l-.8-.2h-.2s-.4,0-.4,0h0s-1.1-.3-1.1-.3h-.2s-.6,0-.6,0l-.6-.2.2,1h0s0,.2,0,.2h0s0,0,0,0h0s0,0,0,0h0s0,0,0,0h0s0,0,0,0h0s0,0,0,0h0s-.1,0-.1,0h0s0,0,0,0h0s0,0,0,0h0s0,0,0,0h0s0,0,0,0h0s0,0,0,0h0s0,0,0,0h0s-.7-.4-.7-.4l-.9-.5-.9-.5h-.1c0,0-1.1-.5-1.1-.5l-2.8-1.1h-.6s0,0,0,0h0c0,.1,1.3,1.8,1.3,1.8l.4.5.3.5,1.8,2.6.3.5h0c0,0,.2.3.2.3h.2s.2.3.2.3l5.9,10.6.4.7,1.3,2.2.5.8-.2.3v.2c-.1,0-.4.5-.4.5v.2c-.1,0-.2.1-.2.1l-.2.4h0c0,.1-.2.5-.2.5v.2c0,0-.1.1-.1.1h0c0,.1-.2.6-.2.6v.5c-.1,0-.2.4-.2.4v.4c0,0-.1.2-.1.2v.2s0,.3,0,.3v.2s0,.3,0,.3v.4s0,.2,0,.2v.3s0,.3,0,.3v.3s0,.3,0,.3v.4c0,0,.2.5.2.5v.4c0,0,.1.2.1.2v.2s0,.2,0,.2v.2s0,.2,0,.2v.2s0,.2,0,.2v.2s0,.1,0,.1h0c0,.1,0,.3,0,.3v.2s0,.2,0,.2v.2s0,.2,0,.2v.2s0,.1,0,.1v.2s0,.2,0,.2v.2s0,.2,0,.2h0c0,.1,0,.3,0,.3h0c0,.1,0,.3,0,.3h0c0,.1,0,.3,0,.3h0c0,.1,0,.2,0,.2h0c0,.1,0,.2,0,.2h-.1c0,0-.1.2-.1.2h-.1c0,0-.1.2-.1.2h-.1c0,0-.1.2-.1.2h-.2c0,0-.2.2-.2.2h-.1s-.1,0-.1,0h-.1s-.1,0-.1,0h-.2c0,0-.2.1-.2.1v.4c0,0,.9,5.1.9,5.1l1.2,7.6v.3c0,0,.6,1.1.6,1.1l5.5-1h0c0,0,0,.1,0,.1h0s0,0,0,0h0s0,0,0,0h0c0,0,0,0,0,0h0c0,0,0,0,0,0h0s0,0,0,0h0s.2.2.2.2h.2c0,0,0,.2,0,.2h.1c0,.1,0,.2,0,.2h0c0,0,0,.1,0,.1h0s0,0,0,0h.2s0,0,0,0h0s0,0,0,0h0s.6.4.6.4h0c0,0,.2.2.2.2h.2c0,.1.2.3.2.3l.8.5h0s0,0,0,0h0s0,0,0,0h.2s.3,0,.3,0h0s0,0,0,0l6.7-1.1h.4c0,0,.1,0,.1,0h0c0,.1,0,.2,0,.2h0c0,.1,0,.2,0,.2h0c0,.1,0,.2,0,.2h0c0,.1.2,1.5.2,1.5l-5.6-.3-.5.2v.6c0,0,1.2.9,1.2.9h1.7c0,0,.4.4.4.4l.4.9-.2,3.7-.4,1.4v1.9c0,0-.2,1.1-.2,1.1l-.2,1.1v1.2c0,0,.4,1.3.4,1.3l.8.5h.8c0-.1,1.4-1.1,1.4-1.1l.9.9h.2c0,0,.1,0,.1,0h.1c0-.1,0-.3,0-.3l-.9-1v-.3s.5-.5.5-.5l.3-.5,1.4-.7,5.1-5.1,1,1h.2c0,.1.1,0,.1,0v-.2c.1,0-1-1.2-1-1.2l.3-.5.4-.5.3-.5h.4c0,0,.6-.4.6-.4l1.1-.8,1.6-1,.8-.4h.8s.4-.2.4-.2l.2-.3v-.3c0,0,0-.5,0-.5l.4-.5h.5c0,0,.3.3.3.3h0s0,0,0,0h0s0,0,0,0h0s0,0,0,0h0c0,0,0,0,0,0l-1.1-1.2,9.8-9.1,1.2,1.2h0s0,0,0,0h0s0,0,0,0h0s0,0,0,0h0s0,0,0,0h0s0,0,0,0h0s0,0,0,0h0s0,0,0,0h0s0,0,0,0h0s-2.2-2.4-2.2-2.4l-.4-.4-1.6-1.7h0"/>
        </g>
        <g class="cls-15">
          <path class="cls-5" d="M324.6,229.1v-.5c0,0,.4-.2.4-.2h.7c0-.1.8-.3.8-.3h.5c0-.1.3-.2.3-.2l.7-.3.5-.3,1.9,2.7,4.3-.4.7.6.2,2.3,2.4,3.5.4-.2.9,1.4-.5.4-1.5,3h-1.5c0,.1-.1.2-.1.2v.2s.2,0,.2,0l7.2-.6h1.8c0-.1.2-.2.2-.2h.2c0-.1.2-.4.2-.4l2.2-6.2,1.5-.4.3-.4,1.5-4.1,1.3-1.1h.1s0,0,0,0l.2-.6v-.3s0-.5,0-.5l-.2-.5-1.7-1.4,3.3-8,2.9-2.2.3-.9v-.6s-.1-.4-.1-.4l-.9-1.3.8-.6-6.4-10.4-7.7,1.3v-.4s-.2-.5-.2-.5h0s0-.1,0-.1h0s0,0,0,0h0s0,0,0,0h0s0,0,0,0h0c0,.1.5,1.2.5,1.2v.3s-2.2,7.2-2.2,7.2h-.2c0,.1-1.2-.3-1.2-.3v-.4c.1,0-2.5-.8-2.5-.8v.4c-.1,0-2-.5-2-.5l-3.2,4.3h-2.9s-.2,0-.2,0l1.6-2.8h0c0,0,2-3.6,2-3.6l-.5-.3v-2.6s-1.2-2.2-1.2-2.2l.3-.2.9,1.6h0s0,0,0,0l-1-1.7,1.9-.7v2c.1,0,.1,0,.1,0h0s0,0,0,0h0s0,0,0,0h0s0,0,0,0h0s0,0,0,0h0s0,0,0,0h0s0,0,0,0h0s0,0,0,0h0s0,0,0,0h0s0-.1,0-.1h0s0,0,0,0h0s0,0,0,0h0s0,0,0,0h0s0-.1,0-.1h0c0,0,0-.2,0-.2h0s0,0,0,0h0s0,0,0,0h0s0,0,0,0h0s0,0,0,0h0s0,0,0,0h0s0,0,0,0h0s0,0,0,0h0s0,0,0,0h0s0,0,0,0h0s0,0,0,0h0s0,0,0,0h0c0,0,0-.2,0-.2h0s0-.1,0-.1h0c0-.1,0-.2,0-.2h0c0,0,0,0,0,0h0s0,0,0,0h0s0,0,0,0h0c0,0,0-.2,0-.2h0s0,0,0,0h0c0-.1,0-.2,0-.2h0s0,0,0,0h0s0,0,0,0h0s0,0,0,0h0s0,0,0,0h0s0,0,0,0h0s0,0,0,0h0s0,0,0,0h0s0,0,0,0h0s0,0,0,0h0s0-.1,0-.1h0s0-.1,0-.1h0c0,0,0-.1,0-.1h0s0,0,0,0h0s0,0,0,0h0s0,0,0,0h0s0,0,0,0h0s0,0,0,0h.1c0,0,.1,0,.1,0h.1s0,0,0,0h.2c0,0,.3-.2.3-.2h.1s.2,0,.2,0h0s0,0,0,0h0s.1,0,.1,0h0s0,0,0,0h0s0,0,0,0h0s0,0,0,0h0s0,0,0,0h0s0,0,0,0h0s0,0,0,0h0s0,0,0,0h.2c0,0,.2-.2.2-.2h.2c0,0,.4-.2.4-.2h.2c0,0,.2-.1.2-.1h.2c0,0,.1-.1.1-.1l.5-.2h.4c0-.1.4-.2.4-.2h0c0,0,2.1-.2,2.1-.2h0s0,0,0,0h0s0,0,0,0h0s0,0,0,0h0s0,0,0,0h0s0,0,0,0h0s0,0,0,0h0s0,0,0,0h0s0,0,0,0l-.3.2h-.5s-2.6-5.9-2.6-5.9l-.2-.4-.4-.8v-.2c0,0-.3-.6-.3-.6v-.4c-.1,0-.2-.2-.2-.2v-.3c-.1,0-.2-.1-.2-.1h0c0-.1-.2-.5-.2-.5v-.5c-.1,0-.3-.3-.3-.3h0c0,0,0-.2,0-.2h0s0,0,0,0h0c0,0,0-.1,0-.1h0c0,0,0-.1,0-.1h0s0,0,0,0h0s0,0,0,0h0s0-.1,0-.1h0c0,0,0-.2,0-.2h0c0-.1,0-.3,0-.3h0c0,0,0-.2,0-.2h0c0,0,0-.1,0-.1h0c0,0,0-.1,0-.1h0s0,0,0,0h0s0,0,0,0h0s0,0,0,0h0s0,0,0,0h0s0,0,0,0h0c0,0,0-.2,0-.2h0c0,0,0,0,0,0h0s0,0,0,0h0s0,0,0,0h0s0,0,0,0h0c0,0,0,0,0,0h0s0,0,0,0l-.2-.4v-.2c-.1,0-.2-.2-.2-.2l-.2-.4h0c0,0,0-.1,0-.1v-.2c0,0-.1-.2-.1-.2h0s0-.1,0-.1h0s0,0,0,0h0s0,0,0,0l-.3.2h-.2c0,.1-.1.2-.1.2h0s-.2.1-.2.1h0c0,0-.1.1-.1.1h-.2c0,.1-.3.3-.3.3h-.2c0,.1-.1.2-.1.2h0s-.2.2-.2.2l-.3.2-.4.2-.4.2-.3.2h-.2c0,.1-.2.2-.2.2h0s-.2.1-.2.1h-.1c0,0,0,0,0,0h-.2c0,.1,0,.2,0,.2h-.1c0,0-.2.2-.2.2l-1.1.7h0c0,0-.1.2-.1.2h0c0,0-.1.1-.1.1h-.2c0,0-.1.2-.1.2h-.1c0,0-.2.2-.2.2l-.3.2-.2.2h-.1c0,0-.1.1-.1.1h-.2c0,.1,0,.1,0,.1h-.1c0,0-.3.2-.3.2l-.4.3h-.2c0,.1-.2.3-.2.3h-.1c0,0-.2.2-.2.2l-.3.2-.4.2h-.1c0,0-.1.2-.1.2h-.1c0,.1-4.8,3.2-4.8,3.2l-4.4,5.2h0c0,0,0,.1,0,.1h0c0,0,0,.1,0,.1h0c0,0,0,.2,0,.2h0c0,0,8.2,16.7,8.2,16.7l.3.5.2.4h0c0,.1,0,.2,0,.2h0c0,0,0,.3,0,.3l.3.5h0c0,.1,0,.3,0,.3h0c0,.1,0,.2,0,.2v.2c.1,0,.2,0,.2,0v.3c.1,0,.3.3.3.3l.2.4v.2c0,0,0,0,0,0l.5.7h0c0,0,.1.2.1.2l.7.8,2.5,3.2,1.8,2.2.2.2h0c0,.1,0,.3,0,.3v.2c0,0-.2.4-.2.4l-.2.3-.2.3-.3.3-.3.2-.2.2-.2.2h-.2c0,.1-.2.3-.2.3l-.3.2-.4.2h-.3c0,0-.5.2-.5.2h-.4c0,0-.8.2-.8.2h-.7c0,.1-.7-.5-.7-.5l-.4-.5-.3-.4-.4-.4-.3-.4-.4-.5-.4-.6h-.1c0-.1-.1-.2-.1-.2h0s0,0,0,0h0c0,0-2.8-5.3-2.8-5.3h.2c0-.1-.1-.4-.1-.4h-.1c0,0-10.3-20.9-10.3-20.9h-.2c0-.1-.5.2-.5.2l.4.7-1.3.7-.4-.6-.2-.3-.5-.8,1.3-.7.4.7.5-.3h0c0-.1-1.4-2.9-1.4-2.9l.2-.2h.1c0-.1,0-.2,0-.2h0c0,0,0-.1,0-.1h0c0,0,.1-.2.1-.2h.1c0-.1,0-.2,0-.2h0c0,0,.2-.2.2-.2h0c0,0,0-.1,0-.1h0c0,0,0-.1,0-.1h0c0,0,0-.2,0-.2h0c0,0,0-.1,0-.1h.1c0-.1,0-.2,0-.2h0c0,0,0-.1,0-.1l.2-.2h.1c0-.1.1-.2.1-.2h0c0,0,0-.1,0-.1h0c0,0,0-.2,0-.2h0c0,0,0-.2,0-.2h0c0,0,.1-.2.1-.2l.2-.3h.1c0-.1,0-.2,0-.2h0c0,0,.1-.2.1-.2l.2-.3.2-.2,3.1-3.6.5-.6.2-.2.2-.2h0c0,0,0-.2,0-.2h.1c0,0,.1-.1.1-.1l.4-.3.9-.5h0c0,0,.1-.1.1-.1h.1s0,0,0,0h.3s.1,0,.1,0h.1c0,0,.3,0,.3,0l.7-1.3h0s0,0,0,0h0s2.6-1.7,2.6-1.7h.1s.1,0,.1,0h0s0,0,0,0v-.2c.1,0,0-.2,0-.2h0s11.5-7.1,11.5-7.1l2.4-1.5-5.8-9.2-7.4,4.6-.3.5h0s0,0,0,0h0s0,0,0,0h0s0,0,0,0h0s0,0,0,0h0s-.5.3-.5.3h0s-1-1.6-1-1.6v-.2c-.1,0-.1,0-.1,0v-.2c-.1,0-.2,0-.2,0h0c0,0,0,0,0,0h-.1s0,0,0,0h-.3c0-.1-.3-.3-.3-.3h0s-.3-.2-.3-.2h-.3c0-.1,0-.1,0-.1h0s0,0,0,0h0s0,0,0,0l-.5-.2h0s0,0,0,0h0s0,0,0,0h0s0,0,0,0h0s0,0,0,0h0s0,0,0,0h0s0,0,0,0h0s0,0,0,0h0s0,0,0,0h0s0,0,0,0h0s0,0,0,0h0s0,0,0,0h0s0,0,0,0l.4.2-.6,1.3v.3c-.1,0-.2.1-.2.1h0c0,0-.5,1.3-.5,1.3h0s.5,1.1.5,1.1l.4.7h0s0,0,0,0h0s0,0,0,0h0s0,0,0,0h0s0,0,0,0l-.2.2h0s0,0,0,0h0s0,0,0,0h0s0,0,0,0h0s0,0,0,0h0s0,0,0,0h0s0,0,0,0h0s0,0,0,0h0c0,0-.5-1.1-.5-1.1v-.3c-.1,0-.3-.3-.3-.3h0c0,0,0,0,0,0h0s0,0,0,0h0s0,0,0,0h-.1s0,0,0,0h0s0,0,0,0h-.3c0,.1-.2-.1-.2-.1h0s-3.7,1.9-3.7,1.9h0s.2.4.2.4l-1.8,1-1,.5-.7.4-.4.2-1.6.8v-.4s0-.3,0-.3h0c0-.1,0-.3,0-.3v-.2s0-.6,0-.6v-.3s0,0,0,0h0s0,0,0,0h0s0,0,0,0h0s0,.1,0,.1v.6s-.1.5-.1.5h0s0,0,0,0v.2c0,0,0,0,0,0h0c0,0,0,.5,0,.5l-2.3,1.1h0s0,0,0,0h0s-.7.3-.7.3h0s-.2-.5-.2-.5h0s-2.3,12.3-2.3,12.3l-1.8,2.3-1.9.5h-.4c0,0-.3.2-.3.2h0c0,0,0,.1,0,.1h0c0,0,0,.2,0,.2h0c0,.1,0,.2,0,.2h0c0,0,0,.6,0,.6l.2,2.2-.4,2.4.8.8.2.2v.2c.1,0,.2,0,.2,0h0c0,0,0,.2,0,.2h0c0,0,0,.2,0,.2h0c0,.1,0,.2,0,.2h0c0,.1,0,.2,0,.2h0c0,.1,0,.2,0,.2h0c0,.1,0,.3,0,.3h0c0,.1,0,.3,0,.3h0c0,.1,0,.3,0,.3h0c0,.1,0,.2,0,.2h0c0,.1,0,.2,0,.2h0c0,.1,0,.2,0,.2h0c0,.1,0,.2,0,.2h0c0,0,0,.2,0,.2h0c0,0-.1.2-.1.2h-.1c0,0-.1.2-.1.2l-.4.2h-.2c0,.1-.2.2-.2.2h-.2c0,.1-.4,2.6-.4,2.6l-1.1,2.5.5.8h0c0,0,0,.1,0,.1h0c0,0,0,.2,0,.2h0c0,.1,0,.2,0,.2h0c0,.1,0,.2,0,.2h0c0,.1,0,.2,0,.2h0c0,.1,0,.2,0,.2h0c0,.1,0,.2,0,.2h0c0,.1,0,.3,0,.3h0c0,.1,0,.3,0,.3h0c0,.1,0,.2,0,.2h0c0,0,0,.1,0,.1h0c0,0,0,.1,0,.1h0c0,0,0,.1,0,.1h0c0,.1,0,.2,0,.2h0c0,0,0,.2,0,.2h0s0,0,0,0h0s0,0,0,0h0c0,0,0,.2,0,.2h0c0,0,0,.1,0,.1h0c0,0,0,.1,0,.1h0c0,0,0,.1,0,.1h0s0,0,0,0h0s0,0,0,0h0s0,0,0,0h0s0,0,0,0l-1.2.2-.9,2.3-2,2.5.2.7h0s0,0,0,0h0c0,0,0,.1,0,.1h0c0,0,0,.1,0,.1h0c0,0,0,.2,0,.2h0c0,0,0,.2,0,.2h0c0,0,0,.1,0,.1h0c0,0,0,.1,0,.1h0c0,0,0,.1,0,.1h0s0,.1,0,.1h0c0,0,0,.1,0,.1h0c0,0,0,.1,0,.1h0c0,0,0,.1,0,.1h0c0,0,0,.1,0,.1h0c0,0,0,.1,0,.1h0c0,0,0,.1,0,.1h0c0,0,0,0,0,0h0s0,0,0,0h0s0,0,0,0h0s0,0,0,0h0s0,0,0,0h0s0,0,0,0h-.7s-1.8,2.2-1.8,2.2h0s-.5.6-.5.6l-4.6,3.3h0s-.7.5-.7.5h-.2c0,.1,0,.7,0,.7v.5c-.1,0-.3.4-.3.4l-.2.2-.2.2h-.2c0,.1-.2.2-.2.2h-.2c0,0-.2,0-.2,0h-.2s-.2,0-.2,0h-.4c0-.1-4.7,3.5-4.7,3.5v.6c-.1,0-.1,0-.1,0v.2c0,0-.1.2-.1.2v.2c-.1,0-.2.2-.2.2h0c0,0-.1.2-.1.2h-.2c0,.1-.2.2-.2.2h-.2c0,0,0,.1,0,.1h0s-.2,0-.2,0h-.2s-.1,0-.1,0h0s-.2,0-.2,0h-.2s-.2,0-.2,0h-.2c0,0-.6-.4-.6-.4l-2,.7.2.6v.5c0,0-.8,0-.8,0h-.6s-.7,0-.7,0l-.7.2-1.2.4,4.2,7.7,1.6,2.9.2.3.8,1.5.4.6.3.4.6,1.1.6,1.2.2.3.7,1.4.3.6v.2c0,0,1.3,1.7,1.3,1.7l2,2.9,1.3,1.9,2,2.9.8,1.1,1.3,1.9,1.7,2.5,1.1,1.7.3.4.8,1.2.7,1.2.7,1.9.8,2.2.8,1.9.5,1.3v.3s.7,1.6.7,1.6l.4,1.4.5,1.7.2.5v.4c.1,0,.3.8.3.8h0c0,0,.5,2.1.5,2.1l.2,1,.5,2.1,1.1,4.2.6,2.3,1.3,5.2,1.6,6.2.5,2.1.9,3.4,1.1,3.8.6,2.3,1,3.6,1.1,3.9h.4c0,0,1.4-.5,1.4-.5l.5,1.6h.3c0-.1.3.6.3.6h.3c0-.1,1,2,1,2l2.8-1,.2-1.2,1.9-.8.8-.4,1-.5h0s1.3-.6,1.3-.6l.4-.2,6.2-2.2-2.5-7.9,4.2-1.5h.2c0-.1.2-.2.2-.2h0s10.3-2.8,10.3-2.8l.6,2.4,3.9-1h.3c0,0,.4-.2.4-.2l2.7-.7.6-.2,2.8-.7,6.2-1.5,2-.5,3.6-.9.9-.2h.3c0,0,1.4-.4,1.4-.4l.4-1.4.3-1.1.6-1.4,2.5.3h.1s0,0,0,0h0s.2,0,.2,0h.2s.2-.1.2-.1h.2c0-.1.2-.3.2-.3l.2-.2v-.2c.1,0,.2-.2.2-.2v-.5c0,0,.1,0,.1,0v-.2s0-.2,0-.2v-.2c0,0-.1,0-.1,0v-.2c0,0-.3-.2-.3-.2l-.2-.2h-.2c0-.1-.2-.2-.2-.2h-.2c0,0-2.3-.5-2.3-.5l-.5-1.2-1.2-4.5-.3-2.9v-.5c0,0,.4-.7.4-.7v-.5s0-.7,0-.7v-.8s1-2.7,1-2.7l.9-2.4h0s1.4-2.1,1.4-2.1l1.3-1h2.9c0-.1,0-.4,0-.4h-2.9c0,0-1.1-.4-1.1-.4l-.2-.2-1.3-1.4h0s-2.5-2.6-2.5-2.6l-1.7-2-3.2-3.9-1.3-1.9-1.9-2.7-2.2-3.5-1.3-2.3-1.2-2.6-1.2-2.8-1.5-3.4h0c0-.1-.7-1.8-.7-1.8l-.3-.7,1.3-2.5.2-.8v-.3c0,0,0-.2,0-.2h-.1c0,0-.1-.1-.1-.1l-.2.2v.2s.1.1.1.1v.8c0,0-4.5,7.7-4.5,7.7h0c0,.1-2.9.7-2.9.7v-1.8c.1,0,.1-.4.1-.4v-.2s0,0,0,0h0s-.7-3.2-.7-3.2h0c0,0-.4-1.6-.4-1.6h0s.4,1.5.4,1.5l-4.3,2.2-.6-1.2-.3-2.1h-.1c0,0-1.6.2-1.6.2l-1.4.2v-.4c0,0,1.2-.2,1.2-.2v-.2c.1,0,1-.2,1-.2l3.3-.6,1.6-.9.6.8.2.5h0s-.2-.5-.2-.5l-.6-.9-.6-1.2-2-4h0c0-.1-2.5-5.4-2.5-5.4v-.2s0-.2,0-.2h0c0-.1,0-.4,0-.4v-.3s0,0,0,0h0s0-.4,0-.4h0s0,0,0,0h0s0,0,0,0v-.4s0-.2,0-.2h0c0,0,0-.2,0-.2v-.3s0,0,0,0h0s.1,0,.1,0l1.1-.6-1.8-2.2-.6-.7"/>
        </g>
        <g class="cls-21">
          <path class="cls-5" d="M22.1,132.2l.8.3,1.2.5.8.3,3,1.3,4.1,1.7,3.3,1.3,2,.8.7.2h.7c0,0,.4,0,.4,0h1.4c0,0,.9,0,.9,0h1.6s1.3,0,1.3,0v-.4s0-.2,0-.2h0c0-.1.9-.2.9-.2h.7c0,0,0,0,0,0h1.1c0-.1,1.3-.3,1.3-.3l3.8-.4h.7c0,0,.2-.1.2-.1h.8c0,0,1.8-.3,1.8-.3l3.1-.4,3.1-.4h.1s-.2,4.1-.2,4.1h1.4c0-.1,3.5-.4,3.5-.4l1.9-.6,1-.3h.9c0-.1,6.6-.6,6.6-.6l8.4-.7,4.1,4.9.2.3h.2c0,0,.2-.2.2-.2h.2c0,0,.2-.2.2-.2h.2c0,0,.2-.2.2-.2h0s.1,0,.1,0h.1c0,0,.1-.2.1-.2h0s.1-.1.1-.1h.1c0-.1.1-.2.1-.2h.1c0-.1.1-.2.1-.2h0c0,0,.3-.4.3-.4l.6-.7.4-.6,1.1-1.7,4.7-7.5.3-.4,3.2-5.1h0s.3-.8.3-.8l2.5-8.7.7-2.4.3-1.1.5-1.8,2.2-.4.9-.2-2.4-2.3-1.6-1-3.8-2.5.5-1,.2-.4.2-.3.2-.4v-.3c.1,0,.3-.4.3-.4v-.4c.1,0,.2-.3.2-.3v-.3c0,0,.1-.3.1-.3v-.4c0,0,.1-.6.1-.6v-.8s0-.4,0-.4v-.4s0-.5,0-.5v-.3c0,0-.2-.5-.2-.5l-.8-3.3,1.7-2.7.9-.7,1.5-1.3.7-.6.4-.4h0c0-.1.1-.3.1-.3h0c0,0,.5-.7.5-.7l.8-1,.7-2.6.2-1.2v-.8c0,0,.2-1.2.2-1.2l.2-1.9.3-2.3h-.3c0,0-.2-.2-.2-.2h-.2c0-.1-.4-.3-.4-.3h-.2c0-.1-.2-.2-.2-.2l-.4-.2h-.3c0-.1-.3-.3-.3-.3h-.3c0-.1-.3-.3-.3-.3h-.3c0-.1-.3-.3-.3-.3h-.1s-.1,0-.1,0h-.1s-.1,0-.1,0h-.1s-.2-.1-.2-.1h-.2s-.1,0-.1,0h-.1s-.1,0-.1,0h-.1s-.1,0-.1,0h-.1s-.1,0-.1,0h-.1s-.1,0-.1,0h-.3s-.2,0-.2,0h-.5s.3-1.6.3-1.6v-.4c0,0,.1-.3.1-.3v-.4s0-.4,0-.4v-.3s0-.4,0-.4v-.4s0-.3,0-.3v-.4s0-.3,0-.3v-.3s-.1-.3-.1-.3v-.4c0,0-.2-.4-.2-.4v-.4c-.1,0-.3,0-.3,0h-.8c0,0-.5,0-.5,0l-.5-.4-.6-.2-.6-.2h-.6s-.3,0-.3,0h-.3c0-.1-.9,0-.9,0l-1.2-.2h-.6c0,0-.3,0-.3,0h-.8c0-.1-.5-.2-.5-.2h-.2s-.5,0-.5,0l-.8.2-.5.3-.3.2-.5.3-.5.2h-.5s-.4.1-.4.1h-.4c0,.1-.5-.2-.5-.2l-.4-.2h-.7s-.4.3-.4.3l-.5.2h-.4s-.6-.4-.6-.4l-.7-.3-1.4-1.1-.7-.5h-.7c0,0-.7,0-.7,0h-.8c0,0-.8.3-.8.3l-1.9-1-1.1-.6-.6-.4-.6-.4-1.3-.9-7.3-5.1-3.4.9-3.8-3.7-1.4-1-1.6-1.3h-1.3c0,0-.2-.1-.2-.1h-.3s-1.5,0-1.5,0l-2.8-.4-2.1-.3-5.9,4-6.8,4.8-.8,3.5-.5.4-.3.3-.4.2-.4.2-1.2,1-.4.2-.5.4-1.6,1.3-1.3,1.3-.5.7-.4.6-.5.7h-3.9s-.6,0-.6,0h-7.9s0,0,0,0l-.8.9-.5.5-.3.3-.3.3-.3.3-.3.3-.4.3-.3.2-.4.2-.4.2-.4.2-.4.2-.4.2-.4.2-.4.2-.4.2h-.4c0,.1-.4.3-.4.3h-.4c0,.1-.4.2-.4.2l-.9.3-2.1.6-3.2.9.4,1.4-.2.4h0c0,0,0,.3,0,.3l-.6,2.5-.5,2.1v.4c-.1,0-.2.2-.2.2h0c0,.1-.1.4-.1.4l-.7.8h0c0,0-.4.6-.4.6H.1c0,0-.1.2-.1.2h-.2c0,.1-.6.4-.6.4l-2,.9-1.5,1-.8.8-.8.8-.7.8-1,1.1v.2c0,0,0,.3,0,.3l.2,2.3v.9c0,0,.4,4.2.4,4.2l.2,3.1.2,3.3.2,3h.3c0,0,.1.1.1.1h0s0,0,0,0h0s0,.1,0,.1l.5.8.2.4v.2c0,0,.1.2.1.2h0c0,.1.1.3.1.3l.3.3.2.2h0c0,0,.2.3.2.3l.2.3v.3c0,0,.1.2.1.2v.2s.2.5.2.5v.3c0,0,.3.5.3.5v.3c.1,0,.4.8.4.8l.2.5v.2c0,0,.1,0,.1,0h.1c0,.1.1.2.1.2h.1c0,.1,0,.2,0,.2l.7.8.3.3.4.3.9.5,1.3.8.4.2h.1s.3.1.3.1h.3c0,0,.3.2.3.2h.2c0,.1.3.3.3.3l.3.2.9.5.3.2.4.2.9.5.6.2h.2c0,.1.4.3.4.3h.3c0,.1,2.1.3,2.1.3h.8c0,0,.7.1.7.1h.3c0,0,.3.2.3.2l.3.3.2.3.4.7.2.6.2.6v.4s0,.5,0,.5v.3c0,0-.1.6-.1.6v.8c-.1,0-.1.7-.1.7v.8s0,.2,0,.2v.2c0,0,.2,0,.2,0l.8.3h0s1.1.5,1.1.5l3.1,1.4,3.7,1.6"/>
        </g>
        <g class="cls-18">
          <path class="cls-5" d="M195.2,142.4l1.1-17.8v-1.6c.1,0,.4-5.3.4-5.3l.3-3.6v-.9c.1,0,.7-3.2.7-3.2h-.1s-.1.1-.1.1h-.2c0,0-.2.2-.2.2h-.2c0,.1-.1.2-.1.2h0c0,0,0,.1,0,.1h-.1c0,.1,0,.2,0,.2h-.1c0,.1,0,.2,0,.2h-.1c0,.1-2.4,3.8-2.4,3.8l-1,1.6-2.5,4h0v.2c-.1,0-.2.2-.2.2l-1.7-1.2h0s-.2-.2-.2-.2h0c0-.1-.1-.3-.1-.3v-.2c0,0-.2-.2-.2-.2v-.2c0,0,0,0,0,0h0c0,0,0-.2,0-.2v-.2s-.1-.5-.1-.5v-.6c-.1,0-.7-3.5-.7-3.5l-.4-2.1-.2-.9v-.7c0,0-.5-2.2-.5-2.2l-.4-1.9h0c0,0,0-.2,0-.2l-.8-3-.4-1.2-.3-1v-.4c-.1,0-.2-.2-.2-.2h0c0-.1,0-.3,0-.3v-.2c0,0-.2-.3-.2-.3l-.2-.4v-.2c-.1,0-.2-.2-.2-.2h0c0-.1-.1-.3-.1-.3v-.2c-.1,0-.2-.2-.2-.2v-.2c-.1,0-.3-.2-.3-.2h-.1c0-.1-.2-.4-.2-.4v-.2c-.1,0-.3-.2-.3-.2h-.1c0-.1-.2-.3-.2-.3l-.2-.2-.6-.6-.5-.5-.5-.6-.4-.4-1.3,1.1-.4.3-1,.8-1.3.8-2,1.2-2.4,1.4-2.1,1.3-.6.4-.5.3-1.4.9-1.6,1.1-1.1.9-.2-.2-2.3,2.4-1.2,1.3-.2.4-1,1.3-.3-.2-.3.3h0s0,0,0,0l-.2.3h0c0,0-.3.5-.3.5l-.2.3-.5.8h0c0,.1,0,.3,0,.3l-.4.7-.5.8-.3.5-.3.5h0s-.3.5-.3.5l-.5.9-.5.9-.3.5v.3c-.1,0-.2.3-.2.3v.3c-.1,0-.2.3-.2.3h0s0,.1,0,.1l-.3.9-.8,2.4-.2.8v.3c-.1,0-.2.5-.2.5l-.2.8h0s-.4,1.4-.4,1.4l-.3,1.3h0s0,.4,0,.4v.4c0,0,0,0,0,0v.9c-.1,0-.1.1-.1.1h0s0,.4,0,.4h0c0,.1,0,.1,0,.1h0s0,0,0,0h0c0,0,0,0,0,0v.7c0,0,0,0,0,0h0s0,0,0,0v.4c0,0-.2.8-.2.8v.6c-.1,0-.2.5-.2.5v.3c0,0-.2.5-.2.5h0s0,0,0,0v.5c-.1,0-.2.3-.2.3h0s-.6,2.1-.6,2.1l-.2.8v.3c0,0-.1.2-.1.2h0s0,.1,0,.1l-.4,1-.3.6-.2.3h0s0,.2,0,.2v.2c-.1,0-.3.2-.3.2l-.2.3h0c0,0,.4,0,.4,0h0s.1,0,.1,0h.5c0,0,1.4-.3,1.4-.3l1-.2h.4c0,0,.4,0,.4,0h.4s-.1,2.3-.1,2.3l-.9.2-.5.5-.4.4h-.2c0,.1-.6.4-.6.4l-.3.2h0s0,.1,0,.1h0c0,0,0,.2,0,.2l-.3.7h0c0,.1-.1.2-.1.2l-.3.2h-.3c0,.1-.2.3-.2.3l-.6.8v.2c0,0,0,.3,0,.3v.4c0,0-.3,1-.3,1v.2c0,0-.3.3-.3.3l-1.1,1.6v.2c-.1,0,.1.2.1.2l.4.3v.2c.1,0,.3.2.3.2l.5.6.3.3v.2c.1,0,.1.1.1.1v.5c0,0,.2,1.4.2,1.4v.2s0,.1,0,.1v.2s-.5,1.2-.5,1.2l-.2.9v.2s.3,1.1.3,1.1l1.6,3.2.7,1.3.4.7.3.7.2.3.3.6.2.4h0c0,.1.2.3.2.3l.6.4.4.3.7.6,2.4,2.2,1,.9v.2c.1,0,1.3,2.2,1.3,2.2h.2c0,.1.2.3.2.3h.1c0,.1.5.7.5.7v.2c.1,0,.3.2.3.2l.4.3h0c0,0,.6.5.6.5l.5.3.4.2.5.3.6.3.4.2.7.4.3.2.4.3.4.3.3.3,2.5,2.4h0c0,0,.5.4.5.4l.4.2h.2c0,0,.1.1.1.1h.5c0,.1.2.2.2.2l3.6.4h1.4c0,.1.7.2.7.2l5.5.6h.2s.7.5.7.5l.9.6.3.2.4.3.2.2.3.4.3.5.4.8-2.9,7.4.9.4,5.9-.8.7-1.3.3-.6.4-.6,3.4-6.3,3.3-6.1,1-1.8.8-1.1.9-1.3,1-1.3.7-.9,3.1-4.1,1.1-1.4.5-.7.6-.7h0c0,0,1.1-1.3,1.1-1.3l2.1-2.4h.2s1.6-1.7,1.6-1.7l-2.7-2.6h0s-3.2-3.1-3.2-3.1l-1.7-1.5-5-5.2-2.2-2.2.2-1"/>
        </g>
        <g class="cls-17">
          <path class="cls-5" d="M109.8,109.4l.9,1.3,2.7,8.4,3,5.8,1.8,2.9.4.7.8,1.3,2.4,3.4,2.3,3.2.6.8,3.6,5h0c0,0,1.3,1.8,1.3,1.8l1.9,2.1,4-.8.8-1.4.9-1.5h1.5s1.5.1,1.5.1l-.3-1.4h.1c0-.1,6.4-1.2,6.4-1.2h.5c0,0,.3-.1.3-.1h0c0,0,.2-.3.2-.3v-.2c.1,0,.3-.2.3-.2v-.2c0,0,.1,0,.1,0l.2-.3.3-.6.4-1h0c0-.1,0-.1,0-.1v-.2c0,0,.1-.3.1-.3l.2-.8.6-2.1h0s0-.3,0-.3v-.5c.1,0,.1,0,.1,0h0s.1-.5.1-.5v-.3c0,0,.2-.5.2-.5v-.6c.1,0,.2-.8.2-.8v-.4c0,0,0,0,0,0h0s0,0,0,0v-.7c0,0,.2,0,.2,0h0c0,0,0,0,0,0h0s0,0,0,0h0c0-.1,0-.6,0-.6h0s0-.1,0-.1v-.9c.1,0,.1,0,.1,0v-.4c0,0,.1-.3.1-.3h0s.3-1.3.3-1.3l.4-1.4h0s.2-.8.2-.8v-.5c0,0,.2-.3.2-.3l.2-.8.8-2.4.3-.9h0c0,0,0-.1,0-.1v-.3c.1,0,.2-.3.2-.3v-.3c.1,0,.2-.3.2-.3l.3-.5.5-.9.5-.9.3-.5h0s.3-.6.3-.6l.3-.5.5-.8.4-.7h0c0-.1,0-.3,0-.3l.5-.8.2-.3.3-.4h0c0,0,.2-.4.2-.4h0c0,0,0,0,0,0l.3-.3.3.2,1-1.3.2-.4,1.2-1.3,2.3-2.4.2.2,1.1-.9,1.6-1.1,1.4-.9.5-.3.6-.4,2.1-1.3,2.4-1.4,2-1.2,1.3-.8,1-.8.4-.3,1.3-1.1h0s0,0,0,0h0s0,0,0,0h.1c0-.1.4-.5.4-.5l.6-.6.8-.9.7-.9.6-.7h0c0,0,.4-.6.4-.6l.9-1.2.8-1,1.1-1.3.7-.8,1.2-1.5.9-1.1h0c0,.1.2-.2.2-.2l1.6-1.9h0c0,0,7.6-9.4,7.6-9.4l2.5-3.4-2.8-2.2.5-.7.2-.2-2.1-1.6,1-1.6.6-1,.7-1.4-3.4-1.6-.4-1.1-2.9-.2h-.5s-4.1-.3-4.1-.3h-1.5c0,0-2-.2-2-.2h-.7c0,0,0-.3,0-.3l-.6.2h0s0,0,0,0h-.4c0,.1-.4-1.4-.4-1.4h0s0,0,0,0h0c0,0,0-.1,0-.1h0s0,0,0,0l-.3.2h0s0,0,0,0h-.2c0,0-.1-.1-.1-.1h-.4c0,0-.5-.2-.5-.2h-.1c0,0-.2,0-.2,0h-1.6c0,0-.3,0-.3,0h-.3c0,0,0-.1,0-.1h0c0,0,0-.2,0-.2h0s-.5-.2-.5-.2h-.2c0-.1-.3-.2-.3-.2h-.3c0-.1-.2-.1-.2-.1h-.2s-.2,0-.2,0h0c0,0,0-.1,0-.1h0s-.2-.2-.2-.2h-.2s-.1,0-.1,0h-.3s0,0,0,0h0s-.1,0-.1,0h0s0,0,0,0l-.2.2h0c0,0-.1.1-.1.1h0c0,0,0,0,0,0v-.4c-.1,0-.4-.4-.4-.4h0c0,0-.4.4-.4.4h-.5s-1.1,0-1.1,0h-.5s-.2,0-.2,0h-.3s-.1,0-.1,0h-.4c0,0-.3-.1-.3-.1l-.7-.2-.8-.3h-.1s-.7-.2-.7-.2h-.7c0-.1-.3-.2-.3-.2h-.3s-.5,0-.5,0h-.3s-.3,0-.3,0h-.2s-.2,0-.2,0h-.3c0,0-.2.1-.2.1l-.4.2h-.2c0,.1-.2.3-.2.3h0s0,.1,0,.1h0c0,.1,0,.3,0,.3v.3c0,0-.2.3-.2.3h0c0,.1-.2,0-.2,0h-.2s-.2,0-.2,0h-.3s-.6,0-.6,0h-.3s-.3,0-.3,0h-.2s0,0,0,0h-.1s-.2,0-.2,0h-.2s-.2-.1-.2-.1h-.2c0,0-.2-.2-.2-.2h-.2c0,0-.2-.2-.2-.2h-.2c0-.1-.2-.2-.2-.2h-.2c0-.1-.1-.3-.1-.3h-.1c0-.1-.1-.3-.1-.3v-.2c-.1,0-.3-.4-.3-.4v-.2c0,0-.2-.2-.2-.2h0c0,0-.2-.6-.2-.6l-.7-2-.7-2v-.2c0,0-.1-.2-.1-.2v-.2c0,0-.2-.2-.2-.2h0c0-.1-.1-.3-.1-.3h-.1c0-.1-.1-.3-.1-.3h-.1c0-.1-.1-.2-.1-.2h-.2c0,0,0-.1,0-.1h-.1c0,0-.2-.1-.2-.1h-.2c0,0-.3-.2-.3-.2h-.2c0,0-.2-.2-.2-.2h-.2c0,0-.3-.2-.3-.2h-.1c0,0-4.4-1.9-4.4-1.9h-.2c0,0-.2-.1-.2-.1h-.2c0,0-.2-.1-.2-.1h-.1s-.2,0-.2,0h-.1s-.2,0-.2,0h-.2s-.3,0-.3,0h-.2s-.6.1-.6.1l-2.3.3h-1.7c0-.1-5.1-.6-5.1-.6h-.5c0,0-3.4,1-3.4,1l-2.2-.9-1.2,1-.5-1.2v-.3c0,0-.1-.3-.1-.3h-.2c0-.1-2.7-.7-2.7-.7v.3s-4.1-1.2-4.1-1.2h-.3c0,0-.1,0-.1,0h-.4c0,.1-1.3.5-1.3.5l-1.4.4-1.2,1.2-1,1.4-.9,1.6-.9,2-1,2.4-1.5,3.5-1.5,3.6h-1.3c0,0,0,.3,0,.3v.3s0,.6,0,.6v.5c0,0,0,.8,0,.8l-.3,1-.2.7-.6,1.6-.4.5-.3.4-.4.7-.2.6v.5c0,0-.1.5-.1.5l.2.6-.2.3h-.7c0,0-.1,0-.1,0h0s0,0,0,0v.4c.1,0,.2.4.2.4v.4c0,0,.1.3.1.3v.3s0,.3,0,.3v.4s0,.3,0,.3v.4s0,.4,0,.4v.3s0,.4,0,.4v.4s-.1.3-.1.3v.4c0,0-.4,1.6-.4,1.6h.5s.2,0,.2,0h.1s.2,0,.2,0h.1s.1,0,.1,0h.1s.1,0,.1,0h.1s.1,0,.1,0h.1s.1,0,.1,0h.1s.2,0,.2,0h.2c0,0,.1.1.1.1h.1s.1,0,.1,0h.1c0,0,.1,0,.1,0h.3c0,.1.3.3.3.3l.3.2h.3c0,.1.3.3.3.3h.3c0,.1.4.3.4.3h.2c0,.1.2.2.2.2l.4.2h.2c0,.1.2.2.2.2h.3c0,0-.3,2.4-.3,2.4l-.2,1.9v1.2c-.1,0-.2.8-.2.8l-.2,1.2-.7,2.6-.8,1-.5.6h0c0,0-.1.2-.1.2h0c0,.1-.4.5-.4.5l-.7.6-1.5,1.3-.9.7-1.7,2.7.8,3.3v.5c.1,0,.2.3.2.3v.5c0,0,0,.4,0,.4v.4s0,.8,0,.8v.6s-.1.4-.1.4v.3c0,0-.1.3-.1.3v.3c0,0-.2.4-.2.4v.4c-.1,0-.3.3-.3.3l-.2.4-.2.3-.2.4-.5,1,5.4,3.6,1.4,1.3,1,1"/>
        </g>
        <g class="cls-20">
          <path class="cls-5" d="M22.1,132.2l-3.7-1.6-3.1-1.4-1.1-.5h0s-.8-.3-.8-.3h-.2s.2.5.2.5l-.9-.3.3,3,.2,2.2v.5s0,1.1,0,1.1v.4c0,0-1,5.3-1,5.3v.2s-.1.3-.1.3h0s0,.1,0,.1v.3s0,.2,0,.2v.3s0,.2,0,.2v.4s0,.2,0,.2v.3c0,0,.2.5.2.5h0v.2c0,0,.2.2.2.2h0c0,0,.1.3.1.3l.9,1.6,1.1,2,.5.9.2.3v.2c.1,0,.2.2.2.2v.3c.1,0,.3.3.3.3h0s.2.3.2.3h0c0,0,.3.5.3.5l.5.8h0c0,.1,0,.2,0,.2h0c0,.1.1.3.1.3l.3.5h0c0,.1.1.4.1.4l.2.5h0c0,0,0,.2,0,.2h0c0,.1.3,1.1.3,1.1l.2,1.6v1c.1,0,.1.3.1.3h0c0,.1,0,.3,0,.3v.2c0,0,.3,0,.3,0h0c0,.1,0,.2,0,.2h0s0,.3,0,.3h0c0,.1,0,.4,0,.4l-1.6-.2v1.2c0,0,0,.4,0,.4v.2c-.1,0-.2.2-.2.2l-.2.6v.3c0,0-.1.3-.1.3v.3s0,.3,0,.3v.2s0,.3,0,.3v.9c0,0,.1.3.1.3v.7c0,0,.2.5.2.5v1.1c.1,0,.2.7.2.7v.7c.1,0,.2.2.2.2v.4c0,0,.4,1.8.4,1.8v.3c0,0,.2.8.2.8v.7c.1,0,.3.9.3.9v.8c.1,0,.2.5.2.5v1.1c.1,0,.3,1,.3,1v.7c0,0,0,.4,0,.4v1c0,0,0,.2,0,.2l.3,1.6.2,1.2v.5c0,0,0,1,0,1v.9c0,0,.1.1.1.1l.3,1.2.2.7v.2s0,.4,0,.4l.2.8v.2s-.1.7-.1.7v.5c-.1,0,0,.2,0,.2l.5.6.5.5.4.4.5.6.3.5.4.6.3.4h0c0,.1,0,.8,0,.8v.8s0,.7,0,.7v.6s0,.2,0,.2h0c0,0,0,.3,0,.3v.2c0,0,.9,2,.9,2l.3.9.6,1.6h.1c0,.1.3.5.3.5h0s.4.5.4.5l.2.3.4.5v.2c.1,0,.3.2.3.2h0c0,.1.3.5.3.5l.5.8.4.6v.3c0,0,.1.7.1.7v.9c.1,0,.1.3.1.3v.3s.2.4.2.4v.2c.1,0,.2.2.2.2l.3.7v.2s.2.5.2.5l.2.5v.5c0,0,.2,1.6.2,1.6v1.1c0,0,.2,1.2.2,1.2v.6c0,0,.2.3.2.3v.2c0,0,.2.2.2.2l.8,1.3v.2c0,0,.2.8.2.8v.2c0,0,.3.7.3.7l.3.6.3.9h0s.1.2.1.2v.3s10.3.3,10.3.3h.5s1.2,0,1.2,0h2.3s0,0,0,0l.9-.7,2.8-2.5.5-.6.2-.9.6-5.4.4-.8,1.9-1.8,2-1.6.2-1.5h.5c0,0,.8-.4.8-.4l.7-.3.6-.4,1-.6.8-.5,1.6-1.3,1-1.1.5-.5.4-.3.4-.3.2-1.3.4-1.2.6-1.7v-.3c0,0,0,0,0,0v-.2c0,0,1.7-5,1.7-5l1.7-3.2h.2c0,0,.1.1.1.1h.2c0,0,.2.2.2.2l.3-.5h0s.2,0,.2,0l.3-.5.3-.6.3-.7.2-.7.2-.6v-.3c.1,0,.2-.4.2-.4l.3-.4v-.4s.3-.2.3-.2v.2s0,.1,0,.1h0s.1,0,.1,0v.5c0,0-.1.4-.1.4v.5c-.1,0,0,.2,0,.2l.8-.8,1.9-1.8,1.6-1.6-.3-.3-.2-.2.4-.3.7-.5v-.2c0,0,.2-.2.2-.2l.3-.9h0c0,0,.1-.3.1-.3h0c0,0,0-.1,0-.1h.2c0-.1.2-.2.2-.2l.8-.4h.1c0,0,.2-.2.2-.2h.2c0-.1.2-.3.2-.3l.2-.2.2-.2h.2c0-.1.4-.3.4-.3h.2c0-.1.2-.3.2-.3h.2c0-.1.3-.3.3-.3l.3-.2h0c0,0,0,0,0,0h0c0,0,1.1-1.4,1.1-1.4l.2-.2h.1c0-.1.4-.6.4-.6h0s1.4-.8,1.4-.8l1.4-.8,2.6-.7.9-.2h.5c0-.1.3-.2.3-.2h.8c0,0,2.4-.8,2.4-.8l.7-.2h.5c0-.1,1.6-.4,1.6-.4l1.6-.3,1.2-.5,1.7-.7,3.1-1.4.5-.2.3-.2,1.2-.4h.6c0-.1,0-.2,0-.2l.9-.3.3-.2.8-.8.2.2.3-.2.3-.2h0s.4-.2.4-.2h.2c0,0,.4-.2.4-.2h0s0,0,0,0h.3c0,0,.2-.1.2-.1h.3c0-.1.2-.3.2-.3l.3-.3.4-.4.6-.5.6-.5.4-.3.7-.8.6-.6.4-.5.4-.4.4-.4.5-.5v-.2c.1,0,.6-.8.6-.8l.4-.5.4-.5v-.2c.1,0,.2-.1.2-.1v-.3c0,0,.2-.2.2-.2l.4-.5.5-.6.2-.3.4-.7.8-.7,1-.9.6-.5,1.2-.7,1.9-1.1,1.3-.5.9-.4.9-.2,1.3-.2h0s.5,0,.5,0l-1.9-2.1-1.3-1.7h0c0,0-3.6-5.1-3.6-5.1l-.6-.8-2.3-3.2-2.4-3.4-.8-1.3-.4-.7-1.8-2.9-3-5.8-2.7-8.4-.9-1.3-.9.2-2.2.4-.5,1.8-.3,1.1-.7,2.4-2.5,8.7-.3.8h0s-3.2,5.1-3.2,5.1l-.3.4-4.7,7.5-1.1,1.7-.4.6-.6.7-.3.3h0c0,0-.1.2-.1.2h-.1c0,.1-.1.2-.1.2h-.1c0,.1-.1.2-.1.2h0s-.1.1-.1.1h-.1c0,0-.1.2-.1.2h0s-.2.1-.2.1h-.2c0,0-.2.2-.2.2h-.2c0,0-.2.2-.2.2h-.2c0,0-.2-.2-.2-.2l-4.1-4.9-8.4.7-6.6.4h-.9c0,.1-1,.5-1,.5l-1.9.6-3.5.3h-1.4c0,.1.2-3.9.2-3.9h-.1s-3.1.4-3.1.4l-3.1.4-1.8.2h-.8c0,0-.2.1-.2.1h-.7c0,0-3.8.5-3.8.5l-1.3.2h-1.1c0,.1,0,.2,0,.2h-.7c0,0-.9.2-.9.2h0c0,.1,0,.3,0,.3v.4s-1.3,0-1.3,0h-1.6s-.9,0-.9,0h-1.4c0,0-.4,0-.4,0h-.7c0,0-.7-.2-.7-.2l-2-.8-3.3-1.3-4.1-1.7-3-1.3-.8-.3-1.2-.5-.8-.3"/>
        </g>
        <g class="cls-19">
          <path class="cls-5" d="M234.5,235.8l-.4-.2-.4-.2h-.2c0-.1-.5-.5-.5-.5l-.4-.4-.5-.5-.2-.2-.2-.2-.4-.4-2.2-1.9-.3-.2h0s0,0,0,0l-.4.4-.3.4h0c0,.1-1.9,2.6-1.9,2.6l-.7-.5-.6.9h-.2c0,.1,0,.4,0,.4l-.5.7v.2s.1.2.1.2v.2c.1,0,.3.4.3.4l-1.6,2.1-1.9,2.6-1,1.3-11.4,15.2-.8,1.1v.2c-.1,0-.4.5-.4.5v.3c-.1,0-.3.4-.3.4l-1,2.3-.6,1.3-2.7,6.1-4.3,10,.4.2-2,4.3-1.2,2-.2.5-8.2,18.7-4.8,11-.2.3-.4.6h-.3s-.2,0-.2,0h0s0,0,0,0h0s0,0,0,0h0c0,0,0,.3,0,.3h0s0,.5,0,.5h.1s0,.9,0,.9h-.1v1.5c0,0,.1,0,.1,0v1s-.2.1-.2.1l-1.9-1.2-.2.4-.8-.5h0c0,0,0,0,0,0h-.1c0,.1-1,1.6-1,1.6l3.3,2.1.6.5-.9.9h-.2s-3.6-1.2-3.6-1.2h0s0,0,0,0h0c0,0-.1.5-.1.5v.3c-.1,0-.2.1-.2.1h0c0,0,0,.1,0,.1l.4.2h0c0,.1.9.9.9.9v.8c0,0,0,.8,0,.8l-.4,1-.2.3-2.1,2-.3.3-25.2,24-1.9,1.8-.8.7-1.3,1.3-35.1,49.2-.8,1.1-.5.6h0c0,0-2.9,4.2-2.9,4.2h-.3c0,.1-.2.3-.2.3h0c0,0,0,.1,0,.1h-2.2s-.8,0-.8,0h-1.3s.1-1.5.1-1.5v-1.1c0,0,0-.2,0-.2h-.2c0-.1-.3,0-.3,0l-.2.2v.3s-.2,0-.2,0l-.5.2h-.5c0,0-.4.1-.4.1h-.3s-.7-.2-.7-.2l-.9-.3-.6-.2h-.6c0-.1-.5,0-.5,0h-.6c0,.1-.9.3-.9.3h-.4s-.4,0-.4,0h-.3c0-.1-.3-.3-.3-.3v-.3c0,0,0-.2,0-.2h-.2c0,0-.2,0-.2,0h-.2c0,.1-1.1,1.6-1.1,1.6v.8c-.1,0-1.2-.1-1.2-.1l-.4,1.1,1.5.2h0c0,.1-.1.5-.1.5h0c0,0,0,.4,0,.4v.5c.1,0,.7,1.2.7,1.2l.3.6v.2c0,0,.2,0,.2,0h0c0-.1,0-.2,0-.2l-.2-.7.2-.3h.4c0-.1.6-.2.6-.2l1.6.2,1.8.5.8.4.3.5,2-1.4.2-.3.8-1h.8s.8,0,.8,0h.8s.8,0,.8,0h.8s.8,0,.8,0h.8s-.8,1.2-.8,1.2v.2c-.1,0,.5,0,.5,0h.6s.8,0,.8,0h1c0,0,.9-.2.9-.2l1.1-.2h.9c0,0-.4,1.8-.4,1.8h.2s.3-1.6.3-1.6v-.3c.1,0,.4-.2.4-.2l.7-.2,1.4-.4,2.1-.7.6-.2,1.4-.7,1.5-.6,1.3-.8,1.2-.9,1.4-.9,1.3-.9h.2c0-.1.2-.3.2-.3l43.8.3,38.3.3,3.4-.6,4.7-.8,1.6-.7,3.2-2.1,8.5-5.4,6.9-4.4,3.1-2,3.1-2,7-4.5,4.1-2.6h0s.1-1.5.1-1.5v-.6s.2-2.3.2-2.3l.2-2.3.5-6.1.2-3,.4-4.8.3-3.7v-.9c0,0,.2-1.4.2-1.4h-.1s.2-2.8.2-2.8h0s0-1.2,0-1.2l.3-3.5v-1.8c.1,0,0-.3,0-.3v-.5c-.1,0-.2-.5-.2-.5l-.2-1-.5-3.4-.4-2.6v-.9c-.1,0-.8-4.9-.8-4.9h7.2c0,.1.8.1.8.1h2.1s2.4,0,2.4,0l1.4-.4h.2s0,0,0,0l.8-.2,3-.7,3.6-.9,2.9-.7,5.2-1.3,16.4-4.1h.4c0-.1-1.1-4-1.1-4l-1-3.6-.6-2.3-1.1-3.8-.9-3.4-.5-2.1-1.6-6.2-1.3-5.2-.6-2.3-1.1-4.2-.5-2.1-.2-1-.5-2h0c0,0-.2-.9-.2-.9v-.4c-.1,0-.3-.5-.3-.5l-.5-1.7-.4-1.4-.6-1.6v-.3s-.5-1.3-.5-1.3l-.8-1.9-.8-2.2-.7-1.9-.7-1.2-.8-1.2-.3-.4-1.1-1.7-1.7-2.5-1.3-1.9-.8-1.1-2-2.9-1.3-1.9-2-2.9-1.2-1.7v-.2c0,0-.4-.6-.4-.6l-.7-1.4-.2-.3-.6-1.2-.6-1.1-.3-.4-.4-.6-.8-1.5-.2-.3-1.6-2.9-4.2-7.7-1.2,1.2-1,.3h-.2s-8.8,2.4-8.8,2.4l-4.7-.4h-.6c0,0-.6-.2-.6-.2l-.7-.2h-.2c0,0-7.3-2.3-7.3-2.3"/>
        </g>
      </g>
      <g id="PathCollection_1">
        <g class="cls-9">
          <g>
            <path id="mb2d388aa84" class="cls-7" d="M234.2,201c.9,0,1.8-.4,2.5-1s1-1.6,1-2.5-.4-1.8-1-2.5-1.6-1-2.5-1-1.8.4-2.5,1-1,1.6-1,2.5.4,1.8,1,2.5,1.6,1,2.5,1Z"/>
            <path id="mb2d388aa84-2" data-name="mb2d388aa84" class="cls-7" d="M142.8,250c.9,0,1.8-.4,2.5-1s1-1.6,1-2.5-.4-1.8-1-2.5-1.6-1-2.5-1-1.8.4-2.5,1-1,1.6-1,2.5.4,1.8,1,2.5,1.6,1,2.5,1Z"/>
            <path id="mb2d388aa84-3" data-name="mb2d388aa84" class="cls-7" d="M192.6,166.2c.9,0,1.8-.4,2.5-1s1-1.6,1-2.5-.4-1.8-1-2.5-1.6-1-2.5-1-1.8.4-2.5,1-1,1.6-1,2.5.4,1.8,1,2.5,1.6,1,2.5,1Z"/>
          </g>
        </g>
      </g>
      <g id="PathCollection_2">
        <g class="cls-8">
          <path id="mb86f85828a" class="cls-3" d="M169.3,244.3c.9,0,1.8-.4,2.5-1s1-1.6,1-2.5-.4-1.8-1-2.5-1.6-1-2.5-1-1.8.4-2.5,1-1,1.6-1,2.5.4,1.8,1,2.5,1.6,1,2.5,1Z"/>
        </g>
      </g>
      <g id="PathCollection_3">
        <g class="cls-12">
          <g>
            <path id="m60fa2b415e" class="cls-4" d="M151.2,272.9c.9,0,1.8-.4,2.5-1s1-1.6,1-2.5-.4-1.8-1-2.5-1.6-1-2.5-1-1.8.4-2.5,1-1,1.6-1,2.5.4,1.8,1,2.5,1.6,1,2.5,1Z"/>
            <path id="m60fa2b415e-2" data-name="m60fa2b415e" class="cls-4" d="M182,235.3c.9,0,1.8-.4,2.5-1s1-1.6,1-2.5-.4-1.8-1-2.5-1.6-1-2.5-1-1.8.4-2.5,1-1,1.6-1,2.5.4,1.8,1,2.5,1.6,1,2.5,1Z"/>
            <path id="m60fa2b415e-3" data-name="m60fa2b415e" class="cls-4" d="M247.7,171.6c.9,0,1.8-.4,2.5-1s1-1.6,1-2.5-.4-1.8-1-2.5-1.6-1-2.5-1-1.8.4-2.5,1-1,1.6-1,2.5.4,1.8,1,2.5,1.6,1,2.5,1Z"/>
            <path id="m60fa2b415e-4" data-name="m60fa2b415e" class="cls-4" d="M144.3,207.9c.9,0,1.8-.4,2.5-1s1-1.6,1-2.5-.4-1.8-1-2.5-1.6-1-2.5-1-1.8.4-2.5,1-1,1.6-1,2.5.4,1.8,1,2.5,1.6,1,2.5,1Z"/>
            <path id="m60fa2b415e-5" data-name="m60fa2b415e" class="cls-4" d="M195.3,230.1c.9,0,1.8-.4,2.5-1s1-1.6,1-2.5-.4-1.8-1-2.5-1.6-1-2.5-1-1.8.4-2.5,1-1,1.6-1,2.5.4,1.8,1,2.5,1.6,1,2.5,1Z"/>
            <path id="m60fa2b415e-6" data-name="m60fa2b415e" class="cls-4" d="M152.6,292.4c.9,0,1.8-.4,2.5-1s1-1.6,1-2.5-.4-1.8-1-2.5-1.6-1-2.5-1-1.8.4-2.5,1-1,1.6-1,2.5.4,1.8,1,2.5,1.6,1,2.5,1Z"/>
            <path id="m60fa2b415e-7" data-name="m60fa2b415e" class="cls-4" d="M222.6,35c.9,0,1.8-.4,2.5-1s1-1.6,1-2.5-.4-1.8-1-2.5-1.6-1-2.5-1-1.8.4-2.5,1-1,1.6-1,2.5.4,1.8,1,2.5,1.6,1,2.5,1Z"/>
            <path id="m60fa2b415e-8" data-name="m60fa2b415e" class="cls-4" d="M307.9,250.1c.9,0,1.8-.4,2.5-1s1-1.6,1-2.5-.4-1.8-1-2.5-1.6-1-2.5-1-1.8.4-2.5,1-1,1.6-1,2.5.4,1.8,1,2.5,1.6,1,2.5,1Z"/>
            <path id="m60fa2b415e-9" data-name="m60fa2b415e" class="cls-4" d="M248.2,188.7c.9,0,1.8-.4,2.5-1s1-1.6,1-2.5-.4-1.8-1-2.5-1.6-1-2.5-1-1.8.4-2.5,1-1,1.6-1,2.5.4,1.8,1,2.5,1.6,1,2.5,1Z"/>
            <path id="m60fa2b415e-10" data-name="m60fa2b415e" class="cls-4" d="M209.7,189.4c.9,0,1.8-.4,2.5-1s1-1.6,1-2.5-.4-1.8-1-2.5-1.6-1-2.5-1-1.8.4-2.5,1-1,1.6-1,2.5.4,1.8,1,2.5,1.6,1,2.5,1Z"/>
            <path id="m60fa2b415e-11" data-name="m60fa2b415e" class="cls-4" d="M206.8,221.7c.9,0,1.8-.4,2.5-1s1-1.6,1-2.5-.4-1.8-1-2.5-1.6-1-2.5-1-1.8.4-2.5,1-1,1.6-1,2.5.4,1.8,1,2.5,1.6,1,2.5,1Z"/>
            <path id="m60fa2b415e-12" data-name="m60fa2b415e" class="cls-4" d="M134.5,204.2c.9,0,1.8-.4,2.5-1s1-1.6,1-2.5-.4-1.8-1-2.5-1.6-1-2.5-1-1.8.4-2.5,1-1,1.6-1,2.5.4,1.8,1,2.5,1.6,1,2.5,1Z"/>
            <path id="m60fa2b415e-13" data-name="m60fa2b415e" class="cls-4" d="M262.6,111.9c.9,0,1.8-.4,2.5-1s1-1.6,1-2.5-.4-1.8-1-2.5-1.6-1-2.5-1-1.8.4-2.5,1-1,1.6-1,2.5.4,1.8,1,2.5,1.6,1,2.5,1Z"/>
            <path id="m60fa2b415e-14" data-name="m60fa2b415e" class="cls-4" d="M218.9,205.4c.9,0,1.8-.4,2.5-1s1-1.6,1-2.5-.4-1.8-1-2.5-1.6-1-2.5-1-1.8.4-2.5,1-1,1.6-1,2.5.4,1.8,1,2.5,1.6,1,2.5,1Z"/>
            <path id="m60fa2b415e-15" data-name="m60fa2b415e" class="cls-4" d="M231.4,203.2c.9,0,1.8-.4,2.5-1s1-1.6,1-2.5-.4-1.8-1-2.5-1.6-1-2.5-1-1.8.4-2.5,1-1,1.6-1,2.5.4,1.8,1,2.5,1.6,1,2.5,1Z"/>
            <path id="m60fa2b415e-16" data-name="m60fa2b415e" class="cls-4" d="M208.7,161.5c.9,0,1.8-.4,2.5-1s1-1.6,1-2.5-.4-1.8-1-2.5-1.6-1-2.5-1-1.8.4-2.5,1-1,1.6-1,2.5.4,1.8,1,2.5,1.6,1,2.5,1Z"/>
            <path id="m60fa2b415e-17" data-name="m60fa2b415e" class="cls-4" d="M219.5,187.3c.9,0,1.8-.4,2.5-1s1-1.6,1-2.5-.4-1.8-1-2.5-1.6-1-2.5-1-1.8.4-2.5,1-1,1.6-1,2.5.4,1.8,1,2.5,1.6,1,2.5,1Z"/>
            <path id="m60fa2b415e-18" data-name="m60fa2b415e" class="cls-4" d="M180.8,237.7c.9,0,1.8-.4,2.5-1s1-1.6,1-2.5-.4-1.8-1-2.5-1.6-1-2.5-1-1.8.4-2.5,1-1,1.6-1,2.5.4,1.8,1,2.5,1.6,1,2.5,1Z"/>
            <path id="m60fa2b415e-19" data-name="m60fa2b415e" class="cls-4" d="M210.9,188.7c.9,0,1.8-.4,2.5-1s1-1.6,1-2.5-.4-1.8-1-2.5-1.6-1-2.5-1-1.8.4-2.5,1-1,1.6-1,2.5.4,1.8,1,2.5,1.6,1,2.5,1Z"/>
            <path id="m60fa2b415e-20" data-name="m60fa2b415e" class="cls-4" d="M207.3,186.2c.9,0,1.8-.4,2.5-1s1-1.6,1-2.5-.4-1.8-1-2.5-1.6-1-2.5-1-1.8.4-2.5,1-1,1.6-1,2.5.4,1.8,1,2.5,1.6,1,2.5,1Z"/>
            <path id="m60fa2b415e-21" data-name="m60fa2b415e" class="cls-4" d="M144.9,170.8c.9,0,1.8-.4,2.5-1s1-1.6,1-2.5-.4-1.8-1-2.5-1.6-1-2.5-1-1.8.4-2.5,1-1,1.6-1,2.5.4,1.8,1,2.5,1.6,1,2.5,1Z"/>
            <path id="m60fa2b415e-22" data-name="m60fa2b415e" class="cls-4" d="M198.5,174.1c.9,0,1.8-.4,2.5-1s1-1.6,1-2.5-.4-1.8-1-2.5-1.6-1-2.5-1-1.8.4-2.5,1-1,1.6-1,2.5.4,1.8,1,2.5,1.6,1,2.5,1Z"/>
            <path id="m60fa2b415e-23" data-name="m60fa2b415e" class="cls-4" d="M165.1,145.7c.9,0,1.8-.4,2.5-1s1-1.6,1-2.5-.4-1.8-1-2.5-1.6-1-2.5-1-1.8.4-2.5,1-1,1.6-1,2.5.4,1.8,1,2.5,1.6,1,2.5,1Z"/>
            <path id="m60fa2b415e-24" data-name="m60fa2b415e" class="cls-4" d="M329.6,267.7c.9,0,1.8-.4,2.5-1s1-1.6,1-2.5-.4-1.8-1-2.5-1.6-1-2.5-1-1.8.4-2.5,1-1,1.6-1,2.5.4,1.8,1,2.5,1.6,1,2.5,1Z"/>
            <path id="m60fa2b415e-25" data-name="m60fa2b415e" class="cls-4" d="M241.4,192.9c.9,0,1.8-.4,2.5-1s1-1.6,1-2.5-.4-1.8-1-2.5-1.6-1-2.5-1-1.8.4-2.5,1-1,1.6-1,2.5.4,1.8,1,2.5,1.6,1,2.5,1Z"/>
            <path id="m60fa2b415e-26" data-name="m60fa2b415e" class="cls-4" d="M256.2,94.5c.9,0,1.8-.4,2.5-1s1-1.6,1-2.5-.4-1.8-1-2.5-1.6-1-2.5-1-1.8.4-2.5,1-1,1.6-1,2.5.4,1.8,1,2.5,1.6,1,2.5,1Z"/>
            <path id="m60fa2b415e-27" data-name="m60fa2b415e" class="cls-4" d="M229.9,203c.9,0,1.8-.4,2.5-1s1-1.6,1-2.5-.4-1.8-1-2.5-1.6-1-2.5-1-1.8.4-2.5,1-1,1.6-1,2.5.4,1.8,1,2.5,1.6,1,2.5,1Z"/>
            <path id="m60fa2b415e-28" data-name="m60fa2b415e" class="cls-4" d="M217.3,198.5c.9,0,1.8-.4,2.5-1s1-1.6,1-2.5-.4-1.8-1-2.5-1.6-1-2.5-1-1.8.4-2.5,1-1,1.6-1,2.5.4,1.8,1,2.5,1.6,1,2.5,1Z"/>
            <path id="m60fa2b415e-29" data-name="m60fa2b415e" class="cls-4" d="M187.4,240c.9,0,1.8-.4,2.5-1s1-1.6,1-2.5-.4-1.8-1-2.5-1.6-1-2.5-1-1.8.4-2.5,1-1,1.6-1,2.5.4,1.8,1,2.5,1.6,1,2.5,1Z"/>
            <path id="m60fa2b415e-30" data-name="m60fa2b415e" class="cls-4" d="M231,149c.9,0,1.8-.4,2.5-1s1-1.6,1-2.5-.4-1.8-1-2.5-1.6-1-2.5-1-1.8.4-2.5,1-1,1.6-1,2.5.4,1.8,1,2.5,1.6,1,2.5,1Z"/>
            <path id="m60fa2b415e-31" data-name="m60fa2b415e" class="cls-4" d="M182.3,243.4c.9,0,1.8-.4,2.5-1s1-1.6,1-2.5-.4-1.8-1-2.5-1.6-1-2.5-1-1.8.4-2.5,1-1,1.6-1,2.5.4,1.8,1,2.5,1.6,1,2.5,1Z"/>
            <path id="m60fa2b415e-32" data-name="m60fa2b415e" class="cls-4" d="M225.8,135.8c.9,0,1.8-.4,2.5-1s1-1.6,1-2.5-.4-1.8-1-2.5-1.6-1-2.5-1-1.8.4-2.5,1-1,1.6-1,2.5.4,1.8,1,2.5,1.6,1,2.5,1Z"/>
          </g>
        </g>
      </g>
      <g id="PathCollection_4">
        <g class="cls-10">
          <g>
            <path id="mda6a0dba34" class="cls-2" d="M159,156c.9,0,1.8-.4,2.5-1s1-1.6,1-2.5-.4-1.8-1-2.5-1.6-1-2.5-1-1.8.4-2.5,1-1,1.6-1,2.5.4,1.8,1,2.5,1.6,1,2.5,1Z"/>
            <path id="mda6a0dba34-2" data-name="mda6a0dba34" class="cls-2" d="M213.5,192.4c.9,0,1.8-.4,2.5-1s1-1.6,1-2.5-.4-1.8-1-2.5-1.6-1-2.5-1-1.8.4-2.5,1-1,1.6-1,2.5.4,1.8,1,2.5,1.6,1,2.5,1Z"/>
            <path id="mda6a0dba34-3" data-name="mda6a0dba34" class="cls-2" d="M164.1,161c.9,0,1.8-.4,2.5-1s1-1.6,1-2.5-.4-1.8-1-2.5-1.6-1-2.5-1-1.8.4-2.5,1-1,1.6-1,2.5.4,1.8,1,2.5,1.6,1,2.5,1Z"/>
          </g>
        </g>
      </g>
      <g id="text_1">
        <g>
          <path id="DejaVuSans-54" d="M210.2,210.4h4.9v.7h-2.1v5.2h-.8v-5.2h-2.1v-.7Z"/>
          <path id="DejaVuSans-69" d="M215.6,211.8h.7v4.4h-.7v-4.4ZM215.6,210.1h.7v.9h-.7v-.9Z"/>
          <path id="DejaVuSans-76" d="M217.4,211.8h.8l1.4,3.7,1.4-3.7h.8l-1.6,4.4h-1l-1.6-4.4Z"/>
          <path id="DejaVuSans-6f" d="M224.3,212.3c-.4,0-.7.2-.9.5s-.3.7-.3,1.2.1.9.3,1.2c.2.3.5.5.9.5s.7-.2.9-.5c.2-.3.3-.7.3-1.2s-.1-.9-.3-1.2c-.2-.3-.5-.5-.9-.5ZM224.3,211.7c.6,0,1.1.2,1.5.6.4.4.5,1,.5,1.7s-.2,1.3-.5,1.7c-.4.4-.8.6-1.5.6s-1.1-.2-1.5-.6c-.4-.4-.5-1-.5-1.7s.2-1.3.5-1.7c.4-.4.8-.6,1.5-.6Z"/>
          <path id="DejaVuSans-6c" d="M227.5,210.1h.7v6.1h-.7v-6.1Z"/>
          <path id="DejaVuSans-69-2" data-name="DejaVuSans-69" d="M229.7,211.8h.7v4.4h-.7v-4.4ZM229.7,210.1h.7v.9h-.7v-.9Z"/>
          <path id="DejaVuSans-20" d="M231.2,216.2"/>
          <path id="DejaVuSans-47" d="M238.5,215.4v-1.6h-1.3v-.6h2.1v2.5c-.3.2-.6.4-1,.5-.4.1-.8.2-1.2.2-.9,0-1.6-.3-2.1-.8-.5-.5-.8-1.3-.8-2.2s.3-1.7.8-2.2c.5-.5,1.2-.8,2.1-.8s.7,0,1.1.1c.3,0,.7.2.9.4v.8c-.3-.2-.6-.4-.9-.6s-.7-.2-1-.2c-.7,0-1.3.2-1.6.6-.4.4-.5,1-.5,1.8s.2,1.4.5,1.8c.4.4.9.6,1.6.6s.5,0,.7,0c.2,0,.4-.1.6-.2Z"/>
          <path id="DejaVuSans-61" d="M242.7,214c-.6,0-1,0-1.2.2s-.3.4-.3.7,0,.5.3.6c.2.1.4.2.7.2s.7-.1,1-.4.4-.7.4-1.1v-.2h-.7ZM244.1,213.7v2.5h-.7v-.7c-.2.3-.4.5-.6.6-.2.1-.5.2-.9.2s-.8-.1-1.1-.4c-.3-.3-.4-.6-.4-1s.2-.9.5-1.1c.3-.2.8-.4,1.5-.4h1c0-.4-.1-.7-.3-.8s-.5-.3-.9-.3-.5,0-.7,0c-.2,0-.5.1-.7.3v-.7c.3-.1.5-.2.8-.2.2,0,.5,0,.7,0,.6,0,1.1.2,1.4.5.3.3.5.8.5,1.5Z"/>
          <path id="DejaVuSans-72" d="M248.1,212.5c0,0-.2,0-.3-.1,0,0-.2,0-.3,0-.4,0-.7.1-.9.4s-.3.6-.3,1.1v2.3h-.7v-4.4h.7v.7c.2-.3.3-.5.6-.6.2-.1.5-.2.9-.2s.1,0,.2,0c0,0,.1,0,.2,0v.7Z"/>
          <path id="DejaVuSans-64" d="M251.6,212.5v-2.4h.7v6.1h-.7v-.7c-.2.3-.3.5-.6.6-.2.1-.5.2-.8.2-.5,0-1-.2-1.3-.6-.3-.4-.5-1-.5-1.7s.2-1.2.5-1.7c.3-.4.8-.6,1.3-.6s.6,0,.8.2c.2.1.4.3.6.6ZM249.2,214c0,.5.1.9.3,1.2.2.3.5.5.9.5s.7-.2.9-.5c.2-.3.3-.7.3-1.2s-.1-.9-.3-1.2c-.2-.3-.5-.5-.9-.5s-.7.2-.9.5-.3.7-.3,1.2Z"/>
          <path id="DejaVuSans-65" d="M257.6,213.8v.4h-3.3c0,.5.2.9.4,1.1.3.3.6.4,1.1.4s.5,0,.8-.1.5-.2.8-.3v.7c-.3.1-.5.2-.8.2s-.5,0-.8,0c-.7,0-1.3-.2-1.7-.6-.4-.4-.6-1-.6-1.6s.2-1.3.6-1.7c.4-.4.9-.6,1.6-.6s1.1.2,1.4.6c.3.4.5.9.5,1.5ZM256.8,213.6c0-.4-.1-.7-.3-.9-.2-.2-.5-.4-.9-.4s-.7.1-1,.3-.4.5-.4,1h2.6Z"/>
          <path id="DejaVuSans-6e" d="M262.4,213.6v2.6h-.7v-2.6c0-.4,0-.7-.2-.9-.2-.2-.4-.3-.7-.3s-.7.1-.9.4c-.2.2-.3.6-.3,1v2.5h-.7v-4.4h.7v.7c.2-.3.4-.5.6-.6.2-.1.5-.2.8-.2.5,0,.9.2,1.1.5.3.3.4.8.4,1.4Z"/>
          <path id="DejaVuSans-73" d="M266.6,212v.7c-.2-.1-.4-.2-.6-.2-.2,0-.4,0-.7,0-.4,0-.6,0-.8.2-.2.1-.3.3-.3.5s0,.3.2.4.4.2.8.3h.2c.5.2.9.3,1.1.5s.3.5.3.8-.2.7-.5,1c-.3.2-.8.4-1.3.4s-.5,0-.7,0c-.3,0-.5-.1-.8-.2v-.7c.3.1.5.2.8.3.3,0,.5.1.8.1s.6,0,.8-.2c.2-.1.3-.3.3-.5s0-.3-.2-.4c-.1-.1-.4-.2-.9-.3h-.2c-.4-.2-.8-.3-1-.5-.2-.2-.3-.5-.3-.8s.1-.7.4-1c.3-.2.7-.3,1.2-.3s.5,0,.7,0c.2,0,.5,0,.6.2Z"/>
        </g>
      </g>
      <g id="text_2">
        <g>
          <path id="DejaVuSans-4e" d="M251.9,190.5h1.1l2.6,4.9v-4.9h.8v5.8h-1.1l-2.6-4.9v4.9h-.8v-5.8Z"/>
          <path id="DejaVuSans-79" d="M259.7,196.7c-.2.5-.4.9-.6,1-.2.2-.4.2-.8.2h-.6v-.6h.4c.2,0,.4,0,.5-.1.1,0,.2-.3.4-.7v-.3c.1,0-1.6-4.3-1.6-4.3h.8l1.4,3.4,1.4-3.4h.8l-1.9,4.8Z"/>
          <path id="DejaVuSans-68" d="M266.3,193.7v2.6h-.7v-2.6c0-.4,0-.7-.2-.9-.2-.2-.4-.3-.7-.3s-.7.1-.9.4c-.2.2-.3.6-.3,1v2.5h-.7v-6.1h.7v2.4c.2-.3.4-.5.6-.6.2-.1.5-.2.8-.2.5,0,.9.2,1.1.5.3.3.4.8.4,1.4Z"/>
          <path id="DejaVuSans-61-2" data-name="DejaVuSans-61" d="M269.7,194.1c-.6,0-1,0-1.2.2s-.3.4-.3.7,0,.5.3.6c.2.1.4.2.7.2s.7-.1,1-.4.4-.7.4-1.1v-.2h-.7ZM271.1,193.8v2.5h-.7v-.7c-.2.3-.4.5-.6.6-.2.1-.5.2-.9.2s-.8-.1-1.1-.4c-.3-.3-.4-.6-.4-1s.2-.9.5-1.1c.3-.2.8-.4,1.5-.4h1c0-.4-.1-.7-.3-.8s-.5-.3-.9-.3-.5,0-.7,0c-.2,0-.5.1-.7.3v-.7c.3-.1.5-.2.8-.2.2,0,.5,0,.7,0,.6,0,1.1.2,1.4.5.3.3.5.8.5,1.5Z"/>
          <path id="DejaVuSans-76-2" data-name="DejaVuSans-76" d="M272.1,192h.8l1.4,3.7,1.4-3.7h.8l-1.6,4.4h-1l-1.6-4.4Z"/>
          <path id="DejaVuSans-6e-2" data-name="DejaVuSans-6e" d="M281,193.7v2.6h-.7v-2.6c0-.4,0-.7-.2-.9-.2-.2-.4-.3-.7-.3s-.7.1-.9.4c-.2.2-.3.6-.3,1v2.5h-.7v-4.4h.7v.7c.2-.3.4-.5.6-.6.2-.1.5-.2.8-.2.5,0,.9.2,1.1.5.3.3.4.8.4,1.4Z"/>
        </g>
      </g>
      <g id="text_3">
        <g>
          <path id="DejaVuSans-54-2" data-name="DejaVuSans-54" d="M268.7,146.1h4.9v.7h-2.1v5.2h-.8v-5.2h-2.1v-.7Z"/>
          <path id="DejaVuSans-68-2" data-name="DejaVuSans-68" d="M278,149.3v2.6h-.7v-2.6c0-.4,0-.7-.2-.9-.2-.2-.4-.3-.7-.3s-.7.1-.9.4c-.2.2-.3.6-.3,1v2.5h-.7v-6.1h.7v2.4c.2-.3.4-.5.6-.6.2-.1.5-.2.8-.2.5,0,.9.2,1.1.5.3.3.4.8.4,1.4Z"/>
          <path id="DejaVuSans-65-2" data-name="DejaVuSans-65" d="M283.2,149.6v.4h-3.3c0,.5.2.9.4,1.1.3.3.6.4,1.1.4s.5,0,.8-.1.5-.2.8-.3v.7c-.3.1-.5.2-.8.2s-.5,0-.8,0c-.7,0-1.3-.2-1.7-.6-.4-.4-.6-1-.6-1.6s.2-1.3.6-1.7c.4-.4.9-.6,1.6-.6s1.1.2,1.4.6c.3.4.5.9.5,1.5ZM282.4,149.4c0-.4-.1-.7-.3-.9-.2-.2-.5-.4-.9-.4s-.7.1-1,.3-.4.5-.4,1h2.6Z"/>
          <path id="DejaVuSans-20-2" data-name="DejaVuSans-20" d="M283.6,151.9"/>
          <path id="DejaVuSans-4c" d="M286.9,146.1h.8v5.2h2.8v.7h-3.6v-5.8Z"/>
          <path id="DejaVuSans-69-3" data-name="DejaVuSans-69" d="M291.3,147.6h.7v4.4h-.7v-4.4ZM291.3,145.9h.7v.9h-.7v-.9Z"/>
          <path id="DejaVuSans-74" d="M294.3,146.3v1.2h1.5v.6h-1.5v2.4c0,.4,0,.6.1.7s.3.2.6.2h.7v.6h-.7c-.6,0-.9-.1-1.1-.3-.2-.2-.3-.6-.3-1.1v-2.4h-.5v-.6h.5v-1.2h.7Z"/>
          <path id="DejaVuSans-74-2" data-name="DejaVuSans-74" d="M297.4,146.3v1.2h1.5v.6h-1.5v2.4c0,.4,0,.6.1.7s.3.2.6.2h.7v.6h-.7c-.6,0-.9-.1-1.1-.3-.2-.2-.3-.6-.3-1.1v-2.4h-.5v-.6h.5v-1.2h.7Z"/>
          <path id="DejaVuSans-6c-2" data-name="DejaVuSans-6c" d="M299.8,145.9h.7v6.1h-.7v-6.1Z"/>
          <path id="DejaVuSans-65-3" data-name="DejaVuSans-65" d="M305.8,149.6v.4h-3.3c0,.5.2.9.4,1.1.3.3.6.4,1.1.4s.5,0,.8-.1.5-.2.8-.3v.7c-.3.1-.5.2-.8.2s-.5,0-.8,0c-.7,0-1.3-.2-1.7-.6-.4-.4-.6-1-.6-1.6s.2-1.3.6-1.7c.4-.4.9-.6,1.6-.6s1.1.2,1.4.6c.3.4.5.9.5,1.5ZM305.1,149.4c0-.4-.1-.7-.3-.9-.2-.2-.5-.4-.9-.4s-.7.1-1,.3-.4.5-.4,1h2.6Z"/>
          <path id="DejaVuSans-20-3" data-name="DejaVuSans-20" d="M306.2,151.9"/>
          <path id="DejaVuSans-4d" d="M309.6,146.1h1.2l1.5,4,1.5-4h1.2v5.8h-.8v-5.1l-1.5,4h-.8l-1.5-4v5.1h-.8v-5.8Z"/>
          <path id="DejaVuSans-65-4" data-name="DejaVuSans-65" d="M320.2,149.6v.4h-3.3c0,.5.2.9.4,1.1.3.3.6.4,1.1.4s.5,0,.8-.1.5-.2.8-.3v.7c-.3.1-.5.2-.8.2s-.5,0-.8,0c-.7,0-1.3-.2-1.7-.6-.4-.4-.6-1-.6-1.6s.2-1.3.6-1.7c.4-.4.9-.6,1.6-.6s1.1.2,1.4.6c.3.4.5.9.5,1.5ZM319.4,149.4c0-.4-.1-.7-.3-.9-.2-.2-.5-.4-.9-.4s-.7.1-1,.3-.4.5-.4,1h2.6Z"/>
          <path id="DejaVuSans-72-2" data-name="DejaVuSans-72" d="M323.9,148.2c0,0-.2,0-.3-.1,0,0-.2,0-.3,0-.4,0-.7.1-.9.4s-.3.6-.3,1.1v2.3h-.7v-4.4h.7v.7c.2-.3.3-.5.6-.6.2-.1.5-.2.9-.2s.1,0,.2,0c0,0,.1,0,.2,0v.7Z"/>
          <path id="DejaVuSans-6d" d="M327.9,148.4c.2-.3.4-.6.6-.7s.5-.2.9-.2.8.2,1.1.5c.2.3.4.8.4,1.4v2.6h-.7v-2.6c0-.4,0-.7-.2-.9-.1-.2-.4-.3-.7-.3s-.7.1-.9.4c-.2.2-.3.6-.3,1v2.5h-.7v-2.6c0-.4,0-.7-.2-.9s-.4-.3-.7-.3-.7.1-.9.4c-.2.2-.3.6-.3,1v2.5h-.7v-4.4h.7v.7c.2-.3.4-.5.6-.6s.5-.2.8-.2.6,0,.8.2c.2.2.4.4.5.7Z"/>
          <path id="DejaVuSans-61-3" data-name="DejaVuSans-61" d="M334.3,149.8c-.6,0-1,0-1.2.2s-.3.4-.3.7,0,.5.3.6c.2.1.4.2.7.2s.7-.1,1-.4.4-.7.4-1.1v-.2h-.7ZM335.7,149.5v2.5h-.7v-.7c-.2.3-.4.5-.6.6-.2.1-.5.2-.9.2s-.8-.1-1.1-.4c-.3-.3-.4-.6-.4-1s.2-.9.5-1.1c.3-.2.8-.4,1.5-.4h1c0-.4-.1-.7-.3-.8s-.5-.3-.9-.3-.5,0-.7,0c-.2,0-.5.1-.7.3v-.7c.3-.1.5-.2.8-.2.2,0,.5,0,.7,0,.6,0,1.1.2,1.4.5.3.3.5.8.5,1.5Z"/>
          <path id="DejaVuSans-69-4" data-name="DejaVuSans-69" d="M337.2,147.6h.7v4.4h-.7v-4.4ZM337.2,145.9h.7v.9h-.7v-.9Z"/>
          <path id="DejaVuSans-64-2" data-name="DejaVuSans-64" d="M342.3,148.2v-2.4h.7v6.1h-.7v-.7c-.2.3-.3.5-.6.6-.2.1-.5.2-.8.2-.5,0-1-.2-1.3-.6-.3-.4-.5-1-.5-1.7s.2-1.2.5-1.7c.3-.4.8-.6,1.3-.6s.6,0,.8.2c.2.1.4.3.6.6ZM339.8,149.8c0,.5.1.9.3,1.2.2.3.5.5.9.5s.7-.2.9-.5c.2-.3.3-.7.3-1.2s-.1-.9-.3-1.2c-.2-.3-.5-.5-.9-.5s-.7.2-.9.5-.3.7-.3,1.2Z"/>
        </g>
      </g>
      <g id="text_4">
        <g>
          <path id="DejaVuSans-43" class="cls-22" d="M73.3-127.1v1.5c-.5-.4-1-.8-1.5-1-.5-.2-1.1-.3-1.7-.3-1.2,0-2.1.4-2.7,1.1s-.9,1.7-.9,3.1.3,2.4.9,3.1,1.5,1.1,2.7,1.1,1.2-.1,1.7-.3,1-.5,1.5-1v1.4c-.5.3-1,.6-1.5.7-.5.2-1.1.2-1.7.2-1.5,0-2.8-.5-3.7-1.4-.9-.9-1.3-2.2-1.3-3.9s.4-2.9,1.3-3.9c.9-.9,2.1-1.4,3.7-1.4s1.2,0,1.7.2c.5.2,1,.4,1.5.7Z"/>
          <path id="DejaVuSans-6f-2" data-name="DejaVuSans-6f" class="cls-22" d="M78.3-124.4c-.7,0-1.2.3-1.6.8s-.6,1.2-.6,2.2.2,1.6.6,2.2c.4.5.9.8,1.6.8s1.2-.3,1.6-.8c.4-.5.6-1.2.6-2.2s-.2-1.6-.6-2.2c-.4-.5-.9-.8-1.6-.8ZM78.3-125.5c1.1,0,2,.4,2.6,1.1.6.7.9,1.7.9,3s-.3,2.2-.9,3c-.6.7-1.5,1.1-2.6,1.1s-2-.4-2.6-1.1c-.6-.7-.9-1.7-.9-3s.3-2.2.9-3c.6-.7,1.5-1.1,2.6-1.1Z"/>
          <path id="DejaVuSans-70" class="cls-22" d="M85.1-118.8v4.1h-1.3v-10.6h1.3v1.2c.3-.5.6-.8,1-1,.4-.2.9-.3,1.4-.3.9,0,1.7.4,2.3,1.1.6.7.9,1.7.9,2.9s-.3,2.2-.9,2.9c-.6.7-1.3,1.1-2.3,1.1s-1-.1-1.4-.3c-.4-.2-.7-.6-1-1ZM89.4-121.5c0-.9-.2-1.7-.6-2.2s-.9-.8-1.6-.8-1.2.3-1.6.8-.6,1.3-.6,2.2.2,1.7.6,2.2c.4.5.9.8,1.6.8s1.2-.3,1.6-.8c.4-.5.6-1.3.6-2.2Z"/>
          <path id="DejaVuSans-65-5" data-name="DejaVuSans-65" class="cls-22" d="M99.4-121.8v.6h-5.8c0,.9.3,1.5.8,2,.5.5,1.1.7,2,.7s1,0,1.4-.2.9-.3,1.4-.5v1.2c-.5.2-.9.3-1.4.4s-1,.2-1.4.2c-1.2,0-2.2-.4-2.9-1.1-.7-.7-1.1-1.7-1.1-2.9s.3-2.2,1-3c.7-.7,1.6-1.1,2.7-1.1s1.8.3,2.4,1c.6.7.9,1.6.9,2.7ZM98.1-122.1c0-.7-.2-1.2-.6-1.6-.4-.4-.9-.6-1.5-.6s-1.3.2-1.7.6-.7,1-.7,1.7h4.5Z"/>
          <path id="DejaVuSans-6e-3" data-name="DejaVuSans-6e" class="cls-22" d="M107.8-122.3v4.6h-1.3v-4.6c0-.7-.1-1.3-.4-1.6-.3-.4-.7-.5-1.3-.5s-1.2.2-1.6.6c-.4.4-.6,1-.6,1.8v4.3h-1.3v-7.7h1.3v1.2c.3-.5.7-.8,1.1-1,.4-.2.9-.3,1.4-.3.9,0,1.5.3,2,.8.5.5.7,1.3.7,2.4Z"/>
          <path id="DejaVuSans-68-3" data-name="DejaVuSans-68" class="cls-22" d="M116.7-122.3v4.6h-1.3v-4.6c0-.7-.1-1.3-.4-1.6-.3-.4-.7-.5-1.3-.5s-1.2.2-1.6.6c-.4.4-.6,1-.6,1.8v4.3h-1.3v-10.6h1.3v4.2c.3-.5.7-.8,1.1-1,.4-.2.9-.3,1.4-.3.9,0,1.5.3,2,.8.5.5.7,1.3.7,2.4Z"/>
          <path id="DejaVuSans-61-4" data-name="DejaVuSans-61" class="cls-22" d="M122.7-121.5c-1,0-1.7.1-2.1.3s-.6.6-.6,1.2.1.8.4,1.1c.3.3.7.4,1.2.4s1.3-.2,1.7-.7.6-1.2.6-2v-.3h-1.3ZM125.2-122v4.4h-1.3v-1.2c-.3.5-.6.8-1.1,1-.4.2-1,.3-1.6.3s-1.4-.2-1.9-.7c-.5-.4-.7-1-.7-1.8s.3-1.5.9-1.9c.6-.4,1.4-.7,2.6-.7h1.8c0-.7-.2-1.2-.6-1.5s-.9-.5-1.6-.5-.9,0-1.3.2c-.4.1-.8.3-1.2.5v-1.2c.5-.2.9-.3,1.3-.4.4,0,.9-.1,1.3-.1,1.1,0,1.9.3,2.5.9.5.6.8,1.4.8,2.6Z"/>
          <path id="DejaVuSans-67" class="cls-22" d="M132.8-121.6c0-.9-.2-1.6-.6-2.1-.4-.5-.9-.8-1.6-.8s-1.2.3-1.6.8c-.4.5-.6,1.2-.6,2.1s.2,1.6.6,2.1c.4.5.9.8,1.6.8s1.2-.3,1.6-.8c.4-.5.6-1.2.6-2.1ZM134.1-118.6c0,1.3-.3,2.3-.9,2.9-.6.6-1.5,1-2.7,1s-.9,0-1.3,0-.8-.2-1.1-.3v-1.2c.4.2.7.3,1.1.4.4,0,.7.1,1.1.1.8,0,1.4-.2,1.9-.6.4-.4.6-1.1.6-2v-.6c-.3.5-.6.8-1,1s-.9.3-1.5.3c-.9,0-1.7-.4-2.3-1.1-.6-.7-.9-1.7-.9-2.8s.3-2.1.9-2.8c.6-.7,1.3-1.1,2.3-1.1s1.1.1,1.5.3.7.6,1,1v-1.2h1.3v6.7Z"/>
          <path id="DejaVuSans-65-6" data-name="DejaVuSans-65" class="cls-22" d="M143.2-121.8v.6h-5.8c0,.9.3,1.5.8,2,.5.5,1.1.7,2,.7s1,0,1.4-.2.9-.3,1.4-.5v1.2c-.5.2-.9.3-1.4.4s-1,.2-1.4.2c-1.2,0-2.2-.4-2.9-1.1-.7-.7-1.1-1.7-1.1-2.9s.3-2.2,1-3c.7-.7,1.6-1.1,2.7-1.1s1.8.3,2.4,1c.6.7.9,1.6.9,2.7ZM141.9-122.1c0-.7-.2-1.2-.6-1.6-.4-.4-.9-.6-1.5-.6s-1.3.2-1.7.6-.7,1-.7,1.7h4.5Z"/>
          <path id="DejaVuSans-6e-4" data-name="DejaVuSans-6e" class="cls-22" d="M151.6-122.3v4.6h-1.3v-4.6c0-.7-.1-1.3-.4-1.6-.3-.4-.7-.5-1.3-.5s-1.2.2-1.6.6c-.4.4-.6,1-.6,1.8v4.3h-1.3v-7.7h1.3v1.2c.3-.5.7-.8,1.1-1,.4-.2.9-.3,1.4-.3.9,0,1.5.3,2,.8.5.5.7,1.3.7,2.4Z"/>
          <path id="DejaVuSans-20-4" data-name="DejaVuSans-20" class="cls-22" d="M152.8-117.6"/>
          <path id="DejaVuSans-2013" class="cls-22" d="M157.9-122h5.6v1h-5.6v-1Z"/>
          <path id="DejaVuSans-20-5" data-name="DejaVuSans-20" class="cls-22" d="M164.3-117.6"/>
          <path id="DejaVuSans-49" class="cls-22" d="M170.1-127.8h1.4v10.2h-1.4v-10.2Z"/>
          <path id="DejaVuSans-6e-5" data-name="DejaVuSans-6e" class="cls-22" d="M180.5-122.3v4.6h-1.3v-4.6c0-.7-.1-1.3-.4-1.6-.3-.4-.7-.5-1.3-.5s-1.2.2-1.6.6c-.4.4-.6,1-.6,1.8v4.3h-1.3v-7.7h1.3v1.2c.3-.5.7-.8,1.1-1,.4-.2.9-.3,1.4-.3.9,0,1.5.3,2,.8.5.5.7,1.3.7,2.4Z"/>
          <path id="DejaVuSans-73-2" data-name="DejaVuSans-73" class="cls-22" d="M187.9-125.1v1.2c-.4-.2-.7-.3-1.1-.4-.4,0-.8-.1-1.2-.1-.6,0-1.1,0-1.4.3-.3.2-.5.5-.5.9s.1.5.3.7.7.3,1.3.5h.4c.9.3,1.5.6,1.9.9s.6.8.6,1.5-.3,1.3-.8,1.7c-.6.4-1.3.6-2.3.6s-.8,0-1.3-.1c-.4,0-.9-.2-1.4-.4v-1.3c.5.2.9.4,1.4.5.5.1.9.2,1.3.2s1-.1,1.4-.3c.3-.2.5-.5.5-.9s-.1-.6-.3-.8c-.2-.2-.7-.4-1.5-.5h-.4c-.8-.3-1.3-.5-1.7-.9-.3-.3-.5-.8-.5-1.4s.3-1.3.8-1.7c.5-.4,1.2-.6,2.2-.6s.9,0,1.3.1c.4,0,.8.2,1.1.3Z"/>
          <path id="DejaVuSans-74-3" data-name="DejaVuSans-74" class="cls-22" d="M191.6-127.5v2.2h2.6v1h-2.6v4.2c0,.6,0,1,.3,1.2s.5.3,1,.3h1.3v1.1h-1.3c-1,0-1.6-.2-2-.5-.4-.4-.6-1-.6-2v-4.2h-.9v-1h.9v-2.2h1.3Z"/>
          <path id="DejaVuSans-61-5" data-name="DejaVuSans-61" class="cls-22" d="M199.3-121.5c-1,0-1.7.1-2.1.3s-.6.6-.6,1.2.1.8.4,1.1c.3.3.7.4,1.2.4s1.3-.2,1.7-.7.6-1.2.6-2v-.3h-1.3ZM201.8-122v4.4h-1.3v-1.2c-.3.5-.6.8-1.1,1-.4.2-1,.3-1.6.3s-1.4-.2-1.9-.7c-.5-.4-.7-1-.7-1.8s.3-1.5.9-1.9c.6-.4,1.4-.7,2.6-.7h1.8c0-.7-.2-1.2-.6-1.5s-.9-.5-1.6-.5-.9,0-1.3.2c-.4.1-.8.3-1.2.5v-1.2c.5-.2.9-.3,1.3-.4.4,0,.9-.1,1.3-.1,1.1,0,1.9.3,2.5.9.5.6.8,1.4.8,2.6Z"/>
          <path id="DejaVuSans-67-2" data-name="DejaVuSans-67" class="cls-22" d="M209.4-121.6c0-.9-.2-1.6-.6-2.1-.4-.5-.9-.8-1.6-.8s-1.2.3-1.6.8c-.4.5-.6,1.2-.6,2.1s.2,1.6.6,2.1c.4.5.9.8,1.6.8s1.2-.3,1.6-.8c.4-.5.6-1.2.6-2.1ZM210.7-118.6c0,1.3-.3,2.3-.9,2.9-.6.6-1.5,1-2.7,1s-.9,0-1.3,0-.8-.2-1.1-.3v-1.2c.4.2.7.3,1.1.4.4,0,.7.1,1.1.1.8,0,1.4-.2,1.9-.6.4-.4.6-1.1.6-2v-.6c-.3.5-.6.8-1,1s-.9.3-1.5.3c-.9,0-1.7-.4-2.3-1.1-.6-.7-.9-1.7-.9-2.8s.3-2.1.9-2.8c.6-.7,1.3-1.1,2.3-1.1s1.1.1,1.5.3.7.6,1,1v-1.2h1.3v6.7Z"/>
          <path id="DejaVuSans-72-3" data-name="DejaVuSans-72" class="cls-22" d="M217.7-124.1c-.1,0-.3-.1-.5-.2-.2,0-.3,0-.5,0-.7,0-1.3.2-1.6.7s-.6,1.1-.6,2v4h-1.3v-7.7h1.3v1.2c.3-.5.6-.8,1-1,.4-.2.9-.3,1.5-.3s.2,0,.3,0c.1,0,.2,0,.3,0v1.3Z"/>
          <path id="DejaVuSans-61-6" data-name="DejaVuSans-61" class="cls-22" d="M222.5-121.5c-1,0-1.7.1-2.1.3s-.6.6-.6,1.2.1.8.4,1.1c.3.3.7.4,1.2.4s1.3-.2,1.7-.7.6-1.2.6-2v-.3h-1.3ZM225-122v4.4h-1.3v-1.2c-.3.5-.6.8-1.1,1-.4.2-1,.3-1.6.3s-1.4-.2-1.9-.7c-.5-.4-.7-1-.7-1.8s.3-1.5.9-1.9c.6-.4,1.4-.7,2.6-.7h1.8c0-.7-.2-1.2-.6-1.5s-.9-.5-1.6-.5-.9,0-1.3.2c-.4.1-.8.3-1.2.5v-1.2c.5-.2.9-.3,1.3-.4.4,0,.9-.1,1.3-.1,1.1,0,1.9.3,2.5.9.5.6.8,1.4.8,2.6Z"/>
          <path id="DejaVuSans-6d-2" data-name="DejaVuSans-6d" class="cls-22" d="M233.6-123.8c.3-.6.7-1,1.1-1.3s1-.4,1.5-.4,1.4.3,1.8.8c.4.6.6,1.4.6,2.4v4.6h-1.3v-4.6c0-.7-.1-1.3-.4-1.6-.3-.4-.7-.5-1.2-.5s-1.2.2-1.5.6c-.4.4-.6,1-.6,1.8v4.3h-1.3v-4.6c0-.7-.1-1.3-.4-1.6s-.7-.5-1.2-.5-1.2.2-1.5.7c-.4.4-.6,1-.6,1.8v4.3h-1.3v-7.7h1.3v1.2c.3-.5.6-.8,1-1s.9-.3,1.4-.3,1,.1,1.4.4c.4.3.7.7.9,1.2Z"/>
          <path id="DejaVuSans-20-6" data-name="DejaVuSans-20" class="cls-22" d="M239.9-117.6"/>
          <path id="DejaVuSans-43-2" data-name="DejaVuSans-43" class="cls-22" d="M253.4-127.1v1.5c-.5-.4-1-.8-1.5-1-.5-.2-1.1-.3-1.7-.3-1.2,0-2.1.4-2.7,1.1s-.9,1.7-.9,3.1.3,2.4.9,3.1,1.5,1.1,2.7,1.1,1.2-.1,1.7-.3,1-.5,1.5-1v1.4c-.5.3-1,.6-1.5.7-.5.2-1.1.2-1.7.2-1.5,0-2.8-.5-3.7-1.4-.9-.9-1.3-2.2-1.3-3.9s.4-2.9,1.3-3.9c.9-.9,2.1-1.4,3.7-1.4s1.2,0,1.7.2c.5.2,1,.4,1.5.7Z"/>
          <path id="DejaVuSans-61-7" data-name="DejaVuSans-61" class="cls-22" d="M259-121.5c-1,0-1.7.1-2.1.3s-.6.6-.6,1.2.1.8.4,1.1c.3.3.7.4,1.2.4s1.3-.2,1.7-.7.6-1.2.6-2v-.3h-1.3ZM261.5-122v4.4h-1.3v-1.2c-.3.5-.6.8-1.1,1-.4.2-1,.3-1.6.3s-1.4-.2-1.9-.7c-.5-.4-.7-1-.7-1.8s.3-1.5.9-1.9c.6-.4,1.4-.7,2.6-.7h1.8c0-.7-.2-1.2-.6-1.5s-.9-.5-1.6-.5-.9,0-1.3.2c-.4.1-.8.3-1.2.5v-1.2c.5-.2.9-.3,1.3-.4.4,0,.9-.1,1.3-.1,1.1,0,1.9.3,2.5.9.5.6.8,1.4.8,2.6Z"/>
          <path id="DejaVuSans-66" class="cls-22" d="M267.9-128.3v1h-1.2c-.5,0-.8,0-.9.3-.2.2-.3.5-.3,1v.7h2.1v1h-2.1v6.7h-1.3v-6.7h-1.2v-1h1.2v-.5c0-.9.2-1.5.6-1.9.4-.4,1-.6,1.9-.6h1.2Z"/>
          <path id="DejaVuSans-e9" class="cls-22" d="M275.5-121.8v.6h-5.8c0,.9.3,1.5.8,2,.5.5,1.1.7,2,.7s1,0,1.4-.2.9-.3,1.4-.5v1.2c-.5.2-.9.3-1.4.4s-1,.2-1.4.2c-1.2,0-2.2-.4-2.9-1.1-.7-.7-1.1-1.7-1.1-2.9s.3-2.2,1-3c.7-.7,1.6-1.1,2.7-1.1s1.8.3,2.4,1c.6.7.9,1.6.9,2.7ZM274.3-122.1c0-.7-.2-1.2-.6-1.6-.4-.4-.9-.6-1.5-.6s-1.3.2-1.7.6-.7,1-.7,1.7h4.5ZM273.1-128.8h1.4l-2.2,2.6h-1l1.9-2.6Z"/>
          <path id="DejaVuSans-73-3" data-name="DejaVuSans-73" class="cls-22" d="M282.5-125.1v1.2c-.4-.2-.7-.3-1.1-.4-.4,0-.8-.1-1.2-.1-.6,0-1.1,0-1.4.3-.3.2-.5.5-.5.9s.1.5.3.7.7.3,1.3.5h.4c.9.3,1.5.6,1.9.9s.6.8.6,1.5-.3,1.3-.8,1.7c-.6.4-1.3.6-2.3.6s-.8,0-1.3-.1c-.4,0-.9-.2-1.4-.4v-1.3c.5.2.9.4,1.4.5.5.1.9.2,1.3.2s1-.1,1.4-.3c.3-.2.5-.5.5-.9s-.1-.6-.3-.8c-.2-.2-.7-.4-1.5-.5h-.4c-.8-.3-1.3-.5-1.7-.9-.3-.3-.5-.8-.5-1.4s.3-1.3.8-1.7c.5-.4,1.2-.6,2.2-.6s.9,0,1.3.1c.4,0,.8.2,1.1.3Z"/>
          <path id="DejaVuSans-20-7" data-name="DejaVuSans-20" class="cls-22" d="M283.6-117.6"/>
          <path id="DejaVuSans-62" class="cls-22" d="M294.8-121.5c0-.9-.2-1.7-.6-2.2s-.9-.8-1.6-.8-1.2.3-1.6.8-.6,1.3-.6,2.2.2,1.7.6,2.2c.4.5.9.8,1.6.8s1.2-.3,1.6-.8c.4-.5.6-1.3.6-2.2ZM290.6-124.1c.3-.5.6-.8,1-1,.4-.2.9-.3,1.4-.3.9,0,1.7.4,2.3,1.1.6.7.9,1.7.9,2.9s-.3,2.2-.9,2.9c-.6.7-1.3,1.1-2.3,1.1s-1-.1-1.4-.3c-.4-.2-.7-.6-1-1v1.1h-1.3v-10.6h1.3v4.1Z"/>
          <path id="DejaVuSans-79-2" data-name="DejaVuSans-79" class="cls-22" d="M301.4-116.9c-.4.9-.7,1.5-1,1.8-.3.3-.8.4-1.4.4h-1v-1.1h.7c.3,0,.6,0,.8-.2.2-.2.4-.6.6-1.2l.2-.6-3.1-7.5h1.3l2.4,6,2.4-6h1.3l-3.4,8.4Z"/>
          <path id="DejaVuSans-20-8" data-name="DejaVuSans-20" class="cls-22" d="M305.2-117.6"/>
          <path id="DejaVuSans-54-3" data-name="DejaVuSans-54" class="cls-22" d="M309.6-127.8h8.6v1.2h-3.6v9h-1.4v-9h-3.6v-1.2Z"/>
          <path id="DejaVuSans-68-4" data-name="DejaVuSans-68" class="cls-22" d="M325.9-122.3v4.6h-1.3v-4.6c0-.7-.1-1.3-.4-1.6-.3-.4-.7-.5-1.3-.5s-1.2.2-1.6.6c-.4.4-.6,1-.6,1.8v4.3h-1.3v-10.6h1.3v4.2c.3-.5.7-.8,1.1-1,.4-.2.9-.3,1.4-.3.9,0,1.5.3,2,.8.5.5.7,1.3.7,2.4Z"/>
          <path id="DejaVuSans-65-7" data-name="DejaVuSans-65" class="cls-22" d="M334.9-121.8v.6h-5.8c0,.9.3,1.5.8,2,.5.5,1.1.7,2,.7s1,0,1.4-.2.9-.3,1.4-.5v1.2c-.5.2-.9.3-1.4.4s-1,.2-1.4.2c-1.2,0-2.2-.4-2.9-1.1-.7-.7-1.1-1.7-1.1-2.9s.3-2.2,1-3c.7-.7,1.6-1.1,2.7-1.1s1.8.3,2.4,1c.6.7.9,1.6.9,2.7ZM333.7-122.1c0-.7-.2-1.2-.6-1.6-.4-.4-.9-.6-1.5-.6s-1.3.2-1.7.6-.7,1-.7,1.7h4.5Z"/>
          <path id="DejaVuSans-6d-3" data-name="DejaVuSans-6d" class="cls-22" d="M343-123.8c.3-.6.7-1,1.1-1.3s1-.4,1.5-.4,1.4.3,1.8.8c.4.6.6,1.4.6,2.4v4.6h-1.3v-4.6c0-.7-.1-1.3-.4-1.6-.3-.4-.7-.5-1.2-.5s-1.2.2-1.5.6c-.4.4-.6,1-.6,1.8v4.3h-1.3v-4.6c0-.7-.1-1.3-.4-1.6s-.7-.5-1.2-.5-1.2.2-1.5.7c-.4.4-.6,1-.6,1.8v4.3h-1.3v-7.7h1.3v1.2c.3-.5.6-.8,1-1s.9-.3,1.4-.3,1,.1,1.4.4c.4.3.7.7.9,1.2Z"/>
          <path id="DejaVuSans-65-8" data-name="DejaVuSans-65" class="cls-22" d="M357.2-121.8v.6h-5.8c0,.9.3,1.5.8,2,.5.5,1.1.7,2,.7s1,0,1.4-.2.9-.3,1.4-.5v1.2c-.5.2-.9.3-1.4.4s-1,.2-1.4.2c-1.2,0-2.2-.4-2.9-1.1-.7-.7-1.1-1.7-1.1-2.9s.3-2.2,1-3c.7-.7,1.6-1.1,2.7-1.1s1.8.3,2.4,1c.6.7.9,1.6.9,2.7ZM355.9-122.1c0-.7-.2-1.2-.6-1.6-.4-.4-.9-.6-1.5-.6s-1.3.2-1.7.6-.7,1-.7,1.7h4.5Z"/>
        </g>
      </g>
      <g id="PathCollection_5">
        <g class="cls-11">
          <g>
            <path id="m5def2a3b50" class="cls-6" d="M207.3,221.4c.6,0,1.2-.2,1.6-.7.4-.4.7-1,.7-1.6s-.2-1.2-.7-1.6c-.4-.4-1-.7-1.6-.7s-1.2.2-1.6.7c-.4.4-.7,1-.7,1.6s.2,1.2.7,1.6c.4.4,1,.7,1.6.7Z"/>
            <path id="m5def2a3b50-2" data-name="m5def2a3b50" class="cls-6" d="M248.2,201.6c.6,0,1.2-.2,1.6-.7.4-.4.7-1,.7-1.6s-.2-1.2-.7-1.6c-.4-.4-1-.7-1.6-.7s-1.2.2-1.6.7c-.4.4-.7,1-.7,1.6s.2,1.2.7,1.6c.4.4,1,.7,1.6.7Z"/>
            <path id="m5def2a3b50-3" data-name="m5def2a3b50" class="cls-6" d="M265.7,157.2c.6,0,1.2-.2,1.6-.7.4-.4.7-1,.7-1.6s-.2-1.2-.7-1.6c-.4-.4-1-.7-1.6-.7s-1.2.2-1.6.7c-.4.4-.7,1-.7,1.6s.2,1.2.7,1.6c.4.4,1,.7,1.6.7Z"/>
          </g>
        </g>
      </g>
      <g id="legend_1">
        <g id="text_5">
          <g>
            <path id="DejaVuSans-50" class="cls-22" d="M646.2-75.3v3.3h1.5c.6,0,1-.1,1.3-.4.3-.3.5-.7.5-1.2s-.2-.9-.5-1.2c-.3-.3-.7-.4-1.3-.4h-1.5ZM645-76.3h2.7c1,0,1.7.2,2.2.7.5.4.8,1.1.8,1.9s-.3,1.5-.8,2c-.5.4-1.2.7-2.2.7h-1.5v3.5h-1.2v-8.7Z"/>
            <path id="DejaVuSans-72-4" data-name="DejaVuSans-72" class="cls-22" d="M655.8-73.1c-.1,0-.3-.1-.4-.2-.1,0-.3,0-.5,0-.6,0-1.1.2-1.4.6s-.5,1-.5,1.7v3.5h-1.1v-6.6h1.1v1c.2-.4.5-.7.9-.9.4-.2.8-.3,1.3-.3s.2,0,.2,0c0,0,.2,0,.3,0v1.1Z"/>
            <path id="DejaVuSans-69-5" data-name="DejaVuSans-69" class="cls-22" d="M657-74.1h1.1v6.6h-1.1v-6.6ZM657-76.7h1.1v1.4h-1.1v-1.4Z"/>
            <path id="DejaVuSans-6d-4" data-name="DejaVuSans-6d" class="cls-22" d="M665.4-72.8c.3-.5.6-.8,1-1.1s.8-.3,1.3-.3,1.2.2,1.6.7c.4.5.6,1.2.6,2v4h-1.1v-3.9c0-.6-.1-1.1-.3-1.4-.2-.3-.6-.5-1-.5s-1,.2-1.3.6c-.3.4-.5.9-.5,1.5v3.7h-1.1v-3.9c0-.6-.1-1.1-.3-1.4s-.6-.5-1-.5-1,.2-1.3.6c-.3.4-.5.9-.5,1.5v3.7h-1.1v-6.6h1.1v1c.2-.4.5-.7.9-.9s.8-.3,1.2-.3.9.1,1.2.4c.3.2.6.6.7,1.1Z"/>
            <path id="DejaVuSans-61-8" data-name="DejaVuSans-61" class="cls-22" d="M675-70.8c-.9,0-1.5,0-1.8.3s-.5.5-.5,1,.1.7.4.9c.3.2.6.3,1,.3s1.1-.2,1.4-.6.5-1,.5-1.7v-.2h-1.1ZM677.1-71.3v3.7h-1.1v-1c-.2.4-.6.7-.9.9-.4.2-.8.3-1.3.3s-1.2-.2-1.6-.6c-.4-.4-.6-.9-.6-1.5s.2-1.3.7-1.7c.5-.4,1.2-.6,2.2-.6h1.5c0-.6-.2-1-.5-1.3s-.8-.4-1.4-.4-.7,0-1.1.1c-.4,0-.7.2-1,.4v-1c.4-.2.8-.3,1.1-.3.4,0,.7-.1,1.1-.1,1,0,1.7.2,2.1.7.5.5.7,1.2.7,2.2Z"/>
            <path id="DejaVuSans-72-5" data-name="DejaVuSans-72" class="cls-22" d="M683.1-73.1c-.1,0-.3-.1-.4-.2-.1,0-.3,0-.5,0-.6,0-1.1.2-1.4.6s-.5,1-.5,1.7v3.5h-1.1v-6.6h1.1v1c.2-.4.5-.7.9-.9.4-.2.8-.3,1.3-.3s.2,0,.2,0c0,0,.2,0,.3,0v1.1Z"/>
            <path id="DejaVuSans-79-3" data-name="DejaVuSans-79" class="cls-22" d="M687-66.9c-.3.8-.6,1.3-.9,1.5-.3.2-.7.4-1.2.4h-.9v-.9h.6c.3,0,.5,0,.7-.2.2-.1.3-.5.5-1l.2-.5-2.7-6.5h1.1l2.1,5.1,2.1-5.1h1.1l-2.9,7.2Z"/>
            <path id="DejaVuSans-20-9" data-name="DejaVuSans-20" class="cls-22" d="M690.2-67.5"/>
            <path id="DejaVuSans-54-4" data-name="DejaVuSans-54" class="cls-22" d="M694-76.3h7.4v1h-3.1v7.8h-1.2v-7.8h-3.1v-1Z"/>
            <path id="DejaVuSans-68-5" data-name="DejaVuSans-68" class="cls-22" d="M708-71.5v4h-1.1v-3.9c0-.6-.1-1.1-.4-1.4-.2-.3-.6-.5-1.1-.5s-1,.2-1.4.6c-.3.4-.5.9-.5,1.5v3.7h-1.1v-9.1h1.1v3.6c.3-.4.6-.7.9-.9.3-.2.8-.3,1.2-.3.8,0,1.3.2,1.7.7.4.5.6,1.2.6,2.1Z"/>
            <path id="DejaVuSans-65-9" data-name="DejaVuSans-65" class="cls-22" d="M715.7-71.1v.5h-5c0,.7.3,1.3.7,1.7.4.4,1,.6,1.7.6s.8,0,1.2-.2.8-.3,1.2-.5v1c-.4.2-.8.3-1.2.4s-.8.1-1.2.1c-1,0-1.9-.3-2.5-.9-.6-.6-.9-1.4-.9-2.5s.3-1.9.9-2.6c.6-.6,1.4-.9,2.3-.9s1.6.3,2.1.9c.5.6.8,1.3.8,2.3ZM714.7-71.4c0-.6-.2-1.1-.5-1.4-.3-.4-.7-.5-1.3-.5s-1.1.2-1.4.5-.6.8-.6,1.4h3.8Z"/>
            <path id="DejaVuSans-6d-5" data-name="DejaVuSans-6d" class="cls-22" d="M722.6-72.8c.3-.5.6-.8,1-1.1s.8-.3,1.3-.3,1.2.2,1.6.7c.4.5.6,1.2.6,2v4h-1.1v-3.9c0-.6-.1-1.1-.3-1.4-.2-.3-.6-.5-1-.5s-1,.2-1.3.6c-.3.4-.5.9-.5,1.5v3.7h-1.1v-3.9c0-.6-.1-1.1-.3-1.4s-.6-.5-1-.5-1,.2-1.3.6c-.3.4-.5.9-.5,1.5v3.7h-1.1v-6.6h1.1v1c.2-.4.5-.7.9-.9s.8-.3,1.2-.3.9.1,1.2.4c.3.2.6.6.7,1.1Z"/>
            <path id="DejaVuSans-65-10" data-name="DejaVuSans-65" class="cls-22" d="M734.8-71.1v.5h-5c0,.7.3,1.3.7,1.7.4.4,1,.6,1.7.6s.8,0,1.2-.2.8-.3,1.2-.5v1c-.4.2-.8.3-1.2.4s-.8.1-1.2.1c-1,0-1.9-.3-2.5-.9-.6-.6-.9-1.4-.9-2.5s.3-1.9.9-2.6c.6-.6,1.4-.9,2.3-.9s1.6.3,2.1.9c.5.6.8,1.3.8,2.3ZM733.7-71.4c0-.6-.2-1.1-.5-1.4-.3-.4-.7-.5-1.3-.5s-1.1.2-1.4.5-.6.8-.6,1.4h3.8Z"/>
          </g>
        </g>
        <g id="PathCollection_6">
          <path id="mb2d388aa84-4" data-name="mb2d388aa84" class="cls-7" d="M635.2-50.5c.9,0,1.8-.4,2.5-1s1-1.6,1-2.5-.4-1.8-1-2.5-1.6-1-2.5-1-1.8.4-2.5,1-1,1.6-1,2.5.4,1.8,1,2.5,1.6,1,2.5,1Z"/>
        </g>
        <g id="text_6">
          <g>
            <path id="DejaVuSans-64-3" data-name="DejaVuSans-64" class="cls-22" d="M660-56.3v-3.3h1v8.4h-1v-.9c-.2.4-.5.6-.8.8-.3.2-.7.3-1.1.3-.7,0-1.3-.3-1.8-.9-.5-.6-.7-1.3-.7-2.3s.2-1.7.7-2.3c.5-.6,1-.9,1.8-.9s.8,0,1.1.3c.3.2.6.4.8.8ZM656.6-54.2c0,.7.1,1.3.4,1.7.3.4.7.6,1.2.6s.9-.2,1.2-.6c.3-.4.5-1,.5-1.7s-.2-1.3-.5-1.7c-.3-.4-.7-.6-1.2-.6s-.9.2-1.2.6-.4,1-.4,1.7Z"/>
            <path id="DejaVuSans-65-11" data-name="DejaVuSans-65" class="cls-22" d="M668.2-54.4v.5h-4.5c0,.7.2,1.2.6,1.6.4.4.9.5,1.5.5s.7,0,1.1-.1.7-.2,1.1-.4v.9c-.4.2-.7.3-1.1.3s-.7.1-1.1.1c-1,0-1.7-.3-2.3-.8-.6-.6-.8-1.3-.8-2.3s.3-1.8.8-2.3c.5-.6,1.2-.9,2.2-.9s1.4.3,1.9.8c.5.5.7,1.2.7,2.1ZM667.2-54.7c0-.5-.2-1-.5-1.3-.3-.3-.7-.5-1.2-.5s-1,.2-1.3.5-.5.8-.6,1.3h3.5Z"/>
            <path id="DejaVuSans-73-4" data-name="DejaVuSans-73" class="cls-22" d="M673.6-57v.9c-.3-.1-.6-.3-.9-.3-.3,0-.6-.1-.9-.1-.5,0-.9,0-1.1.2-.2.2-.4.4-.4.7s0,.4.3.5.5.3,1.1.4h.3c.7.2,1.2.4,1.5.7s.4.7.4,1.1-.2,1-.7,1.3c-.4.3-1.1.5-1.8.5s-.7,0-1,0c-.3,0-.7-.2-1.1-.3v-1c.4.2.7.3,1.1.4.4,0,.7.1,1.1.1s.8,0,1.1-.2c.3-.2.4-.4.4-.7s0-.5-.3-.6c-.2-.1-.6-.3-1.2-.4h-.3c-.6-.2-1.1-.4-1.3-.7-.3-.3-.4-.6-.4-1.1s.2-1,.6-1.3c.4-.3,1-.5,1.7-.5s.7,0,1,0c.3,0,.6.1.9.2Z"/>
            <path id="DejaVuSans-69-6" data-name="DejaVuSans-69" class="cls-22" d="M675.5-57.2h1v6h-1v-6ZM675.5-59.5h1v1.3h-1v-1.3Z"/>
            <path id="DejaVuSans-67-3" data-name="DejaVuSans-67" class="cls-22" d="M682.5-54.3c0-.7-.1-1.3-.4-1.7-.3-.4-.7-.6-1.2-.6s-.9.2-1.2.6c-.3.4-.4.9-.4,1.7s.1,1.3.4,1.7c.3.4.7.6,1.2.6s.9-.2,1.2-.6c.3-.4.4-.9.4-1.7ZM683.5-51.9c0,1-.2,1.8-.7,2.3-.5.5-1.1.7-2.1.7s-.7,0-1,0-.6-.1-.9-.2v-1c.3.2.6.3.9.3.3,0,.6.1.9.1.6,0,1.1-.2,1.5-.5.3-.3.5-.8.5-1.5v-.5c-.2.4-.5.6-.8.8s-.7.3-1.1.3c-.7,0-1.3-.3-1.8-.8-.5-.6-.7-1.3-.7-2.2s.2-1.7.7-2.2c.5-.6,1-.8,1.8-.8s.8,0,1.1.3.6.4.8.8v-.9h1v5.3Z"/>
            <path id="DejaVuSans-6e-6" data-name="DejaVuSans-6e" class="cls-22" d="M690.6-54.8v3.6h-1v-3.6c0-.6-.1-1-.3-1.3-.2-.3-.6-.4-1-.4s-1,.2-1.3.5c-.3.3-.5.8-.5,1.4v3.4h-1v-6h1v.9c.2-.4.5-.6.8-.8.3-.2.7-.3,1.1-.3.7,0,1.2.2,1.6.6.4.4.5,1.1.5,1.9Z"/>
            <path id="DejaVuSans-5f" class="cls-22" d="M697.1-49.4v.8h-5.7v-.8h5.7Z"/>
            <path id="DejaVuSans-6d-6" data-name="DejaVuSans-6d" class="cls-22" d="M702.7-56c.2-.4.5-.8.9-1s.7-.3,1.2-.3,1.1.2,1.5.7c.3.4.5,1.1.5,1.9v3.6h-1v-3.6c0-.6-.1-1-.3-1.3-.2-.3-.5-.4-.9-.4s-.9.2-1.2.5c-.3.3-.4.8-.4,1.4v3.4h-1v-3.6c0-.6-.1-1-.3-1.3s-.5-.4-.9-.4-.9.2-1.2.5c-.3.3-.4.8-.4,1.4v3.4h-1v-6h1v.9c.2-.4.5-.6.8-.8s.7-.3,1.1-.3.8.1,1.1.3c.3.2.5.5.7,1Z"/>
            <path id="DejaVuSans-69-7" data-name="DejaVuSans-69" class="cls-22" d="M708.8-57.2h1v6h-1v-6ZM708.8-59.5h1v1.3h-1v-1.3Z"/>
            <path id="DejaVuSans-6e-7" data-name="DejaVuSans-6e" class="cls-22" d="M716.8-54.8v3.6h-1v-3.6c0-.6-.1-1-.3-1.3-.2-.3-.6-.4-1-.4s-1,.2-1.3.5c-.3.3-.5.8-.5,1.4v3.4h-1v-6h1v.9c.2-.4.5-.6.8-.8.3-.2.7-.3,1.1-.3.7,0,1.2.2,1.6.6.4.4.5,1.1.5,1.9Z"/>
            <path id="DejaVuSans-69-8" data-name="DejaVuSans-69" class="cls-22" d="M718.8-57.2h1v6h-1v-6ZM718.8-59.5h1v1.3h-1v-1.3Z"/>
            <path id="DejaVuSans-6d-7" data-name="DejaVuSans-6d" class="cls-22" d="M726.5-56c.2-.4.5-.8.9-1s.7-.3,1.2-.3,1.1.2,1.5.7c.3.4.5,1.1.5,1.9v3.6h-1v-3.6c0-.6-.1-1-.3-1.3-.2-.3-.5-.4-.9-.4s-.9.2-1.2.5c-.3.3-.4.8-.4,1.4v3.4h-1v-3.6c0-.6-.1-1-.3-1.3s-.5-.4-.9-.4-.9.2-1.2.5c-.3.3-.4.8-.4,1.4v3.4h-1v-6h1v.9c.2-.4.5-.6.8-.8s.7-.3,1.1-.3.8.1,1.1.3c.3.2.5.5.7,1Z"/>
            <path id="DejaVuSans-61-9" data-name="DejaVuSans-61" class="cls-22" d="M735.3-54.2c-.8,0-1.4,0-1.7.3s-.5.5-.5.9.1.6.3.8c.2.2.5.3.9.3s1-.2,1.3-.6.5-.9.5-1.5v-.2h-1ZM737.3-54.6v3.4h-1v-.9c-.2.4-.5.6-.8.8-.3.2-.7.3-1.2.3s-1.1-.2-1.5-.5c-.4-.3-.5-.8-.5-1.4s.2-1.2.7-1.5c.5-.3,1.1-.5,2-.5h1.4c0-.6-.1-.9-.4-1.2s-.7-.4-1.3-.4-.7,0-1,.1c-.3,0-.6.2-.9.4v-.9c.4-.1.7-.2,1.1-.3.3,0,.7-.1,1-.1.9,0,1.5.2,2,.7.4.5.6,1.1.6,2.1Z"/>
            <path id="DejaVuSans-6c-3" data-name="DejaVuSans-6c" class="cls-22" d="M739.3-59.5h1v8.4h-1v-8.4Z"/>
          </g>
        </g>
        <g id="PathCollection_7">
          <path id="mb86f85828a-2" data-name="mb86f85828a" class="cls-3" d="M635.2-34.1c.9,0,1.8-.4,2.5-1s1-1.6,1-2.5-.4-1.8-1-2.5-1.6-1-2.5-1-1.8.4-2.5,1-1,1.6-1,2.5.4,1.8,1,2.5,1.6,1,2.5,1Z"/>
        </g>
        <g id="text_7">
          <g>
            <path id="DejaVuSans-68-6" data-name="DejaVuSans-68" class="cls-22" d="M661-38.4v3.6h-1v-3.6c0-.6-.1-1-.3-1.3-.2-.3-.6-.4-1-.4s-1,.2-1.3.5c-.3.3-.5.8-.5,1.4v3.4h-1v-8.4h1v3.3c.2-.4.5-.6.8-.8.3-.2.7-.3,1.1-.3.7,0,1.2.2,1.6.6.4.4.5,1.1.5,1.9Z"/>
            <path id="DejaVuSans-6f-3" data-name="DejaVuSans-6f" class="cls-22" d="M665.3-40.1c-.5,0-.9.2-1.3.6s-.5,1-.5,1.7.2,1.3.5,1.7c.3.4.7.6,1.3.6s.9-.2,1.3-.6c.3-.4.5-1,.5-1.7s-.2-1.3-.5-1.7c-.3-.4-.7-.6-1.3-.6ZM665.3-40.9c.9,0,1.5.3,2,.8.5.6.7,1.3.7,2.3s-.2,1.8-.7,2.3c-.5.6-1.2.8-2,.8s-1.5-.3-2-.8c-.5-.6-.7-1.3-.7-2.3s.2-1.8.7-2.3c.5-.6,1.2-.8,2-.8Z"/>
            <path id="DejaVuSans-6d-8" data-name="DejaVuSans-6d" class="cls-22" d="M674.4-39.6c.2-.4.5-.8.9-1s.7-.3,1.2-.3,1.1.2,1.5.7c.3.4.5,1.1.5,1.9v3.6h-1v-3.6c0-.6-.1-1-.3-1.3-.2-.3-.5-.4-.9-.4s-.9.2-1.2.5c-.3.3-.4.8-.4,1.4v3.4h-1v-3.6c0-.6-.1-1-.3-1.3s-.5-.4-.9-.4-.9.2-1.2.5c-.3.3-.4.8-.4,1.4v3.4h-1v-6h1v.9c.2-.4.5-.6.8-.8s.7-.3,1.1-.3.8.1,1.1.3c.3.2.5.5.7,1Z"/>
            <path id="DejaVuSans-65-12" data-name="DejaVuSans-65" class="cls-22" d="M685.6-38v.5h-4.5c0,.7.2,1.2.6,1.6.4.4.9.5,1.5.5s.7,0,1.1-.1.7-.2,1.1-.4v.9c-.4.2-.7.3-1.1.3s-.7.1-1.1.1c-1,0-1.7-.3-2.3-.8-.6-.6-.8-1.3-.8-2.3s.3-1.8.8-2.3c.5-.6,1.2-.9,2.2-.9s1.4.3,1.9.8c.5.5.7,1.2.7,2.1ZM684.6-38.3c0-.5-.2-1-.5-1.3-.3-.3-.7-.5-1.2-.5s-1,.2-1.3.5-.5.8-.6,1.3h3.5Z"/>
            <path id="DejaVuSans-6d-9" data-name="DejaVuSans-6d" class="cls-22" d="M691.9-39.6c.2-.4.5-.8.9-1s.7-.3,1.2-.3,1.1.2,1.5.7c.3.4.5,1.1.5,1.9v3.6h-1v-3.6c0-.6-.1-1-.3-1.3-.2-.3-.5-.4-.9-.4s-.9.2-1.2.5c-.3.3-.4.8-.4,1.4v3.4h-1v-3.6c0-.6-.1-1-.3-1.3s-.5-.4-.9-.4-.9.2-1.2.5c-.3.3-.4.8-.4,1.4v3.4h-1v-6h1v.9c.2-.4.5-.6.8-.8s.7-.3,1.1-.3.8.1,1.1.3c.3.2.5.5.7,1Z"/>
            <path id="DejaVuSans-61-10" data-name="DejaVuSans-61" class="cls-22" d="M700.7-37.8c-.8,0-1.4,0-1.7.3s-.5.5-.5.9.1.6.3.8c.2.2.5.3.9.3s1-.2,1.3-.6.5-.9.5-1.5v-.2h-1ZM702.7-38.2v3.4h-1v-.9c-.2.4-.5.6-.8.8-.3.2-.7.3-1.2.3s-1.1-.2-1.5-.5c-.4-.3-.5-.8-.5-1.4s.2-1.2.7-1.5c.5-.3,1.1-.5,2-.5h1.4c0-.6-.1-.9-.4-1.2s-.7-.4-1.3-.4-.7,0-1,.1c-.3,0-.6.2-.9.4v-.9c.4-.1.7-.2,1.1-.3.3,0,.7-.1,1-.1.9,0,1.5.2,2,.7.4.5.6,1.1.6,2.1Z"/>
            <path id="DejaVuSans-64-4" data-name="DejaVuSans-64" class="cls-22" d="M708.6-39.8v-3.3h1v8.4h-1v-.9c-.2.4-.5.6-.8.8-.3.2-.7.3-1.1.3-.7,0-1.3-.3-1.8-.9-.5-.6-.7-1.3-.7-2.3s.2-1.7.7-2.3c.5-.6,1-.9,1.8-.9s.8,0,1.1.3c.3.2.6.4.8.8ZM705.3-37.7c0,.7.1,1.3.4,1.7.3.4.7.6,1.2.6s.9-.2,1.2-.6c.3-.4.5-1,.5-1.7s-.2-1.3-.5-1.7c-.3-.4-.7-.6-1.2-.6s-.9.2-1.2.6-.4,1-.4,1.7Z"/>
            <path id="DejaVuSans-65-13" data-name="DejaVuSans-65" class="cls-22" d="M716.8-38v.5h-4.5c0,.7.2,1.2.6,1.6.4.4.9.5,1.5.5s.7,0,1.1-.1.7-.2,1.1-.4v.9c-.4.2-.7.3-1.1.3s-.7.1-1.1.1c-1,0-1.7-.3-2.3-.8-.6-.6-.8-1.3-.8-2.3s.3-1.8.8-2.3c.5-.6,1.2-.9,2.2-.9s1.4.3,1.9.8c.5.5.7,1.2.7,2.1ZM715.8-38.3c0-.5-.2-1-.5-1.3-.3-.3-.7-.5-1.2-.5s-1,.2-1.3.5-.5.8-.6,1.3h3.5Z"/>
            <path id="DejaVuSans-5f-2" data-name="DejaVuSans-5f" class="cls-22" d="M723-32.9v.8h-5.7v-.8h5.7Z"/>
            <path id="DejaVuSans-62-2" data-name="DejaVuSans-62" class="cls-22" d="M728.3-37.7c0-.7-.1-1.3-.4-1.7s-.7-.6-1.2-.6-.9.2-1.2.6-.4,1-.4,1.7.1,1.3.4,1.7c.3.4.7.6,1.2.6s.9-.2,1.2-.6c.3-.4.4-1,.4-1.7ZM724.9-39.8c.2-.4.5-.6.8-.8.3-.2.7-.3,1.1-.3.7,0,1.3.3,1.8.9.5.6.7,1.3.7,2.3s-.2,1.7-.7,2.3c-.5.6-1,.9-1.8.9s-.8,0-1.1-.3c-.3-.2-.6-.4-.8-.8v.9h-1v-8.4h1v3.3Z"/>
            <path id="DejaVuSans-61-11" data-name="DejaVuSans-61" class="cls-22" d="M733.7-37.8c-.8,0-1.4,0-1.7.3s-.5.5-.5.9.1.6.3.8c.2.2.5.3.9.3s1-.2,1.3-.6.5-.9.5-1.5v-.2h-1ZM735.6-38.2v3.4h-1v-.9c-.2.4-.5.6-.8.8-.3.2-.7.3-1.2.3s-1.1-.2-1.5-.5c-.4-.3-.5-.8-.5-1.4s.2-1.2.7-1.5c.5-.3,1.1-.5,2-.5h1.4c0-.6-.1-.9-.4-1.2s-.7-.4-1.3-.4-.7,0-1,.1c-.3,0-.6.2-.9.4v-.9c.4-.1.7-.2,1.1-.3.3,0,.7-.1,1-.1.9,0,1.5.2,2,.7.4.5.6,1.1.6,2.1Z"/>
            <path id="DejaVuSans-6b" class="cls-22" d="M737.6-43.1h1v4.9l2.9-2.6h1.3l-3.2,2.8,3.3,3.2h-1.3l-3.1-2.9v2.9h-1v-8.4Z"/>
            <path id="DejaVuSans-65-14" data-name="DejaVuSans-65" class="cls-22" d="M748.8-38v.5h-4.5c0,.7.2,1.2.6,1.6.4.4.9.5,1.5.5s.7,0,1.1-.1.7-.2,1.1-.4v.9c-.4.2-.7.3-1.1.3s-.7.1-1.1.1c-1,0-1.7-.3-2.3-.8-.6-.6-.8-1.3-.8-2.3s.3-1.8.8-2.3c.5-.6,1.2-.9,2.2-.9s1.4.3,1.9.8c.5.5.7,1.2.7,2.1ZM747.8-38.3c0-.5-.2-1-.5-1.3-.3-.3-.7-.5-1.2-.5s-1,.2-1.3.5-.5.8-.6,1.3h3.5Z"/>
            <path id="DejaVuSans-73-5" data-name="DejaVuSans-73" class="cls-22" d="M754.2-40.6v.9c-.3-.1-.6-.3-.9-.3-.3,0-.6-.1-.9-.1-.5,0-.9,0-1.1.2-.2.2-.4.4-.4.7s0,.4.3.5.5.3,1.1.4h.3c.7.2,1.2.4,1.5.7s.4.7.4,1.1-.2,1-.7,1.3c-.4.3-1.1.5-1.8.5s-.7,0-1,0c-.3,0-.7-.2-1.1-.3v-1c.4.2.7.3,1.1.4.4,0,.7.1,1.1.1s.8,0,1.1-.2c.3-.2.4-.4.4-.7s0-.5-.3-.6c-.2-.1-.6-.3-1.2-.4h-.3c-.6-.2-1.1-.4-1.3-.7-.3-.3-.4-.6-.4-1.1s.2-1,.6-1.3c.4-.3,1-.5,1.7-.5s.7,0,1,0c.3,0,.6.1.9.2Z"/>
          </g>
        </g>
        <g id="PathCollection_8">
          <path id="m60fa2b415e-33" data-name="m60fa2b415e" class="cls-4" d="M635.2-17.6c.9,0,1.8-.4,2.5-1s1-1.6,1-2.5-.4-1.8-1-2.5-1.6-1-2.5-1-1.8.4-2.5,1-1,1.6-1,2.5.4,1.8,1,2.5,1.6,1,2.5,1Z"/>
        </g>
        <g id="text_8">
          <g>
            <path id="DejaVuSans-6d-10" data-name="DejaVuSans-6d" class="cls-22" d="M660.7-23.1c.2-.4.5-.8.9-1s.7-.3,1.2-.3,1.1.2,1.5.7c.3.4.5,1.1.5,1.9v3.6h-1v-3.6c0-.6-.1-1-.3-1.3-.2-.3-.5-.4-.9-.4s-.9.2-1.2.5c-.3.3-.4.8-.4,1.4v3.4h-1v-3.6c0-.6-.1-1-.3-1.3s-.5-.4-.9-.4-.9.2-1.2.5c-.3.3-.4.8-.4,1.4v3.4h-1v-6h1v.9c.2-.4.5-.6.8-.8s.7-.3,1.1-.3.8.1,1.1.3c.3.2.5.5.7,1Z"/>
            <path id="DejaVuSans-75" class="cls-22" d="M666.7-20.7v-3.6h1v3.6c0,.6.1,1,.3,1.3.2.3.6.4,1,.4s1-.2,1.3-.5c.3-.3.5-.8.5-1.4v-3.4h1v6h-1v-.9c-.2.4-.5.6-.8.8-.3.2-.7.3-1.1.3-.7,0-1.2-.2-1.6-.6-.4-.4-.5-1.1-.5-1.9ZM669.1-24.4h0Z"/>
            <path id="DejaVuSans-6c-4" data-name="DejaVuSans-6c" class="cls-22" d="M673.7-26.6h1v8.4h-1v-8.4Z"/>
            <path id="DejaVuSans-74-4" data-name="DejaVuSans-74" class="cls-22" d="M677.8-26v1.7h2v.8h-2v3.3c0,.5,0,.8.2.9s.4.2.8.2h1v.8h-1c-.8,0-1.3-.1-1.6-.4-.3-.3-.4-.8-.4-1.6v-3.3h-.7v-.8h.7v-1.7h1Z"/>
            <path id="DejaVuSans-69-9" data-name="DejaVuSans-69" class="cls-22" d="M681.1-24.3h1v6h-1v-6ZM681.1-26.6h1v1.3h-1v-1.3Z"/>
            <path id="DejaVuSans-5f-3" data-name="DejaVuSans-5f" class="cls-22" d="M688.7-16.5v.8h-5.7v-.8h5.7Z"/>
            <path id="DejaVuSans-6c-5" data-name="DejaVuSans-6c" class="cls-22" d="M689.7-26.6h1v8.4h-1v-8.4Z"/>
            <path id="DejaVuSans-6f-4" data-name="DejaVuSans-6f" class="cls-22" d="M695-23.6c-.5,0-.9.2-1.3.6s-.5,1-.5,1.7.2,1.3.5,1.7c.3.4.7.6,1.3.6s.9-.2,1.3-.6c.3-.4.5-1,.5-1.7s-.2-1.3-.5-1.7c-.3-.4-.7-.6-1.3-.6ZM695-24.4c.9,0,1.5.3,2,.8.5.6.7,1.3.7,2.3s-.2,1.8-.7,2.3c-.5.6-1.2.8-2,.8s-1.5-.3-2-.8c-.5-.6-.7-1.3-.7-2.3s.2-1.8.7-2.3c.5-.6,1.2-.8,2-.8Z"/>
            <path id="DejaVuSans-63" class="cls-22" d="M703.8-24.1v.9c-.3-.2-.6-.3-.8-.3s-.6-.1-.9-.1c-.6,0-1.1.2-1.5.6-.4.4-.5,1-.5,1.7s.2,1.3.5,1.7c.4.4.9.6,1.5.6s.6,0,.9-.1.6-.2.8-.3v.9c-.3.1-.6.2-.9.3-.3,0-.6,0-.9,0-.9,0-1.6-.3-2.2-.9-.5-.6-.8-1.3-.8-2.3s.3-1.8.8-2.3c.5-.6,1.3-.8,2.2-.8s.6,0,.9,0c.3,0,.6.2.8.3Z"/>
            <path id="DejaVuSans-61-12" data-name="DejaVuSans-61" class="cls-22" d="M708.2-21.3c-.8,0-1.4,0-1.7.3s-.5.5-.5.9.1.6.3.8c.2.2.5.3.9.3s1-.2,1.3-.6.5-.9.5-1.5v-.2h-1ZM710.2-21.7v3.4h-1v-.9c-.2.4-.5.6-.8.8-.3.2-.7.3-1.2.3s-1.1-.2-1.5-.5c-.4-.3-.5-.8-.5-1.4s.2-1.2.7-1.5c.5-.3,1.1-.5,2-.5h1.4c0-.6-.1-.9-.4-1.2s-.7-.4-1.3-.4-.7,0-1,.1c-.3,0-.6.2-.9.4v-.9c.4-.1.7-.2,1.1-.3.3,0,.7-.1,1-.1.9,0,1.5.2,2,.7.4.5.6,1.1.6,2.1Z"/>
            <path id="DejaVuSans-74-5" data-name="DejaVuSans-74" class="cls-22" d="M713.2-26v1.7h2v.8h-2v3.3c0,.5,0,.8.2.9s.4.2.8.2h1v.8h-1c-.8,0-1.3-.1-1.6-.4-.3-.3-.4-.8-.4-1.6v-3.3h-.7v-.8h.7v-1.7h1Z"/>
            <path id="DejaVuSans-69-10" data-name="DejaVuSans-69" class="cls-22" d="M716.5-24.3h1v6h-1v-6ZM716.5-26.6h1v1.3h-1v-1.3Z"/>
            <path id="DejaVuSans-6f-5" data-name="DejaVuSans-6f" class="cls-22" d="M721.9-23.6c-.5,0-.9.2-1.3.6s-.5,1-.5,1.7.2,1.3.5,1.7c.3.4.7.6,1.3.6s.9-.2,1.3-.6c.3-.4.5-1,.5-1.7s-.2-1.3-.5-1.7c-.3-.4-.7-.6-1.3-.6ZM721.9-24.4c.9,0,1.5.3,2,.8.5.6.7,1.3.7,2.3s-.2,1.8-.7,2.3c-.5.6-1.2.8-2,.8s-1.5-.3-2-.8c-.5-.6-.7-1.3-.7-2.3s.2-1.8.7-2.3c.5-.6,1.2-.8,2-.8Z"/>
            <path id="DejaVuSans-6e-8" data-name="DejaVuSans-6e" class="cls-22" d="M731.3-21.9v3.6h-1v-3.6c0-.6-.1-1-.3-1.3-.2-.3-.6-.4-1-.4s-1,.2-1.3.5c-.3.3-.5.8-.5,1.4v3.4h-1v-6h1v.9c.2-.4.5-.6.8-.8.3-.2.7-.3,1.1-.3.7,0,1.2.2,1.6.6.4.4.5,1.1.5,1.9Z"/>
          </g>
        </g>
        <g id="PathCollection_9">
          <path id="mda6a0dba34-4" data-name="mda6a0dba34" class="cls-2" d="M635.2-1.2c.9,0,1.8-.4,2.5-1s1-1.6,1-2.5-.4-1.8-1-2.5-1.6-1-2.5-1-1.8.4-2.5,1-1,1.6-1,2.5.4,1.8,1,2.5,1.6,1,2.5,1Z"/>
        </g>
        <g id="text_9">
          <g>
            <path id="DejaVuSans-6f-6" data-name="DejaVuSans-6f" class="cls-22" d="M658.4-7.1c-.5,0-.9.2-1.3.6s-.5,1-.5,1.7.2,1.3.5,1.7c.3.4.7.6,1.3.6s.9-.2,1.3-.6c.3-.4.5-1,.5-1.7s-.2-1.3-.5-1.7c-.3-.4-.7-.6-1.3-.6ZM658.4-8c.9,0,1.5.3,2,.8.5.6.7,1.3.7,2.3s-.2,1.8-.7,2.3c-.5.6-1.2.8-2,.8s-1.5-.3-2-.8c-.5-.6-.7-1.3-.7-2.3s.2-1.8.7-2.3c.5-.6,1.2-.8,2-.8Z"/>
            <path id="DejaVuSans-72-6" data-name="DejaVuSans-72" class="cls-22" d="M666.3-6.9c-.1,0-.2-.1-.4-.1-.1,0-.3,0-.4,0-.6,0-1,.2-1.3.5s-.4.9-.4,1.6V-1.8h-1v-6h1v.9c.2-.4.5-.6.8-.8.3-.2.7-.3,1.2-.3s.1,0,.2,0c0,0,.2,0,.3,0v1Z"/>
            <path id="DejaVuSans-69-11" data-name="DejaVuSans-69" class="cls-22" d="M667.3-7.8h1V-1.8h-1v-6ZM667.3-10.2h1v1.3h-1v-1.3Z"/>
            <path id="DejaVuSans-67-4" data-name="DejaVuSans-67" class="cls-22" d="M674.3-4.9c0-.7-.1-1.3-.4-1.7-.3-.4-.7-.6-1.2-.6s-.9.2-1.2.6c-.3.4-.4.9-.4,1.7s.1,1.3.4,1.7c.3.4.7.6,1.2.6s.9-.2,1.2-.6c.3-.4.4-.9.4-1.7ZM675.3-2.6c0,1-.2,1.8-.7,2.3-.5.5-1.1.7-2.1.7s-.7,0-1,0-.6-.1-.9-.2v-1c.3.2.6.3.9.3.3,0,.6.1.9.1.6,0,1.1-.2,1.5-.5.3-.3.5-.8.5-1.5v-.5c-.2.4-.5.6-.8.8s-.7.3-1.1.3c-.7,0-1.3-.3-1.8-.8-.5-.6-.7-1.3-.7-2.2s.2-1.7.7-2.2c.5-.6,1-.8,1.8-.8s.8,0,1.1.3.6.4.8.8v-.9h1V-2.6Z"/>
            <path id="DejaVuSans-69-12" data-name="DejaVuSans-69" class="cls-22" d="M677.3-7.8h1V-1.8h-1v-6ZM677.3-10.2h1v1.3h-1v-1.3Z"/>
            <path id="DejaVuSans-6e-9" data-name="DejaVuSans-6e" class="cls-22" d="M685.4-5.5V-1.8h-1v-3.6c0-.6-.1-1-.3-1.3-.2-.3-.6-.4-1-.4s-1,.2-1.3.5c-.3.3-.5.8-.5,1.4V-1.8h-1v-6h1v.9c.2-.4.5-.6.8-.8.3-.2.7-.3,1.1-.3.7,0,1.2.2,1.6.6.4.4.5,1.1.5,1.9Z"/>
            <path id="DejaVuSans-5f-4" data-name="DejaVuSans-5f" class="cls-22" d="M691.9,0v.8h-5.7v-.8h5.7Z"/>
            <path id="DejaVuSans-66-2" data-name="DejaVuSans-66" class="cls-22" d="M695.9-10.2v.8h-.9c-.4,0-.6,0-.7.2-.1.1-.2.4-.2.8v.5h1.6v.8h-1.6V-1.8h-1v-5.2h-.9v-.8h.9v-.4c0-.7.2-1.2.5-1.5.3-.3.8-.5,1.5-.5h.9Z"/>
            <path id="DejaVuSans-6f-7" data-name="DejaVuSans-6f" class="cls-22" d="M699.1-7.1c-.5,0-.9.2-1.3.6s-.5,1-.5,1.7.2,1.3.5,1.7c.3.4.7.6,1.3.6s.9-.2,1.3-.6c.3-.4.5-1,.5-1.7s-.2-1.3-.5-1.7c-.3-.4-.7-.6-1.3-.6ZM699.1-8c.9,0,1.5.3,2,.8.5.6.7,1.3.7,2.3s-.2,1.8-.7,2.3c-.5.6-1.2.8-2,.8s-1.5-.3-2-.8c-.5-.6-.7-1.3-.7-2.3s.2-1.8.7-2.3c.5-.6,1.2-.8,2-.8Z"/>
            <path id="DejaVuSans-63-2" data-name="DejaVuSans-63" class="cls-22" d="M707.8-7.6v.9c-.3-.2-.6-.3-.8-.3s-.6-.1-.9-.1c-.6,0-1.1.2-1.5.6-.4.4-.5,1-.5,1.7s.2,1.3.5,1.7c.4.4.9.6,1.5.6s.6,0,.9-.1.6-.2.8-.3v.9c-.3.1-.6.2-.9.3-.3,0-.6,0-.9,0-.9,0-1.6-.3-2.2-.9-.5-.6-.8-1.3-.8-2.3s.3-1.8.8-2.3c.5-.6,1.3-.8,2.2-.8s.6,0,.9,0c.3,0,.6.2.8.3Z"/>
            <path id="DejaVuSans-75-2" data-name="DejaVuSans-75" class="cls-22" d="M709.4-4.2v-3.6h1v3.6c0,.6.1,1,.3,1.3.2.3.6.4,1,.4s1-.2,1.3-.5c.3-.3.5-.8.5-1.4v-3.4h1V-1.8h-1v-.9c-.2.4-.5.6-.8.8-.3.2-.7.3-1.1.3-.7,0-1.2-.2-1.6-.6-.4-.4-.5-1.1-.5-1.9ZM711.9-8h0Z"/>
            <path id="DejaVuSans-73-6" data-name="DejaVuSans-73" class="cls-22" d="M720.3-7.7v.9c-.3-.1-.6-.3-.9-.3-.3,0-.6-.1-.9-.1-.5,0-.9,0-1.1.2-.2.2-.4.4-.4.7s0,.4.3.5.5.3,1.1.4h.3c.7.2,1.2.4,1.5.7s.4.7.4,1.1-.2,1-.7,1.3c-.4.3-1.1.5-1.8.5s-.7,0-1,0c-.3,0-.7-.2-1.1-.3v-1c.4.2.7.3,1.1.4.4,0,.7.1,1.1.1s.8,0,1.1-.2c.3-.2.4-.4.4-.7s0-.5-.3-.6c-.2-.1-.6-.3-1.2-.4h-.3c-.6-.2-1.1-.4-1.3-.7-.3-.3-.4-.6-.4-1.1s.2-1,.6-1.3c.4-.3,1-.5,1.7-.5s.7,0,1,0c.3,0,.6.1.9.2Z"/>
          </g>
        </g>
      </g>
    </g>
  </g>
</svg>