<?xml version="1.0" encoding="UTF-8"?>
<svg xmlns="http://www.w3.org/2000/svg" version="1.1" viewBox="0 0 576 576">
  <defs>
    <style>
      .cls-1 {
        fill: none;
      }

      .cls-2 {
        fill: #ffd92f;
      }

      .cls-2, .cls-3, .cls-4, .cls-5, .cls-6 {
        stroke-linejoin: round;
      }

      .cls-2, .cls-3, .cls-6 {
        fill-opacity: .9;
        stroke: #fff;
        stroke-opacity: .9;
        stroke-width: .6px;
      }

      .cls-7 {
        fill: #262626;
      }

      .cls-3 {
        fill: #b3b3b3;
      }

      .cls-8 {
        opacity: .2;
      }

      .cls-4 {
        stroke: #000;
      }

      .cls-5 {
        fill-opacity: .4;
        stroke: #ccc;
        stroke-opacity: .4;
        stroke-width: .5px;
      }

      .cls-6 {
        fill: #66c2a5;
      }
    </style>
  </defs>
  <!-- Generator: Adobe Illustrator 28.7.7, SVG Export Plug-In . SVG Version: 1.2.0 Build 194)  -->
  <g>
    <g id="Layer_1">
      <rect class="cls-1" x="48.2" y="88.1" width="456.8" height="1037.7"/>
      <rect class="cls-1" x="48.2" y="88.1" width="456.8" height="1037.7"/>
      <rect class="cls-1" x="48.2" y="88.1" width="456.8" height="1037.7"/>
      <rect class="cls-1" x="48.2" y="88.1" width="456.8" height="1037.7"/>
      <rect class="cls-1" x="48.2" y="88.1" width="456.8" height="1037.7"/>
      <rect class="cls-1" x="48.2" y="88.1" width="456.8" height="1037.7"/>
      <rect class="cls-1" x="48.2" y="88.1" width="456.8" height="1037.7"/>
      <rect class="cls-1" x="48.2" y="88.1" width="456.8" height="1037.7"/>
      <rect class="cls-1" x="48.2" y="88.1" width="456.8" height="1037.7"/>
      <rect class="cls-1" x="48.2" y="88.1" width="456.8" height="1037.7"/>
      <rect class="cls-1" x="48.2" y="88.1" width="456.8" height="1037.7"/>
      <rect class="cls-1" x="48.2" y="88.1" width="456.8" height="1037.7"/>
      <rect class="cls-1" x="48.2" y="88.1" width="456.8" height="1037.7"/>
      <rect class="cls-1" x="48.2" y="88.1" width="456.8" height="1037.7"/>
      <g>
        <g class="cls-8">
          <path class="cls-5" d="M252.2,157.5v27l1.7,3.1h-2.9l-.3,2.7-12.3-6.1-5.8-1.4-9.7-6.5-5.3-1.3-3.4.4-11.7-4.9-4.5-4-1.8-5.6-3.6-4-.5-7.4,6.5-21.7,1.6-5.6-3.4-7.4,3.9-9.7,14.2-8.1,10.5-6.1,7.3-9.5-.9-6.1,1.8-2.5,13.9,4.5,3.1-1.2,4.4,4.8,5.2,1.2v-7.5h14.8v12.1c.1,0,.1,3,.1,3h-7.5l-26,19.6v10.4h11.3v23l-.3,14.9"/>
        </g>
        <g class="cls-8">
          <path class="cls-5" d="M272.6,256.4l5.3.3v7.7l-5.2,4.4-11.4-.4-2.2-2.2-1,2.3-3.8-3.4-7.9-10-10.8-2.7-8.1.4-.4-11.4-7.9,2.6-3.1,1.4-4.9-1.3-12.3-6.9-14.6-12.1-5.1-9.6.6-8.2-3.8-7.1-1.2-2.2-11.8-12.3-9.9-5.8,16-6.2,13.5-12.2,9.2-2.3v-1.9c-.1,0,3.5,4,3.5,4l1.8,5.6,4.5,4,11.7,4.9,3.4-.4,5.3,1.3,9.7,6.5,5.8,1.4,12.3,6.1,9.5,7.3,8.4,6.2,10.1,6.5,12.3,15.1v3.1c-.1,0,.3,24,.3,24l-.6,1.4-1.8.6h-14.3l-1.8,1.8"/>
        </g>
        <g class="cls-8">
          <path class="cls-5" d="M365.3,208.9l39.2.6-3.1,9.5-2.7,28.8-1.6,8.1-16.1-1.6-10-1.6-2.2,1.9-2.6-1.6-1.4,7.5-1.8-3.9-5.8-1.2-2.1-2.1-1.3-4.8,1.4-8.2-2.9-5.3.9-7-.6-5.2,2.7-2.9,3.8,1,6-1.7.4-10.5"/>
        </g>
        <g class="cls-8">
          <path class="cls-5" d="M326.6,280.4v23.1h-20.8l-4.8-8.6-8.7-14.2,6.1-3.8,5.7-3.6,1.3-.8v-3.9l-.4-13.3,2.1-.4v-3.8l5.8-3.5v-3.6h3c0-.1.4-6.5.4-6.5l-1.7-3-.3-9.4h7.4l3.4,4.4,1.6,10.5h18.2c0,.1.5,5.6.5,5.6l5.5,6.1-.5,3.1h-9.6v12.3c-.1,0-3.2,1.4-3.2,1.4h-11.2v11.6"/>
        </g>
        <g class="cls-8">
          <path class="cls-5" d="M357.1,90.4l.3,7.5h-16.5l-1,1.8-3.1,6.2v9.7l-3.6,4.7h-5.7l-1.7,3.8h-5.7v-3.8h-9.4l-6.5-6.5.3,6.8-6-.5-.8-11.2-1.7-3.8v-7.8l1.6-3.5v-7.5l-.3-11.3h8.2l1.4-2.7,5.3,2.9h15.2c0,.1-.4-14.9-.4-14.9l-7.5-.6-7.7.5v-30.3l30.1.5h7.5l30.9.6,1,13.6,3.2,16.8,2.9,9.7,5.5,12.6,6.4,12,7.9,11.2-5.1-1.7-19,.8.6,5.6-6.8-3.1-1.3-2.6v-13.4l-.9-2.5-3.6.9-13.9-.3"/>
        </g>
        <g class="cls-8">
          <path class="cls-5" d="M374.6,448.6l.3,5.5,2.3,11.6,6.9,8.8,2.1,3.9v15.5l-7.5-.3v5.8l-4-2.2-.3-3.9-17.8-.6v-29.5h-12.7l.3-7.3-6.9-7.7h-17.8c0-.1,3.9,3.4,3.9,3.4l-3.4,1.2v2.5l7.9,3.4,2.7,3.8.4,5.3h-11.2c0-.1.1,7,.1,7h-11.7v-4.5h-8.4l-3.4.3-.6-9.5,1.6-2.6-1.3-7.1v-8.8l-2.5.3-.8-6.4-7.1-6.2,4.2.4,5.7-5.3-4.7-7.3-6-20.7-6.2-14-.3-4.8,3.9-14.2.3-3.5-.4-34.7,2.5-1,4.7-16.5h16.6v7h30c0-.1,0,5.7,0,5.7h5.2v2.5l-.6,15.3,3.8,7.1,4.9,9.6-.3,9.1v11.3l4.8,11.7,6,15.2,4.9,15.3,10.1,29.9"/>
        </g>
        <g class="cls-8">
          <path class="cls-5" d="M386.1,493.7v-15.5l-1.9-3.9-6.9-8.8-2.3-11.6-.3-5.5-10.1-29.9-4.9-15.3-6-15.2-4.8-11.7v-11.3l.3-9.1-4.9-9.6-3.8-7.1.5-15.3,15.5-.5,1.4,2.1,24.3.6,9.4-1.9-.6,11.2.8,7.5,2.9,8.7,4.2,4.9,3.5,2.5,10.4,4.7,7.5,7.5,2.2,3.4,3.4,7.4,1.8,7.9-.3,12.3-3.9,12.5-4.7,7.4-8.7,10-1.8,4.3-.5,10.9,1.6,6.4,3.2,6.5,7.1,7,8.1,5.6,6.5,4.3,22.1,16.5-24,.5-14-.4,1.4,5.2.6,8.6-4.7,1.3,11.4.4v6.1l-12.2-.3-1.7-7.1-12.1.6v14.3h-15.1l.3-29.1"/>
        </g>
        <g class="cls-8">
          <path class="cls-5" d="M393,304.5l-1.7,19.6-9.4,1.9-24.3-.6-1.4-2.1-15.5.5v-2.5h-5.2v-5.8h-15.3c0,.1.6-12,.6-12h5.5v-34.7h11.2l3.1-1.3v-12.5h9.7l.5,1.9,3.6-3.6,2.1,2.1,5.8,1.2,1.8,3.9,1.4-7.5,2.6,1.6,2.2-1.9,10,1.6,16.1,1.6-1.9,24.2-2.1,24.4"/>
        </g>
        <g class="cls-8">
          <path class="cls-5" d="M320.1,135.4v14.9c.1,0,.1,7.9.1,7.9l-15.1-.5v9.1h-1.8l1.8,6h-40.2l-.3-7.5h-12.3v-22.5c.1,0,.3-23,.3-23h-11.3v-10.3l26-19.6h7.5v-15.1h-14.9v7.5l-5.2-1.2-4.4-4.8-3.1,1.2-13.9-4.5,4.8-6.8.3-12.6,4.4-13.8-2.5-10.3h71.6v30.4l7.5-.5,7.5.6.4,15.1h-15.2c0-.1-5.3-3-5.3-3l-1.4,2.6h-8.2v11.3c.1,0,.1,7.5.1,7.5l-1.6,3.5v7.8l1.7,3.8.8,11.2,6,.5-.3-6.8,6.5,6.5h9.4v15.2"/>
        </g>
        <g class="cls-8">
          <path class="cls-5" d="M274.5,254.5h14.3l1.8-.6.6-1.4-.4-24v-3.1c.1,0-12.2-15.1-12.2-15.1l-10.1-6.5-8.4-6.2-9.5-7.3.3-2.9h2.9l-1.7-3v-19.4h12.3l.3,7.5h40.2l-1.8-6h1.8v-9.1l15.1.5v14.7l-.6,16.6-3.5,8.3-2.7-.4-6,5.6-15.3,22h19.6l1.2,3.5,1.8-3.1.3,9.4,1.7,3-.4,6.4h-3v3.8l-5.8,3.5v3.8l-2.2.4.4,13.3v3.9l-1.4.8-5.7,3.6-6.1,3.8h-.1l-3,2.2-5.5-4.8-10.9-9.6,5.2-4.4v-7.7l-5.5-.3,1.8-1.8"/>
        </g>
        <g class="cls-8">
          <path class="cls-5" d="M310.2,303.7h10.8l-.6,12.1h-14.6v-7h-16.6l-2.2-6.1-5.2-14.4-12.5-10-11-9.9,1-2.3,2.2,2.2,11.4.4,10.9,9.6,5.5,4.8,3-2.1h.1l8.7,14,4.8,8.6h4.4"/>
        </g>
        <g class="cls-8">
          <path class="cls-5" d="M237.3,477.6h7.7l.8,19.1.4,9-4.5,6.2-2.6,9.1-15.3-12-10.3-15.3-3.5-11.4-3.1-4.5,5.1-5.6,1.8-9.6-10-10.5,6.1-11.4-1.7-9.2-2.2-12.2,1.6-8.8-5.6-14.8-3.9-7.1-6.4-11.8v-4.9c-.1,0-15.9-14.7-15.9-14.7l26.9-16.4,20.5-24.4,7.5,3.8.8,7.4,6.9,9.2-1,.9-1,9.1,1.3,1.6-.6,18.8h1.4v14.7c-.1,0-.1,21.3-.1,21.3v3.8c-.1,0-.5,26.3-.5,26.3h-2.5v7.4l-4.9,1.3v18.2h3.6v10.4c-.1,0,3.6,0,3.6,0v7.4"/>
        </g>
        <g class="cls-8">
          <path class="cls-5" d="M285.6,430.4l7.1,6.2.8,6.4,2.5-.3v8.8l1.3,7.1-1.6,2.6.6,9.5-2.7-.9-5.3,8.2-20.9-.3h-4.7v3.8h-2.7v-3.8h-15.2c0-.1-7.7-.1-7.7-.1v-7.5c.1,0-3.6,0-3.6,0v-10.4c.1,0-3.4,0-3.4,0v-18.3l4.9-1.3v-7.5h2.5l.4-26.3v-25.1c.1,0,.1-14.7.1-14.7.1,0-1.3,0-1.3,0l.6-18.8-1.3-1.6,1-9.1,1-.9,8.4,5.7,2.2-3.8,9,2.2,8.6-7.3,15.6-6.9.4,34.7-.3,3.5-3.9,14.2.3,4.8,6.2,14,6,20.7,4.7,7.3-5.7,5.3-4.2-.4"/>
        </g>
        <g class="cls-8">
          <path class="cls-5" d="M365.3,208.9l-.4,10.5-6,1.7-3.8-1-2.7,2.9.6,5.2-.9,7,2.9,5.3-1.4,8.2,1.3,4.8-3.6,3.6-.5-1.9.5-3.1-5.5-6.1-.5-5.5h-18.2c0-.1-1.6-10.7-1.6-10.7l-3.4-4.4h-7.4l-1.8,3.2-1.2-3.5h-19.6l15.3-22,6-5.6,2.7.4,3.5-8.3.5-16.6v-37.6c-.1,0-.3-11.3-.3-11.3h5.7l1.7-3.8h5.7l3.6-4.5v-9.7l3.2-6.2,1-1.8h16.5l-.3-7.5,13.9.3,3.6-.9.9,2.5v13.4l1.3,2.6,6.8,3.1-.6-5.6,19-.8,5.1,1.7,5.6,6.8,10.7,8.4,11.4,2.1,2.3-1.7,2.7.5,1.7,10.1,1,32.1-.8,5.6-2.3,4.7-5.5,6.5-14,9.4-7.1,5.7-8.2,12.6-39.2-.6"/>
        </g>
      </g>
      <rect class="cls-1" x="48.2" y="88.1" width="456.8" height="1037.7"/>
      <g>
        <path id="m46d711625e" class="cls-6" d="M355.3,335.3c1.9,0,3.9-.8,5.3-2.2s2.2-3.2,2.2-5.3-.8-3.9-2.2-5.3c-1.4-1.4-3.2-2.2-5.3-2.2s-3.9.8-5.3,2.2-2.2,3.2-2.2,5.3.8,3.9,2.2,5.3,3.2,2.2,5.3,2.2Z"/>
        <path id="m46d711625e-2" class="cls-6" d="M303.4,312.5c1.9,0,3.9-.8,5.3-2.2,1.4-1.4,2.2-3.2,2.2-5.3s-.8-3.9-2.2-5.3-3.2-2.2-5.3-2.2-3.9.8-5.3,2.2-2.2,3.2-2.2,5.3.8,3.9,2.2,5.3,3.2,2.2,5.3,2.2Z"/>
        <path id="m46d711625e-3" class="cls-6" d="M386.1,405.3c1.9,0,3.9-.8,5.3-2.2s2.2-3.2,2.2-5.3-.8-3.9-2.2-5.3c-1.4-1.4-3.2-2.2-5.3-2.2s-3.9.8-5.3,2.2c-1.4,1.4-2.2,3.2-2.2,5.3s.8,3.9,2.2,5.3,3.2,2.2,5.3,2.2Z"/>
        <path id="m46d711625e-4" class="cls-6" d="M317.9,285.7c1.9,0,3.9-.8,5.3-2.2s2.2-3.2,2.2-5.3-.8-3.9-2.2-5.3-3.2-2.2-5.3-2.2-3.9.8-5.3,2.2-2.2,3.2-2.2,5.3.8,3.9,2.2,5.3,3.2,2.2,5.3,2.2Z"/>
        <path id="m46d711625e-5" class="cls-6" d="M283.5,227c1.9,0,3.9-.8,5.3-2.2s2.2-3.2,2.2-5.3-.8-3.9-2.2-5.3-3.2-2.2-5.3-2.2-3.9.8-5.3,2.2-2.2,3.2-2.2,5.3.8,3.9,2.2,5.3,3.2,2.2,5.3,2.2Z"/>
        <path id="m46d711625e-6" class="cls-6" d="M343.1,288.5c1.9,0,3.9-.8,5.3-2.2,1.4-1.4,2.2-3.2,2.2-5.3s-.8-3.9-2.2-5.3-3.2-2.2-5.3-2.2-3.9.8-5.3,2.2-2.2,3.2-2.2,5.3.8,3.9,2.2,5.3c1.4,1.4,3.2,2.2,5.3,2.2Z"/>
        <path id="m46d711625e-7" class="cls-6" d="M278,259.2c1.9,0,3.9-.8,5.3-2.2s2.2-3.2,2.2-5.3-.8-3.9-2.2-5.3-3.2-2.2-5.3-2.2-3.9.8-5.3,2.2-2.2,3.2-2.2,5.3.8,3.9,2.2,5.3,3.2,2.2,5.3,2.2Z"/>
        <path id="m46d711625e-8" class="cls-6" d="M267.6,143.6c1.9,0,3.9-.8,5.3-2.2s2.2-3.2,2.2-5.3-.8-3.9-2.2-5.3-3.2-2.2-5.3-2.2-3.9.8-5.3,2.2-2.2,3.2-2.2,5.3.8,3.9,2.2,5.3,3.2,2.2,5.3,2.2Z"/>
        <path id="m46d711625e-9" class="cls-6" d="M342.9,288.2c1.9,0,3.9-.8,5.3-2.2s2.2-3.2,2.2-5.3-.8-3.9-2.2-5.3-3.2-2.2-5.3-2.2-3.9.8-5.3,2.2-2.2,3.2-2.2,5.3.8,3.9,2.2,5.3c1.4,1.4,3.2,2.2,5.3,2.2Z"/>
        <path id="m46d711625e-10" class="cls-6" d="M318.4,287.6c1.9,0,3.9-.8,5.3-2.2s2.2-3.2,2.2-5.3-.8-3.9-2.2-5.3-3.2-2.2-5.3-2.2-3.9.8-5.3,2.2-2.2,3.2-2.2,5.3.8,3.9,2.2,5.3,3.2,2.2,5.3,2.2Z"/>
        <path id="m46d711625e-11" class="cls-6" d="M274.5,192.4c1.9,0,3.9-.8,5.3-2.2s2.2-3.2,2.2-5.3-.8-3.9-2.2-5.3-3.2-2.2-5.3-2.2-3.9.8-5.3,2.2-2.2,3.2-2.2,5.3.8,3.9,2.2,5.3,3.2,2.2,5.3,2.2Z"/>
        <path id="m46d711625e-12" class="cls-6" d="M305.8,283.4c1.9,0,3.9-.8,5.3-2.2s2.2-3.2,2.2-5.3-.8-3.9-2.2-5.3-3.2-2.2-5.3-2.2-3.9.8-5.3,2.2-2.2,3.2-2.2,5.3.8,3.9,2.2,5.3,3.2,2.2,5.3,2.2Z"/>
        <path id="m46d711625e-13" class="cls-6" d="M332.4,287.2c1.9,0,3.9-.8,5.3-2.2s2.2-3.2,2.2-5.3-.8-3.9-2.2-5.3-3.2-2.2-5.3-2.2-3.9.8-5.3,2.2-2.2,3.2-2.2,5.3.8,3.9,2.2,5.3,3.2,2.2,5.3,2.2Z"/>
      </g>
      <rect class="cls-1" x="48.2" y="88.1" width="456.8" height="1037.7"/>
      <g>
        <path id="m29c573128f" class="cls-2" d="M267.6,267.5c1.9,0,3.9-.8,5.3-2.2s2.2-3.2,2.2-5.3-.8-3.9-2.2-5.3-3.2-2.2-5.3-2.2-3.9.8-5.3,2.2-2.2,3.2-2.2,5.3.8,3.9,2.2,5.3,3.2,2.2,5.3,2.2Z"/>
        <path id="m29c573128f-2" class="cls-2" d="M256.3,126.8c1.9,0,3.9-.8,5.3-2.2s2.2-3.2,2.2-5.3-.8-3.9-2.2-5.3-3.2-2.2-5.3-2.2-3.9.8-5.3,2.2-2.2,3.2-2.2,5.3.8,3.9,2.2,5.3,3.2,2.2,5.3,2.2Z"/>
        <path id="m29c573128f-3" class="cls-2" d="M348.3,178.5c1.9,0,3.9-.8,5.3-2.2s2.2-3.2,2.2-5.3-.8-3.9-2.2-5.3-3.2-2.2-5.3-2.2-3.9.8-5.3,2.2-2.2,3.2-2.2,5.3.8,3.9,2.2,5.3,3.2,2.2,5.3,2.2Z"/>
        <path id="m29c573128f-4" class="cls-2" d="M318.4,288.3c1.9,0,3.9-.8,5.3-2.2s2.2-3.2,2.2-5.3-.8-3.9-2.2-5.3-3.2-2.2-5.3-2.2-3.9.8-5.3,2.2-2.2,3.2-2.2,5.3.8,3.9,2.2,5.3,3.2,2.2,5.3,2.2Z"/>
        <path id="m29c573128f-5" class="cls-2" d="M268,266.2c1.9,0,3.9-.8,5.3-2.2s2.2-3.2,2.2-5.3-.8-3.9-2.2-5.3-3.2-2.2-5.3-2.2-3.9.8-5.3,2.2-2.2,3.2-2.2,5.3.8,3.9,2.2,5.3,3.2,2.2,5.3,2.2Z"/>
        <path id="m29c573128f-6" class="cls-2" d="M301.7,272.9c1.9,0,3.9-.8,5.3-2.2,1.4-1.4,2.2-3.2,2.2-5.3s-.8-3.9-2.2-5.3-3.2-2.2-5.3-2.2-3.9.8-5.3,2.2-2.2,3.2-2.2,5.3.8,3.9,2.2,5.3,3.2,2.2,5.3,2.2Z"/>
        <path id="m29c573128f-7" class="cls-2" d="M305.1,285.7c1.9,0,3.9-.8,5.3-2.2s2.2-3.2,2.2-5.3-.8-3.9-2.2-5.3-3.2-2.2-5.3-2.2-3.9.8-5.3,2.2-2.2,3.2-2.2,5.3.8,3.9,2.2,5.3,3.2,2.2,5.3,2.2Z"/>
        <path id="m29c573128f-8" class="cls-2" d="M279.3,212.7c1.9,0,3.9-.8,5.3-2.2s2.2-3.2,2.2-5.3-.8-3.9-2.2-5.3-3.2-2.2-5.3-2.2-3.9.8-5.3,2.2-2.2,3.2-2.2,5.3.8,3.9,2.2,5.3,3.2,2.2,5.3,2.2Z"/>
        <path id="m29c573128f-9" class="cls-2" d="M298.6,172.3c1.9,0,3.9-.8,5.3-2.2s2.2-3.2,2.2-5.3-.8-3.9-2.2-5.3-3.2-2.2-5.3-2.2-3.9.8-5.3,2.2-2.2,3.2-2.2,5.3.8,3.9,2.2,5.3,3.2,2.2,5.3,2.2Z"/>
        <path id="m29c573128f-10" class="cls-2" d="M341.8,232.6c1.9,0,3.9-.8,5.3-2.2s2.2-3.2,2.2-5.3-.8-3.9-2.2-5.3-3.2-2.2-5.3-2.2-3.9.8-5.3,2.2-2.2,3.2-2.2,5.3.8,3.9,2.2,5.3c1.4,1.4,3.2,2.2,5.3,2.2Z"/>
        <path id="m29c573128f-11" class="cls-2" d="M325.9,170.1c1.9,0,3.9-.8,5.3-2.2s2.2-3.2,2.2-5.3-.8-3.9-2.2-5.3-3.2-2.2-5.3-2.2-3.9.8-5.3,2.2-2.2,3.2-2.2,5.3.8,3.9,2.2,5.3,3.2,2.2,5.3,2.2Z"/>
        <path id="m29c573128f-12" class="cls-2" d="M222.9,157.9c1.9,0,3.9-.8,5.3-2.2s2.2-3.2,2.2-5.3-.8-3.9-2.2-5.3-3.2-2.2-5.3-2.2-3.9.8-5.3,2.2-2.2,3.2-2.2,5.3.8,3.9,2.2,5.3,3.2,2.2,5.3,2.2Z"/>
        <path id="m29c573128f-13" class="cls-2" d="M267.7,144.1c1.9,0,3.9-.8,5.3-2.2s2.2-3.2,2.2-5.3-.8-3.9-2.2-5.3-3.2-2.2-5.3-2.2-3.9.8-5.3,2.2-2.2,3.2-2.2,5.3.8,3.9,2.2,5.3,3.2,2.2,5.3,2.2Z"/>
        <path id="m29c573128f-14" class="cls-2" d="M256,173.3c1.9,0,3.9-.8,5.3-2.2s2.2-3.2,2.2-5.3-.8-3.9-2.2-5.3-3.2-2.2-5.3-2.2-3.9.8-5.3,2.2-2.2,3.2-2.2,5.3.8,3.9,2.2,5.3,3.2,2.2,5.3,2.2Z"/>
        <path id="m29c573128f-15" class="cls-2" d="M334.5,263.4c1.9,0,3.9-.8,5.3-2.2s2.2-3.2,2.2-5.3-.8-3.9-2.2-5.3-3.2-2.2-5.3-2.2-3.9.8-5.3,2.2-2.2,3.2-2.2,5.3.8,3.9,2.2,5.3,3.2,2.2,5.3,2.2Z"/>
        <path id="m29c573128f-16" class="cls-2" d="M306.4,285c1.9,0,3.9-.8,5.3-2.2s2.2-3.2,2.2-5.3-.8-3.9-2.2-5.3c-1.4-1.4-3.2-2.2-5.3-2.2s-3.9.8-5.3,2.2-2.2,3.2-2.2,5.3.8,3.9,2.2,5.3,3.2,2.2,5.3,2.2Z"/>
        <path id="m29c573128f-17" class="cls-2" d="M292.9,187.9c1.9,0,3.9-.8,5.3-2.2s2.2-3.2,2.2-5.3-.8-3.9-2.2-5.3-3.2-2.2-5.3-2.2-3.9.8-5.3,2.2-2.2,3.2-2.2,5.3.8,3.9,2.2,5.3,3.2,2.2,5.3,2.2Z"/>
        <path id="m29c573128f-18" class="cls-2" d="M292,302.6c1.9,0,3.9-.8,5.3-2.2s2.2-3.2,2.2-5.3-.8-3.9-2.2-5.3-3.2-2.2-5.3-2.2-3.9.8-5.3,2.2-2.2,3.2-2.2,5.3.8,3.9,2.2,5.3,3.2,2.2,5.3,2.2Z"/>
        <path id="m29c573128f-19" class="cls-2" d="M294.1,269.8c1.9,0,3.9-.8,5.3-2.2s2.2-3.2,2.2-5.3-.8-3.9-2.2-5.3-3.2-2.2-5.3-2.2-3.9.8-5.3,2.2-2.2,3.2-2.2,5.3.8,3.9,2.2,5.3,3.2,2.2,5.3,2.2Z"/>
        <path id="m29c573128f-20" class="cls-2" d="M320.2,179.3c1.9,0,3.9-.8,5.3-2.2s2.2-3.2,2.2-5.3-.8-3.9-2.2-5.3-3.2-2.2-5.3-2.2-3.9.8-5.3,2.2-2.2,3.2-2.2,5.3.8,3.9,2.2,5.3,3.2,2.2,5.3,2.2Z"/>
        <path id="m29c573128f-21" class="cls-2" d="M296,286.9c1.9,0,3.9-.8,5.3-2.2s2.2-3.2,2.2-5.3-.8-3.9-2.2-5.3-3.2-2.2-5.3-2.2-3.9.8-5.3,2.2-2.2,3.2-2.2,5.3.8,3.9,2.2,5.3,3.2,2.2,5.3,2.2Z"/>
        <path id="m29c573128f-22" class="cls-2" d="M331.5,367.1c1.9,0,3.9-.8,5.3-2.2,1.4-1.4,2.2-3.2,2.2-5.3s-.8-3.9-2.2-5.3c-1.4-1.4-3.2-2.2-5.3-2.2s-3.9.8-5.3,2.2c-1.4,1.4-2.2,3.2-2.2,5.3s.8,3.9,2.2,5.3,3.2,2.2,5.3,2.2Z"/>
        <path id="m29c573128f-23" class="cls-2" d="M296,285.3c1.9,0,3.9-.8,5.3-2.2s2.2-3.2,2.2-5.3-.8-3.9-2.2-5.3-3.2-2.2-5.3-2.2-3.9.8-5.3,2.2-2.2,3.2-2.2,5.3.8,3.9,2.2,5.3,3.2,2.2,5.3,2.2Z"/>
        <path id="m29c573128f-24" class="cls-2" d="M325.1,188.1c1.9,0,3.9-.8,5.3-2.2s2.2-3.2,2.2-5.3-.8-3.9-2.2-5.3-3.2-2.2-5.3-2.2-3.9.8-5.3,2.2-2.2,3.2-2.2,5.3.8,3.9,2.2,5.3,3.2,2.2,5.3,2.2Z"/>
        <path id="m29c573128f-25" class="cls-2" d="M234,209.1c1.9,0,3.9-.8,5.3-2.2s2.2-3.2,2.2-5.3-.8-3.9-2.2-5.3-3.2-2.2-5.3-2.2-3.9.8-5.3,2.2-2.2,3.2-2.2,5.3.8,3.9,2.2,5.3,3.2,2.2,5.3,2.2Z"/>
        <path id="m29c573128f-26" class="cls-2" d="M311.4,282.9c1.9,0,3.9-.8,5.3-2.2s2.2-3.2,2.2-5.3-.8-3.9-2.2-5.3-3.2-2.2-5.3-2.2-3.9.8-5.3,2.2-2.2,3.2-2.2,5.3.8,3.9,2.2,5.3,3.2,2.2,5.3,2.2Z"/>
        <path id="m29c573128f-27" class="cls-2" d="M268.9,192.3c1.9,0,3.9-.8,5.3-2.2s2.2-3.2,2.2-5.3-.8-3.9-2.2-5.3-3.2-2.2-5.3-2.2-3.9.8-5.3,2.2-2.2,3.2-2.2,5.3.8,3.9,2.2,5.3,3.2,2.2,5.3,2.2Z"/>
        <path id="m29c573128f-28" class="cls-2" d="M320.6,289.8c1.9,0,3.9-.8,5.3-2.2s2.2-3.2,2.2-5.3-.8-3.9-2.2-5.3-3.2-2.2-5.3-2.2-3.9.8-5.3,2.2-2.2,3.2-2.2,5.3.8,3.9,2.2,5.3,3.2,2.2,5.3,2.2Z"/>
        <path id="m29c573128f-29" class="cls-2" d="M285,258.2c1.9,0,3.9-.8,5.3-2.2s2.2-3.2,2.2-5.3-.8-3.9-2.2-5.3-3.2-2.2-5.3-2.2-3.9.8-5.3,2.2-2.2,3.2-2.2,5.3.8,3.9,2.2,5.3,3.2,2.2,5.3,2.2Z"/>
        <path id="m29c573128f-30" class="cls-2" d="M301.1,314.3c1.9,0,3.9-.8,5.3-2.2s2.2-3.2,2.2-5.3-.8-3.9-2.2-5.3c-1.4-1.4-3.2-2.2-5.3-2.2s-3.9.8-5.3,2.2-2.2,3.2-2.2,5.3.8,3.9,2.2,5.3,3.2,2.2,5.3,2.2Z"/>
        <path id="m29c573128f-31" class="cls-2" d="M375.3,414.1c1.9,0,3.9-.8,5.3-2.2s2.2-3.2,2.2-5.3-.8-3.9-2.2-5.3-3.2-2.2-5.3-2.2-3.9.8-5.3,2.2-2.2,3.2-2.2,5.3.8,3.9,2.2,5.3,3.2,2.2,5.3,2.2Z"/>
        <path id="m29c573128f-32" class="cls-2" d="M326.6,268.3c1.9,0,3.9-.8,5.3-2.2,1.4-1.4,2.2-3.2,2.2-5.3s-.8-3.9-2.2-5.3-3.2-2.2-5.3-2.2-3.9.8-5.3,2.2-2.2,3.2-2.2,5.3.8,3.9,2.2,5.3,3.2,2.2,5.3,2.2Z"/>
        <path id="m29c573128f-33" class="cls-2" d="M275.5,279c1.9,0,3.9-.8,5.3-2.2s2.2-3.2,2.2-5.3-.8-3.9-2.2-5.3-3.2-2.2-5.3-2.2-3.9.8-5.3,2.2-2.2,3.2-2.2,5.3.8,3.9,2.2,5.3,3.2,2.2,5.3,2.2Z"/>
        <path id="m29c573128f-34" class="cls-2" d="M299.4,309.1c1.9,0,3.9-.8,5.3-2.2s2.2-3.2,2.2-5.3-.8-3.9-2.2-5.3-3.2-2.2-5.3-2.2-3.9.8-5.3,2.2-2.2,3.2-2.2,5.3.8,3.9,2.2,5.3,3.2,2.2,5.3,2.2Z"/>
      </g>
      <rect class="cls-1" x="48.2" y="88.1" width="456.8" height="1037.7"/>
      <path id="m59f7652965" class="cls-3" d="M289.5,296.1c1.9,0,3.9-.8,5.3-2.2s2.2-3.2,2.2-5.3-.8-3.9-2.2-5.3-3.2-2.2-5.3-2.2-3.9.8-5.3,2.2-2.2,3.2-2.2,5.3.8,3.9,2.2,5.3,3.2,2.2,5.3,2.2Z"/>
      <rect class="cls-1" x="48.2" y="88.1" width="456.8" height="1037.7"/>
      <path id="m46d711625e-14" class="cls-6" d="M339.8,288.2c1.9,0,3.9-.8,5.3-2.2s2.2-3.2,2.2-5.3-.8-3.9-2.2-5.3-3.2-2.2-5.3-2.2-3.9.8-5.3,2.2-2.2,3.2-2.2,5.3.8,3.9,2.2,5.3,3.2,2.2,5.3,2.2Z"/>
      <path id="DejaVuSans-53" d="M150.6,241.8v1.6c-.6-.3-1.2-.5-1.8-.6-.5-.1-1-.3-1.6-.3-.9,0-1.6.1-2.1.5-.5.4-.8.9-.8,1.6s.1.9.5,1.2.9.5,1.8.6l1,.3c1.3.3,2.2.6,2.7,1.3s.9,1.4.9,2.3-.4,2.1-1.2,2.7-1.9.9-3.5.9-1.2,0-1.8-.3c-.6-.1-1.3-.4-2.1-.6v-1.7c.6.4,1.3.6,1.9.9.6.1,1.3.3,1.9.3s1.7-.1,2.2-.5c.5-.4.8-.9.8-1.6s-.1-1-.5-1.4-1-.6-1.8-.8l-1-.3c-1.3-.3-2.1-.6-2.7-1.2-.5-.5-.8-1.3-.8-2.2s.4-1.9,1.2-2.6,1.8-.9,3.1-.9,1.2,0,1.8.1c.6,0,1.2.3,1.8.5h-.1Z"/>
      <path id="DejaVuSans-70" d="M155.3,252.2v4.9h-1.6v-12.7h1.6v1.4c.3-.5.8-.9,1.2-1.2.5-.3,1-.4,1.7-.4,1.2,0,2.1.4,2.7,1.3s1,2.1,1,3.5-.4,2.6-1,3.5-1.6,1.3-2.7,1.3-1.3-.1-1.7-.4c-.5-.3-.9-.6-1.2-1.2h0ZM160.5,249.1c0-1.2-.3-1.9-.6-2.6s-1-.9-1.9-.9-1.4.3-1.9.9-.6,1.6-.6,2.6.3,1.9.6,2.6c.5.6,1,.9,1.9.9s1.4-.3,1.9-.9.6-1.6.6-2.6Z"/>
      <path id="DejaVuSans-61" d="M168.8,249c-1.2,0-2.1.1-2.6.4s-.6.8-.6,1.4.1.9.5,1.3c.4.3.8.5,1.4.5s1.6-.3,2.1-.9.8-1.4.8-2.3v-.4h-1.6ZM171.8,248.4v5.3h-1.6v-1.4c-.4.5-.8.9-1.3,1.3-.5.3-1.2.4-1.9.4s-1.7-.3-2.2-.8c-.5-.5-.8-1.3-.8-2.1s.4-1.8,1-2.3c.6-.5,1.7-.8,3.1-.8h2.1c0-.9-.3-1.4-.6-1.8s-1-.5-1.9-.5-1,0-1.6.1c-.5,0-1,.3-1.4.5v-1.4c.5-.3,1-.4,1.6-.5.5,0,1-.1,1.6-.1,1.3,0,2.3.4,3,1s1,1.7,1,3.1h0Z"/>
      <path id="DejaVuSans-63" d="M181.5,244.8v1.4c-.4-.3-.9-.4-1.3-.5s-.9-.1-1.3-.1c-1,0-1.7.3-2.3.9-.5.6-.8,1.6-.8,2.6s.3,1.9.8,2.6c.5.6,1.3.9,2.3.9s.9,0,1.3-.1.9-.3,1.3-.5v1.4c-.4.3-.9.4-1.3.4s-.9.1-1.4.1c-1.4,0-2.5-.4-3.2-1.3s-1.2-2.1-1.2-3.5.4-2.7,1.3-3.5c.8-.9,1.9-1.3,3.4-1.3s.9,0,1.4.1c.4,0,.9.3,1.3.4h-.3Z"/>
      <path id="DejaVuSans-65" d="M192.1,248.7v.8h-7c0,1,.4,1.8.9,2.3.5.5,1.3.8,2.3.8s1.2,0,1.7-.3,1-.4,1.7-.6v1.4c-.5.3-1,.4-1.7.5s-1.2.1-1.7.1c-1.4,0-2.6-.4-3.5-1.3s-1.3-2.1-1.3-3.5.4-2.7,1.2-3.6c.8-.9,1.9-1.3,3.2-1.3s2.2.4,3,1.2c.8.8,1,1.8,1,3.2v.3ZM190.5,248.2c0-.8-.3-1.4-.6-1.9s-1-.8-1.8-.8-1.6.3-2.1.8-.8,1.2-.9,2.1h5.5Z"/>
      <path id="DejaVuSans-20" d="M193,253.6"/>
      <path id="DejaVuSans-4e" d="M200,241.3h2.2l5.5,10.3v-10.3h1.6v12.3h-2.2l-5.5-10.3v10.3h-1.6v-12.3Z"/>
      <path id="DejaVuSans-65-2" d="M220.4,248.7v.8h-7c0,1,.4,1.8.9,2.3.5.5,1.3.8,2.3.8s1.2,0,1.7-.3,1-.4,1.7-.6v1.4c-.5.3-1,.4-1.7.5s-1.2.1-1.7.1c-1.4,0-2.6-.4-3.5-1.3s-1.3-2.1-1.3-3.5.4-2.7,1.2-3.6c.8-.9,1.9-1.3,3.2-1.3s2.2.4,3,1.2c.8.8,1,1.8,1,3.2v.3ZM219,248.2c0-.8-.3-1.4-.6-1.9s-1-.8-1.8-.8-1.6.3-2.1.8-.8,1.2-.9,2.1h5.5Z"/>
      <path id="DejaVuSans-65-3" d="M230.8,248.7v.8h-7c0,1,.4,1.8.9,2.3.5.5,1.3.8,2.3.8s1.2,0,1.7-.3,1-.4,1.7-.6v1.4c-.5.3-1,.4-1.7.5s-1.2.1-1.7.1c-1.4,0-2.6-.4-3.5-1.3s-1.3-2.1-1.3-3.5.4-2.7,1.2-3.6c.8-.9,1.9-1.3,3.2-1.3s2.2.4,3,1.2c.8.8,1,1.8,1,3.2v.3ZM229.2,248.2c0-.8-.3-1.4-.6-1.9s-1-.8-1.8-.8-1.6.3-2.1.8-.8,1.2-.9,2.1h5.5Z"/>
      <path id="DejaVuSans-64" d="M239.4,245.8v-4.9h1.6v12.9h-1.6v-1.4c-.3.5-.8.9-1.2,1.2-.5.3-1,.4-1.7.4-1.2,0-2.1-.4-2.7-1.3s-1-2.1-1-3.5.4-2.6,1-3.5,1.6-1.3,2.7-1.3,1.3.1,1.7.4c.5.3.9.6,1.2,1.2h0ZM234.2,249.1c0,1.2.3,1.9.6,2.6.5.6,1,.9,1.9.9s1.4-.3,1.9-.9.6-1.6.6-2.6-.3-1.9-.6-2.6c-.5-.6-1-.9-1.9-.9s-1.4.3-1.9.9-.6,1.6-.6,2.6Z"/>
      <path id="DejaVuSans-6c" d="M244,240.8h1.6v12.9h-1.6v-12.9Z"/>
      <path id="DejaVuSans-65-4" d="M256.5,248.7v.8h-7c0,1,.4,1.8.9,2.3.5.5,1.3.8,2.3.8s1.2,0,1.7-.3,1-.4,1.7-.6v1.4c-.5.3-1,.4-1.7.5s-1.2.1-1.7.1c-1.4,0-2.6-.4-3.5-1.3s-1.3-2.1-1.3-3.5.4-2.7,1.2-3.6c.8-.9,1.9-1.3,3.2-1.3s2.2.4,3,1.2c.8.8,1,1.8,1,3.2v.3ZM255.1,248.2c0-.8-.3-1.4-.6-1.9s-1-.8-1.8-.8-1.6.3-2.1.8-.8,1.2-.9,2.1h5.5Z"/>
      <path id="DejaVuSans-50" d="M129,282.8v4.7h2.1c.8,0,1.4-.3,1.8-.6s.6-.9.6-1.7-.3-1.3-.6-1.7-1-.6-1.8-.6h-2.1ZM127.3,281.3h3.8c1.4,0,2.5.3,3.1.9s1,1.6,1,2.7-.4,2.1-1,2.7-1.7.9-3.1.9h-2.1v4.9h-1.7v-12.3h0Z"/>
      <path id="DejaVuSans-69" d="M137.1,284.4h1.6v9.2h-1.6v-9.2ZM137.1,280.8h1.6v1.9h-1.6v-1.9Z"/>
      <path id="DejaVuSans-6b" d="M141.6,280.8h1.6v7.5l4.5-4h1.9l-4.9,4.3,5.1,4.9h-1.9l-4.7-4.5v4.5h-1.6v-12.9h0Z"/>
      <path id="DejaVuSans-65-5" d="M158.8,288.7v.8h-7c0,1,.4,1.8.9,2.3.5.5,1.3.8,2.3.8s1.2,0,1.7-.3,1-.4,1.7-.6v1.4c-.5.3-1,.4-1.7.5s-1.2.1-1.7.1c-1.4,0-2.6-.4-3.5-1.3s-1.3-2.1-1.3-3.5.4-2.7,1.2-3.6c.8-.9,1.9-1.3,3.2-1.3s2.2.4,3,1.2c.8.8,1,1.8,1,3.2v.3ZM157.2,288.2c0-.8-.3-1.4-.6-1.9s-1-.8-1.8-.8-1.6.3-2.1.8-.8,1.2-.9,2.1h5.5Z"/>
      <path id="DejaVuSans-20-2" d="M159.7,293.7"/>
      <path id="DejaVuSans-50-2" d="M168.4,282.8v4.7h2.1c.8,0,1.4-.3,1.8-.6s.6-.9.6-1.7-.3-1.3-.6-1.7-1-.6-1.8-.6h-2.1ZM166.7,281.3h3.8c1.4,0,2.5.3,3.1.9s1,1.6,1,2.7-.4,2.1-1,2.7-1.7.9-3.1.9h-2.1v4.9h-1.7v-12.3h0Z"/>
      <path id="DejaVuSans-6c-2" d="M176.9,280.8h1.6v12.9h-1.6v-12.9Z"/>
      <path id="DejaVuSans-61-2" d="M185.7,289c-1.2,0-2.1.1-2.6.4s-.6.8-.6,1.4.1.9.5,1.3c.4.3.8.5,1.4.5s1.6-.3,2.1-.9.8-1.4.8-2.3v-.4h-1.6ZM188.7,288.3v5.3h-1.6v-1.4c-.4.5-.8.9-1.3,1.3-.5.3-1.2.4-1.9.4s-1.7-.3-2.2-.8-.8-1.3-.8-2.1.4-1.8,1-2.3,1.7-.8,3.1-.8h2.1c0-.9-.3-1.4-.6-1.8s-1-.5-1.9-.5-1,0-1.6.1c-.5,0-1,.3-1.4.5v-1.4c.5-.3,1-.4,1.6-.5.5,0,1-.1,1.6-.1,1.3,0,2.3.4,3,1s1,1.7,1,3.1h0Z"/>
      <path id="DejaVuSans-63-2" d="M198.4,284.8v1.4c-.4-.3-.9-.4-1.3-.5s-.9-.1-1.3-.1c-1,0-1.7.3-2.3.9-.5.6-.8,1.6-.8,2.6s.3,1.9.8,2.6c.5.6,1.3.9,2.3.9s.9,0,1.3-.1.9-.3,1.3-.5v1.4c-.4.3-.9.4-1.3.4s-.9.1-1.4.1c-1.4,0-2.5-.4-3.2-1.3s-1.2-2.1-1.2-3.5.4-2.7,1.3-3.5c.8-.9,1.9-1.3,3.4-1.3s.9,0,1.4.1c.4,0,.9.3,1.3.4h-.3Z"/>
      <path id="DejaVuSans-65-6" d="M209,288.7v.8h-7c0,1,.4,1.8.9,2.3s1.3.8,2.3.8,1.2,0,1.7-.3,1-.4,1.7-.6v1.4c-.5.3-1,.4-1.7.5s-1.2.1-1.7.1c-1.4,0-2.6-.4-3.5-1.3s-1.3-2.1-1.3-3.5.4-2.7,1.2-3.6c.8-.9,1.9-1.3,3.2-1.3s2.2.4,3,1.2,1,1.8,1,3.2v.3ZM207.5,288.2c0-.8-.3-1.4-.6-1.9s-1-.8-1.8-.8-1.6.3-2.1.8-.8,1.2-.9,2.1h5.5Z"/>
      <path id="DejaVuSans-20-3" d="M209.9,293.7"/>
      <path id="DejaVuSans-4d" d="M216.9,281.3h2.5l3.1,8.3,3.1-8.3h2.5v12.3h-1.6v-10.8l-3.1,8.4h-1.7l-3.1-8.4v10.8h-1.6v-12.3h-.1Z"/>
      <path id="DejaVuSans-61-3" d="M235.6,289c-1.2,0-2.1.1-2.6.4s-.6.8-.6,1.4.1.9.5,1.3c.4.3.8.5,1.4.5s1.6-.3,2.1-.9.8-1.4.8-2.3v-.4h-1.6ZM238.6,288.3v5.3h-1.6v-1.4c-.4.5-.8.9-1.3,1.3-.5.3-1.2.4-1.9.4s-1.7-.3-2.2-.8-.8-1.3-.8-2.1.4-1.8,1-2.3,1.7-.8,3.1-.8h2.1c0-.9-.3-1.4-.6-1.8s-1-.5-1.9-.5-1,0-1.6.1c-.5,0-1,.3-1.4.5v-1.4c.5-.3,1-.4,1.6-.5.5,0,1-.1,1.6-.1,1.3,0,2.3.4,3,1s1,1.7,1,3.1h0Z"/>
      <path id="DejaVuSans-72" d="M247,285.9c-.1,0-.4-.1-.5-.3h-.6c-.9,0-1.6.3-1.9.8s-.6,1.3-.6,2.3v4.8h-1.6v-9.2h1.6v1.4c.3-.5.8-1,1.3-1.3s1.2-.4,1.8-.4.3,0,.4,0h.4v1.8Z"/>
      <path id="DejaVuSans-6b-2" d="M248.6,280.8h1.6v7.5l4.5-4h1.9l-4.9,4.3,5.1,4.9h-1.9l-4.7-4.5v4.5h-1.6v-12.9h0Z"/>
      <path id="DejaVuSans-65-7" d="M265.7,288.7v.8h-7c0,1,.4,1.8.9,2.3s1.3.8,2.3.8,1.2,0,1.7-.3,1-.4,1.7-.6v1.4c-.5.3-1,.4-1.7.5s-1.2.1-1.7.1c-1.4,0-2.6-.4-3.5-1.3s-1.3-2.1-1.3-3.5.4-2.7,1.2-3.6c.8-.9,1.9-1.3,3.2-1.3s2.2.4,3,1.2,1,1.8,1,3.2v.3ZM264.2,288.2c0-.8-.3-1.4-.6-1.9s-1-.8-1.8-.8-1.6.3-2.1.8-.8,1.2-.9,2.1h5.5Z"/>
      <path id="DejaVuSans-74" d="M269.6,281.8v2.6h3.1v1.2h-3.1v5.1c0,.8,0,1.3.3,1.4s.6.3,1.3.3h1.6v1.3h-1.6c-1.2,0-1.9-.3-2.5-.6-.4-.4-.6-1.2-.6-2.3v-5.1h-1.2v-1.2h1.2v-2.6h1.6Z"/>
      <path id="DejaVuSans-43" d="M52.1,261.7v1.7c-.5-.5-1.2-.9-1.8-1.2s-1.3-.4-2.1-.4c-1.4,0-2.5.4-3.2,1.3-.8.9-1.2,2.1-1.2,3.8s.4,2.9,1.2,3.8,1.8,1.3,3.2,1.3,1.4,0,2.1-.4,1.2-.6,1.8-1.2v1.7c-.5.4-1.2.6-1.8.9s-1.3.3-2.1.3c-1.8,0-3.4-.5-4.4-1.7s-1.6-2.7-1.6-4.7.5-3.5,1.6-4.7c1-1.2,2.6-1.7,4.4-1.7s1.4,0,2.1.3,1.3.5,1.8.9h0Z"/>
      <path id="DejaVuSans-68" d="M62.4,267.4v5.6h-1.6v-5.5c0-.9-.1-1.6-.5-1.9-.4-.4-.9-.6-1.6-.6s-1.4.3-1.9.8-.6,1.2-.6,2.1v5.2h-1.6v-12.9h1.6v5.1c.4-.5.8-.9,1.3-1.3.5-.3,1-.4,1.7-.4,1,0,1.8.4,2.3,1,.5.6.8,1.6.8,2.9h.1Z"/>
      <path id="DejaVuSans-69-2" d="M65.4,263.8h1.6v9.2h-1.6v-9.2ZM65.4,260.1h1.6v1.9h-1.6v-1.9Z"/>
      <path id="DejaVuSans-68-2" d="M77.7,267.4v5.6h-1.6v-5.5c0-.9-.1-1.6-.5-1.9-.4-.4-.9-.6-1.6-.6s-1.4.3-1.9.8-.6,1.2-.6,2.1v5.2h-1.6v-12.9h1.6v5.1c.4-.5.8-.9,1.3-1.3.5-.3,1-.4,1.7-.4,1,0,1.8.4,2.3,1,.5.6.8,1.6.8,2.9h.1Z"/>
      <path id="DejaVuSans-75" d="M80.6,269.4v-5.6h1.6v5.6c0,.9.1,1.6.5,1.9.4.4.9.6,1.6.6s1.4-.3,1.9-.8.6-1.2.6-2.1v-5.2h1.6v9.2h-1.6v-1.4c-.4.5-.8,1-1.3,1.3s-1,.4-1.7.4c-1,0-1.8-.4-2.5-1-.5-.6-.8-1.6-.8-2.9h0ZM84.3,263.5h0Z"/>
      <path id="DejaVuSans-6c-3" d="M91.3,260.1h1.6v12.9h-1.6v-12.9h0Z"/>
      <path id="DejaVuSans-79" d="M99.9,273.9c-.4,1-.8,1.8-1.3,2.2-.4.4-.9.5-1.7.5h-1.2v-1.3h.9c.4,0,.8,0,.9-.3.3-.3.5-.6.8-1.4l.3-.6-3.8-9.1h1.6l2.9,7.3,2.9-7.3h1.6l-4,10.1h.3Z"/>
      <path id="DejaVuSans-20-4" d="M104.5,273"/>
      <path id="DejaVuSans-47" d="M119.9,271.3v-3.2h-2.7v-1.4h4.4v5.3c-.6.5-1.3.8-2.1,1-.8.3-1.6.4-2.5.4-1.9,0-3.4-.5-4.5-1.7-1-1.2-1.7-2.7-1.7-4.7s.5-3.6,1.7-4.7c1-1.2,2.6-1.7,4.5-1.7s1.6,0,2.3.3c.8.3,1.4.5,1.9.9v1.8c-.6-.5-1.3-.9-1.9-1.2s-1.4-.4-2.2-.4c-1.6,0-2.6.4-3.4,1.3-.8.8-1.2,2.1-1.2,3.8s.4,2.9,1.2,3.8c.8.8,1.9,1.3,3.4,1.3s1.2,0,1.6-.1c.5,0,.9-.3,1.3-.5v-.3Z"/>
      <path id="DejaVuSans-61-4" d="M128.6,268.3c-1.2,0-2.1.1-2.6.4s-.6.8-.6,1.4.1.9.5,1.3c.4.3.8.5,1.4.5s1.6-.3,2.1-.9.8-1.4.8-2.3v-.4h-1.6ZM131.8,267.8v5.3h-1.6v-1.4c-.4.5-.8.9-1.3,1.3-.5.3-1.2.4-1.9.4s-1.7-.3-2.2-.8c-.5-.5-.8-1.3-.8-2.1s.4-1.8,1-2.3,1.7-.8,3.1-.8h2.1c0-.9-.3-1.4-.6-1.8s-1-.5-1.9-.5-1,0-1.6.1c-.5,0-1,.3-1.4.5v-1.4c.5-.3,1-.4,1.6-.5.5,0,1-.1,1.6-.1,1.3,0,2.3.4,3,1s1,1.7,1,3.1h0Z"/>
      <path id="DejaVuSans-72-2" d="M140.2,265.2c-.1,0-.4-.1-.5-.3h-.6c-.9,0-1.6.3-1.9.8s-.6,1.3-.6,2.3v4.8h-1.6v-9.2h1.6v1.4c.3-.5.8-1,1.3-1.3.5-.3,1.2-.4,1.8-.4s.3,0,.4,0h.4v1.8Z"/>
      <path id="DejaVuSans-64-2" d="M147.5,265.2v-4.9h1.6v12.9h-1.6v-1.4c-.3.5-.8.9-1.2,1.2-.5.3-1,.4-1.7.4-1.2,0-2.1-.4-2.7-1.3s-1-2.1-1-3.5.4-2.6,1-3.5,1.6-1.3,2.7-1.3,1.3.1,1.7.4c.5.3.9.6,1.2,1.2h0ZM142.4,268.5c0,1.2.3,1.9.6,2.6.5.6,1,.9,1.9.9s1.4-.3,1.9-.9.6-1.6.6-2.6-.3-1.9-.6-2.6c-.5-.6-1-.9-1.9-.9s-1.4.3-1.9.9-.6,1.6-.6,2.6Z"/>
      <path id="DejaVuSans-65-8" d="M160.1,268.1v.8h-7c0,1,.4,1.8.9,2.3.5.5,1.3.8,2.3.8s1.2,0,1.7-.3,1-.4,1.7-.6v1.4c-.5.3-1,.4-1.7.5s-1.2.1-1.7.1c-1.4,0-2.6-.4-3.5-1.3s-1.3-2.1-1.3-3.5.4-2.7,1.2-3.6c.8-.9,1.9-1.3,3.2-1.3s2.2.4,3,1.2c.8.8,1,1.8,1,3.2v.3ZM158.5,267.5c0-.8-.3-1.4-.6-1.9s-1-.8-1.8-.8-1.6.3-2.1.8-.8,1.2-.9,2.1h5.5Z"/>
      <path id="DejaVuSans-6e" d="M170.2,267.4v5.6h-1.6v-5.5c0-.9-.1-1.6-.5-1.9s-.9-.6-1.6-.6-1.4.3-1.9.8-.6,1.2-.6,2.1v5.2h-1.6v-9.2h1.6v1.4c.4-.5.8-.9,1.3-1.3.5-.3,1-.4,1.7-.4,1,0,1.8.4,2.3,1s.8,1.6.8,2.9h.1Z"/>
      <path id="DejaVuSans-20-5" d="M171.7,273"/>
      <path id="DejaVuSans-61-5" d="M182.8,268.3c-1.2,0-2.1.1-2.6.4s-.6.8-.6,1.4.1.9.5,1.3c.4.3.8.5,1.4.5s1.6-.3,2.1-.9.8-1.4.8-2.3v-.4h-1.6ZM185.8,267.8v5.3h-1.6v-1.4c-.4.5-.8.9-1.3,1.3-.5.3-1.2.4-1.9.4s-1.7-.3-2.2-.8-.8-1.3-.8-2.1.4-1.8,1-2.3,1.7-.8,3.1-.8h2.1c0-.9-.3-1.4-.6-1.8s-1-.5-1.9-.5-1,0-1.6.1c-.5,0-1,.3-1.4.5v-1.4c.5-.3,1-.4,1.6-.5.5,0,1-.1,1.6-.1,1.3,0,2.3.4,3,1s1,1.7,1,3.1h0Z"/>
      <path id="DejaVuSans-6e-2" d="M196.6,267.4v5.6h-1.6v-5.5c0-.9-.1-1.6-.5-1.9-.4-.4-.9-.6-1.6-.6s-1.4.3-1.9.8-.6,1.2-.6,2.1v5.2h-1.6v-9.2h1.6v1.4c.4-.5.8-.9,1.3-1.3.5-.3,1-.4,1.7-.4,1,0,1.8.4,2.3,1,.5.6.8,1.6.8,2.9h.1Z"/>
      <path id="DejaVuSans-64-3" d="M205.7,265.2v-4.9h1.6v12.9h-1.6v-1.4c-.3.5-.8.9-1.2,1.2-.5.3-1,.4-1.7.4-1.2,0-2.1-.4-2.7-1.3s-1-2.1-1-3.5.4-2.6,1-3.5,1.6-1.3,2.7-1.3,1.3.1,1.7.4c.5.3.9.6,1.2,1.2h0ZM200.5,268.5c0,1.2.3,1.9.6,2.6.5.6,1,.9,1.9.9s1.4-.3,1.9-.9.6-1.6.6-2.6-.3-1.9-.6-2.6c-.5-.6-1-.9-1.9-.9s-1.4.3-1.9.9-.6,1.6-.6,2.6Z"/>
      <path id="DejaVuSans-20-6" d="M208.8,273"/>
      <path id="DejaVuSans-47-2" d="M224.2,271.3v-3.2h-2.7v-1.4h4.4v5.3c-.6.5-1.3.8-2.1,1-.8.3-1.6.4-2.5.4-1.9,0-3.4-.5-4.5-1.7-1-1.2-1.7-2.7-1.7-4.7s.5-3.6,1.7-4.7c1-1.2,2.6-1.7,4.5-1.7s1.6,0,2.3.3,1.4.5,1.9.9v1.8c-.6-.5-1.3-.9-1.9-1.2s-1.4-.4-2.2-.4c-1.6,0-2.6.4-3.4,1.3-.8.8-1.2,2.1-1.2,3.8s.4,2.9,1.2,3.8c.8.8,1.9,1.3,3.4,1.3s1.2,0,1.6-.1c.5,0,.9-.3,1.3-.5v-.3Z"/>
      <path id="DejaVuSans-6c-4" d="M228.8,260.1h1.6v12.9h-1.6v-12.9h0Z"/>
      <path id="DejaVuSans-61-6" d="M237.7,268.3c-1.2,0-2.1.1-2.6.4s-.6.8-.6,1.4.1.9.5,1.3c.4.3.8.5,1.4.5s1.6-.3,2.1-.9.8-1.4.8-2.3v-.4h-1.6ZM240.7,267.8v5.3h-1.6v-1.4c-.4.5-.8.9-1.3,1.3-.5.3-1.2.4-1.9.4s-1.7-.3-2.2-.8-.8-1.3-.8-2.1.4-1.8,1-2.3,1.7-.8,3.1-.8h2.1c0-.9-.3-1.4-.6-1.8s-1-.5-1.9-.5-1,0-1.6.1c-.5,0-1,.3-1.4.5v-1.4c.5-.3,1-.4,1.6-.5.5,0,1-.1,1.6-.1,1.3,0,2.3.4,3,1s1,1.7,1,3.1h0Z"/>
      <path id="DejaVuSans-73" d="M249.8,264v1.4c-.4-.3-.9-.4-1.3-.5-.5,0-.9-.1-1.4-.1-.8,0-1.3,0-1.7.4-.4.3-.5.5-.5,1s.1.6.4.8.8.4,1.6.5h.5c1,.4,1.8.6,2.3,1s.6,1,.6,1.8-.4,1.6-1,2.1-1.6.8-2.9.8-1,0-1.6-.1c-.5,0-1-.3-1.7-.4v-1.6c.5.3,1.2.5,1.7.6.5.1,1,.3,1.6.3s1.3,0,1.7-.4c.4-.3.5-.6.5-1s-.1-.8-.4-.9c-.3-.3-.9-.4-1.8-.6h-.5c-.9-.3-1.6-.6-2.1-1-.4-.4-.6-.9-.6-1.7s.3-1.6.9-1.9c.6-.5,1.4-.6,2.6-.6h1.6c.5,0,.9.3,1.4.4h.1Z"/>
      <path id="DejaVuSans-73-2" d="M258.5,264v1.4c-.4-.3-.9-.4-1.3-.5-.5,0-.9-.1-1.4-.1-.8,0-1.3,0-1.7.4-.4.3-.5.5-.5,1s.1.6.4.8.8.4,1.6.5h.5c1,.4,1.8.6,2.3,1s.6,1,.6,1.8-.4,1.6-1,2.1-1.6.8-2.9.8-1,0-1.6-.1c-.5,0-1-.3-1.7-.4v-1.6c.5.3,1.2.5,1.7.6.5.1,1,.3,1.6.3s1.3,0,1.7-.4c.4-.3.5-.6.5-1s-.1-.8-.4-.9c-.3-.3-.9-.4-1.8-.6h-.5c-.9-.3-1.6-.6-2.1-1-.4-.4-.6-.9-.6-1.7s.3-1.6.9-1.9c.6-.5,1.4-.6,2.6-.6h1.6c.5,0,.9.3,1.4.4h.1Z"/>
      <path id="DejaVuSans-53-2" class="cls-7" d="M104.6-157.3v1.3c-.5-.3-1-.4-1.5-.6-.5,0-.9-.2-1.3-.2-.8,0-1.3,0-1.7.4-.4.3-.6.7-.6,1.2s0,.8.4,1,.8.4,1.5.6l.8.2c1,.2,1.8.5,2.3,1s.7,1.2.7,2-.3,1.7-1,2.3c-.7.5-1.6.8-2.9.8s-1,0-1.5-.2c-.5,0-1.1-.3-1.7-.5v-1.4c.6.3,1.1.6,1.6.7.5.2,1.1.2,1.6.2.8,0,1.4-.2,1.8-.5s.6-.8.6-1.3-.2-.9-.5-1.2-.8-.5-1.5-.6l-.8-.2c-1-.2-1.8-.5-2.2-1-.5-.4-.7-1-.7-1.8s.3-1.6,1-2.1c.6-.5,1.5-.8,2.6-.8s1,0,1.5,0c.5,0,1,.2,1.5.4v.2Z"/>
      <path id="DejaVuSans-65-9" class="cls-7" d="M113.8-151.6v.6h-5.8c0,.9.3,1.5.8,2s1.1.7,2,.7,1,0,1.4-.2.9-.3,1.4-.5v1.2c-.5.2-.9.3-1.4.4s-1,.2-1.4.2c-1.2,0-2.2-.4-2.9-1.1-.7-.7-1.1-1.7-1.1-2.9s.3-2.2,1-3c.7-.7,1.6-1.1,2.7-1.1s1.8.3,2.4,1,.9,1.6.9,2.7ZM112.6-152c0-.7-.2-1.2-.6-1.6-.4-.4-.9-.6-1.5-.6s-1.3.2-1.7.6-.7,1-.7,1.7h4.5,0Z"/>
      <path id="DejaVuSans-61-7" class="cls-7" d="M119.4-151.3c-1,0-1.7,0-2.1.3s-.6.6-.6,1.2,0,.8.4,1.1.7.4,1.2.4,1.3-.2,1.7-.7.6-1.2.6-2v-.3h-1.3.1ZM121.9-151.8v4.4h-1.3v-1.2c-.3.5-.6.8-1.1,1-.4.2-1,.3-1.6.3s-1.4-.2-1.9-.7c-.5-.4-.7-1-.7-1.8s.3-1.5.9-1.9,1.4-.7,2.6-.7h1.8c0-.7-.2-1.2-.6-1.5s-.9-.5-1.6-.5-.9,0-1.3.2c-.4,0-.8.3-1.2.5v-1.2c.5-.2.9-.3,1.3-.4.4,0,.9,0,1.3,0,1.1,0,1.9.3,2.5.9.5.6.8,1.4.8,2.6h0Z"/>
      <path id="DejaVuSans-74-2" class="cls-7" d="M125.7-157.3v2.2h2.6v1h-2.6v4.2c0,.6,0,1,.3,1.2s.5.3,1,.3h1.3v1.1h-1.3c-1,0-1.6-.2-2-.5-.4-.4-.6-1-.6-2v-4.2h-.9v-1h.9v-2.2h1.3Z"/>
      <path id="DejaVuSans-74-3" class="cls-7" d="M131.2-157.3v2.2h2.6v1h-2.6v4.2c0,.6,0,1,.3,1.2s.5.3,1,.3h1.3v1.1h-1.3c-1,0-1.6-.2-2-.5-.4-.4-.6-1-.6-2v-4.2h-.9v-1h.9v-2.2h1.3Z"/>
      <path id="DejaVuSans-6c-5" class="cls-7" d="M135.5-158.1h1.3v10.6h-1.3v-10.6Z"/>
      <path id="DejaVuSans-65-10" class="cls-7" d="M145.9-151.6v.6h-5.8c0,.9.3,1.5.8,2s1.1.7,2,.7,1,0,1.4-.2.9-.3,1.4-.5v1.2c-.5.2-.9.3-1.4.4s-1,.2-1.4.2c-1.2,0-2.2-.4-2.9-1.1-.7-.7-1.1-1.7-1.1-2.9s.3-2.2,1-3c.7-.7,1.6-1.1,2.7-1.1s1.8.3,2.4,1c.6.7.9,1.6.9,2.7h0ZM144.6-152c0-.7-.2-1.2-.6-1.6-.4-.4-.9-.6-1.5-.6s-1.3.2-1.7.6-.7,1-.7,1.7h4.5Z"/>
      <path id="DejaVuSans-20-7" class="cls-7" d="M132-6.8"/>
      <path id="DejaVuSans-2013" class="cls-7" d="M151.8-151.8h5.6v1h-5.6v-1Z"/>
      <path id="DejaVuSans-20-8" class="cls-7" d="M145.1-6.8"/>
      <path id="DejaVuSans-49" class="cls-7" d="M163.9-157.6h1.4v10.2h-1.4v-10.2Z"/>
      <path id="DejaVuSans-6e-3" class="cls-7" d="M174.4-152.1v4.6h-1.3v-4.6c0-.7-.1-1.3-.4-1.6-.3-.4-.7-.5-1.3-.5s-1.2.2-1.6.6c-.4.4-.6,1-.6,1.8v4.3h-1.3v-7.7h1.3v1.2c.3-.5.7-.8,1.1-1,.4-.2.9-.3,1.4-.3.9,0,1.5.3,2,.8s.7,1.3.7,2.4h0Z"/>
      <path id="DejaVuSans-73-3" class="cls-7" d="M181.7-154.9v1.2c-.4-.2-.7-.3-1.1-.4-.4,0-.8,0-1.2,0-.6,0-1.1,0-1.4.3-.3.2-.5.5-.5.9s.1.5.3.7.7.3,1.3.5h.4c.9.3,1.5.6,1.9.9s.6.8.6,1.5-.3,1.3-.8,1.7c-.6.4-1.3.6-2.3.6s-.8,0-1.3,0c-.4,0-.9-.2-1.4-.4v-1.3c.5.2.9.4,1.4.5s.9.2,1.3.2,1,0,1.4-.3c.3-.2.5-.5.5-.9s-.1-.6-.3-.8-.7-.4-1.5-.5h-.4c-.8-.3-1.3-.5-1.7-.9-.3-.3-.5-.8-.5-1.4s.3-1.3.8-1.7,1.2-.6,2.2-.6.9,0,1.3,0c.4,0,.8.2,1.1.3h-.1Z"/>
      <path id="DejaVuSans-74-4" class="cls-7" d="M185.4-157.3v2.2h2.6v1h-2.6v4.2c0,.6,0,1,.3,1.2s.5.3,1,.3h1.3v1.1h-1.3c-1,0-1.6-.2-2-.5-.4-.4-.6-1-.6-2v-4.2h-.9v-1h.9v-2.2h1.3Z"/>
      <path id="DejaVuSans-61-8" class="cls-7" d="M193.1-151.3c-1,0-1.7,0-2.1.3s-.6.6-.6,1.2.1.8.4,1.1c.3.3.7.4,1.2.4s1.3-.2,1.7-.7.6-1.2.6-2v-.3h-1.3.1ZM195.6-151.8v4.4h-1.3v-1.2c-.3.5-.6.8-1.1,1-.4.2-1,.3-1.6.3s-1.4-.2-1.9-.7c-.5-.4-.7-1-.7-1.8s.3-1.5.9-1.9c.6-.4,1.4-.7,2.6-.7h1.8c0-.7-.2-1.2-.6-1.5s-.9-.5-1.6-.5-.9,0-1.3.2c-.4,0-.8.3-1.2.5v-1.2c.5-.2.9-.3,1.3-.4.4,0,.9,0,1.3,0,1.1,0,1.9.3,2.5.9.5.6.8,1.4.8,2.6h.1Z"/>
      <path id="DejaVuSans-67" class="cls-7" d="M203.3-151.4c0-.9-.2-1.6-.6-2.1-.4-.5-.9-.8-1.6-.8s-1.2.3-1.6.8c-.4.5-.6,1.2-.6,2.1s.2,1.6.6,2.1c.4.5.9.8,1.6.8s1.2-.3,1.6-.8c.4-.5.6-1.2.6-2.1ZM204.5-148.4c0,1.3-.3,2.3-.9,2.9-.6.6-1.5,1-2.7,1h-1.3c-.4,0-.8-.2-1.1-.3v-1.2c.4.2.7.3,1.1.4.4,0,.7,0,1.1,0,.8,0,1.4-.2,1.9-.6.4-.4.6-1.1.6-2v-.6c-.3.5-.6.8-1,1s-.9.3-1.5.3c-.9,0-1.7-.4-2.3-1.1-.6-.7-.9-1.7-.9-2.8s.3-2.1.9-2.8c.6-.7,1.3-1.1,2.3-1.1s1.1,0,1.5.3.7.6,1,1v-1.2h1.3v6.7h0Z"/>
      <path id="DejaVuSans-72-3" class="cls-7" d="M211.5-153.9c-.1,0-.3,0-.5-.2h-.5c-.7,0-1.3.2-1.6.7s-.6,1.1-.6,2v4h-1.3v-7.7h1.3v1.2c.3-.5.6-.8,1-1s.9-.3,1.5-.3.2,0,.3,0h.3v1.3h.1Z"/>
      <path id="DejaVuSans-61-9" class="cls-7" d="M216.3-151.3c-1,0-1.7,0-2.1.3s-.6.6-.6,1.2.1.8.4,1.1c.3.3.7.4,1.2.4s1.3-.2,1.7-.7.6-1.2.6-2v-.3h-1.3.1ZM218.9-151.8v4.4h-1.3v-1.2c-.3.5-.6.8-1.1,1-.4.2-1,.3-1.6.3s-1.4-.2-1.9-.7c-.5-.4-.7-1-.7-1.8s.3-1.5.9-1.9c.6-.4,1.4-.7,2.6-.7h1.8c0-.7-.2-1.2-.6-1.5s-.9-.5-1.6-.5-.9,0-1.3.2c-.4,0-.8.3-1.2.5v-1.2c.5-.2.9-.3,1.3-.4.4,0,.9,0,1.3,0,1.1,0,1.9.3,2.5.9.5.6.8,1.4.8,2.6h.1Z"/>
      <path id="DejaVuSans-6d" class="cls-7" d="M227.4-153.6c.3-.6.7-1,1.1-1.3s1-.4,1.5-.4,1.4.3,1.8.8c.4.6.6,1.4.6,2.4v4.6h-1.3v-4.6c0-.7-.1-1.3-.4-1.6-.3-.4-.7-.5-1.2-.5s-1.2.2-1.5.6c-.4.4-.6,1-.6,1.8v4.3h-1.3v-4.6c0-.7-.1-1.3-.4-1.6s-.7-.5-1.2-.5-1.2.2-1.5.7c-.4.4-.6,1-.6,1.8v4.3h-1.3v-7.7h1.3v1.2c.3-.5.6-.8,1-1s.9-.3,1.4-.3,1,0,1.4.4c.4.3.7.7.9,1.2h.3Z"/>
      <path id="DejaVuSans-20-9" class="cls-7" d="M231.2-6.8"/>
      <path id="DejaVuSans-43-2" class="cls-7" d="M247.2-156.9v1.5c-.5-.4-1-.8-1.5-1s-1.1-.3-1.7-.3c-1.2,0-2.1.4-2.7,1.1s-.9,1.7-.9,3.1.3,2.4.9,3.1,1.5,1.1,2.7,1.1,1.2,0,1.7-.3,1-.5,1.5-1v1.4c-.5.3-1,.6-1.5.7-.5.2-1.1.2-1.7.2-1.5,0-2.8-.5-3.7-1.4s-1.3-2.2-1.3-3.9.4-2.9,1.3-3.9c.9-.9,2.1-1.4,3.7-1.4s1.2,0,1.7.2,1,.4,1.5.7h0Z"/>
      <path id="DejaVuSans-61-10" class="cls-7" d="M252.8-151.3c-1,0-1.7,0-2.1.3s-.6.6-.6,1.2.1.8.4,1.1c.3.3.7.4,1.2.4s1.3-.2,1.7-.7.6-1.2.6-2v-.3h-1.3.1ZM255.3-151.8v4.4h-1.3v-1.2c-.3.5-.6.8-1.1,1-.4.2-1,.3-1.6.3s-1.4-.2-1.9-.7c-.5-.4-.7-1-.7-1.8s.3-1.5.9-1.9c.6-.4,1.4-.7,2.6-.7h1.8c0-.7-.2-1.2-.6-1.5s-.9-.5-1.6-.5-.9,0-1.3.2c-.4,0-.8.3-1.2.5v-1.2c.5-.2.9-.3,1.3-.4.4,0,.9,0,1.3,0,1.1,0,1.9.3,2.5.9.5.6.8,1.4.8,2.6h.1Z"/>
      <path id="DejaVuSans-66" class="cls-7" d="M261.8-158.1v1h-1.2c-.5,0-.8,0-.9.3-.2.2-.3.5-.3,1v.7h2.1v1h-2.1v6.7h-1.3v-6.7h-1.2v-1h1.2v-.5c0-.9.2-1.5.6-1.9s1-.6,1.9-.6h1.2,0Z"/>
      <path id="DejaVuSans-e9" class="cls-7" d="M269.4-151.6v.6h-5.8c0,.9.3,1.5.8,2s1.1.7,2,.7,1,0,1.4-.2.9-.3,1.4-.5v1.2c-.5.2-.9.3-1.4.4s-1,.2-1.4.2c-1.2,0-2.2-.4-2.9-1.1-.7-.7-1.1-1.7-1.1-2.9s.3-2.2,1-3c.7-.7,1.6-1.1,2.7-1.1s1.8.3,2.4,1,.9,1.6.9,2.7ZM268.1-152c0-.7-.2-1.2-.6-1.6-.4-.4-.9-.6-1.5-.6s-1.3.2-1.7.6-.7,1-.7,1.7h4.5ZM266.9-158.6h1.4l-2.2,2.6h-1l1.9-2.6h0Z"/>
      <path id="DejaVuSans-73-4" class="cls-7" d="M276.3-154.9v1.2c-.4-.2-.7-.3-1.1-.4-.4,0-.8,0-1.2,0-.6,0-1.1,0-1.4.3-.3.2-.5.5-.5.9s.1.5.3.7.7.3,1.3.5h.4c.9.3,1.5.6,1.9.9s.6.8.6,1.5-.3,1.3-.8,1.7c-.6.4-1.3.6-2.3.6s-.8,0-1.3,0c-.4,0-.9-.2-1.4-.4v-1.3c.5.2.9.4,1.4.5s.9.2,1.3.2,1,0,1.4-.3c.3-.2.5-.5.5-.9s-.1-.6-.3-.8c-.2-.2-.7-.4-1.5-.5h-.4c-.8-.3-1.3-.5-1.7-.9-.3-.3-.5-.8-.5-1.4s.3-1.3.8-1.7,1.2-.6,2.2-.6.9,0,1.3,0c.4,0,.8.2,1.1.3h0Z"/>
      <path id="DejaVuSans-20-10" class="cls-7" d="M280.8-6.8"/>
      <path id="DejaVuSans-62" class="cls-7" d="M288.7-151.3c0-.9-.2-1.7-.6-2.2s-.9-.8-1.6-.8-1.2.3-1.6.8-.6,1.3-.6,2.2.2,1.7.6,2.2.9.8,1.6.8,1.2-.3,1.6-.8.6-1.3.6-2.2ZM284.4-153.9c.3-.5.6-.8,1-1s.9-.3,1.4-.3c.9,0,1.7.4,2.3,1.1.6.7.9,1.7.9,2.9s-.3,2.2-.9,2.9-1.3,1.1-2.3,1.1-1,0-1.4-.3-.7-.6-1-1v1.1h-1.3v-10.6h1.3v4.1Z"/>
      <path id="DejaVuSans-79-2" class="cls-7" d="M295.2-146.7c-.4.9-.7,1.5-1,1.8s-.8.4-1.4.4h-1v-1.1h.7c.3,0,.6,0,.8-.2.2-.2.4-.6.6-1.2l.2-.6-3.1-7.5h1.3l2.4,6,2.4-6h1.3l-3.4,8.4h.2Z"/>
      <path id="DejaVuSans-20-11" class="cls-7" d="M305.3-6.8"/>
      <path id="DejaVuSans-54" class="cls-7" d="M303.4-157.6h8.6v1.2h-3.6v9h-1.4v-9h-3.6v-1.2Z"/>
      <path id="DejaVuSans-68-3" class="cls-7" d="M319.7-152.1v4.6h-1.3v-4.6c0-.7-.1-1.3-.4-1.6-.3-.4-.7-.5-1.3-.5s-1.2.2-1.6.6c-.4.4-.6,1-.6,1.8v4.3h-1.3v-10.6h1.3v4.2c.3-.5.7-.8,1.1-1s.9-.3,1.4-.3c.9,0,1.5.3,2,.8s.7,1.3.7,2.4h0Z"/>
      <path id="DejaVuSans-65-11" class="cls-7" d="M328.8-151.6v.6h-5.8c0,.9.3,1.5.8,2s1.1.7,2,.7,1,0,1.4-.2.9-.3,1.4-.5v1.2c-.5.2-.9.3-1.4.4s-1,.2-1.4.2c-1.2,0-2.2-.4-2.9-1.1-.7-.7-1.1-1.7-1.1-2.9s.3-2.2,1-3c.7-.7,1.6-1.1,2.7-1.1s1.8.3,2.4,1,.9,1.6.9,2.7ZM327.5-152c0-.7-.2-1.2-.6-1.6-.4-.4-.9-.6-1.5-.6s-1.3.2-1.7.6-.7,1-.7,1.7h4.5Z"/>
      <path id="DejaVuSans-6d-2" class="cls-7" d="M336.8-153.6c.3-.6.7-1,1.1-1.3s1-.4,1.5-.4,1.4.3,1.8.8c.4.6.6,1.4.6,2.4v4.6h-1.3v-4.6c0-.7-.1-1.3-.4-1.6-.3-.4-.7-.5-1.2-.5s-1.2.2-1.5.6c-.4.4-.6,1-.6,1.8v4.3h-1.3v-4.6c0-.7-.1-1.3-.4-1.6s-.7-.5-1.2-.5-1.2.2-1.5.7c-.4.4-.6,1-.6,1.8v4.3h-1.3v-7.7h1.3v1.2c.3-.5.6-.8,1-1s.9-.3,1.4-.3,1,0,1.4.4c.4.3.7.7.9,1.2h.3Z"/>
      <path id="DejaVuSans-65-12" class="cls-7" d="M351-151.6v.6h-5.8c0,.9.3,1.5.8,2s1.1.7,2,.7,1,0,1.4-.2.9-.3,1.4-.5v1.2c-.5.2-.9.3-1.4.4s-1,.2-1.4.2c-1.2,0-2.2-.4-2.9-1.1-.7-.7-1.1-1.7-1.1-2.9s.3-2.2,1-3c.7-.7,1.6-1.1,2.7-1.1s1.8.3,2.4,1,.9,1.6.9,2.7ZM349.8-152c0-.7-.2-1.2-.6-1.6-.4-.4-.9-.6-1.5-.6s-1.3.2-1.7.6-.7,1-.7,1.7h4.5Z"/>
      <rect class="cls-1" x="48.2" y="88.1" width="456.8" height="1037.7"/>
      <g>
        <path id="m88e210593d" class="cls-4" d="M275.8,269.5c1.3,0,2.5-.5,3.4-1.4.9-.9,1.4-2.1,1.4-3.4s-.5-2.5-1.4-3.4-2.1-1.4-3.4-1.4-2.5.5-3.4,1.4-1.4,2.1-1.4,3.4.5,2.5,1.4,3.4c.9.9,2.1,1.4,3.4,1.4Z"/>
        <path id="m88e210593d-2" class="cls-4" d="M285.2,291.8c1.3,0,2.5-.5,3.4-1.4.9-.9,1.4-2.1,1.4-3.4s-.5-2.5-1.4-3.4c-.9-.9-2.1-1.4-3.4-1.4s-2.5.5-3.4,1.4c-.9.9-1.4,2.1-1.4,3.4s.5,2.5,1.4,3.4c.9.9,2.1,1.4,3.4,1.4Z"/>
        <path id="m88e210593d-3" class="cls-4" d="M274.2,269.2c1.3,0,2.5-.5,3.4-1.4.9-.9,1.4-2.1,1.4-3.4s-.5-2.5-1.4-3.4-2.1-1.4-3.4-1.4-2.5.5-3.4,1.4-1.4,2.1-1.4,3.4.5,2.5,1.4,3.4c.9.9,2.1,1.4,3.4,1.4Z"/>
      </g>
      <path id="DejaVuSans-50-3" class="cls-7" d="M699.2,82.2v3.3h1.5c.6,0,1,0,1.3-.4s.5-.7.5-1.2-.2-.9-.5-1.2c-.3-.3-.7-.4-1.3-.4h-1.5ZM698.1,81.2h2.7c1,0,1.7.2,2.2.7.5.4.8,1.1.8,1.9s-.3,1.5-.8,2c-.5.4-1.2.7-2.2.7h-1.5v3.5h-1.2v-8.7h0Z"/>
      <path id="DejaVuSans-72-4" class="cls-7" d="M708.8,84.4c-.1,0-.3,0-.4-.2h-.5c-.6,0-1.1.2-1.4.6s-.5,1-.5,1.7v3.5h-1.1v-6.6h1.1v1c.2-.4.5-.7.9-.9.4-.2.8-.3,1.3-.3s.2,0,.2,0h.3v1.1h.1Z"/>
      <path id="DejaVuSans-69-3" class="cls-7" d="M710,83.4h1.1v6.6h-1.1v-6.6ZM710,80.8h1.1v1.4h-1.1v-1.4Z"/>
      <path id="DejaVuSans-6d-3" class="cls-7" d="M718.4,84.6c.3-.5.6-.8,1-1.1s.8-.3,1.3-.3,1.2.2,1.6.7.6,1.2.6,2v4h-1.1v-3.9c0-.6-.1-1.1-.3-1.4-.2-.3-.6-.5-1-.5s-1,.2-1.3.6-.5.9-.5,1.5v3.7h-1.1v-3.9c0-.6-.1-1.1-.3-1.4s-.6-.5-1-.5-1,.2-1.3.6-.5.9-.5,1.5v3.7h-1.1v-6.6h1.1v1c.2-.4.5-.7.9-.9s.8-.3,1.2-.3.9,0,1.2.4c.3.2.6.6.7,1.1h-.1Z"/>
      <path id="DejaVuSans-61-11" class="cls-7" d="M728,86.6c-.9,0-1.5,0-1.8.3s-.5.5-.5,1,.1.7.4.9c.3.2.6.3,1,.3s1.1-.2,1.4-.6.5-1,.5-1.7v-.2h-1.1.1ZM730.1,86.2v3.7h-1.1v-1c-.2.4-.6.7-.9.9-.4.2-.8.3-1.3.3s-1.2-.2-1.6-.6-.6-.9-.6-1.5.2-1.3.7-1.7c.5-.4,1.2-.6,2.2-.6h1.5c0-.6-.2-1-.5-1.3s-.8-.4-1.4-.4-.7,0-1.1,0c-.4,0-.7.2-1,.4v-1c.4-.2.8-.3,1.1-.3s.7,0,1.1,0c1,0,1.7.2,2.1.7.5.5.7,1.2.7,2.2v.2Z"/>
      <path id="DejaVuSans-72-5" class="cls-7" d="M736.2,84.4c-.1,0-.3,0-.4-.2h-.5c-.6,0-1.1.2-1.4.6s-.5,1-.5,1.7v3.5h-1.1v-6.6h1.1v1c.2-.4.5-.7.9-.9.4-.2.8-.3,1.3-.3s.2,0,.2,0h.3v1.1h.1Z"/>
      <path id="DejaVuSans-79-3" class="cls-7" d="M740,90.5c-.3.8-.6,1.3-.9,1.5s-.7.4-1.2.4h-.9v-.9h.6c.3,0,.5,0,.7-.2.2,0,.3-.5.5-1l.2-.5-2.7-6.5h1.1l2.1,5.1,2.1-5.1h1.1l-2.9,7.2h.2Z"/>
      <path id="DejaVuSans-20-12" class="cls-7" d="M743.3,89.9"/>
      <path id="DejaVuSans-54-2" class="cls-7" d="M747,81.2h7.4v1h-3.1v7.8h-1.2v-7.8h-3.1v-1h0Z"/>
      <path id="DejaVuSans-68-4" class="cls-7" d="M761,86v4h-1.1v-3.9c0-.6-.1-1.1-.4-1.4-.2-.3-.6-.5-1.1-.5s-1,.2-1.4.6c-.3.4-.5.9-.5,1.5v3.7h-1.1v-9.1h1.1v3.6c.3-.4.6-.7.9-.9.3-.2.8-.3,1.2-.3.8,0,1.3.2,1.7.7.4.5.6,1.2.6,2.1h0Z"/>
      <path id="DejaVuSans-65-13" class="cls-7" d="M768.8,86.4v.5h-5c0,.7.3,1.3.7,1.7.4.4,1,.6,1.7.6s.8,0,1.2-.2.8-.3,1.2-.5v1c-.4.2-.8.3-1.2.4s-.8,0-1.2,0c-1,0-1.9-.3-2.5-.9s-.9-1.4-.9-2.5.3-1.9.9-2.6c.6-.6,1.4-.9,2.3-.9s1.6.3,2.1.9.8,1.3.8,2.3h-.1ZM767.7,86.1c0-.6-.2-1.1-.5-1.4-.3-.4-.7-.5-1.3-.5s-1.1.2-1.4.5-.6.8-.6,1.4h3.8Z"/>
      <path id="DejaVuSans-6d-4" class="cls-7" d="M775.6,84.6c.3-.5.6-.8,1-1.1s.8-.3,1.3-.3,1.2.2,1.6.7.6,1.2.6,2v4h-1.1v-3.9c0-.6-.1-1.1-.3-1.4-.2-.3-.6-.5-1-.5s-1,.2-1.3.6-.5.9-.5,1.5v3.7h-1.1v-3.9c0-.6-.1-1.1-.3-1.4s-.6-.5-1-.5-1,.2-1.3.6-.5.9-.5,1.5v3.7h-1.1v-6.6h1.1v1c.2-.4.5-.7.9-.9s.8-.3,1.2-.3.9,0,1.2.4c.3.2.6.6.7,1.1h-.1Z"/>
      <path id="DejaVuSans-65-14" class="cls-7" d="M787.8,86.4v.5h-5c0,.7.3,1.3.7,1.7.4.4,1,.6,1.7.6s.8,0,1.2-.2.8-.3,1.2-.5v1c-.4.2-.8.3-1.2.4s-.8,0-1.2,0c-1,0-1.9-.3-2.5-.9s-.9-1.4-.9-2.5.3-1.9.9-2.6c.6-.6,1.4-.9,2.3-.9s1.6.3,2.1.9.8,1.3.8,2.3h-.1ZM786.7,86.1c0-.6-.2-1.1-.5-1.4-.3-.4-.7-.5-1.3-.5s-1.1.2-1.4.5-.6.8-.6,1.4h3.8Z"/>
      <path id="m46d711625e-15" class="cls-6" d="M686,106.9c.9,0,1.8-.4,2.5-1s1-1.6,1-2.5-.4-1.8-1-2.5-1.6-1-2.5-1-1.8.4-2.5,1-1,1.6-1,2.5.4,1.8,1,2.5,1.6,1,2.5,1Z"/>
      <path id="DejaVuSans-63-3" class="cls-7" d="M711.1,100.5v.9c-.3-.2-.6-.3-.8-.3s-.6,0-.9,0c-.6,0-1.1.2-1.5.6s-.5,1-.5,1.7.2,1.3.5,1.7c.4.4.9.6,1.5.6s.6,0,.9,0,.6-.2.8-.3v.9c-.3,0-.6.2-.9.3h-.9c-.9,0-1.6-.3-2.2-.9-.5-.6-.8-1.3-.8-2.3s.3-1.8.8-2.3c.5-.6,1.3-.8,2.2-.8s.6,0,.9,0,.6.2.8.3h.1Z"/>
      <path id="DejaVuSans-6f" class="cls-7" d="M715.2,101c-.5,0-.9.2-1.3.6s-.5,1-.5,1.7.2,1.3.5,1.7c.3.4.7.6,1.3.6s.9-.2,1.3-.6c.3-.4.5-1,.5-1.7s-.2-1.3-.5-1.7c-.3-.4-.7-.6-1.3-.6ZM715.2,100.1c.9,0,1.5.3,2,.8.5.6.7,1.3.7,2.3s-.2,1.8-.7,2.3c-.5.6-1.2.8-2,.8s-1.5-.3-2-.8c-.5-.6-.7-1.3-.7-2.3s.2-1.8.7-2.3c.5-.6,1.2-.8,2-.8Z"/>
      <path id="DejaVuSans-6d-5" class="cls-7" d="M724.3,101.4c.2-.4.5-.8.9-1s.7-.3,1.2-.3,1.1.2,1.5.7c.3.4.5,1.1.5,1.9v3.6h-1v-3.6c0-.6-.1-1-.3-1.3-.2-.3-.5-.4-.9-.4s-.9.2-1.2.5c-.3.3-.4.8-.4,1.4v3.4h-1v-3.6c0-.6-.1-1-.3-1.3s-.5-.4-.9-.4-.9.2-1.2.5c-.3.3-.4.8-.4,1.4v3.4h-1v-6h1v.9c.2-.4.5-.6.8-.8s.7-.3,1.1-.3.8,0,1.1.3c.3.2.5.5.7,1h-.2Z"/>
      <path id="DejaVuSans-6d-6" class="cls-7" d="M735,101.4c.2-.4.5-.8.9-1s.7-.3,1.2-.3,1.1.2,1.5.7c.3.4.5,1.1.5,1.9v3.6h-1v-3.6c0-.6-.1-1-.3-1.3-.2-.3-.5-.4-.9-.4s-.9.2-1.2.5c-.3.3-.4.8-.4,1.4v3.4h-1v-3.6c0-.6-.1-1-.3-1.3s-.5-.4-.9-.4-.9.2-1.2.5c-.3.3-.4.8-.4,1.4v3.4h-1v-6h1v.9c.2-.4.5-.6.8-.8s.7-.3,1.1-.3.8,0,1.1.3c.3.2.5.5.7,1h-.2Z"/>
      <path id="DejaVuSans-75-2" class="cls-7" d="M740.9,103.9v-3.6h1v3.6c0,.6.1,1,.3,1.3.2.3.6.4,1,.4s1-.2,1.3-.5.5-.8.5-1.4v-3.4h1v6h-1v-.9c-.2.4-.5.6-.8.8-.3.2-.7.3-1.1.3-.7,0-1.2-.2-1.6-.6s-.5-1.1-.5-1.9h0ZM743.4,100.1h0Z"/>
      <path id="DejaVuSans-6e-4" class="cls-7" d="M753,102.7v3.6h-1v-3.6c0-.6-.1-1-.3-1.3-.2-.3-.6-.4-1-.4s-1,.2-1.3.5-.5.8-.5,1.4v3.4h-1v-6h1v.9c.2-.4.5-.6.8-.8.3-.2.7-.3,1.1-.3.7,0,1.2.2,1.6.6s.5,1.1.5,1.9h0Z"/>
      <path id="DejaVuSans-69-4" class="cls-7" d="M755,100.3h1v6h-1v-6ZM755,97.9h1v1.3h-1v-1.3Z"/>
      <path id="DejaVuSans-74-5" class="cls-7" d="M759,98.6v1.7h2v.8h-2v3.3c0,.5,0,.8.2.9s.4.2.8.2h1v.8h-1c-.8,0-1.3,0-1.6-.4-.3-.3-.4-.8-.4-1.6v-3.3h-.7v-.8h.7v-1.7h1Z"/>
      <path id="DejaVuSans-79-4" class="cls-7" d="M764.8,106.9c-.3.7-.6,1.2-.8,1.4-.3.2-.6.3-1.1.3h-.8v-.8h.6c.3,0,.5,0,.6-.2.2,0,.3-.4.5-.9l.2-.5-2.4-5.9h1l1.9,4.7,1.9-4.7h1l-2.6,6.6h0Z"/>
      <path id="DejaVuSans-5f" class="cls-7" d="M773.4,108.1v.8h-5.7v-.8h5.7Z"/>
      <path id="DejaVuSans-65-15" class="cls-7" d="M779.5,103v.5h-4.5c0,.7.2,1.2.6,1.6s.9.5,1.5.5.7,0,1.1,0,.7-.2,1.1-.4v.9c-.4.2-.7.3-1.1.3s-.7,0-1.1,0c-1,0-1.7-.3-2.3-.8-.6-.6-.8-1.3-.8-2.3s.3-1.8.8-2.3c.5-.6,1.2-.9,2.2-.9s1.4.3,1.9.8.7,1.2.7,2.1h-.1ZM778.5,102.7c0-.5-.2-1-.5-1.3s-.7-.5-1.2-.5-1,.2-1.3.5-.5.8-.6,1.3h3.6Z"/>
      <path id="DejaVuSans-76" class="cls-7" d="M780.4,100.3h1l1.9,5,1.9-5h1l-2.3,6h-1.3l-2.3-6h0Z"/>
      <path id="DejaVuSans-65-16" class="cls-7" d="M792.8,103v.5h-4.5c0,.7.2,1.2.6,1.6s.9.5,1.5.5.7,0,1.1,0,.7-.2,1.1-.4v.9c-.4.2-.7.3-1.1.3s-.7,0-1.1,0c-1,0-1.7-.3-2.3-.8-.6-.6-.8-1.3-.8-2.3s.3-1.8.8-2.3c.5-.6,1.2-.9,2.2-.9s1.4.3,1.9.8.7,1.2.7,2.1h-.1ZM791.8,102.7c0-.5-.2-1-.5-1.3s-.7-.5-1.2-.5-1,.2-1.3.5-.5.8-.6,1.3h3.6Z"/>
      <path id="DejaVuSans-6e-5" class="cls-7" d="M799.4,102.7v3.6h-1v-3.6c0-.6-.1-1-.3-1.3-.2-.3-.6-.4-1-.4s-1,.2-1.3.5-.5.8-.5,1.4v3.4h-1v-6h1v.9c.2-.4.5-.6.8-.8.3-.2.7-.3,1.1-.3.7,0,1.2.2,1.6.6s.5,1.1.5,1.9h0Z"/>
      <path id="DejaVuSans-74-6" class="cls-7" d="M802.3,98.6v1.7h2v.8h-2v3.3c0,.5,0,.8.2.9s.4.2.8.2h1v.8h-1c-.8,0-1.3,0-1.6-.4-.3-.3-.4-.8-.4-1.6v-3.3h-.7v-.8h.7v-1.7h1Z"/>
      <path id="DejaVuSans-73-5" class="cls-7" d="M809.5,100.5v.9c-.3,0-.6-.3-.9-.3s-.6,0-.9,0c-.5,0-.9,0-1.1.2s-.4.4-.4.7,0,.4.3.5.5.3,1.1.4h.3c.7.2,1.2.4,1.5.7s.4.7.4,1.1-.2,1-.7,1.3c-.4.3-1.1.5-1.8.5h-1c-.3,0-.7-.2-1.1-.3v-1c.4.2.7.3,1.1.4.4,0,.7,0,1.1,0s.8,0,1.1-.2c.3-.2.4-.4.4-.7s0-.5-.3-.6c-.2,0-.6-.3-1.2-.4h-.3c-.6-.2-1.1-.4-1.3-.7-.3-.3-.4-.6-.4-1.1s.2-1,.6-1.3,1-.5,1.7-.5h1c.3,0,.6,0,.9.2v.2Z"/>
      <path id="m29c573128f-35" class="cls-2" d="M686,123.4c.9,0,1.8-.4,2.5-1s1-1.6,1-2.5-.4-1.8-1-2.5-1.6-1-2.5-1-1.8.4-2.5,1-1,1.6-1,2.5.4,1.8,1,2.5,1.6,1,2.5,1Z"/>
      <path id="DejaVuSans-6d-7" class="cls-7" d="M711.5,117.9c.2-.4.5-.8.9-1s.7-.3,1.2-.3,1.1.2,1.5.7c.3.4.5,1.1.5,1.9v3.6h-1v-3.6c0-.6-.1-1-.3-1.3-.2-.3-.5-.4-.9-.4s-.9.2-1.2.5c-.3.3-.4.8-.4,1.4v3.4h-1v-3.6c0-.6-.1-1-.3-1.3s-.5-.4-.9-.4-.9.2-1.2.5c-.3.3-.4.8-.4,1.4v3.4h-1v-6h1v.9c.2-.4.5-.6.8-.8s.7-.3,1.1-.3.8,0,1.1.3c.3.2.5.5.7,1h-.2Z"/>
      <path id="DejaVuSans-75-3" class="cls-7" d="M717.4,120.4v-3.6h1v3.6c0,.6.1,1,.3,1.3.2.3.6.4,1,.4s1-.2,1.3-.5.5-.8.5-1.4v-3.4h1v6h-1v-.9c-.2.4-.5.6-.8.8-.3.2-.7.3-1.1.3-.7,0-1.2-.2-1.6-.6s-.5-1.1-.5-1.9h0ZM719.9,116.6h0Z"/>
      <path id="DejaVuSans-6c-6" class="cls-7" d="M724.5,114.4h1v8.4h-1v-8.4Z"/>
      <path id="DejaVuSans-74-7" class="cls-7" d="M728.5,115v1.7h2v.8h-2v3.3c0,.5,0,.8.2.9s.4.2.8.2h1v.8h-1c-.8,0-1.3,0-1.6-.4-.3-.3-.4-.8-.4-1.6v-3.3h-.7v-.8h.7v-1.7h1Z"/>
      <path id="DejaVuSans-69-5" class="cls-7" d="M731.9,116.7h1v6h-1v-6ZM731.9,114.4h1v1.3h-1v-1.3Z"/>
      <path id="DejaVuSans-5f-2" class="cls-7" d="M739.5,124.6v.8h-5.7v-.8h5.7Z"/>
      <path id="DejaVuSans-6c-7" class="cls-7" d="M740.4,114.4h1v8.4h-1v-8.4Z"/>
      <path id="DejaVuSans-6f-2" class="cls-7" d="M745.8,117.4c-.5,0-.9.2-1.3.6s-.5,1-.5,1.7.2,1.3.5,1.7c.3.4.7.6,1.3.6s.9-.2,1.3-.6c.3-.4.5-1,.5-1.7s-.2-1.3-.5-1.7c-.3-.4-.7-.6-1.3-.6ZM745.8,116.6c.9,0,1.5.3,2,.8.5.6.7,1.3.7,2.3s-.2,1.8-.7,2.3c-.5.6-1.2.8-2,.8s-1.5-.3-2-.8c-.5-.6-.7-1.3-.7-2.3s.2-1.8.7-2.3c.5-.6,1.2-.8,2-.8Z"/>
      <path id="DejaVuSans-63-4" class="cls-7" d="M754.5,117v.9c-.3-.2-.6-.3-.8-.3s-.6,0-.9,0c-.6,0-1.1.2-1.5.6s-.5,1-.5,1.7.2,1.3.5,1.7c.4.4.9.6,1.5.6s.6,0,.9,0,.6-.2.8-.3v.9c-.3,0-.6.2-.9.3h-.9c-.9,0-1.6-.3-2.2-.9-.5-.6-.8-1.3-.8-2.3s.3-1.8.8-2.3c.5-.6,1.3-.8,2.2-.8s.6,0,.9,0,.6.2.8.3h.1Z"/>
      <path id="DejaVuSans-61-12" class="cls-7" d="M759,119.7c-.8,0-1.4,0-1.7.3s-.5.5-.5.9.1.6.3.8c.2.2.5.3.9.3s1-.2,1.3-.6.5-.9.5-1.5v-.2h-1,.2ZM761,119.3v3.4h-1v-.9c-.2.4-.5.6-.8.8-.3.2-.7.3-1.2.3s-1.1-.2-1.5-.5-.5-.8-.5-1.4.2-1.2.7-1.5,1.1-.5,2-.5h1.4c0-.6-.1-.9-.4-1.2s-.7-.4-1.3-.4-.7,0-1,0c-.3,0-.6.2-.9.4v-.9c.4,0,.7-.2,1.1-.3.3,0,.7,0,1,0,.9,0,1.5.2,2,.7.4.5.6,1.1.6,2.1h-.2Z"/>
      <path id="DejaVuSans-74-8" class="cls-7" d="M764,115v1.7h2v.8h-2v3.3c0,.5,0,.8.2.9s.4.2.8.2h1v.8h-1c-.8,0-1.3,0-1.6-.4-.3-.3-.4-.8-.4-1.6v-3.3h-.7v-.8h.7v-1.7h1Z"/>
      <path id="DejaVuSans-69-6" class="cls-7" d="M767.3,116.7h1v6h-1v-6ZM767.3,114.4h1v1.3h-1v-1.3Z"/>
      <path id="DejaVuSans-6f-3" class="cls-7" d="M772.7,117.4c-.5,0-.9.2-1.3.6s-.5,1-.5,1.7.2,1.3.5,1.7c.3.4.7.6,1.3.6s.9-.2,1.3-.6c.3-.4.5-1,.5-1.7s-.2-1.3-.5-1.7c-.3-.4-.7-.6-1.3-.6ZM772.7,116.6c.9,0,1.5.3,2,.8.5.6.7,1.3.7,2.3s-.2,1.8-.7,2.3c-.5.6-1.2.8-2,.8s-1.5-.3-2-.8c-.5-.6-.7-1.3-.7-2.3s.2-1.8.7-2.3c.5-.6,1.2-.8,2-.8Z"/>
      <path id="DejaVuSans-6e-6" class="cls-7" d="M782.1,119.1v3.6h-1v-3.6c0-.6-.1-1-.3-1.3-.2-.3-.6-.4-1-.4s-1,.2-1.3.5-.5.8-.5,1.4v3.4h-1v-6h1v.9c.2-.4.5-.6.8-.8.3-.2.7-.3,1.1-.3.7,0,1.2.2,1.6.6s.5,1.1.5,1.9h0Z"/>
      <path id="m59f7652965-2" class="cls-3" d="M686,139.8c.9,0,1.8-.4,2.5-1s1-1.6,1-2.5-.4-1.8-1-2.5-1.6-1-2.5-1-1.8.4-2.5,1-1,1.6-1,2.5.4,1.8,1,2.5,1.6,1,2.5,1Z"/>
      <path id="DejaVuSans-6f-4" class="cls-7" d="M709.1,133.9c-.5,0-.9.2-1.3.6s-.5,1-.5,1.7.2,1.3.5,1.7.7.6,1.3.6.9-.2,1.3-.6c.3-.4.5-1,.5-1.7s-.2-1.3-.5-1.7-.7-.6-1.3-.6ZM709.1,133c.9,0,1.5.3,2,.8.5.6.7,1.3.7,2.3s-.2,1.8-.7,2.3c-.5.6-1.2.8-2,.8s-1.5-.3-2-.8c-.5-.6-.7-1.3-.7-2.3s.2-1.8.7-2.3c.5-.6,1.2-.8,2-.8Z"/>
      <path id="DejaVuSans-72-6" class="cls-7" d="M717,134.1c-.1,0-.2-.1-.4-.1h-.4c-.6,0-1,.2-1.3.5s-.4.9-.4,1.6v3.2h-1v-6h1v.9c.2-.4.5-.6.8-.8s.7-.3,1.2-.3.1,0,.2,0h.3v1h0Z"/>
      <path id="DejaVuSans-69-7" class="cls-7" d="M718.1,133.2h1v6h-1v-6ZM718.1,130.8h1v1.3h-1v-1.3Z"/>
      <path id="DejaVuSans-67-2" class="cls-7" d="M725.1,136.1c0-.7-.1-1.3-.4-1.7s-.7-.6-1.2-.6-.9.2-1.2.6c-.3.4-.4.9-.4,1.7s.1,1.3.4,1.7.7.6,1.2.6.9-.2,1.2-.6c.3-.4.4-.9.4-1.7ZM726.1,138.4c0,1-.2,1.8-.7,2.3s-1.1.7-2.1.7h-1c-.3,0-.6-.1-.9-.2v-1c.3.2.6.3.9.3s.6.1.9.1c.6,0,1.1-.2,1.5-.5.3-.3.5-.8.5-1.5v-.5c-.2.4-.5.6-.8.8s-.7.3-1.1.3c-.7,0-1.3-.3-1.8-.8-.5-.6-.7-1.3-.7-2.2s.2-1.7.7-2.2c.5-.6,1-.8,1.8-.8s.8,0,1.1.3.6.4.8.8v-.9h1v5.3-.3Z"/>
      <path id="DejaVuSans-69-8" class="cls-7" d="M728.1,133.2h1v6h-1v-6ZM728.1,130.8h1v1.3h-1v-1.3Z"/>
      <path id="DejaVuSans-6e-7" class="cls-7" d="M736.2,135.6v3.6h-1v-3.6c0-.6-.1-1-.3-1.3-.2-.3-.6-.4-1-.4s-1,.2-1.3.5-.5.8-.5,1.4v3.4h-1v-6h1v.9c.2-.4.5-.6.8-.8s.7-.3,1.1-.3c.7,0,1.2.2,1.6.6.4.4.5,1.1.5,1.9h0Z"/>
      <path id="DejaVuSans-5f-3" class="cls-7" d="M742.7,141v.8h-5.7v-.8h5.7Z"/>
      <path id="DejaVuSans-66-2" class="cls-7" d="M746.7,130.8v.8h-.9c-.4,0-.6,0-.7.2-.1.1-.2.4-.2.8v.5h1.6v.8h-1.6v5.2h-1v-5.2h-.9v-.8h.9v-.4c0-.7.2-1.2.5-1.5s.8-.5,1.5-.5h.9,0Z"/>
      <path id="DejaVuSans-6f-5" class="cls-7" d="M749.8,133.9c-.5,0-.9.2-1.3.6s-.5,1-.5,1.7.2,1.3.5,1.7.7.6,1.3.6.9-.2,1.3-.6c.3-.4.5-1,.5-1.7s-.2-1.3-.5-1.7-.7-.6-1.3-.6ZM749.8,133c.9,0,1.5.3,2,.8.5.6.7,1.3.7,2.3s-.2,1.8-.7,2.3c-.5.6-1.2.8-2,.8s-1.5-.3-2-.8c-.5-.6-.7-1.3-.7-2.3s.2-1.8.7-2.3c.5-.6,1.2-.8,2-.8Z"/>
      <path id="DejaVuSans-63-5" class="cls-7" d="M758.6,133.4v.9c-.3-.2-.6-.3-.8-.3s-.6-.1-.9-.1c-.6,0-1.1.2-1.5.6-.4.4-.5,1-.5,1.7s.2,1.3.5,1.7c.4.4.9.6,1.5.6s.6,0,.9-.1.6-.2.8-.3v.9c-.3.1-.6.2-.9.3h-.9c-.9,0-1.6-.3-2.2-.9-.5-.6-.8-1.3-.8-2.3s.3-1.8.8-2.3c.5-.6,1.3-.8,2.2-.8s.6,0,.9,0,.6.2.8.3h.1Z"/>
      <path id="DejaVuSans-75-4" class="cls-7" d="M760.2,136.8v-3.6h1v3.6c0,.6.1,1,.3,1.3.2.3.6.4,1,.4s1-.2,1.3-.5.5-.8.5-1.4v-3.4h1v6h-1v-.9c-.2.4-.5.6-.8.8s-.7.3-1.1.3c-.7,0-1.2-.2-1.6-.6-.4-.4-.5-1.1-.5-1.9h0ZM762.7,133h0Z"/>
      <path id="DejaVuSans-73-6" class="cls-7" d="M771.1,133.4v.9c-.3-.1-.6-.3-.9-.3s-.6-.1-.9-.1c-.5,0-.9,0-1.1.2s-.4.4-.4.7,0,.4.3.5.5.3,1.1.4h.3c.7.2,1.2.4,1.5.7s.4.7.4,1.1-.2,1-.7,1.3c-.4.3-1.1.5-1.8.5h-1c-.3,0-.7-.2-1.1-.3v-1c.4.2.7.3,1.1.4.4,0,.7.1,1.1.1s.8,0,1.1-.2c.3-.2.4-.4.4-.7s0-.5-.3-.6c-.2-.1-.6-.3-1.2-.4h-.3c-.6-.2-1.1-.4-1.3-.7-.3-.3-.4-.6-.4-1.1s.2-1,.6-1.3,1-.5,1.7-.5h1c.3,0,.6.1.9.2v.2Z"/>
      <path id="m46d711625e-16" class="cls-6" d="M686,156.3c.9,0,1.8-.4,2.5-1s1-1.6,1-2.5-.4-1.8-1-2.5-1.6-1-2.5-1-1.8.4-2.5,1-1,1.6-1,2.5.4,1.8,1,2.5,1.6,1,2.5,1Z"/>
      <path id="DejaVuSans-70-2" class="cls-7" d="M707.8,154.7v3.2h-1v-8.3h1v.9c.2-.4.5-.6.8-.8s.7-.3,1.1-.3c.7,0,1.3.3,1.8.9.5.6.7,1.3.7,2.3s-.2,1.7-.7,2.3-1,.9-1.8.9-.8,0-1.1-.3c-.3-.2-.6-.4-.8-.8h0ZM711.1,152.6c0-.7-.1-1.3-.4-1.7s-.7-.6-1.2-.6-.9.2-1.2.6-.4,1-.4,1.7.1,1.3.4,1.7.7.6,1.2.6.9-.2,1.2-.6c.3-.4.4-1,.4-1.7Z"/>
      <path id="DejaVuSans-65-17" class="cls-7" d="M718.9,152.4v.5h-4.5c0,.7.2,1.2.6,1.6.4.4.9.5,1.5.5s.7,0,1.1-.1.7-.2,1.1-.4v.9c-.4.2-.7.3-1.1.3s-.7.1-1.1.1c-1,0-1.7-.3-2.3-.8-.6-.6-.8-1.3-.8-2.3s.3-1.8.8-2.3c.5-.6,1.2-.9,2.2-.9s1.4.3,1.9.8.7,1.2.7,2.1h-.1ZM718,152.1c0-.5-.2-1-.5-1.3s-.7-.5-1.2-.5-1,.2-1.3.5-.5.8-.6,1.3h3.6Z"/>
      <path id="DejaVuSans-74-9" class="cls-7" d="M721.5,147.9v1.7h2v.8h-2v3.3c0,.5,0,.8.2.9s.4.2.8.2h1v.8h-1c-.8,0-1.3-.1-1.6-.4-.3-.3-.4-.8-.4-1.6v-3.3h-.7v-.8h.7v-1.7h1Z"/>
      <path id="DejaVuSans-5f-4" class="cls-7" d="M729.4,157.5v.8h-5.7v-.8h5.7Z"/>
      <path id="DejaVuSans-66-3" class="cls-7" d="M733.4,147.3v.8h-.9c-.4,0-.6,0-.7.2-.1.1-.2.4-.2.8v.5h1.6v.8h-1.6v5.2h-1v-5.2h-.9v-.8h.9v-.4c0-.7.2-1.2.5-1.5s.8-.5,1.5-.5h.9,0Z"/>
      <path id="DejaVuSans-72-7" class="cls-7" d="M737.7,150.6c-.1,0-.2-.1-.4-.1h-.4c-.6,0-1,.2-1.3.5s-.4.9-.4,1.6v3.2h-1v-6h1v.9c.2-.4.5-.6.8-.8s.7-.3,1.2-.3.1,0,.2,0h.3v1h0Z"/>
      <path id="DejaVuSans-69-9" class="cls-7" d="M738.8,149.6h1v6h-1v-6ZM738.8,147.3h1v1.3h-1v-1.3Z"/>
      <path id="DejaVuSans-65-18" class="cls-7" d="M747,152.4v.5h-4.5c0,.7.2,1.2.6,1.6.4.4.9.5,1.5.5s.7,0,1.1-.1.7-.2,1.1-.4v.9c-.4.2-.7.3-1.1.3s-.7.1-1.1.1c-1,0-1.7-.3-2.3-.8-.6-.6-.8-1.3-.8-2.3s.3-1.8.8-2.3c.5-.6,1.2-.9,2.2-.9s1.4.3,1.9.8.7,1.2.7,2.1h-.1ZM746,152.1c0-.5-.2-1-.5-1.3s-.7-.5-1.2-.5-1,.2-1.3.5-.5.8-.6,1.3h3.6Z"/>
      <path id="DejaVuSans-6e-8" class="cls-7" d="M753.6,152v3.6h-1v-3.6c0-.6-.1-1-.3-1.3-.2-.3-.6-.4-1-.4s-1,.2-1.3.5-.5.8-.5,1.4v3.4h-1v-6h1v.9c.2-.4.5-.6.8-.8s.7-.3,1.1-.3c.7,0,1.2.2,1.6.6.4.4.5,1.1.5,1.9h0Z"/>
      <path id="DejaVuSans-64-4" class="cls-7" d="M759.5,150.5v-3.3h1v8.4h-1v-.9c-.2.4-.5.6-.8.8s-.7.3-1.1.3c-.7,0-1.3-.3-1.8-.9-.5-.6-.7-1.3-.7-2.3s.2-1.7.7-2.3,1-.9,1.8-.9.8,0,1.1.3c.3.2.6.4.8.8h0ZM756.2,152.6c0,.7.1,1.3.4,1.7s.7.6,1.2.6.9-.2,1.2-.6c.3-.4.5-1,.5-1.7s-.2-1.3-.5-1.7-.7-.6-1.2-.6-.9.2-1.2.6-.4,1-.4,1.7Z"/>
      <path id="DejaVuSans-6c-8" class="cls-7" d="M762.5,147.3h1v8.4h-1v-8.4Z"/>
      <path id="DejaVuSans-79-5" class="cls-7" d="M768.1,156.2c-.3.7-.6,1.2-.8,1.4-.3.2-.6.3-1.1.3h-.8v-.8h.6c.3,0,.5,0,.6-.2.2-.1.3-.4.5-.9l.2-.5-2.4-5.9h1l1.9,4.7,1.9-4.7h1l-2.6,6.6h0Z"/>
    </g>
  </g>
</svg>