<?xml version="1.0" encoding="UTF-8"?>
<svg xmlns="http://www.w3.org/2000/svg" version="1.1" viewBox="0 0 576 576">
  <defs>
    <style>
      .cls-1, .cls-2 {
        fill: none;
      }

      .cls-3 {
        opacity: .3;
      }

      .cls-3, .cls-4 {
        isolation: isolate;
      }

      .cls-5 {
        fill: #e78ac3;
      }

      .cls-5, .cls-6, .cls-7, .cls-8, .cls-9, .cls-10, .cls-11, .cls-12 {
        stroke: #fff;
      }

      .cls-5, .cls-7, .cls-8, .cls-13, .cls-9, .cls-10, .cls-11, .cls-14, .cls-12 {
        stroke-linejoin: round;
      }

      .cls-5, .cls-7, .cls-8, .cls-9, .cls-11, .cls-12 {
        fill-opacity: .9;
        stroke-opacity: .9;
        stroke-width: .6px;
      }

      .cls-4 {
        font-family: ArialMT, Arial;
        font-size: 12px;
      }

      .cls-6, .cls-10 {
        stroke-width: .2px;
      }

      .cls-6, .cls-2 {
        stroke-miterlimit: 10;
      }

      .cls-7 {
        fill: #8da0cb;
      }

      .cls-8 {
        fill: #ffd92f;
      }

      .cls-13 {
        opacity: .2;
      }

      .cls-13, .cls-2 {
        stroke: #000;
        stroke-width: .8px;
      }

      .cls-13, .cls-14 {
        fill-opacity: .4;
        stroke-opacity: .4;
      }

      .cls-15 {
        fill: #262626;
      }

      .cls-9 {
        fill: #b3b3b3;
      }

      .cls-11 {
        fill: #fc8d62;
      }

      .cls-14 {
        fill: #f7f7f7;
        stroke: #ccc;
        stroke-width: .5px;
      }

      .cls-12 {
        fill: #66c2a5;
      }
    </style>
  </defs>
  <!-- Generator: Adobe Illustrator 28.7.7, SVG Export Plug-In . SVG Version: 1.2.0 Build 194)  -->
  <g>
    <g id="Layer_1">
      <path class="cls-13" d="M41.2,323.8l-.9-3.8-.6-2.8-1.4-2.1-1.5-1.3-3.4-1.8-.2-.8-.4-2.7-.2-4.1-.5-3.9-.8-2.9-.4-2.7-.2-3.5.3-3.5,1.4-2.1,1.2-1.8v-5.9l1.6-1.7h2.7c0-.1,3-.7,3-.7l2.5-2.2,1-3.6-.5-3.5-1.2-2.3-.9-1.6-.7-1.4-1.2-1.6-1.8-1.7-1.1-1.9.6-6.8.2-.6.7-1.7,1.1-1.6,1.1-.4h.9l.9-.3,1.3-.7,2-1.1,1.9-1.1.9-.7.6-.4,1.3-.8,2.3-2.1,2.3-2.9,1.9-2.3,1.8-6.3-.3-.4-.6-1.6.2-2.8,1.4-2.8,1.4-2.6.9-2.8.5-2.2v-1.6c0,0-.3-1.9-.3-1.9l.2-2.1.3-1.8v-5.7l.5-.4,1.3-1.5.9-2.4v-2.8c0,0,.8-2.5.8-2.5l1.6-1.3,1.7-.8.7-1.5-.5-1.9-.8-2-.3-2.6.2-2.9.2-2.1-.3-2-.3-3.1-.2-3.2-.7-2.2-1.5-1.8-1.6-1.9-1.7-1.9-2.1-1.5-1.8-1-1-1-.3-1.3.3-1.5.5-1.4.5-1.2,1-1.1,1.7-.5,1.7-.8,1.4-1.9,1.8-1.5,2.3-1.3,1.9-2.3.8-2.4v-1.2l-.4-1.1v-2.4l.6-3.1.8-2.4.9-1.8,2-1.8,2.3-1.5.7,1.1.7.3,1.1,1.2.2-.3h.7l.9.6h.7l.5.3v.5c0,0-.3.6-.3.6l.6.5.2-.3.5.3,2.8.3.9,1.5h.6v.8l-.6.4-.3.8,1.4,1.5-.2,1.2-.2.3.3.8h.5l.2-.3h.8c0,.1.2.8.2.8l-.2.6.3.4h1.4l2.3,3.4.9.3.9,1.2,1.1.6,1,1.1-.4.8-1.8.3v.3l.8.4h-.3c0,.1-.5.4-.5.4v.3h.7l.5-.3.2-.9,1.2.9h.7l.2-.3,1.1-.3.5.3.8,2.3,1,1.1,1.8.6.9,1.5h.4l.3.3h.7l.5.3.2.6,1.1.3.9,2.1.9.3.5.6,2.3,1.5,1.6.3.5.6h.7l.9.9h.5l1.4.9,1.8.6.7.6,1.1.3,1.8,1.2,3.7,2.2.2.3,1.4.3,1.6,1.2h.5l.2.3,1.2.3.4.6.9.3.4.6h.5l.7.6,1.8.6.9.9,1.1.3,2.5,1.5,1.1.3.7.6h.5l1.4,1.2,1.1.3.7.9h.5l1.4.9,1.8,1.2,1.8.3,1.8,1.2,1.8.6.2.3h.7l1.1.9,1.4.3.2.3.9.3.7.6,1.1.3.2.3h.5l.2.3,1.4.3,2.3,1.2h.5l1.2.9h.4l1.6,1.2h.5l.9.6.2.2.7.7h.5l.5.6h.4l.7.6,1.1.3.7.6h.7l.2.3,1.1.3,2.3,1.5h.5l2.3,1.2h.7l.2.3,2.5.6.9.6,1.6.3,1.8,1.2,1.8,1.5,1.8.9,3.7,2.4.4.6h.7l.9.9h.7l.9.6.7.6,2.5.9.4.6,1.4.3.3.5-.2.6.5.5.2-.3h1.1l.2.3h.4l.5.6,2.7.6.2-.3h1.6l.5-.3.4.6h.7l.2.3h.7l.9.9h.5l.9.6h1.4l.4-.3.7-1.8,1.1.6.8.5-.2,1.5.3.5,1.1.6h.4l.5.6h.5l.2.3h.5l.7.6h.7l.9.6h.7l.2.3.9.6h.5l2.3,1.5.9.6h.7l1.6,1.2h.5l3.2,2.1h.7l.9.6h.5l.4.6h.5l.7.6,2.1,1.2h.5l.4.6h.7l.7.6h.5l1.1.9,1.1.3.2.3h.5l.4.4.3.2,1.1.3.2.3h.9l.2.3h.5l1.4.9,1.8.3.2.3,2,.3,1.4.9,1.4.3,2.3,1.2h.7l.9.6h.5l.2.3h.7l.5.6,1.6.3.9.6h.7l.2.3,3.7,1.2.2.3,2.5.9.2.3h.7l.2.3,2.3.3.9.6h1.1l2.5,1.5h.5l.2.3h.9l.9.6h.9l.2.3h.7l.9.6h1.4l.2.3,1.6.3.7.6h.9l.2.3,1.8.3.2.3h.9l.2.3h3.9l.2.3,1.8.3.9.6h.9l.2.3h.9l.5.3,2.3.3.2.3h5l.2-.3h.7l.9-1.5.6-.4-.2-.6v-1.4h.8l.7.9,1.4-.3.2-.6.5-.3.3.2v.8h.8l.2.3.9-.3.9.6.4.9h.7l.2-.3h1.6v1.2l.8-.8v-.5c.1,0,1-.3,1-.3v1.7c-.1,0,.3.2.3.2l.7-.6h.5l.2,1.2,1.1-.3.6.4v.5c.1,0,.6-.3.6-.3h.2l.8,1.1v.7c.1,0,.3-.3.3-.3h.7l.2.3h.5l.4.6h.7v.6l1,.2-.4.6.7.3v2.4l-.2.6-.7.6v.6l-.4.6v1.8l1,.8v.4c.1,0-.4.3-.4.3l-.2,1.2-.6.2-.3.5-.3,1.1h-.7l-.2-.3-.7.6-1.4.9-2,2.9-1.9,2.9h-.5l-.2.6-.6.4-.2.6-.6,2.3-.7.3-.7.9h-1.1l-.2.3h-.5l-.7.6-.9,1.5h-.5l-.7.6h-.4l-.5.6-1.8,1.2h-.5l-.3.5.3,1.1h.5l1.1,1.5h.2l.2.3h.9l.5.6.7.3.4,1.1.9.9v.3l.2.3-.3.4-.2-.3h-.4c0,.1.3.6.3.6l1.1.6v.5c.1,0,2,2.3,2,2.3l.6.5.2,1.2-.5,1.2-.8,1.1h-.2l-.3.7-.8.8h-.5l-.7-.6-.4.2.9.9v.9l-.5.9v.6l-.4.6v.6l-.5.9v1.8l.7,1.5v1.9l-.2.2h0v.7c-.1,0-.3.7-.3.7h-.7c0,.1-.7.7-.7.7l-1.4.3-.3.5.5,1.8v1.8l-.3.5h-.7v.5c-.1,0-1.2,1.5-1.2,1.5l-.9,3.3v.6l-.6.8h-.9l-.7.6-1.4.3-1.8,1.5h-1.8l-.2.3h-.7l-.2.3h-.5l-1.1.3-.8,1.4-1.7,2.3h-.2l-1.6,1.8-1.2.6h0l-1.2-.3-.5-.4h-.5l-.8-1.1.2-.9-.3-.7-1.1-.3-.2-.6-.5-.3-1.8-.2h-.5v.7c-.1,0,.5.5.5.5l.2.6,1.1.6,1.4,1.2v.4c.1,0,1.4,1.4,1.4,1.4l1.4.3.2.3h1.2l.2.3.2-.3h2.3l.4.5v2.7l-.2.6-1,1.5-.2.5h-.5l-.2.3h-1.4l-.2.3h-3l-.2-.3h-1.6l-.2-.3h-.9l-.2.3h-3.2l-.2.3h-.7l-.2.3-.9.3v.5c-.1,0-.6.3-.6.3v.6l-1.1,1.4-.2.2-1.1.9h-.7l-.2.3h-2l-.6.8v.6l-.6,1.1h-1.1l-.9.6h-1.6v-.2c-.1,0-.2-.2-.2-.2h-1.1l-1.4,1.2h-.4l-.5.6h-.5l-.5.6-.9.3-.9.9h-.9l-1.1-.9h-.9l-.2-.3-.4.3h-1.6l-.2.3h-1.1l-.5-.9v2l-.8,2.4-.4.3v.6l-.8,1.1-.4-.3h-.7l-.5.9-.5.3-1.1-.6h-1.1l-.5-.3v.6h-.9l-.2.3-.2-.3h-.7l-.2-.3-1.4-.3-.5-.6-1.8-1.2-1.4-.9-.2-.6-1.4-1.2h-.5l-.2-.3h-.5l-.7-.9-1.1-.3-1-1.7v-.9h0l.2-.3h0l-.6-.2h-1.9c0,.1.8.6.8.6h.7l.4.5.2.3v.5c-.1,0-.6-.1-.6-.1l-.7-.2-.2-.3h-.5l-.2-.3h-1.2l-.2-.3h-1.2l-.2-.3-.2.3h-1.2l-1.8,1.2-.7,1.2h-3.9l-.2.3h-2.8l-.2-.3h-3.6l-.2-.3h-.9l-.2.3h-.7l-.2.3-1.6.3-.7.6h-1.4l-.2.3h-.7l-.2.3h-.9l-.7.9-.9.6h-1.1l-.2-.3h-2.5l-.2.3h-2.3l-.2.3h-3.2l-.2.3h-.5l-.5-.3-.2.3h-.9l-.2.3h-1.6l-1.8-.9-.4-.6-2.1-1.2-1-1.4-.2-.6.5-.9.5-1.5v-1.5l-.7-1.8.2-.6v-1.2l.2-.3v-2.4h0l-.2-.3.2-2.7-.8-1.4-.9-.6-.2-.3h-1.1l-.7-.6h-.7l-.2-.3h-.7l-1-.8.2-1.5,1-.5.8-.8v-2.4l.5-.6v-1.2l.4-.6v-.4c.1,0,.5-.2.5-.2v-.9l-.4-.2-.2-.6-.9-.3-.7-.6h-.5l-1-1.1-.2-2.7-.7-1.8-.4-.3-.8-1.4-.9-.6h-.9l-.5-.3-.6-.8v-1.5l-.3-.4-.7,1.2-.4-.2v-.5h-2.8l-.2-.3h-.4l-.2.3-.9.6v.7c-.1,0,.7.8.7.8h.7l1.1.6.3,1.4.5.6v2.3l.3-.9h.7l.2-.6.7.6h.7l.4-.3.6,2.3.3.8h.8c0,.1-.3.6-.3.6h-.7l-.2-.3h-1.8v.3h1.6l.2.3h1.1l.2-.3h.6c0,.1-.5.7-.5.7v1.5l-.7,1.2v1.8l-.7,1.5.2,1.2,1,1.1h.5l.3.4v.5c-.1,0-.7.2-.7.2l.3.4,1.9,1v.5h-1l-.2.3h-.5l-1.4,1.8-2.1,1.5v.5l-.9,2.1-.5.6-.2,1.5-.9,3.6-.3.5-.5.3-.9-1.5h-.7l-.2-.3-1.8-1.2-1.1-.3-.7-.6-1.4-.6-.7-.6h-.4l-1-1.4-1.8-1.6-1.8-.6-.9-.6h-.7l-.2-.3-1.2-.3-1.4-2.1h-.5l-1.8-1.8-.4-.6h-.5l-1.1-.9h-.5l-.9-.6h-.5l-.2-.3-1.8-.6-.7-.6h-.5l-3-1.8h-.7l-.2-.3-1.1-.3-.2-.3h-.7l-1.3-.9h-.7l-.9-.6h-.7l-.9-.6h-.5l-.9-.6h-.7l-.9-.6h-.9l-.2-.3h-2l-.7-.6h-.7l-.2-.3h-2.7l-.2-.3-3.6-.3-.5-.9-1.4-.3-.2-.3h-3l-.2.3h-.7l-.2-.3h-1.1l-.2-.3h-2.3l-.2.3-1.2-.6h-.9l-.9-.6h-1.4l-.3-.3h-2.5l-.2-.3h-.9l-.2-.3h-1.6l-.2-.3-.2.3h-4.6l-.5.3-2.3-1.5-.9-.9-.9-.3-.6-1.4-.6-.8h-.5l-.2-.3h-1.6l-.2-.3h-1.1l-.2.3h-1.6l-.5.3-1.4,2.1h-2.1l-.2-.3h-.9l-.2-.3h-3.4l-.2-.3h-4.8l-.2.3h-1.4l-.2.3h-.5l-.5.6h-.5l-.2.3h-3l-.2.3h-.7l-.9.6h-1.6l-.5.3-1.1.6-1.2,1.2h-.7l-.7-.6h-2l-.2.3h-.9l-.2.3h-1.1l-.2.3h-.7l-.2.3-3.4.3-.2.3h-2l-.9.6h-.7l-.9.6h-.5l-1.4,1.2-.9.3-.9.9h-.5l-1.1.9-.9.3-.5.6h-1.1l-.2.3h-2.3l-1.1.6-.4.6-1.8.6-.4.6h-.7l-.2.3h-.2l-.2.3"/>
      <path class="cls-13" d="M563.2,284.1l-.3,3.4-.4,2.5-.2,2.4v5.6l-.5,2.9-1.4,1.2h-1.9l-1.5.8-.4,2.1.4,2.7-.2,2.9-1.2,2.5-1.2,2.2-.6,2.2-.7,1.8-1.6,1.6-1.8,2-1.9,2-6.2,4.6h-.4c0-.1-1.2-.1-1.2-.1l-1.9.9-1.9.4-6-3.9h0l-.8-.2h-2c0-.1-2.3-.3-2.3-.3l-1.9-.4-2.1-.5-3.8-1.5-.3-.3-1.1-.9-1.8-.5-1.9,1-1.7,1.1h-1.9l-1.8.7-.8,1.9.4,2,1.1,1.2,1,.9.3,1.5-.5,2.5-.6,2.3-.4,1.1-.7.2-1.8.4-2.3,1.7-1.3,2.3-.2,1.9-.7,1.6-1.9,1.4-2.2.9-2.1.2-2.1-.6-1.3-1-1.1-.7-2-.3-1.9-.3-1.1-.8-1.2-1.1-1.8-.8-1.7-.8-.9-1.2-.2-1.5.3-1.3.5-1.6v-2.9l-.4-3.1-.9-2.4-1.5-2.6-1.5-2.2-1.3-.6-2.1.2-3-.5-3.3-1h-2.6l-1.3,1-1.1.8-1.9-.3-2-1.1-1.5-1.4-1.3-.8-2.4,4.9v.3l-.2,1.1-1.5,2.2-1.4,2.8.2,2.4,1.1,1.4,1.1,1.3.5,1.6-.4,1.5-1.2,1.2-1.3,1.2-.9,1-.7.5-.9.8-1.2,1.6-.9,1.5-.5,1.2-.5,1.9-1,2-3.6.6v.2c-.1,0-.5.7-.5.7l-1,.7h-1.7l-1.5.6-.8,2.6-.6,3.4v2.3l1.6,1.6,1.7,1.7.4,1.9-.9,1.4-1.7.6-1.8.2-1.8.3-1.8.7-1.2,1.4-.8,5.5h-1.5c0,.1-1.8.3-1.8.3l-1.6.2-1.6.5-2.1,1.5-1.9,1.9-.9,1.6-.5,1.2-.8,1.3-.8,2v2l.8,1.6.8,1.6v1.2l-.6,1.3-.9,1.9-.9,1.4-1.4-.2-1.7-.3-1.4,1.4-1.8,3.9-.4-.6-.7-.3v-.4c-.1,0-1.4-1.4-1.4-1.4h-.5l-.7-.6h-1.2l-.2-.3h-1.1l-.2.3h-.7l-1.4,1.8h-1.1l-.7-.9h-.7l-.2-.3h-.7l-.2.3h-.7l-.5.3-.4.6-.5-.3-.5.3h-1.8l-.2-.3h-1.4l-.2.3h-.7l-.2.3h-.7l-.2.3-.9.3-.9,2.1-.7.6h-.9v-.4c-.1,0,.3-1.8.3-1.8l-.6-1.1-.4-.2v-1.1c.1,0,2-.3,2-.3l.2.3h.7l.8-1.1v-.9l1.7-.5,1-1.7v-.6l-1-1.4h-.9l-.8-.8.3-.7h1.6l1,1,.5,1.5,1.2,1h.7l.8-.5v-1.2l.9-1.5-1.6-.3.5-1.2v-.3l-.3-.2-.7,1.5-1.4.9-.6-.5.3-.4h.5v-.8c.1,0,.8-.6.8-.6l-.7-.6.3-.5.9-.3.5.6h.5l.3-.5-.2-2.7-.2-.3-.6-1h-.9l-.5.3-.9-.6h-1.6l-.9-.9h-.5l-.2-.3v.7c.1,0-.4.4-.4.4l-.9.3-.2-.3h-.7l-.4-.4.4-.8.9-.3.3-.5-.7-1.2v-.6l-.8-.5-.5-.6h-.7l-.7-.6h-.5l-1.4-1.2-.5-.3h-1.8l-.8.8-.4,1.1-.9-.3v-.3c-.1,0-.3-.8-.3-.8l-1.5-1.7h-1.4l-2.3-1.5-.4-.3-.9.6-.2-.3h-.7l-.9-.6h-.5l-1.6-.9h-.9l-.2.3h-2l-.7-.9-.9-.6-2-2.1-1.1-.3-.5-.6-1.6-.9h-.7l-.2.3h-1.2l-.3-.3-2.1-2.2-.5-.9-.2-1.2-3.4-4.8v-.6l-2.3-3v-.5c-.1,0-.4-.1-.4-.1v-.3l-1.3-1.7h-.5l-.9-.6-.5-.7-.8-1.1h-.7l-.2.3-.7-.9-.7-.3-.2-.3h-.5l-.2.3h-1.4l-.5-.6-.9-.3-1-1-.6-1.1h-1.4l-.2.3h-.4l-.5-.6-.9-.3-2.3-1.8-.7-.6-.3.8v1.2l-.6.4h-.4c0-.1-.2-1.9-.2-1.9l-.7-.6v-.6l.7-.6-.2-.9-.2-.9-.6-.8-1.6.9h-.9l-.2.3h-1.2l-.3-.5v-2.7l-.4-.9.2-.6h.4c0-.1.2-.4.2-.4h.5v-.8h-1c0-.1-.2.2-.2.2h-.5v-2.1c-.1,0-.1-.2-.1-.2l-.8.2-.2.3-.4-.8.5-.9-.5-.6-.2-3-.5-1.2-.5-.9.2-2.1.6-.5h.7l.4-.3,1.2-1.5,1.1-.6,1.2-1.5,1.1-.3,1.4-1.5,1.1-.6.2-.3h.5l.4-.6.9-.3.6-.7v-1.5l.2-.3.2-2.7,1.1-1.5-.2-3,1.7-.7.8-1.1v-.6l.2-1.2-.2-.3.2-1.8-.2-.3v-3.6l.2-.6,1-1.4,1.1-.3.2-.3h2l.4-1.7,1.3-1.1,1.8-.6.6-.7.2-1.5-.2-.6-1.1-1.5v-.6l-1.3-1.7h-.9l-.2-.3h-1.1l-.7-1.2-1.1-.6v-1.4l.4-1.2.7-1.2v-1.5l-1.4-1.5v-.9l.8-1.4.9-.3,1.1-.9h.7l.6-.8v-1.8l-.2-.6.6-.8h.7l.2-.3h1.4l.2-.3h1.4l.2-.3h.9l.2-.3h.9l.9-.9,1-.5v-.6l.5-.6.2-2.1-.5-.6v-.6l.4-.4,2.3-.3.8-.7v-.9l-.7-.3.3-.8h1.2l.2-.3h.5l.9-.9h1.6l.4.3,1.3-1.1-.5-1.2.6-.8.2.3h.5l.2.3h1.8l.7-2.1h1.6l.5.9.5-.6.7.6h.9l.2.3h1.6l.2-.3.2.3h.7l.2.3h2.1v-1.1c.1,0,.4-.5.4-.5l.6.2v.8h.6l.7-.6h1.2l.2-.3h.9l.3-.4v-.6l-.5-.9v-.5h1.3l.2.3h.4l.2-.3h.7l.7.6h.9l.2-.3h2.5l.4.3.4-.3.5-.9.7-.3.4-.6h1.1l.2-.3h.5l.7,1.2h.5l.2.3h1.6l.4.6h.5l.2.3h2.1l.9.9.4.2.3.8h.5l.7.6h2.7l.2.3h2.7l.2.3h.7l.2.3h.9l.5.6h1.8l.2.3h1.4l.2.3h2.7l.7.6h.5l.7.6h1.4l.2.3h2.7l.2-.3h1.6l.7-.6.2.3h.7l.2.3.2-.3,2.1-.3.7-.6.9.9.9.3.7.6h.4l.5.6h2.1l.2.3h.5l.9.6,1.4.3.7.6h.7l.7.6h.9l1.1.6,1.6.3.2.3h.7l.2.3h1.4l.2.3h.9l.2.3h1.2l.2.3h.7l1.1.9h.5l.2.3h.5l.9.6h.7l.2.3h.9l.2.3,1.8.3.2.3,2.3.3.2.3h1.1l.2.3h3l.2.3h.9l.2.3h.5l.5.6h.7l.2.3,2.5.3.7.6,1.8.3.2.3h1.1l.2.3h.7l.2.3h1.1l.2.3h1.4l.2.3h1.1l.6.4v.5h.8l.2.3h1.6l.2-.3,1.4.3h.1c0-.1-.7-.7-.7-.7l.3-.4h.9l.2.3h2.1l.2-.3h.7l.2-.3,1.6-.3.3-.4v-2h1l.2-.3h.5l1.4,1.5.4-.2v-.5h1.5v1.5h.7l.2-.3.2.3h.7l.3.4v.6l.3.4h1.1l.2.3.5-.3h.7l.2-.3h.7v.8l.5.5,1.1.3.9.6h.9l.2.3.2-.3h1.4l.2-.3.4.3h.7l.7.9h5.5l.2-.3h1.6l1.1.6.7,1.2h1.4l.2.3h3l.5.6h1.1l.2.3.2-.3.2.3,1.6-1.5h2.5l.2.3h.7l.2-.3,1.1.3.2.3.5-.3h.9l.2-.3h2.3l1.4.9h.5l.2-.3,1.1.9h.4l.9.6.8.2v.8c-.1,0,.4,0,.4,0l.5-.6.9.6h.5l.2.3h.7l.2.3,1.4.3,1.4,1.2h.4l.9.9h.5l.2.3h.9l.2.3,2.7.3.2.3,2.3.3v.2c0,0-.6.9-.6.9v.2c0,0,1.5-1.2,1.5-1.2h1.6v-.8c0,0,.5-.4.5-.4h.7l.2-.3.2.3h1.1l.5.6h1.1l.2-.3h1.1l.5,1.2.2-.3h.7l.7-.6h.9l.2-.3h1.4l.2-.3.4.3,3-.3.2-.3h.9l.9.6h.9l.2.3.4-.3h.4"/>
      <path id="DejaVuSans-20" class="cls-3" d="M406.5,320.5"/>
      <path id="DejaVuSans-20-2" d="M434.3,319.5"/>
      <path id="DejaVuSans-49" class="cls-15" d="M2.2-133.6h1.4v10.2h-1.4v-10.2Z"/>
      <path id="DejaVuSans-73" class="cls-15" d="M11.2-130.9v1.2c-.4-.2-.7-.3-1.1-.4-.4,0-.8,0-1.2,0-.6,0-1.1,0-1.4.3-.3.2-.5.5-.5.9s.1.5.3.7.7.3,1.3.5h.4c.9.3,1.5.6,1.9.9s.6.8.6,1.5-.3,1.3-.8,1.7c-.6.4-1.3.6-2.3.6s-.8,0-1.3,0c-.4,0-.9-.2-1.4-.4v-1.3c.5.2.9.4,1.4.5s.9.2,1.3.2,1,0,1.4-.3c.3-.2.5-.5.5-.9s-.1-.6-.3-.8-.7-.4-1.5-.5h-.4c-.8-.3-1.3-.5-1.7-.9-.3-.3-.5-.8-.5-1.4s.3-1.3.8-1.7,1.2-.6,2.2-.6.9,0,1.3,0c.4,0,.8.2,1.1.3h-.1Z"/>
      <path id="DejaVuSans-74" class="cls-15" d="M14.8-133.3v2.2h2.6v1h-2.6v4.2c0,.6,0,1,.3,1.2s.5.3,1,.3h1.3v1.1h-1.3c-1,0-1.6-.2-2-.5-.4-.4-.6-1-.6-2v-4.2h-.9v-1h.9v-2.2h1.3Z"/>
      <path id="DejaVuSans-61" class="cls-15" d="M22.6-127.3c-1,0-1.7,0-2.1.3s-.6.6-.6,1.2.1.8.4,1.1c.3.3.7.4,1.2.4s1.3-.2,1.7-.7.6-1.2.6-2v-.3h-1.3.1ZM25.1-127.8v4.4h-1.3v-1.2c-.3.5-.6.8-1.1,1-.4.2-1,.3-1.6.3s-1.4-.2-1.9-.7c-.5-.4-.7-1-.7-1.8s.3-1.5.9-1.9c.6-.4,1.4-.7,2.6-.7h1.8c0-.7-.2-1.2-.6-1.5s-.9-.5-1.6-.5-.9,0-1.3.2c-.4,0-.8.3-1.2.5v-1.2c.5-.2.9-.3,1.3-.4.4,0,.9,0,1.3,0,1.1,0,1.9.3,2.5.9.5.6.8,1.4.8,2.6h.1Z"/>
      <path id="DejaVuSans-6e" class="cls-15" d="M34-128v4.6h-1.3v-4.6c0-.7-.1-1.3-.4-1.6-.3-.4-.7-.5-1.3-.5s-1.2.2-1.6.6c-.4.4-.6,1-.6,1.8v4.3h-1.3v-7.7h1.3v1.2c.3-.5.7-.8,1.1-1,.4-.2.9-.3,1.4-.3.9,0,1.5.3,2,.8s.7,1.3.7,2.4h0Z"/>
      <path id="DejaVuSans-62" class="cls-15" d="M42-127.2c0-.9-.2-1.7-.6-2.2s-.9-.8-1.6-.8-1.2.3-1.6.8-.6,1.3-.6,2.2.2,1.7.6,2.2c.4.5.9.8,1.6.8s1.2-.3,1.6-.8c.4-.5.6-1.3.6-2.2ZM37.7-129.9c.3-.5.6-.8,1-1s.9-.3,1.4-.3c.9,0,1.7.4,2.3,1.1.6.7.9,1.7.9,2.9s-.3,2.2-.9,2.9c-.6.7-1.3,1.1-2.3,1.1s-1,0-1.4-.3-.7-.6-1-1v1.1h-1.3v-10.6h1.3v4.1Z"/>
      <path id="DejaVuSans-75" class="cls-15" d="M45.3-126.4v-4.6h1.3v4.6c0,.7.1,1.3.4,1.6.3.4.7.5,1.3.5s1.2-.2,1.6-.6c.4-.4.6-1,.6-1.8v-4.3h1.3v7.7h-1.3v-1.2c-.3.5-.7.8-1.1,1-.4.2-.9.3-1.4.3-.9,0-1.5-.3-2-.8s-.7-1.3-.7-2.4h0ZM48.4-131.3h0Z"/>
      <path id="DejaVuSans-6c" class="cls-15" d="M54.3-134.1h1.3v10.6h-1.3v-10.6Z"/>
      <path id="DejaVuSans-20-3" class="cls-15" d="M56.9-123.4"/>
      <path id="DejaVuSans-2013" class="cls-15" d="M62-127.7h5.6v1h-5.6v-1Z"/>
      <path id="DejaVuSans-20-4" class="cls-15" d="M68.3-123.4"/>
      <path id="DejaVuSans-49-2" class="cls-15" d="M74.1-133.6h1.4v10.2h-1.4v-10.2Z"/>
      <path id="DejaVuSans-6e-2" class="cls-15" d="M84.6-128v4.6h-1.3v-4.6c0-.7-.1-1.3-.4-1.6-.3-.4-.7-.5-1.3-.5s-1.2.2-1.6.6c-.4.4-.6,1-.6,1.8v4.3h-1.3v-7.7h1.3v1.2c.3-.5.7-.8,1.1-1,.4-.2.9-.3,1.4-.3.9,0,1.5.3,2,.8s.7,1.3.7,2.4h0Z"/>
      <path id="DejaVuSans-73-2" class="cls-15" d="M92-130.9v1.2c-.4-.2-.7-.3-1.1-.4-.4,0-.8,0-1.2,0-.6,0-1.1,0-1.4.3-.3.2-.5.5-.5.9s.1.5.3.7.7.3,1.3.5h.4c.9.3,1.5.6,1.9.9s.6.8.6,1.5-.3,1.3-.8,1.7c-.6.4-1.3.6-2.3.6s-.8,0-1.3,0c-.4,0-.9-.2-1.4-.4v-1.3c.5.2.9.4,1.4.5s.9.2,1.3.2,1,0,1.4-.3c.3-.2.5-.5.5-.9s-.1-.6-.3-.8-.7-.4-1.5-.5h-.4c-.8-.3-1.3-.5-1.7-.9-.3-.3-.5-.8-.5-1.4s.3-1.3.8-1.7,1.2-.6,2.2-.6.9,0,1.3,0c.4,0,.8.2,1.1.3h-.1Z"/>
      <path id="DejaVuSans-74-2" class="cls-15" d="M95.6-133.3v2.2h2.6v1h-2.6v4.2c0,.6,0,1,.3,1.2s.5.3,1,.3h1.3v1.1h-1.3c-1,0-1.6-.2-2-.5-.4-.4-.6-1-.6-2v-4.2h-.9v-1h.9v-2.2h1.3Z"/>
      <path id="DejaVuSans-61-2" class="cls-15" d="M103.3-127.3c-1,0-1.7,0-2.1.3s-.6.6-.6,1.2.1.8.4,1.1c.3.3.7.4,1.2.4s1.3-.2,1.7-.7.6-1.2.6-2v-.3h-1.3.1ZM105.8-127.8v4.4h-1.3v-1.2c-.3.5-.6.8-1.1,1-.4.2-1,.3-1.6.3s-1.4-.2-1.9-.7c-.5-.4-.7-1-.7-1.8s.3-1.5.9-1.9c.6-.4,1.4-.7,2.6-.7h1.8c0-.7-.2-1.2-.6-1.5s-.9-.5-1.6-.5-.9,0-1.3.2c-.4,0-.8.3-1.2.5v-1.2c.5-.2.9-.3,1.3-.4.4,0,.9,0,1.3,0,1.1,0,1.9.3,2.5.9.5.6.8,1.4.8,2.6h.1Z"/>
      <path id="DejaVuSans-67" class="cls-15" d="M113.5-127.3c0-.9-.2-1.6-.6-2.1s-.9-.8-1.6-.8-1.2.3-1.6.8-.6,1.2-.6,2.1.2,1.6.6,2.1.9.8,1.6.8,1.2-.3,1.6-.8.6-1.2.6-2.1ZM114.7-124.4c0,1.3-.3,2.3-.9,2.9-.6.6-1.5,1-2.7,1h-1.3c-.4,0-.8-.2-1.1-.3v-1.2c.4.2.7.3,1.1.4.4,0,.7,0,1.1,0,.8,0,1.4-.2,1.9-.6.4-.4.6-1.1.6-2v-.6c-.3.5-.6.8-1,1s-.9.3-1.5.3c-.9,0-1.7-.4-2.3-1.1-.6-.7-.9-1.7-.9-2.8s.3-2.1.9-2.8c.6-.7,1.3-1.1,2.3-1.1s1.1,0,1.5.3.7.6,1,1v-1.2h1.3s0,6.7,0,6.7Z"/>
      <path id="DejaVuSans-72" class="cls-15" d="M121.8-129.9c-.1,0-.3,0-.5-.2h-.5c-.7,0-1.3.2-1.6.7s-.6,1.1-.6,2v4h-1.3v-7.7h1.3v1.2c.3-.5.6-.8,1-1s.9-.3,1.5-.3.2,0,.3,0h.3v1.3h.1Z"/>
      <path id="DejaVuSans-61-3" class="cls-15" d="M126.6-127.3c-1,0-1.7,0-2.1.3s-.6.6-.6,1.2.1.8.4,1.1.7.4,1.2.4,1.3-.2,1.7-.7.6-1.2.6-2v-.3h-1.3,0ZM129.1-127.8v4.4h-1.3v-1.2c-.3.5-.6.8-1.1,1-.4.2-1,.3-1.6.3s-1.4-.2-1.9-.7c-.5-.4-.7-1-.7-1.8s.3-1.5.9-1.9,1.4-.7,2.6-.7h1.8c0-.7-.2-1.2-.6-1.5s-.9-.5-1.6-.5-.9,0-1.3.2c-.4,0-.8.3-1.2.5v-1.2c.5-.2.9-.3,1.3-.4.4,0,.9,0,1.3,0,1.1,0,1.9.3,2.5.9.5.6.8,1.4.8,2.6h.1Z"/>
      <path id="DejaVuSans-6d" class="cls-15" d="M137.6-129.6c.3-.6.7-1,1.1-1.3s1-.4,1.5-.4,1.4.3,1.8.8c.4.6.6,1.4.6,2.4v4.6h-1.3v-4.6c0-.7-.1-1.3-.4-1.6-.3-.4-.7-.5-1.2-.5s-1.2.2-1.5.6c-.4.4-.6,1-.6,1.8v4.3h-1.3v-4.6c0-.7-.1-1.3-.4-1.6s-.7-.5-1.2-.5-1.2.2-1.5.7c-.4.4-.6,1-.6,1.8v4.3h-1.3v-7.7h1.3v1.2c.3-.5.6-.8,1-1s.9-.3,1.4-.3,1,0,1.4.4c.4.3.7.7.9,1.2h.3Z"/>
      <path id="DejaVuSans-20-5" class="cls-15" d="M144-123.4"/>
      <path id="DejaVuSans-43" class="cls-15" d="M157.4-132.8v1.5c-.5-.4-1-.8-1.5-1s-1.1-.3-1.7-.3c-1.2,0-2.1.4-2.7,1.1s-.9,1.7-.9,3.1.3,2.4.9,3.1,1.5,1.1,2.7,1.1,1.2,0,1.7-.3,1-.5,1.5-1v1.4c-.5.3-1,.6-1.5.7-.5.2-1.1.2-1.7.2-1.5,0-2.8-.5-3.7-1.4-.9-.9-1.3-2.2-1.3-3.9s.4-2.9,1.3-3.9c.9-.9,2.1-1.4,3.7-1.4s1.2,0,1.7.2,1,.4,1.5.7h0Z"/>
      <path id="DejaVuSans-61-4" class="cls-15" d="M163-127.3c-1,0-1.7,0-2.1.3s-.6.6-.6,1.2.1.8.4,1.1.7.4,1.2.4,1.3-.2,1.7-.7.6-1.2.6-2v-.3h-1.3,0ZM165.5-127.8v4.4h-1.3v-1.2c-.3.5-.6.8-1.1,1-.4.2-1,.3-1.6.3s-1.4-.2-1.9-.7c-.5-.4-.7-1-.7-1.8s.3-1.5.9-1.9,1.4-.7,2.6-.7h1.8c0-.7-.2-1.2-.6-1.5s-.9-.5-1.6-.5-.9,0-1.3.2c-.4,0-.8.3-1.2.5v-1.2c.5-.2.9-.3,1.3-.4.4,0,.9,0,1.3,0,1.1,0,1.9.3,2.5.9.5.6.8,1.4.8,2.6h.1Z"/>
      <path id="DejaVuSans-66" class="cls-15" d="M172-134.1v1h-1.2c-.5,0-.8,0-.9.3-.2.2-.3.5-.3,1v.7h2.1v1h-2.1v6.7h-1.3v-6.7h-1.2v-1h1.2v-.5c0-.9.2-1.5.6-1.9s1-.6,1.9-.6h1.2,0Z"/>
      <path id="DejaVuSans-e9" class="cls-15" d="M179.6-127.6v.6h-5.8c0,.9.3,1.5.8,2s1.1.7,2,.7,1,0,1.4-.2.9-.3,1.4-.5v1.2c-.5.2-.9.3-1.4.4s-1,.2-1.4.2c-1.2,0-2.2-.4-2.9-1.1-.7-.7-1.1-1.7-1.1-2.9s.3-2.2,1-3c.7-.7,1.6-1.1,2.7-1.1s1.8.3,2.4,1,.9,1.6.9,2.7ZM178.3-127.9c0-.7-.2-1.2-.6-1.6-.4-.4-.9-.6-1.5-.6s-1.3.2-1.7.6-.7,1-.7,1.7h4.5ZM177.1-134.6h1.4l-2.2,2.6h-1l1.9-2.6h0Z"/>
      <path id="DejaVuSans-73-3" class="cls-15" d="M186.5-130.9v1.2c-.4-.2-.7-.3-1.1-.4-.4,0-.8,0-1.2,0-.6,0-1.1,0-1.4.3-.3.2-.5.5-.5.9s.1.5.3.7.7.3,1.3.5h.4c.9.3,1.5.6,1.9.9s.6.8.6,1.5-.3,1.3-.8,1.7c-.6.4-1.3.6-2.3.6s-.8,0-1.3,0c-.4,0-.9-.2-1.4-.4v-1.3c.5.2.9.4,1.4.5s.9.2,1.3.2,1,0,1.4-.3c.3-.2.5-.5.5-.9s-.1-.6-.3-.8c-.2-.2-.7-.4-1.5-.5h-.4c-.8-.3-1.3-.5-1.7-.9-.3-.3-.5-.8-.5-1.4s.3-1.3.8-1.7,1.2-.6,2.2-.6.9,0,1.3,0c.4,0,.8.2,1.1.3h0Z"/>
      <path id="DejaVuSans-20-6" class="cls-15" d="M187.6-123.4"/>
      <path id="DejaVuSans-62-2" class="cls-15" d="M198.9-127.2c0-.9-.2-1.7-.6-2.2s-.9-.8-1.6-.8-1.2.3-1.6.8-.6,1.3-.6,2.2.2,1.7.6,2.2.9.8,1.6.8,1.2-.3,1.6-.8.6-1.3.6-2.2ZM194.6-129.9c.3-.5.6-.8,1-1s.9-.3,1.4-.3c.9,0,1.7.4,2.3,1.1.6.7.9,1.7.9,2.9s-.3,2.2-.9,2.9-1.3,1.1-2.3,1.1-1,0-1.4-.3-.7-.6-1-1v1.1h-1.3v-10.6h1.3v4.1Z"/>
      <path id="DejaVuSans-79" class="cls-15" d="M205.5-122.7c-.4.9-.7,1.5-1,1.8s-.8.4-1.4.4h-1v-1.1h.7c.3,0,.6,0,.8-.2.2-.2.4-.6.6-1.2l.2-.6-3.1-7.5h1.3l2.4,6,2.4-6h1.3l-3.4,8.4h.2Z"/>
      <path id="DejaVuSans-20-7" class="cls-15" d="M209.2-123.4"/>
      <path id="DejaVuSans-54" class="cls-15" d="M213.6-133.6h8.6v1.2h-3.6v9h-1.4v-9h-3.6v-1.2Z"/>
      <path id="DejaVuSans-68" class="cls-15" d="M229.9-128v4.6h-1.3v-4.6c0-.7-.1-1.3-.4-1.6-.3-.4-.7-.5-1.3-.5s-1.2.2-1.6.6c-.4.4-.6,1-.6,1.8v4.3h-1.3v-10.6h1.3v4.2c.3-.5.7-.8,1.1-1s.9-.3,1.4-.3c.9,0,1.5.3,2,.8s.7,1.3.7,2.4h0Z"/>
      <path id="DejaVuSans-65" class="cls-15" d="M239-127.6v.6h-5.8c0,.9.3,1.5.8,2s1.1.7,2,.7,1,0,1.4-.2.9-.3,1.4-.5v1.2c-.5.2-.9.3-1.4.4s-1,.2-1.4.2c-1.2,0-2.2-.4-2.9-1.1-.7-.7-1.1-1.7-1.1-2.9s.3-2.2,1-3c.7-.7,1.6-1.1,2.7-1.1s1.8.3,2.4,1,.9,1.6.9,2.7ZM237.7-127.9c0-.7-.2-1.2-.6-1.6-.4-.4-.9-.6-1.5-.6s-1.3.2-1.7.6-.7,1-.7,1.7h4.5Z"/>
      <path id="DejaVuSans-6d-2" class="cls-15" d="M247-129.6c.3-.6.7-1,1.1-1.3s1-.4,1.5-.4,1.4.3,1.8.8c.4.6.6,1.4.6,2.4v4.6h-1.3v-4.6c0-.7-.1-1.3-.4-1.6-.3-.4-.7-.5-1.2-.5s-1.2.2-1.5.6c-.4.4-.6,1-.6,1.8v4.3h-1.3v-4.6c0-.7-.1-1.3-.4-1.6s-.7-.5-1.2-.5-1.2.2-1.5.7c-.4.4-.6,1-.6,1.8v4.3h-1.3v-7.7h1.3v1.2c.3-.5.6-.8,1-1s.9-.3,1.4-.3,1,0,1.4.4c.4.3.7.7.9,1.2h.3Z"/>
      <path id="DejaVuSans-65-2" class="cls-15" d="M261.2-127.6v.6h-5.8c0,.9.3,1.5.8,2s1.1.7,2,.7,1,0,1.4-.2.9-.3,1.4-.5v1.2c-.5.2-.9.3-1.4.4s-1,.2-1.4.2c-1.2,0-2.2-.4-2.9-1.1-.7-.7-1.1-1.7-1.1-2.9s.3-2.2,1-3c.7-.7,1.6-1.1,2.7-1.1s1.8.3,2.4,1,.9,1.6.9,2.7ZM260-127.9c0-.7-.2-1.2-.6-1.6-.4-.4-.9-.6-1.5-.6s-1.3.2-1.7.6-.7,1-.7,1.7h4.5Z"/>
      <rect class="cls-1" x="468.5" y="350.9" width="444.8" height="187.1"/>
      <rect class="cls-1" x="468.5" y="350.9" width="444.8" height="187.1"/>
      <path class="cls-14" d="M344.3,388.4h.2c.1-.1,0-.7.2-.8h0c0-.1.6-.1.6-.1h.1v.3l-.2.6h0v.2h-.1l-.5.5v.8c0,.1-.1.4-.2.6h-.5v-.3c.1-.3,0-.5-.1-.8v-.2h.2c0-.1-.2-.1-.2-.1v-.2"/>
      <rect class="cls-1" x="468.5" y="350.9" width="444.8" height="187.1"/>
      <path id="ma43ee1083a" class="cls-12" d="M256.5,338.1c3.7,0,3.7-5.6,0-5.6s-3.7,5.6,0,5.6Z"/>
      <rect class="cls-1" x="468.5" y="350.9" width="444.8" height="187.1"/>
      <path id="mc8215f0d5a" class="cls-11" d="M306.6,329c3.7,0,3.7-5.6,0-5.6s-3.7,5.6,0,5.6Z"/>
      <path id="mc8215f0d5a-2" class="cls-11" d="M310.2,325.3c3.7,0,3.7-5.6,0-5.6s-3.7,5.6,0,5.6Z"/>
      <path id="mc8215f0d5a-3" class="cls-11" d="M306.4,328.8c3.7,0,3.7-5.6,0-5.6s-3.7,5.6,0,5.6Z"/>
      <rect class="cls-1" x="468.5" y="350.9" width="444.8" height="187.1"/>
      <path id="mb938837942" class="cls-7" d="M307.5,326.5c3.7,0,3.7-5.6,0-5.6s-3.7,5.6,0,5.6Z"/>
      <rect class="cls-1" x="468.5" y="350.9" width="444.8" height="187.1"/>
      <path id="mbc936bc17b" class="cls-5" d="M319.3,342.8c3.7,0,3.7-5.6,0-5.6s-3.7,5.6,0,5.6Z"/>
      <rect class="cls-1" x="468.5" y="350.9" width="444.8" height="187.1"/>
      <path id="m57f7e750e4" class="cls-8" d="M314,322.3c3.7,0,3.7-5.6,0-5.6s-3.7,5.6,0,5.6Z"/>
      <path id="m57f7e750e4-2" class="cls-8" d="M306.3,329.2c3.7,0,3.7-5.6,0-5.6s-3.7,5.6,0,5.6Z"/>
      <path id="m57f7e750e4-3" class="cls-8" d="M288.3,316.9c3.7,0,3.7-5.6,0-5.6s-3.7,5.6,0,5.6Z"/>
      <path id="m57f7e750e4-4" class="cls-8" d="M309.5,324.5c3.7,0,3.7-5.6,0-5.6s-3.7,5.6,0,5.6Z"/>
      <path id="m57f7e750e4-5" class="cls-8" d="M306.2,329.3c3.7,0,3.7-5.6,0-5.6s-3.7,5.6,0,5.6Z"/>
      <path id="m57f7e750e4-6" class="cls-8" d="M305,328.4c3.7,0,3.7-5.6,0-5.6s-3.7,5.6,0,5.6Z"/>
      <path id="m57f7e750e4-7" class="cls-8" d="M320.4,339.6c3.7,0,3.7-5.6,0-5.6s-3.7,5.6,0,5.6Z"/>
      <path id="m57f7e750e4-8" class="cls-8" d="M297.4,326c3.7,0,3.7-5.6,0-5.6s-3.7,5.6,0,5.6Z"/>
      <path id="m57f7e750e4-9" class="cls-8" d="M307.9,324.8c3.7,0,3.7-5.6,0-5.6s-3.7,5.6,0,5.6Z"/>
      <path id="m57f7e750e4-10" class="cls-8" d="M322,308.5c3.7,0,3.7-5.6,0-5.6s-3.7,5.6,0,5.6Z"/>
      <path id="m57f7e750e4-11" class="cls-8" d="M306.3,329c3.7,0,3.7-5.6,0-5.6s-3.7,5.6,0,5.6Z"/>
      <path id="m57f7e750e4-12" class="cls-8" d="M305.3,328.3c3.7,0,3.7-5.6,0-5.6s-3.7,5.6,0,5.6Z"/>
      <path id="m57f7e750e4-13" class="cls-8" d="M301.1,328.8c3.7,0,3.7-5.6,0-5.6s-3.7,5.6,0,5.6Z"/>
      <path id="m57f7e750e4-14" class="cls-8" d="M309.4,322.6c3.7,0,3.7-5.6,0-5.6s-3.7,5.6,0,5.6Z"/>
      <path id="m57f7e750e4-15" class="cls-8" d="M319.5,343.2c3.7,0,3.7-5.6,0-5.6s-3.7,5.6,0,5.6Z"/>
      <path id="m57f7e750e4-16" class="cls-8" d="M305.1,332.2c3.7,0,3.7-5.6,0-5.6s-3.7,5.6,0,5.6Z"/>
      <path id="m57f7e750e4-17" class="cls-8" d="M304.9,327.3c3.7,0,3.7-5.6,0-5.6s-3.7,5.6,0,5.6Z"/>
      <path id="m57f7e750e4-18" class="cls-8" d="M312.6,304.5c3.7,0,3.7-5.6,0-5.6s-3.7,5.6,0,5.6Z"/>
      <path id="m57f7e750e4-19" class="cls-8" d="M282.9,314.7c3.7,0,3.7-5.6,0-5.6s-3.7,5.6,0,5.6Z"/>
      <path id="m57f7e750e4-20" class="cls-8" d="M313.2,322c3.7,0,3.7-5.6,0-5.6s-3.7,5.6,0,5.6Z"/>
      <path id="m57f7e750e4-21" class="cls-8" d="M281.5,273.5c3.7,0,3.7-5.6,0-5.6s-3.7,5.6,0,5.6Z"/>
      <path id="m57f7e750e4-22" class="cls-8" d="M307.2,317.4c3.7,0,3.7-5.6,0-5.6s-3.7,5.6,0,5.6Z"/>
      <path id="m57f7e750e4-23" class="cls-8" d="M332.9,351.1c3.7,0,3.7-5.6,0-5.6s-3.7,5.6,0,5.6Z"/>
      <path id="m57f7e750e4-24" class="cls-8" d="M256.2,299.6c3.7,0,3.7-5.6,0-5.6s-3.7,5.6,0,5.6Z"/>
      <path id="m57f7e750e4-25" class="cls-8" d="M318.7,299.6c3.7,0,3.7-5.6,0-5.6s-3.7,5.6,0,5.6Z"/>
      <path id="m57f7e750e4-26" class="cls-8" d="M310.8,313.3c3.7,0,3.7-5.6,0-5.6s-3.7,5.6,0,5.6Z"/>
      <path id="m57f7e750e4-27" class="cls-8" d="M337,345.2c3.7,0,3.7-5.6,0-5.6s-3.7,5.6,0,5.6Z"/>
      <path id="m57f7e750e4-28" class="cls-8" d="M298.5,331.6c3.7,0,3.7-5.6,0-5.6s-3.7,5.6,0,5.6Z"/>
      <path id="m57f7e750e4-29" class="cls-8" d="M313.2,322c3.7,0,3.7-5.6,0-5.6s-3.7,5.6,0,5.6Z"/>
      <path id="m57f7e750e4-30" class="cls-8" d="M333.8,331.5c3.7,0,3.7-5.6,0-5.6s-3.7,5.6,0,5.6Z"/>
      <path id="m57f7e750e4-31" class="cls-8" d="M319.9,343.5c3.7,0,3.7-5.6,0-5.6s-3.7,5.6,0,5.6Z"/>
      <path id="m57f7e750e4-32" class="cls-8" d="M314.9,315.4c3.7,0,3.7-5.6,0-5.6s-3.7,5.6,0,5.6Z"/>
      <path id="m57f7e750e4-33" class="cls-8" d="M306.2,325.4c3.7,0,3.7-5.6,0-5.6s-3.7,5.6,0,5.6Z"/>
      <path id="m57f7e750e4-34" class="cls-8" d="M304.9,327.4c3.7,0,3.7-5.6,0-5.6s-3.7,5.6,0,5.6Z"/>
      <path id="m57f7e750e4-35" class="cls-8" d="M309.1,326.2c3.7,0,3.7-5.6,0-5.6s-3.7,5.6,0,5.6Z"/>
      <path id="m57f7e750e4-36" class="cls-8" d="M306.6,328.7c3.7,0,3.7-5.6,0-5.6s-3.7,5.6,0,5.6Z"/>
      <path id="m57f7e750e4-37" class="cls-8" d="M305.6,330c3.7,0,3.7-5.6,0-5.6s-3.7,5.6,0,5.6Z"/>
      <path id="m57f7e750e4-38" class="cls-8" d="M311.4,319.3c3.7,0,3.7-5.6,0-5.6s-3.7,5.6,0,5.6Z"/>
      <path id="m57f7e750e4-39" class="cls-8" d="M266.4,340.8c3.7,0,3.7-5.6,0-5.6s-3.7,5.6,0,5.6Z"/>
      <path id="m57f7e750e4-40" class="cls-8" d="M308.2,296.6c3.7,0,3.7-5.6,0-5.6s-3.7,5.6,0,5.6Z"/>
      <path id="m57f7e750e4-41" class="cls-8" d="M319.4,343.4c3.7,0,3.7-5.6,0-5.6s-3.7,5.6,0,5.6Z"/>
      <path id="m57f7e750e4-42" class="cls-8" d="M269.7,340.7c3.7,0,3.7-5.6,0-5.6s-3.7,5.6,0,5.6Z"/>
      <path id="m57f7e750e4-43" class="cls-8" d="M339.5,338.6c3.7,0,3.7-5.6,0-5.6s-3.7,5.6,0,5.6Z"/>
      <path id="m57f7e750e4-44" class="cls-8" d="M319.5,343.2c3.7,0,3.7-5.6,0-5.6s-3.7,5.6,0,5.6Z"/>
      <path id="m57f7e750e4-45" class="cls-8" d="M310.5,318.8c3.7,0,3.7-5.6,0-5.6s-3.7,5.6,0,5.6Z"/>
      <path id="m57f7e750e4-46" class="cls-8" d="M307.2,328.4c3.7,0,3.7-5.6,0-5.6s-3.7,5.6,0,5.6Z"/>
      <path id="m57f7e750e4-47" class="cls-8" d="M338.8,304.2c3.7,0,3.7-5.6,0-5.6s-3.7,5.6,0,5.6Z"/>
      <path id="m57f7e750e4-48" class="cls-8" d="M332.8,351.1c3.7,0,3.7-5.6,0-5.6s-3.7,5.6,0,5.6Z"/>
      <path id="m57f7e750e4-49" class="cls-8" d="M323.7,347.5c3.7,0,3.7-5.6,0-5.6s-3.7,5.6,0,5.6Z"/>
      <path id="m57f7e750e4-50" class="cls-8" d="M307.8,326.9c3.7,0,3.7-5.6,0-5.6s-3.7,5.6,0,5.6Z"/>
      <path id="m57f7e750e4-51" class="cls-8" d="M328.4,277c3.6-.4,3-6-.6-5.6s-3,6,.6,5.6Z"/>
      <path id="m57f7e750e4-52" class="cls-8" d="M333.3,351.4c3.7,0,3.7-5.6,0-5.6s-3.7,5.6,0,5.6Z"/>
      <path id="m57f7e750e4-53" class="cls-8" d="M342.6,339.9c3.7,0,3.7-5.6,0-5.6s-3.7,5.6,0,5.6Z"/>
      <path id="m57f7e750e4-54" class="cls-8" d="M311,323.7c3.7,0,3.7-5.6,0-5.6s-3.7,5.6,0,5.6Z"/>
      <path id="m57f7e750e4-55" class="cls-8" d="M310.9,319.4c3.7,0,3.7-5.6,0-5.6s-3.7,5.6,0,5.6Z"/>
      <path id="m57f7e750e4-56" class="cls-8" d="M308.3,326.3c3.7,0,3.7-5.6,0-5.6s-3.7,5.6,0,5.6Z"/>
      <path id="m57f7e750e4-57" class="cls-8" d="M305,331.9c3.7,0,3.7-5.6,0-5.6s-3.7,5.6,0,5.6Z"/>
      <path id="m57f7e750e4-58" class="cls-8" d="M305,327.4c3.7,0,3.7-5.6,0-5.6s-3.7,5.6,0,5.6Z"/>
      <path id="m57f7e750e4-59" class="cls-8" d="M293.8,324c3.7,0,3.7-5.6,0-5.6s-3.7,5.6,0,5.6Z"/>
      <path id="m57f7e750e4-60" class="cls-8" d="M324.8,307c3.7,0,3.7-5.6,0-5.6s-3.7,5.6,0,5.6Z"/>
      <path id="m57f7e750e4-61" class="cls-8" d="M315.8,313.6c3.7,0,3.7-5.6,0-5.6s-3.7,5.6,0,5.6Z"/>
      <path id="m57f7e750e4-62" class="cls-8" d="M306.8,327.4c3.7,0,3.7-5.6,0-5.6s-3.7,5.6,0,5.6Z"/>
      <path id="m57f7e750e4-63" class="cls-8" d="M307.9,326.4c3.7,0,3.7-5.6,0-5.6s-3.7,5.6,0,5.6Z"/>
      <path id="m57f7e750e4-64" class="cls-8" d="M305.5,327.2c3.7,0,3.7-5.6,0-5.6s-3.7,5.6,0,5.6Z"/>
      <path id="m57f7e750e4-65" class="cls-8" d="M318.9,341.5c3.7,0,3.7-5.6,0-5.6s-3.7,5.6,0,5.6Z"/>
      <path id="m57f7e750e4-66" class="cls-8" d="M317.2,314.3c3.7,0,3.7-5.6,0-5.6s-3.7,5.6,0,5.6Z"/>
      <path id="m57f7e750e4-67" class="cls-8" d="M306.3,326.3c3.7,0,3.7-5.6,0-5.6s-3.7,5.6,0,5.6Z"/>
      <path id="m57f7e750e4-68" class="cls-8" d="M313.7,302.8c3.7,0,3.7-5.6,0-5.6s-3.7,5.6,0,5.6Z"/>
      <path id="m57f7e750e4-69" class="cls-8" d="M318.9,341.8c3.7,0,3.7-5.6,0-5.6s-3.7,5.6,0,5.6Z"/>
      <path id="m57f7e750e4-70" class="cls-8" d="M299,317.3c3.7,0,3.7-5.6,0-5.6s-3.7,5.6,0,5.6Z"/>
      <path id="m57f7e750e4-71" class="cls-8" d="M349.3,306.5c3.7,0,3.7-5.6,0-5.6s-3.7,5.6,0,5.6Z"/>
      <rect class="cls-1" x="468.5" y="350.9" width="444.8" height="187.1"/>
      <path id="mb6c98d2168" class="cls-9" d="M298.8,322.8c3.7,0,3.7-5.6,0-5.6s-3.7,5.6,0,5.6Z"/>
      <path id="mb6c98d2168-2" class="cls-9" d="M315.3,317.1c3.7,0,3.7-5.6,0-5.6s-3.7,5.6,0,5.6Z"/>
      <path id="mb6c98d2168-3" class="cls-9" d="M307.1,328.5c3.7,0,3.7-5.6,0-5.6s-3.7,5.6,0,5.6Z"/>
      <rect class="cls-1" x="468.5" y="350.9" width="444.8" height="187.1"/>
      <path id="ma43ee1083a-2" class="cls-12" d="M308.9,318.2c3.7,0,3.7-5.6,0-5.6s-3.7,5.6,0,5.6Z"/>
      <path id="ma43ee1083a-3" class="cls-12" d="M336.4,349.7c3.7,0,3.7-5.6,0-5.6s-3.7,5.6,0,5.6Z"/>
      <path id="ma43ee1083a-4" class="cls-12" d="M311.2,320c3.7,0,3.7-5.6,0-5.6s-3.7,5.6,0,5.6Z"/>
      <path id="DejaVuSans-20-8" class="cls-3" d="M384.9,321.7"/>
      <path id="m639b37c03b" class="cls-6" d="M306.8,333.8c2.3,0,2.3-3.6,0-3.5-2.3,0-2.3,3.6,0,3.5Z"/>
      <path id="m639b37c03b-2" class="cls-10" d="M307.7,332.7c2.3,0,2.3-3.6,0-3.5-2.3,0-2.3,3.6,0,3.5Z"/>
      <path id="m639b37c03b-3" class="cls-10" d="M305.9,334.9c2.3,0,2.3-3.6,0-3.5-2.3,0-2.3,3.6,0,3.5Z"/>
      <path id="DejaVuSans-50" class="cls-15" d="M507.6-197.7v3.3h1.5c.6,0,1,0,1.3-.4s.5-.7.5-1.2-.2-.9-.5-1.2c-.3-.3-.7-.4-1.3-.4h-1.5ZM506.5-198.7h2.7c1,0,1.7.2,2.2.7.5.4.8,1.1.8,1.9s-.3,1.5-.8,2c-.5.4-1.2.7-2.2.7h-1.5v3.5h-1.2v-8.7h0Z"/>
      <path id="DejaVuSans-72-2" class="cls-15" d="M517.2-195.5c-.1,0-.3,0-.4-.2h-.5c-.6,0-1.1.2-1.4.6s-.5,1-.5,1.7v3.5h-1.1v-6.6h1.1v1c.2-.4.5-.7.9-.9.4-.2.8-.3,1.3-.3s.2,0,.2,0h.3v1.1h.1Z"/>
      <path id="DejaVuSans-69" class="cls-15" d="M518.4-196.5h1.1v6.6h-1.1v-6.6ZM518.4-199.1h1.1v1.4h-1.1v-1.4Z"/>
      <path id="DejaVuSans-6d-3" class="cls-15" d="M526.8-195.3c.3-.5.6-.8,1-1.1s.8-.3,1.3-.3,1.2.2,1.6.7.6,1.2.6,2v4h-1.1v-3.9c0-.6-.1-1.1-.3-1.4-.2-.3-.6-.5-1-.5s-1,.2-1.3.6-.5.9-.5,1.5v3.7h-1.1v-3.9c0-.6-.1-1.1-.3-1.4s-.6-.5-1-.5-1,.2-1.3.6-.5.9-.5,1.5v3.7h-1.1v-6.6h1.1v1c.2-.4.5-.7.9-.9s.8-.3,1.2-.3.9,0,1.2.4c.3.2.6.6.7,1.1h-.1Z"/>
      <path id="DejaVuSans-61-5" class="cls-15" d="M536.4-193.3c-.9,0-1.5,0-1.8.3s-.5.5-.5,1,.1.7.4.9c.3.2.6.3,1,.3s1.1-.2,1.4-.6.5-1,.5-1.7v-.2h-1.1.1ZM538.5-193.7v3.7h-1.1v-1c-.2.4-.6.7-.9.9-.4.2-.8.3-1.3.3s-1.2-.2-1.6-.6-.6-.9-.6-1.5.2-1.3.7-1.7c.5-.4,1.2-.6,2.2-.6h1.5c0-.6-.2-1-.5-1.3s-.8-.4-1.4-.4-.7,0-1.1,0c-.4,0-.7.2-1,.4v-1c.4-.2.8-.3,1.1-.3s.7,0,1.1,0c1,0,1.7.2,2.1.7.5.5.7,1.2.7,2.2v.2Z"/>
      <path id="DejaVuSans-72-3" class="cls-15" d="M544.6-195.5c-.1,0-.3,0-.4-.2h-.5c-.6,0-1.1.2-1.4.6s-.5,1-.5,1.7v3.5h-1.1v-6.6h1.1v1c.2-.4.5-.7.9-.9.4-.2.8-.3,1.3-.3s.2,0,.2,0h.3v1.1h.1Z"/>
      <path id="DejaVuSans-79-2" class="cls-15" d="M548.4-189.3c-.3.8-.6,1.3-.9,1.5s-.7.4-1.2.4h-.9v-.9h.6c.3,0,.5,0,.7-.2.2,0,.3-.5.5-1l.2-.5-2.7-6.5h1.1l2.1,5.1,2.1-5.1h1.1l-2.9,7.2h.2Z"/>
      <path id="DejaVuSans-20-9" class="cls-15" d="M551.7-190"/>
      <path id="DejaVuSans-54-2" class="cls-15" d="M555.4-198.7h7.4v1h-3.1v7.8h-1.2v-7.8h-3.1v-1h0Z"/>
      <path id="DejaVuSans-68-2" class="cls-15" d="M569.4-193.9v4h-1.1v-3.9c0-.6,0-1.1-.4-1.4-.2-.3-.6-.5-1.1-.5s-1,.2-1.4.6c-.3.4-.5.9-.5,1.5v3.7h-1.1v-9.1h1.1v3.6c.3-.4.6-.7.9-.9.3-.2.8-.3,1.2-.3.8,0,1.3.2,1.7.7s.6,1.2.6,2.1h0Z"/>
      <path id="DejaVuSans-65-3" class="cls-15" d="M577.2-193.5v.5h-5c0,.7.3,1.3.7,1.7.4.4,1,.6,1.7.6s.8,0,1.2-.2.8-.3,1.2-.5v1c-.4.2-.8.3-1.2.4s-.8,0-1.2,0c-1,0-1.9-.3-2.5-.9s-.9-1.4-.9-2.5.3-1.9.9-2.6c.6-.6,1.4-.9,2.3-.9s1.6.3,2.1.9.8,1.3.8,2.3h0ZM576.1-193.8c0-.6-.2-1.1-.5-1.4-.3-.4-.7-.5-1.3-.5s-1.1.2-1.4.5-.6.8-.6,1.4h3.8Z"/>
      <path id="DejaVuSans-6d-4" class="cls-15" d="M584-195.3c.3-.5.6-.8,1-1.1s.8-.3,1.3-.3,1.2.2,1.6.7c.4.5.6,1.2.6,2v4h-1.1v-3.9c0-.6,0-1.1-.3-1.4s-.6-.5-1-.5-1,.2-1.3.6-.5.9-.5,1.5v3.7h-1.1v-3.9c0-.6,0-1.1-.3-1.4s-.6-.5-1-.5-1,.2-1.3.6-.5.9-.5,1.5v3.7h-1.1v-6.6h1.1v1c.2-.4.5-.7.9-.9s.8-.3,1.2-.3.9,0,1.2.4c.3.2.6.6.7,1.1h-.1Z"/>
      <path id="DejaVuSans-65-4" class="cls-15" d="M596.2-193.5v.5h-5c0,.7.3,1.3.7,1.7.4.4,1,.6,1.7.6s.8,0,1.2-.2.8-.3,1.2-.5v1c-.4.2-.8.3-1.2.4s-.8,0-1.2,0c-1,0-1.9-.3-2.5-.9s-.9-1.4-.9-2.5.3-1.9.9-2.6c.6-.6,1.4-.9,2.3-.9s1.6.3,2.1.9.8,1.3.8,2.3h0ZM595.1-193.8c0-.6-.2-1.1-.5-1.4-.3-.4-.7-.5-1.3-.5s-1.1.2-1.4.5-.6.8-.6,1.4h3.8Z"/>
      <path id="ma43ee1083a-5" class="cls-12" d="M494.4-173c.9,0,1.8-.4,2.5-1s1-1.6,1-2.5-.4-1.8-1-2.5-1.6-1-2.5-1-1.8.4-2.5,1-1,1.6-1,2.5.4,1.8,1,2.5,1.6,1,2.5,1Z"/>
      <path id="DejaVuSans-63" class="cls-15" d="M519.5-179.4v.9c-.3-.2-.6-.3-.8-.3s-.6,0-.9,0c-.6,0-1.1.2-1.5.6s-.5,1-.5,1.7.2,1.3.5,1.7c.4.4.9.6,1.5.6s.6,0,.9,0,.6-.2.8-.3v.9c-.3,0-.6.2-.9.3h-.9c-.9,0-1.6-.3-2.2-.9-.5-.6-.8-1.3-.8-2.3s.3-1.8.8-2.3c.5-.6,1.3-.8,2.2-.8s.6,0,.9,0,.6.2.8.3h.1Z"/>
      <path id="DejaVuSans-6f" class="cls-15" d="M523.6-178.9c-.5,0-.9.2-1.3.6s-.5,1-.5,1.7.2,1.3.5,1.7c.3.4.7.6,1.3.6s.9-.2,1.3-.6c.3-.4.5-1,.5-1.7s-.2-1.3-.5-1.7c-.3-.4-.7-.6-1.3-.6ZM523.6-179.8c.9,0,1.5.3,2,.8.5.6.7,1.3.7,2.3s-.2,1.8-.7,2.3c-.5.6-1.2.8-2,.8s-1.5-.3-2-.8c-.5-.6-.7-1.3-.7-2.3s.2-1.8.7-2.3c.5-.6,1.2-.8,2-.8Z"/>
      <path id="DejaVuSans-6d-5" class="cls-15" d="M532.7-178.5c.2-.4.5-.8.9-1s.7-.3,1.2-.3,1.1.2,1.5.7c.3.4.5,1.1.5,1.9v3.6h-1v-3.6c0-.6-.1-1-.3-1.3-.2-.3-.5-.4-.9-.4s-.9.2-1.2.5c-.3.3-.4.8-.4,1.4v3.4h-1v-3.6c0-.6-.1-1-.3-1.3s-.5-.4-.9-.4-.9.2-1.2.5c-.3.3-.4.8-.4,1.4v3.4h-1v-6h1v.9c.2-.4.5-.6.8-.8s.7-.3,1.1-.3.8,0,1.1.3c.3.2.5.5.7,1h-.2Z"/>
      <path id="DejaVuSans-6d-6" class="cls-15" d="M543.4-178.5c.2-.4.5-.8.9-1s.7-.3,1.2-.3,1.1.2,1.5.7c.3.4.5,1.1.5,1.9v3.6h-1v-3.6c0-.6-.1-1-.3-1.3-.2-.3-.5-.4-.9-.4s-.9.2-1.2.5c-.3.3-.4.8-.4,1.4v3.4h-1v-3.6c0-.6-.1-1-.3-1.3s-.5-.4-.9-.4-.9.2-1.2.5c-.3.3-.4.8-.4,1.4v3.4h-1v-6h1v.9c.2-.4.5-.6.8-.8s.7-.3,1.1-.3.8,0,1.1.3c.3.2.5.5.7,1h-.2Z"/>
      <path id="DejaVuSans-75-2" class="cls-15" d="M549.3-176v-3.6h1v3.6c0,.6.1,1,.3,1.3.2.3.6.4,1,.4s1-.2,1.3-.5.5-.8.5-1.4v-3.4h1v6h-1v-.9c-.2.4-.5.6-.8.8-.3.2-.7.3-1.1.3-.7,0-1.2-.2-1.6-.6s-.5-1.1-.5-1.9h0ZM551.8-179.8h0Z"/>
      <path id="DejaVuSans-6e-3" class="cls-15" d="M561.4-177.2v3.6h-1v-3.6c0-.6-.1-1-.3-1.3-.2-.3-.6-.4-1-.4s-1,.2-1.3.5-.5.8-.5,1.4v3.4h-1v-6h1v.9c.2-.4.5-.6.8-.8.3-.2.7-.3,1.1-.3.7,0,1.2.2,1.6.6s.5,1.1.5,1.9h0Z"/>
      <path id="DejaVuSans-69-2" class="cls-15" d="M563.4-179.6h1v6h-1v-6ZM563.4-182h1v1.3h-1v-1.3Z"/>
      <path id="DejaVuSans-74-3" class="cls-15" d="M567.4-181.3v1.7h2v.8h-2v3.3c0,.5,0,.8.2.9s.4.2.8.2h1v.8h-1c-.8,0-1.3,0-1.6-.4s-.4-.8-.4-1.6v-3.3h-.7v-.8h.7v-1.7h1Z"/>
      <path id="DejaVuSans-79-3" class="cls-15" d="M573.2-173c-.3.7-.6,1.2-.8,1.4-.3.2-.6.3-1.1.3h-.8v-.8h.6c.3,0,.5,0,.6-.2.2,0,.3-.4.5-.9l.2-.5-2.4-5.9h1l1.9,4.7,1.9-4.7h1l-2.6,6.6h0Z"/>
      <path id="DejaVuSans-5f" class="cls-15" d="M581.8-171.8v.8h-5.7v-.8h5.7Z"/>
      <path id="DejaVuSans-65-5" class="cls-15" d="M587.9-176.9v.5h-4.5c0,.7.2,1.2.6,1.6.4.4.9.5,1.5.5s.7,0,1.1,0,.7-.2,1.1-.4v.9c-.4.2-.7.3-1.1.3s-.7,0-1.1,0c-1,0-1.7-.3-2.3-.8-.6-.6-.8-1.3-.8-2.3s.3-1.8.8-2.3c.5-.6,1.2-.9,2.2-.9s1.4.3,1.9.8.7,1.2.7,2.1h-.1ZM586.9-177.1c0-.5-.2-1-.5-1.3s-.7-.5-1.2-.5-1,.2-1.3.5-.5.8-.6,1.3h3.6Z"/>
      <path id="DejaVuSans-76" class="cls-15" d="M588.8-179.6h1l1.9,5,1.9-5h1l-2.3,6h-1.3l-2.3-6h0Z"/>
      <path id="DejaVuSans-65-6" class="cls-15" d="M601.2-176.9v.5h-4.5c0,.7.2,1.2.6,1.6.4.4.9.5,1.5.5s.7,0,1.1,0,.7-.2,1.1-.4v.9c-.4.2-.7.3-1.1.3s-.7,0-1.1,0c-1,0-1.7-.3-2.3-.8-.6-.6-.8-1.3-.8-2.3s.3-1.8.8-2.3c.5-.6,1.2-.9,2.2-.9s1.4.3,1.9.8.7,1.2.7,2.1h-.1ZM600.2-177.1c0-.5-.2-1-.5-1.3s-.7-.5-1.2-.5-1,.2-1.3.5-.5.8-.6,1.3h3.6Z"/>
      <path id="DejaVuSans-6e-4" class="cls-15" d="M607.8-177.2v3.6h-1v-3.6c0-.6,0-1-.3-1.3s-.6-.4-1-.4-1,.2-1.3.5-.5.8-.5,1.4v3.4h-1v-6h1v.9c.2-.4.5-.6.8-.8.3-.2.7-.3,1.1-.3.7,0,1.2.2,1.6.6.4.4.5,1.1.5,1.9h.1Z"/>
      <path id="DejaVuSans-74-4" class="cls-15" d="M610.7-181.3v1.7h2v.8h-2v3.3c0,.5,0,.8.2.9s.4.2.8.2h1v.8h-1c-.8,0-1.3,0-1.6-.4s-.4-.8-.4-1.6v-3.3h-.7v-.8h.7v-1.7h1Z"/>
      <path id="DejaVuSans-73-4" class="cls-15" d="M417.2-83.4v.9c-.3,0-.6-.3-.9-.3s-.6,0-.9,0c-.5,0-.9,0-1.1.2-.2.2-.4.4-.4.7s0,.4.3.5.5.3,1.1.4h.3c.7.2,1.2.4,1.5.7s.4.7.4,1.1-.2,1-.7,1.3c-.4.3-1.1.5-1.8.5h-1c-.3,0-.7-.2-1.1-.3v-1c.4.2.7.3,1.1.4.4,0,.7,0,1.1,0s.8,0,1.1-.2.4-.4.4-.7,0-.5-.3-.6c-.2,0-.6-.3-1.2-.4h-.3c-.6-.2-1.1-.4-1.3-.7-.3-.3-.4-.6-.4-1.1s.2-1,.6-1.3c.4-.3,1-.5,1.7-.5h1c.3,0,.6,0,.9.2v.2Z"/>
      <path id="mc8215f0d5a-4" class="cls-11" d="M494.4-156.5c.9,0,1.8-.4,2.5-1s1-1.6,1-2.5-.4-1.8-1-2.5-1.6-1-2.5-1-1.8.4-2.5,1-1,1.6-1,2.5.4,1.8,1,2.5,1.6,1,2.5,1Z"/>
      <path id="DejaVuSans-64" class="cls-15" d="M519.2-162.3v-3.3h1v8.4h-1v-.9c-.2.4-.5.6-.8.8-.3.2-.7.3-1.1.3-.7,0-1.3-.3-1.8-.9s-.7-1.3-.7-2.3.2-1.7.7-2.3c.5-.6,1-.9,1.8-.9s.8,0,1.1.3c.3.2.6.4.8.8ZM515.8-160.2c0,.7.1,1.3.4,1.7.3.4.7.6,1.2.6s.9-.2,1.2-.6c.3-.4.5-1,.5-1.7s-.2-1.3-.5-1.7c-.3-.4-.7-.6-1.2-.6s-.9.2-1.2.6-.4,1-.4,1.7Z"/>
      <path id="DejaVuSans-65-7" class="cls-15" d="M527.3-160.4v.5h-4.5c0,.7.2,1.2.6,1.6s.9.5,1.5.5.7,0,1.1,0,.7-.2,1.1-.4v.9c-.4.2-.7.3-1.1.3s-.7,0-1.1,0c-1,0-1.7-.3-2.3-.8-.6-.6-.8-1.3-.8-2.3s.3-1.8.8-2.3c.5-.6,1.2-.9,2.2-.9s1.4.3,1.9.8.7,1.2.7,2.1h-.1ZM526.4-160.7c0-.5-.2-1-.5-1.3s-.7-.5-1.2-.5-1,.2-1.3.5-.5.8-.6,1.3h3.6Z"/>
      <path id="DejaVuSans-73-5" class="cls-15" d="M532.8-163v.9c-.3,0-.6-.3-.9-.3s-.6,0-.9,0c-.5,0-.9,0-1.1.2s-.4.4-.4.7,0,.4.3.5.5.3,1.1.4h.3c.7.2,1.2.4,1.5.7s.4.7.4,1.1-.2,1-.7,1.3c-.4.3-1.1.5-1.8.5h-1c-.3,0-.7-.2-1.1-.3v-1c.4.2.7.3,1.1.4.4,0,.7,0,1.1,0s.8,0,1.1-.2c.3-.2.4-.4.4-.7s0-.5-.3-.6c-.2,0-.6-.3-1.2-.4h-.3c-.6-.2-1.1-.4-1.3-.7-.3-.3-.4-.6-.4-1.1s.2-1,.6-1.3,1-.5,1.7-.5h1c.3,0,.6,0,.9.2v.2Z"/>
      <path id="DejaVuSans-69-3" class="cls-15" d="M534.7-163.2h1v6h-1v-6ZM534.7-165.5h1v1.3h-1v-1.3Z"/>
      <path id="DejaVuSans-67-2" class="cls-15" d="M541.7-160.2c0-.7-.1-1.3-.4-1.7-.3-.4-.7-.6-1.2-.6s-.9.2-1.2.6c-.3.4-.4.9-.4,1.7s.1,1.3.4,1.7c.3.4.7.6,1.2.6s.9-.2,1.2-.6c.3-.4.4-.9.4-1.7ZM542.7-157.9c0,1-.2,1.8-.7,2.3s-1.1.7-2.1.7h-1c-.3,0-.6,0-.9-.2v-1c.3.2.6.3.9.3s.6,0,.9,0c.6,0,1.1-.2,1.5-.5.3-.3.5-.8.5-1.5v-.5c-.2.4-.5.6-.8.8s-.7.3-1.1.3c-.7,0-1.3-.3-1.8-.8-.5-.6-.7-1.3-.7-2.2s.2-1.7.7-2.2c.5-.6,1-.8,1.8-.8s.8,0,1.1.3.6.4.8.8v-.9h1v5.3-.3Z"/>
      <path id="DejaVuSans-6e-5" class="cls-15" d="M549.7-160.8v3.6h-1v-3.6c0-.6-.1-1-.3-1.3-.2-.3-.6-.4-1-.4s-1,.2-1.3.5-.5.8-.5,1.4v3.4h-1v-6h1v.9c.2-.4.5-.6.8-.8.3-.2.7-.3,1.1-.3.7,0,1.2.2,1.6.6s.5,1.1.5,1.9h0Z"/>
      <path id="DejaVuSans-5f-2" class="cls-15" d="M556.3-155.3v.8h-5.7v-.8h5.7Z"/>
      <path id="DejaVuSans-6d-7" class="cls-15" d="M561.9-162c.2-.4.5-.8.9-1s.7-.3,1.2-.3,1.1.2,1.5.7c.3.4.5,1.1.5,1.9v3.6h-1v-3.6c0-.6-.1-1-.3-1.3-.2-.3-.5-.4-.9-.4s-.9.2-1.2.5c-.3.3-.4.8-.4,1.4v3.4h-1v-3.6c0-.6-.1-1-.3-1.3s-.5-.4-.9-.4-.9.2-1.2.5c-.3.3-.4.8-.4,1.4v3.4h-1v-6h1v.9c.2-.4.5-.6.8-.8s.7-.3,1.1-.3.8,0,1.1.3c.3.2.5.5.7,1h-.2Z"/>
      <path id="DejaVuSans-69-4" class="cls-15" d="M567.9-163.2h1v6h-1v-6ZM567.9-165.5h1v1.3h-1v-1.3Z"/>
      <path id="DejaVuSans-6e-6" class="cls-15" d="M576-160.8v3.6h-1v-3.6c0-.6,0-1-.3-1.3s-.6-.4-1-.4-1,.2-1.3.5-.5.8-.5,1.4v3.4h-1v-6h1v.9c.2-.4.5-.6.8-.8.3-.2.7-.3,1.1-.3.7,0,1.2.2,1.6.6.4.4.5,1.1.5,1.9h.1Z"/>
      <path id="DejaVuSans-69-5" class="cls-15" d="M577.9-163.2h1v6h-1v-6ZM577.9-165.5h1v1.3h-1v-1.3Z"/>
      <path id="DejaVuSans-6d-8" class="cls-15" d="M585.7-162c.2-.4.5-.8.9-1s.7-.3,1.2-.3,1.1.2,1.5.7c.3.4.5,1.1.5,1.9v3.6h-1v-3.6c0-.6,0-1-.3-1.3s-.5-.4-.9-.4-.9.2-1.2.5-.4.8-.4,1.4v3.4h-1v-3.6c0-.6,0-1-.3-1.3s-.5-.4-.9-.4-.9.2-1.2.5-.4.8-.4,1.4v3.4h-1v-6h1v.9c.2-.4.5-.6.8-.8s.7-.3,1.1-.3.8,0,1.1.3c.3.2.5.5.7,1h-.2Z"/>
      <path id="DejaVuSans-61-6" class="cls-15" d="M594.5-160.2c-.8,0-1.4,0-1.7.3s-.5.5-.5.9,0,.6.3.8c.2.2.5.3.9.3s1-.2,1.3-.6.5-.9.5-1.5v-.2h-1,.2ZM596.4-160.6v3.4h-1v-.9c-.2.4-.5.6-.8.8-.3.2-.7.3-1.2.3s-1.1-.2-1.5-.5-.5-.8-.5-1.4.2-1.2.7-1.5,1.1-.5,2-.5h1.4c0-.6,0-.9-.4-1.2s-.7-.4-1.3-.4-.7,0-1,0c-.3,0-.6.2-.9.4v-.9c.4,0,.7-.2,1.1-.3.3,0,.7,0,1,0,.9,0,1.5.2,2,.7.4.5.6,1.1.6,2.1h-.2Z"/>
      <path id="DejaVuSans-6c-2" class="cls-15" d="M598.5-165.5h1v8.4h-1v-8.4Z"/>
      <path id="mb938837942-2" class="cls-7" d="M494.4-140.1c.9,0,1.8-.4,2.5-1s1-1.6,1-2.5-.4-1.8-1-2.5-1.6-1-2.5-1-1.8.4-2.5,1-1,1.6-1,2.5.4,1.8,1,2.5,1.6,1,2.5,1Z"/>
      <path id="DejaVuSans-65-8" class="cls-15" d="M520.4-144v.5h-4.5c0,.7.2,1.2.6,1.6s.9.5,1.5.5.7,0,1.1,0,.7-.2,1.1-.4v.9c-.4.2-.7.3-1.1.3s-.7,0-1.1,0c-1,0-1.7-.3-2.3-.8-.6-.6-.8-1.3-.8-2.3s.3-1.8.8-2.3c.5-.6,1.2-.9,2.2-.9s1.4.3,1.9.8.7,1.2.7,2.1h-.1ZM519.4-144.2c0-.5-.2-1-.5-1.3s-.7-.5-1.2-.5-1,.2-1.3.5-.5.8-.6,1.3h3.6Z"/>
      <path id="DejaVuSans-74-5" class="cls-15" d="M523-148.4v1.7h2v.8h-2v3.3c0,.5,0,.8.2.9s.4.2.8.2h1v.8h-1c-.8,0-1.3,0-1.6-.4-.3-.3-.4-.8-.4-1.6v-3.3h-.7v-.8h.7v-1.7h1Z"/>
      <path id="DejaVuSans-68-3" class="cls-15" d="M531.3-144.3v3.6h-1v-3.6c0-.6-.1-1-.3-1.3-.2-.3-.6-.4-1-.4s-1,.2-1.3.5-.5.8-.5,1.4v3.4h-1v-8.4h1v3.3c.2-.4.5-.6.8-.8.3-.2.7-.3,1.1-.3.7,0,1.2.2,1.6.6s.5,1.1.5,1.9h0Z"/>
      <path id="DejaVuSans-69-6" class="cls-15" d="M533.3-146.7h1v6h-1v-6ZM533.3-149.1h1v1.3h-1v-1.3Z"/>
      <path id="DejaVuSans-63-2" class="cls-15" d="M540.7-146.5v.9c-.3-.2-.6-.3-.8-.3s-.6,0-.9,0c-.6,0-1.1.2-1.5.6s-.5,1-.5,1.7.2,1.3.5,1.7c.4.4.9.6,1.5.6s.6,0,.9,0,.6-.2.8-.3v.9c-.3,0-.6.2-.9.3h-.9c-.9,0-1.6-.3-2.2-.9-.5-.6-.8-1.3-.8-2.3s.3-1.8.8-2.3c.5-.6,1.3-.8,2.2-.8s.6,0,.9,0,.6.2.8.3h.1Z"/>
      <path id="DejaVuSans-61-7" class="cls-15" d="M545.1-143.7c-.8,0-1.4,0-1.7.3s-.5.5-.5.9.1.6.3.8c.2.2.5.3.9.3s1-.2,1.3-.6.5-.9.5-1.5v-.2h-1,.2ZM547.1-144.1v3.4h-1v-.9c-.2.4-.5.6-.8.8-.3.2-.7.3-1.2.3s-1.1-.2-1.5-.5-.5-.8-.5-1.4.2-1.2.7-1.5,1.1-.5,2-.5h1.4c0-.6-.1-.9-.4-1.2s-.7-.4-1.3-.4-.7,0-1,0c-.3,0-.6.2-.9.4v-.9c.4,0,.7-.2,1.1-.3.3,0,.7,0,1,0,.9,0,1.5.2,2,.7.4.5.6,1.1.6,2.1h-.2Z"/>
      <path id="DejaVuSans-6c-3" class="cls-15" d="M549.1-149.1h1v8.4h-1v-8.4Z"/>
      <path id="DejaVuSans-5f-3" class="cls-15" d="M556.7-138.9v.8h-5.7v-.8h5.7Z"/>
      <path id="DejaVuSans-73-6" class="cls-15" d="M561.5-146.5v.9c-.3,0-.6-.3-.9-.3s-.6,0-.9,0c-.5,0-.9,0-1.1.2s-.4.4-.4.7,0,.4.3.5.5.3,1.1.4h.3c.7.2,1.2.4,1.5.7s.4.7.4,1.1-.2,1-.7,1.3c-.4.3-1.1.5-1.8.5h-1c-.3,0-.7-.2-1.1-.3v-1c.4.2.7.3,1.1.4.4,0,.7,0,1.1,0s.8,0,1.1-.2c.3-.2.4-.4.4-.7s0-.5-.3-.6c-.2,0-.6-.3-1.2-.4h-.3c-.6-.2-1.1-.4-1.3-.7-.3-.3-.4-.6-.4-1.1s.2-1,.6-1.3,1-.5,1.7-.5h1c.3,0,.6,0,.9.2v.2Z"/>
      <path id="DejaVuSans-6f-2" class="cls-15" d="M565.7-146c-.5,0-.9.2-1.3.6s-.5,1-.5,1.7.2,1.3.5,1.7c.3.4.7.6,1.3.6s.9-.2,1.3-.6c.3-.4.5-1,.5-1.7s-.2-1.3-.5-1.7c-.3-.4-.7-.6-1.3-.6ZM565.7-146.9c.9,0,1.5.3,2,.8.5.6.7,1.3.7,2.3s-.2,1.8-.7,2.3c-.5.6-1.2.8-2,.8s-1.5-.3-2-.8c-.5-.6-.7-1.3-.7-2.3s.2-1.8.7-2.3c.5-.6,1.2-.8,2-.8Z"/>
      <path id="DejaVuSans-75-3" class="cls-15" d="M570-143.1v-3.6h1v3.6c0,.6,0,1,.3,1.3s.6.4,1,.4,1-.2,1.3-.5.5-.8.5-1.4v-3.4h1v6h-1v-.9c-.2.4-.5.6-.8.8-.3.2-.7.3-1.1.3-.7,0-1.2-.2-1.6-.6-.4-.4-.5-1.1-.5-1.9h-.1ZM572.5-146.9h0Z"/>
      <path id="DejaVuSans-72-4" class="cls-15" d="M580.6-145.8c0,0-.2,0-.4,0h-.4c-.6,0-1,.2-1.3.5s-.4.9-.4,1.6v3.2h-1v-6h1v.9c.2-.4.5-.6.8-.8.3-.2.7-.3,1.2-.3s0,0,.2,0h.3v1h0Z"/>
      <path id="DejaVuSans-63-3" class="cls-15" d="M585.7-146.5v.9c-.3-.2-.6-.3-.8-.3s-.6,0-.9,0c-.6,0-1.1.2-1.5.6s-.5,1-.5,1.7.2,1.3.5,1.7c.4.4.9.6,1.5.6s.6,0,.9,0,.6-.2.8-.3v.9c-.3,0-.6.2-.9.3h-.9c-.9,0-1.6-.3-2.2-.9-.5-.6-.8-1.3-.8-2.3s.3-1.8.8-2.3c.5-.6,1.3-.8,2.2-.8h.9c.3,0,.6.2.8.3h.1Z"/>
      <path id="DejaVuSans-69-7" class="cls-15" d="M587.4-146.7h1v6h-1v-6ZM587.4-149.1h1v1.3h-1v-1.3Z"/>
      <path id="DejaVuSans-6e-7" class="cls-15" d="M595.5-144.3v3.6h-1v-3.6c0-.6,0-1-.3-1.3s-.6-.4-1-.4-1,.2-1.3.5-.5.8-.5,1.4v3.4h-1v-6h1v.9c.2-.4.5-.6.8-.8.3-.2.7-.3,1.1-.3.7,0,1.2.2,1.6.6.4.4.5,1.1.5,1.9h.1Z"/>
      <path id="DejaVuSans-67-3" class="cls-15" d="M601.4-143.8c0-.7,0-1.3-.4-1.7-.3-.4-.7-.6-1.2-.6s-.9.2-1.2.6-.4.9-.4,1.7,0,1.3.4,1.7c.3.4.7.6,1.2.6s.9-.2,1.2-.6.4-.9.4-1.7ZM602.4-141.4c0,1-.2,1.8-.7,2.3s-1.1.7-2.1.7h-1c-.3,0-.6-.1-.9-.2v-1c.3.2.6.3.9.3s.6.1.9.1c.6,0,1.1-.2,1.5-.5.3-.3.5-.8.5-1.5v-.5c-.2.4-.5.6-.8.8s-.7.3-1.1.3c-.7,0-1.3-.3-1.8-.8-.5-.6-.7-1.3-.7-2.2s.2-1.7.7-2.2c.5-.6,1-.8,1.8-.8s.8,0,1.1.3.6.4.8.8v-.9h1v5.3-.3Z"/>
      <path id="mbc936bc17b-2" class="cls-5" d="M494.4-123.6c.9,0,1.8-.4,2.5-1s1-1.6,1-2.5-.4-1.8-1-2.5-1.6-1-2.5-1-1.8.4-2.5,1-1,1.6-1,2.5.4,1.8,1,2.5,1.6,1,2.5,1Z"/>
      <path id="DejaVuSans-68-4" class="cls-15" d="M520.2-127.9v3.6h-1v-3.6c0-.6-.1-1-.3-1.3-.2-.3-.6-.4-1-.4s-1,.2-1.3.5-.5.8-.5,1.4v3.4h-1v-8.4h1v3.3c.2-.4.5-.6.8-.8s.7-.3,1.1-.3c.7,0,1.2.2,1.6.6.4.4.5,1.1.5,1.9h0Z"/>
      <path id="DejaVuSans-6f-3" class="cls-15" d="M524.5-129.6c-.5,0-.9.2-1.3.6s-.5,1-.5,1.7.2,1.3.5,1.7.7.6,1.3.6.9-.2,1.3-.6c.3-.4.5-1,.5-1.7s-.2-1.3-.5-1.7-.7-.6-1.3-.6ZM524.5-130.4c.9,0,1.5.3,2,.8.5.6.7,1.3.7,2.3s-.2,1.8-.7,2.3c-.5.6-1.2.8-2,.8s-1.5-.3-2-.8c-.5-.6-.7-1.3-.7-2.3s.2-1.8.7-2.3c.5-.6,1.2-.8,2-.8Z"/>
      <path id="DejaVuSans-6d-9" class="cls-15" d="M533.6-129.1c.2-.4.5-.8.9-1s.7-.3,1.2-.3,1.1.2,1.5.7c.3.4.5,1.1.5,1.9v3.6h-1v-3.6c0-.6-.1-1-.3-1.3-.2-.3-.5-.4-.9-.4s-.9.2-1.2.5c-.3.3-.4.8-.4,1.4v3.4h-1v-3.6c0-.6-.1-1-.3-1.3s-.5-.4-.9-.4-.9.2-1.2.5c-.3.3-.4.8-.4,1.4v3.4h-1v-6h1v.9c.2-.4.5-.6.8-.8s.7-.3,1.1-.3.8.1,1.1.3c.3.2.5.5.7,1h-.2Z"/>
      <path id="DejaVuSans-65-9" class="cls-15" d="M544.8-127.5v.5h-4.5c0,.7.2,1.2.6,1.6.4.4.9.5,1.5.5s.7,0,1.1-.1.7-.2,1.1-.4v.9c-.4.2-.7.3-1.1.3s-.7.1-1.1.1c-1,0-1.7-.3-2.3-.8-.6-.6-.8-1.3-.8-2.3s.3-1.8.8-2.3c.5-.6,1.2-.9,2.2-.9s1.4.3,1.9.8.7,1.2.7,2.1h-.1ZM543.8-127.8c0-.5-.2-1-.5-1.3s-.7-.5-1.2-.5-1,.2-1.3.5-.5.8-.6,1.3h3.6Z"/>
      <path id="DejaVuSans-6d-10" class="cls-15" d="M551.1-129.1c.2-.4.5-.8.9-1s.7-.3,1.2-.3,1.1.2,1.5.7c.3.4.5,1.1.5,1.9v3.6h-1v-3.6c0-.6-.1-1-.3-1.3-.2-.3-.5-.4-.9-.4s-.9.2-1.2.5c-.3.3-.4.8-.4,1.4v3.4h-1v-3.6c0-.6-.1-1-.3-1.3s-.5-.4-.9-.4-.9.2-1.2.5c-.3.3-.4.8-.4,1.4v3.4h-1v-6h1v.9c.2-.4.5-.6.8-.8s.7-.3,1.1-.3.8.1,1.1.3c.3.2.5.5.7,1h-.2Z"/>
      <path id="DejaVuSans-61-8" class="cls-15" d="M559.8-127.3c-.8,0-1.4,0-1.7.3s-.5.5-.5.9.1.6.3.8c.2.2.5.3.9.3s1-.2,1.3-.6.5-.9.5-1.5v-.2h-1,.2ZM561.8-127.7v3.4h-1v-.9c-.2.4-.5.6-.8.8s-.7.3-1.2.3-1.1-.2-1.5-.5-.5-.8-.5-1.4.2-1.2.7-1.5,1.1-.5,2-.5h1.4c0-.6-.1-.9-.4-1.2s-.7-.4-1.3-.4-.7,0-1,.1c-.3,0-.6.2-.9.4v-.9c.4-.1.7-.2,1.1-.3.3,0,.7-.1,1-.1.9,0,1.5.2,2,.7.4.5.6,1.1.6,2.1h-.2Z"/>
      <path id="DejaVuSans-64-2" class="cls-15" d="M567.8-129.3v-3.3h1v8.4h-1v-.9c-.2.4-.5.6-.8.8s-.7.3-1.1.3c-.7,0-1.3-.3-1.8-.9-.5-.6-.7-1.3-.7-2.3s.2-1.7.7-2.3,1-.9,1.8-.9.8,0,1.1.3c.3.2.6.4.8.8h0ZM564.4-127.2c0,.7.1,1.3.4,1.7.3.4.7.6,1.2.6s.9-.2,1.2-.6c.3-.4.5-1,.5-1.7s-.2-1.3-.5-1.7-.7-.6-1.2-.6-.9.2-1.2.6-.4,1-.4,1.7h0Z"/>
      <path id="DejaVuSans-65-10" class="cls-15" d="M576-127.5v.5h-4.5c0,.7.2,1.2.6,1.6.4.4.9.5,1.5.5s.7,0,1.1-.1.7-.2,1.1-.4v.9c-.4.2-.7.3-1.1.3s-.7.1-1.1.1c-1,0-1.7-.3-2.3-.8-.6-.6-.8-1.3-.8-2.3s.3-1.8.8-2.3c.5-.6,1.2-.9,2.2-.9s1.4.3,1.9.8.7,1.2.7,2.1h-.1ZM575-127.8c0-.5-.2-1-.5-1.3s-.7-.5-1.2-.5-1,.2-1.3.5-.5.8-.6,1.3h3.6Z"/>
      <path id="DejaVuSans-5f-4" class="cls-15" d="M582.2-122.4v.8h-5.7v-.8h5.7Z"/>
      <path id="DejaVuSans-62-3" class="cls-15" d="M587.4-127.2c0-.7,0-1.3-.4-1.7s-.7-.6-1.2-.6-.9.2-1.2.6-.4,1-.4,1.7,0,1.3.4,1.7c.3.4.7.6,1.2.6s.9-.2,1.2-.6c.3-.4.4-1,.4-1.7ZM584.1-129.3c.2-.4.5-.6.8-.8s.7-.3,1.1-.3c.7,0,1.3.3,1.8.9.5.6.7,1.3.7,2.3s-.2,1.7-.7,2.3-1,.9-1.8.9-.8,0-1.1-.3c-.3-.2-.6-.4-.8-.8v.9h-1v-8.4h1v3.3h0Z"/>
      <path id="DejaVuSans-61-9" class="cls-15" d="M592.8-127.3c-.8,0-1.4,0-1.7.3s-.5.5-.5.9,0,.6.3.8.5.3.9.3,1-.2,1.3-.6.5-.9.5-1.5v-.2h-1,.2ZM594.8-127.7v3.4h-1v-.9c-.2.4-.5.6-.8.8s-.7.3-1.2.3-1.1-.2-1.5-.5-.5-.8-.5-1.4.2-1.2.7-1.5,1.1-.5,2-.5h1.4c0-.6,0-.9-.4-1.2s-.7-.4-1.3-.4-.7,0-1,.1c-.3,0-.6.2-.9.4v-.9c.4-.1.7-.2,1.1-.3.3,0,.7-.1,1-.1.9,0,1.5.2,2,.7.4.5.6,1.1.6,2.1h-.2Z"/>
      <path id="DejaVuSans-6b" class="cls-15" d="M596.8-132.6h1v4.9l2.9-2.6h1.3l-3.2,2.8,3.3,3.2h-1.3l-3.1-2.9v2.9h-1v-8.4h0Z"/>
      <path id="DejaVuSans-65-11" class="cls-15" d="M607.9-127.5v.5h-4.5c0,.7.2,1.2.6,1.6.4.4.9.5,1.5.5s.7,0,1.1-.1.7-.2,1.1-.4v.9c-.4.2-.7.3-1.1.3s-.7.1-1.1.1c-1,0-1.7-.3-2.3-.8-.6-.6-.8-1.3-.8-2.3s.3-1.8.8-2.3c.5-.6,1.2-.9,2.2-.9s1.4.3,1.9.8.7,1.2.7,2.1h-.1ZM607-127.8c0-.5-.2-1-.5-1.3s-.7-.5-1.2-.5-1,.2-1.3.5-.5.8-.6,1.3h3.6Z"/>
      <path id="DejaVuSans-73-7" class="cls-15" d="M613.4-130.1v.9c-.3-.1-.6-.3-.9-.3s-.6-.1-.9-.1c-.5,0-.9,0-1.1.2-.2.2-.4.4-.4.7s0,.4.3.5.5.3,1.1.4h.3c.7.2,1.2.4,1.5.7s.4.7.4,1.1-.2,1-.7,1.3c-.4.3-1.1.5-1.8.5h-1c-.3,0-.7-.2-1.1-.3v-1c.4.2.7.3,1.1.4.4,0,.7.1,1.1.1s.8,0,1.1-.2.4-.4.4-.7,0-.5-.3-.6c-.2-.1-.6-.3-1.2-.4h-.3c-.6-.2-1.1-.4-1.3-.7-.3-.3-.4-.6-.4-1.1s.2-1,.6-1.3c.4-.3,1-.5,1.7-.5h1c.3,0,.6.1.9.2v.2Z"/>
      <path id="m57f7e750e4-72" class="cls-8" d="M494.4-107.1c.9,0,1.8-.4,2.5-1s1-1.6,1-2.5-.4-1.8-1-2.5-1.6-1-2.5-1-1.8.4-2.5,1-1,1.6-1,2.5.4,1.8,1,2.5,1.6,1,2.5,1Z"/>
      <path id="DejaVuSans-6d-11" class="cls-15" d="M519.9-112.7c.2-.4.5-.8.9-1s.7-.3,1.2-.3,1.1.2,1.5.7c.3.4.5,1.1.5,1.9v3.6h-1v-3.6c0-.6-.1-1-.3-1.3-.2-.3-.5-.4-.9-.4s-.9.2-1.2.5c-.3.3-.4.8-.4,1.4v3.4h-1v-3.6c0-.6-.1-1-.3-1.3s-.5-.4-.9-.4-.9.2-1.2.5c-.3.3-.4.8-.4,1.4v3.4h-1v-6h1v.9c.2-.4.5-.6.8-.8s.7-.3,1.1-.3.8.1,1.1.3c.3.2.5.5.7,1h-.2Z"/>
      <path id="DejaVuSans-75-4" class="cls-15" d="M525.8-110.2v-3.6h1v3.6c0,.6.1,1,.3,1.3.2.3.6.4,1,.4s1-.2,1.3-.5.5-.8.5-1.4v-3.4h1v6h-1v-.9c-.2.4-.5.6-.8.8s-.7.3-1.1.3c-.7,0-1.2-.2-1.6-.6-.4-.4-.5-1.1-.5-1.9h0ZM528.3-114h0Z"/>
      <path id="DejaVuSans-6c-4" class="cls-15" d="M532.9-116.2h1v8.4h-1v-8.4Z"/>
      <path id="DejaVuSans-74-6" class="cls-15" d="M536.9-115.5v1.7h2v.8h-2v3.3c0,.5,0,.8.2.9s.4.2.8.2h1v.8h-1c-.8,0-1.3-.1-1.6-.4-.3-.3-.4-.8-.4-1.6v-3.3h-.7v-.8h.7v-1.7h1Z"/>
      <path id="DejaVuSans-69-8" class="cls-15" d="M540.3-113.8h1v6h-1v-6ZM540.3-116.2h1v1.3h-1v-1.3Z"/>
      <path id="DejaVuSans-5f-5" class="cls-15" d="M547.9-106v.8h-5.7v-.8h5.7Z"/>
      <path id="DejaVuSans-6c-5" class="cls-15" d="M548.8-116.2h1v8.4h-1v-8.4Z"/>
      <path id="DejaVuSans-6f-4" class="cls-15" d="M554.2-113.1c-.5,0-.9.2-1.3.6s-.5,1-.5,1.7.2,1.3.5,1.7.7.6,1.3.6.9-.2,1.3-.6c.3-.4.5-1,.5-1.7s-.2-1.3-.5-1.7-.7-.6-1.3-.6ZM554.2-114c.9,0,1.5.3,2,.8.5.6.7,1.3.7,2.3s-.2,1.8-.7,2.3c-.5.6-1.2.8-2,.8s-1.5-.3-2-.8c-.5-.6-.7-1.3-.7-2.3s.2-1.8.7-2.3c.5-.6,1.2-.8,2-.8Z"/>
      <path id="DejaVuSans-63-4" class="cls-15" d="M562.9-113.6v.9c-.3-.2-.6-.3-.8-.3s-.6-.1-.9-.1c-.6,0-1.1.2-1.5.6-.4.4-.5,1-.5,1.7s.2,1.3.5,1.7c.4.4.9.6,1.5.6s.6,0,.9-.1.6-.2.8-.3v.9c-.3.1-.6.2-.9.3h-.9c-.9,0-1.6-.3-2.2-.9-.5-.6-.8-1.3-.8-2.3s.3-1.8.8-2.3c.5-.6,1.3-.8,2.2-.8s.6,0,.9,0,.6.2.8.3h.1Z"/>
      <path id="DejaVuSans-61-10" class="cls-15" d="M567.4-110.8c-.8,0-1.4,0-1.7.3s-.5.5-.5.9,0,.6.3.8.5.3.9.3,1-.2,1.3-.6.5-.9.5-1.5v-.2h-1,.2ZM569.4-111.2v3.4h-1v-.9c-.2.4-.5.6-.8.8s-.7.3-1.2.3-1.1-.2-1.5-.5c-.4-.3-.5-.8-.5-1.4s.2-1.2.7-1.5,1.1-.5,2-.5h1.4c0-.6,0-.9-.4-1.2s-.7-.4-1.3-.4-.7,0-1,.1c-.3,0-.6.2-.9.4v-.9c.4-.1.7-.2,1.1-.3.3,0,.7-.1,1-.1.9,0,1.5.2,2,.7.4.5.6,1.1.6,2.1h-.2Z"/>
      <path id="DejaVuSans-74-7" class="cls-15" d="M572.4-115.5v1.7h2v.8h-2v3.3c0,.5,0,.8.2.9s.4.2.8.2h1v.8h-1c-.8,0-1.3-.1-1.6-.4-.3-.3-.4-.8-.4-1.6v-3.3h-.7v-.8h.7v-1.7h1Z"/>
      <path id="DejaVuSans-69-9" class="cls-15" d="M575.7-113.8h1v6h-1v-6ZM575.7-116.2h1v1.3h-1v-1.3Z"/>
      <path id="DejaVuSans-6f-5" class="cls-15" d="M581.1-113.1c-.5,0-.9.2-1.3.6s-.5,1-.5,1.7.2,1.3.5,1.7.7.6,1.3.6.9-.2,1.3-.6c.3-.4.5-1,.5-1.7s-.2-1.3-.5-1.7-.7-.6-1.3-.6ZM581.1-114c.9,0,1.5.3,2,.8.5.6.7,1.3.7,2.3s-.2,1.8-.7,2.3c-.5.6-1.2.8-2,.8s-1.5-.3-2-.8c-.5-.6-.7-1.3-.7-2.3s.2-1.8.7-2.3c.5-.6,1.2-.8,2-.8Z"/>
      <path id="DejaVuSans-6e-8" class="cls-15" d="M590.5-111.4v3.6h-1v-3.6c0-.6,0-1-.3-1.3s-.6-.4-1-.4-1,.2-1.3.5-.5.8-.5,1.4v3.4h-1v-6h1v.9c.2-.4.5-.6.8-.8s.7-.3,1.1-.3c.7,0,1.2.2,1.6.6.4.4.5,1.1.5,1.9h.1Z"/>
      <path id="mb6c98d2168-4" class="cls-9" d="M494.4-90.7c.9,0,1.8-.4,2.5-1s1-1.6,1-2.5-.4-1.8-1-2.5-1.6-1-2.5-1-1.8.4-2.5,1-1,1.6-1,2.5.4,1.8,1,2.5,1.6,1,2.5,1Z"/>
      <path id="DejaVuSans-6f-6" class="cls-15" d="M517.5-96.7c-.5,0-.9.2-1.3.6s-.5,1-.5,1.7.2,1.3.5,1.7.7.6,1.3.6.9-.2,1.3-.6c.3-.4.5-1,.5-1.7s-.2-1.3-.5-1.7-.7-.6-1.3-.6ZM517.5-97.5c.9,0,1.5.3,2,.8.5.6.7,1.3.7,2.3s-.2,1.8-.7,2.3c-.5.6-1.2.8-2,.8s-1.5-.3-2-.8c-.5-.6-.7-1.3-.7-2.3s.2-1.8.7-2.3c.5-.6,1.2-.8,2-.8Z"/>
      <path id="DejaVuSans-72-5" class="cls-15" d="M525.4-96.4c-.1,0-.2-.1-.4-.1h-.4c-.6,0-1,.2-1.3.5s-.4.9-.4,1.6v3.2h-1v-6h1v.9c.2-.4.5-.6.8-.8s.7-.3,1.2-.3.1,0,.2,0h.3v1h0Z"/>
      <path id="DejaVuSans-69-10" class="cls-15" d="M526.5-97.4h1v6h-1v-6ZM526.5-99.7h1v1.3h-1v-1.3Z"/>
      <path id="DejaVuSans-67-4" class="cls-15" d="M533.5-94.4c0-.7-.1-1.3-.4-1.7s-.7-.6-1.2-.6-.9.2-1.2.6c-.3.4-.4.9-.4,1.7s.1,1.3.4,1.7.7.6,1.2.6.9-.2,1.2-.6c.3-.4.4-.9.4-1.7ZM534.5-92.1c0,1-.2,1.8-.7,2.3s-1.1.7-2.1.7h-1c-.3,0-.6-.1-.9-.2v-1c.3.2.6.3.9.3s.6.1.9.1c.6,0,1.1-.2,1.5-.5.3-.3.5-.8.5-1.5v-.5c-.2.4-.5.6-.8.8s-.7.3-1.1.3c-.7,0-1.3-.3-1.8-.8-.5-.6-.7-1.3-.7-2.2s.2-1.7.7-2.2c.5-.6,1-.8,1.8-.8s.8,0,1.1.3.6.4.8.8v-.9h1v5.3-.3Z"/>
      <path id="DejaVuSans-69-11" class="cls-15" d="M536.5-97.4h1v6h-1v-6ZM536.5-99.7h1v1.3h-1v-1.3Z"/>
      <path id="DejaVuSans-6e-9" class="cls-15" d="M544.6-95v3.6h-1v-3.6c0-.6-.1-1-.3-1.3-.2-.3-.6-.4-1-.4s-1,.2-1.3.5-.5.8-.5,1.4v3.4h-1v-6h1v.9c.2-.4.5-.6.8-.8s.7-.3,1.1-.3c.7,0,1.2.2,1.6.6.4.4.5,1.1.5,1.9h0Z"/>
      <path id="DejaVuSans-5f-6" class="cls-15" d="M551.1-89.5v.8h-5.7v-.8h5.7Z"/>
      <path id="DejaVuSans-66-2" class="cls-15" d="M555.1-99.7v.8h-.9c-.4,0-.6,0-.7.2-.1.1-.2.4-.2.8v.5h1.6v.8h-1.6v5.2h-1v-5.2h-.9v-.8h.9v-.4c0-.7.2-1.2.5-1.5s.8-.5,1.5-.5h.9,0Z"/>
      <path id="DejaVuSans-6f-7" class="cls-15" d="M558.2-96.7c-.5,0-.9.2-1.3.6s-.5,1-.5,1.7.2,1.3.5,1.7.7.6,1.3.6.9-.2,1.3-.6c.3-.4.5-1,.5-1.7s-.2-1.3-.5-1.7-.7-.6-1.3-.6ZM558.2-97.5c.9,0,1.5.3,2,.8.5.6.7,1.3.7,2.3s-.2,1.8-.7,2.3c-.5.6-1.2.8-2,.8s-1.5-.3-2-.8c-.5-.6-.7-1.3-.7-2.3s.2-1.8.7-2.3c.5-.6,1.2-.8,2-.8Z"/>
      <path id="DejaVuSans-63-5" class="cls-15" d="M567-97.1v.9c-.3-.2-.6-.3-.8-.3s-.6-.1-.9-.1c-.6,0-1.1.2-1.5.6-.4.4-.5,1-.5,1.7s.2,1.3.5,1.7c.4.4.9.6,1.5.6s.6,0,.9-.1.6-.2.8-.3v.9c-.3.1-.6.2-.9.3h-.9c-.9,0-1.6-.3-2.2-.9-.5-.6-.8-1.3-.8-2.3s.3-1.8.8-2.3c.5-.6,1.3-.8,2.2-.8h.9c.3,0,.6.2.8.3h.1Z"/>
      <path id="DejaVuSans-75-5" class="cls-15" d="M568.6-93.7v-3.6h1v3.6c0,.6,0,1,.3,1.3s.6.4,1,.4,1-.2,1.3-.5.5-.8.5-1.4v-3.4h1v6h-1v-.9c-.2.4-.5.6-.8.8s-.7.3-1.1.3c-.7,0-1.2-.2-1.6-.6-.4-.4-.5-1.1-.5-1.9h-.1ZM571.1-97.5h0Z"/>
      <path id="DejaVuSans-73-8" class="cls-15" d="M579.5-97.2v.9c-.3-.1-.6-.3-.9-.3s-.6-.1-.9-.1c-.5,0-.9,0-1.1.2-.2.2-.4.4-.4.7s0,.4.3.5.5.3,1.1.4h.3c.7.2,1.2.4,1.5.7s.4.7.4,1.1-.2,1-.7,1.3c-.4.3-1.1.5-1.8.5h-1c-.3,0-.7-.2-1.1-.3v-1c.4.2.7.3,1.1.4.4,0,.7.1,1.1.1s.8,0,1.1-.2.4-.4.4-.7,0-.5-.3-.6c-.2-.1-.6-.3-1.2-.4h-.3c-.6-.2-1.1-.4-1.3-.7-.3-.3-.4-.6-.4-1.1s.2-1,.6-1.3c.4-.3,1-.5,1.7-.5h1c.3,0,.6.1.9.2v.2Z"/>
      <path id="ma43ee1083a-6" class="cls-12" d="M494.4-74.2c.9,0,1.8-.4,2.5-1s1-1.6,1-2.5-.4-1.8-1-2.5-1.6-1-2.5-1-1.8.4-2.5,1-1,1.6-1,2.5.4,1.8,1,2.5,1.6,1,2.5,1Z"/>
      <path id="DejaVuSans-70" class="cls-15" d="M516.2-75.8v3.2h-1v-8.3h1v.9c.2-.4.5-.6.8-.8s.7-.3,1.1-.3c.7,0,1.3.3,1.8.9.5.6.7,1.3.7,2.3s-.2,1.7-.7,2.3-1,.9-1.8.9-.8,0-1.1-.3c-.3-.2-.6-.4-.8-.8h0ZM519.5-77.9c0-.7-.1-1.3-.4-1.7s-.7-.6-1.2-.6-.9.2-1.2.6-.4,1-.4,1.7.1,1.3.4,1.7.7.6,1.2.6.9-.2,1.2-.6c.3-.4.4-1,.4-1.7Z"/>
      <path id="DejaVuSans-65-12" class="cls-15" d="M527.3-78.1v.5h-4.5c0,.7.2,1.2.6,1.6.4.4.9.5,1.5.5s.7,0,1.1-.1.7-.2,1.1-.4v.9c-.4.2-.7.3-1.1.3s-.7.1-1.1.1c-1,0-1.7-.3-2.3-.8-.6-.6-.8-1.3-.8-2.3s.3-1.8.8-2.3c.5-.6,1.2-.9,2.2-.9s1.4.3,1.9.8.7,1.2.7,2.1h-.1ZM526.4-78.4c0-.5-.2-1-.5-1.3s-.7-.5-1.2-.5-1,.2-1.3.5-.5.8-.6,1.3h3.6Z"/>
      <path id="DejaVuSans-74-8" class="cls-15" d="M529.9-82.6v1.7h2v.8h-2v3.3c0,.5,0,.8.2.9s.4.2.8.2h1v.8h-1c-.8,0-1.3-.1-1.6-.4-.3-.3-.4-.8-.4-1.6v-3.3h-.7v-.8h.7v-1.7h1Z"/>
      <path id="DejaVuSans-5f-7" class="cls-15" d="M537.8-73.1v.8h-5.7v-.8h5.7Z"/>
      <path id="DejaVuSans-66-3" class="cls-15" d="M541.8-83.2v.8h-.9c-.4,0-.6,0-.7.2-.1.1-.2.4-.2.8v.5h1.6v.8h-1.6v5.2h-1v-5.2h-.9v-.8h.9v-.4c0-.7.2-1.2.5-1.5s.8-.5,1.5-.5h.9,0Z"/>
      <path id="DejaVuSans-72-6" class="cls-15" d="M546.1-80c-.1,0-.2-.1-.4-.1h-.4c-.6,0-1,.2-1.3.5s-.4.9-.4,1.6v3.2h-1v-6h1v.9c.2-.4.5-.6.8-.8s.7-.3,1.2-.3.1,0,.2,0h.3v1h0Z"/>
      <path id="DejaVuSans-69-12" class="cls-15" d="M547.2-80.9h1v6h-1v-6ZM547.2-83.2h1v1.3h-1v-1.3Z"/>
      <path id="DejaVuSans-65-13" class="cls-15" d="M555.4-78.1v.5h-4.5c0,.7.2,1.2.6,1.6.4.4.9.5,1.5.5s.7,0,1.1-.1.7-.2,1.1-.4v.9c-.4.2-.7.3-1.1.3s-.7.1-1.1.1c-1,0-1.7-.3-2.3-.8-.6-.6-.8-1.3-.8-2.3s.3-1.8.8-2.3c.5-.6,1.2-.9,2.2-.9s1.4.3,1.9.8.7,1.2.7,2.1h-.1ZM554.4-78.4c0-.5-.2-1-.5-1.3s-.7-.5-1.2-.5-1,.2-1.3.5-.5.8-.6,1.3h3.6Z"/>
      <path id="DejaVuSans-6e-10" class="cls-15" d="M562-78.5v3.6h-1v-3.6c0-.6-.1-1-.3-1.3-.2-.3-.6-.4-1-.4s-1,.2-1.3.5-.5.8-.5,1.4v3.4h-1v-6h1v.9c.2-.4.5-.6.8-.8s.7-.3,1.1-.3c.7,0,1.2.2,1.6.6.4.4.5,1.1.5,1.9h0Z"/>
      <path id="DejaVuSans-64-3" class="cls-15" d="M567.9-80v-3.3h1v8.4h-1v-.9c-.2.4-.5.6-.8.8s-.7.3-1.1.3c-.7,0-1.3-.3-1.8-.9-.5-.6-.7-1.3-.7-2.3s.2-1.7.7-2.3,1-.9,1.8-.9.8,0,1.1.3c.3.2.6.4.8.8h0ZM564.6-77.9c0,.7.1,1.3.4,1.7.3.4.7.6,1.2.6s.9-.2,1.2-.6c.3-.4.5-1,.5-1.7s-.2-1.3-.5-1.7-.7-.6-1.2-.6-.9.2-1.2.6-.4,1-.4,1.7h0Z"/>
      <path id="DejaVuSans-6c-6" class="cls-15" d="M571-83.2h1v8.4h-1v-8.4Z"/>
      <path id="DejaVuSans-79-4" class="cls-15" d="M576.5-74.3c-.3.7-.6,1.2-.8,1.4-.3.2-.6.3-1.1.3h-.8v-.8h.6c.3,0,.5,0,.6-.2.2-.1.3-.4.5-.9l.2-.5-2.4-5.9h1l1.9,4.7,1.9-4.7h1l-2.6,6.6h0Z"/>
      <path id="mc8215f0d5a-5" class="cls-11" d="M313.9,312.9c3.7,0,3.7-5.6,0-5.6s-3.7,5.6,0,5.6Z"/>
      <text class="cls-4" transform="translate(310.9 402.1)"><tspan x="0" y="0">Hagia Sophia</tspan></text>
      <text class="cls-4" transform="translate(309.8 415.7)"><tspan x="0" y="0">Topkapi Palace</tspan></text>
      <text class="cls-4" transform="translate(310.9 430.8)"><tspan x="0" y="0">Blue Mosque</tspan></text>
      <line class="cls-2" x1="307.5" y1="335.1" x2="307.5" y2="433.3"/>
    </g>
  </g>
</svg>