<?xml version="1.0" encoding="UTF-8"?>
<svg xmlns="http://www.w3.org/2000/svg" version="1.1" viewBox="0 0 576 576">
  <defs>
    <style>
      .cls-1 {
        fill: none;
      }

      .cls-2 {
        fill: #e78ac3;
      }

      .cls-2, .cls-3, .cls-4, .cls-5 {
        fill-opacity: .9;
        stroke: #fff;
        stroke-opacity: .9;
        stroke-width: .6px;
      }

      .cls-2, .cls-3, .cls-4, .cls-5, .cls-6, .cls-7, .cls-8 {
        stroke-linejoin: round;
      }

      .cls-3 {
        fill: #ffd92f;
      }

      .cls-9 {
        fill: #262626;
      }

      .cls-4 {
        fill: #b3b3b3;
      }

      .cls-10 {
        opacity: .7;
      }

      .cls-11 {
        opacity: .2;
      }

      .cls-5 {
        fill: #fc8d62;
      }

      .cls-6 {
        fill: #f7f7f7;
      }

      .cls-6, .cls-8 {
        fill-opacity: .4;
        stroke: #ccc;
        stroke-opacity: .4;
        stroke-width: .5px;
      }

      .cls-7 {
        stroke: #000;
      }
    </style>
  </defs>
  <!-- Generator: Adobe Illustrator 28.7.7, SVG Export Plug-In . SVG Version: 1.2.0 Build 194)  -->
  <g>
    <g id="Layer_1">
      <g id="PatchCollection_1">
        <rect class="cls-1" x="30.8" y="110.1" width="505.8" height="441.7"/>
        <g class="cls-11">
          <path id="m3755ca43df" class="cls-8" d="M189.2,375.5l.3.5h0l.3.7.4.6.4.6.3.4.3.4.3.4.3.3.8.8.7.7.2.3,1.1,1h0l.7.7.4.4,1.2,1.2,1.1,1.1.2.2.3.3.3.3,1.4,1.4h.2c0,.1.3.4.3.4l.9.9,1,.9.4.4.8.8.2.2.3.3.5.5,1,.9.3.3.6.6,1.3,1.4.2.2.6.6h0v.2c.1,0,.3.2.3.2l.5.5.5.5.4.4,1.4,1.4h0l.2.3.3.3.6.6.2.2.3.3.4.4.8.8.9.8.2.2.9.8.3.2.5.5h.2c0,.1.7.7.7.7l.7.5.6.4h.2c0,.1,1.2.7,1.2.7l1.3.7,1.2.6,1.6.8,2.8,1.5,1.5.8,2.1,1.1h0l1.7.8.5.2.7.3.6.3.4.2.6.3,2.3,1.1.3.2.9.4,1.2.6,1.2.6,3.5,1.9,1.2.6v.6l.7.5.7.7-1.4.7.3.7h.3c0,.1.3.3.3.3l.8.3.4.2h1.2c0,.1,1.4-.1,1.4-.1h.4l.9.6-.7,1.2-.2.3v.4c-.1,0-.5,1.6-.5,1.6l.2.6,1.5,1.1.9.8,2.2,2.1.5.2h.9l.4-.2.4-.6.7-.4h.1c0-.1,15.8,18.3,15.8,18.3l.5.6-.5.4-3.2,3.1-.9.9-2.9,4.2-3.3,4.4-2.5,3-1.2,1.4,2.1,2.4,5.4,5h.2l.5.4v1.2h.3l-1.2,6.3v.3l-1,4.2h0c0,.1,2,1.5,2,1.5h.3v.5c-.1,0,0,0,0,0v1.1h-.1v2.4c-.1,0-.3,1.6-.3,1.6l.6.2.5.2h.1l.7.3,3.2,1,6.1,1.4h.6c0,.1.4.2.4.2l3.1.7,1.8.4.2-.3,1-1.5v-.5l.2-.6v-.2l.2-.4.7-2.8v-.3l.8-2.7,1.3-1.1,2-1.2h2.1c0,.1,1.3.2,1.3.2l1.2.3,1.9.4,2,.4h2.5c0,.1,1.4.3,1.4.3l-.4,1.2-.5,1.1-.3.6,2.7,1.3.6,2.3.2,1.9-1.9,2.8-.4,2.5,2.5,1,2.9,1.2.2,5.3.2,2.7.8,6.5-.8,1.2,1.2.4.3,3.1-.6.8.5,1.3h2v.2h2.2v2.8l-.5,1.1h-1.2v1.2h-1.9l-.3,1.2-.3,1.9.4,1.4.5,1.6h5.4c0,0,2.9-.2,2.9-.2l3.4-.8-.2-.8-.2-2.4.5-.7h.9l.3.5,5.8.7.9,2,1,1.2,2,.3h.2l3,1.8-3.1,1.7,1,2.4-2.7,1.5-2.4,1.2-1.5.8-1.5.8-.4,2,2.3,2.1,1.6,1.6,2.4,2.3,2.8,2.9,1.6-1,2.5-1.1,3-1.5,2.2-1,4-2.3,1.9-.8,1.2,1.9,5.4,5.3,1.7,2.1,2.9,1.3,3.5,1,3.9.7,3.9,1.7,5.9,2.5-.2,1.1-.7,1,.2,4v2.3l-.4,3.3-.5,3.4-.3,3.9-.2,7.8,2.1,1.2,3.4,4-3.6,4.8v1.7l-.4.4-2.4,3.4-1.5,2.2-2.3,3.4h.2l6.6.8h.6l14.5-1.5.3,4.8.8,7,.7,3.4-4.8,9.3-1.4,2.9,5.9,5.3,1.5,1.3,5.4,4.6.5.2v-1.4l-.2-12.4,11.6-.2.2,14.2.4.5.6,1,.6,1h.5l2.6,4.3.7,2.8.5.4,1,2.6-.2.4.4,5.4,4.9-.3h1.4l.9,1.6,10.2,20.7.5,1.1.8,2.3.3,1.5.3,1.7,1.5,8.2.2,1,2.8,15.4.2,1.7v2.1c.1,0,.1,10.6.1,10.6.1,0,.3,2.1.3,2.1l1.7,14.2h.7c0,0,.5-.2.5-.2l58-23.2-1.2-2.7-2.2-4.8-3-6.6-1.3-2.7,4.3-1.7,2.7-1,.9-.3,2-.7-.7-3.5.2-.8v-.3l-.8-1.3-1.3-1.1-1.8-1.5h-.1c0,0-.4-.4-.4-.4h-.1c0,0-2.3-1.9-2.3-1.9l-6.1-5.8-1.2-4.1-.2-4.2-2.1-2.9-2.4-3.3-.2-.3h0c0,0-.6-1-.6-1l-3.3-3.4.2-6.2v-.7c.1,0,.3-.9.3-.9l.8-2.3v-.2l-.3-.4-6.1-2.5h-1l-.9-.2-.9-.4-1.1-1.3-1.3-2.1-.3-4.6v-4.8c.1,0-.8,0-.8,0l-.4-.4-.5-.6-.3-1.3-.3-2.4-2.4.2-1-1.2h0l-.4-.7-.2-.7-.3-.8-.7-1.4,1.2-1.3-.5-.8-.8-1.2.4-1.7.5-1.9,2.2-.2,3,.3,4.7-.2,5.2.2h1.4l6.8.6h12.1c0,0,7.8.2,7.8.2l2.3,5.5.4,2.8v2.4l1.4,4,1.9,2.7,1.3,1.9,2.2,2.7,1.3-.3.5-8,6.4-3.2,6.3-.4,1.4-.5,2.4-2.5.4-3.4-1-1-.4-3.2-25-20.3-2.7-6.2-.2-2-.7-4.1-3-5.4-2-5.8-5.6-9.3-6.9-7.5-3-4.4-1.4-2.4-1.9-4.1-1.7-6.3-.9-4.7-1.4-3.8-5.1-7.6-2.8-4.9-3.1-4.7,2.4-2.2.5-1.3,1.1-1.2-.3-.6v-.6l-.2-.3v-.3l-.2-.4h0v-.2h0v-.5l-.3.2h0l.4-.3h0c0,0-.3.1-.3.1h0l.3-.3-.3-.4-.3-.5v-.2l-.4.2h0l.4-.3h0v-.2h-.4.4v-.9h-.5c0,0,0,0,0,0h.2v-.2h0v-.2h-.1c0,0-.2,0-.2,0h0l.3-.2h0c0,0-.2-.3-.2-.3l-.2-.2-.2-.3v-.4c-.1,0-.3-.3-.3-.3v-.3c-.1,0-.2,0-.2,0h-.1c0,0-.1-.3-.1-.3h0v-.3c-.1,0-.1-.2-.1-.2h-.2c0,0-.2-.3-.2-.3l-.2-.4v-.3c-.1,0-.2-.2-.2-.2l-.3-.5-.2-.3h0c0,0-.1-.3-.1-.3h0v-.3h0v-.4l2.9-2.2.6-.8,1.7-.4.8-.4h.2l.5,1.2,5.6-1.4.8-.4,2.8.4h.4v-.5l1.2.2.5.8-.4,1.4.7,1v1.6c-.1,0,.3,1.6.3,1.6l2.6,1.2v1.6l.2,1.9.7,1.5.8.2,2.7,2.3.2.4.3.8,1.8,2.7,7.5.9-1.4-1.6-.8-.6h-.8l-.7-.6-3-1.6-.8-1.3.2-.4-1-1.3,2.9-6.1,1.1-14.9.7-1.7v-3.2c.1,0-.8-1.6-.8-1.6l.4-2.1.6-1.8-.5-.6h-.5l-.8-.9-.4-1.1-.3-.7-1.1-.3,3-.7,9.3-1.7,6.3-.5,7-4.3,4.8-2.5,7.6-1.2,2.4-5.2,2.8-.7h.7l.3.3-.2.2,1,.5h.8l.9-.3.8-.4.7-.8.7-.4,1-.8.3-.4h.6c0,.1-1.5,2.5-1.5,2.5l-1.2,2.7-5.8,3.5v.5l.7,1.2-1.1.7-.8.8-3.3,9.2,1.6,2,4.6-3.1,1.2,3.4,1.1,2.3-2.4,4.2,2.7,2.3,1.5-.2.4,1.5,1.8-.5h3.8c0,.1,3.8,1.1,3.8,1.1l2.7,1.8,2.1,1,3,1.7.9.7h.6l.2.4.5-.2h.9l1.5,1.2.3,3.4,1.5-.8,1.3-.8.7-.5,1.6-.8,2.4-1.2,4.9-2.7,1.2-.6,3.5-1.9.3-2v-.7c0,0,.4-.8.4-.8l.8-.4.4-.2.7-2.9v-2.1l-.2-1.4-1.4-2.9-.9-1.6-.8-1.6-1.1-2-2.2-1.8-.8-.7.7-1h.6c0-.1.2-.5.2-.5l-.2-.6-.8-.3-.6-.3-.2-.2v-.9l.2-.4.2-.4.3-1.1.7.2h.4l.7-.3.2-1.5.4-.2h2.8v.4l1.3.2v-.8c0,0,1.1-.3,1.1-.3l.6-.9v-.8l.2-.2v-2.1c0,0-.7-.7-.7-.7l-.7-.5-.5-.8-.7-.7-.6-.7-.7-.8.2-.2h0c0-.1,1.2-1.7,1.2-1.7v-1l-.8-.6-.2-.4.3-.7.2-.3.4-.5-1-.9-.5.2-.2-.8.4-.4-.2-3.2,2.5-.8-.5-1.3,1-.5-.2-.9,1.7-1.1,1.2-1.2.4-.8v-.3l1.7-.3.5.3,3.4,1.4,1.3.7,1,1.1,2,1.1,2.4,2.8,1.8,3-2.2,2.5,5,2.4,8.9,3.3,2.2.6h1.7l10.3-5.8,1.8-.8h.9l9.2.8.9.2.9-2,.7-1.9.2-2.6.6-3.7,3.6-1.3,9.9-1.9,1.8-.5,3.4-4.8.3-.4-4.4-5.3-.4-.9v-.2l-.4-.7-.2-.4v-.2l-.2-.2-.6-3.2v-4.5c0,0,0-.4,0-.4l.9-1.2.7-.4,3.7-1.3,3.1-.9,2.5-.7,6.3-2,.5-.2,3.1,2.6,2.4,2,1.1,1,1.3,1.2,6,2h.2l5,.8,6.1,1.1,1.2.2,3.8-2.2,2.8-2.3.6-1,.9-1.6,1.1-2.2.7-1.7.9-4.8-1.3-.8.2-.2,5.5-5.1.2-.2-.4-1v-.4l-.5-.5-.2-.4v-.2c0,0-.3-.2-.3-.2l-1.1-1.1-.9-1.1-.5-.7-.4-.5-.5-.6-.5-.5-.3-.4h-1.2c0,.1-.3.1-.3.1l-.9-.3-1.1-.4-1.3-.4-.5-.2h-.8l-.8-.3-1.1-.2h-.4l-.5-.2h-.3c0-.1-.3-.4-.3-.4l-.4-.3h-.6c0-.1-.2-.1-.2-.1l-.3-.3-.4-.4-.4-.3-.4-.4-.2-.3-.3-.2h-.5c0-.1-.3,0-.3,0l-.3.4-.4.5-.5.5v.4h0v.2h0l-.3-.2-.5-.3-.3-.2-1.1-.7-1.7-1.4-.9-.8-.5-.5h0v-.3l-.5-.5-.5-.5-1.4-1.5-.8-.8-1.5-1.8-1.4-.8h-.8v-.2c0,0-.4-.6-.4-.6l-1-1.8-.3-.5-.3-.3-.2-.4v-.9c0,0,.3-.3.3-.3l.2-.3.3-.3.5-.4,1.8-1.7,2.3-2.1.2-.3h0v-.5l-.8-.8v-.4c0,0,0-.2,0-.2v-.2c0,0,.4-.4.4-.4l1.8-1.7-.5-.8v-.5l-.4-.5-.8-.5.2-.4-.6-.3-.6-.5.2-.6h.2l.6-1,1.1-1.8-.5-.4-.8-.6-.9-.8-1-1.1-1.1-1.1-.8-.8-.7-.7-.4-.7-.2-.5-.2-.5-.2-.3-4.2-5.2-.2-.2h-.4l-.2.2-.4.3-.4.2-1,1-1.3-1-.5-.4-5.6-3.9-2.8-1.9v.3l-1-.7-2.8-1.9-1.2-.9-.8-1v-1.3l.2-1.7v-1.3l.3-2.5.4-.8-9.6-4.2-.8-.3-6.9-3.4-.9-.4-2.6-1.6-6.2-6.1-10.7-9.7-2.2-2,.9-.3,3.3-1,4-1.3,2.1-.8,3.8-2.4-2.4-2.5-1.6-1.6-.7-.6.2-.7,2.8-3.5-2-2.1,2.5-2.6-1.5-1.4-.8-.2-2.4.4-2.4.3h-1.1l-1.5.6h-1.1l-1,.3h-.6l-.5-.2-1,.9h0v-.2l-.2-.2,5.4-5.5,2.6-2.5,1.8-2.2-.6-1.2-3.6-4.6v-.4l.4-2.3.6-1.7,1.4-5.5.4-1.6,1.5.4,2.3.5,2.6.5,1.8.3.5-.7h1.1l2.5-.2.7-.3-4.7-9.7-.7-.2v-.9l-.9-1.4-.3.5-.5.5-.6,1-1,1-.8.8v.5l-1.3.5v-.3l-.6.2-1,.3-.3-.3-.6-2.2-1.2-4.8-.4-.6h-.3l-.7.2-2.8,1.3v.2l-.7.4.2.5v.2l-.8.2-.8-1.6-1.9.6v-.4c0,0-.3-.5-.3-.5l2.2-.8-1.9-4.5-.3-.5-1.3-6.2-.4-.7h-.6l-.5-1,.3-.5,2.5.3.8-1.5.4-.3,1.6-1.1,1.9-1.3h0l.7-.6.9-.4.2-.3-.3-1.2.3-.3v-.3h.3c0-.1.4.6.4.6v.6c0,0,0,.6,0,.6h.3c0-.1,1.9-.2,1.9-.2h2c0-.1.9-.1.9-.1,0-.1-.2-.4-.2-.4l-.4-.7-.2-.4v-.6c0,0-.3-.7-.3-.7h0c0-.1,0-.5,0-.5l-.4-1.2,1.6-1.1.3-.3,3.8-2.7,4.1-1.9-.6-1.8h.5c0-.1,1-.4,1-.4l.9-.2.6,1.4,2.4-1.1-.8-2.3.7-.7v-.2l-.5-.8.3-1-.6-.7v-.3l-2.2-2.2-1.2-.9-1-.8-1.5-1.4-1.2-1.2-.9-1.5h0l-.7-1.3-.3-.6-.9-1.5,2.8-.8,1.9-.5h.4l2.9-.6,1-.4,2.1-1.5,3.1-.6,2.6-1.2,4.9-2.1,1-1,6.3-3.5,4.1-2,2.4-1.3,2.6-1,5.9-1.7,2.5-.9,3.2-1.6h1c0,.1,1,0,1,0l1.8-.3,4.6-1.9,2.5-1.9,1.4-1.2,2.5-1.6,2.3-.7,4-1,3-.6,1.2-.4,1.8-1.2,1.1-.6,4.5-2.1-2.3-3.1v-2c0,0-.6-4.8-.6-4.8v-.8c0,0-1.1-6.9-1.1-6.9l-.6-5.2-1-7.1-1.1-8.1-1.3.2-2.8-1.1,1.3-3.1-1.1-.6.3-1.5-.4-.9.4-1.7v-.4l.5-.4h0l1.4-.4-.2-1.4-1.9-.4-2.8-2.6.5-1-7.1-3-7.1-3-3-1.3-1.5-1.2-1.6-1.8-2.4-2.7-.5-.8-.8-.3-.3-.2-.4-.5-.7-1.3-.8-1.6v-.5l-1.4-2.2-1.6.2-1.8-2.7-1.4-1.9-.6-.9-.4.5-1.6,2,1.1,1.9v.3c0,0-5.8,1.4-5.8,1.4l-8.3,2-1.2-3.4-2.6-7.6-1.5-4.2-4.7.5-3-.2-7.1.9-2.6-.9-.8-.3-15.2-5.7-1.3-.5-3.3-1.2-7.7-2.9-1.8-.6-1.4-.5-1.7-.8-1.9-.2-1.6-.2v.6l-.4.2-1.4.3-.6.7v.5c0,0,.5,1.1.5,1.1l.9,2.1.3.9.7.6v.3l1.2.7.6.9-9.1,13.5-4.9,7.9-1.2,2.5,2.2.6.8,1.3,2,16.8.5,4.4.6,4.6.5,3.7-12.3,1.3h-.3l-4.9.5-.9-3.4v-.4h0l-.3-5.9v-1.1l-.2-2.5-.6.4h0l-.2.2h-.2c0,0-.2.2-.2.2l-1,.6h0l-.5.3-1.8,1.1h0l-.8.5-.9.5-4,2.3-1.2.7-4.9,3-2.5,1.4-2.9,1.2-3.5,1.4-1.7.5-.6.2-.5.2-.8.2h-.4c0,.1-1.6-.5-1.6-.5l-1,.5-4.5,2.7-2.4,1.4-.6,1.6-.7,1.5-.2,2.2v1.9c0,0-.5,1.8-.5,1.8l-1.5,3.6-1.2,2.3-3,3.9-2,4.4-.2,2.4-.7,3.1-1,3.1-4.2-.7-26.7-.4-4.4-.4-13.6-1.1-20.8-1.3-2.1-.2-20.5-2.2-3.3-.3-.3-1.3-8.8-1-8.2-2.2-.5,1.1-.3.5-.3.7-.2.7-.2.7-.3.5-.4.4h-.2c0,.1-.3.2-.3.2h-.2v.3h.2c0,.1-.1.4-.1.4l-.4.2-.4.3-.4.4-.2.3-.2.4v.2l.2.3-.2.4v.9h0v.6l-.2,1.1v.3l.2.4.4.3.3.3v.2c.1,0,.2.3.2.3v.4c-.1,0-.2.5-.2.5v1.1l.2.2.2.5.2.4v.9h.2v1.3h0c0,.1.2.1.2.1h.2c0,.1.2.3.2.3l.2.2.2.2.2.2.2.3v.2h.3c0,.1.4.3.4.3h.6c0,.1.1.1.1.1v.2h.2c0,.1.2.1.2.1h.2l.4.2h.3c0,.1.3.2.3.2h.8l.3.4.4.4.3.2h.4c0,.1.2.1.2.1h.2l.9,1h-.1v.7l.2.2.4.3.5.4.4.5v.4c.1,0,.3.3.3.3l.3.3.2.5.2.3.4.3.2.4v.2h.2c0,.1.5.3.5.3h.2c0,.1.2.3.2.3l.5.5.4.7.2.7.3.7.7,1.1.6,1,.6,1.1.5.8.4.7v1c-.1,0-.1.3-.1.3l.2.3v.3c-.1,0-.5.7-.5.7l-.3.6-.2.4-.2.3v.9l-.2.6v.6h0c0,.1.4.6.4.6l-.2.7v.4c.1,0,0,.2,0,.2l-.2.4-1.4,1.3-3.9-.7-.9-.4-2.3-.2v-1.4l-.6-1.5-1-1.9-.6-1.1-.7-.5-.5-.7-1.5-2.4-.5-.7-1.1.2h-.7l-.5.2h-.5l-.9.2h-.8l-.3-.5h-.8c0-.1-1.5-.3-1.5-.3h-.3l-.6-.2h-.3c0-.1-.4-.2-.4-.2h-1.7l-3.2.4h-.2l-.4.6v1.9h-.3c0,.1-.4.1-.4.1,0-.1-.9-2.2-.9-2.2l-.2-.2-.4-1.2-.4-.4,2.9-3.5,1.6-4.1v-4c.1,0-.8-4.9-.8-4.9l-2.6-4.4-3.4-3.5-2.6-2.2-2.2-1.4-1.3-2-1.4-1.6-5.6-1.1-.6-.6-3.3-2.9-7.3-4.6-5.7-2.8-5.3-3.3-7.1-5.4-4.2-5.3-2.4-4.3-1.4-5.6-1.5-12.6-3.7-.5h-.3v-1c-.1,0-3.4-2.3-3.4-2.3l-3.8,2.1h-.1v-.6l-.7-.6,1.8-1.6-4-5.4h-2.4l-2.7.2h-6l-8.5.7-.9-8.6-.5-8.9-.2-3-.2-2.5-1,.7-6.2-1.2-1.4-.3-1.7-.3-7.8-1.5h-10.1l-8.9-.2h-8.5c0,0-8.9-.2-8.9-.2h-8.8c0,0-8.7-.3-8.7-.3h-8.6l-9-.2h-8.7c0,0-1.6,0-1.6,0h-7.2c0,0,0,1.2,0,1.2v6.4c-.1,0-.1,2.7-.1,2.7v13.4h-8.6c0,0-.7,0-.7,0h-8.3c0,0-8.8-.4-8.8-.4h-10l-35.1,5.8-2.1.3,3.7,1.6,8.7,3.8,2.9,1.4,2.7,1.5,5,2.6-.6,1,.3.4-1.2,1.6,7,6.5,2.9.5,4.5.6,4.2,2.5-.4,1.7h-1c0,.1-3.8-.1-3.8-.1v.6l-1.4-.5-.7-.9-2.2-.3-2.2.6.2,1.7h-1.1v.5c.1,0,.6.9.6.9h.4c0-.1.2.8.2.8l-1.1.6,1.3,1.9-1.3.2-1.2.4h0c0,.1,2.6,2.3,2.6,2.3l.6.5.2.2-.3.2-.9.8-1.3,1.3-.5.4-.5.4h-.2c0,.1-.3.2-.3.2h-1.1l-.6-.3-2-.8.2,2.2v1.2c.1,0,.2.8.2.8l.2,2.8-4.1-3.3-1.7-1.7-1.9-1.8-1.7-1.5-1.5-1.4-1.8-1.5-3.9-3.7-.9-.9-.3-.6h-.3v.3h-.5l-1.5.2-2.1.4-1,.4-.7.3-1.2.4-3.6,1.4-.8.2-3.6-2-.6,5.2,3.3,4,.4.4,1,1,.7.7,1.1,1h-.2v.2l-1.4.8,2.8,5.7.3.4-.7,6.1-.2,1.5v.5l-1.2,8.7-.2,2.3h-.2l-2.1-.9-.4,1.3h-1.7c0,.1-1.8.3-1.8.3l-5.2.5-1.2,2.8-1.3,2.9-.4,1v.3l.8,2.8-.5.5-.2.2-1.1,1.1-1.1,1.1-1.1,1.1-1.4-.2-2.2,2.6-.4.5-.4.5-1.1,1.3-.9.6-.7.5-.7-.7-.9,1.3-1.9.2h-.9l-.7.4-1.1.3-1.7-.6-1.8,1.1-.6,1-.5.9-2.4,1.4-.5.3-1.2.9-1.1,1.2h-.4l-.9,1.2-.2.7-.7,1.5-1,.4-1.1,1.4-1,2.6-2.4,3.8-.6,1.5-.4,1v.3c0,0,1.1,1.1,1.1,1.1l1.2,2.8,2.2,3.1,2,1.8,4.3,4,.4,1.1h.4l.2.3v1.2c0,0,0,3.1,0,3.1v3c0,0-1.6,2.1-1.6,2.1l-1,1.7-1.2,1.7-.6.8-.6.7-.4.5-.3.4h0l1.4,2.3-.7.9h0c0,.1-1.8,3.3-1.8,3.3l-1.5,2.8h-.3l-.2.2h0l.8.6v.2l-.6.9h-1.9c0-.1-.3,0-.3,0l-.5.2-.4.3-.9.7-.7.4-.4.3-.4.2h-.6l-1.5-.2h-.5c0,.1-.6,0-.6,0l-1.1-.4h-.9l-.3.3-.4.3-.4.6-.5,1.1-.4,1.3v1h0c0,.1-.3,2.6-.3,2.6l.2.4v.9l-.2.3v.6c0,0,0,0,0,0l.2.2.2,1.4v1c0,0-.3.4-.3.4v.2l-.3,2v.2c0,0-.4.5-.4.5l-.4.7-.2.3-.6,1.1-.3,1.9-.5,3.6.3.4.5.6,2.9,1.3,2.3.9,1.8.7,1.2,2.3,1,2.1-1,2.4-3.4,3-1,.9-1.4,2.3-.6.9-.7,1.5-.5.4-.7.6-1.5,1.1h0l-2.3,3.5-1.7,2.8-1.9,3.2v.4l-.2.7-1.4,2-.3.4-.2.2v.2c0,0-.7,2-.7,2l-.2.5-1,2.7-.2,1-.3,2.2v1c0,0,.8,2.8.8,2.8l1.7,1.6.4,1.8,1.8,3.4.9,1,.9,1,.7.6.4.9.2,1.2v2.2c0,0,.4,1.1.4,1.1l-.4,1.3v.6c0,0-3.7,1.6-3.7,1.6l-.8,4.8v2l-.6.4-1.4.8-.7.5-1.2,1.4-1.9,2.9-1.2,3.8-.2,4.8,1.4.9,1.6,1,1.4.9.5.4h.5l.7.8.9-.8,3,3.3,2.6-2.2,4.2-3.4,3-3.8,1.5-2.9.5-.9.4-.9h0l5.6-.3,1.6,1.2,9.1,7.8,1.4-1.3,1.4-1.3,1-1,3.1-3.2,1.3-1.3-1.8-1.8.4-1,.7-1.7,1.8-4.6.9-1.6,1.2-2.5.3-.8,1-2.6.6-2,.5-1.4.3-.8.2-.5.2-.6v-.9h0v-2.5l-.5-5,9.2,2.1,8.9,2,2.5.5,1.2.3,8.3,2.1,1.6.4,4.9,1.1,2,.5h8.4l.3-.3,1.6-.7,1.2-.4,5.5-1.8,5.2-1.2,10.1-1.6,2.2-.4h.3l.9-.2h2.1l2.1.2h.3l-.9-2.6h.1c0-.1.6-.6.6-.6l-.5-1.6v-.3l-.3-.2v-.3c-.1,0-.2-.3-.2-.3v-.2l-.2-.2v-.4l-.2-.2v-.4l.3-.6h.2l.2-.4v-1.4h2c0-.1.2,1.5.2,1.5h1v1.8h.3v5.7l.4,1,2.1.9h5.5v1.7l.2.8v.6h0v1.2c.1,0,.2.4.2.4v1.1c.1,0,.2,1.2.2,1.2v.8l.2,1.2v1.1c.1,0,.2.6.2.6v1.1l.2,1.4v.7h0v.4h0l.3,2.9v.9l.2.5v.5l.2.7.2.8.2.9v.4c.1,0,.4.8.4.8l.2.7.5,1.1.3.5h0c0,.1.4.9.4.9l.3.6.5,1,.6,1.2.7,1.3.4.8v.2c.1,0,.5.9.5.9l.8,1.6.9,1.8.6,1.1h0v.3c.1,0,.1.2.1.2v.8l-.6.2-.2.4.8,1.5.4.3h.7c0-.1,1,.9,1,.9M160.8,236.4h1.8l1.1,8.3-.8,3.9v.4c-.1,0-.8-.2-.8-.2l-.2.2v.6l1.4,3.7,3.5.9-1.2,5.5-3.3-.6.4-1.8-1.6-.4-.4,1.5v.2l-1.8-.5-1.3,2,.8,1-.8,1.2-3.6-2.5h0l-.7,1v.2c-.1,0-.2.1-.2.1l-.6.8-.3,1.3v1.3c-.1,0-4.1-1.1-4.1-1.1l-2-.3-3.9-1.1-.8-.2-.3-.7-2.3-.8h-.3c0-.1-.3-.3-.3-.3l-.5-.2-1.6-.7h-.2l-.3-.2-.5-.2-1.1-.5v-1.2l-.2-.6-.3-1.9-.5-3.4h-1.4l-.8-1.8h-.7c0,.1-.2-.7-.2-.7l.3-3.7v-.2l.4-.6.4-.7.2-.3.2-.2h0c0-.1.2-.6.2-.6l.2-.3.3-.3.3.2.5,1.1,5.8,4.4,2.9-.3,8.4-.9h.2l-.2-2.1,2.8.4v-3.9c.1,0,2.2-.2,2.2-.2v-1.1l.2-.7v-.3c.1,0,.3-1,.3-1h1l-.6,1.3.3,1.5,1.1.8.2-2.5h1.1c0,.1,1.9-.5,1.9-.5l.2-1.4M631.7,201.1l-4.3,1.5-3.2,1-1.7.8-2.4,1.6-2.5,1.5-2.1,2.4-4.1,1.4-5.5,1.1-2.6.9-.9.3-.7-5.9-1.5-13.7h.8l3.8-.5h.6c0-.1,2.4-.5,2.4-.5l5-.5,3-.6h1c0-.1,2.4-.3,2.4-.3l3.8-.5,1.4-.2,3.8-.6,1.6-.2,4.5-.6v2.5l.3,1.2v.3c0,0,0,.8,0,.8l.2,1,.4,1.8v.2c0,0,0,1,0,1l.2,1.4v.4h0l-3.7,1.4"/>
        </g>
      </g>
      <g id="PathCollection_1">
        <rect class="cls-1" x="24.5" y="93.2" width="505.8" height="441.7"/>
        <path id="m004b6bfbdf" class="cls-6" d="M364.2,313.5c1.4,0,2.7-.5,3.6-1.5,1-1,1.5-2.3,1.5-3.6s-.5-2.7-1.5-3.6c-1-1-2.3-1.5-3.6-1.5s-2.7.5-3.6,1.5c-1,1-1.5,2.3-1.5,3.6s.5,2.7,1.5,3.6c1,1,2.3,1.5,3.6,1.5Z"/>
      </g>
      <g id="PathCollection_3">
        <rect class="cls-1" x="24.5" y="93.2" width="505.8" height="441.7"/>
        <g>
          <path id="m384f6f5803" class="cls-2" d="M358.5,319.6c1.6,0,3.1-.6,4.3-1.8s1.8-2.7,1.8-4.3-.6-3.1-1.8-4.3-2.7-1.8-4.3-1.8-3.1.6-4.3,1.8-1.8,2.7-1.8,4.3.6,3.1,1.8,4.3,2.7,1.8,4.3,1.8Z"/>
          <path id="m384f6f5803-2" class="cls-2" d="M365.5,332.1c1.6,0,3.1-.6,4.3-1.8s1.8-2.7,1.8-4.3-.6-3.1-1.8-4.3-2.7-1.8-4.3-1.8-3.1.6-4.3,1.8-1.8,2.7-1.8,4.3.6,3.1,1.8,4.3,2.7,1.8,4.3,1.8Z"/>
          <path id="m384f6f5803-3" class="cls-2" d="M349.5,285.3c1.6,0,3.1-.6,4.3-1.8s1.8-2.7,1.8-4.3-.6-3.1-1.8-4.3-2.7-1.8-4.3-1.8-3.1.6-4.3,1.8-1.8,2.7-1.8,4.3.6,3.1,1.8,4.3,2.7,1.8,4.3,1.8Z"/>
        </g>
      </g>
      <g class="cls-10">
        <rect class="cls-1" x="24.5" y="93.2" width="505.8" height="441.7"/>
        <g>
          <path id="mfa10a22977" class="cls-3" d="M360.1,329.2c1.6,0,3.1-.6,4.3-1.8s1.8-2.7,1.8-4.3-.6-3.1-1.8-4.3-2.7-1.8-4.3-1.8-3.1.6-4.3,1.8-1.8,2.7-1.8,4.3.6,3.1,1.8,4.3,2.7,1.8,4.3,1.8Z"/>
          <path id="mfa10a22977-2" class="cls-3" d="M356.6,334.5c1.6,0,3.1-.6,4.3-1.8s1.8-2.7,1.8-4.3-.6-3.1-1.8-4.3-2.7-1.8-4.3-1.8-3.1.6-4.3,1.8-1.8,2.7-1.8,4.3.6,3.1,1.8,4.3,2.7,1.8,4.3,1.8Z"/>
          <path id="mfa10a22977-3" class="cls-3" d="M359.4,335.8c1.6,0,3.1-.6,4.3-1.8s1.8-2.7,1.8-4.3-.6-3.1-1.8-4.3-2.7-1.8-4.3-1.8-3.1.6-4.3,1.8-1.8,2.7-1.8,4.3.6,3.1,1.8,4.3,2.7,1.8,4.3,1.8Z"/>
          <path id="mfa10a22977-4" class="cls-3" d="M395.1,370.6c1.6,0,3.1-.6,4.3-1.8s1.8-2.7,1.8-4.3-.6-3.1-1.8-4.3-2.7-1.8-4.3-1.8-3.1.6-4.3,1.8-1.8,2.7-1.8,4.3.6,3.1,1.8,4.3,2.7,1.8,4.3,1.8Z"/>
          <path id="mfa10a22977-5" class="cls-3" d="M358.4,319.6c1.6,0,3.1-.6,4.3-1.8s1.8-2.7,1.8-4.3-.6-3.1-1.8-4.3-2.7-1.8-4.3-1.8-3.1.6-4.3,1.8-1.8,2.7-1.8,4.3.6,3.1,1.8,4.3,2.7,1.8,4.3,1.8Z"/>
          <path id="mfa10a22977-6" class="cls-3" d="M345.3,293.9c1.6,0,3.1-.6,4.3-1.8s1.8-2.7,1.8-4.3-.6-3.1-1.8-4.3-2.7-1.8-4.3-1.8-3.1.6-4.3,1.8-1.8,2.7-1.8,4.3.6,3.1,1.8,4.3,2.7,1.8,4.3,1.8Z"/>
          <path id="mfa10a22977-7" class="cls-3" d="M354.2,318.2c1.6,0,3.1-.6,4.3-1.8s1.8-2.7,1.8-4.3-.6-3.1-1.8-4.3-2.7-1.8-4.3-1.8-3.1.6-4.3,1.8-1.8,2.7-1.8,4.3.6,3.1,1.8,4.3,2.7,1.8,4.3,1.8Z"/>
          <path id="mfa10a22977-8" class="cls-3" d="M308.9,514.8c1.6,0,3.1-.6,4.3-1.8s1.8-2.7,1.8-4.3-.6-3.1-1.8-4.3-2.7-1.8-4.3-1.8-3.1.6-4.3,1.8-1.8,2.7-1.8,4.3.6,3.1,1.8,4.3c1.2,1.2,2.7,1.8,4.3,1.8Z"/>
          <path id="mfa10a22977-9" class="cls-3" d="M270.2,383.9c1.6,0,3.1-.6,4.3-1.8s1.8-2.7,1.8-4.3-.6-3.1-1.8-4.3-2.7-1.8-4.3-1.8-3.1.6-4.3,1.8-1.8,2.7-1.8,4.3.6,3.1,1.8,4.3,2.7,1.8,4.3,1.8Z"/>
          <path id="mfa10a22977-10" class="cls-3" d="M359.8,311.2c1.6,0,3.1-.6,4.3-1.8s1.8-2.7,1.8-4.3-.6-3.1-1.8-4.3-2.7-1.8-4.3-1.8-3.1.6-4.3,1.8-1.8,2.7-1.8,4.3.6,3.1,1.8,4.3,2.7,1.8,4.3,1.8Z"/>
          <path id="mfa10a22977-11" class="cls-3" d="M491.4,372.9c1.6,0,3.1-.6,4.3-1.8s1.8-2.7,1.8-4.3-.6-3.1-1.8-4.3-2.7-1.8-4.3-1.8-3.1.6-4.3,1.8-1.8,2.7-1.8,4.3.6,3.1,1.8,4.3,2.7,1.8,4.3,1.8Z"/>
          <path id="mfa10a22977-12" class="cls-3" d="M465.9,395.3c1.6,0,3.1-.6,4.3-1.8s1.8-2.7,1.8-4.3-.6-3.1-1.8-4.3-2.7-1.8-4.3-1.8-3.1.6-4.3,1.8-1.8,2.7-1.8,4.3.6,3.1,1.8,4.3,2.7,1.8,4.3,1.8Z"/>
          <path id="mfa10a22977-13" class="cls-3" d="M504.2,294.6c1.6,0,3.1-.6,4.3-1.8s1.8-2.7,1.8-4.3-.6-3.1-1.8-4.3-2.7-1.8-4.3-1.8-3.1.6-4.3,1.8-1.8,2.7-1.8,4.3.6,3.1,1.8,4.3,2.7,1.8,4.3,1.8Z"/>
          <path id="mfa10a22977-14" class="cls-3" d="M361.1,329.4c1.6,0,3.1-.6,4.3-1.8s1.8-2.7,1.8-4.3-.6-3.1-1.8-4.3-2.7-1.8-4.3-1.8-3.1.6-4.3,1.8-1.8,2.7-1.8,4.3.6,3.1,1.8,4.3,2.7,1.8,4.3,1.8Z"/>
          <path id="mfa10a22977-15" class="cls-3" d="M359,334.6c1.6,0,3.1-.6,4.3-1.8s1.8-2.7,1.8-4.3-.6-3.1-1.8-4.3-2.7-1.8-4.3-1.8-3.1.6-4.3,1.8-1.8,2.7-1.8,4.3.6,3.1,1.8,4.3,2.7,1.8,4.3,1.8Z"/>
          <path id="mfa10a22977-16" class="cls-3" d="M348.6,335.5c1.6,0,3.1-.6,4.3-1.8s1.8-2.7,1.8-4.3-.6-3.1-1.8-4.3-2.7-1.8-4.3-1.8-3.1.6-4.3,1.8-1.8,2.7-1.8,4.3.6,3.1,1.8,4.3,2.7,1.8,4.3,1.8Z"/>
          <path id="mfa10a22977-17" class="cls-3" d="M313.2,421.9c1.6,0,3.1-.6,4.3-1.8s1.8-2.7,1.8-4.3-.6-3.1-1.8-4.3-2.7-1.8-4.3-1.8-3.1.6-4.3,1.8-1.8,2.7-1.8,4.3.6,3.1,1.8,4.3,2.7,1.8,4.3,1.8Z"/>
          <path id="mfa10a22977-18" class="cls-3" d="M359.5,335c1.6,0,3.1-.6,4.3-1.8s1.8-2.7,1.8-4.3-.6-3.1-1.8-4.3-2.7-1.8-4.3-1.8-3.1.6-4.3,1.8-1.8,2.7-1.8,4.3.6,3.1,1.8,4.3,2.7,1.8,4.3,1.8Z"/>
          <path id="mfa10a22977-19" class="cls-3" d="M349.8,282.2c1.6,0,3.1-.6,4.3-1.8s1.8-2.7,1.8-4.3-.6-3.1-1.8-4.3-2.7-1.8-4.3-1.8-3.1.6-4.3,1.8-1.8,2.7-1.8,4.3.6,3.1,1.8,4.3,2.7,1.8,4.3,1.8Z"/>
          <path id="mfa10a22977-20" class="cls-3" d="M363.8,295.3c1.6,0,3.1-.6,4.3-1.8s1.8-2.7,1.8-4.3-.6-3.1-1.8-4.3-2.7-1.8-4.3-1.8-3.1.6-4.3,1.8-1.8,2.7-1.8,4.3.6,3.1,1.8,4.3,2.7,1.8,4.3,1.8Z"/>
          <path id="mfa10a22977-21" class="cls-3" d="M359.5,285.5c1.6,0,3.1-.6,4.3-1.8s1.8-2.7,1.8-4.3-.6-3.1-1.8-4.3-2.7-1.8-4.3-1.8-3.1.6-4.3,1.8-1.8,2.7-1.8,4.3.6,3.1,1.8,4.3,2.7,1.8,4.3,1.8Z"/>
          <path id="mfa10a22977-22" class="cls-3" d="M350.3,296.9c1.6,0,3.1-.6,4.3-1.8s1.8-2.7,1.8-4.3-.6-3.1-1.8-4.3-2.7-1.8-4.3-1.8-3.1.6-4.3,1.8-1.8,2.7-1.8,4.3.6,3.1,1.8,4.3,2.7,1.8,4.3,1.8Z"/>
          <path id="mfa10a22977-23" class="cls-3" d="M322.9,319.8c1.6,0,3.1-.6,4.3-1.8s1.8-2.7,1.8-4.3-.6-3.1-1.8-4.3-2.7-1.8-4.3-1.8-3.1.6-4.3,1.8-1.8,2.7-1.8,4.3.6,3.1,1.8,4.3,2.7,1.8,4.3,1.8Z"/>
          <path id="mfa10a22977-24" class="cls-3" d="M351.6,287.7c1.6,0,3.1-.6,4.3-1.8s1.8-2.7,1.8-4.3-.6-3.1-1.8-4.3-2.7-1.8-4.3-1.8-3.1.6-4.3,1.8-1.8,2.7-1.8,4.3.6,3.1,1.8,4.3,2.7,1.8,4.3,1.8Z"/>
          <path id="mfa10a22977-25" class="cls-3" d="M349.7,296.4c1.6,0,3.1-.6,4.3-1.8s1.8-2.7,1.8-4.3-.6-3.1-1.8-4.3-2.7-1.8-4.3-1.8-3.1.6-4.3,1.8-1.8,2.7-1.8,4.3.6,3.1,1.8,4.3,2.7,1.8,4.3,1.8Z"/>
          <path id="mfa10a22977-26" class="cls-3" d="M362.3,328.9c1.6,0,3.1-.6,4.3-1.8s1.8-2.7,1.8-4.3-.6-3.1-1.8-4.3-2.7-1.8-4.3-1.8-3.1.6-4.3,1.8-1.8,2.7-1.8,4.3.6,3.1,1.8,4.3,2.7,1.8,4.3,1.8Z"/>
          <path id="mfa10a22977-27" class="cls-3" d="M352.7,319.2c1.6,0,3.1-.6,4.3-1.8s1.8-2.7,1.8-4.3-.6-3.1-1.8-4.3-2.7-1.8-4.3-1.8-3.1.6-4.3,1.8-1.8,2.7-1.8,4.3.6,3.1,1.8,4.3,2.7,1.8,4.3,1.8Z"/>
          <path id="mfa10a22977-28" class="cls-3" d="M502.3,293.8c1.6,0,3.1-.6,4.3-1.8s1.8-2.7,1.8-4.3-.6-3.1-1.8-4.3-2.7-1.8-4.3-1.8-3.1.6-4.3,1.8-1.8,2.7-1.8,4.3.6,3.1,1.8,4.3,2.7,1.8,4.3,1.8Z"/>
          <path id="mfa10a22977-29" class="cls-3" d="M340.8,303.4c1.6,0,3.1-.6,4.3-1.8s1.8-2.7,1.8-4.3-.6-3.1-1.8-4.3-2.7-1.8-4.3-1.8-3.1.6-4.3,1.8-1.8,2.7-1.8,4.3.6,3.1,1.8,4.3,2.7,1.8,4.3,1.8Z"/>
          <path id="mfa10a22977-30" class="cls-3" d="M358.7,275.7c1.6,0,3.1-.6,4.3-1.8s1.8-2.7,1.8-4.3-.6-3.1-1.8-4.3-2.7-1.8-4.3-1.8-3.1.6-4.3,1.8-1.8,2.7-1.8,4.3.6,3.1,1.8,4.3,2.7,1.8,4.3,1.8Z"/>
          <path id="mfa10a22977-31" class="cls-3" d="M360.8,307.3c1.6,0,3.1-.6,4.3-1.8s1.8-2.7,1.8-4.3-.6-3.1-1.8-4.3-2.7-1.8-4.3-1.8-3.1.6-4.3,1.8-1.8,2.7-1.8,4.3.6,3.1,1.8,4.3,2.7,1.8,4.3,1.8Z"/>
          <path id="mfa10a22977-32" class="cls-3" d="M354.6,293.2c1.6,0,3.1-.6,4.3-1.8s1.8-2.7,1.8-4.3-.6-3.1-1.8-4.3-2.7-1.8-4.3-1.8-3.1.6-4.3,1.8-1.8,2.7-1.8,4.3.6,3.1,1.8,4.3,2.7,1.8,4.3,1.8Z"/>
          <path id="mfa10a22977-33" class="cls-3" d="M361.7,308c1.6,0,3.1-.6,4.3-1.8s1.8-2.7,1.8-4.3-.6-3.1-1.8-4.3-2.7-1.8-4.3-1.8-3.1.6-4.3,1.8-1.8,2.7-1.8,4.3.6,3.1,1.8,4.3,2.7,1.8,4.3,1.8Z"/>
          <path id="mfa10a22977-34" class="cls-3" d="M356.6,298.9c1.6,0,3.1-.6,4.3-1.8s1.8-2.7,1.8-4.3-.6-3.1-1.8-4.3-2.7-1.8-4.3-1.8-3.1.6-4.3,1.8-1.8,2.7-1.8,4.3.6,3.1,1.8,4.3,2.7,1.8,4.3,1.8Z"/>
          <path id="mfa10a22977-35" class="cls-3" d="M357.4,276.9c1.6,0,3.1-.6,4.3-1.8s1.8-2.7,1.8-4.3-.6-3.1-1.8-4.3-2.7-1.8-4.3-1.8-3.1.6-4.3,1.8-1.8,2.7-1.8,4.3.6,3.1,1.8,4.3,2.7,1.8,4.3,1.8Z"/>
          <path id="mfa10a22977-36" class="cls-3" d="M355.1,357.2c1.6,0,3.1-.6,4.3-1.8s1.8-2.7,1.8-4.3-.6-3.1-1.8-4.3-2.7-1.8-4.3-1.8-3.1.6-4.3,1.8-1.8,2.7-1.8,4.3.6,3.1,1.8,4.3,2.7,1.8,4.3,1.8Z"/>
          <path id="mfa10a22977-37" class="cls-3" d="M360,323.4c1.6,0,3.1-.6,4.3-1.8s1.8-2.7,1.8-4.3-.6-3.1-1.8-4.3-2.7-1.8-4.3-1.8-3.1.6-4.3,1.8-1.8,2.7-1.8,4.3.6,3.1,1.8,4.3,2.7,1.8,4.3,1.8Z"/>
          <path id="mfa10a22977-38" class="cls-3" d="M299.5,312.3c1.6,0,3.1-.6,4.3-1.8s1.8-2.7,1.8-4.3-.6-3.1-1.8-4.3-2.7-1.8-4.3-1.8-3.1.6-4.3,1.8-1.8,2.7-1.8,4.3.6,3.1,1.8,4.3,2.7,1.8,4.3,1.8Z"/>
          <path id="mfa10a22977-39" class="cls-3" d="M317.9,351.3c1.6,0,3.1-.6,4.3-1.8s1.8-2.7,1.8-4.3-.6-3.1-1.8-4.3-2.7-1.8-4.3-1.8-3.1.6-4.3,1.8-1.8,2.7-1.8,4.3.6,3.1,1.8,4.3,2.7,1.8,4.3,1.8Z"/>
          <path id="mfa10a22977-40" class="cls-3" d="M375.9,336.4c1.6,0,3.1-.6,4.3-1.8s1.8-2.7,1.8-4.3-.6-3.1-1.8-4.3-2.7-1.8-4.3-1.8-3.1.6-4.3,1.8-1.8,2.7-1.8,4.3.6,3.1,1.8,4.3,2.7,1.8,4.3,1.8Z"/>
          <path id="mfa10a22977-41" class="cls-3" d="M477.7,401.3c1.6,0,3.1-.6,4.3-1.8s1.8-2.7,1.8-4.3-.6-3.1-1.8-4.3-2.7-1.8-4.3-1.8-3.1.6-4.3,1.8-1.8,2.7-1.8,4.3.6,3.1,1.8,4.3,2.7,1.8,4.3,1.8Z"/>
          <path id="mfa10a22977-42" class="cls-3" d="M372,337.3c1.6,0,3.1-.6,4.3-1.8s1.8-2.7,1.8-4.3-.6-3.1-1.8-4.3-2.7-1.8-4.3-1.8-3.1.6-4.3,1.8-1.8,2.7-1.8,4.3.6,3.1,1.8,4.3,2.7,1.8,4.3,1.8Z"/>
          <path id="mfa10a22977-43" class="cls-3" d="M385.1,348.9c1.6,0,3.1-.6,4.3-1.8s1.8-2.7,1.8-4.3-.6-3.1-1.8-4.3-2.7-1.8-4.3-1.8-3.1.6-4.3,1.8-1.8,2.7-1.8,4.3.6,3.1,1.8,4.3,2.7,1.8,4.3,1.8Z"/>
          <path id="mfa10a22977-44" class="cls-3" d="M366.7,321.6c1.6,0,3.1-.6,4.3-1.8s1.8-2.7,1.8-4.3-.6-3.1-1.8-4.3-2.7-1.8-4.3-1.8-3.1.6-4.3,1.8-1.8,2.7-1.8,4.3.6,3.1,1.8,4.3,2.7,1.8,4.3,1.8Z"/>
          <path id="mfa10a22977-45" class="cls-3" d="M357.5,363.6c1.6,0,3.1-.6,4.3-1.8s1.8-2.7,1.8-4.3-.6-3.1-1.8-4.3-2.7-1.8-4.3-1.8-3.1.6-4.3,1.8-1.8,2.7-1.8,4.3.6,3.1,1.8,4.3,2.7,1.8,4.3,1.8Z"/>
          <path id="mfa10a22977-46" class="cls-3" d="M361.2,288.3c1.6,0,3.1-.6,4.3-1.8s1.8-2.7,1.8-4.3-.6-3.1-1.8-4.3-2.7-1.8-4.3-1.8-3.1.6-4.3,1.8-1.8,2.7-1.8,4.3.6,3.1,1.8,4.3,2.7,1.8,4.3,1.8Z"/>
          <path id="mfa10a22977-47" class="cls-3" d="M340.7,304.4c1.6,0,3.1-.6,4.3-1.8s1.8-2.7,1.8-4.3-.6-3.1-1.8-4.3-2.7-1.8-4.3-1.8-3.1.6-4.3,1.8-1.8,2.7-1.8,4.3.6,3.1,1.8,4.3,2.7,1.8,4.3,1.8Z"/>
          <path id="mfa10a22977-48" class="cls-3" d="M354.3,350c1.6,0,3.1-.6,4.3-1.8s1.8-2.7,1.8-4.3-.6-3.1-1.8-4.3-2.7-1.8-4.3-1.8-3.1.6-4.3,1.8-1.8,2.7-1.8,4.3.6,3.1,1.8,4.3,2.7,1.8,4.3,1.8Z"/>
          <path id="mfa10a22977-49" class="cls-3" d="M287,437.7c1.6,0,3.1-.6,4.3-1.8s1.8-2.7,1.8-4.3-.6-3.1-1.8-4.3-2.7-1.8-4.3-1.8-3.1.6-4.3,1.8-1.8,2.7-1.8,4.3.6,3.1,1.8,4.3,2.7,1.8,4.3,1.8Z"/>
          <path id="mfa10a22977-50" class="cls-3" d="M355.2,339.6c1.6,0,3.1-.6,4.3-1.8s1.8-2.7,1.8-4.3-.6-3.1-1.8-4.3-2.7-1.8-4.3-1.8-3.1.6-4.3,1.8-1.8,2.7-1.8,4.3.6,3.1,1.8,4.3,2.7,1.8,4.3,1.8Z"/>
          <path id="mfa10a22977-51" class="cls-3" d="M333.5,316.8c1.6,0,3.1-.6,4.3-1.8s1.8-2.7,1.8-4.3-.6-3.1-1.8-4.3-2.7-1.8-4.3-1.8-3.1.6-4.3,1.8-1.8,2.7-1.8,4.3.6,3.1,1.8,4.3,2.7,1.8,4.3,1.8Z"/>
          <path id="mfa10a22977-52" class="cls-3" d="M490.8,373.7c1.6,0,3.1-.6,4.3-1.8s1.8-2.7,1.8-4.3-.6-3.1-1.8-4.3-2.7-1.8-4.3-1.8-3.1.6-4.3,1.8-1.8,2.7-1.8,4.3.6,3.1,1.8,4.3,2.7,1.8,4.3,1.8Z"/>
          <path id="mfa10a22977-53" class="cls-3" d="M476.1,335c1.6,0,3.1-.6,4.3-1.8s1.8-2.7,1.8-4.3-.6-3.1-1.8-4.3-2.7-1.8-4.3-1.8-3.1.6-4.3,1.8-1.8,2.7-1.8,4.3.6,3.1,1.8,4.3,2.7,1.8,4.3,1.8Z"/>
          <path id="mfa10a22977-54" class="cls-3" d="M308.9,312.8c1.6,0,3.1-.6,4.3-1.8s1.8-2.7,1.8-4.3-.6-3.1-1.8-4.3-2.7-1.8-4.3-1.8-3.1.6-4.3,1.8-1.8,2.7-1.8,4.3.6,3.1,1.8,4.3,2.7,1.8,4.3,1.8Z"/>
          <path id="mfa10a22977-55" class="cls-3" d="M344,360.3c1.6,0,3.1-.6,4.3-1.8s1.8-2.7,1.8-4.3-.6-3.1-1.8-4.3-2.7-1.8-4.3-1.8-3.1.6-4.3,1.8-1.8,2.7-1.8,4.3.6,3.1,1.8,4.3,2.7,1.8,4.3,1.8Z"/>
          <path id="mfa10a22977-56" class="cls-3" d="M357.4,332.1c1.6,0,3.1-.6,4.3-1.8s1.8-2.7,1.8-4.3-.6-3.1-1.8-4.3-2.7-1.8-4.3-1.8-3.1.6-4.3,1.8-1.8,2.7-1.8,4.3.6,3.1,1.8,4.3,2.7,1.8,4.3,1.8Z"/>
        </g>
      </g>
      <g id="PathCollection_5">
        <rect class="cls-1" x="24.5" y="93.2" width="505.8" height="441.7"/>
        <path id="m849ba914e8" class="cls-4" d="M336.1,199.4c1.6,0,3.1-.6,4.3-1.8s1.8-2.7,1.8-4.3-.6-3.1-1.8-4.3-2.7-1.8-4.3-1.8-3.1.6-4.3,1.8-1.8,2.7-1.8,4.3.6,3.1,1.8,4.3,2.7,1.8,4.3,1.8Z"/>
      </g>
      <g id="text_1">
        <g>
          <path id="DejaVuSans-53" d="M378.1,295.5v1.3c-.5-.2-1-.4-1.4-.5-.5-.1-.9-.2-1.3-.2-.7,0-1.3.1-1.7.4-.4.3-.6.7-.6,1.2s.1.8.4,1,.8.4,1.5.5l.8.2c1,.2,1.7.5,2.2,1s.7,1.1.7,1.9-.3,1.7-1,2.2c-.6.5-1.6.7-2.8.7s-1,0-1.5-.2c-.5-.1-1.1-.3-1.7-.5v-1.4c.5.3,1.1.5,1.6.7s1,.2,1.5.2c.8,0,1.4-.2,1.8-.5s.6-.7.6-1.3-.2-.9-.5-1.1-.8-.5-1.5-.6l-.8-.2c-1-.2-1.7-.5-2.2-.9-.4-.4-.7-1-.7-1.8s.3-1.6.9-2.1,1.5-.8,2.6-.8.9,0,1.4.1c.5,0,1,.2,1.5.4l.2.3Z"/>
          <path id="DejaVuSans-74" d="M382,295.6v2.1h2.5v1h-2.5v4.1c0,.6,0,1,.3,1.2s.5.3,1,.3h1.3v1h-1.3c-.9,0-1.6-.2-2-.5-.4-.4-.5-1-.5-1.9v-4.1h-.9v-1h.9v-2.1h1.2Z"/>
          <path id="DejaVuSans-2e" d="M386.3,303.5h1.4v1.7h-1.4v-1.7Z"/>
          <path id="DejaVuSans-20" d="M389.2,305.2"/>
          <path id="DejaVuSans-53-2" d="M400.8,295.5v1.3c-.5-.2-1-.4-1.4-.5-.5-.1-.9-.2-1.3-.2-.7,0-1.3.1-1.7.4-.4.3-.6.7-.6,1.2s.1.8.4,1,.8.4,1.5.5l.8.2c1,.2,1.7.5,2.2,1s.7,1.1.7,1.9-.3,1.7-1,2.2c-.6.5-1.6.7-2.8.7s-1,0-1.5-.2c-.5-.1-1.1-.3-1.7-.5v-1.4c.5.3,1.1.5,1.6.7s1,.2,1.5.2c.8,0,1.4-.2,1.8-.5s.6-.7.6-1.3-.2-.9-.5-1.1-.8-.5-1.5-.6l-.8-.2c-1-.2-1.7-.5-2.2-.9-.4-.4-.7-1-.7-1.8s.3-1.6.9-2.1,1.5-.8,2.6-.8.9,0,1.4.1c.5,0,1,.2,1.5.4l.2.3Z"/>
          <path id="DejaVuSans-6f" d="M406.4,298.6c-.7,0-1.2.3-1.6.8s-.6,1.2-.6,2.1.2,1.6.6,2.1.9.8,1.6.8,1.2-.3,1.6-.8.6-1.2.6-2.1-.2-1.6-.6-2.1-.9-.8-1.6-.8ZM406.4,297.5c1.1,0,1.9.3,2.5,1s.9,1.7.9,2.9-.3,2.2-.9,2.9c-.6.7-1.4,1-2.5,1s-1.9-.3-2.5-1-.9-1.7-.9-2.9.3-2.2.9-2.9c.6-.7,1.4-1,2.5-1Z"/>
          <path id="DejaVuSans-70" d="M413.1,304.1v4h-1.2v-10.3h1.2v1.1c.3-.4.6-.8,1-1s.9-.3,1.4-.3c.9,0,1.6.4,2.2,1.1s.9,1.7.9,2.8-.3,2.1-.9,2.8c-.6.7-1.3,1.1-2.2,1.1s-1-.1-1.4-.3c-.4-.2-.7-.5-1-1h0ZM417.2,301.5c0-.9-.2-1.6-.6-2.1s-.9-.8-1.5-.8-1.2.3-1.5.8-.6,1.2-.6,2.1.2,1.6.6,2.1.9.8,1.5.8,1.2-.3,1.5-.8c.4-.5.6-1.2.6-2.1Z"/>
          <path id="DejaVuSans-68" d="M426.8,300.7v4.5h-1.2v-4.5c0-.7-.1-1.2-.4-1.6s-.7-.5-1.2-.5-1.2.2-1.6.6-.6,1-.6,1.7v4.2h-1.2v-10.4h1.2v4.1c.3-.5.6-.8,1-1s.9-.3,1.4-.3c.9,0,1.5.3,1.9.8s.7,1.3.7,2.3h0Z"/>
          <path id="DejaVuSans-69" d="M429.2,297.7h1.2v7.5h-1.2v-7.5ZM429.2,294.8h1.2v1.6h-1.2v-1.6Z"/>
          <path id="DejaVuSans-61" d="M436.4,301.4c-1,0-1.7.1-2.1.3s-.6.6-.6,1.2.1.8.4,1c.3.3.7.4,1.2.4s1.2-.2,1.6-.7.6-1.1.6-1.9v-.3h-1.2.1ZM438.9,300.9v4.3h-1.2v-1.1c-.3.5-.6.8-1,1s-.9.3-1.5.3-1.4-.2-1.8-.6c-.5-.4-.7-1-.7-1.7s.3-1.5.8-1.9c.6-.4,1.4-.6,2.5-.6h1.7c0-.7-.2-1.1-.6-1.4s-.9-.5-1.6-.5-.8,0-1.3.2c-.4.1-.8.3-1.2.5v-1.1c.4-.2.9-.3,1.3-.4.4,0,.8-.1,1.2-.1,1.1,0,1.9.3,2.4.8.5.6.8,1.4.8,2.6l.2-.3Z"/>
          <path id="DejaVuSans-20-2" d="M440.1,305.2"/>
          <path id="DejaVuSans-43" d="M453.3,296v1.4c-.5-.4-.9-.7-1.5-.9-.5-.2-1.1-.3-1.6-.3-1.1,0-2,.3-2.6,1s-.9,1.7-.9,3,.3,2.3.9,3,1.5,1,2.6,1,1.1-.1,1.6-.3,1-.5,1.5-.9v1.4c-.5.3-1,.6-1.5.7-.5.2-1.1.2-1.7.2-1.5,0-2.7-.5-3.6-1.4s-1.3-2.2-1.3-3.8.4-2.9,1.3-3.8,2.1-1.4,3.6-1.4,1.2,0,1.7.2,1,.4,1.5.7v.2Z"/>
          <path id="DejaVuSans-61-2" d="M458.7,301.4c-1,0-1.7.1-2.1.3s-.6.6-.6,1.2.1.8.4,1c.3.3.7.4,1.2.4s1.2-.2,1.6-.7.6-1.1.6-1.9v-.3h-1.2.1ZM461.2,300.9v4.3h-1.2v-1.1c-.3.5-.6.8-1,1s-.9.3-1.5.3-1.4-.2-1.8-.6c-.5-.4-.7-1-.7-1.7s.3-1.5.8-1.9c.6-.4,1.4-.6,2.5-.6h1.7c0-.7-.2-1.1-.6-1.4s-.9-.5-1.6-.5-.8,0-1.3.2c-.4.1-.8.3-1.2.5v-1.1c.4-.2.9-.3,1.3-.4.4,0,.8-.1,1.2-.1,1.1,0,1.9.3,2.4.8.5.6.8,1.4.8,2.6l.2-.3Z"/>
          <path id="DejaVuSans-74-2" d="M464.9,295.6v2.1h2.5v1h-2.5v4.1c0,.6,0,1,.3,1.2s.5.3,1,.3h1.3v1h-1.3c-.9,0-1.6-.2-2-.5-.4-.4-.5-1-.5-1.9v-4.1h-.9v-1h.9v-2.1h1.2Z"/>
          <path id="DejaVuSans-68-2" d="M475.3,300.7v4.5h-1.2v-4.5c0-.7-.1-1.2-.4-1.6s-.7-.5-1.2-.5-1.2.2-1.6.6-.6,1-.6,1.7v4.2h-1.2v-10.4h1.2v4.1c.3-.5.6-.8,1-1s.9-.3,1.4-.3c.9,0,1.5.3,1.9.8s.7,1.3.7,2.3h0Z"/>
          <path id="DejaVuSans-65" d="M484.1,301.1v.6h-5.7c0,.8.3,1.5.8,1.9s1.1.7,1.9.7.9,0,1.4-.2.9-.3,1.3-.5v1.2c-.4.2-.9.3-1.4.4s-.9.1-1.4.1c-1.2,0-2.1-.3-2.8-1-.7-.7-1-1.6-1-2.8s.3-2.2,1-2.9c.7-.7,1.6-1.1,2.7-1.1s1.8.3,2.4,1c.6.6.9,1.5.9,2.6h0ZM482.9,300.8c0-.7-.2-1.2-.6-1.6s-.9-.6-1.5-.6-1.2.2-1.6.6-.6.9-.7,1.6h4.4Z"/>
          <path id="DejaVuSans-64" d="M491.1,298.8v-4h1.2v10.4h-1.2v-1.1c-.3.4-.6.8-1,1s-.9.3-1.4.3c-.9,0-1.6-.4-2.2-1.1s-.9-1.7-.9-2.8.3-2.1.9-2.8c.6-.7,1.3-1.1,2.2-1.1s1,.1,1.4.3c.4.2.7.5,1,1h0ZM486.9,301.5c0,.9.2,1.6.6,2.1s.9.8,1.5.8,1.2-.3,1.5-.8c.4-.5.6-1.2.6-2.1s-.2-1.6-.6-2.1-.9-.8-1.5-.8-1.2.3-1.5.8-.6,1.2-.6,2.1Z"/>
          <path id="DejaVuSans-72" d="M499.2,298.9c-.1,0-.3-.1-.5-.2h-.5c-.7,0-1.2.2-1.6.7s-.6,1.1-.6,1.9v3.9h-1.2v-7.5h1.2v1.2c.3-.5.6-.8,1-1s.9-.3,1.5-.3.2,0,.3,0h.3v1.3h.1Z"/>
          <path id="DejaVuSans-61-3" d="M503.8,301.4c-1,0-1.7.1-2.1.3s-.6.6-.6,1.2.1.8.4,1c.3.3.7.4,1.2.4s1.2-.2,1.6-.7.6-1.1.6-1.9v-.3h-1.2.1ZM506.3,300.9v4.3h-1.2v-1.1c-.3.5-.6.8-1,1s-.9.3-1.5.3-1.4-.2-1.8-.6c-.5-.4-.7-1-.7-1.7s.3-1.5.8-1.9c.6-.4,1.4-.6,2.5-.6h1.7c0-.7-.2-1.1-.6-1.4s-.9-.5-1.6-.5-.8,0-1.3.2c-.4.1-.8.3-1.2.5v-1.1c.4-.2.9-.3,1.3-.4.4,0,.8-.1,1.2-.1,1.1,0,1.9.3,2.4.8.5.6.8,1.4.8,2.6l.2-.3Z"/>
          <path id="DejaVuSans-6c" d="M508.8,294.8h1.2v10.4h-1.2v-10.4Z"/>
        </g>
      </g>
      <g id="text_2">
        <g>
          <path id="DejaVuSans-49" d="M377.2,306.4h1.3v10h-1.3v-10Z"/>
          <path id="DejaVuSans-6e" d="M387.4,311.8v4.5h-1.2v-4.5c0-.7-.1-1.2-.4-1.6s-.7-.5-1.2-.5-1.2.2-1.6.6-.6,1-.6,1.7v4.2h-1.2v-7.5h1.2v1.2c.3-.5.6-.8,1-1s.9-.3,1.4-.3c.9,0,1.5.3,1.9.8s.7,1.3.7,2.3h0Z"/>
          <path id="DejaVuSans-64-2" d="M394.8,310v-4h1.2v10.4h-1.2v-1.1c-.3.4-.6.8-1,1s-.9.3-1.4.3c-.9,0-1.6-.4-2.2-1.1s-.9-1.7-.9-2.8.3-2.1.9-2.8c.6-.7,1.3-1.1,2.2-1.1s1,.1,1.4.3c.4.2.7.5,1,1h0ZM390.6,312.6c0,.9.2,1.6.6,2.1s.9.8,1.5.8,1.2-.3,1.5-.8c.4-.5.6-1.2.6-2.1s-.2-1.6-.6-2.1-.9-.8-1.5-.8-1.2.3-1.5.8-.6,1.2-.6,2.1Z"/>
          <path id="DejaVuSans-65-2" d="M404.9,312.3v.6h-5.7c0,.8.3,1.5.8,1.9s1.1.7,1.9.7.9,0,1.4-.2.9-.3,1.3-.5v1.2c-.4.2-.9.3-1.4.4s-.9.1-1.4.1c-1.2,0-2.1-.3-2.8-1-.7-.7-1-1.6-1-2.8s.3-2.2,1-2.9c.7-.7,1.6-1.1,2.7-1.1s1.8.3,2.4,1c.6.6.9,1.5.9,2.6h0ZM403.7,311.9c0-.7-.2-1.2-.6-1.6s-.9-.6-1.5-.6-1.2.2-1.6.6-.6.9-.7,1.6h4.4Z"/>
          <path id="DejaVuSans-70-2" d="M408.1,315.2v4h-1.2v-10.3h1.2v1.1c.3-.4.6-.8,1-1s.9-.3,1.4-.3c.9,0,1.6.4,2.2,1.1s.9,1.7.9,2.8-.3,2.1-.9,2.8c-.6.7-1.3,1.1-2.2,1.1s-1-.1-1.4-.3c-.4-.2-.7-.5-1-1h0ZM412.3,312.6c0-.9-.2-1.6-.6-2.1s-.9-.8-1.5-.8-1.2.3-1.5.8-.6,1.2-.6,2.1.2,1.6.6,2.1.9.8,1.5.8,1.2-.3,1.5-.8c.4-.5.6-1.2.6-2.1Z"/>
          <path id="DejaVuSans-65-3" d="M422,312.3v.6h-5.7c0,.8.3,1.5.8,1.9s1.1.7,1.9.7.9,0,1.4-.2.9-.3,1.3-.5v1.2c-.4.2-.9.3-1.4.4s-.9.1-1.4.1c-1.2,0-2.1-.3-2.8-1-.7-.7-1-1.6-1-2.8s.3-2.2,1-2.9c.7-.7,1.6-1.1,2.7-1.1s1.8.3,2.4,1c.6.6.9,1.5.9,2.6h0ZM420.8,311.9c0-.7-.2-1.2-.6-1.6s-.9-.6-1.5-.6-1.2.2-1.6.6-.6.9-.7,1.6h4.4Z"/>
          <path id="DejaVuSans-6e-2" d="M430.3,311.8v4.5h-1.2v-4.5c0-.7-.1-1.2-.4-1.6s-.7-.5-1.2-.5-1.2.2-1.6.6-.6,1-.6,1.7v4.2h-1.2v-7.5h1.2v1.2c.3-.5.6-.8,1-1s.9-.3,1.4-.3c.9,0,1.5.3,1.9.8s.7,1.3.7,2.3h0Z"/>
          <path id="DejaVuSans-64-3" d="M437.6,310v-4h1.2v10.4h-1.2v-1.1c-.3.4-.6.8-1,1s-.9.3-1.4.3c-.9,0-1.6-.4-2.2-1.1s-.9-1.7-.9-2.8.3-2.1.9-2.8c.6-.7,1.3-1.1,2.2-1.1s1,.1,1.4.3c.4.2.7.5,1,1h0ZM433.5,312.6c0,.9.2,1.6.6,2.1s.9.8,1.5.8,1.2-.3,1.5-.8c.4-.5.6-1.2.6-2.1s-.2-1.6-.6-2.1-.9-.8-1.5-.8-1.2.3-1.5.8-.6,1.2-.6,2.1Z"/>
          <path id="DejaVuSans-65-4" d="M447.8,312.3v.6h-5.7c0,.8.3,1.5.8,1.9s1.1.7,1.9.7.9,0,1.4-.2.9-.3,1.3-.5v1.2c-.4.2-.9.3-1.4.4s-.9.1-1.4.1c-1.2,0-2.1-.3-2.8-1-.7-.7-1-1.6-1-2.8s.3-2.2,1-2.9c.7-.7,1.6-1.1,2.7-1.1s1.8.3,2.4,1c.6.6.9,1.5.9,2.6h0ZM446.6,311.9c0-.7-.2-1.2-.6-1.6s-.9-.6-1.5-.6-1.2.2-1.6.6-.6.9-.7,1.6h4.4Z"/>
          <path id="DejaVuSans-6e-3" d="M456,311.8v4.5h-1.2v-4.5c0-.7-.1-1.2-.4-1.6s-.7-.5-1.2-.5-1.2.2-1.6.6-.6,1-.6,1.7v4.2h-1.2v-7.5h1.2v1.2c.3-.5.6-.8,1-1s.9-.3,1.4-.3c.9,0,1.5.3,1.9.8s.7,1.3.7,2.3h0Z"/>
          <path id="DejaVuSans-63" d="M463.9,309.2v1.1c-.3-.2-.7-.3-1-.4s-.7-.1-1.1-.1c-.8,0-1.4.3-1.9.8-.4.5-.7,1.2-.7,2.1s.2,1.6.7,2.1c.4.5,1.1.8,1.9.8s.7,0,1.1-.1.7-.2,1-.4v1.1c-.3.2-.7.3-1.1.4-.4,0-.8.1-1.2.1-1.1,0-2-.4-2.7-1.1s-1-1.7-1-2.9.3-2.2,1-2.9c.7-.7,1.6-1,2.8-1s.7,0,1.1.1c.4,0,.7.2,1,.3h.1Z"/>
          <path id="DejaVuSans-65-5" d="M472.4,312.3v.6h-5.7c0,.8.3,1.5.8,1.9s1.1.7,1.9.7.9,0,1.4-.2.9-.3,1.3-.5v1.2c-.4.2-.9.3-1.4.4s-.9.1-1.4.1c-1.2,0-2.1-.3-2.8-1-.7-.7-1-1.6-1-2.8s.3-2.2,1-2.9c.7-.7,1.6-1.1,2.7-1.1s1.8.3,2.4,1c.6.6.9,1.5.9,2.6h0ZM471.2,311.9c0-.7-.2-1.2-.6-1.6s-.9-.6-1.5-.6-1.2.2-1.6.6-.6.9-.7,1.6h4.4Z"/>
          <path id="DejaVuSans-20-3" d="M473.1,316.4"/>
          <path id="DejaVuSans-53-3" d="M484.8,306.7v1.3c-.5-.2-1-.4-1.4-.5-.5-.1-.9-.2-1.3-.2-.7,0-1.3.1-1.7.4-.4.3-.6.7-.6,1.2s.1.8.4,1,.8.4,1.5.5l.8.2c1,.2,1.7.5,2.2,1s.7,1.1.7,1.9-.3,1.7-1,2.2c-.6.5-1.6.7-2.8.7s-1,0-1.5-.2c-.5-.1-1.1-.3-1.7-.5v-1.4c.5.3,1.1.5,1.6.7s1,.2,1.5.2c.8,0,1.4-.2,1.8-.5s.6-.7.6-1.3-.2-.9-.5-1.1-.8-.5-1.5-.6l-.8-.2c-1-.2-1.7-.5-2.2-.9-.4-.4-.7-1-.7-1.8s.3-1.6.9-2.1,1.5-.8,2.6-.8.9,0,1.4.1c.5,0,1,.2,1.5.4l.2.3Z"/>
          <path id="DejaVuSans-71" d="M488.2,312.6c0,.9.2,1.6.6,2.1s.9.8,1.5.8,1.2-.3,1.5-.8c.4-.5.6-1.2.6-2.1s-.2-1.6-.6-2.1-.9-.8-1.5-.8-1.2.3-1.5.8-.6,1.2-.6,2.1ZM492.4,315.2c-.3.4-.6.8-1,1s-.9.3-1.4.3c-.9,0-1.6-.4-2.2-1.1s-.9-1.7-.9-2.8.3-2.1.9-2.8c.6-.7,1.3-1.1,2.2-1.1s1,.1,1.4.3c.4.2.7.5,1,1v-1.1h1.2v10.3h-1.2v-4h0Z"/>
          <path id="DejaVuSans-75" d="M496,313.4v-4.5h1.2v4.5c0,.7.1,1.2.4,1.6s.7.5,1.2.5,1.2-.2,1.6-.6.6-1,.6-1.7v-4.2h1.2v7.5h-1.2v-1.1c-.3.5-.6.8-1,1s-.9.3-1.4.3c-.9,0-1.5-.3-2-.8-.4-.5-.7-1.3-.7-2.3v-.2ZM499.1,308.7h0Z"/>
          <path id="DejaVuSans-61-4" d="M508.2,312.6c-1,0-1.7.1-2.1.3s-.6.6-.6,1.2.1.8.4,1c.3.3.7.4,1.2.4s1.2-.2,1.6-.7.6-1.1.6-1.9v-.3h-1.2.1ZM510.7,312.1v4.3h-1.2v-1.1c-.3.5-.6.8-1,1s-.9.3-1.5.3-1.4-.2-1.8-.6c-.5-.4-.7-1-.7-1.7s.3-1.5.8-1.9c.6-.4,1.4-.6,2.5-.6h1.7c0-.7-.2-1.1-.6-1.4s-.9-.5-1.6-.5-.8,0-1.3.2c-.4.1-.8.3-1.2.5v-1.1c.4-.2.9-.3,1.3-.4.4,0,.8-.1,1.2-.1,1.1,0,1.9.3,2.4.8.5.6.8,1.4.8,2.6l.2-.3Z"/>
          <path id="DejaVuSans-72-2" d="M517.5,310c0,0-.3-.1-.5-.2h-.5c-.7,0-1.2.2-1.6.7s-.6,1.1-.6,1.9v3.9h-1.2v-7.5h1.2v1.2c.3-.5.6-.8,1-1s.9-.3,1.5-.3.2,0,.3,0h.3v1.3h0Z"/>
          <path id="DejaVuSans-65-6" d="M524.9,312.3v.6h-5.7c0,.8.3,1.5.8,1.9s1.1.7,1.9.7.9,0,1.4-.2.9-.3,1.3-.5v1.2c-.4.2-.9.3-1.4.4s-.9.1-1.4.1c-1.2,0-2.1-.3-2.8-1s-1-1.6-1-2.8.3-2.2,1-2.9c.7-.7,1.6-1.1,2.7-1.1s1.8.3,2.4,1c.6.6.9,1.5.9,2.6h-.1ZM523.7,311.9c0-.7-.2-1.2-.6-1.6-.4-.4-.9-.6-1.5-.6s-1.2.2-1.6.6-.6.9-.7,1.6h4.4,0Z"/>
        </g>
      </g>
      <g id="text_3">
        <g>
          <path id="DejaVuSans-4b" d="M408.1,341.4h1.3v4.2l4.5-4.2h1.7l-5,4.6,5.3,5.3h-1.8l-4.8-4.8v4.8h-1.3v-10h0Z"/>
          <path id="DejaVuSans-79" d="M419.1,352c-.3.9-.7,1.5-1,1.7-.3.3-.8.4-1.3.4h-1v-1h.7c.3,0,.6,0,.8-.2.2-.2.4-.5.6-1.1l.2-.6-3-7.4h1.3l2.3,5.9,2.3-5.9h1.3l-3.3,8.2h.1Z"/>
          <path id="DejaVuSans-69-2" d="M424.1,343.9h1.2v7.5h-1.2v-7.5ZM424.1,340.9h1.2v1.6h-1.2v-1.6Z"/>
          <path id="DejaVuSans-76" d="M427,343.9h1.3l2.3,6.3,2.3-6.3h1.3l-2.8,7.5h-1.7l-2.8-7.5h.1Z"/>
          <path id="DejaVuSans-20-4" d="M434.7,351.3"/>
          <path id="DejaVuSans-50" d="M441.7,342.5v3.7h1.7c.6,0,1.1-.2,1.5-.5.3-.3.5-.8.5-1.4s-.2-1.1-.5-1.4-.8-.5-1.5-.5h-1.7ZM440.4,341.4h3c1.1,0,2,.3,2.5.8.6.5.9,1.2.9,2.2s-.3,1.7-.9,2.2-1.4.8-2.5.8h-1.7v4h-1.3v-10Z"/>
          <path id="DejaVuSans-65-7" d="M454.5,347.3v.6h-5.7c0,.8.3,1.5.8,1.9s1.1.7,1.9.7.9,0,1.4-.2.9-.3,1.3-.5v1.2c-.4.2-.9.3-1.4.4s-.9.1-1.4.1c-1.2,0-2.1-.3-2.8-1-.7-.7-1-1.6-1-2.8s.3-2.2,1-2.9c.7-.7,1.6-1.1,2.7-1.1s1.8.3,2.4,1c.6.6.9,1.5.9,2.6h0ZM453.2,346.9c0-.7-.2-1.2-.6-1.6s-.9-.6-1.5-.6-1.2.2-1.6.6-.6.9-.7,1.6h4.4Z"/>
          <path id="DejaVuSans-63-2" d="M461.9,344.1v1.1c-.3-.2-.7-.3-1-.4s-.7-.1-1.1-.1c-.8,0-1.4.3-1.9.8-.4.5-.7,1.2-.7,2.1s.2,1.6.7,2.1c.4.5,1.1.8,1.9.8s.7,0,1.1-.1.7-.2,1-.4v1.1c-.3.2-.7.3-1.1.4-.4,0-.8.1-1.2.1-1.1,0-2-.4-2.7-1.1s-1-1.7-1-2.9.3-2.2,1-2.9c.7-.7,1.6-1,2.8-1s.7,0,1.1.1c.4,0,.7.2,1,.3h.1Z"/>
          <path id="DejaVuSans-68-3" d="M470.2,346.8v4.5h-1.2v-4.5c0-.7-.1-1.2-.4-1.6s-.7-.5-1.2-.5-1.2.2-1.6.6-.6,1-.6,1.7v4.2h-1.2v-10.4h1.2v4.1c.3-.5.6-.8,1-1s.9-.3,1.4-.3c.9,0,1.5.3,1.9.8s.7,1.3.7,2.3h0Z"/>
          <path id="DejaVuSans-65-8" d="M479.1,347.3v.6h-5.7c0,.8.3,1.5.8,1.9s1.1.7,1.9.7.9,0,1.4-.2.9-.3,1.3-.5v1.2c-.4.2-.9.3-1.4.4s-.9.1-1.4.1c-1.2,0-2.1-.3-2.8-1-.7-.7-1-1.6-1-2.8s.3-2.2,1-2.9c.7-.7,1.6-1.1,2.7-1.1s1.8.3,2.4,1c.6.6.9,1.5.9,2.6h0ZM477.9,346.9c0-.7-.2-1.2-.6-1.6s-.9-.6-1.5-.6-1.2.2-1.6.6-.6.9-.7,1.6h4.4Z"/>
          <path id="DejaVuSans-72-3" d="M485.4,345c-.1,0-.3-.1-.5-.2h-.5c-.7,0-1.2.2-1.6.7s-.6,1.1-.6,1.9v3.9h-1.2v-7.5h1.2v1.2c.3-.5.6-.8,1-1s.9-.3,1.5-.3.2,0,.3,0h.3v1.3h.1Z"/>
          <path id="DejaVuSans-73" d="M491.5,344.1v1.2c-.3-.2-.7-.3-1.1-.4-.4,0-.8-.1-1.2-.1-.6,0-1.1,0-1.4.3-.3.2-.5.5-.5.8s.1.5.3.7.7.3,1.3.5h.4c.9.3,1.5.5,1.9.9s.6.8.6,1.4-.3,1.2-.8,1.7c-.6.4-1.3.6-2.3.6s-.8,0-1.3-.1c-.4,0-.9-.2-1.4-.4v-1.3c.5.2.9.4,1.3.5s.9.2,1.3.2,1,0,1.3-.3c.3-.2.5-.5.5-.8s-.1-.6-.3-.8-.7-.3-1.5-.5h-.4c-.8-.3-1.3-.5-1.7-.8-.3-.3-.5-.8-.5-1.4s.2-1.2.7-1.6,1.2-.6,2.1-.6.9,0,1.3.1c.4,0,.8.2,1.1.3h.3Z"/>
          <path id="DejaVuSans-6b" d="M493.8,340.9h1.2v6.1l3.7-3.2h1.6l-4,3.5,4.1,4h-1.6l-3.8-3.7v3.7h-1.2v-10.4h0Z"/>
          <path id="DejaVuSans-20-5" d="M500.5,351.3"/>
          <path id="DejaVuSans-4c" d="M506.2,341.4h1.3v8.8h4.9v1.1h-6.2v-10h0Z"/>
          <path id="DejaVuSans-61-5" d="M517.1,347.6c-1,0-1.7.1-2.1.3s-.6.6-.6,1.2,0,.8.4,1c.3.3.7.4,1.2.4s1.2-.2,1.6-.7.6-1.1.6-1.9v-.3h-1.2,0ZM519.6,347.1v4.3h-1.2v-1.1c-.3.5-.6.8-1,1s-.9.3-1.5.3-1.4-.2-1.8-.6c-.5-.4-.7-1-.7-1.7s.3-1.5.8-1.9c.6-.4,1.4-.6,2.5-.6h1.7c0-.7-.2-1.1-.6-1.4s-.9-.5-1.6-.5-.8,0-1.3.2c-.4.1-.8.3-1.2.5v-1.1c.4-.2.9-.3,1.3-.4.4,0,.8-.1,1.2-.1,1.1,0,1.9.3,2.4.8.5.6.8,1.4.8,2.6l.2-.3Z"/>
          <path id="DejaVuSans-76-2" d="M521.2,343.9h1.3l2.3,6.3,2.3-6.3h1.3l-2.8,7.5h-1.7l-2.8-7.5h.1Z"/>
          <path id="DejaVuSans-72-4" d="M534.6,345c0,0-.3-.1-.5-.2h-.5c-.7,0-1.2.2-1.6.7s-.6,1.1-.6,1.9v3.9h-1.2v-7.5h1.2v1.2c.3-.5.6-.8,1-1s.9-.3,1.5-.3.2,0,.3,0h.3v1.3h0Z"/>
          <path id="DejaVuSans-61-6" d="M539.2,347.6c-1,0-1.7.1-2.1.3s-.6.6-.6,1.2,0,.8.4,1c.3.3.7.4,1.2.4s1.2-.2,1.6-.7.6-1.1.6-1.9v-.3h-1.2,0ZM541.7,347.1v4.3h-1.2v-1.1c-.3.5-.6.8-1,1s-.9.3-1.5.3-1.4-.2-1.8-.6c-.5-.4-.7-1-.7-1.7s.3-1.5.8-1.9c.6-.4,1.4-.6,2.5-.6h1.7c0-.7-.2-1.1-.6-1.4s-.9-.5-1.6-.5-.8,0-1.3.2c-.4.1-.8.3-1.2.5v-1.1c.4-.2.9-.3,1.3-.4.4,0,.8-.1,1.2-.1,1.1,0,1.9.3,2.4.8.5.6.8,1.4.8,2.6l.2-.3Z"/>
        </g>
      </g>
      <g id="text_4">
        <g>
          <path id="DejaVuSans-4b-2" class="cls-9" d="M144.4-73.4h1.4v4.3l4.6-4.3h1.8l-5.1,4.8,5.4,5.4h-1.8l-4.9-4.9v4.9h-1.4v-10.2Z"/>
          <path id="DejaVuSans-79-2" class="cls-9" d="M155.7-62.5c-.4.9-.7,1.5-1,1.8s-.8.4-1.4.4h-1v-1.1h.7c.3,0,.6,0,.8-.2s.4-.6.6-1.2l.2-.6-3.1-7.5h1.3l2.4,6,2.4-6h1.3l-3.4,8.4h.2Z"/>
          <path id="DejaVuSans-69-3" class="cls-9" d="M160.8-70.9h1.3v7.7h-1.3v-7.7ZM160.8-73.9h1.3v1.6h-1.3v-1.6Z"/>
          <path id="DejaVuSans-76-3" class="cls-9" d="M163.8-70.9h1.3l2.4,6.4,2.4-6.4h1.3l-2.9,7.7h-1.7l-2.9-7.7h0Z"/>
          <path id="DejaVuSans-20-6" class="cls-9" d="M171.7-63.2"/>
          <path id="DejaVuSans-2013" class="cls-9" d="M176.8-67.5h5.6v1h-5.6v-1Z"/>
          <path id="DejaVuSans-20-7" class="cls-9" d="M183.1-63.2"/>
          <path id="DejaVuSans-49-2" class="cls-9" d="M188.9-73.4h1.4v10.2h-1.4v-10.2Z"/>
          <path id="DejaVuSans-6e-4" class="cls-9" d="M199.4-67.8v4.6h-1.3v-4.6c0-.7-.1-1.3-.4-1.6-.3-.4-.7-.5-1.3-.5s-1.2.2-1.6.6c-.4.4-.6,1-.6,1.8v4.3h-1.3v-7.7h1.3v1.2c.3-.5.7-.8,1.1-1,.4-.2.9-.3,1.4-.3.9,0,1.5.3,2,.8s.7,1.3.7,2.4h0Z"/>
          <path id="DejaVuSans-73-2" class="cls-9" d="M206.8-70.7v1.2c-.4-.2-.7-.3-1.1-.4-.4,0-.8,0-1.2,0-.6,0-1.1,0-1.4.3-.3.2-.5.5-.5.9s.1.5.3.7.7.3,1.3.5h.4c.9.3,1.5.6,1.9.9s.6.8.6,1.5-.3,1.3-.8,1.7c-.6.4-1.3.6-2.3.6s-.8,0-1.3,0c-.4,0-.9-.2-1.4-.4v-1.3c.5.2.9.4,1.4.5s.9.2,1.3.2,1,0,1.4-.3c.3-.2.5-.5.5-.9s-.1-.6-.3-.8-.7-.4-1.5-.5h-.4c-.8-.3-1.3-.5-1.7-.9-.3-.3-.5-.8-.5-1.4s.3-1.3.8-1.7,1.2-.6,2.2-.6.9,0,1.3,0c.4,0,.8.2,1.1.3h-.1Z"/>
          <path id="DejaVuSans-74-3" class="cls-9" d="M210.4-73.1v2.2h2.6v1h-2.6v4.2c0,.6,0,1,.3,1.2s.5.3,1,.3h1.3v1.1h-1.3c-1,0-1.6-.2-2-.5-.4-.4-.6-1-.6-2v-4.2h-.9v-1h.9v-2.2h1.3Z"/>
          <path id="DejaVuSans-61-7" class="cls-9" d="M218.2-67.1c-1,0-1.7,0-2.1.3s-.6.6-.6,1.2.1.8.4,1.1c.3.3.7.4,1.2.4s1.3-.2,1.7-.7.6-1.2.6-2v-.3h-1.3.1ZM220.7-67.6v4.4h-1.3v-1.2c-.3.5-.6.8-1.1,1-.4.2-1,.3-1.6.3s-1.4-.2-1.9-.7c-.5-.4-.7-1-.7-1.8s.3-1.5.9-1.9c.6-.4,1.4-.7,2.6-.7h1.8c0-.7-.2-1.2-.6-1.5s-.9-.5-1.6-.5-.9,0-1.3.2c-.4,0-.8.3-1.2.5v-1.2c.5-.2.9-.3,1.3-.4.4,0,.9,0,1.3,0,1.1,0,1.9.3,2.5.9.5.6.8,1.4.8,2.6h.1Z"/>
          <path id="DejaVuSans-67" class="cls-9" d="M228.3-67.1c0-.9-.2-1.6-.6-2.1-.4-.5-.9-.8-1.6-.8s-1.2.3-1.6.8c-.4.5-.6,1.2-.6,2.1s.2,1.6.6,2.1c.4.5.9.8,1.6.8s1.2-.3,1.6-.8c.4-.5.6-1.2.6-2.1ZM229.5-64.2c0,1.3-.3,2.3-.9,2.9-.6.6-1.5,1-2.7,1h-1.3c-.4,0-.8-.2-1.1-.3v-1.2c.4.2.7.3,1.1.4.4,0,.7,0,1.1,0,.8,0,1.4-.2,1.9-.6.4-.4.6-1.1.6-2v-.6c-.3.5-.6.8-1,1s-.9.3-1.5.3c-.9,0-1.7-.4-2.3-1.1-.6-.7-.9-1.7-.9-2.8s.3-2.1.9-2.8c.6-.7,1.3-1.1,2.3-1.1s1.1,0,1.5.3.7.6,1,1v-1.2h1.3v6.7h0Z"/>
          <path id="DejaVuSans-72-5" class="cls-9" d="M236.6-69.7c-.1,0-.3,0-.5-.2h-.5c-.7,0-1.3.2-1.6.7s-.6,1.1-.6,2v4h-1.3v-7.7h1.3v1.2c.3-.5.6-.8,1-1s.9-.3,1.5-.3.2,0,.3,0h.3v1.3h.1Z"/>
          <path id="DejaVuSans-61-8" class="cls-9" d="M241.4-67.1c-1,0-1.7,0-2.1.3s-.6.6-.6,1.2.1.8.4,1.1c.3.3.7.4,1.2.4s1.3-.2,1.7-.7.6-1.2.6-2v-.3h-1.3.1ZM243.9-67.6v4.4h-1.3v-1.2c-.3.5-.6.8-1.1,1-.4.2-1,.3-1.6.3s-1.4-.2-1.9-.7c-.5-.4-.7-1-.7-1.8s.3-1.5.9-1.9c.6-.4,1.4-.7,2.6-.7h1.8c0-.7-.2-1.2-.6-1.5s-.9-.5-1.6-.5-.9,0-1.3.2c-.4,0-.8.3-1.2.5v-1.2c.5-.2.9-.3,1.3-.4.4,0,.9,0,1.3,0,1.1,0,1.9.3,2.5.9.5.6.8,1.4.8,2.6h.1Z"/>
          <path id="DejaVuSans-6d" class="cls-9" d="M252.4-69.4c.3-.6.7-1,1.1-1.3s1-.4,1.5-.4,1.4.3,1.8.8c.4.6.6,1.4.6,2.4v4.6h-1.3v-4.6c0-.7-.1-1.3-.4-1.6-.3-.4-.7-.5-1.2-.5s-1.2.2-1.5.6c-.4.4-.6,1-.6,1.8v4.3h-1.3v-4.6c0-.7-.1-1.3-.4-1.6s-.7-.5-1.2-.5-1.2.2-1.5.7c-.4.4-.6,1-.6,1.8v4.3h-1.3v-7.7h1.3v1.2c.3-.5.6-.8,1-1s.9-.3,1.4-.3,1,0,1.4.4c.4.3.7.7.9,1.2h.3Z"/>
          <path id="DejaVuSans-20-8" class="cls-9" d="M258.8-63.2"/>
          <path id="DejaVuSans-43-2" class="cls-9" d="M272.3-72.6v1.5c-.5-.4-1-.8-1.5-1s-1.1-.3-1.7-.3c-1.2,0-2.1.4-2.7,1.1s-.9,1.7-.9,3.1.3,2.4.9,3.1,1.5,1.1,2.7,1.1,1.2,0,1.7-.3,1-.5,1.5-1v1.4c-.5.3-1,.6-1.5.7-.5.2-1.1.2-1.7.2-1.5,0-2.8-.5-3.7-1.4-.9-.9-1.3-2.2-1.3-3.9s.4-2.9,1.3-3.9c.9-.9,2.1-1.4,3.7-1.4s1.2,0,1.7.2,1,.4,1.5.7h0Z"/>
          <path id="DejaVuSans-61-9" class="cls-9" d="M277.8-67.1c-1,0-1.7,0-2.1.3s-.6.6-.6,1.2.1.8.4,1.1.7.4,1.2.4,1.3-.2,1.7-.7.6-1.2.6-2v-.3h-1.3,0ZM280.3-67.6v4.4h-1.3v-1.2c-.3.5-.6.8-1.1,1-.4.2-1,.3-1.6.3s-1.4-.2-1.9-.7c-.5-.4-.7-1-.7-1.8s.3-1.5.9-1.9,1.4-.7,2.6-.7h1.8c0-.7-.2-1.2-.6-1.5s-.9-.5-1.6-.5-.9,0-1.3.2c-.4,0-.8.3-1.2.5v-1.2c.5-.2.9-.3,1.3-.4.4,0,.9,0,1.3,0,1.1,0,1.9.3,2.5.9.5.6.8,1.4.8,2.6h.1Z"/>
          <path id="DejaVuSans-66" class="cls-9" d="M286.8-73.9v1h-1.2c-.5,0-.8,0-.9.3-.2.2-.3.5-.3,1v.7h2.1v1h-2.1v6.7h-1.3v-6.7h-1.2v-1h1.2v-.5c0-.9.2-1.5.6-1.9s1-.6,1.9-.6h1.2,0Z"/>
          <path id="DejaVuSans-e9" class="cls-9" d="M294.4-67.4v.6h-5.8c0,.9.3,1.5.8,2s1.1.7,2,.7,1,0,1.4-.2.9-.3,1.4-.5v1.2c-.5.2-.9.3-1.4.4s-1,.2-1.4.2c-1.2,0-2.2-.4-2.9-1.1-.7-.7-1.1-1.7-1.1-2.9s.3-2.2,1-3c.7-.7,1.6-1.1,2.7-1.1s1.8.3,2.4,1,.9,1.6.9,2.7ZM293.1-67.7c0-.7-.2-1.2-.6-1.6-.4-.4-.9-.6-1.5-.6s-1.3.2-1.7.6-.7,1-.7,1.7h4.5ZM291.9-74.4h1.4l-2.2,2.6h-1l1.9-2.6h0Z"/>
          <path id="DejaVuSans-73-3" class="cls-9" d="M301.3-70.7v1.2c-.4-.2-.7-.3-1.1-.4-.4,0-.8,0-1.2,0-.6,0-1.1,0-1.4.3-.3.2-.5.5-.5.9s.1.5.3.7.7.3,1.3.5h.4c.9.3,1.5.6,1.9.9s.6.8.6,1.5-.3,1.3-.8,1.7c-.6.4-1.3.6-2.3.6s-.8,0-1.3,0c-.4,0-.9-.2-1.4-.4v-1.3c.5.2.9.4,1.4.5s.9.2,1.3.2,1,0,1.4-.3c.3-.2.5-.5.5-.9s-.1-.6-.3-.8c-.2-.2-.7-.4-1.5-.5h-.4c-.8-.3-1.3-.5-1.7-.9-.3-.3-.5-.8-.5-1.4s.3-1.3.8-1.7,1.2-.6,2.2-.6.9,0,1.3,0c.4,0,.8.2,1.1.3h0Z"/>
          <path id="DejaVuSans-20-9" class="cls-9" d="M302.4-63.2"/>
          <path id="DejaVuSans-62" class="cls-9" d="M313.7-67c0-.9-.2-1.7-.6-2.2s-.9-.8-1.6-.8-1.2.3-1.6.8-.6,1.3-.6,2.2.2,1.7.6,2.2.9.8,1.6.8,1.2-.3,1.6-.8.6-1.3.6-2.2ZM309.4-69.7c.3-.5.6-.8,1-1s.9-.3,1.4-.3c.9,0,1.7.4,2.3,1.1.6.7.9,1.7.9,2.9s-.3,2.2-.9,2.9-1.3,1.1-2.3,1.1-1,0-1.4-.3-.7-.6-1-1v1.1h-1.3v-10.6h1.3v4.1Z"/>
          <path id="DejaVuSans-79-3" class="cls-9" d="M320.3-62.5c-.4.9-.7,1.5-1,1.8s-.8.4-1.4.4h-1v-1.1h.7c.3,0,.6,0,.8-.2.2-.2.4-.6.6-1.2l.2-.6-3.1-7.5h1.3l2.4,6,2.4-6h1.3l-3.4,8.4h.2Z"/>
          <path id="DejaVuSans-20-10" class="cls-9" d="M324.1-63.2"/>
          <path id="DejaVuSans-54" class="cls-9" d="M328.5-73.4h8.6v1.2h-3.6v9h-1.4v-9h-3.6v-1.2Z"/>
          <path id="DejaVuSans-68-4" class="cls-9" d="M344.7-67.8v4.6h-1.3v-4.6c0-.7-.1-1.3-.4-1.6-.3-.4-.7-.5-1.3-.5s-1.2.2-1.6.6c-.4.4-.6,1-.6,1.8v4.3h-1.3v-10.6h1.3v4.2c.3-.5.7-.8,1.1-1s.9-.3,1.4-.3c.9,0,1.5.3,2,.8s.7,1.3.7,2.4h0Z"/>
          <path id="DejaVuSans-65-9" class="cls-9" d="M353.8-67.4v.6h-5.8c0,.9.3,1.5.8,2s1.1.7,2,.7,1,0,1.4-.2.9-.3,1.4-.5v1.2c-.5.2-.9.3-1.4.4s-1,.2-1.4.2c-1.2,0-2.2-.4-2.9-1.1-.7-.7-1.1-1.7-1.1-2.9s.3-2.2,1-3c.7-.7,1.6-1.1,2.7-1.1s1.8.3,2.4,1,.9,1.6.9,2.7ZM352.5-67.7c0-.7-.2-1.2-.6-1.6-.4-.4-.9-.6-1.5-.6s-1.3.2-1.7.6-.7,1-.7,1.7h4.5Z"/>
          <path id="DejaVuSans-6d-2" class="cls-9" d="M361.8-69.4c.3-.6.7-1,1.1-1.3s1-.4,1.5-.4,1.4.3,1.8.8c.4.6.6,1.4.6,2.4v4.6h-1.3v-4.6c0-.7-.1-1.3-.4-1.6-.3-.4-.7-.5-1.2-.5s-1.2.2-1.5.6c-.4.4-.6,1-.6,1.8v4.3h-1.3v-4.6c0-.7-.1-1.3-.4-1.6s-.7-.5-1.2-.5-1.2.2-1.5.7c-.4.4-.6,1-.6,1.8v4.3h-1.3v-7.7h1.3v1.2c.3-.5.6-.8,1-1s.9-.3,1.4-.3,1,0,1.4.4c.4.3.7.7.9,1.2h.3Z"/>
          <path id="DejaVuSans-65-10" class="cls-9" d="M376.1-67.4v.6h-5.8c0,.9.3,1.5.8,2s1.1.7,2,.7,1,0,1.4-.2.9-.3,1.4-.5v1.2c-.5.2-.9.3-1.4.4s-1,.2-1.4.2c-1.2,0-2.2-.4-2.9-1.1-.7-.7-1.1-1.7-1.1-2.9s.3-2.2,1-3c.7-.7,1.6-1.1,2.7-1.1s1.8.3,2.4,1,.9,1.6.9,2.7ZM374.8-67.7c0-.7-.2-1.2-.6-1.6-.4-.4-.9-.6-1.5-.6s-1.3.2-1.7.6-.7,1-.7,1.7h4.5Z"/>
        </g>
      </g>
      <g id="PathCollection_6">
        <rect class="cls-1" x="24.5" y="93.2" width="505.8" height="441.7"/>
        <g>
          <path id="m86e676cdb2" class="cls-7" d="M353.1,312.1c1,0,2-.4,2.7-1.1s1.1-1.7,1.1-2.7-.4-2-1.1-2.7-1.7-1.1-2.7-1.1-2,.4-2.7,1.1-1.1,1.7-1.1,2.7.4,2,1.1,2.7,1.7,1.1,2.7,1.1Z"/>
          <path id="m86e676cdb2-2" class="cls-7" d="M363.3,312.1c1,0,2-.4,2.7-1.1s1.1-1.7,1.1-2.7-.4-2-1.1-2.7-1.7-1.1-2.7-1.1-2,.4-2.7,1.1-1.1,1.7-1.1,2.7.4,2,1.1,2.7,1.7,1.1,2.7,1.1Z"/>
          <path id="m86e676cdb2-3" class="cls-7" d="M403,341.5c1,0,2-.4,2.7-1.1s1.1-1.7,1.1-2.7-.4-2-1.1-2.7-1.7-1.1-2.7-1.1-2,.4-2.7,1.1-1.1,1.7-1.1,2.7.4,2,1.1,2.7,1.7,1.1,2.7,1.1Z"/>
        </g>
      </g>
      <g id="legend_1">
        <g id="text_5">
          <g>
            <path id="DejaVuSans-50-2" class="cls-9" d="M472.5-159.8v3.3h1.5c.6,0,1,0,1.3-.4.3-.3.5-.7.5-1.2s-.2-.9-.5-1.2-.7-.4-1.3-.4h-1.5ZM471.3-160.8h2.7c1,0,1.7.2,2.2.7.5.4.8,1.1.8,1.9s-.3,1.5-.8,2c-.5.4-1.2.7-2.2.7h-1.5v3.5h-1.2v-8.7h0Z"/>
            <path id="DejaVuSans-72-6" class="cls-9" d="M482.1-157.6c-.1,0-.3,0-.4-.2h-.5c-.6,0-1.1.2-1.4.6s-.5,1-.5,1.7v3.5h-1.1v-6.6h1.1v1c.2-.4.5-.7.9-.9s.8-.3,1.3-.3.2,0,.2,0h.3v1.1h.1Z"/>
            <path id="DejaVuSans-69-4" class="cls-9" d="M483.2-158.6h1.1v6.6h-1.1v-6.6ZM483.2-161.2h1.1v1.4h-1.1v-1.4Z"/>
            <path id="DejaVuSans-6d-3" class="cls-9" d="M491.6-157.3c.3-.5.6-.8,1-1.1s.8-.3,1.3-.3,1.2.2,1.6.7.6,1.2.6,2v4h-1.1v-3.9c0-.6-.1-1.1-.3-1.4-.2-.3-.6-.5-1-.5s-1,.2-1.3.6c-.3.4-.5.9-.5,1.5v3.7h-1.1v-3.9c0-.6-.1-1.1-.3-1.4s-.6-.5-1-.5-1,.2-1.3.6c-.3.4-.5.9-.5,1.5v3.7h-1.1v-6.6h1.1v1c.2-.4.5-.7.9-.9s.8-.3,1.2-.3.9,0,1.2.4c.3.2.6.6.7,1.1h-.1Z"/>
            <path id="DejaVuSans-61-10" class="cls-9" d="M501.2-155.3c-.9,0-1.5,0-1.8.3s-.5.5-.5,1,.1.7.4.9.6.3,1,.3,1.1-.2,1.4-.6.5-1,.5-1.7v-.2h-1.1.1ZM503.3-155.8v3.7h-1.1v-1c-.2.4-.6.7-.9.9-.4.2-.8.3-1.3.3s-1.2-.2-1.6-.6c-.4-.4-.6-.9-.6-1.5s.2-1.3.7-1.7,1.2-.6,2.2-.6h1.5c0-.6-.2-1-.5-1.3s-.8-.4-1.4-.4-.7,0-1.1,0c-.4,0-.7.2-1,.4v-1c.4-.2.8-.3,1.1-.3s.7,0,1.1,0c1,0,1.7.2,2.1.7.5.5.7,1.2.7,2.2v.2Z"/>
            <path id="DejaVuSans-72-7" class="cls-9" d="M509.4-157.6c-.1,0-.3,0-.4-.2h-.5c-.6,0-1.1.2-1.4.6s-.5,1-.5,1.7v3.5h-1.1v-6.6h1.1v1c.2-.4.5-.7.9-.9s.8-.3,1.3-.3.2,0,.2,0h.3v1.1h.1Z"/>
            <path id="DejaVuSans-79-4" class="cls-9" d="M513.2-151.4c-.3.8-.6,1.3-.9,1.5s-.7.4-1.2.4h-.9v-.9h.6c.3,0,.5,0,.7-.2.2,0,.3-.5.5-1l.2-.5-2.7-6.5h1.1l2.1,5.1,2.1-5.1h1.1l-2.9,7.2h.2Z"/>
            <path id="DejaVuSans-20-11" class="cls-9" d="M516.5-152"/>
            <path id="DejaVuSans-54-2" class="cls-9" d="M520.2-160.8h7.4v1h-3.1v7.8h-1.2v-7.8h-3.1v-1h0Z"/>
            <path id="DejaVuSans-68-5" class="cls-9" d="M534.2-156v4h-1.1v-3.9c0-.6-.1-1.1-.4-1.4-.2-.3-.6-.5-1.1-.5s-1,.2-1.4.6c-.3.4-.5.9-.5,1.5v3.7h-1.1v-9.1h1.1v3.6c.3-.4.6-.7.9-.9s.8-.3,1.2-.3c.8,0,1.3.2,1.7.7.4.5.6,1.2.6,2.1h0Z"/>
            <path id="DejaVuSans-65-11" class="cls-9" d="M542-155.6v.5h-5c0,.7.3,1.3.7,1.7.4.4,1,.6,1.7.6s.8,0,1.2-.2.8-.3,1.2-.5v1c-.4.2-.8.3-1.2.4s-.8,0-1.2,0c-1,0-1.9-.3-2.5-.9-.6-.6-.9-1.4-.9-2.5s.3-1.9.9-2.6c.6-.6,1.4-.9,2.3-.9s1.6.3,2.1.9c.5.6.8,1.3.8,2.3h0ZM540.9-155.9c0-.6-.2-1.1-.5-1.4-.3-.4-.7-.5-1.3-.5s-1.1.2-1.4.5-.6.8-.6,1.4h3.8Z"/>
            <path id="DejaVuSans-6d-4" class="cls-9" d="M548.8-157.3c.3-.5.6-.8,1-1.1s.8-.3,1.3-.3,1.2.2,1.6.7c.4.5.6,1.2.6,2v4h-1.1v-3.9c0-.6,0-1.1-.3-1.4-.2-.3-.6-.5-1-.5s-1,.2-1.3.6c-.3.4-.5.9-.5,1.5v3.7h-1.1v-3.9c0-.6,0-1.1-.3-1.4s-.6-.5-1-.5-1,.2-1.3.6c-.3.4-.5.9-.5,1.5v3.7h-1.1v-6.6h1.1v1c.2-.4.5-.7.9-.9s.8-.3,1.2-.3.9,0,1.2.4c.3.2.6.6.7,1.1h-.1Z"/>
            <path id="DejaVuSans-65-12" class="cls-9" d="M561-155.6v.5h-5c0,.7.3,1.3.7,1.7s1,.6,1.7.6.8,0,1.2-.2.8-.3,1.2-.5v1c-.4.2-.8.3-1.2.4s-.8,0-1.2,0c-1,0-1.9-.3-2.5-.9-.6-.6-.9-1.4-.9-2.5s.3-1.9.9-2.6c.6-.6,1.4-.9,2.3-.9s1.6.3,2.1.9c.5.6.8,1.3.8,2.3h0ZM560-155.9c0-.6-.2-1.1-.5-1.4-.3-.4-.7-.5-1.3-.5s-1.1.2-1.4.5-.6.8-.6,1.4h3.8Z"/>
          </g>
        </g>
        <g id="PathCollection_7">
          <path id="m19c01ea728" class="cls-5" d="M461.4-135c.9,0,1.8-.4,2.5-1s1-1.6,1-2.5-.4-1.8-1-2.5-1.6-1-2.5-1-1.8.4-2.5,1-1,1.6-1,2.5.4,1.8,1,2.5,1.6,1,2.5,1Z"/>
        </g>
        <g id="text_6">
          <g>
            <path id="DejaVuSans-64-4" class="cls-9" d="M486.2-140.8v-3.3h1v8.4h-1v-.9c-.2.4-.5.6-.8.8s-.7.3-1.1.3c-.7,0-1.3-.3-1.8-.9-.5-.6-.7-1.3-.7-2.3s.2-1.7.7-2.3,1-.9,1.8-.9.8,0,1.1.3c.3.2.6.4.8.8ZM482.9-138.7c0,.7.1,1.3.4,1.7s.7.6,1.2.6.9-.2,1.2-.6c.3-.4.5-1,.5-1.7s-.2-1.3-.5-1.7-.7-.6-1.2-.6-.9.2-1.2.6-.4,1-.4,1.7Z"/>
            <path id="DejaVuSans-65-13" class="cls-9" d="M494.4-138.9v.5h-4.5c0,.7.2,1.2.6,1.6.4.4.9.5,1.5.5s.7,0,1.1,0,.7-.2,1.1-.4v.9c-.4.2-.7.3-1.1.3s-.7,0-1.1,0c-1,0-1.7-.3-2.3-.8-.6-.6-.8-1.3-.8-2.3s.3-1.8.8-2.3c.5-.6,1.2-.9,2.2-.9s1.4.3,1.9.8.7,1.2.7,2.1h-.1ZM493.4-139.2c0-.5-.2-1-.5-1.3s-.7-.5-1.2-.5-1,.2-1.3.5-.5.8-.6,1.3h3.6Z"/>
            <path id="DejaVuSans-73-4" class="cls-9" d="M499.9-141.5v.9c-.3,0-.6-.3-.9-.3s-.6,0-.9,0c-.5,0-.9,0-1.1.2s-.4.4-.4.7,0,.4.3.5.5.3,1.1.4h.3c.7.2,1.2.4,1.5.7s.4.7.4,1.1-.2,1-.7,1.3c-.4.3-1.1.5-1.8.5h-1c-.3,0-.7-.2-1.1-.3v-1c.4.2.7.3,1.1.4.4,0,.7,0,1.1,0s.8,0,1.1-.2c.3-.2.4-.4.4-.7s0-.5-.3-.6c-.2,0-.6-.3-1.2-.4h-.3c-.6-.2-1.1-.4-1.3-.7-.3-.3-.4-.6-.4-1.1s.2-1,.6-1.3,1-.5,1.7-.5h1c.3,0,.6,0,.9.2v.2Z"/>
            <path id="DejaVuSans-69-5" class="cls-9" d="M501.8-141.7h1v6h-1v-6ZM501.8-144.1h1v1.3h-1v-1.3Z"/>
            <path id="DejaVuSans-67-2" class="cls-9" d="M508.8-138.8c0-.7-.1-1.3-.4-1.7s-.7-.6-1.2-.6-.9.2-1.2.6c-.3.4-.4.9-.4,1.7s.1,1.3.4,1.7.7.6,1.2.6.9-.2,1.2-.6c.3-.4.4-.9.4-1.7ZM509.8-136.4c0,1-.2,1.8-.7,2.3-.5.5-1.1.7-2.1.7h-1c-.3,0-.6,0-.9-.2v-1c.3.2.6.3.9.3s.6,0,.9,0c.6,0,1.1-.2,1.5-.5.3-.3.5-.8.5-1.5v-.5c-.2.4-.5.6-.8.8s-.7.3-1.1.3c-.7,0-1.3-.3-1.8-.8-.5-.6-.7-1.3-.7-2.2s.2-1.7.7-2.2c.5-.6,1-.8,1.8-.8s.8,0,1.1.3.6.4.8.8v-.9h1v5.3-.3Z"/>
            <path id="DejaVuSans-6e-5" class="cls-9" d="M516.8-139.3v3.6h-1v-3.6c0-.6-.1-1-.3-1.3-.2-.3-.6-.4-1-.4s-1,.2-1.3.5-.5.8-.5,1.4v3.4h-1v-6h1v.9c.2-.4.5-.6.8-.8s.7-.3,1.1-.3c.7,0,1.2.2,1.6.6.4.4.5,1.1.5,1.9h0Z"/>
            <path id="DejaVuSans-5f" class="cls-9" d="M523.3-133.9v.8h-5.7v-.8s5.7,0,5.7,0Z"/>
            <path id="DejaVuSans-6d-5" class="cls-9" d="M529-140.6c.2-.4.5-.8.9-1s.7-.3,1.2-.3,1.1.2,1.5.7c.3.4.5,1.1.5,1.9v3.6h-1v-3.6c0-.6-.1-1-.3-1.3-.2-.3-.5-.4-.9-.4s-.9.2-1.2.5c-.3.3-.4.8-.4,1.4v3.4h-1v-3.6c0-.6-.1-1-.3-1.3s-.5-.4-.9-.4-.9.2-1.2.5c-.3.3-.4.8-.4,1.4v3.4h-1v-6h1v.9c.2-.4.5-.6.8-.8s.7-.3,1.1-.3.8,0,1.1.3c.3.2.5.5.7,1h-.2Z"/>
            <path id="DejaVuSans-69-6" class="cls-9" d="M535-141.7h1v6h-1v-6ZM535-144.1h1v1.3h-1v-1.3Z"/>
            <path id="DejaVuSans-6e-6" class="cls-9" d="M543-139.3v3.6h-1v-3.6c0-.6,0-1-.3-1.3s-.6-.4-1-.4-1,.2-1.3.5-.5.8-.5,1.4v3.4h-1v-6h1v.9c.2-.4.5-.6.8-.8s.7-.3,1.1-.3c.7,0,1.2.2,1.6.6.4.4.5,1.1.5,1.9h.1Z"/>
            <path id="DejaVuSans-69-7" class="cls-9" d="M545-141.7h1v6h-1v-6ZM545-144.1h1v1.3h-1v-1.3Z"/>
            <path id="DejaVuSans-6d-6" class="cls-9" d="M552.8-140.6c.2-.4.5-.8.9-1s.7-.3,1.2-.3,1.1.2,1.5.7c.3.4.5,1.1.5,1.9v3.6h-1v-3.6c0-.6,0-1-.3-1.3s-.5-.4-.9-.4-.9.2-1.2.5-.4.8-.4,1.4v3.4h-1v-3.6c0-.6,0-1-.3-1.3s-.5-.4-.9-.4-.9.2-1.2.5-.4.8-.4,1.4v3.4h-1v-6h1v.9c.2-.4.5-.6.8-.8s.7-.3,1.1-.3.8,0,1.1.3.5.5.7,1h-.2Z"/>
            <path id="DejaVuSans-61-11" class="cls-9" d="M561.5-138.7c-.8,0-1.4,0-1.7.3s-.5.5-.5.9,0,.6.3.8.5.3.9.3,1-.2,1.3-.6.5-.9.5-1.5v-.2h-1,.2ZM563.5-139.1v3.4h-1v-.9c-.2.4-.5.6-.8.8s-.7.3-1.2.3-1.1-.2-1.5-.5-.5-.8-.5-1.4.2-1.2.7-1.5,1.1-.5,2-.5h1.4c0-.6,0-.9-.4-1.2s-.7-.4-1.3-.4-.7,0-1,0c-.3,0-.6.2-.9.4v-.9c.4,0,.7-.2,1.1-.3.3,0,.7,0,1,0,.9,0,1.5.2,2,.7.4.5.6,1.1.6,2.1h-.2Z"/>
            <path id="DejaVuSans-6c-2" class="cls-9" d="M565.5-144.1h1v8.4h-1s0-8.4,0-8.4Z"/>
          </g>
        </g>
        <g id="PathCollection_8">
          <path id="m384f6f5803-4" class="cls-2" d="M461.4-118.6c.9,0,1.8-.4,2.5-1s1-1.6,1-2.5-.4-1.8-1-2.5-1.6-1-2.5-1-1.8.4-2.5,1-1,1.6-1,2.5.4,1.8,1,2.5,1.6,1,2.5,1Z"/>
        </g>
        <g id="text_7">
          <g>
            <path id="DejaVuSans-68-6" class="cls-9" d="M487.3-122.9v3.6h-1v-3.6c0-.6-.1-1-.3-1.3-.2-.3-.6-.4-1-.4s-1,.2-1.3.5-.5.8-.5,1.4v3.4h-1v-8.4h1v3.3c.2-.4.5-.6.8-.8.3-.2.7-.3,1.1-.3.7,0,1.2.2,1.6.6s.5,1.1.5,1.9h0Z"/>
            <path id="DejaVuSans-6f-2" class="cls-9" d="M491.6-124.6c-.5,0-.9.2-1.3.6s-.5,1-.5,1.7.2,1.3.5,1.7c.3.4.7.6,1.3.6s.9-.2,1.3-.6c.3-.4.5-1,.5-1.7s-.2-1.3-.5-1.7c-.3-.4-.7-.6-1.3-.6ZM491.6-125.4c.9,0,1.5.3,2,.8.5.6.7,1.3.7,2.3s-.2,1.8-.7,2.3c-.5.6-1.2.8-2,.8s-1.5-.3-2-.8c-.5-.6-.7-1.3-.7-2.3s.2-1.8.7-2.3c.5-.6,1.2-.8,2-.8Z"/>
            <path id="DejaVuSans-6d-7" class="cls-9" d="M500.7-124.1c.2-.4.5-.8.9-1s.7-.3,1.2-.3,1.1.2,1.5.7c.3.4.5,1.1.5,1.9v3.6h-1v-3.6c0-.6-.1-1-.3-1.3-.2-.3-.5-.4-.9-.4s-.9.2-1.2.5c-.3.3-.4.8-.4,1.4v3.4h-1v-3.6c0-.6-.1-1-.3-1.3s-.5-.4-.9-.4-.9.2-1.2.5c-.3.3-.4.8-.4,1.4v3.4h-1v-6h1v.9c.2-.4.5-.6.8-.8s.7-.3,1.1-.3.8,0,1.1.3c.3.2.5.5.7,1h-.2Z"/>
            <path id="DejaVuSans-65-14" class="cls-9" d="M511.8-122.5v.5h-4.5c0,.7.2,1.2.6,1.6s.9.5,1.5.5.7,0,1.1,0,.7-.2,1.1-.4v.9c-.4.2-.7.3-1.1.3s-.7,0-1.1,0c-1,0-1.7-.3-2.3-.8-.6-.6-.8-1.3-.8-2.3s.3-1.8.8-2.3c.5-.6,1.2-.9,2.2-.9s1.4.3,1.9.8.7,1.2.7,2.1h-.1ZM510.9-122.8c0-.5-.2-1-.5-1.3s-.7-.5-1.2-.5-1,.2-1.3.5-.5.8-.6,1.3h3.6Z"/>
            <path id="DejaVuSans-6d-8" class="cls-9" d="M518.1-124.1c.2-.4.5-.8.9-1s.7-.3,1.2-.3,1.1.2,1.5.7c.3.4.5,1.1.5,1.9v3.6h-1v-3.6c0-.6-.1-1-.3-1.3-.2-.3-.5-.4-.9-.4s-.9.2-1.2.5c-.3.3-.4.8-.4,1.4v3.4h-1v-3.6c0-.6-.1-1-.3-1.3s-.5-.4-.9-.4-.9.2-1.2.5c-.3.3-.4.8-.4,1.4v3.4h-1v-6h1v.9c.2-.4.5-.6.8-.8s.7-.3,1.1-.3.8,0,1.1.3c.3.2.5.5.7,1h-.2Z"/>
            <path id="DejaVuSans-61-12" class="cls-9" d="M526.9-122.3c-.8,0-1.4,0-1.7.3s-.5.5-.5.9.1.6.3.8c.2.2.5.3.9.3s1-.2,1.3-.6.5-.9.5-1.5v-.2h-1,.2ZM528.9-122.7v3.4h-1v-.9c-.2.4-.5.6-.8.8-.3.2-.7.3-1.2.3s-1.1-.2-1.5-.5-.5-.8-.5-1.4.2-1.2.7-1.5,1.1-.5,2-.5h1.4c0-.6-.1-.9-.4-1.2s-.7-.4-1.3-.4-.7,0-1,0c-.3,0-.6.2-.9.4v-.9c.4,0,.7-.2,1.1-.3.3,0,.7,0,1,0,.9,0,1.5.2,2,.7.4.5.6,1.1.6,2.1h-.2Z"/>
            <path id="DejaVuSans-64-5" class="cls-9" d="M534.9-124.3v-3.3h1v8.4h-1v-.9c-.2.4-.5.6-.8.8-.3.2-.7.3-1.1.3-.7,0-1.3-.3-1.8-.9s-.7-1.3-.7-2.3.2-1.7.7-2.3c.5-.6,1-.9,1.8-.9s.8,0,1.1.3c.3.2.6.4.8.8ZM531.5-122.2c0,.7.1,1.3.4,1.7.3.4.7.6,1.2.6s.9-.2,1.2-.6c.3-.4.5-1,.5-1.7s-.2-1.3-.5-1.7c-.3-.4-.7-.6-1.2-.6s-.9.2-1.2.6-.4,1-.4,1.7Z"/>
            <path id="DejaVuSans-65-15" class="cls-9" d="M543-122.5v.5h-4.5c0,.7.2,1.2.6,1.6s.9.5,1.5.5.7,0,1.1,0,.7-.2,1.1-.4v.9c-.4.2-.7.3-1.1.3s-.7,0-1.1,0c-1,0-1.7-.3-2.3-.8-.6-.6-.8-1.3-.8-2.3s.3-1.8.8-2.3c.5-.6,1.2-.9,2.2-.9s1.4.3,1.9.8.7,1.2.7,2.1h-.1ZM542.1-122.8c0-.5-.2-1-.5-1.3s-.7-.5-1.2-.5-1,.2-1.3.5-.5.8-.6,1.3h3.6Z"/>
            <path id="DejaVuSans-5f-2" class="cls-9" d="M549.2-117.4v.8h-5.7v-.8h5.7Z"/>
            <path id="DejaVuSans-62-2" class="cls-9" d="M554.5-122.2c0-.7,0-1.3-.4-1.7s-.7-.6-1.2-.6-.9.2-1.2.6-.4,1-.4,1.7,0,1.3.4,1.7c.3.4.7.6,1.2.6s.9-.2,1.2-.6.4-1,.4-1.7ZM551.1-124.3c.2-.4.5-.6.8-.8.3-.2.7-.3,1.1-.3.7,0,1.3.3,1.8.9s.7,1.3.7,2.3-.2,1.7-.7,2.3c-.5.6-1,.9-1.8.9s-.8,0-1.1-.3c-.3-.2-.6-.4-.8-.8v.9h-1v-8.4h1v3.3Z"/>
            <path id="DejaVuSans-61-13" class="cls-9" d="M559.9-122.3c-.8,0-1.4,0-1.7.3s-.5.5-.5.9,0,.6.3.8c.2.2.5.3.9.3s1-.2,1.3-.6.5-.9.5-1.5v-.2h-1,.2ZM561.9-122.7v3.4h-1v-.9c-.2.4-.5.6-.8.8-.3.2-.7.3-1.2.3s-1.1-.2-1.5-.5-.5-.8-.5-1.4.2-1.2.7-1.5,1.1-.5,2-.5h1.4c0-.6,0-.9-.4-1.2s-.7-.4-1.3-.4-.7,0-1,0c-.3,0-.6.2-.9.4v-.9c.4,0,.7-.2,1.1-.3.3,0,.7,0,1,0,.9,0,1.5.2,2,.7.4.5.6,1.1.6,2.1h-.2Z"/>
            <path id="DejaVuSans-6b-2" class="cls-9" d="M563.9-127.6h1v4.9l2.9-2.6h1.3l-3.2,2.8,3.3,3.2h-1.3l-3.1-2.9v2.9h-1v-8.4h0Z"/>
            <path id="DejaVuSans-65-16" class="cls-9" d="M575-122.5v.5h-4.5c0,.7.2,1.2.6,1.6.4.4.9.5,1.5.5s.7,0,1.1,0,.7-.2,1.1-.4v.9c-.4.2-.7.3-1.1.3s-.7,0-1.1,0c-1,0-1.7-.3-2.3-.8-.6-.6-.8-1.3-.8-2.3s.3-1.8.8-2.3c.5-.6,1.2-.9,2.2-.9s1.4.3,1.9.8.7,1.2.7,2.1h-.1ZM574-122.8c0-.5-.2-1-.5-1.3s-.7-.5-1.2-.5-1,.2-1.3.5-.5.8-.6,1.3h3.6Z"/>
            <path id="DejaVuSans-73-5" class="cls-9" d="M580.5-125.1v.9c-.3,0-.6-.3-.9-.3s-.6,0-.9,0c-.5,0-.9,0-1.1.2-.2.2-.4.4-.4.7s0,.4.3.5.5.3,1.1.4h.3c.7.2,1.2.4,1.5.7s.4.7.4,1.1-.2,1-.7,1.3c-.4.3-1.1.5-1.8.5h-1c-.3,0-.7-.2-1.1-.3v-1c.4.2.7.3,1.1.4.4,0,.7,0,1.1,0s.8,0,1.1-.2.4-.4.4-.7,0-.5-.3-.6c-.2,0-.6-.3-1.2-.4h-.3c-.6-.2-1.1-.4-1.3-.7-.3-.3-.4-.6-.4-1.1s.2-1,.6-1.3c.4-.3,1-.5,1.7-.5h1c.3,0,.6,0,.9.2v.2Z"/>
          </g>
        </g>
        <g id="PathCollection_9">
          <path id="mfa10a22977-57" class="cls-3" d="M461.4-102.1c.9,0,1.8-.4,2.5-1s1-1.6,1-2.5-.4-1.8-1-2.5-1.6-1-2.5-1-1.8.4-2.5,1-1,1.6-1,2.5.4,1.8,1,2.5,1.6,1,2.5,1Z"/>
        </g>
        <g id="text_8">
          <g>
            <path id="DejaVuSans-6d-9" class="cls-9" d="M487-107.7c.2-.4.5-.8.9-1s.7-.3,1.2-.3,1.1.2,1.5.7c.3.4.5,1.1.5,1.9v3.6h-1v-3.6c0-.6-.1-1-.3-1.3-.2-.3-.5-.4-.9-.4s-.9.2-1.2.5c-.3.3-.4.8-.4,1.4v3.4h-1v-3.6c0-.6-.1-1-.3-1.3s-.5-.4-.9-.4-.9.2-1.2.5c-.3.3-.4.8-.4,1.4v3.4h-1v-6h1v.9c.2-.4.5-.6.8-.8s.7-.3,1.1-.3.8,0,1.1.3c.3.2.5.5.7,1h-.2Z"/>
            <path id="DejaVuSans-75-2" class="cls-9" d="M492.9-105.2v-3.6h1v3.6c0,.6.1,1,.3,1.3.2.3.6.4,1,.4s1-.2,1.3-.5.5-.8.5-1.4v-3.4h1v6h-1v-.9c-.2.4-.5.6-.8.8-.3.2-.7.3-1.1.3-.7,0-1.2-.2-1.6-.6s-.5-1.1-.5-1.9h0ZM495.4-108.9h0Z"/>
            <path id="DejaVuSans-6c-3" class="cls-9" d="M500-111.1h1v8.4h-1v-8.4Z"/>
            <path id="DejaVuSans-74-4" class="cls-9" d="M504-110.5v1.7h2v.8h-2v3.3c0,.5,0,.8.2.9s.4.2.8.2h1v.8h-1c-.8,0-1.3,0-1.6-.4-.3-.3-.4-.8-.4-1.6v-3.3h-.7v-.8h.7v-1.7h1Z"/>
            <path id="DejaVuSans-69-8" class="cls-9" d="M507.3-108.8h1v6h-1v-6ZM507.3-111.1h1v1.3h-1v-1.3Z"/>
            <path id="DejaVuSans-5f-3" class="cls-9" d="M515-101v.8h-5.7v-.8h5.7Z"/>
            <path id="DejaVuSans-6c-4" class="cls-9" d="M515.9-111.1h1v8.4h-1v-8.4Z"/>
            <path id="DejaVuSans-6f-3" class="cls-9" d="M521.3-108.1c-.5,0-.9.2-1.3.6s-.5,1-.5,1.7.2,1.3.5,1.7c.3.4.7.6,1.3.6s.9-.2,1.3-.6c.3-.4.5-1,.5-1.7s-.2-1.3-.5-1.7c-.3-.4-.7-.6-1.3-.6ZM521.3-108.9c.9,0,1.5.3,2,.8.5.6.7,1.3.7,2.3s-.2,1.8-.7,2.3c-.5.6-1.2.8-2,.8s-1.5-.3-2-.8c-.5-.6-.7-1.3-.7-2.3s.2-1.8.7-2.3c.5-.6,1.2-.8,2-.8Z"/>
            <path id="DejaVuSans-63-3" class="cls-9" d="M530-108.6v.9c-.3-.2-.6-.3-.8-.3s-.6,0-.9,0c-.6,0-1.1.2-1.5.6s-.5,1-.5,1.7.2,1.3.5,1.7c.4.4.9.6,1.5.6s.6,0,.9,0,.6-.2.8-.3v.9c-.3,0-.6.2-.9.3h-.9c-.9,0-1.6-.3-2.2-.9-.5-.6-.8-1.3-.8-2.3s.3-1.8.8-2.3c.5-.6,1.3-.8,2.2-.8s.6,0,.9,0,.6.2.8.3h.1Z"/>
            <path id="DejaVuSans-61-14" class="cls-9" d="M534.5-105.8c-.8,0-1.4,0-1.7.3s-.5.5-.5.9.1.6.3.8c.2.2.5.3.9.3s1-.2,1.3-.6.5-.9.5-1.5v-.2h-1,.2ZM536.4-106.2v3.4h-1v-.9c-.2.4-.5.6-.8.8-.3.2-.7.3-1.2.3s-1.1-.2-1.5-.5-.5-.8-.5-1.4.2-1.2.7-1.5,1.1-.5,2-.5h1.4c0-.6-.1-.9-.4-1.2s-.7-.4-1.3-.4-.7,0-1,0c-.3,0-.6.2-.9.4v-.9c.4,0,.7-.2,1.1-.3.3,0,.7,0,1,0,.9,0,1.5.2,2,.7.4.5.6,1.1.6,2.1h-.2Z"/>
            <path id="DejaVuSans-74-5" class="cls-9" d="M539.4-110.5v1.7h2v.8h-2v3.3c0,.5,0,.8.2.9s.4.2.8.2h1v.8h-1c-.8,0-1.3,0-1.6-.4-.3-.3-.4-.8-.4-1.6v-3.3h-.7v-.8h.7v-1.7h1Z"/>
            <path id="DejaVuSans-69-9" class="cls-9" d="M542.8-108.8h1v6h-1v-6ZM542.8-111.1h1v1.3h-1v-1.3Z"/>
            <path id="DejaVuSans-6f-4" class="cls-9" d="M548.2-108.1c-.5,0-.9.2-1.3.6s-.5,1-.5,1.7.2,1.3.5,1.7c.3.4.7.6,1.3.6s.9-.2,1.3-.6c.3-.4.5-1,.5-1.7s-.2-1.3-.5-1.7c-.3-.4-.7-.6-1.3-.6ZM548.2-108.9c.9,0,1.5.3,2,.8.5.6.7,1.3.7,2.3s-.2,1.8-.7,2.3c-.5.6-1.2.8-2,.8s-1.5-.3-2-.8c-.5-.6-.7-1.3-.7-2.3s.2-1.8.7-2.3c.5-.6,1.2-.8,2-.8Z"/>
            <path id="DejaVuSans-6e-7" class="cls-9" d="M557.6-106.4v3.6h-1v-3.6c0-.6,0-1-.3-1.3s-.6-.4-1-.4-1,.2-1.3.5-.5.8-.5,1.4v3.4h-1v-6h1v.9c.2-.4.5-.6.8-.8.3-.2.7-.3,1.1-.3.7,0,1.2.2,1.6.6.4.4.5,1.1.5,1.9h.1Z"/>
          </g>
        </g>
        <g id="PathCollection_10">
          <path id="m849ba914e8-2" class="cls-4" d="M461.4-85.7c.9,0,1.8-.4,2.5-1s1-1.6,1-2.5-.4-1.8-1-2.5-1.6-1-2.5-1-1.8.4-2.5,1-1,1.6-1,2.5.4,1.8,1,2.5,1.6,1,2.5,1Z"/>
        </g>
        <g id="text_9">
          <g>
            <path id="DejaVuSans-6f-5" class="cls-9" d="M484.6-91.7c-.5,0-.9.2-1.3.6s-.5,1-.5,1.7.2,1.3.5,1.7c.3.4.7.6,1.3.6s.9-.2,1.3-.6c.3-.4.5-1,.5-1.7s-.2-1.3-.5-1.7c-.3-.4-.7-.6-1.3-.6ZM484.6-92.5c.9,0,1.5.3,2,.8.5.6.7,1.3.7,2.3s-.2,1.8-.7,2.3c-.5.6-1.2.8-2,.8s-1.5-.3-2-.8c-.5-.6-.7-1.3-.7-2.3s.2-1.8.7-2.3c.5-.6,1.2-.8,2-.8Z"/>
            <path id="DejaVuSans-72-8" class="cls-9" d="M492.5-91.4c-.1,0-.2,0-.4,0h-.4c-.6,0-1,.2-1.3.5s-.4.9-.4,1.6v3.2h-1v-6h1v.9c.2-.4.5-.6.8-.8.3-.2.7-.3,1.2-.3s.1,0,.2,0h.3v1h0Z"/>
            <path id="DejaVuSans-69-10" class="cls-9" d="M493.5-92.4h1v6h-1v-6ZM493.5-94.7h1v1.3h-1v-1.3Z"/>
            <path id="DejaVuSans-67-3" class="cls-9" d="M500.5-89.4c0-.7-.1-1.3-.4-1.7-.3-.4-.7-.6-1.2-.6s-.9.2-1.2.6c-.3.4-.4.9-.4,1.7s.1,1.3.4,1.7c.3.4.7.6,1.2.6s.9-.2,1.2-.6c.3-.4.4-.9.4-1.7ZM501.5-87.1c0,1-.2,1.8-.7,2.3s-1.1.7-2.1.7h-1c-.3,0-.6,0-.9-.2v-1c.3.2.6.3.9.3s.6,0,.9,0c.6,0,1.1-.2,1.5-.5.3-.3.5-.8.5-1.5v-.5c-.2.4-.5.6-.8.8s-.7.3-1.1.3c-.7,0-1.3-.3-1.8-.8-.5-.6-.7-1.3-.7-2.2s.2-1.7.7-2.2c.5-.6,1-.8,1.8-.8s.8,0,1.1.3.6.4.8.8v-.9h1v5.3-.3Z"/>
            <path id="DejaVuSans-69-11" class="cls-9" d="M503.6-92.4h1v6h-1v-6ZM503.6-94.7h1v1.3h-1v-1.3Z"/>
            <path id="DejaVuSans-6e-8" class="cls-9" d="M511.6-90v3.6h-1v-3.6c0-.6-.1-1-.3-1.3-.2-.3-.6-.4-1-.4s-1,.2-1.3.5-.5.8-.5,1.4v3.4h-1v-6h1v.9c.2-.4.5-.6.8-.8.3-.2.7-.3,1.1-.3.7,0,1.2.2,1.6.6s.5,1.1.5,1.9h0Z"/>
            <path id="DejaVuSans-5f-4" class="cls-9" d="M518.2-84.5v.8h-5.7v-.8h5.7Z"/>
            <path id="DejaVuSans-66-2" class="cls-9" d="M522.1-94.7v.8h-.9c-.4,0-.6,0-.7.2-.1,0-.2.4-.2.8v.5h1.6v.8h-1.6v5.2h-1v-5.2h-.9v-.8h.9v-.4c0-.7.2-1.2.5-1.5s.8-.5,1.5-.5h.9,0Z"/>
            <path id="DejaVuSans-6f-6" class="cls-9" d="M525.3-91.7c-.5,0-.9.2-1.3.6s-.5,1-.5,1.7.2,1.3.5,1.7c.3.4.7.6,1.3.6s.9-.2,1.3-.6c.3-.4.5-1,.5-1.7s-.2-1.3-.5-1.7c-.3-.4-.7-.6-1.3-.6ZM525.3-92.5c.9,0,1.5.3,2,.8.5.6.7,1.3.7,2.3s-.2,1.8-.7,2.3c-.5.6-1.2.8-2,.8s-1.5-.3-2-.8c-.5-.6-.7-1.3-.7-2.3s.2-1.8.7-2.3c.5-.6,1.2-.8,2-.8Z"/>
            <path id="DejaVuSans-63-4" class="cls-9" d="M534-92.1v.9c-.3-.2-.6-.3-.8-.3s-.6,0-.9,0c-.6,0-1.1.2-1.5.6s-.5,1-.5,1.7.2,1.3.5,1.7c.4.4.9.6,1.5.6s.6,0,.9,0,.6-.2.8-.3v.9c-.3,0-.6.2-.9.3h-.9c-.9,0-1.6-.3-2.2-.9-.5-.6-.8-1.3-.8-2.3s.3-1.8.8-2.3c.5-.6,1.3-.8,2.2-.8s.6,0,.9,0,.6.2.8.3h.1Z"/>
            <path id="DejaVuSans-75-3" class="cls-9" d="M535.6-88.7v-3.6h1v3.6c0,.6.1,1,.3,1.3.2.3.6.4,1,.4s1-.2,1.3-.5.5-.8.5-1.4v-3.4h1v6h-1v-.9c-.2.4-.5.6-.8.8-.3.2-.7.3-1.1.3-.7,0-1.2-.2-1.6-.6s-.5-1.1-.5-1.9h0ZM538.1-92.5h0Z"/>
            <path id="DejaVuSans-73-6" class="cls-9" d="M546.6-92.2v.9c-.3,0-.6-.3-.9-.3s-.6,0-.9,0c-.5,0-.9,0-1.1.2-.2.2-.4.4-.4.7s0,.4.3.5.5.3,1.1.4h.3c.7.2,1.2.4,1.5.7s.4.7.4,1.1-.2,1-.7,1.3c-.4.3-1.1.5-1.8.5h-1c-.3,0-.7-.2-1.1-.3v-1c.4.2.7.3,1.1.4.4,0,.7,0,1.1,0s.8,0,1.1-.2.4-.4.4-.7,0-.5-.3-.6c-.2,0-.6-.3-1.2-.4h-.3c-.6-.2-1.1-.4-1.3-.7-.3-.3-.4-.6-.4-1.1s.2-1,.6-1.3c.4-.3,1-.5,1.7-.5h1c.3,0,.6,0,.9.2v.2Z"/>
          </g>
        </g>
      </g>
    </g>
  </g>
</svg>