<?xml version="1.0" encoding="UTF-8"?>
<svg xmlns="http://www.w3.org/2000/svg" version="1.1" viewBox="0 0 576 576">
  <defs>
    <style>
      .cls-1 {
        fill: none;
      }

      .cls-2 {
        fill: #e78ac3;
      }

      .cls-2, .cls-3, .cls-4, .cls-5, .cls-6, .cls-7, .cls-8 {
        stroke-linejoin: round;
      }

      .cls-2, .cls-3, .cls-4, .cls-6, .cls-7, .cls-8 {
        fill-opacity: .9;
        stroke: #fff;
        stroke-opacity: .9;
        stroke-width: .6px;
      }

      .cls-3 {
        fill: #8da0cb;
      }

      .cls-4 {
        fill: #ffd92f;
      }

      .cls-9 {
        fill: #262626;
      }

      .cls-5 {
        fill-opacity: .4;
        opacity: .2;
        stroke: #ccc;
        stroke-opacity: .4;
        stroke-width: .5px;
      }

      .cls-6 {
        fill: #b3b3b3;
      }

      .cls-7 {
        fill: #fc8d62;
      }

      .cls-8 {
        fill: #66c2a5;
      }
    </style>
  </defs>
  <!-- Generator: Adobe Illustrator 28.7.7, SVG Export Plug-In . SVG Version: 1.2.0 Build 194)  -->
  <g>
    <g id="Layer_1">
      <g id="Layer_1-2" data-name="Layer_1">
        <rect class="cls-1" x="37.7" y="-420.3" width="479.6" height="850.7"/>
        <path id="m3bcda64eef" class="cls-5" d="M555.2,265.1l-174.6,158-30.2-75.1-114.1,6.8-154.1,87.8-77.1,22.4,15.6-77.1,98.5-52.7-4.9-103.4,20.5-60.5,23.4-12.7-41.9-53.7,41-72.2,46.8,8.8,41,64.4,45.9-17.6-2.9-25.4,24.4-30.2,21.5,38,29.3,15.6,25.4-11.7,33.2-34.1,35.1,18.5-2.9,32.2,42.9,26.3,24.4,4.9,14.6,49.8-71.2,6.8,53.7,54.6,37.1,31.2"/>
        <rect class="cls-1" x="37.7" y="-420.3" width="479.6" height="850.7"/>
        <g>
          <path id="mc59583d277" class="cls-8" d="M319.3,237.3c1.6,0,3.2-.6,4.3-1.8s1.8-2.7,1.8-4.3-.6-3.2-1.8-4.3-2.7-1.8-4.3-1.8-3.2.6-4.3,1.8-1.8,2.7-1.8,4.3.6,3.2,1.8,4.3,2.7,1.8,4.3,1.8Z"/>
          <path id="mc59583d277-2" class="cls-8" d="M277.7,217.2c1.6,0,3.2-.6,4.3-1.8s1.8-2.7,1.8-4.3-.6-3.2-1.8-4.3-2.7-1.8-4.3-1.8-3.2.6-4.3,1.8-1.8,2.7-1.8,4.3.6,3.2,1.8,4.3,2.7,1.8,4.3,1.8Z"/>
          <path id="mc59583d277-3" class="cls-8" d="M388.4,159.8c1.6,0,3.2-.6,4.3-1.8s1.8-2.7,1.8-4.3-.6-3.2-1.8-4.3-2.7-1.8-4.3-1.8-3.2.6-4.3,1.8-1.8,2.7-1.8,4.3.6,3.2,1.8,4.3,2.7,1.8,4.3,1.8Z"/>
          <path id="mc59583d277-4" class="cls-8" d="M316.2,354.4c1.6,0,3.2-.6,4.3-1.8s1.8-2.7,1.8-4.3-.6-3.2-1.8-4.3-2.7-1.8-4.3-1.8-3.2.6-4.3,1.8-1.8,2.7-1.8,4.3.6,3.2,1.8,4.3,2.7,1.8,4.3,1.8Z"/>
          <path id="mc59583d277-5" class="cls-8" d="M346.1,216.2c1.6,0,3.2-.6,4.3-1.8s1.8-2.7,1.8-4.3-.6-3.2-1.8-4.3-2.7-1.8-4.3-1.8-3.2.6-4.3,1.8-1.8,2.7-1.8,4.3.6,3.2,1.8,4.3,2.7,1.8,4.3,1.8Z"/>
          <path id="mc59583d277-6" class="cls-8" d="M441.2,214.6c1.6,0,3.2-.6,4.3-1.8s1.8-2.7,1.8-4.3-.6-3.2-1.8-4.3-2.7-1.8-4.3-1.8-3.2.6-4.3,1.8-1.8,2.7-1.8,4.3.6,3.2,1.8,4.3,2.7,1.8,4.3,1.8Z"/>
          <path id="mc59583d277-7" class="cls-8" d="M272.8,202.6c1.6,0,3.2-.6,4.3-1.8s1.8-2.7,1.8-4.3-.6-3.2-1.8-4.3-2.7-1.8-4.3-1.8-3.2.6-4.3,1.8-1.8,2.7-1.8,4.3.6,3.2,1.8,4.3,2.7,1.8,4.3,1.8Z"/>
          <path id="mc59583d277-8" class="cls-8" d="M317.1,215.7c1.6,0,3.2-.6,4.3-1.8s1.8-2.7,1.8-4.3-.6-3.2-1.8-4.3-2.7-1.8-4.3-1.8-3.2.6-4.3,1.8-1.8,2.7-1.8,4.3.6,3.2,1.8,4.3,2.7,1.8,4.3,1.8Z"/>
          <path id="mc59583d277-9" class="cls-8" d="M323.2,206.1c1.6,0,3.2-.6,4.3-1.8s1.8-2.7,1.8-4.3-.6-3.2-1.8-4.3-2.7-1.8-4.3-1.8-3.2.6-4.3,1.8-1.8,2.7-1.8,4.3.6,3.2,1.8,4.3,2.7,1.8,4.3,1.8Z"/>
          <path id="mc59583d277-10" class="cls-8" d="M415,147.5c1.6,0,3.2-.6,4.3-1.8s1.8-2.7,1.8-4.3-.6-3.2-1.8-4.3-2.7-1.8-4.3-1.8-3.2.6-4.3,1.8-1.8,2.7-1.8,4.3.6,3.2,1.8,4.3,2.7,1.8,4.3,1.8Z"/>
          <path id="mc59583d277-11" class="cls-8" d="M289.5,196.1c1.6,0,3.2-.6,4.3-1.8s1.8-2.7,1.8-4.3-.6-3.2-1.8-4.3-2.7-1.8-4.3-1.8-3.2.6-4.3,1.8-1.8,2.7-1.8,4.3.6,3.2,1.8,4.3,2.7,1.8,4.3,1.8Z"/>
          <path id="mc59583d277-12" class="cls-8" d="M329.2,364.4c1.6,0,3.2-.6,4.3-1.8s1.8-2.7,1.8-4.3-.6-3.2-1.8-4.3-2.7-1.8-4.3-1.8-3.2.6-4.3,1.8-1.8,2.7-1.8,4.3.6,3.2,1.8,4.3,2.7,1.8,4.3,1.8Z"/>
          <path id="mc59583d277-13" class="cls-8" d="M189.3,285.8c1.6,0,3.2-.6,4.3-1.8s1.8-2.7,1.8-4.3-.6-3.2-1.8-4.3-2.7-1.8-4.3-1.8-3.2.6-4.3,1.8-1.8,2.7-1.8,4.3.6,3.2,1.8,4.3,2.7,1.8,4.3,1.8Z"/>
        </g>
        <rect class="cls-1" x="37.7" y="-420.3" width="479.6" height="850.7"/>
        <g>
          <path id="mf0cd318552" class="cls-7" d="M333.2,372.8c1.6,0,3.2-.6,4.3-1.8s1.8-2.7,1.8-4.3-.6-3.2-1.8-4.3-2.7-1.8-4.3-1.8-3.2.6-4.3,1.8-1.8,2.7-1.8,4.3.6,3.2,1.8,4.3,2.7,1.8,4.3,1.8Z"/>
          <path id="mf0cd318552-2" class="cls-7" d="M240.4,182.7c1.6,0,3.2-.6,4.3-1.8s1.8-2.7,1.8-4.3-.6-3.2-1.8-4.3-2.7-1.8-4.3-1.8-3.2.6-4.3,1.8-1.8,2.7-1.8,4.3.6,3.2,1.8,4.3,2.7,1.8,4.3,1.8Z"/>
        </g>
        <rect class="cls-1" x="37.7" y="-420.3" width="479.6" height="850.7"/>
        <path id="m85ea9780d0" class="cls-3" d="M405,132.3c1.6,0,3.2-.6,4.3-1.8s1.8-2.7,1.8-4.3-.6-3.2-1.8-4.3-2.7-1.8-4.3-1.8-3.2.6-4.3,1.8-1.8,2.7-1.8,4.3.6,3.2,1.8,4.3,2.7,1.8,4.3,1.8Z"/>
        <rect class="cls-1" x="37.7" y="-420.3" width="479.6" height="850.7"/>
        <path id="m78a60999f1" class="cls-2" d="M288.2,201.4c1.6,0,3.2-.6,4.3-1.8s1.8-2.7,1.8-4.3-.6-3.2-1.8-4.3-2.7-1.8-4.3-1.8-3.2.6-4.3,1.8-1.8,2.7-1.8,4.3.6,3.2,1.8,4.3,2.7,1.8,4.3,1.8Z"/>
        <rect class="cls-1" x="37.7" y="-420.3" width="479.6" height="850.7"/>
        <g>
          <path id="m6377a20b90" class="cls-4" d="M260.2,216.9c1.6,0,3.2-.6,4.3-1.8s1.8-2.7,1.8-4.3-.6-3.2-1.8-4.3-2.7-1.8-4.3-1.8-3.2.6-4.3,1.8-1.8,2.7-1.8,4.3.6,3.2,1.8,4.3,2.7,1.8,4.3,1.8Z"/>
          <path id="m6377a20b90-2" class="cls-4" d="M272.9,157.2c1.6,0,3.2-.6,4.3-1.8s1.8-2.7,1.8-4.3-.6-3.2-1.8-4.3-2.7-1.8-4.3-1.8-3.2.6-4.3,1.8-1.8,2.7-1.8,4.3.6,3.2,1.8,4.3,2.7,1.8,4.3,1.8Z"/>
          <path id="m6377a20b90-3" class="cls-4" d="M264.4,201.4c1.6,0,3.2-.6,4.3-1.8s1.8-2.7,1.8-4.3-.6-3.2-1.8-4.3-2.7-1.8-4.3-1.8-3.2.6-4.3,1.8-1.8,2.7-1.8,4.3.6,3.2,1.8,4.3,2.7,1.8,4.3,1.8Z"/>
          <path id="m6377a20b90-4" class="cls-4" d="M321.4,225.6c1.6,0,3.2-.6,4.3-1.8s1.8-2.7,1.8-4.3-.6-3.2-1.8-4.3-2.7-1.8-4.3-1.8-3.2.6-4.3,1.8-1.8,2.7-1.8,4.3.6,3.2,1.8,4.3,2.7,1.8,4.3,1.8Z"/>
          <path id="m6377a20b90-5" class="cls-4" d="M405,132.3c1.6,0,3.2-.6,4.3-1.8s1.8-2.7,1.8-4.3-.6-3.2-1.8-4.3-2.7-1.8-4.3-1.8-3.2.6-4.3,1.8-1.8,2.7-1.8,4.3.6,3.2,1.8,4.3,2.7,1.8,4.3,1.8Z"/>
          <path id="m6377a20b90-6" class="cls-4" d="M303.7,229.4c1.6,0,3.2-.6,4.3-1.8s1.8-2.7,1.8-4.3-.6-3.2-1.8-4.3-2.7-1.8-4.3-1.8-3.2.6-4.3,1.8-1.8,2.7-1.8,4.3.6,3.2,1.8,4.3,2.7,1.8,4.3,1.8Z"/>
          <path id="m6377a20b90-7" class="cls-4" d="M307.1,211.4c1.6,0,3.2-.6,4.3-1.8s1.8-2.7,1.8-4.3-.6-3.2-1.8-4.3-2.7-1.8-4.3-1.8-3.2.6-4.3,1.8-1.8,2.7-1.8,4.3.6,3.2,1.8,4.3,2.7,1.8,4.3,1.8Z"/>
          <path id="m6377a20b90-8" class="cls-4" d="M294.1,192.1c1.6,0,3.2-.6,4.3-1.8s1.8-2.7,1.8-4.3-.6-3.2-1.8-4.3-2.7-1.8-4.3-1.8-3.2.6-4.3,1.8-1.8,2.7-1.8,4.3.6,3.2,1.8,4.3,2.7,1.8,4.3,1.8Z"/>
          <path id="m6377a20b90-9" class="cls-4" d="M275.8,203.4c1.6,0,3.2-.6,4.3-1.8s1.8-2.7,1.8-4.3-.6-3.2-1.8-4.3-2.7-1.8-4.3-1.8-3.2.6-4.3,1.8-1.8,2.7-1.8,4.3.6,3.2,1.8,4.3,2.7,1.8,4.3,1.8Z"/>
          <path id="m6377a20b90-10" class="cls-4" d="M307.2,217.9c1.6,0,3.2-.6,4.3-1.8s1.8-2.7,1.8-4.3-.6-3.2-1.8-4.3-2.7-1.8-4.3-1.8-3.2.6-4.3,1.8-1.8,2.7-1.8,4.3.6,3.2,1.8,4.3,2.7,1.8,4.3,1.8Z"/>
          <path id="m6377a20b90-11" class="cls-4" d="M358.9,179.3c1.6,0,3.2-.6,4.3-1.8s1.8-2.7,1.8-4.3-.6-3.2-1.8-4.3-2.7-1.8-4.3-1.8-3.2.6-4.3,1.8-1.8,2.7-1.8,4.3.6,3.2,1.8,4.3,2.7,1.8,4.3,1.8Z"/>
          <path id="m6377a20b90-12" class="cls-4" d="M280.7,215.6c1.6,0,3.2-.6,4.3-1.8s1.8-2.7,1.8-4.3-.6-3.2-1.8-4.3-2.7-1.8-4.3-1.8-3.2.6-4.3,1.8-1.8,2.7-1.8,4.3.6,3.2,1.8,4.3,2.7,1.8,4.3,1.8Z"/>
          <path id="m6377a20b90-13" class="cls-4" d="M358.7,182.7c1.6,0,3.2-.6,4.3-1.8s1.8-2.7,1.8-4.3-.6-3.2-1.8-4.3-2.7-1.8-4.3-1.8-3.2.6-4.3,1.8-1.8,2.7-1.8,4.3.6,3.2,1.8,4.3,2.7,1.8,4.3,1.8Z"/>
          <path id="m6377a20b90-14" class="cls-4" d="M319.8,226c1.6,0,3.2-.6,4.3-1.8s1.8-2.7,1.8-4.3-.6-3.2-1.8-4.3-2.7-1.8-4.3-1.8-3.2.6-4.3,1.8-1.8,2.7-1.8,4.3.6,3.2,1.8,4.3,2.7,1.8,4.3,1.8Z"/>
          <path id="m6377a20b90-15" class="cls-4" d="M315.8,222.3c1.6,0,3.2-.6,4.3-1.8s1.8-2.7,1.8-4.3-.6-3.2-1.8-4.3-2.7-1.8-4.3-1.8-3.2.6-4.3,1.8-1.8,2.7-1.8,4.3.6,3.2,1.8,4.3,2.7,1.8,4.3,1.8Z"/>
          <path id="m6377a20b90-16" class="cls-4" d="M288.5,193.2c1.6,0,3.2-.6,4.3-1.8s1.8-2.7,1.8-4.3-.6-3.2-1.8-4.3-2.7-1.8-4.3-1.8-3.2.6-4.3,1.8-1.8,2.7-1.8,4.3.6,3.2,1.8,4.3,2.7,1.8,4.3,1.8Z"/>
          <path id="m6377a20b90-17" class="cls-4" d="M214.1,270.3c1.6,0,3.2-.6,4.3-1.8s1.8-2.7,1.8-4.3-.6-3.2-1.8-4.3-2.7-1.8-4.3-1.8-3.2.6-4.3,1.8-1.8,2.7-1.8,4.3.6,3.2,1.8,4.3,2.7,1.8,4.3,1.8Z"/>
          <path id="m6377a20b90-18" class="cls-4" d="M318.3,227c1.6,0,3.2-.6,4.3-1.8s1.8-2.7,1.8-4.3-.6-3.2-1.8-4.3-2.7-1.8-4.3-1.8-3.2.6-4.3,1.8-1.8,2.7-1.8,4.3.6,3.2,1.8,4.3,2.7,1.8,4.3,1.8Z"/>
          <path id="m6377a20b90-19" class="cls-4" d="M340.5,180.3c1.6,0,3.2-.6,4.3-1.8s1.8-2.7,1.8-4.3-.6-3.2-1.8-4.3-2.7-1.8-4.3-1.8-3.2.6-4.3,1.8-1.8,2.7-1.8,4.3.6,3.2,1.8,4.3,2.7,1.8,4.3,1.8Z"/>
          <path id="m6377a20b90-20" class="cls-4" d="M365.5,183.9c1.6,0,3.2-.6,4.3-1.8s1.8-2.7,1.8-4.3-.6-3.2-1.8-4.3-2.7-1.8-4.3-1.8-3.2.6-4.3,1.8-1.8,2.7-1.8,4.3.6,3.2,1.8,4.3,2.7,1.8,4.3,1.8Z"/>
          <path id="m6377a20b90-21" class="cls-4" d="M307.4,198.5c1.6,0,3.2-.6,4.3-1.8s1.8-2.7,1.8-4.3-.6-3.2-1.8-4.3-2.7-1.8-4.3-1.8-3.2.6-4.3,1.8-1.8,2.7-1.8,4.3.6,3.2,1.8,4.3,2.7,1.8,4.3,1.8Z"/>
          <path id="m6377a20b90-22" class="cls-4" d="M273.2,213.4c1.6,0,3.2-.6,4.3-1.8s1.8-2.7,1.8-4.3-.6-3.2-1.8-4.3-2.7-1.8-4.3-1.8-3.2.6-4.3,1.8-1.8,2.7-1.8,4.3.6,3.2,1.8,4.3,2.7,1.8,4.3,1.8Z"/>
          <path id="m6377a20b90-23" class="cls-4" d="M308,211.5c1.6,0,3.2-.6,4.3-1.8s1.8-2.7,1.8-4.3-.6-3.2-1.8-4.3-2.7-1.8-4.3-1.8-3.2.6-4.3,1.8-1.8,2.7-1.8,4.3.6,3.2,1.8,4.3,2.7,1.8,4.3,1.8Z"/>
          <path id="m6377a20b90-24" class="cls-4" d="M399.7,143c1.6,0,3.2-.6,4.3-1.8s1.8-2.7,1.8-4.3-.6-3.2-1.8-4.3-2.7-1.8-4.3-1.8-3.2.6-4.3,1.8-1.8,2.7-1.8,4.3.6,3.2,1.8,4.3,2.7,1.8,4.3,1.8Z"/>
          <path id="m6377a20b90-25" class="cls-4" d="M274.8,229.4c1.6,0,3.2-.6,4.3-1.8s1.8-2.7,1.8-4.3-.6-3.2-1.8-4.3-2.7-1.8-4.3-1.8-3.2.6-4.3,1.8-1.8,2.7-1.8,4.3.6,3.2,1.8,4.3,2.7,1.8,4.3,1.8Z"/>
          <path id="m6377a20b90-26" class="cls-4" d="M327,206.9c1.6,0,3.2-.6,4.3-1.8s1.8-2.7,1.8-4.3-.6-3.2-1.8-4.3-2.7-1.8-4.3-1.8-3.2.6-4.3,1.8-1.8,2.7-1.8,4.3.6,3.2,1.8,4.3,2.7,1.8,4.3,1.8Z"/>
          <path id="m6377a20b90-27" class="cls-4" d="M244.9,191.6c1.6,0,3.2-.6,4.3-1.8s1.8-2.7,1.8-4.3-.6-3.2-1.8-4.3-2.7-1.8-4.3-1.8-3.2.6-4.3,1.8-1.8,2.7-1.8,4.3.6,3.2,1.8,4.3,2.7,1.8,4.3,1.8Z"/>
          <path id="m6377a20b90-28" class="cls-4" d="M322.5,228.9c1.6,0,3.2-.6,4.3-1.8s1.8-2.7,1.8-4.3-.6-3.2-1.8-4.3-2.7-1.8-4.3-1.8-3.2.6-4.3,1.8-1.8,2.7-1.8,4.3.6,3.2,1.8,4.3,2.7,1.8,4.3,1.8Z"/>
          <path id="m6377a20b90-29" class="cls-4" d="M323.4,211.4c1.6,0,3.2-.6,4.3-1.8s1.8-2.7,1.8-4.3-.6-3.2-1.8-4.3-2.7-1.8-4.3-1.8-3.2.6-4.3,1.8-1.8,2.7-1.8,4.3.6,3.2,1.8,4.3,2.7,1.8,4.3,1.8Z"/>
          <path id="m6377a20b90-30" class="cls-4" d="M301.2,225.3c1.6,0,3.2-.6,4.3-1.8s1.8-2.7,1.8-4.3-.6-3.2-1.8-4.3-2.7-1.8-4.3-1.8-3.2.6-4.3,1.8-1.8,2.7-1.8,4.3.6,3.2,1.8,4.3,2.7,1.8,4.3,1.8Z"/>
          <path id="m6377a20b90-31" class="cls-4" d="M312.5,322.6c1.6,0,3.2-.6,4.3-1.8s1.8-2.7,1.8-4.3-.6-3.2-1.8-4.3-2.7-1.8-4.3-1.8-3.2.6-4.3,1.8-1.8,2.7-1.8,4.3.6,3.2,1.8,4.3,2.7,1.8,4.3,1.8Z"/>
          <path id="m6377a20b90-32" class="cls-4" d="M397.7,141.2c1.6,0,3.2-.6,4.3-1.8s1.8-2.7,1.8-4.3-.6-3.2-1.8-4.3-2.7-1.8-4.3-1.8-3.2.6-4.3,1.8-1.8,2.7-1.8,4.3.6,3.2,1.8,4.3,2.7,1.8,4.3,1.8Z"/>
          <path id="m6377a20b90-33" class="cls-4" d="M388.5,111.9c1.6,0,3.2-.6,4.3-1.8s1.8-2.7,1.8-4.3-.6-3.2-1.8-4.3-2.7-1.8-4.3-1.8-3.2.6-4.3,1.8-1.8,2.7-1.8,4.3.6,3.2,1.8,4.3,2.7,1.8,4.3,1.8Z"/>
          <path id="m6377a20b90-34" class="cls-4" d="M320.1,211.1c1.6,0,3.2-.6,4.3-1.8s1.8-2.7,1.8-4.3-.6-3.2-1.8-4.3-2.7-1.8-4.3-1.8-3.2.6-4.3,1.8-1.8,2.7-1.8,4.3.6,3.2,1.8,4.3,2.7,1.8,4.3,1.8Z"/>
          <path id="m6377a20b90-35" class="cls-4" d="M281.8,219.4c1.6,0,3.2-.6,4.3-1.8s1.8-2.7,1.8-4.3-.6-3.2-1.8-4.3-2.7-1.8-4.3-1.8-3.2.6-4.3,1.8-1.8,2.7-1.8,4.3.6,3.2,1.8,4.3,2.7,1.8,4.3,1.8Z"/>
          <path id="m6377a20b90-36" class="cls-4" d="M282.7,184.1c1.6,0,3.2-.6,4.3-1.8s1.8-2.7,1.8-4.3-.6-3.2-1.8-4.3-2.7-1.8-4.3-1.8-3.2.6-4.3,1.8-1.8,2.7-1.8,4.3.6,3.2,1.8,4.3,2.7,1.8,4.3,1.8Z"/>
          <path id="m6377a20b90-37" class="cls-4" d="M320.6,212.6c1.6,0,3.2-.6,4.3-1.8s1.8-2.7,1.8-4.3-.6-3.2-1.8-4.3-2.7-1.8-4.3-1.8-3.2.6-4.3,1.8-1.8,2.7-1.8,4.3.6,3.2,1.8,4.3,2.7,1.8,4.3,1.8Z"/>
          <path id="m6377a20b90-38" class="cls-4" d="M276,220.4c1.6,0,3.2-.6,4.3-1.8s1.8-2.7,1.8-4.3-.6-3.2-1.8-4.3-2.7-1.8-4.3-1.8-3.2.6-4.3,1.8-1.8,2.7-1.8,4.3.6,3.2,1.8,4.3,2.7,1.8,4.3,1.8Z"/>
          <path id="m6377a20b90-39" class="cls-4" d="M406.6,119.5c1.6,0,3.2-.6,4.3-1.8s1.8-2.7,1.8-4.3-.6-3.2-1.8-4.3-2.7-1.8-4.3-1.8-3.2.6-4.3,1.8-1.8,2.7-1.8,4.3.6,3.2,1.8,4.3,2.7,1.8,4.3,1.8Z"/>
          <path id="m6377a20b90-40" class="cls-4" d="M315.9,230.5c1.6,0,3.2-.6,4.3-1.8s1.8-2.7,1.8-4.3-.6-3.2-1.8-4.3-2.7-1.8-4.3-1.8-3.2.6-4.3,1.8-1.8,2.7-1.8,4.3.6,3.2,1.8,4.3,2.7,1.8,4.3,1.8Z"/>
          <path id="m6377a20b90-41" class="cls-4" d="M291.1,199.2c1.6,0,3.2-.6,4.3-1.8s1.8-2.7,1.8-4.3-.6-3.2-1.8-4.3-2.7-1.8-4.3-1.8-3.2.6-4.3,1.8-1.8,2.7-1.8,4.3.6,3.2,1.8,4.3,2.7,1.8,4.3,1.8Z"/>
          <path id="m6377a20b90-42" class="cls-4" d="M202.4,199.6c1.6,0,3.2-.6,4.3-1.8s1.8-2.7,1.8-4.3-.6-3.2-1.8-4.3-2.7-1.8-4.3-1.8-3.2.6-4.3,1.8-1.8,2.7-1.8,4.3.6,3.2,1.8,4.3,2.7,1.8,4.3,1.8Z"/>
          <path id="m6377a20b90-43" class="cls-4" d="M269.1,160.4c1.6,0,3.2-.6,4.3-1.8s1.8-2.7,1.8-4.3-.6-3.2-1.8-4.3-2.7-1.8-4.3-1.8-3.2.6-4.3,1.8-1.8,2.7-1.8,4.3.6,3.2,1.8,4.3,2.7,1.8,4.3,1.8Z"/>
          <path id="m6377a20b90-44" class="cls-4" d="M320.3,254.9c1.6,0,3.2-.6,4.3-1.8s1.8-2.7,1.8-4.3-.6-3.2-1.8-4.3-2.7-1.8-4.3-1.8-3.2.6-4.3,1.8-1.8,2.7-1.8,4.3.6,3.2,1.8,4.3,2.7,1.8,4.3,1.8Z"/>
          <path id="m6377a20b90-45" class="cls-4" d="M308,244.6c1.6,0,3.2-.6,4.3-1.8s1.8-2.7,1.8-4.3-.6-3.2-1.8-4.3-2.7-1.8-4.3-1.8-3.2.6-4.3,1.8-1.8,2.7-1.8,4.3.6,3.2,1.8,4.3,2.7,1.8,4.3,1.8Z"/>
          <path id="m6377a20b90-46" class="cls-4" d="M347.1,329.4c1.6,0,3.2-.6,4.3-1.8s1.8-2.7,1.8-4.3-.6-3.2-1.8-4.3-2.7-1.8-4.3-1.8-3.2.6-4.3,1.8-1.8,2.7-1.8,4.3.6,3.2,1.8,4.3,2.7,1.8,4.3,1.8Z"/>
          <path id="m6377a20b90-47" class="cls-4" d="M311.3,173.5c1.6,0,3.2-.6,4.3-1.8s1.8-2.7,1.8-4.3-.6-3.2-1.8-4.3-2.7-1.8-4.3-1.8-3.2.6-4.3,1.8-1.8,2.7-1.8,4.3.6,3.2,1.8,4.3,2.7,1.8,4.3,1.8Z"/>
          <path id="m6377a20b90-48" class="cls-4" d="M316.1,222.6c1.6,0,3.2-.6,4.3-1.8s1.8-2.7,1.8-4.3-.6-3.2-1.8-4.3-2.7-1.8-4.3-1.8-3.2.6-4.3,1.8-1.8,2.7-1.8,4.3.6,3.2,1.8,4.3,2.7,1.8,4.3,1.8Z"/>
          <path id="m6377a20b90-49" class="cls-4" d="M285,214.2c1.6,0,3.2-.6,4.3-1.8s1.8-2.7,1.8-4.3-.6-3.2-1.8-4.3-2.7-1.8-4.3-1.8-3.2.6-4.3,1.8-1.8,2.7-1.8,4.3.6,3.2,1.8,4.3,2.7,1.8,4.3,1.8Z"/>
          <path id="m6377a20b90-50" class="cls-4" d="M245.4,190.4c1.6,0,3.2-.6,4.3-1.8s1.8-2.7,1.8-4.3-.6-3.2-1.8-4.3-2.7-1.8-4.3-1.8-3.2.6-4.3,1.8-1.8,2.7-1.8,4.3.6,3.2,1.8,4.3,2.7,1.8,4.3,1.8Z"/>
          <path id="m6377a20b90-51" class="cls-4" d="M313.2,228.4c1.6,0,3.2-.6,4.3-1.8s1.8-2.7,1.8-4.3-.6-3.2-1.8-4.3-2.7-1.8-4.3-1.8-3.2.6-4.3,1.8-1.8,2.7-1.8,4.3.6,3.2,1.8,4.3,2.7,1.8,4.3,1.8Z"/>
          <path id="m6377a20b90-52" class="cls-4" d="M453.5,136.7c1.6,0,3.2-.6,4.3-1.8s1.8-2.7,1.8-4.3-.6-3.2-1.8-4.3-2.7-1.8-4.3-1.8-3.2.6-4.3,1.8-1.8,2.7-1.8,4.3.6,3.2,1.8,4.3,2.7,1.8,4.3,1.8Z"/>
          <path id="m6377a20b90-53" class="cls-4" d="M305,181.3c1.6,0,3.2-.6,4.3-1.8s1.8-2.7,1.8-4.3-.6-3.2-1.8-4.3-2.7-1.8-4.3-1.8-3.2.6-4.3,1.8-1.8,2.7-1.8,4.3.6,3.2,1.8,4.3,2.7,1.8,4.3,1.8Z"/>
          <path id="m6377a20b90-54" class="cls-4" d="M295.3,228.3c1.6,0,3.2-.6,4.3-1.8s1.8-2.7,1.8-4.3-.6-3.2-1.8-4.3-2.7-1.8-4.3-1.8-3.2.6-4.3,1.8-1.8,2.7-1.8,4.3.6,3.2,1.8,4.3,2.7,1.8,4.3,1.8Z"/>
          <path id="m6377a20b90-55" class="cls-4" d="M285.4,235.9c1.6,0,3.2-.6,4.3-1.8s1.8-2.7,1.8-4.3-.6-3.2-1.8-4.3-2.7-1.8-4.3-1.8-3.2.6-4.3,1.8-1.8,2.7-1.8,4.3.6,3.2,1.8,4.3,2.7,1.8,4.3,1.8Z"/>
          <path id="m6377a20b90-56" class="cls-4" d="M276.3,247.3c1.6,0,3.2-.6,4.3-1.8s1.8-2.7,1.8-4.3-.6-3.2-1.8-4.3-2.7-1.8-4.3-1.8-3.2.6-4.3,1.8-1.8,2.7-1.8,4.3.6,3.2,1.8,4.3,2.7,1.8,4.3,1.8Z"/>
          <path id="m6377a20b90-57" class="cls-4" d="M314.8,237.6c1.6,0,3.2-.6,4.3-1.8s1.8-2.7,1.8-4.3-.6-3.2-1.8-4.3-2.7-1.8-4.3-1.8-3.2.6-4.3,1.8-1.8,2.7-1.8,4.3.6,3.2,1.8,4.3,2.7,1.8,4.3,1.8Z"/>
          <path id="m6377a20b90-58" class="cls-4" d="M389.3,332.8c1.6,0,3.2-.6,4.3-1.8s1.8-2.7,1.8-4.3-.6-3.2-1.8-4.3-2.7-1.8-4.3-1.8-3.2.6-4.3,1.8-1.8,2.7-1.8,4.3.6,3.2,1.8,4.3,2.7,1.8,4.3,1.8Z"/>
          <path id="m6377a20b90-59" class="cls-4" d="M297.3,180.6c1.6,0,3.2-.6,4.3-1.8s1.8-2.7,1.8-4.3-.6-3.2-1.8-4.3-2.7-1.8-4.3-1.8-3.2.6-4.3,1.8-1.8,2.7-1.8,4.3.6,3.2,1.8,4.3,2.7,1.8,4.3,1.8Z"/>
          <path id="m6377a20b90-60" class="cls-4" d="M320.5,223.6c1.6,0,3.2-.6,4.3-1.8s1.8-2.7,1.8-4.3-.6-3.2-1.8-4.3-2.7-1.8-4.3-1.8-3.2.6-4.3,1.8-1.8,2.7-1.8,4.3.6,3.2,1.8,4.3,2.7,1.8,4.3,1.8Z"/>
          <path id="m6377a20b90-61" class="cls-4" d="M165.2,153c1.6,0,3.2-.6,4.3-1.8s1.8-2.7,1.8-4.3-.6-3.2-1.8-4.3-2.7-1.8-4.3-1.8-3.2.6-4.3,1.8-1.8,2.7-1.8,4.3.6,3.2,1.8,4.3,2.7,1.8,4.3,1.8Z"/>
          <path id="m6377a20b90-62" class="cls-4" d="M303.6,231.7c1.6,0,3.2-.6,4.3-1.8s1.8-2.7,1.8-4.3-.6-3.2-1.8-4.3-2.7-1.8-4.3-1.8-3.2.6-4.3,1.8-1.8,2.7-1.8,4.3.6,3.2,1.8,4.3,2.7,1.8,4.3,1.8Z"/>
          <path id="m6377a20b90-63" class="cls-4" d="M279.2,220.4c1.6,0,3.2-.6,4.3-1.8s1.8-2.7,1.8-4.3-.6-3.2-1.8-4.3-2.7-1.8-4.3-1.8-3.2.6-4.3,1.8-1.8,2.7-1.8,4.3.6,3.2,1.8,4.3,2.7,1.8,4.3,1.8Z"/>
        </g>
        <rect class="cls-1" x="37.7" y="-420.3" width="479.6" height="850.7"/>
        <g>
          <path id="m60c4645eed" class="cls-6" d="M281.1,191.3c1.6,0,3.2-.6,4.3-1.8s1.8-2.7,1.8-4.3-.6-3.2-1.8-4.3-2.7-1.8-4.3-1.8-3.2.6-4.3,1.8-1.8,2.7-1.8,4.3.6,3.2,1.8,4.3,2.7,1.8,4.3,1.8Z"/>
          <path id="m60c4645eed-2" class="cls-6" d="M313.4,216.3c1.6,0,3.2-.6,4.3-1.8s1.8-2.7,1.8-4.3-.6-3.2-1.8-4.3-2.7-1.8-4.3-1.8-3.2.6-4.3,1.8-1.8,2.7-1.8,4.3.6,3.2,1.8,4.3,2.7,1.8,4.3,1.8Z"/>
          <path id="m60c4645eed-3" class="cls-6" d="M404.8,132.3c1.6,0,3.2-.6,4.3-1.8s1.8-2.7,1.8-4.3-.6-3.2-1.8-4.3-2.7-1.8-4.3-1.8-3.2.6-4.3,1.8-1.8,2.7-1.8,4.3.6,3.2,1.8,4.3,2.7,1.8,4.3,1.8Z"/>
          <path id="m60c4645eed-4" class="cls-6" d="M299.4,239.8c1.6,0,3.2-.6,4.3-1.8s1.8-2.7,1.8-4.3-.6-3.2-1.8-4.3-2.7-1.8-4.3-1.8-3.2.6-4.3,1.8-1.8,2.7-1.8,4.3.6,3.2,1.8,4.3,2.7,1.8,4.3,1.8Z"/>
          <path id="m60c4645eed-5" class="cls-6" d="M313.4,216.3c1.6,0,3.2-.6,4.3-1.8s1.8-2.7,1.8-4.3-.6-3.2-1.8-4.3-2.7-1.8-4.3-1.8-3.2.6-4.3,1.8-1.8,2.7-1.8,4.3.6,3.2,1.8,4.3,2.7,1.8,4.3,1.8Z"/>
        </g>
        <g>
          <path id="DejaVuSans-48" class="cls-9" d="M76.1-125.4h1.4v4.2h5v-4.2h1.4v10.2h-1.4v-4.9h-5v4.9h-1.4v-10.2Z"/>
          <path id="DejaVuSans-6f" class="cls-9" d="M89.5-122c-.7,0-1.2.3-1.6.8s-.6,1.2-.6,2.2.2,1.6.6,2.2c.4.5.9.8,1.6.8s1.2-.3,1.6-.8.6-1.2.6-2.2-.2-1.6-.6-2.2c-.4-.5-.9-.8-1.6-.8ZM89.5-123c1.1,0,2,.4,2.6,1.1s.9,1.7.9,3-.3,2.2-.9,3c-.6.7-1.5,1.1-2.6,1.1s-2-.4-2.6-1.1-.9-1.7-.9-3,.3-2.2.9-3c.6-.7,1.5-1.1,2.6-1.1Z"/>
          <path id="DejaVuSans-20" class="cls-9" d="M93.8-115.2"/>
          <path id="DejaVuSans-43" class="cls-9" d="M107.2-124.6v1.5c-.5-.4-1-.8-1.5-1s-1.1-.3-1.7-.3c-1.2,0-2.1.4-2.7,1.1s-.9,1.7-.9,3.1.3,2.4.9,3.1,1.5,1.1,2.7,1.1,1.2,0,1.7-.3,1-.5,1.5-1v1.4c-.5.3-1,.6-1.5.7-.5.2-1.1.2-1.7.2-1.5,0-2.8-.5-3.7-1.4-.9-.9-1.3-2.2-1.3-3.9s.4-2.9,1.3-3.9c.9-.9,2.1-1.4,3.7-1.4s1.2,0,1.7.2,1,.4,1.5.7h0Z"/>
          <path id="DejaVuSans-68" class="cls-9" d="M115.7-119.8v4.6h-1.3v-4.6c0-.7,0-1.3-.4-1.6-.3-.4-.7-.5-1.3-.5s-1.2.2-1.6.6-.6,1-.6,1.8v4.3h-1.3v-10.6h1.3v4.2c.3-.5.7-.8,1.1-1s.9-.3,1.4-.3c.9,0,1.5.3,2,.8s.7,1.3.7,2.4h0Z"/>
          <path id="DejaVuSans-69" class="cls-9" d="M118.2-122.8h1.3v7.7h-1.3v-7.7ZM118.2-125.8h1.3v1.6h-1.3v-1.6Z"/>
          <path id="DejaVuSans-20-2" class="cls-9" d="M120.8-115.2"/>
          <path id="DejaVuSans-4d" class="cls-9" d="M126.6-125.4h2.1l2.6,6.9,2.6-6.9h2.1v10.2h-1.3v-9l-2.6,7h-1.4l-2.6-7v9h-1.3v-10.2h-.2Z"/>
          <path id="DejaVuSans-69-2" class="cls-9" d="M138.6-122.8h1.3v7.7h-1.3v-7.7ZM138.6-125.8h1.3v1.6h-1.3v-1.6Z"/>
          <path id="DejaVuSans-6e" class="cls-9" d="M148.9-119.8v4.6h-1.3v-4.6c0-.7-.1-1.3-.4-1.6-.3-.4-.7-.5-1.3-.5s-1.2.2-1.6.6c-.4.4-.6,1-.6,1.8v4.3h-1.3v-7.7h1.3v1.2c.3-.5.7-.8,1.1-1,.4-.2.9-.3,1.4-.3.9,0,1.5.3,2,.8s.7,1.3.7,2.4h0Z"/>
          <path id="DejaVuSans-68-2" class="cls-9" d="M157.7-119.8v4.6h-1.3v-4.6c0-.7-.1-1.3-.4-1.6-.3-.4-.7-.5-1.3-.5s-1.2.2-1.6.6c-.4.4-.6,1-.6,1.8v4.3h-1.3v-10.6h1.3v4.2c.3-.5.7-.8,1.1-1,.4-.2.9-.3,1.4-.3.9,0,1.5.3,2,.8s.7,1.3.7,2.4h0Z"/>
          <path id="DejaVuSans-20-3" class="cls-9" d="M158.9-115.2"/>
          <path id="DejaVuSans-43-2" class="cls-9" d="M172.4-124.6v1.5c-.5-.4-1-.8-1.5-1s-1.1-.3-1.7-.3c-1.2,0-2.1.4-2.7,1.1s-.9,1.7-.9,3.1.3,2.4.9,3.1,1.5,1.1,2.7,1.1,1.2,0,1.7-.3,1-.5,1.5-1v1.4c-.5.3-1,.6-1.5.7-.5.2-1.1.2-1.7.2-1.5,0-2.8-.5-3.7-1.4s-1.3-2.2-1.3-3.9.4-2.9,1.3-3.9c.9-.9,2.1-1.4,3.7-1.4s1.2,0,1.7.2,1,.4,1.5.7h0Z"/>
          <path id="DejaVuSans-69-3" class="cls-9" d="M174.5-122.8h1.3v7.7h-1.3v-7.7ZM174.5-125.8h1.3v1.6h-1.3v-1.6Z"/>
          <path id="DejaVuSans-74" class="cls-9" d="M179.6-125v2.2h2.6v1h-2.6v4.2c0,.6,0,1,.3,1.2s.5.3,1,.3h1.3v1.1h-1.3c-1,0-1.6-.2-2-.5-.4-.4-.6-1-.6-2v-4.2h-.9v-1h.9v-2.2h1.3Z"/>
          <path id="DejaVuSans-79" class="cls-9" d="M187-114.5c-.4.9-.7,1.5-1,1.8s-.8.4-1.4.4h-1v-1.1h.7c.3,0,.6,0,.8-.2s.4-.6.6-1.2l.2-.6-3.1-7.5h1.3l2.4,6,2.4-6h1.3l-3.4,8.4h.2Z"/>
          <path id="DejaVuSans-20-4" class="cls-9" d="M190.8-115.2"/>
          <path id="DejaVuSans-2013" class="cls-9" d="M196-119.5h5.6v1h-5.6v-1Z"/>
          <path id="DejaVuSans-20-5" class="cls-9" d="M202.3-115.2"/>
          <path id="DejaVuSans-49" class="cls-9" d="M208.1-125.4h1.4v10.2h-1.4v-10.2Z"/>
          <path id="DejaVuSans-6e-2" class="cls-9" d="M218.5-119.8v4.6h-1.3v-4.6c0-.7-.1-1.3-.4-1.6-.3-.4-.7-.5-1.3-.5s-1.2.2-1.6.6c-.4.4-.6,1-.6,1.8v4.3h-1.3v-7.7h1.3v1.2c.3-.5.7-.8,1.1-1,.4-.2.9-.3,1.4-.3.9,0,1.5.3,2,.8s.7,1.3.7,2.4h0Z"/>
          <path id="DejaVuSans-73" class="cls-9" d="M225.9-122.6v1.2c-.4-.2-.7-.3-1.1-.4-.4,0-.8,0-1.2,0-.6,0-1.1,0-1.4.3-.3.2-.5.5-.5.9s.1.5.3.7.7.3,1.3.5h.4c.9.3,1.5.6,1.9.9s.6.8.6,1.5-.3,1.3-.8,1.7c-.6.4-1.3.6-2.3.6s-.8,0-1.3,0c-.4,0-.9-.2-1.4-.4v-1.3c.5.2.9.4,1.4.5s.9.2,1.3.2,1,0,1.4-.3c.3-.2.5-.5.5-.9s-.1-.6-.3-.8c-.2-.2-.7-.4-1.5-.5h-.4c-.8-.3-1.3-.5-1.7-.9-.3-.3-.5-.8-.5-1.4s.3-1.3.8-1.7c.5-.4,1.2-.6,2.2-.6s.9,0,1.3,0c.4,0,.8.2,1.1.3h-.1Z"/>
          <path id="DejaVuSans-74-2" class="cls-9" d="M229.6-125v2.2h2.6v1h-2.6v4.2c0,.6,0,1,.3,1.2s.5.3,1,.3h1.3v1.1h-1.3c-1,0-1.6-.2-2-.5-.4-.4-.6-1-.6-2v-4.2h-.9v-1h.9v-2.2h1.3Z"/>
          <path id="DejaVuSans-61" class="cls-9" d="M237.3-119c-1,0-1.7,0-2.1.3s-.6.6-.6,1.2.1.8.4,1.1c.3.3.7.4,1.2.4s1.3-.2,1.7-.7.6-1.2.6-2v-.3h-1.3.1ZM239.8-119.6v4.4h-1.3v-1.2c-.3.5-.6.8-1.1,1-.4.2-1,.3-1.6.3s-1.4-.2-1.9-.7c-.5-.4-.7-1-.7-1.8s.3-1.5.9-1.9c.6-.4,1.4-.7,2.6-.7h1.8c0-.7-.2-1.2-.6-1.5s-.9-.5-1.6-.5-.9,0-1.3.2c-.4,0-.8.3-1.2.5v-1.2c.5-.2.9-.3,1.3-.4.4,0,.9,0,1.3,0,1.1,0,1.9.3,2.5.9.5.6.8,1.4.8,2.6h.1Z"/>
          <path id="DejaVuSans-67" class="cls-9" d="M247.4-119.1c0-.9-.2-1.6-.6-2.1-.4-.5-.9-.8-1.6-.8s-1.2.3-1.6.8c-.4.5-.6,1.2-.6,2.1s.2,1.6.6,2.1c.4.5.9.8,1.6.8s1.2-.3,1.6-.8c.4-.5.6-1.2.6-2.1ZM248.7-116.1c0,1.3-.3,2.3-.9,2.9-.6.6-1.5,1-2.7,1h-1.3c-.4,0-.8-.2-1.1-.3v-1.2c.4.2.7.3,1.1.4.4,0,.7,0,1.1,0,.8,0,1.4-.2,1.9-.6.4-.4.6-1.1.6-2v-.6c-.3.5-.6.8-1,1s-.9.3-1.5.3c-.9,0-1.7-.4-2.3-1.1s-.9-1.7-.9-2.8.3-2.1.9-2.8c.6-.7,1.3-1.1,2.3-1.1s1.1,0,1.5.3.7.6,1,1v-1.2h1.3v6.7h0Z"/>
          <path id="DejaVuSans-72" class="cls-9" d="M255.7-121.7c-.1,0-.3,0-.5-.2h-.5c-.7,0-1.3.2-1.6.7s-.6,1.1-.6,2v4h-1.3v-7.7h1.3v1.2c.3-.5.6-.8,1-1s.9-.3,1.5-.3.2,0,.3,0h.3v1.3h.1Z"/>
          <path id="DejaVuSans-61-2" class="cls-9" d="M260.5-119c-1,0-1.7,0-2.1.3s-.6.6-.6,1.2.1.8.4,1.1c.3.3.7.4,1.2.4s1.3-.2,1.7-.7.6-1.2.6-2v-.3h-1.3,0ZM263-119.6v4.4h-1.3v-1.2c-.3.5-.6.8-1.1,1-.4.2-1,.3-1.6.3s-1.4-.2-1.9-.7c-.5-.4-.7-1-.7-1.8s.3-1.5.9-1.9,1.4-.7,2.6-.7h1.8c0-.7-.2-1.2-.6-1.5s-.9-.5-1.6-.5-.9,0-1.3.2c-.4,0-.8.3-1.2.5v-1.2c.5-.2.9-.3,1.3-.4.4,0,.9,0,1.3,0,1.1,0,1.9.3,2.5.9.5.6.8,1.4.8,2.6h.1Z"/>
          <path id="DejaVuSans-6d" class="cls-9" d="M271.6-121.4c.3-.6.7-1,1.1-1.3s1-.4,1.5-.4,1.4.3,1.8.8c.4.6.6,1.4.6,2.4v4.6h-1.3v-4.6c0-.7-.1-1.3-.4-1.6-.3-.4-.7-.5-1.2-.5s-1.2.2-1.5.6c-.4.4-.6,1-.6,1.8v4.3h-1.3v-4.6c0-.7-.1-1.3-.4-1.6s-.7-.5-1.2-.5-1.2.2-1.5.7c-.4.4-.6,1-.6,1.8v4.3h-1.3v-7.7h1.3v1.2c.3-.5.6-.8,1-1s.9-.3,1.4-.3,1,0,1.4.4.7.7.9,1.2h.3Z"/>
          <path id="DejaVuSans-20-6" class="cls-9" d="M277.9-115.2"/>
          <path id="DejaVuSans-43-3" class="cls-9" d="M291.4-124.6v1.5c-.5-.4-1-.8-1.5-1s-1.1-.3-1.7-.3c-1.2,0-2.1.4-2.7,1.1s-.9,1.7-.9,3.1.3,2.4.9,3.1,1.5,1.1,2.7,1.1,1.2,0,1.7-.3,1-.5,1.5-1v1.4c-.5.3-1,.6-1.5.7-.5.2-1.1.2-1.7.2-1.5,0-2.8-.5-3.7-1.4-.9-.9-1.3-2.2-1.3-3.9s.4-2.9,1.3-3.9c.9-.9,2.1-1.4,3.7-1.4s1.2,0,1.7.2,1,.4,1.5.7h0Z"/>
          <path id="DejaVuSans-61-3" class="cls-9" d="M297-119c-1,0-1.7,0-2.1.3s-.6.6-.6,1.2.1.8.4,1.1c.3.3.7.4,1.2.4s1.3-.2,1.7-.7.6-1.2.6-2v-.3h-1.3,0ZM299.5-119.6v4.4h-1.3v-1.2c-.3.5-.6.8-1.1,1-.4.2-1,.3-1.6.3s-1.4-.2-1.9-.7c-.5-.4-.7-1-.7-1.8s.3-1.5.9-1.9,1.4-.7,2.6-.7h1.8c0-.7-.2-1.2-.6-1.5s-.9-.5-1.6-.5-.9,0-1.3.2c-.4,0-.8.3-1.2.5v-1.2c.5-.2.9-.3,1.3-.4.4,0,.9,0,1.3,0,1.1,0,1.9.3,2.5.9.5.6.8,1.4.8,2.6h.1Z"/>
          <path id="DejaVuSans-66" class="cls-9" d="M305.9-125.8v1h-1.2c-.5,0-.8,0-.9.3-.2.2-.3.5-.3,1v.7h2.1v1h-2.1v6.7h-1.3v-6.7h-1.2v-1h1.2v-.5c0-.9.2-1.5.6-1.9s1-.6,1.9-.6h1.2,0Z"/>
          <path id="DejaVuSans-e9" class="cls-9" d="M313.5-119.3v.6h-5.8c0,.9.3,1.5.8,2s1.1.7,2,.7,1,0,1.4-.2.9-.3,1.4-.5v1.2c-.5.2-.9.3-1.4.4s-1,.2-1.4.2c-1.2,0-2.2-.4-2.9-1.1-.7-.7-1.1-1.7-1.1-2.9s.3-2.2,1-3c.7-.7,1.6-1.1,2.7-1.1s1.8.3,2.4,1,.9,1.6.9,2.7ZM312.3-119.7c0-.7-.2-1.2-.6-1.6s-.9-.6-1.5-.6-1.3.2-1.7.6-.7,1-.7,1.7h4.5ZM311.1-126.4h1.4l-2.2,2.6h-1l1.9-2.6h0Z"/>
          <path id="DejaVuSans-73-2" class="cls-9" d="M320.5-122.6v1.2c-.4-.2-.7-.3-1.1-.4-.4,0-.8,0-1.2,0-.6,0-1.1,0-1.4.3-.3.2-.5.5-.5.9s.1.5.3.7.7.3,1.3.5h.4c.9.3,1.5.6,1.9.9s.6.8.6,1.5-.3,1.3-.8,1.7c-.6.4-1.3.6-2.3.6s-.8,0-1.3,0c-.4,0-.9-.2-1.4-.4v-1.3c.5.2.9.4,1.4.5s.9.2,1.3.2,1,0,1.4-.3c.3-.2.5-.5.5-.9s-.1-.6-.3-.8c-.2-.2-.7-.4-1.5-.5h-.4c-.8-.3-1.3-.5-1.7-.9-.3-.3-.5-.8-.5-1.4s.3-1.3.8-1.7c.5-.4,1.2-.6,2.2-.6s.9,0,1.3,0c.4,0,.8.2,1.1.3h0Z"/>
          <path id="DejaVuSans-20-7" class="cls-9" d="M321.6-115.2"/>
          <path id="DejaVuSans-62" class="cls-9" d="M332.8-119c0-.9-.2-1.7-.6-2.2s-.9-.8-1.6-.8-1.2.3-1.6.8-.6,1.3-.6,2.2.2,1.7.6,2.2.9.8,1.6.8,1.2-.3,1.6-.8.6-1.3.6-2.2ZM328.6-121.7c.3-.5.6-.8,1-1s.9-.3,1.4-.3c.9,0,1.7.4,2.3,1.1.6.7.9,1.7.9,2.9s-.3,2.2-.9,2.9c-.6.7-1.3,1.1-2.3,1.1s-1,0-1.4-.3c-.4-.2-.7-.6-1-1v1.1h-1.3v-10.6h1.3v4.1Z"/>
          <path id="DejaVuSans-79-2" class="cls-9" d="M339.4-114.5c-.4.9-.7,1.5-1,1.8s-.8.4-1.4.4h-1v-1.1h.7c.3,0,.6,0,.8-.2.2-.2.4-.6.6-1.2l.2-.6-3.1-7.5h1.3l2.4,6,2.4-6h1.3l-3.4,8.4h.2Z"/>
          <path id="DejaVuSans-20-8" class="cls-9" d="M343.2-115.2"/>
          <path id="DejaVuSans-54" class="cls-9" d="M347.6-125.4h8.6v1.2h-3.6v9h-1.4v-9h-3.6v-1.2Z"/>
          <path id="DejaVuSans-68-3" class="cls-9" d="M363.9-119.8v4.6h-1.3v-4.6c0-.7-.1-1.3-.4-1.6-.3-.4-.7-.5-1.3-.5s-1.2.2-1.6.6-.6,1-.6,1.8v4.3h-1.3v-10.6h1.3v4.2c.3-.5.7-.8,1.1-1s.9-.3,1.4-.3c.9,0,1.5.3,2,.8s.7,1.3.7,2.4h0Z"/>
          <path id="DejaVuSans-65" class="cls-9" d="M372.9-119.3v.6h-5.8c0,.9.3,1.5.8,2s1.1.7,2,.7,1,0,1.4-.2.9-.3,1.4-.5v1.2c-.5.2-.9.3-1.4.4s-1,.2-1.4.2c-1.2,0-2.2-.4-2.9-1.1-.7-.7-1.1-1.7-1.1-2.9s.3-2.2,1-3c.7-.7,1.6-1.1,2.7-1.1s1.8.3,2.4,1,.9,1.6.9,2.7ZM371.7-119.7c0-.7-.2-1.2-.6-1.6s-.9-.6-1.5-.6-1.3.2-1.7.6-.7,1-.7,1.7h4.5Z"/>
          <path id="DejaVuSans-6d-2" class="cls-9" d="M381-121.4c.3-.6.7-1,1.1-1.3s1-.4,1.5-.4,1.4.3,1.8.8c.4.6.6,1.4.6,2.4v4.6h-1.3v-4.6c0-.7-.1-1.3-.4-1.6-.3-.4-.7-.5-1.2-.5s-1.2.2-1.5.6c-.4.4-.6,1-.6,1.8v4.3h-1.3v-4.6c0-.7-.1-1.3-.4-1.6s-.7-.5-1.2-.5-1.2.2-1.5.7c-.4.4-.6,1-.6,1.8v4.3h-1.3v-7.7h1.3v1.2c.3-.5.6-.8,1-1s.9-.3,1.4-.3,1,0,1.4.4.7.7.9,1.2h.3Z"/>
          <path id="DejaVuSans-65-2" class="cls-9" d="M395.2-119.3v.6h-5.8c0,.9.3,1.5.8,2s1.1.7,2,.7,1,0,1.4-.2.9-.3,1.4-.5v1.2c-.5.2-.9.3-1.4.4s-1,.2-1.4.2c-1.2,0-2.2-.4-2.9-1.1-.7-.7-1.1-1.7-1.1-2.9s.3-2.2,1-3c.7-.7,1.6-1.1,2.7-1.1s1.8.3,2.4,1,.9,1.6.9,2.7ZM393.9-119.7c0-.7-.2-1.2-.6-1.6s-.9-.6-1.5-.6-1.3.2-1.7.6-.7,1-.7,1.7h4.5Z"/>
        </g>
        <g id="text_2">
          <g>
            <path id="DejaVuSans-50" class="cls-9" d="M745.6,6v3.3h1.5c.6,0,1-.1,1.3-.4.3-.3.5-.7.5-1.2s-.2-.9-.5-1.2c-.3-.3-.7-.4-1.3-.4h-1.5ZM744.5,5.1h2.7c1,0,1.7.2,2.2.7.5.4.8,1.1.8,1.9s-.3,1.5-.8,2c-.5.4-1.2.7-2.2.7h-1.5v3.5h-1.2V5.1Z"/>
            <path id="DejaVuSans-72-2" class="cls-9" d="M755.2,8.2c0,0-.3-.1-.4-.2h-.5c-.6,0-1.1.2-1.4.6s-.5,1-.5,1.7v3.5h-1.1v-6.6h1.1v1c.2-.4.5-.7.9-.9.4-.2.8-.3,1.3-.3s.2,0,.2,0h.3v1.1h.1Z"/>
            <path id="DejaVuSans-69-4" class="cls-9" d="M756.4,7.2h1.1v6.6h-1.1s0-6.6,0-6.6ZM756.4,4.7h1.1v1.4h-1.1v-1.4Z"/>
            <path id="DejaVuSans-6d-3" class="cls-9" d="M764.8,8.5c.3-.5.6-.8,1-1.1s.8-.3,1.3-.3,1.2.2,1.6.7c.4.5.6,1.2.6,2v4h-1.1v-3.9c0-.6,0-1.1-.3-1.4-.2-.3-.6-.5-1-.5s-1,.2-1.3.6c-.3.4-.5.9-.5,1.5v3.7h-1.1v-3.9c0-.6,0-1.1-.3-1.4s-.6-.5-1-.5-1,.2-1.3.6c-.3.4-.5.9-.5,1.5v3.7h-1.1v-6.6h1.1v1c.2-.4.5-.7.9-.9s.8-.3,1.2-.3.9,0,1.2.4c.3.2.6.6.7,1.1h-.1Z"/>
            <path id="DejaVuSans-61-4" class="cls-9" d="M774.4,10.5c-.9,0-1.5,0-1.8.3s-.5.5-.5,1,0,.7.4.9c.3.2.6.3,1,.3s1.1-.2,1.4-.6.5-1,.5-1.7v-.2h-1.1,0ZM776.5,10.1v3.7h-1.1v-1c-.2.4-.6.7-.9.9-.4.2-.8.3-1.3.3s-1.2-.2-1.6-.6c-.4-.4-.6-.9-.6-1.5s.2-1.3.7-1.7,1.2-.6,2.2-.6h1.5c0-.6-.2-1-.5-1.3s-.8-.4-1.4-.4-.7,0-1.1,0c-.4,0-.7.2-1,.4v-1c.4-.2.8-.3,1.1-.3s.7,0,1.1,0c1,0,1.7.2,2.1.7.5.5.7,1.2.7,2.2v.2Z"/>
            <path id="DejaVuSans-72-3" class="cls-9" d="M782.5,8.2c0,0-.3-.1-.4-.2h-.5c-.6,0-1.1.2-1.4.6s-.5,1-.5,1.7v3.5h-1.1v-6.6h1.1v1c.2-.4.5-.7.9-.9.4-.2.8-.3,1.3-.3s.2,0,.2,0h.3v1.1h.1Z"/>
            <path id="DejaVuSans-79-3" class="cls-9" d="M786.4,14.4c-.3.8-.6,1.3-.9,1.5-.3.2-.7.4-1.2.4h-.9v-.9h.6c.3,0,.5,0,.7-.2.2-.1.3-.5.5-1l.2-.5-2.7-6.5h1.1l2.1,5.1,2.1-5.1h1.1l-2.9,7.2h.2Z"/>
            <path id="DejaVuSans-20-9" class="cls-9" d="M789.6,13.8"/>
            <path id="DejaVuSans-54-2" class="cls-9" d="M793.4,5.1h7.4v1h-3.1v7.8h-1.2v-7.8h-3.1v-1h0Z"/>
            <path id="DejaVuSans-68-4" class="cls-9" d="M807.4,9.8v4h-1.1v-3.9c0-.6,0-1.1-.4-1.4-.2-.3-.6-.5-1.1-.5s-1,.2-1.4.6c-.3.4-.5.9-.5,1.5v3.7h-1.1V4.7h1.1v3.6c.3-.4.6-.7.9-.9.3-.2.8-.3,1.2-.3.8,0,1.3.2,1.7.7.4.5.6,1.2.6,2.1h0Z"/>
            <path id="DejaVuSans-65-3" class="cls-9" d="M815.1,10.3v.5h-5c0,.7.3,1.3.7,1.7s1,.6,1.7.6.8,0,1.2-.2.8-.3,1.2-.5v1c-.4.2-.8.3-1.2.4s-.8.1-1.2.1c-1,0-1.9-.3-2.5-.9-.6-.6-.9-1.4-.9-2.5s.3-1.9.9-2.6c.6-.6,1.4-.9,2.3-.9s1.6.3,2.1.9.8,1.3.8,2.3h0ZM814.1,9.9c0-.6-.2-1.1-.5-1.4-.3-.4-.7-.5-1.3-.5s-1.1.2-1.4.5-.6.8-.6,1.4h3.8Z"/>
            <path id="DejaVuSans-6d-4" class="cls-9" d="M822,8.5c.3-.5.6-.8,1-1.1s.8-.3,1.3-.3,1.2.2,1.6.7c.4.5.6,1.2.6,2v4h-1.1v-3.9c0-.6,0-1.1-.3-1.4-.2-.3-.6-.5-1-.5s-1,.2-1.3.6c-.3.4-.5.9-.5,1.5v3.7h-1.1v-3.9c0-.6,0-1.1-.3-1.4s-.6-.5-1-.5-1,.2-1.3.6c-.3.4-.5.9-.5,1.5v3.7h-1.1v-6.6h1.1v1c.2-.4.5-.7.9-.9s.8-.3,1.2-.3.9,0,1.2.4c.3.2.6.6.7,1.1h-.1Z"/>
            <path id="DejaVuSans-65-4" class="cls-9" d="M834.2,10.3v.5h-5c0,.7.3,1.3.7,1.7s1,.6,1.7.6.8,0,1.2-.2.8-.3,1.2-.5v1c-.4.2-.8.3-1.2.4s-.8.1-1.2.1c-1,0-1.9-.3-2.5-.9-.6-.6-.9-1.4-.9-2.5s.3-1.9.9-2.6c.6-.6,1.4-.9,2.3-.9s1.6.3,2.1.9.8,1.3.8,2.3h0ZM833.1,9.9c0-.6-.2-1.1-.5-1.4-.3-.4-.7-.5-1.3-.5s-1.1.2-1.4.5-.6.8-.6,1.4h3.8Z"/>
          </g>
        </g>
        <g id="PathCollection_7">
          <path id="mc59583d277-14" class="cls-8" d="M732.4,30.8c.9,0,1.8-.4,2.5-1s1-1.6,1-2.5-.4-1.8-1-2.5-1.6-1-2.5-1-1.8.4-2.5,1-1,1.6-1,2.5.4,1.8,1,2.5,1.6,1,2.5,1Z"/>
        </g>
        <g id="text_3">
          <g>
            <path id="DejaVuSans-63" class="cls-9" d="M757.5,24.4v.9c-.3-.2-.6-.3-.8-.3s-.6-.1-.9-.1c-.6,0-1.1.2-1.5.6s-.5,1-.5,1.7.2,1.3.5,1.7c.4.4.9.6,1.5.6s.6,0,.9-.1.6-.2.8-.3v.9c-.3.1-.6.2-.9.3h-.9c-.9,0-1.6-.3-2.2-.9-.5-.6-.8-1.3-.8-2.3s.3-1.8.8-2.3c.5-.6,1.3-.8,2.2-.8h.9c.3,0,.6.2.8.3h.1Z"/>
            <path id="DejaVuSans-6f-2" class="cls-9" d="M761.6,24.8c-.5,0-.9.2-1.3.6s-.5,1-.5,1.7.2,1.3.5,1.7c.3.4.7.6,1.3.6s.9-.2,1.3-.6c.3-.4.5-1,.5-1.7s-.2-1.3-.5-1.7c-.3-.4-.7-.6-1.3-.6ZM761.6,24c.9,0,1.5.3,2,.8.5.6.7,1.3.7,2.3s-.2,1.8-.7,2.3c-.5.6-1.2.8-2,.8s-1.5-.3-2-.8c-.5-.6-.7-1.3-.7-2.3s.2-1.8.7-2.3c.5-.6,1.2-.8,2-.8Z"/>
            <path id="DejaVuSans-6d-5" class="cls-9" d="M770.7,25.3c.2-.4.5-.8.9-1s.7-.3,1.2-.3,1.1.2,1.5.7c.3.4.5,1.1.5,1.9v3.6h-1v-3.6c0-.6,0-1-.3-1.3s-.5-.4-.9-.4-.9.2-1.2.5-.4.8-.4,1.4v3.4h-1v-3.6c0-.6,0-1-.3-1.3s-.5-.4-.9-.4-.9.2-1.2.5-.4.8-.4,1.4v3.4h-1v-6h1v.9c.2-.4.5-.6.8-.8s.7-.3,1.1-.3.8.1,1.1.3c.3.2.5.5.7,1h-.2Z"/>
            <path id="DejaVuSans-6d-6" class="cls-9" d="M781.4,25.3c.2-.4.5-.8.9-1s.7-.3,1.2-.3,1.1.2,1.5.7c.3.4.5,1.1.5,1.9v3.6h-1v-3.6c0-.6,0-1-.3-1.3s-.5-.4-.9-.4-.9.2-1.2.5-.4.8-.4,1.4v3.4h-1v-3.6c0-.6,0-1-.3-1.3s-.5-.4-.9-.4-.9.2-1.2.5-.4.8-.4,1.4v3.4h-1v-6h1v.9c.2-.4.5-.6.8-.8s.7-.3,1.1-.3.8.1,1.1.3c.3.2.5.5.7,1h-.2Z"/>
            <path id="DejaVuSans-75" class="cls-9" d="M787.3,27.8v-3.6h1v3.6c0,.6,0,1,.3,1.3s.6.4,1,.4,1-.2,1.3-.5.5-.8.5-1.4v-3.4h1v6h-1v-.9c-.2.4-.5.6-.8.8-.3.2-.7.3-1.1.3-.7,0-1.2-.2-1.6-.6-.4-.4-.5-1.1-.5-1.9h-.1ZM789.8,24h0Z"/>
            <path id="DejaVuSans-6e-3" class="cls-9" d="M799.4,26.5v3.6h-1v-3.6c0-.6,0-1-.3-1.3s-.6-.4-1-.4-1,.2-1.3.5-.5.8-.5,1.4v3.4h-1v-6h1v.9c.2-.4.5-.6.8-.8.3-.2.7-.3,1.1-.3.7,0,1.2.2,1.6.6.4.4.5,1.1.5,1.9h.1Z"/>
            <path id="DejaVuSans-69-5" class="cls-9" d="M801.4,24.1h1v6h-1v-6ZM801.4,21.8h1v1.3h-1v-1.3Z"/>
            <path id="DejaVuSans-74-3" class="cls-9" d="M805.4,22.4v1.7h2v.8h-2v3.3c0,.5,0,.8.2.9s.4.2.8.2h1v.8h-1c-.8,0-1.3-.1-1.6-.4s-.4-.8-.4-1.6v-3.3h-.7v-.8h.7v-1.7h1Z"/>
            <path id="DejaVuSans-79-4" class="cls-9" d="M811.2,30.7c-.3.7-.6,1.2-.8,1.4-.3.2-.6.3-1.1.3h-.8v-.8h.6c.3,0,.5,0,.6-.2.2-.1.3-.4.5-.9l.2-.5-2.4-5.9h1l1.9,4.7,1.9-4.7h1l-2.6,6.6h0Z"/>
            <path id="DejaVuSans-5f" class="cls-9" d="M819.8,32v.8h-5.7v-.8h5.7Z"/>
            <path id="DejaVuSans-65-5" class="cls-9" d="M825.9,26.9v.5h-4.5c0,.7.2,1.2.6,1.6.4.4.9.5,1.5.5s.7,0,1.1-.1.7-.2,1.1-.4v.9c-.4.2-.7.3-1.1.3s-.7.1-1.1.1c-1,0-1.7-.3-2.3-.8-.6-.6-.8-1.3-.8-2.3s.3-1.8.8-2.3c.5-.6,1.2-.9,2.2-.9s1.4.3,1.9.8.7,1.2.7,2.1h-.1ZM824.9,26.6c0-.5-.2-1-.5-1.3s-.7-.5-1.2-.5-1,.2-1.3.5-.5.8-.6,1.3h3.6Z"/>
            <path id="DejaVuSans-76" class="cls-9" d="M826.8,24.1h1l1.9,5,1.9-5h1l-2.3,6h-1.3l-2.3-6h0Z"/>
            <path id="DejaVuSans-65-6" class="cls-9" d="M839.2,26.9v.5h-4.5c0,.7.2,1.2.6,1.6.4.4.9.5,1.5.5s.7,0,1.1-.1.7-.2,1.1-.4v.9c-.4.2-.7.3-1.1.3s-.7.1-1.1.1c-1,0-1.7-.3-2.3-.8-.6-.6-.8-1.3-.8-2.3s.3-1.8.8-2.3c.5-.6,1.2-.9,2.2-.9s1.4.3,1.9.8.7,1.2.7,2.1h-.1ZM838.2,26.6c0-.5-.2-1-.5-1.3s-.7-.5-1.2-.5-1,.2-1.3.5-.5.8-.6,1.3h3.6Z"/>
            <path id="DejaVuSans-6e-4" class="cls-9" d="M845.8,26.5v3.6h-1v-3.6c0-.6,0-1-.3-1.3s-.6-.4-1-.4-1,.2-1.3.5-.5.8-.5,1.4v3.4h-1v-6h1v.9c.2-.4.5-.6.8-.8.3-.2.7-.3,1.1-.3.7,0,1.2.2,1.6.6.4.4.5,1.1.5,1.9h.1Z"/>
            <path id="DejaVuSans-74-4" class="cls-9" d="M848.7,22.4v1.7h2v.8h-2v3.3c0,.5,0,.8.2.9s.4.2.8.2h1v.8h-1c-.8,0-1.3-.1-1.6-.4s-.4-.8-.4-1.6v-3.3h-.7v-.8h.7v-1.7h1Z"/>
            <path id="DejaVuSans-73-3" class="cls-9" d="M855.9,24.3v.9c-.3-.1-.6-.3-.9-.3s-.6-.1-.9-.1c-.5,0-.9,0-1.1.2-.2.2-.4.4-.4.7s0,.4.3.5.5.3,1.1.4h.3c.7.2,1.2.4,1.5.7s.4.7.4,1.1-.2,1-.7,1.3c-.4.3-1.1.5-1.8.5h-1c-.3,0-.7-.2-1.1-.3v-1c.4.2.7.3,1.1.4.4,0,.7.1,1.1.1s.8,0,1.1-.2.4-.4.4-.7,0-.5-.3-.6c-.2-.1-.6-.3-1.2-.4h-.3c-.6-.2-1.1-.4-1.3-.7-.3-.3-.4-.6-.4-1.1s.2-1,.6-1.3c.4-.3,1-.5,1.7-.5h1c.3,0,.6.1.9.2v.2Z"/>
          </g>
        </g>
        <g id="PathCollection_8">
          <path id="mf0cd318552-3" class="cls-7" d="M732.4,47.3c.9,0,1.8-.4,2.5-1s1-1.6,1-2.5-.4-1.8-1-2.5-1.6-1-2.5-1-1.8.4-2.5,1-1,1.6-1,2.5.4,1.8,1,2.5,1.6,1,2.5,1Z"/>
        </g>
        <g id="text_4">
          <g>
            <path id="DejaVuSans-64" class="cls-9" d="M757.2,41.5v-3.3h1v8.4h-1v-.9c-.2.4-.5.6-.8.8s-.7.3-1.1.3c-.7,0-1.3-.3-1.8-.9-.5-.6-.7-1.3-.7-2.3s.2-1.7.7-2.3,1-.9,1.8-.9.8,0,1.1.3c.3.2.6.4.8.8ZM753.8,43.6c0,.7,0,1.3.4,1.7.3.4.7.6,1.2.6s.9-.2,1.2-.6c.3-.4.5-1,.5-1.7s-.2-1.3-.5-1.7-.7-.6-1.2-.6-.9.2-1.2.6-.4,1-.4,1.7Z"/>
            <path id="DejaVuSans-65-7" class="cls-9" d="M765.3,43.4v.5h-4.5c0,.7.2,1.2.6,1.6.4.4.9.5,1.5.5s.7,0,1.1,0,.7-.2,1.1-.4v.9c-.4.2-.7.3-1.1.3s-.7,0-1.1,0c-1,0-1.7-.3-2.3-.8-.6-.6-.8-1.3-.8-2.3s.3-1.8.8-2.3c.5-.6,1.2-.9,2.2-.9s1.4.3,1.9.8.7,1.2.7,2.1h-.1ZM764.3,43.1c0-.5-.2-1-.5-1.3s-.7-.5-1.2-.5-1,.2-1.3.5-.5.8-.6,1.3h3.6Z"/>
            <path id="DejaVuSans-73-4" class="cls-9" d="M770.8,40.8v.9c-.3,0-.6-.3-.9-.3s-.6,0-.9,0c-.5,0-.9,0-1.1.2-.2.2-.4.4-.4.7s0,.4.3.5.5.3,1.1.4h.3c.7.2,1.2.4,1.5.7s.4.7.4,1.1-.2,1-.7,1.3c-.4.3-1.1.5-1.8.5h-1c-.3,0-.7-.2-1.1-.3v-1c.4.2.7.3,1.1.4.4,0,.7,0,1.1,0s.8,0,1.1-.2.4-.4.4-.7,0-.5-.3-.6c-.2,0-.6-.3-1.2-.4h-.3c-.6-.2-1.1-.4-1.3-.7-.3-.3-.4-.6-.4-1.1s.2-1,.6-1.3c.4-.3,1-.5,1.7-.5h1c.3,0,.6,0,.9.2v.2Z"/>
            <path id="DejaVuSans-69-6" class="cls-9" d="M772.7,40.6h1v6h-1v-6ZM772.7,38.3h1v1.3h-1v-1.3Z"/>
            <path id="DejaVuSans-67-2" class="cls-9" d="M779.7,43.5c0-.7,0-1.3-.4-1.7-.3-.4-.7-.6-1.2-.6s-.9.2-1.2.6c-.3.4-.4.9-.4,1.7s0,1.3.4,1.7c.3.4.7.6,1.2.6s.9-.2,1.2-.6c.3-.4.4-.9.4-1.7ZM780.7,45.9c0,1-.2,1.8-.7,2.3s-1.1.7-2.1.7h-1c-.3,0-.6,0-.9-.2v-1c.3.2.6.3.9.3s.6,0,.9,0c.6,0,1.1-.2,1.5-.5.3-.3.5-.8.5-1.5v-.5c-.2.4-.5.6-.8.8s-.7.3-1.1.3c-.7,0-1.3-.3-1.8-.8-.5-.6-.7-1.3-.7-2.2s.2-1.7.7-2.2c.5-.6,1-.8,1.8-.8s.8,0,1.1.3.6.4.8.8v-.9h1v5.3-.3Z"/>
            <path id="DejaVuSans-6e-5" class="cls-9" d="M787.7,43v3.6h-1v-3.6c0-.6,0-1-.3-1.3s-.6-.4-1-.4-1,.2-1.3.5-.5.8-.5,1.4v3.4h-1v-6h1v.9c.2-.4.5-.6.8-.8s.7-.3,1.1-.3c.7,0,1.2.2,1.6.6.4.4.5,1.1.5,1.9h.1Z"/>
            <path id="DejaVuSans-5f-2" class="cls-9" d="M794.3,48.4v.8h-5.7v-.8h5.7Z"/>
            <path id="DejaVuSans-6d-7" class="cls-9" d="M799.9,41.8c.2-.4.5-.8.9-1s.7-.3,1.2-.3,1.1.2,1.5.7c.3.4.5,1.1.5,1.9v3.6h-1v-3.6c0-.6,0-1-.3-1.3s-.5-.4-.9-.4-.9.2-1.2.5-.4.8-.4,1.4v3.4h-1v-3.6c0-.6,0-1-.3-1.3s-.5-.4-.9-.4-.9.2-1.2.5-.4.8-.4,1.4v3.4h-1v-6h1v.9c.2-.4.5-.6.8-.8s.7-.3,1.1-.3.8,0,1.1.3.5.5.7,1h-.2Z"/>
            <path id="DejaVuSans-69-7" class="cls-9" d="M805.9,40.6h1v6h-1v-6ZM805.9,38.3h1v1.3h-1v-1.3Z"/>
            <path id="DejaVuSans-6e-6" class="cls-9" d="M814,43v3.6h-1v-3.6c0-.6,0-1-.3-1.3s-.6-.4-1-.4-1,.2-1.3.5-.5.8-.5,1.4v3.4h-1v-6h1v.9c.2-.4.5-.6.8-.8s.7-.3,1.1-.3c.7,0,1.2.2,1.6.6.4.4.5,1.1.5,1.9h.1Z"/>
            <path id="DejaVuSans-69-8" class="cls-9" d="M815.9,40.6h1v6h-1v-6ZM815.9,38.3h1v1.3h-1v-1.3Z"/>
            <path id="DejaVuSans-6d-8" class="cls-9" d="M823.7,41.8c.2-.4.5-.8.9-1s.7-.3,1.2-.3,1.1.2,1.5.7c.3.4.5,1.1.5,1.9v3.6h-1v-3.6c0-.6,0-1-.3-1.3s-.5-.4-.9-.4-.9.2-1.2.5-.4.8-.4,1.4v3.4h-1v-3.6c0-.6,0-1-.3-1.3s-.5-.4-.9-.4-.9.2-1.2.5-.4.8-.4,1.4v3.4h-1v-6h1v.9c.2-.4.5-.6.8-.8s.7-.3,1.1-.3.8,0,1.1.3.5.5.7,1h-.2Z"/>
            <path id="DejaVuSans-61-5" class="cls-9" d="M832.4,43.6c-.8,0-1.4,0-1.7.3s-.5.5-.5.9,0,.6.3.8.5.3.9.3,1-.2,1.3-.6.5-.9.5-1.5v-.2h-1,.2ZM834.4,43.2v3.4h-1v-.9c-.2.4-.5.6-.8.8s-.7.3-1.2.3-1.1-.2-1.5-.5-.5-.8-.5-1.4.2-1.2.7-1.5,1.1-.5,2-.5h1.4c0-.6,0-.9-.4-1.2s-.7-.4-1.3-.4-.7,0-1,0c-.3,0-.6.2-.9.4v-.9c.4,0,.7-.2,1.1-.3.3,0,.7,0,1,0,.9,0,1.5.2,2,.7.4.5.6,1.1.6,2.1h-.2Z"/>
            <path id="DejaVuSans-6c" class="cls-9" d="M836.5,38.3h1v8.4h-1s0-8.4,0-8.4Z"/>
          </g>
        </g>
        <g id="PathCollection_9">
          <path id="m85ea9780d0-2" class="cls-3" d="M732.4,63.7c.9,0,1.8-.4,2.5-1s1-1.6,1-2.5-.4-1.8-1-2.5-1.6-1-2.5-1-1.8.4-2.5,1-1,1.6-1,2.5.4,1.8,1,2.5,1.6,1,2.5,1Z"/>
        </g>
        <g id="text_5">
          <g>
            <path id="DejaVuSans-65-8" class="cls-9" d="M758.4,59.8v.5h-4.5c0,.7.2,1.2.6,1.6.4.4.9.5,1.5.5s.7,0,1.1,0,.7-.2,1.1-.4v.9c-.4.2-.7.3-1.1.3s-.7,0-1.1,0c-1,0-1.7-.3-2.3-.8-.6-.6-.8-1.3-.8-2.3s.3-1.8.8-2.3c.5-.6,1.2-.9,2.2-.9s1.4.3,1.9.8.7,1.2.7,2.1h-.1ZM757.4,59.5c0-.5-.2-1-.5-1.3s-.7-.5-1.2-.5-1,.2-1.3.5-.5.8-.6,1.3h3.6Z"/>
            <path id="DejaVuSans-74-5" class="cls-9" d="M760.9,55.3v1.7h2v.8h-2v3.3c0,.5,0,.8.2.9s.4.2.8.2h1v.8h-1c-.8,0-1.3,0-1.6-.4-.3-.3-.4-.8-.4-1.6v-3.3h-.7v-.8h.7v-1.7h1Z"/>
            <path id="DejaVuSans-68-5" class="cls-9" d="M769.3,59.4v3.6h-1v-3.6c0-.6,0-1-.3-1.3s-.6-.4-1-.4-1,.2-1.3.5-.5.8-.5,1.4v3.4h-1v-8.4h1v3.3c.2-.4.5-.6.8-.8s.7-.3,1.1-.3c.7,0,1.2.2,1.6.6.4.4.5,1.1.5,1.9h.1Z"/>
            <path id="DejaVuSans-69-9" class="cls-9" d="M771.3,57h1v6h-1v-6ZM771.3,54.7h1v1.3h-1v-1.3Z"/>
            <path id="DejaVuSans-63-2" class="cls-9" d="M778.6,57.3v.9c-.3-.2-.6-.3-.8-.3s-.6,0-.9,0c-.6,0-1.1.2-1.5.6-.4.4-.5,1-.5,1.7s.2,1.3.5,1.7c.4.4.9.6,1.5.6s.6,0,.9,0,.6-.2.8-.3v.9c-.3,0-.6.2-.9.3h-.9c-.9,0-1.6-.3-2.2-.9-.5-.6-.8-1.3-.8-2.3s.3-1.8.8-2.3c.5-.6,1.3-.8,2.2-.8h.9c.3,0,.6.2.8.3h.1Z"/>
            <path id="DejaVuSans-61-6" class="cls-9" d="M783.1,60c-.8,0-1.4,0-1.7.3s-.5.5-.5.9,0,.6.3.8.5.3.9.3,1-.2,1.3-.6.5-.9.5-1.5v-.2h-1,.2ZM785.1,59.6v3.4h-1v-.9c-.2.4-.5.6-.8.8s-.7.3-1.2.3-1.1-.2-1.5-.5-.5-.8-.5-1.4.2-1.2.7-1.5,1.1-.5,2-.5h1.4c0-.6,0-.9-.4-1.2s-.7-.4-1.3-.4-.7,0-1,0c-.3,0-.6.2-.9.4v-.9c.4,0,.7-.2,1.1-.3.3,0,.7,0,1,0,.9,0,1.5.2,2,.7.4.5.6,1.1.6,2.1h-.2Z"/>
            <path id="DejaVuSans-6c-2" class="cls-9" d="M787.1,54.7h1v8.4h-1s0-8.4,0-8.4Z"/>
            <path id="DejaVuSans-5f-3" class="cls-9" d="M794.7,64.9v.8h-5.7v-.8h5.7Z"/>
            <path id="DejaVuSans-73-5" class="cls-9" d="M799.5,57.2v.9c-.3,0-.6-.3-.9-.3s-.6,0-.9,0c-.5,0-.9,0-1.1.2-.2.2-.4.4-.4.7s0,.4.3.5.5.3,1.1.4h.3c.7.2,1.2.4,1.5.7s.4.7.4,1.1-.2,1-.7,1.3c-.4.3-1.1.5-1.8.5h-1c-.3,0-.7-.2-1.1-.3v-1c.4.2.7.3,1.1.4.4,0,.7,0,1.1,0s.8,0,1.1-.2.4-.4.4-.7,0-.5-.3-.6c-.2,0-.6-.3-1.2-.4h-.3c-.6-.2-1.1-.4-1.3-.7-.3-.3-.4-.6-.4-1.1s.2-1,.6-1.3c.4-.3,1-.5,1.7-.5h1c.3,0,.6,0,.9.2v.2Z"/>
            <path id="DejaVuSans-6f-3" class="cls-9" d="M803.7,57.7c-.5,0-.9.2-1.3.6s-.5,1-.5,1.7.2,1.3.5,1.7.7.6,1.3.6.9-.2,1.3-.6c.3-.4.5-1,.5-1.7s-.2-1.3-.5-1.7-.7-.6-1.3-.6ZM803.7,56.9c.9,0,1.5.3,2,.8.5.6.7,1.3.7,2.3s-.2,1.8-.7,2.3c-.5.6-1.2.8-2,.8s-1.5-.3-2-.8c-.5-.6-.7-1.3-.7-2.3s.2-1.8.7-2.3c.5-.6,1.2-.8,2-.8Z"/>
            <path id="DejaVuSans-75-2" class="cls-9" d="M808,60.7v-3.6h1v3.6c0,.6,0,1,.3,1.3s.6.4,1,.4,1-.2,1.3-.5.5-.8.5-1.4v-3.4h1v6h-1v-.9c-.2.4-.5.6-.8.8s-.7.3-1.1.3c-.7,0-1.2-.2-1.6-.6-.4-.4-.5-1.1-.5-1.9h-.1ZM810.5,56.9h0Z"/>
            <path id="DejaVuSans-72-4" class="cls-9" d="M818.6,58c0,0-.2,0-.4,0h-.4c-.6,0-1,.2-1.3.5s-.4.9-.4,1.6v3.2h-1v-6h1v.9c.2-.4.5-.6.8-.8s.7-.3,1.2-.3,0,0,.2,0h.3v1h0Z"/>
            <path id="DejaVuSans-63-3" class="cls-9" d="M823.7,57.3v.9c-.3-.2-.6-.3-.8-.3s-.6,0-.9,0c-.6,0-1.1.2-1.5.6-.4.4-.5,1-.5,1.7s.2,1.3.5,1.7c.4.4.9.6,1.5.6s.6,0,.9,0,.6-.2.8-.3v.9c-.3,0-.6.2-.9.3h-.9c-.9,0-1.6-.3-2.2-.9-.5-.6-.8-1.3-.8-2.3s.3-1.8.8-2.3c.5-.6,1.3-.8,2.2-.8h.9c.3,0,.6.2.8.3h.1Z"/>
            <path id="DejaVuSans-69-10" class="cls-9" d="M825.4,57h1v6h-1v-6ZM825.4,54.7h1v1.3h-1v-1.3Z"/>
            <path id="DejaVuSans-6e-7" class="cls-9" d="M833.5,59.4v3.6h-1v-3.6c0-.6,0-1-.3-1.3s-.6-.4-1-.4-1,.2-1.3.5-.5.8-.5,1.4v3.4h-1v-6h1v.9c.2-.4.5-.6.8-.8s.7-.3,1.1-.3c.7,0,1.2.2,1.6.6.4.4.5,1.1.5,1.9h.1Z"/>
            <path id="DejaVuSans-67-3" class="cls-9" d="M839.4,60c0-.7,0-1.3-.4-1.7-.3-.4-.7-.6-1.2-.6s-.9.2-1.2.6c-.3.4-.4.9-.4,1.7s0,1.3.4,1.7c.3.4.7.6,1.2.6s.9-.2,1.2-.6c.3-.4.4-.9.4-1.7ZM840.4,62.3c0,1-.2,1.8-.7,2.3s-1.1.7-2.1.7h-1c-.3,0-.6,0-.9-.2v-1c.3.2.6.3.9.3s.6,0,.9,0c.6,0,1.1-.2,1.5-.5.3-.3.5-.8.5-1.5v-.5c-.2.4-.5.6-.8.8s-.7.3-1.1.3c-.7,0-1.3-.3-1.8-.8-.5-.6-.7-1.3-.7-2.2s.2-1.7.7-2.2c.5-.6,1-.8,1.8-.8s.8,0,1.1.3.6.4.8.8v-.9h1v5.3-.3Z"/>
          </g>
        </g>
        <g id="PathCollection_10">
          <path id="m78a60999f1-2" class="cls-2" d="M732.4,80.2c.9,0,1.8-.4,2.5-1s1-1.6,1-2.5-.4-1.8-1-2.5-1.6-1-2.5-1-1.8.4-2.5,1-1,1.6-1,2.5.4,1.8,1,2.5,1.6,1,2.5,1Z"/>
        </g>
        <g id="text_6">
          <g>
            <path id="DejaVuSans-68-6" class="cls-9" d="M758.2,75.9v3.6h-1v-3.6c0-.6,0-1-.3-1.3s-.6-.4-1-.4-1,.2-1.3.5-.5.8-.5,1.4v3.4h-1v-8.4h1v3.3c.2-.4.5-.6.8-.8.3-.2.7-.3,1.1-.3.7,0,1.2.2,1.6.6.4.4.5,1.1.5,1.9h.1Z"/>
            <path id="DejaVuSans-6f-4" class="cls-9" d="M762.5,74.2c-.5,0-.9.2-1.3.6s-.5,1-.5,1.7.2,1.3.5,1.7c.3.4.7.6,1.3.6s.9-.2,1.3-.6c.3-.4.5-1,.5-1.7s-.2-1.3-.5-1.7c-.3-.4-.7-.6-1.3-.6ZM762.5,73.4c.9,0,1.5.3,2,.8.5.6.7,1.3.7,2.3s-.2,1.8-.7,2.3c-.5.6-1.2.8-2,.8s-1.5-.3-2-.8c-.5-.6-.7-1.3-.7-2.3s.2-1.8.7-2.3c.5-.6,1.2-.8,2-.8Z"/>
            <path id="DejaVuSans-6d-9" class="cls-9" d="M771.6,74.7c.2-.4.5-.8.9-1s.7-.3,1.2-.3,1.1.2,1.5.7c.3.4.5,1.1.5,1.9v3.6h-1v-3.6c0-.6,0-1-.3-1.3s-.5-.4-.9-.4-.9.2-1.2.5-.4.8-.4,1.4v3.4h-1v-3.6c0-.6,0-1-.3-1.3s-.5-.4-.9-.4-.9.2-1.2.5-.4.8-.4,1.4v3.4h-1v-6h1v.9c.2-.4.5-.6.8-.8s.7-.3,1.1-.3.8,0,1.1.3c.3.2.5.5.7,1h-.2Z"/>
            <path id="DejaVuSans-65-9" class="cls-9" d="M782.8,76.3v.5h-4.5c0,.7.2,1.2.6,1.6.4.4.9.5,1.5.5s.7,0,1.1,0,.7-.2,1.1-.4v.9c-.4.2-.7.3-1.1.3s-.7,0-1.1,0c-1,0-1.7-.3-2.3-.8-.6-.6-.8-1.3-.8-2.3s.3-1.8.8-2.3c.5-.6,1.2-.9,2.2-.9s1.4.3,1.9.8.7,1.2.7,2.1h-.1ZM781.8,76c0-.5-.2-1-.5-1.3s-.7-.5-1.2-.5-1,.2-1.3.5-.5.8-.6,1.3h3.6Z"/>
            <path id="DejaVuSans-6d-10" class="cls-9" d="M789.1,74.7c.2-.4.5-.8.9-1s.7-.3,1.2-.3,1.1.2,1.5.7c.3.4.5,1.1.5,1.9v3.6h-1v-3.6c0-.6,0-1-.3-1.3s-.5-.4-.9-.4-.9.2-1.2.5-.4.8-.4,1.4v3.4h-1v-3.6c0-.6,0-1-.3-1.3s-.5-.4-.9-.4-.9.2-1.2.5-.4.8-.4,1.4v3.4h-1v-6h1v.9c.2-.4.5-.6.8-.8s.7-.3,1.1-.3.8,0,1.1.3c.3.2.5.5.7,1h-.2Z"/>
            <path id="DejaVuSans-61-7" class="cls-9" d="M797.8,76.5c-.8,0-1.4,0-1.7.3s-.5.5-.5.9,0,.6.3.8c.2.2.5.3.9.3s1-.2,1.3-.6.5-.9.5-1.5v-.2h-1,.2ZM799.8,76.1v3.4h-1v-.9c-.2.4-.5.6-.8.8-.3.2-.7.3-1.2.3s-1.1-.2-1.5-.5-.5-.8-.5-1.4.2-1.2.7-1.5,1.1-.5,2-.5h1.4c0-.6,0-.9-.4-1.2s-.7-.4-1.3-.4-.7,0-1,0c-.3,0-.6.2-.9.4v-.9c.4,0,.7-.2,1.1-.3.3,0,.7,0,1,0,.9,0,1.5.2,2,.7.4.5.6,1.1.6,2.1h-.2Z"/>
            <path id="DejaVuSans-64-2" class="cls-9" d="M805.8,74.4v-3.3h1v8.4h-1v-.9c-.2.4-.5.6-.8.8-.3.2-.7.3-1.1.3-.7,0-1.3-.3-1.8-.9s-.7-1.3-.7-2.3.2-1.7.7-2.3c.5-.6,1-.9,1.8-.9s.8,0,1.1.3c.3.2.6.4.8.8ZM802.4,76.5c0,.7,0,1.3.4,1.7.3.4.7.6,1.2.6s.9-.2,1.2-.6.5-1,.5-1.7-.2-1.3-.5-1.7c-.3-.4-.7-.6-1.2-.6s-.9.2-1.2.6-.4,1-.4,1.7Z"/>
            <path id="DejaVuSans-65-10" class="cls-9" d="M814,76.3v.5h-4.5c0,.7.2,1.2.6,1.6.4.4.9.5,1.5.5s.7,0,1.1,0,.7-.2,1.1-.4v.9c-.4.2-.7.3-1.1.3s-.7,0-1.1,0c-1,0-1.7-.3-2.3-.8-.6-.6-.8-1.3-.8-2.3s.3-1.8.8-2.3c.5-.6,1.2-.9,2.2-.9s1.4.3,1.9.8.7,1.2.7,2.1h-.1ZM813,76c0-.5-.2-1-.5-1.3s-.7-.5-1.2-.5-1,.2-1.3.5-.5.8-.6,1.3h3.6Z"/>
            <path id="DejaVuSans-5f-4" class="cls-9" d="M820.2,81.3v.8h-5.7v-.8h5.7Z"/>
            <path id="DejaVuSans-62-2" class="cls-9" d="M825.4,76.5c0-.7,0-1.3-.4-1.7s-.7-.6-1.2-.6-.9.2-1.2.6-.4,1-.4,1.7,0,1.3.4,1.7c.3.4.7.6,1.2.6s.9-.2,1.2-.6.4-1,.4-1.7ZM822.1,74.4c.2-.4.5-.6.8-.8.3-.2.7-.3,1.1-.3.7,0,1.3.3,1.8.9s.7,1.3.7,2.3-.2,1.7-.7,2.3c-.5.6-1,.9-1.8.9s-.8,0-1.1-.3c-.3-.2-.6-.4-.8-.8v.9h-1v-8.4h1v3.3Z"/>
            <path id="DejaVuSans-61-8" class="cls-9" d="M830.8,76.5c-.8,0-1.4,0-1.7.3s-.5.5-.5.9,0,.6.3.8c.2.2.5.3.9.3s1-.2,1.3-.6.5-.9.5-1.5v-.2h-1,.2ZM832.8,76.1v3.4h-1v-.9c-.2.4-.5.6-.8.8-.3.2-.7.3-1.2.3s-1.1-.2-1.5-.5-.5-.8-.5-1.4.2-1.2.7-1.5,1.1-.5,2-.5h1.4c0-.6,0-.9-.4-1.2s-.7-.4-1.3-.4-.7,0-1,0c-.3,0-.6.2-.9.4v-.9c.4,0,.7-.2,1.1-.3.3,0,.7,0,1,0,.9,0,1.5.2,2,.7.4.5.6,1.1.6,2.1h-.2Z"/>
            <path id="DejaVuSans-6b" class="cls-9" d="M834.8,71.2h1v4.9l2.9-2.6h1.3l-3.2,2.8,3.3,3.2h-1.3l-3.1-2.9v2.9h-1v-8.4h0Z"/>
            <path id="DejaVuSans-65-11" class="cls-9" d="M845.9,76.3v.5h-4.5c0,.7.2,1.2.6,1.6.4.4.9.5,1.5.5s.7,0,1.1,0,.7-.2,1.1-.4v.9c-.4.2-.7.3-1.1.3s-.7,0-1.1,0c-1,0-1.7-.3-2.3-.8-.6-.6-.8-1.3-.8-2.3s.3-1.8.8-2.3c.5-.6,1.2-.9,2.2-.9s1.4.3,1.9.8.7,1.2.7,2.1h-.1ZM844.9,76c0-.5-.2-1-.5-1.3s-.7-.5-1.2-.5-1,.2-1.3.5-.5.8-.6,1.3h3.6Z"/>
            <path id="DejaVuSans-73-6" class="cls-9" d="M851.4,73.7v.9c-.3,0-.6-.3-.9-.3s-.6,0-.9,0c-.5,0-.9,0-1.1.2-.2.2-.4.4-.4.7s0,.4.3.5.5.3,1.1.4h.3c.7.2,1.2.4,1.5.7s.4.7.4,1.1-.2,1-.7,1.3c-.4.3-1.1.5-1.8.5h-1c-.3,0-.7-.2-1.1-.3v-1c.4.2.7.3,1.1.4.4,0,.7,0,1.1,0s.8,0,1.1-.2.4-.4.4-.7,0-.5-.3-.6c-.2,0-.6-.3-1.2-.4h-.3c-.6-.2-1.1-.4-1.3-.7-.3-.3-.4-.6-.4-1.1s.2-1,.6-1.3c.4-.3,1-.5,1.7-.5h1c.3,0,.6,0,.9.2v.2Z"/>
          </g>
        </g>
        <g id="PathCollection_11">
          <path id="m6377a20b90-64" class="cls-4" d="M732.4,96.6c.9,0,1.8-.4,2.5-1s1-1.6,1-2.5-.4-1.8-1-2.5-1.6-1-2.5-1-1.8.4-2.5,1-1,1.6-1,2.5.4,1.8,1,2.5,1.6,1,2.5,1Z"/>
        </g>
        <g id="text_7">
          <g>
            <path id="DejaVuSans-6d-11" class="cls-9" d="M757.9,91.1c.2-.4.5-.8.9-1s.7-.3,1.2-.3,1.1.2,1.5.7c.3.4.5,1.1.5,1.9v3.6h-1v-3.6c0-.6,0-1-.3-1.3s-.5-.4-.9-.4-.9.2-1.2.5-.4.8-.4,1.4v3.4h-1v-3.6c0-.6,0-1-.3-1.3s-.5-.4-.9-.4-.9.2-1.2.5-.4.8-.4,1.4v3.4h-1v-6h1v.9c.2-.4.5-.6.8-.8s.7-.3,1.1-.3.8,0,1.1.3c.3.2.5.5.7,1h-.2Z"/>
            <path id="DejaVuSans-75-3" class="cls-9" d="M763.8,93.6v-3.6h1v3.6c0,.6,0,1,.3,1.3s.6.4,1,.4,1-.2,1.3-.5.5-.8.5-1.4v-3.4h1v6h-1v-.9c-.2.4-.5.6-.8.8-.3.2-.7.3-1.1.3-.7,0-1.2-.2-1.6-.6-.4-.4-.5-1.1-.5-1.9h-.1ZM766.3,89.8h0Z"/>
            <path id="DejaVuSans-6c-3" class="cls-9" d="M770.9,87.6h1v8.4h-1v-8.4Z"/>
            <path id="DejaVuSans-74-6" class="cls-9" d="M774.9,88.2v1.7h2v.8h-2v3.3c0,.5,0,.8.2.9s.4.2.8.2h1v.8h-1c-.8,0-1.3,0-1.6-.4s-.4-.8-.4-1.6v-3.3h-.7v-.8h.7v-1.7h1Z"/>
            <path id="DejaVuSans-69-11" class="cls-9" d="M778.3,90h1v6h-1v-6ZM778.3,87.6h1v1.3h-1v-1.3Z"/>
            <path id="DejaVuSans-5f-5" class="cls-9" d="M785.9,97.8v.8h-5.7v-.8h5.7Z"/>
            <path id="DejaVuSans-6c-4" class="cls-9" d="M786.8,87.6h1v8.4h-1v-8.4Z"/>
            <path id="DejaVuSans-6f-5" class="cls-9" d="M792.2,90.6c-.5,0-.9.2-1.3.6s-.5,1-.5,1.7.2,1.3.5,1.7c.3.4.7.6,1.3.6s.9-.2,1.3-.6c.3-.4.5-1,.5-1.7s-.2-1.3-.5-1.7c-.3-.4-.7-.6-1.3-.6ZM792.2,89.8c.9,0,1.5.3,2,.8.5.6.7,1.3.7,2.3s-.2,1.8-.7,2.3c-.5.6-1.2.8-2,.8s-1.5-.3-2-.8c-.5-.6-.7-1.3-.7-2.3s.2-1.8.7-2.3c.5-.6,1.2-.8,2-.8Z"/>
            <path id="DejaVuSans-63-4" class="cls-9" d="M800.9,90.2v.9c-.3-.2-.6-.3-.8-.3s-.6,0-.9,0c-.6,0-1.1.2-1.5.6s-.5,1-.5,1.7.2,1.3.5,1.7c.4.4.9.6,1.5.6s.6,0,.9,0,.6-.2.8-.3v.9c-.3,0-.6.2-.9.3h-.9c-.9,0-1.6-.3-2.2-.9-.5-.6-.8-1.3-.8-2.3s.3-1.8.8-2.3c.5-.6,1.3-.8,2.2-.8h.9c.3,0,.6.2.8.3h.1Z"/>
            <path id="DejaVuSans-61-9" class="cls-9" d="M805.4,92.9c-.8,0-1.4,0-1.7.3s-.5.5-.5.9,0,.6.3.8c.2.2.5.3.9.3s1-.2,1.3-.6.5-.9.5-1.5v-.2h-1,.2ZM807.4,92.5v3.4h-1v-.9c-.2.4-.5.6-.8.8-.3.2-.7.3-1.2.3s-1.1-.2-1.5-.5-.5-.8-.5-1.4.2-1.2.7-1.5,1.1-.5,2-.5h1.4c0-.6,0-.9-.4-1.2s-.7-.4-1.3-.4-.7,0-1,0c-.3,0-.6.2-.9.4v-.9c.4,0,.7-.2,1.1-.3.3,0,.7,0,1,0,.9,0,1.5.2,2,.7.4.5.6,1.1.6,2.1h-.2Z"/>
            <path id="DejaVuSans-74-7" class="cls-9" d="M810.4,88.2v1.7h2v.8h-2v3.3c0,.5,0,.8.2.9s.4.2.8.2h1v.8h-1c-.8,0-1.3,0-1.6-.4s-.4-.8-.4-1.6v-3.3h-.7v-.8h.7v-1.7h1Z"/>
            <path id="DejaVuSans-69-12" class="cls-9" d="M813.7,90h1v6h-1v-6ZM813.7,87.6h1v1.3h-1v-1.3Z"/>
            <path id="DejaVuSans-6f-6" class="cls-9" d="M819.1,90.6c-.5,0-.9.2-1.3.6s-.5,1-.5,1.7.2,1.3.5,1.7c.3.4.7.6,1.3.6s.9-.2,1.3-.6c.3-.4.5-1,.5-1.7s-.2-1.3-.5-1.7c-.3-.4-.7-.6-1.3-.6ZM819.1,89.8c.9,0,1.5.3,2,.8.5.6.7,1.3.7,2.3s-.2,1.8-.7,2.3c-.5.6-1.2.8-2,.8s-1.5-.3-2-.8c-.5-.6-.7-1.3-.7-2.3s.2-1.8.7-2.3c.5-.6,1.2-.8,2-.8Z"/>
            <path id="DejaVuSans-6e-8" class="cls-9" d="M828.5,92.3v3.6h-1v-3.6c0-.6,0-1-.3-1.3s-.6-.4-1-.4-1,.2-1.3.5-.5.8-.5,1.4v3.4h-1v-6h1v.9c.2-.4.5-.6.8-.8.3-.2.7-.3,1.1-.3.7,0,1.2.2,1.6.6.4.4.5,1.1.5,1.9h.1Z"/>
          </g>
        </g>
        <g id="PathCollection_12">
          <path id="m60c4645eed-6" class="cls-6" d="M732.4,113.1c.9,0,1.8-.4,2.5-1s1-1.6,1-2.5-.4-1.8-1-2.5-1.6-1-2.5-1-1.8.4-2.5,1-1,1.6-1,2.5.4,1.8,1,2.5,1.6,1,2.5,1Z"/>
        </g>
        <g id="text_8">
          <g>
            <path id="DejaVuSans-6f-7" class="cls-9" d="M755.5,107.1c-.5,0-.9.2-1.3.6s-.5,1-.5,1.7.2,1.3.5,1.7c.3.4.7.6,1.3.6s.9-.2,1.3-.6c.3-.4.5-1,.5-1.7s-.2-1.3-.5-1.7c-.3-.4-.7-.6-1.3-.6ZM755.5,106.3c.9,0,1.5.3,2,.8.5.6.7,1.3.7,2.3s-.2,1.8-.7,2.3c-.5.6-1.2.8-2,.8s-1.5-.3-2-.8c-.5-.6-.7-1.3-.7-2.3s.2-1.8.7-2.3c.5-.6,1.2-.8,2-.8Z"/>
            <path id="DejaVuSans-72-5" class="cls-9" d="M763.4,107.3c0,0-.2,0-.4,0h-.4c-.6,0-1,.2-1.3.5s-.4.9-.4,1.6v3.2h-1v-6h1v.9c.2-.4.5-.6.8-.8.3-.2.7-.3,1.2-.3s0,0,.2,0h.3v1h0Z"/>
            <path id="DejaVuSans-69-13" class="cls-9" d="M764.5,106.4h1v6h-1v-6ZM764.5,104.1h1v1.3h-1v-1.3Z"/>
            <path id="DejaVuSans-67-4" class="cls-9" d="M771.5,109.3c0-.7,0-1.3-.4-1.7-.3-.4-.7-.6-1.2-.6s-.9.2-1.2.6-.4.9-.4,1.7,0,1.3.4,1.7c.3.4.7.6,1.2.6s.9-.2,1.2-.6.4-.9.4-1.7ZM772.5,111.7c0,1-.2,1.8-.7,2.3s-1.1.7-2.1.7h-1c-.3,0-.6,0-.9-.2v-1c.3.2.6.3.9.3s.6,0,.9,0c.6,0,1.1-.2,1.5-.5.3-.3.5-.8.5-1.5v-.5c-.2.4-.5.6-.8.8s-.7.3-1.1.3c-.7,0-1.3-.3-1.8-.8-.5-.6-.7-1.3-.7-2.2s.2-1.7.7-2.2c.5-.6,1-.8,1.8-.8s.8,0,1.1.3.6.4.8.8v-.9h1v5.3-.3Z"/>
            <path id="DejaVuSans-69-14" class="cls-9" d="M774.5,106.4h1v6h-1v-6ZM774.5,104.1h1v1.3h-1v-1.3Z"/>
            <path id="DejaVuSans-6e-9" class="cls-9" d="M782.6,108.8v3.6h-1v-3.6c0-.6,0-1-.3-1.3s-.6-.4-1-.4-1,.2-1.3.5-.5.8-.5,1.4v3.4h-1v-6h1v.9c.2-.4.5-.6.8-.8.3-.2.7-.3,1.1-.3.7,0,1.2.2,1.6.6.4.4.5,1.1.5,1.9h.1Z"/>
            <path id="DejaVuSans-5f-6" class="cls-9" d="M789.1,114.2v.8h-5.7v-.8h5.7Z"/>
            <path id="DejaVuSans-66-2" class="cls-9" d="M793.1,104.1v.8h-.9c-.4,0-.6,0-.7.2,0,0-.2.4-.2.8v.5h1.6v.8h-1.6v5.2h-1v-5.2h-.9v-.8h.9v-.4c0-.7.2-1.2.5-1.5s.8-.5,1.5-.5h.9,0Z"/>
            <path id="DejaVuSans-6f-8" class="cls-9" d="M796.2,107.1c-.5,0-.9.2-1.3.6s-.5,1-.5,1.7.2,1.3.5,1.7c.3.4.7.6,1.3.6s.9-.2,1.3-.6c.3-.4.5-1,.5-1.7s-.2-1.3-.5-1.7c-.3-.4-.7-.6-1.3-.6ZM796.2,106.3c.9,0,1.5.3,2,.8.5.6.7,1.3.7,2.3s-.2,1.8-.7,2.3c-.5.6-1.2.8-2,.8s-1.5-.3-2-.8c-.5-.6-.7-1.3-.7-2.3s.2-1.8.7-2.3c.5-.6,1.2-.8,2-.8Z"/>
            <path id="DejaVuSans-63-5" class="cls-9" d="M805,106.6v.9c-.3-.2-.6-.3-.8-.3s-.6,0-.9,0c-.6,0-1.1.2-1.5.6s-.5,1-.5,1.7.2,1.3.5,1.7c.4.4.9.6,1.5.6s.6,0,.9,0,.6-.2.8-.3v.9c-.3,0-.6.2-.9.3h-.9c-.9,0-1.6-.3-2.2-.9-.5-.6-.8-1.3-.8-2.3s.3-1.8.8-2.3c.5-.6,1.3-.8,2.2-.8h.9c.3,0,.6.2.8.3h.1Z"/>
            <path id="DejaVuSans-75-4" class="cls-9" d="M806.6,110v-3.6h1v3.6c0,.6,0,1,.3,1.3s.6.4,1,.4,1-.2,1.3-.5.5-.8.5-1.4v-3.4h1v6h-1v-.9c-.2.4-.5.6-.8.8-.3.2-.7.3-1.1.3-.7,0-1.2-.2-1.6-.6-.4-.4-.5-1.1-.5-1.9h-.1ZM809.1,106.3h0Z"/>
            <path id="DejaVuSans-73-7" class="cls-9" d="M817.5,106.6v.9c-.3,0-.6-.3-.9-.3s-.6,0-.9,0c-.5,0-.9,0-1.1.2-.2.2-.4.4-.4.7s0,.4.3.5.5.3,1.1.4h.3c.7.2,1.2.4,1.5.7s.4.7.4,1.1-.2,1-.7,1.3c-.4.3-1.1.5-1.8.5h-1c-.3,0-.7-.2-1.1-.3v-1c.4.2.7.3,1.1.4.4,0,.7,0,1.1,0s.8,0,1.1-.2.4-.4.4-.7,0-.5-.3-.6c-.2,0-.6-.3-1.2-.4h-.3c-.6-.2-1.1-.4-1.3-.7-.3-.3-.4-.6-.4-1.1s.2-1,.6-1.3c.4-.3,1-.5,1.7-.5h1c.3,0,.6,0,.9.2v.2Z"/>
          </g>
        </g>
      </g>
    </g>
  </g>
</svg>