<?xml version="1.0" encoding="UTF-8"?>
<svg xmlns="http://www.w3.org/2000/svg" xmlns:xlink="http://www.w3.org/1999/xlink" version="1.1" viewBox="0 0 576 576">
  <defs>
    <style>
      .cls-1 {
        fill: none;
      }

      .cls-2 {
        clip-path: url(#clippath-1);
      }

      .cls-3 {
        clip-path: url(#clippath-3);
      }

      .cls-4 {
        clip-path: url(#clippath-4);
      }

      .cls-5 {
        clip-path: url(#clippath-2);
      }

      .cls-6 {
        fill: #ffd92f;
      }

      .cls-6, .cls-7, .cls-8, .cls-9, .cls-10, .cls-11 {
        stroke-linejoin: round;
      }

      .cls-6, .cls-7, .cls-8, .cls-11 {
        fill-opacity: .9;
        stroke: #fff;
        stroke-opacity: .9;
        stroke-width: .6px;
      }

      .cls-12 {
        fill: #262626;
      }

      .cls-7 {
        fill: #b3b3b3;
      }

      .cls-13 {
        opacity: .2;
      }

      .cls-8 {
        fill: #fc8d62;
      }

      .cls-9 {
        stroke: #000;
      }

      .cls-10 {
        fill-opacity: .4;
        stroke: #ccc;
        stroke-opacity: .4;
        stroke-width: .5px;
      }

      .cls-11 {
        fill: #66c2a5;
      }

      .cls-14 {
        clip-path: url(#clippath);
      }
    </style>
    <clipPath id="clippath">
      <rect class="cls-1" x="242.8" y="176.7" width="306.8" height="742.6"/>
    </clipPath>
    <clipPath id="clippath-1">
      <rect class="cls-1" x="242.8" y="176.7" width="306.8" height="742.6"/>
    </clipPath>
    <clipPath id="clippath-2">
      <rect class="cls-1" x="242.8" y="176.7" width="306.8" height="742.6"/>
    </clipPath>
    <clipPath id="clippath-3">
      <rect class="cls-1" x="242.8" y="176.7" width="306.8" height="742.6"/>
    </clipPath>
    <clipPath id="clippath-4">
      <rect class="cls-1" x="242.8" y="176.7" width="306.8" height="742.6"/>
    </clipPath>
  </defs>
  <!-- Generator: Adobe Illustrator 28.7.7, SVG Export Plug-In . SVG Version: 1.2.0 Build 194)  -->
  <g>
    <g id="Layer_1">
      <g id="PatchCollection_1" class="cls-13">
        <path class="cls-10" d="M1282.6-178.4v-3.1c-.1,0-12.3-5.8-12.3-5.8l-9-11.6-10.4.6-1.8-10.1-8.2-3.1-8.3-14.1-10.4-2.4-4.2,1.6-6.1-2.4h-10.2c0-.1-3.3-6.8-3.3-6.8l-7.7-2.5-5.8-8-5.3-10.2,1.6-7.1-2.7-3.6,2.4-7.9-2.8-7.3,3.4-.6,15.3-13.3,9.5-10.4,8.5-18.8,4.2-11.1,3-3,2.1-15.3,6.4-13.3,13.9-7.6,13-11.3-1.3-18.2,2.2-11.1,8.5,2.4,4.6-.9,6.1,4.7,29.7-5.3,2.7-3.6,13.9-12.9,10.4,4.3-5,5.2-3.7-1.5-3.7,3.9,9.3,3.9,7.4-6.7,15.4,6.4-1,5.5,7-.6.4,4.4-4.4,7.7-4.9,5.5,5.9,8-1.5,10.5h-17.2l-1.2,8.5-3.4,6.8,4.4,8-6.5,6.5-8.7,5.2v4.9l6.4,1.6,5-2.8,5.9,5.5,4.7,1.5-2.2,7-13.3,1-5.5,11.4,4.2,11.3-7.6,1-5-7.6-5.2,3.9v6.2c-.1,0-8.5,4-8.5,4l3.7,9.2-3,2.2,21.7,5.2,3.3,5.2-7.1,32-7.1-.3-3.9-9.6,3.4-13-7.7-1.2-1.9,11.1-4.6-2.7.4,18.5-8,10.5,3.6,6.2,7.6-9.5,15.9.7-8,34.8-6.4-.6-11.1,11.6,1.3,3-9,3.3-1.5-3.9"/>
        <path class="cls-10" d="M787.9-267.9l5.9-9.2-1.9-2.4,2.5-5.6-10.2-9.8.7-3-7.3-6.2,4.2-11-2.1-8-5.9-5,6.4-3.3,9-8,4.9-10.8.4-5.2-5.2-5,1.6-5,6.5,5.6,8-1.8,4.3-4.6,10.5-2.2,14.7,2.2,4.9-2.2,7.7,2.1,8.3,5.9,11.3.6,5.6,11,9.3,3.9,2.5-9.9h21.8v-26.8l27-4.2v13.5c.1,0-14.4,2.1-14.4,2.1v11.4h14.5v9.8l-18.4,8.5-8.9-2.1-1.5,5.3,4.6,5.6h4.4l30.5-13.6,3.7-14.2,50.1,5.5-1.5,3.9,10.1,6.5h5.8c0-.1,4.4,7,4.4,7l-1.9,12-12.8-2.1-4.3,3.1-1.6,7.7,6.7-3.9,11,.9-4,24.3-6.1,1-5.5,3.9-12,14.2-7.6,4.7-17.2-1-26.7,3.4-11,6.7,1.3,2.1,9.2-5.8,10.7.3,12-1.8,1.6,5.2-50.3,15.6-5.6-2.2-6.1-14.2-3.9-2.8-3.1-4.6-11.4-4.2-9.8-8.7-11.9-5-2.8,8.9.7,3.4-4.9,8.6-5.5,1.6v4.9c-.1,0-13.9-2.2-13.9-2.2l-3.3,4.7-6.5-1.5-4.4-7.4-3.7,7.3-6.7,1.8-7.4-2.5-9.2-5.9-1.2-1.5"/>
        <path class="cls-10" d="M954.5-372h-6.4v-11.3h37.2l15-6.2,5.6,2.7,3.9,8.9,15.7-6.8,2.5-2.1,11.9-4,21.4,21.4-22.5,9.8-15.6,8.2-12.9-7.7-3.7,5.8,13.6,8.9-3,2.7-4.9-7.7-9.8-6.4-42.9-4.7v-11.1h-4.9"/>
        <path class="cls-10" d="M859.4-516.7l-3.6-12,6.2-1.5,1.6,6.7,7.7-1.3-4.9,15.1-3-.4-4.3-6.7"/>
        <path class="cls-10" d="M1058.7-236l-11.9-3.6-2.4,7.9-16.5,2.5-1.3-5.9,3-5.8-7-4.7,1-11-2.2-4.6-9-3.7-2.5,6.1-12.5-.9-1.9-13.8,1.9-3,15.3-8.5-.4-4.7,11.6-7.9,1.9-6.2-4-8.3,2.7-8.3.7-9.2,1.9-2.1,33.8-14.8,16.8-3.3,4.2,10.2,4,1.6-19.4,8.6,3.7,8.9,3.7-1,23.3-10.2,4.3,6.1-28.6,15-4.7.7-1.8,8.6,4.9-2.2-3.6,15.1,1.8,6.2-5.8,4.3-5.2,9.8-2.2,21.4-2.7,8.2,4.9,2.8"/>
        <path class="cls-10" d="M1054.7-170.7l1.8-4.9-3.6-6.2,1.9-13.9,10.5-8.2,3-5-3.3-3-2.7-9,1.9-3.4-5.6-11.7-4.9-2.8,2.7-8.2,2.2-21.4,5.2-9.8,5.8-4.3-1.8-6.2,3.6-15.1,3.6,5.5,6.2-5.5-3.7-4.2,15.1-8.5,13.3-6.2,12.8,13.3-5.8,3.1,1.9,3.6,7.3-3,4.6,4.7-21.8,11.6-7-2.8-1.6,2.8,13.5,9-.7-4.4,12-6.2,11.7-3.7,8.7,9.2v2.5l-14.8.3-4.4,8.5h5.2l5.8-3,3.3,2.8-3.9,7.1,7.1.7,4.4-8.2h5.9l4.9,2.8,6.4-3.3.9-3.7,16-3.1,2.8,7.3-2.4,7.9,2.7,3.6-1.6,7.1,5.3,10.2,5.8,8,7.7,2.5,3.3,6.5-2.1,3.9-6.1,1-5.6,13.9-12.8,3.1-9.3,3.6-6.7,8.3-6.8.3-5.2,5.2-4.9-7.6-26.7-20.5-3.9,1,1.2,7.4-4,10.4v7c.1,0-3.6,7.4-3.6,7.4l-9.3-3.1-2.7-2.7-10.4,8.7-2.5,7.3h-7.4c0,.1-5.3,5.5-5.3,5.5l-5,.3-8.3-2.7"/>
        <path class="cls-10" d="M1069.5-430.4l4.2-3.9,2.8,5.8,7,.3-3,6.2-6.7-1.5-4.3-7"/>
        <path class="cls-10" d="M1013.3-492.1l.4,5.2,5.8,5.5,4.2,15.4-8.9-4.4-5.5-9.3-.6-4.6-7.1-6.1,6.1-4,5.5,2.4"/>
        <path class="cls-10" d="M992.6,27.7v-8.9c-.1,0,1.5-6.8,1.5-6.8l-4.6-2.7V-6l-1.5-7.9-3.1-5.2,5-10.8-3.6-4.7-1.5-7.9,2.8-3.7-3.1-14.4,1.9-16,1-9,3-8.3,3-3.4-.6-5.3-4.4-10.4,3.6-4.3,1.8-6.8,6.4-3,1.9-3.9-3-4,11.6-9.3,7.6-1.8,9.9,3.4,6.8-13,7-6.7,11.1-5,1.6-3.3,8.3,2.7,5-.3,5.3-5.3h7.4c0-.1,2.5-7.4,2.5-7.4l10.4-8.7,2.7,2.7,9.3,3.1,3.7-7.4v-7c-.1,0,3.9-10.4,3.9-10.4l-1.2-7.4,3.9-1,26.7,20.5,4.9,7.6,5.2-5.2,6.8-.3,6.7-8.3,9.3-3.6,12.8-3.1,5.6-13.9,6.1-1,2.1-3.9h10.2c0,.1,6.1,2.5,6.1,2.5l4.2-1.6,10.4,2.4,8.3,14.1,8.2,3.1,1.8,10.1,10.4-.6,9,11.6,12.2,5.8v3.1c.1,0,.3,10.5.3,10.5l-2.1,9.8-21.7-6.8-4.9-2.7-4.4,17.2-1.8,1.8,11.7,24.9,4.9,15.6,22.5-4.7,2.1,2.5-11.4,10.8-23.6,29.1h-4.3l-4.3,8-3.1,12-14.1,6.1-6.4-.9-12.2,4.9-4.7-5.6-6.8-2.4-17.3,9.9.3,7.4-11,8.9,3,6.1v5.8l2.7,8.6-6.5,11.4.9,4.4-4.7,5.8-8.3-14.5-6.1,12.3-2.8,12.3-3.9,3.9-.6,9.8-4.3-2.5-3.9-14.1-18.8,1.5-2.4,4-4.4.7-10.5,10.2-8.2-4.2-13,1.3-8.3,5-4.6,14.7-4.7,3-4.7-2.4-6.8-.3-11.6,3.7h-6.4l-8.2,5.2-4.2-3.3,2.2-5.3-6.5-4.4-5.2-.7-1.2-5-4.2-5.9-8.6-2.4v-6.4l-2.7-8.5"/>
        <path class="cls-10" d="M1385.7-160.6l-16.2,2.8-7.7-44.9,16.2-3,7.9,45.2"/>
        <path class="cls-10" d="M956.2-246.4l4.4-9,8.6-3.4,12.2-2.5,8.2-10.5,2.4.4,1.9,18.1-7.7,12.5,3,2.7,6.5-3,4.9-6.4-3.1-12.2,12.5.9,2.5-6.1,9,3.7,2.2,4.6-1,11,7,4.7-3,5.8,1.3,5.9,16.5-2.5,2.4-7.9,11.9,3.6,5.6,11.7-1.9,3.4,2.7,9,3.3,3-3,5-10.5,8.2-1.9,13.9,3.6,6.2-1.8,4.9-1.6,3.3-11.1,5-7,6.7-6.8,13-9.9-3.4-7.6,1.8-11.6,9.3,3,4-1.9,3.9-6.4,3-1.8,6.8-3.6,4.3,4.4,10.4.6,5.3-3,3.4-3,8.3-1,9-1.5-5.5-4.9-6.7-14.5-4.7,3-6.5-3.9-9,3.4-4.4-.7-8.9-5.5-3.6-1.2-3.9-10.8-10.2,9.8-16,3.3-7.4,6.2-5.9-10.7-7.9,2.5-5.9,2.4-15.6-.3-5.6-3.3-5.9-3.1.3-4.9-8.6,4.2-4.7-1.8-6.2,2.1-2.1-.3-14.7"/>
        <path class="cls-10" d="M830.5-81l-6.1-10.5,5.2-6.4,7.1-3.7,9.3-2.1.3-4.9,8.3,6.4-3.6,9.5,9.5-2.8,9.8-18.7,5.6-2.4h6.7l7.7-4.7-.4-7.9-15.1-4.9-1-4.4-5.8-1.3-1.5-10.8-17.4-7.6,3.6-3.6.4-5.8-4-10.1-8.9-5.2-1-5.3-10.5-6.8-3.3-9.8h-6.1l-2.5-9.5-6.2-4.2,1.5-3.9-4.9-2.8,2.7-8.7-4.3-12.6h-7.7v-4.3l-9-15.4,9.2,5.9,7.4,2.5,6.7-1.8,3.7-7.3,4.4,7.4,6.5,1.5,3.3-4.7,13.8,2.2v-4.9c.1,0,5.6-1.6,5.6-1.6l4.9-8.6-.7-3.4,2.8-8.9,11.9,5,9.8,8.7,11.4,4.2,3.1,4.6,7.6,19.9-1.5,5.8,3,2.2,38.6-11.6-4,8.7,3.1.6,5.3-11.6,11.3-2.7v7.7l.3,14.7-2.1,2.1,1.8,6.2-4.2,4.7,4.9,8.6,3.1-.3,3.3,5.9.3,5.6-2.4,15.6-2.5,5.9,10.7,7.9-6.2,5.9-3.3,7.4-9.8,16,10.8,10.2,1.2,3.9,5.5,3.6.7,8.9-3.4,4.4,3.9,9-3,6.5,14.5,4.7,4.9,6.7,1.5,5.5-1.9,16,3.1,14.4-2.8,3.7-7.7-7-6.1,2.5-4.4-1.6-6.8-10.7-4.7-1.5-15.3-1.2-7.4,3.3-2.7,5,2.5,10.2-2.1,3.4-8.6,4.6-7.3,7.7-6.8,1.8-1.5-2.4-10.8-4.6-13.2,3.1-8.6-3.7-5.5-4.2-8-1.9-7.1,2.4-10.4-21.7-.7-5.3-11.4-16.9"/>
        <path class="cls-10" d="M362.6,179.2l.9,5-3.1,4.6-14.5,7.1-5.8-6.2-20.8,10.2-5.8,1.6-6.5-13.3,1.5-5,11-5.5,23.4-15.9h9.9c0,.1,5.5,6.7,5.5,6.7l4.3,10.5"/>
        <path class="cls-10" d="M346.8,87l10.7,3.7-2.1,3.3,12.5,1.8,9.8,11.7,8,7.1,4.4-2.4,6.7,4.4.7,11.4,3,3.7,7.3,16.6,1,5.2,8.6-1.9,6.4-4.7,7.9,6.7-3,6.7v5.5c.1,0,5.9,7.1,5.9,7.1l-2.7,5.6,9.2,12.6.4,2.5,8.2,11.7-.9,10.1,9.8-1.6,4,4.7,5.3-4.3,6.8,6.1-4,9,2.7,2.7-1.6,8,2.5,3.7.3,5.6-11,6.7-3.6,3.6-6.1-2.4.6-4.6-4-3.9-8.2-4-5-6.1-4.2,3.3-5.5,9.6-11.3,4-4.3,8.7-5-.9-4.2,12.2-17.6,12.5,6.1,7.7-3.9,4.4v.6h-5.9l-16.5-5.2-10.5,5.2-6.1-4.4-5.5,5-12.2-9.6-4.9,2.2-10.1-8,2.8-9.6,5.3-1.8,15.9,4.7,1.6-7.7-4.2.7-14.8-5,3.1-11.9,4.6-1.2,2.4-6.8-9.2-3.1,5.5-16.2,5.2,1.8,1.5-4.3,15.4,5,2.1-11-1.2-3.1-7.1-1.9-5.8,2.5-11.9-3.9-2.2-4.6,34.3-16.9,11.7,3.1,3.3-6.5-1.9-7.3-5.2-3-4.7-11.9-3-3.4,10.4-7.3,1.3-8-3.6-8.5-14.1-.3-5.9,1.2-6.1,4.7-10.2.9-8.9,5-1.2,3.9,3.9,9-4.9,2.1-6.1,5.3-7.9,2.8-15,2.2-21.9,4.7-5.5,2.1-7.7,10.4-5.8,3.4-2.2,19.6,4,8.7-6.8,1.8-4.7-1.9-7.4-8.5-7-1.5-11-5.6-9.2,5.2-10.7-17.1-4.2-4.7,17.5-.4,14.8-2.2,5.8-1.9,5.3-4.7,27.6-8.9,9.8-4.6,23.1-14.5,21.4-16.9,10.2-12.8,7.7-6.5,9.9-12-.6-7.9,3.6-11.7"/>
        <path class="cls-10" d="M175.3,179.2l-1.5,2.2,2.4,7.9-13.8,4.9-15.6-2.2-1.5-4.4-5.3-4.6-1.2-4.3-6.7-8.3-1-12.8-5.2-3.9,6.8-10.8v-5.8l7.6.3,8.6-3,7.7,3.6,4.2,10.7,5.2,6.8,5.6,13.6v6.1c.1,0,3.6,4.2,3.6,4.2"/>
        <path class="cls-10" d="M342.5,359.9l-9.5-12.9-.3-9.5-3.3-4.9-8-5.6-9.9-20.3-.9-3.7,9.3.3-10.2-10.4,6.2-7,10.1,8,4.9-2.2,12.2,9.6,5.5-5,6.1,4.4,10.5-5.2,16.5,5.2h5.8l7.1,2.8,7,5,8.2,12.5,6.2-1.5,7,11.3,9.8,8.3,9.9,12.6,3.9,6.2,3.1,10.2-3,4.6-.6,6.1,7-1.2.3,5.8,6.7,9.2h0c0,.1-1.6,4.7-1.6,4.7l-4.9,2.1-6.5,8.7-7-1.3-11.7-19.3-7.6,4.2,12,15.4,2.8,7.1-4.3,3.4,4.4,7.4-4,4.2.4,8.3-5,.4-4.3,3.7-6.2-7-8.7-14.8-3.7-4.2-8.7-14.1-11.4-13.5-8-6.4-5.2-1.5-7-5.8-7.4-9.3-13.9-5.5"/>
        <path class="cls-10" d="M258.8,350.1l-7.4-13.5-7.6-16.6,4.9-.3,16.2-9.6,4.6,1.8,3-8.7,6.1,3.9,6.7.9,3,11.7-5,2.2,1.5,3.9,7.9-.6,12.6-6.2-3-5.8-5.3-3-5.9-11.7,8.7-4.6,7.6,15,4.2-2.1,9.9,20.3,8,5.6,3.3,4.9.3,9.5,9.5,12.9-8,4.6-13.2,4-7.9,5.8,1.8,6.5-4.7,3.3,1.3,5.5-4.3,2.7.6,4.7-6.1.6-5.8-3.6-9.8-2.7-3.6-2.8h-5.3c0,.1-1.5-4.4-1.5-4.4l.6-13.5-1.2-6.7-3.9-8.5-5.2-3.9-7.9-1.3"/>
        <path class="cls-10" d="M258.7,478.5l5,2.2,11.4,1.6,3.1-12.3,9.9-9.8,3.6-8.9-.7-7.7,2.8-7,8.2-3.6-3.3-8.6,1.8-3.9-4.9-17.8.6-9,5.8,3.6,6.1-.6-.6-4.7,4.3-2.7-1.3-5.5,4.7-3.3-1.8-6.5,7.9-5.8,13.2-4,8-4.6,13.9,5.5,7.4,9.3,7,5.8,5.2,1.5,8,6.4,11.4,13.5,8.7,14.1-5.5,3.1-4.7-1-7.1,7.7-3.6,1.9,1.2,10.5,4.4,8.9-4.9,6.1-7.3,2.5,2.7,7.4-5.6,4.6-2.5-2.7-7,3.1-2.7-15.4-4.3,3.9-5.9,1.3-7,8.6-6.8-2.1-3,4.6-7.4,2.7-4,4.9v9.9l-9.2,1-3.9,12-4.3,1.6-4.3-4.6-3,3.1h-5.6l-6.4,3.1-1.9-3.3-6.1-2.1-9.9,6.8-6.5-9.9-4.4-4.6,2.1-3.1-1-8.3"/>
        <path class="cls-10" d="M149.4,298.5l-3.6-2.7-4.2-11.9-.4-6.5,4.2-4.4,3.1-13.8-2.5-7.6.7-10.4,5.6-5,3.9.7,6.1,6.1-.3,10.2,10.1,13.9-.7,6.5,1.2,9.2-3.7,4.7-4.9,2.2-1.9,6.2-12.9,2.4"/>
        <path class="cls-10" d="M-296.7-221l2.4-12.2,3.9.7,2.5,5v8c.1,0-2.7,4.6-2.7,4.6l-6.2-6.2"/>
        <path class="cls-10" d="M23.6,132.5l.6-7.3,6.1-1.9,10.4,3,4.6,6.5-.4,11.1-7.7,3.1-9.3-7.9-4.2-6.7"/>
        <path class="cls-10" d="M-21.4,233.4l5.6-6.1-1.8-4.6,10.7-3,4.4-13.9-3.1-5.3-1.6-15,.9-4,5.3-3.7,6.7,7.1,4.2,1.3,8.3,8,15.7,7.7,2.7,8.3,7.7,5.2-4,9.5-9.5,4.2v7.9l-6.7,3-1.8,4.9,1.6,4.3,8.2,12.2-.7,6.2,5.2,8.2-1,4,10.1,6.2,14.7,4.2,9.6,1.5,16.2.4,6.7-3.9,9.2,1.2,5.9,4.7-1.8,5.9,2.2,4.6-3,2.8-4.7,14.1-7.9-2.4-5.8-11-19.7,5.8,1.9,6.5,13.6,11,.7-4.9,6.5-.6.9,8.3,3.1,6.1,10.2,8.6,11.7,3.4h8.5c0-.1,2.4-4.4,2.4-4.4l10.2,6.1,10.1-2.7,8.6-4,13.5-9-.9-4.9,4-5.3-2.7-3.4,2.4-6.7,16.3-.9.6,9.6h6.1l3.9-9.9,4.2,2.4,18.5,3.6.6,15.6-7.6,12.8-14.1,7.6-4.4,4.6-2.1,8.2v9l-3.1,28.6-2.4,9.8,1,16.8-2.7,5.3-.7,13.5,1.2,6.1-1.2,7,1.6,5.2-8,11.7-5-.4-3.9,7.7-.4,9.8-7.4,2.2-18.5-.7-5.6-4.9-.9-8.3-2.2-1.2.7-12.2-6.7-7.1-1.5-7.3,3.3-10.2-1-14.7-8.2-1.8-10.4-9-13-6.4-5.5-5.6,1-5-2.4-8.2-5.8-.6-7.7,3.3-5-5.2-8,3.6-1.8-3-5.8-.3-4.2,2.4.3,5.9-4.2,3.6-7-7.3-.6-4.9,5.8-2.2-.7-5.8-3.9-9.2,4.4-2.1v-6.1c-.1,0,3-5.2,3-5.2l-5.6-14.8-5.3-2.2-7.7,2.5-5.3-2.2-6.8,3.9-5.8-2.2-5.3-9.5-7-7.4-3-8.7-.4-6.5-3.9-2.5,5-7.9-.4-8.6-7-7,2.4-6.1-2.4-5.3v-9.5l-1.6-5.6,3-11.7-4.7-6.4v-7.1l-3.4-5.5-6.7-3.6"/>
        <path class="cls-10" d="M258.8,350.1l7.9,1.3,5.2,3.9,3.9,8.5,1.2,6.7-.6,13.5,1.5,4.6h5.3c0-.1,3.6,2.7,3.6,2.7l9.8,2.7-.6,9,4.9,17.8-1.8,3.9,3.3,8.6-8.2,3.6-2.8,7,.7,7.7-3.6,8.9-9.9,9.8-3.1,12.3-11.4-1.6-5-2.2,2.2-3.9v-6.4c-.1,0-4.2-4.9-4.2-4.9l-.6-15.6-6.4-2.7-.7-5.9-4.4-4.7-1.2-7-10.2-1-2.7-4.4-.6-6.5,4.9-13.5,6.8-2.8,2.7-14.5h-3.4l6.4-21.4,7-.4,4.6-12.9"/>
        <path class="cls-10" d="M102.8,555.5l2.4-8.7-1.3-8.9,5.6-2.7-2.7-6.4-4.3-4.9,5-8.2,5-4.9,2.7-10.1,10.2-.9-2.1-9.9,6.4,3.9,6.1-5.8,2.2,1.2.9,8.3,5.6,4.9,18.5.7,7.4-2.2.4-9.8,3.9-7.7,5,.4,8-11.7-1.6-5.2,1.2-7-1.2-6.1.7-13.5,2.7-5.3-1-16.8,2.4-9.8,3-28.6v-9l2.1-8.2,4.4-4.6,14.1-7.6,7.6-12.8-.6-15.6,6.2,1.6,10.1-.4,6.1-3,7.6,16.6,7.4,13.5-4.6,12.9-7,.4-6.4,21.4h3.4l-2.7,14.4-6.8,2.8-4.9,13.5.6,6.5,2.7,4.4,10.2,1,1.2,7,4.4,4.7.7,5.9,6.4,2.7.6,15.6,4,4.9v6.4c.1,0-1.9,3.9-1.9,3.9l1,8.3-2.1,3.1,4.4,4.6,6.5,9.9,12,14.7,5,20.8-.3,13.5,3,10.4,8.3,17.6-3.7,8.7.4,7,3.1,7.7,9,7,9.9,5-.7,7,1.9,4.6,3.9-.4,3.4,5.2-2.1,5-7.6-1.6-4.3-2.8v16.5l2.5,4-2.2,5.3-8.3,2.7-6.4-4.2-15.3,6.4-.6-4.3-4.3-6.1-7.9-6.1-11.9-3.4-12.9,3.3-6.1-7.1-11.3-16.5-9.5.9-5.6-1.2-2.2-10.4-5-1.8-9.9-7.7-4.9-1.8-5.8-5.5-9.8,1.3-4.4-7.7-9-2.4-4,3.7-12.3-4.4-5.3-6.2-2.5-5.5-4.9-.4-10.4-9.8-6.1-3.6-3-5.2-7.7-.9"/>
        <path class="cls-10" d="M340.4,1509.6l-1.3-3.4-27.9,8-2.1-7,1.9-2.4,21.2-9.3,6.5,3h10.2l-5-12.3-3.3-5.2-7.3,7-3.7-8,25.7-24.3-6.4-13,4.4-17.5.7-12.8,4.9-3.6-12.6-37.8,14.7-4.2,3.6-3,5.2.7,12.5-1.6,9.3-5.8,5.2-5.3,4.9-8-1.8-4.9h8.5l8.6-2.1h7.7l2.2,2.7,10.7-2.8,5.2.4,4.4,3.6h5.2c0,.1,3,3.7,3,3.7l5.3-.3,10.4-3.4,5.5-5.9,8.2-.3,10.4-3.9-1.5-5.9,3.1-6.1h9.6l5.9,3.3,1.9,6.7,3.6,3.9-1.2,8,4.7,8.2,4.4.7,9.8-2.5,4.9-4.2,2.5-9,5.5,1.6,5.5,9.2.4,6.5-4.4,4.2-7.4,3.1v8.6l-2.8,1.3v8.7c-.1,0-2.4,6.5-2.4,6.5l-4.7.4-6.8-3-2.2,1.3-11.9.9-6.4,8.2-15.1,7-.6,4.6-11.7,8-2.8,6.1,5.5,10.1,4.2,4,6.1,9.6-1.2,5.5,3.1,15.9,3.6,4.9,5.5.9,3.4,7.7v5c-.1,0,4.6,5.5,4.6,5.5v4l-2.5.4-3,8.5-6.4.3-2.8,7.1-13.3-5.3-13.6,7.1-11.7,2.8-7.9-3.7-7.7,4-10.4-2.8-10.7.3-10.1-2.4h-8.9l-3.6,2.7h-6.1l-14.4-5h-19.1c0-.1-17.8,5.5-17.8,5.5"/>
        <path class="cls-10" d="M291.9,1033.8l8.6-9.6,1.3-8.2-2.7-7.9-.7-7.6,5-6.2,5-.9,8.5,3.1,2.2,4.6-.3,9.6,1.5,6.7,15.4-3,5.9-5,3.7-6.4,4-11.6-3.7-7.6.3-5.9,5.6-7h6.2l3,2.5,5.6-8,2.1-11.9-1.8-11.4-3.3-1-1.8-6.8,7.6-4.6h4l7.9,6.1-2.1,7.6,1,3.6-3.3,5-1.5,10.8,1.9,12.2,4.7,7.9,5.6,3.6h7.7l4.4-2.1,1.5-9.9-4-9.3.9-7.3,7.1-9h8.9l11-3.9,5.2-5.8-3-5-16.8-7-2.4-4,1.3-10.1,4-4.9,5-2.1,9.5-.9,19.3.9,8.9-1.6,2.2-2.2,4.3-13,3.3-6.4-3.1-7.6-7.6-1.8-5.2-4-4.9-6.8,4.9-9.8,7-4.2,4.9.4,5.5,6.1,9.6,6.4,5.6,1.8,10.4-11,1.8-20.2,2.1-3.3,6.8-2.5,12.5,7.1,12.2.6,8.6-8.7,6.8,3.3,3,3.1,5-8.6,7.1-1.2,8.9,1.6v-5.9c-.1,0,5.5-3.7,5.5-3.7l5.9-.6,2.8-5.3,5.9-4h13.9l4.7-2.5,6.2-6.4,2.7-5-.6-9.8,45.4-.9-3,3.9h13.3l5.9-3.7,15.3-.6,8.3,1.6,4.7,8.3-8,1,3.1,13.6,3.4,5,14.8-11.3,17.5-8.7,15.1,1.6,12-.4,10.4,1.3,18.2-.6.6-1.9,26.7,1.5,8.9-4.2,3.7,7.9h10.7l9.3,1.9,5-3.3,15.1,3.7-1,11.6-5.6.9-3.3-9.8h-5.3l-6.2,3.6-.9,5.6,11.9,4.2,1.2,7.7,8,.4.3,13.6h-8l-4.3,4.7.7,13-1.3,13,5.3,2.7-2.5,4.6,6.1,36.9-7.9,1-1.8-1.6-13.9-2.5-15.6-4.4-8-.3-3,2.7-6.8-1.9-8.7.3-1.6,3.9-13.6,3.1-5.2-2.1-23,2.5-15.3,3.4-5.8,3.6-7,1.9-5.5-1.6-10.2-.4-10.1,4.7-1.2,4.9-4.7,4.6-9.2-1.8-3.3,3.3-6.4.4.3,9.3-4.7,7-10.2,4.6-9.5,11.9-6.5.3-8,3.3-2.2,4.3h-6.8l-1.5,3.9-10.1.6,2.7-6.5-4.9-6.5-7-3.4-12.3,5.6-3.6,10.8v4l-8.9,3.7-6.4-.4-5.6,4-12.8,5.2-8.9-3-10.2-1.9,1.5,5.9-7.3,3.3-7.9-4.6-3.9,3.1-12,.7-6.8-3.6-2.4,10.1,1,3.1-3-1.5-3.3,14.7-5.3,4.6-7.6-4-8.5,5.5-13.6.4-.7,5.2-8,2.4-5.9-3.9-5,3.6,1.8,3.3-2.8,11.6-4.4-1.9-4.9,11h-5.8v6.7l-3.4,1.3-4.2-.3-4.6-11.3-.9-14.1-12.3-8.6-3.4-1.2-7.9-6.8-3.9,1.9,1.2,14.1-11.6.6.4,10.5,3.1,5.3-14.7-2.8-5.5.4-4,12.3-9.2-4.3-2.2,2.8h-6.5l3.3-7.4,1.2-13.2-4.9-.3-.4,5.5-8,1.2-2.4,3.9-7.3.4-3.4-4-6.4-1-3.3-3.7.3-5.6-3.4-3.3-10.7-3.9"/>
        <path class="cls-10" d="M792.2,14.8l2.4-4.2-4.3-5-4.9-20.3,1.5-6.1,6.8,2.1,7.6-1.5,5.8-3.7,3.9,2.2,5-2.4,2.1-17.6-7.1-11.9-.4-4.2,4.3-6.1,3.7-1.8.9-4.9,5.3-3.6,1.8-4.6,4.2-2.2,11.4,16.9.7,5.3,10.4,21.7,7.1-2.4,8,1.9,5.5,4.2,8.6,3.7,13.2-3.1,10.8,4.6,1.5,2.4,6.8-1.8,7.3-7.7,8.6-4.6,2.1-3.4-2.5-10.2,2.7-5,7.4-3.3,15.3,1.2,4.7,1.5,6.8,10.7,4.4,1.6,6.1-2.5,7.7,7,1.5,7.9,3.6,4.7-5,10.8,3.1,5.2,1.6,7.9v15.3l4.4,2.7-1.6,6.8v8.9c.1,0-11,6.1-11,6.1l-8.9-3.4-5.8,2.8v7.7l-5.2,2.8-2.7,10.2-3.3,3.3-13.6,4.4-1,5.2-7,2.7-7.4.6-3.4,2.5-14.8,4.2-5.3.3-4,3.1,1.9,9.6-4.9,5,1.2,8.2-5.5,5.5-7.7,3.6-4.4-3.1-4.3-6.8-7.6,2.5-3.6-5.9-1.5-12.3-2.8-8.5,3.1-2.8.4-14.7-3-2.8,3.6-4.3-5.3-4.9-7.6,4.9-8.7-6.8,1.3-5.9-7.7.6-1-6.4-4.4-9.5-4.7-.6-9.8-7.1-7.4-.4-7,6.7-5.6.4-3.7-9.8"/>
        <path class="cls-10" d="M624.7,404.2l-6.1-8.2.9-5.2-2.5-8-7.4-5.3-4-17.9-7.6-5.3v-5.9l-2.8-8.3v-8.5c-.1,0-6.1-5-6.1-5l-5.2-6.1-2.7-6.2,4.4-1.3,4.2-5.5,5.2-3.6,2.7-4.6,8,2.8,11.7,5.8,4.7-8.6,4.7,7.9,3.1.4,4.2-7.3,6.1-4.6,5.5-7.9.4-5.8-4.9-1.9-4.3-4.9-12,.4.7-7,4-7.6-2.7-12.8-5.2-2.1-8.7-8.9-4-.4,3.3-7,8.7-10.8,5.8-3.1,18.5-4.6,11.7-5.2,4,.6,4.7,5.2,6.1-7.9,6.5-3.1,6.4-8.7,1-6.7-2.1-2.2,4.4-7.6,5.9.6,2.4,4.4,8.2-4.2,3.9-7.9,4.2.4,3.6-13.6-2.1-4.7,1.9-5.2,7.4-9,10.5,1.8,8.3-2.2,7.3-5,.4-5.3,9.5,3.7,10.1.6,5.9,5.6,5,10.2h6.7l2.4-4.6,4-1.3,6.1,2.4,8.6.4,7.3-1.2,7.9,6.1,7.6-1.9,9.5-9.6,2.4-9.6-4.4-7.1,1.9-3.7-2.1-4.7,7.3-1.5,8.2,3.4,7.9-4.4,2.2-9.2,3.6,5.9,7.6-2.5,4.3,6.8,4.4,3.1,7.7-3.6,6.8,4.3,1.8,7.1,8.2,15.3,2.1,7.4-5.3,7.6,1.3,5.8-2.4,8.6,3.1,2.5,1.9,14.8,3.9,2.4,2.1,3.9,1,9.6,3.6,5.9-5.3,8-5.8.6-3.7,7.6v5l-6.2,7.1,5.3,9.9-1.2,7.6,6.4,5.2,8.3,14.4v6.5l8.6,13.5,2.5,1.6,7.3-2.8,3.7,4.6,4.9,2.1-1.3,6.8,1.9,6.2-1.9,5.9-4.3,1.5.9,8.3-3.7.6-2.7,5.2h-5.9c0,.1-5.3,8.5-5.3,8.5l.3,3-13.3-2.5-4.6-2.2-7.1-11.4-3.4-1-6.7-11.7-4.2-12.6,2.4-11.3-7-3.1-5.2,1.9-9.9-4.7-7.3-6.1-12.5,4.7-3.6-5.5-10.7-9.3h-5.9c0,.1-8,11.1-8,11.1l4.3,5.8-1.2,10.1-3,8.6v7l3.3,5.6-4.6,3.4h-4.6l-5.9,4.2-2.2-2.2-7.4.3-4.2-4.4-.9-7h-4.3c0-.1-4.7,3.9-4.7,3.9l-11.4.4-4.3,6.4-5.2-1.8-4,3.4-13.5,1.6-6.2,6.8-1.6,6.8,10.7-.6,7.1,4.2-5.5,10.4,4.9,4.2,8.6-4.4,2.1,5.2-5,11.7v8.2l-3.6,5.5,5,8,2.4,10.2-.3,6.8,1.9,4.3,4.4.3,7.1-4.7,5,.7,2.8,6.4-3.7,6.1,2.7,5-10.5,13-2.5,8.3,4.9,11.1h-8l-3.3,9.6-3.4,3.3,4,11.1-1.8,12.2,1.2,3-1.9,7.4-3.4,4-2.8-.4-3-8.3-5-4.4-4.7-1-3.7,3.7-3.7-1.3-11,8.6-10.2,1.3-1.2-4.9-9.6,1.8-2.7,3.7-10.8-3.1-5.5-19.7-9.9-2.4-3.9-4.9,3.7-11.4-7.1-8.2-4.3-1.6-1.9-6.1-10.5-10.8-3.4-.6-2.1-8.2,1.8-5.6-3.7-4-11.9-8.5-3.7-5.6"/>
        <path class="cls-10" d="M961,376.9l-13.6-.6-6.8-4.3,4.2-7.9-5.8-2.4-3.9-6.8-4.2-1-4.6-4.7-3.9-8.3-.3-3,5.3-8.3h5.9c0-.1,2.7-5.3,2.7-5.3l3.7-.6-.9-8.3,4.3-1.5,1.9-5.9-1.9-6.2,1.3-6.8-4.9-2.1-3.7-4.6-7.3,2.8-2.5-1.6-8.5-13.5v-6.5l-8.3-14.4-6.4-5.2,1.2-7.6-5.3-9.9,6.1-7.1,10.7,9,12.2-6.7,10.7-2.7,28.3-11v-4l6.7.3-1.8-5.8,1.9-3.9-4.6-11.1-4.9-2.5,1.2-6.7,8.2-1.5-.4-6.7,4.4-4.4,3,4.6,17.8-1.9-4-8.2-2.2-9.5,5-5.8-.7-15.4,4.7.6,3.6-8.7,13.3.7,6.1-3.7,7.6-1.3,1.6,3.6-4.7,13.9,2.1,1.6,1,12.3-2.4,13-2.4,2.2-.3,8.3,3.1.9-1.8,8.5,6.8,6.8,12,1.6.3,5.5-3.6,3-9.6-2.1,1.5,5.8,6.8,9,11.7,9.6,4,.4-1.9,7.3,1.9,2.4-9.5,4.9-3.3,5.8.6,4.6,8.7,10.4,8,19.7-5.3,2.7-4.7,7.1-.3,4-12.5,10.2-1-6.1-2.8-2.8-9.8.3-2.2-6.2-9.5-8.6-14.8-6.2-1-2.5-9.6-.4-4.4-4.6-7.1,2.1-1.9,11.6,1.6,2.7,11.4,7.1-3.9,7.9.7,4.3-3.6,5.3-2.4,8.6,5.3,4.6.9,5.9-4,10.5,1,13-3.1,4.6-5.3,3.3,4,6.4-9.5,4.4-1.6,5.3-5.9,4.3"/>
        <path class="cls-10" d="M242.7,1234l.3-26.8-4-15.9-2.4-17.9h7.1l5.3-3.6,5,3.6,8.5-6.5-2.8-7.1,4.2-4,.4-6.8,5.8-6.5,11.3,5.9,2.5-4.7,13.2,6.1-1,3.7,7.4,3.3,7.9-11.3,1.3-8.5,6.5-7.7-3.4-2.4h24.5c0,.1,10.4-1,10.4-1l12.9-4.2,3.9,4.2,3.4,8.9v5l3.6,1.9,1,10.8,18.2-7.4,11-2.5,7.6.9,5.3,11.3-.7,5.2-5.9,4h-6.7c0,.1-1.5,3-1.5,3l22.2.9,4.3,4.6,14.5.7-1,7.6h-9.6l-17.6-1.2-.6,8h-8c0-.1-1,3.7-1,3.7l12.3,5.9,2.5,8.2-2.4,13.9-4,2.1-7.7-.7-2.7,1.9v6.7l3.6,7.4-3.4,4.3-7.6,5.5-2.4,8.6-4.3,6.7-2.2,7.7-9.2,6.7-2.8,10.1-4,5.5-3.4,8.2-10.8,16.6-2.1,5.3-7.4,9.9-11.6,9.9-37.1-14.1-3.3-5.8,15.1-17.6,1.8-4.7-15.9-7.1-24.8-16.3-.9-7.3,7.1-9.9-3.3-5.6-2.4-8.9,1.3-7.6-1.9-3.9-11.1,4.6-18.2-2.7"/>
        <path class="cls-10" d="M544.1,1145.8l-8-8.3-6.1-2.2-3-5.9v-7.1c.1,0,2.7-4.2,2.7-4.2l6.7.4,1.2-3.9-7.1-1-7.9,2.7-9.5-3.9,7.4-9.6-3.6-20,6.1-.7-3.7-13.3v-6.4c-.1,0,7.7-8.3,7.7-8.3h-10.5l-1-1.9,9.3-3.6,7.9,2.4,3.1-4.6,7,.3,16.5,7.4,8.9-.7,1.2-3.3,15,.3,16.9-5.2,13.8-1,7.7-4.6,5.9-1,6.4-5.3,7.6-3v-2.8l6.7-2.5h7l3.7,6.5,1.2,6.2,9.2,3.6,12-1.2,7.7,2.2,11.3-3.6,1.9-4.9-1.8-10.8-4.6-5-.4-6.4-4.4-2.7-8.7-13.3,2.2-5.9-.6-6.1-4.4-9.9.9-6.1-2.7-5.3.4-6.2,3.7-4.6.3-6.2-4-3-.3-9.3,6.4-.4,3.3-3.3,9.2,1.8,4.7-4.6,1.2-4.9,10.1-4.7,10.2.4,5.5,1.6,7-1.9,5.8-3.6,15.3-3.4,23-2.5,5.2,2.1,13.6-3.1,1.6-3.9,8.7-.3,6.8,1.9,3-2.7,8,.3,15.6,4.4,13.9,2.5,1.8,1.6,1.8,12.3,8.6,7.7-.4,8.7,9.2,5.3,5,.7,8,8,6.5,1.5,7.7-5.5,7,2.7,5.2-2.8,15.4,1.9,7.6,12.8,4.9-.3,1.8,5.6,7.4,8.5,2.7-3.1,7.1-1,7.6,1.6-.6,6.4,2.7,6.2,9.5-.3,9.3,2.4,10.8,5.9,6.4,5.6,8.5-2.5,5.5,8.3,3.6.9v4.7c-.1,0,4.4,12.3,4.4,12.3l-3.9,7.9,1.8,8.5,8.9,6.2,2.2-1,17.1,2.4h7.9l7.9,1.5,11.7,6.2-2.1,6.4-6.2-1.2-8.9,6.8-7.3.4-.9,7.3-9.5,4.7-3.4,7.9-.4,4.9,5.5,1.5,6.4,5.3,6.1,8.3,19.6,10.1,8,9.9,9.9-1.6,8.7,9.2,8.9,1.8,12.2,4.2-3,19.9-13.2,4.2v4.7l-7.3,8,5.2,6.4.6,10.5,3.6,5.8.9,7.1-7,7.4-7,3.4-.6,10.1-2.7,5.3-.6,7-3.3,5,.7,5.3-2.1,8.5-5.3,8.3-5.9,2.7,3.7,7.7-10.1,8.9-3.9,7.9-7.1,3-8.3.3-7.1,7-5.3-2.4-16.6-2.7-4,1.9-6.5-1.9,1-9.5-4-4.2-8.7-3.3-2.5-3.1-7.6,1.6-13.2-9-8.9-2.7-2.1-3.4-6.1-1.3-5.3,2.1-6.8-3.6-7.3,3.1-5.3-3.9-5.9,1.6-4.3-6.8-5.2-1.6-2.2-7-9,1-5.9-4-1.9-7.9-6.8-3-7.3-7.9-6.1-.7-7.1-6.4-.7-4.9-4.3-9.2-5.6-2.5-5.8.7-7.9,4.9-17.8-6.8-5,7-8.5.4-4.2-3.4-7.9-.4-6.4,4.4-3.7-1.6-.3-5.6,3.4-9.9-13.2-18.2-8.7-4.4-3.7,7.9,1.5,6.2-9.5,6.1-1,3.7-8.3,4.7-1.8,3.9-.4,8.9,1.6,6.8-1.6,7.4,4.3,8.9-2.4,4.6-7.4,4.2-2.8,15.4-2.4,4.3.6,13.2-2.7,6.1-6.7-.7.4,6.8,5.8,1,1.9,3.9-6.5,1.8-8.3-3.6-2.8,4-5.8-7.4h-7.4l-1.8-2.4-7.1,3.7-3.4-3.3-4.7.4-11.1,3.9-5-.4-9.6,5.3-14.2-3.6-10.1-8.7-12.6,1.9h-6.2c0-.1-7.4-4.3-7.4-4.3l-4.6,2.4-4-2.5-11.7,8.6-3.6,5.6-.3,4.3-15.1,5-9.8-6.4,2.4-4.2.6-7-1.2-14.2-4.7-4-3.3-6.2-.9-7.9,1.6-13.9,1.9-5.3-6.8-11.1,4.7-21.7-3.1-5.3-6.7-.4-9,5.3-4.6-9,.9-9.9,3.1-5.5-2.2-4.7,3.1-8.9,1-9.6,6.1-5.6-7.3-4.9h-9.3"/>
        <path class="cls-10" d="M412.3,1143.3l4-9.5-8.6-3.4-2.1-4.7-2.7-20.6,10.8-4,4.6-28.3,4.7-6.2,3.4-1.3v-6.7h5.9l4.9-11,4.4,1.9,2.8-11.6-1.8-3.3,5-3.6,5.9,3.9,8-2.4.7-5.2,13.6-.4,8.5-5.5,7.6,4,5.3-4.6,3.3-14.7,3,1.5-.3,5.3,2.5,6.5-4,1.6.9,8.9-4.9,7.4,8.6,1.2,5.5,7.1,3,6.5,1,1.8h10.5l-7.9,8.5v6.4c.1,0,3.9,13.3,3.9,13.3l-6.1.7,3.6,20-7.4,9.6,9.5,3.9,7.9-2.7,7.1,1-1.2,3.9-6.7-.4-2.4,4.2v7.1c-.1,0,2.8,5.9,2.8,5.9l6.1,2.2,8,8.3-17.4,5.9-9.9-1-8.9,1.5-14.8-2.4-5.6,4.2-10.5,15.4h-12.8l-1.9-7.9,5.3-2.8-4.3-9.5-18.1-.9-.4,21.5-.9,2.8-14.5-.7-4.3-4.6-22.2-.9,1.5-2.8h6.7c0-.1,5.9-4.3,5.9-4.3l.7-5.2-5.3-11.3"/>
        <path class="cls-10" d="M236.6,1173.2l1.6-19.3-10.1-3-7.3-12.5-3.7-.4-1.9-23.9.4-9.3,5-6.5,6.5-1.6,14.1-.3,5.2-3.1,6.5-8.7,8.9-4.7,14.7-4.7,4.4-4.4.3-14.1-7.1-7.3-2.8-.4-4.2-6.1-.9-7.4,6.4-9.2,5.8,1.5,2.1,4.3,11,2.1,10.7,3.9,3.4,3.3-.3,5.6,3.3,3.7,6.4,1,3.4,4,7.3-.4,2.4-3.9,8-1.2.4-5.5,4.9.3-1.2,13.2-3.3,7.4,1,2.8,17.5,5.6-4,8.3-3,9.9,2.2,7.6-3.1,9,3.7,6.8-1,10.5-10.4,1.2h-24.5c0-.1,3.4,2.1,3.4,2.1l-6.5,7.7-1.3,8.5-7.9,11.3-7.4-3.3,1-3.7-13.2-6.1-2.5,4.7-11.3-5.9-5.8,6.5-.4,6.8-4.2,4,2.8,7.1-8.5,6.5-5-3.6-5.3,3.6h-7.1"/>
        <path class="cls-10" d="M1143.7,43.6l.6-9.8,3.9-3.9,2.8-12.3,6.1-12.3,8.3,14.5,4.7-5.8,3.7,2.5h9l10.4,5.3,8,.4,3.6,2.7,1.9,5.8,18.7,1.6.4,4.4,7.9,3.4h5.3c0,.1,2.8-3.6,2.8-3.6l6.5,2.2,2.8-4.2,11-1.8,8.2-4.9,9.2-1.3,5.6-5.8,11.7,8.2,9.8-4.4,13.8-10.5,7-2.5.3,3.4,6.7,8.6,5.5-5.9-2.8-6.2,5-2.7,5.3,1,5.2,11-5,7.4,2.7,5.6-5.2,8.5,3.6,4.6,6.8,3,2.2,12.2,2.4,3.7,2.2,12,4.7,13.8,4.3,9.5,12.2,15.3,2.4,11.7,6.1,5.9h4.7v8.5l-4.3,4.4-11,5.9-11.6.7-11.6-8.2-7.3,3.7-4.2,6.1-8.7,4.6-7.4-2.7,2.2-5.8-5.3-1.3,1-10.7-4.7.4,1.8-6.8-7.7-4.7-3,.9-3-6.2-4.7,3.6-4.4,7.6-9.5-5.8-4.3,3.9-7.3.4-10.7-3,.9,4.9-3.3,3.7-7.4.9-8.6,8.6-2.5,5.2-5.5,3-6.8-5.3-3.9,4.9-4.3-.7-3.6,3.6-4.9-.3-2.8,5.6-8.6,4.3h-13.3c0-.1,3.4-11.3,3.4-11.3l-3.7-3.4,3.3-5,.3-7.4,3.4-18.2-2.5-9.6,10.2-17.1,6.2-6.4-4.3-3.4-2.4-6.5-5.6-7.1-7.3-.4-10.5,2.7-3.6-5.2h-7.7l-1.8,6.4-1,12.6-7.1-1.5-3.3-3-3.7-9,1.8-2.8-10.2-3.7-4.7-5.6,1.2-2.8-1.2-12.9-2.7-3.7"/>
        <path class="cls-10" d="M1465.5,244l3.3,1.2,9.5,12.2-1,8.6,5.5.3.9,4.7,4.3,5.9,10.8,2.2,4.2-2.4-1.8-11.6h9l-.6,12.2,5.8-3-.6-11-2.1-11.4,9.5.3,1.3,5.3,4.2,3,11,1.8,2.2-3,21.5,3,4.7,5.6,10.7,2.1,1.9,4.2,11.4,6.2,7.4-.9-4.6,11-4.4,3.4-1.2,4.3-8.9,5.5-3.1,5.2,7.4,3.4-1.2,4.6-2.4,6.5-5.5,9-11.3,7.7-5,1.6-6.2,6.4-12.5,6.5-4.9,10.8-10.5,12.8-5.3,21.2-4.9,6.1-4,12.6-6.1,9.3-6.5-1.8-3,5.9-17.8,10.8,1.9,9-6.2,12.9-6.7,5.9-4.7,1.3-3.1,4.7-9.6,2.1-9.9,9.9-4.7,7.4-7.6-2.4-3.6,2.1-12.8,2.5-3.4-4.3-5.9-2.1-3.7,2.4-5.3-8.2-7.4-5.2-3.6-5-9.9.4-5,9.8-12.5,2.7-7.1,7.1-16.5-3.6-6.5-2.7-6.4,4.2-12.9,1.9,2.1-11.3-1.6-5.3,7.3-19.4,4.4-4,5.3-8.2,3.1.3,11.6-9.8,2.7-4.3-2.1-7.4,4.6-10.4v-9.2c-.1,0,5.5-5.9,5.5-5.9l2.2-8.5h4l7.9-6.8,8.7-1.8,4.3-4.9,2.2-7.6,4.3-3.7,9.5-16.8,1.8-6.8,5-4.7,5.2-17.2,11.4-14.1,17.8-13.6,17.9-29.1,9-4.6,4.7-6.5-1.2-2.2,3.9-7.9"/>
        <path class="cls-10" d="M803.9-157.5l7.4,8,11.9-9.8-1.9-14.1,5.8,1.8,1.5,3.3,5.6,1.5,1.3,5.3,5.3-3.7,5.5,1,3.1,5.8,17.4,7.6,1.5,10.8,5.8,1.3,1,4.4,15.1,4.9.4,7.9-7.7,4.6h-6.7l-5.6,2.4-9.8,18.7-9.5,2.8,3.6-9.5-8.3-6.4-.3,4.9-9.3,2.1-7.1,3.7-5.2,6.4-5-4.6v-5.9l-8.6,1.2-5.2-2.1-2.4-7.9-5-3.6-8.9,3.4-3.3-.4-3.1-11-3.6-2.2-3.7-7.9-7.9,3.9-2.1-7.3,11.1-7,3.4-7.6,13.6-.3,9.8-7"/>
        <path class="cls-10" d="M544.1,828.8l3.3-24.8,2.4-7,1.5-12.9,2.8-2.2-.3-55.9-1.3-54-6.2-10.2-.3-5.8-3.4-10.4,2.2-9.2,6.7-5.2,2.8,3.7,5.5-3.7,7.1,1.6,4.4-5.8,2.1-12.6,13.2,4.6,6.5-2.1.9,5.8,9.2,5.9,1.6,4.2,12.3,7.7,10.5,13.8,3.9,1.3,8,6.7,8.6,5.5,3.7,5.3,7.4,3,7.1,13.9-15.9,4.6-2.2,13.6-9,1.3-3,4-.4,10.2-2.5,2.7-6.7,20.2-4.4,1.8-8,20.5.6,11.6.6,9.8-2.7,5-6.2,6.4-4.7,2.5h-13.9l-5.9,4-2.8,5.3-5.9.6-5.6,3.7v5.9c.1,0-8.6-1.6-8.6-1.6l-7.1,1.2-5,8.6-3-3.1"/>
        <path class="cls-10" d="M604.6,428.8l5.2-4.6,7-16.9,7.9-3,3.7,5.6,11.9,8.5,3.7,4-1.8,5.6,2.1,8.2,3.4.6,10.5,10.8,1.9,6.1,4.3,1.6,7.1,8.2-3.7,11.4,3.9,4.9,9.9,2.4,5.5,19.7-4.7,3-14.4,17.4.3,6.2-10.1,2.7-3.6,4.7-9.5,1.6-12.2,5.2-1.2,8.6-5,5-8.6,12.5-3.6.3-10.7-3.6-8.7-5.2,3.4-8.2-2.7-1.9-9.8,13,2.2,3.7-.7,9,1.6,3.1-1,9.5,6.1,12,8.3,8.3,3.4,9,4.7,6.1,15.1,8.2-8.2,8.2-12.3-7.7-1.6-4.2-9.2-5.9-.9-5.8-6.5,2.1-13.2-4.6-2.1,12.6-4.4,5.8-7.1-1.6-5.5,3.7-2.8-3.7-6.7,5.2-4.6-5-15-5.8-4.9-3.4-7.1.6-1.9-3.4-8.9-3.3.3,5-2.8,5.6-10.2-6.2-3.4,2.8-9.3,1.5-8,10.1-6.4-1.2-2.5,4.4-9.5,3.9-5.8-4.7-3.7,6.1-8.9,4.9-6.7,7.7-4.4,2.4-1.6-.6-6.1-4.9-2.8-10.7-4.2-.4,5.3-11.6,7.3-6.1-1.9-5.2.6-5.5-4.3-4.7-.7-9.2,5.9-7.3,5.6-2.5v-5.3l3.1-2.8,12,5,3.3-3.6,11.3,1.9,13-11.7,7-8.5,1.5-10.8-4-8.2,1.6-7.9,4.7-4.7-.6-12.3,3.4-7.4,8.7-12,2.2.9,5.5,11.1,9.8.3,3.4-5.5,6.5-1.2,1.9-7.9,14.2,2.5,3.6,5.3-.7,9.9,5.9,5.3,3.3,5.9,7.4,3.7,6.5-7.7,3-5.6,1.3-12,3.4-5.6-4.9-7.7-10.1-4.7-1.5-5.6,4.3-12.6,3.6.9,4.9-6.4,5.2,5.9,7.6-.9,5.8-3.3,4.2-10.1,7.9-4.6,2.4-4.4.7-7.4,2.8-6.2,5.5-5.2"/>
        <path class="cls-10" d="M373.6,468l5.6-4.6-2.7-7.4,7.3-2.5,4.9-6.1-4.4-8.9-1.2-10.5,3.6-1.9,7.1-7.7,4.7,1,5.5-3.1,3.7,4.2,8.7,14.8,6.2,7,4.3-3.7,5-.4,7-2.7,6.5,7.1-2.8,8.5,5.8,7-1.9,8.7.6,7.7-5.2,8.7,1,8.2,2.5,4.6-11.4-2.4-4.7,4.6-10.8,5.8-.9,4-5.3.9-2.8,3.7-4.6-1.9-3.9,5.8-3.7-1.3-4.4-7.4,4.6-5.6.3-5.2-10.1-6.1-5.9-5.3-4.6-7.1-3.3-10.1"/>
        <path class="cls-10" d="M400.9,516.5l3.9-5.8,4.6,1.9,2.8-3.7,5.3-.9.9-4,10.8-5.8,4.7-4.6,11.4,2.4-2.5-4.6-1-8.2,5.2-8.7-.6-7.7,1.9-8.7-5.8-7,2.8-8.5-6.5-7.1-7,2.7-.4-8.3,4-4.2-4.4-7.4,4.3-3.4-2.8-7.1-12-15.4,7.6-4.2,11.7,19.3,7,1.3,6.5-8.7,4.9-2.1,1.6-4.6,5.9,3.1,6.7-.6,9.5-3.4,5.3,1.9,4,10.7-2.1,8.3,10.7,6.1-1.8,9.2,6.5,5.6,3.6,5.8-24.8,12-8.6-4.2-8.5,5.2,9.2,21.7-14.4,12.8-.3,5.8,5.5,12.5-3.4,6.2-4.7,3.1-2.2,18.7,6.1,13.8-1.6,3.9,1,7.3,2.8,6.2v5.5c-.1,0,3.1,3.3,3.1,3.3l-13,11.7-11.3-1.9-3.3,3.6-12-5-6.8-7.7-5.2-1.9-5.5,1.2-2.8-8.3,3.3-4.9-3.7-5-2.7-13.9,1.8-3.9-2.8-4.9-2.4-15.9"/>
        <path class="cls-10" d="M440.3-207.1l-5.9-2.7-2.8-8.5h5.6l3.1,11.1"/>
        <path class="cls-10" d="M450.1-191l-4.2-12.3,3.1-2.5,4.7,9.3,10.1,5,12.9-2.1,10.1-3.1,16.2-6.7,16.8-12.6,4.9-6.8,6.5-13.8v-5.8l2.7-9.6-.9-6.8-4.4-2.4,4.6-4.6h19.1c0,.1,3.7-2.4,3.7-2.4l-2.4,9.5,8.3,12.2,9.8,17.8,3.3.7,4.9,10.1,11.4.7,6.4,5.8,3,7-3.9,6.1,3.3,10.8,2.7.6,2.4,6.8,8.3,3,8.5,6.7,1.3,16.3-3.3,2.8,6.5,5,1.8,8.7,9.2,12.8,8.9-1.3,9.8-9.3,9.5,3.4,7.1-2.7,9.2,3.4,9.9,1,8.6,10.2,4.4.6,6.5,5.2,1,12.5-5.6,4.7,1.5,8.2,7.9,12.2,1.8,7h-10.5l-3.7,11.3,1.8,9.6-11.7-2.2-4,.7-6.4-4.2-6.2,3-3.6,8.5-7.4,1.8-5.8-.9-7.6,12.9,4.9,4.7.4,7.3-9.3,5.3-2.8-3-7.7-1.5-1.5,4.7-4.7,3.1-6.5.9-.3,5.9-10.7,2.1-4.7-1.3-5.3,1.9-20.5,1.2-7.6,8.9-5.9-1.8-3.7-13.5-12-11.7,1.5-7.1-4.4-4,7.1-1.9.9-3.3-9.8-3.4-1-9-5.8-3.6-9.2,1.5-5.9-1.5-9,10.2-7-8.5v-3.3c.1,0-15.1-13.8-15.1-13.8l-7.4-4.2-2.8-4.2-4.2-.3-6.7-4.9,7.4-9-1.6-10.4,6.4-4.2,4.9-7v-5.5l-7-5.8-3.4-6.5-1.9-9.3,1.8-2.1,2.1-13.9-4.7-3.3-.6-3.9-5.5-5,.6-4-4.9-3.9-2.7-9-4.2,3.4-7.7-2.7-.7-9.2-3.9-2.4"/>
        <path class="cls-10" d="M-165-997.3l.6,7.6-12.5,13.5-4.6.4-6.8-5,1.5-4.6,7.4-9.5,11.6-.6,2.8-1.8"/>
        <path class="cls-10" d="M483.9-281.9l-3.6-6.1-3.6-.9-1.5-11.1-4.6,1.2-2.1-7.6-5.5-8.3,8.2-2.7,7.1,2.7,3.9,11.3,10.5,9.3,4.6,7.6-6.8,4.3-6.7.4"/>
        <path class="cls-10" d="M330.6-282.5l-2.7-1,2.7-7.9-2.5-1.9,2.7-9.5-3.9-2.1,3-5.2,18.4-5,14.7,6.1,4.3-.7v-7.1l7.6-2.1,12-1.3,7.4.7,2.5,5.3-17.6,20.9-7.9,11.6-1.2,11-4.6,7.4-12.8-4.4-18.2-7.7-3.6-6.8"/>
        <path class="cls-10" d="M508,439.8v7.1l9.8,7.3,6.5-4,8.9-8.3-3.1-8.6,2.2-5,8.9-2.1,3.7-4.6,8.7-6.5-1.6-11.3,4.2.3,10.2-3.4,6.8,3.1,7,5.5,8.7,10.2,4.7,3.9,7.3,1.6,3.9,3.7-5.5,5.2-2.8,6.2-.7,7.4-2.4,4.4-7.9,4.6-4.2,10.1-5.8,3.3-7.6.9-5.2-5.9-4.9,6.4-3.6-.9-4.3,12.6,1.5,5.6,10.1,4.7,4.9,7.7-3.4,5.6-1.3,12-3,5.6-6.5,7.7-7.4-3.7-3.3-5.9-5.9-5.3.7-9.9-3.6-5.3-14.2-2.5-1.9,7.9-6.5,1.2-3.4,5.5-9.8-.3-5.5-11.1-2.2-.9-8.7,12-3.4,7.4.6,12.3-4.7,4.7-1.6,7.9,4,8.2-1.5,10.8-7,8.5-3.4-3.3v-5.5c.1,0-2.7-6.2-2.7-6.2l-1-7.3,1.6-3.9-6.1-13.8,2.2-18.7,4.7-3.1,3.4-6.2-5.5-12.5.3-5.8,14.4-12.8-9.2-21.7,8.5-5.2,8.6,4.2,24.8-12"/>
        <path class="cls-10" d="M395.6,61.9l6.2-6.1,12.5-16.2,4.9-8.7,8.2-19,2.4-7.7,16.8,4.4,5.6-.9,14.2,9.3,3.9-2.2,3.4,3.3,8.2,3.1,17.8,9.9,6.8-.9,31.7,3.9,7.1-.6,7.6,2.4,2.1,6.1,9.2,8.6,10.1,5.3,7.3,8.6,1,7.3-12.2,4.4-5.3.4-.6,6.1-3.6,2.7-1.8,6.2-6.5-1.8-5.3,2.2-7.9.3-10.8,10.1v4c-.1,0-8,2.1-8,2.1l-3.7,18.1-6.5,2.8-4.4,6.1-7.3,2.7-5.6-4.9-3.7-15.3-4.4-.9-14.4,10.2-22.4-5.6-8,2.7-10.1-3.7.7-4.3-3.4-6.4,4-3.1.7-10.7-5.9-9.3-4.4-3.4-5.3-10.1-12.5-6.4-7.6-5.5"/>
        <path class="cls-10" d="M429.5,4.1l2.4-8.7,2.4-17.5.9-14.8-1.9-9.2-6.5-13.9-7.7-5.3-4.7,4.6-3.9-2.5-9.5,4.9-4.3-4.3-3.1-7.6-.4-8.3,4.2-3.3,5-10.2-2.2-9.5-5.9-5.6v-4.9c-.1,0-4-7.7-4-7.7l7.7-2.5,3,3-.3,6.7,3,2.2h10.8l1,2.5,11.1-4.4,6.1-5.2,6.8-9.2,7.9-18.2,3.1-12,3.3-18.8v-12.3c-.1,0-3.7-2.7-3.7-2.7l3.9,2.4.7,9.2,7.7,2.7,4.2-3.4,2.7,9,4.9,3.9-.6,4,5.5,5,.6,3.9,4.7,3.3-2.1,13.9-1.8,2.1,1.9,9.3,3.4,6.5,6.8,5.8v5.5l-4.9,7-6.4,4.2,1.6,10.4-7.4,9,6.7,4.9,4.2.3,2.8,4.2,7.4,4.2,15.3,13.8v3.3c-.1,0,6.8,8.5,6.8,8.5l9-10.2,5.9,1.5,9.2-1.5,5.8,3.6,1,9,9.8,3.4-.9,3.3-7.1,1.9,4.4,4-1.5,7.1,12,11.7,3.7,13.5,5.9,1.8-.6,5.2-4,7.3,2.7,5.3-1.8,8.2-6.7,7.1-1.9,7-9.2-8.6-2.1-6.1-7.6-2.4-7.1.6-31.7-3.9-6.8.9-17.8-9.9-8.2-3.1-3.4-3.3-3.9,2.2-14.2-9.3-5.6.9-16.8-4.4"/>
        <path class="cls-10" d="M858.8,910.5l7.9-1-6.1-36.9,2.5-4.6-5.3-2.7,1.3-13-.7-13,4.3-4.9h8l-.3-13.5-8-.4-1.2-7.7-11.9-4.2.9-5.6,6.2-3.7h5.3l3.3,9.9,5.6-.9,1-11.6-15.1-3.7v-12.8c.1,0,3.7-1.2,3.7-1.2l3.3-9.8,8.5-.9,11,16,1.9,4.7,11.7,4.7,3-8.7,8.7,2.1,9.6-1.5,5.2,2.1,3,5.5,6.1-1.3.6-4.2,8.2,5.5,6.7,15,3.9,5.6,5.5,3.6,5.9.7,5.3-1.9,10.1-10.5,22.8-11.4,9.6,2.4,5.8,6.5,13.2,7.1,4.9,4,11,13.6,3.1,6.7,8.2,7.1,4.9-4.2,9.3,4.2,7,15,4.2,4.4-4.9,4.4,3.3,12.3,11.3,27-2.4,3.7,1.6,6.4,4.6,6.5,1.8,9.3-4,5.9-11.4,8.5-7,10.7-1.5,4.3,7.4,4.3,1.5,9.8,5.5,7.4,11.6-2.5.7,7.9-7,5.8-14.2-2.8-6.5,4.3-4.4-1.2-5.8,7.1-5,.7-7-2.1-4.7,2.4-5-1.8-5.9,1-6.4,8-3.6-.9-5.5-8.3-8.5,2.5-6.4-5.6-10.8-5.9-9.3-2.4-9.5.3-2.7-6.2.6-6.4-7.6-1.6-7.1,1-2.7,3.1-7.4-8.5-1.8-5.6-4.9.3-7.6-12.8-15.4-1.9-5.2,2.8-7-2.7-7.7,5.5-6.5-1.5-8-8-5-.7-9.2-5.3.4-8.7-8.6-7.7-1.8-12.3"/>
        <path class="cls-10" d="M587.7,181.2l-13.8-4.6h-4.2l-2.7-10.4-5.8-4.9-4.3,1.5-3.7-3.1.9-6.5-3.6-3.4,3.4-7.3.7-6.7,3.6-1.8.9-9.3-5-1.9-1.5-7.3,3-10.2-1.3-7.9,4.6-5.8,1.8-6.2,3.6-2.7.6-6.1,5.3-.4,12.2-4.4-1-7.3-7.3-8.6-10.1-5.3,1.9-7,6.7-7.1,1.8-8.2-2.7-5.3,4-7.3.6-5.2,7.6-8.9,20.5-1.2,5.3-1.9,4.7,1.3,10.7-2.1.3-5.9,6.5-.9,4.7-3.1,1.5-4.7,7.7,1.5,2.8,3,9.3-5.3-.4-7.3-4.9-4.7,7.6-12.9,5.8.9,7.4-1.8,3.6-8.5,6.2-3,6.4,4.2,4-.7,11.7,2.2-1.8-9.6,3.7-11.3h10.5l8.5,11.9.3,5.8,9.8,19.6-2.7,3.1,5.3,15.6-.9,24.2,4.6,6.5-1.3,3.7,2.2,5.3,6.5,6.5,6.8-2.4,7.7.9,16.3-8.7,3.6,2.7,3.4-9.8h4.4l3.7,9.6,5.6-.4,7-6.7,7.4.4,9.8,7.1,4.7.6,4.4,9.5,1,6.4,7.7-.6-1.3,5.9-7,4.4.9,11.1-11.4-1.9-4.3,2.2-9.9,10.2,2.1,15.9v13l3.1,2.2.6,6.1-5,4.4-7.4-1.6-8.3,1.6-5.6-9.3-4.2,8.7-9.6,5.9-2.7-.4-3.6,10.8-10.1-.6-9.5-3.7-.4,5.3-7.3,5-8.3,2.2-10.5-1.8-7.4,9-1.9,5.2,2.1,4.7-3.6,13.6-4.2-.4-3.9,7.9-8.2,4.2-2.4-4.4-5.9-.6-4.4,7.6,2.1,2.2-1,6.7-6.4,8.7-6.5,3.1-6.1,7.9-4.7-5.2-4-.6-11.7,5.2-18.5,4.6-5.8,3.1-8.7,10.8-3.3,7-3.3-6.7-11.1-10.4,4.4-9.2,8.2-5.9,2.2-7-8-11.4-8.2-4.3-6.1-.6"/>
        <path class="cls-10" d="M766.1,517.8l-2.2-5.3-8.3-6.2,3.4-4,1.9-7.4-1.2-3,1.8-12.2-4-11.1,3.4-3.3,3.3-9.6h8l2.2-3.9h5.8l6.1-13,1.6-9,5.2.7.3-8.3,2.7-9.8h7.3l4.6-13.6-2.2-17.4,10.8-7.1,1.2-8,3.3-6.8.3-8.9,4.3-.9-.4-10.7,2.2-7-4.2-6.2.4-6.2-4.7-5.3-3.4-5.6v-7l3-8.6,1.2-10.1-4.3-5.8,8-11h5.9c0-.1,10.7,9.2,10.7,9.2l3.6,5.5,12.5-4.7,7.3,6.1,9.9,4.7,5.2-1.9,7,3.1-2.4,11.3,4.2,12.6,6.7,11.7,3.4,1,7.1,11.4,4.6,2.2,13.3,2.5,3.9,8.3,4.6,4.7,4.2,1,3.9,6.8,5.8,2.4-4.2,7.9,6.8,4.3,13.6.6,6.5,7.7.7,5,4.7,3.6,1,8.5,7.1,6.2,1,4.2,8.2,7.1,1.8,7.6v10.2l4.9,3.1-2.7,6.8,2.4,4.3-3,9.8-1.8,17.9.6,12.3,7.3-.7,3.3,3.9.6,14.8,5.2,10.4,2.5,1.5-2.2,6.5,5.5,4.3.6,4.3-9.9,3.1-5.8,7.9,2.2,6.8-.9,9.8-5,6.5-13,.4-7.4-1.5-4.4,2.8-6.7-17.2-6.4-4.7-5.9.7-4.4-3.6-5.3-.6-9.9-5-4.2-3.6-11.3-.7-14.8,3.7-2.5,3.3-11.4-6.4-24.6,9-17.1-4.7-8.9-9.9-4.2.9-5-2.7-11.9-1.5-3.1,3.1-4.3-4.4-3.9,1.8-5.3-3.7-3.3,5.8-8.3-4.2-2.8-4.4-4.6-1.5-8.3-6.4-6.8,2.7"/>
        <path class="cls-10" d="M678.6,704.6l.3-4.6,12.3-10.2,14.2,1.3,6.1-.6,11.1-19.1,4.9-3.9,9.2-16.9,4.9,1.2,7.6-9.9-4.3-3.1,5.5-6.8-7.6-9.3-6.5-.3-5.6-4.4,3.4-7.7-2.8-8.3,2.1-9.9,7-5.3,2.5-12.9,4.4-6.7,3.6.9,6.2-12.6,4.6-12.5-4.9-2.7,5.9-7.7-3.3-3.9,2.8-7.7,4-3.1,6.8-2.7,8.3,6.4,4.6,1.5,2.8,4.4,8.3,4.2,3.3-5.8,5.3,3.7,3.9-1.8,4.3,4.4,3.1-3.1,11.9,1.5,5,2.7,4.2-.9,8.9,9.9,17.1,4.7,24.6-9,11.4,6.4,2.5-3.3,14.8-3.7,11.3.7,4.2,3.6,9.9,5,5.3.6,4.4,3.6,5.9-.7,6.4,4.7,6.7,17.2-7.3,3.9-5.8-.6-6.4,4.4-8,18.2-6.7,4.3-10.8,2.4,8.9,4.3,8.2,1,4.4,3.3,9.6-2.8,7.1-5.9,5.6,2.4,6.4-4.9,5.9-2.2,8.5,4.7,13.2-6.5,12.3,1.8,6.2,5.2,2.5,6.1,7.4,4.3,1.5,4.3-1.2,14.8,4.4,2.1,5.6,11.4v9.6l4.4,15,9.5,8.9,6.7-3.4,3.9.3,3.1,6.5.4,10.7,5.5,3.6,9,16-1.6,10.2-2.8,3.1,2.8,9.6,2.8,3.3-2.8,4.7,4.2,5.6-2.5,3.6v18.2l3.6,15.7-5.3,3.6-2.5,4.3-7.9,4.6-3.7,5.2-13.3,7,.7,2.8-4.2,6.1-8.2,4.4-11-13.6-4.9-4-13.2-7.1-5.8-6.5-9.6-2.4-22.8,11.4-10.1,10.5-5.3,1.9-5.9-.7-5.5-3.6-3.9-5.6-6.7-15-8.2-5.5-.6,4.2-6.1,1.3-3-5.5-5.2-2.1-9.6,1.5-8.7-2.1-3,8.7-11.7-4.7-1.9-4.7-11-16-8.5.9-3.3,9.8-3.6,1.2v12.8c-.1,0-5.2,3.3-5.2,3.3l-9.3-1.9h-10.7l-3.7-8-8.9,4.2-26.7-1.5-.6,1.9-18.2.6-10.4-1.3-10.4-4.4-11.7-6.8-1.6-4.3,3.9-5-4-2.7-8.6,3h-6.7l-5-2.2,7.7-11.9,1.6-13.2-17.8-4.9-7.9-3.1-8.5-1.5-1.9-7.3-11.1-3.4-3.7-7.7,5.3-4.4-4-5.6"/>
        <path class="cls-10" d="M346.3,1370.8l-4.9-9.6.3-5-4.6-3.9,2.2-7.6-3-3.4,11.6-9.9,7.4-9.9,2.1-5.3,10.8-16.6,3.4-8.2,4-5.5,2.8-10.1,9.2-6.7,2.2-7.7,4.3-6.7,2.4-8.6,7.6-5.5,3.4-4.3-3.6-7.4v-6.7l2.7-1.9,7.7.7,4-2.1,2.4-13.9-2.5-8.2-12.3-5.9,1-3.9h8c0,.1.6-7.7.6-7.7l17.6,1.3h9.6l1-7.6.9-2.8.4-21.5,18.1.9,4.3,9.5-5.3,2.8,1.9,7.9h12.8l10.5-15.4,5.6-4.2,14.8,2.4,8.9-1.5,9.9,1,17.4-5.9h9.3l7.3,4.7-6.1,5.6-1,9.6-3.1,8.9,2.2,4.7-3.1,5.5-.9,9.9,4.6,9,9-5.3,6.7.4,3.1,5.3-4.7,21.7,6.8,11.1-1.9,5.3-1.6,13.9.9,7.9,3.3,6.2,4.7,4,1.2,14.2-.6,7-2.4,4.2,9.8,6.4.9,3.9-1.9,12.8,7.1,8.6.4,8.7-10.5,3-5.9-.7-5.8,6.2-5.6-2.2-4.2,7-7-2.4-.4-6.5-5.5-9.2-5.5-1.6-2.5,9-4.9,4.2-9.8,2.5-4.4-.7-4.7-8.2,1.2-8-3.6-3.9-1.9-6.7-5.9-3.4h-9.6l-3.1,6.2,1.5,5.9-10.4,3.9-8.2.3-5.5,5.9-10.4,3.4-5.3.3-3-3.6h-5.2c0-.1-4.4-3.9-4.4-3.9l-5.2-.4-10.7,2.8-2.2-2.8h-7.7l-8.6,2.1h-8.5l1.8,5-4.9,8-5.2,5.3-9.3,5.8-12.5,1.6-5.2-.7-3.6,3-14.7,4.2"/>
        <path class="cls-10" d="M-270.1,381.1l-7.3-5-1.2-7.4,3.7-6.4,11,1.9,1.8,7.3-6.4,10.7-1.6-1.2"/>
        <path class="cls-10" d="M-287.2,574.1l2.8-1.5,2.7-10.1v-5.9l5.2-9.5-1-2.1,6.8-5.8,1.5-6.8-4.3-5.8,2.1-3,11.3-1.5,12.9-4,4.6-4.6,8.3-4.7,12.9-1.8,3-3.4,6.2-2.4,3.4,2.5,7.1-.9,7.4-3.4,8-6.2-1.6-6.7,4.6-4.9,2.2,6.2,5.9,6.5,6.5-2.2,8,6.2,7.4-.3,12.5-4.6,7.6-9.2,3-5.6.7-7.7-2.5-3-11.7-3.6,5.8-3.9,3.7-5.2,6.7.6,12.3-7.6,1.9-4.9h5.2l3.4-3,9.3-1.5,1.2-11.4,7.4-3.9-.9-7.6,6.8-1,4.4-12.3-1.9-12-14.1,2.1-8.6,8.5-6.1,9-9.3,2.8-2.7-4.6-8.2-7.4-7,.9-7.6-2.8-1.8,6.4h-3c0,.1-5.3,11.6-5.3,11.6l-6.8,2.2,2.4-9.3v-7.6c.1,0,4.4-6.4,4.4-6.4l5.3-4.7,5.2-1.9,1.3,5.2,3.7,2.2,4.4-1.5,4.2-5.3.6-9.9-5.2-4.6-2.5,3.3-7-11.1-10.8-4.2-7.1,5.5-6.4.6-5.5,3.3-2.5,6.1-10.2,6.8-4.9-1.6,1.6-9.9-2.4-9.8-3.1-2.8-4.7.6-7.1-4.9-1.8-4.4,2.8-6.7,5.5-3.7,10.2-1,7.1-3.6,5.8,5.5,4.6-6.2-4-9.8,3-7.1,7.3,3.3,8.7,6.4,9,3.1,8.3.3,16-3.4,9.3-3.9,9.3-6.4,9.2-9.2,11-14.5,1.9-8.5-1.9-5.5-4.9.4-6.2-12,2.8-2.1,2.1-12.6,17.4-8.3,1.9,4.6,11.3.9,8.6-6.1,6.7.6,13.3-9.5,9.2-4.9,6.7,3.6,3.6,5.5v7.1l4.6,6.4-3,11.7,1.6,5.6v9.5l2.4,5.3-2.4,6.1,7,7,.4,8.6-5,7.9,3.9,2.5.4,6.5,3,8.7,7,7.4,5.3,9.5,5.8,2.2,6.8-3.9,5.3,2.2,7.7-2.5,5.3,2.2,5.6,14.8-3.1,5.2v6.1c.1,0-4.3,2.1-4.3,2.1l3.9,9.2.7,5.8-5.8,2.2.6,4.9,7,7.3,4.2-3.6-.3-5.9,4.2-2.4,5.8.3,1.8,3,8-3.6,5,5.2,7.7-3.3,5.8.6,2.4,8.2-1,5,5.5,5.6,13,6.4,10.4,9,8.2,1.8,1,14.7-3.3,10.2,1.5,7.3,6.7,7.1-.7,12.2-6.1,5.8-6.4-3.9,2.1,9.9-10.2.9-2.7,10.1-5,4.9-5,8.2,4.3,4.9,2.7,6.4-5.6,2.7,1.3,8.9-2.4,8.7-1.6-1.2-11,5-2.8-1.2-9,3.9-8.6,10.2-9.9-1-3.7-5.9-9.9.7-3-7.6-5-2.2-11.1,4.3-5.8-3.1h-8.6c0,.1-3.1-3.1-3.1-3.1l-17.9-3.1-12.8,4.2-5.8,6.5-5.8-.3-4,3.1v7.7l-3.7,4.7-6.1,3.7-11.4,1.5-1.8-3-10.1-.6-6.5-3.1-1.6-6.4-12-8.7-13.8-1.2-4.7,5.8h-5.2l-6.2,7.9-10.5-6.1-4.7-4.2-6.2-.7-13.5,1.6-14.5-2.2-2.7-3.3-7.7,3.9-1.8,8.3-6.1,3.9-15.9,2.4-5.2-2.1-9.9,2.5-5.9-3.1-4.7,1.8-9.2-6.7-12.5,4.3-5.9-1.3-3,3.1h-7.7c0,.1-9.5,4-9.5,4l-9.9-5.2"/>
        <path class="cls-10" d="M380.7,713.2l-4.4,3.7h-4.6l-6.8,3.9-10.4-3.1-5.9-5.3-8.7,5.6-1.2,5.2-3.4,1.5-5.5-7.1v-7l5.5-3.4,7-11.1-1.6-3.4-11.3-9-4.4-1.5-6.1-10.8-4.4-.9,1-4.9-4.9-5.8,2.2-5.3-2.5-4v-16.5l4.3,2.8,7.6,1.6,2.1-5-3.4-5.2-3.9.4-1.9-4.6.7-7-9.9-5-9-7-3.1-7.7-.4-7,3.7-8.7-8.3-17.6-3-10.4.3-13.5-5-20.8-12-14.7,9.9-6.8,6.1,2.1,1.9,3.3,6.4-3.1h5.6l3-3.1,4.3,4.6,4.3-1.6,3.9-12,9.2-1v-9.9l4-4.9,7.4-2.7,3-4.6,6.8,2.1,7-8.6,5.9-1.3,4.3-3.9,2.7,15.4,7-3.1,2.5,2.7,3.3,10.1,4.6,7.1,5.9,5.3,10.1,6.1-.3,5.2-4.6,5.6,4.4,7.4,3.7,1.3,2.4,15.9,2.8,4.9-1.8,3.9,2.7,13.9,3.7,5-3.3,4.9,2.8,8.3,5.5-1.2,5.2,1.9,6.8,7.7-3.1,2.8v5.3l-5.5,2.5-5.9,7.3.7,9.2,4.3,4.7-.6,5.5,1.9,5.2-7.3,6.1-5.3,11.6,4.2.4,2.8,10.7,6.1,4.9-5.6,6.5.4,10.1-9.6.4-9.8,2.4-7.4,5.9-1.6,10.8-4.2,9-3,1.6,2.1,8.5"/>
        <path class="cls-10" d="M459.9,393.1l4.3-7.4-2.1-6.4,1.9-5.8,8.7-9,4,3.9,6.1-2.1-4.4-6.1,3.9-7.4,8.7-1.3,10.2,7.7,24.5,3.4,11.6-.7,7.3-3.1,12.5-1.2,3.4-1.5,3.7-7-2.8-2.4,3.3-6.8,10.8-8.3,8.3-4.4h5.2l5.9,5.2v8.5c.1,0,3.1,8.3,3.1,8.3v5.9l7.4,5.3,4,17.9,7.4,5.3,2.5,8-.9,5.2,6.1,8.2-7.9,3-7,16.9-5.2,4.6-3.9-3.7-7.3-1.6-4.7-3.9-8.7-10.2-7-5.5-6.8-3.1-10.2,3.4-4.2-.3,1.6,11.3-8.7,6.5-3.7,4.6-8.9,2.1-2.2,5,3.1,8.6-8.9,8.3-6.5,4-9.8-7.3v-7.1l-3.7-5.8-6.5-5.6,1.8-9.2-10.7-6.1,2.1-8.3-4-10.7-5.3-1.9-9.5,3.4-6.7.6-5.9-3.1h0"/>
        <path class="cls-10" d="M480.5,243.2l3.9-.3,13.6-6.2,5.6,2.2,6.7-5.5,6.7,4.3,6.5-2.7,6.4,1.5,1.8,3.9,8.9-1.8,3.6-3.3.4-8.2,7.1-3.7,4.2.9,8-5.8-1-11,3.1-7.6,8.3-4.4,13.3-14.5,6.1.6,8.2,4.3,8,11.4-2.2,7-8.2,5.9-4.4,9.2,11.1,10.4,3.3,6.7,4,.4,8.7,8.9,5.2,2.1,2.7,12.8-4,7.6-.7,7,12-.4,4.3,4.9,4.9,1.9-.4,5.8-5.5,7.9-6.1,4.6-4.2,7.3-3.1-.4-4.7-7.9-4.7,8.6-11.7-5.8-8-2.8-2.7,4.6-5.2,3.6-4.2,5.5-4.4,1.3-7.6,1.9-5.3-.6-9,2.2-11.7,4.6-4.2-.6-7.3-9.5-11-.6-13.5-4.9-7.9-9.6-5.2-2.2-3.4-4.3-8-2.1-4-5.5.6-16.2-1-8.5-4.4-.4-.4-4.9,3-10.2"/>
        <path class="cls-10" d="M387.4,300.4v-.6c.1,0,10.7.3,10.7.3l9.3-6.7,6.4.3,10.7,12.5,10.2,5.6,2.8-1.5,3.6,6.4,8.6,11,5.2-4.2h5.3c0-.1,5,2.8,5,2.8l4.6,8.5,3.6,2.2-3.1,4.6,12.3,10.8-3.9,7.4,4.4,6.1-6.1,2.1-4-3.9-8.7,9-1.9,5.8,2.1,6.4-4.3,7.4-6.7-9.2-.3-5.8-7,1.2.6-6.1,3-4.6-3.1-10.2-3.9-6.2-9.9-12.6-9.8-8.3-7-11.3-6.2,1.5-8.2-12.5-7-5-7.1-3"/>
        <path class="cls-10" d="M482.5,352.4l-12.3-10.8,3.1-4.6-3.6-2.2-4.6-8.5,5-7-4.3-7.3.3-18.1,10.7-5.3-.3-5.3h6.7l4,5.5,8,2.1,3.4,4.3,5.2,2.2,7.9,9.6,13.5,4.9,11,.6,7.3,9.5,4.2.6,11.7-4.6,9-2.2,5.3.6,7.6-1.9,2.7,6.2,5.2,6.1h-5.2l-8.3,4.4-10.8,8.3-3.3,6.8,2.8,2.4-3.7,7-3.4,1.5-12.5,1.2-7.3,3.1-11.6.7-24.5-3.4-10.2-7.7-8.7,1.3"/>
        <path class="cls-10" d="M346.8,87l4.7-6.2.7-5.6,9.5,6.4,8.7-1.8,21.1-14.2,3.9-3.7,7.6,5.5,12.5,6.4,5.3,10.1,4.4,3.4,5.9,9.3-.7,10.7-4,3.1,3.4,6.4-.7,4.3,10.1,3.7,8-2.7,22.4,5.6,14.4-10.2,4.4.9,3.7,15.3,5.6,4.9,1,5.2-9.5.7-12.9,7.4-5.5,4.3-6.2,8-3.4.4-7.3-3.4-13.6-.4-8.9-7.1-7.9-6.7-6.4,4.7-8.6,1.9-1-5.2-7.3-16.6-3-3.7-.7-11.4-6.7-4.4-4.4,2.4-8-7.1-9.8-11.7-12.5-1.8,2.1-3.3-10.7-3.7"/>
        <path class="cls-10" d="M274.8-8.2l-12.6-1.8-5.6,6.5-2.2,5-5.5-8-.3-6.2,5.3-9.9,8.6,1.2,8.3,3.4,6.8,5-2.8,4.7"/>
        <path class="cls-10" d="M480.5,243.2l-6.1.4-2.5-3.7,1.6-8-2.7-2.7,4-9-6.8-6.1-5.3,4.3-4-4.7-9.8,1.6.9-10.1-8.2-11.7-.4-2.5-9.2-12.6,2.7-5.6-5.6-7.1v-5.5c-.1,0,2.7-6.7,2.7-6.7l8.9,7.1,13.6.4,7.3,3.4,3.4-.4,6.2-8,5.5-4.3,12.9-7.4,9.5-.7-1-5.2,7.3-2.7,4.4-6.1,6.5-2.8,3.7-18.1,7.9-2.1v-4c.1,0,11-10.1,11-10.1l7.9-.3,5.3-2.2,6.5,1.8-4.6,5.8,1.3,7.9-3,10.2,1.5,7.3,5,1.9-.9,9.3-3.6,1.8-.7,6.7-3.4,7.3,3.6,3.4-.9,6.5,3.7,3.1,4.3-1.5,5.8,4.9,2.7,10.2h4.2l13.8,4.7-13.3,14.5-8.3,4.4-3.1,7.6,1,11-8,5.8-4.2-.9-7.1,3.7-.4,8.2-3.6,3.3-8.9,1.8-1.8-3.9-6.4-1.5-6.5,2.7-6.7-4.3-6.7,5.5-5.6-2.2-13.6,6.2-3.9.3"/>
        <path class="cls-10" d="M474.4,243.6l6.1-.4-3,10.2.4,4.9,4.4.4,1,8.5-.6,16.2h-6.7l.3,5.5-10.7,5.3-.3,18.1,4.3,7.3-5,7-5-3h-5.3c0,.1-5.2,4.3-5.2,4.3l-8.6-11-3.6-6.4-2.8,1.5-10.2-5.6-10.7-12.5-6.4-.3-9.3,6.7-10.5-.3,3.9-4.4-6.1-7.7,17.6-12.5,4.2-12.2,5,.9,4.3-8.7,11.3-4,5.5-9.6,4.2-3.3,5,6.1,8.2,4,4,3.9-.6,4.6,6.1,2.4,3.6-3.6,11-6.7-.3-5.6"/>
        <path class="cls-10" d="M711-261l13.6-6.1,12.8-7.9,3.4-5.2,16.3-12.6-3.1-5.3.4-7.6,5.5-4.2-4.7-7.4,3.1-3.9,5.2.6,3-3.7,7.3-3.7,5.9,5,2.1,8-4.2,11,7.3,6.2-.7,3,10.2,9.8-2.5,5.6,1.9,2.4-5.9,9.2-2.7-3.7-5.8.3-3,3.7.4,7.1-7.4,10.1-.9,6.5-6.1,8-10.5,1-3.4,3.9-14.7-1.3-10.2,6.2,1.2-18.2-2.5-8.5-9.5-3.7-2.1-4.6"/>
        <path class="cls-10" d="M803.9-157.5l-4.2-5-7.1-17.5-4.7-14.5-2.7-11.6-1.5-20.9-4.6-44,5.8-.3,2.7,3.7,1.2,1.5,9,15.4v4.4h7.7l4.3,12.6-2.7,8.7,4.9,2.8-1.5,3.9,6.2,4.2,2.5,9.6h6.1l3.3,9.6,10.5,6.8,1,5.3,8.9,5.2,4,10.1-.4,5.8-3.6,3.6-3.1-5.8-5.5-1-5.3,3.7-1.3-5.3-5.6-1.5-1.5-3.3-5.8-1.8,1.9,14.1-11.9,9.8-7.4-8"/>
        <path class="cls-10" d="M555.9-268.3l2.5,2.2,18.2-5.6,12.3,1.2,5.2,4.3-.4,6.8,7,8.7,12.3,3.9,23.3,1.2,25.4-1.9,11.6-2.1,27.9-7,9.9-4.3,2.1,4.6,9.5,3.7,2.5,8.5-1.2,18.2,1.6,3.4-1.3,10.2-3,8.9-3,2.5-3.1,11.4,8.5-1.2,6.4,2.5,9.8-3.3.4,8.7-2.2,4-5.3.3-3,11-6.4,11.3-2.2,10.4,4.3,16.6-2.8,10.4-2.5,3.3-8.3.9-6.5-5.2-4.4-.6-8.6-10.2-9.9-1-9.2-3.4-7.1,2.7-9.5-3.4-9.8,9.3-8.9,1.3-9.2-12.8-1.8-8.7-6.5-5,3.3-2.8-1.3-16.3-8.5-6.7-8.3-3-2.4-6.8-2.7-.6-3.3-10.8,3.9-6.1-3-7-6.4-5.8-11.4-.7-4.9-10.1-3.3-.7-9.8-17.8-8.3-12.2,2.4-9.5"/>
        <path class="cls-10" d="M711.4-114.5l8.3-.9,2.5-3.3,2.8-10.4-4.3-16.6,2.2-10.4,6.4-11.3,3-11,5.3-.3,2.2-4-.4-8.7-9.8,3.3-6.4-2.5-8.5,1.2,3.1-11.4,3-2.5,3-8.9,1.3-10.2-1.6-3.4,10.2-6.2,14.7,1.3,3.4-3.9,10.5-1,6.1-8,.9-6.5,7.4-10.1-.4-7.1,3-3.7,4.6,44,1.5,20.9,2.7,11.6,4.7,14.5,7.1,17.5,4.2,5-9.8,7-13.6.3-3.4,7.6-11.1,7,2.1,7.3-7.3,1.5-5-2.2-7.4,1.8-8,6.7-2.5,8.7-4.4,3.9-12.8,1.2-6.7-3.1-2.5-4.3"/>
        <path class="cls-10" d="M770.3,130.2l3.6-10.8,2.7.4,9.6-5.9,4.2-8.7,5.6,9.3,8.3-1.6,7.4,1.6,5-4.4-.6-6.1-3-2.2v-13l-2.2-15.9,9.9-10.2,4.3-2.2,11.4,1.9-.9-11.1,7-4.4,8.7,6.8,7.6-4.9,5.3,4.9-3.6,4.3,3,2.8-.4,14.7-3.1,2.8,2.8,8.5,1.5,12.3-2.2,9.2-7.9,4.4-8.2-3.4-7.3,1.5,2.1,4.7-1.9,3.7,4.4,7.1-2.4,9.6-9.5,9.6-7.6,1.9-7.9-6.1-7.3,1.2-8.6-.4-6.1-2.4-4,1.3-2.4,4.6h-6.7l-5-10.1-5.9-5.6"/>
        <path class="cls-10" d="M717.9-70l-1.8-7-7.9-12.2-1.5-8.2,5.6-4.7-1-12.5,2.5,4.3,6.7,3.1,12.8-1.2,4.4-3.9,2.5-8.7,8-6.7,7.4-1.8,5,2.2,7.3-1.5,7.9-3.9,3.7,7.9,3.6,2.2,3.1,11,3.3.4,8.9-3.4,5,3.6,2.4,7.9,5.2,2.1,8.6-1.2v5.9l5,4.6,6.1,10.5-4.2,2.2-1.8,4.6-5.3,3.6-.9,4.9-3.7,1.8-4.3,6.1.4,4.2,7.1,11.9-2.1,17.6-5,2.4-3.9-2.2-5.8,3.7-7.6,1.5-6.8-2.1-1.5,6.1,4.9,20.3,4.3,5-2.4,4.2h-4.4l-3.4,9.9-3.6-2.7-16.3,8.7-7.7-.9-6.8,2.4-6.5-6.5-2.2-5.3,1.3-3.7-4.6-6.5.9-24.2-5.3-15.6,2.7-3.1-9.8-19.6-.3-5.8-8.5-11.9"/>
        <path class="cls-10" d="M818.8,314.2l4.7,5.3-.4,6.2,4.2,6.2-2.2,7,.4,10.7-4.3.9-.3,8.9-3.3,6.8-1.2,8-10.8,7.1,2.2,17.4-4.6,13.8h-7.3l-2.7,9.6-.3,8.3-5.2-.7-1.6,9-6.1,13h-5.8l-2.2,4-4.9-11.1,2.5-8.3,10.5-13-2.7-5,3.7-6.1-2.8-6.4-5-.7-7.1,4.7-4.4-.3-1.9-4.3.3-6.8-2.4-10.2-5-8,3.6-5.5v-8.2l5-11.7-2.1-5.2-8.6,4.4-4.9-4.2,5.5-10.4-7.1-4.2-10.7.6,1.6-6.8,6.2-6.8,13.5-1.6,4-3.4,5.2,1.8,4.3-6.4,11.4-.4,4.7-4h4.3c0,.1.9,7.1.9,7.1l4.2,4.4,7.4-.3,2.2,2.2,5.9-4.3h4.6l4.6-3.3"/>
        <path class="cls-10" d="M678.6,704.6l-7-8.7v-4.9l-4.7-1.3-7.1-13.9-7.4-3-3.7-5.3-8.6-5.5-8-6.7-3.9-1.3-10.5-13.8,8.2-8.2-15.1-8.2-4.7-6.1-3.4-9-8.3-8.3-6.1-12,1-9.5-1.6-3.1.7-9-2.2-3.7,9.8-13,2.7,1.9-3.4,8.2,8.7,5.2,10.7,3.6,3.6-.3,8.6-12.5,5-5,1.2-8.6,12.2-5.2,9.5-1.6,3.6-4.7,10.1-2.7-.3-6.2,14.4-17.4,4.7-3,10.8,3.1,2.7-3.7,9.6-1.8,1.2,4.9,10.2-1.3,11-8.6,3.7,1.3,3.7-3.7,4.7,1,5,4.4,3,8.3,2.8.4,8.3,6.2,2.2,5.3-4,3.1-2.8,7.7,3.3,3.9-5.9,7.7,4.9,2.7-4.6,12.5-6.2,12.6-3.6-.9-4.4,6.7-2.5,12.9-7,5.3-2.1,9.9,2.8,8.3-3.4,7.7,5.6,4.4,6.5.3,7.6,9.3-5.5,6.8,4.3,3.1-7.6,9.9-4.9-1.2-9.2,16.9-4.9,3.9-11.1,19.1-6.1.6-14.2-1.3-12.3,10.2-.3,4.6"/>
        <path class="cls-10" d="M971.2,572.2l4.4-2.8,7.4,1.5,13-.4,5-6.5.9-9.8-2.2-6.8,5.8-7.9,9.9-3.1,6.2,2.7,6.2-1.8,7.1.3,13.5,7.9,8.9-2.5.7,5.2,3.9.6,3.9,6.7-1.2,3-8.5,7-6.5.9-3.1,3.6-.4,7.7,9.5,7.3,4.4,5.2,3.1,9.9,4,4.6,3.3,9.6,4.2,4.9,13.5,1.8.9-6.2,4.3-2.2,12.8,2.7,12.3-3,14.7,1,4.4-4,14.7,3.3,1.3,3.7-1.3,2.7-7.6,3.4,3.6,4.9.9,10.4-3.9,10.8-5.9,6.5-1,6.8,2.4,13.2-5,9.6,2.2,7-.9,3.9,2.7,6.7-7.3,4v8l-2.8,15.3-2.2,6.8,2.1,7.4v13l-22.1,2.8-7.3,2.5-5.9-1.6-3.9,1.5-4.6,7.4v-13.2l2.4-3.6-4.2-5.6,2.8-4.7-2.8-3.3-2.8-9.6,2.8-3.1,1.6-10.2-9-16-5.5-3.6-.4-10.7-3.1-6.5-3.9-.3-6.7,3.4-9.5-8.9-4.6-15v-9.6l-5.5-11.4-4.4-2.1,1.2-14.8-1.5-4.3-7.4-4.3-2.5-6.1-6.2-5.2-12.3-1.8-13.2,6.5-8.5-4.7-5.9,2.2-6.4,4.9-5.6-2.4-7.1,5.9-9.6,2.8-4.4-3.3-8.2-1-8.9-4.3,10.8-2.4,6.7-4.3,8-18.2,6.4-4.4,5.8.6,7.3-3.9"/>
        <path class="cls-10" d="M615.2,780.4l-.6-11.6,8-20.5,4.4-1.8,6.7-20.2,2.5-2.7.4-10.2,3-4,9-1.3,2.2-13.6,15.9-4.6,4.7,1.3v4.9l7,8.7,4,5.6-5.3,4.4,3.7,7.7,11.1,3.4,1.9,7.3,8.5,1.5,7.9,3.1,17.8,4.9-1.6,13.2-7.7,11.9,5,2.2h6.7l8.6-3.1,4,2.7-3.9,5,1.6,4.3,11.7,6.8,10.4,4.4-12,.4-15.1-1.6-17.5,8.7-14.8,11.3-3.4-5-3.1-13.6,8-1-4.7-8.3-8.3-1.6-15.3.6-5.9,3.7h-13.3l3-3.9-45.4.9"/>
        <path class="cls-10" d="M337.4,1065.4h6.5l2.2-2.8,9.2,4.3,4-12.3,5.5-.4,14.7,2.8-3.1-5.3-.4-10.5,11.6-.6-1.2-14.1,3.9-1.9,7.9,6.8,3.4,1.2,12.3,8.6.9,14.1,4.6,11.3,4.2.3-4.7,6.2-4.6,28.3-10.8,4,2.7,20.6,2.1,4.7,8.6,3.4-4,9.5-7.6-.9-11,2.5-18.2,7.4-1-10.8-3.7-1.9v-5l-3.3-8.9-3.9-4.2-12.9,4.2,1-10.5-3.7-6.8,3.1-9-2.2-7.6,3-9.9,4-8.3-17.5-5.6-1-2.8"/>
        <path class="cls-10" d="M515.5,1052.4l-3-6.5-5.5-7.1-8.6-1.2,4.9-7.4-.9-8.9,4-1.6-2.5-6.5.3-5.3-1-3.1,2.4-10.1,6.8,3.6,12-.7,3.9-3.1,7.9,4.6,7.3-3.3-1.5-5.9,10.2,1.9,8.9,3,12.8-5.2,5.6-4,6.4.4,8.9-3.7v-4l3.6-10.8,12.3-5.6,7,3.4,4.9,6.5-2.7,6.5,10.1-.6,1.5-3.9h6.8l2.2-4.2,8-3.3,6.5-.3,9.5-11.9,10.2-4.6,4.7-7,4,3-.3,6.2-3.7,4.6-.4,6.2,2.7,5.3-.9,6.1,4.4,9.9.6,6.1-2.2,5.9,8.7,13.3,4.4,2.7.4,6.4,4.6,5,1.8,10.8-1.9,4.9-11.3,3.6-7.7-2.2-12,1.2-9.2-3.6-1.2-6.2-3.7-6.4h-7l-6.7,2.4v2.8l-7.4,3-6.4,5.3-5.9,1-7.7,4.6-13.8,1-16.9,5.2-15-.3-1.2,3.3-8.9.7-16.5-7.4-7-.3-3.1,4.6-7.9-2.4-9.3,3.6"/>
        <path class="cls-10" d="M1079.3,221.2l-12.9.6-8.2,1.5-4-.4-11.7-9.6-6.8-9-1.5-5.8,9.6,2.1,3.6-3-.3-5.5-12-1.6-6.8-6.8,1.8-8.5-3.1-.9.3-8.3,2.4-2.2,2.4-13-1-12.3-2.1-1.6,4.7-13.9-1.6-3.6,3.1-11.1,2.8-4v-8.2l-1.8-6.4-5.6-3.1-2.4-10.4-5.2-6.2,8.2-5.2h6.4l11.6-3.9,6.8.3,4.7,2.4,4.7-3,4.6-14.7,8.3-5,13-1.3,8.2,4.2-.4,7.6,3.7,15.7-1,6.4,2.8,5-2.8,3.9,4.9,12.2.6,7.9,10.1,11.1-5.3,11.6.4,10.1,5.3,7.7,6.2,6.2,4.4,11.3,5.9,7.3,1.8,7.3-2.1,6.2-3.4,3.6-1,6.5-5.9,6.4,4.3,11,9.5,4.7-6.8,6.7-7.9,3.4-1.5,3.1-8.3,4.7-8.3-.6-5.6,2.7-3.7-6.4-7-2.5-4.9-7.1-4.3,4.2"/>
        <path class="cls-10" d="M1003.1,494.7l2.4-11.6,5-3.9,11.1-1.2,9.5-6.1,3.3-14.7,3.1-3.6,1.6-8.5-.3-12.5,1.6-4.3-4.2-10.4.6-6.1,3.1-7.1-.7-16.6-2.4-1.5,2.8-8.3,10.8-5.5-3.3-5.6,1.3-11.3-8.5-7.6-1-4.4,4.2-2.1-3.4-9.3,6.8-1.5,5.3,6.8,4.6-1.2,5,4,4.2-3.4,5.9-1.3,3.7-5.9,4.3,3.6,3,7.9-1.5,4.2,7.9,4.4,4.9-.9,5.8-5.3,5.9,14.7-.4,2.8,4.9,8.6,7.1-7.3,9-1.5,2.4-5.3,6.7-4,4.2,3.9,5.5.4,4.2,6.2,7,3,6.8,11.9,10.4,6.1,4.2.3,4.7,9.2,8,5.3-3.3,11.3,11.4,21.8,7.3,9.3,3.1,7.7-3.6,6.8.3,7.1,6.4,11.4v13.2l5,2.7,3.7,5.6-2.4,5.2.3,9-1.6,5.6,12.5,8.2,3-.7,4.6,15.7-12.5,4-2.1,5.2-19,32.9,1,5.8-2.1,6.4-4.9,6.1-11.1,2.7-6.7,3-5.3,7.9-3.4,2.2-6.8-.6-3,1.9h-7.4c0-.1-1.3-3.9-1.3-3.9l-14.7-3.3-4.4,4-14.7-1-12.3,3-12.8-2.7-4.3,2.2-.9,6.2-13.5-1.8-4.2-4.9-3.3-9.6-4-4.6-3.1-9.9-4.4-5.2-9.5-7.3.4-7.7,3.1-3.6,6.5-.9,8.5-7,1.2-3-3.9-6.7-3.9-.6-.7-5.2-8.9,2.5-13.5-7.9-7.1-.3-6.2,1.8-6.2-2.7-.6-4.3-5.5-4.3,2.2-6.5-2.5-1.5-5.2-10.4-.6-14.8"/>
        <path class="cls-10" d="M904.9,225.2v-5l3.7-7.6,5.8-.6,5.3-8-3.6-5.9-1-9.6-2.1-3.9,16.2-1.8,21.1-11.3-1.2-3.7,2.8-5,7,7,.9,4,5.6,6.4-1.2,6.7,4.9,2.5,4.6,11.1-1.9,3.9,1.8,5.8-6.7-.3v4l-28.5,11-10.7,2.7-12.2,6.7-10.7-9"/>
        <path class="cls-10" d="M961,376.9l5.9-4.3,1.6-5.3,9.5-4.4-4-6.4,5.3-3.3,3.1-4.6-1-13,4-10.5-.9-5.9-5.3-4.6,2.4-8.6,3.6-5.3-.7-4.3,3.9-7.9-11.4-7.1-1.6-2.7,1.9-11.6,7.1-2.1,4.4,4.6,9.6.4,1,2.5,14.8,6.2,9.5,8.6,2.2,6.2,9.8-.3,2.8,2.8,1,6.1,5.8,4.4,1.6,5.2,5.8-.3,2.5,4.6-2.7,7.6-4.3,2.4-1.8,5.5-6.8,1.5,3.4,9.3-4.2,2.1,1,4.4,8.5,7.6-1.3,11.3,3.3,5.6-10.8,5.5-2.8,8.3,2.4,1.5.7,16.6-3.1,7.1-.6,6.1,4.2,10.4-1.6,4.3.3,12.5-1.6,8.5-3.1,3.6-3.3,14.7-9.5,6.1-11.1,1.2-5,3.9-2.4,11.6-3.3-3.9-7.3.7-.6-12.3,1.8-17.9,3-9.8-2.4-4.3,2.7-6.8-5-3.1v-10.2l-1.8-7.6-8.2-7.1-1-4.2-7.1-6.2-1-8.5-4.7-3.6-.7-5-6.5-7.7"/>
        <path class="cls-10" d="M1046.7,331.5l1.8-5.5,4.3-2.4,2.7-7.6-2.5-4.6-5.8.3-1.6-5.2-5.8-4.4,12.5-10.2.3-4,4.7-7.1,5.3-2.7-8-19.7-8.7-10.4-.6-4.6,3.3-5.8,9.5-4.9-1.9-2.4,1.9-7.3,8.2-1.5,12.9-.6,2.2,7.6,5.5,7.1-1.9,7.1-.3,16.3,3.6,4-2.5,8.6,5.9,13.3,2.8,12.3-2.4,8.5,6.1,10.2,6.1,14.7-3.6,6.4-1.2,7.3-5.8,5.3-4.9.9-7.9-4.4,1.5-4.2-3-7.9-4.3-3.6-3.7,5.9-5.9,1.3-4.2,3.4-5-4-4.6,1.2-5.3-6.8"/>
        <path class="cls-10" d="M1099.8,344.4l1.2-7.3,3.6-6.4-6.1-14.7-6.1-10.2,2.4-8.5-2.8-12.3-5.9-13.3,2.5-8.6-3.6-4,.3-16.3,1.9-7.1-5.5-7.1-2.2-7.6,4.3-4.2,4.9,7.1,7,2.5,3.7,6.4,5.6-2.7,8.3.6,8.3-4.7,1.5-3.1,7.9-3.4,6.8-6.7,4,.6-.6,10.5-3.9,5.8,5.5,11.3,7.3-5.5,7.9-2.2,9.5,6.1-3.3,5.8-.9,13.8-3.6,4.7-1.6,7-5.9,7.4-1.8,5,8.3,9,2.1,5.6-1.9,6.7,9.6,9.8,4.3,7.1v12.5l5.5,5.9h6.1c0,.1.7,9.2.7,9.2l2.8,4-1,7.3,4.2,2.8-2.1,11v8.6l4.4,9.5-2.7,6.1-8-5.3-4.7-9.2-4.2-.3-10.4-6.1-6.8-11.9-7-3-4.2-6.2-5.5-.4-4.2-3.9-6.7,4-2.4,5.3-9,1.5-7.1,7.3-4.9-8.6.4-2.8-5.9-14.7"/>
        <path class="cls-10" d="M913.1,184.6l-3.9-2.4-1.9-14.8-3.1-2.5,2.4-8.6-1.3-5.8,5.3-7.6-2.1-7.4-8.2-15.3-1.8-7.1-6.8-4.3,5.5-5.5-1.2-8.2,4.9-5-1.9-9.6,4-3.1,5.3-.3,14.8-4.2,3.4-2.5,7.4-.6,7-2.7,1-5.2,13.6-4.4,3.3-3.3,2.7-10.2,5-2.8v-7.7l5.8-2.8,8.9,3.4,11.1-6.1,2.7,8.5v6.4l8.6,2.4,4.2,5.9,1.2,5,5.2.7,6.5,4.4-2.2,5.3,4.2,3.3,5.2,6.2,2.4,10.4,5.6,3.1,1.8,6.4v8.2l-2.8,4-3.1,11.1-7.6,1.3-6.1,3.7-13.3-.7-3.6,8.7-4.7-.6.7,15.4-5,5.8,2.2,9.5,4,8.2-17.8,1.9-3-4.6-4.4,4.4.4,6.7-8.2,1.5-5.6-6.4-.9-4-7-7-2.8,5,1.2,3.7-21.1,11.3-16.2,1.8"/>
        <path class="cls-10" d="M1369.4-157.8l16.2-2.8,4.7,28.9-16,2.7-5-28.8"/>
        <path class="cls-10" d="M1169.9,14l-.9-4.4,6.5-11.4-2.7-8.6v-5.8l-3-6.1,11-8.9-.3-7.4,17.3-9.9,6.8,2.4,4.7,5.6,12.2-4.9,6.4.9,14.1-6.1,3.1-12,4.3-8h4.3l23.6-29.1,11.4-10.8,6.7.7,44.3-18.8,6.2,16.5-7.3,2.8-3.1,4.2-8.2,3.4-9.5-1.8,3.1,10.7-11.6,5.3-4.3,5.2h-5.5c0,.1-1.5,9-1.5,9l3.3,1.6-3.4,10.2,3.1.3,3.9-6.2,4.2-11,9.2-4.2,5.6,5-7,5.3,5.2,7.4,3.9,9.2-1.2,4.6-14.2,12.3,8,11.1,20.8-16.3,1.8,1.8,8.5,17.4-28.3,21.5,4.4,5.8,1.2,9-7,2.5-13.8,10.5-9.8,4.4-11.7-8.2-5.6,5.8-9.2,1.3-8.2,4.9-11,1.8-2.8,4.2-6.5-2.2-2.8,3.7h-5.3c0-.1-7.9-3.6-7.9-3.6l-.4-4.4-18.7-1.6-1.9-5.8-3.6-2.7-8-.4-10.4-5.5h-9l-3.7-2.4"/>
        <path class="cls-10" d="M1189.9,398.7l2.7-6.1-4.4-9.5v-8.6l2.1-11-4.2-2.8,1-7.3-2.8-4-.7-9h-6.1c0-.1-5.5-6.1-5.5-6.1v-12.5l-4.3-7.1-9.6-9.8,1.9-6.7-2.1-5.6-8.3-9,1.8-5,5.9-7.4,1.6-7,3.6-4.7.9-13.8,3.3-5.8-9.5-6.1-7.9,2.2-7.3,5.5-5.5-11.3,3.9-5.8.6-10.5-4-.6-9.5-4.7-4.3-11,5.9-6.4,1-6.5,3.4-3.6,2.1-6.2-1.8-7.3-5.9-7.3-4.4-11.3-6.2-6.2-5.3-7.7-.4-10.1,5.3-11.6-10.1-11.1-.6-7.9-4.9-12.2,2.8-3.9-2.8-5,1-6.4-3.7-15.7.4-7.6,10.5-10.2,4.4-.7,2.4-4,18.8-1.5,3.9,14.1,4.3,2.5,2.7,3.7,1.2,12.9-1.2,2.8,4.7,5.6,10.2,3.7-1.8,2.8,3.7,9,3.3,3,7.1,1.5,1-12.6,1.8-6.2h7.7l3.6,5.2,10.5-2.7,7.3.4,5.6,7.1,2.4,6.5,4.3,3.4-6.2,6.4-10.2,17.1,2.5,9.6-3.4,18.2-.3,7.4-3.3,5,3.7,3.4-3.4,11.1h13.3c0,.1,8.6-4.2,8.6-4.2l2.8-5.6,4.9.3,3.6-3.6,4.3.7,3.9-4.9,6.8,5.3,5.5-3,2.5-5.2,8.6-8.6,7.4-.9,3.3-3.7-.9-4.9,10.7,3,7.3-.4,4.3-3.9,9.5,5.8,4.4-7.6,4.7-3.6,3,6.2,3-.9,7.7,4.7-1.8,6.8,4.7-.4-1,10.7,5.3,1.3-2.2,5.8,7.4,2.7-4.3,5.9-9.8,4.4-17.1,15.1-4.3,5,3.3,7-5.9,11.9.3,11.1,4.2,4.6-.3,5.2-8.2,9.3-3.7,12.5-4.9,1-3.3,7.6-.4,6.4-4,10.8-5.8,8.5.9,5.5-3.3,8.3.6,5.5-4.3,14.5-4.9,5.2-2.2,9.6-5.2,8.2,2.1,6.2-3.1,20.2,1.6,12.9,13.5,8.9,6.4,1.8-8,20,2.4,6.7-8.6,8.6,2.7,9.2-2.4,7.9,2.2,4.2-1.3,11.7,4.3,5.6-1,5,6.1,10.4,3.7,1.9,5.2,7.7,6.5,3.3,1.8,3.6-8,1.3-7.4,3.9-4.4,9.3-5,1.2-6.8,4.6-1.6,8.3-9.2,3.3-10.4,8.6-4.6-15.7-3,.7-12.5-8.2,1.6-5.6-.3-9,2.4-5.2-3.7-5.6-4.9-2.7v-13.2l-6.5-11.4-.3-7.1,3.6-6.8-3.1-7.7-7.3-9.3-11.4-21.8,3.3-11.3"/>
        <path class="cls-10" d="M1582.5,316.7l1.2-4.6-7.4-3.4,3.1-5.2,8.9-5.5,1.2-4.3,4.4-3.4,4.6-11,5.8.3,3-5.5,9-.7,3.1-2.8,10.2,1.6,1.3,7.1-12.8,24.2-.9,5.2,1.6,10.8-3.4,6.7-5,5-1,5-10.5-1-2.4-12.6-11.3-3.9-2.8-2.2"/>
        <path class="cls-10" d="M1433.6,495.8l4.7-7.4,9.9-9.9,9.6-2.1,3.1-4.7,4.7-1.3,6.7-5.9,6.2-12.9-1.9-9,17.8-10.8,3-5.9,6.5,1.8,6.1-9.3,4-12.6,4.9-6.1,5.3-21.2,10.5-12.8,4.9-10.8,12.5-6.5,6.2-6.4,5-1.6,11.3-7.7,5.5-9,2.4-6.5,2.8,2.2,11.3,3.9,2.4,12.6,10.5,1-.6,10.8,1.3,9.6,4.7,7.1,11.9,10.5,5,3.3,5.5,9.6,1.9,10.1-6.1,28-16.9,19.4-16.8,11.4-.4,3.7,4,3.9,1.5,7.6-2.8,10.1,2.5,4.3,7.7,2.8,5.3,8.7-2.4,3.4-14.7,1.9-6.7-5.8-12.3,1.2-1.9,3.6-7.6-.3-3.3,2.4-11,.9-13.3-2.2-5.9,2.2v4.4l-18.7.7-11.1-5.3-.7-3.7-10.5-2.4-.6,2.4-7.7,3.7-5.8.3-5.6-5.6-23.4,4h-7.1l-2.5-3.4-7,.4-3.6-4.6"/>
        <path class="cls-10" d="M1338.4,160.1l8.7-4.6,4.2-6.1,7.3-3.7,11.6,8.2,11.6-.7,11-5.9,4.3-4.4v-8.3l12.2,1.3-2.8,4.6,3.6,7.7,4.3,3.1.3,4.6,4.7,10.8,4.3,1.6,6.5,14.5,2.7,12.5,9,4.6,12.8,17.1,6.1,22.7,4.4,4.6-3.9,7.9,1.2,2.2-4.7,6.5-9,4.6-17.9,29.1-17.8,13.6-11.4,14.1-5.2,17.2-5,4.7-1.8,6.8-9.5,16.8-4.3,3.7-2.2,7.6-4.3,4.9-8.7,1.8-7.9,7h-4l-2.2,8.3-5.8,5.9v9.2c.1,0-4.4,10.4-4.4,10.4l2.1,7.4-2.7,4.3-11.6,9.8-3.1-.3-5.3,8.2-4.4,4-7.3,19.4,1.6,5.3-2.1,11.3-5.5,3.7-8.6-.9-1.8-3.6-6.5-3.3-5.2-7.7-3.7-1.9-6.1-10.4,1-5-4.3-5.6,1.3-11.7-2.2-4.2,2.4-7.9-2.7-9.2,8.6-8.6-2.4-6.7,8-20-6.4-1.8-13.5-8.9-1.6-12.9,3.1-20.2-2.1-6.2,5.2-8.2,2.2-9.6,4.9-5.2,4.3-14.5-.6-5.5,3.3-8.3-.9-5.5,5.8-8.5,4-10.8.4-6.4,3.3-7.6,4.9-1,3.7-12.5,8.2-9.3.3-5.2-4.2-4.6-.3-11.1,5.9-11.9-3.3-7,4.3-5,17.1-15.1,9.8-4.4,4.3-5.9"/>
      </g>
      <g id="PathCollection_1">
        <g class="cls-14">
          <path id="m59596bc2e3" class="cls-11" d="M383.4,384.9c1.5,0,2.8-.6,3.7-1.6s1.6-2.4,1.6-3.7-.6-2.8-1.6-3.7-2.4-1.6-3.7-1.6-2.8.6-3.7,1.6-1.6,2.4-1.6,3.7.6,2.8,1.6,3.7,2.4,1.6,3.7,1.6Z"/>
        </g>
      </g>
      <g id="PathCollection_3">
        <g class="cls-2">
          <g>
            <path id="m63ba111148" class="cls-6" d="M321.4,357.3c1.5,0,2.8-.6,3.7-1.6s1.6-2.4,1.6-3.7-.6-2.8-1.6-3.7-2.4-1.6-3.7-1.6-2.8.6-3.7,1.6-1.6,2.4-1.6,3.7.6,2.8,1.6,3.7,2.4,1.6,3.7,1.6Z"/>
            <path id="m63ba111148-2" class="cls-6" d="M317,365.6c1.5,0,2.8-.6,3.7-1.6s1.6-2.4,1.6-3.7-.6-2.8-1.6-3.7-2.4-1.6-3.7-1.6-2.8.6-3.7,1.6-1.6,2.4-1.6,3.7.6,2.8,1.6,3.7,2.4,1.6,3.7,1.6Z"/>
            <path id="m63ba111148-3" class="cls-6" d="M350.8,301.9c1.5,0,2.8-.6,3.7-1.6s1.6-2.4,1.6-3.7-.6-2.8-1.6-3.7-2.4-1.6-3.7-1.6-2.8.6-3.7,1.6-1.6,2.4-1.6,3.7.6,2.8,1.6,3.7,2.4,1.6,3.7,1.6Z"/>
            <path id="m63ba111148-4" class="cls-6" d="M326.3,328.4c1.5,0,2.8-.6,3.7-1.6s1.6-2.4,1.6-3.7-.6-2.8-1.6-3.7-2.4-1.6-3.7-1.6-2.8.6-3.7,1.6-1.6,2.4-1.6,3.7.6,2.8,1.6,3.7,2.4,1.6,3.7,1.6Z"/>
            <path id="m63ba111148-5" class="cls-6" d="M315.8,336.3c1.5,0,2.8-.6,3.7-1.6s1.6-2.4,1.6-3.7-.6-2.8-1.6-3.7-2.4-1.6-3.7-1.6-2.8.6-3.7,1.6-1.6,2.4-1.6,3.7.6,2.8,1.6,3.7,2.4,1.6,3.7,1.6Z"/>
            <path id="m63ba111148-6" class="cls-6" d="M309.2,363.3c1.5,0,2.8-.6,3.7-1.6s1.6-2.4,1.6-3.7-.6-2.8-1.6-3.7-2.4-1.6-3.7-1.6-2.8.6-3.7,1.6-1.6,2.4-1.6,3.7.6,2.8,1.6,3.7,2.4,1.6,3.7,1.6Z"/>
            <path id="m63ba111148-7" class="cls-6" d="M302.3,340.4c1.5,0,2.8-.6,3.7-1.6s1.6-2.4,1.6-3.7-.6-2.8-1.6-3.7-2.4-1.6-3.7-1.6-2.8.6-3.7,1.6-1.6,2.4-1.6,3.7.6,2.8,1.6,3.7,2.4,1.6,3.7,1.6Z"/>
            <path id="m63ba111148-8" class="cls-6" d="M284.9,359.9c1.5,0,2.8-.6,3.7-1.6s1.6-2.4,1.6-3.7-.6-2.8-1.6-3.7-2.4-1.6-3.7-1.6-2.8.6-3.7,1.6-1.6,2.4-1.6,3.7.6,2.8,1.6,3.7,2.4,1.6,3.7,1.6Z"/>
            <path id="m63ba111148-9" class="cls-6" d="M512.1,887c1.5,0,2.8-.6,3.7-1.6s1.6-2.4,1.6-3.7-.6-2.8-1.6-3.7-2.4-1.6-3.7-1.6-2.8.6-3.7,1.6-1.6,2.4-1.6,3.7.6,2.8,1.6,3.7,2.4,1.6,3.7,1.6Z"/>
            <path id="m63ba111148-10" class="cls-6" d="M307.8,364.2c1.5,0,2.8-.6,3.7-1.6s1.6-2.4,1.6-3.7-.6-2.8-1.6-3.7-2.4-1.6-3.7-1.6-2.8.6-3.7,1.6-1.6,2.4-1.6,3.7.6,2.8,1.6,3.7,2.4,1.6,3.7,1.6Z"/>
            <path id="m63ba111148-11" class="cls-6" d="M329.1,352c1.5,0,2.8-.6,3.7-1.6s1.6-2.4,1.6-3.7-.6-2.8-1.6-3.7-2.4-1.6-3.7-1.6-2.8.6-3.7,1.6-1.6,2.4-1.6,3.7.6,2.8,1.6,3.7,2.4,1.6,3.7,1.6Z"/>
            <path id="m63ba111148-12" class="cls-6" d="M324.5,347.3c1.5,0,2.8-.6,3.7-1.6s1.6-2.4,1.6-3.7-.6-2.8-1.6-3.7-2.4-1.6-3.7-1.6-2.8.6-3.7,1.6-1.6,2.4-1.6,3.7.6,2.8,1.6,3.7,2.4,1.6,3.7,1.6Z"/>
            <path id="m63ba111148-13" class="cls-6" d="M281.4,335.7c1.5,0,2.8-.6,3.7-1.6s1.6-2.4,1.6-3.7-.6-2.8-1.6-3.7-2.4-1.6-3.7-1.6-2.8.6-3.7,1.6-1.6,2.4-1.6,3.7.6,2.8,1.6,3.7,2.4,1.6,3.7,1.6Z"/>
            <path id="m63ba111148-14" class="cls-6" d="M326.9,345.2c1.5,0,2.8-.6,3.7-1.6s1.6-2.4,1.6-3.7-.6-2.8-1.6-3.7-2.4-1.6-3.7-1.6-2.8.6-3.7,1.6-1.6,2.4-1.6,3.7.6,2.8,1.6,3.7,2.4,1.6,3.7,1.6Z"/>
            <path id="m63ba111148-15" class="cls-6" d="M325,357.2c1.5,0,2.8-.6,3.7-1.6s1.6-2.4,1.6-3.7-.6-2.8-1.6-3.7-2.4-1.6-3.7-1.6-2.8.6-3.7,1.6-1.6,2.4-1.6,3.7.6,2.8,1.6,3.7,2.4,1.6,3.7,1.6Z"/>
            <path id="m63ba111148-16" class="cls-6" d="M338.2,337c1.5,0,2.8-.6,3.7-1.6s1.6-2.4,1.6-3.7-.6-2.8-1.6-3.7-2.4-1.6-3.7-1.6-2.8.6-3.7,1.6-1.6,2.4-1.6,3.7.6,2.8,1.6,3.7,2.4,1.6,3.7,1.6Z"/>
            <path id="m63ba111148-17" class="cls-6" d="M379.8,219.6c1.5,0,2.8-.6,3.7-1.6s1.6-2.4,1.6-3.7-.6-2.8-1.6-3.7-2.4-1.6-3.7-1.6-2.8.6-3.7,1.6-1.6,2.4-1.6,3.7.6,2.8,1.6,3.7,2.4,1.6,3.7,1.6Z"/>
            <path id="m63ba111148-18" class="cls-6" d="M331.8,352.1c1.5,0,2.8-.6,3.7-1.6s1.6-2.4,1.6-3.7-.6-2.8-1.6-3.7-2.4-1.6-3.7-1.6-2.8.6-3.7,1.6-1.6,2.4-1.6,3.7.6,2.8,1.6,3.7,2.4,1.6,3.7,1.6Z"/>
            <path id="m63ba111148-19" class="cls-6" d="M300.2,389.1c1.5,0,2.8-.6,3.7-1.6s1.6-2.4,1.6-3.7-.6-2.8-1.6-3.7-2.4-1.6-3.7-1.6-2.8.6-3.7,1.6-1.6,2.4-1.6,3.7.6,2.8,1.6,3.7,2.4,1.6,3.7,1.6Z"/>
            <path id="m63ba111148-20" class="cls-6" d="M322.6,355.7c1.5,0,2.8-.6,3.7-1.6s1.6-2.4,1.6-3.7-.6-2.8-1.6-3.7-2.4-1.6-3.7-1.6-2.8.6-3.7,1.6-1.6,2.4-1.6,3.7.6,2.8,1.6,3.7,2.4,1.6,3.7,1.6Z"/>
            <path id="m63ba111148-21" class="cls-6" d="M314,348c1.5,0,2.8-.6,3.7-1.6s1.6-2.4,1.6-3.7-.6-2.8-1.6-3.7-2.4-1.6-3.7-1.6-2.8.6-3.7,1.6-1.6,2.4-1.6,3.7.6,2.8,1.6,3.7,2.4,1.6,3.7,1.6Z"/>
            <path id="m63ba111148-22" class="cls-6" d="M280.3,370.4c1.5,0,2.8-.6,3.7-1.6s1.6-2.4,1.6-3.7-.6-2.8-1.6-3.7-2.4-1.6-3.7-1.6-2.8.6-3.7,1.6-1.6,2.4-1.6,3.7.6,2.8,1.6,3.7,2.4,1.6,3.7,1.6Z"/>
            <path id="m63ba111148-23" class="cls-6" d="M323.5,335.2c1.5,0,2.8-.6,3.7-1.6s1.6-2.4,1.6-3.7-.6-2.8-1.6-3.7-2.4-1.6-3.7-1.6-2.8.6-3.7,1.6-1.6,2.4-1.6,3.7.6,2.8,1.6,3.7,2.4,1.6,3.7,1.6Z"/>
            <path id="m63ba111148-24" class="cls-6" d="M349.3,340.6c1.5,0,2.8-.6,3.7-1.6s1.6-2.4,1.6-3.7-.6-2.8-1.6-3.7-2.4-1.6-3.7-1.6-2.8.6-3.7,1.6-1.6,2.4-1.6,3.7.6,2.8,1.6,3.7,2.4,1.6,3.7,1.6Z"/>
            <path id="m63ba111148-25" class="cls-6" d="M326.9,345.2c1.5,0,2.8-.6,3.7-1.6s1.6-2.4,1.6-3.7-.6-2.8-1.6-3.7-2.4-1.6-3.7-1.6-2.8.6-3.7,1.6-1.6,2.4-1.6,3.7.6,2.8,1.6,3.7,2.4,1.6,3.7,1.6Z"/>
            <path id="m63ba111148-26" class="cls-6" d="M314.9,349c1.5,0,2.8-.6,3.7-1.6s1.6-2.4,1.6-3.7-.6-2.8-1.6-3.7-2.4-1.6-3.7-1.6-2.8.6-3.7,1.6-1.6,2.4-1.6,3.7.6,2.8,1.6,3.7,2.4,1.6,3.7,1.6Z"/>
            <path id="m63ba111148-27" class="cls-6" d="M323.6,340.7c1.5,0,2.8-.6,3.7-1.6s1.6-2.4,1.6-3.7-.6-2.8-1.6-3.7-2.4-1.6-3.7-1.6-2.8.6-3.7,1.6-1.6,2.4-1.6,3.7.6,2.8,1.6,3.7,2.4,1.6,3.7,1.6Z"/>
            <path id="m63ba111148-28" class="cls-6" d="M329.7,348.6c1.5,0,2.8-.6,3.7-1.6s1.6-2.4,1.6-3.7-.6-2.8-1.6-3.7-2.4-1.6-3.7-1.6-2.8.6-3.7,1.6-1.6,2.4-1.6,3.7.6,2.8,1.6,3.7,2.4,1.6,3.7,1.6Z"/>
            <path id="m63ba111148-29" class="cls-6" d="M343.8,330.4c1.5,0,2.8-.6,3.7-1.6s1.6-2.4,1.6-3.7-.6-2.8-1.6-3.7-2.4-1.6-3.7-1.6-2.8.6-3.7,1.6-1.6,2.4-1.6,3.7.6,2.8,1.6,3.7c1,1,2.4,1.6,3.7,1.6Z"/>
            <path id="m63ba111148-30" class="cls-6" d="M313.7,328.3c1.5,0,2.8-.6,3.7-1.6s1.6-2.4,1.6-3.7-.6-2.8-1.6-3.7-2.4-1.6-3.7-1.6-2.8.6-3.7,1.6-1.6,2.4-1.6,3.7.6,2.8,1.6,3.7,2.4,1.6,3.7,1.6Z"/>
            <path id="m63ba111148-31" class="cls-6" d="M372.6,310.6c1.5,0,2.8-.6,3.7-1.6s1.6-2.4,1.6-3.7-.6-2.8-1.6-3.7-2.4-1.6-3.7-1.6-2.8.6-3.7,1.6-1.6,2.4-1.6,3.7.6,2.8,1.6,3.7,2.4,1.6,3.7,1.6Z"/>
            <path id="m63ba111148-32" class="cls-6" d="M311.8,345.6c1.5,0,2.8-.6,3.7-1.6s1.6-2.4,1.6-3.7-.6-2.8-1.6-3.7-2.4-1.6-3.7-1.6-2.8.6-3.7,1.6-1.6,2.4-1.6,3.7.6,2.8,1.6,3.7,2.4,1.6,3.7,1.6Z"/>
            <path id="m63ba111148-33" class="cls-6" d="M309.7,353.6c1.5,0,2.8-.6,3.7-1.6s1.6-2.4,1.6-3.7-.6-2.8-1.6-3.7-2.4-1.6-3.7-1.6-2.8.6-3.7,1.6-1.6,2.4-1.6,3.7.6,2.8,1.6,3.7,2.4,1.6,3.7,1.6Z"/>
            <path id="m63ba111148-34" class="cls-6" d="M339.2,340.9c1.5,0,2.8-.6,3.7-1.6s1.6-2.4,1.6-3.7-.6-2.8-1.6-3.7-2.4-1.6-3.7-1.6-2.8.6-3.7,1.6-1.6,2.4-1.6,3.7.6,2.8,1.6,3.7,2.4,1.6,3.7,1.6Z"/>
          </g>
        </g>
      </g>
      <g id="PathCollection_4">
        <g class="cls-5">
          <path id="mf28260d367" class="cls-7" d="M297.1,397.8c1.5,0,2.8-.6,3.7-1.6s1.6-2.4,1.6-3.7-.6-2.8-1.6-3.7-2.4-1.6-3.7-1.6-2.8.6-3.7,1.6-1.6,2.4-1.6,3.7.6,2.8,1.6,3.7,2.4,1.6,3.7,1.6Z"/>
        </g>
      </g>
      <g id="text_1">
        <g>
          <path id="DejaVuSans-4b" d="M364,329h1.2v3.7l4-3.7h1.5l-4.3,4.2,4.7,4.7h-1.6l-4.3-4.3v4.3h-1.2v-8.7h0Z"/>
          <path id="DejaVuSans-75" d="M371.1,335.1v-4h1v4c0,.6,0,1,.3,1.3.3.3.6.4,1,.4s1-.1,1.3-.6c.3-.4.4-.9.4-1.5v-3.7h1v6.7h-1v-1c-.3.4-.6.7-.9.9s-.7.3-1.2.3c-.7,0-1.3-.3-1.8-.7-.4-.4-.6-1.2-.6-2.1h.3ZM373.9,330.9h0Z"/>
          <path id="DejaVuSans-73" d="M383.1,331.4v1c-.3-.1-.6-.3-.9-.3h-1c-.6,0-.9,0-1.2.3-.3.1-.4.4-.4.7s0,.4.3.6.6.3,1.2.4h.4c.7.3,1.3.4,1.6.7s.4.7.4,1.2-.3,1-.7,1.5c-.4.3-1.2.6-1.9.6h-1c-.4,0-.7-.1-1.2-.3v-1.2c.4.1.7.3,1.2.4.4,0,.7.1,1.2.1s.9,0,1.2-.3c.3-.1.4-.4.4-.7s0-.6-.3-.7c-.1-.1-.6-.3-1.3-.4h-.4c-.7-.3-1.2-.4-1.5-.7s-.4-.7-.4-1.2.1-1,.6-1.5c.4-.3,1-.4,1.9-.4h1.2c.3,0,.7,0,1,.3h-.3Z"/>
          <path id="DejaVuSans-68" d="M390.7,333.8v4h-1v-4c0-.6,0-1-.3-1.3-.3-.3-.6-.4-1-.4s-1,.1-1.3.6c-.3.4-.4.9-.4,1.5v3.7h-1v-9.2h1v3.6c.3-.4.6-.7.9-.9s.7-.3,1.2-.3c.7,0,1.3.3,1.8.7.4.4.6,1.2.6,2.1h-.3Z"/>
          <path id="DejaVuSans-69" d="M392.9,331.1h1v6.7h-1v-6.7ZM392.9,328.6h1v1.3h-1v-1.3Z"/>
          <path id="DejaVuSans-64" d="M400.4,332.1v-3.6h1v9.2h-1v-1c-.3.4-.4.7-.9.9-.3.1-.7.3-1.2.3-.7,0-1.5-.3-1.9-.9s-.7-1.5-.7-2.5.3-1.9.7-2.5c.4-.6,1.2-.9,1.9-.9s.9,0,1.2.3c.3.1.6.4.9.9h0ZM396.9,334.5c0,.7.1,1.5.4,1.9.3.4.7.7,1.3.7s1-.3,1.3-.7c.3-.4.4-1,.4-1.9s-.1-1.5-.4-1.9c-.3-.4-.7-.7-1.3-.7s-1,.3-1.3.7-.4,1-.4,1.9Z"/>
          <path id="DejaVuSans-61" d="M406.8,334.5c-.9,0-1.5,0-1.8.3s-.4.6-.4,1,0,.7.4.9c.3.3.6.3,1,.3s1-.1,1.5-.6.6-1,.6-1.6v-.3h-1.3ZM409,334.1v3.7h-1v-1c-.3.4-.6.7-.9.9s-.9.3-1.3.3-1.2-.1-1.6-.6c-.4-.4-.6-.9-.6-1.5s.3-1.3.7-1.6c.4-.4,1.2-.6,2.2-.6h1.5c0-.6-.1-1-.4-1.3s-.7-.4-1.3-.4h-1c-.3,0-.7.3-1,.4v-1c.4-.1.7-.3,1.2-.3h1c.9,0,1.6.3,2.1.7s.7,1.2.7,2.2h-.1Z"/>
          <path id="DejaVuSans-20" d="M410.1,337.8"/>
          <path id="DejaVuSans-53" d="M420.5,329.3v1.2c-.4-.1-.9-.4-1.3-.4s-.7-.1-1.2-.1-1.2,0-1.5.4c-.3.3-.6.6-.6,1s0,.7.3.9c.3.1.7.3,1.3.4h.7c.9.3,1.5.6,1.9,1s.6,1,.6,1.8-.3,1.5-.9,1.9c-.6.4-1.3.6-2.5.6h-1.3c-.4,0-.9-.3-1.5-.4v-1.2c.4.3.9.4,1.5.6.4,0,.9.1,1.3.1.7,0,1.2,0,1.6-.4s.6-.6.6-1.2,0-.7-.4-1-.7-.4-1.3-.6h-.7c-.9-.3-1.5-.6-1.9-1-.4-.4-.6-.9-.6-1.6s.3-1.3.9-1.8c.6-.4,1.3-.7,2.2-.7h1.3c.4,0,.9.1,1.3.3v.3Z"/>
          <path id="DejaVuSans-68-2" d="M428.2,333.8v4h-1v-4c0-.6,0-1-.3-1.3-.3-.3-.6-.4-1-.4s-1,.1-1.3.6-.4.9-.4,1.5v3.7h-1v-9.2h1v3.6c.3-.4.6-.7.9-.9.3-.1.7-.3,1.2-.3.7,0,1.3.3,1.8.7s.6,1.2.6,2.1h-.3Z"/>
          <path id="DejaVuSans-72" d="M434.3,332.1s-.3,0-.4-.1h-.4c-.6,0-1,.1-1.5.6s-.4,1-.4,1.8v3.4h-1v-6.7h1v1c.3-.4.6-.7.9-.9.3-.1.7-.3,1.3-.3s.1,0,.3,0h.3v1.2h0Z"/>
          <path id="DejaVuSans-69-2" d="M435.3,331.1h1v6.7h-1v-6.7ZM435.3,328.6h1v1.3h-1v-1.3Z"/>
          <path id="DejaVuSans-6e" d="M444.2,333.8v4h-1v-4c0-.6,0-1-.3-1.3-.3-.3-.6-.4-1-.4s-1,.1-1.3.6-.4.9-.4,1.5v3.7h-1v-6.7h1v1c.3-.4.6-.7.9-.9.3-.1.7-.3,1.2-.3.7,0,1.3.3,1.8.7s.6,1.2.6,2.1h-.3Z"/>
          <path id="DejaVuSans-65" d="M452.1,334.2v.6h-5c0,.7.3,1.3.7,1.8.4.4.9.6,1.6.6s.9,0,1.2-.1.7-.3,1.2-.4v1c-.4.1-.7.3-1.2.4s-.9,0-1.2,0c-1,0-1.9-.3-2.5-.9s-.9-1.5-.9-2.5.3-1.9.9-2.5c.6-.6,1.3-.9,2.4-.9s1.6.3,2.1.9c.4.6.7,1.3.7,2.4v-.3ZM450.9,333.9c0-.6-.1-1-.4-1.5-.3-.3-.7-.6-1.3-.6s-1,.1-1.5.4-.6.9-.6,1.5h3.9Z"/>
        </g>
      </g>
      <g id="text_2">
        <g>
          <path id="DejaVuSans-4f" d="M217,329.5c-.9,0-1.5.3-2.1,1-.4.6-.7,1.5-.7,2.7s.3,1.9.7,2.7c.4.6,1.2,1,2.1,1s1.5-.3,2.1-1c.4-.6.7-1.5.7-2.7s-.3-1.9-.7-2.7c-.4-.6-1.2-1-2.1-1ZM217,328.4c1.2,0,2.2.4,3,1.2.7.9,1,1.9,1,3.3s-.3,2.5-1,3.3c-.7.9-1.8,1.2-3,1.2s-2.2-.4-3-1.2c-.7-.9-1-1.9-1-3.3s.3-2.5,1-3.3c.7-.9,1.8-1.2,3-1.2Z"/>
          <path id="DejaVuSans-68-3" d="M228.3,333.5v4h-1v-4c0-.6,0-1-.3-1.3-.3-.3-.6-.4-1-.4s-1,.1-1.3.6c-.3.4-.4.9-.4,1.5v3.7h-1v-9.2h1v3.6c.3-.4.6-.7.9-.9s.7-.3,1.2-.3c.7,0,1.3.3,1.8.7.4.4.6,1.2.6,2.1h-.3Z"/>
          <path id="DejaVuSans-6f" d="M233,331.5c-.6,0-1,.3-1.3.7s-.4,1-.4,1.9.1,1.5.4,1.9c.3.4.7.7,1.3.7s1-.3,1.3-.7c.3-.4.4-1,.4-1.9s-.1-1.3-.4-1.9c-.3-.4-.7-.7-1.3-.7ZM233,330.6c.9,0,1.6.3,2.2.9s.7,1.5.7,2.5-.3,1.9-.7,2.5c-.6.6-1.3.9-2.2.9s-1.6-.3-2.2-.9-.7-1.5-.7-2.5.3-1.9.7-2.5c.6-.6,1.3-.9,2.2-.9Z"/>
          <path id="DejaVuSans-72-2" d="M241.8,331.8s-.3,0-.4-.1h-.4c-.6,0-1,.1-1.5.6s-.4,1-.4,1.8v3.4h-1v-6.7h1v1c.3-.4.6-.7.9-.9s.7-.3,1.3-.3.1,0,.3,0h.3v1.2h0Z"/>
          <path id="DejaVuSans-69-3" d="M242.8,330.8h1v6.7h-1v-6.7ZM242.8,328.3h1v1.3h-1v-1.3Z"/>
          <path id="DejaVuSans-20-2" d="M245,337.5"/>
          <path id="DejaVuSans-50" d="M251.3,329.6v3.3h1.5c.6,0,1,0,1.3-.4.3-.3.4-.7.4-1.2s-.1-.9-.4-1.2-.7-.4-1.3-.4h-1.5ZM250.1,328.6h2.7c1,0,1.8.3,2.2.7s.7,1,.7,1.9-.3,1.5-.7,1.9-1.2.6-2.2.6h-1.5v3.6h-1.2v-8.7h0Z"/>
          <path id="DejaVuSans-61-2" d="M259.7,334.1c-.9,0-1.5,0-1.8.3s-.4.6-.4,1,0,.7.4.9c.3.3.6.3,1,.3s1-.1,1.5-.6.6-1,.6-1.6v-.3h-1.3ZM261.9,333.6v3.7h-1v-1c-.3.4-.6.7-.9.9s-.9.3-1.3.3-1.2-.1-1.6-.6c-.4-.4-.6-.9-.6-1.5s.3-1.3.7-1.6c.4-.4,1.2-.6,2.2-.6h1.5c0-.6-.1-1-.4-1.3s-.7-.4-1.3-.4h-1c-.3,0-.7.3-1,.4v-1c.4-.1.7-.3,1.2-.3h1c.9,0,1.6.3,2.1.7s.7,1.2.7,2.2h-.1Z"/>
          <path id="DejaVuSans-72-3" d="M268,331.8s-.3,0-.4-.1h-.4c-.6,0-1,.1-1.5.6s-.4,1-.4,1.8v3.4h-1v-6.7h1v1c.3-.4.6-.7.9-.9s.7-.3,1.3-.3.1,0,.3,0h.3v1.2h0Z"/>
          <path id="DejaVuSans-6b" d="M269.1,328.3h1v5.5l3.3-2.8h1.3l-3.6,3.1,3.7,3.6h-1.5l-3.4-3.3v3.3h-1v-9.2h.1Z"/>
        </g>
      </g>
      <g id="text_3">
        <g>
          <path id="DejaVuSans-46" class="cls-12" d="M-372.9-78.6h6.3v1.3h-4.8v3.2h4.3v1.3h-4.3v5.3h-1.5v-11h0Z"/>
          <path id="DejaVuSans-75-2" class="cls-12" d="M-365.3-70.9v-4.9h1.4v4.9c0,.8.1,1.4.4,1.7.3.4.8.5,1.4.5s1.3-.2,1.7-.6c.4-.4.6-1.1.6-1.9v-4.6h1.4v8.3h-1.4v-1.3c-.3.5-.8.9-1.2,1.1-.4.2-1,.3-1.5.3-1,0-1.6-.3-2.1-.9s-.8-1.4-.8-2.6h0ZM-361.9-76.2h0Z"/>
          <path id="DejaVuSans-6b-2" class="cls-12" d="M-355.6-79.2h1.4v6.8l4.1-3.5h1.7l-4.4,3.9,4.5,4.4h-1.7l-4.2-4v4h-1.4v-11.4h0Z"/>
          <path id="DejaVuSans-75-3" class="cls-12" d="M-347.5-70.9v-4.9h1.4v4.9c0,.8.1,1.4.4,1.7.3.4.8.5,1.4.5s1.3-.2,1.7-.6c.4-.4.6-1.1.6-1.9v-4.6h1.4v8.3h-1.4v-1.3c-.3.5-.8.9-1.2,1.1-.4.2-1,.3-1.5.3-1,0-1.6-.3-2.1-.9s-.8-1.4-.8-2.6h0ZM-344-76.2h0Z"/>
          <path id="DejaVuSans-6f-2" class="cls-12" d="M-334.6-75c-.8,0-1.3.3-1.7.9s-.6,1.3-.6,2.4.2,1.7.6,2.4c.4.5,1,.9,1.7.9s1.3-.3,1.7-.9c.4-.5.6-1.3.6-2.4s-.2-1.7-.6-2.4c-.4-.5-1-.9-1.7-.9ZM-334.6-76.2c1.2,0,2.1.4,2.8,1.2.6.8,1,1.8,1,3.2s-.3,2.4-1,3.2c-.6.8-1.6,1.2-2.8,1.2s-2.1-.4-2.8-1.2c-.6-.8-1-1.8-1-3.2s.3-2.4,1-3.2c.6-.8,1.6-1.2,2.8-1.2Z"/>
          <path id="DejaVuSans-6b-3" class="cls-12" d="M-328.7-79.2h1.4v6.8l4.1-3.5h1.7l-4.4,3.9,4.5,4.4h-1.7l-4.2-4v4h-1.4v-11.4h0Z"/>
          <path id="DejaVuSans-61-3" class="cls-12" d="M-316.4-71.9c-1.1,0-1.8.1-2.3.3s-.6.6-.6,1.3.1.9.4,1.2c.3.3.8.4,1.3.4s1.4-.2,1.8-.8.6-1.3.6-2.1v-.3h-1.4.1ZM-313.7-72.4v4.7h-1.4v-1.3c-.3.5-.6.9-1.2,1.1-.4.2-1.1.3-1.7.3s-1.5-.2-2-.8c-.5-.4-.8-1.1-.8-1.9s.3-1.6,1-2c.6-.4,1.5-.8,2.8-.8h1.9c0-.8-.2-1.3-.6-1.6s-1-.5-1.7-.5-1,0-1.4.2c-.4.1-.9.3-1.3.5v-1.3c.5-.2,1-.3,1.4-.4.4,0,1-.1,1.4-.1,1.2,0,2,.3,2.7,1,.5.6.9,1.5.9,2.8h.1Z"/>
          <path id="DejaVuSans-20-3" class="cls-12" d="M-312.3-67.7"/>
          <path id="DejaVuSans-2013" class="cls-12" d="M-306.9-72.4h6v1.1h-6v-1.1Z"/>
          <path id="DejaVuSans-20-4" class="cls-12" d="M-300.1-67.7"/>
          <path id="DejaVuSans-49" class="cls-12" d="M-293.9-78.6h1.5v11h-1.5v-11Z"/>
          <path id="DejaVuSans-6e-2" class="cls-12" d="M-282.6-72.6v4.9h-1.4v-4.9c0-.8-.1-1.4-.4-1.7-.3-.4-.8-.5-1.4-.5s-1.3.2-1.7.6c-.4.4-.6,1.1-.6,1.9v4.6h-1.4v-8.3h1.4v1.3c.3-.5.8-.9,1.2-1.1.4-.2,1-.3,1.5-.3,1,0,1.6.3,2.1.9s.8,1.4.8,2.6h0Z"/>
          <path id="DejaVuSans-73-2" class="cls-12" d="M-274.6-75.7v1.3c-.4-.2-.8-.3-1.2-.4-.4,0-.9-.1-1.3-.1-.6,0-1.2,0-1.5.3-.3.2-.5.5-.5,1s.1.5.3.8.8.3,1.4.5h.4c1,.3,1.6.6,2,1s.6.9.6,1.6-.3,1.4-.9,1.8c-.6.4-1.4.6-2.5.6s-.9,0-1.4-.1c-.4,0-1-.2-1.5-.4v-1.4c.5.2,1,.4,1.5.5s1,.2,1.4.2,1.1-.1,1.5-.3c.3-.2.5-.5.5-1s-.1-.6-.3-.9-.8-.4-1.6-.5h-.4c-.9-.3-1.4-.5-1.8-1-.3-.3-.5-.9-.5-1.5s.3-1.4.9-1.8,1.3-.6,2.4-.6,1,0,1.4.1c.4,0,.9.2,1.2.3h-.1Z"/>
          <path id="DejaVuSans-74" class="cls-12" d="M-270.8-78.3v2.4h2.8v1.1h-2.8v4.5c0,.6,0,1.1.3,1.3s.5.3,1.1.3h1.4v1.2h-1.4c-1.1,0-1.7-.2-2.1-.5-.4-.4-.6-1.1-.6-2.1v-4.5h-1v-1.1h1v-2.4h1.4Z"/>
          <path id="DejaVuSans-61-4" class="cls-12" d="M-262.4-71.9c-1.1,0-1.8.1-2.3.3s-.6.6-.6,1.3.1.9.4,1.2.8.4,1.3.4,1.4-.2,1.8-.8.6-1.3.6-2.1v-.3h-1.4.1ZM-259.7-72.4v4.7h-1.4v-1.3c-.3.5-.6.9-1.2,1.1-.4.2-1.1.3-1.7.3s-1.5-.2-2-.8c-.5-.4-.8-1.1-.8-1.9s.3-1.6,1-2,1.5-.8,2.8-.8h1.9c0-.8-.2-1.3-.6-1.6s-1-.5-1.7-.5-1,0-1.4.2c-.4.1-.9.3-1.3.5v-1.3c.5-.2,1-.3,1.4-.4.4,0,1-.1,1.4-.1,1.2,0,2,.3,2.7,1,.5.6.9,1.5.9,2.8h.1Z"/>
          <path id="DejaVuSans-67" class="cls-12" d="M-251.5-71.9c0-1-.2-1.7-.6-2.3s-1-.9-1.7-.9-1.3.3-1.7.9-.6,1.3-.6,2.3.2,1.7.6,2.3,1,.9,1.7.9,1.3-.3,1.7-.9.6-1.3.6-2.3ZM-250.1-68.8c0,1.4-.3,2.5-1,3.1-.6.6-1.6,1.1-2.9,1.1h-1.4c-.4,0-.9-.2-1.2-.3v-1.3c.4.2.8.3,1.2.4.4,0,.8.1,1.2.1.9,0,1.5-.2,2-.6.4-.4.6-1.2.6-2.1v-.6c-.3.5-.6.9-1.1,1.1s-1,.3-1.6.3c-1,0-1.8-.4-2.5-1.2-.6-.8-1-1.8-1-3s.3-2.3,1-3,1.4-1.2,2.5-1.2,1.2.1,1.6.3.8.6,1.1,1.1v-1.3h1.4s0,7.2,0,7.2Z"/>
          <path id="DejaVuSans-72-4" class="cls-12" d="M-242.6-74.7c-.1,0-.3-.1-.5-.2h-.5c-.8,0-1.4.2-1.7.8s-.6,1.2-.6,2.1v4.3h-1.4v-8.3h1.4v1.3c.3-.5.6-.9,1.1-1.1s1-.3,1.6-.3.2,0,.3,0h.3v1.4h.1Z"/>
          <path id="DejaVuSans-61-5" class="cls-12" d="M-237.5-71.9c-1.1,0-1.8.1-2.3.3s-.6.6-.6,1.3.1.9.4,1.2.8.4,1.3.4,1.4-.2,1.8-.8.6-1.3.6-2.1v-.3h-1.4.1ZM-234.8-72.4v4.7h-1.4v-1.3c-.3.5-.6.9-1.2,1.1-.4.2-1.1.3-1.7.3s-1.5-.2-2-.8c-.5-.4-.8-1.1-.8-1.9s.3-1.6,1-2,1.5-.8,2.8-.8h1.9c0-.8-.2-1.3-.6-1.6s-1-.5-1.7-.5-1,0-1.4.2c-.4.1-.9.3-1.3.5v-1.3c.5-.2,1-.3,1.4-.4.4,0,1-.1,1.4-.1,1.2,0,2,.3,2.7,1,.5.6.9,1.5.9,2.8h.1Z"/>
          <path id="DejaVuSans-6d" class="cls-12" d="M-225.7-74.3c.3-.6.8-1.1,1.2-1.4s1.1-.4,1.6-.4,1.5.3,1.9.9c.4.6.6,1.5.6,2.6v4.9h-1.4v-4.9c0-.8-.1-1.4-.4-1.7-.3-.4-.8-.5-1.3-.5s-1.3.2-1.6.6c-.4.4-.6,1.1-.6,1.9v4.6h-1.4v-4.9c0-.8-.1-1.4-.4-1.7s-.8-.5-1.3-.5-1.3.2-1.6.8c-.4.4-.6,1.1-.6,1.9v4.6h-1.4v-8.3h1.4v1.3c.3-.5.6-.9,1.1-1.1s1-.3,1.5-.3,1.1.1,1.5.4c.4.3.8.8,1,1.3h.3Z"/>
          <path id="DejaVuSans-20-5" class="cls-12" d="M-218.8-67.7"/>
          <path id="DejaVuSans-43" class="cls-12" d="M-204.3-77.8v1.6c-.5-.4-1.1-.9-1.6-1.1s-1.2-.3-1.8-.3c-1.3,0-2.3.4-2.9,1.2s-1,1.8-1,3.3.3,2.6,1,3.3,1.6,1.2,2.9,1.2,1.3-.1,1.8-.3,1.1-.5,1.6-1.1v1.5c-.5.3-1.1.6-1.6.8-.5.2-1.2.2-1.8.2-1.6,0-3-.5-4-1.5-1-1-1.4-2.4-1.4-4.2s.4-3.1,1.4-4.2c1-1,2.3-1.5,4-1.5s1.3,0,1.8.2,1.1.4,1.6.8h0Z"/>
          <path id="DejaVuSans-61-6" class="cls-12" d="M-198.4-71.9c-1.1,0-1.8.1-2.3.3s-.6.6-.6,1.3.1.9.4,1.2.8.4,1.3.4,1.4-.2,1.8-.8.6-1.3.6-2.1v-.3h-1.4.1ZM-195.7-72.4v4.7h-1.4v-1.3c-.3.5-.6.9-1.2,1.1-.4.2-1.1.3-1.7.3s-1.5-.2-2-.8c-.5-.4-.8-1.1-.8-1.9s.3-1.6,1-2,1.5-.8,2.8-.8h1.9c0-.8-.2-1.3-.6-1.6s-1-.5-1.7-.5-1,0-1.4.2c-.4.1-.9.3-1.3.5v-1.3c.5-.2,1-.3,1.4-.4.4,0,1-.1,1.4-.1,1.2,0,2,.3,2.7,1,.5.6.9,1.5.9,2.8h.1Z"/>
          <path id="DejaVuSans-66" class="cls-12" d="M-188.7-79.2v1.1h-1.3c-.5,0-.9,0-1,.3-.2.2-.3.5-.3,1.1v.8h2.3v1.1h-2.3v7.2h-1.4v-7.2h-1.3v-1.1h1.3v-.5c0-1,.2-1.6.6-2s1.1-.6,2-.6h1.3,0Z"/>
          <path id="DejaVuSans-e9" class="cls-12" d="M-180.5-72.2v.6h-6.2c0,1,.3,1.6.9,2.1s1.2.8,2.1.8,1.1,0,1.5-.2,1-.3,1.5-.5v1.3c-.5.2-1,.3-1.5.4s-1.1.2-1.5.2c-1.3,0-2.4-.4-3.1-1.2-.8-.8-1.2-1.8-1.2-3.1s.3-2.4,1.1-3.2c.8-.8,1.7-1.2,2.9-1.2s1.9.3,2.6,1.1,1,1.7,1,2.9ZM-181.9-72.5c0-.8-.2-1.3-.6-1.7-.4-.4-1-.6-1.6-.6s-1.4.2-1.8.6-.8,1.1-.8,1.8h4.8ZM-183.2-79.7h1.5l-2.4,2.8h-1.1l2-2.8h-.1Z"/>
          <path id="DejaVuSans-73-3" class="cls-12" d="M-173.1-75.7v1.3c-.4-.2-.8-.3-1.2-.4-.4,0-.9-.1-1.3-.1-.6,0-1.2,0-1.5.3-.3.2-.5.5-.5,1s.1.5.3.8.8.3,1.4.5h.4c1,.3,1.6.6,2,1s.6.9.6,1.6-.3,1.4-.9,1.8c-.6.4-1.4.6-2.5.6s-.9,0-1.4-.1c-.4,0-1-.2-1.5-.4v-1.4c.5.2,1,.4,1.5.5s1,.2,1.4.2,1.1-.1,1.5-.3c.3-.2.5-.5.5-1s-.1-.6-.3-.9c-.2-.2-.8-.4-1.6-.5h-.4c-.9-.3-1.4-.5-1.8-1-.3-.3-.5-.9-.5-1.5s.3-1.4.9-1.8,1.3-.6,2.4-.6,1,0,1.4.1c.4,0,.9.2,1.2.3h-.1Z"/>
          <path id="DejaVuSans-20-6" class="cls-12" d="M-171.9-67.7"/>
          <path id="DejaVuSans-62" class="cls-12" d="M-159.8-71.8c0-1-.2-1.8-.6-2.4s-1-.9-1.7-.9-1.3.3-1.7.9-.6,1.4-.6,2.4.2,1.8.6,2.4,1,.9,1.7.9,1.3-.3,1.7-.9.6-1.4.6-2.4ZM-164.4-74.7c.3-.5.6-.9,1.1-1.1s1-.3,1.5-.3c1,0,1.8.4,2.5,1.2.6.8,1,1.8,1,3.1s-.3,2.4-1,3.1-1.4,1.2-2.5,1.2-1.1-.1-1.5-.3-.8-.6-1.1-1.1v1.2h-1.4v-11.4h1.4v4.4Z"/>
          <path id="DejaVuSans-79" class="cls-12" d="M-152.7-66.9c-.4,1-.8,1.6-1.1,1.9s-.9.4-1.5.4h-1.1v-1.2h.8c.3,0,.6,0,.9-.2.2-.2.4-.6.6-1.3l.2-.6-3.3-8.1h1.4l2.6,6.4,2.6-6.4h1.4l-3.7,9h.2Z"/>
          <path id="DejaVuSans-20-7" class="cls-12" d="M-148.6-67.7"/>
          <path id="DejaVuSans-54" class="cls-12" d="M-143.9-78.6h9.2v1.3h-3.9v9.7h-1.5v-9.7h-3.9v-1.3Z"/>
          <path id="DejaVuSans-68-4" class="cls-12" d="M-126.5-72.6v4.9h-1.4v-4.9c0-.8-.1-1.4-.4-1.7-.3-.4-.8-.5-1.4-.5s-1.3.2-1.7.6c-.4.4-.6,1.1-.6,1.9v4.6h-1.4v-11.4h1.4v4.5c.3-.5.8-.9,1.2-1.1s1-.3,1.5-.3c1,0,1.6.3,2.1.9s.8,1.4.8,2.6h0Z"/>
          <path id="DejaVuSans-65-2" class="cls-12" d="M-116.7-72.2v.6h-6.2c0,1,.3,1.6.9,2.1s1.2.8,2.1.8,1.1,0,1.5-.2,1-.3,1.5-.5v1.3c-.5.2-1,.3-1.5.4s-1.1.2-1.5.2c-1.3,0-2.4-.4-3.1-1.2-.8-.8-1.2-1.8-1.2-3.1s.3-2.4,1.1-3.2c.8-.8,1.7-1.2,2.9-1.2s1.9.3,2.6,1.1,1,1.7,1,2.9ZM-118.1-72.5c0-.8-.2-1.3-.6-1.7-.4-.4-1-.6-1.6-.6s-1.4.2-1.8.6-.8,1.1-.8,1.8h4.8Z"/>
          <path id="DejaVuSans-6d-2" class="cls-12" d="M-108.1-74.3c.3-.6.8-1.1,1.2-1.4s1.1-.4,1.6-.4,1.5.3,1.9.9c.4.6.6,1.5.6,2.6v4.9h-1.4v-4.9c0-.8-.1-1.4-.4-1.7-.3-.4-.8-.5-1.3-.5s-1.3.2-1.6.6c-.4.4-.6,1.1-.6,1.9v4.6h-1.4v-4.9c0-.8-.1-1.4-.4-1.7s-.8-.5-1.3-.5-1.3.2-1.6.8c-.4.4-.6,1.1-.6,1.9v4.6h-1.4v-8.3h1.4v1.3c.3-.5.6-.9,1.1-1.1s1-.3,1.5-.3,1.1.1,1.5.4c.4.3.8.8,1,1.3h.3Z"/>
          <path id="DejaVuSans-65-3" class="cls-12" d="M-92.8-72.2v.6h-6.2c0,1,.3,1.6.9,2.1s1.2.8,2.1.8,1.1,0,1.5-.2,1-.3,1.5-.5v1.3c-.5.2-1,.3-1.5.4s-1.1.2-1.5.2c-1.3,0-2.4-.4-3.1-1.2-.8-.8-1.2-1.8-1.2-3.1s.3-2.4,1.1-3.2c.8-.8,1.7-1.2,2.9-1.2s1.9.3,2.6,1.1,1,1.7,1,2.9ZM-94.2-72.5c0-.8-.2-1.3-.6-1.7-.4-.4-1-.6-1.6-.6s-1.4.2-1.8.6-.8,1.1-.8,1.8h4.8Z"/>
        </g>
      </g>
      <g id="PathCollection_5">
        <g class="cls-3">
          <g>
            <path id="m6c13284cdb" class="cls-9" d="M234.8,326.5c.9,0,1.8-.3,2.4-1,.6-.6,1-1.5,1-2.4s-.3-1.8-1-2.4c-.6-.6-1.5-1-2.4-1s-1.8.3-2.4,1c-.6.6-1,1.5-1,2.4s.3,1.8,1,2.4c.6.6,1.5,1,2.4,1Z"/>
            <path id="m6c13284cdb-2" class="cls-9" d="M351.5,336.3c.9,0,1.8-.3,2.4-1,.6-.6,1-1.5,1-2.4s-.3-1.8-1-2.4c-.6-.6-1.5-1-2.4-1s-1.8.3-2.4,1c-.6.6-1,1.5-1,2.4s.3,1.8,1,2.4c.6.6,1.5,1,2.4,1Z"/>
            <path id="m6c13284cdb-3" class="cls-9" d="M285.1,336c.9,0,1.8-.3,2.4-1,.6-.6,1-1.5,1-2.4s-.3-1.8-1-2.4c-.6-.6-1.5-1-2.4-1s-1.8.3-2.4,1c-.6.6-1,1.5-1,2.4s.3,1.8,1,2.4c.6.6,1.5,1,2.4,1Z"/>
          </g>
        </g>
      </g>
      <g id="legend_1">
        <g id="text_4">
          <g>
            <path id="DejaVuSans-50-2" class="cls-12" d="M-533.4,39.2v3.5h1.6c.6,0,1.1-.1,1.4-.4s.5-.8.5-1.3-.2-1-.5-1.3c-.3-.3-.8-.4-1.4-.4h-1.6ZM-534.7,38.1h2.9c1.1,0,1.8.2,2.4.8.5.4.9,1.2.9,2s-.3,1.6-.9,2.1c-.5.4-1.3.8-2.4.8h-1.6v3.8h-1.3v-9.3h0Z"/>
            <path id="DejaVuSans-72-5" class="cls-12" d="M-523.1,41.6c-.1,0-.3-.1-.4-.2h-.5c-.6,0-1.2.2-1.5.6s-.5,1.1-.5,1.8v3.8h-1.2v-7.1h1.2v1.1c.2-.4.5-.8,1-1,.4-.2.9-.3,1.4-.3s.2,0,.2,0h.3v1.2h.1Z"/>
            <path id="DejaVuSans-69-4" class="cls-12" d="M-521.9,40.5h1.2v7.1h-1.2v-7.1ZM-521.9,37.7h1.2v1.5h-1.2v-1.5Z"/>
            <path id="DejaVuSans-6d-3" class="cls-12" d="M-512.7,41.9c.3-.5.6-.9,1.1-1.2s.9-.3,1.4-.3,1.3.2,1.7.8.6,1.3.6,2.1v4.3h-1.2v-4.2c0-.6-.1-1.2-.3-1.5-.2-.3-.6-.5-1.1-.5s-1.1.2-1.4.6-.5,1-.5,1.6v4h-1.2v-4.2c0-.6-.1-1.2-.3-1.5s-.6-.5-1.1-.5-1.1.2-1.4.6-.5,1-.5,1.6v4h-1.2v-7.1h1.2v1.1c.2-.4.5-.8,1-1s.9-.3,1.3-.3,1,.1,1.3.4c.3.2.6.6.8,1.2h-.1Z"/>
            <path id="DejaVuSans-61-7" class="cls-12" d="M-502.5,44c-1,0-1.6,0-1.9.3s-.5.5-.5,1.1.1.8.4,1c.3.2.6.3,1.1.3s1.2-.2,1.5-.6.5-1.1.5-1.8v-.2h-1.2.1ZM-500.2,43.5v4h-1.2v-1.1c-.2.4-.6.8-1,1-.4.2-.9.3-1.4.3s-1.3-.2-1.7-.6-.6-1-.6-1.6.2-1.4.8-1.8c.5-.4,1.3-.6,2.4-.6h1.6c0-.6-.2-1.1-.5-1.4s-.9-.4-1.5-.4-.8,0-1.2.1c-.4,0-.8.2-1.1.4v-1.1c.4-.2.9-.3,1.2-.3s.8-.1,1.2-.1c1.1,0,1.8.2,2.3.8.5.5.8,1.3.8,2.4v.2Z"/>
            <path id="DejaVuSans-72-6" class="cls-12" d="M-493.7,41.6c-.1,0-.3-.1-.4-.2h-.5c-.6,0-1.2.2-1.5.6s-.5,1.1-.5,1.8v3.8h-1.2v-7.1h1.2v1.1c.2-.4.5-.8,1-1,.4-.2.9-.3,1.4-.3s.2,0,.2,0h.3v1.2h.1Z"/>
            <path id="DejaVuSans-79-2" class="cls-12" d="M-489.5,48.2c-.3.9-.6,1.4-1,1.6s-.8.4-1.3.4h-1v-1h.6c.3,0,.5,0,.8-.2.2-.1.3-.5.5-1.1l.2-.5-2.9-7h1.2l2.3,5.5,2.3-5.5h1.2l-3.1,7.7h.2Z"/>
            <path id="DejaVuSans-20-8" class="cls-12" d="M-486.1,47.6"/>
            <path id="DejaVuSans-54-2" class="cls-12" d="M-482,38.1h7.9v1.1h-3.3v8.4h-1.3v-8.4h-3.3v-1.1h0Z"/>
            <path id="DejaVuSans-68-5" class="cls-12" d="M-467.1,43.3v4.3h-1.2v-4.2c0-.6-.1-1.2-.4-1.5-.2-.3-.6-.5-1.2-.5s-1.1.2-1.5.6c-.3.4-.5,1-.5,1.6v4h-1.2v-9.8h1.2v3.9c.3-.4.6-.8,1-1,.3-.2.9-.3,1.3-.3.9,0,1.4.2,1.8.8.4.5.6,1.3.6,2.3h.1Z"/>
            <path id="DejaVuSans-65-4" class="cls-12" d="M-458.7,43.7v.5h-5.4c0,.8.3,1.4.8,1.8.4.4,1.1.6,1.8.6s.9,0,1.3-.2.9-.3,1.3-.5v1.1c-.4.2-.9.3-1.3.4s-.9.1-1.3.1c-1.1,0-2-.3-2.7-1s-1-1.5-1-2.7.3-2,1-2.8c.6-.6,1.5-1,2.5-1s1.7.3,2.3,1c.5.6.9,1.4.9,2.5h-.1ZM-459.9,43.4c0-.6-.2-1.2-.5-1.5-.3-.4-.8-.5-1.4-.5s-1.2.2-1.5.5-.6.9-.6,1.5h4.1Z"/>
            <path id="DejaVuSans-6d-4" class="cls-12" d="M-451.3,41.9c.3-.5.6-.9,1.1-1.2s.9-.3,1.4-.3,1.3.2,1.7.8c.4.5.6,1.3.6,2.1v4.3h-1.2v-4.2c0-.6-.1-1.2-.3-1.5s-.6-.5-1.1-.5-1.1.2-1.4.6-.5,1-.5,1.6v4h-1.2v-4.2c0-.6-.1-1.2-.3-1.5s-.6-.5-1.1-.5-1.1.2-1.4.6-.5,1-.5,1.6v4h-1.2v-7.1h1.2v1.1c.2-.4.5-.8,1-1s.9-.3,1.3-.3,1,.1,1.3.4c.3.2.6.6.8,1.2h-.1Z"/>
            <path id="DejaVuSans-65-5" class="cls-12" d="M-438.2,43.7v.5h-5.4c0,.8.3,1.4.8,1.8.4.4,1.1.6,1.8.6s.9,0,1.3-.2.9-.3,1.3-.5v1.1c-.4.2-.9.3-1.3.4s-.9.1-1.3.1c-1.1,0-2-.3-2.7-1s-1-1.5-1-2.7.3-2,1-2.8c.6-.6,1.5-1,2.5-1s1.7.3,2.3,1,.9,1.4.9,2.5h-.1ZM-439.4,43.4c0-.6-.2-1.2-.5-1.5-.3-.4-.8-.5-1.4-.5s-1.2.2-1.5.5-.6.9-.6,1.5h4.1Z"/>
          </g>
        </g>
        <g id="PathCollection_6">
          <path id="m59596bc2e3-2" class="cls-11" d="M-547.7,65.8c1,0,1.9-.4,2.7-1.1s1.1-1.7,1.1-2.7-.4-1.9-1.1-2.7-1.7-1.1-2.7-1.1-1.9.4-2.7,1.1-1.1,1.7-1.1,2.7.4,1.9,1.1,2.7,1.7,1.1,2.7,1.1Z"/>
        </g>
        <g id="text_5">
          <g>
            <path id="DejaVuSans-63" class="cls-12" d="M-520.6,58.8v1c-.3-.2-.6-.3-.9-.3s-.6-.1-1-.1c-.6,0-1.2.2-1.6.6s-.5,1.1-.5,1.8.2,1.4.5,1.8c.4.4,1,.6,1.6.6s.6,0,1-.1.6-.2.9-.3v1c-.3.1-.6.2-1,.3h-1c-1,0-1.7-.3-2.4-1-.5-.6-.9-1.4-.9-2.5s.3-1.9.9-2.5c.5-.6,1.4-.9,2.4-.9s.6,0,1,0,.6.2.9.3h.1Z"/>
            <path id="DejaVuSans-6f-3" class="cls-12" d="M-516.3,59.4c-.5,0-1,.2-1.4.6s-.5,1.1-.5,1.8.2,1.4.5,1.8c.3.4.8.6,1.4.6s1-.2,1.4-.6c.3-.4.5-1.1.5-1.8s-.2-1.4-.5-1.8c-.3-.4-.8-.6-1.4-.6ZM-516.3,58.5c1,0,1.6.3,2.1.9.5.6.8,1.4.8,2.5s-.2,1.9-.8,2.5c-.5.6-1.3.9-2.1.9s-1.6-.3-2.1-.9c-.5-.6-.8-1.4-.8-2.5s.2-1.9.8-2.5c.5-.6,1.3-.9,2.1-.9Z"/>
            <path id="DejaVuSans-6d-5" class="cls-12" d="M-506.5,59.9c.2-.4.5-.9,1-1.1s.8-.3,1.3-.3,1.2.2,1.6.8c.3.4.5,1.2.5,2v3.9h-1.1v-3.9c0-.6-.1-1.1-.3-1.4-.2-.3-.5-.4-1-.4s-1,.2-1.3.5c-.3.3-.4.9-.4,1.5v3.7h-1.1v-3.9c0-.6-.1-1.1-.3-1.4s-.5-.4-1-.4-1,.2-1.3.5c-.3.3-.4.9-.4,1.5v3.7h-1.1v-6.4h1.1v1c.2-.4.5-.6.9-.9s.8-.3,1.2-.3.9.1,1.2.3c.3.2.5.5.8,1.1h-.2Z"/>
            <path id="DejaVuSans-6d-6" class="cls-12" d="M-495,59.9c.2-.4.5-.9,1-1.1s.8-.3,1.3-.3,1.2.2,1.6.8c.3.4.5,1.2.5,2v3.9h-1.1v-3.9c0-.6-.1-1.1-.3-1.4-.2-.3-.5-.4-1-.4s-1,.2-1.3.5c-.3.3-.4.9-.4,1.5v3.7h-1.1v-3.9c0-.6-.1-1.1-.3-1.4s-.5-.4-1-.4-1,.2-1.3.5c-.3.3-.4.9-.4,1.5v3.7h-1.1v-6.4h1.1v1c.2-.4.5-.6.9-.9s.8-.3,1.2-.3.9.1,1.2.3c.3.2.5.5.8,1.1h-.2Z"/>
            <path id="DejaVuSans-75-4" class="cls-12" d="M-488.6,62.5v-3.9h1.1v3.9c0,.6.1,1.1.3,1.4.2.3.6.4,1.1.4s1.1-.2,1.4-.5.5-.9.5-1.5v-3.7h1.1v6.4h-1.1v-1c-.2.4-.5.6-.9.9-.3.2-.8.3-1.2.3-.8,0-1.3-.2-1.7-.6s-.5-1.2-.5-2h-.1ZM-485.9,58.5h0Z"/>
            <path id="DejaVuSans-6e-3" class="cls-12" d="M-475.7,61.2v3.9h-1.1v-3.9c0-.6-.1-1.1-.3-1.4-.2-.3-.6-.4-1.1-.4s-1.1.2-1.4.5-.5.9-.5,1.5v3.7h-1.1v-6.4h1.1v1c.2-.4.5-.6.9-.9.3-.2.8-.3,1.2-.3.8,0,1.3.2,1.7.6s.5,1.2.5,2h.1Z"/>
            <path id="DejaVuSans-69-5" class="cls-12" d="M-473.5,58.6h1.1v6.4h-1.1v-6.4ZM-473.5,56.2h1.1v1.4h-1.1v-1.4Z"/>
            <path id="DejaVuSans-74-2" class="cls-12" d="M-469.2,56.8v1.8h2.1v.9h-2.1v3.5c0,.5,0,.9.2,1s.4.2.9.2h1.1v.9h-1.1c-.9,0-1.4-.1-1.7-.4-.3-.3-.4-.9-.4-1.7v-3.5h-.8v-.9h.8v-1.8h1.1Z"/>
            <path id="DejaVuSans-79-3" class="cls-12" d="M-462.9,65.7c-.3.8-.6,1.3-.9,1.5-.3.2-.6.3-1.2.3h-.9v-.9h.6c.3,0,.5,0,.6-.2.2-.1.3-.4.5-1l.2-.5-2.6-6.3h1.1l2,5,2-5h1.1l-2.8,7.1h0Z"/>
            <path id="DejaVuSans-5f" class="cls-12" d="M-453.7,67v.9h-6.1v-.9h6.1Z"/>
            <path id="DejaVuSans-65-6" class="cls-12" d="M-447.2,61.6v.5h-4.8c0,.8.2,1.3.6,1.7.4.4,1,.5,1.6.5s.8,0,1.2-.1.8-.2,1.2-.4v1c-.4.2-.8.3-1.2.3s-.8.1-1.2.1c-1.1,0-1.8-.3-2.5-.9-.6-.6-.9-1.4-.9-2.5s.3-1.9.9-2.5c.5-.6,1.3-1,2.4-1s1.5.3,2,.9.8,1.3.8,2.3h-.1ZM-448.2,61.3c0-.5-.2-1.1-.5-1.4s-.8-.5-1.3-.5-1.1.2-1.4.5-.5.9-.6,1.4h3.9Z"/>
            <path id="DejaVuSans-76" class="cls-12" d="M-446.1,58.6h1.1l2,5.4,2-5.4h1.1l-2.5,6.4h-1.4l-2.5-6.4h.1Z"/>
            <path id="DejaVuSans-65-7" class="cls-12" d="M-432.9,61.6v.5h-4.8c0,.8.2,1.3.6,1.7.4.4,1,.5,1.6.5s.8,0,1.2-.1.8-.2,1.2-.4v1c-.4.2-.8.3-1.2.3s-.8.1-1.2.1c-1.1,0-1.8-.3-2.5-.9-.6-.6-.9-1.4-.9-2.5s.3-1.9.9-2.5c.5-.6,1.3-1,2.4-1s1.5.3,2,.9.8,1.3.8,2.3h-.1ZM-434,61.3c0-.5-.2-1.1-.5-1.4s-.8-.5-1.3-.5-1.1.2-1.4.5-.5.9-.6,1.4h3.9Z"/>
            <path id="DejaVuSans-6e-4" class="cls-12" d="M-425.8,61.2v3.9h-1.1v-3.9c0-.6-.1-1.1-.3-1.4s-.6-.4-1.1-.4-1.1.2-1.4.5-.5.9-.5,1.5v3.7h-1.1v-6.4h1.1v1c.2-.4.5-.6.9-.9.3-.2.8-.3,1.2-.3.8,0,1.3.2,1.7.6.4.4.5,1.2.5,2h.1Z"/>
            <path id="DejaVuSans-74-3" class="cls-12" d="M-422.6,56.8v1.8h2.1v.9h-2.1v3.5c0,.5,0,.9.2,1s.4.2.9.2h1.1v.9h-1.1c-.9,0-1.4-.1-1.7-.4s-.4-.9-.4-1.7v-3.5h-.8v-.9h.8v-1.8h1.1Z"/>
            <path id="DejaVuSans-73-4" class="cls-12" d="M-414.9,58.8v1c-.3-.1-.6-.3-1-.3s-.6-.1-1-.1c-.5,0-1,0-1.2.2-.2.2-.4.4-.4.8s0,.4.3.5.5.3,1.2.4h.3c.8.2,1.3.4,1.6.8s.4.8.4,1.2-.2,1.1-.8,1.4c-.4.3-1.2.5-1.9.5h-1.1c-.3,0-.8-.2-1.2-.3v-1.1c.4.2.8.3,1.2.4.4,0,.8.1,1.2.1s.9,0,1.2-.2.4-.4.4-.8,0-.5-.3-.6c-.2-.1-.6-.3-1.3-.4h-.3c-.6-.2-1.2-.4-1.4-.8-.3-.3-.4-.6-.4-1.2s.2-1.1.6-1.4c.4-.3,1.1-.5,1.8-.5h1.1c.3,0,.6.1,1,.2v.2Z"/>
          </g>
        </g>
        <g id="PathCollection_7">
          <path id="mccf8e2a96d" class="cls-8" d="M-547.7,83.4c1,0,1.9-.4,2.7-1.1s1.1-1.7,1.1-2.7-.4-1.9-1.1-2.7-1.7-1.1-2.7-1.1-1.9.4-2.7,1.1-1.1,1.7-1.1,2.7.4,1.9,1.1,2.7,1.7,1.1,2.7,1.1Z"/>
        </g>
        <g id="text_6">
          <g>
            <path id="DejaVuSans-64-2" class="cls-12" d="M-521,77.3v-3.5h1.1v9h-1.1v-1c-.2.4-.5.6-.9.9-.3.2-.8.3-1.2.3-.8,0-1.4-.3-1.9-1s-.8-1.4-.8-2.5.2-1.8.8-2.5c.5-.6,1.1-1,1.9-1s.9,0,1.2.3c.3.2.6.4.9.9ZM-524.6,79.6c0,.8.1,1.4.4,1.8.3.4.8.6,1.3.6s1-.2,1.3-.6c.3-.4.5-1.1.5-1.8s-.2-1.4-.5-1.8c-.3-.4-.8-.6-1.3-.6s-1,.2-1.3.6-.4,1.1-.4,1.8Z"/>
            <path id="DejaVuSans-65-8" class="cls-12" d="M-512.2,79.3v.5h-4.8c0,.8.2,1.3.6,1.7s1,.5,1.6.5.8,0,1.2-.1.8-.2,1.2-.4v1c-.4.2-.8.3-1.2.3s-.8.1-1.2.1c-1.1,0-1.8-.3-2.5-.9-.6-.6-.9-1.4-.9-2.5s.3-1.9.9-2.5c.5-.6,1.3-1,2.4-1s1.5.3,2,.9.8,1.3.8,2.3h-.1ZM-513.3,78.9c0-.5-.2-1.1-.5-1.4s-.8-.5-1.3-.5-1.1.2-1.4.5-.5.9-.6,1.4h3.9Z"/>
            <path id="DejaVuSans-73-5" class="cls-12" d="M-506.4,76.5v1c-.3-.1-.6-.3-1-.3s-.6-.1-1-.1c-.5,0-1,0-1.2.2s-.4.4-.4.8,0,.4.3.5.5.3,1.2.4h.3c.8.2,1.3.4,1.6.8s.4.8.4,1.2-.2,1.1-.8,1.4c-.4.3-1.2.5-1.9.5h-1.1c-.3,0-.8-.2-1.2-.3v-1.1c.4.2.8.3,1.2.4.4,0,.8.1,1.2.1s.9,0,1.2-.2c.3-.2.4-.4.4-.8s0-.5-.3-.6c-.2-.1-.6-.3-1.3-.4h-.3c-.6-.2-1.2-.4-1.4-.8-.3-.3-.4-.6-.4-1.2s.2-1.1.6-1.4,1.1-.5,1.8-.5h1.1c.3,0,.6.1,1,.2v.2Z"/>
            <path id="DejaVuSans-69-6" class="cls-12" d="M-504.4,76.4h1.1v6.4h-1.1v-6.4ZM-504.4,73.8h1.1v1.4h-1.1v-1.4Z"/>
            <path id="DejaVuSans-67-2" class="cls-12" d="M-496.7,79.5c0-.8-.1-1.4-.4-1.8-.3-.4-.8-.6-1.3-.6s-1,.2-1.3.6c-.3.4-.4,1-.4,1.8s.1,1.4.4,1.8c.3.4.8.6,1.3.6s1-.2,1.3-.6c.3-.4.4-1,.4-1.8ZM-495.8,81.9c0,1.1-.2,1.9-.8,2.5s-1.2.8-2.3.8h-1.1c-.3,0-.6-.1-1-.2v-1.1c.3.2.6.3,1,.3s.6.1,1,.1c.6,0,1.2-.2,1.6-.5.3-.3.5-.9.5-1.6v-.5c-.2.4-.5.6-.9.9s-.8.3-1.2.3c-.8,0-1.4-.3-1.9-.9-.5-.6-.8-1.4-.8-2.4s.2-1.8.8-2.4c.5-.6,1.1-.9,1.9-.9s.9,0,1.2.3.6.4.9.9v-1h1.1v5.7-.3Z"/>
            <path id="DejaVuSans-6e-5" class="cls-12" d="M-488.1,78.8v3.9h-1.1v-3.9c0-.6-.1-1.1-.3-1.4-.2-.3-.6-.4-1.1-.4s-1.1.2-1.4.5-.5.9-.5,1.5v3.7h-1.1v-6.4h1.1v1c.2-.4.5-.6.9-.9.3-.2.8-.3,1.2-.3.8,0,1.3.2,1.7.6s.5,1.2.5,2h.1Z"/>
            <path id="DejaVuSans-5f-2" class="cls-12" d="M-481.2,84.7v.9h-6.1v-.9h6.1Z"/>
            <path id="DejaVuSans-6d-7" class="cls-12" d="M-475.2,77.5c.2-.4.5-.9,1-1.1s.8-.3,1.3-.3,1.2.2,1.6.8c.3.4.5,1.2.5,2v3.9h-1.1v-3.9c0-.6-.1-1.1-.3-1.4-.2-.3-.5-.4-1-.4s-1,.2-1.3.5c-.3.3-.4.9-.4,1.5v3.7h-1.1v-3.9c0-.6-.1-1.1-.3-1.4s-.5-.4-1-.4-1,.2-1.3.5c-.3.3-.4.9-.4,1.5v3.7h-1.1v-6.4h1.1v1c.2-.4.5-.6.9-.9s.8-.3,1.2-.3.9.1,1.2.3c.3.2.5.5.8,1.1h-.2Z"/>
            <path id="DejaVuSans-69-7" class="cls-12" d="M-468.6,76.4h1.1v6.4h-1.1v-6.4ZM-468.6,73.8h1.1v1.4h-1.1v-1.4Z"/>
            <path id="DejaVuSans-6e-6" class="cls-12" d="M-460,78.8v3.9h-1.1v-3.9c0-.6-.1-1.1-.3-1.4-.2-.3-.6-.4-1.1-.4s-1.1.2-1.4.5-.5.9-.5,1.5v3.7h-1.1v-6.4h1.1v1c.2-.4.5-.6.9-.9.3-.2.8-.3,1.2-.3.8,0,1.3.2,1.7.6s.5,1.2.5,2h.1Z"/>
            <path id="DejaVuSans-69-8" class="cls-12" d="M-457.9,76.4h1.1v6.4h-1.1v-6.4ZM-457.9,73.8h1.1v1.4h-1.1v-1.4Z"/>
            <path id="DejaVuSans-6d-8" class="cls-12" d="M-449.6,77.5c.2-.4.5-.9,1-1.1s.8-.3,1.3-.3,1.2.2,1.6.8c.3.4.5,1.2.5,2v3.9h-1.1v-3.9c0-.6-.1-1.1-.3-1.4s-.5-.4-1-.4-1,.2-1.3.5-.4.9-.4,1.5v3.7h-1.1v-3.9c0-.6-.1-1.1-.3-1.4s-.5-.4-1-.4-1,.2-1.3.5-.4.9-.4,1.5v3.7h-1.1v-6.4h1.1v1c.2-.4.5-.6.9-.9s.8-.3,1.2-.3.9.1,1.2.3c.3.2.5.5.8,1.1h-.2Z"/>
            <path id="DejaVuSans-61-8" class="cls-12" d="M-440.1,79.5c-.9,0-1.5,0-1.8.3s-.5.5-.5,1,.1.6.3.9c.2.2.5.3,1,.3s1.1-.2,1.4-.6.5-1,.5-1.6v-.2h-1.1.2ZM-438,79v3.7h-1.1v-1c-.2.4-.5.6-.9.9-.3.2-.8.3-1.3.3s-1.2-.2-1.6-.5-.5-.9-.5-1.5.2-1.3.8-1.6,1.2-.5,2.1-.5h1.5c0-.6-.1-1-.4-1.3s-.8-.4-1.4-.4-.8,0-1.1.1c-.3,0-.6.2-1,.4v-1c.4-.1.8-.2,1.2-.3.3,0,.8-.1,1.1-.1,1,0,1.6.2,2.1.8.4.5.6,1.2.6,2.3h-.2Z"/>
            <path id="DejaVuSans-6c" class="cls-12" d="M-435.8,73.8h1.1v9h-1.1v-9Z"/>
          </g>
        </g>
        <g id="PathCollection_8">
          <path id="m63ba111148-35" class="cls-6" d="M-547.7,101.2c1,0,1.9-.4,2.7-1.1s1.1-1.7,1.1-2.7-.4-1.9-1.1-2.7-1.7-1.1-2.7-1.1-1.9.4-2.7,1.1-1.1,1.7-1.1,2.7.4,1.9,1.1,2.7,1.7,1.1,2.7,1.1Z"/>
        </g>
        <g id="text_7">
          <g>
            <path id="DejaVuSans-6d-9" class="cls-12" d="M-520.3,95.3c.2-.4.5-.9,1-1.1s.8-.3,1.3-.3,1.2.2,1.6.8c.3.4.5,1.2.5,2v3.9h-1.1v-3.9c0-.6-.1-1.1-.3-1.4-.2-.3-.5-.4-1-.4s-1,.2-1.3.5c-.3.3-.4.9-.4,1.5v3.7h-1.1v-3.9c0-.6-.1-1.1-.3-1.4s-.5-.4-1-.4-1,.2-1.3.5c-.3.3-.4.9-.4,1.5v3.7h-1.1v-6.4h1.1v1c.2-.4.5-.6.9-.9s.8-.3,1.2-.3.9.1,1.2.3c.3.2.5.5.8,1.1h-.2Z"/>
            <path id="DejaVuSans-75-5" class="cls-12" d="M-513.8,97.8v-3.9h1.1v3.9c0,.6.1,1.1.3,1.4.2.3.6.4,1.1.4s1.1-.2,1.4-.5.5-.9.5-1.5v-3.7h1.1v6.4h-1.1v-1c-.2.4-.5.6-.9.9s-.8.3-1.2.3c-.8,0-1.3-.2-1.7-.6-.4-.4-.5-1.2-.5-2h-.1ZM-511.1,93.9h0Z"/>
            <path id="DejaVuSans-6c-2" class="cls-12" d="M-506.3,91.5h1.1v9h-1.1v-9Z"/>
            <path id="DejaVuSans-74-4" class="cls-12" d="M-501.9,92.1v1.8h2.1v.9h-2.1v3.5c0,.5,0,.9.2,1s.4.2.9.2h1.1v.9h-1.1c-.9,0-1.4-.1-1.7-.4-.3-.3-.4-.9-.4-1.7v-3.5h-.8v-.9h.8v-1.8h1.1Z"/>
            <path id="DejaVuSans-69-9" class="cls-12" d="M-498.4,94h1.1v6.4h-1.1v-6.4ZM-498.4,91.5h1.1v1.4h-1.1v-1.4Z"/>
            <path id="DejaVuSans-5f-3" class="cls-12" d="M-490.2,102.4v.9h-6.1v-.9h6.1Z"/>
            <path id="DejaVuSans-6c-3" class="cls-12" d="M-489.1,91.5h1.1v9h-1.1v-9Z"/>
            <path id="DejaVuSans-6f-4" class="cls-12" d="M-483.3,94.7c-.5,0-1,.2-1.4.6s-.5,1.1-.5,1.8.2,1.4.5,1.8.8.6,1.4.6,1-.2,1.4-.6c.3-.4.5-1.1.5-1.8s-.2-1.4-.5-1.8-.8-.6-1.4-.6ZM-483.3,93.9c1,0,1.6.3,2.1.9.5.6.8,1.4.8,2.5s-.2,1.9-.8,2.5c-.5.6-1.3.9-2.1.9s-1.6-.3-2.1-.9c-.5-.6-.8-1.4-.8-2.5s.2-1.9.8-2.5c.5-.6,1.3-.9,2.1-.9Z"/>
            <path id="DejaVuSans-63-2" class="cls-12" d="M-474,94.2v1c-.3-.2-.6-.3-.9-.3s-.6-.1-1-.1c-.6,0-1.2.2-1.6.6-.4.4-.5,1.1-.5,1.8s.2,1.4.5,1.8c.4.4,1,.6,1.6.6s.6,0,1-.1.6-.2.9-.3v1c-.3.1-.6.2-1,.3h-1c-1,0-1.7-.3-2.4-1-.5-.6-.9-1.4-.9-2.5s.3-1.9.9-2.5c.5-.6,1.4-.9,2.4-.9s.6,0,1,0,.6.2.9.3h.1Z"/>
            <path id="DejaVuSans-61-9" class="cls-12" d="M-469.2,97.2c-.9,0-1.5,0-1.8.3s-.5.5-.5,1,.1.6.3.9c.2.2.5.3,1,.3s1.1-.2,1.4-.6.5-1,.5-1.6v-.2h-1.1.2ZM-467.1,96.8v3.7h-1.1v-1c-.2.4-.5.6-.9.9s-.8.3-1.3.3-1.2-.2-1.6-.5-.5-.9-.5-1.5.2-1.3.8-1.6,1.2-.5,2.1-.5h1.5c0-.6-.1-1-.4-1.3s-.8-.4-1.4-.4-.8,0-1.1.1c-.3,0-.6.2-1,.4v-1c.4-.1.8-.2,1.2-.3.3,0,.8-.1,1.1-.1,1,0,1.6.2,2.1.8.4.5.6,1.2.6,2.3h-.2Z"/>
            <path id="DejaVuSans-74-5" class="cls-12" d="M-463.9,92.1v1.8h2.1v.9h-2.1v3.5c0,.5,0,.9.2,1s.4.2.9.2h1.1v.9h-1.1c-.9,0-1.4-.1-1.7-.4-.3-.3-.4-.9-.4-1.7v-3.5h-.8v-.9h.8v-1.8h1.1Z"/>
            <path id="DejaVuSans-69-10" class="cls-12" d="M-460.2,94h1.1v6.4h-1.1v-6.4h0ZM-460.2,91.5h1.1v1.4h-1.1v-1.4h0Z"/>
            <path id="DejaVuSans-6f-5" class="cls-12" d="M-454.5,94.7c-.5,0-1,.2-1.4.6s-.5,1.1-.5,1.8.2,1.4.5,1.8.8.6,1.4.6,1-.2,1.4-.6c.3-.4.5-1.1.5-1.8s-.2-1.4-.5-1.8-.8-.6-1.4-.6ZM-454.5,93.9c1,0,1.6.3,2.1.9.5.6.8,1.4.8,2.5s-.2,1.9-.8,2.5c-.5.6-1.3.9-2.1.9s-1.6-.3-2.1-.9c-.5-.6-.8-1.4-.8-2.5s.2-1.9.8-2.5c.5-.6,1.3-.9,2.1-.9Z"/>
            <path id="DejaVuSans-6e-7" class="cls-12" d="M-444.4,96.6v3.9h-1.1v-3.9c0-.6-.1-1.1-.3-1.4s-.6-.4-1.1-.4-1.1.2-1.4.5-.5.9-.5,1.5v3.7h-1.1v-6.4h1.1v1c.2-.4.5-.6.9-.9s.8-.3,1.2-.3c.8,0,1.3.2,1.7.6.4.4.5,1.2.5,2h.1Z"/>
          </g>
        </g>
        <g id="PathCollection_9">
          <path id="mf28260d367-2" class="cls-7" d="M-547.7,118.8c1,0,1.9-.4,2.7-1.1s1.1-1.7,1.1-2.7-.4-1.9-1.1-2.7-1.7-1.1-2.7-1.1-1.9.4-2.7,1.1-1.1,1.7-1.1,2.7.4,1.9,1.1,2.7,1.7,1.1,2.7,1.1Z"/>
        </g>
        <g id="text_8">
          <g>
            <path id="DejaVuSans-6f-6" class="cls-12" d="M-522.7,112.3c-.5,0-1,.2-1.4.6s-.5,1.1-.5,1.8.2,1.4.5,1.8.8.6,1.4.6,1-.2,1.4-.6c.3-.4.5-1.1.5-1.8s-.2-1.4-.5-1.8-.8-.6-1.4-.6ZM-522.7,111.5c1,0,1.6.3,2.1.9.5.6.8,1.4.8,2.5s-.2,1.9-.8,2.5c-.5.6-1.3.9-2.1.9s-1.6-.3-2.1-.9c-.5-.6-.8-1.4-.8-2.5s.2-1.9.8-2.5c.5-.6,1.3-.9,2.1-.9Z"/>
            <path id="DejaVuSans-72-7" class="cls-12" d="M-514.2,112.7c-.1,0-.2-.1-.4-.1h-.4c-.6,0-1.1.2-1.4.5s-.4,1-.4,1.7v3.4h-1.1v-6.4h1.1v1c.2-.4.5-.6.9-.9s.8-.3,1.3-.3.1,0,.2,0h.3v1.1h0Z"/>
            <path id="DejaVuSans-69-11" class="cls-12" d="M-513.2,111.7h1.1v6.4h-1.1v-6.4ZM-513.2,109.1h1.1v1.4h-1.1v-1.4Z"/>
            <path id="DejaVuSans-67-3" class="cls-12" d="M-505.7,114.8c0-.8-.1-1.4-.4-1.8s-.8-.6-1.3-.6-1,.2-1.3.6c-.3.4-.4,1-.4,1.8s.1,1.4.4,1.8.8.6,1.3.6,1-.2,1.3-.6c.3-.4.4-1,.4-1.8ZM-504.6,117.3c0,1.1-.2,1.9-.8,2.5s-1.2.8-2.3.8h-1.1c-.3,0-.6-.1-1-.2v-1.1c.3.2.6.3,1,.3s.6.1,1,.1c.6,0,1.2-.2,1.6-.5.3-.3.5-.9.5-1.6v-.5c-.2.4-.5.6-.9.9s-.8.3-1.2.3c-.8,0-1.4-.3-1.9-.9-.5-.6-.8-1.4-.8-2.4s.2-1.8.8-2.4c.5-.6,1.1-.9,1.9-.9s.9,0,1.2.3.6.4.9.9v-1h1.1v5.7-.3Z"/>
            <path id="DejaVuSans-69-12" class="cls-12" d="M-502.3,111.7h1.1v6.4h-1.1v-6.4ZM-502.3,109.1h1.1v1.4h-1.1v-1.4Z"/>
            <path id="DejaVuSans-6e-8" class="cls-12" d="M-493.7,114.2v3.9h-1.1v-3.9c0-.6-.1-1.1-.3-1.4-.2-.3-.6-.4-1.1-.4s-1.1.2-1.4.5-.5.9-.5,1.5v3.7h-1.1v-6.4h1.1v1c.2-.4.5-.6.9-.9s.8-.3,1.2-.3c.8,0,1.3.2,1.7.6.4.4.5,1.2.5,2h.1Z"/>
            <path id="DejaVuSans-5f-4" class="cls-12" d="M-486.6,120.1v.9h-6.1v-.9h6.1Z"/>
            <path id="DejaVuSans-66-2" class="cls-12" d="M-482.5,109.1v.9h-1c-.4,0-.6,0-.8.2-.1.1-.2.4-.2.9v.5h1.7v.9h-1.7v5.6h-1.1v-5.6h-1v-.9h1v-.4c0-.8.2-1.3.5-1.6s.9-.5,1.6-.5h1-.1Z"/>
            <path id="DejaVuSans-6f-7" class="cls-12" d="M-479,112.3c-.5,0-1,.2-1.4.6s-.5,1.1-.5,1.8.2,1.4.5,1.8.8.6,1.4.6,1-.2,1.4-.6c.3-.4.5-1.1.5-1.8s-.2-1.4-.5-1.8-.8-.6-1.4-.6ZM-479,111.5c1,0,1.6.3,2.1.9.5.6.8,1.4.8,2.5s-.2,1.9-.8,2.5c-.5.6-1.3.9-2.1.9s-1.6-.3-2.1-.9c-.5-.6-.8-1.4-.8-2.5s.2-1.9.8-2.5c.5-.6,1.3-.9,2.1-.9Z"/>
            <path id="DejaVuSans-63-3" class="cls-12" d="M-469.7,111.9v1c-.3-.2-.6-.3-.9-.3s-.6-.1-1-.1c-.6,0-1.2.2-1.6.6-.4.4-.5,1.1-.5,1.8s.2,1.4.5,1.8c.4.4,1,.6,1.6.6s.6,0,1-.1.6-.2.9-.3v1c-.3.1-.6.2-1,.3h-1c-1,0-1.7-.3-2.4-1-.5-.6-.9-1.4-.9-2.5s.3-1.9.9-2.5c.5-.6,1.4-.9,2.4-.9s.6,0,1,0,.6.2.9.3h.1Z"/>
            <path id="DejaVuSans-75-6" class="cls-12" d="M-468,115.6v-3.9h1.1v3.9c0,.6.1,1.1.3,1.4.2.3.6.4,1.1.4s1.1-.2,1.4-.5.5-.9.5-1.5v-3.7h1.1v6.4h-1.1v-1c-.2.4-.5.6-.9.9s-.8.3-1.2.3c-.8,0-1.3-.2-1.7-.6-.4-.4-.5-1.2-.5-2h-.1ZM-465.3,111.5h0Z"/>
            <path id="DejaVuSans-73-6" class="cls-12" d="M-456.2,111.8v1c-.3-.1-.6-.3-1-.3s-.6-.1-1-.1c-.5,0-1,0-1.2.2-.2.2-.4.4-.4.8s0,.4.3.5c.3.1.5.3,1.2.4h.3c.8.2,1.3.4,1.6.8s.4.8.4,1.2-.2,1.1-.8,1.4c-.4.3-1.2.5-1.9.5h-1.1c-.3,0-.8-.2-1.2-.3v-1.1c.4.2.8.3,1.2.4.4,0,.8.1,1.2.1s.9,0,1.2-.2.4-.4.4-.8,0-.5-.3-.6c-.2-.1-.6-.3-1.3-.4h-.3c-.6-.2-1.2-.4-1.4-.8-.3-.3-.4-.6-.4-1.2s.2-1.1.6-1.4,1.1-.5,1.8-.5h1.1c.3,0,.6.1,1,.2v.2Z"/>
          </g>
        </g>
      </g>
      <g id="PathCollection_2">
        <g class="cls-4">
          <path id="mccf8e2a96d-2" class="cls-8" d="M335.8,336.1c1.5,0,2.8-.6,3.7-1.6s1.6-2.4,1.6-3.7-.6-2.8-1.6-3.7-2.4-1.6-3.7-1.6-2.8.6-3.7,1.6-1.6,2.4-1.6,3.7.6,2.8,1.6,3.7,2.4,1.6,3.7,1.6Z"/>
        </g>
      </g>
    </g>
  </g>
</svg>