<?xml version="1.0" encoding="UTF-8"?>
<svg xmlns="http://www.w3.org/2000/svg" version="1.1" viewBox="0 0 576 471.5">
  <defs>
    <style>
      .cls-1 {
        fill: none;
      }

      .cls-2 {
        fill: #8da0cb;
      }

      .cls-2, .cls-3, .cls-4, .cls-5, .cls-6, .cls-7, .cls-8, .cls-9 {
        stroke-linejoin: round;
      }

      .cls-2, .cls-3, .cls-4, .cls-6, .cls-7, .cls-9 {
        fill-opacity: .9;
        stroke: #fff;
        stroke-opacity: .9;
        stroke-width: .6px;
      }

      .cls-3 {
        fill: #b3b3b3;
      }

      .cls-4 {
        fill: #e78ac3;
      }

      .cls-5 {
        fill-opacity: .4;
        opacity: .2;
        stroke-opacity: .4;
        stroke-width: .5px;
      }

      .cls-5, .cls-8 {
        stroke: #000;
      }

      .cls-6 {
        fill: #66c2a5;
      }

      .cls-7 {
        fill: #ffd92f;
      }

      .cls-9 {
        fill: #fc8d62;
      }
    </style>
  </defs>
  <!-- Generator: Adobe Illustrator 28.7.7, SVG Export Plug-In . SVG Version: 1.2.0 Build 194)  -->
  <g>
    <g id="Layer_1">
      <g id="PatchCollection_1">
        <rect class="cls-1" x="-25" y="126.2" width="413.7" height="257.7"/>
        <path id="m66f7a09486" class="cls-5" d="M332.3,6.7l-1.7,3-.5,1.1-.3,1.1v1.1c-.1,0,0,2.7,0,2.7v.6s2.7-1.9,2.7-1.9l7.4-3.7-.2,1.4-.3,1.8-.3,1.9-1.6,10,2.2,2.8,2.3,3,7.2,4.8,2.6,1.5,1,.5.9.5,1.4,1.2,2.2,1.9,1.7,1.3.7.5,3.8-2.2,1.1-.3.4,1,.9,1.9,2.1-.2v1.5c-.1,0-.5,3.5-.5,3.5l-.3,3.5-2.9,9.7-.6,2.6-4.4,2.2-3.4,1.9-1.8,1-.2,4.4-.2,3.9-1.7,1-.6,1.7-1.8,4.8-1.3,4.1-1,5.2-.4,2.2h1.8c0,0,7.3,17.1,7.3,17.1l11.5-.9,3.9.9,5.2,1.8,6.3,2.3,4.4,1.7,7,5,1.2,1.1,2.1,2,1.9,2.6,1.5,2.4,2.4,4.8.5.9,1.7.8.7.3,4-1.1,1.3,1.3.7,2.3,2.8.2.2.7.2.9.2.9v.7c.1,0,.3.6.3.6v.7c.1,0,.3,1.5.3,1.5v.7c.1,0,.2.6.2.6l.4,1.8v.6c0,0,.2.6.2.6v.4s0,.4,0,.4v1.3s0,.6,0,.6v.5c0,0,.1.4.1.4v.2c0,0,0,.2,0,.2v.2c0,0,.2.3.2.3l.2.3.4.6.2.3v.2c0,0,.2.3.2.3v.4c.1,0,.4.8.4.8l.6,1.3.2.7v1.1c.1,0,.2,1.2.2,1.2v1.2s-.2,1.4-.2,1.4l-.4,1.3-.4,1.5-.3,1-.3.9-.2.6h.5c0,.1.7.3.7.3l4.2,1.1,5.3,1.4,3.6,1,3.8,1,2.4.6,6.4,1.7h.7c0,0,8.1,1.2,8.1,1.2l4.4.6-.2,1-2.5,3.6h-1.1c0,.1-3.1.5-3.1.5l-.7,10,.9-.2,3.5-.6,9,.2,6,.5,4.2.3h1.3c0,.1,0,.6,0,.6l.2,1,.4,1.5.2,1,.3.7.2.6-2.1,1.8-7.2,5-2.4,1.8-3.2,3.2-1.4,1.6-1.2,1.3-1.6,2-1.1,1.8-3.2,7.3-.3,1.2-.6,2.8-1.4,6.5-1.5,4.2,1.5.7,3.4.7-.9,1.5-3.5,4.9-8.2,11.2-.7,4.1-.5,2.6,2.3,1.1-2.3,3.2-1.7,2.4,2.9,1.1,1.6-1.9,3.2,1v2.4c0,0,1.2,0,1.2,0l2.3.2.2-7.1,2.4.3,2.5-2.2,2.4-.8,2.3-2.3,1.5-1.2.8-1.3,2.2.4,3.9.5,5.3,2.5,2.3,2.4,1.8,1.2,3.7.6,1.9-.6,3,1.5,3.1,2.9,3.4,2,.3.4,2.8,3.8,3.3,1.4,6.5,1.1h1.6c0,.1.1,1,.1,1v.2s.1.4.1.4l.3,1.1v.4c0,0,.1.4.1.4v.2s0,.2,0,.2v.2s0,.4,0,.4v.4s0,.4,0,.4v.6c0,0-.4,1.7-.4,1.7l1,4.9,2.3.5,2.6.6.7-2,.2-2.7-.2-2.2v-1.3c-.1,0-1-5-1-5l-1.3-1.3-2.1-2.3-.5-1.7h1.7c0,0,2.1,1.8,2.1,1.8l6,4.7,1.7,1.4h2.4c0,0,3.4,7.5,3.4,7.5l6.8,7.9,2.5.7,2.1-.9,3.3,2.3,5.1.7,1.1.2,5.3,1,1,.9v1.5c0,0-.3,3.4-.3,3.4l2.2.4,1.7.3-1.1,5,2.3.4-.4,1.5-.3,1.4-1.7-.3-2.2-.4-1.9-.4,1.5-6-3,.2-5.2,4.5-.8,5.4-4.1-.2-.3,2.4,1.9.3-.5,2.8,2.1.5-.3,2-.2,1.6-.7.7h-.2c0,0-.2-.1-.2-.1l-.7-.2-1.1-.3-3.6,5.3-1.7,2.7.6,1.3-.6.4-.3.2h-.1c0,.1-.1.3-.1.3h-.1c0,.1,0,.3,0,.3v.2c-.1,0-.3.3-.3.3l-.2.3v.3c-.1,0-.2.4-.2.4v.4c0,0-.1.4-.1.4v.4s0,.2,0,.2v.2s0,.2,0,.2v.4c0,0,.2.2.2.2v.3c.1,0,.4.5.4.5l.2.5.4.7.3.5.8,1.4.3.5.2.3v.2c0,0,.2.2.2.2l.3.9v.2c0,0,.1.2.1.2v.2c0,0,.2.1.2.1h.1c0,.1.1.2.1.2h.2c0,.1.2.2.2.2h.2c0,0,.2.1.2.1l.6.2h.3c0,.1.2.2.2.2h.1c0,0,.1.2.1.2h.1c0,.1,0,.3,0,.3v.2c0,0,.1.2.1.2v.2s0,.2,0,.2v.8c.1,0,.1.2.1.2v.2c0,0,.1.2.1.2v.2c0,0,.2.2.2.2v.2c0,0,.3.3.3.3l.2.3h0c0,0-2.5,2.1-2.5,2.1l-.5,5.3-2.8,2.7-2.2-.4-2.7.9-1.2,1.3-1.2-.5-.8-.4-1.2.8h-1.7c0,0-.7-1.1-.7-1.1l-2.9,2-3.2,3.4-2.5.6v.4c-.1,0-.3.4-.3.4l-.3.4-.4.4-.4.3-.7.2-.6,1.9-2.8,2.4-.3-2.5h-.4s-.3.2-.3.2l-.3.4h0c0,.1,0,.4,0,.4v.5s0,.5,0,.5v.4s-.2.4-.2.4l-.3.3-.4.4-.7.5h-.1c0,.1-.2.2-.2.2l-.6.7-.5.5-.3.5-.5.6-.5.5-.4.6-.4.5-.5.4-.5.3-.4.2h-.3c0-.1-.2-.2-.2-.2h-.1c0-.1-.1-.3-.1-.3l-.3-.5h-.6c0,.1-.8,2.7-.8,2.7h1s.3,1.2.3,1.2l1.4-.5,4.1,3.1,3-.8-1.4,5.3,2.3-.4h.6c0,0-.3,2-.3,2v1.6c0,0-.9,1.3-.9,1.3h0s-.6.7-.6.7l-.3.4-.3.4-.7.9-.4.6-.2.3v.2c-.1,0-.2.1-.2.1l-.4.6-.5.8-.3.5-.5,1-.3.5-.4.6-.2.3h-.1c0,.1-.1.3-.1.3h-.1c0,.1-.1.2-.1.2h-.2c0,0-.2.2-.2.2l-.3.2h-.2c0,0-.4.2-.4.2h-.4c0,.1-.2.2-.2.2h-.2s-.2,0-.2,0h-.2s-.2,0-.2,0h-.2s-.2,0-.2,0h-.4c0,0-.4-.2-.4-.2h-.2c0,0-.3-.2-.3-.2l-.3-.2h-.1c0-.1-.1-.2-.1-.2l-.3-.2-.8-.8-.3-.2h-.1c0-.1-.2-.2-.2-.2l-.3-.2-.3-.2h-.2c0,0-.4-.2-.4-.2h-.2c0,0-.4-.1-.4-.1h-.2s-.2,0-.2,0h-.2s-.2,0-.2,0h-.2s-.4,0-.4,0h-.2s-.4.1-.4.1h-.2c0,0-.3.2-.3.2h-.3c0,.1-.3.3-.3.3h-.2c0,0-.2.2-.2.2h-.1c0,.1-.3.3-.3.3l-.7.6-.3.2h-.2c0,0-.2.2-.2.2l-.3.2h-.4c0,.1-.7.4-.7.4h-.3c0,.1-.2.2-.2.2h-.2c0,0-.2.2-.2.2h-.1c0,.1-.1.2-.1.2h-.1c0,.1-.1.2-.1.2l-.2.3h-.1c0,.1-.2.4-.2.4l-.2.3-.7,1.1-.5.8-.5.8-.3.5-.3.5-.3.7-.2.3v.3c-.1,0-.3.5-.3.5v.3c-.1,0-.2.2-.2.2v.5c-.1,0-.2.6-.2.6v.5c0,0-.1.4-.1.4v1.1c0,0,0,.4,0,.4v.2s0,.2,0,.2l-.5.2h0s-.6.2-.6.2l-.7.6-.5.6-.4.8v.9s0,1.1,0,1.1l-.4.7-.5.5-.8.5-.8.6v.6c-.1,0-.5.7-.5.7l-.8.4-.5.4-.2.8v1s-.1.9-.1.9l-.3.8v.7c-.1,0-.2.7-.2.7l-.3.6-.6.8-.6.7-.5.7-.4.8-.2.7-.4,1-.7,1.3.5,4.2-.8.7-1.9.9h-.8c0,0-1.6-.8-1.6-.8l-.3-.6-.4-.9h-1c0,0-.5,0-.5,0l-.5-.9-.9-1.6-1.9-2-.4-.5-.8-1.7-.5-2.5.3-1.5.9-.2.2-10.9v-.8c.1,0,.3-.8.3-.8l.2-.8h0c0-.1-.1-1.4-.1-1.4l.2-.9.5-1.3.8-1.3.7-1,.8-.8.4-.3,1.5-1.2,1.2-.8.7-1.1.2-1v-1.2s-.1-1.3-.1-1.3l-.2-.9v-1c0,0-2.5-.5-2.5-.5h-.7c0-.1-.9-.6-.9-.6l.4-5,.9-3.4-1.3.2-6.7,1.2-1.3-2.3-3-4.9-13.4,7.1-1.1.6-2.4,1.3v-1.2c0,0-1.1-2.4-1.1-2.4l.5-2.5-.6-1-.8-1.3-.8-1-.3-.7-.4-.7-.6-.8-1-1.1-1.1-1-.6-.4-1-.3-.7-.2-.6-.4-.5-.6-.4-1-.2-.8-.5-2.2v-.8s0-.6,0-.6v-1c0,0,0-1.1,0-1.1l-.3-.8-.2-.3-.3-.4-.2-.7-4.2,2.3-13.5,4-4.7,1.4-4.9-.3h-3.4s-8-.4-8-.4l-7.2-.3-.7-3.1.2-2.8.6-2.4,1.4-4.8.7-2.3-5.8,2.7-2.3.3-2.5-1.4-2.9-2.7h-2.5s-2.6,0-2.6,0l-2.5.6-9.1,2.1-2.6.5-2.7.5-3.6.9-2.4.6-2.7.7-2.7,1.1-.6-3.3-.4-2-.2-1.2-.4-1.5-.3-1.3-2.7-7.5-4.7-14.1-4.8-1.6-3.8,1.3-3.7,1.7-2.6,1.2-2.1,1-6.7,2.9-2.3,1-3.4,1.5-2.9.8-5.5,2-1.1.4-.9.3-.3,3.6,4.3,16,3,10.8v1.3c-.1,0-2.5,5.8-2.5,5.8l-2.8,6.8h-2.5c0-.1-8.1-.8-8.1-.8l-4.6-.4h-.7c0,0-2.8-.4-2.8-.4l-1.8-.2h-.9c0,0-2.3-.3-2.3-.3l-2.4-.2-.4-5.6-.4-5.7-.2-2.7-3.9.3h-2.9c0,.1-1.1.2-1.1.2l-5.6-.3,1.3-7.1-5-2.9-5.4-3.2-5.3-4.6-7.7-7.5v-3.4c.1,0,.2-1.8.2-1.8l-5.5,3.4-4.4,2.8-3,1.9-12.2,7.7h0c0,0-4.9-7.5-4.9-7.5l-5.9-8.9-1.3-2.5v-1.1s0-1.3,0-1.3l-.5-.8-.4.3-1.7,1.4-1,.9-1.1,1-1.1,1-1.1,1-.7.6-.8.8-.8.8-2.1,2.1-.5.5-.9.9-1.3,1.3-.5.5-.3.3-.2.2-.4.3-.4.3-.3.2-.5.3-.5.2-.5.2-.6.2-.6.2-.6.2h-.4c0,0-.4.1-.4.1h-.4s-.4,0-.4,0h-.4s-.4,0-.4,0h-.4s-.4,0-.4,0h-.4s-.6,0-.6,0l-1-.2-.8-.3-1-.4-.9-.5-.9-.5-.6-.3-.5-.2-.5-.2h-.5c0,0-1-.2-1-.2h-.2s-.8,0-.8,0h-.7s-.7.1-.7.1l-.5.2-.8.3-.7.4-2,1.1-.7-9.2-.8-4.6-.4-2.3-1.3-4.8-5.7.2-10.7.7-2.5-.3-3.3,1.5-.6.3-4.1,1.9-5.7,2.2-5.4.4-2.3.6-29.1,16.1v4.2c0,0-1.2,4.4-1.2,4.4h.6s1.3-.2,1.3-.2l2.2-.4,2.3-.4,2.4-.4,1-.3.6-.2h.3c0,0,0,0,0,0v2.5c.1,0-2,1.2-2,1.2l-2.4.8-2.1.2-3.5.3-4.6-1.2-5.8-.8-1.9-1v-.5c-.1,0-.8,0-.8,0l-.8.7-7.5,8.7,1.5,1-.5,2.2-2.1-.4-2.3-2-.8-.7.3-3,2.9.2h1.1c0,0,4.6-5.2,4.6-5.2v-1.1c-.1,0-1.4-.6-1.4-.6l-1.3-.7,1.2-1.8-1.3-.6-.9-.4-.5.6-.6.7-.6.5-1,.7-1.5.9-.7.4h-1c0-.1-.8-.4-.8-.4l-3.1-3.1-1.9-2.5-.4-.8-.5-.5-.6-.3-.8-.3-2.7-1.7-.5-.4-.3-.5-.3-.8-.2-.7-.6-.7-1.2-1.3,1-1.7-1.4-1.2,3.7-.7-.8-4.1-1.5.2-3.1.5-.2,1.5-2,1.6-1.9-1.1v-1.9s-2.9,0-2.9,0l.3,1.8.7.9-1,1.3-1.5-.8-.9-.6-.9-.6-1.2-.9-.5-.2-.4-.2-.2-.4v-.4c-.1,0-.2-.4-.2-.4v-1.2s-1.4-7.8-1.4-7.8l5.8-2.9.4-.4,1.1-1.4.4-1,.2-.8.4-.6.7-.4h.7s.5.3.5.3l.6.4,2.2.9.7-1.6,1.1-.5.8-1.4,3.7-3.3v-.9s-.5-2.3-.5-2.3v-1s1.3-.8,1.3-.8l.3-.5.8-1.3.3-.5.2-.3.2-.3.3-.4.2-.3.4-.5.6-.5.9-.6,1.6-.8.6-.5.4-.6.4-.6.3-.9-2.9-2.9-.4-1.8v-1.4s-3-2.3-3-2.3l-1.3-1.8-3.6-4.7,1.8-3.6.3-1,.5-6.7-1.4-1.7v-.9c0,0,.1-1,.1-1l.3-1.4v-.8c0,0-.5-1.9-.5-1.9v-.6s0-.6,0-.6l.3-.6.4-.7.6-.6.7-.5.5-.5.2-.7v-.7c0,0,.2-.8.2-.8l.4-.7,1.2-1.6.4-.9.5-2.1v-1s0-3.3,0-3.3l.2-2.3,2.5-.5,2.5-.5,1-.6.9-1.1,2.7-3.5,9.9-12.7,4.7-6,4.6-5.1,5.1-5.4,5.2-5.6-7.9-4.9-1.7-1.1-5.6-3.4-1.7-.5-.7-1.8-1.2-.9-1.1.2-2.8.6-9.1,1.9-7.6.7.9-6.6.2-3.9v-2.9c.1,0,.3-2.5.3-2.5l.5-2.6,3.5-10.6.9-6.3,2.1-8,2.3-8.6,2.3,3.5,2.2,1.3,4.1.4,1.9.5,1.5-1.1,1.2-2.4-.2-2.6-.4-2.7-.3-1.8.6-2.6.9-4,1.1-2.1.7-1.2,2.3-6.8v-7.3s-2.7-6.6-2.7-6.6l-7.9,3.6-6.2,1.2-1.3-4.5h-1.9s.7-5.7.7-5.7h.8c0,.1,1.9,0,1.9,0h1c0,0,.6-.1.6-.1h.4c0,0,.6-.2.6-.2h.4c0,0,.4-.2.4-.2l.6-.2.6-.2.7-.3,1.2-.6.7-.3.7-.4,2.8-1.5.9-.4,1-.5.7-.4,4-5.8,2.6-2.4,5.8-1.7,1.3,1.1,2.3,1.3,4,2.3,4,.9,4.1,1.4,3.3,2.5,3.3,2.2,6.2,1.4,1.9,1.1.9.5,2.7,1.2.6-2.3,5.3.9,2.7.4,1.3-4.4-.2-1.7-.7-1.6-1.4-1.6-2.9-2.4-1.2-1.1-1.9-2-1.5-2.1h0c0-.1-2.9-4-2.9-4l-1-1.7-.3-1v-1.5c0,0,.2-.9.2-.9l.6-.5.8-.5,1-.5.8-.5.7-.7.5-1,6.2-12.9,1.5-.8,2.2-5.7.7-3.6v-1.4c0,0,5.7.6,5.7.6l2.2.5,5.4-.5h1c0,0,4.2-.5,4.2-.5l2.3,1.1,4.7-.5,4-.2h2.5c0,.1,3.1,1.1,3.1,1.1l.3-3.5.3-3.9.2-2.5-.8-3.2-1.2-2.2v-.9c-.1,0-.5-2.1-.5-2.1l3.6.9,1.3.3,11.3-1.9.8-15h-1.6c0-.1.3-3.2.3-3.2l.3-2.5.5-5,2.4.8,7,1.4,10.4-.2.5.7.5.6.5.6.5.7-7.8,5.2,3.3,6.4,3,6.2h.7c0,.1.1,1.1.1,1.1v.4c0,0-.3,1.9-.3,1.9l-1,1.5-.5.7.7,2.8-3.8,1.3,1.4,2.9,2.1,2.4.7,4-4.8,1.2v1.6s8.6-1.1,8.6-1.1l8.3,2.6,2.5.8,1.8.5,2.3,1.3,3.8,2.3.8-.3.9-.3.7-.2h.9c0,0,1.2-.2,1.2-.2h1.7s.3-1.8.3-1.8h5c0,.1,1.2,1.8,1.2,1.8l.7-.3.7-.3.4-.2h.2s.2,0,.2,0h.2s.2,0,.2,0h.2s.2,0,.2,0h.2c0,0,.2.1.2.1h.2c0,0,.5.4.5.4h.2c0,0,.2.2.2.2h.2c0,0,.2,0,.2,0h.2s.2,0,.2,0h.1c0,0,.2-.1.2-.1h.1c0,0,.3-.3.3-.3l.3-.2.8-.6.3-.2.3-.2h.2c0,0,.3-.2.3-.2l.5-.2,1.2-.4.5-.2.7-.3.5-.2.5-.2.5-.3.5-.3.3-.2.3-.2.9-.7.3-.2h.2c0-.1.2-.2.2-.2l.3-.2.9-.4.4-.2.3-.2h.1c0-.1.1-.2.1-.2h.1c0-.1.1-.2.1-.2h.2c0-.1.1-.3.1-.3v-.2c.1,0,.2-.2.2-.2v-.2c.1,0,.2-.2.2-.2v-.2c0,0,0-.2,0-.2v-.2s0-.2,0-.2v-.2c0,0-.1-.2-.1-.2l-.3-.6v-.2c0,0-.1-.2-.1-.2v-.2s0-.2,0-.2v-.2s0-.2,0-.2h0c0-.1,0-.3,0-.3h.1c0-.1.2-.4.2-.4l.2-.3.7-.7.3-.3,1.3-1.3,1.4-1.3.9-.6.9-.8.9-.7.6-.2h.9c0,0,.9-.3.9-.3l.9-.5,1.1-.8.6-.8.4-.9.2-1v-1s-.2-1.1-.2-1.1v-.5c.1,0,.4-.6.4-.6l.4-.5.6-.8.5-.7v-.8c.1,0,.3-.9.3-.9l.4-.8.4-.7,1-1.3,1.3-1.4.3-.2h.3s1.1.1,1.1.1l6.8,7.6,4.7-1.5.6,1.4,2.8,3.7,5.8,5.4,1.9-1.6,1.3-1.1,3.5.2.9-.6v-1.5c0,0-.3-3.3-.3-3.3l.5-3.6,2.7-.8,1.9-.6.8-5,4.7-1.3h6.2c0,.1-.5,2-.5,2l4.7.7.8-.7.8-.5.7-.9.9-.8,1.1-.8.9-.5,1.6-.6,1.3-.5.9-.8,1.3-1.2.6-.6.3-.6.2-.9v-.9c-.1,0-.2-.7-.2-.7v-.4s-2.2-.3-2.2-.3l-7-.9-1.9-1.7-1.6-1.5-2.3-2.1-3.4-1.7,1.3-1.5,5.7-6.7,5.2,2.4,4.7-6.3,2.9-4,1.5,1,1.2,1"/>
      </g>
      <g id="PathCollection_1">
        <rect class="cls-1" x="-25" y="126.2" width="413.7" height="257.7"/>
        <g>
          <path id="mdd07ca132b" class="cls-6" d="M370.7,213.2c1.3,0,2.6-.5,3.5-1.5s1.5-2.2,1.5-3.5-.5-2.6-1.5-3.5-2.2-1.5-3.5-1.5-2.6.5-3.5,1.5-1.5,2.2-1.5,3.5.5,2.6,1.5,3.5,2.2,1.5,3.5,1.5Z"/>
          <path id="mdd07ca132b-2" data-name="mdd07ca132b" class="cls-6" d="M270.2,202.3c1.3,0,2.6-.5,3.5-1.5s1.5-2.2,1.5-3.5-.5-2.6-1.5-3.5-2.2-1.5-3.5-1.5-2.6.5-3.5,1.5-1.5,2.2-1.5,3.5.5,2.6,1.5,3.5,2.2,1.5,3.5,1.5Z"/>
          <path id="mdd07ca132b-3" data-name="mdd07ca132b" class="cls-6" d="M231.5,250.3c1.3,0,2.6-.5,3.5-1.5s1.5-2.2,1.5-3.5-.5-2.6-1.5-3.5-2.2-1.5-3.5-1.5-2.6.5-3.5,1.5-1.5,2.2-1.5,3.5.5,2.6,1.5,3.5,2.2,1.5,3.5,1.5Z"/>
          <path id="mdd07ca132b-4" data-name="mdd07ca132b" class="cls-6" d="M287.9,194.8c1.3,0,2.6-.5,3.5-1.5s1.5-2.2,1.5-3.5-.5-2.6-1.5-3.5-2.2-1.5-3.5-1.5-2.6.5-3.5,1.5-1.5,2.2-1.5,3.5.5,2.6,1.5,3.5,2.2,1.5,3.5,1.5Z"/>
          <path id="mdd07ca132b-5" data-name="mdd07ca132b" class="cls-6" d="M235.4,178.7c1.3,0,2.6-.5,3.5-1.5s1.5-2.2,1.5-3.5-.5-2.6-1.5-3.5-2.2-1.5-3.5-1.5-2.6.5-3.5,1.5-1.5,2.2-1.5,3.5.5,2.6,1.5,3.5,2.2,1.5,3.5,1.5Z"/>
          <path id="mdd07ca132b-6" data-name="mdd07ca132b" class="cls-6" d="M284.3,240c1.3,0,2.6-.5,3.5-1.5s1.5-2.2,1.5-3.5-.5-2.6-1.5-3.5-2.2-1.5-3.5-1.5-2.6.5-3.5,1.5-1.5,2.2-1.5,3.5.5,2.6,1.5,3.5,2.2,1.5,3.5,1.5Z"/>
        </g>
      </g>
      <g id="PathCollection_2">
        <rect class="cls-1" x="-25" y="126.2" width="413.7" height="257.7"/>
        <g>
          <path id="m9d1b61a0b5" class="cls-9" d="M261.3,233.5c1.3,0,2.6-.5,3.5-1.5s1.5-2.2,1.5-3.5-.5-2.6-1.5-3.5-2.2-1.5-3.5-1.5-2.6.5-3.5,1.5-1.5,2.2-1.5,3.5.5,2.6,1.5,3.5,2.2,1.5,3.5,1.5Z"/>
          <path id="m9d1b61a0b5-2" data-name="m9d1b61a0b5" class="cls-9" d="M240.1,254.1c1.3,0,2.6-.5,3.5-1.5s1.5-2.2,1.5-3.5-.5-2.6-1.5-3.5-2.2-1.5-3.5-1.5-2.6.5-3.5,1.5-1.5,2.2-1.5,3.5.5,2.6,1.5,3.5,2.2,1.5,3.5,1.5Z"/>
          <path id="m9d1b61a0b5-3" data-name="m9d1b61a0b5" class="cls-9" d="M269.4,204.3c1.3,0,2.6-.5,3.5-1.5s1.5-2.2,1.5-3.5-.5-2.6-1.5-3.5-2.2-1.5-3.5-1.5-2.6.5-3.5,1.5-1.5,2.2-1.5,3.5.5,2.6,1.5,3.5,2.2,1.5,3.5,1.5Z"/>
          <path id="m9d1b61a0b5-4" data-name="m9d1b61a0b5" class="cls-9" d="M213.4,235.9c1.3,0,2.6-.5,3.5-1.5s1.5-2.2,1.5-3.5-.5-2.6-1.5-3.5-2.2-1.5-3.5-1.5-2.6.5-3.5,1.5-1.5,2.2-1.5,3.5.5,2.6,1.5,3.5,2.2,1.5,3.5,1.5Z"/>
          <path id="m9d1b61a0b5-5" data-name="m9d1b61a0b5" class="cls-9" d="M248.5,227.5c1.3,0,2.6-.5,3.5-1.5s1.5-2.2,1.5-3.5-.5-2.6-1.5-3.5-2.2-1.5-3.5-1.5-2.6.5-3.5,1.5-1.5,2.2-1.5,3.5.5,2.6,1.5,3.5,2.2,1.5,3.5,1.5Z"/>
        </g>
      </g>
      <g id="PathCollection_3">
        <rect class="cls-1" x="-25" y="126.2" width="413.7" height="257.7"/>
        <g>
          <path id="m1052daa0f2" class="cls-2" d="M250.6,183.1c1.3,0,2.6-.5,3.5-1.5s1.5-2.2,1.5-3.5-.5-2.6-1.5-3.5-2.2-1.5-3.5-1.5-2.6.5-3.5,1.5-1.5,2.2-1.5,3.5.5,2.6,1.5,3.5,2.2,1.5,3.5,1.5Z"/>
          <path id="m1052daa0f2-2" data-name="m1052daa0f2" class="cls-2" d="M296.1,254c1.3,0,2.6-.5,3.5-1.5s1.5-2.2,1.5-3.5-.5-2.6-1.5-3.5-2.2-1.5-3.5-1.5-2.6.5-3.5,1.5-1.5,2.2-1.5,3.5.5,2.6,1.5,3.5,2.2,1.5,3.5,1.5Z"/>
          <path id="m1052daa0f2-3" data-name="m1052daa0f2" class="cls-2" d="M282.8,239.6c1.3,0,2.6-.5,3.5-1.5s1.5-2.2,1.5-3.5-.5-2.6-1.5-3.5-2.2-1.5-3.5-1.5-2.6.5-3.5,1.5-1.5,2.2-1.5,3.5.5,2.6,1.5,3.5,2.2,1.5,3.5,1.5Z"/>
        </g>
      </g>
      <g id="PathCollection_4">
        <rect class="cls-1" x="-25" y="126.2" width="413.7" height="257.7"/>
        <g>
          <path id="m0b7424c2ed" class="cls-4" d="M258.4,200c1.3,0,2.6-.5,3.5-1.5s1.5-2.2,1.5-3.5-.5-2.6-1.5-3.5-2.2-1.5-3.5-1.5-2.6.5-3.5,1.5-1.5,2.2-1.5,3.5.5,2.6,1.5,3.5,2.2,1.5,3.5,1.5Z"/>
          <path id="m0b7424c2ed-2" data-name="m0b7424c2ed" class="cls-4" d="M213.1,204.4c1.3,0,2.6-.5,3.5-1.5s1.5-2.2,1.5-3.5-.5-2.6-1.5-3.5-2.2-1.5-3.5-1.5-2.6.5-3.5,1.5-1.5,2.2-1.5,3.5.5,2.6,1.5,3.5,2.2,1.5,3.5,1.5Z"/>
          <path id="m0b7424c2ed-3" data-name="m0b7424c2ed" class="cls-4" d="M299.8,249.6c1.3,0,2.6-.5,3.5-1.5s1.5-2.2,1.5-3.5-.5-2.6-1.5-3.5-2.2-1.5-3.5-1.5-2.6.5-3.5,1.5-1.5,2.2-1.5,3.5.5,2.6,1.5,3.5,2.2,1.5,3.5,1.5Z"/>
          <path id="m0b7424c2ed-4" data-name="m0b7424c2ed" class="cls-4" d="M261.7,214.4c1.3,0,2.6-.5,3.5-1.5s1.5-2.2,1.5-3.5-.5-2.6-1.5-3.5-2.2-1.5-3.5-1.5-2.6.5-3.5,1.5-1.5,2.2-1.5,3.5.5,2.6,1.5,3.5,2.2,1.5,3.5,1.5Z"/>
        </g>
      </g>
      <g id="PathCollection_5">
        <rect class="cls-1" x="-25" y="126.2" width="413.7" height="257.7"/>
        <g>
          <path id="m0eeeca11c1" class="cls-7" d="M285.4,192.6c1.3,0,2.6-.5,3.5-1.5s1.5-2.2,1.5-3.5-.5-2.6-1.5-3.5-2.2-1.5-3.5-1.5-2.6.5-3.5,1.5-1.5,2.2-1.5,3.5.5,2.6,1.5,3.5,2.2,1.5,3.5,1.5Z"/>
          <path id="m0eeeca11c1-2" data-name="m0eeeca11c1" class="cls-7" d="M285.3,235.4c1.3,0,2.6-.5,3.5-1.5s1.5-2.2,1.5-3.5-.5-2.6-1.5-3.5-2.2-1.5-3.5-1.5-2.6.5-3.5,1.5-1.5,2.2-1.5,3.5.5,2.6,1.5,3.5,2.2,1.5,3.5,1.5Z"/>
          <path id="m0eeeca11c1-3" data-name="m0eeeca11c1" class="cls-7" d="M273.3,188.2c1.3,0,2.6-.5,3.5-1.5s1.5-2.2,1.5-3.5-.5-2.6-1.5-3.5-2.2-1.5-3.5-1.5-2.6.5-3.5,1.5-1.5,2.2-1.5,3.5.5,2.6,1.5,3.5,2.2,1.5,3.5,1.5Z"/>
          <path id="m0eeeca11c1-4" data-name="m0eeeca11c1" class="cls-7" d="M286.7,246.1c1.3,0,2.6-.5,3.5-1.5s1.5-2.2,1.5-3.5-.5-2.6-1.5-3.5-2.2-1.5-3.5-1.5-2.6.5-3.5,1.5-1.5,2.2-1.5,3.5.5,2.6,1.5,3.5,2.2,1.5,3.5,1.5Z"/>
          <path id="m0eeeca11c1-5" data-name="m0eeeca11c1" class="cls-7" d="M270.6,207.7c1.3,0,2.6-.5,3.5-1.5s1.5-2.2,1.5-3.5-.5-2.6-1.5-3.5-2.2-1.5-3.5-1.5-2.6.5-3.5,1.5-1.5,2.2-1.5,3.5.5,2.6,1.5,3.5,2.2,1.5,3.5,1.5Z"/>
          <path id="m0eeeca11c1-6" data-name="m0eeeca11c1" class="cls-7" d="M292.7,258.7c1.3,0,2.6-.5,3.5-1.5s1.5-2.2,1.5-3.5-.5-2.6-1.5-3.5-2.2-1.5-3.5-1.5-2.6.5-3.5,1.5-1.5,2.2-1.5,3.5.5,2.6,1.5,3.5,2.2,1.5,3.5,1.5Z"/>
          <path id="m0eeeca11c1-7" data-name="m0eeeca11c1" class="cls-7" d="M213,207.7c1.3,0,2.6-.5,3.5-1.5s1.5-2.2,1.5-3.5-.5-2.6-1.5-3.5-2.2-1.5-3.5-1.5-2.6.5-3.5,1.5-1.5,2.2-1.5,3.5.5,2.6,1.5,3.5,2.2,1.5,3.5,1.5Z"/>
          <path id="m0eeeca11c1-8" data-name="m0eeeca11c1" class="cls-7" d="M315.8,227.7c1.3,0,2.6-.5,3.5-1.5s1.5-2.2,1.5-3.5-.5-2.6-1.5-3.5-2.2-1.5-3.5-1.5-2.6.5-3.5,1.5-1.5,2.2-1.5,3.5.5,2.6,1.5,3.5,2.2,1.5,3.5,1.5Z"/>
          <path id="m0eeeca11c1-9" data-name="m0eeeca11c1" class="cls-7" d="M265.5,254.4c1.3,0,2.6-.5,3.5-1.5s1.5-2.2,1.5-3.5-.5-2.6-1.5-3.5-2.2-1.5-3.5-1.5-2.6.5-3.5,1.5-1.5,2.2-1.5,3.5.5,2.6,1.5,3.5,2.2,1.5,3.5,1.5Z"/>
          <path id="m0eeeca11c1-10" data-name="m0eeeca11c1" class="cls-7" d="M287.4,197.2c1.3,0,2.6-.5,3.5-1.5s1.5-2.2,1.5-3.5-.5-2.6-1.5-3.5-2.2-1.5-3.5-1.5-2.6.5-3.5,1.5-1.5,2.2-1.5,3.5.5,2.6,1.5,3.5,2.2,1.5,3.5,1.5Z"/>
          <path id="m0eeeca11c1-11" data-name="m0eeeca11c1" class="cls-7" d="M275,211c1.3,0,2.6-.5,3.5-1.5s1.5-2.2,1.5-3.5-.5-2.6-1.5-3.5-2.2-1.5-3.5-1.5-2.6.5-3.5,1.5-1.5,2.2-1.5,3.5.5,2.6,1.5,3.5,2.2,1.5,3.5,1.5Z"/>
          <path id="m0eeeca11c1-12" data-name="m0eeeca11c1" class="cls-7" d="M285.9,239.4c1.3,0,2.6-.5,3.5-1.5s1.5-2.2,1.5-3.5-.5-2.6-1.5-3.5-2.2-1.5-3.5-1.5-2.6.5-3.5,1.5-1.5,2.2-1.5,3.5.5,2.6,1.5,3.5,2.2,1.5,3.5,1.5Z"/>
          <path id="m0eeeca11c1-13" data-name="m0eeeca11c1" class="cls-7" d="M262.5,228.8c1.3,0,2.6-.5,3.5-1.5s1.5-2.2,1.5-3.5-.5-2.6-1.5-3.5-2.2-1.5-3.5-1.5-2.6.5-3.5,1.5-1.5,2.2-1.5,3.5.5,2.6,1.5,3.5,2.2,1.5,3.5,1.5Z"/>
          <path id="m0eeeca11c1-14" data-name="m0eeeca11c1" class="cls-7" d="M270.5,253.6c1.3,0,2.6-.5,3.5-1.5s1.5-2.2,1.5-3.5-.5-2.6-1.5-3.5-2.2-1.5-3.5-1.5-2.6.5-3.5,1.5-1.5,2.2-1.5,3.5.5,2.6,1.5,3.5,2.2,1.5,3.5,1.5Z"/>
          <path id="m0eeeca11c1-15" data-name="m0eeeca11c1" class="cls-7" d="M287.9,244.5c1.3,0,2.6-.5,3.5-1.5s1.5-2.2,1.5-3.5-.5-2.6-1.5-3.5-2.2-1.5-3.5-1.5-2.6.5-3.5,1.5-1.5,2.2-1.5,3.5.5,2.6,1.5,3.5,2.2,1.5,3.5,1.5Z"/>
          <path id="m0eeeca11c1-16" data-name="m0eeeca11c1" class="cls-7" d="M297,242.9c1.3,0,2.6-.5,3.5-1.5s1.5-2.2,1.5-3.5-.5-2.6-1.5-3.5-2.2-1.5-3.5-1.5-2.6.5-3.5,1.5-1.5,2.2-1.5,3.5.5,2.6,1.5,3.5,2.2,1.5,3.5,1.5Z"/>
          <path id="m0eeeca11c1-17" data-name="m0eeeca11c1" class="cls-7" d="M286.3,249.9c1.3,0,2.6-.5,3.5-1.5s1.5-2.2,1.5-3.5-.5-2.6-1.5-3.5-2.2-1.5-3.5-1.5-2.6.5-3.5,1.5-1.5,2.2-1.5,3.5.5,2.6,1.5,3.5,2.2,1.5,3.5,1.5Z"/>
          <path id="m0eeeca11c1-18" data-name="m0eeeca11c1" class="cls-7" d="M324.4,234c1.3,0,2.6-.5,3.5-1.5s1.5-2.2,1.5-3.5-.5-2.6-1.5-3.5-2.2-1.5-3.5-1.5-2.6.5-3.5,1.5-1.5,2.2-1.5,3.5.5,2.6,1.5,3.5,2.2,1.5,3.5,1.5Z"/>
          <path id="m0eeeca11c1-19" data-name="m0eeeca11c1" class="cls-7" d="M261.6,222.4c1.3,0,2.6-.5,3.5-1.5s1.5-2.2,1.5-3.5-.5-2.6-1.5-3.5-2.2-1.5-3.5-1.5-2.6.5-3.5,1.5-1.5,2.2-1.5,3.5.5,2.6,1.5,3.5,2.2,1.5,3.5,1.5Z"/>
          <path id="m0eeeca11c1-20" data-name="m0eeeca11c1" class="cls-7" d="M280,254.9c1.3,0,2.6-.5,3.5-1.5s1.5-2.2,1.5-3.5-.5-2.6-1.5-3.5-2.2-1.5-3.5-1.5-2.6.5-3.5,1.5-1.5,2.2-1.5,3.5.5,2.6,1.5,3.5,2.2,1.5,3.5,1.5Z"/>
          <path id="m0eeeca11c1-21" data-name="m0eeeca11c1" class="cls-7" d="M156.1,332.8c1.3,0,2.6-.5,3.5-1.5s1.5-2.2,1.5-3.5-.5-2.6-1.5-3.5-2.2-1.5-3.5-1.5-2.6.5-3.5,1.5-1.5,2.2-1.5,3.5.5,2.6,1.5,3.5,2.2,1.5,3.5,1.5Z"/>
          <path id="m0eeeca11c1-22" data-name="m0eeeca11c1" class="cls-7" d="M259.4,230.8c1.3,0,2.6-.5,3.5-1.5s1.5-2.2,1.5-3.5-.5-2.6-1.5-3.5-2.2-1.5-3.5-1.5-2.6.5-3.5,1.5-1.5,2.2-1.5,3.5.5,2.6,1.5,3.5,2.2,1.5,3.5,1.5Z"/>
          <path id="m0eeeca11c1-23" data-name="m0eeeca11c1" class="cls-7" d="M291.9,252.1c1.3,0,2.6-.5,3.5-1.5s1.5-2.2,1.5-3.5-.5-2.6-1.5-3.5-2.2-1.5-3.5-1.5-2.6.5-3.5,1.5-1.5,2.2-1.5,3.5.5,2.6,1.5,3.5,2.2,1.5,3.5,1.5Z"/>
          <path id="m0eeeca11c1-24" data-name="m0eeeca11c1" class="cls-7" d="M303.6,241.5c1.3,0,2.6-.5,3.5-1.5s1.5-2.2,1.5-3.5-.5-2.6-1.5-3.5-2.2-1.5-3.5-1.5-2.6.5-3.5,1.5-1.5,2.2-1.5,3.5.5,2.6,1.5,3.5,2.2,1.5,3.5,1.5Z"/>
          <path id="m0eeeca11c1-25" data-name="m0eeeca11c1" class="cls-7" d="M310.3,220.2c1.3,0,2.6-.5,3.5-1.5s1.5-2.2,1.5-3.5-.5-2.6-1.5-3.5-2.2-1.5-3.5-1.5-2.6.5-3.5,1.5-1.5,2.2-1.5,3.5.5,2.6,1.5,3.5,2.2,1.5,3.5,1.5Z"/>
          <path id="m0eeeca11c1-26" data-name="m0eeeca11c1" class="cls-7" d="M272.2,173.4c1.3,0,2.6-.5,3.5-1.5s1.5-2.2,1.5-3.5-.5-2.6-1.5-3.5-2.2-1.5-3.5-1.5-2.6.5-3.5,1.5-1.5,2.2-1.5,3.5.5,2.6,1.5,3.5,2.2,1.5,3.5,1.5Z"/>
          <path id="m0eeeca11c1-27" data-name="m0eeeca11c1" class="cls-7" d="M270.8,201.9c1.3,0,2.6-.5,3.5-1.5s1.5-2.2,1.5-3.5-.5-2.6-1.5-3.5-2.2-1.5-3.5-1.5-2.6.5-3.5,1.5-1.5,2.2-1.5,3.5.5,2.6,1.5,3.5,2.2,1.5,3.5,1.5Z"/>
          <path id="m0eeeca11c1-28" data-name="m0eeeca11c1" class="cls-7" d="M260.8,254.9c1.3,0,2.6-.5,3.5-1.5s1.5-2.2,1.5-3.5-.5-2.6-1.5-3.5-2.2-1.5-3.5-1.5-2.6.5-3.5,1.5-1.5,2.2-1.5,3.5.5,2.6,1.5,3.5,2.2,1.5,3.5,1.5Z"/>
          <path id="m0eeeca11c1-29" data-name="m0eeeca11c1" class="cls-7" d="M294.6,238.4c1.3,0,2.6-.5,3.5-1.5s1.5-2.2,1.5-3.5-.5-2.6-1.5-3.5-2.2-1.5-3.5-1.5-2.6.5-3.5,1.5-1.5,2.2-1.5,3.5.5,2.6,1.5,3.5,2.2,1.5,3.5,1.5Z"/>
          <path id="m0eeeca11c1-30" data-name="m0eeeca11c1" class="cls-7" d="M272.9,255.5c1.3,0,2.6-.5,3.5-1.5s1.5-2.2,1.5-3.5-.5-2.6-1.5-3.5-2.2-1.5-3.5-1.5-2.6.5-3.5,1.5-1.5,2.2-1.5,3.5.5,2.6,1.5,3.5,2.2,1.5,3.5,1.5Z"/>
          <path id="m0eeeca11c1-31" data-name="m0eeeca11c1" class="cls-7" d="M243.2,182.9c1.3,0,2.6-.5,3.5-1.5s1.5-2.2,1.5-3.5-.5-2.6-1.5-3.5-2.2-1.5-3.5-1.5-2.6.5-3.5,1.5-1.5,2.2-1.5,3.5.5,2.6,1.5,3.5,2.2,1.5,3.5,1.5Z"/>
          <path id="m0eeeca11c1-32" data-name="m0eeeca11c1" class="cls-7" d="M271,204.1c1.3,0,2.6-.5,3.5-1.5s1.5-2.2,1.5-3.5-.5-2.6-1.5-3.5-2.2-1.5-3.5-1.5-2.6.5-3.5,1.5-1.5,2.2-1.5,3.5.5,2.6,1.5,3.5,2.2,1.5,3.5,1.5Z"/>
          <path id="m0eeeca11c1-33" data-name="m0eeeca11c1" class="cls-7" d="M275,205.6c1.3,0,2.6-.5,3.5-1.5s1.5-2.2,1.5-3.5-.5-2.6-1.5-3.5-2.2-1.5-3.5-1.5-2.6.5-3.5,1.5-1.5,2.2-1.5,3.5.5,2.6,1.5,3.5,2.2,1.5,3.5,1.5Z"/>
          <path id="m0eeeca11c1-34" data-name="m0eeeca11c1" class="cls-7" d="M256.9,212.8c1.3,0,2.6-.5,3.5-1.5s1.5-2.2,1.5-3.5-.5-2.6-1.5-3.5-2.2-1.5-3.5-1.5-2.6.5-3.5,1.5-1.5,2.2-1.5,3.5.5,2.6,1.5,3.5,2.2,1.5,3.5,1.5Z"/>
          <path id="m0eeeca11c1-35" data-name="m0eeeca11c1" class="cls-7" d="M289,267c1.3,0,2.6-.5,3.5-1.5s1.5-2.2,1.5-3.5-.5-2.6-1.5-3.5-2.2-1.5-3.5-1.5-2.6.5-3.5,1.5-1.5,2.2-1.5,3.5.5,2.6,1.5,3.5,2.2,1.5,3.5,1.5Z"/>
          <path id="m0eeeca11c1-36" data-name="m0eeeca11c1" class="cls-7" d="M283.2,249.3c1.3,0,2.6-.5,3.5-1.5s1.5-2.2,1.5-3.5-.5-2.6-1.5-3.5-2.2-1.5-3.5-1.5-2.6.5-3.5,1.5-1.5,2.2-1.5,3.5.5,2.6,1.5,3.5,2.2,1.5,3.5,1.5Z"/>
          <path id="m0eeeca11c1-37" data-name="m0eeeca11c1" class="cls-7" d="M266.9,202.7c1.3,0,2.6-.5,3.5-1.5s1.5-2.2,1.5-3.5-.5-2.6-1.5-3.5-2.2-1.5-3.5-1.5-2.6.5-3.5,1.5-1.5,2.2-1.5,3.5.5,2.6,1.5,3.5,2.2,1.5,3.5,1.5Z"/>
          <path id="m0eeeca11c1-38" data-name="m0eeeca11c1" class="cls-7" d="M264.2,199.3c1.3,0,2.6-.5,3.5-1.5s1.5-2.2,1.5-3.5-.5-2.6-1.5-3.5-2.2-1.5-3.5-1.5-2.6.5-3.5,1.5-1.5,2.2-1.5,3.5.5,2.6,1.5,3.5,2.2,1.5,3.5,1.5Z"/>
          <path id="m0eeeca11c1-39" data-name="m0eeeca11c1" class="cls-7" d="M295.9,278.5c1.3,0,2.6-.5,3.5-1.5s1.5-2.2,1.5-3.5-.5-2.6-1.5-3.5-2.2-1.5-3.5-1.5-2.6.5-3.5,1.5-1.5,2.2-1.5,3.5.5,2.6,1.5,3.5,2.2,1.5,3.5,1.5Z"/>
          <path id="m0eeeca11c1-40" data-name="m0eeeca11c1" class="cls-7" d="M273.4,195.2c1.3,0,2.6-.5,3.5-1.5s1.5-2.2,1.5-3.5-.5-2.6-1.5-3.5-2.2-1.5-3.5-1.5-2.6.5-3.5,1.5-1.5,2.2-1.5,3.5.5,2.6,1.5,3.5,2.2,1.5,3.5,1.5Z"/>
          <path id="m0eeeca11c1-41" data-name="m0eeeca11c1" class="cls-7" d="M259.3,206.6c1.3,0,2.6-.5,3.5-1.5s1.5-2.2,1.5-3.5-.5-2.6-1.5-3.5-2.2-1.5-3.5-1.5-2.6.5-3.5,1.5-1.5,2.2-1.5,3.5.5,2.6,1.5,3.5,2.2,1.5,3.5,1.5Z"/>
          <path id="m0eeeca11c1-42" data-name="m0eeeca11c1" class="cls-7" d="M295.2,283c1.3,0,2.6-.5,3.5-1.5s1.5-2.2,1.5-3.5-.5-2.6-1.5-3.5-2.2-1.5-3.5-1.5-2.6.5-3.5,1.5-1.5,2.2-1.5,3.5.5,2.6,1.5,3.5,2.2,1.5,3.5,1.5Z"/>
          <path id="m0eeeca11c1-43" data-name="m0eeeca11c1" class="cls-7" d="M308.9,252.5c1.3,0,2.6-.5,3.5-1.5s1.5-2.2,1.5-3.5-.5-2.6-1.5-3.5-2.2-1.5-3.5-1.5-2.6.5-3.5,1.5-1.5,2.2-1.5,3.5.5,2.6,1.5,3.5,2.2,1.5,3.5,1.5Z"/>
          <path id="m0eeeca11c1-44" data-name="m0eeeca11c1" class="cls-7" d="M304.8,241.1c1.3,0,2.6-.5,3.5-1.5s1.5-2.2,1.5-3.5-.5-2.6-1.5-3.5-2.2-1.5-3.5-1.5-2.6.5-3.5,1.5-1.5,2.2-1.5,3.5.5,2.6,1.5,3.5,2.2,1.5,3.5,1.5Z"/>
          <path id="m0eeeca11c1-45" data-name="m0eeeca11c1" class="cls-7" d="M277,203.6c1.3,0,2.6-.5,3.5-1.5s1.5-2.2,1.5-3.5-.5-2.6-1.5-3.5-2.2-1.5-3.5-1.5-2.6.5-3.5,1.5-1.5,2.2-1.5,3.5.5,2.6,1.5,3.5,2.2,1.5,3.5,1.5Z"/>
          <path id="m0eeeca11c1-46" data-name="m0eeeca11c1" class="cls-7" d="M274.3,208.8c1.3,0,2.6-.5,3.5-1.5s1.5-2.2,1.5-3.5-.5-2.6-1.5-3.5-2.2-1.5-3.5-1.5-2.6.5-3.5,1.5-1.5,2.2-1.5,3.5.5,2.6,1.5,3.5,2.2,1.5,3.5,1.5Z"/>
          <path id="m0eeeca11c1-47" data-name="m0eeeca11c1" class="cls-7" d="M253.2,197.2c1.3,0,2.6-.5,3.5-1.5s1.5-2.2,1.5-3.5-.5-2.6-1.5-3.5-2.2-1.5-3.5-1.5-2.6.5-3.5,1.5-1.5,2.2-1.5,3.5.5,2.6,1.5,3.5,2.2,1.5,3.5,1.5Z"/>
          <path id="m0eeeca11c1-48" data-name="m0eeeca11c1" class="cls-7" d="M300.1,240.1c1.3,0,2.6-.5,3.5-1.5s1.5-2.2,1.5-3.5-.5-2.6-1.5-3.5-2.2-1.5-3.5-1.5-2.6.5-3.5,1.5-1.5,2.2-1.5,3.5.5,2.6,1.5,3.5,2.2,1.5,3.5,1.5Z"/>
          <path id="m0eeeca11c1-49" data-name="m0eeeca11c1" class="cls-7" d="M269,149.2c1.3,0,2.6-.5,3.5-1.5s1.5-2.2,1.5-3.5-.5-2.6-1.5-3.5-2.2-1.5-3.5-1.5-2.6.5-3.5,1.5-1.5,2.2-1.5,3.5.5,2.6,1.5,3.5,2.2,1.5,3.5,1.5Z"/>
          <path id="m0eeeca11c1-50" data-name="m0eeeca11c1" class="cls-7" d="M266.9,202.7c1.3,0,2.6-.5,3.5-1.5s1.5-2.2,1.5-3.5-.5-2.6-1.5-3.5-2.2-1.5-3.5-1.5-2.6.5-3.5,1.5-1.5,2.2-1.5,3.5.5,2.6,1.5,3.5,2.2,1.5,3.5,1.5Z"/>
          <path id="m0eeeca11c1-51" data-name="m0eeeca11c1" class="cls-7" d="M271.8,204.5c1.3,0,2.6-.5,3.5-1.5s1.5-2.2,1.5-3.5-.5-2.6-1.5-3.5-2.2-1.5-3.5-1.5-2.6.5-3.5,1.5-1.5,2.2-1.5,3.5.5,2.6,1.5,3.5,2.2,1.5,3.5,1.5Z"/>
        </g>
      </g>
      <g id="PathCollection_6">
        <rect class="cls-1" x="-25" y="126.2" width="413.7" height="257.7"/>
        <g>
          <path id="m52668eff80" class="cls-3" d="M291.7,251c1.3,0,2.6-.5,3.5-1.5s1.5-2.2,1.5-3.5-.5-2.6-1.5-3.5-2.2-1.5-3.5-1.5-2.6.5-3.5,1.5-1.5,2.2-1.5,3.5.5,2.6,1.5,3.5,2.2,1.5,3.5,1.5Z"/>
          <path id="m52668eff80-2" data-name="m52668eff80" class="cls-3" d="M255.9,200.6c1.3,0,2.6-.5,3.5-1.5s1.5-2.2,1.5-3.5-.5-2.6-1.5-3.5-2.2-1.5-3.5-1.5-2.6.5-3.5,1.5-1.5,2.2-1.5,3.5.5,2.6,1.5,3.5,2.2,1.5,3.5,1.5Z"/>
          <path id="m52668eff80-3" data-name="m52668eff80" class="cls-3" d="M270.4,201.3c1.3,0,2.6-.5,3.5-1.5s1.5-2.2,1.5-3.5-.5-2.6-1.5-3.5-2.2-1.5-3.5-1.5-2.6.5-3.5,1.5-1.5,2.2-1.5,3.5.5,2.6,1.5,3.5,2.2,1.5,3.5,1.5Z"/>
          <path id="m52668eff80-4" data-name="m52668eff80" class="cls-3" d="M277.6,201.4c1.3,0,2.6-.5,3.5-1.5s1.5-2.2,1.5-3.5-.5-2.6-1.5-3.5-2.2-1.5-3.5-1.5-2.6.5-3.5,1.5-1.5,2.2-1.5,3.5.5,2.6,1.5,3.5,2.2,1.5,3.5,1.5Z"/>
          <path id="m52668eff80-5" data-name="m52668eff80" class="cls-3" d="M248.7,229.8c1.3,0,2.6-.5,3.5-1.5s1.5-2.2,1.5-3.5-.5-2.6-1.5-3.5-2.2-1.5-3.5-1.5-2.6.5-3.5,1.5-1.5,2.2-1.5,3.5.5,2.6,1.5,3.5,2.2,1.5,3.5,1.5Z"/>
          <path id="m52668eff80-6" data-name="m52668eff80" class="cls-3" d="M272.3,208.6c1.3,0,2.6-.5,3.5-1.5s1.5-2.2,1.5-3.5-.5-2.6-1.5-3.5-2.2-1.5-3.5-1.5-2.6.5-3.5,1.5-1.5,2.2-1.5,3.5.5,2.6,1.5,3.5,2.2,1.5,3.5,1.5Z"/>
          <path id="m52668eff80-7" data-name="m52668eff80" class="cls-3" d="M290.7,249.3c1.3,0,2.6-.5,3.5-1.5s1.5-2.2,1.5-3.5-.5-2.6-1.5-3.5-2.2-1.5-3.5-1.5-2.6.5-3.5,1.5-1.5,2.2-1.5,3.5.5,2.6,1.5,3.5,2.2,1.5,3.5,1.5Z"/>
          <path id="m52668eff80-8" data-name="m52668eff80" class="cls-3" d="M281,201.4c1.3,0,2.6-.5,3.5-1.5s1.5-2.2,1.5-3.5-.5-2.6-1.5-3.5-2.2-1.5-3.5-1.5-2.6.5-3.5,1.5-1.5,2.2-1.5,3.5.5,2.6,1.5,3.5,2.2,1.5,3.5,1.5Z"/>
          <path id="m52668eff80-9" data-name="m52668eff80" class="cls-3" d="M267.5,204.8c1.3,0,2.6-.5,3.5-1.5s1.5-2.2,1.5-3.5-.5-2.6-1.5-3.5-2.2-1.5-3.5-1.5-2.6.5-3.5,1.5-1.5,2.2-1.5,3.5.5,2.6,1.5,3.5,2.2,1.5,3.5,1.5Z"/>
        </g>
      </g>
      <g id="text_1">
        <g>
          <path id="DejaVuSans-42" d="M138.3,214.7v3h1.8c.6,0,1-.1,1.3-.4.3-.2.4-.6.4-1.1s-.1-.9-.4-1.1c-.3-.2-.7-.4-1.3-.4h-1.8ZM138.3,211.2v2.5h1.7c.5,0,1-.1,1.2-.3.3-.2.4-.5.4-.9s-.1-.7-.4-.9c-.3-.2-.7-.3-1.2-.3h-1.7ZM137.2,210.3h2.9c.9,0,1.5.2,2,.5.5.4.7.9.7,1.5s-.1.9-.4,1.2-.6.5-1,.6c.6.1,1,.4,1.3.7.3.4.5.8.5,1.4s-.3,1.3-.8,1.7c-.5.4-1.2.6-2.1.6h-3v-8.3Z"/>
          <path id="DejaVuSans-72" d="M148.6,213.3c-.1,0-.2-.1-.4-.1-.1,0-.3,0-.4,0-.6,0-1,.2-1.3.6s-.5.9-.5,1.6v3.3h-1v-6.2h1v1c.2-.4.5-.7.8-.8.3-.2.8-.3,1.3-.3s.1,0,.2,0c0,0,.2,0,.3,0v1Z"/>
          <path id="DejaVuSans-61" d="M152.5,215.5c-.8,0-1.4,0-1.7.3s-.5.5-.5,1,.1.6.4.9c.2.2.6.3,1,.3s1-.2,1.4-.6.5-.9.5-1.6v-.2h-1ZM154.5,215.1v3.5h-1v-.9c-.2.4-.5.7-.9.8-.3.2-.8.3-1.3.3s-1.1-.2-1.5-.5c-.4-.4-.6-.8-.6-1.4s.2-1.2.7-1.6c.5-.4,1.2-.5,2.1-.5h1.4c0-.6-.2-.9-.5-1.2s-.7-.4-1.3-.4-.7,0-1,.1c-.3,0-.7.2-1,.4v-.9c.4-.1.7-.3,1.1-.3.4,0,.7-.1,1-.1.9,0,1.6.2,2,.7.4.5.7,1.2.7,2.1Z"/>
          <path id="DejaVuSans-6e" d="M161.8,214.9v3.7h-1v-3.7c0-.6-.1-1-.3-1.3-.2-.3-.6-.4-1-.4s-1,.2-1.3.5c-.3.3-.5.8-.5,1.4v3.5h-1v-6.2h1v1c.2-.4.5-.7.9-.8.3-.2.7-.3,1.1-.3.7,0,1.3.2,1.6.7.4.4.5,1.1.5,1.9Z"/>
          <path id="DejaVuSans-64" d="M167.9,213.3v-3.4h1v8.6h-1v-.9c-.2.4-.5.6-.8.8-.3.2-.7.3-1.2.3-.7,0-1.4-.3-1.8-.9-.5-.6-.7-1.4-.7-2.4s.2-1.8.7-2.4c.5-.6,1.1-.9,1.8-.9s.9,0,1.2.3c.3.2.6.5.8.8ZM164.4,215.5c0,.7.2,1.3.5,1.8.3.4.7.6,1.3.6s1-.2,1.3-.6c.3-.4.5-1,.5-1.8s-.2-1.3-.5-1.8c-.3-.4-.7-.6-1.3-.6s-1,.2-1.3.6-.5,1-.5,1.8Z"/>
          <path id="DejaVuSans-65" d="M176.3,215.2v.5h-4.7c0,.7.3,1.2.6,1.6.4.4.9.6,1.6.6s.8,0,1.1-.1.7-.2,1.1-.4v1c-.4.2-.7.3-1.1.4s-.8.1-1.2.1c-1,0-1.8-.3-2.4-.9-.6-.6-.9-1.4-.9-2.3s.3-1.8.8-2.4c.5-.6,1.3-.9,2.2-.9s1.5.3,2,.8c.5.5.7,1.3.7,2.2ZM175.3,214.9c0-.6-.2-1-.5-1.3-.3-.3-.7-.5-1.2-.5s-1,.2-1.4.5-.5.8-.6,1.4h3.6Z"/>
          <path id="DejaVuSans-6e-2" data-name="DejaVuSans-6e" d="M183.1,214.9v3.7h-1v-3.7c0-.6-.1-1-.3-1.3-.2-.3-.6-.4-1-.4s-1,.2-1.3.5c-.3.3-.5.8-.5,1.4v3.5h-1v-6.2h1v1c.2-.4.5-.7.9-.8.3-.2.7-.3,1.1-.3.7,0,1.3.2,1.6.7.4.4.5,1.1.5,1.9Z"/>
          <path id="DejaVuSans-62" d="M189.6,215.5c0-.7-.2-1.3-.5-1.8s-.7-.6-1.3-.6-1,.2-1.3.6-.5,1-.5,1.8.2,1.3.5,1.8c.3.4.7.6,1.3.6s1-.2,1.3-.6c.3-.4.5-1,.5-1.8ZM186.1,213.3c.2-.4.5-.6.8-.8.3-.2.7-.3,1.2-.3.8,0,1.4.3,1.8.9.5.6.7,1.4.7,2.4s-.2,1.8-.7,2.4c-.5.6-1.1.9-1.8.9s-.8,0-1.2-.3c-.3-.2-.6-.5-.8-.8v.9h-1v-8.6h1v3.4Z"/>
          <path id="DejaVuSans-75" d="M192.3,216.2v-3.8h1v3.7c0,.6.1,1,.3,1.3.2.3.6.4,1,.4s1-.2,1.3-.5c.3-.4.5-.8.5-1.4v-3.5h1v6.2h-1v-1c-.2.4-.5.7-.9.8-.3.2-.7.3-1.1.3-.7,0-1.3-.2-1.6-.7-.4-.4-.6-1.1-.6-1.9ZM194.8,212.2h0Z"/>
          <path id="DejaVuSans-72-2" data-name="DejaVuSans-72" d="M203.2,213.3c-.1,0-.2-.1-.4-.1-.1,0-.3,0-.4,0-.6,0-1,.2-1.3.6s-.5.9-.5,1.6v3.3h-1v-6.2h1v1c.2-.4.5-.7.8-.8.3-.2.8-.3,1.3-.3s.1,0,.2,0c0,0,.2,0,.3,0v1Z"/>
          <path id="DejaVuSans-67" d="M208.1,215.4c0-.7-.2-1.3-.5-1.7-.3-.4-.7-.6-1.3-.6s-1,.2-1.3.6c-.3.4-.5,1-.5,1.7s.2,1.3.5,1.7c.3.4.7.6,1.3.6s1-.2,1.3-.6c.3-.4.5-1,.5-1.7ZM209.1,217.8c0,1.1-.2,1.8-.7,2.4-.5.5-1.2.8-2.2.8s-.7,0-1,0-.6-.1-.9-.2v-1c.3.2.6.3.9.4.3,0,.6.1.9.1.7,0,1.2-.2,1.5-.5.3-.3.5-.9.5-1.6v-.5c-.2.4-.5.6-.8.8s-.7.3-1.2.3c-.8,0-1.4-.3-1.8-.9-.5-.6-.7-1.3-.7-2.3s.2-1.7.7-2.3c.5-.6,1.1-.9,1.8-.9s.9,0,1.2.3.6.5.8.8v-.9h1v5.4Z"/>
          <path id="DejaVuSans-47" d="M220.5,217.4v-2.2h-1.8v-.9h2.9v3.6c-.4.3-.9.5-1.4.7-.5.2-1.1.2-1.7.2-1.3,0-2.3-.4-3-1.1-.7-.8-1.1-1.8-1.1-3.2s.4-2.4,1.1-3.2c.7-.8,1.7-1.1,3-1.1s1.1,0,1.5.2c.5.1.9.3,1.3.6v1.2c-.4-.4-.9-.6-1.3-.8s-1-.3-1.5-.3c-1,0-1.8.3-2.3.8-.5.6-.8,1.4-.8,2.5s.3,2,.8,2.5c.5.6,1.3.8,2.3.8s.7,0,1.1-.1c.3,0,.6-.2.8-.3Z"/>
          <path id="DejaVuSans-61-2" data-name="DejaVuSans-61" d="M226.5,215.5c-.8,0-1.4,0-1.7.3s-.5.5-.5,1,.1.6.4.9c.2.2.6.3,1,.3s1-.2,1.4-.6.5-.9.5-1.6v-.2h-1ZM228.5,215.1v3.5h-1v-.9c-.2.4-.5.7-.9.8-.3.2-.8.3-1.3.3s-1.1-.2-1.5-.5c-.4-.4-.6-.8-.6-1.4s.2-1.2.7-1.6c.5-.4,1.2-.5,2.1-.5h1.4c0-.6-.2-.9-.5-1.2s-.7-.4-1.3-.4-.7,0-1,.1c-.3,0-.7.2-1,.4v-.9c.4-.1.7-.3,1.1-.3.4,0,.7-.1,1-.1.9,0,1.6.2,2,.7.4.5.7,1.2.7,2.1Z"/>
          <path id="DejaVuSans-74" d="M231.6,210.6v1.8h2.1v.8h-2.1v3.4c0,.5,0,.8.2,1s.4.2.8.2h1v.9h-1c-.8,0-1.3-.1-1.6-.4-.3-.3-.4-.8-.4-1.6v-3.4h-.7v-.8h.7v-1.8h1Z"/>
          <path id="DejaVuSans-65-2" data-name="DejaVuSans-65" d="M240.3,215.2v.5h-4.7c0,.7.3,1.2.6,1.6.4.4.9.6,1.6.6s.8,0,1.1-.1.7-.2,1.1-.4v1c-.4.2-.7.3-1.1.4s-.8.1-1.2.1c-1,0-1.8-.3-2.4-.9-.6-.6-.9-1.4-.9-2.3s.3-1.8.8-2.4c.5-.6,1.3-.9,2.2-.9s1.5.3,2,.8c.5.5.7,1.3.7,2.2ZM239.3,214.9c0-.6-.2-1-.5-1.3-.3-.3-.7-.5-1.2-.5s-1,.2-1.4.5-.5.8-.6,1.4h3.6Z"/>
        </g>
      </g>
      <g id="text_2">
        <g>
          <path id="DejaVuSans-42-2" data-name="DejaVuSans-42" d="M284.2,207.9v3h1.8c.6,0,1-.1,1.3-.4.3-.2.4-.6.4-1.1s-.1-.9-.4-1.1c-.3-.2-.7-.4-1.3-.4h-1.8ZM284.2,204.5v2.5h1.7c.5,0,1-.1,1.2-.3.3-.2.4-.5.4-.9s-.1-.7-.4-.9c-.3-.2-.7-.3-1.2-.3h-1.7ZM283.1,203.6h2.9c.9,0,1.5.2,2,.5.5.4.7.9.7,1.5s-.1.9-.4,1.2-.6.5-1,.6c.6.1,1,.4,1.3.7.3.4.5.8.5,1.4s-.3,1.3-.8,1.7c-.5.4-1.2.6-2.1.6h-3v-8.3Z"/>
          <path id="DejaVuSans-65-3" data-name="DejaVuSans-65" d="M296.2,208.5v.5h-4.7c0,.7.3,1.2.6,1.6.4.4.9.6,1.6.6s.8,0,1.1-.1.7-.2,1.1-.4v1c-.4.2-.7.3-1.1.4s-.8.1-1.2.1c-1,0-1.8-.3-2.4-.9-.6-.6-.9-1.4-.9-2.3s.3-1.8.8-2.4c.5-.6,1.3-.9,2.2-.9s1.5.3,2,.8c.5.5.7,1.3.7,2.2ZM295.2,208.2c0-.6-.2-1-.5-1.3-.3-.3-.7-.5-1.2-.5s-1,.2-1.4.5-.5.8-.6,1.4h3.6Z"/>
          <path id="DejaVuSans-72-3" data-name="DejaVuSans-72" d="M301.4,206.6c-.1,0-.2-.1-.4-.1-.1,0-.3,0-.4,0-.6,0-1,.2-1.3.6s-.5.9-.5,1.6v3.3h-1v-6.2h1v1c.2-.4.5-.7.8-.8.3-.2.8-.3,1.3-.3s.1,0,.2,0c0,0,.2,0,.3,0v1Z"/>
          <path id="DejaVuSans-6c" d="M302.5,203.3h1v8.6h-1v-8.6Z"/>
          <path id="DejaVuSans-69" d="M305.7,205.7h1v6.2h-1v-6.2ZM305.7,203.3h1v1.3h-1v-1.3Z"/>
          <path id="DejaVuSans-6e-3" data-name="DejaVuSans-6e" d="M314,208.2v3.7h-1v-3.7c0-.6-.1-1-.3-1.3-.2-.3-.6-.4-1-.4s-1,.2-1.3.5c-.3.3-.5.8-.5,1.4v3.5h-1v-6.2h1v1c.2-.4.5-.7.9-.8.3-.2.7-.3,1.1-.3.7,0,1.3.2,1.6.7.4.4.5,1.1.5,1.9Z"/>
          <path id="DejaVuSans-54" d="M318.5,203.6h7v.9h-2.9v7.3h-1.1v-7.3h-2.9v-.9Z"/>
          <path id="DejaVuSans-56" d="M328.7,211.9l-3.2-8.3h1.2l2.6,7,2.6-7h1.2l-3.2,8.3h-1.3Z"/>
          <path id="DejaVuSans-54-2" data-name="DejaVuSans-54" d="M336.8,203.6h7v.9h-2.9v7.3h-1.1v-7.3h-2.9v-.9Z"/>
          <path id="DejaVuSans-6f" d="M345.3,206.4c-.5,0-1,.2-1.3.6s-.5,1-.5,1.8.2,1.3.5,1.8c.3.4.8.6,1.3.6s1-.2,1.3-.6c.3-.4.5-1,.5-1.8s-.2-1.3-.5-1.7c-.3-.4-.7-.6-1.3-.6ZM345.3,205.5c.9,0,1.6.3,2.1.9.5.6.8,1.4.8,2.4s-.3,1.8-.8,2.4c-.5.6-1.2.9-2.1.9s-1.6-.3-2.1-.9c-.5-.6-.8-1.4-.8-2.4s.3-1.8.8-2.4c.5-.6,1.2-.9,2.1-.9Z"/>
          <path id="DejaVuSans-77" d="M349.3,205.7h1l1.3,4.8,1.3-4.8h1.2l1.3,4.8,1.3-4.8h1l-1.6,6.2h-1.2l-1.3-5.1-1.3,5.1h-1.2l-1.6-6.2Z"/>
          <path id="DejaVuSans-65-4" data-name="DejaVuSans-65" d="M364.5,208.5v.5h-4.7c0,.7.3,1.2.6,1.6.4.4.9.6,1.6.6s.8,0,1.1-.1.7-.2,1.1-.4v1c-.4.2-.7.3-1.1.4s-.8.1-1.2.1c-1,0-1.8-.3-2.4-.9-.6-.6-.9-1.4-.9-2.3s.3-1.8.8-2.4c.5-.6,1.3-.9,2.2-.9s1.5.3,2,.8c.5.5.7,1.3.7,2.2ZM363.4,208.2c0-.6-.2-1-.5-1.3-.3-.3-.7-.5-1.2-.5s-1,.2-1.4.5-.5.8-.6,1.4h3.6Z"/>
          <path id="DejaVuSans-72-4" data-name="DejaVuSans-72" d="M369.7,206.6c-.1,0-.2-.1-.4-.1-.1,0-.3,0-.4,0-.6,0-1,.2-1.3.6s-.5.9-.5,1.6v3.3h-1v-6.2h1v1c.2-.4.5-.7.8-.8.3-.2.8-.3,1.3-.3s.1,0,.2,0c0,0,.2,0,.3,0v1Z"/>
        </g>
      </g>
      <g id="text_3">
        <g>
          <path id="DejaVuSans-43" d="M274.4,221.7v1.2c-.4-.4-.8-.6-1.2-.8-.4-.2-.9-.3-1.4-.3-.9,0-1.7.3-2.2.9s-.8,1.4-.8,2.5.3,1.9.8,2.5,1.2.9,2.2.9.9,0,1.4-.3.8-.4,1.2-.8v1.2c-.4.3-.8.5-1.2.6-.4.1-.9.2-1.4.2-1.3,0-2.2-.4-3-1.1-.7-.8-1.1-1.8-1.1-3.1s.4-2.4,1.1-3.1c.7-.8,1.7-1.2,3-1.2s1,0,1.4.2c.4.1.8.3,1.2.6Z"/>
          <path id="DejaVuSans-68" d="M281.3,225.5v3.7h-1v-3.7c0-.6-.1-1-.3-1.3-.2-.3-.6-.4-1-.4s-1,.2-1.3.5c-.3.3-.5.8-.5,1.4v3.5h-1v-8.6h1v3.4c.2-.4.5-.7.9-.8.3-.2.7-.3,1.1-.3.7,0,1.3.2,1.6.7.4.4.5,1.1.5,1.9Z"/>
          <path id="DejaVuSans-65-5" data-name="DejaVuSans-65" d="M288.6,225.9v.5h-4.7c0,.7.3,1.2.6,1.6.4.4.9.6,1.6.6s.8,0,1.1-.1.7-.2,1.1-.4v1c-.4.2-.7.3-1.1.4s-.8.1-1.2.1c-1,0-1.8-.3-2.4-.9-.6-.6-.9-1.4-.9-2.3s.3-1.8.8-2.4c.5-.6,1.3-.9,2.2-.9s1.5.3,2,.8c.5.5.7,1.3.7,2.2ZM287.6,225.6c0-.6-.2-1-.5-1.3-.3-.3-.7-.5-1.2-.5s-1,.2-1.4.5-.5.8-.6,1.4h3.6Z"/>
          <path id="DejaVuSans-63" d="M294.7,223.3v1c-.3-.2-.6-.3-.9-.4s-.6-.1-.9-.1c-.7,0-1.2.2-1.5.6-.4.4-.5,1-.5,1.8s.2,1.3.5,1.8c.4.4.9.6,1.5.6s.6,0,.9-.1.6-.2.9-.4v.9c-.3.1-.6.2-.9.3-.3,0-.6.1-1,.1-.9,0-1.7-.3-2.2-.9-.5-.6-.8-1.4-.8-2.4s.3-1.8.8-2.4c.6-.6,1.3-.9,2.3-.9s.6,0,.9,0c.3,0,.6.2.9.3Z"/>
          <path id="DejaVuSans-6b" d="M296.5,220.7h1v5.1l3-2.7h1.3l-3.3,2.9,3.4,3.3h-1.3l-3.2-3v3h-1v-8.6Z"/>
          <path id="DejaVuSans-70" d="M304.1,228.4v3.3h-1v-8.6h1v.9c.2-.4.5-.6.8-.8.3-.2.7-.3,1.2-.3.8,0,1.4.3,1.8.9.5.6.7,1.4.7,2.4s-.2,1.8-.7,2.4c-.5.6-1.1.9-1.8.9s-.8,0-1.2-.3c-.3-.2-.6-.5-.8-.8ZM307.5,226.2c0-.7-.2-1.3-.5-1.8s-.7-.6-1.3-.6-1,.2-1.3.6-.5,1-.5,1.8.2,1.3.5,1.8c.3.4.7.6,1.3.6s1-.2,1.3-.6c.3-.4.5-1,.5-1.8Z"/>
          <path id="DejaVuSans-6f-2" data-name="DejaVuSans-6f" d="M312.7,223.8c-.5,0-1,.2-1.3.6s-.5,1-.5,1.8.2,1.3.5,1.8c.3.4.8.6,1.3.6s1-.2,1.3-.6c.3-.4.5-1,.5-1.8s-.2-1.3-.5-1.7c-.3-.4-.7-.6-1.3-.6ZM312.7,222.9c.9,0,1.6.3,2.1.9.5.6.8,1.4.8,2.4s-.3,1.8-.8,2.4c-.5.6-1.2.9-2.1.9s-1.6-.3-2.1-.9c-.5-.6-.8-1.4-.8-2.4s.3-1.8.8-2.4c.5-.6,1.2-.9,2.1-.9Z"/>
          <path id="DejaVuSans-69-2" data-name="DejaVuSans-69" d="M317.2,223.1h1v6.2h-1v-6.2ZM317.2,220.7h1v1.3h-1v-1.3Z"/>
          <path id="DejaVuSans-6e-4" data-name="DejaVuSans-6e" d="M325.5,225.5v3.7h-1v-3.7c0-.6-.1-1-.3-1.3-.2-.3-.6-.4-1-.4s-1,.2-1.3.5c-.3.3-.5.8-.5,1.4v3.5h-1v-6.2h1v1c.2-.4.5-.7.9-.8.3-.2.7-.3,1.1-.3.7,0,1.3.2,1.6.7.4.4.5,1.1.5,1.9Z"/>
          <path id="DejaVuSans-74-2" data-name="DejaVuSans-74" d="M328.6,221.3v1.8h2.1v.8h-2.1v3.4c0,.5,0,.8.2,1s.4.2.8.2h1v.9h-1c-.8,0-1.3-.1-1.6-.4-.3-.3-.4-.8-.4-1.6v-3.4h-.7v-.8h.7v-1.8h1Z"/>
          <path id="DejaVuSans-43-2" data-name="DejaVuSans-43" d="M341.9,221.7v1.2c-.4-.4-.8-.6-1.2-.8-.4-.2-.9-.3-1.4-.3-.9,0-1.7.3-2.2.9s-.8,1.4-.8,2.5.3,1.9.8,2.5,1.2.9,2.2.9.9,0,1.4-.3.8-.4,1.2-.8v1.2c-.4.3-.8.5-1.2.6-.4.1-.9.2-1.4.2-1.3,0-2.2-.4-3-1.1-.7-.8-1.1-1.8-1.1-3.1s.4-2.4,1.1-3.1c.7-.8,1.7-1.2,3-1.2s1,0,1.4.2c.4.1.8.3,1.2.6Z"/>
          <path id="DejaVuSans-68-2" data-name="DejaVuSans-68" d="M348.7,225.5v3.7h-1v-3.7c0-.6-.1-1-.3-1.3-.2-.3-.6-.4-1-.4s-1,.2-1.3.5c-.3.3-.5.8-.5,1.4v3.5h-1v-8.6h1v3.4c.2-.4.5-.7.9-.8.3-.2.7-.3,1.1-.3.7,0,1.3.2,1.6.7.4.4.5,1.1.5,1.9Z"/>
          <path id="DejaVuSans-61-3" data-name="DejaVuSans-61" d="M353.6,226.2c-.8,0-1.4,0-1.7.3s-.5.5-.5,1,.1.6.4.9c.2.2.6.3,1,.3s1-.2,1.4-.6.5-.9.5-1.6v-.2h-1ZM355.6,225.7v3.5h-1v-.9c-.2.4-.5.7-.9.8-.3.2-.8.3-1.3.3s-1.1-.2-1.5-.5c-.4-.4-.6-.8-.6-1.4s.2-1.2.7-1.6c.5-.4,1.2-.5,2.1-.5h1.4c0-.6-.2-.9-.5-1.2s-.7-.4-1.3-.4-.7,0-1,.1c-.3,0-.7.2-1,.4v-.9c.4-.1.7-.3,1.1-.3.4,0,.7-.1,1-.1.9,0,1.6.2,2,.7.4.5.7,1.2.7,2.1Z"/>
          <path id="DejaVuSans-72-5" data-name="DejaVuSans-72" d="M361.3,224c-.1,0-.2-.1-.4-.1-.1,0-.3,0-.4,0-.6,0-1,.2-1.3.6s-.5.9-.5,1.6v3.3h-1v-6.2h1v1c.2-.4.5-.7.8-.8.3-.2.8-.3,1.3-.3s.1,0,.2,0c0,0,.2,0,.3,0v1Z"/>
          <path id="DejaVuSans-6c-2" data-name="DejaVuSans-6c" d="M362.4,220.7h1v8.6h-1v-8.6Z"/>
          <path id="DejaVuSans-69-3" data-name="DejaVuSans-69" d="M365.5,223.1h1v6.2h-1v-6.2ZM365.5,220.7h1v1.3h-1v-1.3Z"/>
          <path id="DejaVuSans-65-6" data-name="DejaVuSans-65" d="M374,225.9v.5h-4.7c0,.7.3,1.2.6,1.6.4.4.9.6,1.6.6s.8,0,1.1-.1.7-.2,1.1-.4v1c-.4.2-.7.3-1.1.4s-.8.1-1.2.1c-1,0-1.8-.3-2.4-.9-.6-.6-.9-1.4-.9-2.3s.3-1.8.8-2.4c.5-.6,1.3-.9,2.2-.9s1.5.3,2,.8c.5.5.7,1.3.7,2.2ZM373,225.6c0-.6-.2-1-.5-1.3-.3-.3-.7-.5-1.2-.5s-1,.2-1.4.5-.5.8-.6,1.4h3.6Z"/>
        </g>
      </g>
      <g id="PathCollection_7">
        <rect class="cls-1" x="-25" y="126.2" width="413.7" height="257.7"/>
        <g>
          <path id="m60687d4f03" class="cls-8" d="M251.1,217.7c.8,0,1.6-.3,2.2-.9.6-.6.9-1.4.9-2.2s-.3-1.6-.9-2.2c-.6-.6-1.4-.9-2.2-.9s-1.6.3-2.2.9c-.6.6-.9,1.4-.9,2.2s.3,1.6.9,2.2c.6.6,1.4.9,2.2.9Z"/>
          <path id="m60687d4f03-2" data-name="m60687d4f03" class="cls-8" d="M276.5,211.7c.8,0,1.6-.3,2.2-.9.6-.6.9-1.4.9-2.2s-.3-1.6-.9-2.2c-.6-.6-1.4-.9-2.2-.9s-1.6.3-2.2.9c-.6.6-.9,1.4-.9,2.2s.3,1.6.9,2.2c.6.6,1.4.9,2.2.9Z"/>
          <path id="m60687d4f03-3" data-name="m60687d4f03" class="cls-8" d="M261.2,229.4c.8,0,1.6-.3,2.2-.9.6-.6.9-1.4.9-2.2s-.3-1.6-.9-2.2c-.6-.6-1.4-.9-2.2-.9s-1.6.3-2.2.9c-.6.6-.9,1.4-.9,2.2s.3,1.6.9,2.2c.6.6,1.4.9,2.2.9Z"/>
        </g>
      </g>
    </g>
  </g>
</svg>