<?xml version="1.0" encoding="UTF-8"?>
<svg xmlns="http://www.w3.org/2000/svg" xmlns:xlink="http://www.w3.org/1999/xlink" version="1.1" viewBox="0 0 576 576">
  <defs>
    <style>
      .cls-1 {
        fill: none;
      }

      .cls-2 {
        fill: #8da0cb;
      }

      .cls-2, .cls-3, .cls-4, .cls-5, .cls-6, .cls-7, .cls-8, .cls-9 {
        stroke-linejoin: round;
      }

      .cls-2, .cls-3, .cls-4, .cls-5, .cls-6, .cls-7, .cls-9 {
        stroke: #fff;
      }

      .cls-2, .cls-3, .cls-4, .cls-6, .cls-7, .cls-9 {
        fill-opacity: .9;
        stroke-opacity: .9;
        stroke-width: .6px;
      }

      .cls-3 {
        fill: #b3b3b3;
      }

      .cls-4 {
        fill: #e78ac3;
      }

      .cls-10 {
        clip-path: url(#clippath-1);
      }

      .cls-11 {
        clip-path: url(#clippath-3);
      }

      .cls-12 {
        clip-path: url(#clippath-4);
      }

      .cls-13 {
        clip-path: url(#clippath-2);
      }

      .cls-14 {
        clip-path: url(#clippath-5);
      }

      .cls-15 {
        fill: #fff;
      }

      .cls-16 {
        fill: #262626;
      }

      .cls-5 {
        stroke-width: .2px;
      }

      .cls-6 {
        fill: #66c2a5;
      }

      .cls-7 {
        fill: #ffd92f;
      }

      .cls-8 {
        fill: #f7f7f7;
        fill-opacity: .4;
        stroke: #ccc;
        stroke-opacity: .4;
        stroke-width: .5px;
      }

      .cls-17 {
        clip-path: url(#clippath);
      }

      .cls-9 {
        fill: #fc8d62;
      }
    </style>
    <clipPath id="clippath">
      <rect class="cls-1" x="122.2" y="166.2" width="185.4" height="160.5"/>
    </clipPath>
    <clipPath id="clippath-1">
      <rect class="cls-1" x="122.2" y="166.2" width="185.4" height="160.5"/>
    </clipPath>
    <clipPath id="clippath-2">
      <rect class="cls-1" x="122.2" y="166.2" width="185.4" height="160.5"/>
    </clipPath>
    <clipPath id="clippath-3">
      <rect class="cls-1" x="122.2" y="166.2" width="185.4" height="160.5"/>
    </clipPath>
    <clipPath id="clippath-4">
      <rect class="cls-1" x="122.2" y="166.2" width="185.4" height="160.5"/>
    </clipPath>
    <clipPath id="clippath-5">
      <rect class="cls-1" x="122.2" y="166.2" width="185.4" height="160.5"/>
    </clipPath>
  </defs>
  <!-- Generator: Adobe Illustrator 28.7.7, SVG Export Plug-In . SVG Version: 1.2.0 Build 194)  -->
  <g>
    <g id="Layer_1">
      <g id="figure_1">
        <g id="patch_1">
          <path class="cls-15" d="M0,576h576V0H0v576Z"/>
        </g>
        <g id="axes_1">
          <g id="PatchCollection_1">
            <rect class="cls-1" x="122.2" y="166.2" width="185.4" height="160.5"/>
            <path class="cls-8" d="M341.1,50.5h4s4.9,1,4.9,1l4.5,2.8,2.2,3,1.7,3.5,2.7,4,15,9.6-.7,12.6,1.9,7.1,4.7,5.7,6.2,3.2h6.1s5.2-5.3,5.2-5.3l-.2-14.2,3.2-2.9,1.1-.7,7.6-2.9,1.9-.3.7-.7,3.9-13.1,6.7-8.7,10.2-6.9,12.4-2.9,12.9,3.5,6.8,7.7,19.5,43.3,8.8,11.7,1.6,2.8,1.8,5,1.3,2.1,2.6,1.8,5.8,2.5,1.1,2,2.5,3.1,5.6,3.5,5.6,2,2.5-1.4,1.8-4.8,1.6-.4.7,3.6.7,18.7-2.5,14.5-8.5,25.8h0s-8.8,23.2-8.8,23.2l-1.6,12.6-1.4,5.9-3.3,5.6-2.9,2-6.6,2.8-2.7,1.8-2.4,3.2-3.7,10.1-4.4,5.9-8.2,11-1.5,6.6,1.6,5,2.1,2.8-2.5,2.2-12.8,15.3-2.6,2.3-1.6.7-2.4.8-9.4,1.4-1.8.5-1.8.9-2.5,2.1-1.1,1.3-.6,1-.4,1-.6.9-1.2.9-1.7.6-3.3.2-8.4-.6-1.4.2-2.1.8-2.6,1.3-8.7,6-.8.8-.7.9-1.6,2.8-2.8,7.3-.8,1.8-.5,2.2v1.3l.3,1.2.7,2.2v1.2c.1,0,0,1.1,0,1.1l-.4,1-.6.8-.7.7-1.6,1.3-.6.7-.4,1v1.2s.3,1.2.3,1.2l.4,1.1v1.1c.1,0-.2,1-.2,1l-.5.8-2.6,3.2-2,2.2-.4.7v.4c-.1,0-.2.3-.2.3l.3,4.9v1.4c0,0-.2,1.3-.2,1.3l-.3,1.1-.6.9-1.6,1-13.7,5.6-.9.5-.8.6-.6.7-.3.8.2,2.3v1.3l-.3,1.2-.4,1-.7.9-1.4.4h-1.9c0,0-3.9-1.3-3.9-1.3l-3.4-1.6-1.1-.3h-2.1s-2.8.4-2.8.4l-5.3,1.2-2.6.9-1.7.9-11.8,11.4-3.5,2.7-2.2,1.1-2.5.8h-1.9c0,0-2.4-.6-2.4-.6l-4.2-2-1.9-1.3-1.2-1.4-.6-2.7v-3.1c0,0,.4-2.9.4-2.9l3.7-13v-3c-.1,0-.5-1.3-.5-1.3l-.5-1.2-.6-1-.8-.9-2.1-1.3-55.7,9.7-2,.8-2.4,1.4-4.4,3.5-4.7,2.9-6.5.8-1.1-6.9-3.6-4.4-6.5-3-2.2-3.7-.8-2.6-.5-2.5-.8-2.7-2.1-1.6-1.6-.8h-1.6c0-.1-1.3,0-1.3,0l-1.2.5-1,.6-.8.7-1.2,1.3-5.1,7.6-2,2.4-.6,1.2-.3,1.4v1.3c.1,0,.4,1.3.4,1.3v1.3c0,0-.1,1.4-.1,1.4l-.5,1.2-3.9,5.9-.5,1.3-.4,1.3-.7,5.9v1.5c-.1,0,.2,2.7.2,2.7l1,2.3,2,3.1.5,1.2.4,1.2.4,2.8.2,4.5-.6,5.8-.2,5-.5,2.6v1.9c0,0,0,1.7,0,1.7l.2,1.4v1.7c0,0-.6,2.1-.6,2.1l-7,14.6-1.2,3.3-.4,2.4.2,3.1-.2,1.9-2,8.9-.2,5.9-1.5,6.1-.2,1.7.4,1.3.9.6,1.3.2h1.3c0,0,1.3,0,1.3,0l1,.6.6.9.4,1.8v2.2c.1,0-.2,3.7-.2,3.7l-.7,1.8-1.2,1.6-1.4,1.4-2.3,3.4-1.2,3.2-1.3,5.4-1.1,2.2-1,1.5-1.2.4-1.3.3h-4.6s-2.7.3-2.7.3l-1.9.5-.8.3-2.1,1.3-1.1.9-15.6,18.6-1.8,1.5-.9.6-1.1.5-1.3.4-9.4,1.1-3.6-16-1.8-4.7-2.9-2.9-15.7-19.1-1.4-2.4-5.2-19.8-.4-2.9,3.5-15,.5-1.1.7-1,5-4.9.6-1.5.5-2.2.4-4.1v-2.3c-.1,0-6.5-22.5-6.5-22.5l-.3-3.1.4-1.2,2.3-3.6.8-2.2v-1.6l-2.3-10.1-4.3-10.5-.5-2.3v-2.2l1-5.1v-2l-.2-1.8-1-3.5-.5-1.4-.7-1.2-3.8-4.6-.6-1.5v-.9c0,0,.1-.4.1-.4l2.3-3,4.8-5.2.8-1.2.8-1.5.8-2.7v-1.7l-.5-1.3-1.7-1.7-.9-.7-.8-.9-1.1-1.6-.9-2.4-2-7.7-.8-1.9-.8-.9-1.1-.5h-2.8c0-.1-1.4-.4-1.4-.4l-1.4-1.5-1.5-2.7-2.4-6.1-.7-3.1-.3-2.4.3-1.4.3-1.3.5-1.2.6-1.1,1.4-1.9,3.5-3,7.4-4.3.9-.8.7-.9.6-1.1,1-2.2.6-1,.7-.9.8-.7,2.1-1.4,1.2-.5,1.3-.3h1.4c0,0,1.3.4,1.3.4h1.2c0,0,1.2-.8,1.2-.8l.8-2.2,1-1.2,2.3-3.9,2.6-13.1.6-2,.6-1.5,2.4-2.7.7-1.2.9-3.5.5-1.4.6-1,.8-.9.9-.8,1.1-.6,1.2-.4,4.3-.7,1.4-.5,1.2-.9.3-1.1-.3-1.6-.6-1.9-.6-3.5-.7-1.8-.9-1.3-3.1-1.7-1-.8-1.6-1.8-.7-1.8-1.5-7.6v-2.5l.5-1.7,1.6-2,.6-1,.8-.8,1-.6,1.1-.5,1.3-1.9,1.4-2.9,2.5-10.8.8-2.3.8-.7,3.2-1.8,2.5-2.3,1-.7,1.2-.5,1.2-.4h1.4c0-.1,1.3,0,1.3,0l5.1,1.7,2.8.2,6.4-1.3h.7c0,0,.9.4.9.4l1.8,1.3,1.1.6,3.7,1.3,1,.7.7.9,1,2.2.5,2.7v1.4c0,0,.3,1.4.3,1.4l.4,1.2,1.3,2.1.7.9,3.5,3.3,1,.6,1.4-.7,1.4-1.8,2.9-7.7.9-1.8,2.6-2.8,2.5-6.7,1-11.9-.4-2.4-.8-.9-1.1-.6-1.1-.5-8.5-1.2-1.2-.4-1.9-1.3-1.7-1.6-2.2-2.8-.8-.8-5.4-2.8-2.1-1.4-1.1-1.2-.8-1.7-.8-3.4v-1.9c.1,0,.7-1.4.7-1.4l.8-.8,1.1-.6,7.6-2.4,1.1-.5,7-5,1.3-1.3,1.5-2.3.4-1.7-.3-1.3-1-.6-2.4-1-5.3-1.4-2.4-1-2.1-1.1-3.5-2.6-2.5-2.6.5-.4,3.5-6.2,1.8-9.2-2.4-5.8-11.2-12.1-3.8-21.2-2.9-6.7-12.6-13.3-3.1-6.1,6.6-2.4,4.8,1.8,16.7,11.6,26.2,8.7,3.3.2,6.2-.9,3.6.3,3.1,1.3,5.2,3.6,3.3.7,6.6-1.2,12.7-5.4,7.1-1.3h13.8s6-2,6-2l5.8-5.4,3.1-5.9,4.6-13.2,3.9-5.6,6.1-4.1,7.6-2.6,18.6-2.8,1.6-.8,1.7.4,3.5,2.8,2.2,3.2.8,3.5,1.2,3.4,3.3,2.8,4,5,3.7,1.3"/>
          </g>
          <g id="PathCollection_1">
            <g class="cls-17">
              <g>
                <path id="md912113257" class="cls-6" d="M285.3,227.7c.6,0,1.2-.2,1.6-.7s.7-1,.7-1.6-.2-1.2-.7-1.6-1-.7-1.6-.7-1.2.2-1.6.7-.7,1-.7,1.6.2,1.2.7,1.6,1,.7,1.6.7Z"/>
                <path id="md912113257-2" data-name="md912113257" class="cls-6" d="M285.3,227.7c.6,0,1.2-.2,1.6-.7s.7-1,.7-1.6-.2-1.2-.7-1.6-1-.7-1.6-.7-1.2.2-1.6.7-.7,1-.7,1.6.2,1.2.7,1.6,1,.7,1.6.7Z"/>
              </g>
            </g>
          </g>
          <g id="PathCollection_2">
            <g class="cls-10">
              <path id="m173503fbaf" class="cls-9" d="M283.6,226.8c.6,0,1.2-.2,1.6-.7s.7-1,.7-1.6-.2-1.2-.7-1.6-1-.7-1.6-.7-1.2.2-1.6.7-.7,1-.7,1.6.2,1.2.7,1.6,1,.7,1.6.7Z"/>
            </g>
          </g>
          <g id="PathCollection_3">
            <g class="cls-13">
              <path id="mfd0062cd41" class="cls-2" d="M284.8,213.7c.9,0,1.8-.4,2.4-1s1-1.5,1-2.4-.4-1.8-1-2.4-1.5-1-2.4-1-1.8.4-2.4,1-1,1.5-1,2.4.4,1.8,1,2.4,1.5,1,2.4,1Z"/>
            </g>
          </g>
          <g id="PathCollection_4">
            <g class="cls-11">
              <path id="ma60fb8a359" class="cls-4" d="M129.9,321.3c.6,0,1.2-.2,1.6-.7s.7-1,.7-1.6-.2-1.2-.7-1.6-1-.7-1.6-.7-1.2.2-1.6.7-.7,1-.7,1.6.2,1.2.7,1.6,1,.7,1.6.7Z"/>
            </g>
          </g>
          <g id="PathCollection_5">
            <rect class="cls-1" x="75.9" y="126.1" width="278" height="240.7"/>
            <path id="m908a85ad96" class="cls-7" d="M284.5,227.6c.9,0,1.8-.4,2.4-1s1-1.5,1-2.4-.4-1.8-1-2.4-1.5-1-2.4-1-1.8.4-2.4,1-1,1.5-1,2.4.4,1.8,1,2.4,1.5,1,2.4,1Z"/>
            <path id="m908a85ad96-2" data-name="m908a85ad96" class="cls-7" d="M282.5,226.9c.9,0,1.8-.4,2.4-1s1-1.5,1-2.4-.4-1.8-1-2.4-1.5-1-2.4-1-1.8.4-2.4,1-1,1.5-1,2.4.4,1.8,1,2.4,1.5,1,2.4,1Z"/>
            <path id="m908a85ad96-3" data-name="m908a85ad96" class="cls-7" d="M284.4,232.6c.9,0,1.8-.4,2.4-1s1-1.5,1-2.4-.4-1.8-1-2.4-1.5-1-2.4-1-1.8.4-2.4,1-1,1.5-1,2.4.4,1.8,1,2.4,1.5,1,2.4,1Z"/>
            <path id="m908a85ad96-4" data-name="m908a85ad96" class="cls-7" d="M285.2,228.2c.9,0,1.8-.4,2.4-1s1-1.5,1-2.4-.4-1.8-1-2.4-1.5-1-2.4-1-1.8.4-2.4,1-1,1.5-1,2.4.4,1.8,1,2.4,1.5,1,2.4,1Z"/>
            <path id="m908a85ad96-5" data-name="m908a85ad96" class="cls-7" d="M275.2,227.3c.9,0,1.8-.4,2.4-1s1-1.5,1-2.4-.4-1.8-1-2.4-1.5-1-2.4-1-1.8.4-2.4,1-1,1.5-1,2.4.4,1.8,1,2.4,1.5,1,2.4,1Z"/>
            <path id="m908a85ad96-6" data-name="m908a85ad96" class="cls-7" d="M274.4,214.8c.9,0,1.8-.4,2.4-1s1-1.5,1-2.4-.4-1.8-1-2.4-1.5-1-2.4-1-1.8.4-2.4,1-1,1.5-1,2.4.4,1.8,1,2.4,1.5,1,2.4,1Z"/>
            <path id="m908a85ad96-7" data-name="m908a85ad96" class="cls-7" d="M190.6,262.5c.9,0,1.8-.4,2.4-1s1-1.5,1-2.4-.4-1.8-1-2.4-1.5-1-2.4-1-1.8.4-2.4,1-1,1.5-1,2.4.4,1.8,1,2.4,1.5,1,2.4,1Z"/>
            <path id="m908a85ad96-8" data-name="m908a85ad96" class="cls-7" d="M267.6,240.1c.9,0,1.8-.4,2.4-1s1-1.5,1-2.4-.4-1.8-1-2.4-1.5-1-2.4-1-1.8.4-2.4,1-1,1.5-1,2.4.4,1.8,1,2.4,1.5,1,2.4,1Z"/>
            <path id="m908a85ad96-9" data-name="m908a85ad96" class="cls-7" d="M189.6,262.9c.9,0,1.8-.4,2.4-1s1-1.5,1-2.4-.4-1.8-1-2.4-1.5-1-2.4-1-1.8.4-2.4,1-1,1.5-1,2.4.4,1.8,1,2.4,1.5,1,2.4,1Z"/>
            <path id="m908a85ad96-10" data-name="m908a85ad96" class="cls-7" d="M230.3,251.8c.9,0,1.8-.4,2.4-1s1-1.5,1-2.4-.4-1.8-1-2.4-1.5-1-2.4-1-1.8.4-2.4,1-1,1.5-1,2.4.4,1.8,1,2.4,1.5,1,2.4,1Z"/>
            <path id="m908a85ad96-11" data-name="m908a85ad96" class="cls-7" d="M287.4,230.9c.9,0,1.8-.4,2.4-1s1-1.5,1-2.4-.4-1.8-1-2.4-1.5-1-2.4-1-1.8.4-2.4,1-1,1.5-1,2.4.4,1.8,1,2.4,1.5,1,2.4,1Z"/>
            <path id="m908a85ad96-12" data-name="m908a85ad96" class="cls-7" d="M283.6,228.1c.9,0,1.8-.4,2.4-1s1-1.5,1-2.4-.4-1.8-1-2.4-1.5-1-2.4-1-1.8.4-2.4,1-1,1.5-1,2.4.4,1.8,1,2.4,1.5,1,2.4,1Z"/>
            <path id="m908a85ad96-13" data-name="m908a85ad96" class="cls-7" d="M287.5,243.4c.9,0,1.8-.4,2.4-1s1-1.5,1-2.4-.4-1.8-1-2.4-1.5-1-2.4-1-1.8.4-2.4,1-1,1.5-1,2.4.4,1.8,1,2.4,1.5,1,2.4,1Z"/>
            <path id="m908a85ad96-14" data-name="m908a85ad96" class="cls-7" d="M282.3,230.4c.9,0,1.8-.4,2.4-1s1-1.5,1-2.4-.4-1.8-1-2.4-1.5-1-2.4-1-1.8.4-2.4,1-1,1.5-1,2.4.4,1.8,1,2.4,1.5,1,2.4,1Z"/>
            <path id="m908a85ad96-15" data-name="m908a85ad96" class="cls-7" d="M299.9,177.2c.9,0,1.8-.4,2.4-1s1-1.5,1-2.4-.4-1.8-1-2.4-1.5-1-2.4-1-1.8.4-2.4,1-1,1.5-1,2.4.4,1.8,1,2.4,1.5,1,2.4,1Z"/>
            <path id="m908a85ad96-16" data-name="m908a85ad96" class="cls-7" d="M283.2,229.9c.9,0,1.8-.4,2.4-1s1-1.5,1-2.4-.4-1.8-1-2.4-1.5-1-2.4-1-1.8.4-2.4,1-1,1.5-1,2.4.4,1.8,1,2.4,1.5,1,2.4,1Z"/>
            <path id="m908a85ad96-17" data-name="m908a85ad96" class="cls-7" d="M287.2,225.9c.9,0,1.8-.4,2.4-1s1-1.5,1-2.4-.4-1.8-1-2.4-1.5-1-2.4-1-1.8.4-2.4,1-1,1.5-1,2.4.4,1.8,1,2.4,1.5,1,2.4,1Z"/>
            <path id="m908a85ad96-18" data-name="m908a85ad96" class="cls-7" d="M286.3,228.5c.9,0,1.8-.4,2.4-1s1-1.5,1-2.4-.4-1.8-1-2.4-1.5-1-2.4-1-1.8.4-2.4,1-1,1.5-1,2.4.4,1.8,1,2.4,1.5,1,2.4,1Z"/>
            <path id="m908a85ad96-19" data-name="m908a85ad96" class="cls-7" d="M212.3,229.6c.9,0,1.8-.4,2.4-1s1-1.5,1-2.4-.4-1.8-1-2.4-1.5-1-2.4-1-1.8.4-2.4,1-1,1.5-1,2.4.4,1.8,1,2.4,1.5,1,2.4,1Z"/>
            <path id="m908a85ad96-20" data-name="m908a85ad96" class="cls-7" d="M282,227.1c.9,0,1.8-.4,2.4-1s1-1.5,1-2.4-.4-1.8-1-2.4-1.5-1-2.4-1-1.8.4-2.4,1-1,1.5-1,2.4.4,1.8,1,2.4,1.5,1,2.4,1Z"/>
            <path id="m908a85ad96-21" data-name="m908a85ad96" class="cls-7" d="M289.1,224.6c.9,0,1.8-.4,2.4-1s1-1.5,1-2.4-.4-1.8-1-2.4-1.5-1-2.4-1-1.8.4-2.4,1-1,1.5-1,2.4.4,1.8,1,2.4,1.5,1,2.4,1Z"/>
            <path id="m908a85ad96-22" data-name="m908a85ad96" class="cls-7" d="M283.7,228c.9,0,1.8-.4,2.4-1s1-1.5,1-2.4-.4-1.8-1-2.4-1.5-1-2.4-1-1.8.4-2.4,1-1,1.5-1,2.4.4,1.8,1,2.4,1.5,1,2.4,1Z"/>
            <path id="m908a85ad96-23" data-name="m908a85ad96" class="cls-7" d="M283.3,231c.9,0,1.8-.4,2.4-1s1-1.5,1-2.4-.4-1.8-1-2.4-1.5-1-2.4-1-1.8.4-2.4,1-1,1.5-1,2.4.4,1.8,1,2.4,1.5,1,2.4,1Z"/>
            <path id="m908a85ad96-24" data-name="m908a85ad96" class="cls-7" d="M286.4,228.5c.9,0,1.8-.4,2.4-1s1-1.5,1-2.4-.4-1.8-1-2.4-1.5-1-2.4-1-1.8.4-2.4,1-1,1.5-1,2.4.4,1.8,1,2.4,1.5,1,2.4,1Z"/>
          </g>
          <g id="PathCollection_6">
            <g class="cls-12">
              <path id="m07180bf7b2" class="cls-3" d="M267.5,239.7c.9,0,1.8-.4,2.4-1s1-1.5,1-2.4-.4-1.8-1-2.4-1.5-1-2.4-1-1.8.4-2.4,1-1,1.5-1,2.4.4,1.8,1,2.4,1.5,1,2.4,1Z"/>
            </g>
          </g>
          <g id="text_1">
            <g>
              <path id="DejaVuSans-57" d="M265.4,251.8h.5l.8,3.1.8-3.1h.6l.8,3.1.8-3.1h.5l-.9,3.7h-.6l-.8-3.2-.8,3.2h-.6l-.9-3.7Z"/>
              <path id="DejaVuSans-61" d="M271.7,254.1c-.4,0-.6,0-.8.1s-.2.2-.2.4,0,.3.2.4c.1,0,.3.1.4.1s.5,0,.6-.3.2-.4.2-.7h0c0-.1-.5-.1-.5-.1ZM272.6,253.9v1.6h-.5v-.4c-.1.2-.2.3-.4.4-.2,0-.3.1-.6.1s-.5,0-.7-.2c-.2-.2-.3-.4-.3-.6s.1-.5.3-.7c.2-.2.5-.2.9-.2h.6c0-.3,0-.4-.2-.5s-.3-.2-.6-.2-.3,0-.5,0c-.2,0-.3,0-.4.2v-.4c.2,0,.3-.1.5-.1.2,0,.3,0,.5,0,.4,0,.7.1.9.3.2.2.3.5.3.9Z"/>
              <path id="DejaVuSans-74" d="M274,251.9v.8h.9v.4h-.9v1.5c0,.2,0,.4,0,.4s.2,0,.4,0h.5v.4h-.5c-.4,0-.6,0-.7-.2-.1-.1-.2-.4-.2-.7v-1.5h-.3v-.4h.3v-.8h.5Z"/>
              <path id="DejaVuSans-20" d="M275.1,255.5"/>
              <path id="DejaVuSans-52" d="M279,253.8c.1,0,.2.1.3.2s.2.3.3.5l.5,1h-.5l-.5-1c-.1-.2-.2-.4-.4-.5s-.3-.1-.5-.1h-.5v1.6h-.5v-3.7h1.1c.4,0,.7,0,.9.3.2.2.3.4.3.8s0,.4-.2.6c-.1.2-.3.3-.5.3ZM277.7,252.2v1.3h.6c.2,0,.4,0,.5-.2s.2-.3.2-.5,0-.4-.2-.5-.3-.2-.5-.2h-.6Z"/>
              <path id="DejaVuSans-6f" d="M281.6,253c-.2,0-.4,0-.6.3s-.2.5-.2.8,0,.6.2.8c.1.2.3.3.6.3s.4,0,.6-.3c.1-.2.2-.5.2-.8s0-.6-.2-.8c-.1-.2-.3-.3-.6-.3ZM281.6,252.7c.4,0,.7.1.9.4.2.3.3.6.3,1.1s-.1.8-.3,1.1c-.2.3-.5.4-.9.4s-.7-.1-.9-.4c-.2-.3-.3-.6-.3-1.1s.1-.8.3-1.1c.2-.3.5-.4.9-.4Z"/>
              <path id="DejaVuSans-6e" d="M285.9,253.8v1.7h-.5v-1.7c0-.3,0-.5-.2-.6-.1-.1-.3-.2-.5-.2s-.4,0-.6.2c-.1.2-.2.4-.2.6v1.6h-.5v-2.8h.5v.4c.1-.2.2-.3.4-.4.1,0,.3-.1.5-.1.3,0,.6,0,.7.3.2.2.2.5.2.9Z"/>
              <path id="DejaVuSans-67" d="M288.6,254.1c0-.3,0-.6-.2-.8-.1-.2-.3-.3-.6-.3s-.4,0-.6.3c-.1.2-.2.4-.2.8s0,.6.2.8c.1.2.3.3.6.3s.4,0,.6-.3c.1-.2.2-.4.2-.8ZM289.1,255.2c0,.5-.1.8-.3,1.1-.2.2-.5.3-1,.3s-.3,0-.5,0-.3,0-.4-.1v-.4c.1,0,.3.1.4.2.1,0,.3,0,.4,0,.3,0,.5,0,.7-.2.1-.2.2-.4.2-.7v-.2c0,.2-.2.3-.4.4s-.3.1-.5.1c-.3,0-.6-.1-.8-.4-.2-.3-.3-.6-.3-1s.1-.8.3-1c.2-.3.5-.4.8-.4s.4,0,.5.1.3.2.4.4v-.4h.5v2.4Z"/>
              <path id="DejaVuSans-20-2" data-name="DejaVuSans-20" d="M289.6,255.5"/>
              <path id="DejaVuSans-4b" d="M291.7,251.8h.5v1.6l1.7-1.6h.6l-1.8,1.7,2,2h-.7l-1.8-1.8v1.8h-.5v-3.7Z"/>
              <path id="DejaVuSans-68" d="M297.3,253.8v1.7h-.5v-1.7c0-.3,0-.5-.2-.6-.1-.1-.3-.2-.5-.2s-.4,0-.6.2c-.1.2-.2.4-.2.6v1.6h-.5v-3.9h.5v1.5c.1-.2.2-.3.4-.4.1,0,.3-.1.5-.1.3,0,.6,0,.7.3.2.2.2.5.2.9Z"/>
              <path id="DejaVuSans-75" d="M298.2,254.4v-1.7h.5v1.7c0,.3,0,.5.2.6.1.1.3.2.5.2s.4,0,.6-.2c.1-.2.2-.4.2-.6v-1.6h.5v2.8h-.5v-.4c-.1.2-.2.3-.4.4-.1,0-.3.1-.5.1-.3,0-.6,0-.7-.3-.2-.2-.2-.5-.2-.9ZM299.3,252.7h0Z"/>
              <path id="DejaVuSans-6e-2" data-name="DejaVuSans-6e" d="M303.8,253.8v1.7h-.5v-1.7c0-.3,0-.5-.2-.6-.1-.1-.3-.2-.5-.2s-.4,0-.6.2c-.1.2-.2.4-.2.6v1.6h-.5v-2.8h.5v.4c.1-.2.2-.3.4-.4.1,0,.3-.1.5-.1.3,0,.6,0,.7.3.2.2.2.5.2.9Z"/>
              <path id="DejaVuSans-20-3" data-name="DejaVuSans-20" d="M304.2,255.5"/>
              <path id="DejaVuSans-28" d="M307.4,251.6c-.2.4-.4.8-.5,1.1-.1.4-.2.7-.2,1.1s0,.8.2,1.1.3.8.5,1.1h-.4c-.2-.4-.4-.8-.6-1.1-.1-.4-.2-.7-.2-1.1s0-.7.2-1.1c.1-.4.3-.8.6-1.1h.4Z"/>
              <path id="DejaVuSans-57-2" data-name="DejaVuSans-57" d="M308,251.8h.5l.8,3.1.8-3.1h.6l.8,3.1.8-3.1h.5l-.9,3.7h-.6l-.8-3.2-.8,3.2h-.6l-.9-3.7Z"/>
              <path id="DejaVuSans-68-2" data-name="DejaVuSans-68" d="M315.6,253.8v1.7h-.5v-1.7c0-.3,0-.5-.2-.6-.1-.1-.3-.2-.5-.2s-.4,0-.6.2c-.1.2-.2.4-.2.6v1.6h-.5v-3.9h.5v1.5c.1-.2.2-.3.4-.4.1,0,.3-.1.5-.1.3,0,.6,0,.7.3.2.2.2.5.2.9Z"/>
              <path id="DejaVuSans-69" d="M316.5,252.7h.5v2.8h-.5v-2.8ZM316.5,251.6h.5v.6h-.5v-.6Z"/>
              <path id="DejaVuSans-74-2" data-name="DejaVuSans-74" d="M318.4,251.9v.8h.9v.4h-.9v1.5c0,.2,0,.4,0,.4s.2,0,.4,0h.5v.4h-.5c-.4,0-.6,0-.7-.2-.1-.1-.2-.4-.2-.7v-1.5h-.3v-.4h.3v-.8h.5Z"/>
              <path id="DejaVuSans-65" d="M322.3,254v.2h-2.1c0,.3.1.6.3.7.2.2.4.2.7.2s.3,0,.5,0,.3-.1.5-.2v.4c-.2,0-.3.1-.5.2s-.3,0-.5,0c-.4,0-.8-.1-1.1-.4-.3-.3-.4-.6-.4-1s.1-.8.4-1.1c.2-.3.6-.4,1-.4s.7.1.9.4c.2.2.3.6.3,1ZM321.8,253.9c0-.2,0-.4-.2-.6-.1-.1-.3-.2-.5-.2s-.5,0-.6.2-.2.3-.3.6h1.6Z"/>
              <path id="DejaVuSans-20-4" data-name="DejaVuSans-20" d="M322.6,255.5"/>
              <path id="DejaVuSans-54" d="M324.2,251.8h3.1v.4h-1.3v3.3h-.5v-3.3h-1.3v-.4Z"/>
              <path id="DejaVuSans-65-2" data-name="DejaVuSans-65" d="M329.3,254v.2h-2.1c0,.3.1.6.3.7.2.2.4.2.7.2s.3,0,.5,0,.3-.1.5-.2v.4c-.2,0-.3.1-.5.2s-.3,0-.5,0c-.4,0-.8-.1-1.1-.4-.3-.3-.4-.6-.4-1s.1-.8.4-1.1c.2-.3.6-.4,1-.4s.7.1.9.4c.2.2.3.6.3,1ZM328.8,253.9c0-.2,0-.4-.2-.6-.1-.1-.3-.2-.5-.2s-.5,0-.6.2-.2.3-.3.6h1.6Z"/>
              <path id="DejaVuSans-6d" d="M332.2,253.3c.1-.2.3-.4.4-.5s.3-.1.6-.1.5.1.7.3c.2.2.2.5.2.9v1.7h-.5v-1.7c0-.3,0-.5-.1-.6,0-.1-.2-.2-.4-.2s-.4,0-.6.2c-.1.2-.2.4-.2.6v1.6h-.5v-1.7c0-.3,0-.5-.1-.6s-.2-.2-.4-.2-.4,0-.6.2c-.1.2-.2.4-.2.6v1.6h-.5v-2.8h.5v.4c.1-.2.2-.3.4-.4s.3-.1.5-.1.4,0,.5.2c.1.1.2.3.3.4Z"/>
              <path id="DejaVuSans-70" d="M335.4,255.1v1.5h-.5v-3.8h.5v.4c0-.2.2-.3.4-.4.1,0,.3-.1.5-.1.3,0,.6.1.8.4.2.3.3.6.3,1.1s-.1.8-.3,1.1c-.2.3-.5.4-.8.4s-.4,0-.5-.1c-.1,0-.3-.2-.4-.4ZM337,254.1c0-.3,0-.6-.2-.8s-.3-.3-.6-.3-.4,0-.6.3-.2.5-.2.8,0,.6.2.8c.1.2.3.3.6.3s.4,0,.6-.3c.1-.2.2-.5.2-.8Z"/>
              <path id="DejaVuSans-6c" d="M338.2,251.6h.5v3.9h-.5v-3.9Z"/>
              <path id="DejaVuSans-65-3" data-name="DejaVuSans-65" d="M342,254v.2h-2.1c0,.3.1.6.3.7.2.2.4.2.7.2s.3,0,.5,0,.3-.1.5-.2v.4c-.2,0-.3.1-.5.2s-.3,0-.5,0c-.4,0-.8-.1-1.1-.4-.3-.3-.4-.6-.4-1s.1-.8.4-1.1c.2-.3.6-.4,1-.4s.7.1.9.4c.2.2.3.6.3,1ZM341.6,253.9c0-.2,0-.4-.2-.6-.1-.1-.3-.2-.5-.2s-.5,0-.6.2-.2.3-.3.6h1.6Z"/>
              <path id="DejaVuSans-29" d="M342.7,251.6h.4c.2.4.4.8.6,1.1.1.4.2.7.2,1.1s0,.7-.2,1.1c-.1.4-.3.8-.6,1.1h-.4c.2-.4.4-.8.5-1.1.1-.4.2-.8.2-1.1s0-.8-.2-1.1c-.1-.4-.3-.7-.5-1.1Z"/>
            </g>
          </g>
          <g id="text_2">
            <g>
              <path id="DejaVuSans-57-3" data-name="DejaVuSans-57" d="M293.9,220.7h.5l.8,3.1.8-3.1h.6l.8,3.1.8-3.1h.5l-.9,3.7h-.6l-.8-3.2-.8,3.2h-.6l-.9-3.7Z"/>
              <path id="DejaVuSans-61-2" data-name="DejaVuSans-61" d="M300.2,223c-.4,0-.6,0-.8.1s-.2.2-.2.4,0,.3.2.4c.1,0,.3.1.4.1s.5,0,.6-.3.2-.4.2-.7h0c0-.1-.5-.1-.5-.1ZM301.1,222.8v1.6h-.5v-.4c-.1.2-.2.3-.4.4-.2,0-.3.1-.6.1s-.5,0-.7-.2c-.2-.2-.3-.4-.3-.6s.1-.5.3-.7c.2-.2.5-.2.9-.2h.6c0-.3,0-.4-.2-.5s-.3-.2-.6-.2-.3,0-.5,0c-.2,0-.3,0-.4.2v-.4c.2,0,.3-.1.5-.1.2,0,.3,0,.5,0,.4,0,.7.1.9.3.2.2.3.5.3.9Z"/>
              <path id="DejaVuSans-74-3" data-name="DejaVuSans-74" d="M302.5,220.9v.8h.9v.4h-.9v1.5c0,.2,0,.4,0,.4s.2,0,.4,0h.5v.4h-.5c-.4,0-.6,0-.7-.2-.1-.1-.2-.4-.2-.7v-1.5h-.3v-.4h.3v-.8h.5Z"/>
              <path id="DejaVuSans-20-5" data-name="DejaVuSans-20" d="M303.6,224.4"/>
              <path id="DejaVuSans-50" d="M306.2,221.1v1.4h.6c.2,0,.4,0,.5-.2.1-.1.2-.3.2-.5s0-.4-.2-.5c-.1-.1-.3-.2-.5-.2h-.6ZM305.7,220.7h1.1c.4,0,.7,0,.9.3.2.2.3.5.3.8s-.1.6-.3.8c-.2.2-.5.3-.9.3h-.6v1.5h-.5v-3.7Z"/>
              <path id="DejaVuSans-68-3" data-name="DejaVuSans-68" d="M311.1,222.7v1.7h-.5v-1.7c0-.3,0-.5-.2-.6-.1-.1-.3-.2-.5-.2s-.4,0-.6.2c-.1.2-.2.4-.2.6v1.6h-.5v-3.9h.5v1.5c.1-.2.2-.3.4-.4.1,0,.3-.1.5-.1.3,0,.6,0,.7.3.2.2.2.5.2.9Z"/>
              <path id="DejaVuSans-72" d="M313.6,222.1c0,0-.1,0-.2,0,0,0-.1,0-.2,0-.3,0-.5,0-.6.3s-.2.4-.2.7v1.5h-.5v-2.8h.5v.4c0-.2.2-.3.4-.4.2,0,.3-.1.6-.1s0,0,.1,0c0,0,0,0,.1,0v.5Z"/>
              <path id="DejaVuSans-61-3" data-name="DejaVuSans-61" d="M315.3,223c-.4,0-.6,0-.8.1s-.2.2-.2.4,0,.3.2.4c.1,0,.3.1.4.1s.5,0,.6-.3.2-.4.2-.7h0c0-.1-.5-.1-.5-.1ZM316.2,222.8v1.6h-.5v-.4c-.1.2-.2.3-.4.4-.2,0-.3.1-.6.1s-.5,0-.7-.2c-.2-.2-.3-.4-.3-.6s.1-.5.3-.7c.2-.2.5-.2.9-.2h.6c0-.3,0-.4-.2-.5s-.3-.2-.6-.2-.3,0-.5,0c-.2,0-.3,0-.4.2v-.4c.2,0,.3-.1.5-.1.2,0,.3,0,.5,0,.4,0,.7.1.9.3.2.2.3.5.3.9Z"/>
              <path id="DejaVuSans-20-6" data-name="DejaVuSans-20" d="M316.7,224.4"/>
              <path id="DejaVuSans-4b-2" data-name="DejaVuSans-4b" d="M318.8,220.7h.5v1.6l1.7-1.6h.6l-1.8,1.7,2,2h-.7l-1.8-1.8v1.8h-.5v-3.7Z"/>
              <path id="DejaVuSans-61-4" data-name="DejaVuSans-61" d="M323.3,223c-.4,0-.6,0-.8.1s-.2.2-.2.4,0,.3.2.4c.1,0,.3.1.4.1s.5,0,.6-.3.2-.4.2-.7h0c0-.1-.5-.1-.5-.1ZM324.2,222.8v1.6h-.5v-.4c-.1.2-.2.3-.4.4-.2,0-.3.1-.6.1s-.5,0-.7-.2c-.2-.2-.3-.4-.3-.6s.1-.5.3-.7c.2-.2.5-.2.9-.2h.6c0-.3,0-.4-.2-.5s-.3-.2-.6-.2-.3,0-.5,0c-.2,0-.3,0-.4.2v-.4c.2,0,.3-.1.5-.1.2,0,.3,0,.5,0,.4,0,.7.1.9.3.2.2.3.5.3.9Z"/>
              <path id="DejaVuSans-65-4" data-name="DejaVuSans-65" d="M327.5,222.9v.2h-2.1c0,.3.1.6.3.7.2.2.4.2.7.2s.3,0,.5,0,.3-.1.5-.2v.4c-.2,0-.3.1-.5.2s-.3,0-.5,0c-.4,0-.8-.1-1.1-.4-.3-.3-.4-.6-.4-1s.1-.8.4-1.1c.2-.3.6-.4,1-.4s.7.1.9.4c.2.2.3.6.3,1ZM327.1,222.8c0-.2,0-.4-.2-.6-.1-.1-.3-.2-.5-.2s-.5,0-.6.2-.2.3-.3.6h1.6Z"/>
              <path id="DejaVuSans-77" d="M328,221.6h.5l.6,2.2.6-2.2h.5l.6,2.2.6-2.2h.5l-.7,2.8h-.5l-.6-2.3-.6,2.3h-.5l-.7-2.8Z"/>
            </g>
          </g>
          <g id="text_3">
            <g>
              <path id="DejaVuSans-42" d="M260.2,262.4v1.4h.8c.3,0,.5,0,.6-.2.1-.1.2-.3.2-.5s0-.4-.2-.5c-.1-.1-.3-.2-.6-.2h-.8ZM260.2,260.9v1.1h.7c.2,0,.4,0,.5-.1.1,0,.2-.2.2-.4s0-.3-.2-.4c-.1,0-.3-.1-.5-.1h-.7ZM259.7,260.5h1.3c.4,0,.7,0,.9.2.2.2.3.4.3.7s0,.4-.2.5-.3.2-.5.3c.2,0,.4.2.6.3.1.2.2.4.2.6s-.1.6-.3.8c-.2.2-.5.3-1,.3h-1.3v-3.7Z"/>
              <path id="DejaVuSans-61-5" data-name="DejaVuSans-61" d="M264.4,262.8c-.4,0-.6,0-.8.1s-.2.2-.2.4,0,.3.2.4c.1,0,.3.1.4.1s.5,0,.6-.3.2-.4.2-.7h0c0-.1-.5-.1-.5-.1ZM265.3,262.6v1.6h-.5v-.4c-.1.2-.2.3-.4.4-.2,0-.3.1-.6.1s-.5,0-.7-.2c-.2-.2-.3-.4-.3-.6s.1-.5.3-.7c.2-.2.5-.2.9-.2h.6c0-.3,0-.4-.2-.5s-.3-.2-.6-.2-.3,0-.5,0c-.2,0-.3,0-.4.2v-.4c.2,0,.3-.1.5-.1.2,0,.3,0,.5,0,.4,0,.7.1.9.3.2.2.3.5.3.9Z"/>
              <path id="DejaVuSans-61-6" data-name="DejaVuSans-61" d="M267.5,262.8c-.4,0-.6,0-.8.1s-.2.2-.2.4,0,.3.2.4c.1,0,.3.1.4.1s.5,0,.6-.3.2-.4.2-.7h0c0-.1-.5-.1-.5-.1ZM268.4,262.6v1.6h-.5v-.4c-.1.2-.2.3-.4.4-.2,0-.3.1-.6.1s-.5,0-.7-.2c-.2-.2-.3-.4-.3-.6s.1-.5.3-.7c.2-.2.5-.2.9-.2h.6c0-.3,0-.4-.2-.5s-.3-.2-.6-.2-.3,0-.5,0c-.2,0-.3,0-.4.2v-.4c.2,0,.3-.1.5-.1.2,0,.3,0,.5,0,.4,0,.7.1.9.3.2.2.3.5.3.9Z"/>
              <path id="DejaVuSans-6e-3" data-name="DejaVuSans-6e" d="M271.7,262.5v1.7h-.5v-1.7c0-.3,0-.5-.2-.6-.1-.1-.3-.2-.5-.2s-.4,0-.6.2c-.1.2-.2.4-.2.6v1.6h-.5v-2.8h.5v.4c.1-.2.2-.3.4-.4.1,0,.3-.1.5-.1.3,0,.6,0,.7.3.2.2.2.5.2.9Z"/>
              <path id="DejaVuSans-20-7" data-name="DejaVuSans-20" d="M272.1,264.2"/>
              <path id="DejaVuSans-44" d="M274.7,260.9v2.9h.6c.5,0,.9-.1,1.1-.3.2-.2.4-.6.4-1.1s-.1-.9-.4-1.1-.6-.3-1.1-.3h-.6ZM274.2,260.5h1c.7,0,1.2.1,1.6.4.3.3.5.8.5,1.4s-.2,1.1-.5,1.4c-.3.3-.9.4-1.6.4h-1v-3.7Z"/>
              <path id="DejaVuSans-61-7" data-name="DejaVuSans-61" d="M279.4,262.8c-.4,0-.6,0-.8.1s-.2.2-.2.4,0,.3.2.4c.1,0,.3.1.4.1s.5,0,.6-.3.2-.4.2-.7h0c0-.1-.5-.1-.5-.1ZM280.3,262.6v1.6h-.5v-.4c-.1.2-.2.3-.4.4-.2,0-.3.1-.6.1s-.5,0-.7-.2c-.2-.2-.3-.4-.3-.6s.1-.5.3-.7c.2-.2.5-.2.9-.2h.6c0-.3,0-.4-.2-.5s-.3-.2-.6-.2-.3,0-.5,0c-.2,0-.3,0-.4.2v-.4c.2,0,.3-.1.5-.1.2,0,.3,0,.5,0,.4,0,.7.1.9.3.2.2.3.5.3.9Z"/>
              <path id="DejaVuSans-6d-2" data-name="DejaVuSans-6d" d="M283.4,261.9c.1-.2.3-.4.4-.5s.3-.1.6-.1.5.1.7.3c.2.2.2.5.2.9v1.7h-.5v-1.7c0-.3,0-.5-.1-.6,0-.1-.2-.2-.4-.2s-.4,0-.6.2c-.1.2-.2.4-.2.6v1.6h-.5v-1.7c0-.3,0-.5-.1-.6s-.2-.2-.4-.2-.4,0-.6.2c-.1.2-.2.4-.2.6v1.6h-.5v-2.8h.5v.4c.1-.2.2-.3.4-.4s.3-.1.5-.1.4,0,.5.2c.1.1.2.3.3.4Z"/>
              <path id="DejaVuSans-20-8" data-name="DejaVuSans-20" d="M285.7,264.2"/>
              <path id="DejaVuSans-4d" d="M287.8,260.5h.7l.9,2.5,1-2.5h.7v3.7h-.5v-3.3l-1,2.5h-.5l-1-2.5v3.3h-.5v-3.7Z"/>
              <path id="DejaVuSans-75-2" data-name="DejaVuSans-75" d="M292.2,263.1v-1.7h.5v1.7c0,.3,0,.5.2.6.1.1.3.2.5.2s.4,0,.6-.2c.1-.2.2-.4.2-.6v-1.6h.5v2.8h-.5v-.4c-.1.2-.2.3-.4.4-.1,0-.3.1-.5.1-.3,0-.6,0-.7-.3-.2-.2-.2-.5-.2-.9ZM293.3,261.3h0Z"/>
              <path id="DejaVuSans-73" d="M297.2,261.5v.4c-.1,0-.3-.1-.4-.1-.1,0-.3,0-.4,0-.2,0-.4,0-.5.1-.1,0-.2.2-.2.3s0,.2.1.2.2.1.5.2h.2c.3.1.6.2.7.3s.2.3.2.5-.1.5-.3.6c-.2.2-.5.2-.8.2s-.3,0-.5,0c-.2,0-.3,0-.5-.1v-.5c.2,0,.3.2.5.2.2,0,.3,0,.5,0s.4,0,.5-.1c.1,0,.2-.2.2-.3s0-.2-.1-.3c0,0-.3-.1-.5-.2h-.2c-.3,0-.5-.2-.6-.3-.1-.1-.2-.3-.2-.5s0-.5.3-.6c.2-.1.4-.2.8-.2s.3,0,.5,0c.1,0,.3,0,.4.1Z"/>
              <path id="DejaVuSans-65-5" data-name="DejaVuSans-65" d="M300.5,262.7v.2h-2.1c0,.3.1.6.3.7.2.2.4.2.7.2s.3,0,.5,0,.3-.1.5-.2v.4c-.2,0-.3.1-.5.2s-.3,0-.5,0c-.4,0-.8-.1-1.1-.4-.3-.3-.4-.6-.4-1s.1-.8.4-1.1c.2-.3.6-.4,1-.4s.7.1.9.4c.2.2.3.6.3,1ZM300,262.5c0-.2,0-.4-.2-.6-.1-.1-.3-.2-.5-.2s-.5,0-.6.2-.2.3-.3.6h1.6Z"/>
              <path id="DejaVuSans-75-3" data-name="DejaVuSans-75" d="M301.2,263.1v-1.7h.5v1.7c0,.3,0,.5.2.6.1.1.3.2.5.2s.4,0,.6-.2c.1-.2.2-.4.2-.6v-1.6h.5v2.8h-.5v-.4c-.1.2-.2.3-.4.4-.1,0-.3.1-.5.1-.3,0-.6,0-.7-.3-.2-.2-.2-.5-.2-.9ZM302.3,261.3h0Z"/>
              <path id="DejaVuSans-6d-3" data-name="DejaVuSans-6d" d="M306.6,261.9c.1-.2.3-.4.4-.5s.3-.1.6-.1.5.1.7.3c.2.2.2.5.2.9v1.7h-.5v-1.7c0-.3,0-.5-.1-.6,0-.1-.2-.2-.4-.2s-.4,0-.6.2c-.1.2-.2.4-.2.6v1.6h-.5v-1.7c0-.3,0-.5-.1-.6s-.2-.2-.4-.2-.4,0-.6.2c-.1.2-.2.4-.2.6v1.6h-.5v-2.8h.5v.4c.1-.2.2-.3.4-.4s.3-.1.5-.1.4,0,.5.2c.1.1.2.3.3.4Z"/>
            </g>
          </g>
          <g id="text_4">
            <g>
              <path id="DejaVuSans-43" class="cls-16" d="M106.1-128.3v1.5c-.5-.4-1-.8-1.5-1-.5-.2-1.1-.3-1.7-.3-1.2,0-2.1.4-2.7,1.1s-.9,1.7-.9,3.1.3,2.4.9,3.1,1.5,1.1,2.7,1.1,1.2-.1,1.7-.3,1-.5,1.5-1v1.4c-.5.3-1,.6-1.5.7-.5.2-1.1.2-1.7.2-1.5,0-2.8-.5-3.7-1.4-.9-.9-1.3-2.2-1.3-3.9s.4-2.9,1.3-3.9c.9-.9,2.1-1.4,3.7-1.4s1.2,0,1.7.2c.5.2,1,.4,1.5.7Z"/>
              <path id="DejaVuSans-68-4" data-name="DejaVuSans-68" class="cls-16" d="M114.6-123.5v4.6h-1.3v-4.6c0-.7-.1-1.3-.4-1.6-.3-.4-.7-.5-1.3-.5s-1.2.2-1.6.6c-.4.4-.6,1-.6,1.8v4.3h-1.3v-10.6h1.3v4.2c.3-.5.7-.8,1.1-1,.4-.2.9-.3,1.4-.3.9,0,1.5.3,2,.8.5.5.7,1.3.7,2.4Z"/>
              <path id="DejaVuSans-69-2" data-name="DejaVuSans-69" class="cls-16" d="M117.1-126.6h1.3v7.7h-1.3v-7.7ZM117.1-129.6h1.3v1.6h-1.3v-1.6Z"/>
              <path id="DejaVuSans-61-8" data-name="DejaVuSans-61" class="cls-16" d="M124.5-122.8c-1,0-1.7.1-2.1.3s-.6.6-.6,1.2.1.8.4,1.1c.3.3.7.4,1.2.4s1.3-.2,1.7-.7.6-1.2.6-2v-.3h-1.3ZM127-123.3v4.4h-1.3v-1.2c-.3.5-.6.8-1.1,1-.4.2-1,.3-1.6.3s-1.4-.2-1.9-.7c-.5-.4-.7-1-.7-1.8s.3-1.5.9-1.9c.6-.4,1.4-.7,2.6-.7h1.8c0-.7-.2-1.2-.6-1.5s-.9-.5-1.6-.5-.9,0-1.3.2c-.4.1-.8.3-1.2.5v-1.2c.5-.2.9-.3,1.3-.4.4,0,.9-.1,1.3-.1,1.1,0,1.9.3,2.5.9.5.6.8,1.4.8,2.6Z"/>
              <path id="DejaVuSans-6e-4" data-name="DejaVuSans-6e" class="cls-16" d="M135.9-123.5v4.6h-1.3v-4.6c0-.7-.1-1.3-.4-1.6-.3-.4-.7-.5-1.3-.5s-1.2.2-1.6.6c-.4.4-.6,1-.6,1.8v4.3h-1.3v-7.7h1.3v1.2c.3-.5.7-.8,1.1-1,.4-.2.9-.3,1.4-.3.9,0,1.5.3,2,.8.5.5.7,1.3.7,2.4Z"/>
              <path id="DejaVuSans-67-2" data-name="DejaVuSans-67" class="cls-16" d="M143.5-122.8c0-.9-.2-1.6-.6-2.1-.4-.5-.9-.8-1.6-.8s-1.2.3-1.6.8c-.4.5-.6,1.2-.6,2.1s.2,1.6.6,2.1c.4.5.9.8,1.6.8s1.2-.3,1.6-.8c.4-.5.6-1.2.6-2.1ZM144.7-119.9c0,1.3-.3,2.3-.9,2.9-.6.6-1.5,1-2.7,1s-.9,0-1.3,0-.8-.2-1.1-.3v-1.2c.4.2.7.3,1.1.4.4,0,.7.1,1.1.1.8,0,1.4-.2,1.9-.6.4-.4.6-1.1.6-2v-.6c-.3.5-.6.8-1,1s-.9.3-1.5.3c-.9,0-1.7-.4-2.3-1.1-.6-.7-.9-1.7-.9-2.8s.3-2.1.9-2.8c.6-.7,1.3-1.1,2.3-1.1s1.1.1,1.5.3.7.6,1,1v-1.2h1.3v6.7Z"/>
              <path id="DejaVuSans-20-9" data-name="DejaVuSans-20" class="cls-16" d="M146-118.9"/>
              <path id="DejaVuSans-52-2" data-name="DejaVuSans-52" class="cls-16" d="M156.7-123.7c.3.1.6.3.9.6s.6.8.8,1.4l1.4,2.8h-1.5l-1.3-2.6c-.3-.7-.7-1.1-1-1.4s-.7-.3-1.3-.3h-1.5v4.3h-1.4v-10.2h3.1c1.2,0,2,.2,2.6.7.6.5.9,1.2.9,2.2s-.1,1.2-.4,1.6c-.3.4-.7.7-1.3.9ZM153.2-128v3.6h1.7c.7,0,1.2-.2,1.5-.5s.5-.8.5-1.4-.2-1-.5-1.3-.8-.5-1.5-.5h-1.7Z"/>
              <path id="DejaVuSans-61-9" data-name="DejaVuSans-61" class="cls-16" d="M164.7-122.8c-1,0-1.7.1-2.1.3s-.6.6-.6,1.2.1.8.4,1.1c.3.3.7.4,1.2.4s1.3-.2,1.7-.7.6-1.2.6-2v-.3h-1.3ZM167.2-123.3v4.4h-1.3v-1.2c-.3.5-.6.8-1.1,1-.4.2-1,.3-1.6.3s-1.4-.2-1.9-.7c-.5-.4-.7-1-.7-1.8s.3-1.5.9-1.9c.6-.4,1.4-.7,2.6-.7h1.8c0-.7-.2-1.2-.6-1.5s-.9-.5-1.6-.5-.9,0-1.3.2c-.4.1-.8.3-1.2.5v-1.2c.5-.2.9-.3,1.3-.4.4,0,.9-.1,1.3-.1,1.1,0,1.9.3,2.5.9.5.6.8,1.4.8,2.6Z"/>
              <path id="DejaVuSans-69-3" data-name="DejaVuSans-69" class="cls-16" d="M169.8-126.6h1.3v7.7h-1.3v-7.7ZM169.8-129.6h1.3v1.6h-1.3v-1.6Z"/>
              <path id="DejaVuSans-20-10" data-name="DejaVuSans-20" class="cls-16" d="M172.3-118.9"/>
              <path id="DejaVuSans-2013" class="cls-16" d="M177.5-123.2h5.6v1h-5.6v-1Z"/>
              <path id="DejaVuSans-20-11" data-name="DejaVuSans-20" class="cls-16" d="M183.8-118.9"/>
              <path id="DejaVuSans-49" class="cls-16" d="M189.6-129.1h1.4v10.2h-1.4v-10.2Z"/>
              <path id="DejaVuSans-6e-5" data-name="DejaVuSans-6e" class="cls-16" d="M200-123.5v4.6h-1.3v-4.6c0-.7-.1-1.3-.4-1.6-.3-.4-.7-.5-1.3-.5s-1.2.2-1.6.6c-.4.4-.6,1-.6,1.8v4.3h-1.3v-7.7h1.3v1.2c.3-.5.7-.8,1.1-1,.4-.2.9-.3,1.4-.3.9,0,1.5.3,2,.8.5.5.7,1.3.7,2.4Z"/>
              <path id="DejaVuSans-73-2" data-name="DejaVuSans-73" class="cls-16" d="M207.4-126.3v1.2c-.4-.2-.7-.3-1.1-.4-.4,0-.8-.1-1.2-.1-.6,0-1.1,0-1.4.3-.3.2-.5.5-.5.9s.1.5.3.7.7.3,1.3.5h.4c.9.3,1.5.6,1.9.9s.6.8.6,1.5-.3,1.3-.8,1.7c-.6.4-1.3.6-2.3.6s-.8,0-1.3-.1c-.4,0-.9-.2-1.4-.4v-1.3c.5.2.9.4,1.4.5.5.1.9.2,1.3.2s1-.1,1.4-.3c.3-.2.5-.5.5-.9s-.1-.6-.3-.8c-.2-.2-.7-.4-1.5-.5h-.4c-.8-.3-1.3-.5-1.7-.9-.3-.3-.5-.8-.5-1.4s.3-1.3.8-1.7c.5-.4,1.2-.6,2.2-.6s.9,0,1.3.1c.4,0,.8.2,1.1.3Z"/>
              <path id="DejaVuSans-74-4" data-name="DejaVuSans-74" class="cls-16" d="M211.1-128.7v2.2h2.6v1h-2.6v4.2c0,.6,0,1,.3,1.2s.5.3,1,.3h1.3v1.1h-1.3c-1,0-1.6-.2-2-.5-.4-.4-.6-1-.6-2v-4.2h-.9v-1h.9v-2.2h1.3Z"/>
              <path id="DejaVuSans-61-10" data-name="DejaVuSans-61" class="cls-16" d="M218.8-122.8c-1,0-1.7.1-2.1.3s-.6.6-.6,1.2.1.8.4,1.1c.3.3.7.4,1.2.4s1.3-.2,1.7-.7.6-1.2.6-2v-.3h-1.3ZM221.3-123.3v4.4h-1.3v-1.2c-.3.5-.6.8-1.1,1-.4.2-1,.3-1.6.3s-1.4-.2-1.9-.7c-.5-.4-.7-1-.7-1.8s.3-1.5.9-1.9c.6-.4,1.4-.7,2.6-.7h1.8c0-.7-.2-1.2-.6-1.5s-.9-.5-1.6-.5-.9,0-1.3.2c-.4.1-.8.3-1.2.5v-1.2c.5-.2.9-.3,1.3-.4.4,0,.9-.1,1.3-.1,1.1,0,1.9.3,2.5.9.5.6.8,1.4.8,2.6Z"/>
              <path id="DejaVuSans-67-3" data-name="DejaVuSans-67" class="cls-16" d="M228.9-122.8c0-.9-.2-1.6-.6-2.1-.4-.5-.9-.8-1.6-.8s-1.2.3-1.6.8c-.4.5-.6,1.2-.6,2.1s.2,1.6.6,2.1c.4.5.9.8,1.6.8s1.2-.3,1.6-.8c.4-.5.6-1.2.6-2.1ZM230.2-119.9c0,1.3-.3,2.3-.9,2.9-.6.6-1.5,1-2.7,1s-.9,0-1.3,0-.8-.2-1.1-.3v-1.2c.4.2.7.3,1.1.4.4,0,.7.1,1.1.1.8,0,1.4-.2,1.9-.6.4-.4.6-1.1.6-2v-.6c-.3.5-.6.8-1,1s-.9.3-1.5.3c-.9,0-1.7-.4-2.3-1.1-.6-.7-.9-1.7-.9-2.8s.3-2.1.9-2.8c.6-.7,1.3-1.1,2.3-1.1s1.1.1,1.5.3.7.6,1,1v-1.2h1.3v6.7Z"/>
              <path id="DejaVuSans-72-2" data-name="DejaVuSans-72" class="cls-16" d="M237.2-125.4c-.1,0-.3-.1-.5-.2-.2,0-.3,0-.5,0-.7,0-1.3.2-1.6.7s-.6,1.1-.6,2v4h-1.3v-7.7h1.3v1.2c.3-.5.6-.8,1-1,.4-.2.9-.3,1.5-.3s.2,0,.3,0c.1,0,.2,0,.3,0v1.3Z"/>
              <path id="DejaVuSans-61-11" data-name="DejaVuSans-61" class="cls-16" d="M242-122.8c-1,0-1.7.1-2.1.3s-.6.6-.6,1.2.1.8.4,1.1c.3.3.7.4,1.2.4s1.3-.2,1.7-.7.6-1.2.6-2v-.3h-1.3ZM244.5-123.3v4.4h-1.3v-1.2c-.3.5-.6.8-1.1,1-.4.2-1,.3-1.6.3s-1.4-.2-1.9-.7c-.5-.4-.7-1-.7-1.8s.3-1.5.9-1.9c.6-.4,1.4-.7,2.6-.7h1.8c0-.7-.2-1.2-.6-1.5s-.9-.5-1.6-.5-.9,0-1.3.2c-.4.1-.8.3-1.2.5v-1.2c.5-.2.9-.3,1.3-.4.4,0,.9-.1,1.3-.1,1.1,0,1.9.3,2.5.9.5.6.8,1.4.8,2.6Z"/>
              <path id="DejaVuSans-6d-4" data-name="DejaVuSans-6d" class="cls-16" d="M253.1-125.1c.3-.6.7-1,1.1-1.3s1-.4,1.5-.4,1.4.3,1.8.8c.4.6.6,1.4.6,2.4v4.6h-1.3v-4.6c0-.7-.1-1.3-.4-1.6-.3-.4-.7-.5-1.2-.5s-1.2.2-1.5.6c-.4.4-.6,1-.6,1.8v4.3h-1.3v-4.6c0-.7-.1-1.3-.4-1.6s-.7-.5-1.2-.5-1.2.2-1.5.7c-.4.4-.6,1-.6,1.8v4.3h-1.3v-7.7h1.3v1.2c.3-.5.6-.8,1-1s.9-.3,1.4-.3,1,.1,1.4.4c.4.3.7.7.9,1.2Z"/>
              <path id="DejaVuSans-20-12" data-name="DejaVuSans-20" class="cls-16" d="M259.5-118.9"/>
              <path id="DejaVuSans-43-2" data-name="DejaVuSans-43" class="cls-16" d="M272.9-128.3v1.5c-.5-.4-1-.8-1.5-1-.5-.2-1.1-.3-1.7-.3-1.2,0-2.1.4-2.7,1.1s-.9,1.7-.9,3.1.3,2.4.9,3.1,1.5,1.1,2.7,1.1,1.2-.1,1.7-.3,1-.5,1.5-1v1.4c-.5.3-1,.6-1.5.7-.5.2-1.1.2-1.7.2-1.5,0-2.8-.5-3.7-1.4-.9-.9-1.3-2.2-1.3-3.9s.4-2.9,1.3-3.9c.9-.9,2.1-1.4,3.7-1.4s1.2,0,1.7.2c.5.2,1,.4,1.5.7Z"/>
              <path id="DejaVuSans-61-12" data-name="DejaVuSans-61" class="cls-16" d="M278.5-122.8c-1,0-1.7.1-2.1.3s-.6.6-.6,1.2.1.8.4,1.1c.3.3.7.4,1.2.4s1.3-.2,1.7-.7.6-1.2.6-2v-.3h-1.3ZM281-123.3v4.4h-1.3v-1.2c-.3.5-.6.8-1.1,1-.4.2-1,.3-1.6.3s-1.4-.2-1.9-.7c-.5-.4-.7-1-.7-1.8s.3-1.5.9-1.9c.6-.4,1.4-.7,2.6-.7h1.8c0-.7-.2-1.2-.6-1.5s-.9-.5-1.6-.5-.9,0-1.3.2c-.4.1-.8.3-1.2.5v-1.2c.5-.2.9-.3,1.3-.4.4,0,.9-.1,1.3-.1,1.1,0,1.9.3,2.5.9.5.6.8,1.4.8,2.6Z"/>
              <path id="DejaVuSans-66" class="cls-16" d="M287.5-129.6v1h-1.2c-.5,0-.8,0-.9.3-.2.2-.3.5-.3,1v.7h2.1v1h-2.1v6.7h-1.3v-6.7h-1.2v-1h1.2v-.5c0-.9.2-1.5.6-1.9.4-.4,1-.6,1.9-.6h1.2Z"/>
              <path id="DejaVuSans-e9" class="cls-16" d="M295.1-123.1v.6h-5.8c0,.9.3,1.5.8,2,.5.5,1.1.7,2,.7s1,0,1.4-.2.9-.3,1.4-.5v1.2c-.5.2-.9.3-1.4.4s-1,.2-1.4.2c-1.2,0-2.2-.4-2.9-1.1-.7-.7-1.1-1.7-1.1-2.9s.3-2.2,1-3c.7-.7,1.6-1.1,2.7-1.1s1.8.3,2.4,1c.6.7.9,1.6.9,2.7ZM293.8-123.4c0-.7-.2-1.2-.6-1.6-.4-.4-.9-.6-1.5-.6s-1.3.2-1.7.6-.7,1-.7,1.7h4.5ZM292.6-130.1h1.4l-2.2,2.6h-1l1.9-2.6Z"/>
              <path id="DejaVuSans-73-3" data-name="DejaVuSans-73" class="cls-16" d="M302-126.3v1.2c-.4-.2-.7-.3-1.1-.4-.4,0-.8-.1-1.2-.1-.6,0-1.1,0-1.4.3-.3.2-.5.5-.5.9s.1.5.3.7.7.3,1.3.5h.4c.9.3,1.5.6,1.9.9s.6.8.6,1.5-.3,1.3-.8,1.7c-.6.4-1.3.6-2.3.6s-.8,0-1.3-.1c-.4,0-.9-.2-1.4-.4v-1.3c.5.2.9.4,1.4.5.5.1.9.2,1.3.2s1-.1,1.4-.3c.3-.2.5-.5.5-.9s-.1-.6-.3-.8c-.2-.2-.7-.4-1.5-.5h-.4c-.8-.3-1.3-.5-1.7-.9-.3-.3-.5-.8-.5-1.4s.3-1.3.8-1.7c.5-.4,1.2-.6,2.2-.6s.9,0,1.3.1c.4,0,.8.2,1.1.3Z"/>
              <path id="DejaVuSans-20-13" data-name="DejaVuSans-20" class="cls-16" d="M303.1-118.9"/>
              <path id="DejaVuSans-62" class="cls-16" d="M314.4-122.7c0-.9-.2-1.7-.6-2.2s-.9-.8-1.6-.8-1.2.3-1.6.8-.6,1.3-.6,2.2.2,1.7.6,2.2c.4.5.9.8,1.6.8s1.2-.3,1.6-.8c.4-.5.6-1.3.6-2.2ZM310.1-125.4c.3-.5.6-.8,1-1,.4-.2.9-.3,1.4-.3.9,0,1.7.4,2.3,1.1.6.7.9,1.7.9,2.9s-.3,2.2-.9,2.9c-.6.7-1.3,1.1-2.3,1.1s-1-.1-1.4-.3c-.4-.2-.7-.6-1-1v1.1h-1.3v-10.6h1.3v4.1Z"/>
              <path id="DejaVuSans-79" class="cls-16" d="M320.9-118.2c-.4.9-.7,1.5-1,1.8-.3.3-.8.4-1.4.4h-1v-1.1h.7c.3,0,.6,0,.8-.2.2-.2.4-.6.6-1.2l.2-.6-3.1-7.5h1.3l2.4,6,2.4-6h1.3l-3.4,8.4Z"/>
              <path id="DejaVuSans-20-14" data-name="DejaVuSans-20" class="cls-16" d="M324.7-118.9"/>
              <path id="DejaVuSans-54-2" data-name="DejaVuSans-54" class="cls-16" d="M329.1-129.1h8.6v1.2h-3.6v9h-1.4v-9h-3.6v-1.2Z"/>
              <path id="DejaVuSans-68-5" data-name="DejaVuSans-68" class="cls-16" d="M345.4-123.5v4.6h-1.3v-4.6c0-.7-.1-1.3-.4-1.6-.3-.4-.7-.5-1.3-.5s-1.2.2-1.6.6c-.4.4-.6,1-.6,1.8v4.3h-1.3v-10.6h1.3v4.2c.3-.5.7-.8,1.1-1,.4-.2.9-.3,1.4-.3.9,0,1.5.3,2,.8.5.5.7,1.3.7,2.4Z"/>
              <path id="DejaVuSans-65-6" data-name="DejaVuSans-65" class="cls-16" d="M354.5-123.1v.6h-5.8c0,.9.3,1.5.8,2,.5.5,1.1.7,2,.7s1,0,1.4-.2.9-.3,1.4-.5v1.2c-.5.2-.9.3-1.4.4s-1,.2-1.4.2c-1.2,0-2.2-.4-2.9-1.1-.7-.7-1.1-1.7-1.1-2.9s.3-2.2,1-3c.7-.7,1.6-1.1,2.7-1.1s1.8.3,2.4,1c.6.7.9,1.6.9,2.7ZM353.2-123.4c0-.7-.2-1.2-.6-1.6-.4-.4-.9-.6-1.5-.6s-1.3.2-1.7.6-.7,1-.7,1.7h4.5Z"/>
              <path id="DejaVuSans-6d-5" data-name="DejaVuSans-6d" class="cls-16" d="M362.5-125.1c.3-.6.7-1,1.1-1.3s1-.4,1.5-.4,1.4.3,1.8.8c.4.6.6,1.4.6,2.4v4.6h-1.3v-4.6c0-.7-.1-1.3-.4-1.6-.3-.4-.7-.5-1.2-.5s-1.2.2-1.5.6c-.4.4-.6,1-.6,1.8v4.3h-1.3v-4.6c0-.7-.1-1.3-.4-1.6s-.7-.5-1.2-.5-1.2.2-1.5.7c-.4.4-.6,1-.6,1.8v4.3h-1.3v-7.7h1.3v1.2c.3-.5.6-.8,1-1s.9-.3,1.4-.3,1,.1,1.4.4c.4.3.7.7.9,1.2Z"/>
              <path id="DejaVuSans-65-7" data-name="DejaVuSans-65" class="cls-16" d="M376.7-123.1v.6h-5.8c0,.9.3,1.5.8,2,.5.5,1.1.7,2,.7s1,0,1.4-.2.9-.3,1.4-.5v1.2c-.5.2-.9.3-1.4.4s-1,.2-1.4.2c-1.2,0-2.2-.4-2.9-1.1-.7-.7-1.1-1.7-1.1-2.9s.3-2.2,1-3c.7-.7,1.6-1.1,2.7-1.1s1.8.3,2.4,1c.6.7.9,1.6.9,2.7ZM375.5-123.4c0-.7-.2-1.2-.6-1.6-.4-.4-.9-.6-1.5-.6s-1.3.2-1.7.6-.7,1-.7,1.7h4.5Z"/>
            </g>
          </g>
          <g id="PathCollection_7">
            <g class="cls-14">
              <path id="m4fe7a62304" class="cls-5" d="M261.4,256.1c.6,0,1.1-.2,1.5-.6.4-.4.6-.9.6-1.5s-.2-1.1-.6-1.5c-.4-.4-.9-.6-1.5-.6s-1.1.2-1.5.6c-.4.4-.6.9-.6,1.5s.2,1.1.6,1.5c.4.4.9.6,1.5.6Z"/>
              <path id="m4fe7a62304-2" data-name="m4fe7a62304" class="cls-5" d="M284.9,225c.6,0,1.1-.2,1.5-.6.4-.4.6-.9.6-1.5s-.2-1.1-.6-1.5c-.4-.4-.9-.6-1.5-.6s-1.1.2-1.5.6c-.4.4-.6.9-.6,1.5s.2,1.1.6,1.5c.4.4.9.6,1.5.6Z"/>
              <path id="m4fe7a62304-3" data-name="m4fe7a62304" class="cls-5" d="M261.7,259.1c.6,0,1.1-.2,1.5-.6.4-.4.6-.9.6-1.5s-.2-1.1-.6-1.5c-.4-.4-.9-.6-1.5-.6s-1.1.2-1.5.6c-.4.4-.6.9-.6,1.5s.2,1.1.6,1.5c.4.4.9.6,1.5.6Z"/>
            </g>
          </g>
          <g id="legend_1">
            <g id="text_5">
              <g>
                <path id="DejaVuSans-50-2" data-name="DejaVuSans-50" class="cls-16" d="M644.9,205.9v3.3h1.5c.6,0,1-.1,1.3-.4.3-.3.5-.7.5-1.2s-.2-.9-.5-1.2c-.3-.3-.7-.4-1.3-.4h-1.5ZM643.7,204.9h2.7c1,0,1.7.2,2.2.7.5.4.8,1.1.8,1.9s-.3,1.5-.8,2c-.5.4-1.2.7-2.2.7h-1.5v3.5h-1.2v-8.7Z"/>
                <path id="DejaVuSans-72-3" data-name="DejaVuSans-72" class="cls-16" d="M654.5,208.1c-.1,0-.3-.1-.4-.2-.1,0-.3,0-.5,0-.6,0-1.1.2-1.4.6s-.5,1-.5,1.7v3.5h-1.1v-6.6h1.1v1c.2-.4.5-.7.9-.9.4-.2.8-.3,1.3-.3s.2,0,.2,0c0,0,.2,0,.3,0v1.1Z"/>
                <path id="DejaVuSans-69-4" data-name="DejaVuSans-69" class="cls-16" d="M655.7,207.1h1.1v6.6h-1.1v-6.6ZM655.7,204.6h1.1v1.4h-1.1v-1.4Z"/>
                <path id="DejaVuSans-6d-6" data-name="DejaVuSans-6d" class="cls-16" d="M664.1,208.4c.3-.5.6-.8,1-1.1s.8-.3,1.3-.3,1.2.2,1.6.7c.4.5.6,1.2.6,2v4h-1.1v-3.9c0-.6-.1-1.1-.3-1.4-.2-.3-.6-.5-1-.5s-1,.2-1.3.6c-.3.4-.5.9-.5,1.5v3.7h-1.1v-3.9c0-.6-.1-1.1-.3-1.4s-.6-.5-1-.5-1,.2-1.3.6c-.3.4-.5.9-.5,1.5v3.7h-1.1v-6.6h1.1v1c.2-.4.5-.7.9-.9s.8-.3,1.2-.3.9.1,1.2.4c.3.2.6.6.7,1.1Z"/>
                <path id="DejaVuSans-61-13" data-name="DejaVuSans-61" class="cls-16" d="M673.7,210.4c-.9,0-1.5,0-1.8.3s-.5.5-.5,1,.1.7.4.9c.3.2.6.3,1,.3s1.1-.2,1.4-.6.5-1,.5-1.7v-.2h-1.1ZM675.8,209.9v3.7h-1.1v-1c-.2.4-.6.7-.9.9-.4.2-.8.3-1.3.3s-1.2-.2-1.6-.6c-.4-.4-.6-.9-.6-1.5s.2-1.3.7-1.7c.5-.4,1.2-.6,2.2-.6h1.5c0-.6-.2-1-.5-1.3s-.8-.4-1.4-.4-.7,0-1.1.1c-.4,0-.7.2-1,.4v-1c.4-.2.8-.3,1.1-.3.4,0,.7-.1,1.1-.1,1,0,1.7.2,2.1.7.5.5.7,1.2.7,2.2Z"/>
                <path id="DejaVuSans-72-4" data-name="DejaVuSans-72" class="cls-16" d="M681.8,208.1c-.1,0-.3-.1-.4-.2-.1,0-.3,0-.5,0-.6,0-1.1.2-1.4.6s-.5,1-.5,1.7v3.5h-1.1v-6.6h1.1v1c.2-.4.5-.7.9-.9.4-.2.8-.3,1.3-.3s.2,0,.2,0c0,0,.2,0,.3,0v1.1Z"/>
                <path id="DejaVuSans-79-2" data-name="DejaVuSans-79" class="cls-16" d="M685.7,214.3c-.3.8-.6,1.3-.9,1.5-.3.2-.7.4-1.2.4h-.9v-.9h.6c.3,0,.5,0,.7-.2.2-.1.3-.5.5-1l.2-.5-2.7-6.5h1.1l2.1,5.1,2.1-5.1h1.1l-2.9,7.2Z"/>
                <path id="DejaVuSans-20-15" data-name="DejaVuSans-20" class="cls-16" d="M688.9,213.7"/>
                <path id="DejaVuSans-54-3" data-name="DejaVuSans-54" class="cls-16" d="M692.7,204.9h7.4v1h-3.1v7.8h-1.2v-7.8h-3.1v-1Z"/>
                <path id="DejaVuSans-68-6" data-name="DejaVuSans-68" class="cls-16" d="M706.7,209.7v4h-1.1v-3.9c0-.6-.1-1.1-.4-1.4-.2-.3-.6-.5-1.1-.5s-1,.2-1.4.6c-.3.4-.5.9-.5,1.5v3.7h-1.1v-9.1h1.1v3.6c.3-.4.6-.7.9-.9.3-.2.8-.3,1.2-.3.8,0,1.3.2,1.7.7.4.5.6,1.2.6,2.1Z"/>
                <path id="DejaVuSans-65-8" data-name="DejaVuSans-65" class="cls-16" d="M714.4,210.1v.5h-5c0,.7.3,1.3.7,1.7.4.4,1,.6,1.7.6s.8,0,1.2-.2.8-.3,1.2-.5v1c-.4.2-.8.3-1.2.4s-.8.1-1.2.1c-1,0-1.9-.3-2.5-.9-.6-.6-.9-1.4-.9-2.5s.3-1.9.9-2.6c.6-.6,1.4-.9,2.3-.9s1.6.3,2.1.9c.5.6.8,1.3.8,2.3ZM713.3,209.8c0-.6-.2-1.1-.5-1.4-.3-.4-.7-.5-1.3-.5s-1.1.2-1.4.5-.6.8-.6,1.4h3.8Z"/>
                <path id="DejaVuSans-6d-7" data-name="DejaVuSans-6d" class="cls-16" d="M721.3,208.4c.3-.5.6-.8,1-1.1s.8-.3,1.3-.3,1.2.2,1.6.7c.4.5.6,1.2.6,2v4h-1.1v-3.9c0-.6-.1-1.1-.3-1.4-.2-.3-.6-.5-1-.5s-1,.2-1.3.6c-.3.4-.5.9-.5,1.5v3.7h-1.1v-3.9c0-.6-.1-1.1-.3-1.4s-.6-.5-1-.5-1,.2-1.3.6c-.3.4-.5.9-.5,1.5v3.7h-1.1v-6.6h1.1v1c.2-.4.5-.7.9-.9s.8-.3,1.2-.3.9.1,1.2.4c.3.2.6.6.7,1.1Z"/>
                <path id="DejaVuSans-65-9" data-name="DejaVuSans-65" class="cls-16" d="M733.5,210.1v.5h-5c0,.7.3,1.3.7,1.7.4.4,1,.6,1.7.6s.8,0,1.2-.2.8-.3,1.2-.5v1c-.4.2-.8.3-1.2.4s-.8.1-1.2.1c-1,0-1.9-.3-2.5-.9-.6-.6-.9-1.4-.9-2.5s.3-1.9.9-2.6c.6-.6,1.4-.9,2.3-.9s1.6.3,2.1.9c.5.6.8,1.3.8,2.3ZM732.4,209.8c0-.6-.2-1.1-.5-1.4-.3-.4-.7-.5-1.3-.5s-1.1.2-1.4.5-.6.8-.6,1.4h3.8Z"/>
              </g>
            </g>
            <g id="PathCollection_8">
              <path id="md912113257-3" data-name="md912113257" class="cls-6" d="M631.7,230.7c.9,0,1.8-.4,2.5-1s1-1.6,1-2.5-.4-1.8-1-2.5-1.6-1-2.5-1-1.8.4-2.5,1-1,1.6-1,2.5.4,1.8,1,2.5,1.6,1,2.5,1Z"/>
            </g>
            <g id="text_6">
              <g>
                <path id="DejaVuSans-63" class="cls-16" d="M656.8,224.3v.9c-.3-.2-.6-.3-.8-.3s-.6-.1-.9-.1c-.6,0-1.1.2-1.5.6-.4.4-.5,1-.5,1.7s.2,1.3.5,1.7c.4.4.9.6,1.5.6s.6,0,.9-.1.6-.2.8-.3v.9c-.3.1-.6.2-.9.3-.3,0-.6,0-.9,0-.9,0-1.6-.3-2.2-.9-.5-.6-.8-1.3-.8-2.3s.3-1.8.8-2.3c.5-.6,1.3-.8,2.2-.8s.6,0,.9,0c.3,0,.6.2.8.3Z"/>
                <path id="DejaVuSans-6f-2" data-name="DejaVuSans-6f" class="cls-16" d="M660.9,224.7c-.5,0-.9.2-1.3.6s-.5,1-.5,1.7.2,1.3.5,1.7c.3.4.7.6,1.3.6s.9-.2,1.3-.6c.3-.4.5-1,.5-1.7s-.2-1.3-.5-1.7c-.3-.4-.7-.6-1.3-.6ZM660.9,223.9c.9,0,1.5.3,2,.8.5.6.7,1.3.7,2.3s-.2,1.8-.7,2.3c-.5.6-1.2.8-2,.8s-1.5-.3-2-.8c-.5-.6-.7-1.3-.7-2.3s.2-1.8.7-2.3c.5-.6,1.2-.8,2-.8Z"/>
                <path id="DejaVuSans-6d-8" data-name="DejaVuSans-6d" class="cls-16" d="M670,225.2c.2-.4.5-.8.9-1s.7-.3,1.2-.3,1.1.2,1.5.7c.3.4.5,1.1.5,1.9v3.6h-1v-3.6c0-.6-.1-1-.3-1.3-.2-.3-.5-.4-.9-.4s-.9.2-1.2.5c-.3.3-.4.8-.4,1.4v3.4h-1v-3.6c0-.6-.1-1-.3-1.3s-.5-.4-.9-.4-.9.2-1.2.5c-.3.3-.4.8-.4,1.4v3.4h-1v-6h1v.9c.2-.4.5-.6.8-.8s.7-.3,1.1-.3.8.1,1.1.3c.3.2.5.5.7,1Z"/>
                <path id="DejaVuSans-6d-9" data-name="DejaVuSans-6d" class="cls-16" d="M680.7,225.2c.2-.4.5-.8.9-1s.7-.3,1.2-.3,1.1.2,1.5.7c.3.4.5,1.1.5,1.9v3.6h-1v-3.6c0-.6-.1-1-.3-1.3-.2-.3-.5-.4-.9-.4s-.9.2-1.2.5c-.3.3-.4.8-.4,1.4v3.4h-1v-3.6c0-.6-.1-1-.3-1.3s-.5-.4-.9-.4-.9.2-1.2.5c-.3.3-.4.8-.4,1.4v3.4h-1v-6h1v.9c.2-.4.5-.6.8-.8s.7-.3,1.1-.3.8.1,1.1.3c.3.2.5.5.7,1Z"/>
                <path id="DejaVuSans-75-4" data-name="DejaVuSans-75" class="cls-16" d="M686.6,227.7v-3.6h1v3.6c0,.6.1,1,.3,1.3.2.3.6.4,1,.4s1-.2,1.3-.5c.3-.3.5-.8.5-1.4v-3.4h1v6h-1v-.9c-.2.4-.5.6-.8.8-.3.2-.7.3-1.1.3-.7,0-1.2-.2-1.6-.6-.4-.4-.5-1.1-.5-1.9ZM689.1,223.9h0Z"/>
                <path id="DejaVuSans-6e-6" data-name="DejaVuSans-6e" class="cls-16" d="M698.7,226.4v3.6h-1v-3.6c0-.6-.1-1-.3-1.3-.2-.3-.6-.4-1-.4s-1,.2-1.3.5c-.3.3-.5.8-.5,1.4v3.4h-1v-6h1v.9c.2-.4.5-.6.8-.8.3-.2.7-.3,1.1-.3.7,0,1.2.2,1.6.6.4.4.5,1.1.5,1.9Z"/>
                <path id="DejaVuSans-69-5" data-name="DejaVuSans-69" class="cls-16" d="M700.6,224h1v6h-1v-6ZM700.6,221.7h1v1.3h-1v-1.3Z"/>
                <path id="DejaVuSans-74-5" data-name="DejaVuSans-74" class="cls-16" d="M704.7,222.3v1.7h2v.8h-2v3.3c0,.5,0,.8.2.9s.4.2.8.2h1v.8h-1c-.8,0-1.3-.1-1.6-.4-.3-.3-.4-.8-.4-1.6v-3.3h-.7v-.8h.7v-1.7h1Z"/>
                <path id="DejaVuSans-79-3" data-name="DejaVuSans-79" class="cls-16" d="M710.5,230.6c-.3.7-.6,1.2-.8,1.4-.3.2-.6.3-1.1.3h-.8v-.8h.6c.3,0,.5,0,.6-.2.2-.1.3-.4.5-.9l.2-.5-2.4-5.9h1l1.9,4.7,1.9-4.7h1l-2.6,6.6Z"/>
                <path id="DejaVuSans-5f" class="cls-16" d="M719.1,231.9v.8h-5.7v-.8h5.7Z"/>
                <path id="DejaVuSans-65-10" data-name="DejaVuSans-65" class="cls-16" d="M725.2,226.8v.5h-4.5c0,.7.2,1.2.6,1.6.4.4.9.5,1.5.5s.7,0,1.1-.1.7-.2,1.1-.4v.9c-.4.2-.7.3-1.1.3s-.7.1-1.1.1c-1,0-1.7-.3-2.3-.8-.6-.6-.8-1.3-.8-2.3s.3-1.8.8-2.3c.5-.6,1.2-.9,2.2-.9s1.4.3,1.9.8c.5.5.7,1.2.7,2.1ZM724.2,226.5c0-.5-.2-1-.5-1.3-.3-.3-.7-.5-1.2-.5s-1,.2-1.3.5-.5.8-.6,1.3h3.5Z"/>
                <path id="DejaVuSans-76" class="cls-16" d="M726.1,224h1l1.9,5,1.9-5h1l-2.3,6h-1.3l-2.3-6Z"/>
                <path id="DejaVuSans-65-11" data-name="DejaVuSans-65" class="cls-16" d="M738.4,226.8v.5h-4.5c0,.7.2,1.2.6,1.6.4.4.9.5,1.5.5s.7,0,1.1-.1.7-.2,1.1-.4v.9c-.4.2-.7.3-1.1.3s-.7.1-1.1.1c-1,0-1.7-.3-2.3-.8-.6-.6-.8-1.3-.8-2.3s.3-1.8.8-2.3c.5-.6,1.2-.9,2.2-.9s1.4.3,1.9.8c.5.5.7,1.2.7,2.1ZM737.5,226.5c0-.5-.2-1-.5-1.3-.3-.3-.7-.5-1.2-.5s-1,.2-1.3.5-.5.8-.6,1.3h3.5Z"/>
                <path id="DejaVuSans-6e-7" data-name="DejaVuSans-6e" class="cls-16" d="M745.1,226.4v3.6h-1v-3.6c0-.6-.1-1-.3-1.3-.2-.3-.6-.4-1-.4s-1,.2-1.3.5c-.3.3-.5.8-.5,1.4v3.4h-1v-6h1v.9c.2-.4.5-.6.8-.8.3-.2.7-.3,1.1-.3.7,0,1.2.2,1.6.6.4.4.5,1.1.5,1.9Z"/>
                <path id="DejaVuSans-74-6" data-name="DejaVuSans-74" class="cls-16" d="M748,222.3v1.7h2v.8h-2v3.3c0,.5,0,.8.2.9s.4.2.8.2h1v.8h-1c-.8,0-1.3-.1-1.6-.4-.3-.3-.4-.8-.4-1.6v-3.3h-.7v-.8h.7v-1.7h1Z"/>
                <path id="DejaVuSans-73-4" data-name="DejaVuSans-73" class="cls-16" d="M755.2,224.2v.9c-.3-.1-.6-.3-.9-.3-.3,0-.6-.1-.9-.1-.5,0-.9,0-1.1.2-.2.2-.4.4-.4.7s0,.4.3.5.5.3,1.1.4h.3c.7.2,1.2.4,1.5.7s.4.7.4,1.1-.2,1-.7,1.3c-.4.3-1.1.5-1.8.5s-.7,0-1,0c-.3,0-.7-.2-1.1-.3v-1c.4.2.7.3,1.1.4.4,0,.7.1,1.1.1s.8,0,1.1-.2c.3-.2.4-.4.4-.7s0-.5-.3-.6c-.2-.1-.6-.3-1.2-.4h-.3c-.6-.2-1.1-.4-1.3-.7-.3-.3-.4-.6-.4-1.1s.2-1,.6-1.3c.4-.3,1-.5,1.7-.5s.7,0,1,0c.3,0,.6.1.9.2Z"/>
              </g>
            </g>
            <g id="PathCollection_9">
              <path id="m173503fbaf-2" data-name="m173503fbaf" class="cls-9" d="M631.7,247.1c.9,0,1.8-.4,2.5-1s1-1.6,1-2.5-.4-1.8-1-2.5-1.6-1-2.5-1-1.8.4-2.5,1-1,1.6-1,2.5.4,1.8,1,2.5,1.6,1,2.5,1Z"/>
            </g>
            <g id="text_7">
              <g>
                <path id="DejaVuSans-64" class="cls-16" d="M656.4,241.4v-3.3h1v8.4h-1v-.9c-.2.4-.5.6-.8.8-.3.2-.7.3-1.1.3-.7,0-1.3-.3-1.8-.9-.5-.6-.7-1.3-.7-2.3s.2-1.7.7-2.3c.5-.6,1-.9,1.8-.9s.8,0,1.1.3c.3.2.6.4.8.8ZM653.1,243.5c0,.7.1,1.3.4,1.7.3.4.7.6,1.2.6s.9-.2,1.2-.6c.3-.4.5-1,.5-1.7s-.2-1.3-.5-1.7c-.3-.4-.7-.6-1.2-.6s-.9.2-1.2.6-.4,1-.4,1.7Z"/>
                <path id="DejaVuSans-65-12" data-name="DejaVuSans-65" class="cls-16" d="M664.6,243.2v.5h-4.5c0,.7.2,1.2.6,1.6.4.4.9.5,1.5.5s.7,0,1.1-.1.7-.2,1.1-.4v.9c-.4.2-.7.3-1.1.3s-.7.1-1.1.1c-1,0-1.7-.3-2.3-.8-.6-.6-.8-1.3-.8-2.3s.3-1.8.8-2.3c.5-.6,1.2-.9,2.2-.9s1.4.3,1.9.8c.5.5.7,1.2.7,2.1ZM663.6,242.9c0-.5-.2-1-.5-1.3-.3-.3-.7-.5-1.2-.5s-1,.2-1.3.5-.5.8-.6,1.3h3.5Z"/>
                <path id="DejaVuSans-73-5" data-name="DejaVuSans-73" class="cls-16" d="M670.1,240.7v.9c-.3-.1-.6-.3-.9-.3-.3,0-.6-.1-.9-.1-.5,0-.9,0-1.1.2-.2.2-.4.4-.4.7s0,.4.3.5.5.3,1.1.4h.3c.7.2,1.2.4,1.5.7s.4.7.4,1.1-.2,1-.7,1.3c-.4.3-1.1.5-1.8.5s-.7,0-1,0c-.3,0-.7-.2-1.1-.3v-1c.4.2.7.3,1.1.4.4,0,.7.1,1.1.1s.8,0,1.1-.2c.3-.2.4-.4.4-.7s0-.5-.3-.6c-.2-.1-.6-.3-1.2-.4h-.3c-.6-.2-1.1-.4-1.3-.7-.3-.3-.4-.6-.4-1.1s.2-1,.6-1.3c.4-.3,1-.5,1.7-.5s.7,0,1,0c.3,0,.6.1.9.2Z"/>
                <path id="DejaVuSans-69-6" data-name="DejaVuSans-69" class="cls-16" d="M672,240.5h1v6h-1v-6ZM672,238.1h1v1.3h-1v-1.3Z"/>
                <path id="DejaVuSans-67-4" data-name="DejaVuSans-67" class="cls-16" d="M679,243.4c0-.7-.1-1.3-.4-1.7-.3-.4-.7-.6-1.2-.6s-.9.2-1.2.6c-.3.4-.4.9-.4,1.7s.1,1.3.4,1.7c.3.4.7.6,1.2.6s.9-.2,1.2-.6c.3-.4.4-.9.4-1.7ZM680,245.7c0,1-.2,1.8-.7,2.3-.5.5-1.1.7-2.1.7s-.7,0-1,0-.6-.1-.9-.2v-1c.3.2.6.3.9.3.3,0,.6.1.9.1.6,0,1.1-.2,1.5-.5.3-.3.5-.8.5-1.5v-.5c-.2.4-.5.6-.8.8s-.7.3-1.1.3c-.7,0-1.3-.3-1.8-.8-.5-.6-.7-1.3-.7-2.2s.2-1.7.7-2.2c.5-.6,1-.8,1.8-.8s.8,0,1.1.3.6.4.8.8v-.9h1v5.3Z"/>
                <path id="DejaVuSans-6e-8" data-name="DejaVuSans-6e" class="cls-16" d="M687,242.9v3.6h-1v-3.6c0-.6-.1-1-.3-1.3-.2-.3-.6-.4-1-.4s-1,.2-1.3.5c-.3.3-.5.8-.5,1.4v3.4h-1v-6h1v.9c.2-.4.5-.6.8-.8.3-.2.7-.3,1.1-.3.7,0,1.2.2,1.6.6.4.4.5,1.1.5,1.9Z"/>
                <path id="DejaVuSans-5f-2" data-name="DejaVuSans-5f" class="cls-16" d="M693.6,248.3v.8h-5.7v-.8h5.7Z"/>
                <path id="DejaVuSans-6d-10" data-name="DejaVuSans-6d" class="cls-16" d="M699.2,241.6c.2-.4.5-.8.9-1s.7-.3,1.2-.3,1.1.2,1.5.7c.3.4.5,1.1.5,1.9v3.6h-1v-3.6c0-.6-.1-1-.3-1.3-.2-.3-.5-.4-.9-.4s-.9.2-1.2.5c-.3.3-.4.8-.4,1.4v3.4h-1v-3.6c0-.6-.1-1-.3-1.3s-.5-.4-.9-.4-.9.2-1.2.5c-.3.3-.4.8-.4,1.4v3.4h-1v-6h1v.9c.2-.4.5-.6.8-.8s.7-.3,1.1-.3.8.1,1.1.3c.3.2.5.5.7,1Z"/>
                <path id="DejaVuSans-69-7" data-name="DejaVuSans-69" class="cls-16" d="M705.2,240.5h1v6h-1v-6ZM705.2,238.1h1v1.3h-1v-1.3Z"/>
                <path id="DejaVuSans-6e-9" data-name="DejaVuSans-6e" class="cls-16" d="M713.3,242.9v3.6h-1v-3.6c0-.6-.1-1-.3-1.3-.2-.3-.6-.4-1-.4s-1,.2-1.3.5c-.3.3-.5.8-.5,1.4v3.4h-1v-6h1v.9c.2-.4.5-.6.8-.8.3-.2.7-.3,1.1-.3.7,0,1.2.2,1.6.6.4.4.5,1.1.5,1.9Z"/>
                <path id="DejaVuSans-69-8" data-name="DejaVuSans-69" class="cls-16" d="M715.2,240.5h1v6h-1v-6ZM715.2,238.1h1v1.3h-1v-1.3Z"/>
                <path id="DejaVuSans-6d-11" data-name="DejaVuSans-6d" class="cls-16" d="M723,241.6c.2-.4.5-.8.9-1s.7-.3,1.2-.3,1.1.2,1.5.7c.3.4.5,1.1.5,1.9v3.6h-1v-3.6c0-.6-.1-1-.3-1.3-.2-.3-.5-.4-.9-.4s-.9.2-1.2.5c-.3.3-.4.8-.4,1.4v3.4h-1v-3.6c0-.6-.1-1-.3-1.3s-.5-.4-.9-.4-.9.2-1.2.5c-.3.3-.4.8-.4,1.4v3.4h-1v-6h1v.9c.2-.4.5-.6.8-.8s.7-.3,1.1-.3.8.1,1.1.3c.3.2.5.5.7,1Z"/>
                <path id="DejaVuSans-61-14" data-name="DejaVuSans-61" class="cls-16" d="M731.7,243.5c-.8,0-1.4,0-1.7.3s-.5.5-.5.9.1.6.3.8c.2.2.5.3.9.3s1-.2,1.3-.6.5-.9.5-1.5v-.2h-1ZM733.7,243.1v3.4h-1v-.9c-.2.4-.5.6-.8.8-.3.2-.7.3-1.2.3s-1.1-.2-1.5-.5c-.4-.3-.5-.8-.5-1.4s.2-1.2.7-1.5c.5-.3,1.1-.5,2-.5h1.4c0-.6-.1-.9-.4-1.2s-.7-.4-1.3-.4-.7,0-1,.1c-.3,0-.6.2-.9.4v-.9c.4-.1.7-.2,1.1-.3.3,0,.7-.1,1-.1.9,0,1.5.2,2,.7.4.5.6,1.1.6,2.1Z"/>
                <path id="DejaVuSans-6c-2" data-name="DejaVuSans-6c" class="cls-16" d="M735.7,238.1h1v8.4h-1v-8.4Z"/>
              </g>
            </g>
            <g id="PathCollection_10">
              <path id="mfd0062cd41-2" data-name="mfd0062cd41" class="cls-2" d="M631.7,263.6c.9,0,1.8-.4,2.5-1s1-1.6,1-2.5-.4-1.8-1-2.5-1.6-1-2.5-1-1.8.4-2.5,1-1,1.6-1,2.5.4,1.8,1,2.5,1.6,1,2.5,1Z"/>
            </g>
            <g id="text_8">
              <g>
                <path id="DejaVuSans-65-13" data-name="DejaVuSans-65" class="cls-16" d="M657.6,259.7v.5h-4.5c0,.7.2,1.2.6,1.6.4.4.9.5,1.5.5s.7,0,1.1-.1.7-.2,1.1-.4v.9c-.4.2-.7.3-1.1.3s-.7.1-1.1.1c-1,0-1.7-.3-2.3-.8-.6-.6-.8-1.3-.8-2.3s.3-1.8.8-2.3c.5-.6,1.2-.9,2.2-.9s1.4.3,1.9.8c.5.5.7,1.2.7,2.1ZM656.6,259.4c0-.5-.2-1-.5-1.3-.3-.3-.7-.5-1.2-.5s-1,.2-1.3.5-.5.8-.6,1.3h3.5Z"/>
                <path id="DejaVuSans-74-7" data-name="DejaVuSans-74" class="cls-16" d="M660.2,255.2v1.7h2v.8h-2v3.3c0,.5,0,.8.2.9s.4.2.8.2h1v.8h-1c-.8,0-1.3-.1-1.6-.4-.3-.3-.4-.8-.4-1.6v-3.3h-.7v-.8h.7v-1.7h1Z"/>
                <path id="DejaVuSans-68-7" data-name="DejaVuSans-68" class="cls-16" d="M668.6,259.3v3.6h-1v-3.6c0-.6-.1-1-.3-1.3-.2-.3-.6-.4-1-.4s-1,.2-1.3.5c-.3.3-.5.8-.5,1.4v3.4h-1v-8.4h1v3.3c.2-.4.5-.6.8-.8.3-.2.7-.3,1.1-.3.7,0,1.2.2,1.6.6.4.4.5,1.1.5,1.9Z"/>
                <path id="DejaVuSans-69-9" data-name="DejaVuSans-69" class="cls-16" d="M670.5,256.9h1v6h-1v-6ZM670.5,254.6h1v1.3h-1v-1.3Z"/>
                <path id="DejaVuSans-63-2" data-name="DejaVuSans-63" class="cls-16" d="M677.9,257.2v.9c-.3-.2-.6-.3-.8-.3s-.6-.1-.9-.1c-.6,0-1.1.2-1.5.6-.4.4-.5,1-.5,1.7s.2,1.3.5,1.7c.4.4.9.6,1.5.6s.6,0,.9-.1.6-.2.8-.3v.9c-.3.1-.6.2-.9.3-.3,0-.6,0-.9,0-.9,0-1.6-.3-2.2-.9-.5-.6-.8-1.3-.8-2.3s.3-1.8.8-2.3c.5-.6,1.3-.8,2.2-.8s.6,0,.9,0c.3,0,.6.2.8.3Z"/>
                <path id="DejaVuSans-61-15" data-name="DejaVuSans-61" class="cls-16" d="M682.4,259.9c-.8,0-1.4,0-1.7.3s-.5.5-.5.9.1.6.3.8c.2.2.5.3.9.3s1-.2,1.3-.6.5-.9.5-1.5v-.2h-1ZM684.4,259.5v3.4h-1v-.9c-.2.4-.5.6-.8.8-.3.2-.7.3-1.2.3s-1.1-.2-1.5-.5c-.4-.3-.5-.8-.5-1.4s.2-1.2.7-1.5c.5-.3,1.1-.5,2-.5h1.4c0-.6-.1-.9-.4-1.2s-.7-.4-1.3-.4-.7,0-1,.1c-.3,0-.6.2-.9.4v-.9c.4-.1.7-.2,1.1-.3.3,0,.7-.1,1-.1.9,0,1.5.2,2,.7.4.5.6,1.1.6,2.1Z"/>
                <path id="DejaVuSans-6c-3" data-name="DejaVuSans-6c" class="cls-16" d="M686.4,254.6h1v8.4h-1v-8.4Z"/>
                <path id="DejaVuSans-5f-3" data-name="DejaVuSans-5f" class="cls-16" d="M694,264.8v.8h-5.7v-.8h5.7Z"/>
                <path id="DejaVuSans-73-6" data-name="DejaVuSans-73" class="cls-16" d="M698.8,257.1v.9c-.3-.1-.6-.3-.9-.3-.3,0-.6-.1-.9-.1-.5,0-.9,0-1.1.2-.2.2-.4.4-.4.7s0,.4.3.5.5.3,1.1.4h.3c.7.2,1.2.4,1.5.7s.4.7.4,1.1-.2,1-.7,1.3c-.4.3-1.1.5-1.8.5s-.7,0-1,0c-.3,0-.7-.2-1.1-.3v-1c.4.2.7.3,1.1.4.4,0,.7.1,1.1.1s.8,0,1.1-.2c.3-.2.4-.4.4-.7s0-.5-.3-.6c-.2-.1-.6-.3-1.2-.4h-.3c-.6-.2-1.1-.4-1.3-.7-.3-.3-.4-.6-.4-1.1s.2-1,.6-1.3c.4-.3,1-.5,1.7-.5s.7,0,1,0c.3,0,.6.1.9.2Z"/>
                <path id="DejaVuSans-6f-3" data-name="DejaVuSans-6f" class="cls-16" d="M703,257.6c-.5,0-.9.2-1.3.6s-.5,1-.5,1.7.2,1.3.5,1.7c.3.4.7.6,1.3.6s.9-.2,1.3-.6c.3-.4.5-1,.5-1.7s-.2-1.3-.5-1.7c-.3-.4-.7-.6-1.3-.6ZM703,256.8c.9,0,1.5.3,2,.8.5.6.7,1.3.7,2.3s-.2,1.8-.7,2.3c-.5.6-1.2.8-2,.8s-1.5-.3-2-.8c-.5-.6-.7-1.3-.7-2.3s.2-1.8.7-2.3c.5-.6,1.2-.8,2-.8Z"/>
                <path id="DejaVuSans-75-5" data-name="DejaVuSans-75" class="cls-16" d="M707.3,260.6v-3.6h1v3.6c0,.6.1,1,.3,1.3.2.3.6.4,1,.4s1-.2,1.3-.5c.3-.3.5-.8.5-1.4v-3.4h1v6h-1v-.9c-.2.4-.5.6-.8.8-.3.2-.7.3-1.1.3-.7,0-1.2-.2-1.6-.6-.4-.4-.5-1.1-.5-1.9ZM709.8,256.8h0Z"/>
                <path id="DejaVuSans-72-5" data-name="DejaVuSans-72" class="cls-16" d="M717.9,257.8c-.1,0-.2-.1-.4-.1-.1,0-.3,0-.4,0-.6,0-1,.2-1.3.5s-.4.9-.4,1.6v3.2h-1v-6h1v.9c.2-.4.5-.6.8-.8.3-.2.7-.3,1.2-.3s.1,0,.2,0c0,0,.2,0,.3,0v1Z"/>
                <path id="DejaVuSans-63-3" data-name="DejaVuSans-63" class="cls-16" d="M723,257.2v.9c-.3-.2-.6-.3-.8-.3s-.6-.1-.9-.1c-.6,0-1.1.2-1.5.6-.4.4-.5,1-.5,1.7s.2,1.3.5,1.7c.4.4.9.6,1.5.6s.6,0,.9-.1.6-.2.8-.3v.9c-.3.1-.6.2-.9.3-.3,0-.6,0-.9,0-.9,0-1.6-.3-2.2-.9-.5-.6-.8-1.3-.8-2.3s.3-1.8.8-2.3c.5-.6,1.3-.8,2.2-.8s.6,0,.9,0c.3,0,.6.2.8.3Z"/>
                <path id="DejaVuSans-69-10" data-name="DejaVuSans-69" class="cls-16" d="M724.7,256.9h1v6h-1v-6ZM724.7,254.6h1v1.3h-1v-1.3Z"/>
                <path id="DejaVuSans-6e-10" data-name="DejaVuSans-6e" class="cls-16" d="M732.8,259.3v3.6h-1v-3.6c0-.6-.1-1-.3-1.3-.2-.3-.6-.4-1-.4s-1,.2-1.3.5c-.3.3-.5.8-.5,1.4v3.4h-1v-6h1v.9c.2-.4.5-.6.8-.8.3-.2.7-.3,1.1-.3.7,0,1.2.2,1.6.6.4.4.5,1.1.5,1.9Z"/>
                <path id="DejaVuSans-67-5" data-name="DejaVuSans-67" class="cls-16" d="M738.7,259.9c0-.7-.1-1.3-.4-1.7-.3-.4-.7-.6-1.2-.6s-.9.2-1.2.6c-.3.4-.4.9-.4,1.7s.1,1.3.4,1.7c.3.4.7.6,1.2.6s.9-.2,1.2-.6c.3-.4.4-.9.4-1.7ZM739.7,262.2c0,1-.2,1.8-.7,2.3-.5.5-1.1.7-2.1.7s-.7,0-1,0-.6-.1-.9-.2v-1c.3.2.6.3.9.3.3,0,.6.1.9.1.6,0,1.1-.2,1.5-.5.3-.3.5-.8.5-1.5v-.5c-.2.4-.5.6-.8.8s-.7.3-1.1.3c-.7,0-1.3-.3-1.8-.8-.5-.6-.7-1.3-.7-2.2s.2-1.7.7-2.2c.5-.6,1-.8,1.8-.8s.8,0,1.1.3.6.4.8.8v-.9h1v5.3Z"/>
              </g>
            </g>
            <g id="PathCollection_11">
              <path id="ma60fb8a359-2" data-name="ma60fb8a359" class="cls-4" d="M631.7,280c.9,0,1.8-.4,2.5-1s1-1.6,1-2.5-.4-1.8-1-2.5-1.6-1-2.5-1-1.8.4-2.5,1-1,1.6-1,2.5.4,1.8,1,2.5,1.6,1,2.5,1Z"/>
            </g>
            <g id="text_9">
              <g>
                <path id="DejaVuSans-68-8" data-name="DejaVuSans-68" class="cls-16" d="M657.5,275.8v3.6h-1v-3.6c0-.6-.1-1-.3-1.3-.2-.3-.6-.4-1-.4s-1,.2-1.3.5c-.3.3-.5.8-.5,1.4v3.4h-1v-8.4h1v3.3c.2-.4.5-.6.8-.8.3-.2.7-.3,1.1-.3.7,0,1.2.2,1.6.6.4.4.5,1.1.5,1.9Z"/>
                <path id="DejaVuSans-6f-4" data-name="DejaVuSans-6f" class="cls-16" d="M661.8,274.1c-.5,0-.9.2-1.3.6s-.5,1-.5,1.7.2,1.3.5,1.7c.3.4.7.6,1.3.6s.9-.2,1.3-.6c.3-.4.5-1,.5-1.7s-.2-1.3-.5-1.7c-.3-.4-.7-.6-1.3-.6ZM661.8,273.2c.9,0,1.5.3,2,.8.5.6.7,1.3.7,2.3s-.2,1.8-.7,2.3c-.5.6-1.2.8-2,.8s-1.5-.3-2-.8c-.5-.6-.7-1.3-.7-2.3s.2-1.8.7-2.3c.5-.6,1.2-.8,2-.8Z"/>
                <path id="DejaVuSans-6d-12" data-name="DejaVuSans-6d" class="cls-16" d="M670.9,274.5c.2-.4.5-.8.9-1s.7-.3,1.2-.3,1.1.2,1.5.7c.3.4.5,1.1.5,1.9v3.6h-1v-3.6c0-.6-.1-1-.3-1.3-.2-.3-.5-.4-.9-.4s-.9.2-1.2.5c-.3.3-.4.8-.4,1.4v3.4h-1v-3.6c0-.6-.1-1-.3-1.3s-.5-.4-.9-.4-.9.2-1.2.5c-.3.3-.4.8-.4,1.4v3.4h-1v-6h1v.9c.2-.4.5-.6.8-.8s.7-.3,1.1-.3.8.1,1.1.3c.3.2.5.5.7,1Z"/>
                <path id="DejaVuSans-65-14" data-name="DejaVuSans-65" class="cls-16" d="M682.1,276.1v.5h-4.5c0,.7.2,1.2.6,1.6.4.4.9.5,1.5.5s.7,0,1.1-.1.7-.2,1.1-.4v.9c-.4.2-.7.3-1.1.3s-.7.1-1.1.1c-1,0-1.7-.3-2.3-.8-.6-.6-.8-1.3-.8-2.3s.3-1.8.8-2.3c.5-.6,1.2-.9,2.2-.9s1.4.3,1.9.8c.5.5.7,1.2.7,2.1ZM681.1,275.8c0-.5-.2-1-.5-1.3-.3-.3-.7-.5-1.2-.5s-1,.2-1.3.5-.5.8-.6,1.3h3.5Z"/>
                <path id="DejaVuSans-6d-13" data-name="DejaVuSans-6d" class="cls-16" d="M688.4,274.5c.2-.4.5-.8.9-1s.7-.3,1.2-.3,1.1.2,1.5.7c.3.4.5,1.1.5,1.9v3.6h-1v-3.6c0-.6-.1-1-.3-1.3-.2-.3-.5-.4-.9-.4s-.9.2-1.2.5c-.3.3-.4.8-.4,1.4v3.4h-1v-3.6c0-.6-.1-1-.3-1.3s-.5-.4-.9-.4-.9.2-1.2.5c-.3.3-.4.8-.4,1.4v3.4h-1v-6h1v.9c.2-.4.5-.6.8-.8s.7-.3,1.1-.3.8.1,1.1.3c.3.2.5.5.7,1Z"/>
                <path id="DejaVuSans-61-16" data-name="DejaVuSans-61" class="cls-16" d="M697.1,276.4c-.8,0-1.4,0-1.7.3s-.5.5-.5.9.1.6.3.8c.2.2.5.3.9.3s1-.2,1.3-.6.5-.9.5-1.5v-.2h-1ZM699.1,276v3.4h-1v-.9c-.2.4-.5.6-.8.8-.3.2-.7.3-1.2.3s-1.1-.2-1.5-.5c-.4-.3-.5-.8-.5-1.4s.2-1.2.7-1.5c.5-.3,1.1-.5,2-.5h1.4c0-.6-.1-.9-.4-1.2s-.7-.4-1.3-.4-.7,0-1,.1c-.3,0-.6.2-.9.4v-.9c.4-.1.7-.2,1.1-.3.3,0,.7-.1,1-.1.9,0,1.5.2,2,.7.4.5.6,1.1.6,2.1Z"/>
                <path id="DejaVuSans-64-2" data-name="DejaVuSans-64" class="cls-16" d="M705.1,274.3v-3.3h1v8.4h-1v-.9c-.2.4-.5.6-.8.8-.3.2-.7.3-1.1.3-.7,0-1.3-.3-1.8-.9-.5-.6-.7-1.3-.7-2.3s.2-1.7.7-2.3c.5-.6,1-.9,1.8-.9s.8,0,1.1.3c.3.2.6.4.8.8ZM701.7,276.4c0,.7.1,1.3.4,1.7.3.4.7.6,1.2.6s.9-.2,1.2-.6c.3-.4.5-1,.5-1.7s-.2-1.3-.5-1.7c-.3-.4-.7-.6-1.2-.6s-.9.2-1.2.6-.4,1-.4,1.7Z"/>
                <path id="DejaVuSans-65-15" data-name="DejaVuSans-65" class="cls-16" d="M713.3,276.1v.5h-4.5c0,.7.2,1.2.6,1.6.4.4.9.5,1.5.5s.7,0,1.1-.1.7-.2,1.1-.4v.9c-.4.2-.7.3-1.1.3s-.7.1-1.1.1c-1,0-1.7-.3-2.3-.8-.6-.6-.8-1.3-.8-2.3s.3-1.8.8-2.3c.5-.6,1.2-.9,2.2-.9s1.4.3,1.9.8c.5.5.7,1.2.7,2.1ZM712.3,275.8c0-.5-.2-1-.5-1.3-.3-.3-.7-.5-1.2-.5s-1,.2-1.3.5-.5.8-.6,1.3h3.5Z"/>
                <path id="DejaVuSans-5f-4" data-name="DejaVuSans-5f" class="cls-16" d="M719.5,281.2v.8h-5.7v-.8h5.7Z"/>
                <path id="DejaVuSans-62-2" data-name="DejaVuSans-62" class="cls-16" d="M724.7,276.4c0-.7-.1-1.3-.4-1.7s-.7-.6-1.2-.6-.9.2-1.2.6-.4,1-.4,1.7.1,1.3.4,1.7c.3.4.7.6,1.2.6s.9-.2,1.2-.6c.3-.4.4-1,.4-1.7ZM721.3,274.3c.2-.4.5-.6.8-.8.3-.2.7-.3,1.1-.3.7,0,1.3.3,1.8.9.5.6.7,1.3.7,2.3s-.2,1.7-.7,2.3c-.5.6-1,.9-1.8.9s-.8,0-1.1-.3c-.3-.2-.6-.4-.8-.8v.9h-1v-8.4h1v3.3Z"/>
                <path id="DejaVuSans-61-17" data-name="DejaVuSans-61" class="cls-16" d="M730.1,276.4c-.8,0-1.4,0-1.7.3s-.5.5-.5.9.1.6.3.8c.2.2.5.3.9.3s1-.2,1.3-.6.5-.9.5-1.5v-.2h-1ZM732.1,276v3.4h-1v-.9c-.2.4-.5.6-.8.8-.3.2-.7.3-1.2.3s-1.1-.2-1.5-.5c-.4-.3-.5-.8-.5-1.4s.2-1.2.7-1.5c.5-.3,1.1-.5,2-.5h1.4c0-.6-.1-.9-.4-1.2s-.7-.4-1.3-.4-.7,0-1,.1c-.3,0-.6.2-.9.4v-.9c.4-.1.7-.2,1.1-.3.3,0,.7-.1,1-.1.9,0,1.5.2,2,.7.4.5.6,1.1.6,2.1Z"/>
                <path id="DejaVuSans-6b" class="cls-16" d="M734.1,271h1v4.9l2.9-2.6h1.3l-3.2,2.8,3.3,3.2h-1.3l-3.1-2.9v2.9h-1v-8.4Z"/>
                <path id="DejaVuSans-65-16" data-name="DejaVuSans-65" class="cls-16" d="M745.2,276.1v.5h-4.5c0,.7.2,1.2.6,1.6.4.4.9.5,1.5.5s.7,0,1.1-.1.7-.2,1.1-.4v.9c-.4.2-.7.3-1.1.3s-.7.1-1.1.1c-1,0-1.7-.3-2.3-.8-.6-.6-.8-1.3-.8-2.3s.3-1.8.8-2.3c.5-.6,1.2-.9,2.2-.9s1.4.3,1.9.8c.5.5.7,1.2.7,2.1ZM744.2,275.8c0-.5-.2-1-.5-1.3-.3-.3-.7-.5-1.2-.5s-1,.2-1.3.5-.5.8-.6,1.3h3.5Z"/>
                <path id="DejaVuSans-73-7" data-name="DejaVuSans-73" class="cls-16" d="M750.7,273.6v.9c-.3-.1-.6-.3-.9-.3-.3,0-.6-.1-.9-.1-.5,0-.9,0-1.1.2-.2.2-.4.4-.4.7s0,.4.3.5.5.3,1.1.4h.3c.7.2,1.2.4,1.5.7s.4.7.4,1.1-.2,1-.7,1.3c-.4.3-1.1.5-1.8.5s-.7,0-1,0c-.3,0-.7-.2-1.1-.3v-1c.4.2.7.3,1.1.4.4,0,.7.1,1.1.1s.8,0,1.1-.2c.3-.2.4-.4.4-.7s0-.5-.3-.6c-.2-.1-.6-.3-1.2-.4h-.3c-.6-.2-1.1-.4-1.3-.7-.3-.3-.4-.6-.4-1.1s.2-1,.6-1.3c.4-.3,1-.5,1.7-.5s.7,0,1,0c.3,0,.6.1.9.2Z"/>
              </g>
            </g>
            <g id="PathCollection_12">
              <path id="m908a85ad96-25" data-name="m908a85ad96" class="cls-7" d="M631.7,296.5c.9,0,1.8-.4,2.5-1s1-1.6,1-2.5-.4-1.8-1-2.5-1.6-1-2.5-1-1.8.4-2.5,1-1,1.6-1,2.5.4,1.8,1,2.5,1.6,1,2.5,1Z"/>
            </g>
            <g id="text_10">
              <g>
                <path id="DejaVuSans-6d-14" data-name="DejaVuSans-6d" class="cls-16" d="M657.2,291c.2-.4.5-.8.9-1s.7-.3,1.2-.3,1.1.2,1.5.7c.3.4.5,1.1.5,1.9v3.6h-1v-3.6c0-.6-.1-1-.3-1.3-.2-.3-.5-.4-.9-.4s-.9.2-1.2.5c-.3.3-.4.8-.4,1.4v3.4h-1v-3.6c0-.6-.1-1-.3-1.3s-.5-.4-.9-.4-.9.2-1.2.5c-.3.3-.4.8-.4,1.4v3.4h-1v-6h1v.9c.2-.4.5-.6.8-.8s.7-.3,1.1-.3.8.1,1.1.3c.3.2.5.5.7,1Z"/>
                <path id="DejaVuSans-75-6" data-name="DejaVuSans-75" class="cls-16" d="M663.1,293.5v-3.6h1v3.6c0,.6.1,1,.3,1.3.2.3.6.4,1,.4s1-.2,1.3-.5c.3-.3.5-.8.5-1.4v-3.4h1v6h-1v-.9c-.2.4-.5.6-.8.8-.3.2-.7.3-1.1.3-.7,0-1.2-.2-1.6-.6-.4-.4-.5-1.1-.5-1.9ZM665.6,289.7h0Z"/>
                <path id="DejaVuSans-6c-4" data-name="DejaVuSans-6c" class="cls-16" d="M670.2,287.5h1v8.4h-1v-8.4Z"/>
                <path id="DejaVuSans-74-8" data-name="DejaVuSans-74" class="cls-16" d="M674.2,288.1v1.7h2v.8h-2v3.3c0,.5,0,.8.2.9s.4.2.8.2h1v.8h-1c-.8,0-1.3-.1-1.6-.4-.3-.3-.4-.8-.4-1.6v-3.3h-.7v-.8h.7v-1.7h1Z"/>
                <path id="DejaVuSans-69-11" data-name="DejaVuSans-69" class="cls-16" d="M677.5,289.8h1v6h-1v-6ZM677.5,287.5h1v1.3h-1v-1.3Z"/>
                <path id="DejaVuSans-5f-5" data-name="DejaVuSans-5f" class="cls-16" d="M685.2,297.7v.8h-5.7v-.8h5.7Z"/>
                <path id="DejaVuSans-6c-5" data-name="DejaVuSans-6c" class="cls-16" d="M686.1,287.5h1v8.4h-1v-8.4Z"/>
                <path id="DejaVuSans-6f-5" data-name="DejaVuSans-6f" class="cls-16" d="M691.5,290.5c-.5,0-.9.2-1.3.6s-.5,1-.5,1.7.2,1.3.5,1.7c.3.4.7.6,1.3.6s.9-.2,1.3-.6c.3-.4.5-1,.5-1.7s-.2-1.3-.5-1.7c-.3-.4-.7-.6-1.3-.6ZM691.5,289.7c.9,0,1.5.3,2,.8.5.6.7,1.3.7,2.3s-.2,1.8-.7,2.3c-.5.6-1.2.8-2,.8s-1.5-.3-2-.8c-.5-.6-.7-1.3-.7-2.3s.2-1.8.7-2.3c.5-.6,1.2-.8,2-.8Z"/>
                <path id="DejaVuSans-63-4" data-name="DejaVuSans-63" class="cls-16" d="M700.2,290.1v.9c-.3-.2-.6-.3-.8-.3s-.6-.1-.9-.1c-.6,0-1.1.2-1.5.6-.4.4-.5,1-.5,1.7s.2,1.3.5,1.7c.4.4.9.6,1.5.6s.6,0,.9-.1.6-.2.8-.3v.9c-.3.1-.6.2-.9.3-.3,0-.6,0-.9,0-.9,0-1.6-.3-2.2-.9-.5-.6-.8-1.3-.8-2.3s.3-1.8.8-2.3c.5-.6,1.3-.8,2.2-.8s.6,0,.9,0c.3,0,.6.2.8.3Z"/>
                <path id="DejaVuSans-61-18" data-name="DejaVuSans-61" class="cls-16" d="M704.7,292.8c-.8,0-1.4,0-1.7.3s-.5.5-.5.9.1.6.3.8c.2.2.5.3.9.3s1-.2,1.3-.6.5-.9.5-1.5v-.2h-1ZM706.6,292.4v3.4h-1v-.9c-.2.4-.5.6-.8.8-.3.2-.7.3-1.2.3s-1.1-.2-1.5-.5c-.4-.3-.5-.8-.5-1.4s.2-1.2.7-1.5c.5-.3,1.1-.5,2-.5h1.4c0-.6-.1-.9-.4-1.2s-.7-.4-1.3-.4-.7,0-1,.1c-.3,0-.6.2-.9.4v-.9c.4-.1.7-.2,1.1-.3.3,0,.7-.1,1-.1.9,0,1.5.2,2,.7.4.5.6,1.1.6,2.1Z"/>
                <path id="DejaVuSans-74-9" data-name="DejaVuSans-74" class="cls-16" d="M709.7,288.1v1.7h2v.8h-2v3.3c0,.5,0,.8.2.9s.4.2.8.2h1v.8h-1c-.8,0-1.3-.1-1.6-.4-.3-.3-.4-.8-.4-1.6v-3.3h-.7v-.8h.7v-1.7h1Z"/>
                <path id="DejaVuSans-69-12" data-name="DejaVuSans-69" class="cls-16" d="M713,289.8h1v6h-1v-6ZM713,287.5h1v1.3h-1v-1.3Z"/>
                <path id="DejaVuSans-6f-6" data-name="DejaVuSans-6f" class="cls-16" d="M718.4,290.5c-.5,0-.9.2-1.3.6s-.5,1-.5,1.7.2,1.3.5,1.7c.3.4.7.6,1.3.6s.9-.2,1.3-.6c.3-.4.5-1,.5-1.7s-.2-1.3-.5-1.7c-.3-.4-.7-.6-1.3-.6ZM718.4,289.7c.9,0,1.5.3,2,.8.5.6.7,1.3.7,2.3s-.2,1.8-.7,2.3c-.5.6-1.2.8-2,.8s-1.5-.3-2-.8c-.5-.6-.7-1.3-.7-2.3s.2-1.8.7-2.3c.5-.6,1.2-.8,2-.8Z"/>
                <path id="DejaVuSans-6e-11" data-name="DejaVuSans-6e" class="cls-16" d="M727.8,292.2v3.6h-1v-3.6c0-.6-.1-1-.3-1.3-.2-.3-.6-.4-1-.4s-1,.2-1.3.5c-.3.3-.5.8-.5,1.4v3.4h-1v-6h1v.9c.2-.4.5-.6.8-.8.3-.2.7-.3,1.1-.3.7,0,1.2.2,1.6.6.4.4.5,1.1.5,1.9Z"/>
              </g>
            </g>
            <g id="PathCollection_13">
              <path id="m07180bf7b2-2" data-name="m07180bf7b2" class="cls-3" d="M631.7,312.9c.9,0,1.8-.4,2.5-1s1-1.6,1-2.5-.4-1.8-1-2.5-1.6-1-2.5-1-1.8.4-2.5,1-1,1.6-1,2.5.4,1.8,1,2.5,1.6,1,2.5,1Z"/>
            </g>
            <g id="text_11">
              <g>
                <path id="DejaVuSans-6f-7" data-name="DejaVuSans-6f" class="cls-16" d="M654.8,307c-.5,0-.9.2-1.3.6s-.5,1-.5,1.7.2,1.3.5,1.7c.3.4.7.6,1.3.6s.9-.2,1.3-.6c.3-.4.5-1,.5-1.7s-.2-1.3-.5-1.7c-.3-.4-.7-.6-1.3-.6ZM654.8,306.1c.9,0,1.5.3,2,.8.5.6.7,1.3.7,2.3s-.2,1.8-.7,2.3c-.5.6-1.2.8-2,.8s-1.5-.3-2-.8c-.5-.6-.7-1.3-.7-2.3s.2-1.8.7-2.3c.5-.6,1.2-.8,2-.8Z"/>
                <path id="DejaVuSans-72-6" data-name="DejaVuSans-72" class="cls-16" d="M662.7,307.2c-.1,0-.2-.1-.4-.1-.1,0-.3,0-.4,0-.6,0-1,.2-1.3.5s-.4.9-.4,1.6v3.2h-1v-6h1v.9c.2-.4.5-.6.8-.8.3-.2.7-.3,1.2-.3s.1,0,.2,0c0,0,.2,0,.3,0v1Z"/>
                <path id="DejaVuSans-69-13" data-name="DejaVuSans-69" class="cls-16" d="M663.7,306.3h1v6h-1v-6ZM663.7,303.9h1v1.3h-1v-1.3Z"/>
                <path id="DejaVuSans-67-6" data-name="DejaVuSans-67" class="cls-16" d="M670.8,309.2c0-.7-.1-1.3-.4-1.7-.3-.4-.7-.6-1.2-.6s-.9.2-1.2.6c-.3.4-.4.9-.4,1.7s.1,1.3.4,1.7c.3.4.7.6,1.2.6s.9-.2,1.2-.6c.3-.4.4-.9.4-1.7ZM671.7,311.6c0,1-.2,1.8-.7,2.3-.5.5-1.1.7-2.1.7s-.7,0-1,0-.6-.1-.9-.2v-1c.3.2.6.3.9.3.3,0,.6.1.9.1.6,0,1.1-.2,1.5-.5.3-.3.5-.8.5-1.5v-.5c-.2.4-.5.6-.8.8s-.7.3-1.1.3c-.7,0-1.3-.3-1.8-.8-.5-.6-.7-1.3-.7-2.2s.2-1.7.7-2.2c.5-.6,1-.8,1.8-.8s.8,0,1.1.3.6.4.8.8v-.9h1v5.3Z"/>
                <path id="DejaVuSans-69-14" data-name="DejaVuSans-69" class="cls-16" d="M673.8,306.3h1v6h-1v-6ZM673.8,303.9h1v1.3h-1v-1.3Z"/>
                <path id="DejaVuSans-6e-12" data-name="DejaVuSans-6e" class="cls-16" d="M681.8,308.7v3.6h-1v-3.6c0-.6-.1-1-.3-1.3-.2-.3-.6-.4-1-.4s-1,.2-1.3.5c-.3.3-.5.8-.5,1.4v3.4h-1v-6h1v.9c.2-.4.5-.6.8-.8.3-.2.7-.3,1.1-.3.7,0,1.2.2,1.6.6.4.4.5,1.1.5,1.9Z"/>
                <path id="DejaVuSans-5f-6" data-name="DejaVuSans-5f" class="cls-16" d="M688.4,314.1v.8h-5.7v-.8h5.7Z"/>
                <path id="DejaVuSans-66-2" data-name="DejaVuSans-66" class="cls-16" d="M692.4,303.9v.8h-.9c-.4,0-.6,0-.7.2-.1.1-.2.4-.2.8v.5h1.6v.8h-1.6v5.2h-1v-5.2h-.9v-.8h.9v-.4c0-.7.2-1.2.5-1.5.3-.3.8-.5,1.5-.5h.9Z"/>
                <path id="DejaVuSans-6f-8" data-name="DejaVuSans-6f" class="cls-16" d="M695.5,307c-.5,0-.9.2-1.3.6s-.5,1-.5,1.7.2,1.3.5,1.7c.3.4.7.6,1.3.6s.9-.2,1.3-.6c.3-.4.5-1,.5-1.7s-.2-1.3-.5-1.7c-.3-.4-.7-.6-1.3-.6ZM695.5,306.1c.9,0,1.5.3,2,.8.5.6.7,1.3.7,2.3s-.2,1.8-.7,2.3c-.5.6-1.2.8-2,.8s-1.5-.3-2-.8c-.5-.6-.7-1.3-.7-2.3s.2-1.8.7-2.3c.5-.6,1.2-.8,2-.8Z"/>
                <path id="DejaVuSans-63-5" data-name="DejaVuSans-63" class="cls-16" d="M704.2,306.5v.9c-.3-.2-.6-.3-.8-.3s-.6-.1-.9-.1c-.6,0-1.1.2-1.5.6-.4.4-.5,1-.5,1.7s.2,1.3.5,1.7c.4.4.9.6,1.5.6s.6,0,.9-.1.6-.2.8-.3v.9c-.3.1-.6.2-.9.3-.3,0-.6,0-.9,0-.9,0-1.6-.3-2.2-.9-.5-.6-.8-1.3-.8-2.3s.3-1.8.8-2.3c.5-.6,1.3-.8,2.2-.8s.6,0,.9,0c.3,0,.6.2.8.3Z"/>
                <path id="DejaVuSans-75-7" data-name="DejaVuSans-75" class="cls-16" d="M705.9,309.9v-3.6h1v3.6c0,.6.1,1,.3,1.3.2.3.6.4,1,.4s1-.2,1.3-.5c.3-.3.5-.8.5-1.4v-3.4h1v6h-1v-.9c-.2.4-.5.6-.8.8-.3.2-.7.3-1.1.3-.7,0-1.2-.2-1.6-.6-.4-.4-.5-1.1-.5-1.9ZM708.3,306.1h0Z"/>
                <path id="DejaVuSans-73-8" data-name="DejaVuSans-73" class="cls-16" d="M716.8,306.5v.9c-.3-.1-.6-.3-.9-.3-.3,0-.6-.1-.9-.1-.5,0-.9,0-1.1.2-.2.2-.4.4-.4.7s0,.4.3.5.5.3,1.1.4h.3c.7.2,1.2.4,1.5.7s.4.7.4,1.1-.2,1-.7,1.3c-.4.3-1.1.5-1.8.5s-.7,0-1,0c-.3,0-.7-.2-1.1-.3v-1c.4.2.7.3,1.1.4.4,0,.7.1,1.1.1s.8,0,1.1-.2c.3-.2.4-.4.4-.7s0-.5-.3-.6c-.2-.1-.6-.3-1.2-.4h-.3c-.6-.2-1.1-.4-1.3-.7-.3-.3-.4-.6-.4-1.1s.2-1,.6-1.3c.4-.3,1-.5,1.7-.5s.7,0,1,0c.3,0,.6.1.9.2Z"/>
              </g>
            </g>
          </g>
        </g>
      </g>
    </g>
  </g>
</svg>