<?xml version="1.0" encoding="UTF-8"?>
<svg xmlns="http://www.w3.org/2000/svg" version="1.1" viewBox="0 0 631.2 1575.7">
  <defs>
    <style>
      .cls-1, .cls-2, .cls-3, .cls-4, .cls-5, .cls-6, .cls-7, .cls-8, .cls-9, .cls-10, .cls-11, .cls-12, .cls-13, .cls-14, .cls-15, .cls-16, .cls-17, .cls-18, .cls-19, .cls-20, .cls-21, .cls-22, .cls-23, .cls-24, .cls-25, .cls-26, .cls-27, .cls-28, .cls-29, .cls-30, .cls-31, .cls-32, .cls-33, .cls-34, .cls-35, .cls-36, .cls-37, .cls-38, .cls-39, .cls-40, .cls-41, .cls-42, .cls-43, .cls-44, .cls-45, .cls-46, .cls-47, .cls-48, .cls-49, .cls-50, .cls-51, .cls-52, .cls-53, .cls-54, .cls-55, .cls-56, .cls-57, .cls-58, .cls-59, .cls-60, .cls-61, .cls-62, .cls-63, .cls-64, .cls-65, .cls-66, .cls-67, .cls-68, .cls-69, .cls-70, .cls-71, .cls-72, .cls-73, .cls-74, .cls-75, .cls-76, .cls-77, .cls-78, .cls-79, .cls-80, .cls-81, .cls-82, .cls-83, .cls-84, .cls-85, .cls-86, .cls-87, .cls-88, .cls-89, .cls-90, .cls-91, .cls-92, .cls-93, .cls-94, .cls-95, .cls-96, .cls-97, .cls-98, .cls-99, .cls-100, .cls-101, .cls-102, .cls-103, .cls-104, .cls-105, .cls-106, .cls-107, .cls-108, .cls-109, .cls-110, .cls-111, .cls-112, .cls-113, .cls-114, .cls-115, .cls-116, .cls-117, .cls-118 {
        stroke-width: 2px;
      }

      .cls-1, .cls-32 {
        fill: #807b79;
        stroke: #807b79;
      }

      .cls-2, .cls-99 {
        fill: #6e6855;
        stroke: #6e6855;
      }

      .cls-3, .cls-63 {
        fill: #72696d;
        stroke: #72696d;
      }

      .cls-4, .cls-59 {
        fill: #aaa1a0;
        stroke: #aaa1a0;
      }

      .cls-5, .cls-7 {
        fill: #828988;
        stroke: #828988;
      }

      .cls-5, .cls-8, .cls-9, .cls-10, .cls-11, .cls-12, .cls-14, .cls-16, .cls-17, .cls-22, .cls-23, .cls-24, .cls-25, .cls-26, .cls-27, .cls-28, .cls-30, .cls-32, .cls-35, .cls-36, .cls-37, .cls-119, .cls-39, .cls-43, .cls-44, .cls-47, .cls-49, .cls-51, .cls-52, .cls-53, .cls-54, .cls-57, .cls-59, .cls-60, .cls-62, .cls-63, .cls-65, .cls-67, .cls-68, .cls-70, .cls-72, .cls-74, .cls-76, .cls-79, .cls-81, .cls-83, .cls-89, .cls-92, .cls-94, .cls-95, .cls-99, .cls-101, .cls-102, .cls-104, .cls-120, .cls-111, .cls-113, .cls-115, .cls-116, .cls-117, .cls-118 {
        isolation: isolate;
      }

      .cls-5, .cls-8, .cls-9, .cls-10, .cls-11, .cls-12, .cls-14, .cls-16, .cls-17, .cls-22, .cls-23, .cls-24, .cls-25, .cls-26, .cls-27, .cls-28, .cls-30, .cls-32, .cls-35, .cls-36, .cls-37, .cls-39, .cls-43, .cls-44, .cls-47, .cls-49, .cls-51, .cls-52, .cls-53, .cls-54, .cls-57, .cls-59, .cls-60, .cls-62, .cls-63, .cls-65, .cls-67, .cls-68, .cls-70, .cls-72, .cls-74, .cls-76, .cls-79, .cls-81, .cls-83, .cls-89, .cls-92, .cls-94, .cls-95, .cls-99, .cls-101, .cls-102, .cls-104, .cls-111, .cls-113, .cls-115, .cls-116, .cls-117, .cls-118 {
        opacity: .3;
      }

      .cls-6, .cls-11 {
        fill: #aeaeb4;
        stroke: #aeaeb4;
      }

      .cls-8, .cls-15 {
        fill: #60645f;
        stroke: #60645f;
      }

      .cls-9, .cls-87 {
        fill: #655f5a;
        stroke: #655f5a;
      }

      .cls-10, .cls-61 {
        fill: #b6a79d;
        stroke: #b6a79d;
      }

      .cls-12, .cls-66 {
        fill: #393428;
        stroke: #393428;
      }

      .cls-13, .cls-27 {
        fill: #bdb4a7;
        stroke: #bdb4a7;
      }

      .cls-14, .cls-31 {
        fill: #aca9a5;
        stroke: #aca9a5;
      }

      .cls-16, .cls-85 {
        fill: #8c827e;
        stroke: #8c827e;
      }

      .cls-17, .cls-106 {
        fill: #5b5652;
        stroke: #5b5652;
      }

      .cls-18, .cls-72 {
        fill: #453331;
        stroke: #453331;
      }

      .cls-19, .cls-67 {
        fill: #cec7c0;
        stroke: #cec7c0;
      }

      .cls-20, .cls-83 {
        fill: #437076;
        stroke: #437076;
      }

      .cls-21, .cls-74 {
        fill: #3b422c;
        stroke: #3b422c;
      }

      .cls-22, .cls-33 {
        fill: #d8d6d3;
        stroke: #d8d6d3;
      }

      .cls-23, .cls-38 {
        fill: #cdc9bc;
        stroke: #cdc9bc;
      }

      .cls-24, .cls-103 {
        fill: #976465;
        stroke: #976465;
      }

      .cls-25, .cls-71 {
        fill: #e3e4e6;
        stroke: #e3e4e6;
      }

      .cls-26, .cls-69 {
        fill: #c6b5a9;
        stroke: #c6b5a9;
      }

      .cls-28, .cls-98 {
        fill: #bcb7b2;
        stroke: #bcb7b2;
      }

      .cls-29, .cls-35 {
        fill: #a7a3a2;
        stroke: #a7a3a2;
      }

      .cls-30, .cls-97 {
        fill: #a3afbd;
        stroke: #a3afbd;
      }

      .cls-34, .cls-60 {
        fill: #3f2926;
        stroke: #3f2926;
      }

      .cls-36, .cls-42 {
        fill: #92735f;
        stroke: #92735f;
      }

      .cls-37, .cls-45 {
        fill: #746b61;
        stroke: #746b61;
      }

      .cls-39, .cls-48 {
        fill: #7b6661;
        stroke: #7b6661;
      }

      .cls-40, .cls-53 {
        fill: #988c80;
        stroke: #988c80;
      }

      .cls-41, .cls-111 {
        fill: #aa8a84;
        stroke: #aa8a84;
      }

      .cls-43, .cls-77 {
        fill: #697573;
        stroke: #697573;
      }

      .cls-44, .cls-112 {
        fill: #9d7b21;
        stroke: #9d7b21;
      }

      .cls-46, .cls-57 {
        fill: #181518;
        stroke: #181518;
      }

      .cls-47, .cls-75 {
        fill: #9b8e8b;
        stroke: #9b8e8b;
      }

      .cls-49, .cls-82 {
        fill: #968f81;
        stroke: #968f81;
      }

      .cls-50, .cls-65 {
        fill: #6e6d6a;
        stroke: #6e6d6a;
      }

      .cls-51, .cls-108 {
        fill: #9e9584;
        stroke: #9e9584;
      }

      .cls-52, .cls-110 {
        fill: #494949;
        stroke: #494949;
      }

      .cls-54, .cls-100 {
        fill: #363636;
        stroke: #363636;
      }

      .cls-55, .cls-104 {
        fill: #6f6862;
        stroke: #6f6862;
      }

      .cls-56, .cls-92 {
        fill: #7d726d;
        stroke: #7d726d;
      }

      .cls-58, .cls-89 {
        fill: #e2c49f;
        stroke: #e2c49f;
      }

      .cls-62, .cls-86 {
        fill: #b47c52;
        stroke: #b47c52;
      }

      .cls-64, .cls-76 {
        fill: #a4a39f;
        stroke: #a4a39f;
      }

      .cls-68, .cls-78 {
        fill: #998b81;
        stroke: #998b81;
      }

      .cls-70, .cls-109 {
        fill: #868179;
        stroke: #868179;
      }

      .cls-73, .cls-118 {
        fill: #10100c;
        stroke: #10100c;
      }

      .cls-79, .cls-84 {
        fill: #947339;
        stroke: #947339;
      }

      .cls-80, .cls-115 {
        fill: #aa9992;
        stroke: #aa9992;
      }

      .cls-81, .cls-96 {
        fill: #758282;
        stroke: #758282;
      }

      .cls-88, .cls-102 {
        fill: #978376;
        stroke: #978376;
      }

      .cls-90, .cls-95 {
        fill: #65675d;
        stroke: #65675d;
      }

      .cls-91, .cls-101 {
        fill: #6b2712;
        stroke: #6b2712;
      }

      .cls-93, .cls-117 {
        fill: #7d716a;
        stroke: #7d716a;
      }

      .cls-94, .cls-107 {
        fill: #5b5c5b;
        stroke: #5b5c5b;
      }

      .cls-105, .cls-116 {
        fill: #b3a5a4;
        stroke: #b3a5a4;
      }

      .cls-120 {
        font-family: HelveticaNeue, 'Helvetica Neue';
        font-size: 21px;
      }

      .cls-113, .cls-114 {
        fill: #dcd9d2;
        stroke: #dcd9d2;
      }
    </style>
  </defs>
  <!-- Generator: Adobe Illustrator 28.7.7, SVG Export Plug-In . SVG Version: 1.2.0 Build 194)  -->
  <g>
    <g id="Layer_1">
      <g id="Layer_1-2" data-name="Layer_1">
        <g id="Layer_1-2">
          <path class="cls-7" d="M191.9,1559.9h415.6v-26.2H191.9v26.2Z"/>
          <path class="cls-85" d="M191.9,1533.8h415.6v-26.2H191.9v26.2Z"/>
          <path class="cls-64" d="M191.9,1507.6h415.6v-26.2H191.9v26.2Z"/>
          <path class="cls-1" d="M191.9,1481.4h415.6v-26.2H191.9v26.2Z"/>
          <path class="cls-82" d="M191.9,1455.1h415.6v-26.2H191.9v26.2Z"/>
          <path class="cls-71" d="M191.9,1429h415.6v-26.2H191.9v26.2Z"/>
          <path class="cls-90" d="M191.9,1402.8h415.6v-26.2H191.9v26.2Z"/>
          <path class="cls-112" d="M191.9,1376.6h415.6v-26.2H191.9v26.2Z"/>
          <path class="cls-48" d="M191.9,1350.3h415.6v-26.2H191.9v26.2Z"/>
          <path class="cls-88" d="M191.9,1324.2h415.6v-26.2H191.9v26.2Z"/>
          <path class="cls-33" d="M191.9,1298h415.6v-26.2H191.9v26.2Z"/>
          <path class="cls-15" d="M191.9,1271.8h415.6v-26.2H191.9v26.2Z"/>
          <path class="cls-106" d="M191.9,1245.6h415.6v-26.2H191.9v26.2Z"/>
          <path class="cls-45" d="M191.9,1219.4h415.6v-26.2H191.9v26.2Z"/>
          <path class="cls-41" d="M191.9,1193.2h415.6v-26.2H191.9v26.2Z"/>
          <path class="cls-42" d="M191.9,1167h415.6v-26.2H191.9v26.2Z"/>
          <path class="cls-55" d="M191.9,1140.8h415.6v-26.2H191.9v26.2Z"/>
          <path class="cls-73" d="M191.9,1114.6h415.6v-26.2H191.9v26.2Z"/>
          <path class="cls-97" d="M191.9,1088.4h415.6v-26.2H191.9v26.2Z"/>
          <path class="cls-58" d="M191.9,1062.2h415.6v-26.2H191.9v26.2Z"/>
          <path class="cls-107" d="M191.9,1036h415.6v-26.2H191.9v26.2Z"/>
          <path class="cls-84" d="M191.9,1009.8h415.6v-26.2H191.9v26.2Z"/>
          <path class="cls-4" d="M191.9,983.7h415.6v-26.2H191.9v26.2Z"/>
          <path class="cls-87" d="M191.9,957.4h415.6v-26.2H191.9v26.2Z"/>
          <path class="cls-6" d="M191.9,931.2h415.6v-26.2H191.9v26.2Z"/>
          <path class="cls-20" d="M191.9,905h415.6v-26.2H191.9v26.2Z"/>
          <path class="cls-21" d="M191.9,878.9h415.6v-26.2H191.9v26.2Z"/>
          <path class="cls-19" d="M191.9,852.7h415.6v-26.2H191.9v26.2Z"/>
          <path class="cls-61" d="M191.9,826.4h415.6v-26.2H191.9v26.2Z"/>
          <path class="cls-34" d="M191.9,800.2h415.6v-26.2H191.9v26.2Z"/>
          <path class="cls-78" d="M191.9,774.1h415.6v-26.2H191.9v26.2Z"/>
          <path class="cls-40" d="M191.9,747.9h415.6v-26.2H191.9v26.2Z"/>
          <path class="cls-29" d="M191.9,721.7h415.6v-26.2H191.9v26.2Z"/>
          <path class="cls-31" d="M191.9,695.4h415.6v-26.2H191.9v26.2Z"/>
          <path class="cls-110" d="M191.9,669.3h415.6v-26.2H191.9v26.2Z"/>
          <path class="cls-77" d="M191.9,643.1h415.6v-26.2H191.9v26.2Z"/>
          <path class="cls-50" d="M191.9,616.9h415.6v-26.2H191.9v26.2Z"/>
          <path class="cls-109" d="M191.9,590.6h415.6v-26.2H191.9v26.2Z"/>
          <path class="cls-75" d="M191.9,564.5h415.6v-26.2H191.9v26.2Z"/>
          <path class="cls-96" d="M191.9,538.3h415.6v-26.2H191.9v26.2Z"/>
          <path class="cls-86" d="M191.9,512.1h415.6v-26.2H191.9v26.2Z"/>
          <path class="cls-93" d="M191.9,485.9h415.6v-26.2H191.9v26.2Z"/>
          <path class="cls-38" d="M191.9,459.8h415.6v-26.2H191.9v26.2Z"/>
          <path class="cls-3" d="M191.9,433.5h415.6v-26.2H191.9v26.2Z"/>
          <path class="cls-13" d="M191.9,407.3h415.6v-26.2H191.9v26.2Z"/>
          <path class="cls-105" d="M191.9,381.1h415.6v-26.2H191.9v26.2Z"/>
          <path class="cls-98" d="M191.9,354.9h415.6v-26.2H191.9v26.2Z"/>
          <path class="cls-46" d="M191.9,328.7h415.6v-26.2H191.9v26.2Z"/>
          <path class="cls-91" d="M191.9,302.5h415.6v-26.2H191.9v26.2Z"/>
          <path class="cls-114" d="M191.9,276.3h415.6v-26.2H191.9v26.2Z"/>
          <path class="cls-56" d="M191.9,250.1h415.6v-26.2H191.9v26.2Z"/>
          <path class="cls-69" d="M191.9,224h415.6v-26.2H191.9v26.2Z"/>
          <path class="cls-108" d="M191.9,197.7h415.6v-26.2H191.9v26.2Z"/>
          <path class="cls-18" d="M191.9,171.5h415.6v-26.2H191.9v26.2Z"/>
          <path class="cls-80" d="M191.9,145.3h415.6v-26.2H191.9v26.2Z"/>
          <path class="cls-66" d="M191.9,119.2h415.6v-26.2H191.9v26.2Z"/>
          <path class="cls-2" d="M191.9,93h415.6v-26.2H191.9v26.2Z"/>
          <path class="cls-103" d="M191.9,66.7h415.6v-26.2H191.9v26.2Z"/>
          <path class="cls-100" d="M191.9,40.5h415.6V14.4H191.9v26.2h0Z"/>
          <path class="cls-5" d="M21.4,1559.9h170.5v-26.2H21.4v26.2Z"/>
          <path class="cls-16" d="M21.4,1533.8h170.5v-26.2H21.4v26.2Z"/>
          <path class="cls-76" d="M21.4,1507.6h170.5v-26.2H21.4v26.2Z"/>
          <path class="cls-32" d="M21.4,1481.4h170.5v-26.2H21.4v26.2Z"/>
          <path class="cls-49" d="M21.4,1455.1h170.5v-26.2H21.4v26.2Z"/>
          <path class="cls-25" d="M21.4,1429h170.5v-26.2H21.4v26.2Z"/>
          <path class="cls-95" d="M21.4,1402.8h170.5v-26.2H21.4v26.2Z"/>
          <path class="cls-44" d="M21.4,1376.6h170.5v-26.2H21.4v26.2Z"/>
          <path class="cls-39" d="M21.4,1350.3h170.5v-26.2H21.4v26.2Z"/>
          <path class="cls-102" d="M21.4,1324.2h170.5v-26.2H21.4v26.2Z"/>
          <path class="cls-22" d="M21.4,1298h170.5v-26.2H21.4v26.2Z"/>
          <path class="cls-8" d="M21.4,1271.8h170.5v-26.2H21.4v26.2Z"/>
          <path class="cls-17" d="M21.4,1245.6h170.5v-26.2H21.4v26.2Z"/>
          <path class="cls-37" d="M21.4,1219.4h170.5v-26.2H21.4v26.2Z"/>
          <path class="cls-111" d="M21.4,1193.2h170.5v-26.2H21.4v26.2Z"/>
          <path class="cls-36" d="M21.4,1167h170.5v-26.2H21.4v26.2Z"/>
          <path class="cls-104" d="M21.4,1140.8h170.5v-26.2H21.4v26.2Z"/>
          <path class="cls-118" d="M21.4,1114.6h170.5v-26.2H21.4v26.2Z"/>
          <path class="cls-30" d="M21.4,1088.4h170.5v-26.2H21.4v26.2Z"/>
          <path class="cls-89" d="M21.4,1062.2h170.5v-26.2H21.4v26.2Z"/>
          <path class="cls-94" d="M21.4,1036h170.5v-26.2H21.4v26.2Z"/>
          <path class="cls-79" d="M21.4,1009.8h170.5v-26.2H21.4v26.2Z"/>
          <path class="cls-59" d="M21.4,983.7h170.5v-26.2H21.4v26.2Z"/>
          <path class="cls-9" d="M21.4,957.4h170.5v-26.2H21.4v26.2Z"/>
          <path class="cls-11" d="M21.4,931.2h170.5v-26.2H21.4v26.2Z"/>
          <path class="cls-83" d="M21.4,905h170.5v-26.2H21.4v26.2Z"/>
          <path class="cls-74" d="M21.4,878.9h170.5v-26.2H21.4v26.2Z"/>
          <path class="cls-67" d="M21.4,852.7h170.5v-26.2H21.4v26.2Z"/>
          <path class="cls-10" d="M21.4,826.4h170.5v-26.2H21.4v26.2Z"/>
          <path class="cls-60" d="M21.4,800.2h170.5v-26.2H21.4v26.2Z"/>
          <path class="cls-68" d="M21.4,774.1h170.5v-26.2H21.4v26.2Z"/>
          <path class="cls-53" d="M21.4,747.9h170.5v-26.2H21.4v26.2Z"/>
          <path class="cls-35" d="M21.4,721.7h170.5v-26.2H21.4v26.2Z"/>
          <path class="cls-14" d="M21.4,695.4h170.5v-26.2H21.4v26.2Z"/>
          <path class="cls-52" d="M21.4,669.3h170.5v-26.2H21.4v26.2Z"/>
          <path class="cls-43" d="M21.4,643.1h170.5v-26.2H21.4v26.2Z"/>
          <path class="cls-65" d="M21.4,616.9h170.5v-26.2H21.4v26.2Z"/>
          <path class="cls-70" d="M21.4,590.6h170.5v-26.2H21.4v26.2Z"/>
          <path class="cls-47" d="M21.4,564.5h170.5v-26.2H21.4v26.2Z"/>
          <path class="cls-81" d="M21.4,538.3h170.5v-26.2H21.4v26.2Z"/>
          <path class="cls-62" d="M21.4,512.1h170.5v-26.2H21.4v26.2Z"/>
          <path class="cls-117" d="M21.4,485.9h170.5v-26.2H21.4v26.2Z"/>
          <path class="cls-23" d="M21.4,459.8h170.5v-26.2H21.4v26.2Z"/>
          <path class="cls-63" d="M21.4,433.5h170.5v-26.2H21.4v26.2Z"/>
          <path class="cls-27" d="M21.4,407.3h170.5v-26.2H21.4v26.2Z"/>
          <path class="cls-116" d="M21.4,381.1h170.5v-26.2H21.4v26.2Z"/>
          <path class="cls-28" d="M21.4,354.9h170.5v-26.2H21.4v26.2Z"/>
          <path class="cls-57" d="M21.4,328.7h170.5v-24.5H21.4v24.5Z"/>
          <path class="cls-101" d="M21.4,302.5h170.5v-24.2H21.4v24.2Z"/>
          <path class="cls-113" d="M21.4,276.3h170.5v-26.2H21.4v26.2Z"/>
          <path class="cls-92" d="M21.4,250.1h170.5v-26.2H21.4v26.2Z"/>
          <path class="cls-26" d="M21.4,224h170.5v-26.2H21.4v26.2Z"/>
          <path class="cls-51" d="M21.4,197.7h170.5v-26.2H21.4v26.2Z"/>
          <path class="cls-72" d="M21.4,171.5h170.5v-26.2H21.4v26.2Z"/>
          <path class="cls-115" d="M21.4,145.3h170.5v-26.2H21.4v26.2Z"/>
          <path class="cls-12" d="M21.4,119.2h170.5v-26.2H21.4v26.2Z"/>
          <path class="cls-99" d="M21.4,93h170.5v-26.2H21.4v26.2Z"/>
          <path class="cls-24" d="M21.4,66.7h170.5v-26.2H21.4v26.2Z"/>
          <path class="cls-54" d="M21.4,40.5h170.5V14.4H21.4v26.2h0Z"/>
          <g class="cls-119">
            <text class="cls-120" transform="translate(99.8 33.4)"><tspan x="0" y="0" xml:space="preserve">Warsaw  </tspan></text>
          </g>
          <g class="cls-119">
            <text class="cls-120" transform="translate(100.9 61.4)"><tspan x="0" y="0" xml:space="preserve">Toronto  </tspan></text>
          </g>
          <g class="cls-119">
            <text class="cls-120" transform="translate(118.8 85.4)"><tspan x="0" y="0" xml:space="preserve">Tokyo  </tspan></text>
          </g>
          <g class="cls-119">
            <text class="cls-120" transform="translate(121.6 114.4)"><tspan x="0" y="0" xml:space="preserve">Tbilisi  </tspan></text>
          </g>
          <g class="cls-119">
            <text class="cls-120" transform="translate(119.6 137.4)"><tspan x="0" y="0" xml:space="preserve">Taipei  </tspan></text>
          </g>
          <g class="cls-119">
            <text class="cls-120" transform="translate(129.3 164.4)"><tspan x="0" y="0" xml:space="preserve">Sofia  </tspan></text>
          </g>
          <g class="cls-119">
            <text class="cls-120" transform="translate(78 191.4)"><tspan x="0" y="0" xml:space="preserve">Singapore  </tspan></text>
          </g>
          <g class="cls-119">
            <text class="cls-120" transform="translate(110.2 218.4)"><tspan x="0" y="0" xml:space="preserve">Seattle  </tspan></text>
          </g>
          <g class="cls-119">
            <text class="cls-120" transform="translate(37.5 245.4)"><tspan x="0" y="0" xml:space="preserve">San Francisco  </tspan></text>
          </g>
          <g class="cls-119">
            <text class="cls-120" transform="translate(77.6 272.4)"><tspan x="0" y="0" xml:space="preserve">San Diego  </tspan></text>
          </g>
          <g class="cls-119">
            <text class="cls-120" transform="translate(76.8 299.4)"><tspan x="0" y="0" xml:space="preserve">Rochester  </tspan></text>
          </g>
          <g class="cls-119">
            <text class="cls-120" transform="translate(57.3 326.4)"><tspan x="0" y="0" xml:space="preserve">Quebec City  </tspan></text>
          </g>
          <g class="cls-119">
            <text class="cls-120" transform="translate(108.7 353.4)"><tspan x="0" y="0" xml:space="preserve">Prague  </tspan></text>
          </g>
          <g class="cls-119">
            <text class="cls-120" transform="translate(95.1 380.4)"><tspan x="0" y="0" xml:space="preserve">Portland  </tspan></text>
          </g>
          <g class="cls-119">
            <text class="cls-120" transform="translate(109.8 407.4)"><tspan x="0" y="0" xml:space="preserve">Phuket  </tspan></text>
          </g>
          <g class="cls-119">
            <text class="cls-120" transform="translate(129.3 434.4)"><tspan x="0" y="0" xml:space="preserve">Paris  </tspan></text>
          </g>
          <g class="cls-119">
            <text class="cls-120" transform="translate(134.4 458.4)"><tspan x="0" y="0" xml:space="preserve">Oslo  </tspan></text>
          </g>
          <g class="cls-119">
            <text class="cls-120" transform="translate(116.4 482.4)"><tspan x="0" y="0" xml:space="preserve">Osaka  </tspan></text>
          </g>
          <g class="cls-119">
            <text class="cls-120" transform="translate(115.7 509.4)"><tspan x="0" y="0" xml:space="preserve">Odesa  </tspan></text>
          </g>
          <g class="cls-119">
            <text class="cls-120" transform="translate(97 536.4)"><tspan x="0" y="0" xml:space="preserve">Oakland  </tspan></text>
          </g>
          <g class="cls-119">
            <text class="cls-120" transform="translate(91.1 563.4)"><tspan x="0" y="0" xml:space="preserve">Novi Sad  </tspan></text>
          </g>
          <g class="cls-119">
            <text class="cls-120" transform="translate(41 590.4)"><tspan x="0" y="0" xml:space="preserve">New York city  </tspan></text>
          </g>
          <g class="cls-119">
            <text class="cls-120" transform="translate(90.8 617.4)"><tspan x="0" y="0" xml:space="preserve">Montreal  </tspan></text>
          </g>
          <g class="cls-119">
            <text class="cls-120" transform="translate(119.3 642.4)"><tspan x="0" y="0" xml:space="preserve">Miami  </tspan></text>
          </g>
          <g class="cls-119">
            <text class="cls-120" transform="translate(72.9 667.4)"><tspan x="0" y="0" xml:space="preserve">Melbourne  </tspan></text>
          </g>
          <g class="cls-119">
            <text class="cls-120" transform="translate(95.5 694.4)"><tspan x="0" y="0" xml:space="preserve">Medellin  </tspan></text>
          </g>
          <g class="cls-119">
            <text class="cls-120" transform="translate(109.9 721.4)"><tspan x="0" y="0" xml:space="preserve">Madrid  </tspan></text>
          </g>
          <g class="cls-119">
            <text class="cls-120" transform="translate(57.4 745.4)"><tspan x="0" y="0" xml:space="preserve">Los Angeles  </tspan></text>
          </g>
          <g class="cls-119">
            <text class="cls-120" transform="translate(104.4 769.4)"><tspan x="0" y="0" xml:space="preserve">London  </tspan></text>
          </g>
          <g class="cls-119">
            <text class="cls-120" transform="translate(113 793.4)"><tspan x="0" y="0" xml:space="preserve">Lisbon  </tspan></text>
          </g>
          <g class="cls-119">
            <text class="cls-120" transform="translate(137.8 817.4)"><tspan x="0" y="0" xml:space="preserve">Kyiv  </tspan></text>
          </g>
          <g class="cls-119">
            <text class="cls-120" transform="translate(39.9 844.4)"><tspan x="0" y="0" xml:space="preserve">Kuala Lumpur  </tspan></text>
          </g>
          <g class="cls-119">
            <text class="cls-120" transform="translate(102.9 871.4)"><tspan x="0" y="0" xml:space="preserve">Krakow  </tspan></text>
          </g>
          <g class="cls-119">
            <text class="cls-120" transform="translate(45.6 898.4)"><tspan x="0" y="0" xml:space="preserve">Koh Phangan  </tspan></text>
          </g>
          <g class="cls-119">
            <text class="cls-120" transform="translate(104.8 925.4)"><tspan x="0" y="0" xml:space="preserve">Jakarta  </tspan></text>
          </g>
          <g class="cls-119">
            <text class="cls-120" transform="translate(100.2 952.4)"><tspan x="0" y="0" xml:space="preserve">Istanbul  </tspan></text>
          </g>
          <g class="cls-119">
            <text class="cls-120" transform="translate(67.4 979.4)"><tspan x="0" y="0" xml:space="preserve">Hong Kong  </tspan></text>
          </g>
          <g class="cls-119">
            <text class="cls-120" transform="translate(113.7 1006.4)"><tspan x="0" y="0" xml:space="preserve">Hoi An  </tspan></text>
          </g>
          <g class="cls-119">
            <text class="cls-120" transform="translate(100.6 1033.4)"><tspan x="0" y="0" xml:space="preserve">Helsinki  </tspan></text>
          </g>
          <g class="cls-119">
            <text class="cls-120" transform="translate(114.5 1060.4)"><tspan x="0" y="0" xml:space="preserve">HCMC  </tspan></text>
          </g>
          <g class="cls-119">
            <text class="cls-120" transform="translate(93.9 1087.4)"><tspan x="0" y="0" xml:space="preserve">Fukuoka  </tspan></text>
          </g>
          <g class="cls-119">
            <text class="cls-120" transform="translate(121.9 1114.4)"><tspan x="0" y="0" xml:space="preserve">Dubai  </tspan></text>
          </g>
          <g class="cls-119">
            <text class="cls-120" transform="translate(109 1138.4)"><tspan x="0" y="0" xml:space="preserve">Denver  </tspan></text>
          </g>
          <g class="cls-119">
            <text class="cls-120" transform="translate(118.4 1165.4)"><tspan x="0" y="0" xml:space="preserve">Dallas  </tspan></text>
          </g>
          <g class="cls-119">
            <text class="cls-120" transform="translate(78.4 1190.4)"><tspan x="0" y="0" xml:space="preserve">Columbus  </tspan></text>
          </g>
          <g class="cls-119">
            <text class="cls-120" transform="translate(81.5 1215.4)"><tspan x="0" y="0" xml:space="preserve">Cleveland  </tspan></text>
          </g>
          <g class="cls-119">
            <text class="cls-120" transform="translate(97 1240.4)"><tspan x="0" y="0" xml:space="preserve">Chicago  </tspan></text>
          </g>
          <g class="cls-119">
            <text class="cls-120" transform="translate(71 1265.4)"><tspan x="0" y="0" xml:space="preserve">Chiang Rai  </tspan></text>
          </g>
          <g class="cls-119">
            <text class="cls-120" transform="translate(67.1 1290.4)"><tspan x="0" y="0" xml:space="preserve">Chiang Mai  </tspan></text>
          </g>
          <g class="cls-119">
            <text class="cls-120" transform="translate(84.5 1317.4)"><tspan x="0" y="0" xml:space="preserve">Budapest  </tspan></text>
          </g>
          <g class="cls-119">
            <text class="cls-120" transform="translate(77.5 1344.4)"><tspan x="0" y="0" xml:space="preserve">Bucharest  </tspan></text>
          </g>
          <g class="cls-119">
            <text class="cls-120" transform="translate(80.7 1371.4)"><tspan x="0" y="0" xml:space="preserve">Bratislava  </tspan></text>
          </g>
          <g class="cls-119">
            <text class="cls-120" transform="translate(121.9 1397.4)"><tspan x="0" y="0" xml:space="preserve">Berlin  </tspan></text>
          </g>
          <g class="cls-119">
            <text class="cls-120" transform="translate(90 1423.4)"><tspan x="0" y="0" xml:space="preserve">Belgrade  </tspan></text>
          </g>
          <g class="cls-119">
            <text class="cls-120" transform="translate(91.2 1449.4)"><tspan x="0" y="0" xml:space="preserve">Bangkok  </tspan></text>
          </g>
          <g class="cls-119">
            <text class="cls-120" transform="translate(142.6 1475.4)"><tspan x="0" y="0" xml:space="preserve">Bali  </tspan></text>
          </g>
          <g class="cls-119">
            <text class="cls-120" transform="translate(110.2 1499.4)"><tspan x="0" y="0" xml:space="preserve">Athens  </tspan></text>
          </g>
          <g class="cls-119">
            <text class="cls-120" transform="translate(109.1 1526.4)"><tspan x="0" y="0" xml:space="preserve">Ankara  </tspan></text>
          </g>
          <g class="cls-119">
            <text class="cls-120" transform="translate(64 1553.4)"><tspan x="0" y="0" xml:space="preserve">Amsterdam  </tspan></text>
          </g>
        </g>
      </g>
    </g>
  </g>
</svg>