<?xml version="1.0" encoding="UTF-8"?>
<svg xmlns="http://www.w3.org/2000/svg" version="1.1" viewBox="0 0 595.5 1926.3">
  <defs>
    <style>
      .cls-1 {
        fill: #cdc4bd;
        stroke: #cdc4bd;
      }

      .cls-2 {
        fill: #baada2;
        stroke: #baada2;
      }

      .cls-3 {
        fill: #bb9a91;
        stroke: #bb9a91;
      }

      .cls-4 {
        fill: #383834;
        stroke: #383834;
      }

      .cls-5 {
        fill: #3b342e;
        stroke: #3b342e;
      }

      .cls-6 {
        fill: #38322d;
        stroke: #38322d;
      }

      .cls-7 {
        fill: #cec4b8;
        stroke: #cec4b8;
      }

      .cls-8 {
        fill: #cfc5bc;
        stroke: #cfc5bc;
      }

      .cls-9 {
        fill: #c7b5a6;
        stroke: #c7b5a6;
      }

      .cls-10 {
        fill: #c0b3a5;
        stroke: #c0b3a5;
      }

      .cls-11 {
        fill: #d5ccc2;
        stroke: #d5ccc2;
      }

      .cls-12 {
        fill: #a28b72;
        stroke: #a28b72;
      }

      .cls-13 {
        fill: #d2c7bc;
        stroke: #d2c7bc;
      }

      .cls-14 {
        fill: #cdc3b8;
        stroke: #cdc3b8;
      }

      .cls-15 {
        fill: #c5bfb3;
        stroke: #c5bfb3;
      }

      .cls-16 {
        fill: #c9bfb1;
        stroke: #c9bfb1;
      }

      .cls-17 {
        fill: #c7b4a9;
        stroke: #c7b4a9;
      }

      .cls-18 {
        fill: #c7bfb4;
        stroke: #c7bfb4;
      }

      .cls-19 {
        fill: #c0bab0;
        stroke: #c0bab0;
      }

      .cls-20 {
        fill: #ae987c;
        stroke: #ae987c;
      }

      .cls-21 {
        fill: #cabfb5;
        stroke: #cabfb5;
      }

      .cls-22 {
        fill: #c5bbac;
        stroke: #c5bbac;
      }

      .cls-23 {
        fill: #3f3b36;
        stroke: #3f3b36;
      }

      .cls-24 {
        fill: #38342c;
        stroke: #38342c;
      }

      .cls-25 {
        fill: #c1b5a6;
        stroke: #c1b5a6;
      }

      .cls-26 {
        fill: #d0c5bb;
        stroke: #d0c5bb;
      }

      .cls-27 {
        fill: #c3b8a9;
        stroke: #c3b8a9;
      }

      .cls-28 {
        fill: #c1b7ab;
        stroke: #c1b7ab;
      }

      .cls-29 {
        fill: #37312c;
        stroke: #37312c;
      }

      .cls-30 {
        fill: #3e352d;
        stroke: #3e352d;
      }

      .cls-31 {
        fill: #ccbcb1;
        stroke: #ccbcb1;
      }

      .cls-32 {
        fill: #c8baab;
        stroke: #c8baab;
      }

      .cls-33 {
        fill: #342c26;
        stroke: #342c26;
      }

      .cls-34 {
        fill: #c8bca9;
        stroke: #c8bca9;
      }

      .cls-35, .cls-36 {
        isolation: isolate;
      }

      .cls-37 {
        fill: #cbbfb5;
        stroke: #cbbfb5;
      }

      .cls-38 {
        fill: #3c3830;
        stroke: #3c3830;
      }

      .cls-39 {
        fill: #d3c4b6;
        stroke: #d3c4b6;
      }

      .cls-40 {
        fill: #38362f;
        stroke: #38362f;
      }

      .cls-41 {
        fill: #3a302c;
        stroke: #3a302c;
      }

      .cls-42 {
        fill: #36352e;
        stroke: #36352e;
      }

      .cls-43 {
        fill: #ccbfb3;
        stroke: #ccbfb3;
      }

      .cls-44 {
        fill: #b59778;
        stroke: #b59778;
      }

      .cls-45 {
        fill: #c9bdb2;
        stroke: #c9bdb2;
      }

      .cls-46 {
        fill: #ccc8b6;
        stroke: #ccc8b6;
      }

      .cls-47 {
        fill: #c6b9ac;
        stroke: #c6b9ac;
      }

      .cls-48 {
        fill: #ccc0b7;
        stroke: #ccc0b7;
      }

      .cls-49 {
        fill: #c5b4a6;
        stroke: #c5b4a6;
      }

      .cls-50 {
        fill: #d0beab;
        stroke: #d0beab;
      }

      .cls-51 {
        fill: #cec4b7;
        stroke: #cec4b7;
      }

      .cls-52 {
        fill: #c2b7ab;
        stroke: #c2b7ab;
      }

      .cls-53 {
        fill: #352c29;
        stroke: #352c29;
      }

      .cls-54 {
        fill: #d0b8a4;
        stroke: #d0b8a4;
      }

      .cls-55 {
        fill: #ae977c;
        stroke: #ae977c;
      }

      .cls-56 {
        fill: #bdb2a2;
        stroke: #bdb2a2;
      }

      .cls-57 {
        fill: #c6bcb1;
        stroke: #c6bcb1;
      }

      .cls-58 {
        fill: #252721;
        stroke: #252721;
      }

      .cls-59 {
        fill: #c9bdb0;
        stroke: #c9bdb0;
      }

      .cls-60 {
        fill: #826c57;
        stroke: #826c57;
      }

      .cls-61 {
        fill: #beab99;
        stroke: #beab99;
      }

      .cls-62 {
        fill: #cfc6b7;
        stroke: #cfc6b7;
      }

      .cls-63 {
        fill: #d2c7b8;
        stroke: #d2c7b8;
      }

      .cls-64 {
        opacity: .2;
      }

      .cls-65 {
        fill: #cfbcaf;
        stroke: #cfbcaf;
      }

      .cls-66 {
        fill: #a08c75;
        stroke: #a08c75;
      }

      .cls-67 {
        fill: #c4b5a5;
        stroke: #c4b5a5;
      }

      .cls-68 {
        fill: #c3b4a5;
        stroke: #c3b4a5;
      }

      .cls-69 {
        fill: #c9bfb5;
        stroke: #c9bfb5;
      }

      .cls-70 {
        fill: #c2b4a7;
        stroke: #c2b4a7;
      }

      .cls-71 {
        fill: #443c35;
        stroke: #443c35;
      }

      .cls-72 {
        fill: #d0beac;
        stroke: #d0beac;
      }

      .cls-73 {
        fill: #baac9f;
        stroke: #baac9f;
      }

      .cls-74 {
        fill: #c7c0b7;
        stroke: #c7c0b7;
      }

      .cls-75 {
        fill: #ccc2bc;
        stroke: #ccc2bc;
      }

      .cls-76 {
        fill: #b1a494;
        stroke: #b1a494;
      }

      .cls-77 {
        fill: #c5bfb4;
        stroke: #c5bfb4;
      }

      .cls-78 {
        fill: #cbbfb6;
        stroke: #cbbfb6;
      }

      .cls-79 {
        fill: #cac0b4;
        stroke: #cac0b4;
      }

      .cls-80 {
        fill: #bfb7ad;
        stroke: #bfb7ad;
      }

      .cls-81 {
        fill: #b37b3d;
        stroke: #b37b3d;
      }

      .cls-82 {
        fill: #cdc5bb;
        stroke: #cdc5bb;
      }

      .cls-83 {
        fill: #c4bbb1;
        stroke: #c4bbb1;
      }

      .cls-84 {
        fill: #3a2f28;
        stroke: #3a2f28;
      }

      .cls-85 {
        fill: #39302c;
        stroke: #39302c;
      }

      .cls-86 {
        fill: #d0bfa4;
        stroke: #d0bfa4;
      }

      .cls-87 {
        fill: #c9b9ab;
        stroke: #c9b9ab;
      }

      .cls-88 {
        fill: #38322b;
        stroke: #38322b;
      }

      .cls-36 {
        font-family: HelveticaNeue, 'Helvetica Neue';
        font-size: 21px;
      }

      .cls-89 {
        fill: #353533;
        stroke: #353533;
      }

      .cls-90 {
        fill: #3e342e;
        stroke: #3e342e;
      }

      .cls-91 {
        fill: #c6b8ad;
        stroke: #c6b8ad;
      }

      .cls-92 {
        fill: #38312c;
        stroke: #38312c;
      }
    </style>
  </defs>
  <!-- Generator: Adobe Illustrator 28.7.7, SVG Export Plug-In . SVG Version: 1.2.0 Build 194)  -->
  <g>
    <g id="Layer_1">
      <g id="Layer_1-2" data-name="Layer_1">
        <g id="Layer_1-2">
          <g>
            <g id="Layer_1-2-2" data-name="Layer_1-2">
              <path class="cls-34" d="M15.9,1917.5h410.9v-21.2H15.9v21.2Z"/>
              <path class="cls-69" d="M15.9,1896.3h410.9v-21.2H15.9v21.2Z"/>
              <path class="cls-33" d="M15.9,1875.1h410.9v-21.2H15.9v21.2Z"/>
              <path class="cls-67" d="M15.9,1853.9h410.9v-21.2H15.9v21.2Z"/>
              <path class="cls-10" d="M15.9,1832.6h410.9v-21.2H15.9v21.2Z"/>
              <path class="cls-13" d="M15.9,1811.5h410.9v-21.2H15.9v21.2Z"/>
              <path class="cls-87" d="M15.9,1790.3h410.9v-21.2H15.9v21.2Z"/>
              <path class="cls-59" d="M15.9,1769.1h410.9v-21.2H15.9v21.2Z"/>
              <path class="cls-92" d="M15.9,1747.9h410.9v-21.2H15.9v21.2Z"/>
              <path class="cls-46" d="M15.9,1726.6h410.9v-21.2H15.9v21.2Z"/>
              <path class="cls-70" d="M15.9,1705.5h410.9v-21.2H15.9v21.2Z"/>
              <path class="cls-91" d="M15.9,1684.3h410.9v-21.2H15.9v21.2Z"/>
              <path class="cls-89" d="M15.9,1663.1h410.9v-21.2H15.9v21.2Z"/>
              <path class="cls-5" d="M15.9,1641.9h410.9v-21.2H15.9v21.2Z"/>
              <path class="cls-55" d="M15.9,1620.6h410.9v-21.2H15.9v21.2Z"/>
              <path class="cls-4" d="M15.9,1599.5h410.9v-21.2H15.9v21.2Z"/>
              <path class="cls-16" d="M15.9,1578.4h410.9v-21.2H15.9v21.2Z"/>
              <path class="cls-11" d="M15.9,1557.1h410.9v-21.2H15.9v21.2Z"/>
              <path class="cls-1" d="M15.9,1536h410.9v-21.2H15.9v21.2Z"/>
              <path class="cls-57" d="M15.9,1514.8h410.9v-21.2H15.9v21.2Z"/>
              <path class="cls-7" d="M15.9,1493.6h410.9v-21.2H15.9v21.2Z"/>
              <path class="cls-48" d="M15.9,1472.4h410.9v-21.2H15.9v21.2Z"/>
              <path class="cls-60" d="M15.9,1451.1h410.9v-21.2H15.9v21.2Z"/>
              <path class="cls-78" d="M15.9,1430h410.9v-21.2H15.9v21.2Z"/>
              <path class="cls-82" d="M15.9,1408.8h410.9v-21.2H15.9v21.2Z"/>
              <path class="cls-37" d="M15.9,1387.6h410.9v-21.2H15.9v21.2Z"/>
              <path class="cls-22" d="M15.9,1366.4h410.9v-21.2H15.9v21.2Z"/>
              <path class="cls-47" d="M15.9,1345.1h410.9v-21.2H15.9v21.2Z"/>
              <path class="cls-62" d="M15.9,1324h410.9v-21.2H15.9v21.2Z"/>
              <path class="cls-51" d="M15.9,1302.8h410.9v-21.2H15.9v21.2Z"/>
              <path class="cls-34" d="M15.9,1281.6h410.9v-21.2H15.9v21.2Z"/>
              <path class="cls-26" d="M15.9,1260.4h410.9v-21.2H15.9v21.2Z"/>
              <path class="cls-8" d="M15.9,1239.1h410.9v-21.2H15.9v21.2Z"/>
              <path class="cls-32" d="M15.9,1218h410.9v-21.2H15.9v21.2Z"/>
              <path class="cls-12" d="M15.9,1196.8h410.9v-21.2H15.9v21.2Z"/>
              <path class="cls-42" d="M15.9,1175.6h410.9v-21.2H15.9v21.2Z"/>
              <path class="cls-52" d="M15.9,1154.5h410.9v-21.2H15.9v21.2Z"/>
              <path class="cls-74" d="M15.9,1133.3h410.9v-21.2H15.9v21.2Z"/>
              <path class="cls-14" d="M15.9,1112.1h410.9v-21.2H15.9v21.2Z"/>
              <path class="cls-68" d="M15.9,1090.9h410.9v-21.2H15.9v21.2Z"/>
              <path class="cls-29" d="M15.9,1069.6h410.9v-21.2H15.9v21.2Z"/>
              <path class="cls-88" d="M15.9,1048.5h410.9v-21.2H15.9v21.2Z"/>
              <path class="cls-44" d="M15.9,1027.3h410.9v-21.2H15.9v21.2Z"/>
              <path class="cls-90" d="M15.9,1006.1h410.9v-21.2H15.9v21.2Z"/>
              <path class="cls-3" d="M15.9,984.9h410.9v-21.2H15.9v21.2Z"/>
              <path class="cls-6" d="M15.9,963.7h410.9v-21.2H15.9v21.2Z"/>
              <path class="cls-39" d="M15.9,942.5h410.9v-21.2H15.9v21.2Z"/>
              <path class="cls-41" d="M15.9,921.3h410.9v-21.2H15.9v21.2Z"/>
              <path class="cls-85" d="M15.9,900.1h410.9v-21.2H15.9v21.2Z"/>
              <path class="cls-40" d="M15.9,878.9h410.9v-21.2H15.9v21.2Z"/>
              <path class="cls-2" d="M15.9,857.7h410.9v-21.2H15.9v21.2Z"/>
              <path class="cls-86" d="M15.9,836.5h410.9v-21.2H15.9v21.2Z"/>
              <path class="cls-38" d="M15.9,815.3h410.9v-21.2H15.9v21.2Z"/>
              <path class="cls-50" d="M15.9,794.1h410.9v-21.2H15.9v21.2Z"/>
              <path class="cls-31" d="M15.9,773h410.9v-21.2H15.9v21.2Z"/>
              <path class="cls-53" d="M15.9,751.8h410.9v-21.2H15.9v21.2Z"/>
              <path class="cls-43" d="M15.9,730.6h410.9v-21.2H15.9v21.2Z"/>
              <path class="cls-75" d="M15.9,709.4h410.9v-21.2H15.9v21.2Z"/>
              <path class="cls-61" d="M15.9,688.2h410.9v-21.2H15.9v21.2Z"/>
              <path class="cls-54" d="M15.9,667h410.9v-21.2H15.9v21.2Z"/>
              <path class="cls-80" d="M15.9,645.8h410.9v-21.2H15.9v21.2Z"/>
              <path class="cls-72" d="M15.9,624.6h410.9v-21.2H15.9v21.2Z"/>
              <path class="cls-25" d="M15.9,603.4h410.9v-21.2H15.9v21.2Z"/>
              <path class="cls-84" d="M15.9,582.2h410.9v-21.2H15.9v21.2Z"/>
              <path class="cls-9" d="M15.9,561h410.9v-21.2H15.9v21.2Z"/>
              <path class="cls-23" d="M15.9,539.8h410.9v-21.2H15.9v21.2Z"/>
              <path class="cls-76" d="M15.9,518.6h410.9v-21.2H15.9v21.2Z"/>
              <path class="cls-81" d="M15.9,497.4h410.9v-21.2H15.9v21.2Z"/>
              <path class="cls-15" d="M15.9,476.2h410.9v-21.2H15.9v21.2Z"/>
              <path class="cls-71" d="M15.9,455h410.9v-21.2H15.9v21.2Z"/>
              <path class="cls-79" d="M15.9,433.8h410.9v-21.2H15.9v21.2Z"/>
              <path class="cls-28" d="M15.9,412.6h410.9v-21.2H15.9v21.2Z"/>
              <path class="cls-24" d="M15.9,391.4h410.9v-21.2H15.9v21.2Z"/>
              <path class="cls-77" d="M15.9,370.2h410.9v-21.2H15.9v21.2Z"/>
              <path class="cls-56" d="M15.9,349.1h410.9v-21.2H15.9v21.2Z"/>
              <path class="cls-20" d="M15.9,327.9h410.9v-21.2H15.9v21.2Z"/>
              <path class="cls-66" d="M15.9,306.7h410.9v-21.2H15.9v21.2Z"/>
              <path class="cls-27" d="M15.9,285.5h410.9v-21.2H15.9v21.2Z"/>
              <path class="cls-21" d="M15.9,264.3h410.9v-21.2H15.9v21.2Z"/>
              <path class="cls-30" d="M15.9,243.1h410.9v-21.2H15.9v21.2Z"/>
              <path class="cls-18" d="M15.9,221.9h410.9v-21.2H15.9v21.2Z"/>
              <path class="cls-63" d="M15.9,200.7h410.9v-21.2H15.9v21.2Z"/>
              <path class="cls-45" d="M15.9,179.5h410.9v-21.2H15.9v21.2Z"/>
              <path class="cls-49" d="M15.9,158.3h410.9v-21.2H15.9v21.2Z"/>
              <path class="cls-83" d="M15.9,137.1h410.9v-21.2H15.9v21.2Z"/>
              <path class="cls-19" d="M15.9,115.9h410.9v-21.2H15.9v21.2Z"/>
              <path class="cls-17" d="M15.9,94.7h410.9v-21.2H15.9v21.2Z"/>
              <path class="cls-65" d="M15.9,73.5h410.9v-21.2H15.9v21.2Z"/>
              <path class="cls-58" d="M15.9,52.3h410.9v-21.2H15.9v21.2Z"/>
              <path class="cls-73" d="M15.9,31.1h410.9V9.9H15.9v21.2Z"/>
            </g>
            <g class="cls-64">
              <g id="Layer_1-3">
                <path class="cls-34" d="M426.8,1917.5h152.8v-21.2h-152.8v21.2Z"/>
                <path class="cls-69" d="M426.8,1896.3h152.8v-21.2h-152.8v21.2Z"/>
                <path class="cls-33" d="M426.8,1875.1h152.8v-21.2h-152.8v21.2Z"/>
                <path class="cls-67" d="M426.8,1853.9h152.8v-21.2h-152.8v21.2Z"/>
                <path class="cls-10" d="M426.8,1832.6h152.8v-21.2h-152.8v21.2Z"/>
                <path class="cls-13" d="M426.8,1811.5h152.8v-21.2h-152.8v21.2Z"/>
                <path class="cls-87" d="M426.8,1790.3h152.8v-21.2h-152.8v21.2Z"/>
                <path class="cls-59" d="M426.8,1769.1h152.8v-21.2h-152.8v21.2Z"/>
                <path class="cls-92" d="M426.8,1747.9h152.8v-21.2h-152.8v21.2Z"/>
                <path class="cls-46" d="M426.8,1726.6h152.8v-21.2h-152.8v21.2Z"/>
                <path class="cls-70" d="M426.8,1705.5h152.8v-21.2h-152.8v21.2Z"/>
                <path class="cls-91" d="M426.8,1684.3h152.8v-21.2h-152.8v21.2Z"/>
                <path class="cls-89" d="M426.8,1663.1h152.8v-21.2h-152.8v21.2Z"/>
                <path class="cls-5" d="M426.8,1641.9h152.8v-21.2h-152.8v21.2Z"/>
                <path class="cls-55" d="M426.8,1620.6h152.8v-21.2h-152.8v21.2Z"/>
                <path class="cls-4" d="M426.8,1599.5h152.8v-21.2h-152.8v21.2Z"/>
                <path class="cls-16" d="M426.8,1578.4h152.8v-21.2h-152.8v21.2Z"/>
                <path class="cls-11" d="M426.8,1557.1h152.8v-21.2h-152.8v21.2Z"/>
                <path class="cls-1" d="M426.8,1536h152.8v-21.2h-152.8v21.2Z"/>
                <path class="cls-57" d="M426.8,1514.8h152.8v-21.2h-152.8v21.2Z"/>
                <path class="cls-7" d="M426.8,1493.6h152.8v-21.2h-152.8v21.2Z"/>
                <path class="cls-48" d="M426.8,1472.4h152.8v-21.2h-152.8v21.2Z"/>
                <path class="cls-60" d="M426.8,1451.1h152.8v-21.2h-152.8v21.2Z"/>
                <path class="cls-78" d="M426.8,1430h152.8v-21.2h-152.8v21.2Z"/>
                <path class="cls-82" d="M426.8,1408.8h152.8v-21.2h-152.8v21.2Z"/>
                <path class="cls-37" d="M426.8,1387.6h152.8v-21.2h-152.8v21.2Z"/>
                <path class="cls-22" d="M426.8,1366.4h152.8v-21.2h-152.8v21.2Z"/>
                <path class="cls-47" d="M426.8,1345.1h152.8v-21.2h-152.8v21.2Z"/>
                <path class="cls-62" d="M426.8,1324h152.8v-21.2h-152.8v21.2Z"/>
                <path class="cls-51" d="M426.8,1302.8h152.8v-21.2h-152.8v21.2Z"/>
                <path class="cls-34" d="M426.8,1281.6h152.8v-21.2h-152.8v21.2Z"/>
                <path class="cls-26" d="M426.8,1260.4h152.8v-21.2h-152.8v21.2Z"/>
                <path class="cls-8" d="M426.8,1239.1h152.8v-21.2h-152.8v21.2Z"/>
                <path class="cls-32" d="M426.8,1218h152.8v-21.2h-152.8v21.2Z"/>
                <path class="cls-12" d="M426.8,1196.8h152.8v-21.2h-152.8v21.2Z"/>
                <path class="cls-42" d="M426.8,1175.6h152.8v-21.2h-152.8v21.2Z"/>
                <path class="cls-52" d="M426.8,1154.5h152.8v-21.2h-152.8v21.2Z"/>
                <path class="cls-74" d="M426.8,1133.3h152.8v-21.2h-152.8v21.2Z"/>
                <path class="cls-14" d="M426.8,1112.1h152.8v-21.2h-152.8v21.2Z"/>
                <path class="cls-68" d="M426.8,1090.9h152.8v-21.2h-152.8v21.2Z"/>
                <path class="cls-29" d="M426.8,1069.6h152.8v-21.2h-152.8v21.2Z"/>
                <path class="cls-88" d="M426.8,1048.5h152.8v-21.2h-152.8v21.2Z"/>
                <path class="cls-44" d="M426.8,1027.3h152.8v-21.2h-152.8v21.2Z"/>
                <path class="cls-90" d="M426.8,1006.1h152.8v-21.2h-152.8v21.2Z"/>
                <path class="cls-3" d="M426.8,984.9h152.8v-21.2h-152.8v21.2Z"/>
                <path class="cls-6" d="M426.8,963.7h152.8v-21.2h-152.8v21.2Z"/>
                <path class="cls-39" d="M426.8,942.5h152.8v-21.2h-152.8v21.2Z"/>
                <path class="cls-41" d="M426.8,921.3h152.8v-21.2h-152.8v21.2Z"/>
                <path class="cls-85" d="M426.8,900.1h152.8v-21.2h-152.8v21.2Z"/>
                <path class="cls-40" d="M426.8,878.9h152.8v-21.2h-152.8v21.2Z"/>
                <path class="cls-2" d="M426.8,857.7h152.8v-21.2h-152.8v21.2Z"/>
                <path class="cls-86" d="M426.8,836.5h152.8v-21.2h-152.8v21.2Z"/>
                <path class="cls-38" d="M426.8,815.3h152.8v-21.2h-152.8v21.2Z"/>
                <path class="cls-50" d="M426.8,794.1h152.8v-21.2h-152.8v21.2Z"/>
                <path class="cls-31" d="M426.8,773h152.8v-21.2h-152.8v21.2Z"/>
                <path class="cls-53" d="M426.8,751.8h152.8v-21.2h-152.8v21.2Z"/>
                <path class="cls-43" d="M426.8,730.6h152.8v-21.2h-152.8v21.2Z"/>
                <path class="cls-75" d="M426.8,709.4h152.8v-21.2h-152.8v21.2Z"/>
                <path class="cls-61" d="M426.8,688.2h152.8v-21.2h-152.8v21.2Z"/>
                <path class="cls-54" d="M426.8,667h152.8v-21.2h-152.8v21.2Z"/>
                <path class="cls-80" d="M426.8,645.8h152.8v-21.2h-152.8v21.2Z"/>
                <path class="cls-72" d="M426.8,624.6h152.8v-21.2h-152.8v21.2Z"/>
                <path class="cls-25" d="M426.8,603.4h152.8v-21.2h-152.8v21.2Z"/>
                <path class="cls-84" d="M426.8,582.2h152.8v-21.2h-152.8v21.2Z"/>
                <path class="cls-9" d="M426.8,561h152.8v-21.2h-152.8v21.2Z"/>
                <path class="cls-23" d="M426.8,539.8h152.8v-21.2h-152.8v21.2Z"/>
                <path class="cls-76" d="M426.8,518.6h152.8v-21.2h-152.8v21.2Z"/>
                <path class="cls-81" d="M426.8,497.4h152.8v-21.2h-152.8v21.2Z"/>
                <path class="cls-15" d="M426.8,476.2h152.8v-21.2h-152.8v21.2Z"/>
                <path class="cls-71" d="M426.8,455h152.8v-21.2h-152.8v21.2Z"/>
                <path class="cls-79" d="M426.8,433.8h152.8v-21.2h-152.8v21.2Z"/>
                <path class="cls-28" d="M426.8,412.6h152.8v-21.2h-152.8v21.2Z"/>
                <path class="cls-24" d="M426.8,391.4h152.8v-21.2h-152.8v21.2Z"/>
                <path class="cls-77" d="M426.8,370.2h152.8v-21.2h-152.8v21.2Z"/>
                <path class="cls-56" d="M426.8,349.1h152.8v-21.2h-152.8v21.2Z"/>
                <path class="cls-20" d="M426.8,327.9h152.8v-21.2h-152.8v21.2Z"/>
                <path class="cls-66" d="M426.8,306.7h152.8v-21.2h-152.8v21.2Z"/>
                <path class="cls-27" d="M426.8,285.5h152.8v-21.2h-152.8v21.2Z"/>
                <path class="cls-21" d="M426.8,264.3h152.8v-21.2h-152.8v21.2Z"/>
                <path class="cls-30" d="M426.8,243.1h152.8v-21.2h-152.8v21.2Z"/>
                <path class="cls-18" d="M426.8,221.9h152.8v-21.2h-152.8v21.2Z"/>
                <path class="cls-63" d="M426.8,200.7h152.8v-21.2h-152.8v21.2Z"/>
                <path class="cls-45" d="M426.8,179.5h152.8v-21.2h-152.8v21.2Z"/>
                <path class="cls-49" d="M426.8,158.3h152.8v-21.2h-152.8v21.2Z"/>
                <path class="cls-83" d="M426.8,137.1h152.8v-21.2h-152.8v21.2Z"/>
                <path class="cls-19" d="M426.8,115.9h152.8v-21.2h-152.8v21.2Z"/>
                <path class="cls-17" d="M426.8,94.7h152.8v-21.2h-152.8v21.2Z"/>
                <path class="cls-65" d="M426.8,73.5h152.8v-21.2h-152.8v21.2Z"/>
                <path class="cls-58" d="M426.8,52.3h152.8v-21.2h-152.8v21.2Z"/>
                <path class="cls-73" d="M426.8,31.1h152.8V9.9h-152.8v21.2Z"/>
              </g>
            </g>
          </g>
          <g class="cls-35">
            <g class="cls-35">
              <text class="cls-36" transform="translate(432 27.1)"><tspan x="0" y="0" xml:space="preserve">Zagreb  </tspan></text>
            </g>
            <g class="cls-35">
              <text class="cls-36" transform="translate(432 50.1)"><tspan x="0" y="0" xml:space="preserve">Yerevan  </tspan></text>
            </g>
            <g class="cls-35">
              <text class="cls-36" transform="translate(432 70.1)"><tspan x="0" y="0" xml:space="preserve">Warsaw  </tspan></text>
            </g>
            <g class="cls-35">
              <text class="cls-36" transform="translate(432 93.1)"><tspan x="0" y="0" xml:space="preserve">Vienna  </tspan></text>
            </g>
            <g class="cls-35">
              <text class="cls-36" transform="translate(432 113.1)"><tspan x="0" y="0" xml:space="preserve">Toronto  </tspan></text>
            </g>
            <g class="cls-35">
              <text class="cls-36" transform="translate(432 136.1)"><tspan x="0" y="0" xml:space="preserve">Tokyo  </tspan></text>
            </g>
            <g class="cls-35">
              <text class="cls-36" transform="translate(432 156.1)"><tspan x="0" y="0" xml:space="preserve">Tbilisi  </tspan></text>
            </g>
            <g class="cls-35">
              <text class="cls-36" transform="translate(432 174.1)"><tspan x="0" y="0" xml:space="preserve">Taipei  </tspan></text>
            </g>
            <g class="cls-35">
              <text class="cls-36" transform="translate(432 194.1)"><tspan x="0" y="0" xml:space="preserve">Taichung  </tspan></text>
            </g>
            <g class="cls-35">
              <text class="cls-36" transform="translate(432 216.1)"><tspan x="0" y="0" xml:space="preserve">Stockholm  </tspan></text>
            </g>
            <g class="cls-35">
              <text class="cls-36" transform="translate(432 238.1)"><tspan x="0" y="0" xml:space="preserve">Sofia  </tspan></text>
            </g>
            <g class="cls-35">
              <text class="cls-36" transform="translate(432 261.1)"><tspan x="0" y="0" xml:space="preserve">Singapore  </tspan></text>
            </g>
            <g class="cls-35">
              <text class="cls-36" transform="translate(432 282.1)"><tspan x="0" y="0" xml:space="preserve">Seattle  </tspan></text>
            </g>
            <g class="cls-35">
              <text class="cls-36" transform="translate(432 302.1)"><tspan x="0" y="0" xml:space="preserve">Samui  </tspan></text>
            </g>
            <g class="cls-35">
              <text class="cls-36" transform="translate(432 323.1)"><tspan x="0" y="0" xml:space="preserve">Novi Sad  </tspan></text>
            </g>
            <g class="cls-35">
              <text class="cls-36" transform="translate(432 344.1)"><tspan x="0" y="0" xml:space="preserve">Rotterdam  </tspan></text>
            </g>
            <g class="cls-35">
              <text class="cls-36" transform="translate(432 367.1)"><tspan x="0" y="0" xml:space="preserve">Rochester  </tspan></text>
            </g>
            <g class="cls-35">
              <text class="cls-36" transform="translate(432 387.1)"><tspan x="0" y="0" xml:space="preserve">Chiang Rai  </tspan></text>
            </g>
            <g class="cls-35">
              <text class="cls-36" transform="translate(432 410.1)"><tspan x="0" y="0" xml:space="preserve">Prague  </tspan></text>
            </g>
            <g class="cls-35">
              <text class="cls-36" transform="translate(432 433.1)"><tspan x="0" y="0" xml:space="preserve">Portland  </tspan></text>
            </g>
            <g class="cls-35">
              <text class="cls-36" transform="translate(432 453.1)"><tspan x="0" y="0" xml:space="preserve">Plovdiv  </tspan></text>
            </g>
            <g class="cls-35">
              <text class="cls-36" transform="translate(432 473.1)"><tspan x="0" y="0" xml:space="preserve">Phuket  </tspan></text>
            </g>
            <g class="cls-35">
              <text class="cls-36" transform="translate(432 493.1)"><tspan x="0" y="0" xml:space="preserve">Phitsanulok  </tspan></text>
            </g>
            <g class="cls-35">
              <text class="cls-36" transform="translate(432 516.1)"><tspan x="0" y="0" xml:space="preserve">Phangan  </tspan></text>
            </g>
            <g class="cls-35">
              <text class="cls-36" transform="translate(432 536.1)"><tspan x="0" y="0" xml:space="preserve">Penang  </tspan></text>
            </g>
            <g class="cls-35">
              <text class="cls-36" transform="translate(432 559.1)"><tspan x="0" y="0" xml:space="preserve">Paris  </tspan></text>
            </g>
            <g class="cls-35">
              <text class="cls-36" transform="translate(432 579.1)"><tspan x="0" y="0" xml:space="preserve">Oslo  </tspan></text>
            </g>
            <g class="cls-35">
              <text class="cls-36" transform="translate(432 602.1)"><tspan x="0" y="0" xml:space="preserve">Osaka  </tspan></text>
            </g>
            <g class="cls-35">
              <text class="cls-36" transform="translate(432 622.1)"><tspan x="0" y="0" xml:space="preserve">Odesa  </tspan></text>
            </g>
            <g class="cls-35">
              <text class="cls-36" transform="translate(432 642.1)"><tspan x="0" y="0" xml:space="preserve">Oakland  </tspan></text>
            </g>
            <g class="cls-35">
              <text class="cls-36" transform="translate(432 665.1)"><tspan x="0" y="0" xml:space="preserve">Nicosia  </tspan></text>
            </g>
            <g class="cls-35">
              <text class="cls-36" transform="translate(432 685.1)"><tspan x="0" y="0" xml:space="preserve">Da Nang  </tspan></text>
            </g>
            <g class="cls-35">
              <text class="cls-36" transform="translate(432 705.1)"><tspan x="0" y="0" xml:space="preserve">Moscow  </tspan></text>
            </g>
            <g class="cls-35">
              <text class="cls-36" transform="translate(432 728.1)"><tspan x="0" y="0" xml:space="preserve">Montreal  </tspan></text>
            </g>
            <g class="cls-35">
              <text class="cls-36" transform="translate(432 748.1)"><tspan x="0" y="0" xml:space="preserve">Montpellier  </tspan></text>
            </g>
            <g class="cls-35">
              <text class="cls-36" transform="translate(432 768.1)"><tspan x="0" y="0" xml:space="preserve">Miami  </tspan></text>
            </g>
            <g class="cls-35">
              <text class="cls-36" transform="translate(432 791.1)"><tspan x="0" y="0" xml:space="preserve">Melbourne  </tspan></text>
            </g>
            <g class="cls-35">
              <text class="cls-36" transform="translate(432 814.1)"><tspan x="0" y="0" xml:space="preserve">Medellin  </tspan></text>
            </g>
            <g class="cls-35">
              <text class="cls-36" transform="translate(432 834.1)"><tspan x="0" y="0" xml:space="preserve">Manila  </tspan></text>
            </g>
            <g class="cls-35">
              <text class="cls-36" transform="translate(432 854.1)"><tspan x="0" y="0" xml:space="preserve">Malaga  </tspan></text>
            </g>
            <g class="cls-35">
              <text class="cls-36" transform="translate(432 874.1)"><tspan x="0" y="0" xml:space="preserve">Chiang Mai  </tspan></text>
            </g>
            <g class="cls-35">
              <text class="cls-36" transform="translate(432 897.1)"><tspan x="0" y="0" xml:space="preserve">Madrid  </tspan></text>
            </g>
            <g class="cls-35">
              <text class="cls-36" transform="translate(432 917.1)"><tspan x="0" y="0" xml:space="preserve">Lviv  </tspan></text>
            </g>
            <g class="cls-35">
              <text class="cls-36" transform="translate(432 940.1)"><tspan x="0" y="0" xml:space="preserve">Kuala Lumpur  </tspan></text>
            </g>
            <g class="cls-35">
              <text class="cls-36" transform="translate(432 960.1)"><tspan x="0" y="0" xml:space="preserve">London  </tspan></text>
            </g>
            <g class="cls-35">
              <text class="cls-36" transform="translate(432 983.1)"><tspan x="0" y="0" xml:space="preserve">Ljubljana  </tspan></text>
            </g>
            <g class="cls-35">
              <text class="cls-36" transform="translate(432 1003.1)"><tspan x="0" y="0" xml:space="preserve">Lisbon  </tspan></text>
            </g>
            <g class="cls-35">
              <text class="cls-36" transform="translate(432 1023.1)"><tspan x="0" y="0" xml:space="preserve">Leipzig  </tspan></text>
            </g>
            <g class="cls-35">
              <text class="cls-36" transform="translate(432 1044.1)"><tspan x="0" y="0" xml:space="preserve">Kyoto  </tspan></text>
            </g>
            <g class="cls-35">
              <text class="cls-36" transform="translate(432 1065.1)"><tspan x="0" y="0" xml:space="preserve">Kyiv  </tspan></text>
            </g>
            <g class="cls-35">
              <text class="cls-36" transform="translate(432 1088.1)"><tspan x="0" y="0" xml:space="preserve">Krakow  </tspan></text>
            </g>
            <g class="cls-35">
              <text class="cls-36" transform="translate(432 1108.1)"><tspan x="0" y="0" xml:space="preserve">Hong Kong  </tspan></text>
            </g>
            <g class="cls-35">
              <text class="cls-36" transform="translate(432 1131.1)"><tspan x="0" y="0" xml:space="preserve">Kigali  </tspan></text>
            </g>
            <g class="cls-35">
              <text class="cls-36" transform="translate(432 1154.1)"><tspan x="0" y="0" xml:space="preserve">Kaohsiung  </tspan></text>
            </g>
            <g class="cls-35">
              <text class="cls-36" transform="translate(432.7 1175.1)"><tspan x="0" y="0" xml:space="preserve">Khon Kaen  </tspan></text>
            </g>
            <g class="cls-35">
              <text class="cls-36" transform="translate(432 1196.8)"><tspan x="0" y="0" xml:space="preserve">Jerusalem  </tspan></text>
            </g>
            <g class="cls-35">
              <text class="cls-36" transform="translate(432 1218.1)"><tspan x="0" y="0" xml:space="preserve">Jakarta  </tspan></text>
            </g>
            <g class="cls-35">
              <text class="cls-36" transform="translate(432 1238.1)"><tspan x="0" y="0" xml:space="preserve">Istanbul  </tspan></text>
            </g>
            <g class="cls-35">
              <text class="cls-36" transform="translate(432 1258.6)"><tspan x="0" y="0" xml:space="preserve">Helsinki  </tspan></text>
            </g>
            <g class="cls-35">
              <text class="cls-36" transform="translate(432 1279.7)"><tspan x="0" y="0" xml:space="preserve">Hanoi  </tspan></text>
            </g>
            <g class="cls-35">
              <text class="cls-36" transform="translate(432 1299.1)"><tspan x="0" y="0" xml:space="preserve">HCMC  </tspan></text>
            </g>
            <g class="cls-35">
              <text class="cls-36" transform="translate(432 1318.3)"><tspan x="0" y="0" xml:space="preserve">Fukuoka  </tspan></text>
            </g>
            <g class="cls-35">
              <text class="cls-36" transform="translate(432 1340.3)"><tspan x="0" y="0" xml:space="preserve">San Francisco  </tspan></text>
            </g>
            <g class="cls-35">
              <text class="cls-36" transform="translate(432 1361.9)"><tspan x="0" y="0" xml:space="preserve">Dubai  </tspan></text>
            </g>
            <g class="cls-35">
              <text class="cls-36" transform="translate(432 1380.4)"><tspan x="0" y="0" xml:space="preserve">San Diego  </tspan></text>
            </g>
            <g class="cls-35">
              <text class="cls-36" transform="translate(432 1405.4)"><tspan x="0" y="0" xml:space="preserve">Detroit  </tspan></text>
            </g>
            <g class="cls-35">
              <text class="cls-36" transform="translate(432 1428.4)"><tspan x="0" y="0" xml:space="preserve">Denver  </tspan></text>
            </g>
            <g class="cls-35">
              <text class="cls-36" transform="translate(432 1450.4)"><tspan x="0" y="0" xml:space="preserve">New Delhi  </tspan></text>
            </g>
            <g class="cls-35">
              <text class="cls-36" transform="translate(432 1470.4)"><tspan x="0" y="0" xml:space="preserve">Dallas  </tspan></text>
            </g>
            <g class="cls-35">
              <text class="cls-36" transform="translate(432 1493.4)"><tspan x="0" y="0" xml:space="preserve">Copenhagen  </tspan></text>
            </g>
            <g class="cls-35">
              <text class="cls-36" transform="translate(432 1513.4)"><tspan x="0" y="0" xml:space="preserve">Columbus  </tspan></text>
            </g>
            <g class="cls-35">
              <text class="cls-36" transform="translate(432 1534.4)"><tspan x="0" y="0" xml:space="preserve">Cologne  </tspan></text>
            </g>
            <g class="cls-35">
              <text class="cls-36" transform="translate(432 1555.4)"><tspan x="0" y="0" xml:space="preserve">Cleveland  </tspan></text>
            </g>
            <g class="cls-35">
              <text class="cls-36" transform="translate(432 1578.4)"><tspan x="0" y="0" xml:space="preserve">New York City  </tspan></text>
            </g>
            <g class="cls-35">
              <text class="cls-36" transform="translate(432 1599.4)"><tspan x="0" y="0" xml:space="preserve">Cambodia  </tspan></text>
            </g>
            <g class="cls-35">
              <text class="cls-36" transform="translate(432 1620.4)"><tspan x="0" y="0" xml:space="preserve">Budapest  </tspan></text>
            </g>
            <g class="cls-35">
              <text class="cls-36" transform="translate(432 1640.4)"><tspan x="0" y="0" xml:space="preserve">Bucharest  </tspan></text>
            </g>
            <g class="cls-35">
              <text class="cls-36" transform="translate(432 1661.4)"><tspan x="0" y="0" xml:space="preserve">Bratislava  </tspan></text>
            </g>
            <g class="cls-35">
              <text class="cls-36" transform="translate(432 1682.4)"><tspan x="0" y="0" xml:space="preserve">Berlin  </tspan></text>
            </g>
            <g class="cls-35">
              <text class="cls-36" transform="translate(432 1705.4)"><tspan x="0" y="0" xml:space="preserve">Belgrade  </tspan></text>
            </g>
            <g class="cls-35">
              <text class="cls-36" transform="translate(432 1726.4)"><tspan x="0" y="0" xml:space="preserve">Barcelona  </tspan></text>
            </g>
            <g class="cls-35">
              <text class="cls-36" transform="translate(432 1745.4)"><tspan x="0" y="0" xml:space="preserve">Bangkok  </tspan></text>
            </g>
            <g class="cls-35">
              <text class="cls-36" transform="translate(432 1765.4)"><tspan x="0" y="0" xml:space="preserve">Bali  </tspan></text>
            </g>
            <g class="cls-35">
              <text class="cls-36" transform="translate(432 1789.4)"><tspan x="0" y="0" xml:space="preserve">Tel Aviv  </tspan></text>
            </g>
            <g class="cls-35">
              <text class="cls-36" transform="translate(432 1810.3)"><tspan x="0" y="0" xml:space="preserve">Athens  </tspan></text>
            </g>
            <g class="cls-35">
              <text class="cls-36" transform="translate(432 1831.8)"><tspan x="0" y="0" xml:space="preserve">Asheville  </tspan></text>
            </g>
            <g class="cls-35">
              <text class="cls-36" transform="translate(432 1853.4)"><tspan x="0" y="0" xml:space="preserve">Ankara  </tspan></text>
            </g>
            <g class="cls-35">
              <text class="cls-36" transform="translate(432 1875.4)"><tspan x="0" y="0" xml:space="preserve">Los Angeles  </tspan></text>
            </g>
            <g class="cls-35">
              <text class="cls-36" transform="translate(432 1897.4)"><tspan x="0" y="0" xml:space="preserve">Hoi An  </tspan></text>
            </g>
            <g class="cls-35">
              <text class="cls-36" transform="translate(432 1917.9)"><tspan x="0" y="0" xml:space="preserve">Amsterdam  </tspan></text>
            </g>
          </g>
        </g>
      </g>
    </g>
  </g>
</svg>