<?xml version="1.0" encoding="UTF-8"?>
<svg xmlns="http://www.w3.org/2000/svg" xmlns:xlink="http://www.w3.org/1999/xlink" version="1.1" viewBox="0 0 720 432">
  <defs>
    <style>
      .cls-1, .cls-2 {
        fill: none;
      }

      .cls-3 {
        fill: #b39ddb;
      }

      .cls-4 {
        fill: #80cbc4;
      }

      .cls-5 {
        fill: #90caf9;
      }

      .cls-6 {
        fill: #ef9a9a;
      }

      .cls-7 {
        fill: #ccc;
      }

      .cls-8 {
        fill: #aed581;
      }

      .cls-9 {
        clip-path: url(#clippath-1);
      }

      .cls-10 {
        clip-path: url(#clippath-3);
      }

      .cls-11 {
        clip-path: url(#clippath-4);
      }

      .cls-12 {
        clip-path: url(#clippath-2);
      }

      .cls-13 {
        clip-path: url(#clippath-7);
      }

      .cls-14 {
        clip-path: url(#clippath-6);
      }

      .cls-15 {
        clip-path: url(#clippath-8);
      }

      .cls-16 {
        clip-path: url(#clippath-5);
      }

      .cls-17 {
        fill: #fff;
      }

      .cls-18 {
        fill: #ffcc80;
      }

      .cls-19 {
        fill: #f8bbd0;
      }

      .cls-20 {
        stroke-linejoin: round;
      }

      .cls-20, .cls-2 {
        stroke: #000;
        stroke-width: .8px;
      }

      .cls-2 {
        stroke-linecap: square;
      }

      .cls-21 {
        fill: #cccc6a;
      }

      .cls-22 {
        clip-path: url(#clippath);
      }
    </style>
    <clipPath id="clippath">
      <rect class="cls-1" x="112.8" y="26.9" width="587" height="362.8"/>
    </clipPath>
    <clipPath id="clippath-1">
      <rect class="cls-1" x="112.8" y="26.9" width="587" height="362.8"/>
    </clipPath>
    <clipPath id="clippath-2">
      <rect class="cls-1" x="112.8" y="26.9" width="587" height="362.8"/>
    </clipPath>
    <clipPath id="clippath-3">
      <rect class="cls-1" x="112.8" y="26.9" width="587" height="362.8"/>
    </clipPath>
    <clipPath id="clippath-4">
      <rect class="cls-1" x="112.8" y="26.9" width="587" height="362.8"/>
    </clipPath>
    <clipPath id="clippath-5">
      <rect class="cls-1" x="112.8" y="26.9" width="587" height="362.8"/>
    </clipPath>
    <clipPath id="clippath-6">
      <rect class="cls-1" x="112.8" y="26.9" width="587" height="362.8"/>
    </clipPath>
    <clipPath id="clippath-7">
      <rect class="cls-1" x="112.8" y="26.9" width="587" height="362.8"/>
    </clipPath>
    <clipPath id="clippath-8">
      <rect class="cls-1" x="112.8" y="26.9" width="587" height="362.8"/>
    </clipPath>
  </defs>
  <!-- Generator: Adobe Illustrator 28.7.7, SVG Export Plug-In . SVG Version: 1.2.0 Build 194)  -->
  <g>
    <g id="Layer_1">
      <path class="cls-17" d="M112.8,389.7h587V26.9H112.8v362.8Z"/>
      <g class="cls-22">
        <path class="cls-21" d="M112.8,373.2h46.4v-30h-46.4v30Z"/>
      </g>
      <g class="cls-9">
        <path class="cls-7" d="M112.8,335.7h63v-30h-63v30Z"/>
      </g>
      <g class="cls-12">
        <path class="cls-8" d="M112.8,298.2h86.2v-30h-86.2v30Z"/>
      </g>
      <g class="cls-10">
        <path class="cls-5" d="M112.8,260.8h129.3v-30H112.8v30Z"/>
      </g>
      <g class="cls-11">
        <path class="cls-19" d="M112.8,223.3h129.3v-30H112.8v30Z"/>
      </g>
      <g class="cls-16">
        <path class="cls-3" d="M112.8,185.8h172.4v-30H112.8v30Z"/>
      </g>
      <g class="cls-14">
        <path class="cls-4" d="M112.8,148.3h175.8v-30H112.8v30Z"/>
      </g>
      <g class="cls-13">
        <path class="cls-6" d="M112.8,110.8h175.8v-30H112.8v30Z"/>
      </g>
      <g class="cls-15">
        <path class="cls-18" d="M112.8,73.4h238.8v-30H112.8v30Z"/>
      </g>
      <path id="m572f3e7cdf" class="cls-20" d="M112.8,389.7v3.5"/>
      <path id="DejaVuSans-30" d="M112.7,397.6c-.5,0-.9.3-1.1.8-.3.5-.4,1.3-.4,2.3s.1,1.7.4,2.2c.3.5.6.8,1.1.8s.9-.3,1.2-.8c.3-.5.4-1.2.4-2.2s-.1-1.8-.4-2.3c-.3-.5-.6-.8-1.2-.8ZM112.7,396.9c.8,0,1.4.3,1.9,1,.4.6.6,1.6.6,2.8s-.2,2.2-.6,2.8c-.4.6-1.1,1-1.9,1s-1.4-.3-1.9-1c-.4-.6-.6-1.6-.6-2.8s.2-2.2.6-2.8c.4-.6,1.1-1,1.9-1Z"/>
      <path id="m572f3e7cdf-2" data-name="m572f3e7cdf" class="cls-20" d="M230.1,389.7v3.5"/>
      <path id="DejaVuSans-32" d="M225.7,403.4h3.4v.8h-4.6v-.8c.4-.4.9-.9,1.5-1.6.6-.7,1.1-1.1,1.2-1.3.3-.4.5-.7.7-.9.1-.2.2-.5.2-.7,0-.4-.1-.7-.4-.9-.3-.2-.6-.4-1.1-.4s-.6,0-1,.2c-.3.1-.7.3-1.1.5v-1c.4-.2.8-.3,1.1-.4.3,0,.7-.1.9-.1.8,0,1.4.2,1.8.6.4.4.7.9.7,1.5s0,.6-.2.9c-.1.3-.3.6-.6.9,0,0-.3.4-.8.8-.4.5-1.1,1.1-1.8,1.9Z"/>
      <path id="DejaVuSans-30-2" data-name="DejaVuSans-30" d="M233.3,397.6c-.5,0-.9.3-1.1.8-.3.5-.4,1.3-.4,2.3s.1,1.7.4,2.2c.3.5.6.8,1.1.8s.9-.3,1.2-.8c.3-.5.4-1.2.4-2.2s-.1-1.8-.4-2.3c-.3-.5-.6-.8-1.2-.8ZM233.3,396.9c.8,0,1.4.3,1.9,1,.4.6.6,1.6.6,2.8s-.2,2.2-.6,2.8c-.4.6-1.1,1-1.9,1s-1.4-.3-1.9-1c-.4-.6-.6-1.6-.6-2.8s.2-2.2.6-2.8c.4-.6,1.1-1,1.9-1Z"/>
      <path id="m572f3e7cdf-3" data-name="m572f3e7cdf" class="cls-20" d="M347.5,389.7v3.5"/>
      <path id="DejaVuSans-34" d="M344.9,397.8l-2.5,3.9h2.5v-3.9ZM344.7,397h1.2v4.8h1v.8h-1v1.7h-1v-1.7h-3.3v-1l3-4.6Z"/>
      <path id="DejaVuSans-30-3" data-name="DejaVuSans-30" d="M350.7,397.6c-.5,0-.9.3-1.1.8-.3.5-.4,1.3-.4,2.3s.1,1.7.4,2.2c.3.5.6.8,1.1.8s.9-.3,1.2-.8c.3-.5.4-1.2.4-2.2s-.1-1.8-.4-2.3c-.3-.5-.6-.8-1.2-.8ZM350.7,396.9c.8,0,1.4.3,1.9,1,.4.6.6,1.6.6,2.8s-.2,2.2-.6,2.8c-.4.6-1.1,1-1.9,1s-1.4-.3-1.9-1c-.4-.6-.6-1.6-.6-2.8s.2-2.2.6-2.8c.4-.6,1.1-1,1.9-1Z"/>
      <path id="m572f3e7cdf-4" data-name="m572f3e7cdf" class="cls-20" d="M464.9,389.7v3.5"/>
      <path id="DejaVuSans-36" d="M461.9,400.2c-.4,0-.8.2-1.1.5-.3.3-.4.7-.4,1.2s.1.9.4,1.2c.3.3.6.5,1.1.5s.8-.2,1.1-.5c.3-.3.4-.7.4-1.2s-.1-.9-.4-1.2c-.3-.3-.6-.5-1.1-.5ZM463.8,397.1v.9c-.2-.1-.5-.2-.8-.3-.3,0-.5,0-.8,0-.7,0-1.1.2-1.5.7-.3.4-.5,1.1-.6,2,.2-.3.4-.5.7-.7.3-.2.6-.2,1-.2.7,0,1.3.2,1.7.7.4.4.6,1,.6,1.8s-.2,1.4-.7,1.8c-.4.5-1,.7-1.8.7s-1.5-.3-1.9-1c-.4-.6-.7-1.6-.7-2.8s.3-2.1.8-2.8c.5-.7,1.3-1,2.2-1s.5,0,.8,0,.5.1.8.2Z"/>
      <path id="DejaVuSans-30-4" data-name="DejaVuSans-30" d="M468.1,397.6c-.5,0-.9.3-1.1.8-.3.5-.4,1.3-.4,2.3s.1,1.7.4,2.2c.3.5.6.8,1.1.8s.9-.3,1.2-.8c.3-.5.4-1.2.4-2.2s-.1-1.8-.4-2.3c-.3-.5-.6-.8-1.2-.8ZM468.1,396.9c.8,0,1.4.3,1.9,1,.4.6.6,1.6.6,2.8s-.2,2.2-.6,2.8c-.4.6-1.1,1-1.9,1s-1.4-.3-1.9-1c-.4-.6-.6-1.6-.6-2.8s.2-2.2.6-2.8c.4-.6,1.1-1,1.9-1Z"/>
      <path id="m572f3e7cdf-5" data-name="m572f3e7cdf" class="cls-20" d="M582.3,389.7v3.5"/>
      <path id="DejaVuSans-38" d="M579.1,400.8c-.5,0-.8.1-1.1.4-.3.3-.4.6-.4,1s.1.8.4,1c.3.3.6.4,1.1.4s.8-.1,1.1-.4c.3-.3.4-.6.4-1s-.1-.8-.4-1c-.3-.3-.6-.4-1.1-.4ZM578.1,400.4c-.4-.1-.8-.3-1-.6-.2-.3-.4-.6-.4-1.1s.2-1,.6-1.4c.4-.3,1-.5,1.7-.5s1.3.2,1.7.5.6.8.6,1.4-.1.8-.4,1.1c-.2.3-.6.5-1,.6.5.1.8.3,1.1.7.3.3.4.7.4,1.2,0,.7-.2,1.3-.6,1.6-.4.4-1,.6-1.9.6s-1.4-.2-1.9-.6c-.4-.4-.6-.9-.6-1.6s.1-.9.4-1.2c.3-.3.6-.5,1.1-.7ZM577.8,398.8c0,.4.1.7.4.9.2.2.6.3,1,.3s.8-.1,1-.3c.2-.2.4-.5.4-.9s-.1-.7-.4-.9c-.2-.2-.6-.3-1-.3s-.8.1-1,.3c-.2.2-.4.5-.4.9Z"/>
      <path id="DejaVuSans-30-5" data-name="DejaVuSans-30" d="M585.5,397.6c-.5,0-.9.3-1.1.8-.3.5-.4,1.3-.4,2.3s.1,1.7.4,2.2c.3.5.6.8,1.1.8s.9-.3,1.2-.8c.3-.5.4-1.2.4-2.2s-.1-1.8-.4-2.3c-.3-.5-.6-.8-1.2-.8ZM585.5,396.9c.8,0,1.4.3,1.9,1,.4.6.6,1.6.6,2.8s-.2,2.2-.6,2.8c-.4.6-1.1,1-1.9,1s-1.4-.3-1.9-1c-.4-.6-.6-1.6-.6-2.8s.2-2.2.6-2.8c.4-.6,1.1-1,1.9-1Z"/>
      <path id="m572f3e7cdf-6" data-name="m572f3e7cdf" class="cls-20" d="M699.7,389.7v3.5"/>
      <path id="DejaVuSans-31" d="M691.4,403.4h1.6v-5.6l-1.8.4v-.9l1.7-.4h1v6.5h1.6v.8h-4.2v-.8Z"/>
      <path id="DejaVuSans-30-6" data-name="DejaVuSans-30" d="M699.7,397.6c-.5,0-.9.3-1.1.8-.3.5-.4,1.3-.4,2.3s.1,1.7.4,2.2c.3.5.6.8,1.1.8s.9-.3,1.2-.8c.3-.5.4-1.2.4-2.2s-.1-1.8-.4-2.3c-.3-.5-.6-.8-1.2-.8ZM699.7,396.9c.8,0,1.4.3,1.9,1,.4.6.6,1.6.6,2.8s-.2,2.2-.6,2.8c-.4.6-1.1,1-1.9,1s-1.4-.3-1.9-1c-.4-.6-.6-1.6-.6-2.8s.2-2.2.6-2.8c.4-.6,1.1-1,1.9-1Z"/>
      <path id="DejaVuSans-30-7" data-name="DejaVuSans-30" d="M706.1,397.6c-.5,0-.9.3-1.1.8-.3.5-.4,1.3-.4,2.3s.1,1.7.4,2.2c.3.5.6.8,1.1.8s.9-.3,1.2-.8c.3-.5.4-1.2.4-2.2s-.1-1.8-.4-2.3c-.3-.5-.6-.8-1.2-.8ZM706.1,396.9c.8,0,1.4.3,1.9,1,.4.6.6,1.6.6,2.8s-.2,2.2-.6,2.8c-.4.6-1.1,1-1.9,1s-1.4-.3-1.9-1c-.4-.6-.6-1.6-.6-2.8s.2-2.2.6-2.8c.4-.6,1.1-1,1.9-1Z"/>
      <path id="DejaVuSans-50" d="M347.8,411.9v2.7h1.2c.5,0,.8-.1,1.1-.4.3-.2.4-.6.4-1s-.1-.8-.4-1c-.3-.2-.6-.4-1.1-.4h-1.2ZM346.9,411.1h2.2c.8,0,1.4.2,1.9.6.4.4.6.9.6,1.6s-.2,1.3-.6,1.6c-.4.4-1,.6-1.9.6h-1.2v2.9h-1v-7.3Z"/>
      <path id="DejaVuSans-65" d="M357.2,415.4v.4h-4.1c0,.6.2,1.1.6,1.4.3.3.8.5,1.4.5s.7,0,1-.1.6-.2,1-.4v.9c-.3.1-.7.2-1,.3s-.7.1-1,.1c-.9,0-1.6-.3-2.1-.8-.5-.5-.8-1.2-.8-2.1s.2-1.6.7-2.1c.5-.5,1.1-.8,2-.8s1.3.2,1.7.7c.4.5.6,1.1.6,1.9ZM356.3,415.1c0-.5-.1-.9-.4-1.2-.3-.3-.6-.4-1.1-.4s-.9.1-1.2.4-.5.7-.5,1.2h3.2Z"/>
      <path id="DejaVuSans-72" d="M361.8,413.7c-.1,0-.2-.1-.3-.1-.1,0-.2,0-.4,0-.5,0-.9.2-1.2.5s-.4.8-.4,1.4v2.9h-.9v-5.5h.9v.9c.2-.3.4-.6.7-.7.3-.2.7-.2,1.1-.2s.1,0,.2,0c0,0,.2,0,.2,0v.9Z"/>
      <path id="DejaVuSans-63" d="M366.5,413.1v.8c-.3-.1-.5-.2-.8-.3s-.5-.1-.8-.1c-.6,0-1,.2-1.4.6-.3.4-.5.9-.5,1.6s.2,1.2.5,1.6c.3.4.8.6,1.4.6s.5,0,.8-.1.5-.2.8-.3v.8c-.3.1-.5.2-.8.3-.3,0-.6,0-.9,0-.8,0-1.5-.3-2-.8-.5-.5-.7-1.2-.7-2.1s.2-1.6.7-2.1c.5-.5,1.2-.8,2-.8s.5,0,.8,0c.3,0,.5.1.8.3Z"/>
      <path id="DejaVuSans-65-2" data-name="DejaVuSans-65" d="M372.7,415.4v.4h-4.1c0,.6.2,1.1.6,1.4.3.3.8.5,1.4.5s.7,0,1-.1.6-.2,1-.4v.9c-.3.1-.7.2-1,.3s-.7.1-1,.1c-.9,0-1.6-.3-2.1-.8-.5-.5-.8-1.2-.8-2.1s.2-1.6.7-2.1c.5-.5,1.1-.8,2-.8s1.3.2,1.7.7c.4.5.6,1.1.6,1.9ZM371.8,415.1c0-.5-.1-.9-.4-1.2-.3-.3-.6-.4-1.1-.4s-.9.1-1.2.4-.5.7-.5,1.2h3.2Z"/>
      <path id="DejaVuSans-6e" d="M378.7,415.1v3.3h-.9v-3.3c0-.5-.1-.9-.3-1.2-.2-.3-.5-.4-.9-.4s-.9.2-1.1.5c-.3.3-.4.7-.4,1.3v3.1h-.9v-5.5h.9v.9c.2-.3.5-.6.8-.7.3-.2.6-.2,1-.2.6,0,1.1.2,1.4.6.3.4.5,1,.5,1.7Z"/>
      <path id="DejaVuSans-74" d="M381.4,411.3v1.6h1.9v.7h-1.9v3c0,.4,0,.7.2.9s.4.2.7.2h.9v.8h-.9c-.7,0-1.2-.1-1.4-.4-.3-.3-.4-.7-.4-1.4v-3h-.7v-.7h.7v-1.6h.9Z"/>
      <path id="DejaVuSans-61" d="M386.9,415.6c-.7,0-1.2,0-1.5.2s-.4.4-.4.9.1.6.3.8c.2.2.5.3.9.3s.9-.2,1.2-.5.5-.8.5-1.4v-.2h-.9ZM388.7,415.2v3.1h-.9v-.8c-.2.3-.5.6-.8.7-.3.2-.7.2-1.1.2s-1-.2-1.3-.5c-.3-.3-.5-.7-.5-1.3s.2-1.1.6-1.4c.4-.3,1-.5,1.8-.5h1.3c0-.5-.1-.8-.4-1s-.7-.3-1.1-.3-.6,0-.9.1c-.3,0-.6.2-.9.3v-.8c.3-.1.6-.2,1-.3.3,0,.6,0,.9,0,.8,0,1.4.2,1.8.6.4.4.6,1,.6,1.9Z"/>
      <path id="DejaVuSans-67" d="M394.2,415.6c0-.7-.1-1.2-.4-1.5-.3-.4-.6-.5-1.1-.5s-.9.2-1.1.5c-.3.4-.4.9-.4,1.5s.1,1.2.4,1.5c.3.4.6.5,1.1.5s.9-.2,1.1-.5c.3-.4.4-.9.4-1.5ZM395.1,417.7c0,.9-.2,1.6-.6,2.1-.4.5-1,.7-1.9.7s-.6,0-.9,0-.6-.1-.8-.2v-.9c.3.1.5.2.8.3.3,0,.5.1.8.1.6,0,1-.2,1.3-.5.3-.3.4-.8.4-1.4v-.4c-.2.3-.4.6-.7.7s-.6.2-1,.2c-.7,0-1.2-.3-1.6-.8-.4-.5-.6-1.2-.6-2s.2-1.5.6-2c.4-.5,1-.8,1.6-.8s.8,0,1,.2.5.4.7.7v-.8h.9v4.8Z"/>
      <path id="DejaVuSans-65-3" data-name="DejaVuSans-65" d="M401.6,415.4v.4h-4.1c0,.6.2,1.1.6,1.4.3.3.8.5,1.4.5s.7,0,1-.1.6-.2,1-.4v.9c-.3.1-.7.2-1,.3s-.7.1-1,.1c-.9,0-1.6-.3-2.1-.8-.5-.5-.8-1.2-.8-2.1s.2-1.6.7-2.1c.5-.5,1.1-.8,2-.8s1.3.2,1.7.7c.4.5.6,1.1.6,1.9ZM400.7,415.1c0-.5-.1-.9-.4-1.2-.3-.3-.6-.4-1.1-.4s-.9.1-1.2.4-.5.7-.5,1.2h3.2Z"/>
      <path id="DejaVuSans-20" d="M402.1,418.4"/>
      <path id="DejaVuSans-6f" d="M408.4,413.5c-.5,0-.9.2-1.1.6s-.4.9-.4,1.5.1,1.2.4,1.5c.3.4.7.6,1.1.6s.9-.2,1.1-.6c.3-.4.4-.9.4-1.5s-.1-1.2-.4-1.5c-.3-.4-.7-.6-1.1-.6ZM408.4,412.8c.8,0,1.4.3,1.8.8.4.5.7,1.2.7,2.1s-.2,1.6-.7,2.1c-.4.5-1.1.8-1.8.8s-1.4-.3-1.8-.8c-.4-.5-.7-1.2-.7-2.1s.2-1.6.7-2.1c.4-.5,1.1-.8,1.8-.8Z"/>
      <path id="DejaVuSans-66" d="M415.1,410.8v.7h-.9c-.3,0-.5,0-.7.2-.1.1-.2.4-.2.7v.5h1.5v.7h-1.5v4.8h-.9v-4.8h-.9v-.7h.9v-.4c0-.6.1-1.1.4-1.3.3-.3.7-.4,1.3-.4h.9Z"/>
      <path id="DejaVuSans-20-2" data-name="DejaVuSans-20" d="M414.9,418.4"/>
      <path id="DejaVuSans-43" d="M424.5,411.6v1c-.3-.3-.7-.5-1.1-.7-.4-.2-.8-.2-1.2-.2-.8,0-1.5.3-1.9.8s-.7,1.2-.7,2.2.2,1.7.7,2.2,1.1.8,1.9.8.8,0,1.2-.2.7-.4,1.1-.7v1c-.3.2-.7.4-1.1.5-.4.1-.8.2-1.2.2-1.1,0-2-.3-2.6-1-.6-.7-1-1.6-1-2.8s.3-2.1,1-2.8c.6-.7,1.5-1,2.6-1s.8,0,1.2.2c.4.1.7.3,1.1.5Z"/>
      <path id="DejaVuSans-61-2" data-name="DejaVuSans-61" d="M428.5,415.6c-.7,0-1.2,0-1.5.2s-.4.4-.4.9.1.6.3.8c.2.2.5.3.9.3s.9-.2,1.2-.5.5-.8.5-1.4v-.2h-.9ZM430.3,415.2v3.1h-.9v-.8c-.2.3-.5.6-.8.7-.3.2-.7.2-1.1.2s-1-.2-1.3-.5c-.3-.3-.5-.7-.5-1.3s.2-1.1.6-1.4c.4-.3,1-.5,1.8-.5h1.3c0-.5-.1-.8-.4-1s-.7-.3-1.1-.3-.6,0-.9.1c-.3,0-.6.2-.9.3v-.8c.3-.1.6-.2,1-.3.3,0,.6,0,.9,0,.8,0,1.4.2,1.8.6.4.4.6,1,.6,1.9Z"/>
      <path id="DejaVuSans-66-2" data-name="DejaVuSans-66" d="M434.9,410.8v.7h-.9c-.3,0-.5,0-.7.2-.1.1-.2.4-.2.7v.5h1.5v.7h-1.5v4.8h-.9v-4.8h-.9v-.7h.9v-.4c0-.6.1-1.1.4-1.3.3-.3.7-.4,1.3-.4h.9Z"/>
      <path id="DejaVuSans-e9" d="M440.4,415.4v.4h-4.1c0,.6.2,1.1.6,1.4.3.3.8.5,1.4.5s.7,0,1-.1.6-.2,1-.4v.9c-.3.1-.7.2-1,.3s-.7.1-1,.1c-.9,0-1.6-.3-2.1-.8-.5-.5-.8-1.2-.8-2.1s.2-1.6.7-2.1c.5-.5,1.1-.8,2-.8s1.3.2,1.7.7c.4.5.6,1.1.6,1.9ZM439.5,415.1c0-.5-.1-.9-.4-1.2-.3-.3-.6-.4-1.1-.4s-.9.1-1.2.4-.5.7-.5,1.2h3.2ZM438.6,410.4h1l-1.6,1.8h-.7l1.4-1.8Z"/>
      <path id="DejaVuSans-73" d="M445.3,413v.9c-.3-.1-.5-.2-.8-.3-.3,0-.6,0-.9,0-.4,0-.8,0-1,.2-.2.1-.3.3-.3.6s0,.4.2.5.5.2,1,.3h.3c.6.2,1.1.4,1.4.6s.4.6.4,1-.2.9-.6,1.2c-.4.3-1,.4-1.7.4s-.6,0-.9,0c-.3,0-.7-.1-1-.3v-.9c.3.2.7.3,1,.4.3,0,.6.1,1,.1s.7,0,1-.2c.2-.1.3-.3.3-.6s0-.4-.2-.6c-.2-.1-.5-.3-1.1-.4h-.3c-.6-.2-1-.4-1.2-.6-.2-.2-.4-.6-.4-1s.2-.9.5-1.2c.4-.3.9-.4,1.6-.4s.6,0,.9,0c.3,0,.6.1.8.2Z"/>
      <path id="DejaVuSans-20-3" data-name="DejaVuSans-20" d="M446.1,418.4"/>
      <path id="DejaVuSans-28" d="M452.4,410.8c-.4.7-.8,1.5-1,2.2-.2.7-.3,1.5-.3,2.2s.1,1.5.3,2.2.5,1.5,1,2.2h-.8c-.5-.8-.9-1.5-1.1-2.3-.2-.7-.4-1.5-.4-2.2s.1-1.5.4-2.2c.2-.7.6-1.5,1.1-2.3h.8Z"/>
      <path id="DejaVuSans-25" d="M460.5,415.1c-.3,0-.5.1-.7.4-.2.2-.2.6-.2,1s0,.8.2,1c.2.2.4.4.7.4s.5-.1.7-.4c.2-.2.2-.6.2-1s0-.8-.2-1c-.2-.2-.4-.4-.7-.4ZM460.5,414.5c.5,0,.9.2,1.2.5.3.4.5.8.5,1.5s-.2,1.1-.5,1.4c-.3.4-.7.5-1.2.5s-.9-.2-1.2-.5c-.3-.4-.5-.8-.5-1.4s.2-1.1.5-1.5.7-.5,1.2-.5ZM455.4,411.6c-.3,0-.5.1-.7.4-.2.2-.2.6-.2,1s0,.8.2,1c.2.2.4.4.7.4s.5-.1.7-.4c.2-.2.2-.6.2-1s0-.8-.2-1c-.2-.2-.4-.4-.7-.4ZM459.8,410.9h.8l-4.6,7.6h-.8l4.6-7.6ZM455.4,410.9c.5,0,.9.2,1.2.5.3.4.5.8.5,1.4s-.2,1.1-.5,1.5c-.3.4-.7.5-1.2.5s-.9-.2-1.2-.5c-.3-.4-.5-.8-.5-1.5s.2-1.1.5-1.4c.3-.4.7-.5,1.2-.5Z"/>
      <path id="DejaVuSans-29" d="M463.5,410.8h.8c.5.8.9,1.5,1.1,2.3.2.7.4,1.5.4,2.2s-.1,1.5-.4,2.2c-.2.7-.6,1.5-1.1,2.3h-.8c.4-.7.8-1.5,1-2.2.2-.7.3-1.5.3-2.2s-.1-1.5-.3-2.2c-.2-.7-.5-1.5-1-2.2Z"/>
      <path id="ma8635032fd" class="cls-20" d="M112.8,358.2h-3.5"/>
      <path id="DejaVuSans-76" d="M32.2,356.5h1l1.7,4.6,1.7-4.6h1l-2.1,5.5h-1.2l-2.1-5.5Z"/>
      <path id="DejaVuSans-65-4" data-name="DejaVuSans-65" d="M43.5,359v.4h-4.1c0,.6.2,1.1.6,1.4.3.3.8.5,1.4.5s.7,0,1-.1.6-.2,1-.4v.9c-.3.1-.7.2-1,.3s-.7.1-1,.1c-.9,0-1.6-.3-2.1-.8-.5-.5-.8-1.2-.8-2.1s.2-1.6.7-2.1c.5-.5,1.1-.8,2-.8s1.3.2,1.7.7c.4.5.6,1.1.6,1.9ZM42.6,358.8c0-.5-.1-.9-.4-1.2-.3-.3-.6-.4-1.1-.4s-.9.1-1.2.4-.5.7-.5,1.2h3.2Z"/>
      <path id="DejaVuSans-67-2" data-name="DejaVuSans-67" d="M48.5,359.2c0-.7-.1-1.2-.4-1.5-.3-.4-.6-.5-1.1-.5s-.9.2-1.1.5c-.3.4-.4.9-.4,1.5s.1,1.2.4,1.5c.3.4.6.5,1.1.5s.9-.2,1.1-.5c.3-.4.4-.9.4-1.5ZM49.4,361.3c0,.9-.2,1.6-.6,2.1-.4.5-1,.7-1.9.7s-.6,0-.9,0-.6-.1-.8-.2v-.9c.3.1.5.2.8.3.3,0,.5.1.8.1.6,0,1-.2,1.3-.5.3-.3.4-.8.4-1.4v-.4c-.2.3-.4.6-.7.7s-.6.2-1,.2c-.7,0-1.2-.3-1.6-.8-.4-.5-.6-1.2-.6-2s.2-1.5.6-2c.4-.5,1-.8,1.6-.8s.8,0,1,.2.5.4.7.7v-.8h.9v4.8Z"/>
      <path id="DejaVuSans-61-3" data-name="DejaVuSans-61" d="M53.8,359.2c-.7,0-1.2,0-1.5.2s-.4.4-.4.9.1.6.3.8c.2.2.5.3.9.3s.9-.2,1.2-.5.5-.8.5-1.4v-.2h-.9ZM55.6,358.9v3.1h-.9v-.8c-.2.3-.5.6-.8.7-.3.2-.7.2-1.1.2s-1-.2-1.3-.5c-.3-.3-.5-.7-.5-1.3s.2-1.1.6-1.4c.4-.3,1-.5,1.8-.5h1.3c0-.5-.1-.8-.4-1s-.7-.3-1.1-.3-.6,0-.9.1c-.3,0-.6.2-.9.3v-.8c.3-.1.6-.2,1-.3.3,0,.6,0,.9,0,.8,0,1.4.2,1.8.6.4.4.6,1,.6,1.9Z"/>
      <path id="DejaVuSans-6e-2" data-name="DejaVuSans-6e" d="M62,358.7v3.3h-.9v-3.3c0-.5-.1-.9-.3-1.2-.2-.3-.5-.4-.9-.4s-.9.2-1.1.5c-.3.3-.4.7-.4,1.3v3.1h-.9v-5.5h.9v.9c.2-.3.5-.6.8-.7.3-.2.6-.2,1-.2.6,0,1.1.2,1.4.6.3.4.5,1,.5,1.7Z"/>
      <path id="DejaVuSans-5f" d="M67.9,363.7v.7h-5.2v-.7h5.2Z"/>
      <path id="DejaVuSans-66-3" data-name="DejaVuSans-66" d="M71.5,354.4v.7h-.9c-.3,0-.5,0-.7.2-.1.1-.2.4-.2.7v.5h1.5v.7h-1.5v4.8h-.9v-4.8h-.9v-.7h.9v-.4c0-.6.1-1.1.4-1.3.3-.3.7-.4,1.3-.4h.9Z"/>
      <path id="DejaVuSans-72-2" data-name="DejaVuSans-72" d="M75.4,357.4c-.1,0-.2-.1-.3-.1-.1,0-.2,0-.4,0-.5,0-.9.2-1.2.5s-.4.8-.4,1.4v2.9h-.9v-5.5h.9v.9c.2-.3.4-.6.7-.7.3-.2.7-.2,1.1-.2s.1,0,.2,0c0,0,.2,0,.2,0v.9Z"/>
      <path id="DejaVuSans-69" d="M76.4,356.5h.9v5.5h-.9v-5.5ZM76.4,354.4h.9v1.1h-.9v-1.1Z"/>
      <path id="DejaVuSans-65-5" data-name="DejaVuSans-65" d="M83.8,359v.4h-4.1c0,.6.2,1.1.6,1.4.3.3.8.5,1.4.5s.7,0,1-.1.6-.2,1-.4v.9c-.3.1-.7.2-1,.3s-.7.1-1,.1c-.9,0-1.6-.3-2.1-.8-.5-.5-.8-1.2-.8-2.1s.2-1.6.7-2.1c.5-.5,1.1-.8,2-.8s1.3.2,1.7.7c.4.5.6,1.1.6,1.9ZM82.9,358.8c0-.5-.1-.9-.4-1.2-.3-.3-.6-.4-1.1-.4s-.9.1-1.2.4-.5.7-.5,1.2h3.2Z"/>
      <path id="DejaVuSans-6e-3" data-name="DejaVuSans-6e" d="M89.9,358.7v3.3h-.9v-3.3c0-.5-.1-.9-.3-1.2-.2-.3-.5-.4-.9-.4s-.9.2-1.1.5c-.3.3-.4.7-.4,1.3v3.1h-.9v-5.5h.9v.9c.2-.3.5-.6.8-.7.3-.2.6-.2,1-.2.6,0,1.1.2,1.4.6.3.4.5,1,.5,1.7Z"/>
      <path id="DejaVuSans-64" d="M95.2,357.4v-3h.9v7.6h-.9v-.8c-.2.3-.4.6-.7.7-.3.2-.6.2-1,.2-.7,0-1.2-.3-1.6-.8-.4-.5-.6-1.2-.6-2.1s.2-1.6.6-2.1c.4-.5,1-.8,1.6-.8s.8,0,1,.2c.3.2.5.4.7.7ZM92.2,359.3c0,.7.1,1.2.4,1.6.3.4.6.6,1.1.6s.8-.2,1.1-.6c.3-.4.4-.9.4-1.6s-.1-1.2-.4-1.6c-.3-.4-.6-.6-1.1-.6s-.8.2-1.1.6-.4.9-.4,1.6Z"/>
      <path id="DejaVuSans-6c" d="M98,354.4h.9v7.6h-.9v-7.6Z"/>
      <path id="DejaVuSans-79" d="M103,362.5c-.3.7-.5,1.1-.7,1.3-.2.2-.6.3-1,.3h-.7v-.8h.5c.2,0,.4,0,.6-.2.1-.1.3-.4.5-.8l.2-.4-2.2-5.4h1l1.7,4.3,1.7-4.3h1l-2.4,6Z"/>
      <path id="ma8635032fd-2" data-name="ma8635032fd" class="cls-20" d="M112.8,320.7h-3.5"/>
      <path id="DejaVuSans-70" d="M48.2,323.7v2.9h-.9v-7.5h.9v.8c.2-.3.4-.6.7-.7.3-.2.6-.2,1-.2.7,0,1.2.3,1.6.8.4.5.6,1.2.6,2.1s-.2,1.6-.6,2.1c-.4.5-1,.8-1.6.8s-.7,0-1-.2c-.3-.2-.5-.4-.7-.7ZM51.3,321.8c0-.7-.1-1.2-.4-1.6s-.6-.6-1.1-.6-.9.2-1.1.6-.4.9-.4,1.6.1,1.2.4,1.6c.3.4.6.6,1.1.6s.8-.2,1.1-.6c.3-.4.4-.9.4-1.6Z"/>
      <path id="DejaVuSans-65-6" data-name="DejaVuSans-65" d="M58.4,321.6v.4h-4.1c0,.6.2,1.1.6,1.4.3.3.8.5,1.4.5s.7,0,1-.1.6-.2,1-.4v.9c-.3.1-.7.2-1,.3s-.7.1-1,.1c-.9,0-1.6-.3-2.1-.8-.5-.5-.8-1.2-.8-2.1s.2-1.6.7-2.1c.5-.5,1.1-.8,2-.8s1.3.2,1.7.7c.4.5.6,1.1.6,1.9ZM57.5,321.3c0-.5-.1-.9-.4-1.2-.3-.3-.6-.4-1.1-.4s-.9.1-1.2.4-.5.7-.5,1.2h3.2Z"/>
      <path id="DejaVuSans-74-2" data-name="DejaVuSans-74" d="M60.7,317.5v1.6h1.9v.7h-1.9v3c0,.4,0,.7.2.9s.4.2.7.2h.9v.8h-.9c-.7,0-1.2-.1-1.4-.4-.3-.3-.4-.7-.4-1.4v-3h-.7v-.7h.7v-1.6h.9Z"/>
      <path id="DejaVuSans-5f-2" data-name="DejaVuSans-5f" d="M67.9,326.2v.7h-5.2v-.7h5.2Z"/>
      <path id="DejaVuSans-66-4" data-name="DejaVuSans-66" d="M71.5,316.9v.7h-.9c-.3,0-.5,0-.7.2-.1.1-.2.4-.2.7v.5h1.5v.7h-1.5v4.8h-.9v-4.8h-.9v-.7h.9v-.4c0-.6.1-1.1.4-1.3.3-.3.7-.4,1.3-.4h.9Z"/>
      <path id="DejaVuSans-72-3" data-name="DejaVuSans-72" d="M75.4,319.9c-.1,0-.2-.1-.3-.1-.1,0-.2,0-.4,0-.5,0-.9.2-1.2.5s-.4.8-.4,1.4v2.9h-.9v-5.5h.9v.9c.2-.3.4-.6.7-.7.3-.2.7-.2,1.1-.2s.1,0,.2,0c0,0,.2,0,.2,0v.9Z"/>
      <path id="DejaVuSans-69-2" data-name="DejaVuSans-69" d="M76.4,319h.9v5.5h-.9v-5.5ZM76.4,316.9h.9v1.1h-.9v-1.1Z"/>
      <path id="DejaVuSans-65-7" data-name="DejaVuSans-65" d="M83.8,321.6v.4h-4.1c0,.6.2,1.1.6,1.4.3.3.8.5,1.4.5s.7,0,1-.1.6-.2,1-.4v.9c-.3.1-.7.2-1,.3s-.7.1-1,.1c-.9,0-1.6-.3-2.1-.8-.5-.5-.8-1.2-.8-2.1s.2-1.6.7-2.1c.5-.5,1.1-.8,2-.8s1.3.2,1.7.7c.4.5.6,1.1.6,1.9ZM82.9,321.3c0-.5-.1-.9-.4-1.2-.3-.3-.6-.4-1.1-.4s-.9.1-1.2.4-.5.7-.5,1.2h3.2Z"/>
      <path id="DejaVuSans-6e-4" data-name="DejaVuSans-6e" d="M89.9,321.2v3.3h-.9v-3.3c0-.5-.1-.9-.3-1.2-.2-.3-.5-.4-.9-.4s-.9.2-1.1.5c-.3.3-.4.7-.4,1.3v3.1h-.9v-5.5h.9v.9c.2-.3.5-.6.8-.7.3-.2.6-.2,1-.2.6,0,1.1.2,1.4.6.3.4.5,1,.5,1.7Z"/>
      <path id="DejaVuSans-64-2" data-name="DejaVuSans-64" d="M95.2,319.9v-3h.9v7.6h-.9v-.8c-.2.3-.4.6-.7.7-.3.2-.6.2-1,.2-.7,0-1.2-.3-1.6-.8-.4-.5-.6-1.2-.6-2.1s.2-1.6.6-2.1c.4-.5,1-.8,1.6-.8s.8,0,1,.2c.3.2.5.4.7.7ZM92.2,321.8c0,.7.1,1.2.4,1.6.3.4.6.6,1.1.6s.8-.2,1.1-.6c.3-.4.4-.9.4-1.6s-.1-1.2-.4-1.6c-.3-.4-.6-.6-1.1-.6s-.8.2-1.1.6-.4.9-.4,1.6Z"/>
      <path id="DejaVuSans-6c-2" data-name="DejaVuSans-6c" d="M98,316.9h.9v7.6h-.9v-7.6Z"/>
      <path id="DejaVuSans-79-2" data-name="DejaVuSans-79" d="M103,325c-.3.7-.5,1.1-.7,1.3-.2.2-.6.3-1,.3h-.7v-.8h.5c.2,0,.4,0,.6-.2.1-.1.3-.4.5-.8l.2-.4-2.2-5.4h1l1.7,4.3,1.7-4.3h1l-2.4,6Z"/>
      <path id="ma8635032fd-3" data-name="ma8635032fd" class="cls-20" d="M112.8,283.2h-3.5"/>
      <path id="DejaVuSans-68" d="M20.3,283.7v3.3h-.9v-3.3c0-.5-.1-.9-.3-1.2-.2-.3-.5-.4-.9-.4s-.9.2-1.1.5c-.3.3-.4.7-.4,1.3v3.1h-.9v-7.6h.9v3c.2-.3.5-.6.8-.7.3-.2.6-.2,1-.2.6,0,1.1.2,1.4.6.3.4.5,1,.5,1.7Z"/>
      <path id="DejaVuSans-6f-2" data-name="DejaVuSans-6f" d="M24.2,282.2c-.5,0-.9.2-1.1.6s-.4.9-.4,1.5.1,1.2.4,1.5c.3.4.7.6,1.1.6s.9-.2,1.1-.6c.3-.4.4-.9.4-1.5s-.1-1.2-.4-1.5c-.3-.4-.7-.6-1.1-.6ZM24.2,281.4c.8,0,1.4.3,1.8.8.4.5.7,1.2.7,2.1s-.2,1.6-.7,2.1c-.4.5-1.1.8-1.8.8s-1.4-.3-1.8-.8c-.4-.5-.7-1.2-.7-2.1s.2-1.6.7-2.1c.4-.5,1.1-.8,1.8-.8Z"/>
      <path id="DejaVuSans-6d" d="M32.4,282.6c.2-.4.5-.7.8-.9s.7-.3,1.1-.3,1,.2,1.3.6c.3.4.5,1,.5,1.7v3.3h-.9v-3.3c0-.5,0-.9-.3-1.2-.2-.3-.5-.4-.8-.4s-.8.2-1.1.5c-.3.3-.4.7-.4,1.3v3.1h-.9v-3.3c0-.5,0-.9-.3-1.2s-.5-.4-.9-.4-.8.2-1.1.5c-.3.3-.4.7-.4,1.3v3.1h-.9v-5.5h.9v.9c.2-.3.5-.6.7-.7s.6-.2,1-.2.7.1,1,.3c.3.2.5.5.6.9Z"/>
      <path id="DejaVuSans-65-8" data-name="DejaVuSans-65" d="M42.6,284.1v.4h-4.1c0,.6.2,1.1.6,1.4.3.3.8.5,1.4.5s.7,0,1-.1.6-.2,1-.4v.9c-.3.1-.7.2-1,.3s-.7.1-1,.1c-.9,0-1.6-.3-2.1-.8-.5-.5-.8-1.2-.8-2.1s.2-1.6.7-2.1c.5-.5,1.1-.8,2-.8s1.3.2,1.7.7c.4.5.6,1.1.6,1.9ZM41.7,283.8c0-.5-.1-.9-.4-1.2-.3-.3-.6-.4-1.1-.4s-.9.1-1.2.4-.5.7-.5,1.2h3.2Z"/>
      <path id="DejaVuSans-6d-2" data-name="DejaVuSans-6d" d="M48.3,282.6c.2-.4.5-.7.8-.9s.7-.3,1.1-.3,1,.2,1.3.6c.3.4.5,1,.5,1.7v3.3h-.9v-3.3c0-.5,0-.9-.3-1.2-.2-.3-.5-.4-.8-.4s-.8.2-1.1.5c-.3.3-.4.7-.4,1.3v3.1h-.9v-3.3c0-.5,0-.9-.3-1.2s-.5-.4-.9-.4-.8.2-1.1.5c-.3.3-.4.7-.4,1.3v3.1h-.9v-5.5h.9v.9c.2-.3.5-.6.7-.7s.6-.2,1-.2.7.1,1,.3c.3.2.5.5.6.9Z"/>
      <path id="DejaVuSans-61-4" data-name="DejaVuSans-61" d="M56.3,284.3c-.7,0-1.2,0-1.5.2s-.4.4-.4.9.1.6.3.8c.2.2.5.3.9.3s.9-.2,1.2-.5.5-.8.5-1.4v-.2h-.9ZM58.1,283.9v3.1h-.9v-.8c-.2.3-.5.6-.8.7-.3.2-.7.2-1.1.2s-1-.2-1.3-.5c-.3-.3-.5-.7-.5-1.3s.2-1.1.6-1.4c.4-.3,1-.5,1.8-.5h1.3c0-.5-.1-.8-.4-1s-.7-.3-1.1-.3-.6,0-.9.1c-.3,0-.6.2-.9.3v-.8c.3-.1.6-.2,1-.3.3,0,.6,0,.9,0,.8,0,1.4.2,1.8.6.4.4.6,1,.6,1.9Z"/>
      <path id="DejaVuSans-64-3" data-name="DejaVuSans-64" d="M63.5,282.4v-3h.9v7.6h-.9v-.8c-.2.3-.4.6-.7.7-.3.2-.6.2-1,.2-.7,0-1.2-.3-1.6-.8-.4-.5-.6-1.2-.6-2.1s.2-1.6.6-2.1c.4-.5,1-.8,1.6-.8s.8,0,1,.2c.3.2.5.4.7.7ZM60.5,284.3c0,.7.1,1.2.4,1.6.3.4.6.6,1.1.6s.8-.2,1.1-.6c.3-.4.4-.9.4-1.6s-.1-1.2-.4-1.6c-.3-.4-.6-.6-1.1-.6s-.8.2-1.1.6-.4.9-.4,1.6Z"/>
      <path id="DejaVuSans-65-9" data-name="DejaVuSans-65" d="M70.9,284.1v.4h-4.1c0,.6.2,1.1.6,1.4.3.3.8.5,1.4.5s.7,0,1-.1.6-.2,1-.4v.9c-.3.1-.7.2-1,.3s-.7.1-1,.1c-.9,0-1.6-.3-2.1-.8-.5-.5-.8-1.2-.8-2.1s.2-1.6.7-2.1c.5-.5,1.1-.8,2-.8s1.3.2,1.7.7c.4.5.6,1.1.6,1.9ZM70.1,283.8c0-.5-.1-.9-.4-1.2-.3-.3-.6-.4-1.1-.4s-.9.1-1.2.4-.5.7-.5,1.2h3.2Z"/>
      <path id="DejaVuSans-5f-3" data-name="DejaVuSans-5f" d="M76.6,288.7v.7h-5.2v-.7h5.2Z"/>
      <path id="DejaVuSans-62" d="M81.3,284.3c0-.7-.1-1.2-.4-1.6s-.6-.6-1.1-.6-.9.2-1.1.6-.4.9-.4,1.6.1,1.2.4,1.6c.3.4.6.6,1.1.6s.8-.2,1.1-.6c.3-.4.4-.9.4-1.6ZM78.3,282.4c.2-.3.4-.6.7-.7.3-.2.6-.2,1-.2.7,0,1.2.3,1.6.8.4.5.6,1.2.6,2.1s-.2,1.6-.6,2.1c-.4.5-1,.8-1.6.8s-.7,0-1-.2c-.3-.2-.5-.4-.7-.7v.8h-.9v-7.6h.9v3Z"/>
      <path id="DejaVuSans-61-5" data-name="DejaVuSans-61" d="M86.3,284.3c-.7,0-1.2,0-1.5.2s-.4.4-.4.9.1.6.3.8c.2.2.5.3.9.3s.9-.2,1.2-.5.5-.8.5-1.4v-.2h-.9ZM88,283.9v3.1h-.9v-.8c-.2.3-.5.6-.8.7-.3.2-.7.2-1.1.2s-1-.2-1.3-.5c-.3-.3-.5-.7-.5-1.3s.2-1.1.6-1.4c.4-.3,1-.5,1.8-.5h1.3c0-.5-.1-.8-.4-1s-.7-.3-1.1-.3-.6,0-.9.1c-.3,0-.6.2-.9.3v-.8c.3-.1.6-.2,1-.3.3,0,.6,0,.9,0,.8,0,1.4.2,1.8.6.4.4.6,1,.6,1.9Z"/>
      <path id="DejaVuSans-6b" d="M89.9,279.4h.9v4.5l2.7-2.4h1.1l-2.9,2.6,3,2.9h-1.2l-2.8-2.7v2.7h-.9v-7.6Z"/>
      <path id="DejaVuSans-65-10" data-name="DejaVuSans-65" d="M100,284.1v.4h-4.1c0,.6.2,1.1.6,1.4.3.3.8.5,1.4.5s.7,0,1-.1.6-.2,1-.4v.9c-.3.1-.7.2-1,.3s-.7.1-1,.1c-.9,0-1.6-.3-2.1-.8-.5-.5-.8-1.2-.8-2.1s.2-1.6.7-2.1c.5-.5,1.1-.8,2-.8s1.3.2,1.7.7c.4.5.6,1.1.6,1.9ZM99.1,283.8c0-.5-.1-.9-.4-1.2-.3-.3-.6-.4-1.1-.4s-.9.1-1.2.4-.5.7-.5,1.2h3.2Z"/>
      <path id="DejaVuSans-73-2" data-name="DejaVuSans-73" d="M105,281.7v.9c-.3-.1-.5-.2-.8-.3-.3,0-.6,0-.9,0-.4,0-.8,0-1,.2-.2.1-.3.3-.3.6s0,.4.2.5.5.2,1,.3h.3c.6.2,1.1.4,1.4.6s.4.6.4,1-.2.9-.6,1.2c-.4.3-1,.4-1.7.4s-.6,0-.9,0c-.3,0-.7-.1-1-.3v-.9c.3.2.7.3,1,.4.3,0,.6.1,1,.1s.7,0,1-.2c.2-.1.3-.3.3-.6s0-.4-.2-.6c-.2-.1-.5-.3-1.1-.4h-.3c-.6-.2-1-.4-1.2-.6-.2-.2-.4-.6-.4-1s.2-.9.5-1.2c.4-.3.9-.4,1.6-.4s.6,0,.9,0c.3,0,.6.1.8.2Z"/>
      <path id="ma8635032fd-4" data-name="ma8635032fd" class="cls-20" d="M112.8,245.8h-3.5"/>
      <path id="DejaVuSans-64-4" data-name="DejaVuSans-64" d="M31.8,244.9v-3h.9v7.6h-.9v-.8c-.2.3-.4.6-.7.7-.3.2-.6.2-1,.2-.7,0-1.2-.3-1.6-.8-.4-.5-.6-1.2-.6-2.1s.2-1.6.6-2.1c.4-.5,1-.8,1.6-.8s.8,0,1,.2c.3.2.5.4.7.7ZM28.8,246.8c0,.7.1,1.2.4,1.6.3.4.6.6,1.1.6s.8-.2,1.1-.6c.3-.4.4-.9.4-1.6s-.1-1.2-.4-1.6c-.3-.4-.6-.6-1.1-.6s-.8.2-1.1.6-.4.9-.4,1.6Z"/>
      <path id="DejaVuSans-65-11" data-name="DejaVuSans-65" d="M39.3,246.6v.4h-4.1c0,.6.2,1.1.6,1.4.3.3.8.5,1.4.5s.7,0,1-.1.6-.2,1-.4v.9c-.3.1-.7.2-1,.3s-.7.1-1,.1c-.9,0-1.6-.3-2.1-.8-.5-.5-.8-1.2-.8-2.1s.2-1.6.7-2.1c.5-.5,1.1-.8,2-.8s1.3.2,1.7.7c.4.5.6,1.1.6,1.9ZM38.4,246.3c0-.5-.1-.9-.4-1.2-.3-.3-.6-.4-1.1-.4s-.9.1-1.2.4-.5.7-.5,1.2h3.2Z"/>
      <path id="DejaVuSans-73-3" data-name="DejaVuSans-73" d="M44.2,244.3v.9c-.3-.1-.5-.2-.8-.3-.3,0-.6,0-.9,0-.4,0-.8,0-1,.2-.2.1-.3.3-.3.6s0,.4.2.5.5.2,1,.3h.3c.6.2,1.1.4,1.4.6s.4.6.4,1-.2.9-.6,1.2c-.4.3-1,.4-1.7.4s-.6,0-.9,0c-.3,0-.7-.1-1-.3v-.9c.3.2.7.3,1,.4.3,0,.6.1,1,.1s.7,0,1-.2c.2-.1.3-.3.3-.6s0-.4-.2-.6c-.2-.1-.5-.3-1.1-.4h-.3c-.6-.2-1-.4-1.2-.6-.2-.2-.4-.6-.4-1s.2-.9.5-1.2c.4-.3.9-.4,1.6-.4s.6,0,.9,0c.3,0,.6.1.8.2Z"/>
      <path id="DejaVuSans-69-3" data-name="DejaVuSans-69" d="M45.9,244.1h.9v5.5h-.9v-5.5ZM45.9,242h.9v1.1h-.9v-1.1Z"/>
      <path id="DejaVuSans-67-3" data-name="DejaVuSans-67" d="M52.3,246.8c0-.7-.1-1.2-.4-1.5-.3-.4-.6-.5-1.1-.5s-.9.2-1.1.5c-.3.4-.4.9-.4,1.5s.1,1.2.4,1.5c.3.4.6.5,1.1.5s.9-.2,1.1-.5c.3-.4.4-.9.4-1.5ZM53.2,248.9c0,.9-.2,1.6-.6,2.1-.4.5-1,.7-1.9.7s-.6,0-.9,0-.6-.1-.8-.2v-.9c.3.1.5.2.8.3.3,0,.5.1.8.1.6,0,1-.2,1.3-.5.3-.3.4-.8.4-1.4v-.4c-.2.3-.4.6-.7.7s-.6.2-1,.2c-.7,0-1.2-.3-1.6-.8-.4-.5-.6-1.2-.6-2s.2-1.5.6-2c.4-.5,1-.8,1.6-.8s.8,0,1,.2.5.4.7.7v-.8h.9v4.8Z"/>
      <path id="DejaVuSans-6e-5" data-name="DejaVuSans-6e" d="M59.6,246.3v3.3h-.9v-3.3c0-.5-.1-.9-.3-1.2-.2-.3-.5-.4-.9-.4s-.9.2-1.1.5c-.3.3-.4.7-.4,1.3v3.1h-.9v-5.5h.9v.9c.2-.3.5-.6.8-.7.3-.2.6-.2,1-.2.6,0,1.1.2,1.4.6.3.4.5,1,.5,1.7Z"/>
      <path id="DejaVuSans-5f-4" data-name="DejaVuSans-5f" d="M65.6,251.2v.7h-5.2v-.7h5.2Z"/>
      <path id="DejaVuSans-6d-3" data-name="DejaVuSans-6d" d="M70.7,245.1c.2-.4.5-.7.8-.9s.7-.3,1.1-.3,1,.2,1.3.6c.3.4.5,1,.5,1.7v3.3h-.9v-3.3c0-.5,0-.9-.3-1.2-.2-.3-.5-.4-.8-.4s-.8.2-1.1.5c-.3.3-.4.7-.4,1.3v3.1h-.9v-3.3c0-.5,0-.9-.3-1.2s-.5-.4-.9-.4-.8.2-1.1.5c-.3.3-.4.7-.4,1.3v3.1h-.9v-5.5h.9v.9c.2-.3.5-.6.7-.7s.6-.2,1-.2.7.1,1,.3c.3.2.5.5.6.9Z"/>
      <path id="DejaVuSans-69-4" data-name="DejaVuSans-69" d="M76.2,244.1h.9v5.5h-.9v-5.5ZM76.2,242h.9v1.1h-.9v-1.1Z"/>
      <path id="DejaVuSans-6e-6" data-name="DejaVuSans-6e" d="M83.5,246.3v3.3h-.9v-3.3c0-.5-.1-.9-.3-1.2-.2-.3-.5-.4-.9-.4s-.9.2-1.1.5c-.3.3-.4.7-.4,1.3v3.1h-.9v-5.5h.9v.9c.2-.3.5-.6.8-.7.3-.2.6-.2,1-.2.6,0,1.1.2,1.4.6.3.4.5,1,.5,1.7Z"/>
      <path id="DejaVuSans-69-5" data-name="DejaVuSans-69" d="M85.3,244.1h.9v5.5h-.9v-5.5ZM85.3,242h.9v1.1h-.9v-1.1Z"/>
      <path id="DejaVuSans-6d-4" data-name="DejaVuSans-6d" d="M92.3,245.1c.2-.4.5-.7.8-.9s.7-.3,1.1-.3,1,.2,1.3.6c.3.4.5,1,.5,1.7v3.3h-.9v-3.3c0-.5,0-.9-.3-1.2-.2-.3-.5-.4-.8-.4s-.8.2-1.1.5c-.3.3-.4.7-.4,1.3v3.1h-.9v-3.3c0-.5,0-.9-.3-1.2s-.5-.4-.9-.4-.8.2-1.1.5c-.3.3-.4.7-.4,1.3v3.1h-.9v-5.5h.9v.9c.2-.3.5-.6.7-.7s.6-.2,1-.2.7.1,1,.3c.3.2.5.5.6.9Z"/>
      <path id="DejaVuSans-61-6" data-name="DejaVuSans-61" d="M100.3,246.8c-.7,0-1.2,0-1.5.2s-.4.4-.4.9.1.6.3.8c.2.2.5.3.9.3s.9-.2,1.2-.5.5-.8.5-1.4v-.2h-.9ZM102.1,246.4v3.1h-.9v-.8c-.2.3-.5.6-.8.7-.3.2-.7.2-1.1.2s-1-.2-1.3-.5c-.3-.3-.5-.7-.5-1.3s.2-1.1.6-1.4c.4-.3,1-.5,1.8-.5h1.3c0-.5-.1-.8-.4-1s-.7-.3-1.1-.3-.6,0-.9.1c-.3,0-.6.2-.9.3v-.8c.3-.1.6-.2,1-.3.3,0,.6,0,.9,0,.8,0,1.4.2,1.8.6.4.4.6,1,.6,1.9Z"/>
      <path id="DejaVuSans-6c-3" data-name="DejaVuSans-6c" d="M103.9,242h.9v7.6h-.9v-7.6Z"/>
      <path id="ma8635032fd-5" data-name="ma8635032fd" class="cls-20" d="M112.8,208.3h-3.5"/>
      <path id="DejaVuSans-65-12" data-name="DejaVuSans-65" d="M30.3,209.1v.4h-4.1c0,.6.2,1.1.6,1.4.3.3.8.5,1.4.5s.7,0,1-.1.6-.2,1-.4v.9c-.3.1-.7.2-1,.3s-.7.1-1,.1c-.9,0-1.6-.3-2.1-.8-.5-.5-.8-1.2-.8-2.1s.2-1.6.7-2.1c.5-.5,1.1-.8,2-.8s1.3.2,1.7.7c.4.5.6,1.1.6,1.9ZM29.4,208.9c0-.5-.1-.9-.4-1.2-.3-.3-.6-.4-1.1-.4s-.9.1-1.2.4-.5.7-.5,1.2h3.2Z"/>
      <path id="DejaVuSans-74-3" data-name="DejaVuSans-74" d="M32.6,205.1v1.6h1.9v.7h-1.9v3c0,.4,0,.7.2.9s.4.2.7.2h.9v.8h-.9c-.7,0-1.2-.1-1.4-.4-.3-.3-.4-.7-.4-1.4v-3h-.7v-.7h.7v-1.6h.9Z"/>
      <path id="DejaVuSans-68-2" data-name="DejaVuSans-68" d="M40.2,208.8v3.3h-.9v-3.3c0-.5-.1-.9-.3-1.2-.2-.3-.5-.4-.9-.4s-.9.2-1.1.5c-.3.3-.4.7-.4,1.3v3.1h-.9v-7.6h.9v3c.2-.3.5-.6.8-.7.3-.2.6-.2,1-.2.6,0,1.1.2,1.4.6.3.4.5,1,.5,1.7Z"/>
      <path id="DejaVuSans-69-6" data-name="DejaVuSans-69" d="M42,206.6h.9v5.5h-.9v-5.5ZM42,204.5h.9v1.1h-.9v-1.1Z"/>
      <path id="DejaVuSans-63-2" data-name="DejaVuSans-63" d="M48.7,206.8v.8c-.3-.1-.5-.2-.8-.3s-.5-.1-.8-.1c-.6,0-1,.2-1.4.6-.3.4-.5.9-.5,1.6s.2,1.2.5,1.6c.3.4.8.6,1.4.6s.5,0,.8-.1.5-.2.8-.3v.8c-.3.1-.5.2-.8.3-.3,0-.6,0-.9,0-.8,0-1.5-.3-2-.8-.5-.5-.7-1.2-.7-2.1s.2-1.6.7-2.1c.5-.5,1.2-.8,2-.8s.5,0,.8,0c.3,0,.5.1.8.3Z"/>
      <path id="DejaVuSans-61-7" data-name="DejaVuSans-61" d="M52.8,209.3c-.7,0-1.2,0-1.5.2s-.4.4-.4.9.1.6.3.8c.2.2.5.3.9.3s.9-.2,1.2-.5.5-.8.5-1.4v-.2h-.9ZM54.6,209v3.1h-.9v-.8c-.2.3-.5.6-.8.7-.3.2-.7.2-1.1.2s-1-.2-1.3-.5c-.3-.3-.5-.7-.5-1.3s.2-1.1.6-1.4c.4-.3,1-.5,1.8-.5h1.3c0-.5-.1-.8-.4-1s-.7-.3-1.1-.3-.6,0-.9.1c-.3,0-.6.2-.9.3v-.8c.3-.1.6-.2,1-.3.3,0,.6,0,.9,0,.8,0,1.4.2,1.8.6.4.4.6,1,.6,1.9Z"/>
      <path id="DejaVuSans-6c-4" data-name="DejaVuSans-6c" d="M56.4,204.5h.9v7.6h-.9v-7.6Z"/>
      <path id="DejaVuSans-5f-5" data-name="DejaVuSans-5f" d="M63.3,213.7v.7h-5.2v-.7h5.2Z"/>
      <path id="DejaVuSans-73-4" data-name="DejaVuSans-73" d="M67.7,206.8v.9c-.3-.1-.5-.2-.8-.3-.3,0-.6,0-.9,0-.4,0-.8,0-1,.2-.2.1-.3.3-.3.6s0,.4.2.5.5.2,1,.3h.3c.6.2,1.1.4,1.4.6s.4.6.4,1-.2.9-.6,1.2c-.4.3-1,.4-1.7.4s-.6,0-.9,0c-.3,0-.7-.1-1-.3v-.9c.3.2.7.3,1,.4.3,0,.6.1,1,.1s.7,0,1-.2c.2-.1.3-.3.3-.6s0-.4-.2-.6c-.2-.1-.5-.3-1.1-.4h-.3c-.6-.2-1-.4-1.2-.6-.2-.2-.4-.6-.4-1s.2-.9.5-1.2c.4-.3.9-.4,1.6-.4s.6,0,.9,0c.3,0,.6.1.8.2Z"/>
      <path id="DejaVuSans-6f-3" data-name="DejaVuSans-6f" d="M71.5,207.2c-.5,0-.9.2-1.1.6s-.4.9-.4,1.5.1,1.2.4,1.5c.3.4.7.6,1.1.6s.9-.2,1.1-.6c.3-.4.4-.9.4-1.5s-.1-1.2-.4-1.5c-.3-.4-.7-.6-1.1-.6ZM71.5,206.5c.8,0,1.4.3,1.8.8.4.5.7,1.2.7,2.1s-.2,1.6-.7,2.1c-.4.5-1.1.8-1.8.8s-1.4-.3-1.8-.8c-.4-.5-.7-1.2-.7-2.1s.2-1.6.7-2.1c.4-.5,1.1-.8,1.8-.8Z"/>
      <path id="DejaVuSans-75" d="M75.4,209.9v-3.3h.9v3.3c0,.5.1.9.3,1.2.2.3.5.4.9.4s.9-.2,1.1-.5c.3-.3.4-.7.4-1.3v-3.1h.9v5.5h-.9v-.8c-.2.3-.5.6-.8.7-.3.2-.6.2-1,.2-.6,0-1.1-.2-1.4-.6-.3-.4-.5-1-.5-1.7ZM77.7,206.5h0Z"/>
      <path id="DejaVuSans-72-4" data-name="DejaVuSans-72" d="M85,207.4c-.1,0-.2-.1-.3-.1-.1,0-.2,0-.4,0-.5,0-.9.2-1.2.5s-.4.8-.4,1.4v2.9h-.9v-5.5h.9v.9c.2-.3.4-.6.7-.7.3-.2.7-.2,1.1-.2s.1,0,.2,0c0,0,.2,0,.2,0v.9Z"/>
      <path id="DejaVuSans-63-3" data-name="DejaVuSans-63" d="M89.7,206.8v.8c-.3-.1-.5-.2-.8-.3s-.5-.1-.8-.1c-.6,0-1,.2-1.4.6-.3.4-.5.9-.5,1.6s.2,1.2.5,1.6c.3.4.8.6,1.4.6s.5,0,.8-.1.5-.2.8-.3v.8c-.3.1-.5.2-.8.3-.3,0-.6,0-.9,0-.8,0-1.5-.3-2-.8-.5-.5-.7-1.2-.7-2.1s.2-1.6.7-2.1c.5-.5,1.2-.8,2-.8s.5,0,.8,0c.3,0,.5.1.8.3Z"/>
      <path id="DejaVuSans-69-7" data-name="DejaVuSans-69" d="M91.2,206.6h.9v5.5h-.9v-5.5ZM91.2,204.5h.9v1.1h-.9v-1.1Z"/>
      <path id="DejaVuSans-6e-7" data-name="DejaVuSans-6e" d="M98.6,208.8v3.3h-.9v-3.3c0-.5-.1-.9-.3-1.2-.2-.3-.5-.4-.9-.4s-.9.2-1.1.5c-.3.3-.4.7-.4,1.3v3.1h-.9v-5.5h.9v.9c.2-.3.5-.6.8-.7.3-.2.6-.2,1-.2.6,0,1.1.2,1.4.6.3.4.5,1,.5,1.7Z"/>
      <path id="DejaVuSans-67-4" data-name="DejaVuSans-67" d="M103.9,209.3c0-.7-.1-1.2-.4-1.5-.3-.4-.6-.5-1.1-.5s-.9.2-1.1.5c-.3.4-.4.9-.4,1.5s.1,1.2.4,1.5c.3.4.6.5,1.1.5s.9-.2,1.1-.5c.3-.4.4-.9.4-1.5ZM104.8,211.4c0,.9-.2,1.6-.6,2.1-.4.5-1,.7-1.9.7s-.6,0-.9,0-.6-.1-.8-.2v-.9c.3.1.5.2.8.3.3,0,.5.1.8.1.6,0,1-.2,1.3-.5.3-.3.4-.8.4-1.4v-.4c-.2.3-.4.6-.7.7s-.6.2-1,.2c-.7,0-1.2-.3-1.6-.8-.4-.5-.6-1.2-.6-2s.2-1.5.6-2c.4-.5,1-.8,1.6-.8s.8,0,1,.2.5.4.7.7v-.8h.9v4.8Z"/>
      <path id="ma8635032fd-6" data-name="ma8635032fd" class="cls-20" d="M112.8,170.8h-3.5"/>
      <path id="DejaVuSans-6c-5" data-name="DejaVuSans-6c" d="M40.2,167h.9v7.6h-.9v-7.6Z"/>
      <path id="DejaVuSans-6f-4" data-name="DejaVuSans-6f" d="M45.1,169.8c-.5,0-.9.2-1.1.6s-.4.9-.4,1.5.1,1.2.4,1.5c.3.4.7.6,1.1.6s.9-.2,1.1-.6c.3-.4.4-.9.4-1.5s-.1-1.2-.4-1.5c-.3-.4-.7-.6-1.1-.6ZM45.1,169c.8,0,1.4.3,1.8.8.4.5.7,1.2.7,2.1s-.2,1.6-.7,2.1c-.4.5-1.1.8-1.8.8s-1.4-.3-1.8-.8c-.4-.5-.7-1.2-.7-2.1s.2-1.6.7-2.1c.4-.5,1.1-.8,1.8-.8Z"/>
      <path id="DejaVuSans-63-4" data-name="DejaVuSans-63" d="M53.1,169.3v.8c-.3-.1-.5-.2-.8-.3s-.5-.1-.8-.1c-.6,0-1,.2-1.4.6-.3.4-.5.9-.5,1.6s.2,1.2.5,1.6c.3.4.8.6,1.4.6s.5,0,.8-.1.5-.2.8-.3v.8c-.3.1-.5.2-.8.3-.3,0-.6,0-.9,0-.8,0-1.5-.3-2-.8-.5-.5-.7-1.2-.7-2.1s.2-1.6.7-2.1c.5-.5,1.2-.8,2-.8s.5,0,.8,0c.3,0,.5.1.8.3Z"/>
      <path id="DejaVuSans-61-8" data-name="DejaVuSans-61" d="M57.1,171.9c-.7,0-1.2,0-1.5.2s-.4.4-.4.9.1.6.3.8c.2.2.5.3.9.3s.9-.2,1.2-.5.5-.8.5-1.4v-.2h-.9ZM58.9,171.5v3.1h-.9v-.8c-.2.3-.5.6-.8.7-.3.2-.7.2-1.1.2s-1-.2-1.3-.5c-.3-.3-.5-.7-.5-1.3s.2-1.1.6-1.4c.4-.3,1-.5,1.8-.5h1.3c0-.5-.1-.8-.4-1s-.7-.3-1.1-.3-.6,0-.9.1c-.3,0-.6.2-.9.3v-.8c.3-.1.6-.2,1-.3.3,0,.6,0,.9,0,.8,0,1.4.2,1.8.6.4.4.6,1,.6,1.9Z"/>
      <path id="DejaVuSans-6c-6" data-name="DejaVuSans-6c" d="M60.8,167h.9v7.6h-.9v-7.6Z"/>
      <path id="DejaVuSans-5f-6" data-name="DejaVuSans-5f" d="M67.7,176.3v.7h-5.2v-.7h5.2Z"/>
      <path id="DejaVuSans-69-8" data-name="DejaVuSans-69" d="M68.5,169.1h.9v5.5h-.9v-5.5ZM68.5,167h.9v1.1h-.9v-1.1Z"/>
      <path id="DejaVuSans-64-5" data-name="DejaVuSans-64" d="M74.9,170v-3h.9v7.6h-.9v-.8c-.2.3-.4.6-.7.7-.3.2-.6.2-1,.2-.7,0-1.2-.3-1.6-.8-.4-.5-.6-1.2-.6-2.1s.2-1.6.6-2.1c.4-.5,1-.8,1.6-.8s.8,0,1,.2c.3.2.5.4.7.7ZM71.9,171.9c0,.7.1,1.2.4,1.6.3.4.6.6,1.1.6s.8-.2,1.1-.6c.3-.4.4-.9.4-1.6s-.1-1.2-.4-1.6c-.3-.4-.6-.6-1.1-.6s-.8.2-1.1.6-.4.9-.4,1.6Z"/>
      <path id="DejaVuSans-65-13" data-name="DejaVuSans-65" d="M82.3,171.6v.4h-4.1c0,.6.2,1.1.6,1.4.3.3.8.5,1.4.5s.7,0,1-.1.6-.2,1-.4v.9c-.3.1-.7.2-1,.3s-.7.1-1,.1c-.9,0-1.6-.3-2.1-.8-.5-.5-.8-1.2-.8-2.1s.2-1.6.7-2.1c.5-.5,1.1-.8,2-.8s1.3.2,1.7.7c.4.5.6,1.1.6,1.9ZM81.4,171.4c0-.5-.1-.9-.4-1.2-.3-.3-.6-.4-1.1-.4s-.9.1-1.2.4-.5.7-.5,1.2h3.2Z"/>
      <path id="DejaVuSans-6e-8" data-name="DejaVuSans-6e" d="M88.4,171.3v3.3h-.9v-3.3c0-.5-.1-.9-.3-1.2-.2-.3-.5-.4-.9-.4s-.9.2-1.1.5c-.3.3-.4.7-.4,1.3v3.1h-.9v-5.5h.9v.9c.2-.3.5-.6.8-.7.3-.2.6-.2,1-.2.6,0,1.1.2,1.4.6.3.4.5,1,.5,1.7Z"/>
      <path id="DejaVuSans-74-4" data-name="DejaVuSans-74" d="M91,167.6v1.6h1.9v.7h-1.9v3c0,.4,0,.7.2.9s.4.2.7.2h.9v.8h-.9c-.7,0-1.2-.1-1.4-.4-.3-.3-.4-.7-.4-1.4v-3h-.7v-.7h.7v-1.6h.9Z"/>
      <path id="DejaVuSans-69-9" data-name="DejaVuSans-69" d="M94.1,169.1h.9v5.5h-.9v-5.5ZM94.1,167h.9v1.1h-.9v-1.1Z"/>
      <path id="DejaVuSans-74-5" data-name="DejaVuSans-74" d="M97.7,167.6v1.6h1.9v.7h-1.9v3c0,.4,0,.7.2.9s.4.2.7.2h.9v.8h-.9c-.7,0-1.2-.1-1.4-.4-.3-.3-.4-.7-.4-1.4v-3h-.7v-.7h.7v-1.6h.9Z"/>
      <path id="DejaVuSans-79-3" data-name="DejaVuSans-79" d="M103,175.1c-.3.7-.5,1.1-.7,1.3-.2.2-.6.3-1,.3h-.7v-.8h.5c.2,0,.4,0,.6-.2.1-.1.3-.4.5-.8l.2-.4-2.2-5.4h1l1.7,4.3,1.7-4.3h1l-2.4,6Z"/>
      <path id="ma8635032fd-7" data-name="ma8635032fd" class="cls-20" d="M112.8,133.3h-3.5"/>
      <path id="DejaVuSans-6d-5" data-name="DejaVuSans-6d" d="M40.7,132.7c.2-.4.5-.7.8-.9s.7-.3,1.1-.3,1,.2,1.3.6c.3.4.5,1,.5,1.7v3.3h-.9v-3.3c0-.5,0-.9-.3-1.2-.2-.3-.5-.4-.8-.4s-.8.2-1.1.5c-.3.3-.4.7-.4,1.3v3.1h-.9v-3.3c0-.5,0-.9-.3-1.2s-.5-.4-.9-.4-.8.2-1.1.5c-.3.3-.4.7-.4,1.3v3.1h-.9v-5.5h.9v.9c.2-.3.5-.6.7-.7s.6-.2,1-.2.7.1,1,.3c.3.2.5.5.6.9Z"/>
      <path id="DejaVuSans-75-2" data-name="DejaVuSans-75" d="M46.1,135v-3.3h.9v3.3c0,.5.1.9.3,1.2.2.3.5.4.9.4s.9-.2,1.1-.5c.3-.3.4-.7.4-1.3v-3.1h.9v5.5h-.9v-.8c-.2.3-.5.6-.8.7-.3.2-.6.2-1,.2-.6,0-1.1-.2-1.4-.6-.3-.4-.5-1-.5-1.7ZM48.4,131.5h0Z"/>
      <path id="DejaVuSans-6c-7" data-name="DejaVuSans-6c" d="M52.5,129.5h.9v7.6h-.9v-7.6Z"/>
      <path id="DejaVuSans-74-6" data-name="DejaVuSans-74" d="M56.2,130.1v1.6h1.9v.7h-1.9v3c0,.4,0,.7.2.9s.4.2.7.2h.9v.8h-.9c-.7,0-1.2-.1-1.4-.4-.3-.3-.4-.7-.4-1.4v-3h-.7v-.7h.7v-1.6h.9Z"/>
      <path id="DejaVuSans-69-10" data-name="DejaVuSans-69" d="M59.2,131.7h.9v5.5h-.9v-5.5ZM59.2,129.5h.9v1.1h-.9v-1.1Z"/>
      <path id="DejaVuSans-5f-7" data-name="DejaVuSans-5f" d="M66.2,138.8v.7h-5.2v-.7h5.2Z"/>
      <path id="DejaVuSans-6c-8" data-name="DejaVuSans-6c" d="M67,129.5h.9v7.6h-.9v-7.6Z"/>
      <path id="DejaVuSans-6f-5" data-name="DejaVuSans-6f" d="M71.9,132.3c-.5,0-.9.2-1.1.6s-.4.9-.4,1.5.1,1.2.4,1.5c.3.4.7.6,1.1.6s.9-.2,1.1-.6c.3-.4.4-.9.4-1.5s-.1-1.2-.4-1.5c-.3-.4-.7-.6-1.1-.6ZM71.9,131.5c.8,0,1.4.3,1.8.8.4.5.7,1.2.7,2.1s-.2,1.6-.7,2.1c-.4.5-1.1.8-1.8.8s-1.4-.3-1.8-.8c-.4-.5-.7-1.2-.7-2.1s.2-1.6.7-2.1c.4-.5,1.1-.8,1.8-.8Z"/>
      <path id="DejaVuSans-63-5" data-name="DejaVuSans-63" d="M79.8,131.9v.8c-.3-.1-.5-.2-.8-.3s-.5-.1-.8-.1c-.6,0-1,.2-1.4.6-.3.4-.5.9-.5,1.6s.2,1.2.5,1.6c.3.4.8.6,1.4.6s.5,0,.8-.1.5-.2.8-.3v.8c-.3.1-.5.2-.8.3-.3,0-.6,0-.9,0-.8,0-1.5-.3-2-.8-.5-.5-.7-1.2-.7-2.1s.2-1.6.7-2.1c.5-.5,1.2-.8,2-.8s.5,0,.8,0c.3,0,.5.1.8.3Z"/>
      <path id="DejaVuSans-61-9" data-name="DejaVuSans-61" d="M83.9,134.4c-.7,0-1.2,0-1.5.2s-.4.4-.4.9.1.6.3.8c.2.2.5.3.9.3s.9-.2,1.2-.5.5-.8.5-1.4v-.2h-.9ZM85.7,134v3.1h-.9v-.8c-.2.3-.5.6-.8.7-.3.2-.7.2-1.1.2s-1-.2-1.3-.5c-.3-.3-.5-.7-.5-1.3s.2-1.1.6-1.4c.4-.3,1-.5,1.8-.5h1.3c0-.5-.1-.8-.4-1s-.7-.3-1.1-.3-.6,0-.9.1c-.3,0-.6.2-.9.3v-.8c.3-.1.6-.2,1-.3.3,0,.6,0,.9,0,.8,0,1.4.2,1.8.6.4.4.6,1,.6,1.9Z"/>
      <path id="DejaVuSans-74-7" data-name="DejaVuSans-74" d="M88.4,130.1v1.6h1.9v.7h-1.9v3c0,.4,0,.7.2.9s.4.2.7.2h.9v.8h-.9c-.7,0-1.2-.1-1.4-.4-.3-.3-.4-.7-.4-1.4v-3h-.7v-.7h.7v-1.6h.9Z"/>
      <path id="DejaVuSans-69-11" data-name="DejaVuSans-69" d="M91.5,131.7h.9v5.5h-.9v-5.5ZM91.5,129.5h.9v1.1h-.9v-1.1Z"/>
      <path id="DejaVuSans-6f-6" data-name="DejaVuSans-6f" d="M96.4,132.3c-.5,0-.9.2-1.1.6s-.4.9-.4,1.5.1,1.2.4,1.5c.3.4.7.6,1.1.6s.9-.2,1.1-.6c.3-.4.4-.9.4-1.5s-.1-1.2-.4-1.5c-.3-.4-.7-.6-1.1-.6ZM96.4,131.5c.8,0,1.4.3,1.8.8.4.5.7,1.2.7,2.1s-.2,1.6-.7,2.1c-.4.5-1.1.8-1.8.8s-1.4-.3-1.8-.8c-.4-.5-.7-1.2-.7-2.1s.2-1.6.7-2.1c.4-.5,1.1-.8,1.8-.8Z"/>
      <path id="DejaVuSans-6e-9" data-name="DejaVuSans-6e" d="M104.9,133.8v3.3h-.9v-3.3c0-.5-.1-.9-.3-1.2-.2-.3-.5-.4-.9-.4s-.9.2-1.1.5c-.3.3-.4.7-.4,1.3v3.1h-.9v-5.5h.9v.9c.2-.3.5-.6.8-.7.3-.2.6-.2,1-.2.6,0,1.1.2,1.4.6.3.4.5,1,.5,1.7Z"/>
      <path id="ma8635032fd-8" data-name="ma8635032fd" class="cls-20" d="M112.8,95.8h-3.5"/>
      <path id="DejaVuSans-63-6" data-name="DejaVuSans-63" d="M15.5,94.4v.8c-.3-.1-.5-.2-.8-.3s-.5-.1-.8-.1c-.6,0-1,.2-1.4.6-.3.4-.5.9-.5,1.6s.2,1.2.5,1.6c.3.4.8.6,1.4.6s.5,0,.8-.1.5-.2.8-.3v.8c-.3.1-.5.2-.8.3-.3,0-.6,0-.9,0-.8,0-1.5-.3-2-.8-.5-.5-.7-1.2-.7-2.1s.2-1.6.7-2.1c.5-.5,1.2-.8,2-.8s.5,0,.8,0c.3,0,.5.1.8.3Z"/>
      <path id="DejaVuSans-6f-7" data-name="DejaVuSans-6f" d="M19.2,94.8c-.5,0-.9.2-1.1.6s-.4.9-.4,1.5.1,1.2.4,1.5c.3.4.7.6,1.1.6s.9-.2,1.1-.6c.3-.4.4-.9.4-1.5s-.1-1.2-.4-1.5c-.3-.4-.7-.6-1.1-.6ZM19.2,94c.8,0,1.4.3,1.8.8.4.5.7,1.2.7,2.1s-.2,1.6-.7,2.1c-.4.5-1.1.8-1.8.8s-1.4-.3-1.8-.8c-.4-.5-.7-1.2-.7-2.1s.2-1.6.7-2.1c.4-.5,1.1-.8,1.8-.8Z"/>
      <path id="DejaVuSans-6d-6" data-name="DejaVuSans-6d" d="M27.5,95.2c.2-.4.5-.7.8-.9s.7-.3,1.1-.3,1,.2,1.3.6c.3.4.5,1,.5,1.7v3.3h-.9v-3.3c0-.5,0-.9-.3-1.2-.2-.3-.5-.4-.8-.4s-.8.2-1.1.5c-.3.3-.4.7-.4,1.3v3.1h-.9v-3.3c0-.5,0-.9-.3-1.2s-.5-.4-.9-.4-.8.2-1.1.5c-.3.3-.4.7-.4,1.3v3.1h-.9v-5.5h.9v.9c.2-.3.5-.6.7-.7s.6-.2,1-.2.7.1,1,.3c.3.2.5.5.6.9Z"/>
      <path id="DejaVuSans-6d-7" data-name="DejaVuSans-6d" d="M37.2,95.2c.2-.4.5-.7.8-.9s.7-.3,1.1-.3,1,.2,1.3.6c.3.4.5,1,.5,1.7v3.3h-.9v-3.3c0-.5,0-.9-.3-1.2-.2-.3-.5-.4-.8-.4s-.8.2-1.1.5c-.3.3-.4.7-.4,1.3v3.1h-.9v-3.3c0-.5,0-.9-.3-1.2s-.5-.4-.9-.4-.8.2-1.1.5c-.3.3-.4.7-.4,1.3v3.1h-.9v-5.5h.9v.9c.2-.3.5-.6.7-.7s.6-.2,1-.2.7.1,1,.3c.3.2.5.5.6.9Z"/>
      <path id="DejaVuSans-75-3" data-name="DejaVuSans-75" d="M42.6,97.5v-3.3h.9v3.3c0,.5.1.9.3,1.2.2.3.5.4.9.4s.9-.2,1.1-.5c.3-.3.4-.7.4-1.3v-3.1h.9v5.5h-.9v-.8c-.2.3-.5.6-.8.7-.3.2-.6.2-1,.2-.6,0-1.1-.2-1.4-.6-.3-.4-.5-1-.5-1.7ZM44.9,94h0Z"/>
      <path id="DejaVuSans-6e-10" data-name="DejaVuSans-6e" d="M53.6,96.3v3.3h-.9v-3.3c0-.5-.1-.9-.3-1.2-.2-.3-.5-.4-.9-.4s-.9.2-1.1.5c-.3.3-.4.7-.4,1.3v3.1h-.9v-5.5h.9v.9c.2-.3.5-.6.8-.7.3-.2.6-.2,1-.2.6,0,1.1.2,1.4.6.3.4.5,1,.5,1.7Z"/>
      <path id="DejaVuSans-69-12" data-name="DejaVuSans-69" d="M55.4,94.2h.9v5.5h-.9v-5.5ZM55.4,92h.9v1.1h-.9v-1.1Z"/>
      <path id="DejaVuSans-74-8" data-name="DejaVuSans-74" d="M59.1,92.6v1.6h1.9v.7h-1.9v3c0,.4,0,.7.2.9s.4.2.7.2h.9v.8h-.9c-.7,0-1.2-.1-1.4-.4-.3-.3-.4-.7-.4-1.4v-3h-.7v-.7h.7v-1.6h.9Z"/>
      <path id="DejaVuSans-79-4" data-name="DejaVuSans-79" d="M64.4,100.1c-.3.7-.5,1.1-.7,1.3-.2.2-.6.3-1,.3h-.7v-.8h.5c.2,0,.4,0,.6-.2.1-.1.3-.4.5-.8l.2-.4-2.2-5.4h1l1.7,4.3,1.7-4.3h1l-2.4,6Z"/>
      <path id="DejaVuSans-5f-8" data-name="DejaVuSans-5f" d="M72.2,101.3v.7h-5.2v-.7h5.2Z"/>
      <path id="DejaVuSans-65-14" data-name="DejaVuSans-65" d="M77.7,96.7v.4h-4.1c0,.6.2,1.1.6,1.4.3.3.8.5,1.4.5s.7,0,1-.1.6-.2,1-.4v.9c-.3.1-.7.2-1,.3s-.7.1-1,.1c-.9,0-1.6-.3-2.1-.8-.5-.5-.8-1.2-.8-2.1s.2-1.6.7-2.1c.5-.5,1.1-.8,2-.8s1.3.2,1.7.7c.4.5.6,1.1.6,1.9ZM76.8,96.4c0-.5-.1-.9-.4-1.2-.3-.3-.6-.4-1.1-.4s-.9.1-1.2.4-.5.7-.5,1.2h3.2Z"/>
      <path id="DejaVuSans-76-2" data-name="DejaVuSans-76" d="M78.5,94.2h1l1.7,4.6,1.7-4.6h1l-2.1,5.5h-1.2l-2.1-5.5Z"/>
      <path id="DejaVuSans-65-15" data-name="DejaVuSans-65" d="M89.7,96.7v.4h-4.1c0,.6.2,1.1.6,1.4.3.3.8.5,1.4.5s.7,0,1-.1.6-.2,1-.4v.9c-.3.1-.7.2-1,.3s-.7.1-1,.1c-.9,0-1.6-.3-2.1-.8-.5-.5-.8-1.2-.8-2.1s.2-1.6.7-2.1c.5-.5,1.1-.8,2-.8s1.3.2,1.7.7c.4.5.6,1.1.6,1.9ZM88.9,96.4c0-.5-.1-.9-.4-1.2-.3-.3-.6-.4-1.1-.4s-.9.1-1.2.4-.5.7-.5,1.2h3.2Z"/>
      <path id="DejaVuSans-6e-11" data-name="DejaVuSans-6e" d="M95.8,96.3v3.3h-.9v-3.3c0-.5-.1-.9-.3-1.2-.2-.3-.5-.4-.9-.4s-.9.2-1.1.5c-.3.3-.4.7-.4,1.3v3.1h-.9v-5.5h.9v.9c.2-.3.5-.6.8-.7.3-.2.6-.2,1-.2.6,0,1.1.2,1.4.6.3.4.5,1,.5,1.7Z"/>
      <path id="DejaVuSans-74-9" data-name="DejaVuSans-74" d="M98.5,92.6v1.6h1.9v.7h-1.9v3c0,.4,0,.7.2.9s.4.2.7.2h.9v.8h-.9c-.7,0-1.2-.1-1.4-.4-.3-.3-.4-.7-.4-1.4v-3h-.7v-.7h.7v-1.6h.9Z"/>
      <path id="DejaVuSans-73-5" data-name="DejaVuSans-73" d="M105,94.3v.9c-.3-.1-.5-.2-.8-.3-.3,0-.6,0-.9,0-.4,0-.8,0-1,.2-.2.1-.3.3-.3.6s0,.4.2.5.5.2,1,.3h.3c.6.2,1.1.4,1.4.6s.4.6.4,1-.2.9-.6,1.2c-.4.3-1,.4-1.7.4s-.6,0-.9,0c-.3,0-.7-.1-1-.3v-.9c.3.2.7.3,1,.4.3,0,.6.1,1,.1s.7,0,1-.2c.2-.1.3-.3.3-.6s0-.4-.2-.6c-.2-.1-.5-.3-1.1-.4h-.3c-.6-.2-1-.4-1.2-.6-.2-.2-.4-.6-.4-1s.2-.9.5-1.2c.4-.3.9-.4,1.6-.4s.6,0,.9,0c.3,0,.6.1.8.2Z"/>
      <path id="ma8635032fd-9" data-name="ma8635032fd" class="cls-20" d="M112.8,58.4h-3.5"/>
      <path id="DejaVuSans-6f-8" data-name="DejaVuSans-6f" d="M48.7,57.3c-.5,0-.9.2-1.1.6s-.4.9-.4,1.5.1,1.2.4,1.5c.3.4.7.6,1.1.6s.9-.2,1.1-.6c.3-.4.4-.9.4-1.5s-.1-1.2-.4-1.5c-.3-.4-.7-.6-1.1-.6ZM48.7,56.6c.8,0,1.4.3,1.8.8.4.5.7,1.2.7,2.1s-.2,1.6-.7,2.1c-.4.5-1.1.8-1.8.8s-1.4-.3-1.8-.8c-.4-.5-.7-1.2-.7-2.1s.2-1.6.7-2.1c.4-.5,1.1-.8,1.8-.8Z"/>
      <path id="DejaVuSans-72-5" data-name="DejaVuSans-72" d="M55.8,57.5c-.1,0-.2-.1-.3-.1-.1,0-.2,0-.4,0-.5,0-.9.2-1.2.5s-.4.8-.4,1.4v2.9h-.9v-5.5h.9v.9c.2-.3.4-.6.7-.7.3-.2.7-.2,1.1-.2s.1,0,.2,0c0,0,.2,0,.2,0v.9Z"/>
      <path id="DejaVuSans-69-13" data-name="DejaVuSans-69" d="M56.8,56.7h.9v5.5h-.9v-5.5ZM56.8,54.6h.9v1.1h-.9v-1.1Z"/>
      <path id="DejaVuSans-67-5" data-name="DejaVuSans-67" d="M63.1,59.4c0-.7-.1-1.2-.4-1.5-.3-.4-.6-.5-1.1-.5s-.9.2-1.1.5c-.3.4-.4.9-.4,1.5s.1,1.2.4,1.5c.3.4.6.5,1.1.5s.9-.2,1.1-.5c.3-.4.4-.9.4-1.5ZM64,61.5c0,.9-.2,1.6-.6,2.1-.4.5-1,.7-1.9.7s-.6,0-.9,0-.6-.1-.8-.2v-.9c.3.1.5.2.8.3.3,0,.5.1.8.1.6,0,1-.2,1.3-.5.3-.3.4-.8.4-1.4v-.4c-.2.3-.4.6-.7.7s-.6.2-1,.2c-.7,0-1.2-.3-1.6-.8-.4-.5-.6-1.2-.6-2s.2-1.5.6-2c.4-.5,1-.8,1.6-.8s.8,0,1,.2.5.4.7.7v-.8h.9v4.8Z"/>
      <path id="DejaVuSans-69-14" data-name="DejaVuSans-69" d="M65.9,56.7h.9v5.5h-.9v-5.5ZM65.9,54.6h.9v1.1h-.9v-1.1Z"/>
      <path id="DejaVuSans-6e-12" data-name="DejaVuSans-6e" d="M73.2,58.9v3.3h-.9v-3.3c0-.5-.1-.9-.3-1.2-.2-.3-.5-.4-.9-.4s-.9.2-1.1.5c-.3.3-.4.7-.4,1.3v3.1h-.9v-5.5h.9v.9c.2-.3.5-.6.8-.7.3-.2.6-.2,1-.2.6,0,1.1.2,1.4.6.3.4.5,1,.5,1.7Z"/>
      <path id="DejaVuSans-5f-9" data-name="DejaVuSans-5f" d="M79.2,63.8v.7h-5.2v-.7h5.2Z"/>
      <path id="DejaVuSans-66-5" data-name="DejaVuSans-66" d="M82.8,54.6v.7h-.9c-.3,0-.5,0-.7.2-.1.1-.2.4-.2.7v.5h1.5v.7h-1.5v4.8h-.9v-4.8h-.9v-.7h.9v-.4c0-.6.1-1.1.4-1.3.3-.3.7-.4,1.3-.4h.9Z"/>
      <path id="DejaVuSans-6f-9" data-name="DejaVuSans-6f" d="M85.6,57.3c-.5,0-.9.2-1.1.6s-.4.9-.4,1.5.1,1.2.4,1.5c.3.4.7.6,1.1.6s.9-.2,1.1-.6c.3-.4.4-.9.4-1.5s-.1-1.2-.4-1.5c-.3-.4-.7-.6-1.1-.6ZM85.6,56.6c.8,0,1.4.3,1.8.8.4.5.7,1.2.7,2.1s-.2,1.6-.7,2.1c-.4.5-1.1.8-1.8.8s-1.4-.3-1.8-.8c-.4-.5-.7-1.2-.7-2.1s.2-1.6.7-2.1c.4-.5,1.1-.8,1.8-.8Z"/>
      <path id="DejaVuSans-63-7" data-name="DejaVuSans-63" d="M93.6,56.9v.8c-.3-.1-.5-.2-.8-.3s-.5-.1-.8-.1c-.6,0-1,.2-1.4.6-.3.4-.5.9-.5,1.6s.2,1.2.5,1.6c.3.4.8.6,1.4.6s.5,0,.8-.1.5-.2.8-.3v.8c-.3.1-.5.2-.8.3-.3,0-.6,0-.9,0-.8,0-1.5-.3-2-.8-.5-.5-.7-1.2-.7-2.1s.2-1.6.7-2.1c.5-.5,1.2-.8,2-.8s.5,0,.8,0c.3,0,.5.1.8.3Z"/>
      <path id="DejaVuSans-75-4" data-name="DejaVuSans-75" d="M95.1,60v-3.3h.9v3.3c0,.5.1.9.3,1.2.2.3.5.4.9.4s.9-.2,1.1-.5c.3-.3.4-.7.4-1.3v-3.1h.9v5.5h-.9v-.8c-.2.3-.5.6-.8.7-.3.2-.6.2-1,.2-.6,0-1.1-.2-1.4-.6-.3-.4-.5-1-.5-1.7ZM97.3,56.6h0Z"/>
      <path id="DejaVuSans-73-6" data-name="DejaVuSans-73" d="M105,56.9v.9c-.3-.1-.5-.2-.8-.3-.3,0-.6,0-.9,0-.4,0-.8,0-1,.2-.2.1-.3.3-.3.6s0,.4.2.5.5.2,1,.3h.3c.6.2,1.1.4,1.4.6s.4.6.4,1-.2.9-.6,1.2c-.4.3-1,.4-1.7.4s-.6,0-.9,0c-.3,0-.7-.1-1-.3v-.9c.3.2.7.3,1,.4.3,0,.6.1,1,.1s.7,0,1-.2c.2-.1.3-.3.3-.6s0-.4-.2-.6c-.2-.1-.5-.3-1.1-.4h-.3c-.6-.2-1-.4-1.2-.6-.2-.2-.4-.6-.4-1s.2-.9.5-1.2c.4-.3.9-.4,1.6-.4s.6,0,.9,0c.3,0,.6.1.8.2Z"/>
      <path class="cls-2" d="M112.8,389.7V26.9"/>
      <path class="cls-2" d="M112.8,389.7h587"/>
      <path id="DejaVuSans-20-4" data-name="DejaVuSans-20" d="M312.4,20.9"/>
      <path id="DejaVuSans-20-5" data-name="DejaVuSans-20" d="M370.8,20.9"/>
      <path id="DejaVuSans-20-6" data-name="DejaVuSans-20" d="M389.6,20.9"/>
      <path id="DejaVuSans-20-7" data-name="DejaVuSans-20" d="M420.8,20.9"/>
      <path id="DejaVuSans-20-8" data-name="DejaVuSans-20" d="M478.7,20.9"/>
      <path id="DejaVuSans-20-9" data-name="DejaVuSans-20" d="M496.1,20.9"/>
      <path id="DejaVuSans-20-10" data-name="DejaVuSans-20" d="M510,20.9"/>
    </g>
  </g>
</svg>