<?xml version="1.0" encoding="UTF-8"?>
<svg id="Layer_1" xmlns="http://www.w3.org/2000/svg" viewBox="0 0 624.41 960.85">
  <defs>
    <style>
      .cls-1 {
        fill: none;
      }

      .cls-1, .cls-2, .cls-3, .cls-4, .cls-5, .cls-6, .cls-7, .cls-8, .cls-9, .cls-10, .cls-11, .cls-12 {
        stroke: #000;
        stroke-width: 2px;
      }

      .cls-13 {
        letter-spacing: -.11em;
      }

      .cls-13, .cls-14, .cls-15 {
        font-family: HelveticaNeue-Medium, 'Helvetica Neue';
        font-weight: 500;
      }

      .cls-2 {
        fill: #ffe2cc;
      }

      .cls-2, .cls-4, .cls-5, .cls-6, .cls-7, .cls-8, .cls-9, .cls-10, .cls-11, .cls-12 {
        opacity: .59;
      }

      .cls-4 {
        fill: #ef9a9a;
      }

      .cls-5 {
        fill: #f8bbd0;
      }

      .cls-16 {
        font-size: 22px;
      }

      .cls-6 {
        fill: #90caf9;
      }

      .cls-17 {
        font-size: 24px;
      }

      .cls-18 {
        fill: #fff;
      }

      .cls-7 {
        fill: #b39ddb;
      }

      .cls-8 {
        fill: #80cbc4;
      }

      .cls-9 {
        fill: #f0f4c3;
      }

      .cls-19 {
        font-family: HelveticaNeue, 'Helvetica Neue';
      }

      .cls-20 {
        letter-spacing: -.02em;
      }

      .cls-21 {
        letter-spacing: -.05em;
      }

      .cls-10 {
        fill: #63d1b4;
      }

      .cls-15 {
        font-size: 25px;
      }

      .cls-11 {
        fill: #aed581;
      }

      .cls-12 {
        fill: #ffcc80;
      }
    </style>
  </defs>
  <text class="cls-15" transform="translate(57.16 49.53)"><tspan x="0" y="0">Instagram</tspan></text>
  <rect class="cls-8" x="6.92" y="65.29" width="510.15" height="479.34"/>
  <rect class="cls-7" x="141.21" y="544.63" width="163.01" height="293.04"/>
  <rect class="cls-9" x="6.92" y="544.63" width="134.29" height="293.04"/>
  <rect class="cls-4" x="304.22" y="544.63" width="136.03" height="154.66"/>
  <rect class="cls-6" x="440.25" y="544.63" width="76.82" height="154.66"/>
  <rect class="cls-12" x="304.22" y="699.3" width="78.7" height="138.38"/>
  <rect class="cls-11" x="382.92" y="699.3" width="134.15" height="75.65"/>
  <rect class="cls-5" x="434.21" y="775.13" width="63.13" height="62.73"/>
  <rect class="cls-2" x="382.92" y="775.13" width="51.29" height="62.73"/>
  <rect class="cls-10" x="497.34" y="775.13" width="19.73" height="62.73"/>
  <rect class="cls-1" x="6.92" y="13.94" width="510.15" height="51.35"/>
  <g id="_x32_koAvE.tif">
    <g>
      <path d="M41.73,56.31h-15.67c-.15-.03-.31-.09-.46-.1-3.94-.36-7.12-3.09-8.03-6.93-.14-.58-.2-1.18-.3-1.77,0-5.22,0-10.45,0-15.67.03-.15.09-.31.1-.47.44-4.73,4.22-8.24,9-8.27,5.02-.03,10.04-.03,15.07,0,5.07.03,9.01,3.97,9.04,9.04.03,5.02.03,10.04,0,15.07-.03,4.27-2.85,7.8-6.96,8.79-.58.14-1.18.2-1.77.3ZM33.89,53.24c2.41,0,4.82,0,7.23,0,3.76,0,6.32-2.56,6.33-6.32,0-4.84,0-9.68,0-14.52,0-3.72-2.57-6.28-6.3-6.28-4.84,0-9.68,0-14.52,0-3.72,0-6.29,2.57-6.3,6.28,0,4.86,0,9.72,0,14.58,0,3.68,2.58,6.24,6.27,6.25,2.43,0,4.86,0,7.29,0Z"/>
      <path class="cls-18" d="M41.73,56.31c.59-.1,1.19-.17,1.77-.3,4.11-.99,6.94-4.52,6.96-8.79.03-5.02.03-10.04,0-15.07-.03-5.07-3.97-9.01-9.04-9.04-5.02-.03-10.04-.03-15.07,0-4.77.03-8.55,3.53-9,8.27-.01.16-.07.31-.1.47,0-2.97,0-5.95,0-8.92,11.13,0,22.26,0,33.39,0,0,11.13,0,22.26,0,33.39-2.97,0-5.95,0-8.92,0Z"/>
      <path class="cls-18" d="M17.26,47.51c.1.59.17,1.19.3,1.77.92,3.85,4.09,6.57,8.03,6.93.16.01.31.07.46.1h-8.8c0-2.93,0-5.87,0-8.8Z"/>
      <path d="M41.49,39.57c0,4.17-3.34,7.56-7.48,7.56-4.18,0-7.57-3.34-7.58-7.48-.02-4.14,3.38-7.57,7.49-7.57,4.16,0,7.57,3.36,7.57,7.49ZM34.02,35.1c-2.41-.07-4.53,1.95-4.58,4.38-.05,2.53,1.89,4.57,4.43,4.64,2.43.07,4.52-1.87,4.61-4.27.09-2.6-1.85-4.67-4.45-4.75Z"/>
      <path d="M42.19,29.89c.84,0,1.48.64,1.49,1.47,0,.86-.67,1.55-1.51,1.54-.81-.01-1.5-.7-1.51-1.49,0-.84.67-1.52,1.53-1.52Z"/>
    </g>
  </g>
  <path d="M484.45,507.48h1.35c.43.09.88.16,1.3.28,1.35.37,2.44,1.15,3.36,2.21.83-.91,1.77-1.61,2.89-2.01.61-.22,1.25-.32,1.88-.48.41,0,.82,0,1.24,0,.09.03.18.07.27.08,3.18.47,5.33,2.27,6.54,5.2.31.74.41,1.57.61,2.36v1.24c-.09.45-.17.91-.29,1.36-.6,2.21-1.92,3.98-3.46,5.61-2.23,2.35-4.85,4.27-7.36,6.3-.71.57-1.43,1.12-2.15,1.69h-.45c-.73-.58-1.49-1.13-2.19-1.74-2.23-1.93-4.5-3.83-6.66-5.84-1.53-1.43-2.79-3.13-3.53-5.13-.3-.79-.44-1.64-.66-2.47,0-.45,0-.9,0-1.35.03-.11.08-.21.1-.32.49-3.09,2.24-5.18,5.07-6.39.68-.29,1.42-.4,2.14-.59ZM490.52,514.03c-.51-.82-.96-1.62-1.49-2.35-1.31-1.82-3.18-2.44-5.34-1.83-2.97.84-4.79,3.65-4.28,6.66.29,1.73,1.23,3.15,2.32,4.48,1.96,2.4,4.36,4.31,6.75,6.24.65.53,1.3,1.05,1.95,1.58.26-.21.48-.39.69-.57,2.2-1.83,4.43-3.63,6.58-5.52,1.42-1.25,2.63-2.71,3.42-4.47.83-1.84.84-3.66-.15-5.44-1.1-1.97-2.78-3.13-5.07-3.17-2.22-.03-3.71,1.18-4.7,3.08-.22.43-.44.85-.68,1.3Z"/>
  <text class="cls-17" transform="translate(19.07 105.87)"><tspan class="cls-14"><tspan x="0" y="0">Multi-location </tspan></tspan><tspan class="cls-19"><tspan x="0" y="28.8">5,127 cafés</tspan></tspan></text>
  <text class="cls-17" transform="translate(320.29 49.65)"><tspan class="cls-13" x="0" y="0">T</tspan><tspan class="cls-14" x="11.57" y="0">otal </tspan><tspan class="cls-19" x="59.59" y="0">5,191 cafés</tspan></text>
  <text class="cls-16" transform="translate(15.77 575.6)"><tspan class="cls-14"><tspan x="0" y="0">No website </tspan></tspan><tspan class="cls-19"><tspan x="0" y="26.4">827 cafés</tspan></tspan></text>
  <text class="cls-16" transform="translate(313.93 575.6)"><tspan class="cls-14"><tspan x="0" y="0">Community </tspan></tspan><tspan class="cls-14"><tspan x="0" y="26.4">events </tspan></tspan><tspan class="cls-19"><tspan x="0" y="52.8">443 cafés</tspan></tspan></text>
  <text class="cls-16" transform="translate(524.17 575.6)"><tspan class="cls-14"><tspan x="0" y="0">Design</tspan></tspan><tspan class="cls-14"><tspan x="0" y="26.4">minimal </tspan></tspan><tspan class="cls-19"><tspan x="0" y="52.8">248 </tspan></tspan><tspan class="cls-19"><tspan x="0" y="79.2">cafés</tspan></tspan></text>
  <text class="cls-16" transform="translate(392.94 718.8)"><tspan class="cls-14"><tspan x="0" y="0">Homemade </tspan></tspan><tspan class="cls-14"><tspan x="56.21" y="24">bakes</tspan></tspan><tspan class="cls-14" x="15.47" y="48"> </tspan><tspan class="cls-19" x="21.58" y="48">212 cafés</tspan></text>
  <text class="cls-16" transform="translate(445.55 872.35)"><tspan class="cls-14"><tspan x="0" y="0">Ethical sou</tspan><tspan class="cls-20" x="112.09" y="0">r</tspan><tspan x="119.44" y="0">cing</tspan></tspan><tspan class="cls-19"><tspan x="0" y="24">85 cafés</tspan></tspan></text>
  <text class="cls-16" transform="translate(387.15 926.84)"><tspan class="cls-14"><tspan x="0" y="0">Pet friendly </tspan></tspan><tspan class="cls-19"><tspan x="0" y="24">66 cafés</tspan></tspan></text>
  <text class="cls-16" transform="translate(524.17 794.04)"><tspan class="cls-14"><tspan class="cls-21" x="0" y="0">V</tspan><tspan x="12.23" y="0">egan</tspan></tspan><tspan class="cls-14"><tspan x="0" y="24">friendly </tspan></tspan><tspan class="cls-19"><tspan x="0" y="48">28 cafés </tspan></tspan></text>
  <text class="cls-16" transform="translate(310.65 722.64)"><tspan class="cls-14"><tspan x="0" y="0">Origin</tspan></tspan><tspan class="cls-14"><tspan x="0" y="26.4">focus </tspan></tspan><tspan class="cls-19"><tspan x="0" y="52.8">230 </tspan></tspan><tspan class="cls-19"><tspan x="0" y="79.2">cafés</tspan></tspan></text>
  <text class="cls-16" transform="translate(150.69 575.6)"><tspan class="cls-14"><tspan x="0" y="0">Local identity </tspan></tspan><tspan class="cls-19"><tspan x="0" y="26.4">1,004 cafés</tspan></tspan></text>
  <line class="cls-3" x1="448.1" y1="837.86" x2="448.1" y2="854.29"/>
  <line class="cls-3" x1="389.7" y1="837.86" x2="389.7" y2="908.62"/>
</svg>