<?xml version="1.0" encoding="UTF-8"?>
<svg xmlns="http://www.w3.org/2000/svg" version="1.1" viewBox="0 0 629.5 837.8">
  <defs>
    <style>
      .cls-1, .cls-2 {
        fill: none;
      }

      .cls-2, .cls-3, .cls-4, .cls-5, .cls-6, .cls-7, .cls-8, .cls-9, .cls-10, .cls-11 {
        stroke: #000;
        stroke-width: 2px;
      }

      .cls-3 {
        fill: #ffe2cc;
      }

      .cls-3, .cls-5, .cls-6, .cls-8, .cls-9, .cls-10, .cls-11 {
        opacity: .6;
      }

      .cls-12 {
        font-family: MyriadPro-Regular, 'Myriad Pro';
        font-size: 15px;
      }

      .cls-4 {
        fill: #f8bbd0;
      }

      .cls-5 {
        fill: #ef9a9a;
      }

      .cls-13 {
        font-size: 22px;
      }

      .cls-6 {
        fill: #90caf9;
      }

      .cls-14 {
        font-size: 24px;
      }

      .cls-7 {
        fill: #b39ddb;
      }

      .cls-15 {
        font-family: HelveticaNeue-Medium, 'Helvetica Neue';
        font-weight: 500;
      }

      .cls-8 {
        fill: #80cbc4;
      }

      .cls-16 {
        font-family: HelveticaNeue, 'Helvetica Neue';
      }

      .cls-9 {
        fill: #63d1b4;
      }

      .cls-10 {
        fill: #aed581;
      }

      .cls-11 {
        fill: #ffcc80;
      }
    </style>
  </defs>
  <!-- Generator: Adobe Illustrator 28.7.7, SVG Export Plug-In . SVG Version: 1.2.0 Build 194)  -->
  <g>
    <g id="Layer_1">
      <rect class="cls-1" x="11.2" y="50.2" width="509.1" height="771.7"/>
      <rect class="cls-11" x="369" y="49.6" width="242.4" height="374"/>
      <rect class="cls-8" x="12.1" y="49.6" width="356.8" height="187"/>
      <rect class="cls-5" x="12.1" y="236.5" width="356.8" height="187"/>
      <rect class="cls-7" x="322.8" y="423.5" width="288.5" height="226.9"/>
      <rect class="cls-6" x="322.8" y="650.4" width="288.5" height="170.2"/>
      <rect class="cls-4" x="12.1" y="423.5" width="310.7" height="158"/>
      <rect class="cls-10" x="185.9" y="581.6" width="136.9" height="239.1"/>
      <rect class="cls-3" x="12.1" y="581.6" width="173.8" height="137.6"/>
      <rect class="cls-9" x="12.1" y="719.2" width="173.8" height="101.4"/>
      <path class="cls-2" d="M22.2,14.4h138.5c5.6,0,10.1,4.5,10.1,10.1v25.1H12.1v-25.1c0-5.6,4.5-10.1,10.1-10.1Z"/>
      <text class="cls-14" transform="translate(22.4 88.1)"><tspan class="cls-15"><tspan x="0" y="0">Multi-location </tspan></tspan><tspan class="cls-16"><tspan x="0" y="28.8">53 cafés</tspan></tspan></text>
      <path d="M144,30.2l-4.3-5.9h3.3l2.6,3.8,2.7-3.8h3.2l-4.2,5.7,4.8,6.7h-3.3l-3.1-4.6-3,4.6h-3.2l4.7-6.5Z"/>
      <text class="cls-13" transform="translate(22.4 271.9)"><tspan class="cls-15"><tspan x="0" y="0">Community events </tspan></tspan><tspan class="cls-16"><tspan x="0" y="26.4">53 cafés</tspan></tspan></text>
      <text class="cls-13" transform="translate(335.1 686.2)"><tspan class="cls-15"><tspan x="0" y="0">Design minimal </tspan></tspan><tspan class="cls-16"><tspan x="0" y="26.4">39 cafés</tspan></tspan></text>
      <text class="cls-13" transform="translate(191.5 608.1)"><tspan class="cls-15"><tspan x="0" y="0">Homemade </tspan></tspan><tspan class="cls-15"><tspan x="0" y="24">bakes</tspan></tspan><tspan class="cls-16"><tspan x="0" y="48">26 cafés</tspan></tspan></text>
      <text class="cls-13" transform="translate(22.4 457.4)"><tspan class="cls-15"><tspan x="0" y="0">Ethical sourcing</tspan></tspan><tspan class="cls-16"><tspan x="0" y="24">39 cafés</tspan></tspan></text>
      <text class="cls-13" transform="translate(22.4 613.5)"><tspan class="cls-15"><tspan x="0" y="0">Pet friendly </tspan></tspan><tspan class="cls-16"><tspan x="0" y="24">19 cafés</tspan></tspan></text>
      <text class="cls-13" transform="translate(22.4 748.3)"><tspan class="cls-15"><tspan x="0" y="0">Vegan</tspan></tspan><tspan class="cls-15"><tspan x="0" y="24">friendly </tspan></tspan><tspan class="cls-16"><tspan x="0" y="48">14 cafés </tspan></tspan></text>
      <text class="cls-13" transform="translate(387.1 86.7)"><tspan class="cls-15"><tspan x="0" y="0">Origin focus </tspan></tspan><tspan class="cls-16"><tspan x="0" y="26.4">72 cafés</tspan></tspan></text>
      <text class="cls-13" transform="translate(335.1 457.4)"><tspan class="cls-15"><tspan x="0" y="0">Local identity </tspan></tspan><tspan class="cls-16"><tspan x="0" y="26.4">52 cafés</tspan></tspan></text>
    </g>
    <g id="ai2html-settings">
      <text id="ai2html-settings-2" data-name="ai2html-settings" class="cls-12" transform="translate(-450 10.6)"><tspan x="0" y="0">ai2html-settings</tspan><tspan x="0" y="19">settings_version: 0.121.1</tspan><tspan x="0" y="38">image_format: auto</tspan><tspan x="0" y="57">responsiveness: fixed</tspan><tspan x="0" y="76">include_resizer_script: false</tspan><tspan x="0" y="95">use_lazy_loader: false</tspan><tspan x="0" y="114">output: one-filev</tspan><tspan x="0" y="133">html_output_path: ai2html-output/</tspan><tspan x="0" y="152">image_output_path: ai2html-output/</tspan><tspan x="0" y="171">image_source_path: </tspan><tspan x="0" y="190">local_preview_template: </tspan><tspan x="0" y="209">png_number_of_colors: 128</tspan><tspan x="0" y="228">jpg_quality: 60</tspan><tspan x="0" y="247">headline: </tspan><tspan x="0" y="266">leadin: </tspan><tspan x="0" y="285">notes: </tspan><tspan x="0" y="304">sources: </tspan><tspan x="0" y="323">credit: </tspan></text>
      <text class="cls-14" transform="translate(443.7 37.6)"><tspan class="cls-15" x="0" y="0">Total </tspan><tspan class="cls-16" x="62.3" y="0">176 cafés</tspan></text>
    </g>
  </g>
</svg>