<?xml version="1.0" encoding="UTF-8"?>
<svg xmlns="http://www.w3.org/2000/svg" xmlns:xlink="http://www.w3.org/1999/xlink" version="1.1" viewBox="0 0 856.4 432">
  <defs>
    <style>
      .cls-1, .cls-2 {
        fill: none;
      }

      .cls-3 {
        fill: #b39ddb;
      }

      .cls-4 {
        fill: #80cbc4;
      }

      .cls-5 {
        fill: #90caf9;
      }

      .cls-6 {
        fill: #ef9a9a;
      }

      .cls-7 {
        fill: #f0f4c3;
      }

      .cls-8 {
        fill: #ccc;
      }

      .cls-9 {
        fill: #aed581;
      }

      .cls-10 {
        clip-path: url(#clippath-1);
      }

      .cls-11 {
        clip-path: url(#clippath-3);
      }

      .cls-12 {
        clip-path: url(#clippath-4);
      }

      .cls-13 {
        clip-path: url(#clippath-2);
      }

      .cls-14 {
        clip-path: url(#clippath-7);
      }

      .cls-15 {
        clip-path: url(#clippath-6);
      }

      .cls-16 {
        clip-path: url(#clippath-8);
      }

      .cls-17 {
        clip-path: url(#clippath-5);
      }

      .cls-18 {
        fill: #ffcc80;
      }

      .cls-19 {
        fill: #f8bbd0;
      }

      .cls-20 {
        stroke-linejoin: round;
      }

      .cls-20, .cls-2 {
        stroke: #000;
        stroke-width: .8px;
      }

      .cls-2 {
        stroke-linecap: square;
      }

      .cls-21 {
        clip-path: url(#clippath);
      }
    </style>
    <clipPath id="clippath">
      <rect class="cls-1" x="183" y="-7.2" width="660.9" height="402"/>
    </clipPath>
    <clipPath id="clippath-1">
      <rect class="cls-1" x="183" y="-7.2" width="660.9" height="402"/>
    </clipPath>
    <clipPath id="clippath-2">
      <rect class="cls-1" x="183" y="-7.2" width="660.9" height="402"/>
    </clipPath>
    <clipPath id="clippath-3">
      <rect class="cls-1" x="183" y="-7.2" width="660.9" height="402"/>
    </clipPath>
    <clipPath id="clippath-4">
      <rect class="cls-1" x="183" y="-7.2" width="660.9" height="402"/>
    </clipPath>
    <clipPath id="clippath-5">
      <rect class="cls-1" x="183" y="-7.2" width="660.9" height="402"/>
    </clipPath>
    <clipPath id="clippath-6">
      <rect class="cls-1" x="183" y="-7.2" width="660.9" height="402"/>
    </clipPath>
    <clipPath id="clippath-7">
      <rect class="cls-1" x="183" y="-7.2" width="660.9" height="402"/>
    </clipPath>
    <clipPath id="clippath-8">
      <rect class="cls-1" x="183" y="-7.2" width="660.9" height="402"/>
    </clipPath>
  </defs>
  <!-- Generator: Adobe Illustrator 28.7.7, SVG Export Plug-In . SVG Version: 1.2.0 Build 194)  -->
  <g>
    <g id="Layer_1">
      <g class="cls-21">
        <path class="cls-8" d="M183,376.5h3.4v-29.8h-3.4v29.8Z"/>
      </g>
      <g class="cls-10">
        <path class="cls-8" d="M183,339.2h8.1v-29.8h-8.1v29.8Z"/>
      </g>
      <g class="cls-13">
        <path class="cls-19" d="M183,301.9h10.4v-29.8h-10.4v29.8Z"/>
      </g>
      <g class="cls-11">
        <path class="cls-9" d="M183,264.6h26v-29.8h-26v29.8Z"/>
      </g>
      <g class="cls-12">
        <path class="cls-18" d="M183,227.3h28.2v-29.8h-28.2v29.8Z"/>
      </g>
      <g class="cls-17">
        <path class="cls-5" d="M183,190.1h30.4v-29.8h-30.4v29.8Z"/>
      </g>
      <g class="cls-15">
        <path class="cls-6" d="M183,152.8h54.4v-29.8h-54.4v29.8Z"/>
      </g>
      <g class="cls-14">
        <path class="cls-7" d="M183,115.5h101.5v-29.8h-101.5v29.8Z"/>
      </g>
      <g class="cls-16">
        <path class="cls-3" d="M183,78.2h123.3v-29.8h-123.3v29.8Z"/>
      </g>
      <path class="cls-4" d="M183,40.9h629.4V11.1H183v29.8Z"/>
      <g id="line2d_1">
        <path id="m61974eca53" class="cls-20" d="M183,394.8v3.9"/>
      </g>
      <g id="text_1">
        <path id="DejaVuSans-30" d="M183,403.6c-.6,0-1,.3-1.3.8-.3.6-.4,1.4-.4,2.5s.1,1.9.4,2.5c.3.6.7.8,1.3.8s1-.3,1.3-.8c.3-.6.4-1.4.4-2.5s-.1-1.9-.4-2.5c-.3-.6-.7-.8-1.3-.8ZM183,402.7c.9,0,1.6.4,2.1,1.1.5.7.7,1.8.7,3.1s-.2,2.4-.7,3.1c-.5.7-1.2,1.1-2.1,1.1s-1.6-.4-2.1-1.1c-.5-.7-.7-1.8-.7-3.1s.2-2.4.7-3.1c.5-.7,1.2-1.1,2.1-1.1Z"/>
      </g>
      <g id="line2d_2">
        <path id="m61974eca53-2" data-name="m61974eca53" class="cls-20" d="M310.5,394.8v3.9"/>
      </g>
      <g id="text_2">
        <g>
          <path id="DejaVuSans-32" d="M305.6,410h3.8v.9h-5.1v-.9c.4-.4,1-1,1.7-1.7.7-.7,1.2-1.2,1.4-1.4.3-.4.6-.7.7-1,.1-.3.2-.5.2-.8,0-.4-.2-.8-.5-1-.3-.3-.7-.4-1.2-.4s-.7,0-1.1.2c-.4.1-.8.3-1.2.5v-1.1c.4-.2.9-.3,1.2-.4.4,0,.7-.1,1.1-.1.8,0,1.5.2,2,.6.5.4.7,1,.7,1.7s0,.6-.2.9c-.1.3-.3.6-.7,1.1,0,.1-.4.4-.9.9-.5.5-1.2,1.2-2,2.1Z"/>
          <path id="DejaVuSans-30-2" data-name="DejaVuSans-30" d="M314,403.6c-.6,0-1,.3-1.3.8-.3.6-.4,1.4-.4,2.5s.1,1.9.4,2.5c.3.6.7.8,1.3.8s1-.3,1.3-.8c.3-.6.4-1.4.4-2.5s-.1-1.9-.4-2.5c-.3-.6-.7-.8-1.3-.8ZM314,402.7c.9,0,1.6.4,2.1,1.1.5.7.7,1.8.7,3.1s-.2,2.4-.7,3.1c-.5.7-1.2,1.1-2.1,1.1s-1.6-.4-2.1-1.1c-.5-.7-.7-1.8-.7-3.1s.2-2.4.7-3.1c.5-.7,1.2-1.1,2.1-1.1Z"/>
        </g>
      </g>
      <g id="line2d_3">
        <path id="m61974eca53-3" data-name="m61974eca53" class="cls-20" d="M438,394.8v3.9"/>
      </g>
      <g id="text_3">
        <g>
          <path id="DejaVuSans-34" d="M435.1,403.8l-2.8,4.3h2.8v-4.3ZM434.8,402.9h1.4v5.3h1.2v.9h-1.2v1.9h-1.1v-1.9h-3.6v-1.1l3.4-5.1Z"/>
          <path id="DejaVuSans-30-3" data-name="DejaVuSans-30" d="M441.5,403.6c-.6,0-1,.3-1.3.8-.3.6-.4,1.4-.4,2.5s.1,1.9.4,2.5c.3.6.7.8,1.3.8s1-.3,1.3-.8c.3-.6.4-1.4.4-2.5s-.1-1.9-.4-2.5c-.3-.6-.7-.8-1.3-.8ZM441.5,402.7c.9,0,1.6.4,2.1,1.1.5.7.7,1.8.7,3.1s-.2,2.4-.7,3.1c-.5.7-1.2,1.1-2.1,1.1s-1.6-.4-2.1-1.1c-.5-.7-.7-1.8-.7-3.1s.2-2.4.7-3.1c.5-.7,1.2-1.1,2.1-1.1Z"/>
        </g>
      </g>
      <g id="line2d_4">
        <path id="m61974eca53-4" data-name="m61974eca53" class="cls-20" d="M565.4,394.8v3.9"/>
      </g>
      <g id="text_4">
        <g>
          <path id="DejaVuSans-36" d="M562.1,406.5c-.5,0-.9.2-1.2.5-.3.3-.4.8-.4,1.4s.1,1,.4,1.4c.3.3.7.5,1.2.5s.9-.2,1.2-.5c.3-.3.4-.8.4-1.4s-.1-1-.4-1.4c-.3-.3-.7-.5-1.2-.5ZM564.2,403.1v1c-.3-.1-.6-.2-.8-.3-.3,0-.6-.1-.8-.1-.7,0-1.3.2-1.7.7-.4.5-.6,1.2-.7,2.2.2-.3.5-.6.8-.7.3-.2.7-.3,1.1-.3.8,0,1.5.2,1.9.7.5.5.7,1.2.7,2s-.2,1.5-.7,2c-.5.5-1.1.8-2,.8s-1.6-.4-2.1-1.1c-.5-.7-.7-1.8-.7-3.1s.3-2.3.9-3.1c.6-.8,1.4-1.1,2.4-1.1s.6,0,.8,0,.6.1.9.2Z"/>
          <path id="DejaVuSans-30-4" data-name="DejaVuSans-30" d="M569,403.6c-.6,0-1,.3-1.3.8-.3.6-.4,1.4-.4,2.5s.1,1.9.4,2.5c.3.6.7.8,1.3.8s1-.3,1.3-.8c.3-.6.4-1.4.4-2.5s-.1-1.9-.4-2.5c-.3-.6-.7-.8-1.3-.8ZM569,402.7c.9,0,1.6.4,2.1,1.1.5.7.7,1.8.7,3.1s-.2,2.4-.7,3.1c-.5.7-1.2,1.1-2.1,1.1s-1.6-.4-2.1-1.1c-.5-.7-.7-1.8-.7-3.1s.2-2.4.7-3.1c.5-.7,1.2-1.1,2.1-1.1Z"/>
        </g>
      </g>
      <g id="line2d_5">
        <path id="m61974eca53-5" data-name="m61974eca53" class="cls-20" d="M692.9,394.8v3.9"/>
      </g>
      <g id="text_5">
        <g>
          <path id="DejaVuSans-38" d="M689.4,407.1c-.5,0-.9.1-1.2.4-.3.3-.4.7-.4,1.1s.1.9.4,1.1c.3.3.7.4,1.2.4s.9-.1,1.2-.4c.3-.3.5-.7.5-1.1s-.1-.9-.4-1.1c-.3-.3-.7-.4-1.2-.4ZM688.3,406.7c-.5-.1-.8-.3-1.1-.7-.3-.3-.4-.7-.4-1.2s.2-1.2.7-1.5c.5-.4,1.1-.6,1.9-.6s1.4.2,1.9.6.7.9.7,1.5-.1.9-.4,1.2c-.3.3-.6.5-1.1.7.5.1.9.4,1.2.7.3.4.4.8.4,1.3,0,.8-.2,1.4-.7,1.8-.5.4-1.2.6-2.1.6s-1.6-.2-2.1-.6c-.5-.4-.7-1-.7-1.8s.1-1,.4-1.3c.3-.4.7-.6,1.2-.7ZM687.9,404.9c0,.4.1.7.4,1,.3.2.6.4,1.1.4s.8-.1,1.1-.4c.3-.2.4-.6.4-1s-.1-.7-.4-1c-.3-.2-.6-.4-1.1-.4s-.8.1-1.1.4c-.3.2-.4.6-.4,1Z"/>
          <path id="DejaVuSans-30-5" data-name="DejaVuSans-30" d="M696.5,403.6c-.6,0-1,.3-1.3.8-.3.6-.4,1.4-.4,2.5s.1,1.9.4,2.5c.3.6.7.8,1.3.8s1-.3,1.3-.8c.3-.6.4-1.4.4-2.5s-.1-1.9-.4-2.5c-.3-.6-.7-.8-1.3-.8ZM696.5,402.7c.9,0,1.6.4,2.1,1.1.5.7.7,1.8.7,3.1s-.2,2.4-.7,3.1c-.5.7-1.2,1.1-2.1,1.1s-1.6-.4-2.1-1.1c-.5-.7-.7-1.8-.7-3.1s.2-2.4.7-3.1c.5-.7,1.2-1.1,2.1-1.1Z"/>
        </g>
      </g>
      <g id="line2d_6">
        <path id="m61974eca53-6" data-name="m61974eca53" class="cls-20" d="M820.4,394.8v3.9"/>
      </g>
      <g id="text_6">
        <g>
          <path id="DejaVuSans-31" d="M811.2,410h1.8v-6.2l-1.9.4v-1l1.9-.4h1.1v7.2h1.8v.9h-4.7v-.9Z"/>
          <path id="DejaVuSans-30-6" data-name="DejaVuSans-30" d="M820.4,403.6c-.6,0-1,.3-1.3.8-.3.6-.4,1.4-.4,2.5s.1,1.9.4,2.5c.3.6.7.8,1.3.8s1-.3,1.3-.8c.3-.6.4-1.4.4-2.5s-.1-1.9-.4-2.5c-.3-.6-.7-.8-1.3-.8ZM820.4,402.7c.9,0,1.6.4,2.1,1.1.5.7.7,1.8.7,3.1s-.2,2.4-.7,3.1c-.5.7-1.2,1.1-2.1,1.1s-1.6-.4-2.1-1.1c-.5-.7-.7-1.8-.7-3.1s.2-2.4.7-3.1c.5-.7,1.2-1.1,2.1-1.1Z"/>
          <path id="DejaVuSans-30-7" data-name="DejaVuSans-30" d="M827.5,403.6c-.6,0-1,.3-1.3.8-.3.6-.4,1.4-.4,2.5s.1,1.9.4,2.5c.3.6.7.8,1.3.8s1-.3,1.3-.8c.3-.6.4-1.4.4-2.5s-.1-1.9-.4-2.5c-.3-.6-.7-.8-1.3-.8ZM827.5,402.7c.9,0,1.6.4,2.1,1.1.5.7.7,1.8.7,3.1s-.2,2.4-.7,3.1c-.5.7-1.2,1.1-2.1,1.1s-1.6-.4-2.1-1.1c-.5-.7-.7-1.8-.7-3.1s.2-2.4.7-3.1c.5-.7,1.2-1.1,2.1-1.1Z"/>
        </g>
      </g>
      <g>
        <path id="DejaVuSans-50" d="M448.8,419.4v3h1.4c.5,0,.9-.1,1.2-.4.3-.3.4-.6.4-1.1s-.1-.9-.4-1.1c-.3-.3-.7-.4-1.2-.4h-1.4ZM447.7,418.5h2.5c.9,0,1.6.2,2.1.6.5.4.7,1,.7,1.8s-.2,1.4-.7,1.8c-.5.4-1.1.6-2.1.6h-1.4v3.2h-1.1v-8.1Z"/>
        <path id="DejaVuSans-65" d="M459.1,423.3v.5h-4.6c0,.7.3,1.2.6,1.6.4.4.9.5,1.5.5s.8,0,1.1-.1.7-.2,1.1-.4v.9c-.4.2-.7.3-1.1.3s-.8.1-1.1.1c-1,0-1.7-.3-2.3-.8-.6-.6-.8-1.3-.8-2.3s.3-1.8.8-2.4c.5-.6,1.3-.9,2.2-.9s1.5.3,1.9.8c.5.5.7,1.2.7,2.1ZM458.1,423c0-.5-.2-1-.5-1.3-.3-.3-.7-.5-1.2-.5s-1,.2-1.3.5-.5.8-.6,1.3h3.5Z"/>
        <path id="DejaVuSans-72" d="M464.2,421.4c-.1,0-.2-.1-.4-.1-.1,0-.3,0-.4,0-.6,0-1,.2-1.3.5s-.5.9-.5,1.6v3.2h-1v-6.1h1v.9c.2-.4.5-.6.8-.8.3-.2.7-.3,1.2-.3s.1,0,.2,0c0,0,.2,0,.3,0v1Z"/>
        <path id="DejaVuSans-63" d="M469.4,420.7v.9c-.3-.2-.6-.3-.8-.3s-.6-.1-.9-.1c-.6,0-1.1.2-1.5.6-.4.4-.5,1-.5,1.7s.2,1.3.5,1.7c.4.4.9.6,1.5.6s.6,0,.9-.1.6-.2.8-.3v.9c-.3.1-.6.2-.9.3-.3,0-.6,0-.9,0-.9,0-1.6-.3-2.2-.9-.5-.6-.8-1.3-.8-2.3s.3-1.8.8-2.3c.5-.6,1.3-.9,2.2-.9s.6,0,.9,0c.3,0,.6.2.9.3Z"/>
        <path id="DejaVuSans-65-2" data-name="DejaVuSans-65" d="M476.3,423.3v.5h-4.6c0,.7.3,1.2.6,1.6.4.4.9.5,1.5.5s.8,0,1.1-.1.7-.2,1.1-.4v.9c-.4.2-.7.3-1.1.3s-.8.1-1.1.1c-1,0-1.7-.3-2.3-.8-.6-.6-.8-1.3-.8-2.3s.3-1.8.8-2.4c.5-.6,1.3-.9,2.2-.9s1.5.3,1.9.8c.5.5.7,1.2.7,2.1ZM475.3,423c0-.5-.2-1-.5-1.3-.3-.3-.7-.5-1.2-.5s-1,.2-1.3.5-.5.8-.6,1.3h3.5Z"/>
        <path id="DejaVuSans-6e" d="M483,422.9v3.7h-1v-3.6c0-.6-.1-1-.3-1.3-.2-.3-.6-.4-1-.4s-1,.2-1.3.5c-.3.3-.5.8-.5,1.4v3.4h-1v-6.1h1v.9c.2-.4.5-.6.8-.8.3-.2.7-.3,1.1-.3.7,0,1.2.2,1.6.6.4.4.5,1.1.5,1.9Z"/>
        <path id="DejaVuSans-74" d="M485.9,418.8v1.7h2v.8h-2v3.3c0,.5,0,.8.2,1s.4.2.8.2h1v.8h-1c-.8,0-1.3-.1-1.6-.4-.3-.3-.4-.8-.4-1.6v-3.3h-.7v-.8h.7v-1.7h1Z"/>
        <path id="DejaVuSans-61" d="M492.1,423.5c-.8,0-1.4,0-1.7.3s-.5.5-.5.9.1.6.3.8c.2.2.5.3.9.3s1-.2,1.3-.6.5-.9.5-1.6v-.2h-1ZM494,423.1v3.5h-1v-.9c-.2.4-.5.6-.9.8-.3.2-.8.3-1.2.3s-1.1-.2-1.5-.5c-.4-.3-.5-.8-.5-1.4s.2-1.2.7-1.5c.5-.3,1.1-.5,2-.5h1.4c0-.6-.2-.9-.5-1.2s-.7-.4-1.3-.4-.7,0-1,.1c-.3,0-.6.2-.9.4v-.9c.4-.1.7-.2,1.1-.3.3,0,.7-.1,1-.1.9,0,1.5.2,2,.7.4.5.6,1.1.6,2.1Z"/>
        <path id="DejaVuSans-67" d="M500.1,423.5c0-.7-.1-1.3-.4-1.7-.3-.4-.7-.6-1.3-.6s-.9.2-1.2.6c-.3.4-.4,1-.4,1.7s.1,1.3.4,1.7c.3.4.7.6,1.2.6s1-.2,1.3-.6c.3-.4.4-1,.4-1.7ZM501.1,425.8c0,1-.2,1.8-.7,2.3-.5.5-1.2.8-2.1.8s-.7,0-1,0-.6-.1-.9-.2v-1c.3.2.6.3.9.3.3,0,.6.1.9.1.7,0,1.1-.2,1.5-.5.3-.3.5-.9.5-1.5v-.5c-.2.4-.5.6-.8.8s-.7.3-1.2.3c-.7,0-1.3-.3-1.8-.8-.5-.6-.7-1.3-.7-2.3s.2-1.7.7-2.3c.5-.6,1.1-.9,1.8-.9s.8,0,1.2.3.6.4.8.8v-.9h1v5.3Z"/>
        <path id="DejaVuSans-65-3" data-name="DejaVuSans-65" d="M508.3,423.3v.5h-4.6c0,.7.3,1.2.6,1.6.4.4.9.5,1.5.5s.8,0,1.1-.1.7-.2,1.1-.4v.9c-.4.2-.7.3-1.1.3s-.8.1-1.1.1c-1,0-1.7-.3-2.3-.8-.6-.6-.8-1.3-.8-2.3s.3-1.8.8-2.4c.5-.6,1.3-.9,2.2-.9s1.5.3,1.9.8c.5.5.7,1.2.7,2.1ZM507.3,423c0-.5-.2-1-.5-1.3-.3-.3-.7-.5-1.2-.5s-1,.2-1.3.5-.5.8-.6,1.3h3.5Z"/>
        <path id="DejaVuSans-20" d="M508.9,426.6"/>
        <path id="DejaVuSans-6f" d="M515.8,421.2c-.5,0-1,.2-1.3.6s-.5,1-.5,1.7.2,1.3.5,1.7c.3.4.7.6,1.3.6s1-.2,1.3-.6c.3-.4.5-1,.5-1.7s-.2-1.3-.5-1.7c-.3-.4-.7-.6-1.3-.6ZM515.8,420.4c.9,0,1.5.3,2,.8.5.6.7,1.3.7,2.3s-.2,1.8-.7,2.3c-.5.6-1.2.8-2,.8s-1.6-.3-2-.8c-.5-.6-.7-1.3-.7-2.3s.2-1.8.7-2.3c.5-.6,1.2-.8,2-.8Z"/>
        <path id="DejaVuSans-66" d="M523.3,418.1v.8h-1c-.4,0-.6,0-.7.2-.1.1-.2.4-.2.8v.5h1.6v.8h-1.6v5.3h-1v-5.3h-1v-.8h1v-.4c0-.7.2-1.2.5-1.5.3-.3.8-.5,1.5-.5h.9Z"/>
        <path id="DejaVuSans-20-2" data-name="DejaVuSans-20" d="M523.1,426.6"/>
        <path id="DejaVuSans-43" d="M533.8,419.1v1.2c-.4-.3-.8-.6-1.2-.8-.4-.2-.9-.3-1.3-.3-.9,0-1.6.3-2.1.8s-.7,1.4-.7,2.4.2,1.9.7,2.4,1.2.8,2.1.8.9,0,1.3-.3.8-.4,1.2-.8v1.1c-.4.3-.8.5-1.2.6-.4.1-.9.2-1.4.2-1.2,0-2.2-.4-2.9-1.1-.7-.7-1.1-1.8-1.1-3.1s.4-2.3,1.1-3.1c.7-.7,1.7-1.1,2.9-1.1s.9,0,1.4.2c.4.1.8.3,1.2.6Z"/>
        <path id="DejaVuSans-61-2" data-name="DejaVuSans-61" d="M538.2,423.5c-.8,0-1.4,0-1.7.3s-.5.5-.5.9.1.6.3.8c.2.2.5.3.9.3s1-.2,1.3-.6.5-.9.5-1.6v-.2h-1ZM540.1,423.1v3.5h-1v-.9c-.2.4-.5.6-.9.8-.3.2-.8.3-1.2.3s-1.1-.2-1.5-.5c-.4-.3-.5-.8-.5-1.4s.2-1.2.7-1.5c.5-.3,1.1-.5,2-.5h1.4c0-.6-.2-.9-.5-1.2s-.7-.4-1.3-.4-.7,0-1,.1c-.3,0-.6.2-.9.4v-.9c.4-.1.7-.2,1.1-.3.3,0,.7-.1,1-.1.9,0,1.5.2,2,.7.4.5.6,1.1.6,2.1Z"/>
        <path id="DejaVuSans-66-2" data-name="DejaVuSans-66" d="M545.3,418.1v.8h-1c-.4,0-.6,0-.7.2-.1.1-.2.4-.2.8v.5h1.6v.8h-1.6v5.3h-1v-5.3h-1v-.8h1v-.4c0-.7.2-1.2.5-1.5.3-.3.8-.5,1.5-.5h.9Z"/>
        <path id="DejaVuSans-e9" d="M551.3,423.3v.5h-4.6c0,.7.3,1.2.6,1.6.4.4.9.5,1.5.5s.8,0,1.1-.1.7-.2,1.1-.4v.9c-.4.2-.7.3-1.1.3s-.8.1-1.1.1c-1,0-1.7-.3-2.3-.8-.6-.6-.8-1.3-.8-2.3s.3-1.8.8-2.4c.5-.6,1.3-.9,2.2-.9s1.5.3,1.9.8c.5.5.7,1.2.7,2.1ZM550.3,423c0-.5-.2-1-.5-1.3-.3-.3-.7-.5-1.2-.5s-1,.2-1.3.5-.5.8-.6,1.3h3.5ZM549.3,417.7h1.1l-1.8,2h-.8l1.5-2Z"/>
        <path id="DejaVuSans-73" d="M556.8,420.7v.9c-.3-.1-.6-.3-.9-.3-.3,0-.6-.1-.9-.1-.5,0-.9,0-1.1.2-.2.2-.4.4-.4.7s0,.4.3.5.5.3,1.1.4h.3c.7.2,1.2.4,1.5.7s.4.7.4,1.2-.2,1-.7,1.3c-.4.3-1.1.5-1.8.5s-.7,0-1,0c-.4,0-.7-.2-1.1-.3v-1c.4.2.7.3,1.1.4.4,0,.7.1,1.1.1s.8,0,1.1-.2c.3-.2.4-.4.4-.7s0-.5-.3-.6c-.2-.1-.6-.3-1.2-.4h-.3c-.6-.2-1.1-.4-1.3-.7-.3-.3-.4-.6-.4-1.1s.2-1,.6-1.3c.4-.3,1-.5,1.7-.5s.7,0,1,0c.3,0,.6.1.9.2Z"/>
        <path id="DejaVuSans-20-3" data-name="DejaVuSans-20" d="M557.6,426.6"/>
        <path id="DejaVuSans-28" d="M564.6,418.2c-.5.8-.8,1.6-1.1,2.5-.2.8-.4,1.6-.4,2.5s.1,1.7.4,2.5.6,1.6,1.1,2.5h-.9c-.5-.8-.9-1.7-1.2-2.5-.3-.8-.4-1.6-.4-2.4s.1-1.6.4-2.4c.3-.8.7-1.6,1.2-2.5h.9Z"/>
        <path id="DejaVuSans-25" d="M573.5,423c-.3,0-.6.1-.7.4-.2.3-.3.6-.3,1.1s0,.8.3,1.1c.2.3.4.4.7.4s.5-.1.7-.4c.2-.3.3-.6.3-1.1s0-.8-.3-1.1c-.2-.3-.4-.4-.7-.4ZM573.5,422.3c.6,0,1,.2,1.4.6.3.4.5.9.5,1.6s-.2,1.2-.5,1.6c-.3.4-.8.6-1.4.6s-1-.2-1.4-.6c-.3-.4-.5-.9-.5-1.6s.2-1.2.5-1.6.8-.6,1.4-.6ZM568,419c-.3,0-.6.1-.7.4-.2.3-.3.6-.3,1.1s0,.8.3,1.1c.2.3.4.4.7.4s.6-.1.7-.4c.2-.3.3-.6.3-1.1s0-.8-.3-1.1c-.2-.3-.4-.4-.7-.4ZM572.8,418.3h.9l-5.1,8.4h-.9l5.1-8.4ZM568,418.3c.6,0,1,.2,1.4.6.3.4.5.9.5,1.6s-.2,1.2-.5,1.6c-.3.4-.8.6-1.4.6s-1-.2-1.4-.6c-.3-.4-.5-.9-.5-1.6s.2-1.2.5-1.6c.3-.4.8-.6,1.4-.6Z"/>
        <path id="DejaVuSans-29" d="M576.9,418.2h.9c.5.9.9,1.7,1.2,2.5.3.8.4,1.6.4,2.4s-.1,1.6-.4,2.4c-.3.8-.7,1.7-1.2,2.5h-.9c.5-.8.8-1.6,1.1-2.5.2-.8.4-1.6.4-2.5s-.1-1.7-.4-2.5c-.2-.8-.6-1.6-1.1-2.5Z"/>
      </g>
      <g id="line2d_7">
        <path id="m29b688780c" class="cls-20" d="M183,361.6h-3.9"/>
      </g>
      <g id="text_8">
        <g>
          <path id="DejaVuSans-76" d="M52.5,358.8h1.5l2.7,7.2,2.7-7.2h1.5l-3.2,8.6h-1.9l-3.2-8.6Z"/>
          <path id="DejaVuSans-65-4" data-name="DejaVuSans-65" d="M70.2,362.7v.7h-6.5c0,1,.4,1.7.9,2.2.5.5,1.3.8,2.2.8s1.1,0,1.6-.2,1-.3,1.5-.6v1.3c-.5.2-1,.4-1.6.5s-1.1.2-1.6.2c-1.4,0-2.5-.4-3.3-1.2-.8-.8-1.2-1.9-1.2-3.3s.4-2.5,1.1-3.4c.8-.8,1.8-1.2,3.1-1.2s2.1.4,2.8,1.1c.7.7,1,1.8,1,3ZM68.8,362.3c0-.8-.2-1.4-.7-1.9-.4-.5-1-.7-1.7-.7s-1.4.2-1.9.7-.7,1.1-.8,1.9h5.1Z"/>
          <path id="DejaVuSans-67-2" data-name="DejaVuSans-67" d="M78.2,363c0-1-.2-1.8-.6-2.4-.4-.6-1-.8-1.8-.8s-1.4.3-1.8.8c-.4.6-.6,1.4-.6,2.4s.2,1.8.6,2.4c.4.6,1,.8,1.8.8s1.4-.3,1.8-.8c.4-.6.6-1.4.6-2.4ZM79.7,366.3c0,1.5-.3,2.6-1,3.3-.7.7-1.7,1.1-3,1.1s-1,0-1.4-.1-.9-.2-1.3-.3v-1.4c.4.2.8.4,1.2.5.4.1.8.2,1.2.2.9,0,1.6-.2,2.1-.7.5-.5.7-1.2.7-2.2v-.7c-.3.5-.7.9-1.1,1.1s-1,.4-1.6.4c-1.1,0-1.9-.4-2.6-1.2-.6-.8-1-1.9-1-3.2s.3-2.4,1-3.2c.6-.8,1.5-1.2,2.6-1.2s1.2.1,1.6.4.8.6,1.1,1.1v-1.3h1.4v7.6Z"/>
          <path id="DejaVuSans-61-3" data-name="DejaVuSans-61" d="M86.5,363.1c-1.1,0-1.9.1-2.4.4s-.7.7-.7,1.3.2.9.5,1.2c.3.3.8.4,1.4.4s1.4-.3,1.9-.8.7-1.3.7-2.2v-.3h-1.4ZM89.3,362.5v4.9h-1.4v-1.3c-.3.5-.7.9-1.2,1.2-.5.2-1.1.4-1.8.4s-1.6-.2-2.1-.7c-.5-.5-.8-1.2-.8-2s.3-1.7,1-2.2c.7-.5,1.6-.7,2.9-.7h2c0-.8-.2-1.3-.6-1.7s-1-.5-1.8-.5-1,0-1.4.2c-.5.1-.9.3-1.3.5v-1.3c.5-.2,1-.4,1.5-.4.5-.1,1-.2,1.4-.2,1.2,0,2.2.3,2.8,1,.6.6.9,1.6.9,2.9Z"/>
          <path id="DejaVuSans-6e-2" data-name="DejaVuSans-6e" d="M99.4,362.2v5.2h-1.4v-5.2c0-.8-.2-1.4-.5-1.8-.3-.4-.8-.6-1.4-.6s-1.4.2-1.8.7c-.4.5-.7,1.2-.7,2v4.9h-1.4v-8.6h1.4v1.3c.3-.5.7-.9,1.2-1.2.5-.3,1-.4,1.6-.4,1,0,1.7.3,2.2.9.5.6.8,1.5.8,2.7Z"/>
          <path id="DejaVuSans-66-3" data-name="DejaVuSans-66" d="M114.5,355.4v1.2h-1.4c-.5,0-.9.1-1.1.3-.2.2-.3.6-.3,1.1v.8h2.3v1.1h-2.3v7.5h-1.4v-7.5h-1.4v-1.1h1.4v-.6c0-1,.2-1.7.7-2.1.4-.4,1.2-.7,2.1-.7h1.3Z"/>
          <path id="DejaVuSans-72-2" data-name="DejaVuSans-72" d="M120.7,360.1c-.2,0-.3-.2-.5-.2-.2,0-.4,0-.6,0-.8,0-1.4.3-1.8.8s-.6,1.3-.6,2.2v4.5h-1.4v-8.6h1.4v1.3c.3-.5.7-.9,1.2-1.2.5-.3,1.1-.4,1.7-.4s.2,0,.3,0c.1,0,.2,0,.4,0v1.5Z"/>
          <path id="DejaVuSans-69" d="M122.2,358.8h1.4v8.6h-1.4v-8.6ZM122.2,355.4h1.4v1.8h-1.4v-1.8Z"/>
          <path id="DejaVuSans-65-5" data-name="DejaVuSans-65" d="M134,362.7v.7h-6.5c0,1,.4,1.7.9,2.2.5.5,1.3.8,2.2.8s1.1,0,1.6-.2,1-.3,1.5-.6v1.3c-.5.2-1,.4-1.6.5s-1.1.2-1.6.2c-1.4,0-2.5-.4-3.3-1.2-.8-.8-1.2-1.9-1.2-3.3s.4-2.5,1.1-3.4c.8-.8,1.8-1.2,3.1-1.2s2.1.4,2.8,1.1c.7.7,1,1.8,1,3ZM132.6,362.3c0-.8-.2-1.4-.7-1.9-.4-.5-1-.7-1.7-.7s-1.4.2-1.9.7-.7,1.1-.8,1.9h5.1Z"/>
          <path id="DejaVuSans-6e-3" data-name="DejaVuSans-6e" d="M143.5,362.2v5.2h-1.4v-5.2c0-.8-.2-1.4-.5-1.8-.3-.4-.8-.6-1.4-.6s-1.4.2-1.8.7c-.4.5-.7,1.2-.7,2v4.9h-1.4v-8.6h1.4v1.3c.3-.5.7-.9,1.2-1.2.5-.3,1-.4,1.6-.4,1,0,1.7.3,2.2.9.5.6.8,1.5.8,2.7Z"/>
          <path id="DejaVuSans-64" d="M152,360.1v-4.7h1.4v12h-1.4v-1.3c-.3.5-.7.9-1.1,1.1-.5.2-1,.4-1.6.4-1,0-1.9-.4-2.5-1.2-.7-.8-1-1.9-1-3.3s.3-2.5,1-3.3c.7-.8,1.5-1.2,2.5-1.2s1.2.1,1.6.4c.5.2.8.6,1.1,1.1ZM147.2,363.1c0,1,.2,1.9.6,2.5.4.6,1,.9,1.8.9s1.3-.3,1.8-.9c.4-.6.6-1.4.6-2.5s-.2-1.9-.6-2.5c-.4-.6-1-.9-1.8-.9s-1.3.3-1.8.9-.6,1.4-.6,2.5Z"/>
          <path id="DejaVuSans-6c" d="M156.3,355.4h1.4v12h-1.4v-12Z"/>
          <path id="DejaVuSans-79" d="M164.3,368.2c-.4,1-.8,1.7-1.2,2-.4.3-.9.5-1.5.5h-1.1v-1.2h.8c.4,0,.7,0,.9-.3.2-.2.5-.6.7-1.3l.3-.6-3.5-8.5h1.5l2.7,6.8,2.7-6.8h1.5l-3.8,9.4Z"/>
        </g>
      </g>
      <g id="line2d_8">
        <path id="m29b688780c-2" data-name="m29b688780c" class="cls-20" d="M183,324.3h-3.9"/>
      </g>
      <g id="text_9">
        <g>
          <path id="DejaVuSans-70" d="M77.7,327.1v4.6h-1.4v-11.9h1.4v1.3c.3-.5.7-.9,1.1-1.1.5-.2,1-.4,1.6-.4,1,0,1.9.4,2.6,1.2.7.8,1,1.9,1,3.3s-.3,2.5-1,3.3c-.7.8-1.5,1.2-2.6,1.2s-1.2-.1-1.6-.4c-.5-.2-.8-.6-1.1-1.1ZM82.5,324.1c0-1-.2-1.9-.6-2.5s-1-.9-1.8-.9-1.3.3-1.8.9-.6,1.4-.6,2.5.2,1.9.6,2.5c.4.6,1,.9,1.8.9s1.3-.3,1.8-.9c.4-.6.6-1.4.6-2.5Z"/>
          <path id="DejaVuSans-65-6" data-name="DejaVuSans-65" d="M93.7,323.8v.7h-6.5c0,1,.4,1.7.9,2.2.5.5,1.3.8,2.2.8s1.1,0,1.6-.2,1-.3,1.5-.6v1.3c-.5.2-1,.4-1.6.5s-1.1.2-1.6.2c-1.4,0-2.5-.4-3.3-1.2-.8-.8-1.2-1.9-1.2-3.3s.4-2.5,1.1-3.4c.8-.8,1.8-1.2,3.1-1.2s2.1.4,2.8,1.1c.7.7,1,1.8,1,3ZM92.3,323.4c0-.8-.2-1.4-.7-1.9-.4-.5-1-.7-1.7-.7s-1.4.2-1.9.7-.7,1.1-.8,1.9h5.1Z"/>
          <path id="DejaVuSans-74-2" data-name="DejaVuSans-74" d="M97.5,317.4v2.5h2.9v1.1h-2.9v4.7c0,.7,0,1.2.3,1.4s.6.3,1.2.3h1.5v1.2h-1.5c-1.1,0-1.9-.2-2.3-.6-.4-.4-.6-1.2-.6-2.2v-4.7h-1v-1.1h1v-2.5h1.4Z"/>
          <path id="DejaVuSans-66-4" data-name="DejaVuSans-66" d="M114.5,316.4v1.2h-1.4c-.5,0-.9.1-1.1.3-.2.2-.3.6-.3,1.1v.8h2.3v1.1h-2.3v7.5h-1.4v-7.5h-1.4v-1.1h1.4v-.6c0-1,.2-1.7.7-2.1.4-.4,1.2-.7,2.1-.7h1.3Z"/>
          <path id="DejaVuSans-72-3" data-name="DejaVuSans-72" d="M120.7,321.1c-.2,0-.3-.2-.5-.2-.2,0-.4,0-.6,0-.8,0-1.4.3-1.8.8s-.6,1.3-.6,2.2v4.5h-1.4v-8.6h1.4v1.3c.3-.5.7-.9,1.2-1.2.5-.3,1.1-.4,1.7-.4s.2,0,.3,0c.1,0,.2,0,.4,0v1.5Z"/>
          <path id="DejaVuSans-69-2" data-name="DejaVuSans-69" d="M122.2,319.8h1.4v8.6h-1.4v-8.6ZM122.2,316.4h1.4v1.8h-1.4v-1.8Z"/>
          <path id="DejaVuSans-65-7" data-name="DejaVuSans-65" d="M134,323.8v.7h-6.5c0,1,.4,1.7.9,2.2.5.5,1.3.8,2.2.8s1.1,0,1.6-.2,1-.3,1.5-.6v1.3c-.5.2-1,.4-1.6.5s-1.1.2-1.6.2c-1.4,0-2.5-.4-3.3-1.2-.8-.8-1.2-1.9-1.2-3.3s.4-2.5,1.1-3.4c.8-.8,1.8-1.2,3.1-1.2s2.1.4,2.8,1.1c.7.7,1,1.8,1,3ZM132.6,323.4c0-.8-.2-1.4-.7-1.9-.4-.5-1-.7-1.7-.7s-1.4.2-1.9.7-.7,1.1-.8,1.9h5.1Z"/>
          <path id="DejaVuSans-6e-4" data-name="DejaVuSans-6e" d="M143.5,323.2v5.2h-1.4v-5.2c0-.8-.2-1.4-.5-1.8-.3-.4-.8-.6-1.4-.6s-1.4.2-1.8.7c-.4.5-.7,1.2-.7,2v4.9h-1.4v-8.6h1.4v1.3c.3-.5.7-.9,1.2-1.2.5-.3,1-.4,1.6-.4,1,0,1.7.3,2.2.9.5.6.8,1.5.8,2.7Z"/>
          <path id="DejaVuSans-64-2" data-name="DejaVuSans-64" d="M152,321.1v-4.7h1.4v12h-1.4v-1.3c-.3.5-.7.9-1.1,1.1-.5.2-1,.4-1.6.4-1,0-1.9-.4-2.5-1.2-.7-.8-1-1.9-1-3.3s.3-2.5,1-3.3c.7-.8,1.5-1.2,2.5-1.2s1.2.1,1.6.4c.5.2.8.6,1.1,1.1ZM147.2,324.1c0,1,.2,1.9.6,2.5.4.6,1,.9,1.8.9s1.3-.3,1.8-.9c.4-.6.6-1.4.6-2.5s-.2-1.9-.6-2.5c-.4-.6-1-.9-1.8-.9s-1.3.3-1.8.9-.6,1.4-.6,2.5Z"/>
          <path id="DejaVuSans-6c-2" data-name="DejaVuSans-6c" d="M156.3,316.4h1.4v12h-1.4v-12Z"/>
          <path id="DejaVuSans-79-2" data-name="DejaVuSans-79" d="M164.3,329.2c-.4,1-.8,1.7-1.2,2-.4.3-.9.5-1.5.5h-1.1v-1.2h.8c.4,0,.7,0,.9-.3.2-.2.5-.6.7-1.3l.3-.6-3.5-8.5h1.5l2.7,6.8,2.7-6.8h1.5l-3.8,9.4Z"/>
        </g>
      </g>
      <g id="line2d_9">
        <path id="m29b688780c-3" data-name="m29b688780c" class="cls-20" d="M183,287h-3.9"/>
      </g>
      <g id="text_10">
        <g>
          <path id="DejaVuSans-65-8" data-name="DejaVuSans-65" d="M50.4,286.5v.7h-6.5c0,1,.4,1.7.9,2.2.5.5,1.3.8,2.2.8s1.1,0,1.6-.2,1-.3,1.5-.6v1.3c-.5.2-1,.4-1.6.5s-1.1.2-1.6.2c-1.4,0-2.5-.4-3.3-1.2-.8-.8-1.2-1.9-1.2-3.3s.4-2.5,1.1-3.4c.8-.8,1.8-1.2,3.1-1.2s2.1.4,2.8,1.1c.7.7,1,1.8,1,3ZM48.9,286.1c0-.8-.2-1.4-.7-1.9-.4-.5-1-.7-1.7-.7s-1.4.2-1.9.7-.7,1.1-.8,1.9h5.1Z"/>
          <path id="DejaVuSans-74-3" data-name="DejaVuSans-74" d="M54.1,280.1v2.5h2.9v1.1h-2.9v4.7c0,.7,0,1.2.3,1.4s.6.3,1.2.3h1.5v1.2h-1.5c-1.1,0-1.9-.2-2.3-.6-.4-.4-.6-1.2-.6-2.2v-4.7h-1v-1.1h1v-2.5h1.4Z"/>
          <path id="DejaVuSans-68" d="M66.1,285.9v5.2h-1.4v-5.2c0-.8-.2-1.4-.5-1.8-.3-.4-.8-.6-1.4-.6s-1.4.2-1.8.7c-.4.5-.7,1.2-.7,2v4.9h-1.4v-12h1.4v4.7c.3-.5.7-.9,1.2-1.2.5-.3,1-.4,1.6-.4,1,0,1.7.3,2.2.9.5.6.8,1.5.8,2.7Z"/>
          <path id="DejaVuSans-69-3" data-name="DejaVuSans-69" d="M68.9,282.5h1.4v8.6h-1.4v-8.6ZM68.9,279.2h1.4v1.8h-1.4v-1.8Z"/>
          <path id="DejaVuSans-63-2" data-name="DejaVuSans-63" d="M79.5,282.8v1.3c-.4-.2-.8-.4-1.2-.5s-.8-.2-1.2-.2c-.9,0-1.6.3-2.1.9-.5.6-.8,1.4-.8,2.5s.3,1.9.8,2.5c.5.6,1.2.9,2.1.9s.8,0,1.2-.2.8-.3,1.2-.5v1.3c-.4.2-.8.3-1.2.4-.4,0-.9.1-1.4.1-1.3,0-2.3-.4-3.1-1.2-.8-.8-1.1-1.9-1.1-3.3s.4-2.5,1.2-3.3c.8-.8,1.8-1.2,3.2-1.2s.9,0,1.3.1c.4,0,.8.2,1.2.4Z"/>
          <path id="DejaVuSans-61-4" data-name="DejaVuSans-61" d="M85.9,286.8c-1.1,0-1.9.1-2.4.4s-.7.7-.7,1.3.2.9.5,1.2c.3.3.8.4,1.4.4s1.4-.3,1.9-.8.7-1.3.7-2.2v-.3h-1.4ZM88.7,286.2v4.9h-1.4v-1.3c-.3.5-.7.9-1.2,1.2-.5.2-1.1.4-1.8.4s-1.6-.2-2.1-.7c-.5-.5-.8-1.2-.8-2s.3-1.7,1-2.2c.7-.5,1.6-.7,2.9-.7h2c0-.8-.2-1.3-.6-1.7s-1-.5-1.8-.5-1,0-1.4.2c-.5.1-.9.3-1.3.5v-1.3c.5-.2,1-.4,1.5-.4.5-.1,1-.2,1.4-.2,1.2,0,2.2.3,2.8,1,.6.6.9,1.6.9,2.9Z"/>
          <path id="DejaVuSans-6c-3" data-name="DejaVuSans-6c" d="M91.6,279.2h1.4v12h-1.4v-12Z"/>
          <path id="DejaVuSans-73-2" data-name="DejaVuSans-73" d="M109.4,282.8v1.3c-.4-.2-.8-.4-1.2-.5-.4-.1-.9-.2-1.3-.2-.7,0-1.2.1-1.6.3-.4.2-.5.5-.5,1s.1.6.4.8.8.4,1.5.5h.5c1,.3,1.7.6,2.1,1s.6.9.6,1.6-.3,1.4-1,1.9c-.6.5-1.5.7-2.6.7s-.9,0-1.4-.1c-.5,0-1-.2-1.6-.4v-1.5c.5.3,1,.5,1.5.6.5.1,1,.2,1.5.2s1.2-.1,1.5-.3c.4-.2.5-.6.5-1s-.1-.7-.4-.9c-.3-.2-.8-.4-1.7-.6h-.5c-.9-.3-1.5-.6-1.9-1-.4-.4-.6-.9-.6-1.6s.3-1.4.9-1.9c.6-.4,1.4-.7,2.5-.7s1,0,1.5.1c.5,0,.9.2,1.3.3Z"/>
          <path id="DejaVuSans-6f-2" data-name="DejaVuSans-6f" d="M115.5,283.5c-.8,0-1.4.3-1.8.9s-.7,1.4-.7,2.4.2,1.8.7,2.4c.4.6,1,.9,1.8.9s1.4-.3,1.8-.9c.4-.6.7-1.4.7-2.4s-.2-1.8-.7-2.4c-.4-.6-1-.9-1.8-.9ZM115.5,282.3c1.2,0,2.2.4,2.9,1.2.7.8,1.1,1.9,1.1,3.3s-.4,2.5-1.1,3.3c-.7.8-1.7,1.2-2.9,1.2s-2.2-.4-2.9-1.2c-.7-.8-1.1-1.9-1.1-3.3s.4-2.5,1.1-3.3c.7-.8,1.7-1.2,2.9-1.2Z"/>
          <path id="DejaVuSans-75" d="M121.6,287.7v-5.2h1.4v5.2c0,.8.2,1.4.5,1.8.3.4.8.6,1.4.6s1.4-.2,1.8-.7c.4-.5.7-1.2.7-2v-4.9h1.4v8.6h-1.4v-1.3c-.3.5-.7.9-1.2,1.2-.5.3-1,.4-1.6.4-1,0-1.7-.3-2.3-.9-.5-.6-.8-1.5-.8-2.7ZM125.2,282.3h0Z"/>
          <path id="DejaVuSans-72-4" data-name="DejaVuSans-72" d="M136.8,283.8c-.2,0-.3-.2-.5-.2-.2,0-.4,0-.6,0-.8,0-1.4.3-1.8.8s-.6,1.3-.6,2.2v4.5h-1.4v-8.6h1.4v1.3c.3-.5.7-.9,1.2-1.2.5-.3,1.1-.4,1.7-.4s.2,0,.3,0c.1,0,.2,0,.4,0v1.5Z"/>
          <path id="DejaVuSans-63-3" data-name="DejaVuSans-63" d="M144.1,282.8v1.3c-.4-.2-.8-.4-1.2-.5s-.8-.2-1.2-.2c-.9,0-1.6.3-2.1.9-.5.6-.8,1.4-.8,2.5s.3,1.9.8,2.5c.5.6,1.2.9,2.1.9s.8,0,1.2-.2.8-.3,1.2-.5v1.3c-.4.2-.8.3-1.2.4-.4,0-.9.1-1.4.1-1.3,0-2.3-.4-3.1-1.2-.8-.8-1.1-1.9-1.1-3.3s.4-2.5,1.2-3.3c.8-.8,1.8-1.2,3.2-1.2s.9,0,1.3.1c.4,0,.8.2,1.2.4Z"/>
          <path id="DejaVuSans-69-4" data-name="DejaVuSans-69" d="M146.6,282.5h1.4v8.6h-1.4v-8.6ZM146.6,279.2h1.4v1.8h-1.4v-1.8Z"/>
          <path id="DejaVuSans-6e-5" data-name="DejaVuSans-6e" d="M158.2,285.9v5.2h-1.4v-5.2c0-.8-.2-1.4-.5-1.8-.3-.4-.8-.6-1.4-.6s-1.4.2-1.8.7c-.4.5-.7,1.2-.7,2v4.9h-1.4v-8.6h1.4v1.3c.3-.5.7-.9,1.2-1.2.5-.3,1-.4,1.6-.4,1,0,1.7.3,2.2.9.5.6.8,1.5.8,2.7Z"/>
          <path id="DejaVuSans-67-3" data-name="DejaVuSans-67" d="M166.7,286.7c0-1-.2-1.8-.6-2.4-.4-.6-1-.8-1.8-.8s-1.4.3-1.8.8c-.4.6-.6,1.4-.6,2.4s.2,1.8.6,2.4c.4.6,1,.8,1.8.8s1.4-.3,1.8-.8c.4-.6.6-1.4.6-2.4ZM168.1,290.1c0,1.5-.3,2.6-1,3.3-.7.7-1.7,1.1-3,1.1s-1,0-1.4-.1-.9-.2-1.3-.3v-1.4c.4.2.8.4,1.2.5.4.1.8.2,1.2.2.9,0,1.6-.2,2.1-.7.5-.5.7-1.2.7-2.2v-.7c-.3.5-.7.9-1.1,1.1s-1,.4-1.6.4c-1.1,0-1.9-.4-2.6-1.2-.6-.8-1-1.9-1-3.2s.3-2.4,1-3.2c.6-.8,1.5-1.2,2.6-1.2s1.2.1,1.6.4.8.6,1.1,1.1v-1.3h1.4v7.6Z"/>
        </g>
      </g>
      <g id="line2d_10">
        <path id="m29b688780c-4" data-name="m29b688780c" class="cls-20" d="M183,249.7h-3.9"/>
      </g>
      <g id="text_11">
        <g>
          <path id="DejaVuSans-68-2" data-name="DejaVuSans-68" d="M33.9,249.7v5.2h-1.4v-5.2c0-.8-.2-1.4-.5-1.8-.3-.4-.8-.6-1.4-.6s-1.4.2-1.8.7c-.4.5-.7,1.2-.7,2v4.9h-1.4v-12h1.4v4.7c.3-.5.7-.9,1.2-1.2.5-.3,1-.4,1.6-.4,1,0,1.7.3,2.2.9.5.6.8,1.5.8,2.7Z"/>
          <path id="DejaVuSans-6f-3" data-name="DejaVuSans-6f" d="M40.1,247.3c-.8,0-1.4.3-1.8.9s-.7,1.4-.7,2.4.2,1.8.7,2.4c.4.6,1,.9,1.8.9s1.4-.3,1.8-.9c.4-.6.7-1.4.7-2.4s-.2-1.8-.7-2.4c-.4-.6-1-.9-1.8-.9ZM40.1,246.1c1.2,0,2.2.4,2.9,1.2.7.8,1.1,1.9,1.1,3.3s-.4,2.5-1.1,3.3c-.7.8-1.7,1.2-2.9,1.2s-2.2-.4-2.9-1.2c-.7-.8-1.1-1.9-1.1-3.3s.4-2.5,1.1-3.3c.7-.8,1.7-1.2,2.9-1.2Z"/>
          <path id="DejaVuSans-6d" d="M53.1,247.9c.4-.6.8-1.1,1.3-1.4s1.1-.5,1.7-.5,1.6.3,2.1.9c.5.6.7,1.5.7,2.7v5.2h-1.4v-5.2c0-.8-.1-1.4-.4-1.8-.3-.4-.7-.6-1.3-.6s-1.3.2-1.7.7c-.4.5-.6,1.2-.6,2v4.9h-1.4v-5.2c0-.8-.1-1.4-.4-1.8s-.7-.6-1.4-.6-1.3.2-1.7.7c-.4.5-.6,1.2-.6,2v4.9h-1.4v-8.6h1.4v1.3c.3-.5.7-.9,1.2-1.2s1-.4,1.6-.4,1.2.2,1.6.5c.4.3.8.8,1,1.4Z"/>
          <path id="DejaVuSans-65-9" data-name="DejaVuSans-65" d="M69.1,250.2v.7h-6.5c0,1,.4,1.7.9,2.2.5.5,1.3.8,2.2.8s1.1,0,1.6-.2,1-.3,1.5-.6v1.3c-.5.2-1,.4-1.6.5s-1.1.2-1.6.2c-1.4,0-2.5-.4-3.3-1.2-.8-.8-1.2-1.9-1.2-3.3s.4-2.5,1.1-3.4c.8-.8,1.8-1.2,3.1-1.2s2.1.4,2.8,1.1c.7.7,1,1.8,1,3ZM67.7,249.8c0-.8-.2-1.4-.7-1.9-.4-.5-1-.7-1.7-.7s-1.4.2-1.9.7-.7,1.1-.8,1.9h5.1Z"/>
          <path id="DejaVuSans-6d-2" data-name="DejaVuSans-6d" d="M78.2,247.9c.4-.6.8-1.1,1.3-1.4s1.1-.5,1.7-.5,1.6.3,2.1.9c.5.6.7,1.5.7,2.7v5.2h-1.4v-5.2c0-.8-.1-1.4-.4-1.8-.3-.4-.7-.6-1.3-.6s-1.3.2-1.7.7c-.4.5-.6,1.2-.6,2v4.9h-1.4v-5.2c0-.8-.1-1.4-.4-1.8s-.7-.6-1.4-.6-1.3.2-1.7.7c-.4.5-.6,1.2-.6,2v4.9h-1.4v-8.6h1.4v1.3c.3-.5.7-.9,1.2-1.2s1-.4,1.6-.4,1.2.2,1.6.5c.4.3.8.8,1,1.4Z"/>
          <path id="DejaVuSans-61-5" data-name="DejaVuSans-61" d="M90.8,250.6c-1.1,0-1.9.1-2.4.4s-.7.7-.7,1.3.2.9.5,1.2c.3.3.8.4,1.4.4s1.4-.3,1.9-.8.7-1.3.7-2.2v-.3h-1.4ZM93.6,250v4.9h-1.4v-1.3c-.3.5-.7.9-1.2,1.2-.5.2-1.1.4-1.8.4s-1.6-.2-2.1-.7c-.5-.5-.8-1.2-.8-2s.3-1.7,1-2.2c.7-.5,1.6-.7,2.9-.7h2c0-.8-.2-1.3-.6-1.7s-1-.5-1.8-.5-1,0-1.4.2c-.5.1-.9.3-1.3.5v-1.3c.5-.2,1-.4,1.5-.4.5-.1,1-.2,1.4-.2,1.2,0,2.2.3,2.8,1,.6.6.9,1.6.9,2.9Z"/>
          <path id="DejaVuSans-64-3" data-name="DejaVuSans-64" d="M102.2,247.6v-4.7h1.4v12h-1.4v-1.3c-.3.5-.7.9-1.1,1.1-.5.2-1,.4-1.6.4-1,0-1.9-.4-2.5-1.2-.7-.8-1-1.9-1-3.3s.3-2.5,1-3.3c.7-.8,1.5-1.2,2.5-1.2s1.2.1,1.6.4c.5.2.8.6,1.1,1.1ZM97.4,250.6c0,1,.2,1.9.6,2.5.4.6,1,.9,1.8.9s1.3-.3,1.8-.9c.4-.6.6-1.4.6-2.5s-.2-1.9-.6-2.5c-.4-.6-1-.9-1.8-.9s-1.3.3-1.8.9-.6,1.4-.6,2.5Z"/>
          <path id="DejaVuSans-65-10" data-name="DejaVuSans-65" d="M113.9,250.2v.7h-6.5c0,1,.4,1.7.9,2.2.5.5,1.3.8,2.2.8s1.1,0,1.6-.2,1-.3,1.5-.6v1.3c-.5.2-1,.4-1.6.5s-1.1.2-1.6.2c-1.4,0-2.5-.4-3.3-1.2-.8-.8-1.2-1.9-1.2-3.3s.4-2.5,1.1-3.4c.8-.8,1.8-1.2,3.1-1.2s2.1.4,2.8,1.1c.7.7,1,1.8,1,3ZM112.5,249.8c0-.8-.2-1.4-.7-1.9-.4-.5-1-.7-1.7-.7s-1.4.2-1.9.7-.7,1.1-.8,1.9h5.1Z"/>
          <path id="DejaVuSans-62" d="M130.4,250.6c0-1-.2-1.9-.6-2.5s-1-.9-1.8-.9-1.3.3-1.8.9-.6,1.4-.6,2.5.2,1.9.6,2.5c.4.6,1,.9,1.8.9s1.3-.3,1.8-.9c.4-.6.6-1.4.6-2.5ZM125.5,247.6c.3-.5.7-.9,1.1-1.1.5-.2,1-.4,1.6-.4,1,0,1.9.4,2.6,1.2.7.8,1,1.9,1,3.3s-.3,2.5-1,3.3c-.7.8-1.5,1.2-2.6,1.2s-1.2-.1-1.6-.4c-.5-.2-.8-.6-1.1-1.1v1.3h-1.4v-12h1.4v4.7Z"/>
          <path id="DejaVuSans-61-6" data-name="DejaVuSans-61" d="M138.1,250.6c-1.1,0-1.9.1-2.4.4s-.7.7-.7,1.3.2.9.5,1.2c.3.3.8.4,1.4.4s1.4-.3,1.9-.8.7-1.3.7-2.2v-.3h-1.4ZM140.9,250v4.9h-1.4v-1.3c-.3.5-.7.9-1.2,1.2-.5.2-1.1.4-1.8.4s-1.6-.2-2.1-.7c-.5-.5-.8-1.2-.8-2s.3-1.7,1-2.2c.7-.5,1.6-.7,2.9-.7h2c0-.8-.2-1.3-.6-1.7s-1-.5-1.8-.5-1,0-1.4.2c-.5.1-.9.3-1.3.5v-1.3c.5-.2,1-.4,1.5-.4.5-.1,1-.2,1.4-.2,1.2,0,2.2.3,2.8,1,.6.6.9,1.6.9,2.9Z"/>
          <path id="DejaVuSans-6b" d="M143.8,242.9h1.4v7.1l4.2-3.7h1.8l-4.6,4,4.8,4.6h-1.9l-4.4-4.2v4.2h-1.4v-12Z"/>
          <path id="DejaVuSans-65-11" data-name="DejaVuSans-65" d="M159.8,250.2v.7h-6.5c0,1,.4,1.7.9,2.2.5.5,1.3.8,2.2.8s1.1,0,1.6-.2,1-.3,1.5-.6v1.3c-.5.2-1,.4-1.6.5s-1.1.2-1.6.2c-1.4,0-2.5-.4-3.3-1.2-.8-.8-1.2-1.9-1.2-3.3s.4-2.5,1.1-3.4c.8-.8,1.8-1.2,3.1-1.2s2.1.4,2.8,1.1c.7.7,1,1.8,1,3ZM158.4,249.8c0-.8-.2-1.4-.7-1.9-.4-.5-1-.7-1.7-.7s-1.4.2-1.9.7-.7,1.1-.8,1.9h5.1Z"/>
          <path id="DejaVuSans-73-3" data-name="DejaVuSans-73" d="M167.6,246.5v1.3c-.4-.2-.8-.4-1.2-.5-.4-.1-.9-.2-1.3-.2-.7,0-1.2.1-1.6.3-.4.2-.5.5-.5,1s.1.6.4.8.8.4,1.5.5h.5c1,.3,1.7.6,2.1,1s.6.9.6,1.6-.3,1.4-1,1.9c-.6.5-1.5.7-2.6.7s-.9,0-1.4-.1c-.5,0-1-.2-1.6-.4v-1.5c.5.3,1,.5,1.5.6.5.1,1,.2,1.5.2s1.2-.1,1.5-.3c.4-.2.5-.6.5-1s-.1-.7-.4-.9c-.3-.2-.8-.4-1.7-.6h-.5c-.9-.3-1.5-.6-1.9-1-.4-.4-.6-.9-.6-1.6s.3-1.4.9-1.9c.6-.4,1.4-.7,2.5-.7s1,0,1.5.1c.5,0,.9.2,1.3.3Z"/>
        </g>
      </g>
      <g id="line2d_11">
        <path id="m29b688780c-5" data-name="m29b688780c" class="cls-20" d="M183,212.4h-3.9"/>
      </g>
      <g id="text_12">
        <g>
          <path id="DejaVuSans-6f-4" data-name="DejaVuSans-6f" d="M78.7,209.1c-.8,0-1.4.3-1.8.9s-.7,1.4-.7,2.4.2,1.8.7,2.4c.4.6,1,.9,1.8.9s1.4-.3,1.8-.9c.4-.6.7-1.4.7-2.4s-.2-1.8-.7-2.4c-.4-.6-1-.9-1.8-.9ZM78.7,207.9c1.2,0,2.2.4,2.9,1.2.7.8,1.1,1.9,1.1,3.3s-.3,2.5-1,3.3c-.7.8-1.7,1.2-2.9,1.2s-2.2-.4-2.9-1.2c-.7-.8-1.1-1.9-1.1-3.3s.3-2.5,1-3.3c.7-.8,1.7-1.2,2.9-1.2Z"/>
          <path id="DejaVuSans-72-5" data-name="DejaVuSans-72" d="M90,209.4c-.2,0-.3-.2-.5-.2-.2,0-.4,0-.6,0-.8,0-1.4.3-1.8.8s-.6,1.3-.6,2.2v4.5s-1.4,0-1.4,0v-8.6s1.4,0,1.4,0v1.3c.3-.5.7-.9,1.2-1.2.5-.3,1.1-.4,1.7-.4s.2,0,.3,0c.1,0,.2,0,.4,0v1.5Z"/>
          <path id="DejaVuSans-69-5" data-name="DejaVuSans-69" d="M91.5,208h1.4s0,8.6,0,8.6h-1.4s0-8.6,0-8.6ZM91.5,204.7h1.4s0,1.8,0,1.8h-1.4s0-1.8,0-1.8Z"/>
          <path id="DejaVuSans-67-4" data-name="DejaVuSans-67" d="M101.6,212.2c0-1-.2-1.8-.6-2.4-.4-.6-1-.8-1.8-.8s-1.4.3-1.8.9c-.4.6-.6,1.4-.6,2.4s.2,1.8.6,2.4c.4.6,1,.8,1.8.8s1.4-.3,1.8-.9c.4-.6.6-1.4.6-2.4ZM103,215.6c0,1.5-.3,2.6-1,3.3-.6.7-1.6,1.1-3,1.1s-1,0-1.4-.1-.9-.2-1.3-.3v-1.4c.4.2.8.4,1.2.5.4.1.8.2,1.2.2.9,0,1.6-.2,2.1-.7.5-.5.7-1.2.7-2.2v-.7c-.3.5-.7.9-1.1,1.1s-1,.4-1.6.4c-1.1,0-1.9-.4-2.6-1.2-.7-.8-1-1.9-1-3.2s.3-2.4,1-3.2c.6-.8,1.5-1.2,2.6-1.2s1.2.1,1.6.4.8.6,1.1,1.1v-1.3s1.4,0,1.4,0v7.6Z"/>
          <path id="DejaVuSans-69-6" data-name="DejaVuSans-69" d="M105.9,208h1.4s0,8.6,0,8.6h-1.4s0-8.6,0-8.6ZM105.9,204.6h1.4s0,1.8,0,1.8h-1.4s0-1.8,0-1.8Z"/>
          <path id="DejaVuSans-6e-6" data-name="DejaVuSans-6e" d="M117.5,211.4v5.2s-1.4,0-1.4,0v-5.2c0-.8-.2-1.4-.5-1.8-.3-.4-.8-.6-1.4-.6s-1.4.2-1.8.7c-.4.5-.7,1.2-.7,2v4.9s-1.4,0-1.4,0v-8.6s1.4,0,1.4,0v1.3c.3-.5.7-.9,1.2-1.2.5-.3,1-.4,1.6-.4,1,0,1.7.3,2.3.9.5.6.8,1.5.8,2.7Z"/>
          <path id="DejaVuSans-66-5" data-name="DejaVuSans-66" d="M132.6,204.5v1.2s-1.4,0-1.4,0c-.5,0-.9.1-1.1.3-.2.2-.3.6-.3,1.1v.8s2.3,0,2.3,0v1.1s-2.3,0-2.3,0v7.5s-1.4,0-1.4,0v-7.5s-1.4,0-1.4,0v-1.1s1.4,0,1.4,0v-.6c0-1,.2-1.7.7-2.1.4-.4,1.2-.7,2.1-.7h1.3Z"/>
          <path id="DejaVuSans-6f-5" data-name="DejaVuSans-6f" d="M137.1,208.9c-.8,0-1.4.3-1.8.9s-.7,1.4-.7,2.4.2,1.8.7,2.4c.4.6,1,.9,1.8.9s1.4-.3,1.8-.9c.4-.6.7-1.4.7-2.4s-.2-1.8-.7-2.4c-.4-.6-1-.9-1.8-.9ZM137.1,207.7c1.2,0,2.2.4,2.9,1.2.7.8,1.1,1.9,1.1,3.3s-.3,2.5-1,3.3c-.7.8-1.7,1.2-2.9,1.2s-2.2-.4-2.9-1.2c-.7-.8-1.1-1.9-1.1-3.3s.3-2.5,1-3.3c.7-.8,1.7-1.2,2.9-1.2Z"/>
          <path id="DejaVuSans-63-4" data-name="DejaVuSans-63" d="M149.6,208.2v1.3c-.4-.2-.8-.4-1.2-.5s-.8-.2-1.2-.2c-.9,0-1.6.3-2.1.9-.5.6-.8,1.4-.8,2.5s.3,1.9.8,2.5c.5.6,1.2.9,2.1.9s.8,0,1.2-.2.8-.3,1.2-.5v1.3c-.4.2-.8.3-1.2.4-.4,0-.9.1-1.4.1-1.3,0-2.3-.4-3.1-1.2-.8-.8-1.2-1.9-1.2-3.3s.4-2.5,1.1-3.3c.8-.8,1.8-1.2,3.2-1.2s.9,0,1.3.1c.4,0,.8.2,1.2.4Z"/>
          <path id="DejaVuSans-75-2" data-name="DejaVuSans-75" d="M152,213.1v-5.2s1.4,0,1.4,0v5.2c0,.8.2,1.4.5,1.8.3.4.8.6,1.4.6s1.4-.2,1.8-.7c.4-.5.7-1.2.7-2v-4.9s1.4,0,1.4,0v8.6s-1.4,0-1.4,0v-1.3c-.3.5-.7.9-1.2,1.2-.5.3-1,.4-1.6.4-1,0-1.7-.3-2.3-.9-.5-.6-.8-1.5-.8-2.7ZM155.5,207.6h0Z"/>
          <path id="DejaVuSans-73-4" data-name="DejaVuSans-73" d="M167.6,208v1.3c-.4-.2-.8-.4-1.2-.5-.4-.1-.9-.2-1.3-.2-.7,0-1.2.1-1.6.3-.4.2-.5.5-.5,1s.1.6.4.8.8.4,1.5.5h.5c1,.3,1.7.6,2.1,1s.6.9.6,1.6-.3,1.4-.9,1.9c-.6.5-1.5.7-2.6.7s-.9,0-1.4-.1c-.5,0-1-.2-1.6-.4v-1.5c.5.3,1,.5,1.5.6.5.1,1,.2,1.5.2s1.2-.1,1.5-.3c.4-.2.5-.6.5-1s-.1-.7-.4-.9c-.3-.2-.8-.4-1.7-.6h-.5c-.9-.3-1.5-.6-1.9-1-.4-.4-.6-.9-.6-1.6s.3-1.4.9-1.9c.6-.4,1.4-.7,2.4-.7s1,0,1.5.1c.5,0,.9.2,1.3.3Z"/>
        </g>
      </g>
      <g id="line2d_12">
        <path id="m29b688780c-6" data-name="m29b688780c" class="cls-20" d="M183,175.1h-3.9"/>
      </g>
      <g id="text_13">
        <g>
          <path id="DejaVuSans-64-4" data-name="DejaVuSans-64" d="M52.9,175.4v-4.7h1.4v12h-1.4v-1.3c-.3.5-.7.9-1.1,1.1-.5.2-1,.4-1.6.4-1,0-1.9-.4-2.5-1.2-.7-.8-1-1.9-1-3.3s.3-2.5,1-3.3c.7-.8,1.5-1.2,2.5-1.2s1.2.1,1.6.4c.5.2.8.6,1.1,1.1ZM48.1,178.4c0,1,.2,1.9.6,2.5.4.6,1,.9,1.8.9s1.3-.3,1.8-.9c.4-.6.6-1.4.6-2.5s-.2-1.9-.6-2.5c-.4-.6-1-.9-1.8-.9s-1.3.3-1.8.9-.6,1.4-.6,2.5Z"/>
          <path id="DejaVuSans-65-12" data-name="DejaVuSans-65" d="M64.6,178.1v.7h-6.5c0,1,.4,1.7.9,2.2.5.5,1.3.8,2.2.8s1.1,0,1.6-.2,1-.3,1.5-.6v1.3c-.5.2-1,.4-1.6.5s-1.1.2-1.6.2c-1.4,0-2.5-.4-3.3-1.2-.8-.8-1.2-1.9-1.2-3.3s.4-2.5,1.1-3.4c.8-.8,1.8-1.2,3.1-1.2s2.1.4,2.8,1.1c.7.7,1,1.8,1,3ZM63.2,177.7c0-.8-.2-1.4-.7-1.9-.4-.5-1-.7-1.7-.7s-1.4.2-1.9.7-.7,1.1-.8,1.9h5.1Z"/>
          <path id="DejaVuSans-73-5" data-name="DejaVuSans-73" d="M72.4,174.4v1.3c-.4-.2-.8-.4-1.2-.5-.4-.1-.9-.2-1.3-.2-.7,0-1.2.1-1.6.3-.4.2-.5.5-.5,1s.1.6.4.8.8.4,1.5.5h.5c1,.3,1.7.6,2.1,1s.6.9.6,1.6-.3,1.4-1,1.9c-.6.5-1.5.7-2.6.7s-.9,0-1.4-.1c-.5,0-1-.2-1.6-.4v-1.5c.5.3,1,.5,1.5.6.5.1,1,.2,1.5.2s1.2-.1,1.5-.3c.4-.2.5-.6.5-1s-.1-.7-.4-.9c-.3-.2-.8-.4-1.7-.6h-.5c-.9-.3-1.5-.6-1.9-1-.4-.4-.6-.9-.6-1.6s.3-1.4.9-1.9c.6-.4,1.4-.7,2.5-.7s1,0,1.5.1c.5,0,.9.2,1.3.3Z"/>
          <path id="DejaVuSans-69-7" data-name="DejaVuSans-69" d="M75.2,174.1h1.4v8.6h-1.4v-8.6ZM75.2,170.8h1.4v1.8h-1.4v-1.8Z"/>
          <path id="DejaVuSans-67-5" data-name="DejaVuSans-67" d="M85.2,178.3c0-1-.2-1.8-.6-2.4-.4-.6-1-.8-1.8-.8s-1.4.3-1.8.8c-.4.6-.6,1.4-.6,2.4s.2,1.8.6,2.4c.4.6,1,.8,1.8.8s1.4-.3,1.8-.8c.4-.6.6-1.4.6-2.4ZM86.7,181.7c0,1.5-.3,2.6-1,3.3-.7.7-1.7,1.1-3,1.1s-1,0-1.4-.1-.9-.2-1.3-.3v-1.4c.4.2.8.4,1.2.5.4.1.8.2,1.2.2.9,0,1.6-.2,2.1-.7.5-.5.7-1.2.7-2.2v-.7c-.3.5-.7.9-1.1,1.1s-1,.4-1.6.4c-1.1,0-1.9-.4-2.6-1.2-.6-.8-1-1.9-1-3.2s.3-2.4,1-3.2c.6-.8,1.5-1.2,2.6-1.2s1.2.1,1.6.4.8.6,1.1,1.1v-1.3h1.4v7.6Z"/>
          <path id="DejaVuSans-6e-7" data-name="DejaVuSans-6e" d="M96.8,177.5v5.2h-1.4v-5.2c0-.8-.2-1.4-.5-1.8-.3-.4-.8-.6-1.4-.6s-1.4.2-1.8.7c-.4.5-.7,1.2-.7,2v4.9h-1.4v-8.6h1.4v1.3c.3-.5.7-.9,1.2-1.2.5-.3,1-.4,1.6-.4,1,0,1.7.3,2.2.9.5.6.8,1.5.8,2.7Z"/>
          <path id="DejaVuSans-6d-3" data-name="DejaVuSans-6d" d="M114.2,175.8c.4-.6.8-1.1,1.3-1.4s1.1-.5,1.7-.5,1.6.3,2.1.9c.5.6.7,1.5.7,2.7v5.2h-1.4v-5.2c0-.8-.1-1.4-.4-1.8-.3-.4-.7-.6-1.3-.6s-1.3.2-1.7.7c-.4.5-.6,1.2-.6,2v4.9h-1.4v-5.2c0-.8-.1-1.4-.4-1.8s-.7-.6-1.4-.6-1.3.2-1.7.7c-.4.5-.6,1.2-.6,2v4.9h-1.4v-8.6h1.4v1.3c.3-.5.7-.9,1.2-1.2s1-.4,1.6-.4,1.2.2,1.6.5c.4.3.8.8,1,1.4Z"/>
          <path id="DejaVuSans-69-8" data-name="DejaVuSans-69" d="M122.9,174.1h1.4v8.6h-1.4v-8.6ZM122.9,170.8h1.4v1.8h-1.4v-1.8Z"/>
          <path id="DejaVuSans-6e-8" data-name="DejaVuSans-6e" d="M134.4,177.5v5.2h-1.4v-5.2c0-.8-.2-1.4-.5-1.8-.3-.4-.8-.6-1.4-.6s-1.4.2-1.8.7c-.4.5-.7,1.2-.7,2v4.9h-1.4v-8.6h1.4v1.3c.3-.5.7-.9,1.2-1.2.5-.3,1-.4,1.6-.4,1,0,1.7.3,2.2.9.5.6.8,1.5.8,2.7Z"/>
          <path id="DejaVuSans-69-9" data-name="DejaVuSans-69" d="M137.2,174.1h1.4v8.6h-1.4v-8.6ZM137.2,170.8h1.4v1.8h-1.4v-1.8Z"/>
          <path id="DejaVuSans-6d-4" data-name="DejaVuSans-6d" d="M148.4,175.8c.4-.6.8-1.1,1.3-1.4s1.1-.5,1.7-.5,1.6.3,2.1.9c.5.6.7,1.5.7,2.7v5.2h-1.4v-5.2c0-.8-.1-1.4-.4-1.8-.3-.4-.7-.6-1.3-.6s-1.3.2-1.7.7c-.4.5-.6,1.2-.6,2v4.9h-1.4v-5.2c0-.8-.1-1.4-.4-1.8s-.7-.6-1.4-.6-1.3.2-1.7.7c-.4.5-.6,1.2-.6,2v4.9h-1.4v-8.6h1.4v1.3c.3-.5.7-.9,1.2-1.2s1-.4,1.6-.4,1.2.2,1.6.5c.4.3.8.8,1,1.4Z"/>
          <path id="DejaVuSans-61-7" data-name="DejaVuSans-61" d="M160.9,178.4c-1.1,0-1.9.1-2.4.4s-.7.7-.7,1.3.2.9.5,1.2c.3.3.8.4,1.4.4s1.4-.3,1.9-.8.7-1.3.7-2.2v-.3h-1.4ZM163.8,177.8v4.9h-1.4v-1.3c-.3.5-.7.9-1.2,1.2-.5.2-1.1.4-1.8.4s-1.6-.2-2.1-.7c-.5-.5-.8-1.2-.8-2s.3-1.7,1-2.2c.7-.5,1.6-.7,2.9-.7h2c0-.8-.2-1.3-.6-1.7s-1-.5-1.8-.5-1,0-1.4.2c-.5.1-.9.3-1.3.5v-1.3c.5-.2,1-.4,1.5-.4.5-.1,1-.2,1.4-.2,1.2,0,2.2.3,2.8,1,.6.6.9,1.6.9,2.9Z"/>
          <path id="DejaVuSans-6c-4" data-name="DejaVuSans-6c" d="M166.7,170.8h1.4v12h-1.4v-12Z"/>
        </g>
      </g>
      <g id="line2d_13">
        <path id="m29b688780c-7" data-name="m29b688780c" class="cls-20" d="M183,137.8h-3.9"/>
      </g>
      <g id="text_14">
        <g>
          <path id="DejaVuSans-63-5" data-name="DejaVuSans-63" d="M26.5,134.9v1.3c-.4-.2-.8-.4-1.2-.5s-.8-.2-1.2-.2c-.9,0-1.6.3-2.1.9-.5.6-.8,1.4-.8,2.5s.3,1.9.8,2.5c.5.6,1.2.9,2.1.9s.8,0,1.2-.2.8-.3,1.2-.5v1.3c-.4.2-.8.3-1.2.4-.4,0-.9.1-1.4.1-1.3,0-2.3-.4-3.1-1.2-.8-.8-1.1-1.9-1.1-3.3s.4-2.5,1.2-3.3c.8-.8,1.8-1.2,3.2-1.2s.9,0,1.3.1c.4,0,.8.2,1.2.4Z"/>
          <path id="DejaVuSans-6f-6" data-name="DejaVuSans-6f" d="M32.3,135.5c-.8,0-1.4.3-1.8.9s-.7,1.4-.7,2.4.2,1.8.7,2.4c.4.6,1,.9,1.8.9s1.4-.3,1.8-.9c.4-.6.7-1.4.7-2.4s-.2-1.8-.7-2.4c-.4-.6-1-.9-1.8-.9ZM32.3,134.3c1.2,0,2.2.4,2.9,1.2.7.8,1.1,1.9,1.1,3.3s-.4,2.5-1.1,3.3c-.7.8-1.7,1.2-2.9,1.2s-2.2-.4-2.9-1.2c-.7-.8-1.1-1.9-1.1-3.3s.4-2.5,1.1-3.3c.7-.8,1.7-1.2,2.9-1.2Z"/>
          <path id="DejaVuSans-6d-5" data-name="DejaVuSans-6d" d="M45.3,136.2c.4-.6.8-1.1,1.3-1.4s1.1-.5,1.7-.5,1.6.3,2.1.9c.5.6.7,1.5.7,2.7v5.2h-1.4v-5.2c0-.8-.1-1.4-.4-1.8-.3-.4-.7-.6-1.3-.6s-1.3.2-1.7.7c-.4.5-.6,1.2-.6,2v4.9h-1.4v-5.2c0-.8-.1-1.4-.4-1.8s-.7-.6-1.4-.6-1.3.2-1.7.7c-.4.5-.6,1.2-.6,2v4.9h-1.4v-8.6h1.4v1.3c.3-.5.7-.9,1.2-1.2s1-.4,1.6-.4,1.2.2,1.6.5c.4.3.8.8,1,1.4Z"/>
          <path id="DejaVuSans-6d-6" data-name="DejaVuSans-6d" d="M60.7,136.2c.4-.6.8-1.1,1.3-1.4s1.1-.5,1.7-.5,1.6.3,2.1.9c.5.6.7,1.5.7,2.7v5.2h-1.4v-5.2c0-.8-.1-1.4-.4-1.8-.3-.4-.7-.6-1.3-.6s-1.3.2-1.7.7c-.4.5-.6,1.2-.6,2v4.9h-1.4v-5.2c0-.8-.1-1.4-.4-1.8s-.7-.6-1.4-.6-1.3.2-1.7.7c-.4.5-.6,1.2-.6,2v4.9h-1.4v-8.6h1.4v1.3c.3-.5.7-.9,1.2-1.2s1-.4,1.6-.4,1.2.2,1.6.5c.4.3.8.8,1,1.4Z"/>
          <path id="DejaVuSans-75-3" data-name="DejaVuSans-75" d="M69.2,139.8v-5.2h1.4v5.2c0,.8.2,1.4.5,1.8.3.4.8.6,1.4.6s1.4-.2,1.8-.7c.4-.5.7-1.2.7-2v-4.9h1.4v8.6h-1.4v-1.3c-.3.5-.7.9-1.2,1.2-.5.3-1,.4-1.6.4-1,0-1.7-.3-2.3-.9-.5-.6-.8-1.5-.8-2.7ZM72.8,134.3h0Z"/>
          <path id="DejaVuSans-6e-9" data-name="DejaVuSans-6e" d="M86.5,138v5.2h-1.4v-5.2c0-.8-.2-1.4-.5-1.8-.3-.4-.8-.6-1.4-.6s-1.4.2-1.8.7c-.4.5-.7,1.2-.7,2v4.9h-1.4v-8.6h1.4v1.3c.3-.5.7-.9,1.2-1.2.5-.3,1-.4,1.6-.4,1,0,1.7.3,2.2.9.5.6.8,1.5.8,2.7Z"/>
          <path id="DejaVuSans-69-10" data-name="DejaVuSans-69" d="M89.4,134.6h1.4v8.6h-1.4v-8.6ZM89.4,131.2h1.4v1.8h-1.4v-1.8Z"/>
          <path id="DejaVuSans-74-4" data-name="DejaVuSans-74" d="M95.1,132.1v2.5h2.9v1.1h-2.9v4.7c0,.7,0,1.2.3,1.4s.6.3,1.2.3h1.5v1.2h-1.5c-1.1,0-1.9-.2-2.3-.6-.4-.4-.6-1.2-.6-2.2v-4.7h-1v-1.1h1v-2.5h1.4Z"/>
          <path id="DejaVuSans-79-3" data-name="DejaVuSans-79" d="M103.5,144c-.4,1-.8,1.7-1.2,2-.4.3-.9.5-1.5.5h-1.1v-1.2h.8c.4,0,.7,0,.9-.3.2-.2.5-.6.7-1.3l.3-.6-3.5-8.5h1.5l2.7,6.8,2.7-6.8h1.5l-3.8,9.4Z"/>
          <path id="DejaVuSans-65-13" data-name="DejaVuSans-65" d="M124.6,138.5v.7h-6.5c0,1,.4,1.7.9,2.2.5.5,1.3.8,2.2.8s1.1,0,1.6-.2,1-.3,1.5-.6v1.3c-.5.2-1,.4-1.6.5s-1.1.2-1.6.2c-1.4,0-2.5-.4-3.3-1.2-.8-.8-1.2-1.9-1.2-3.3s.4-2.5,1.1-3.4c.8-.8,1.8-1.2,3.1-1.2s2.1.4,2.8,1.1c.7.7,1,1.8,1,3ZM123.1,138.1c0-.8-.2-1.4-.7-1.9-.4-.5-1-.7-1.7-.7s-1.4.2-1.9.7-.7,1.1-.8,1.9h5.1Z"/>
          <path id="DejaVuSans-76-2" data-name="DejaVuSans-76" d="M125.9,134.6h1.5l2.7,7.2,2.7-7.2h1.5l-3.2,8.6h-1.9l-3.2-8.6Z"/>
          <path id="DejaVuSans-65-14" data-name="DejaVuSans-65" d="M143.6,138.5v.7h-6.5c0,1,.4,1.7.9,2.2.5.5,1.3.8,2.2.8s1.1,0,1.6-.2,1-.3,1.5-.6v1.3c-.5.2-1,.4-1.6.5s-1.1.2-1.6.2c-1.4,0-2.5-.4-3.3-1.2-.8-.8-1.2-1.9-1.2-3.3s.4-2.5,1.1-3.4c.8-.8,1.8-1.2,3.1-1.2s2.1.4,2.8,1.1c.7.7,1,1.8,1,3ZM142.2,138.1c0-.8-.2-1.4-.7-1.9-.4-.5-1-.7-1.7-.7s-1.4.2-1.9.7-.7,1.1-.8,1.9h5.1Z"/>
          <path id="DejaVuSans-6e-10" data-name="DejaVuSans-6e" d="M153.1,138v5.2h-1.4v-5.2c0-.8-.2-1.4-.5-1.8-.3-.4-.8-.6-1.4-.6s-1.4.2-1.8.7c-.4.5-.7,1.2-.7,2v4.9h-1.4v-8.6h1.4v1.3c.3-.5.7-.9,1.2-1.2.5-.3,1-.4,1.6-.4,1,0,1.7.3,2.2.9.5.6.8,1.5.8,2.7Z"/>
          <path id="DejaVuSans-74-5" data-name="DejaVuSans-74" d="M157.4,132.1v2.5h2.9v1.1h-2.9v4.7c0,.7,0,1.2.3,1.4s.6.3,1.2.3h1.5v1.2h-1.5c-1.1,0-1.9-.2-2.3-.6-.4-.4-.6-1.2-.6-2.2v-4.7h-1v-1.1h1v-2.5h1.4Z"/>
          <path id="DejaVuSans-73-6" data-name="DejaVuSans-73" d="M167.6,134.8v1.3c-.4-.2-.8-.4-1.2-.5-.4-.1-.9-.2-1.3-.2-.7,0-1.2.1-1.6.3-.4.2-.5.5-.5,1s.1.6.4.8.8.4,1.5.5h.5c1,.3,1.7.6,2.1,1s.6.9.6,1.6-.3,1.4-1,1.9c-.6.5-1.5.7-2.6.7s-.9,0-1.4-.1c-.5,0-1-.2-1.6-.4v-1.5c.5.3,1,.5,1.5.6.5.1,1,.2,1.5.2s1.2-.1,1.5-.3c.4-.2.5-.6.5-1s-.1-.7-.4-.9c-.3-.2-.8-.4-1.7-.6h-.5c-.9-.3-1.5-.6-1.9-1-.4-.4-.6-.9-.6-1.6s.3-1.4.9-1.9c.6-.4,1.4-.7,2.5-.7s1,0,1.5.1c.5,0,.9.2,1.3.3Z"/>
        </g>
      </g>
      <g id="line2d_14">
        <path id="m29b688780c-8" data-name="m29b688780c" class="cls-20" d="M183,100.6h-3.9"/>
      </g>
      <g id="text_15">
        <g>
          <path id="DejaVuSans-6e-11" data-name="DejaVuSans-6e" d="M88.9,101.6v5.2h-1.4v-5.2c0-.8-.2-1.4-.5-1.8-.3-.4-.8-.6-1.4-.6s-1.4.2-1.8.7c-.4.5-.7,1.2-.7,2v4.9h-1.4v-8.6h1.4v1.3c.3-.5.7-.9,1.2-1.2.5-.3,1-.4,1.6-.4,1,0,1.7.3,2.2.9.5.6.8,1.5.8,2.7Z"/>
          <path id="DejaVuSans-6f-7" data-name="DejaVuSans-6f" d="M95.1,99.2c-.8,0-1.4.3-1.8.9s-.7,1.4-.7,2.4.2,1.8.7,2.4c.4.6,1,.9,1.8.9s1.4-.3,1.8-.9c.4-.6.7-1.4.7-2.4s-.2-1.8-.7-2.4c-.4-.6-1-.9-1.8-.9ZM95.1,98c1.2,0,2.2.4,2.9,1.2.7.8,1.1,1.9,1.1,3.3s-.4,2.5-1.1,3.3c-.7.8-1.7,1.2-2.9,1.2s-2.2-.4-2.9-1.2c-.7-.8-1.1-1.9-1.1-3.3s.4-2.5,1.1-3.3c.7-.8,1.7-1.2,2.9-1.2Z"/>
          <path id="DejaVuSans-77" d="M108.4,98.2h1.4l1.8,6.7,1.8-6.7h1.7l1.8,6.7,1.8-6.7h1.4l-2.3,8.6h-1.7l-1.9-7.1-1.9,7.1h-1.7l-2.3-8.6Z"/>
          <path id="DejaVuSans-65-15" data-name="DejaVuSans-65" d="M129.6,102.2v.7h-6.5c0,1,.4,1.7.9,2.2.5.5,1.3.8,2.2.8s1.1,0,1.6-.2,1-.3,1.5-.6v1.3c-.5.2-1,.4-1.6.5s-1.1.2-1.6.2c-1.4,0-2.5-.4-3.3-1.2-.8-.8-1.2-1.9-1.2-3.3s.4-2.5,1.1-3.4c.8-.8,1.8-1.2,3.1-1.2s2.1.4,2.8,1.1c.7.7,1,1.8,1,3ZM128.2,101.8c0-.8-.2-1.4-.7-1.9-.4-.5-1-.7-1.7-.7s-1.4.2-1.9.7-.7,1.1-.8,1.9h5.1Z"/>
          <path id="DejaVuSans-62-2" data-name="DejaVuSans-62" d="M138.1,102.5c0-1-.2-1.9-.6-2.5s-1-.9-1.8-.9-1.3.3-1.8.9-.6,1.4-.6,2.5.2,1.9.6,2.5c.4.6,1,.9,1.8.9s1.3-.3,1.8-.9c.4-.6.6-1.4.6-2.5ZM133.3,99.5c.3-.5.7-.9,1.1-1.1.5-.2,1-.4,1.6-.4,1,0,1.9.4,2.6,1.2.7.8,1,1.9,1,3.3s-.3,2.5-1,3.3c-.7.8-1.5,1.2-2.6,1.2s-1.2-.1-1.6-.4c-.5-.2-.8-.6-1.1-1.1v1.3h-1.4v-12h1.4v4.7Z"/>
          <path id="DejaVuSans-73-7" data-name="DejaVuSans-73" d="M147.4,98.5v1.3c-.4-.2-.8-.4-1.2-.5-.4-.1-.9-.2-1.3-.2-.7,0-1.2.1-1.6.3-.4.2-.5.5-.5,1s.1.6.4.8.8.4,1.5.5h.5c1,.3,1.7.6,2.1,1s.6.9.6,1.6-.3,1.4-1,1.9c-.6.5-1.5.7-2.6.7s-.9,0-1.4-.1c-.5,0-1-.2-1.6-.4v-1.5c.5.3,1,.5,1.5.6.5.1,1,.2,1.5.2s1.2-.1,1.5-.3c.4-.2.5-.6.5-1s-.1-.7-.4-.9c-.3-.2-.8-.4-1.7-.6h-.5c-.9-.3-1.5-.6-1.9-1-.4-.4-.6-.9-.6-1.6s.3-1.4.9-1.9c.6-.4,1.4-.7,2.5-.7s1,0,1.5.1c.5,0,.9.2,1.3.3Z"/>
          <path id="DejaVuSans-69-11" data-name="DejaVuSans-69" d="M150.1,98.2h1.4v8.6h-1.4v-8.6ZM150.1,94.9h1.4v1.8h-1.4v-1.8Z"/>
          <path id="DejaVuSans-74-6" data-name="DejaVuSans-74" d="M155.9,95.8v2.5h2.9v1.1h-2.9v4.7c0,.7,0,1.2.3,1.4s.6.3,1.2.3h1.5v1.2h-1.5c-1.1,0-1.9-.2-2.3-.6-.4-.4-.6-1.2-.6-2.2v-4.7h-1v-1.1h1v-2.5h1.4Z"/>
          <path id="DejaVuSans-65-16" data-name="DejaVuSans-65" d="M168.1,102.2v.7h-6.5c0,1,.4,1.7.9,2.2.5.5,1.3.8,2.2.8s1.1,0,1.6-.2,1-.3,1.5-.6v1.3c-.5.2-1,.4-1.6.5s-1.1.2-1.6.2c-1.4,0-2.5-.4-3.3-1.2-.8-.8-1.2-1.9-1.2-3.3s.4-2.5,1.1-3.4c.8-.8,1.8-1.2,3.1-1.2s2.1.4,2.8,1.1c.7.7,1,1.8,1,3ZM166.7,101.8c0-.8-.2-1.4-.7-1.9-.4-.5-1-.7-1.7-.7s-1.4.2-1.9.7-.7,1.1-.8,1.9h5.1Z"/>
        </g>
      </g>
      <g id="line2d_15">
        <path id="m29b688780c-9" data-name="m29b688780c" class="cls-20" d="M183,63.3h-3.9"/>
      </g>
      <g id="text_16">
        <g>
          <path id="DejaVuSans-6c-5" data-name="DejaVuSans-6c" d="M65.1,55.4h1.4v12h-1.4v-12Z"/>
          <path id="DejaVuSans-6f-8" data-name="DejaVuSans-6f" d="M72.9,59.8c-.8,0-1.4.3-1.8.9s-.7,1.4-.7,2.4.2,1.8.7,2.4c.4.6,1,.9,1.8.9s1.4-.3,1.8-.9c.4-.6.7-1.4.7-2.4s-.2-1.8-.7-2.4c-.4-.6-1-.9-1.8-.9ZM72.9,58.6c1.2,0,2.2.4,2.9,1.2.7.8,1.1,1.9,1.1,3.3s-.4,2.5-1.1,3.3c-.7.8-1.7,1.2-2.9,1.2s-2.2-.4-2.9-1.2c-.7-.8-1.1-1.9-1.1-3.3s.4-2.5,1.1-3.3c.7-.8,1.7-1.2,2.9-1.2Z"/>
          <path id="DejaVuSans-63-6" data-name="DejaVuSans-63" d="M85.4,59.1v1.3c-.4-.2-.8-.4-1.2-.5s-.8-.2-1.2-.2c-.9,0-1.6.3-2.1.9-.5.6-.8,1.4-.8,2.5s.3,1.9.8,2.5c.5.6,1.2.9,2.1.9s.8,0,1.2-.2.8-.3,1.2-.5v1.3c-.4.2-.8.3-1.2.4-.4,0-.9.1-1.4.1-1.3,0-2.3-.4-3.1-1.2-.8-.8-1.1-1.9-1.1-3.3s.4-2.5,1.2-3.3c.8-.8,1.8-1.2,3.2-1.2s.9,0,1.3.1c.4,0,.8.2,1.2.4Z"/>
          <path id="DejaVuSans-61-8" data-name="DejaVuSans-61" d="M91.8,63.1c-1.1,0-1.9.1-2.4.4s-.7.7-.7,1.3.2.9.5,1.2c.3.3.8.4,1.4.4s1.4-.3,1.9-.8.7-1.3.7-2.2v-.3h-1.4ZM94.6,62.5v4.9h-1.4v-1.3c-.3.5-.7.9-1.2,1.2-.5.2-1.1.4-1.8.4s-1.6-.2-2.1-.7c-.5-.5-.8-1.2-.8-2s.3-1.7,1-2.2c.7-.5,1.6-.7,2.9-.7h2c0-.8-.2-1.3-.6-1.7s-1-.5-1.8-.5-1,0-1.4.2c-.5.1-.9.3-1.3.5v-1.3c.5-.2,1-.4,1.5-.4.5-.1,1-.2,1.4-.2,1.2,0,2.2.3,2.8,1,.6.6.9,1.6.9,2.9Z"/>
          <path id="DejaVuSans-6c-6" data-name="DejaVuSans-6c" d="M97.5,55.4h1.4v12h-1.4v-12Z"/>
          <path id="DejaVuSans-69-12" data-name="DejaVuSans-69" d="M109.8,58.8h1.4v8.6h-1.4v-8.6ZM109.8,55.4h1.4v1.8h-1.4v-1.8Z"/>
          <path id="DejaVuSans-64-5" data-name="DejaVuSans-64" d="M119.9,60.1v-4.7h1.4v12h-1.4v-1.3c-.3.5-.7.9-1.1,1.1-.5.2-1,.4-1.6.4-1,0-1.9-.4-2.5-1.2-.7-.8-1-1.9-1-3.3s.3-2.5,1-3.3c.7-.8,1.5-1.2,2.5-1.2s1.2.1,1.6.4c.5.2.8.6,1.1,1.1ZM115.1,63.1c0,1,.2,1.9.6,2.5.4.6,1,.9,1.8.9s1.3-.3,1.8-.9c.4-.6.6-1.4.6-2.5s-.2-1.9-.6-2.5c-.4-.6-1-.9-1.8-.9s-1.3.3-1.8.9-.6,1.4-.6,2.5Z"/>
          <path id="DejaVuSans-65-17" data-name="DejaVuSans-65" d="M131.6,62.7v.7h-6.5c0,1,.4,1.7.9,2.2.5.5,1.3.8,2.2.8s1.1,0,1.6-.2,1-.3,1.5-.6v1.3c-.5.2-1,.4-1.6.5s-1.1.2-1.6.2c-1.4,0-2.5-.4-3.3-1.2-.8-.8-1.2-1.9-1.2-3.3s.4-2.5,1.1-3.4c.8-.8,1.8-1.2,3.1-1.2s2.1.4,2.8,1.1c.7.7,1,1.8,1,3ZM130.2,62.3c0-.8-.2-1.4-.7-1.9-.4-.5-1-.7-1.7-.7s-1.4.2-1.9.7-.7,1.1-.8,1.9h5.1Z"/>
          <path id="DejaVuSans-6e-12" data-name="DejaVuSans-6e" d="M141.1,62.2v5.2h-1.4v-5.2c0-.8-.2-1.4-.5-1.8-.3-.4-.8-.6-1.4-.6s-1.4.2-1.8.7c-.4.5-.7,1.2-.7,2v4.9h-1.4v-8.6h1.4v1.3c.3-.5.7-.9,1.2-1.2.5-.3,1-.4,1.6-.4,1,0,1.7.3,2.2.9.5.6.8,1.5.8,2.7Z"/>
          <path id="DejaVuSans-74-7" data-name="DejaVuSans-74" d="M145.4,56.3v2.5h2.9v1.1h-2.9v4.7c0,.7,0,1.2.3,1.4s.6.3,1.2.3h1.5v1.2h-1.5c-1.1,0-1.9-.2-2.3-.6-.4-.4-.6-1.2-.6-2.2v-4.7h-1v-1.1h1v-2.5h1.4Z"/>
          <path id="DejaVuSans-69-13" data-name="DejaVuSans-69" d="M150.1,58.8h1.4v8.6h-1.4v-8.6ZM150.1,55.4h1.4v1.8h-1.4v-1.8Z"/>
          <path id="DejaVuSans-74-8" data-name="DejaVuSans-74" d="M155.9,56.3v2.5h2.9v1.1h-2.9v4.7c0,.7,0,1.2.3,1.4s.6.3,1.2.3h1.5v1.2h-1.5c-1.1,0-1.9-.2-2.3-.6-.4-.4-.6-1.2-.6-2.2v-4.7h-1v-1.1h1v-2.5h1.4Z"/>
          <path id="DejaVuSans-79-4" data-name="DejaVuSans-79" d="M164.3,68.2c-.4,1-.8,1.7-1.2,2-.4.3-.9.5-1.5.5h-1.1v-1.2h.8c.4,0,.7,0,.9-.3.2-.2.5-.6.7-1.3l.3-.6-3.5-8.5h1.5l2.7,6.8,2.7-6.8h1.5l-3.8,9.4Z"/>
        </g>
      </g>
      <g id="line2d_16">
        <path id="m29b688780c-10" data-name="m29b688780c" class="cls-20" d="M183,26h-3.9"/>
      </g>
      <g id="text_17">
        <g>
          <path id="DejaVuSans-6d-7" data-name="DejaVuSans-6d" d="M66.8,25.9c.4-.6.8-1.1,1.3-1.4s1.1-.5,1.7-.5,1.6.3,2.1.9c.5.6.7,1.5.7,2.7v5.2h-1.4v-5.2c0-.8-.1-1.4-.4-1.8-.3-.4-.7-.6-1.3-.6s-1.3.2-1.7.7c-.4.5-.6,1.2-.6,2v4.9h-1.4v-5.2c0-.8-.1-1.4-.4-1.8s-.7-.6-1.4-.6-1.3.2-1.7.7c-.4.5-.6,1.2-.6,2v4.9h-1.4v-8.6h1.4v1.3c.3-.5.7-.9,1.2-1.2s1-.4,1.6-.4,1.2.2,1.6.5c.4.3.8.8,1,1.4Z"/>
          <path id="DejaVuSans-75-4" data-name="DejaVuSans-75" d="M75.3,29.5v-5.2h1.4v5.2c0,.8.2,1.4.5,1.8.3.4.8.6,1.4.6s1.4-.2,1.8-.7c.4-.5.7-1.2.7-2v-4.9h1.4v8.6h-1.4v-1.3c-.3.5-.7.9-1.2,1.2-.5.3-1,.4-1.6.4-1,0-1.7-.3-2.3-.9-.5-.6-.8-1.5-.8-2.7ZM78.9,24h0Z"/>
          <path id="DejaVuSans-6c-7" data-name="DejaVuSans-6c" d="M85.4,20.9h1.4v12h-1.4v-12Z"/>
          <path id="DejaVuSans-74-9" data-name="DejaVuSans-74" d="M91.2,21.8v2.5h2.9v1.1h-2.9v4.7c0,.7,0,1.2.3,1.4s.6.3,1.2.3h1.5v1.2h-1.5c-1.1,0-1.9-.2-2.3-.6-.4-.4-.6-1.2-.6-2.2v-4.7h-1v-1.1h1v-2.5h1.4Z"/>
          <path id="DejaVuSans-69-14" data-name="DejaVuSans-69" d="M96,24.2h1.4v8.6h-1.4v-8.6ZM96,20.9h1.4v1.8h-1.4v-1.8Z"/>
          <path id="DejaVuSans-6c-8" data-name="DejaVuSans-6c" d="M108.3,20.9h1.4v12h-1.4v-12Z"/>
          <path id="DejaVuSans-6f-9" data-name="DejaVuSans-6f" d="M116,25.2c-.8,0-1.4.3-1.8.9s-.7,1.4-.7,2.4.2,1.8.7,2.4c.4.6,1,.9,1.8.9s1.4-.3,1.8-.9c.4-.6.7-1.4.7-2.4s-.2-1.8-.7-2.4c-.4-.6-1-.9-1.8-.9ZM116,24c1.2,0,2.2.4,2.9,1.2.7.8,1.1,1.9,1.1,3.3s-.4,2.5-1.1,3.3c-.7.8-1.7,1.2-2.9,1.2s-2.2-.4-2.9-1.2c-.7-.8-1.1-1.9-1.1-3.3s.4-2.5,1.1-3.3c.7-.8,1.7-1.2,2.9-1.2Z"/>
          <path id="DejaVuSans-63-7" data-name="DejaVuSans-63" d="M128.6,24.6v1.3c-.4-.2-.8-.4-1.2-.5s-.8-.2-1.2-.2c-.9,0-1.6.3-2.1.9-.5.6-.8,1.4-.8,2.5s.3,1.9.8,2.5c.5.6,1.2.9,2.1.9s.8,0,1.2-.2.8-.3,1.2-.5v1.3c-.4.2-.8.3-1.2.4-.4,0-.9.1-1.4.1-1.3,0-2.3-.4-3.1-1.2-.8-.8-1.1-1.9-1.1-3.3s.4-2.5,1.2-3.3c.8-.8,1.8-1.2,3.2-1.2s.9,0,1.3.1c.4,0,.8.2,1.2.4Z"/>
          <path id="DejaVuSans-61-9" data-name="DejaVuSans-61" d="M134.9,28.5c-1.1,0-1.9.1-2.4.4s-.7.7-.7,1.3.2.9.5,1.2c.3.3.8.4,1.4.4s1.4-.3,1.9-.8.7-1.3.7-2.2v-.3h-1.4ZM137.8,28v4.9h-1.4v-1.3c-.3.5-.7.9-1.2,1.2-.5.2-1.1.4-1.8.4s-1.6-.2-2.1-.7c-.5-.5-.8-1.2-.8-2s.3-1.7,1-2.2c.7-.5,1.6-.7,2.9-.7h2c0-.8-.2-1.3-.6-1.7s-1-.5-1.8-.5-1,0-1.4.2c-.5.1-.9.3-1.3.5v-1.3c.5-.2,1-.4,1.5-.4.5-.1,1-.2,1.4-.2,1.2,0,2.2.3,2.8,1,.6.6.9,1.6.9,2.9Z"/>
          <path id="DejaVuSans-74-10" data-name="DejaVuSans-74" d="M142.1,21.8v2.5h2.9v1.1h-2.9v4.7c0,.7,0,1.2.3,1.4s.6.3,1.2.3h1.5v1.2h-1.5c-1.1,0-1.9-.2-2.3-.6-.4-.4-.6-1.2-.6-2.2v-4.7h-1v-1.1h1v-2.5h1.4Z"/>
          <path id="DejaVuSans-69-15" data-name="DejaVuSans-69" d="M146.9,24.2h1.4v8.6h-1.4v-8.6ZM146.9,20.9h1.4v1.8h-1.4v-1.8Z"/>
          <path id="DejaVuSans-6f-10" data-name="DejaVuSans-6f" d="M154.6,25.2c-.8,0-1.4.3-1.8.9s-.7,1.4-.7,2.4.2,1.8.7,2.4c.4.6,1,.9,1.8.9s1.4-.3,1.8-.9c.4-.6.7-1.4.7-2.4s-.2-1.8-.7-2.4c-.4-.6-1-.9-1.8-.9ZM154.6,24c1.2,0,2.2.4,2.9,1.2.7.8,1.1,1.9,1.1,3.3s-.4,2.5-1.1,3.3c-.7.8-1.7,1.2-2.9,1.2s-2.2-.4-2.9-1.2c-.7-.8-1.1-1.9-1.1-3.3s.4-2.5,1.1-3.3c.7-.8,1.7-1.2,2.9-1.2Z"/>
          <path id="DejaVuSans-6e-13" data-name="DejaVuSans-6e" d="M168.1,27.7v5.2h-1.4v-5.2c0-.8-.2-1.4-.5-1.8-.3-.4-.8-.6-1.4-.6s-1.4.2-1.8.7c-.4.5-.7,1.2-.7,2v4.9h-1.4v-8.6h1.4v1.3c.3-.5.7-.9,1.2-1.2.5-.3,1-.4,1.6-.4,1,0,1.7.3,2.2.9.5.6.8,1.5.8,2.7Z"/>
        </g>
      </g>
      <path class="cls-2" d="M183,394.8V-7.2"/>
      <path class="cls-2" d="M183,394.8h660.9"/>
      <path id="DejaVuSans-20-4" data-name="DejaVuSans-20" d="M447.7,20.9"/>
      <path id="DejaVuSans-20-5" data-name="DejaVuSans-20" d="M506.1,20.9"/>
      <path id="DejaVuSans-20-6" data-name="DejaVuSans-20" d="M523.6,20.9"/>
      <path id="DejaVuSans-20-7" data-name="DejaVuSans-20" d="M534.7,20.9"/>
      <path id="DejaVuSans-20-8" data-name="DejaVuSans-20" d="M573.2,20.9"/>
      <path id="DejaVuSans-20-9" data-name="DejaVuSans-20" d="M588.5,20.9"/>
      <path id="DejaVuSans-20-10" data-name="DejaVuSans-20" d="M620.4,20.9"/>
      <path id="DejaVuSans-20-11" data-name="DejaVuSans-20" d="M657.8,20.9"/>
      <path id="DejaVuSans-20-12" data-name="DejaVuSans-20" d="M675.3,20.9"/>
      <path id="DejaVuSans-20-13" data-name="DejaVuSans-20" d="M689.1,20.9"/>
    </g>
  </g>
</svg>