<?xml version="1.0" encoding="UTF-8"?>
<svg id="Layer_1" xmlns="http://www.w3.org/2000/svg" viewBox="0 0 720 246.57">
  <defs>
    <style>
      .cls-1 {
        fill: none;
        stroke: #ccc;
        stroke-linecap: square;
        stroke-width: 1.25px;
      }

      .cls-2, .cls-3 {
        fill: rgba(141, 160, 203, .5);
        stroke: #8da0cb;
      }

      .cls-3, .cls-4, .cls-5 {
        stroke-linejoin: round;
      }

      .cls-6 {
        font-family: HelveticaNeue, 'Helvetica Neue';
        font-size: 12px;
      }

      .cls-7 {
        font-family: HelveticaNeue-Medium, 'Helvetica Neue';
        font-size: 18px;
        font-weight: 500;
      }

      .cls-8 {
        fill: #262626;
      }

      .cls-9, .cls-5 {
        fill: rgba(102, 194, 165, .5);
        stroke: #66c2a5;
      }

      .cls-10, .cls-4 {
        fill: rgba(252, 141, 98, .5);
        stroke: #fc8d62;
      }

      .cls-11 {
        letter-spacing: -.07em;
      }

      .cls-12 {
        letter-spacing: -.02em;
      }

      .cls-13 {
        letter-spacing: -.02em;
      }

      .cls-14 {
        letter-spacing: -.02em;
      }

      .cls-15 {
        letter-spacing: -.06em;
      }

      .cls-16 {
        letter-spacing: -.04em;
      }
    </style>
  </defs>
  <path id="m80a3a8fd7e" class="cls-3" d="M95.07,230.27v.09h581.1v-.07h0l-2.92-.02-2.92-.02-2.92-.03-2.92-.04-2.92-.04-2.92-.05-2.92-.06-2.92-.07-2.92-.09-2.92-.1-2.92-.11-2.92-.13-2.92-.15-2.92-.17-2.92-.19-2.92-.21-2.92-.23-2.92-.25-2.92-.27-2.92-.29-2.92-.31-2.92-.32-2.92-.34-2.92-.35-2.92-.37-2.92-.38-2.92-.39-2.92-.39-2.92-.4-2.92-.4-2.92-.41-2.92-.41-2.92-.42-2.92-.43-2.92-.45-2.92-.47-2.92-.49-2.92-.53-2.92-.57-2.92-.62-2.92-.69-2.92-.76-2.92-.85-2.92-.95-2.92-1.06-2.92-1.18-2.92-1.32-2.92-1.46-2.92-1.61-2.92-1.76-2.92-1.92-2.92-2.08-2.92-2.23-2.92-2.38-2.92-2.53-2.92-2.66-2.92-2.78-2.92-2.88-2.92-2.97-2.92-3.03-2.92-3.08-2.92-3.1-2.92-3.1-2.92-3.08-2.92-3.04-2.92-2.98-2.92-2.9-2.92-2.8-2.92-2.7-2.92-2.58-2.92-2.46-2.92-2.34-2.92-2.22-2.92-2.11-2.92-2.01-2.92-1.91-2.92-1.84-2.92-1.77-2.92-1.72-2.92-1.69-2.92-1.67-2.92-1.66-2.92-1.65-2.92-1.65-2.92-1.65-2.92-1.64-2.92-1.62-2.92-1.58-2.92-1.52-2.92-1.43-2.92-1.32-2.92-1.17-2.92-1-2.92-.79-2.92-.54-2.92-.27-2.92.02-2.92.34-2.92.68-2.92,1.02-2.92,1.37-2.92,1.72-2.92,2.06-2.92,2.38-2.92,2.69-2.92,2.97-2.92,3.22-2.92,3.44-2.92,3.62-2.92,3.77-2.92,3.88-2.92,3.96-2.92,4-2.92,4.01-2.92,3.99-2.92,3.94-2.92,3.86-2.92,3.76-2.92,3.64-2.92,3.51-2.92,3.36-2.92,3.21-2.92,3.04-2.92,2.88-2.92,2.71-2.92,2.53-2.92,2.36-2.92,2.2-2.92,2.03-2.92,1.87-2.92,1.71-2.92,1.56-2.92,1.42-2.92,1.27-2.92,1.14-2.92,1.01-2.92.88-2.92.76-2.92.65-2.92.54-2.92.44-2.92.34-2.92.26-2.92.17-2.92.1-2.92.03-2.92-.02-2.92-.07-2.92-.11-2.92-.14-2.92-.15-2.92-.16-2.92-.15-2.92-.14-2.92-.11-2.92-.08-2.92-.04h-2.92s-2.92.08-2.92.08l-2.92.12-2.92.18-2.92.25-2.92.31-2.92.37-2.92.42-2.92.47-2.92.52-2.92.55-2.92.58-2.92.6-2.92.62-2.92.63-2.92.62-2.92.62-2.92.6-2.92.58-2.92.56-2.92.53-2.92.5-2.92.46-2.92.43-2.92.39-2.92.35-2.92.32-2.92.28-2.92.25-2.92.22-2.92.19-2.92.17-2.92.14-2.92.12-2.92.1-2.92.09-2.92.07-2.92.06-2.92.05-2.92.04-2.92.03-2.92.03Z"/>
  <path id="m0df025e83c" class="cls-4" d="M226.24,230.3v.06h447.15v-.12h0l-2.25-.03-2.25-.04-2.25-.05-2.25-.06-2.25-.07-2.25-.09-2.25-.11-2.25-.13-2.25-.15-2.25-.18-2.25-.21-2.25-.24-2.25-.28-2.25-.32-2.25-.36-2.25-.41-2.25-.46-2.25-.51-2.25-.57-2.25-.63-2.25-.69-2.25-.75-2.25-.82-2.25-.89-2.25-.96-2.25-1.03-2.25-1.1-2.25-1.17-2.25-1.24-2.25-1.31-2.25-1.38-2.25-1.45-2.25-1.52-2.25-1.59-2.25-1.66-2.25-1.72-2.25-1.79-2.25-1.86-2.25-1.92-2.25-1.99-2.25-2.05-2.25-2.12-2.25-2.18-2.25-2.24-2.25-2.3-2.25-2.36-2.25-2.41-2.25-2.47-2.25-2.52-2.25-2.58-2.25-2.64-2.25-2.69-2.25-2.75-2.25-2.81-2.25-2.87-2.25-2.93-2.25-3-2.25-3.07-2.25-3.13-2.25-3.2-2.25-3.27-2.25-3.33-2.25-3.39-2.25-3.44-2.25-3.48-2.25-3.51-2.25-3.52-2.25-3.51-2.25-3.48-2.25-3.42-2.25-3.34-2.25-3.23-2.25-3.08-2.25-2.9-2.25-2.69-2.25-2.45-2.25-2.19-2.25-1.89-2.25-1.57-2.25-1.22-2.25-.87-2.25-.5-2.25-.12-2.25.26-2.25.63-2.25,1-2.25,1.36-2.25,1.69-2.25,2.01-2.25,2.31-2.25,2.58-2.25,2.82-2.25,3.04-2.25,3.22-2.25,3.38-2.25,3.51-2.25,3.61-2.25,3.68-2.25,3.73-2.25,3.75-2.25,3.75-2.25,3.73-2.25,3.68-2.25,3.62-2.25,3.54-2.25,3.44-2.25,3.32-2.25,3.19-2.25,3.05-2.25,2.89-2.25,2.72-2.25,2.55-2.25,2.37-2.25,2.19-2.25,2.01-2.25,1.83-2.25,1.66-2.25,1.49-2.25,1.33-2.25,1.19-2.25,1.06-2.25.94-2.25.84-2.25.76-2.25.69-2.25.64-2.25.61-2.25.6-2.25.6-2.25.61-2.25.63-2.25.67-2.25.7-2.25.75-2.25.79-2.25.83-2.25.87-2.25.91-2.25.94-2.25.97-2.25.99-2.25,1-2.25,1.01-2.25,1.01-2.25,1-2.25,1-2.25.98-2.25.97-2.25.95-2.25.93-2.25.92-2.25.9-2.25.88-2.25.87-2.25.86-2.25.84-2.25.83-2.25.82-2.25.82-2.25.81-2.25.8-2.25.79-2.25.78-2.25.77-2.25.76-2.25.74-2.25.72-2.25.7-2.25.68-2.25.66-2.25.63-2.25.6-2.25.57-2.25.54-2.25.51-2.25.47-2.25.44-2.25.4-2.25.37-2.25.34-2.25.31-2.25.28-2.25.25-2.25.22-2.25.19-2.25.17-2.25.15-2.25.13-2.25.11-2.25.09-2.25.08-2.25.07-2.25.06-2.25.05-2.25.04-2.25.03-2.25.03-2.25.02-2.25.02Z"/>
  <path id="me14609a379" class="cls-5" d="M58.69,230.26v.1h593.16v-.15h0l-2.98-.04-2.98-.04-2.98-.05-2.98-.06-2.98-.07-2.98-.09-2.98-.1-2.98-.12-2.98-.14-2.98-.16-2.98-.18-2.98-.21-2.98-.24-2.98-.27-2.98-.3-2.98-.34-2.98-.38-2.98-.42-2.98-.46-2.98-.5-2.98-.55-2.98-.59-2.98-.64-2.98-.69-2.98-.73-2.98-.78-2.98-.82-2.98-.86-2.98-.9-2.98-.94-2.98-.97-2.98-.99-2.98-1.02-2.98-1.04-2.98-1.05-2.98-1.06-2.98-1.07-2.98-1.08-2.98-1.08-2.98-1.08-2.98-1.08-2.98-1.07-2.98-1.07-2.98-1.07-2.98-1.08-2.98-1.08-2.98-1.1-2.98-1.11-2.98-1.13-2.98-1.16-2.98-1.2-2.98-1.24-2.98-1.3-2.98-1.35-2.98-1.42-2.98-1.49-2.98-1.57-2.98-1.65-2.98-1.73-2.98-1.82-2.98-1.9-2.98-1.98-2.98-2.06-2.98-2.14-2.98-2.2-2.98-2.26-2.98-2.31-2.98-2.34-2.98-2.36-2.98-2.37-2.98-2.36-2.98-2.34-2.98-2.3-2.98-2.24-2.98-2.17-2.98-2.08-2.98-1.98-2.98-1.87-2.98-1.74-2.98-1.61-2.98-1.46-2.98-1.31-2.98-1.15-2.98-.99-2.98-.83-2.98-.67-2.98-.51-2.98-.35-2.98-.2-2.98-.06-2.98.08-2.98.21-2.98.33-2.98.45-2.98.55-2.98.65-2.98.74-2.98.83-2.98.9-2.98.97-2.98,1.04-2.98,1.1-2.98,1.16-2.98,1.21-2.98,1.27-2.98,1.33-2.98,1.38-2.98,1.44-2.98,1.5-2.98,1.56-2.98,1.62-2.98,1.68-2.98,1.75-2.98,1.82-2.98,1.88-2.98,1.95-2.98,2.01-2.98,2.07-2.98,2.13-2.98,2.18-2.98,2.23-2.98,2.27-2.98,2.3-2.98,2.32-2.98,2.33-2.98,2.33-2.98,2.31-2.98,2.29-2.98,2.25-2.98,2.2-2.98,2.14-2.98,2.07-2.98,1.99-2.98,1.9-2.98,1.81-2.98,1.7-2.98,1.6-2.98,1.49-2.98,1.37-2.98,1.26-2.98,1.15-2.98,1.04-2.98.94-2.98.84-2.98.75-2.98.67-2.98.59-2.98.53-2.98.47-2.98.42-2.98.38-2.98.35-2.98.33-2.98.31-2.98.3-2.98.3-2.98.3-2.98.31-2.98.31-2.98.33-2.98.34-2.98.35-2.98.37-2.98.38-2.98.39-2.98.4-2.98.41-2.98.41-2.98.41-2.98.41-2.98.41-2.98.4-2.98.39-2.98.38-2.98.36-2.98.35-2.98.33-2.98.31-2.98.29-2.98.27-2.98.25-2.98.23-2.98.21-2.98.19-2.98.17-2.98.16-2.98.14-2.98.12-2.98.11-2.98.1-2.98.08-2.98.07-2.98.06-2.98.05-2.98.05-2.98.04-2.98.03-2.98.03-2.98.02Z"/>
  <path class="cls-1" d="M27.82,230.36V78.58"/>
  <path class="cls-1" d="M27.82,230.36h679.22"/>
  <text class="cls-6" transform="translate(623.77 242.14)"><tspan x="0" y="0">higher </tspan><tspan class="cls-14" x="36.67" y="0">r</tspan><tspan x="40.45" y="0">ent</tspan></text>
  <text class="cls-7" transform="translate(27.82 31.65)"><tspan x="0" y="0">Rent Levels in Neighborhoods With Thi</tspan><tspan class="cls-13" x="323.44" y="0">r</tspan><tspan x="329.45" y="0">d-</tspan><tspan class="cls-16" x="347.45" y="0">W</tspan><tspan x="363.78" y="0">ave Co</tspan><tspan class="cls-13" x="421.81" y="0">f</tspan><tspan x="427.15" y="0">fee Shops</tspan></text>
  <text class="cls-6" transform="translate(27.82 50.29)"><tspan x="0" y="0">In all th</tspan><tspan class="cls-14" x="38.67" y="0">r</tspan><tspan x="42.46" y="0">ee cities, thi</tspan><tspan class="cls-14" x="106.46" y="0">r</tspan><tspan x="110.24" y="0">d-wave cafés concentrate in highe</tspan><tspan class="cls-15" x="294.92" y="0">r</tspan><tspan x="298.25" y="0">-</tspan><tspan class="cls-14" x="302.92" y="0">r</tspan><tspan x="306.7" y="0">ent a</tspan><tspan class="cls-14" x="333.38" y="0">r</tspan><tspan x="337.16" y="0">eas—but </tspan><tspan x="0" y="14.4">NYC</tspan><tspan class="cls-11" x="25.1" y="14.4">’</tspan><tspan x="27.55" y="14.4">s co</tspan><tspan class="cls-12" x="50.22" y="14.4">f</tspan><tspan x="53.55" y="14.4">fee neighborhoods command the steepest prices.</tspan></text>
  <path d="M700.47,243.39s-.07-.03-.1-.05c-.29-.12-.38-.44-.18-.69.05-.06.11-.12.17-.18,1.12-1.12,2.25-2.25,3.37-3.37.05-.05.09-.1.17-.18h-.28c-5.71,0-11.42,0-17.13,0-.28,0-.5-.07-.62-.34v-.19c.1-.31.34-.37.63-.37,5.7,0,11.41,0,17.11,0h.29c-.08-.09-.13-.14-.18-.19-1.14-1.14-2.29-2.28-3.43-3.43-.08-.08-.16-.19-.2-.29-.06-.16.03-.37.18-.47.15-.1.35-.1.5,0,.07.05.13.11.18.17,1.41,1.41,2.83,2.82,4.24,4.23.31.31.31.52,0,.83-1.43,1.43-2.86,2.86-4.3,4.28-.11.1-.27.15-.4.23h-.04Z"/>
  <path class="cls-9" d="M38.08,182.72h22v-7.7h-22"/>
  <path id="ArialMT-4d" class="cls-8" d="M69.69,182.72v-7.87h1.57l1.86,5.57c.17.52.3.91.38,1.17.09-.29.23-.71.42-1.26l1.89-5.48h1.4v7.87h-1v-6.59l-2.29,6.59h-.94l-2.28-6.7v6.7h-1Z"/>
  <path id="ArialMT-69" class="cls-8" d="M78.77,175.96v-1.11h.97v1.11h-.97ZM78.77,182.72v-5.7h.97v5.7h-.97Z"/>
  <path id="ArialMT-61" class="cls-8" d="M84.93,182.02c-.36.3-.7.52-1.03.64-.33.12-.69.19-1.07.19-.63,0-1.11-.15-1.45-.46s-.51-.7-.51-1.17c0-.28.06-.53.19-.76.13-.23.29-.42.5-.56s.44-.25.7-.32c.19-.05.48-.1.86-.15.78-.09,1.35-.2,1.72-.33,0-.13,0-.22,0-.25,0-.39-.09-.67-.27-.83-.25-.22-.61-.33-1.1-.33-.45,0-.79.08-1.01.24s-.38.44-.48.85l-.95-.13c.09-.4.23-.73.42-.98.2-.25.48-.44.85-.57.37-.14.8-.2,1.29-.2s.88.06,1.19.17c.3.11.53.26.67.43.14.17.24.39.3.66.03.16.05.46.05.89v1.29c0,.9.02,1.47.06,1.71.04.24.12.47.25.68h-1.01c-.1-.2-.16-.43-.19-.7ZM84.85,179.86c-.35.14-.88.27-1.58.37-.4.06-.68.12-.84.19-.16.07-.29.18-.38.31-.09.14-.13.29-.13.46,0,.26.1.47.29.64.2.17.48.26.86.26s.7-.08.99-.24c.29-.16.5-.39.64-.67.1-.22.16-.54.16-.97v-.36Z"/>
  <path id="ArialMT-6d" class="cls-8" d="M87.33,182.72v-5.7h.86v.8c.18-.28.42-.5.71-.67.3-.17.64-.26,1.02-.26.42,0,.77.09,1.04.26s.46.42.57.74c.45-.67,1.04-1,1.76-1,.57,0,1,.16,1.3.47.3.31.46.8.46,1.45v3.92h-.96v-3.59c0-.39-.03-.66-.09-.83-.06-.17-.18-.31-.34-.41-.16-.1-.36-.16-.58-.16-.4,0-.73.13-1,.4-.26.27-.4.69-.4,1.28v3.31h-.97v-3.71c0-.43-.08-.75-.24-.97-.16-.22-.41-.32-.77-.32-.27,0-.52.07-.75.21-.23.14-.4.35-.5.63-.1.27-.16.67-.16,1.19v2.96h-.97Z"/>
  <path id="ArialMT-69-2" data-name="ArialMT-69" class="cls-8" d="M96.5,175.96v-1.11h.97v1.11h-.97ZM96.5,182.72v-5.7h.97v5.7h-.97Z"/>
  <path class="cls-10" d="M38.08,198.28h22v-7.7h-22"/>
  <path id="ArialMT-4e" class="cls-8" d="M69.72,198.28v-7.87h1.07l4.14,6.18v-6.18h1v7.87h-1.07l-4.14-6.19v6.19h-1Z"/>
  <path id="ArialMT-59" class="cls-8" d="M79.89,198.28v-3.34l-3.03-4.54h1.27l1.55,2.37c.29.44.55.89.8,1.33.24-.41.52-.87.86-1.39l1.53-2.32h1.21l-3.14,4.54v3.34h-1.04Z"/>
  <path id="ArialMT-43" class="cls-8" d="M90.63,195.52l1.04.26c-.22.86-.61,1.51-1.18,1.96-.57.45-1.26.67-2.08.67s-1.54-.17-2.07-.52c-.53-.35-.94-.85-1.21-1.5-.28-.66-.42-1.36-.42-2.11,0-.82.16-1.54.47-2.14.31-.61.76-1.07,1.34-1.39.58-.32,1.22-.48,1.91-.48.79,0,1.45.2,1.99.6.54.4.91.96,1.12,1.69l-1.03.24c-.18-.57-.45-.99-.8-1.25-.35-.26-.78-.39-1.31-.39-.6,0-1.11.15-1.52.44-.41.29-.69.68-.86,1.17-.16.49-.25.99-.25,1.51,0,.67.1,1.25.29,1.75.19.5.5.87.91,1.12.41.25.86.37,1.34.37.58,0,1.08-.17,1.48-.5.41-.34.68-.84.82-1.5Z"/>
  <path class="cls-2" d="M38.08,216.88h22v-7.7h-22"/>
  <path id="ArialMT-44" class="cls-8" d="M69.73,216.88v-7.87h2.71c.61,0,1.08.04,1.4.11.45.1.83.29,1.15.56.42.35.73.8.93,1.35.21.55.31,1.17.31,1.87,0,.6-.07,1.13-.21,1.59-.14.46-.32.84-.54,1.15-.22.3-.46.54-.72.71-.26.17-.57.3-.94.39s-.79.13-1.26.13h-2.84ZM70.77,215.95h1.68c.52,0,.93-.05,1.22-.14s.53-.23.71-.41c.25-.25.44-.58.58-1s.21-.92.21-1.52c0-.82-.14-1.46-.41-1.9s-.6-.74-.98-.89c-.28-.11-.73-.16-1.35-.16h-1.66v6.02Z"/>
  <path id="ArialMT-61-2" data-name="ArialMT-61" class="cls-8" d="M81.27,216.18c-.36.3-.7.52-1.03.64-.33.12-.69.19-1.07.19-.63,0-1.11-.15-1.45-.46s-.51-.7-.51-1.17c0-.28.06-.53.19-.76.13-.23.29-.42.5-.56s.44-.25.7-.32c.19-.05.48-.1.86-.15.78-.09,1.35-.2,1.72-.33,0-.13,0-.22,0-.25,0-.39-.09-.67-.27-.83-.25-.22-.61-.33-1.1-.33-.45,0-.79.08-1.01.24s-.38.44-.48.85l-.95-.13c.09-.4.23-.73.42-.98.2-.25.48-.44.85-.57.37-.14.8-.2,1.29-.2s.88.06,1.19.17c.3.11.53.26.67.43.14.17.24.39.3.66.03.16.05.46.05.89v1.29c0,.9.02,1.47.06,1.71.04.24.12.47.25.68h-1.01c-.1-.2-.16-.43-.19-.7ZM81.19,214.02c-.35.14-.88.27-1.58.37-.4.06-.68.12-.84.19-.16.07-.29.18-.38.31-.09.14-.13.29-.13.46,0,.26.1.47.29.64.2.17.48.26.86.26s.7-.08.99-.24c.29-.16.5-.39.64-.67.1-.22.16-.54.16-.97v-.36Z"/>
  <path id="ArialMT-6c" class="cls-8" d="M83.64,216.88v-7.87h.97v7.87h-.97Z"/>
  <path id="ArialMT-6c-2" data-name="ArialMT-6c" class="cls-8" d="M86.09,216.88v-7.87h.97v7.87h-.97Z"/>
  <path id="ArialMT-61-3" data-name="ArialMT-61" class="cls-8" d="M92.27,216.18c-.36.3-.7.52-1.03.64-.33.12-.69.19-1.07.19-.63,0-1.11-.15-1.45-.46s-.51-.7-.51-1.17c0-.28.06-.53.19-.76.13-.23.29-.42.5-.56s.44-.25.7-.32c.19-.05.48-.1.86-.15.78-.09,1.35-.2,1.72-.33,0-.13,0-.22,0-.25,0-.39-.09-.67-.27-.83-.25-.22-.61-.33-1.1-.33-.45,0-.79.08-1.01.24s-.38.44-.48.85l-.95-.13c.09-.4.23-.73.42-.98.2-.25.48-.44.85-.57.37-.14.8-.2,1.29-.2s.88.06,1.19.17c.3.11.53.26.67.43.14.17.24.39.3.66.03.16.05.46.05.89v1.29c0,.9.02,1.47.06,1.71.04.24.12.47.25.68h-1.01c-.1-.2-.16-.43-.19-.7ZM92.19,214.02c-.35.14-.88.27-1.58.37-.4.06-.68.12-.84.19-.16.07-.29.18-.38.31-.09.14-.13.29-.13.46,0,.26.1.47.29.64.2.17.48.26.86.26s.7-.08.99-.24c.29-.16.5-.39.64-.67.1-.22.16-.54.16-.97v-.36Z"/>
  <path id="ArialMT-73" class="cls-8" d="M94.28,215.18l.96-.15c.05.38.2.68.45.88.25.2.59.31,1.03.31s.77-.09.99-.27c.22-.18.32-.39.32-.64,0-.22-.1-.39-.29-.52-.13-.09-.46-.19-.99-.33-.71-.18-1.2-.34-1.47-.47s-.48-.31-.62-.54c-.14-.23-.21-.49-.21-.77,0-.25.06-.49.17-.7.12-.22.28-.4.48-.54.15-.11.35-.2.61-.28.26-.08.54-.12.84-.12.45,0,.84.06,1.18.19.34.13.59.3.75.52.16.22.27.51.33.88l-.95.13c-.04-.29-.17-.52-.37-.69-.21-.16-.5-.25-.87-.25-.44,0-.76.07-.95.22-.19.15-.29.32-.29.52,0,.12.04.24.12.34.08.1.2.19.37.26.1.04.38.12.85.25.68.18,1.16.33,1.43.45.27.12.48.28.64.51.15.22.23.5.23.83s-.09.63-.28.91c-.19.28-.46.5-.81.66-.35.16-.75.23-1.2.23-.74,0-1.31-.15-1.69-.46-.39-.31-.64-.76-.74-1.37Z"/>
  <path class="cls-9" d="M38.08,182.72h22v-7.7h-22"/>
  <path id="ArialMT-4d-2" data-name="ArialMT-4d" class="cls-8" d="M69.69,182.72v-7.87h1.57l1.86,5.57c.17.52.3.91.38,1.17.09-.29.23-.71.42-1.26l1.89-5.48h1.4v7.87h-1v-6.59l-2.29,6.59h-.94l-2.28-6.7v6.7h-1Z"/>
  <path id="ArialMT-69-3" data-name="ArialMT-69" class="cls-8" d="M78.77,175.96v-1.11h.97v1.11h-.97ZM78.77,182.72v-5.7h.97v5.7h-.97Z"/>
  <path id="ArialMT-61-4" data-name="ArialMT-61" class="cls-8" d="M84.93,182.02c-.36.3-.7.52-1.03.64-.33.12-.69.19-1.07.19-.63,0-1.11-.15-1.45-.46s-.51-.7-.51-1.17c0-.28.06-.53.19-.76.13-.23.29-.42.5-.56s.44-.25.7-.32c.19-.05.48-.1.86-.15.78-.09,1.35-.2,1.72-.33,0-.13,0-.22,0-.25,0-.39-.09-.67-.27-.83-.25-.22-.61-.33-1.1-.33-.45,0-.79.08-1.01.24s-.38.44-.48.85l-.95-.13c.09-.4.23-.73.42-.98.2-.25.48-.44.85-.57.37-.14.8-.2,1.29-.2s.88.06,1.19.17c.3.11.53.26.67.43.14.17.24.39.3.66.03.16.05.46.05.89v1.29c0,.9.02,1.47.06,1.71.04.24.12.47.25.68h-1.01c-.1-.2-.16-.43-.19-.7ZM84.85,179.86c-.35.14-.88.27-1.58.37-.4.06-.68.12-.84.19-.16.07-.29.18-.38.31-.09.14-.13.29-.13.46,0,.26.1.47.29.64.2.17.48.26.86.26s.7-.08.99-.24c.29-.16.5-.39.64-.67.1-.22.16-.54.16-.97v-.36Z"/>
  <path id="ArialMT-6d-2" data-name="ArialMT-6d" class="cls-8" d="M87.33,182.72v-5.7h.86v.8c.18-.28.42-.5.71-.67.3-.17.64-.26,1.02-.26.42,0,.77.09,1.04.26s.46.42.57.74c.45-.67,1.04-1,1.76-1,.57,0,1,.16,1.3.47.3.31.46.8.46,1.45v3.92h-.96v-3.59c0-.39-.03-.66-.09-.83-.06-.17-.18-.31-.34-.41-.16-.1-.36-.16-.58-.16-.4,0-.73.13-1,.4-.26.27-.4.69-.4,1.28v3.31h-.97v-3.71c0-.43-.08-.75-.24-.97-.16-.22-.41-.32-.77-.32-.27,0-.52.07-.75.21-.23.14-.4.35-.5.63-.1.27-.16.67-.16,1.19v2.96h-.97Z"/>
  <path id="ArialMT-69-4" data-name="ArialMT-69" class="cls-8" d="M96.5,175.96v-1.11h.97v1.11h-.97ZM96.5,182.72v-5.7h.97v5.7h-.97Z"/>
  <path class="cls-10" d="M38.08,198.28h22v-7.7h-22"/>
  <path id="ArialMT-4e-2" data-name="ArialMT-4e" class="cls-8" d="M69.72,198.28v-7.87h1.07l4.14,6.18v-6.18h1v7.87h-1.07l-4.14-6.19v6.19h-1Z"/>
  <path id="ArialMT-59-2" data-name="ArialMT-59" class="cls-8" d="M79.89,198.28v-3.34l-3.03-4.54h1.27l1.55,2.37c.29.44.55.89.8,1.33.24-.41.52-.87.86-1.39l1.53-2.32h1.21l-3.14,4.54v3.34h-1.04Z"/>
  <path id="ArialMT-43-2" data-name="ArialMT-43" class="cls-8" d="M90.63,195.52l1.04.26c-.22.86-.61,1.51-1.18,1.96-.57.45-1.26.67-2.08.67s-1.54-.17-2.07-.52c-.53-.35-.94-.85-1.21-1.5-.28-.66-.42-1.36-.42-2.11,0-.82.16-1.54.47-2.14.31-.61.76-1.07,1.34-1.39.58-.32,1.22-.48,1.91-.48.79,0,1.45.2,1.99.6.54.4.91.96,1.12,1.69l-1.03.24c-.18-.57-.45-.99-.8-1.25-.35-.26-.78-.39-1.31-.39-.6,0-1.11.15-1.52.44-.41.29-.69.68-.86,1.17-.16.49-.25.99-.25,1.51,0,.67.1,1.25.29,1.75.19.5.5.87.91,1.12.41.25.86.37,1.34.37.58,0,1.08-.17,1.48-.5.41-.34.68-.84.82-1.5Z"/>
  <path class="cls-2" d="M38.08,216.88h22v-7.7h-22"/>
  <path id="ArialMT-44-2" data-name="ArialMT-44" class="cls-8" d="M69.73,216.88v-7.87h2.71c.61,0,1.08.04,1.4.11.45.1.83.29,1.15.56.42.35.73.8.93,1.35.21.55.31,1.17.31,1.87,0,.6-.07,1.13-.21,1.59-.14.46-.32.84-.54,1.15-.22.3-.46.54-.72.71-.26.17-.57.3-.94.39s-.79.13-1.26.13h-2.84ZM70.77,215.95h1.68c.52,0,.93-.05,1.22-.14s.53-.23.71-.41c.25-.25.44-.58.58-1s.21-.92.21-1.52c0-.82-.14-1.46-.41-1.9s-.6-.74-.98-.89c-.28-.11-.73-.16-1.35-.16h-1.66v6.02Z"/>
  <path id="ArialMT-61-5" data-name="ArialMT-61" class="cls-8" d="M81.27,216.18c-.36.3-.7.52-1.03.64-.33.12-.69.19-1.07.19-.63,0-1.11-.15-1.45-.46s-.51-.7-.51-1.17c0-.28.06-.53.19-.76.13-.23.29-.42.5-.56s.44-.25.7-.32c.19-.05.48-.1.86-.15.78-.09,1.35-.2,1.72-.33,0-.13,0-.22,0-.25,0-.39-.09-.67-.27-.83-.25-.22-.61-.33-1.1-.33-.45,0-.79.08-1.01.24s-.38.44-.48.85l-.95-.13c.09-.4.23-.73.42-.98.2-.25.48-.44.85-.57.37-.14.8-.2,1.29-.2s.88.06,1.19.17c.3.11.53.26.67.43.14.17.24.39.3.66.03.16.05.46.05.89v1.29c0,.9.02,1.47.06,1.71.04.24.12.47.25.68h-1.01c-.1-.2-.16-.43-.19-.7ZM81.19,214.02c-.35.14-.88.27-1.58.37-.4.06-.68.12-.84.19-.16.07-.29.18-.38.31-.09.14-.13.29-.13.46,0,.26.1.47.29.64.2.17.48.26.86.26s.7-.08.99-.24c.29-.16.5-.39.64-.67.1-.22.16-.54.16-.97v-.36Z"/>
  <path id="ArialMT-6c-3" data-name="ArialMT-6c" class="cls-8" d="M83.64,216.88v-7.87h.97v7.87h-.97Z"/>
  <path id="ArialMT-6c-4" data-name="ArialMT-6c" class="cls-8" d="M86.09,216.88v-7.87h.97v7.87h-.97Z"/>
  <path id="ArialMT-61-6" data-name="ArialMT-61" class="cls-8" d="M92.27,216.18c-.36.3-.7.52-1.03.64-.33.12-.69.19-1.07.19-.63,0-1.11-.15-1.45-.46s-.51-.7-.51-1.17c0-.28.06-.53.19-.76.13-.23.29-.42.5-.56s.44-.25.7-.32c.19-.05.48-.1.86-.15.78-.09,1.35-.2,1.72-.33,0-.13,0-.22,0-.25,0-.39-.09-.67-.27-.83-.25-.22-.61-.33-1.1-.33-.45,0-.79.08-1.01.24s-.38.44-.48.85l-.95-.13c.09-.4.23-.73.42-.98.2-.25.48-.44.85-.57.37-.14.8-.2,1.29-.2s.88.06,1.19.17c.3.11.53.26.67.43.14.17.24.39.3.66.03.16.05.46.05.89v1.29c0,.9.02,1.47.06,1.71.04.24.12.47.25.68h-1.01c-.1-.2-.16-.43-.19-.7ZM92.19,214.02c-.35.14-.88.27-1.58.37-.4.06-.68.12-.84.19-.16.07-.29.18-.38.31-.09.14-.13.29-.13.46,0,.26.1.47.29.64.2.17.48.26.86.26s.7-.08.99-.24c.29-.16.5-.39.64-.67.1-.22.16-.54.16-.97v-.36Z"/>
  <path id="ArialMT-73-2" data-name="ArialMT-73" class="cls-8" d="M94.28,215.18l.96-.15c.05.38.2.68.45.88.25.2.59.31,1.03.31s.77-.09.99-.27c.22-.18.32-.39.32-.64,0-.22-.1-.39-.29-.52-.13-.09-.46-.19-.99-.33-.71-.18-1.2-.34-1.47-.47s-.48-.31-.62-.54c-.14-.23-.21-.49-.21-.77,0-.25.06-.49.17-.7.12-.22.28-.4.48-.54.15-.11.35-.2.61-.28.26-.08.54-.12.84-.12.45,0,.84.06,1.18.19.34.13.59.3.75.52.16.22.27.51.33.88l-.95.13c-.04-.29-.17-.52-.37-.69-.21-.16-.5-.25-.87-.25-.44,0-.76.07-.95.22-.19.15-.29.32-.29.52,0,.12.04.24.12.34.08.1.2.19.37.26.1.04.38.12.85.25.68.18,1.16.33,1.43.45.27.12.48.28.64.51.15.22.23.5.23.83s-.09.63-.28.91c-.19.28-.46.5-.81.66-.35.16-.75.23-1.2.23-.74,0-1.31-.15-1.69-.46-.39-.31-.64-.76-.74-1.37Z"/>
</svg>