<?xml version="1.0" encoding="UTF-8"?>
<svg id="Layer_1" xmlns="http://www.w3.org/2000/svg" xmlns:xlink="http://www.w3.org/1999/xlink" viewBox="0 0 720 246.57">
  <defs>
    <style>
      .cls-1, .cls-2 {
        fill: none;
      }

      .cls-2 {
        stroke: #ccc;
        stroke-linecap: square;
        stroke-width: 1.25px;
      }

      .cls-3, .cls-4 {
        fill: rgba(141, 160, 203, .5);
        stroke: #8da0cb;
      }

      .cls-4, .cls-5, .cls-6 {
        stroke-linejoin: round;
      }

      .cls-7 {
        font-family: HelveticaNeue, 'Helvetica Neue';
        font-size: 12px;
      }

      .cls-8 {
        font-family: HelveticaNeue-Medium, 'Helvetica Neue';
        font-size: 18px;
        font-weight: 500;
      }

      .cls-9 {
        clip-path: url(#clippath-1);
      }

      .cls-10 {
        clip-path: url(#clippath-2);
      }

      .cls-11 {
        letter-spacing: 0em;
      }

      .cls-12 {
        letter-spacing: 0em;
      }

      .cls-13 {
        fill: #262626;
      }

      .cls-14, .cls-6 {
        fill: rgba(102, 194, 165, .5);
        stroke: #66c2a5;
      }

      .cls-15, .cls-5 {
        fill: rgba(252, 141, 98, .5);
        stroke: #fc8d62;
      }

      .cls-16 {
        letter-spacing: -.07em;
      }

      .cls-17 {
        letter-spacing: -.02em;
      }

      .cls-18 {
        letter-spacing: -.02em;
      }

      .cls-19 {
        letter-spacing: -.02em;
      }

      .cls-20 {
        clip-path: url(#clippath);
      }
    </style>
    <clipPath id="clippath">
      <rect class="cls-1" x="27.95" y="78.91" width="679.22" height="151.78"/>
    </clipPath>
    <clipPath id="clippath-1">
      <rect class="cls-1" x="27.95" y="78.91" width="679.22" height="151.78"/>
    </clipPath>
    <clipPath id="clippath-2">
      <rect class="cls-1" x="27.95" y="78.91" width="679.22" height="151.78"/>
    </clipPath>
  </defs>
  <g id="PolyCollection_10">
    <g class="cls-20">
      <path id="m172f7d5a97" class="cls-4" d="M58.82,230.62v.08h565.23v-.08h0l-2.84-.03-2.84-.03-2.84-.04-2.84-.05-2.84-.06-2.84-.08-2.84-.09-2.84-.11-2.84-.13-2.84-.16-2.84-.18-2.84-.21-2.84-.24-2.84-.27-2.84-.3-2.84-.32-2.84-.35-2.84-.37-2.84-.39-2.84-.41-2.84-.42-2.84-.42-2.84-.41-2.84-.4-2.84-.38-2.84-.36-2.84-.33-2.84-.29-2.84-.25-2.84-.2-2.84-.16-2.84-.12-2.84-.08-2.84-.05-2.84-.02h-2.84s-2.84-.01-2.84-.01l-2.84-.02-2.84-.04-2.84-.08-2.84-.14-2.84-.22-2.84-.31-2.84-.42-2.84-.55-2.84-.7-2.84-.86-2.84-1.04-2.84-1.24-2.84-1.45-2.84-1.67-2.84-1.91-2.84-2.16-2.84-2.43-2.84-2.7-2.84-2.97-2.84-3.25-2.84-3.53-2.84-3.81-2.84-4.08-2.84-4.34-2.84-4.58-2.84-4.8-2.84-4.99-2.84-5.15-2.84-5.29-2.84-5.38-2.84-5.43-2.84-5.45-2.84-5.42-2.84-5.34-2.84-5.22-2.84-5.06-2.84-4.86-2.84-4.61-2.84-4.32-2.84-4-2.84-3.64-2.84-3.25-2.84-2.83-2.84-2.39-2.84-1.93-2.84-1.45-2.84-.96-2.84-.48h-2.84s-2.84.51-2.84.51l-2.84.96-2.84,1.41-2.84,1.84-2.84,2.24-2.84,2.62-2.84,2.96-2.84,3.26-2.84,3.53-2.84,3.77-2.84,3.96-2.84,4.12-2.84,4.25-2.84,4.34-2.84,4.4-2.84,4.43-2.84,4.44-2.84,4.42-2.84,4.38-2.84,4.32-2.84,4.25-2.84,4.16-2.84,4.06-2.84,3.95-2.84,3.83-2.84,3.71-2.84,3.58-2.84,3.46-2.84,3.33-2.84,3.2-2.84,3.06-2.84,2.93-2.84,2.8-2.84,2.68-2.84,2.55-2.84,2.42-2.84,2.29-2.84,2.16-2.84,2.03-2.84,1.9-2.84,1.77-2.84,1.65-2.84,1.52-2.84,1.39-2.84,1.27-2.84,1.14-2.84,1.03-2.84.91-2.84.8-2.84.7-2.84.6-2.84.51-2.84.42-2.84.34-2.84.27-2.84.2-2.84.13-2.84.07-2.84.02-2.84-.04-2.84-.09-2.84-.14-2.84-.18-2.84-.22-2.84-.26-2.84-.3-2.84-.33-2.84-.36-2.84-.38-2.84-.39-2.84-.4-2.84-.4-2.84-.4-2.84-.38-2.84-.36-2.84-.32-2.84-.28-2.84-.23-2.84-.18-2.84-.12-2.84-.06h-2.84s-2.84.07-2.84.07l-2.84.13-2.84.19-2.84.24-2.84.29-2.84.33-2.84.36-2.84.39-2.84.4-2.84.41-2.84.41-2.84.4-2.84.39-2.84.37-2.84.35-2.84.32-2.84.29-2.84.27-2.84.24-2.84.21-2.84.18-2.84.16-2.84.13-2.84.11-2.84.09-2.84.08-2.84.06-2.84.05-2.84.04-2.84.03-2.84.03Z"/>
    </g>
  </g>
  <g id="PolyCollection_11">
    <g class="cls-9">
      <path id="mc7999f93b3" class="cls-5" d="M338.4,230.63v.06h337.9v-.6h0l-1.7-.14-1.7-.16-1.7-.2-1.7-.23-1.7-.27-1.7-.32-1.7-.37-1.7-.43-1.7-.5-1.7-.57-1.7-.65-1.7-.74-1.7-.84-1.7-.94-1.7-1.05-1.7-1.16-1.7-1.28-1.7-1.4-1.7-1.53-1.7-1.66-1.7-1.78-1.7-1.91-1.7-2.03-1.7-2.14-1.7-2.25-1.7-2.35-1.7-2.43-1.7-2.5-1.7-2.56-1.7-2.6-1.7-2.62-1.7-2.62-1.7-2.6-1.7-2.56-1.7-2.51-1.7-2.43-1.7-2.34-1.7-2.23-1.7-2.11-1.7-1.97-1.7-1.83-1.7-1.68-1.7-1.52-1.7-1.37-1.7-1.22-1.7-1.07-1.7-.94-1.7-.81-1.7-.69-1.7-.59-1.7-.5-1.7-.43-1.7-.38-1.7-.34-1.7-.32-1.7-.31-1.7-.32-1.7-.34-1.7-.37-1.7-.41-1.7-.45-1.7-.49-1.7-.54-1.7-.59-1.7-.63-1.7-.68-1.7-.71-1.7-.74-1.7-.76-1.7-.77-1.7-.77-1.7-.77-1.7-.76-1.7-.74-1.7-.71-1.7-.68-1.7-.65-1.7-.61-1.7-.58-1.7-.54-1.7-.51-1.7-.48-1.7-.45-1.7-.44-1.7-.43-1.7-.43-1.7-.43-1.7-.45-1.7-.48-1.7-.51-1.7-.56-1.7-.61-1.7-.68-1.7-.75-1.7-.82-1.7-.9-1.7-.98-1.7-1.07-1.7-1.15-1.7-1.23-1.7-1.31-1.7-1.38-1.7-1.44-1.7-1.49-1.7-1.53-1.7-1.55-1.7-1.56-1.7-1.56-1.7-1.53-1.7-1.48-1.7-1.42-1.7-1.33-1.7-1.22-1.7-1.09-1.7-.93-1.7-.76-1.7-.57-1.7-.35-1.7-.12-1.7.12-1.7.38-1.7.65-1.7.92-1.7,1.2-1.7,1.48-1.7,1.76-1.7,2.03-1.7,2.3-1.7,2.55-1.7,2.79-1.7,3.01-1.7,3.22-1.7,3.4-1.7,3.56-1.7,3.69-1.7,3.8-1.7,3.88-1.7,3.94-1.7,3.97-1.7,3.98-1.7,3.96-1.7,3.92-1.7,3.85-1.7,3.77-1.7,3.68-1.7,3.56-1.7,3.44-1.7,3.3-1.7,3.16-1.7,3.01-1.7,2.86-1.7,2.7-1.7,2.55-1.7,2.39-1.7,2.24-1.7,2.09-1.7,1.95-1.7,1.81-1.7,1.68-1.7,1.56-1.7,1.44-1.7,1.33-1.7,1.23-1.7,1.13-1.7,1.04-1.7.96-1.7.88-1.7.8-1.7.74-1.7.67-1.7.62-1.7.56-1.7.51-1.7.46-1.7.42-1.7.38-1.7.35-1.7.31-1.7.28-1.7.25-1.7.22-1.7.2-1.7.18-1.7.16-1.7.14-1.7.12-1.7.11-1.7.09-1.7.08-1.7.07-1.7.06-1.7.05-1.7.04-1.7.04-1.7.03-1.7.03-1.7.02-1.7.02-1.7.02Z"/>
    </g>
  </g>
  <g id="PolyCollection_12">
    <g class="cls-10">
      <path id="m5f8fa25e04" class="cls-6" d="M88.83,230.6v.1h578.95v-.11h0l-2.91-.03-2.91-.03-2.91-.04-2.91-.05-2.91-.05-2.91-.06-2.91-.07-2.91-.09-2.91-.1-2.91-.12-2.91-.14-2.91-.16-2.91-.18-2.91-.2-2.91-.23-2.91-.25-2.91-.28-2.91-.31-2.91-.35-2.91-.38-2.91-.41-2.91-.45-2.91-.48-2.91-.52-2.91-.55-2.91-.58-2.91-.62-2.91-.64-2.91-.67-2.91-.69-2.91-.71-2.91-.73-2.91-.74-2.91-.74-2.91-.75-2.91-.74-2.91-.74-2.91-.73-2.91-.71-2.91-.7-2.91-.68-2.91-.66-2.91-.64-2.91-.62-2.91-.6-2.91-.59-2.91-.58-2.91-.57-2.91-.57-2.91-.58-2.91-.59-2.91-.62-2.91-.65-2.91-.69-2.91-.74-2.91-.81-2.91-.87-2.91-.95-2.91-1.04-2.91-1.13-2.91-1.22-2.91-1.32-2.91-1.43-2.91-1.53-2.91-1.63-2.91-1.73-2.91-1.82-2.91-1.91-2.91-1.99-2.91-2.07-2.91-2.13-2.91-2.18-2.91-2.23-2.91-2.26-2.91-2.28-2.91-2.29-2.91-2.29-2.91-2.28-2.91-2.26-2.91-2.24-2.91-2.2-2.91-2.16-2.91-2.11-2.91-2.06-2.91-2-2.91-1.94-2.91-1.87-2.91-1.8-2.91-1.72-2.91-1.64-2.91-1.55-2.91-1.46-2.91-1.35-2.91-1.25-2.91-1.13-2.91-1.01-2.91-.88-2.91-.74-2.91-.59-2.91-.43-2.91-.27-2.91-.1-2.91.07-2.91.25-2.91.44-2.91.62-2.91.81-2.91.99-2.91,1.17-2.91,1.34-2.91,1.51-2.91,1.67-2.91,1.82-2.91,1.96-2.91,2.09-2.91,2.21-2.91,2.31-2.91,2.41-2.91,2.49-2.91,2.55-2.91,2.6-2.91,2.64-2.91,2.67-2.91,2.68-2.91,2.69-2.91,2.67-2.91,2.65-2.91,2.62-2.91,2.58-2.91,2.52-2.91,2.46-2.91,2.39-2.91,2.31-2.91,2.23-2.91,2.13-2.91,2.04-2.91,1.94-2.91,1.83-2.91,1.72-2.91,1.61-2.91,1.5-2.91,1.4-2.91,1.29-2.91,1.19-2.91,1.09-2.91,1-2.91.91-2.91.83-2.91.76-2.91.7-2.91.64-2.91.59-2.91.55-2.91.51-2.91.49-2.91.46-2.91.45-2.91.44-2.91.43-2.91.43-2.91.43-2.91.43-2.91.44-2.91.44-2.91.44-2.91.44-2.91.45-2.91.44-2.91.44-2.91.44-2.91.43-2.91.42-2.91.41-2.91.39-2.91.38-2.91.36-2.91.34-2.91.32-2.91.3-2.91.28-2.91.26-2.91.24-2.91.22-2.91.2-2.91.18-2.91.16-2.91.14-2.91.13-2.91.11-2.91.1-2.91.09-2.91.07-2.91.06-2.91.05-2.91.05-2.91.04-2.91.03-2.91.03-2.91.02Z"/>
    </g>
  </g>
  <path class="cls-2" d="M27.82,230.36V78.58"/>
  <path class="cls-2" d="M27.82,230.36h679.22"/>
  <text class="cls-7" transform="translate(582.64 242.14)"><tspan x="0" y="0">higher home value</tspan></text>
  <text class="cls-8" transform="translate(27.82 31.65)"><tspan x="0" y="0">The Real Estate is Good whe</tspan><tspan class="cls-18" x="239.77" y="0">r</tspan><tspan class="cls-12" x="245.79" y="0">e the Co</tspan><tspan class="cls-19" x="315.81" y="0">f</tspan><tspan x="321.15" y="0">fee is Good </tspan></text>
  <text class="cls-7" transform="translate(27.82 50.29)"><tspan x="0" y="0">NYC</tspan><tspan class="cls-16" x="25.1" y="0">’</tspan><tspan x="27.55" y="0">s thi</tspan><tspan class="cls-18" x="50" y="0">r</tspan><tspan class="cls-11" x="53.78" y="0">d-wave cafés a</tspan><tspan class="cls-17" x="135.55" y="0">r</tspan><tspan x="139.33" y="0">e steeped in high-value housing markets.</tspan></text>
  <path d="M700.47,243.39s-.07-.03-.1-.05c-.29-.12-.38-.44-.18-.69.05-.06.11-.12.17-.18,1.12-1.12,2.25-2.25,3.37-3.37.05-.05.09-.1.17-.18h-.28c-5.71,0-11.42,0-17.13,0-.28,0-.5-.07-.62-.34v-.19c.1-.31.34-.37.63-.37,5.7,0,11.41,0,17.11,0h.29c-.08-.09-.13-.14-.18-.19-1.14-1.14-2.29-2.28-3.43-3.43-.08-.08-.16-.19-.2-.29-.06-.16.03-.37.18-.47.15-.1.35-.1.5,0,.07.05.13.11.18.17,1.41,1.41,2.83,2.82,4.24,4.23.31.31.31.52,0,.83-1.43,1.43-2.86,2.86-4.3,4.28-.11.1-.27.15-.4.23h-.04Z"/>
  <path class="cls-14" d="M38.08,182.72h22v-7.7h-22"/>
  <path id="ArialMT-4d" class="cls-13" d="M69.69,182.72v-7.87h1.57l1.86,5.57c.17.52.3.91.38,1.17.09-.29.23-.71.42-1.26l1.89-5.48h1.4v7.87h-1v-6.59l-2.29,6.59h-.94l-2.28-6.7v6.7h-1Z"/>
  <path id="ArialMT-69" class="cls-13" d="M78.77,175.96v-1.11h.97v1.11h-.97ZM78.77,182.72v-5.7h.97v5.7h-.97Z"/>
  <path id="ArialMT-61" class="cls-13" d="M84.93,182.02c-.36.3-.7.52-1.03.64-.33.12-.69.19-1.07.19-.63,0-1.11-.15-1.45-.46s-.51-.7-.51-1.17c0-.28.06-.53.19-.76.13-.23.29-.42.5-.56s.44-.25.7-.32c.19-.05.48-.1.86-.15.78-.09,1.35-.2,1.72-.33,0-.13,0-.22,0-.25,0-.39-.09-.67-.27-.83-.25-.22-.61-.33-1.1-.33-.45,0-.79.08-1.01.24s-.38.44-.48.85l-.95-.13c.09-.4.23-.73.42-.98.2-.25.48-.44.85-.57.37-.14.8-.2,1.29-.2s.88.06,1.19.17c.3.11.53.26.67.43.14.17.24.39.3.66.03.16.05.46.05.89v1.29c0,.9.02,1.47.06,1.71.04.24.12.47.25.68h-1.01c-.1-.2-.16-.43-.19-.7ZM84.85,179.86c-.35.14-.88.27-1.58.37-.4.06-.68.12-.84.19-.16.07-.29.18-.38.31-.09.14-.13.29-.13.46,0,.26.1.47.29.64.2.17.48.26.86.26s.7-.08.99-.24c.29-.16.5-.39.64-.67.1-.22.16-.54.16-.97v-.36Z"/>
  <path id="ArialMT-6d" class="cls-13" d="M87.33,182.72v-5.7h.86v.8c.18-.28.42-.5.71-.67.3-.17.64-.26,1.02-.26.42,0,.77.09,1.04.26s.46.42.57.74c.45-.67,1.04-1,1.76-1,.57,0,1,.16,1.3.47.3.31.46.8.46,1.45v3.92h-.96v-3.59c0-.39-.03-.66-.09-.83-.06-.17-.18-.31-.34-.41-.16-.1-.36-.16-.58-.16-.4,0-.73.13-1,.4-.26.27-.4.69-.4,1.28v3.31h-.97v-3.71c0-.43-.08-.75-.24-.97-.16-.22-.41-.32-.77-.32-.27,0-.52.07-.75.21-.23.14-.4.35-.5.63-.1.27-.16.67-.16,1.19v2.96h-.97Z"/>
  <path id="ArialMT-69-2" data-name="ArialMT-69" class="cls-13" d="M96.5,175.96v-1.11h.97v1.11h-.97ZM96.5,182.72v-5.7h.97v5.7h-.97Z"/>
  <path class="cls-15" d="M38.08,198.28h22v-7.7h-22"/>
  <path id="ArialMT-4e" class="cls-13" d="M69.72,198.28v-7.87h1.07l4.14,6.18v-6.18h1v7.87h-1.07l-4.14-6.19v6.19h-1Z"/>
  <path id="ArialMT-59" class="cls-13" d="M79.89,198.28v-3.34l-3.03-4.54h1.27l1.55,2.37c.29.44.55.89.8,1.33.24-.41.52-.87.86-1.39l1.53-2.32h1.21l-3.14,4.54v3.34h-1.04Z"/>
  <path id="ArialMT-43" class="cls-13" d="M90.63,195.52l1.04.26c-.22.86-.61,1.51-1.18,1.96-.57.45-1.26.67-2.08.67s-1.54-.17-2.07-.52c-.53-.35-.94-.85-1.21-1.5-.28-.66-.42-1.36-.42-2.11,0-.82.16-1.54.47-2.14.31-.61.76-1.07,1.34-1.39.58-.32,1.22-.48,1.91-.48.79,0,1.45.2,1.99.6.54.4.91.96,1.12,1.69l-1.03.24c-.18-.57-.45-.99-.8-1.25-.35-.26-.78-.39-1.31-.39-.6,0-1.11.15-1.52.44-.41.29-.69.68-.86,1.17-.16.49-.25.99-.25,1.51,0,.67.1,1.25.29,1.75.19.5.5.87.91,1.12.41.25.86.37,1.34.37.58,0,1.08-.17,1.48-.5.41-.34.68-.84.82-1.5Z"/>
  <path class="cls-3" d="M38.08,216.88h22v-7.7h-22"/>
  <path id="ArialMT-44" class="cls-13" d="M69.73,216.88v-7.87h2.71c.61,0,1.08.04,1.4.11.45.1.83.29,1.15.56.42.35.73.8.93,1.35.21.55.31,1.17.31,1.87,0,.6-.07,1.13-.21,1.59-.14.46-.32.84-.54,1.15-.22.3-.46.54-.72.71-.26.17-.57.3-.94.39s-.79.13-1.26.13h-2.84ZM70.77,215.95h1.68c.52,0,.93-.05,1.22-.14s.53-.23.71-.41c.25-.25.44-.58.58-1s.21-.92.21-1.52c0-.82-.14-1.46-.41-1.9s-.6-.74-.98-.89c-.28-.11-.73-.16-1.35-.16h-1.66v6.02Z"/>
  <path id="ArialMT-61-2" data-name="ArialMT-61" class="cls-13" d="M81.27,216.18c-.36.3-.7.52-1.03.64-.33.12-.69.19-1.07.19-.63,0-1.11-.15-1.45-.46s-.51-.7-.51-1.17c0-.28.06-.53.19-.76.13-.23.29-.42.5-.56s.44-.25.7-.32c.19-.05.48-.1.86-.15.78-.09,1.35-.2,1.72-.33,0-.13,0-.22,0-.25,0-.39-.09-.67-.27-.83-.25-.22-.61-.33-1.1-.33-.45,0-.79.08-1.01.24s-.38.44-.48.85l-.95-.13c.09-.4.23-.73.42-.98.2-.25.48-.44.85-.57.37-.14.8-.2,1.29-.2s.88.06,1.19.17c.3.11.53.26.67.43.14.17.24.39.3.66.03.16.05.46.05.89v1.29c0,.9.02,1.47.06,1.71.04.24.12.47.25.68h-1.01c-.1-.2-.16-.43-.19-.7ZM81.19,214.02c-.35.14-.88.27-1.58.37-.4.06-.68.12-.84.19-.16.07-.29.18-.38.31-.09.14-.13.29-.13.46,0,.26.1.47.29.64.2.17.48.26.86.26s.7-.08.99-.24c.29-.16.5-.39.64-.67.1-.22.16-.54.16-.97v-.36Z"/>
  <path id="ArialMT-6c" class="cls-13" d="M83.64,216.88v-7.87h.97v7.87h-.97Z"/>
  <path id="ArialMT-6c-2" data-name="ArialMT-6c" class="cls-13" d="M86.09,216.88v-7.87h.97v7.87h-.97Z"/>
  <path id="ArialMT-61-3" data-name="ArialMT-61" class="cls-13" d="M92.27,216.18c-.36.3-.7.52-1.03.64-.33.12-.69.19-1.07.19-.63,0-1.11-.15-1.45-.46s-.51-.7-.51-1.17c0-.28.06-.53.19-.76.13-.23.29-.42.5-.56s.44-.25.7-.32c.19-.05.48-.1.86-.15.78-.09,1.35-.2,1.72-.33,0-.13,0-.22,0-.25,0-.39-.09-.67-.27-.83-.25-.22-.61-.33-1.1-.33-.45,0-.79.08-1.01.24s-.38.44-.48.85l-.95-.13c.09-.4.23-.73.42-.98.2-.25.48-.44.85-.57.37-.14.8-.2,1.29-.2s.88.06,1.19.17c.3.11.53.26.67.43.14.17.24.39.3.66.03.16.05.46.05.89v1.29c0,.9.02,1.47.06,1.71.04.24.12.47.25.68h-1.01c-.1-.2-.16-.43-.19-.7ZM92.19,214.02c-.35.14-.88.27-1.58.37-.4.06-.68.12-.84.19-.16.07-.29.18-.38.31-.09.14-.13.29-.13.46,0,.26.1.47.29.64.2.17.48.26.86.26s.7-.08.99-.24c.29-.16.5-.39.64-.67.1-.22.16-.54.16-.97v-.36Z"/>
  <path id="ArialMT-73" class="cls-13" d="M94.28,215.18l.96-.15c.05.38.2.68.45.88.25.2.59.31,1.03.31s.77-.09.99-.27c.22-.18.32-.39.32-.64,0-.22-.1-.39-.29-.52-.13-.09-.46-.19-.99-.33-.71-.18-1.2-.34-1.47-.47s-.48-.31-.62-.54c-.14-.23-.21-.49-.21-.77,0-.25.06-.49.17-.7.12-.22.28-.4.48-.54.15-.11.35-.2.61-.28.26-.08.54-.12.84-.12.45,0,.84.06,1.18.19.34.13.59.3.75.52.16.22.27.51.33.88l-.95.13c-.04-.29-.17-.52-.37-.69-.21-.16-.5-.25-.87-.25-.44,0-.76.07-.95.22-.19.15-.29.32-.29.52,0,.12.04.24.12.34.08.1.2.19.37.26.1.04.38.12.85.25.68.18,1.16.33,1.43.45.27.12.48.28.64.51.15.22.23.5.23.83s-.09.63-.28.91c-.19.28-.46.5-.81.66-.35.16-.75.23-1.2.23-.74,0-1.31-.15-1.69-.46-.39-.31-.64-.76-.74-1.37Z"/>
</svg>