<?xml version="1.0" encoding="UTF-8"?>
<svg id="Layer_1" xmlns="http://www.w3.org/2000/svg" xmlns:xlink="http://www.w3.org/1999/xlink" viewBox="0 0 720 251.29">
  <defs>
    <style>
      .cls-1, .cls-2 {
        fill: none;
      }

      .cls-2 {
        stroke: #ccc;
        stroke-linecap: square;
        stroke-width: 1.25px;
      }

      .cls-3, .cls-4 {
        fill: rgba(141, 160, 203, .5);
        stroke: #8da0cb;
      }

      .cls-4, .cls-5, .cls-6 {
        stroke-linejoin: round;
      }

      .cls-7 {
        font-family: HelveticaNeue, 'Helvetica Neue';
        font-size: 12px;
      }

      .cls-8 {
        font-family: HelveticaNeue-Medium, 'Helvetica Neue';
        font-size: 18px;
        font-weight: 500;
      }

      .cls-9 {
        clip-path: url(#clippath-1);
      }

      .cls-10 {
        clip-path: url(#clippath-2);
      }

      .cls-11 {
        fill: #262626;
      }

      .cls-12, .cls-6 {
        fill: rgba(102, 194, 165, .5);
        stroke: #66c2a5;
      }

      .cls-13, .cls-5 {
        fill: rgba(252, 141, 98, .5);
        stroke: #fc8d62;
      }

      .cls-14 {
        letter-spacing: -.07em;
      }

      .cls-15 {
        letter-spacing: -.11em;
      }

      .cls-16 {
        letter-spacing: -.02em;
      }

      .cls-17 {
        letter-spacing: -.02em;
      }

      .cls-18 {
        clip-path: url(#clippath);
      }
    </style>
    <clipPath id="clippath">
      <rect class="cls-1" x="27.82" y="78.58" width="679.22" height="151.78"/>
    </clipPath>
    <clipPath id="clippath-1">
      <rect class="cls-1" x="27.82" y="78.58" width="679.22" height="151.78"/>
    </clipPath>
    <clipPath id="clippath-2">
      <rect class="cls-1" x="27.82" y="78.58" width="679.22" height="151.78"/>
    </clipPath>
  </defs>
  <path class="cls-2" d="M27.82,230.36V78.58"/>
  <path class="cls-2" d="M27.82,230.36h679.22"/>
  <text class="cls-7" transform="translate(426.42 243.78)"><tspan x="0" y="0">high pe</tspan><tspan class="cls-17" x="39.79" y="0">r</tspan><tspan x="43.57" y="0" xml:space="preserve">centage of  Bachelor</tspan><tspan class="cls-14" x="154.9" y="0">’</tspan><tspan x="157.35" y="0">s deg</tspan><tspan class="cls-16" x="187.14" y="0">r</tspan><tspan x="190.92" y="0">ee or higher</tspan></text>
  <text class="cls-8" transform="translate(29.16 31.65)"><tspan x="0" y="0">Whe</tspan><tspan class="cls-17" x="37.33" y="0">r</tspan><tspan x="43.34" y="0">e the Educated Sip</tspan></text>
  <text class="cls-7" transform="translate(27.82 50.29)"><tspan x="0" y="0">Thi</tspan><tspan class="cls-17" x="16.22" y="0">r</tspan><tspan x="20" y="0">d-wave cafés often land in neighborhoods with higher education levels, </tspan><tspan x="0" y="14.4">especially in New </tspan><tspan class="cls-15" x="96.43" y="14.4">Y</tspan><tspan x="102.87" y="14.4">ork.</tspan></text>
  <g id="PolyCollection_4">
    <g class="cls-18">
      <path id="m2ee8f8bf2e" class="cls-4" d="M114.92,230.18v.18h348.6v-.07h0l-1.75-.02-1.75-.02-1.75-.02-1.75-.03-1.75-.04-1.75-.04-1.75-.05-1.75-.06-1.75-.07-1.75-.08-1.75-.09-1.75-.1-1.75-.11-1.75-.13-1.75-.14-1.75-.16-1.75-.17-1.75-.19-1.75-.2-1.75-.22-1.75-.23-1.75-.24-1.75-.26-1.75-.27-1.75-.27-1.75-.28-1.75-.28-1.75-.28-1.75-.28-1.75-.28-1.75-.27-1.75-.26-1.75-.24-1.75-.23-1.75-.21-1.75-.19-1.75-.17-1.75-.15-1.75-.13-1.75-.11-1.75-.09-1.75-.08-1.75-.07-1.75-.07-1.75-.08-1.75-.09-1.75-.11-1.75-.14-1.75-.18-1.75-.23-1.75-.29-1.75-.37-1.75-.45-1.75-.55-1.75-.65-1.75-.77-1.75-.9-1.75-1.04-1.75-1.18-1.75-1.33-1.75-1.48-1.75-1.64-1.75-1.8-1.75-1.96-1.75-2.11-1.75-2.26-1.75-2.4-1.75-2.53-1.75-2.65-1.75-2.75-1.75-2.84-1.75-2.92-1.75-2.97-1.75-3.01-1.75-3.02-1.75-3.02-1.75-3-1.75-2.95-1.75-2.89-1.75-2.81-1.75-2.71-1.75-2.6-1.75-2.48-1.75-2.35-1.75-2.21-1.75-2.06-1.75-1.91-1.75-1.76-1.75-1.6-1.75-1.45-1.75-1.3-1.75-1.16-1.75-1.02-1.75-.89-1.75-.77-1.75-.65-1.75-.54-1.75-.44-1.75-.34-1.75-.25-1.75-.16-1.75-.08h-1.75s-1.75.07-1.75.07l-1.75.15-1.75.22-1.75.3-1.75.37-1.75.44-1.75.51-1.75.59-1.75.66-1.75.73-1.75.79-1.75.86-1.75.92-1.75.98-1.75,1.03-1.75,1.08-1.75,1.12-1.75,1.15-1.75,1.17-1.75,1.19-1.75,1.2-1.75,1.2-1.75,1.19-1.75,1.18-1.75,1.16-1.75,1.14-1.75,1.11-1.75,1.08-1.75,1.05-1.75,1.01-1.75.98-1.75.95-1.75.93-1.75.91-1.75.89-1.75.88-1.75.88-1.75.89-1.75.9-1.75.93-1.75.96-1.75,1-1.75,1.04-1.75,1.09-1.75,1.15-1.75,1.21-1.75,1.28-1.75,1.35-1.75,1.41-1.75,1.48-1.75,1.55-1.75,1.62-1.75,1.68-1.75,1.73-1.75,1.78-1.75,1.82-1.75,1.85-1.75,1.88-1.75,1.89-1.75,1.9-1.75,1.89-1.75,1.87-1.75,1.85-1.75,1.81-1.75,1.76-1.75,1.71-1.75,1.65-1.75,1.58-1.75,1.51-1.75,1.43-1.75,1.35-1.75,1.26-1.75,1.18-1.75,1.09-1.75,1-1.75.92-1.75.84-1.75.76-1.75.68-1.75.61-1.75.54-1.75.48-1.75.42-1.75.37-1.75.32-1.75.28-1.75.24-1.75.2-1.75.17-1.75.15-1.75.12-1.75.1-1.75.09-1.75.07-1.75.06-1.75.05Z"/>
    </g>
  </g>
  <g id="PolyCollection_5">
    <g class="cls-9">
      <path id="m1c7042375f" class="cls-5" d="M58.69,230.32v.04h617.48v-.03h-3.1s-3.1-.02-3.1-.02h-3.1s-3.1-.03-3.1-.03l-3.1-.02-3.1-.02-3.1-.02-3.1-.03-3.1-.03-3.1-.04-3.1-.05-3.1-.05-3.1-.06-3.1-.07-3.1-.08-3.1-.08-3.1-.09-3.1-.1-3.1-.11-3.1-.11-3.1-.12-3.1-.12-3.1-.13-3.1-.13-3.1-.13-3.1-.13-3.1-.13-3.1-.13-3.1-.12-3.1-.12-3.1-.11-3.1-.1-3.1-.09-3.1-.08-3.1-.08-3.1-.07-3.1-.06-3.1-.06-3.1-.05-3.1-.05-3.1-.05-3.1-.05-3.1-.06-3.1-.07-3.1-.09-3.1-.1-3.1-.13-3.1-.15-3.1-.18-3.1-.22-3.1-.26-3.1-.3-3.1-.35-3.1-.4-3.1-.46-3.1-.52-3.1-.59-3.1-.65-3.1-.73-3.1-.8-3.1-.87-3.1-.95-3.1-1.02-3.1-1.09-3.1-1.16-3.1-1.22-3.1-1.27-3.1-1.32-3.1-1.35-3.1-1.38-3.1-1.39-3.1-1.39-3.1-1.38-3.1-1.35-3.1-1.31-3.1-1.27-3.1-1.21-3.1-1.15-3.1-1.08-3.1-1-3.1-.93-3.1-.85-3.1-.78-3.1-.71-3.1-.65-3.1-.59-3.1-.55-3.1-.51-3.1-.49-3.1-.47-3.1-.47-3.1-.47-3.1-.48-3.1-.5-3.1-.52-3.1-.55-3.1-.58-3.1-.61-3.1-.63-3.1-.65-3.1-.67-3.1-.68-3.1-.69-3.1-.69-3.1-.68-3.1-.67-3.1-.65-3.1-.62-3.1-.58-3.1-.54-3.1-.5-3.1-.45-3.1-.4-3.1-.35-3.1-.3-3.1-.24-3.1-.19-3.1-.14-3.1-.1-3.1-.05h-3.1s-3.1.02-3.1.02l-3.1.07-3.1.11-3.1.15-3.1.18-3.1.22-3.1.27-3.1.31-3.1.36-3.1.41-3.1.46-3.1.52-3.1.59-3.1.66-3.1.73-3.1.81-3.1.89-3.1.97-3.1,1.05-3.1,1.12-3.1,1.2-3.1,1.27-3.1,1.34-3.1,1.4-3.1,1.45-3.1,1.49-3.1,1.53-3.1,1.55-3.1,1.57-3.1,1.58-3.1,1.57-3.1,1.56-3.1,1.55-3.1,1.52-3.1,1.49-3.1,1.45-3.1,1.41-3.1,1.36-3.1,1.31-3.1,1.26-3.1,1.2-3.1,1.15-3.1,1.09-3.1,1.03-3.1.98-3.1.92-3.1.87-3.1.81-3.1.76-3.1.71-3.1.66-3.1.61-3.1.56-3.1.52-3.1.47-3.1.43-3.1.39-3.1.35-3.1.32-3.1.28-3.1.25-3.1.22-3.1.19-3.1.17-3.1.15-3.1.13-3.1.11-3.1.09-3.1.08-3.1.06-3.1.05-3.1.04-3.1.04-3.1.03-3.1.02-3.1.02-3.1.02h-3.1Z"/>
    </g>
  </g>
  <g id="PolyCollection_6">
    <g class="cls-10">
      <path id="mc5449cd983" class="cls-6" d="M121.55,230.08v.28h270.78v-.14h0l-1.36-.03-1.36-.04-1.36-.04-1.36-.05-1.36-.06-1.36-.07-1.36-.08-1.36-.09-1.36-.1-1.36-.12-1.36-.13-1.36-.15-1.36-.17-1.36-.19-1.36-.21-1.36-.23-1.36-.26-1.36-.28-1.36-.31-1.36-.34-1.36-.36-1.36-.39-1.36-.42-1.36-.44-1.36-.47-1.36-.49-1.36-.51-1.36-.54-1.36-.55-1.36-.57-1.36-.59-1.36-.6-1.36-.61-1.36-.62-1.36-.62-1.36-.63-1.36-.63-1.36-.63-1.36-.64-1.36-.64-1.36-.64-1.36-.65-1.36-.65-1.36-.66-1.36-.68-1.36-.7-1.36-.73-1.36-.76-1.36-.8-1.36-.85-1.36-.91-1.36-.97-1.36-1.05-1.36-1.14-1.36-1.23-1.36-1.34-1.36-1.46-1.36-1.58-1.36-1.72-1.36-1.86-1.36-2.01-1.36-2.17-1.36-2.33-1.36-2.49-1.36-2.66-1.36-2.83-1.36-3-1.36-3.16-1.36-3.32-1.36-3.47-1.36-3.62-1.36-3.75-1.36-3.87-1.36-3.98-1.36-4.07-1.36-4.14-1.36-4.19-1.36-4.21-1.36-4.22-1.36-4.19-1.36-4.14-1.36-4.07-1.36-3.96-1.36-3.83-1.36-3.67-1.36-3.48-1.36-3.27-1.36-3.02-1.36-2.76-1.36-2.47-1.36-2.16-1.36-1.83-1.36-1.49-1.36-1.14-1.36-.77-1.36-.41-1.36-.04-1.36.33-1.36.69-1.36,1.04-1.36,1.38-1.36,1.71-1.36,2.01-1.36,2.29-1.36,2.55-1.36,2.78-1.36,2.99-1.36,3.16-1.36,3.3-1.36,3.41-1.36,3.49-1.36,3.53-1.36,3.55-1.36,3.53-1.36,3.49-1.36,3.41-1.36,3.32-1.36,3.2-1.36,3.06-1.36,2.91-1.36,2.74-1.36,2.55-1.36,2.37-1.36,2.17-1.36,1.98-1.36,1.78-1.36,1.59-1.36,1.4-1.36,1.23-1.36,1.06-1.36.91-1.36.78-1.36.66-1.36.55-1.36.47-1.36.4-1.36.36-1.36.33-1.36.32-1.36.33-1.36.36-1.36.4-1.36.46-1.36.53-1.36.61-1.36.69-1.36.79-1.36.89-1.36,1-1.36,1.1-1.36,1.21-1.36,1.31-1.36,1.41-1.36,1.51-1.36,1.59-1.36,1.67-1.36,1.74-1.36,1.8-1.36,1.85-1.36,1.88-1.36,1.91-1.36,1.92-1.36,1.92-1.36,1.91-1.36,1.88-1.36,1.85-1.36,1.81-1.36,1.76-1.36,1.7-1.36,1.63-1.36,1.56-1.36,1.49-1.36,1.41-1.36,1.33-1.36,1.24-1.36,1.16-1.36,1.08-1.36.99-1.36.91-1.36.83-1.36.76-1.36.69-1.36.62-1.36.56-1.36.5-1.36.44-1.36.39-1.36.34-1.36.3-1.36.26-1.36.23-1.36.2-1.36.17-1.36.14-1.36.12-1.36.1-1.36.09-1.36.07-1.36.06Z"/>
    </g>
  </g>
  <g id="patch_14">
    <path class="cls-2" d="M27.82,230.36h679.22"/>
  </g>
  <path d="M700.47,246.05s-.07-.03-.1-.05c-.29-.12-.38-.44-.18-.69.05-.06.11-.12.17-.18,1.12-1.12,2.25-2.25,3.37-3.37.05-.05.09-.1.17-.18h-.28c-5.71,0-11.42,0-17.13,0-.28,0-.5-.07-.62-.34v-.19c.1-.31.34-.37.63-.37,5.7,0,11.41,0,17.11,0h.29c-.08-.09-.13-.14-.18-.19-1.14-1.14-2.29-2.28-3.43-3.43-.08-.08-.16-.19-.2-.29-.06-.16.03-.37.18-.47.15-.1.35-.1.5,0,.07.05.13.11.18.17,1.41,1.41,2.83,2.82,4.24,4.23.31.31.31.52,0,.83-1.43,1.43-2.86,2.86-4.3,4.28-.11.1-.27.15-.4.23h-.04Z"/>
  <path class="cls-12" d="M38.08,182.72h22v-7.7h-22"/>
  <path id="ArialMT-4d" class="cls-11" d="M69.69,182.72v-7.87h1.57l1.86,5.57c.17.52.3.91.38,1.17.09-.29.23-.71.42-1.26l1.89-5.48h1.4v7.87h-1v-6.59l-2.29,6.59h-.94l-2.28-6.7v6.7h-1Z"/>
  <path id="ArialMT-69" class="cls-11" d="M78.77,175.96v-1.11h.97v1.11h-.97ZM78.77,182.72v-5.7h.97v5.7h-.97Z"/>
  <path id="ArialMT-61" class="cls-11" d="M84.93,182.02c-.36.3-.7.52-1.03.64-.33.12-.69.19-1.07.19-.63,0-1.11-.15-1.45-.46s-.51-.7-.51-1.17c0-.28.06-.53.19-.76.13-.23.29-.42.5-.56s.44-.25.7-.32c.19-.05.48-.1.86-.15.78-.09,1.35-.2,1.72-.33,0-.13,0-.22,0-.25,0-.39-.09-.67-.27-.83-.25-.22-.61-.33-1.1-.33-.45,0-.79.08-1.01.24s-.38.44-.48.85l-.95-.13c.09-.4.23-.73.42-.98.2-.25.48-.44.85-.57.37-.14.8-.2,1.29-.2s.88.06,1.19.17c.3.11.53.26.67.43.14.17.24.39.3.66.03.16.05.46.05.89v1.29c0,.9.02,1.47.06,1.71.04.24.12.47.25.68h-1.01c-.1-.2-.16-.43-.19-.7ZM84.85,179.86c-.35.14-.88.27-1.58.37-.4.06-.68.12-.84.19-.16.07-.29.18-.38.31-.09.14-.13.29-.13.46,0,.26.1.47.29.64.2.17.48.26.86.26s.7-.08.99-.24c.29-.16.5-.39.64-.67.1-.22.16-.54.16-.97v-.36Z"/>
  <path id="ArialMT-6d" class="cls-11" d="M87.33,182.72v-5.7h.86v.8c.18-.28.42-.5.71-.67.3-.17.64-.26,1.02-.26.42,0,.77.09,1.04.26s.46.42.57.74c.45-.67,1.04-1,1.76-1,.57,0,1,.16,1.3.47.3.31.46.8.46,1.45v3.92h-.96v-3.59c0-.39-.03-.66-.09-.83-.06-.17-.18-.31-.34-.41-.16-.1-.36-.16-.58-.16-.4,0-.73.13-1,.4-.26.27-.4.69-.4,1.28v3.31h-.97v-3.71c0-.43-.08-.75-.24-.97-.16-.22-.41-.32-.77-.32-.27,0-.52.07-.75.21-.23.14-.4.35-.5.63-.1.27-.16.67-.16,1.19v2.96h-.97Z"/>
  <path id="ArialMT-69-2" data-name="ArialMT-69" class="cls-11" d="M96.5,175.96v-1.11h.97v1.11h-.97ZM96.5,182.72v-5.7h.97v5.7h-.97Z"/>
  <path class="cls-13" d="M38.08,198.28h22v-7.7h-22"/>
  <path id="ArialMT-4e" class="cls-11" d="M69.72,198.28v-7.87h1.07l4.14,6.18v-6.18h1v7.87h-1.07l-4.14-6.19v6.19h-1Z"/>
  <path id="ArialMT-59" class="cls-11" d="M79.89,198.28v-3.34l-3.03-4.54h1.27l1.55,2.37c.29.44.55.89.8,1.33.24-.41.52-.87.86-1.39l1.53-2.32h1.21l-3.14,4.54v3.34h-1.04Z"/>
  <path id="ArialMT-43" class="cls-11" d="M90.63,195.52l1.04.26c-.22.86-.61,1.51-1.18,1.96-.57.45-1.26.67-2.08.67s-1.54-.17-2.07-.52c-.53-.35-.94-.85-1.21-1.5-.28-.66-.42-1.36-.42-2.11,0-.82.16-1.54.47-2.14.31-.61.76-1.07,1.34-1.39.58-.32,1.22-.48,1.91-.48.79,0,1.45.2,1.99.6.54.4.91.96,1.12,1.69l-1.03.24c-.18-.57-.45-.99-.8-1.25-.35-.26-.78-.39-1.31-.39-.6,0-1.11.15-1.52.44-.41.29-.69.68-.86,1.17-.16.49-.25.99-.25,1.51,0,.67.1,1.25.29,1.75.19.5.5.87.91,1.12.41.25.86.37,1.34.37.58,0,1.08-.17,1.48-.5.41-.34.68-.84.82-1.5Z"/>
  <path class="cls-3" d="M38.08,216.88h22v-7.7h-22"/>
  <path id="ArialMT-44" class="cls-11" d="M69.73,216.88v-7.87h2.71c.61,0,1.08.04,1.4.11.45.1.83.29,1.15.56.42.35.73.8.93,1.35.21.55.31,1.17.31,1.87,0,.6-.07,1.13-.21,1.59-.14.46-.32.84-.54,1.15-.22.3-.46.54-.72.71-.26.17-.57.3-.94.39s-.79.13-1.26.13h-2.84ZM70.77,215.95h1.68c.52,0,.93-.05,1.22-.14s.53-.23.71-.41c.25-.25.44-.58.58-1s.21-.92.21-1.52c0-.82-.14-1.46-.41-1.9s-.6-.74-.98-.89c-.28-.11-.73-.16-1.35-.16h-1.66v6.02Z"/>
  <path id="ArialMT-61-2" data-name="ArialMT-61" class="cls-11" d="M81.27,216.18c-.36.3-.7.52-1.03.64-.33.12-.69.19-1.07.19-.63,0-1.11-.15-1.45-.46s-.51-.7-.51-1.17c0-.28.06-.53.19-.76.13-.23.29-.42.5-.56s.44-.25.7-.32c.19-.05.48-.1.86-.15.78-.09,1.35-.2,1.72-.33,0-.13,0-.22,0-.25,0-.39-.09-.67-.27-.83-.25-.22-.61-.33-1.1-.33-.45,0-.79.08-1.01.24s-.38.44-.48.85l-.95-.13c.09-.4.23-.73.42-.98.2-.25.48-.44.85-.57.37-.14.8-.2,1.29-.2s.88.06,1.19.17c.3.11.53.26.67.43.14.17.24.39.3.66.03.16.05.46.05.89v1.29c0,.9.02,1.47.06,1.71.04.24.12.47.25.68h-1.01c-.1-.2-.16-.43-.19-.7ZM81.19,214.02c-.35.14-.88.27-1.58.37-.4.06-.68.12-.84.19-.16.07-.29.18-.38.31-.09.14-.13.29-.13.46,0,.26.1.47.29.64.2.17.48.26.86.26s.7-.08.99-.24c.29-.16.5-.39.64-.67.1-.22.16-.54.16-.97v-.36Z"/>
  <path id="ArialMT-6c" class="cls-11" d="M83.64,216.88v-7.87h.97v7.87h-.97Z"/>
  <path id="ArialMT-6c-2" data-name="ArialMT-6c" class="cls-11" d="M86.09,216.88v-7.87h.97v7.87h-.97Z"/>
  <path id="ArialMT-61-3" data-name="ArialMT-61" class="cls-11" d="M92.27,216.18c-.36.3-.7.52-1.03.64-.33.12-.69.19-1.07.19-.63,0-1.11-.15-1.45-.46s-.51-.7-.51-1.17c0-.28.06-.53.19-.76.13-.23.29-.42.5-.56s.44-.25.7-.32c.19-.05.48-.1.86-.15.78-.09,1.35-.2,1.72-.33,0-.13,0-.22,0-.25,0-.39-.09-.67-.27-.83-.25-.22-.61-.33-1.1-.33-.45,0-.79.08-1.01.24s-.38.44-.48.85l-.95-.13c.09-.4.23-.73.42-.98.2-.25.48-.44.85-.57.37-.14.8-.2,1.29-.2s.88.06,1.19.17c.3.11.53.26.67.43.14.17.24.39.3.66.03.16.05.46.05.89v1.29c0,.9.02,1.47.06,1.71.04.24.12.47.25.68h-1.01c-.1-.2-.16-.43-.19-.7ZM92.19,214.02c-.35.14-.88.27-1.58.37-.4.06-.68.12-.84.19-.16.07-.29.18-.38.31-.09.14-.13.29-.13.46,0,.26.1.47.29.64.2.17.48.26.86.26s.7-.08.99-.24c.29-.16.5-.39.64-.67.1-.22.16-.54.16-.97v-.36Z"/>
  <path id="ArialMT-73" class="cls-11" d="M94.28,215.18l.96-.15c.05.38.2.68.45.88.25.2.59.31,1.03.31s.77-.09.99-.27c.22-.18.32-.39.32-.64,0-.22-.1-.39-.29-.52-.13-.09-.46-.19-.99-.33-.71-.18-1.2-.34-1.47-.47s-.48-.31-.62-.54c-.14-.23-.21-.49-.21-.77,0-.25.06-.49.17-.7.12-.22.28-.4.48-.54.15-.11.35-.2.61-.28.26-.08.54-.12.84-.12.45,0,.84.06,1.18.19.34.13.59.3.75.52.16.22.27.51.33.88l-.95.13c-.04-.29-.17-.52-.37-.69-.21-.16-.5-.25-.87-.25-.44,0-.76.07-.95.22-.19.15-.29.32-.29.52,0,.12.04.24.12.34.08.1.2.19.37.26.1.04.38.12.85.25.68.18,1.16.33,1.43.45.27.12.48.28.64.51.15.22.23.5.23.83s-.09.63-.28.91c-.19.28-.46.5-.81.66-.35.16-.75.23-1.2.23-.74,0-1.31-.15-1.69-.46-.39-.31-.64-.76-.74-1.37Z"/>
  <path class="cls-12" d="M38.08,182.72h22v-7.7h-22"/>
  <path id="ArialMT-4d-2" data-name="ArialMT-4d" class="cls-11" d="M69.69,182.72v-7.87h1.57l1.86,5.57c.17.52.3.91.38,1.17.09-.29.23-.71.42-1.26l1.89-5.48h1.4v7.87h-1v-6.59l-2.29,6.59h-.94l-2.28-6.7v6.7h-1Z"/>
  <path id="ArialMT-69-3" data-name="ArialMT-69" class="cls-11" d="M78.77,175.96v-1.11h.97v1.11h-.97ZM78.77,182.72v-5.7h.97v5.7h-.97Z"/>
  <path id="ArialMT-61-4" data-name="ArialMT-61" class="cls-11" d="M84.93,182.02c-.36.3-.7.52-1.03.64-.33.12-.69.19-1.07.19-.63,0-1.11-.15-1.45-.46s-.51-.7-.51-1.17c0-.28.06-.53.19-.76.13-.23.29-.42.5-.56s.44-.25.7-.32c.19-.05.48-.1.86-.15.78-.09,1.35-.2,1.72-.33,0-.13,0-.22,0-.25,0-.39-.09-.67-.27-.83-.25-.22-.61-.33-1.1-.33-.45,0-.79.08-1.01.24s-.38.44-.48.85l-.95-.13c.09-.4.23-.73.42-.98.2-.25.48-.44.85-.57.37-.14.8-.2,1.29-.2s.88.06,1.19.17c.3.11.53.26.67.43.14.17.24.39.3.66.03.16.05.46.05.89v1.29c0,.9.02,1.47.06,1.71.04.24.12.47.25.68h-1.01c-.1-.2-.16-.43-.19-.7ZM84.85,179.86c-.35.14-.88.27-1.58.37-.4.06-.68.12-.84.19-.16.07-.29.18-.38.31-.09.14-.13.29-.13.46,0,.26.1.47.29.64.2.17.48.26.86.26s.7-.08.99-.24c.29-.16.5-.39.64-.67.1-.22.16-.54.16-.97v-.36Z"/>
  <path id="ArialMT-6d-2" data-name="ArialMT-6d" class="cls-11" d="M87.33,182.72v-5.7h.86v.8c.18-.28.42-.5.71-.67.3-.17.64-.26,1.02-.26.42,0,.77.09,1.04.26s.46.42.57.74c.45-.67,1.04-1,1.76-1,.57,0,1,.16,1.3.47.3.31.46.8.46,1.45v3.92h-.96v-3.59c0-.39-.03-.66-.09-.83-.06-.17-.18-.31-.34-.41-.16-.1-.36-.16-.58-.16-.4,0-.73.13-1,.4-.26.27-.4.69-.4,1.28v3.31h-.97v-3.71c0-.43-.08-.75-.24-.97-.16-.22-.41-.32-.77-.32-.27,0-.52.07-.75.21-.23.14-.4.35-.5.63-.1.27-.16.67-.16,1.19v2.96h-.97Z"/>
  <path id="ArialMT-69-4" data-name="ArialMT-69" class="cls-11" d="M96.5,175.96v-1.11h.97v1.11h-.97ZM96.5,182.72v-5.7h.97v5.7h-.97Z"/>
  <path class="cls-13" d="M38.08,198.28h22v-7.7h-22"/>
  <path id="ArialMT-4e-2" data-name="ArialMT-4e" class="cls-11" d="M69.72,198.28v-7.87h1.07l4.14,6.18v-6.18h1v7.87h-1.07l-4.14-6.19v6.19h-1Z"/>
  <path id="ArialMT-59-2" data-name="ArialMT-59" class="cls-11" d="M79.89,198.28v-3.34l-3.03-4.54h1.27l1.55,2.37c.29.44.55.89.8,1.33.24-.41.52-.87.86-1.39l1.53-2.32h1.21l-3.14,4.54v3.34h-1.04Z"/>
  <path id="ArialMT-43-2" data-name="ArialMT-43" class="cls-11" d="M90.63,195.52l1.04.26c-.22.86-.61,1.51-1.18,1.96-.57.45-1.26.67-2.08.67s-1.54-.17-2.07-.52c-.53-.35-.94-.85-1.21-1.5-.28-.66-.42-1.36-.42-2.11,0-.82.16-1.54.47-2.14.31-.61.76-1.07,1.34-1.39.58-.32,1.22-.48,1.91-.48.79,0,1.45.2,1.99.6.54.4.91.96,1.12,1.69l-1.03.24c-.18-.57-.45-.99-.8-1.25-.35-.26-.78-.39-1.31-.39-.6,0-1.11.15-1.52.44-.41.29-.69.68-.86,1.17-.16.49-.25.99-.25,1.51,0,.67.1,1.25.29,1.75.19.5.5.87.91,1.12.41.25.86.37,1.34.37.58,0,1.08-.17,1.48-.5.41-.34.68-.84.82-1.5Z"/>
  <path class="cls-3" d="M38.08,216.88h22v-7.7h-22"/>
  <path id="ArialMT-44-2" data-name="ArialMT-44" class="cls-11" d="M69.73,216.88v-7.87h2.71c.61,0,1.08.04,1.4.11.45.1.83.29,1.15.56.42.35.73.8.93,1.35.21.55.31,1.17.31,1.87,0,.6-.07,1.13-.21,1.59-.14.46-.32.84-.54,1.15-.22.3-.46.54-.72.71-.26.17-.57.3-.94.39s-.79.13-1.26.13h-2.84ZM70.77,215.95h1.68c.52,0,.93-.05,1.22-.14s.53-.23.71-.41c.25-.25.44-.58.58-1s.21-.92.21-1.52c0-.82-.14-1.46-.41-1.9s-.6-.74-.98-.89c-.28-.11-.73-.16-1.35-.16h-1.66v6.02Z"/>
  <path id="ArialMT-61-5" data-name="ArialMT-61" class="cls-11" d="M81.27,216.18c-.36.3-.7.52-1.03.64-.33.12-.69.19-1.07.19-.63,0-1.11-.15-1.45-.46s-.51-.7-.51-1.17c0-.28.06-.53.19-.76.13-.23.29-.42.5-.56s.44-.25.7-.32c.19-.05.48-.1.86-.15.78-.09,1.35-.2,1.72-.33,0-.13,0-.22,0-.25,0-.39-.09-.67-.27-.83-.25-.22-.61-.33-1.1-.33-.45,0-.79.08-1.01.24s-.38.44-.48.85l-.95-.13c.09-.4.23-.73.42-.98.2-.25.48-.44.85-.57.37-.14.8-.2,1.29-.2s.88.06,1.19.17c.3.11.53.26.67.43.14.17.24.39.3.66.03.16.05.46.05.89v1.29c0,.9.02,1.47.06,1.71.04.24.12.47.25.68h-1.01c-.1-.2-.16-.43-.19-.7ZM81.19,214.02c-.35.14-.88.27-1.58.37-.4.06-.68.12-.84.19-.16.07-.29.18-.38.31-.09.14-.13.29-.13.46,0,.26.1.47.29.64.2.17.48.26.86.26s.7-.08.99-.24c.29-.16.5-.39.64-.67.1-.22.16-.54.16-.97v-.36Z"/>
  <path id="ArialMT-6c-3" data-name="ArialMT-6c" class="cls-11" d="M83.64,216.88v-7.87h.97v7.87h-.97Z"/>
  <path id="ArialMT-6c-4" data-name="ArialMT-6c" class="cls-11" d="M86.09,216.88v-7.87h.97v7.87h-.97Z"/>
  <path id="ArialMT-61-6" data-name="ArialMT-61" class="cls-11" d="M92.27,216.18c-.36.3-.7.52-1.03.64-.33.12-.69.19-1.07.19-.63,0-1.11-.15-1.45-.46s-.51-.7-.51-1.17c0-.28.06-.53.19-.76.13-.23.29-.42.5-.56s.44-.25.7-.32c.19-.05.48-.1.86-.15.78-.09,1.35-.2,1.72-.33,0-.13,0-.22,0-.25,0-.39-.09-.67-.27-.83-.25-.22-.61-.33-1.1-.33-.45,0-.79.08-1.01.24s-.38.44-.48.85l-.95-.13c.09-.4.23-.73.42-.98.2-.25.48-.44.85-.57.37-.14.8-.2,1.29-.2s.88.06,1.19.17c.3.11.53.26.67.43.14.17.24.39.3.66.03.16.05.46.05.89v1.29c0,.9.02,1.47.06,1.71.04.24.12.47.25.68h-1.01c-.1-.2-.16-.43-.19-.7ZM92.19,214.02c-.35.14-.88.27-1.58.37-.4.06-.68.12-.84.19-.16.07-.29.18-.38.31-.09.14-.13.29-.13.46,0,.26.1.47.29.64.2.17.48.26.86.26s.7-.08.99-.24c.29-.16.5-.39.64-.67.1-.22.16-.54.16-.97v-.36Z"/>
  <path id="ArialMT-73-2" data-name="ArialMT-73" class="cls-11" d="M94.28,215.18l.96-.15c.05.38.2.68.45.88.25.2.59.31,1.03.31s.77-.09.99-.27c.22-.18.32-.39.32-.64,0-.22-.1-.39-.29-.52-.13-.09-.46-.19-.99-.33-.71-.18-1.2-.34-1.47-.47s-.48-.31-.62-.54c-.14-.23-.21-.49-.21-.77,0-.25.06-.49.17-.7.12-.22.28-.4.48-.54.15-.11.35-.2.61-.28.26-.08.54-.12.84-.12.45,0,.84.06,1.18.19.34.13.59.3.75.52.16.22.27.51.33.88l-.95.13c-.04-.29-.17-.52-.37-.69-.21-.16-.5-.25-.87-.25-.44,0-.76.07-.95.22-.19.15-.29.32-.29.52,0,.12.04.24.12.34.08.1.2.19.37.26.1.04.38.12.85.25.68.18,1.16.33,1.43.45.27.12.48.28.64.51.15.22.23.5.23.83s-.09.63-.28.91c-.19.28-.46.5-.81.66-.35.16-.75.23-1.2.23-.74,0-1.31-.15-1.69-.46-.39-.31-.64-.76-.74-1.37Z"/>
  <path class="cls-12" d="M38.08,182.72h22v-7.7h-22"/>
  <path id="ArialMT-4d-3" data-name="ArialMT-4d" class="cls-11" d="M69.69,182.72v-7.87h1.57l1.86,5.57c.17.52.3.91.38,1.17.09-.29.23-.71.42-1.26l1.89-5.48h1.4v7.87h-1v-6.59l-2.29,6.59h-.94l-2.28-6.7v6.7h-1Z"/>
  <path id="ArialMT-69-5" data-name="ArialMT-69" class="cls-11" d="M78.77,175.96v-1.11h.97v1.11h-.97ZM78.77,182.72v-5.7h.97v5.7h-.97Z"/>
  <path id="ArialMT-61-7" data-name="ArialMT-61" class="cls-11" d="M84.93,182.02c-.36.3-.7.52-1.03.64-.33.12-.69.19-1.07.19-.63,0-1.11-.15-1.45-.46s-.51-.7-.51-1.17c0-.28.06-.53.19-.76.13-.23.29-.42.5-.56s.44-.25.7-.32c.19-.05.48-.1.86-.15.78-.09,1.35-.2,1.72-.33,0-.13,0-.22,0-.25,0-.39-.09-.67-.27-.83-.25-.22-.61-.33-1.1-.33-.45,0-.79.08-1.01.24s-.38.44-.48.85l-.95-.13c.09-.4.23-.73.42-.98.2-.25.48-.44.85-.57.37-.14.8-.2,1.29-.2s.88.06,1.19.17c.3.11.53.26.67.43.14.17.24.39.3.66.03.16.05.46.05.89v1.29c0,.9.02,1.47.06,1.71.04.24.12.47.25.68h-1.01c-.1-.2-.16-.43-.19-.7ZM84.85,179.86c-.35.14-.88.27-1.58.37-.4.06-.68.12-.84.19-.16.07-.29.18-.38.31-.09.14-.13.29-.13.46,0,.26.1.47.29.64.2.17.48.26.86.26s.7-.08.99-.24c.29-.16.5-.39.64-.67.1-.22.16-.54.16-.97v-.36Z"/>
  <path id="ArialMT-6d-3" data-name="ArialMT-6d" class="cls-11" d="M87.33,182.72v-5.7h.86v.8c.18-.28.42-.5.71-.67.3-.17.64-.26,1.02-.26.42,0,.77.09,1.04.26s.46.42.57.74c.45-.67,1.04-1,1.76-1,.57,0,1,.16,1.3.47.3.31.46.8.46,1.45v3.92h-.96v-3.59c0-.39-.03-.66-.09-.83-.06-.17-.18-.31-.34-.41-.16-.1-.36-.16-.58-.16-.4,0-.73.13-1,.4-.26.27-.4.69-.4,1.28v3.31h-.97v-3.71c0-.43-.08-.75-.24-.97-.16-.22-.41-.32-.77-.32-.27,0-.52.07-.75.21-.23.14-.4.35-.5.63-.1.27-.16.67-.16,1.19v2.96h-.97Z"/>
  <path id="ArialMT-69-6" data-name="ArialMT-69" class="cls-11" d="M96.5,175.96v-1.11h.97v1.11h-.97ZM96.5,182.72v-5.7h.97v5.7h-.97Z"/>
  <path class="cls-13" d="M38.08,198.28h22v-7.7h-22"/>
  <path id="ArialMT-4e-3" data-name="ArialMT-4e" class="cls-11" d="M69.72,198.28v-7.87h1.07l4.14,6.18v-6.18h1v7.87h-1.07l-4.14-6.19v6.19h-1Z"/>
  <path id="ArialMT-59-3" data-name="ArialMT-59" class="cls-11" d="M79.89,198.28v-3.34l-3.03-4.54h1.27l1.55,2.37c.29.44.55.89.8,1.33.24-.41.52-.87.86-1.39l1.53-2.32h1.21l-3.14,4.54v3.34h-1.04Z"/>
  <path id="ArialMT-43-3" data-name="ArialMT-43" class="cls-11" d="M90.63,195.52l1.04.26c-.22.86-.61,1.51-1.18,1.96-.57.45-1.26.67-2.08.67s-1.54-.17-2.07-.52c-.53-.35-.94-.85-1.21-1.5-.28-.66-.42-1.36-.42-2.11,0-.82.16-1.54.47-2.14.31-.61.76-1.07,1.34-1.39.58-.32,1.22-.48,1.91-.48.79,0,1.45.2,1.99.6.54.4.91.96,1.12,1.69l-1.03.24c-.18-.57-.45-.99-.8-1.25-.35-.26-.78-.39-1.31-.39-.6,0-1.11.15-1.52.44-.41.29-.69.68-.86,1.17-.16.49-.25.99-.25,1.51,0,.67.1,1.25.29,1.75.19.5.5.87.91,1.12.41.25.86.37,1.34.37.58,0,1.08-.17,1.48-.5.41-.34.68-.84.82-1.5Z"/>
  <path class="cls-3" d="M38.08,216.88h22v-7.7h-22"/>
  <path id="ArialMT-44-3" data-name="ArialMT-44" class="cls-11" d="M69.73,216.88v-7.87h2.71c.61,0,1.08.04,1.4.11.45.1.83.29,1.15.56.42.35.73.8.93,1.35.21.55.31,1.17.31,1.87,0,.6-.07,1.13-.21,1.59-.14.46-.32.84-.54,1.15-.22.3-.46.54-.72.71-.26.17-.57.3-.94.39s-.79.13-1.26.13h-2.84ZM70.77,215.95h1.68c.52,0,.93-.05,1.22-.14s.53-.23.71-.41c.25-.25.44-.58.58-1s.21-.92.21-1.52c0-.82-.14-1.46-.41-1.9s-.6-.74-.98-.89c-.28-.11-.73-.16-1.35-.16h-1.66v6.02Z"/>
  <path id="ArialMT-61-8" data-name="ArialMT-61" class="cls-11" d="M81.27,216.18c-.36.3-.7.52-1.03.64-.33.12-.69.19-1.07.19-.63,0-1.11-.15-1.45-.46s-.51-.7-.51-1.17c0-.28.06-.53.19-.76.13-.23.29-.42.5-.56s.44-.25.7-.32c.19-.05.48-.1.86-.15.78-.09,1.35-.2,1.72-.33,0-.13,0-.22,0-.25,0-.39-.09-.67-.27-.83-.25-.22-.61-.33-1.1-.33-.45,0-.79.08-1.01.24s-.38.44-.48.85l-.95-.13c.09-.4.23-.73.42-.98.2-.25.48-.44.85-.57.37-.14.8-.2,1.29-.2s.88.06,1.19.17c.3.11.53.26.67.43.14.17.24.39.3.66.03.16.05.46.05.89v1.29c0,.9.02,1.47.06,1.71.04.24.12.47.25.68h-1.01c-.1-.2-.16-.43-.19-.7ZM81.19,214.02c-.35.14-.88.27-1.58.37-.4.06-.68.12-.84.19-.16.07-.29.18-.38.31-.09.14-.13.29-.13.46,0,.26.1.47.29.64.2.17.48.26.86.26s.7-.08.99-.24c.29-.16.5-.39.64-.67.1-.22.16-.54.16-.97v-.36Z"/>
  <path id="ArialMT-6c-5" data-name="ArialMT-6c" class="cls-11" d="M83.64,216.88v-7.87h.97v7.87h-.97Z"/>
  <path id="ArialMT-6c-6" data-name="ArialMT-6c" class="cls-11" d="M86.09,216.88v-7.87h.97v7.87h-.97Z"/>
  <path id="ArialMT-61-9" data-name="ArialMT-61" class="cls-11" d="M92.27,216.18c-.36.3-.7.52-1.03.64-.33.12-.69.19-1.07.19-.63,0-1.11-.15-1.45-.46s-.51-.7-.51-1.17c0-.28.06-.53.19-.76.13-.23.29-.42.5-.56s.44-.25.7-.32c.19-.05.48-.1.86-.15.78-.09,1.35-.2,1.72-.33,0-.13,0-.22,0-.25,0-.39-.09-.67-.27-.83-.25-.22-.61-.33-1.1-.33-.45,0-.79.08-1.01.24s-.38.44-.48.85l-.95-.13c.09-.4.23-.73.42-.98.2-.25.48-.44.85-.57.37-.14.8-.2,1.29-.2s.88.06,1.19.17c.3.11.53.26.67.43.14.17.24.39.3.66.03.16.05.46.05.89v1.29c0,.9.02,1.47.06,1.71.04.24.12.47.25.68h-1.01c-.1-.2-.16-.43-.19-.7ZM92.19,214.02c-.35.14-.88.27-1.58.37-.4.06-.68.12-.84.19-.16.07-.29.18-.38.31-.09.14-.13.29-.13.46,0,.26.1.47.29.64.2.17.48.26.86.26s.7-.08.99-.24c.29-.16.5-.39.64-.67.1-.22.16-.54.16-.97v-.36Z"/>
  <path id="ArialMT-73-3" data-name="ArialMT-73" class="cls-11" d="M94.28,215.18l.96-.15c.05.38.2.68.45.88.25.2.59.31,1.03.31s.77-.09.99-.27c.22-.18.32-.39.32-.64,0-.22-.1-.39-.29-.52-.13-.09-.46-.19-.99-.33-.71-.18-1.2-.34-1.47-.47s-.48-.31-.62-.54c-.14-.23-.21-.49-.21-.77,0-.25.06-.49.17-.7.12-.22.28-.4.48-.54.15-.11.35-.2.61-.28.26-.08.54-.12.84-.12.45,0,.84.06,1.18.19.34.13.59.3.75.52.16.22.27.51.33.88l-.95.13c-.04-.29-.17-.52-.37-.69-.21-.16-.5-.25-.87-.25-.44,0-.76.07-.95.22-.19.15-.29.32-.29.52,0,.12.04.24.12.34.08.1.2.19.37.26.1.04.38.12.85.25.68.18,1.16.33,1.43.45.27.12.48.28.64.51.15.22.23.5.23.83s-.09.63-.28.91c-.19.28-.46.5-.81.66-.35.16-.75.23-1.2.23-.74,0-1.31-.15-1.69-.46-.39-.31-.64-.76-.74-1.37Z"/>
</svg>