<?xml version="1.0" encoding="utf-8" standalone="no"?>
<!DOCTYPE svg PUBLIC "-//W3C//DTD SVG 1.1//EN"
  "http://www.w3.org/Graphics/SVG/1.1/DTD/svg11.dtd">
<svg xmlns:xlink="http://www.w3.org/1999/xlink" width="1440pt" height="288pt" viewBox="0 0 1440 288" xmlns="http://www.w3.org/2000/svg" version="1.1">
 <metadata>
  <rdf:RDF xmlns:dc="http://purl.org/dc/elements/1.1/" xmlns:cc="http://creativecommons.org/ns#" xmlns:rdf="http://www.w3.org/1999/02/22-rdf-syntax-ns#">
   <cc:Work>
    <dc:type rdf:resource="http://purl.org/dc/dcmitype/StillImage"/>
    <dc:date>2025-05-04T17:21:06.787715</dc:date>
    <dc:format>image/svg+xml</dc:format>
    <dc:creator>
     <cc:Agent>
      <dc:title>Matplotlib v3.9.2, https://matplotlib.org/</dc:title>
     </cc:Agent>
    </dc:creator>
   </cc:Work>
  </rdf:RDF>
 </metadata>
 <defs>
  <style type="text/css">*{stroke-linejoin: round; stroke-linecap: butt}</style>
 </defs>
 <g id="figure_1">
  <g id="patch_1">
   <path d="M 0 288 
L 1440 288 
L 1440 0 
L 0 0 
z
" style="fill: #ffffff"/>
  </g>
  <g id="axes_1">
   <g id="patch_2">
    <path d="M 10.8 77.4 
L 81.72 77.4 
L 81.72 10.8 
L 10.8 10.8 
z
" clip-path="url(#p8a6639eae0)" style="fill: #907e6e; stroke: #907e6e; stroke-linejoin: miter"/>
   </g>
   <g id="patch_3">
    <path d="M 81.72 77.4 
L 152.64 77.4 
L 152.64 10.8 
L 81.72 10.8 
z
" clip-path="url(#p8a6639eae0)" style="fill: #857e6f; stroke: #857e6f; stroke-linejoin: miter"/>
   </g>
   <g id="patch_4">
    <path d="M 152.64 77.4 
L 223.56 77.4 
L 223.56 10.8 
L 152.64 10.8 
z
" clip-path="url(#p8a6639eae0)" style="fill: #857e6f; stroke: #857e6f; stroke-linejoin: miter"/>
   </g>
   <g id="patch_5">
    <path d="M 223.56 77.4 
L 294.48 77.4 
L 294.48 10.8 
L 223.56 10.8 
z
" clip-path="url(#p8a6639eae0)" style="fill: #c7bcb0; stroke: #c7bcb0; stroke-linejoin: miter"/>
   </g>
   <g id="patch_6">
    <path d="M 294.48 77.4 
L 365.4 77.4 
L 365.4 10.8 
L 294.48 10.8 
z
" clip-path="url(#p8a6639eae0)" style="fill: #8c785d; stroke: #8c785d; stroke-linejoin: miter"/>
   </g>
   <g id="patch_7">
    <path d="M 365.4 77.4 
L 436.32 77.4 
L 436.32 10.8 
L 365.4 10.8 
z
" clip-path="url(#p8a6639eae0)" style="fill: #474a3b; stroke: #474a3b; stroke-linejoin: miter"/>
   </g>
   <g id="patch_8">
    <path d="M 436.32 77.4 
L 507.24 77.4 
L 507.24 10.8 
L 436.32 10.8 
z
" clip-path="url(#p8a6639eae0)" style="fill: #362e27; stroke: #362e27; stroke-linejoin: miter"/>
   </g>
   <g id="patch_9">
    <path d="M 507.24 77.4 
L 578.16 77.4 
L 578.16 10.8 
L 507.24 10.8 
z
" clip-path="url(#p8a6639eae0)" style="fill: #bdb1a7; stroke: #bdb1a7; stroke-linejoin: miter"/>
   </g>
   <g id="patch_10">
    <path d="M 578.16 77.4 
L 649.08 77.4 
L 649.08 10.8 
L 578.16 10.8 
z
" clip-path="url(#p8a6639eae0)" style="fill: #c2b3a4; stroke: #c2b3a4; stroke-linejoin: miter"/>
   </g>
   <g id="patch_11">
    <path d="M 649.08 77.4 
L 720 77.4 
L 720 10.8 
L 649.08 10.8 
z
" clip-path="url(#p8a6639eae0)" style="fill: #b4a991; stroke: #b4a991; stroke-linejoin: miter"/>
   </g>
   <g id="patch_12">
    <path d="M 720 77.4 
L 790.92 77.4 
L 790.92 10.8 
L 720 10.8 
z
" clip-path="url(#p8a6639eae0)" style="fill: #3b3a45; stroke: #3b3a45; stroke-linejoin: miter"/>
   </g>
   <g id="patch_13">
    <path d="M 790.92 77.4 
L 861.84 77.4 
L 861.84 10.8 
L 790.92 10.8 
z
" clip-path="url(#p8a6639eae0)" style="fill: #33271d; stroke: #33271d; stroke-linejoin: miter"/>
   </g>
   <g id="patch_14">
    <path d="M 861.84 77.4 
L 932.76 77.4 
L 932.76 10.8 
L 861.84 10.8 
z
" clip-path="url(#p8a6639eae0)" style="fill: #322a21; stroke: #322a21; stroke-linejoin: miter"/>
   </g>
   <g id="patch_15">
    <path d="M 932.76 77.4 
L 1003.68 77.4 
L 1003.68 10.8 
L 932.76 10.8 
z
" clip-path="url(#p8a6639eae0)" style="fill: #d7cec4; stroke: #d7cec4; stroke-linejoin: miter"/>
   </g>
   <g id="patch_16">
    <path d="M 1003.68 77.4 
L 1074.6 77.4 
L 1074.6 10.8 
L 1003.68 10.8 
z
" clip-path="url(#p8a6639eae0)" style="fill: #766154; stroke: #766154; stroke-linejoin: miter"/>
   </g>
   <g id="patch_17">
    <path d="M 1074.6 77.4 
L 1145.52 77.4 
L 1145.52 10.8 
L 1074.6 10.8 
z
" clip-path="url(#p8a6639eae0)" style="fill: #af9874; stroke: #af9874; stroke-linejoin: miter"/>
   </g>
   <g id="patch_18">
    <path d="M 1145.52 77.4 
L 1216.44 77.4 
L 1216.44 10.8 
L 1145.52 10.8 
z
" clip-path="url(#p8a6639eae0)" style="fill: #332a24; stroke: #332a24; stroke-linejoin: miter"/>
   </g>
   <g id="patch_19">
    <path d="M 1216.44 77.4 
L 1287.36 77.4 
L 1287.36 10.8 
L 1216.44 10.8 
z
" clip-path="url(#p8a6639eae0)" style="fill: #494a2a; stroke: #494a2a; stroke-linejoin: miter"/>
   </g>
   <g id="patch_20">
    <path d="M 1287.36 77.4 
L 1358.28 77.4 
L 1358.28 10.8 
L 1287.36 10.8 
z
" clip-path="url(#p8a6639eae0)" style="fill: #997e59; stroke: #997e59; stroke-linejoin: miter"/>
   </g>
   <g id="patch_21">
    <path d="M 1358.28 77.4 
L 1429.2 77.4 
L 1429.2 10.8 
L 1358.28 10.8 
z
" clip-path="url(#p8a6639eae0)" style="fill: #2c282b; stroke: #2c282b; stroke-linejoin: miter"/>
   </g>
   <g id="patch_22">
    <path d="M 10.8 144 
L 81.72 144 
L 81.72 77.4 
L 10.8 77.4 
z
" clip-path="url(#p8a6639eae0)" style="fill: #ceccc9; stroke: #ceccc9; stroke-linejoin: miter"/>
   </g>
   <g id="patch_23">
    <path d="M 81.72 144 
L 152.64 144 
L 152.64 77.4 
L 81.72 77.4 
z
" clip-path="url(#p8a6639eae0)" style="fill: #cccac5; stroke: #cccac5; stroke-linejoin: miter"/>
   </g>
   <g id="patch_24">
    <path d="M 152.64 144 
L 223.56 144 
L 223.56 77.4 
L 152.64 77.4 
z
" clip-path="url(#p8a6639eae0)" style="fill: #bfcdc5; stroke: #bfcdc5; stroke-linejoin: miter"/>
   </g>
   <g id="patch_25">
    <path d="M 223.56 144 
L 294.48 144 
L 294.48 77.4 
L 223.56 77.4 
z
" clip-path="url(#p8a6639eae0)" style="fill: #bfcdc5; stroke: #bfcdc5; stroke-linejoin: miter"/>
   </g>
   <g id="patch_26">
    <path d="M 294.48 144 
L 365.4 144 
L 365.4 77.4 
L 294.48 77.4 
z
" clip-path="url(#p8a6639eae0)" style="fill: #ab8045; stroke: #ab8045; stroke-linejoin: miter"/>
   </g>
   <g id="patch_27">
    <path d="M 365.4 144 
L 436.32 144 
L 436.32 77.4 
L 365.4 77.4 
z
" clip-path="url(#p8a6639eae0)" style="fill: #444428; stroke: #444428; stroke-linejoin: miter"/>
   </g>
   <g id="patch_28">
    <path d="M 436.32 144 
L 507.24 144 
L 507.24 77.4 
L 436.32 77.4 
z
" clip-path="url(#p8a6639eae0)" style="fill: #9fadaa; stroke: #9fadaa; stroke-linejoin: miter"/>
   </g>
   <g id="patch_29">
    <path d="M 507.24 144 
L 578.16 144 
L 578.16 77.4 
L 507.24 77.4 
z
" clip-path="url(#p8a6639eae0)" style="fill: #c3b5a6; stroke: #c3b5a6; stroke-linejoin: miter"/>
   </g>
   <g id="patch_30">
    <path d="M 578.16 144 
L 649.08 144 
L 649.08 77.4 
L 578.16 77.4 
z
" clip-path="url(#p8a6639eae0)" style="fill: #2d2721; stroke: #2d2721; stroke-linejoin: miter"/>
   </g>
   <g id="patch_31">
    <path d="M 649.08 144 
L 720 144 
L 720 77.4 
L 649.08 77.4 
z
" clip-path="url(#p8a6639eae0)" style="fill: #cbc2b4; stroke: #cbc2b4; stroke-linejoin: miter"/>
   </g>
   <g id="patch_32">
    <path d="M 720 144 
L 790.92 144 
L 790.92 77.4 
L 720 77.4 
z
" clip-path="url(#p8a6639eae0)" style="fill: #cdc1b1; stroke: #cdc1b1; stroke-linejoin: miter"/>
   </g>
   <g id="patch_33">
    <path d="M 790.92 144 
L 861.84 144 
L 861.84 77.4 
L 790.92 77.4 
z
" clip-path="url(#p8a6639eae0)" style="fill: #c6c5c3; stroke: #c6c5c3; stroke-linejoin: miter"/>
   </g>
   <g id="patch_34">
    <path d="M 861.84 144 
L 932.76 144 
L 932.76 77.4 
L 861.84 77.4 
z
" clip-path="url(#p8a6639eae0)" style="fill: #333432; stroke: #333432; stroke-linejoin: miter"/>
   </g>
   <g id="patch_35">
    <path d="M 932.76 144 
L 1003.68 144 
L 1003.68 77.4 
L 932.76 77.4 
z
" clip-path="url(#p8a6639eae0)" style="fill: #b9ad97; stroke: #b9ad97; stroke-linejoin: miter"/>
   </g>
   <g id="patch_36">
    <path d="M 1003.68 144 
L 1074.6 144 
L 1074.6 77.4 
L 1003.68 77.4 
z
" clip-path="url(#p8a6639eae0)" style="fill: #b39a73; stroke: #b39a73; stroke-linejoin: miter"/>
   </g>
   <g id="patch_37">
    <path d="M 1074.6 144 
L 1145.52 144 
L 1145.52 77.4 
L 1074.6 77.4 
z
" clip-path="url(#p8a6639eae0)" style="fill: #cbc3b2; stroke: #cbc3b2; stroke-linejoin: miter"/>
   </g>
   <g id="patch_38">
    <path d="M 1145.52 144 
L 1216.44 144 
L 1216.44 77.4 
L 1145.52 77.4 
z
" clip-path="url(#p8a6639eae0)" style="fill: #433c2c; stroke: #433c2c; stroke-linejoin: miter"/>
   </g>
   <g id="patch_39">
    <path d="M 1216.44 144 
L 1287.36 144 
L 1287.36 77.4 
L 1216.44 77.4 
z
" clip-path="url(#p8a6639eae0)" style="fill: #41362e; stroke: #41362e; stroke-linejoin: miter"/>
   </g>
   <g id="patch_40">
    <path d="M 1287.36 144 
L 1358.28 144 
L 1358.28 77.4 
L 1287.36 77.4 
z
" clip-path="url(#p8a6639eae0)" style="fill: #a49983; stroke: #a49983; stroke-linejoin: miter"/>
   </g>
   <g id="patch_41">
    <path d="M 1358.28 144 
L 1429.2 144 
L 1429.2 77.4 
L 1358.28 77.4 
z
" clip-path="url(#p8a6639eae0)" style="fill: #2f271f; stroke: #2f271f; stroke-linejoin: miter"/>
   </g>
   <g id="patch_42">
    <path d="M 10.8 210.6 
L 81.72 210.6 
L 81.72 144 
L 10.8 144 
z
" clip-path="url(#p8a6639eae0)" style="fill: #c5c6c1; stroke: #c5c6c1; stroke-linejoin: miter"/>
   </g>
   <g id="patch_43">
    <path d="M 81.72 210.6 
L 152.64 210.6 
L 152.64 144 
L 81.72 144 
z
" clip-path="url(#p8a6639eae0)" style="fill: #392e2b; stroke: #392e2b; stroke-linejoin: miter"/>
   </g>
   <g id="patch_44">
    <path d="M 152.64 210.6 
L 223.56 210.6 
L 223.56 144 
L 152.64 144 
z
" clip-path="url(#p8a6639eae0)" style="fill: #c3c9c6; stroke: #c3c9c6; stroke-linejoin: miter"/>
   </g>
   <g id="patch_45">
    <path d="M 223.56 210.6 
L 294.48 210.6 
L 294.48 144 
L 223.56 144 
z
" clip-path="url(#p8a6639eae0)" style="fill: #de9b74; stroke: #de9b74; stroke-linejoin: miter"/>
   </g>
   <g id="patch_46">
    <path d="M 294.48 210.6 
L 365.4 210.6 
L 365.4 144 
L 294.48 144 
z
" clip-path="url(#p8a6639eae0)" style="fill: #494239; stroke: #494239; stroke-linejoin: miter"/>
   </g>
   <g id="patch_47">
    <path d="M 365.4 210.6 
L 436.32 210.6 
L 436.32 144 
L 365.4 144 
z
" clip-path="url(#p8a6639eae0)" style="fill: #b6b0a5; stroke: #b6b0a5; stroke-linejoin: miter"/>
   </g>
   <g id="patch_48">
    <path d="M 436.32 210.6 
L 507.24 210.6 
L 507.24 144 
L 436.32 144 
z
" clip-path="url(#p8a6639eae0)" style="fill: #9e896f; stroke: #9e896f; stroke-linejoin: miter"/>
   </g>
   <g id="patch_49">
    <path d="M 507.24 210.6 
L 578.16 210.6 
L 578.16 144 
L 507.24 144 
z
" clip-path="url(#p8a6639eae0)" style="fill: #373537; stroke: #373537; stroke-linejoin: miter"/>
   </g>
   <g id="patch_50">
    <path d="M 578.16 210.6 
L 649.08 210.6 
L 649.08 144 
L 578.16 144 
z
" clip-path="url(#p8a6639eae0)" style="fill: #3d3c2a; stroke: #3d3c2a; stroke-linejoin: miter"/>
   </g>
   <g id="patch_51">
    <path d="M 649.08 210.6 
L 720 210.6 
L 720 144 
L 649.08 144 
z
" clip-path="url(#p8a6639eae0)" style="fill: #312921; stroke: #312921; stroke-linejoin: miter"/>
   </g>
   <g id="patch_52">
    <path d="M 720 210.6 
L 790.92 210.6 
L 790.92 144 
L 720 144 
z
" clip-path="url(#p8a6639eae0)" style="fill: #c6baa6; stroke: #c6baa6; stroke-linejoin: miter"/>
   </g>
   <g id="patch_53">
    <path d="M 790.92 210.6 
L 861.84 210.6 
L 861.84 144 
L 790.92 144 
z
" clip-path="url(#p8a6639eae0)" style="fill: #ccc3b7; stroke: #ccc3b7; stroke-linejoin: miter"/>
   </g>
   <g id="patch_54">
    <path d="M 861.84 210.6 
L 932.76 210.6 
L 932.76 144 
L 861.84 144 
z
" clip-path="url(#p8a6639eae0)" style="fill: #ac8e6f; stroke: #ac8e6f; stroke-linejoin: miter"/>
   </g>
   <g id="patch_55">
    <path d="M 932.76 210.6 
L 1003.68 210.6 
L 1003.68 144 
L 932.76 144 
z
" clip-path="url(#p8a6639eae0)" style="fill: #383a33; stroke: #383a33; stroke-linejoin: miter"/>
   </g>
   <g id="patch_56">
    <path d="M 1003.68 210.6 
L 1074.6 210.6 
L 1074.6 144 
L 1003.68 144 
z
" clip-path="url(#p8a6639eae0)" style="fill: #8f806f; stroke: #8f806f; stroke-linejoin: miter"/>
   </g>
   <g id="patch_57">
    <path d="M 1074.6 210.6 
L 1145.52 210.6 
L 1145.52 144 
L 1074.6 144 
z
" clip-path="url(#p8a6639eae0)" style="fill: #303031; stroke: #303031; stroke-linejoin: miter"/>
   </g>
   <g id="patch_58">
    <path d="M 1145.52 210.6 
L 1216.44 210.6 
L 1216.44 144 
L 1145.52 144 
z
" clip-path="url(#p8a6639eae0)" style="fill: #463c34; stroke: #463c34; stroke-linejoin: miter"/>
   </g>
   <g id="patch_59">
    <path d="M 1216.44 210.6 
L 1287.36 210.6 
L 1287.36 144 
L 1216.44 144 
z
" clip-path="url(#p8a6639eae0)" style="fill: #2b2725; stroke: #2b2725; stroke-linejoin: miter"/>
   </g>
   <g id="patch_60">
    <path d="M 1287.36 210.6 
L 1358.28 210.6 
L 1358.28 144 
L 1287.36 144 
z
" clip-path="url(#p8a6639eae0)" style="fill: #3e4247; stroke: #3e4247; stroke-linejoin: miter"/>
   </g>
   <g id="patch_61">
    <path d="M 1358.28 210.6 
L 1429.2 210.6 
L 1429.2 144 
L 1358.28 144 
z
" clip-path="url(#p8a6639eae0)" style="fill: #ac8e6f; stroke: #ac8e6f; stroke-linejoin: miter"/>
   </g>
   <g id="patch_62">
    <path d="M 10.8 277.2 
L 81.72 277.2 
L 81.72 210.6 
L 10.8 210.6 
z
" clip-path="url(#p8a6639eae0)" style="fill: #ddd4bf; stroke: #ddd4bf; stroke-linejoin: miter"/>
   </g>
   <g id="patch_63">
    <path d="M 81.72 277.2 
L 152.64 277.2 
L 152.64 210.6 
L 81.72 210.6 
z
" clip-path="url(#p8a6639eae0)" style="fill: #c1b6b0; stroke: #c1b6b0; stroke-linejoin: miter"/>
   </g>
   <g id="patch_64">
    <path d="M 152.64 277.2 
L 223.56 277.2 
L 223.56 210.6 
L 152.64 210.6 
z
" clip-path="url(#p8a6639eae0)" style="fill: #e4ceb5; stroke: #e4ceb5; stroke-linejoin: miter"/>
   </g>
   <g id="patch_65">
    <path d="M 223.56 277.2 
L 294.48 277.2 
L 294.48 210.6 
L 223.56 210.6 
z
" clip-path="url(#p8a6639eae0)" style="fill: #2e2e2d; stroke: #2e2e2d; stroke-linejoin: miter"/>
   </g>
   <g id="patch_66">
    <path d="M 294.48 277.2 
L 365.4 277.2 
L 365.4 210.6 
L 294.48 210.6 
z
" clip-path="url(#p8a6639eae0)" style="fill: #b7947a; stroke: #b7947a; stroke-linejoin: miter"/>
   </g>
   <g id="patch_67">
    <path d="M 365.4 277.2 
L 436.32 277.2 
L 436.32 210.6 
L 365.4 210.6 
z
" clip-path="url(#p8a6639eae0)" style="fill: #423b31; stroke: #423b31; stroke-linejoin: miter"/>
   </g>
   <g id="patch_68">
    <path d="M 436.32 277.2 
L 507.24 277.2 
L 507.24 210.6 
L 436.32 210.6 
z
" clip-path="url(#p8a6639eae0)" style="fill: #352c25; stroke: #352c25; stroke-linejoin: miter"/>
   </g>
   <g id="patch_69">
    <path d="M 507.24 277.2 
L 578.16 277.2 
L 578.16 210.6 
L 507.24 210.6 
z
" clip-path="url(#p8a6639eae0)" style="fill: #d7c0a5; stroke: #d7c0a5; stroke-linejoin: miter"/>
   </g>
   <g id="patch_70">
    <path d="M 578.16 277.2 
L 649.08 277.2 
L 649.08 210.6 
L 578.16 210.6 
z
" clip-path="url(#p8a6639eae0)" style="fill: #877563; stroke: #877563; stroke-linejoin: miter"/>
   </g>
   <g id="patch_71">
    <path d="M 649.08 277.2 
L 720 277.2 
L 720 210.6 
L 649.08 210.6 
z
" clip-path="url(#p8a6639eae0)" style="fill: #877563; stroke: #877563; stroke-linejoin: miter"/>
   </g>
   <g id="patch_72">
    <path d="M 720 277.2 
L 790.92 277.2 
L 790.92 210.6 
L 720 210.6 
z
" clip-path="url(#p8a6639eae0)" style="fill: #c2c3c0; stroke: #c2c3c0; stroke-linejoin: miter"/>
   </g>
   <g id="patch_73">
    <path d="M 790.92 277.2 
L 861.84 277.2 
L 861.84 210.6 
L 790.92 210.6 
z
" clip-path="url(#p8a6639eae0)" style="fill: #c2c3c0; stroke: #c2c3c0; stroke-linejoin: miter"/>
   </g>
   <g id="patch_74">
    <path d="M 861.84 277.2 
L 932.76 277.2 
L 932.76 210.6 
L 861.84 210.6 
z
" clip-path="url(#p8a6639eae0)" style="fill: #e4dad2; stroke: #e4dad2; stroke-linejoin: miter"/>
   </g>
   <g id="patch_75">
    <path d="M 932.76 277.2 
L 1003.68 277.2 
L 1003.68 210.6 
L 932.76 210.6 
z
" clip-path="url(#p8a6639eae0)" style="fill: #dcd0c1; stroke: #dcd0c1; stroke-linejoin: miter"/>
   </g>
   <g id="patch_76">
    <path d="M 1003.68 277.2 
L 1074.6 277.2 
L 1074.6 210.6 
L 1003.68 210.6 
z
" clip-path="url(#p8a6639eae0)" style="fill: #766054; stroke: #766054; stroke-linejoin: miter"/>
   </g>
   <g id="patch_77">
    <path d="M 1074.6 277.2 
L 1145.52 277.2 
L 1145.52 210.6 
L 1074.6 210.6 
z
" clip-path="url(#p8a6639eae0)" style="fill: #b9aea3; stroke: #b9aea3; stroke-linejoin: miter"/>
   </g>
   <g id="patch_78">
    <path d="M 1145.52 277.2 
L 1216.44 277.2 
L 1216.44 210.6 
L 1145.52 210.6 
z
" clip-path="url(#p8a6639eae0)" style="fill: #aea69a; stroke: #aea69a; stroke-linejoin: miter"/>
   </g>
   <g id="patch_79">
    <path d="M 1216.44 277.2 
L 1287.36 277.2 
L 1287.36 210.6 
L 1216.44 210.6 
z
" clip-path="url(#p8a6639eae0)" style="fill: #b6b0a5; stroke: #b6b0a5; stroke-linejoin: miter"/>
   </g>
   <g id="patch_80">
    <path d="M 1287.36 277.2 
L 1358.28 277.2 
L 1358.28 210.6 
L 1287.36 210.6 
z
" clip-path="url(#p8a6639eae0)" style="fill: #322e22; stroke: #322e22; stroke-linejoin: miter"/>
   </g>
  </g>
 </g>
 <defs>
  <clipPath id="p8a6639eae0">
   <rect x="10.8" y="10.8" width="1418.4" height="266.4"/>
  </clipPath>
 </defs>
</svg>
