<?xml version="1.0" encoding="UTF-8"?>
<svg xmlns="http://www.w3.org/2000/svg" xmlns:xlink="http://www.w3.org/1999/xlink" version="1.1" viewBox="0 0 596 72">
  <defs>
    <style>
      .cls-1 {
        fill: none;
      }

      .cls-2 {
        fill: #c8c3bf;
        stroke: #c8c3bf;
      }

      .cls-3 {
        fill: #c2baa8;
        stroke: #c2baa8;
      }

      .cls-4 {
        clip-path: url(#clippath-1);
      }

      .cls-5 {
        clip-path: url(#clippath-3);
      }

      .cls-6 {
        clip-path: url(#clippath-4);
      }

      .cls-7 {
        clip-path: url(#clippath-2);
      }

      .cls-8 {
        clip-path: url(#clippath-7);
      }

      .cls-9 {
        clip-path: url(#clippath-6);
      }

      .cls-10 {
        clip-path: url(#clippath-5);
      }

      .cls-11 {
        fill: #b1a37d;
        stroke: #b1a37d;
      }

      .cls-12 {
        fill: #ccc8c1;
        stroke: #ccc8c1;
      }

      .cls-13 {
        fill: #c2b7ab;
        stroke: #c2b7ab;
      }

      .cls-14 {
        fill: #312d2f;
        stroke: #312d2f;
      }

      .cls-15 {
        fill: #193141;
        stroke: #193141;
      }

      .cls-16 {
        clip-path: url(#clippath);
      }
    </style>
    <clipPath id="clippath">
      <rect class="cls-1" x="10.8" y="10.8" width="1418.4" height="50.4"/>
    </clipPath>
    <clipPath id="clippath-1">
      <rect class="cls-1" x="10.8" y="10.8" width="1418.4" height="50.4"/>
    </clipPath>
    <clipPath id="clippath-2">
      <rect class="cls-1" x="10.8" y="10.8" width="1418.4" height="50.4"/>
    </clipPath>
    <clipPath id="clippath-3">
      <rect class="cls-1" x="10.8" y="10.8" width="1418.4" height="50.4"/>
    </clipPath>
    <clipPath id="clippath-4">
      <rect class="cls-1" x="10.8" y="10.8" width="1418.4" height="50.4"/>
    </clipPath>
    <clipPath id="clippath-5">
      <rect class="cls-1" x="10.8" y="10.8" width="1418.4" height="50.4"/>
    </clipPath>
    <clipPath id="clippath-6">
      <rect class="cls-1" x="10.8" y="10.8" width="1418.4" height="50.4"/>
    </clipPath>
    <clipPath id="clippath-7">
      <rect class="cls-1" x="10.8" y="10.8" width="1418.4" height="50.4"/>
    </clipPath>
  </defs>
  <!-- Generator: Adobe Illustrator 28.7.7, SVG Export Plug-In . SVG Version: 1.2.0 Build 194)  -->
  <g>
    <g id="Layer_1">
      <g class="cls-16">
        <path class="cls-14" d="M10.8,61.2h70.9V10.8H10.8v50.4Z"/>
      </g>
      <g class="cls-4">
        <path class="cls-12" d="M81.7,61.2h70.9V10.8h-70.9v50.4Z"/>
      </g>
      <g class="cls-7">
        <path class="cls-12" d="M152.6,61.2h70.9V10.8h-70.9v50.4Z"/>
      </g>
      <g class="cls-5">
        <path class="cls-3" d="M223.6,61.2h70.9V10.8h-70.9v50.4Z"/>
      </g>
      <g class="cls-6">
        <path class="cls-13" d="M294.5,61.2h70.9V10.8h-70.9v50.4Z"/>
      </g>
      <g class="cls-10">
        <path class="cls-15" d="M365.4,61.2h70.9V10.8h-70.9v50.4Z"/>
      </g>
      <g class="cls-9">
        <path class="cls-11" d="M436.3,61.2h70.9V10.8h-70.9v50.4Z"/>
      </g>
      <g class="cls-8">
        <path class="cls-2" d="M507.2,61.2h70.9V10.8h-70.9v50.4Z"/>
      </g>
    </g>
  </g>
</svg>