<?xml version="1.0" encoding="utf-8" standalone="no"?>
<!DOCTYPE svg PUBLIC "-//W3C//DTD SVG 1.1//EN"
  "http://www.w3.org/Graphics/SVG/1.1/DTD/svg11.dtd">
<svg xmlns:xlink="http://www.w3.org/1999/xlink" width="1440pt" height="216pt" viewBox="0 0 1440 216" xmlns="http://www.w3.org/2000/svg" version="1.1">
 <metadata>
  <rdf:RDF xmlns:dc="http://purl.org/dc/elements/1.1/" xmlns:cc="http://creativecommons.org/ns#" xmlns:rdf="http://www.w3.org/1999/02/22-rdf-syntax-ns#">
   <cc:Work>
    <dc:type rdf:resource="http://purl.org/dc/dcmitype/StillImage"/>
    <dc:date>2025-05-04T17:21:06.939405</dc:date>
    <dc:format>image/svg+xml</dc:format>
    <dc:creator>
     <cc:Agent>
      <dc:title>Matplotlib v3.9.2, https://matplotlib.org/</dc:title>
     </cc:Agent>
    </dc:creator>
   </cc:Work>
  </rdf:RDF>
 </metadata>
 <defs>
  <style type="text/css">*{stroke-linejoin: round; stroke-linecap: butt}</style>
 </defs>
 <g id="figure_1">
  <g id="patch_1">
   <path d="M 0 216 
L 1440 216 
L 1440 0 
L 0 0 
z
" style="fill: #ffffff"/>
  </g>
  <g id="axes_1">
   <g id="patch_2">
    <path d="M 10.8 75.6 
L 81.72 75.6 
L 81.72 10.8 
L 10.8 10.8 
z
" clip-path="url(#pf62d5512f2)" style="fill: #cdc0b7; stroke: #cdc0b7; stroke-linejoin: miter"/>
   </g>
   <g id="patch_3">
    <path d="M 81.72 75.6 
L 152.64 75.6 
L 152.64 10.8 
L 81.72 10.8 
z
" clip-path="url(#pf62d5512f2)" style="fill: #b4a796; stroke: #b4a796; stroke-linejoin: miter"/>
   </g>
   <g id="patch_4">
    <path d="M 152.64 75.6 
L 223.56 75.6 
L 223.56 10.8 
L 152.64 10.8 
z
" clip-path="url(#pf62d5512f2)" style="fill: #26251e; stroke: #26251e; stroke-linejoin: miter"/>
   </g>
   <g id="patch_5">
    <path d="M 223.56 75.6 
L 294.48 75.6 
L 294.48 10.8 
L 223.56 10.8 
z
" clip-path="url(#pf62d5512f2)" style="fill: #26251e; stroke: #26251e; stroke-linejoin: miter"/>
   </g>
   <g id="patch_6">
    <path d="M 294.48 75.6 
L 365.4 75.6 
L 365.4 10.8 
L 294.48 10.8 
z
" clip-path="url(#pf62d5512f2)" style="fill: #26251e; stroke: #26251e; stroke-linejoin: miter"/>
   </g>
   <g id="patch_7">
    <path d="M 365.4 75.6 
L 436.32 75.6 
L 436.32 10.8 
L 365.4 10.8 
z
" clip-path="url(#pf62d5512f2)" style="fill: #26251e; stroke: #26251e; stroke-linejoin: miter"/>
   </g>
   <g id="patch_8">
    <path d="M 436.32 75.6 
L 507.24 75.6 
L 507.24 10.8 
L 436.32 10.8 
z
" clip-path="url(#pf62d5512f2)" style="fill: #26251e; stroke: #26251e; stroke-linejoin: miter"/>
   </g>
   <g id="patch_9">
    <path d="M 507.24 75.6 
L 578.16 75.6 
L 578.16 10.8 
L 507.24 10.8 
z
" clip-path="url(#pf62d5512f2)" style="fill: #26251e; stroke: #26251e; stroke-linejoin: miter"/>
   </g>
   <g id="patch_10">
    <path d="M 578.16 75.6 
L 649.08 75.6 
L 649.08 10.8 
L 578.16 10.8 
z
" clip-path="url(#pf62d5512f2)" style="fill: #ab8f7c; stroke: #ab8f7c; stroke-linejoin: miter"/>
   </g>
   <g id="patch_11">
    <path d="M 649.08 75.6 
L 720 75.6 
L 720 10.8 
L 649.08 10.8 
z
" clip-path="url(#pf62d5512f2)" style="fill: #b8a58f; stroke: #b8a58f; stroke-linejoin: miter"/>
   </g>
   <g id="patch_12">
    <path d="M 720 75.6 
L 790.92 75.6 
L 790.92 10.8 
L 720 10.8 
z
" clip-path="url(#pf62d5512f2)" style="fill: #cfcbbf; stroke: #cfcbbf; stroke-linejoin: miter"/>
   </g>
   <g id="patch_13">
    <path d="M 790.92 75.6 
L 861.84 75.6 
L 861.84 10.8 
L 790.92 10.8 
z
" clip-path="url(#pf62d5512f2)" style="fill: #413932; stroke: #413932; stroke-linejoin: miter"/>
   </g>
   <g id="patch_14">
    <path d="M 861.84 75.6 
L 932.76 75.6 
L 932.76 10.8 
L 861.84 10.8 
z
" clip-path="url(#pf62d5512f2)" style="fill: #c2b799; stroke: #c2b799; stroke-linejoin: miter"/>
   </g>
   <g id="patch_15">
    <path d="M 932.76 75.6 
L 1003.68 75.6 
L 1003.68 10.8 
L 932.76 10.8 
z
" clip-path="url(#pf62d5512f2)" style="fill: #c2b799; stroke: #c2b799; stroke-linejoin: miter"/>
   </g>
   <g id="patch_16">
    <path d="M 1003.68 75.6 
L 1074.6 75.6 
L 1074.6 10.8 
L 1003.68 10.8 
z
" clip-path="url(#pf62d5512f2)" style="fill: #c2b799; stroke: #c2b799; stroke-linejoin: miter"/>
   </g>
   <g id="patch_17">
    <path d="M 1074.6 75.6 
L 1145.52 75.6 
L 1145.52 10.8 
L 1074.6 10.8 
z
" clip-path="url(#pf62d5512f2)" style="fill: #d9ccbe; stroke: #d9ccbe; stroke-linejoin: miter"/>
   </g>
   <g id="patch_18">
    <path d="M 1145.52 75.6 
L 1216.44 75.6 
L 1216.44 10.8 
L 1145.52 10.8 
z
" clip-path="url(#pf62d5512f2)" style="fill: #b4a38e; stroke: #b4a38e; stroke-linejoin: miter"/>
   </g>
   <g id="patch_19">
    <path d="M 1216.44 75.6 
L 1287.36 75.6 
L 1287.36 10.8 
L 1216.44 10.8 
z
" clip-path="url(#pf62d5512f2)" style="fill: #cab4a3; stroke: #cab4a3; stroke-linejoin: miter"/>
   </g>
   <g id="patch_20">
    <path d="M 1287.36 75.6 
L 1358.28 75.6 
L 1358.28 10.8 
L 1287.36 10.8 
z
" clip-path="url(#pf62d5512f2)" style="fill: #cab4a3; stroke: #cab4a3; stroke-linejoin: miter"/>
   </g>
   <g id="patch_21">
    <path d="M 1358.28 75.6 
L 1429.2 75.6 
L 1429.2 10.8 
L 1358.28 10.8 
z
" clip-path="url(#pf62d5512f2)" style="fill: #cab4a3; stroke: #cab4a3; stroke-linejoin: miter"/>
   </g>
   <g id="patch_22">
    <path d="M 10.8 140.4 
L 81.72 140.4 
L 81.72 75.6 
L 10.8 75.6 
z
" clip-path="url(#pf62d5512f2)" style="fill: #b4a38e; stroke: #b4a38e; stroke-linejoin: miter"/>
   </g>
   <g id="patch_23">
    <path d="M 81.72 140.4 
L 152.64 140.4 
L 152.64 75.6 
L 81.72 75.6 
z
" clip-path="url(#pf62d5512f2)" style="fill: #c2b8b0; stroke: #c2b8b0; stroke-linejoin: miter"/>
   </g>
   <g id="patch_24">
    <path d="M 152.64 140.4 
L 223.56 140.4 
L 223.56 75.6 
L 152.64 75.6 
z
" clip-path="url(#pf62d5512f2)" style="fill: #ad977e; stroke: #ad977e; stroke-linejoin: miter"/>
   </g>
   <g id="patch_25">
    <path d="M 223.56 140.4 
L 294.48 140.4 
L 294.48 75.6 
L 223.56 75.6 
z
" clip-path="url(#pf62d5512f2)" style="fill: #b4a9a1; stroke: #b4a9a1; stroke-linejoin: miter"/>
   </g>
   <g id="patch_26">
    <path d="M 294.48 140.4 
L 365.4 140.4 
L 365.4 75.6 
L 294.48 75.6 
z
" clip-path="url(#pf62d5512f2)" style="fill: #e1e1e2; stroke: #e1e1e2; stroke-linejoin: miter"/>
   </g>
   <g id="patch_27">
    <path d="M 365.4 140.4 
L 436.32 140.4 
L 436.32 75.6 
L 365.4 75.6 
z
" clip-path="url(#pf62d5512f2)" style="fill: #beb6ab; stroke: #beb6ab; stroke-linejoin: miter"/>
   </g>
   <g id="patch_28">
    <path d="M 436.32 140.4 
L 507.24 140.4 
L 507.24 75.6 
L 436.32 75.6 
z
" clip-path="url(#pf62d5512f2)" style="fill: #3c3430; stroke: #3c3430; stroke-linejoin: miter"/>
   </g>
   <g id="patch_29">
    <path d="M 507.24 140.4 
L 578.16 140.4 
L 578.16 75.6 
L 507.24 75.6 
z
" clip-path="url(#pf62d5512f2)" style="fill: #806657; stroke: #806657; stroke-linejoin: miter"/>
   </g>
   <g id="patch_30">
    <path d="M 578.16 140.4 
L 649.08 140.4 
L 649.08 75.6 
L 578.16 75.6 
z
" clip-path="url(#pf62d5512f2)" style="fill: #354235; stroke: #354235; stroke-linejoin: miter"/>
   </g>
   <g id="patch_31">
    <path d="M 649.08 140.4 
L 720 140.4 
L 720 75.6 
L 649.08 75.6 
z
" clip-path="url(#pf62d5512f2)" style="fill: #dbcec2; stroke: #dbcec2; stroke-linejoin: miter"/>
   </g>
   <g id="patch_32">
    <path d="M 720 140.4 
L 790.92 140.4 
L 790.92 75.6 
L 720 75.6 
z
" clip-path="url(#pf62d5512f2)" style="fill: #222720; stroke: #222720; stroke-linejoin: miter"/>
   </g>
   <g id="patch_33">
    <path d="M 790.92 140.4 
L 861.84 140.4 
L 861.84 75.6 
L 790.92 75.6 
z
" clip-path="url(#pf62d5512f2)" style="fill: #b69a67; stroke: #b69a67; stroke-linejoin: miter"/>
   </g>
   <g id="patch_34">
    <path d="M 861.84 140.4 
L 932.76 140.4 
L 932.76 75.6 
L 861.84 75.6 
z
" clip-path="url(#pf62d5512f2)" style="fill: #c3c2b5; stroke: #c3c2b5; stroke-linejoin: miter"/>
   </g>
   <g id="patch_35">
    <path d="M 932.76 140.4 
L 1003.68 140.4 
L 1003.68 75.6 
L 932.76 75.6 
z
" clip-path="url(#pf62d5512f2)" style="fill: #b6b0a2; stroke: #b6b0a2; stroke-linejoin: miter"/>
   </g>
   <g id="patch_36">
    <path d="M 1003.68 140.4 
L 1074.6 140.4 
L 1074.6 75.6 
L 1003.68 75.6 
z
" clip-path="url(#pf62d5512f2)" style="fill: #b6b0a2; stroke: #b6b0a2; stroke-linejoin: miter"/>
   </g>
   <g id="patch_37">
    <path d="M 1074.6 140.4 
L 1145.52 140.4 
L 1145.52 75.6 
L 1074.6 75.6 
z
" clip-path="url(#pf62d5512f2)" style="fill: #b6b0a2; stroke: #b6b0a2; stroke-linejoin: miter"/>
   </g>
   <g id="patch_38">
    <path d="M 1145.52 140.4 
L 1216.44 140.4 
L 1216.44 75.6 
L 1145.52 75.6 
z
" clip-path="url(#pf62d5512f2)" style="fill: #b6b0a2; stroke: #b6b0a2; stroke-linejoin: miter"/>
   </g>
   <g id="patch_39">
    <path d="M 1216.44 140.4 
L 1287.36 140.4 
L 1287.36 75.6 
L 1216.44 75.6 
z
" clip-path="url(#pf62d5512f2)" style="fill: #c6aba8; stroke: #c6aba8; stroke-linejoin: miter"/>
   </g>
   <g id="patch_40">
    <path d="M 1287.36 140.4 
L 1358.28 140.4 
L 1358.28 75.6 
L 1287.36 75.6 
z
" clip-path="url(#pf62d5512f2)" style="fill: #826753; stroke: #826753; stroke-linejoin: miter"/>
   </g>
   <g id="patch_41">
    <path d="M 1358.28 140.4 
L 1429.2 140.4 
L 1429.2 75.6 
L 1358.28 75.6 
z
" clip-path="url(#pf62d5512f2)" style="fill: #9b725c; stroke: #9b725c; stroke-linejoin: miter"/>
   </g>
   <g id="patch_42">
    <path d="M 10.8 205.2 
L 81.72 205.2 
L 81.72 140.4 
L 10.8 140.4 
z
" clip-path="url(#pf62d5512f2)" style="fill: #2e231b; stroke: #2e231b; stroke-linejoin: miter"/>
   </g>
   <g id="patch_43">
    <path d="M 81.72 205.2 
L 152.64 205.2 
L 152.64 140.4 
L 81.72 140.4 
z
" clip-path="url(#pf62d5512f2)" style="fill: #2e231b; stroke: #2e231b; stroke-linejoin: miter"/>
   </g>
   <g id="patch_44">
    <path d="M 152.64 205.2 
L 223.56 205.2 
L 223.56 140.4 
L 152.64 140.4 
z
" clip-path="url(#pf62d5512f2)" style="fill: #b4967c; stroke: #b4967c; stroke-linejoin: miter"/>
   </g>
   <g id="patch_45">
    <path d="M 223.56 205.2 
L 294.48 205.2 
L 294.48 140.4 
L 223.56 140.4 
z
" clip-path="url(#pf62d5512f2)" style="fill: #b4967c; stroke: #b4967c; stroke-linejoin: miter"/>
   </g>
   <g id="patch_46">
    <path d="M 294.48 205.2 
L 365.4 205.2 
L 365.4 140.4 
L 294.48 140.4 
z
" clip-path="url(#pf62d5512f2)" style="fill: #4a4338; stroke: #4a4338; stroke-linejoin: miter"/>
   </g>
   <g id="patch_47">
    <path d="M 365.4 205.2 
L 436.32 205.2 
L 436.32 140.4 
L 365.4 140.4 
z
" clip-path="url(#pf62d5512f2)" style="fill: #483931; stroke: #483931; stroke-linejoin: miter"/>
   </g>
   <g id="patch_48">
    <path d="M 436.32 205.2 
L 507.24 205.2 
L 507.24 140.4 
L 436.32 140.4 
z
" clip-path="url(#pf62d5512f2)" style="fill: #76614f; stroke: #76614f; stroke-linejoin: miter"/>
   </g>
   <g id="patch_49">
    <path d="M 507.24 205.2 
L 578.16 205.2 
L 578.16 140.4 
L 507.24 140.4 
z
" clip-path="url(#pf62d5512f2)" style="fill: #b4a38e; stroke: #b4a38e; stroke-linejoin: miter"/>
   </g>
   <g id="patch_50">
    <path d="M 578.16 205.2 
L 649.08 205.2 
L 649.08 140.4 
L 578.16 140.4 
z
" clip-path="url(#pf62d5512f2)" style="fill: #433531; stroke: #433531; stroke-linejoin: miter"/>
   </g>
   <g id="patch_51">
    <path d="M 649.08 205.2 
L 720 205.2 
L 720 140.4 
L 649.08 140.4 
z
" clip-path="url(#pf62d5512f2)" style="fill: #b3967d; stroke: #b3967d; stroke-linejoin: miter"/>
   </g>
   <g id="patch_52">
    <path d="M 720 205.2 
L 790.92 205.2 
L 790.92 140.4 
L 720 140.4 
z
" clip-path="url(#pf62d5512f2)" style="fill: #b3967d; stroke: #b3967d; stroke-linejoin: miter"/>
   </g>
   <g id="patch_53">
    <path d="M 790.92 205.2 
L 861.84 205.2 
L 861.84 140.4 
L 790.92 140.4 
z
" clip-path="url(#pf62d5512f2)" style="fill: #b3967d; stroke: #b3967d; stroke-linejoin: miter"/>
   </g>
  </g>
 </g>
 <defs>
  <clipPath id="pf62d5512f2">
   <rect x="10.8" y="10.8" width="1418.4" height="194.4"/>
  </clipPath>
 </defs>
</svg>
