<?xml version="1.0" encoding="UTF-8"?>
<svg xmlns="http://www.w3.org/2000/svg" version="1.1" viewBox="0 0 715 203.6">
  <defs>
    <style>
      .cls-1 {
        fill: #36302c;
      }

      .cls-1, .cls-2, .cls-3, .cls-4, .cls-5, .cls-6, .cls-7, .cls-8, .cls-9, .cls-10, .cls-11, .cls-12, .cls-13, .cls-14, .cls-15, .cls-16, .cls-17, .cls-18, .cls-19, .cls-20 {
        stroke: #fff;
        stroke-width: 3px;
      }

      .cls-2 {
        fill: #a99682;
      }

      .cls-3 {
        fill: #bcb3a6;
      }

      .cls-4 {
        fill: #dbc6b5;
      }

      .cls-5 {
        fill: #37403e;
      }

      .cls-6 {
        fill: #414638;
      }

      .cls-7 {
        fill: #3a2113;
      }

      .cls-8 {
        fill: #cbc6b4;
      }

      .cls-9 {
        fill: #d1c0b3;
      }

      .cls-10 {
        fill: #4d4439;
      }

      .cls-11 {
        fill: #3f3125;
      }

      .cls-12 {
        fill: #af9e84;
      }

      .cls-13 {
        fill: #37351f;
      }

      .cls-14 {
        fill: #b9b0a3;
      }

      .cls-15 {
        fill: #ae866b;
      }

      .cls-16 {
        fill: #8f836e;
      }

      .cls-17 {
        fill: #1f1b1d;
      }

      .cls-18 {
        fill: #3a3b3a;
      }

      .cls-19 {
        fill: #ddaf9d;
      }

      .cls-20 {
        fill: #d9d1cd;
      }
    </style>
  </defs>
  <!-- Generator: Adobe Illustrator 28.7.7, SVG Export Plug-In . SVG Version: 1.2.0 Build 194)  -->
  <g>
    <g id="Layer_1">
      <path class="cls-10" d="M10.8,72h63.3V10.8H10.8v61.2Z"/>
      <path class="cls-10" d="M74.1,72h63.3V10.8h-63.3v61.2Z"/>
      <path class="cls-2" d="M137.3,72h63.3V10.8h-63.3v61.2Z"/>
      <path class="cls-10" d="M200.6,72h63.3V10.8h-63.3v61.2Z"/>
      <path class="cls-3" d="M263.8,72h63.3V10.8h-63.3v61.2Z"/>
      <path class="cls-14" d="M327.1,72h63.3V10.8h-63.3v61.2Z"/>
      <path class="cls-13" d="M390.4,72h63.3V10.8h-63.3v61.2Z"/>
      <path class="cls-4" d="M453.6,72h63.3V10.8h-63.3v61.2Z"/>
      <path class="cls-7" d="M516.9,72h63.3V10.8h-63.3v61.2Z"/>
      <path class="cls-1" d="M10.8,194.4h63.3v-61.2H10.8v61.2Z"/>
      <path class="cls-16" d="M74.1,194.4h63.3v-61.2h-63.3v61.2Z"/>
      <path class="cls-20" d="M137.3,194.4h63.3v-61.2h-63.3v61.2Z"/>
      <path class="cls-19" d="M200.6,194.4h63.3v-61.2h-63.3v61.2Z"/>
      <path class="cls-12" d="M263.8,194.4h63.3v-61.2h-63.3v61.2Z"/>
      <path class="cls-9" d="M327.1,194.4h63.3v-61.2h-63.3v61.2Z"/>
      <path class="cls-9" d="M390.4,194.4h63.3v-61.2h-63.3v61.2Z"/>
      <path class="cls-9" d="M580.1,133.2h63.3v-61.2h-63.3v61.2Z"/>
      <path class="cls-9" d="M643.4,133.2h63.3v-61.2h-63.3v61.2Z"/>
      <path class="cls-9" d="M580.1,72h63.3V10.8h-63.3v61.2Z"/>
      <path class="cls-9" d="M643.4,72h63.3V10.8h-63.3v61.2Z"/>
      <path class="cls-11" d="M10.8,133.2h63.3v-61.2H10.8v61.2Z"/>
      <path class="cls-8" d="M74.1,133.2h63.3v-61.2h-63.3v61.2Z"/>
      <path class="cls-18" d="M137.3,133.2h63.3v-61.2h-63.3v61.2Z"/>
      <path class="cls-5" d="M200.6,133.2h63.3v-61.2h-63.3v61.2Z"/>
      <path class="cls-5" d="M263.8,133.2h63.3v-61.2h-63.3v61.2Z"/>
      <path class="cls-5" d="M327.1,133.2h63.3v-61.2h-63.3v61.2Z"/>
      <path class="cls-6" d="M390.4,133.2h63.3v-61.2h-63.3v61.2Z"/>
      <path class="cls-17" d="M453.6,133.2h63.3v-61.2h-63.3v61.2Z"/>
      <path class="cls-15" d="M516.9,133.2h63.3v-61.2h-63.3v61.2Z"/>
    </g>
  </g>
</svg>