<?xml version="1.0" encoding="UTF-8"?>
<svg xmlns="http://www.w3.org/2000/svg" version="1.1" viewBox="0 0 737 704.2">
  <defs>
    <style>
      .cls-1 {
        fill: #cdc6c0;
      }

      .cls-1, .cls-2, .cls-3, .cls-4, .cls-5, .cls-6, .cls-7, .cls-8, .cls-9, .cls-10, .cls-11, .cls-12, .cls-13, .cls-14, .cls-15, .cls-16, .cls-17, .cls-18, .cls-19, .cls-20, .cls-21, .cls-22, .cls-23, .cls-24, .cls-25, .cls-26, .cls-27, .cls-28, .cls-29, .cls-30, .cls-31, .cls-32, .cls-33, .cls-34, .cls-35, .cls-36, .cls-37, .cls-38, .cls-39, .cls-40, .cls-41, .cls-42, .cls-43, .cls-44, .cls-45, .cls-46, .cls-47, .cls-48, .cls-49, .cls-50, .cls-51, .cls-52, .cls-53, .cls-54, .cls-55, .cls-56, .cls-57, .cls-58, .cls-59, .cls-60, .cls-61, .cls-62, .cls-63, .cls-64, .cls-65, .cls-66, .cls-67, .cls-68, .cls-69, .cls-70, .cls-71 {
        stroke: #fff;
        stroke-width: 3px;
      }

      .cls-2 {
        fill: #a18668;
      }

      .cls-3 {
        fill: #baada2;
      }

      .cls-4 {
        fill: #b7a89e;
      }

      .cls-5 {
        fill: #20261f;
      }

      .cls-6 {
        fill: #cec7ba;
      }

      .cls-7 {
        fill: #7c685b;
      }

      .cls-8 {
        fill: #b2aaa1;
      }

      .cls-9 {
        fill: #a89781;
      }

      .cls-10 {
        fill: #ccbcae;
      }

      .cls-11 {
        fill: #d4b7b9;
      }

      .cls-12 {
        fill: #e19766;
      }

      .cls-13 {
        fill: #b3a99a;
      }

      .cls-14 {
        fill: #c8c2bc;
      }

      .cls-15 {
        fill: #825e3f;
      }

      .cls-16 {
        fill: #d9d1c2;
      }

      .cls-17 {
        fill: #c4b7b7;
      }

      .cls-18 {
        fill: #c2baaf;
      }

      .cls-19 {
        fill: #353027;
      }

      .cls-20 {
        fill: #8a6450;
      }

      .cls-21 {
        fill: #383430;
      }

      .cls-22 {
        fill: #373933;
      }

      .cls-23 {
        fill: #d9cdcb;
      }

      .cls-24 {
        fill: #3a3735;
      }

      .cls-25 {
        fill: #bab1aa;
      }

      .cls-26 {
        fill: #c8beb6;
      }

      .cls-27 {
        fill: #2e3457;
      }

      .cls-28 {
        fill: #c3ab89;
      }

      .cls-29 {
        fill: #a19984;
      }

      .cls-30 {
        fill: #ae9689;
      }

      .cls-31 {
        fill: #cbc3b6;
      }

      .cls-32 {
        fill: #333733;
      }

      .cls-33 {
        fill: #84c4ca;
      }

      .cls-34 {
        fill: #bdbab3;
      }

      .cls-35 {
        fill: #b5b0a6;
      }

      .cls-36 {
        fill: #987c64;
      }

      .cls-37 {
        fill: #171617;
      }

      .cls-38 {
        fill: #86735f;
      }

      .cls-39 {
        fill: #b0a397;
      }

      .cls-40 {
        fill: #d0bdad;
      }

      .cls-41 {
        fill: #c7bfb8;
      }

      .cls-42 {
        fill: #cfbdb5;
      }

      .cls-43 {
        fill: #3d303a;
      }

      .cls-44 {
        fill: #bdb3a6;
      }

      .cls-45 {
        fill: #c2bbac;
      }

      .cls-46 {
        fill: #cbc1b7;
      }

      .cls-47 {
        fill: #bcb6a8;
      }

      .cls-48 {
        fill: #dcd5cd;
      }

      .cls-49 {
        fill: #252d33;
      }

      .cls-50 {
        fill: #ab9e90;
      }

      .cls-51 {
        fill: #31394f;
      }

      .cls-52 {
        fill: #393d2f;
      }

      .cls-53 {
        fill: #b9a084;
      }

      .cls-54 {
        fill: #3a342f;
      }

      .cls-55 {
        fill: #b09a81;
      }

      .cls-56 {
        fill: #393c2c;
      }

      .cls-57 {
        fill: #303031;
      }

      .cls-58 {
        fill: #dbd7d0;
      }

      .cls-59 {
        fill: #765e51;
      }

      .cls-60 {
        fill: #3c3b31;
      }

      .cls-61 {
        fill: #cbb3a1;
      }

      .cls-62 {
        fill: #bcb6ab;
      }

      .cls-63 {
        fill: #251c16;
      }

      .cls-64 {
        fill: #b5ab9d;
      }

      .cls-65 {
        fill: #ab8b81;
      }

      .cls-66 {
        fill: #46413c;
      }

      .cls-67 {
        fill: #bdb0a2;
      }

      .cls-68 {
        fill: #8ab6b3;
      }

      .cls-69 {
        fill: #b9b5aa;
      }

      .cls-70 {
        fill: #b6a89b;
      }

      .cls-71 {
        fill: #ac9e8e;
      }
    </style>
  </defs>
  <!-- Generator: Adobe Illustrator 28.7.7, SVG Export Plug-In . SVG Version: 1.2.0 Build 194)  -->
  <g>
    <g id="Layer_1">
      <path class="cls-40" d="M10.8,78.5h70.9V10.8H10.8v67.7Z"/>
      <path class="cls-58" d="M81.7,78.5h70.9V10.8h-70.9v67.7Z"/>
      <path class="cls-58" d="M152.6,78.5h70.9V10.8h-70.9v67.7Z"/>
      <path class="cls-26" d="M223.6,78.5h70.9V10.8h-70.9v67.7Z"/>
      <path class="cls-47" d="M294.5,78.5h70.9V10.8h-70.9v67.7Z"/>
      <path class="cls-64" d="M365.4,78.5h70.9V10.8h-70.9v67.7Z"/>
      <path class="cls-46" d="M436.3,78.5h70.9V10.8h-70.9v67.7Z"/>
      <path class="cls-50" d="M507.2,78.5h70.9V10.8h-70.9v67.7Z"/>
      <path class="cls-5" d="M578.2,78.5h70.9V10.8h-70.9v67.7Z"/>
      <path class="cls-5" d="M649.1,78.5h70.9V10.8h-70.9v67.7Z"/>
      <path class="cls-5" d="M10.8,416.9h70.9v-67.7H10.8v67.7Z"/>
      <path class="cls-5" d="M81.7,416.9h70.9v-67.7h-70.9v67.7Z"/>
      <path class="cls-4" d="M152.6,416.9h70.9v-67.7h-70.9v67.7Z"/>
      <path class="cls-70" d="M223.6,416.9h70.9v-67.7h-70.9v67.7Z"/>
      <path class="cls-6" d="M294.5,416.9h70.9v-67.7h-70.9v67.7Z"/>
      <path class="cls-48" d="M365.4,416.9h70.9v-67.7h-70.9v67.7Z"/>
      <path class="cls-15" d="M436.3,416.9h70.9v-67.7h-70.9v67.7Z"/>
      <path class="cls-35" d="M507.2,416.9h70.9v-67.7h-70.9v67.7Z"/>
      <path class="cls-42" d="M578.2,416.9h70.9v-67.7h-70.9v67.7Z"/>
      <path class="cls-43" d="M649.1,416.9h70.9v-67.7h-70.9v67.7Z"/>
      <path class="cls-43" d="M10.8,146.2h70.9v-67.7H10.8v67.7Z"/>
      <path class="cls-43" d="M81.7,146.2h70.9v-67.7h-70.9v67.7Z"/>
      <path class="cls-43" d="M152.6,146.2h70.9v-67.7h-70.9v67.7Z"/>
      <path class="cls-43" d="M223.6,146.2h70.9v-67.7h-70.9v67.7Z"/>
      <path class="cls-43" d="M294.5,146.2h70.9v-67.7h-70.9v67.7Z"/>
      <path class="cls-23" d="M365.4,146.2h70.9v-67.7h-70.9v67.7Z"/>
      <path class="cls-7" d="M436.3,146.2h70.9v-67.7h-70.9v67.7Z"/>
      <path class="cls-57" d="M507.2,146.2h70.9v-67.7h-70.9v67.7Z"/>
      <path class="cls-24" d="M578.2,146.2h70.9v-67.7h-70.9v67.7Z"/>
      <path class="cls-44" d="M649.1,146.2h70.9v-67.7h-70.9v67.7Z"/>
      <path class="cls-13" d="M10.8,484.6h70.9v-67.7H10.8v67.7Z"/>
      <path class="cls-13" d="M81.7,484.6h70.9v-67.7h-70.9v67.7Z"/>
      <path class="cls-13" d="M152.6,484.6h70.9v-67.7h-70.9v67.7Z"/>
      <path class="cls-31" d="M223.6,484.6h70.9v-67.7h-70.9v67.7Z"/>
      <path class="cls-65" d="M294.5,484.6h70.9v-67.7h-70.9v67.7Z"/>
      <path class="cls-67" d="M365.4,484.6h70.9v-67.7h-70.9v67.7Z"/>
      <path class="cls-67" d="M436.3,484.6h70.9v-67.7h-70.9v67.7Z"/>
      <path class="cls-9" d="M507.2,484.6h70.9v-67.7h-70.9v67.7Z"/>
      <path class="cls-2" d="M578.2,484.6h70.9v-67.7h-70.9v67.7Z"/>
      <path class="cls-20" d="M649.1,484.6h70.9v-67.7h-70.9v67.7Z"/>
      <path class="cls-36" d="M10.8,213.8h70.9v-67.7H10.8v67.7Z"/>
      <path class="cls-21" d="M81.7,213.8h70.9v-67.7h-70.9v67.7Z"/>
      <path class="cls-27" d="M152.6,213.8h70.9v-67.7h-70.9v67.7Z"/>
      <path class="cls-60" d="M223.6,213.8h70.9v-67.7h-70.9v67.7Z"/>
      <path class="cls-14" d="M294.5,213.8h70.9v-67.7h-70.9v67.7Z"/>
      <path class="cls-14" d="M365.4,213.8h70.9v-67.7h-70.9v67.7Z"/>
      <path class="cls-29" d="M436.3,213.8h70.9v-67.7h-70.9v67.7Z"/>
      <path class="cls-12" d="M507.2,213.8h70.9v-67.7h-70.9v67.7Z"/>
      <path class="cls-19" d="M578.2,213.8h70.9v-67.7h-70.9v67.7Z"/>
      <path class="cls-52" d="M649.1,213.8h70.9v-67.7h-70.9v67.7Z"/>
      <path class="cls-69" d="M10.8,552.2h70.9v-67.7H10.8v67.7Z"/>
      <path class="cls-8" d="M81.7,552.2h70.9v-67.7h-70.9v67.7Z"/>
      <path class="cls-8" d="M152.6,552.2h70.9v-67.7h-70.9v67.7Z"/>
      <path class="cls-41" d="M223.6,552.2h70.9v-67.7h-70.9v67.7Z"/>
      <path class="cls-56" d="M294.5,552.2h70.9v-67.7h-70.9v67.7Z"/>
      <path class="cls-16" d="M365.4,552.2h70.9v-67.7h-70.9v67.7Z"/>
      <path class="cls-10" d="M436.3,552.2h70.9v-67.7h-70.9v67.7Z"/>
      <path class="cls-49" d="M507.2,552.2h70.9v-67.7h-70.9v67.7Z"/>
      <path class="cls-22" d="M578.2,552.2h70.9v-67.7h-70.9v67.7Z"/>
      <path class="cls-53" d="M649.1,552.2h70.9v-67.7h-70.9v67.7Z"/>
      <path class="cls-53" d="M10.8,281.5h70.9v-67.7H10.8v67.7Z"/>
      <path class="cls-53" d="M81.7,281.5h70.9v-67.7h-70.9v67.7Z"/>
      <path class="cls-62" d="M152.6,281.5h70.9v-67.7h-70.9v67.7Z"/>
      <path class="cls-38" d="M223.6,281.5h70.9v-67.7h-70.9v67.7Z"/>
      <path class="cls-3" d="M294.5,281.5h70.9v-67.7h-70.9v67.7Z"/>
      <path class="cls-45" d="M365.4,281.5h70.9v-67.7h-70.9v67.7Z"/>
      <path class="cls-66" d="M436.3,281.5h70.9v-67.7h-70.9v67.7Z"/>
      <path class="cls-66" d="M507.2,281.5h70.9v-67.7h-70.9v67.7Z"/>
      <path class="cls-66" d="M578.2,281.5h70.9v-67.7h-70.9v67.7Z"/>
      <path class="cls-71" d="M649.1,281.5h70.9v-67.7h-70.9v67.7Z"/>
      <path class="cls-34" d="M10.8,619.9h70.9v-67.7H10.8v67.7Z"/>
      <path class="cls-34" d="M81.7,619.9h70.9v-67.7h-70.9v67.7Z"/>
      <path class="cls-34" d="M152.6,619.9h70.9v-67.7h-70.9v67.7Z"/>
      <path class="cls-34" d="M223.6,619.9h70.9v-67.7h-70.9v67.7Z"/>
      <path class="cls-34" d="M294.5,619.9h70.9v-67.7h-70.9v67.7Z"/>
      <path class="cls-63" d="M365.4,619.9h70.9v-67.7h-70.9v67.7Z"/>
      <path class="cls-59" d="M436.3,619.9h70.9v-67.7h-70.9v67.7Z"/>
      <path class="cls-37" d="M507.2,619.9h70.9v-67.7h-70.9v67.7Z"/>
      <path class="cls-68" d="M578.2,619.9h70.9v-67.7h-70.9v67.7Z"/>
      <path class="cls-39" d="M649.1,619.9h70.9v-67.7h-70.9v67.7Z"/>
      <path class="cls-1" d="M10.8,349.2h70.9v-67.7H10.8v67.7Z"/>
      <path class="cls-11" d="M81.7,349.2h70.9v-67.7h-70.9v67.7Z"/>
      <path class="cls-33" d="M152.6,349.2h70.9v-67.7h-70.9v67.7Z"/>
      <path class="cls-17" d="M223.6,349.2h70.9v-67.7h-70.9v67.7Z"/>
      <path class="cls-55" d="M294.5,349.2h70.9v-67.7h-70.9v67.7Z"/>
      <path class="cls-55" d="M365.4,349.2h70.9v-67.7h-70.9v67.7Z"/>
      <path class="cls-51" d="M436.3,349.2h70.9v-67.7h-70.9v67.7Z"/>
      <path class="cls-30" d="M507.2,349.2h70.9v-67.7h-70.9v67.7Z"/>
      <path class="cls-28" d="M578.2,349.2h70.9v-67.7h-70.9v67.7Z"/>
      <path class="cls-61" d="M649.1,349.2h70.9v-67.7h-70.9v67.7Z"/>
      <path class="cls-32" d="M10.8,687.6h70.9v-67.7H10.8v67.7Z"/>
      <path class="cls-18" d="M81.7,687.6h70.9v-67.7h-70.9v67.7Z"/>
      <path class="cls-54" d="M152.6,687.6h70.9v-67.7h-70.9v67.7Z"/>
      <path class="cls-25" d="M223.6,687.6h70.9v-67.7h-70.9v67.7Z"/>
      <path class="cls-23" d="M294.5,687.6h70.9v-67.7h-70.9v67.7Z"/>
    </g>
  </g>
</svg>