<?xml version="1.0" encoding="utf-8" standalone="no"?>
<!DOCTYPE svg PUBLIC "-//W3C//DTD SVG 1.1//EN"
  "http://www.w3.org/Graphics/SVG/1.1/DTD/svg11.dtd">
<svg xmlns:xlink="http://www.w3.org/1999/xlink" width="1440pt" height="432pt" viewBox="0 0 1440 432" xmlns="http://www.w3.org/2000/svg" version="1.1">
 <metadata>
  <rdf:RDF xmlns:dc="http://purl.org/dc/elements/1.1/" xmlns:cc="http://creativecommons.org/ns#" xmlns:rdf="http://www.w3.org/1999/02/22-rdf-syntax-ns#">
   <cc:Work>
    <dc:type rdf:resource="http://purl.org/dc/dcmitype/StillImage"/>
    <dc:date>2025-05-04T17:21:04.541307</dc:date>
    <dc:format>image/svg+xml</dc:format>
    <dc:creator>
     <cc:Agent>
      <dc:title>Matplotlib v3.9.2, https://matplotlib.org/</dc:title>
     </cc:Agent>
    </dc:creator>
   </cc:Work>
  </rdf:RDF>
 </metadata>
 <defs>
  <style type="text/css">*{stroke-linejoin: round; stroke-linecap: butt}</style>
 </defs>
 <g id="figure_1">
  <g id="patch_1">
   <path d="M 0 432 
L 1440 432 
L 1440 0 
L 0 0 
z
" style="fill: #ffffff"/>
  </g>
  <g id="axes_1">
   <g id="patch_2">
    <path d="M 10.8 79.2 
L 81.72 79.2 
L 81.72 10.8 
L 10.8 10.8 
z
" clip-path="url(#pafc8d93519)" style="fill: #cfcec8; stroke: #cfcec8; stroke-linejoin: miter"/>
   </g>
   <g id="patch_3">
    <path d="M 81.72 79.2 
L 152.64 79.2 
L 152.64 10.8 
L 81.72 10.8 
z
" clip-path="url(#pafc8d93519)" style="fill: #cdbbaf; stroke: #cdbbaf; stroke-linejoin: miter"/>
   </g>
   <g id="patch_4">
    <path d="M 152.64 79.2 
L 223.56 79.2 
L 223.56 10.8 
L 152.64 10.8 
z
" clip-path="url(#pafc8d93519)" style="fill: #4d5032; stroke: #4d5032; stroke-linejoin: miter"/>
   </g>
   <g id="patch_5">
    <path d="M 223.56 79.2 
L 294.48 79.2 
L 294.48 10.8 
L 223.56 10.8 
z
" clip-path="url(#pafc8d93519)" style="fill: #4d5032; stroke: #4d5032; stroke-linejoin: miter"/>
   </g>
   <g id="patch_6">
    <path d="M 294.48 79.2 
L 365.4 79.2 
L 365.4 10.8 
L 294.48 10.8 
z
" clip-path="url(#pafc8d93519)" style="fill: #4d5032; stroke: #4d5032; stroke-linejoin: miter"/>
   </g>
   <g id="patch_7">
    <path d="M 365.4 79.2 
L 436.32 79.2 
L 436.32 10.8 
L 365.4 10.8 
z
" clip-path="url(#pafc8d93519)" style="fill: #4d5032; stroke: #4d5032; stroke-linejoin: miter"/>
   </g>
   <g id="patch_8">
    <path d="M 436.32 79.2 
L 507.24 79.2 
L 507.24 10.8 
L 436.32 10.8 
z
" clip-path="url(#pafc8d93519)" style="fill: #75583e; stroke: #75583e; stroke-linejoin: miter"/>
   </g>
   <g id="patch_9">
    <path d="M 507.24 79.2 
L 578.16 79.2 
L 578.16 10.8 
L 507.24 10.8 
z
" clip-path="url(#pafc8d93519)" style="fill: #302b26; stroke: #302b26; stroke-linejoin: miter"/>
   </g>
   <g id="patch_10">
    <path d="M 578.16 79.2 
L 649.08 79.2 
L 649.08 10.8 
L 578.16 10.8 
z
" clip-path="url(#pafc8d93519)" style="fill: #302b26; stroke: #302b26; stroke-linejoin: miter"/>
   </g>
   <g id="patch_11">
    <path d="M 649.08 79.2 
L 720 79.2 
L 720 10.8 
L 649.08 10.8 
z
" clip-path="url(#pafc8d93519)" style="fill: #d7d1c8; stroke: #d7d1c8; stroke-linejoin: miter"/>
   </g>
   <g id="patch_12">
    <path d="M 720 79.2 
L 790.92 79.2 
L 790.92 10.8 
L 720 10.8 
z
" clip-path="url(#pafc8d93519)" style="fill: #232223; stroke: #232223; stroke-linejoin: miter"/>
   </g>
   <g id="patch_13">
    <path d="M 790.92 79.2 
L 861.84 79.2 
L 861.84 10.8 
L 790.92 10.8 
z
" clip-path="url(#pafc8d93519)" style="fill: #cacbc8; stroke: #cacbc8; stroke-linejoin: miter"/>
   </g>
   <g id="patch_14">
    <path d="M 861.84 79.2 
L 932.76 79.2 
L 932.76 10.8 
L 861.84 10.8 
z
" clip-path="url(#pafc8d93519)" style="fill: #c3b3a7; stroke: #c3b3a7; stroke-linejoin: miter"/>
   </g>
   <g id="patch_15">
    <path d="M 932.76 79.2 
L 1003.68 79.2 
L 1003.68 10.8 
L 932.76 10.8 
z
" clip-path="url(#pafc8d93519)" style="fill: #978c7f; stroke: #978c7f; stroke-linejoin: miter"/>
   </g>
   <g id="patch_16">
    <path d="M 1003.68 79.2 
L 1074.6 79.2 
L 1074.6 10.8 
L 1003.68 10.8 
z
" clip-path="url(#pafc8d93519)" style="fill: #34312e; stroke: #34312e; stroke-linejoin: miter"/>
   </g>
   <g id="patch_17">
    <path d="M 1074.6 79.2 
L 1145.52 79.2 
L 1145.52 10.8 
L 1074.6 10.8 
z
" clip-path="url(#pafc8d93519)" style="fill: #7e7267; stroke: #7e7267; stroke-linejoin: miter"/>
   </g>
   <g id="patch_18">
    <path d="M 1145.52 79.2 
L 1216.44 79.2 
L 1216.44 10.8 
L 1145.52 10.8 
z
" clip-path="url(#pafc8d93519)" style="fill: #7e7267; stroke: #7e7267; stroke-linejoin: miter"/>
   </g>
   <g id="patch_19">
    <path d="M 1216.44 79.2 
L 1287.36 79.2 
L 1287.36 10.8 
L 1216.44 10.8 
z
" clip-path="url(#pafc8d93519)" style="fill: #c7c2bc; stroke: #c7c2bc; stroke-linejoin: miter"/>
   </g>
   <g id="patch_20">
    <path d="M 1287.36 79.2 
L 1358.28 79.2 
L 1358.28 10.8 
L 1287.36 10.8 
z
" clip-path="url(#pafc8d93519)" style="fill: #7e7267; stroke: #7e7267; stroke-linejoin: miter"/>
   </g>
   <g id="patch_21">
    <path d="M 1358.28 79.2 
L 1429.2 79.2 
L 1429.2 10.8 
L 1358.28 10.8 
z
" clip-path="url(#pafc8d93519)" style="fill: #7e7267; stroke: #7e7267; stroke-linejoin: miter"/>
   </g>
   <g id="patch_22">
    <path d="M 10.8 147.6 
L 81.72 147.6 
L 81.72 79.2 
L 10.8 79.2 
z
" clip-path="url(#pafc8d93519)" style="fill: #7e7267; stroke: #7e7267; stroke-linejoin: miter"/>
   </g>
   <g id="patch_23">
    <path d="M 81.72 147.6 
L 152.64 147.6 
L 152.64 79.2 
L 81.72 79.2 
z
" clip-path="url(#pafc8d93519)" style="fill: #b19e87; stroke: #b19e87; stroke-linejoin: miter"/>
   </g>
   <g id="patch_24">
    <path d="M 152.64 147.6 
L 223.56 147.6 
L 223.56 79.2 
L 152.64 79.2 
z
" clip-path="url(#pafc8d93519)" style="fill: #b7a98d; stroke: #b7a98d; stroke-linejoin: miter"/>
   </g>
   <g id="patch_25">
    <path d="M 223.56 147.6 
L 294.48 147.6 
L 294.48 79.2 
L 223.56 79.2 
z
" clip-path="url(#pafc8d93519)" style="fill: #c1b3a6; stroke: #c1b3a6; stroke-linejoin: miter"/>
   </g>
   <g id="patch_26">
    <path d="M 294.48 147.6 
L 365.4 147.6 
L 365.4 79.2 
L 294.48 79.2 
z
" clip-path="url(#pafc8d93519)" style="fill: #c2c3c6; stroke: #c2c3c6; stroke-linejoin: miter"/>
   </g>
   <g id="patch_27">
    <path d="M 365.4 147.6 
L 436.32 147.6 
L 436.32 79.2 
L 365.4 79.2 
z
" clip-path="url(#pafc8d93519)" style="fill: #cbc6c3; stroke: #cbc6c3; stroke-linejoin: miter"/>
   </g>
   <g id="patch_28">
    <path d="M 436.32 147.6 
L 507.24 147.6 
L 507.24 79.2 
L 436.32 79.2 
z
" clip-path="url(#pafc8d93519)" style="fill: #7a6c63; stroke: #7a6c63; stroke-linejoin: miter"/>
   </g>
   <g id="patch_29">
    <path d="M 507.24 147.6 
L 578.16 147.6 
L 578.16 79.2 
L 507.24 79.2 
z
" clip-path="url(#pafc8d93519)" style="fill: #dfd6ca; stroke: #dfd6ca; stroke-linejoin: miter"/>
   </g>
   <g id="patch_30">
    <path d="M 578.16 147.6 
L 649.08 147.6 
L 649.08 79.2 
L 578.16 79.2 
z
" clip-path="url(#pafc8d93519)" style="fill: #26251e; stroke: #26251e; stroke-linejoin: miter"/>
   </g>
   <g id="patch_31">
    <path d="M 649.08 147.6 
L 720 147.6 
L 720 79.2 
L 649.08 79.2 
z
" clip-path="url(#pafc8d93519)" style="fill: #c0b49f; stroke: #c0b49f; stroke-linejoin: miter"/>
   </g>
   <g id="patch_32">
    <path d="M 720 147.6 
L 790.92 147.6 
L 790.92 79.2 
L 720 79.2 
z
" clip-path="url(#pafc8d93519)" style="fill: #c8c3c3; stroke: #c8c3c3; stroke-linejoin: miter"/>
   </g>
   <g id="patch_33">
    <path d="M 790.92 147.6 
L 861.84 147.6 
L 861.84 79.2 
L 790.92 79.2 
z
" clip-path="url(#pafc8d93519)" style="fill: #474441; stroke: #474441; stroke-linejoin: miter"/>
   </g>
   <g id="patch_34">
    <path d="M 861.84 147.6 
L 932.76 147.6 
L 932.76 79.2 
L 861.84 79.2 
z
" clip-path="url(#pafc8d93519)" style="fill: #a59684; stroke: #a59684; stroke-linejoin: miter"/>
   </g>
   <g id="patch_35">
    <path d="M 932.76 147.6 
L 1003.68 147.6 
L 1003.68 79.2 
L 932.76 79.2 
z
" clip-path="url(#pafc8d93519)" style="fill: #9e998b; stroke: #9e998b; stroke-linejoin: miter"/>
   </g>
   <g id="patch_36">
    <path d="M 1003.68 147.6 
L 1074.6 147.6 
L 1074.6 79.2 
L 1003.68 79.2 
z
" clip-path="url(#pafc8d93519)" style="fill: #918a86; stroke: #918a86; stroke-linejoin: miter"/>
   </g>
   <g id="patch_37">
    <path d="M 1074.6 147.6 
L 1145.52 147.6 
L 1145.52 79.2 
L 1074.6 79.2 
z
" clip-path="url(#pafc8d93519)" style="fill: #c6b4b1; stroke: #c6b4b1; stroke-linejoin: miter"/>
   </g>
   <g id="patch_38">
    <path d="M 1145.52 147.6 
L 1216.44 147.6 
L 1216.44 79.2 
L 1145.52 79.2 
z
" clip-path="url(#pafc8d93519)" style="fill: #d1c6b9; stroke: #d1c6b9; stroke-linejoin: miter"/>
   </g>
   <g id="patch_39">
    <path d="M 1216.44 147.6 
L 1287.36 147.6 
L 1287.36 79.2 
L 1216.44 79.2 
z
" clip-path="url(#pafc8d93519)" style="fill: #c5bcb0; stroke: #c5bcb0; stroke-linejoin: miter"/>
   </g>
   <g id="patch_40">
    <path d="M 1287.36 147.6 
L 1358.28 147.6 
L 1358.28 79.2 
L 1287.36 79.2 
z
" clip-path="url(#pafc8d93519)" style="fill: #ccb7ac; stroke: #ccb7ac; stroke-linejoin: miter"/>
   </g>
   <g id="patch_41">
    <path d="M 1358.28 147.6 
L 1429.2 147.6 
L 1429.2 79.2 
L 1358.28 79.2 
z
" clip-path="url(#pafc8d93519)" style="fill: #123062; stroke: #123062; stroke-linejoin: miter"/>
   </g>
   <g id="patch_42">
    <path d="M 10.8 216 
L 81.72 216 
L 81.72 147.6 
L 10.8 147.6 
z
" clip-path="url(#pafc8d93519)" style="fill: #d0beb9; stroke: #d0beb9; stroke-linejoin: miter"/>
   </g>
   <g id="patch_43">
    <path d="M 81.72 216 
L 152.64 216 
L 152.64 147.6 
L 81.72 147.6 
z
" clip-path="url(#pafc8d93519)" style="fill: #d0beb9; stroke: #d0beb9; stroke-linejoin: miter"/>
   </g>
   <g id="patch_44">
    <path d="M 152.64 216 
L 223.56 216 
L 223.56 147.6 
L 152.64 147.6 
z
" clip-path="url(#pafc8d93519)" style="fill: #c1b8ae; stroke: #c1b8ae; stroke-linejoin: miter"/>
   </g>
   <g id="patch_45">
    <path d="M 223.56 216 
L 294.48 216 
L 294.48 147.6 
L 223.56 147.6 
z
" clip-path="url(#pafc8d93519)" style="fill: #363838; stroke: #363838; stroke-linejoin: miter"/>
   </g>
   <g id="patch_46">
    <path d="M 294.48 216 
L 365.4 216 
L 365.4 147.6 
L 294.48 147.6 
z
" clip-path="url(#pafc8d93519)" style="fill: #ccc1b5; stroke: #ccc1b5; stroke-linejoin: miter"/>
   </g>
   <g id="patch_47">
    <path d="M 365.4 216 
L 436.32 216 
L 436.32 147.6 
L 365.4 147.6 
z
" clip-path="url(#pafc8d93519)" style="fill: #a99a8b; stroke: #a99a8b; stroke-linejoin: miter"/>
   </g>
   <g id="patch_48">
    <path d="M 436.32 216 
L 507.24 216 
L 507.24 147.6 
L 436.32 147.6 
z
" clip-path="url(#pafc8d93519)" style="fill: #c5bdb9; stroke: #c5bdb9; stroke-linejoin: miter"/>
   </g>
   <g id="patch_49">
    <path d="M 507.24 216 
L 578.16 216 
L 578.16 147.6 
L 507.24 147.6 
z
" clip-path="url(#pafc8d93519)" style="fill: #433745; stroke: #433745; stroke-linejoin: miter"/>
   </g>
   <g id="patch_50">
    <path d="M 578.16 216 
L 649.08 216 
L 649.08 147.6 
L 578.16 147.6 
z
" clip-path="url(#pafc8d93519)" style="fill: #af9782; stroke: #af9782; stroke-linejoin: miter"/>
   </g>
   <g id="patch_51">
    <path d="M 649.08 216 
L 720 216 
L 720 147.6 
L 649.08 147.6 
z
" clip-path="url(#pafc8d93519)" style="fill: #cec8bf; stroke: #cec8bf; stroke-linejoin: miter"/>
   </g>
   <g id="patch_52">
    <path d="M 720 216 
L 790.92 216 
L 790.92 147.6 
L 720 147.6 
z
" clip-path="url(#pafc8d93519)" style="fill: #cec8bf; stroke: #cec8bf; stroke-linejoin: miter"/>
   </g>
   <g id="patch_53">
    <path d="M 790.92 216 
L 861.84 216 
L 861.84 147.6 
L 790.92 147.6 
z
" clip-path="url(#pafc8d93519)" style="fill: #cec8bf; stroke: #cec8bf; stroke-linejoin: miter"/>
   </g>
   <g id="patch_54">
    <path d="M 861.84 216 
L 932.76 216 
L 932.76 147.6 
L 861.84 147.6 
z
" clip-path="url(#pafc8d93519)" style="fill: #cec8bf; stroke: #cec8bf; stroke-linejoin: miter"/>
   </g>
   <g id="patch_55">
    <path d="M 932.76 216 
L 1003.68 216 
L 1003.68 147.6 
L 932.76 147.6 
z
" clip-path="url(#pafc8d93519)" style="fill: #cec8bf; stroke: #cec8bf; stroke-linejoin: miter"/>
   </g>
   <g id="patch_56">
    <path d="M 1003.68 216 
L 1074.6 216 
L 1074.6 147.6 
L 1003.68 147.6 
z
" clip-path="url(#pafc8d93519)" style="fill: #c8c0b9; stroke: #c8c0b9; stroke-linejoin: miter"/>
   </g>
   <g id="patch_57">
    <path d="M 1074.6 216 
L 1145.52 216 
L 1145.52 147.6 
L 1074.6 147.6 
z
" clip-path="url(#pafc8d93519)" style="fill: #cec8bf; stroke: #cec8bf; stroke-linejoin: miter"/>
   </g>
   <g id="patch_58">
    <path d="M 1145.52 216 
L 1216.44 216 
L 1216.44 147.6 
L 1145.52 147.6 
z
" clip-path="url(#pafc8d93519)" style="fill: #cec8bf; stroke: #cec8bf; stroke-linejoin: miter"/>
   </g>
   <g id="patch_59">
    <path d="M 1216.44 216 
L 1287.36 216 
L 1287.36 147.6 
L 1216.44 147.6 
z
" clip-path="url(#pafc8d93519)" style="fill: #cec8bf; stroke: #cec8bf; stroke-linejoin: miter"/>
   </g>
   <g id="patch_60">
    <path d="M 1287.36 216 
L 1358.28 216 
L 1358.28 147.6 
L 1287.36 147.6 
z
" clip-path="url(#pafc8d93519)" style="fill: #cec8bf; stroke: #cec8bf; stroke-linejoin: miter"/>
   </g>
   <g id="patch_61">
    <path d="M 1358.28 216 
L 1429.2 216 
L 1429.2 147.6 
L 1358.28 147.6 
z
" clip-path="url(#pafc8d93519)" style="fill: #cec8bf; stroke: #cec8bf; stroke-linejoin: miter"/>
   </g>
   <g id="patch_62">
    <path d="M 10.8 284.4 
L 81.72 284.4 
L 81.72 216 
L 10.8 216 
z
" clip-path="url(#pafc8d93519)" style="fill: #c3bab0; stroke: #c3bab0; stroke-linejoin: miter"/>
   </g>
   <g id="patch_63">
    <path d="M 81.72 284.4 
L 152.64 284.4 
L 152.64 216 
L 81.72 216 
z
" clip-path="url(#pafc8d93519)" style="fill: #836459; stroke: #836459; stroke-linejoin: miter"/>
   </g>
   <g id="patch_64">
    <path d="M 152.64 284.4 
L 223.56 284.4 
L 223.56 216 
L 152.64 216 
z
" clip-path="url(#pafc8d93519)" style="fill: #a2917e; stroke: #a2917e; stroke-linejoin: miter"/>
   </g>
   <g id="patch_65">
    <path d="M 223.56 284.4 
L 294.48 284.4 
L 294.48 216 
L 223.56 216 
z
" clip-path="url(#pafc8d93519)" style="fill: #303430; stroke: #303430; stroke-linejoin: miter"/>
   </g>
   <g id="patch_66">
    <path d="M 294.48 284.4 
L 365.4 284.4 
L 365.4 216 
L 294.48 216 
z
" clip-path="url(#pafc8d93519)" style="fill: #323634; stroke: #323634; stroke-linejoin: miter"/>
   </g>
   <g id="patch_67">
    <path d="M 365.4 284.4 
L 436.32 284.4 
L 436.32 216 
L 365.4 216 
z
" clip-path="url(#pafc8d93519)" style="fill: #323634; stroke: #323634; stroke-linejoin: miter"/>
   </g>
   <g id="patch_68">
    <path d="M 436.32 284.4 
L 507.24 284.4 
L 507.24 216 
L 436.32 216 
z
" clip-path="url(#pafc8d93519)" style="fill: #d7d1c9; stroke: #d7d1c9; stroke-linejoin: miter"/>
   </g>
   <g id="patch_69">
    <path d="M 507.24 284.4 
L 578.16 284.4 
L 578.16 216 
L 507.24 216 
z
" clip-path="url(#pafc8d93519)" style="fill: #c2b5a2; stroke: #c2b5a2; stroke-linejoin: miter"/>
   </g>
   <g id="patch_70">
    <path d="M 578.16 284.4 
L 649.08 284.4 
L 649.08 216 
L 578.16 216 
z
" clip-path="url(#pafc8d93519)" style="fill: #bc9c7f; stroke: #bc9c7f; stroke-linejoin: miter"/>
   </g>
   <g id="patch_71">
    <path d="M 649.08 284.4 
L 720 284.4 
L 720 216 
L 649.08 216 
z
" clip-path="url(#pafc8d93519)" style="fill: #ad967d; stroke: #ad967d; stroke-linejoin: miter"/>
   </g>
   <g id="patch_72">
    <path d="M 720 284.4 
L 790.92 284.4 
L 790.92 216 
L 720 216 
z
" clip-path="url(#pafc8d93519)" style="fill: #4d4a49; stroke: #4d4a49; stroke-linejoin: miter"/>
   </g>
   <g id="patch_73">
    <path d="M 790.92 284.4 
L 861.84 284.4 
L 861.84 216 
L 790.92 216 
z
" clip-path="url(#pafc8d93519)" style="fill: #bc9c7f; stroke: #bc9c7f; stroke-linejoin: miter"/>
   </g>
   <g id="patch_74">
    <path d="M 861.84 284.4 
L 932.76 284.4 
L 932.76 216 
L 861.84 216 
z
" clip-path="url(#pafc8d93519)" style="fill: #9e7652; stroke: #9e7652; stroke-linejoin: miter"/>
   </g>
   <g id="patch_75">
    <path d="M 932.76 284.4 
L 1003.68 284.4 
L 1003.68 216 
L 932.76 216 
z
" clip-path="url(#pafc8d93519)" style="fill: #9e7652; stroke: #9e7652; stroke-linejoin: miter"/>
   </g>
   <g id="patch_76">
    <path d="M 1003.68 284.4 
L 1074.6 284.4 
L 1074.6 216 
L 1003.68 216 
z
" clip-path="url(#pafc8d93519)" style="fill: #b39470; stroke: #b39470; stroke-linejoin: miter"/>
   </g>
   <g id="patch_77">
    <path d="M 1074.6 284.4 
L 1145.52 284.4 
L 1145.52 216 
L 1074.6 216 
z
" clip-path="url(#pafc8d93519)" style="fill: #845e40; stroke: #845e40; stroke-linejoin: miter"/>
   </g>
   <g id="patch_78">
    <path d="M 1145.52 284.4 
L 1216.44 284.4 
L 1216.44 216 
L 1145.52 216 
z
" clip-path="url(#pafc8d93519)" style="fill: #9e7652; stroke: #9e7652; stroke-linejoin: miter"/>
   </g>
   <g id="patch_79">
    <path d="M 1216.44 284.4 
L 1287.36 284.4 
L 1287.36 216 
L 1216.44 216 
z
" clip-path="url(#pafc8d93519)" style="fill: #bfa289; stroke: #bfa289; stroke-linejoin: miter"/>
   </g>
   <g id="patch_80">
    <path d="M 1287.36 284.4 
L 1358.28 284.4 
L 1358.28 216 
L 1287.36 216 
z
" clip-path="url(#pafc8d93519)" style="fill: #4c423d; stroke: #4c423d; stroke-linejoin: miter"/>
   </g>
   <g id="patch_81">
    <path d="M 1358.28 284.4 
L 1429.2 284.4 
L 1429.2 216 
L 1358.28 216 
z
" clip-path="url(#pafc8d93519)" style="fill: #07070d; stroke: #07070d; stroke-linejoin: miter"/>
   </g>
   <g id="patch_82">
    <path d="M 10.8 352.8 
L 81.72 352.8 
L 81.72 284.4 
L 10.8 284.4 
z
" clip-path="url(#pafc8d93519)" style="fill: #877c66; stroke: #877c66; stroke-linejoin: miter"/>
   </g>
   <g id="patch_83">
    <path d="M 81.72 352.8 
L 152.64 352.8 
L 152.64 284.4 
L 81.72 284.4 
z
" clip-path="url(#pafc8d93519)" style="fill: #d3d0c6; stroke: #d3d0c6; stroke-linejoin: miter"/>
   </g>
   <g id="patch_84">
    <path d="M 152.64 352.8 
L 223.56 352.8 
L 223.56 284.4 
L 152.64 284.4 
z
" clip-path="url(#pafc8d93519)" style="fill: #b1a089; stroke: #b1a089; stroke-linejoin: miter"/>
   </g>
   <g id="patch_85">
    <path d="M 223.56 352.8 
L 294.48 352.8 
L 294.48 284.4 
L 223.56 284.4 
z
" clip-path="url(#pafc8d93519)" style="fill: #a39d86; stroke: #a39d86; stroke-linejoin: miter"/>
   </g>
   <g id="patch_86">
    <path d="M 294.48 352.8 
L 365.4 352.8 
L 365.4 284.4 
L 294.48 284.4 
z
" clip-path="url(#pafc8d93519)" style="fill: #8f795e; stroke: #8f795e; stroke-linejoin: miter"/>
   </g>
   <g id="patch_87">
    <path d="M 365.4 352.8 
L 436.32 352.8 
L 436.32 284.4 
L 365.4 284.4 
z
" clip-path="url(#pafc8d93519)" style="fill: #d8cbbf; stroke: #d8cbbf; stroke-linejoin: miter"/>
   </g>
   <g id="patch_88">
    <path d="M 436.32 352.8 
L 507.24 352.8 
L 507.24 284.4 
L 436.32 284.4 
z
" clip-path="url(#pafc8d93519)" style="fill: #2e2c2b; stroke: #2e2c2b; stroke-linejoin: miter"/>
   </g>
   <g id="patch_89">
    <path d="M 507.24 352.8 
L 578.16 352.8 
L 578.16 284.4 
L 507.24 284.4 
z
" clip-path="url(#pafc8d93519)" style="fill: #2e2c2b; stroke: #2e2c2b; stroke-linejoin: miter"/>
   </g>
   <g id="patch_90">
    <path d="M 578.16 352.8 
L 649.08 352.8 
L 649.08 284.4 
L 578.16 284.4 
z
" clip-path="url(#pafc8d93519)" style="fill: #2e2c2b; stroke: #2e2c2b; stroke-linejoin: miter"/>
   </g>
   <g id="patch_91">
    <path d="M 649.08 352.8 
L 720 352.8 
L 720 284.4 
L 649.08 284.4 
z
" clip-path="url(#pafc8d93519)" style="fill: #2e2c2b; stroke: #2e2c2b; stroke-linejoin: miter"/>
   </g>
   <g id="patch_92">
    <path d="M 720 352.8 
L 790.92 352.8 
L 790.92 284.4 
L 720 284.4 
z
" clip-path="url(#pafc8d93519)" style="fill: #2e2c2b; stroke: #2e2c2b; stroke-linejoin: miter"/>
   </g>
   <g id="patch_93">
    <path d="M 790.92 352.8 
L 861.84 352.8 
L 861.84 284.4 
L 790.92 284.4 
z
" clip-path="url(#pafc8d93519)" style="fill: #2e2c2b; stroke: #2e2c2b; stroke-linejoin: miter"/>
   </g>
   <g id="patch_94">
    <path d="M 861.84 352.8 
L 932.76 352.8 
L 932.76 284.4 
L 861.84 284.4 
z
" clip-path="url(#pafc8d93519)" style="fill: #c5c4c0; stroke: #c5c4c0; stroke-linejoin: miter"/>
   </g>
   <g id="patch_95">
    <path d="M 932.76 352.8 
L 1003.68 352.8 
L 1003.68 284.4 
L 932.76 284.4 
z
" clip-path="url(#pafc8d93519)" style="fill: #c8c3b9; stroke: #c8c3b9; stroke-linejoin: miter"/>
   </g>
   <g id="patch_96">
    <path d="M 1003.68 352.8 
L 1074.6 352.8 
L 1074.6 284.4 
L 1003.68 284.4 
z
" clip-path="url(#pafc8d93519)" style="fill: #8b857f; stroke: #8b857f; stroke-linejoin: miter"/>
   </g>
   <g id="patch_97">
    <path d="M 1074.6 352.8 
L 1145.52 352.8 
L 1145.52 284.4 
L 1074.6 284.4 
z
" clip-path="url(#pafc8d93519)" style="fill: #bdb4a7; stroke: #bdb4a7; stroke-linejoin: miter"/>
   </g>
   <g id="patch_98">
    <path d="M 1145.52 352.8 
L 1216.44 352.8 
L 1216.44 284.4 
L 1145.52 284.4 
z
" clip-path="url(#pafc8d93519)" style="fill: #bca797; stroke: #bca797; stroke-linejoin: miter"/>
   </g>
   <g id="patch_99">
    <path d="M 1216.44 352.8 
L 1287.36 352.8 
L 1287.36 284.4 
L 1216.44 284.4 
z
" clip-path="url(#pafc8d93519)" style="fill: #b8a99c; stroke: #b8a99c; stroke-linejoin: miter"/>
   </g>
   <g id="patch_100">
    <path d="M 1287.36 352.8 
L 1358.28 352.8 
L 1358.28 284.4 
L 1287.36 284.4 
z
" clip-path="url(#pafc8d93519)" style="fill: #3d3735; stroke: #3d3735; stroke-linejoin: miter"/>
   </g>
   <g id="patch_101">
    <path d="M 1358.28 352.8 
L 1429.2 352.8 
L 1429.2 284.4 
L 1358.28 284.4 
z
" clip-path="url(#pafc8d93519)" style="fill: #3f4541; stroke: #3f4541; stroke-linejoin: miter"/>
   </g>
   <g id="patch_102">
    <path d="M 10.8 421.2 
L 81.72 421.2 
L 81.72 352.8 
L 10.8 352.8 
z
" clip-path="url(#pafc8d93519)" style="fill: #c3c3c2; stroke: #c3c3c2; stroke-linejoin: miter"/>
   </g>
   <g id="patch_103">
    <path d="M 81.72 421.2 
L 152.64 421.2 
L 152.64 352.8 
L 81.72 352.8 
z
" clip-path="url(#pafc8d93519)" style="fill: #b4967b; stroke: #b4967b; stroke-linejoin: miter"/>
   </g>
   <g id="patch_104">
    <path d="M 152.64 421.2 
L 223.56 421.2 
L 223.56 352.8 
L 152.64 352.8 
z
" clip-path="url(#pafc8d93519)" style="fill: #b9afa0; stroke: #b9afa0; stroke-linejoin: miter"/>
   </g>
   <g id="patch_105">
    <path d="M 223.56 421.2 
L 294.48 421.2 
L 294.48 352.8 
L 223.56 352.8 
z
" clip-path="url(#pafc8d93519)" style="fill: #bdafa2; stroke: #bdafa2; stroke-linejoin: miter"/>
   </g>
   <g id="patch_106">
    <path d="M 294.48 421.2 
L 365.4 421.2 
L 365.4 352.8 
L 294.48 352.8 
z
" clip-path="url(#pafc8d93519)" style="fill: #b7a79f; stroke: #b7a79f; stroke-linejoin: miter"/>
   </g>
   <g id="patch_107">
    <path d="M 365.4 421.2 
L 436.32 421.2 
L 436.32 352.8 
L 365.4 352.8 
z
" clip-path="url(#pafc8d93519)" style="fill: #918367; stroke: #918367; stroke-linejoin: miter"/>
   </g>
   <g id="patch_108">
    <path d="M 436.32 421.2 
L 507.24 421.2 
L 507.24 352.8 
L 436.32 352.8 
z
" clip-path="url(#pafc8d93519)" style="fill: #d8d2c0; stroke: #d8d2c0; stroke-linejoin: miter"/>
   </g>
   <g id="patch_109">
    <path d="M 507.24 421.2 
L 578.16 421.2 
L 578.16 352.8 
L 507.24 352.8 
z
" clip-path="url(#pafc8d93519)" style="fill: #d8d2c0; stroke: #d8d2c0; stroke-linejoin: miter"/>
   </g>
   <g id="patch_110">
    <path d="M 578.16 421.2 
L 649.08 421.2 
L 649.08 352.8 
L 578.16 352.8 
z
" clip-path="url(#pafc8d93519)" style="fill: #d8d2c0; stroke: #d8d2c0; stroke-linejoin: miter"/>
   </g>
   <g id="patch_111">
    <path d="M 649.08 421.2 
L 720 421.2 
L 720 352.8 
L 649.08 352.8 
z
" clip-path="url(#pafc8d93519)" style="fill: #c6b7b4; stroke: #c6b7b4; stroke-linejoin: miter"/>
   </g>
   <g id="patch_112">
    <path d="M 720 421.2 
L 790.92 421.2 
L 790.92 352.8 
L 720 352.8 
z
" clip-path="url(#pafc8d93519)" style="fill: #cabcb2; stroke: #cabcb2; stroke-linejoin: miter"/>
   </g>
   <g id="patch_113">
    <path d="M 790.92 421.2 
L 861.84 421.2 
L 861.84 352.8 
L 790.92 352.8 
z
" clip-path="url(#pafc8d93519)" style="fill: #cabcb2; stroke: #cabcb2; stroke-linejoin: miter"/>
   </g>
   <g id="patch_114">
    <path d="M 861.84 421.2 
L 932.76 421.2 
L 932.76 352.8 
L 861.84 352.8 
z
" clip-path="url(#pafc8d93519)" style="fill: #cabcb2; stroke: #cabcb2; stroke-linejoin: miter"/>
   </g>
   <g id="patch_115">
    <path d="M 932.76 421.2 
L 1003.68 421.2 
L 1003.68 352.8 
L 932.76 352.8 
z
" clip-path="url(#pafc8d93519)" style="fill: #cabcb2; stroke: #cabcb2; stroke-linejoin: miter"/>
   </g>
   <g id="patch_116">
    <path d="M 1003.68 421.2 
L 1074.6 421.2 
L 1074.6 352.8 
L 1003.68 352.8 
z
" clip-path="url(#pafc8d93519)" style="fill: #b5b3a8; stroke: #b5b3a8; stroke-linejoin: miter"/>
   </g>
   <g id="patch_117">
    <path d="M 1074.6 421.2 
L 1145.52 421.2 
L 1145.52 352.8 
L 1074.6 352.8 
z
" clip-path="url(#pafc8d93519)" style="fill: #d2c4b3; stroke: #d2c4b3; stroke-linejoin: miter"/>
   </g>
   <g id="patch_118">
    <path d="M 1145.52 421.2 
L 1216.44 421.2 
L 1216.44 352.8 
L 1145.52 352.8 
z
" clip-path="url(#pafc8d93519)" style="fill: #454241; stroke: #454241; stroke-linejoin: miter"/>
   </g>
  </g>
 </g>
 <defs>
  <clipPath id="pafc8d93519">
   <rect x="10.8" y="10.8" width="1418.4" height="410.4"/>
  </clipPath>
 </defs>
</svg>
