<?xml version="1.0" encoding="utf-8" standalone="no"?>
<!DOCTYPE svg PUBLIC "-//W3C//DTD SVG 1.1//EN"
  "http://www.w3.org/Graphics/SVG/1.1/DTD/svg11.dtd">
<svg xmlns:xlink="http://www.w3.org/1999/xlink" width="1440pt" height="360pt" viewBox="0 0 1440 360" xmlns="http://www.w3.org/2000/svg" version="1.1">
 <metadata>
  <rdf:RDF xmlns:dc="http://purl.org/dc/elements/1.1/" xmlns:cc="http://creativecommons.org/ns#" xmlns:rdf="http://www.w3.org/1999/02/22-rdf-syntax-ns#">
   <cc:Work>
    <dc:type rdf:resource="http://purl.org/dc/dcmitype/StillImage"/>
    <dc:date>2025-05-04T17:21:07.470498</dc:date>
    <dc:format>image/svg+xml</dc:format>
    <dc:creator>
     <cc:Agent>
      <dc:title>Matplotlib v3.9.2, https://matplotlib.org/</dc:title>
     </cc:Agent>
    </dc:creator>
   </cc:Work>
  </rdf:RDF>
 </metadata>
 <defs>
  <style type="text/css">*{stroke-linejoin: round; stroke-linecap: butt}</style>
 </defs>
 <g id="figure_1">
  <g id="patch_1">
   <path d="M 0 360 
L 1440 360 
L 1440 0 
L 0 0 
z
" style="fill: #ffffff"/>
  </g>
  <g id="axes_1">
   <g id="patch_2">
    <path d="M 10.8 78.48 
L 81.72 78.48 
L 81.72 10.8 
L 10.8 10.8 
z
" clip-path="url(#pfcc85e1bfc)" style="fill: #d0bdad; stroke: #d0bdad; stroke-linejoin: miter"/>
   </g>
   <g id="patch_3">
    <path d="M 81.72 78.48 
L 152.64 78.48 
L 152.64 10.8 
L 81.72 10.8 
z
" clip-path="url(#pfcc85e1bfc)" style="fill: #dbd7d0; stroke: #dbd7d0; stroke-linejoin: miter"/>
   </g>
   <g id="patch_4">
    <path d="M 152.64 78.48 
L 223.56 78.48 
L 223.56 10.8 
L 152.64 10.8 
z
" clip-path="url(#pfcc85e1bfc)" style="fill: #dbd7d0; stroke: #dbd7d0; stroke-linejoin: miter"/>
   </g>
   <g id="patch_5">
    <path d="M 223.56 78.48 
L 294.48 78.48 
L 294.48 10.8 
L 223.56 10.8 
z
" clip-path="url(#pfcc85e1bfc)" style="fill: #c8beb6; stroke: #c8beb6; stroke-linejoin: miter"/>
   </g>
   <g id="patch_6">
    <path d="M 294.48 78.48 
L 365.4 78.48 
L 365.4 10.8 
L 294.48 10.8 
z
" clip-path="url(#pfcc85e1bfc)" style="fill: #bcb6a8; stroke: #bcb6a8; stroke-linejoin: miter"/>
   </g>
   <g id="patch_7">
    <path d="M 365.4 78.48 
L 436.32 78.48 
L 436.32 10.8 
L 365.4 10.8 
z
" clip-path="url(#pfcc85e1bfc)" style="fill: #b5ab9d; stroke: #b5ab9d; stroke-linejoin: miter"/>
   </g>
   <g id="patch_8">
    <path d="M 436.32 78.48 
L 507.24 78.48 
L 507.24 10.8 
L 436.32 10.8 
z
" clip-path="url(#pfcc85e1bfc)" style="fill: #cbc1b7; stroke: #cbc1b7; stroke-linejoin: miter"/>
   </g>
   <g id="patch_9">
    <path d="M 507.24 78.48 
L 578.16 78.48 
L 578.16 10.8 
L 507.24 10.8 
z
" clip-path="url(#pfcc85e1bfc)" style="fill: #ab9e90; stroke: #ab9e90; stroke-linejoin: miter"/>
   </g>
   <g id="patch_10">
    <path d="M 578.16 78.48 
L 649.08 78.48 
L 649.08 10.8 
L 578.16 10.8 
z
" clip-path="url(#pfcc85e1bfc)" style="fill: #20261f; stroke: #20261f; stroke-linejoin: miter"/>
   </g>
   <g id="patch_11">
    <path d="M 649.08 78.48 
L 720 78.48 
L 720 10.8 
L 649.08 10.8 
z
" clip-path="url(#pfcc85e1bfc)" style="fill: #20261f; stroke: #20261f; stroke-linejoin: miter"/>
   </g>
   <g id="patch_12">
    <path d="M 720 78.48 
L 790.92 78.48 
L 790.92 10.8 
L 720 10.8 
z
" clip-path="url(#pfcc85e1bfc)" style="fill: #20261f; stroke: #20261f; stroke-linejoin: miter"/>
   </g>
   <g id="patch_13">
    <path d="M 790.92 78.48 
L 861.84 78.48 
L 861.84 10.8 
L 790.92 10.8 
z
" clip-path="url(#pfcc85e1bfc)" style="fill: #20261f; stroke: #20261f; stroke-linejoin: miter"/>
   </g>
   <g id="patch_14">
    <path d="M 861.84 78.48 
L 932.76 78.48 
L 932.76 10.8 
L 861.84 10.8 
z
" clip-path="url(#pfcc85e1bfc)" style="fill: #b7a89e; stroke: #b7a89e; stroke-linejoin: miter"/>
   </g>
   <g id="patch_15">
    <path d="M 932.76 78.48 
L 1003.68 78.48 
L 1003.68 10.8 
L 932.76 10.8 
z
" clip-path="url(#pfcc85e1bfc)" style="fill: #b6a89b; stroke: #b6a89b; stroke-linejoin: miter"/>
   </g>
   <g id="patch_16">
    <path d="M 1003.68 78.48 
L 1074.6 78.48 
L 1074.6 10.8 
L 1003.68 10.8 
z
" clip-path="url(#pfcc85e1bfc)" style="fill: #cec7ba; stroke: #cec7ba; stroke-linejoin: miter"/>
   </g>
   <g id="patch_17">
    <path d="M 1074.6 78.48 
L 1145.52 78.48 
L 1145.52 10.8 
L 1074.6 10.8 
z
" clip-path="url(#pfcc85e1bfc)" style="fill: #dcd5cd; stroke: #dcd5cd; stroke-linejoin: miter"/>
   </g>
   <g id="patch_18">
    <path d="M 1145.52 78.48 
L 1216.44 78.48 
L 1216.44 10.8 
L 1145.52 10.8 
z
" clip-path="url(#pfcc85e1bfc)" style="fill: #825e3f; stroke: #825e3f; stroke-linejoin: miter"/>
   </g>
   <g id="patch_19">
    <path d="M 1216.44 78.48 
L 1287.36 78.48 
L 1287.36 10.8 
L 1216.44 10.8 
z
" clip-path="url(#pfcc85e1bfc)" style="fill: #b5b0a6; stroke: #b5b0a6; stroke-linejoin: miter"/>
   </g>
   <g id="patch_20">
    <path d="M 1287.36 78.48 
L 1358.28 78.48 
L 1358.28 10.8 
L 1287.36 10.8 
z
" clip-path="url(#pfcc85e1bfc)" style="fill: #cfbdb5; stroke: #cfbdb5; stroke-linejoin: miter"/>
   </g>
   <g id="patch_21">
    <path d="M 1358.28 78.48 
L 1429.2 78.48 
L 1429.2 10.8 
L 1358.28 10.8 
z
" clip-path="url(#pfcc85e1bfc)" style="fill: #3d303a; stroke: #3d303a; stroke-linejoin: miter"/>
   </g>
   <g id="patch_22">
    <path d="M 10.8 146.16 
L 81.72 146.16 
L 81.72 78.48 
L 10.8 78.48 
z
" clip-path="url(#pfcc85e1bfc)" style="fill: #3d303a; stroke: #3d303a; stroke-linejoin: miter"/>
   </g>
   <g id="patch_23">
    <path d="M 81.72 146.16 
L 152.64 146.16 
L 152.64 78.48 
L 81.72 78.48 
z
" clip-path="url(#pfcc85e1bfc)" style="fill: #3d303a; stroke: #3d303a; stroke-linejoin: miter"/>
   </g>
   <g id="patch_24">
    <path d="M 152.64 146.16 
L 223.56 146.16 
L 223.56 78.48 
L 152.64 78.48 
z
" clip-path="url(#pfcc85e1bfc)" style="fill: #3d303a; stroke: #3d303a; stroke-linejoin: miter"/>
   </g>
   <g id="patch_25">
    <path d="M 223.56 146.16 
L 294.48 146.16 
L 294.48 78.48 
L 223.56 78.48 
z
" clip-path="url(#pfcc85e1bfc)" style="fill: #3d303a; stroke: #3d303a; stroke-linejoin: miter"/>
   </g>
   <g id="patch_26">
    <path d="M 294.48 146.16 
L 365.4 146.16 
L 365.4 78.48 
L 294.48 78.48 
z
" clip-path="url(#pfcc85e1bfc)" style="fill: #3d303a; stroke: #3d303a; stroke-linejoin: miter"/>
   </g>
   <g id="patch_27">
    <path d="M 365.4 146.16 
L 436.32 146.16 
L 436.32 78.48 
L 365.4 78.48 
z
" clip-path="url(#pfcc85e1bfc)" style="fill: #d9cdcb; stroke: #d9cdcb; stroke-linejoin: miter"/>
   </g>
   <g id="patch_28">
    <path d="M 436.32 146.16 
L 507.24 146.16 
L 507.24 78.48 
L 436.32 78.48 
z
" clip-path="url(#pfcc85e1bfc)" style="fill: #7c685b; stroke: #7c685b; stroke-linejoin: miter"/>
   </g>
   <g id="patch_29">
    <path d="M 507.24 146.16 
L 578.16 146.16 
L 578.16 78.48 
L 507.24 78.48 
z
" clip-path="url(#pfcc85e1bfc)" style="fill: #303031; stroke: #303031; stroke-linejoin: miter"/>
   </g>
   <g id="patch_30">
    <path d="M 578.16 146.16 
L 649.08 146.16 
L 649.08 78.48 
L 578.16 78.48 
z
" clip-path="url(#pfcc85e1bfc)" style="fill: #3a3735; stroke: #3a3735; stroke-linejoin: miter"/>
   </g>
   <g id="patch_31">
    <path d="M 649.08 146.16 
L 720 146.16 
L 720 78.48 
L 649.08 78.48 
z
" clip-path="url(#pfcc85e1bfc)" style="fill: #bdb3a6; stroke: #bdb3a6; stroke-linejoin: miter"/>
   </g>
   <g id="patch_32">
    <path d="M 720 146.16 
L 790.92 146.16 
L 790.92 78.48 
L 720 78.48 
z
" clip-path="url(#pfcc85e1bfc)" style="fill: #b3a99a; stroke: #b3a99a; stroke-linejoin: miter"/>
   </g>
   <g id="patch_33">
    <path d="M 790.92 146.16 
L 861.84 146.16 
L 861.84 78.48 
L 790.92 78.48 
z
" clip-path="url(#pfcc85e1bfc)" style="fill: #b3a99a; stroke: #b3a99a; stroke-linejoin: miter"/>
   </g>
   <g id="patch_34">
    <path d="M 861.84 146.16 
L 932.76 146.16 
L 932.76 78.48 
L 861.84 78.48 
z
" clip-path="url(#pfcc85e1bfc)" style="fill: #b3a99a; stroke: #b3a99a; stroke-linejoin: miter"/>
   </g>
   <g id="patch_35">
    <path d="M 932.76 146.16 
L 1003.68 146.16 
L 1003.68 78.48 
L 932.76 78.48 
z
" clip-path="url(#pfcc85e1bfc)" style="fill: #cbc3b6; stroke: #cbc3b6; stroke-linejoin: miter"/>
   </g>
   <g id="patch_36">
    <path d="M 1003.68 146.16 
L 1074.6 146.16 
L 1074.6 78.48 
L 1003.68 78.48 
z
" clip-path="url(#pfcc85e1bfc)" style="fill: #ab8b81; stroke: #ab8b81; stroke-linejoin: miter"/>
   </g>
   <g id="patch_37">
    <path d="M 1074.6 146.16 
L 1145.52 146.16 
L 1145.52 78.48 
L 1074.6 78.48 
z
" clip-path="url(#pfcc85e1bfc)" style="fill: #bdb0a2; stroke: #bdb0a2; stroke-linejoin: miter"/>
   </g>
   <g id="patch_38">
    <path d="M 1145.52 146.16 
L 1216.44 146.16 
L 1216.44 78.48 
L 1145.52 78.48 
z
" clip-path="url(#pfcc85e1bfc)" style="fill: #bdb0a2; stroke: #bdb0a2; stroke-linejoin: miter"/>
   </g>
   <g id="patch_39">
    <path d="M 1216.44 146.16 
L 1287.36 146.16 
L 1287.36 78.48 
L 1216.44 78.48 
z
" clip-path="url(#pfcc85e1bfc)" style="fill: #a89781; stroke: #a89781; stroke-linejoin: miter"/>
   </g>
   <g id="patch_40">
    <path d="M 1287.36 146.16 
L 1358.28 146.16 
L 1358.28 78.48 
L 1287.36 78.48 
z
" clip-path="url(#pfcc85e1bfc)" style="fill: #a18668; stroke: #a18668; stroke-linejoin: miter"/>
   </g>
   <g id="patch_41">
    <path d="M 1358.28 146.16 
L 1429.2 146.16 
L 1429.2 78.48 
L 1358.28 78.48 
z
" clip-path="url(#pfcc85e1bfc)" style="fill: #8a6450; stroke: #8a6450; stroke-linejoin: miter"/>
   </g>
   <g id="patch_42">
    <path d="M 10.8 213.84 
L 81.72 213.84 
L 81.72 146.16 
L 10.8 146.16 
z
" clip-path="url(#pfcc85e1bfc)" style="fill: #987c64; stroke: #987c64; stroke-linejoin: miter"/>
   </g>
   <g id="patch_43">
    <path d="M 81.72 213.84 
L 152.64 213.84 
L 152.64 146.16 
L 81.72 146.16 
z
" clip-path="url(#pfcc85e1bfc)" style="fill: #383430; stroke: #383430; stroke-linejoin: miter"/>
   </g>
   <g id="patch_44">
    <path d="M 152.64 213.84 
L 223.56 213.84 
L 223.56 146.16 
L 152.64 146.16 
z
" clip-path="url(#pfcc85e1bfc)" style="fill: #2e3457; stroke: #2e3457; stroke-linejoin: miter"/>
   </g>
   <g id="patch_45">
    <path d="M 223.56 213.84 
L 294.48 213.84 
L 294.48 146.16 
L 223.56 146.16 
z
" clip-path="url(#pfcc85e1bfc)" style="fill: #3c3b31; stroke: #3c3b31; stroke-linejoin: miter"/>
   </g>
   <g id="patch_46">
    <path d="M 294.48 213.84 
L 365.4 213.84 
L 365.4 146.16 
L 294.48 146.16 
z
" clip-path="url(#pfcc85e1bfc)" style="fill: #c8c2bc; stroke: #c8c2bc; stroke-linejoin: miter"/>
   </g>
   <g id="patch_47">
    <path d="M 365.4 213.84 
L 436.32 213.84 
L 436.32 146.16 
L 365.4 146.16 
z
" clip-path="url(#pfcc85e1bfc)" style="fill: #c8c2bc; stroke: #c8c2bc; stroke-linejoin: miter"/>
   </g>
   <g id="patch_48">
    <path d="M 436.32 213.84 
L 507.24 213.84 
L 507.24 146.16 
L 436.32 146.16 
z
" clip-path="url(#pfcc85e1bfc)" style="fill: #a19984; stroke: #a19984; stroke-linejoin: miter"/>
   </g>
   <g id="patch_49">
    <path d="M 507.24 213.84 
L 578.16 213.84 
L 578.16 146.16 
L 507.24 146.16 
z
" clip-path="url(#pfcc85e1bfc)" style="fill: #e19766; stroke: #e19766; stroke-linejoin: miter"/>
   </g>
   <g id="patch_50">
    <path d="M 578.16 213.84 
L 649.08 213.84 
L 649.08 146.16 
L 578.16 146.16 
z
" clip-path="url(#pfcc85e1bfc)" style="fill: #353027; stroke: #353027; stroke-linejoin: miter"/>
   </g>
   <g id="patch_51">
    <path d="M 649.08 213.84 
L 720 213.84 
L 720 146.16 
L 649.08 146.16 
z
" clip-path="url(#pfcc85e1bfc)" style="fill: #393d2f; stroke: #393d2f; stroke-linejoin: miter"/>
   </g>
   <g id="patch_52">
    <path d="M 720 213.84 
L 790.92 213.84 
L 790.92 146.16 
L 720 146.16 
z
" clip-path="url(#pfcc85e1bfc)" style="fill: #b9b5aa; stroke: #b9b5aa; stroke-linejoin: miter"/>
   </g>
   <g id="patch_53">
    <path d="M 790.92 213.84 
L 861.84 213.84 
L 861.84 146.16 
L 790.92 146.16 
z
" clip-path="url(#pfcc85e1bfc)" style="fill: #b2aaa1; stroke: #b2aaa1; stroke-linejoin: miter"/>
   </g>
   <g id="patch_54">
    <path d="M 861.84 213.84 
L 932.76 213.84 
L 932.76 146.16 
L 861.84 146.16 
z
" clip-path="url(#pfcc85e1bfc)" style="fill: #b2aaa1; stroke: #b2aaa1; stroke-linejoin: miter"/>
   </g>
   <g id="patch_55">
    <path d="M 932.76 213.84 
L 1003.68 213.84 
L 1003.68 146.16 
L 932.76 146.16 
z
" clip-path="url(#pfcc85e1bfc)" style="fill: #c7bfb8; stroke: #c7bfb8; stroke-linejoin: miter"/>
   </g>
   <g id="patch_56">
    <path d="M 1003.68 213.84 
L 1074.6 213.84 
L 1074.6 146.16 
L 1003.68 146.16 
z
" clip-path="url(#pfcc85e1bfc)" style="fill: #393c2c; stroke: #393c2c; stroke-linejoin: miter"/>
   </g>
   <g id="patch_57">
    <path d="M 1074.6 213.84 
L 1145.52 213.84 
L 1145.52 146.16 
L 1074.6 146.16 
z
" clip-path="url(#pfcc85e1bfc)" style="fill: #d9d1c2; stroke: #d9d1c2; stroke-linejoin: miter"/>
   </g>
   <g id="patch_58">
    <path d="M 1145.52 213.84 
L 1216.44 213.84 
L 1216.44 146.16 
L 1145.52 146.16 
z
" clip-path="url(#pfcc85e1bfc)" style="fill: #ccbcae; stroke: #ccbcae; stroke-linejoin: miter"/>
   </g>
   <g id="patch_59">
    <path d="M 1216.44 213.84 
L 1287.36 213.84 
L 1287.36 146.16 
L 1216.44 146.16 
z
" clip-path="url(#pfcc85e1bfc)" style="fill: #252d33; stroke: #252d33; stroke-linejoin: miter"/>
   </g>
   <g id="patch_60">
    <path d="M 1287.36 213.84 
L 1358.28 213.84 
L 1358.28 146.16 
L 1287.36 146.16 
z
" clip-path="url(#pfcc85e1bfc)" style="fill: #373933; stroke: #373933; stroke-linejoin: miter"/>
   </g>
   <g id="patch_61">
    <path d="M 1358.28 213.84 
L 1429.2 213.84 
L 1429.2 146.16 
L 1358.28 146.16 
z
" clip-path="url(#pfcc85e1bfc)" style="fill: #b9a084; stroke: #b9a084; stroke-linejoin: miter"/>
   </g>
   <g id="patch_62">
    <path d="M 10.8 281.52 
L 81.72 281.52 
L 81.72 213.84 
L 10.8 213.84 
z
" clip-path="url(#pfcc85e1bfc)" style="fill: #b9a084; stroke: #b9a084; stroke-linejoin: miter"/>
   </g>
   <g id="patch_63">
    <path d="M 81.72 281.52 
L 152.64 281.52 
L 152.64 213.84 
L 81.72 213.84 
z
" clip-path="url(#pfcc85e1bfc)" style="fill: #b9a084; stroke: #b9a084; stroke-linejoin: miter"/>
   </g>
   <g id="patch_64">
    <path d="M 152.64 281.52 
L 223.56 281.52 
L 223.56 213.84 
L 152.64 213.84 
z
" clip-path="url(#pfcc85e1bfc)" style="fill: #bcb6ab; stroke: #bcb6ab; stroke-linejoin: miter"/>
   </g>
   <g id="patch_65">
    <path d="M 223.56 281.52 
L 294.48 281.52 
L 294.48 213.84 
L 223.56 213.84 
z
" clip-path="url(#pfcc85e1bfc)" style="fill: #86735f; stroke: #86735f; stroke-linejoin: miter"/>
   </g>
   <g id="patch_66">
    <path d="M 294.48 281.52 
L 365.4 281.52 
L 365.4 213.84 
L 294.48 213.84 
z
" clip-path="url(#pfcc85e1bfc)" style="fill: #baada2; stroke: #baada2; stroke-linejoin: miter"/>
   </g>
   <g id="patch_67">
    <path d="M 365.4 281.52 
L 436.32 281.52 
L 436.32 213.84 
L 365.4 213.84 
z
" clip-path="url(#pfcc85e1bfc)" style="fill: #c2bbac; stroke: #c2bbac; stroke-linejoin: miter"/>
   </g>
   <g id="patch_68">
    <path d="M 436.32 281.52 
L 507.24 281.52 
L 507.24 213.84 
L 436.32 213.84 
z
" clip-path="url(#pfcc85e1bfc)" style="fill: #46413c; stroke: #46413c; stroke-linejoin: miter"/>
   </g>
   <g id="patch_69">
    <path d="M 507.24 281.52 
L 578.16 281.52 
L 578.16 213.84 
L 507.24 213.84 
z
" clip-path="url(#pfcc85e1bfc)" style="fill: #46413c; stroke: #46413c; stroke-linejoin: miter"/>
   </g>
   <g id="patch_70">
    <path d="M 578.16 281.52 
L 649.08 281.52 
L 649.08 213.84 
L 578.16 213.84 
z
" clip-path="url(#pfcc85e1bfc)" style="fill: #46413c; stroke: #46413c; stroke-linejoin: miter"/>
   </g>
   <g id="patch_71">
    <path d="M 649.08 281.52 
L 720 281.52 
L 720 213.84 
L 649.08 213.84 
z
" clip-path="url(#pfcc85e1bfc)" style="fill: #ac9e8e; stroke: #ac9e8e; stroke-linejoin: miter"/>
   </g>
   <g id="patch_72">
    <path d="M 720 281.52 
L 790.92 281.52 
L 790.92 213.84 
L 720 213.84 
z
" clip-path="url(#pfcc85e1bfc)" style="fill: #bdbab3; stroke: #bdbab3; stroke-linejoin: miter"/>
   </g>
   <g id="patch_73">
    <path d="M 790.92 281.52 
L 861.84 281.52 
L 861.84 213.84 
L 790.92 213.84 
z
" clip-path="url(#pfcc85e1bfc)" style="fill: #bdbab3; stroke: #bdbab3; stroke-linejoin: miter"/>
   </g>
   <g id="patch_74">
    <path d="M 861.84 281.52 
L 932.76 281.52 
L 932.76 213.84 
L 861.84 213.84 
z
" clip-path="url(#pfcc85e1bfc)" style="fill: #bdbab3; stroke: #bdbab3; stroke-linejoin: miter"/>
   </g>
   <g id="patch_75">
    <path d="M 932.76 281.52 
L 1003.68 281.52 
L 1003.68 213.84 
L 932.76 213.84 
z
" clip-path="url(#pfcc85e1bfc)" style="fill: #bdbab3; stroke: #bdbab3; stroke-linejoin: miter"/>
   </g>
   <g id="patch_76">
    <path d="M 1003.68 281.52 
L 1074.6 281.52 
L 1074.6 213.84 
L 1003.68 213.84 
z
" clip-path="url(#pfcc85e1bfc)" style="fill: #bdbab3; stroke: #bdbab3; stroke-linejoin: miter"/>
   </g>
   <g id="patch_77">
    <path d="M 1074.6 281.52 
L 1145.52 281.52 
L 1145.52 213.84 
L 1074.6 213.84 
z
" clip-path="url(#pfcc85e1bfc)" style="fill: #251c16; stroke: #251c16; stroke-linejoin: miter"/>
   </g>
   <g id="patch_78">
    <path d="M 1145.52 281.52 
L 1216.44 281.52 
L 1216.44 213.84 
L 1145.52 213.84 
z
" clip-path="url(#pfcc85e1bfc)" style="fill: #765e51; stroke: #765e51; stroke-linejoin: miter"/>
   </g>
   <g id="patch_79">
    <path d="M 1216.44 281.52 
L 1287.36 281.52 
L 1287.36 213.84 
L 1216.44 213.84 
z
" clip-path="url(#pfcc85e1bfc)" style="fill: #171617; stroke: #171617; stroke-linejoin: miter"/>
   </g>
   <g id="patch_80">
    <path d="M 1287.36 281.52 
L 1358.28 281.52 
L 1358.28 213.84 
L 1287.36 213.84 
z
" clip-path="url(#pfcc85e1bfc)" style="fill: #8ab6b3; stroke: #8ab6b3; stroke-linejoin: miter"/>
   </g>
   <g id="patch_81">
    <path d="M 1358.28 281.52 
L 1429.2 281.52 
L 1429.2 213.84 
L 1358.28 213.84 
z
" clip-path="url(#pfcc85e1bfc)" style="fill: #b0a397; stroke: #b0a397; stroke-linejoin: miter"/>
   </g>
   <g id="patch_82">
    <path d="M 10.8 349.2 
L 81.72 349.2 
L 81.72 281.52 
L 10.8 281.52 
z
" clip-path="url(#pfcc85e1bfc)" style="fill: #cdc6c0; stroke: #cdc6c0; stroke-linejoin: miter"/>
   </g>
   <g id="patch_83">
    <path d="M 81.72 349.2 
L 152.64 349.2 
L 152.64 281.52 
L 81.72 281.52 
z
" clip-path="url(#pfcc85e1bfc)" style="fill: #d4b7b9; stroke: #d4b7b9; stroke-linejoin: miter"/>
   </g>
   <g id="patch_84">
    <path d="M 152.64 349.2 
L 223.56 349.2 
L 223.56 281.52 
L 152.64 281.52 
z
" clip-path="url(#pfcc85e1bfc)" style="fill: #84c4ca; stroke: #84c4ca; stroke-linejoin: miter"/>
   </g>
   <g id="patch_85">
    <path d="M 223.56 349.2 
L 294.48 349.2 
L 294.48 281.52 
L 223.56 281.52 
z
" clip-path="url(#pfcc85e1bfc)" style="fill: #c4b7b7; stroke: #c4b7b7; stroke-linejoin: miter"/>
   </g>
   <g id="patch_86">
    <path d="M 294.48 349.2 
L 365.4 349.2 
L 365.4 281.52 
L 294.48 281.52 
z
" clip-path="url(#pfcc85e1bfc)" style="fill: #b09a81; stroke: #b09a81; stroke-linejoin: miter"/>
   </g>
   <g id="patch_87">
    <path d="M 365.4 349.2 
L 436.32 349.2 
L 436.32 281.52 
L 365.4 281.52 
z
" clip-path="url(#pfcc85e1bfc)" style="fill: #b09a81; stroke: #b09a81; stroke-linejoin: miter"/>
   </g>
   <g id="patch_88">
    <path d="M 436.32 349.2 
L 507.24 349.2 
L 507.24 281.52 
L 436.32 281.52 
z
" clip-path="url(#pfcc85e1bfc)" style="fill: #31394f; stroke: #31394f; stroke-linejoin: miter"/>
   </g>
   <g id="patch_89">
    <path d="M 507.24 349.2 
L 578.16 349.2 
L 578.16 281.52 
L 507.24 281.52 
z
" clip-path="url(#pfcc85e1bfc)" style="fill: #ae9689; stroke: #ae9689; stroke-linejoin: miter"/>
   </g>
   <g id="patch_90">
    <path d="M 578.16 349.2 
L 649.08 349.2 
L 649.08 281.52 
L 578.16 281.52 
z
" clip-path="url(#pfcc85e1bfc)" style="fill: #c3ab89; stroke: #c3ab89; stroke-linejoin: miter"/>
   </g>
   <g id="patch_91">
    <path d="M 649.08 349.2 
L 720 349.2 
L 720 281.52 
L 649.08 281.52 
z
" clip-path="url(#pfcc85e1bfc)" style="fill: #cbb3a1; stroke: #cbb3a1; stroke-linejoin: miter"/>
   </g>
   <g id="patch_92">
    <path d="M 720 349.2 
L 790.92 349.2 
L 790.92 281.52 
L 720 281.52 
z
" clip-path="url(#pfcc85e1bfc)" style="fill: #333733; stroke: #333733; stroke-linejoin: miter"/>
   </g>
   <g id="patch_93">
    <path d="M 790.92 349.2 
L 861.84 349.2 
L 861.84 281.52 
L 790.92 281.52 
z
" clip-path="url(#pfcc85e1bfc)" style="fill: #c2baaf; stroke: #c2baaf; stroke-linejoin: miter"/>
   </g>
   <g id="patch_94">
    <path d="M 861.84 349.2 
L 932.76 349.2 
L 932.76 281.52 
L 861.84 281.52 
z
" clip-path="url(#pfcc85e1bfc)" style="fill: #3a342f; stroke: #3a342f; stroke-linejoin: miter"/>
   </g>
   <g id="patch_95">
    <path d="M 932.76 349.2 
L 1003.68 349.2 
L 1003.68 281.52 
L 932.76 281.52 
z
" clip-path="url(#pfcc85e1bfc)" style="fill: #bab1aa; stroke: #bab1aa; stroke-linejoin: miter"/>
   </g>
   <g id="patch_96">
    <path d="M 1003.68 349.2 
L 1074.6 349.2 
L 1074.6 281.52 
L 1003.68 281.52 
z
" clip-path="url(#pfcc85e1bfc)" style="fill: #d9cdcb; stroke: #d9cdcb; stroke-linejoin: miter"/>
   </g>
  </g>
 </g>
 <defs>
  <clipPath id="pfcc85e1bfc">
   <rect x="10.8" y="10.8" width="1418.4" height="338.4"/>
  </clipPath>
 </defs>
</svg>
