<?xml version="1.0" encoding="utf-8" standalone="no"?>
<!DOCTYPE svg PUBLIC "-//W3C//DTD SVG 1.1//EN"
  "http://www.w3.org/Graphics/SVG/1.1/DTD/svg11.dtd">
<svg xmlns:xlink="http://www.w3.org/1999/xlink" width="1440pt" height="144pt" viewBox="0 0 1440 144" xmlns="http://www.w3.org/2000/svg" version="1.1">
 <metadata>
  <rdf:RDF xmlns:dc="http://purl.org/dc/elements/1.1/" xmlns:cc="http://creativecommons.org/ns#" xmlns:rdf="http://www.w3.org/1999/02/22-rdf-syntax-ns#">
   <cc:Work>
    <dc:type rdf:resource="http://purl.org/dc/dcmitype/StillImage"/>
    <dc:date>2025-05-04T17:21:07.520777</dc:date>
    <dc:format>image/svg+xml</dc:format>
    <dc:creator>
     <cc:Agent>
      <dc:title>Matplotlib v3.9.2, https://matplotlib.org/</dc:title>
     </cc:Agent>
    </dc:creator>
   </cc:Work>
  </rdf:RDF>
 </metadata>
 <defs>
  <style type="text/css">*{stroke-linejoin: round; stroke-linecap: butt}</style>
 </defs>
 <g id="figure_1">
  <g id="patch_1">
   <path d="M 0 144 
L 1440 144 
L 1440 0 
L 0 0 
z
" style="fill: #ffffff"/>
  </g>
  <g id="axes_1">
   <g id="patch_2">
    <path d="M 10.8 72 
L 81.72 72 
L 81.72 10.8 
L 10.8 10.8 
z
" clip-path="url(#pe70d6e0ec3)" style="fill: #d3bba8; stroke: #d3bba8; stroke-linejoin: miter"/>
   </g>
   <g id="patch_3">
    <path d="M 81.72 72 
L 152.64 72 
L 152.64 10.8 
L 81.72 10.8 
z
" clip-path="url(#pe70d6e0ec3)" style="fill: #c9b095; stroke: #c9b095; stroke-linejoin: miter"/>
   </g>
   <g id="patch_4">
    <path d="M 152.64 72 
L 223.56 72 
L 223.56 10.8 
L 152.64 10.8 
z
" clip-path="url(#pe70d6e0ec3)" style="fill: #a89782; stroke: #a89782; stroke-linejoin: miter"/>
   </g>
   <g id="patch_5">
    <path d="M 223.56 72 
L 294.48 72 
L 294.48 10.8 
L 223.56 10.8 
z
" clip-path="url(#pe70d6e0ec3)" style="fill: #d5beb1; stroke: #d5beb1; stroke-linejoin: miter"/>
   </g>
   <g id="patch_6">
    <path d="M 294.48 72 
L 365.4 72 
L 365.4 10.8 
L 294.48 10.8 
z
" clip-path="url(#pe70d6e0ec3)" style="fill: #dec49d; stroke: #dec49d; stroke-linejoin: miter"/>
   </g>
   <g id="patch_7">
    <path d="M 365.4 72 
L 436.32 72 
L 436.32 10.8 
L 365.4 10.8 
z
" clip-path="url(#pe70d6e0ec3)" style="fill: #cdcdcc; stroke: #cdcdcc; stroke-linejoin: miter"/>
   </g>
   <g id="patch_8">
    <path d="M 436.32 72 
L 507.24 72 
L 507.24 10.8 
L 436.32 10.8 
z
" clip-path="url(#pe70d6e0ec3)" style="fill: #3c3e38; stroke: #3c3e38; stroke-linejoin: miter"/>
   </g>
   <g id="patch_9">
    <path d="M 507.24 72 
L 578.16 72 
L 578.16 10.8 
L 507.24 10.8 
z
" clip-path="url(#pe70d6e0ec3)" style="fill: #c4b1a4; stroke: #c4b1a4; stroke-linejoin: miter"/>
   </g>
   <g id="patch_10">
    <path d="M 578.16 72 
L 649.08 72 
L 649.08 10.8 
L 578.16 10.8 
z
" clip-path="url(#pe70d6e0ec3)" style="fill: #c5b9af; stroke: #c5b9af; stroke-linejoin: miter"/>
   </g>
   <g id="patch_11">
    <path d="M 649.08 72 
L 720 72 
L 720 10.8 
L 649.08 10.8 
z
" clip-path="url(#pe70d6e0ec3)" style="fill: #c9bbad; stroke: #c9bbad; stroke-linejoin: miter"/>
   </g>
   <g id="patch_12">
    <path d="M 720 72 
L 790.92 72 
L 790.92 10.8 
L 720 10.8 
z
" clip-path="url(#pe70d6e0ec3)" style="fill: #cbc1b0; stroke: #cbc1b0; stroke-linejoin: miter"/>
   </g>
   <g id="patch_13">
    <path d="M 790.92 72 
L 861.84 72 
L 861.84 10.8 
L 790.92 10.8 
z
" clip-path="url(#pe70d6e0ec3)" style="fill: #303031; stroke: #303031; stroke-linejoin: miter"/>
   </g>
   <g id="patch_14">
    <path d="M 861.84 72 
L 932.76 72 
L 932.76 10.8 
L 861.84 10.8 
z
" clip-path="url(#pe70d6e0ec3)" style="fill: #40352d; stroke: #40352d; stroke-linejoin: miter"/>
   </g>
   <g id="patch_15">
    <path d="M 932.76 72 
L 1003.68 72 
L 1003.68 10.8 
L 932.76 10.8 
z
" clip-path="url(#pe70d6e0ec3)" style="fill: #372c24; stroke: #372c24; stroke-linejoin: miter"/>
   </g>
   <g id="patch_16">
    <path d="M 1003.68 72 
L 1074.6 72 
L 1074.6 10.8 
L 1003.68 10.8 
z
" clip-path="url(#pe70d6e0ec3)" style="fill: #dba198; stroke: #dba198; stroke-linejoin: miter"/>
   </g>
   <g id="patch_17">
    <path d="M 1074.6 72 
L 1145.52 72 
L 1145.52 10.8 
L 1074.6 10.8 
z
" clip-path="url(#pe70d6e0ec3)" style="fill: #d9beac; stroke: #d9beac; stroke-linejoin: miter"/>
   </g>
   <g id="patch_18">
    <path d="M 1145.52 72 
L 1216.44 72 
L 1216.44 10.8 
L 1145.52 10.8 
z
" clip-path="url(#pe70d6e0ec3)" style="fill: #d7ba9c; stroke: #d7ba9c; stroke-linejoin: miter"/>
   </g>
   <g id="patch_19">
    <path d="M 1216.44 72 
L 1287.36 72 
L 1287.36 10.8 
L 1216.44 10.8 
z
" clip-path="url(#pe70d6e0ec3)" style="fill: #a7855a; stroke: #a7855a; stroke-linejoin: miter"/>
   </g>
   <g id="patch_20">
    <path d="M 1287.36 72 
L 1358.28 72 
L 1358.28 10.8 
L 1287.36 10.8 
z
" clip-path="url(#pe70d6e0ec3)" style="fill: #4f8cb5; stroke: #4f8cb5; stroke-linejoin: miter"/>
   </g>
   <g id="patch_21">
    <path d="M 1358.28 72 
L 1429.2 72 
L 1429.2 10.8 
L 1358.28 10.8 
z
" clip-path="url(#pe70d6e0ec3)" style="fill: #ebebeb; stroke: #ebebeb; stroke-linejoin: miter"/>
   </g>
   <g id="patch_22">
    <path d="M 10.8 133.2 
L 81.72 133.2 
L 81.72 72 
L 10.8 72 
z
" clip-path="url(#pe70d6e0ec3)" style="fill: #2f3942; stroke: #2f3942; stroke-linejoin: miter"/>
   </g>
   <g id="patch_23">
    <path d="M 81.72 133.2 
L 152.64 133.2 
L 152.64 72 
L 81.72 72 
z
" clip-path="url(#pe70d6e0ec3)" style="fill: #b29a79; stroke: #b29a79; stroke-linejoin: miter"/>
   </g>
   <g id="patch_24">
    <path d="M 152.64 133.2 
L 223.56 133.2 
L 223.56 72 
L 152.64 72 
z
" clip-path="url(#pe70d6e0ec3)" style="fill: #473c35; stroke: #473c35; stroke-linejoin: miter"/>
   </g>
   <g id="patch_25">
    <path d="M 223.56 133.2 
L 294.48 133.2 
L 294.48 72 
L 223.56 72 
z
" clip-path="url(#pe70d6e0ec3)" style="fill: #38281d; stroke: #38281d; stroke-linejoin: miter"/>
   </g>
   <g id="patch_26">
    <path d="M 294.48 133.2 
L 365.4 133.2 
L 365.4 72 
L 294.48 72 
z
" clip-path="url(#pe70d6e0ec3)" style="fill: #c1927f; stroke: #c1927f; stroke-linejoin: miter"/>
   </g>
   <g id="patch_27">
    <path d="M 365.4 133.2 
L 436.32 133.2 
L 436.32 72 
L 365.4 72 
z
" clip-path="url(#pe70d6e0ec3)" style="fill: #b3a7a3; stroke: #b3a7a3; stroke-linejoin: miter"/>
   </g>
   <g id="patch_28">
    <path d="M 436.32 133.2 
L 507.24 133.2 
L 507.24 72 
L 436.32 72 
z
" clip-path="url(#pe70d6e0ec3)" style="fill: #444337; stroke: #444337; stroke-linejoin: miter"/>
   </g>
   <g id="patch_29">
    <path d="M 507.24 133.2 
L 578.16 133.2 
L 578.16 72 
L 507.24 72 
z
" clip-path="url(#pe70d6e0ec3)" style="fill: #281812; stroke: #281812; stroke-linejoin: miter"/>
   </g>
   <g id="patch_30">
    <path d="M 578.16 133.2 
L 649.08 133.2 
L 649.08 72 
L 578.16 72 
z
" clip-path="url(#pe70d6e0ec3)" style="fill: #cab5a7; stroke: #cab5a7; stroke-linejoin: miter"/>
   </g>
   <g id="patch_31">
    <path d="M 649.08 133.2 
L 720 133.2 
L 720 72 
L 649.08 72 
z
" clip-path="url(#pe70d6e0ec3)" style="fill: #362e2d; stroke: #362e2d; stroke-linejoin: miter"/>
   </g>
   <g id="patch_32">
    <path d="M 720 133.2 
L 790.92 133.2 
L 790.92 72 
L 720 72 
z
" clip-path="url(#pe70d6e0ec3)" style="fill: #a47f56; stroke: #a47f56; stroke-linejoin: miter"/>
   </g>
   <g id="patch_33">
    <path d="M 790.92 133.2 
L 861.84 133.2 
L 861.84 72 
L 790.92 72 
z
" clip-path="url(#pe70d6e0ec3)" style="fill: #343134; stroke: #343134; stroke-linejoin: miter"/>
   </g>
   <g id="patch_34">
    <path d="M 861.84 133.2 
L 932.76 133.2 
L 932.76 72 
L 861.84 72 
z
" clip-path="url(#pe70d6e0ec3)" style="fill: #cabfbd; stroke: #cabfbd; stroke-linejoin: miter"/>
   </g>
   <g id="patch_35">
    <path d="M 932.76 133.2 
L 1003.68 133.2 
L 1003.68 72 
L 932.76 72 
z
" clip-path="url(#pe70d6e0ec3)" style="fill: #3c3328; stroke: #3c3328; stroke-linejoin: miter"/>
   </g>
   <g id="patch_36">
    <path d="M 1003.68 133.2 
L 1074.6 133.2 
L 1074.6 72 
L 1003.68 72 
z
" clip-path="url(#pe70d6e0ec3)" style="fill: #d1d5d0; stroke: #d1d5d0; stroke-linejoin: miter"/>
   </g>
   <g id="patch_37">
    <path d="M 1074.6 133.2 
L 1145.52 133.2 
L 1145.52 72 
L 1074.6 72 
z
" clip-path="url(#pe70d6e0ec3)" style="fill: #ceb5a9; stroke: #ceb5a9; stroke-linejoin: miter"/>
   </g>
   <g id="patch_38">
    <path d="M 1145.52 133.2 
L 1216.44 133.2 
L 1216.44 72 
L 1145.52 72 
z
" clip-path="url(#pe70d6e0ec3)" style="fill: #4a4231; stroke: #4a4231; stroke-linejoin: miter"/>
   </g>
  </g>
 </g>
 <defs>
  <clipPath id="pe70d6e0ec3">
   <rect x="10.8" y="10.8" width="1418.4" height="122.4"/>
  </clipPath>
 </defs>
</svg>
