<?xml version="1.0" encoding="utf-8" standalone="no"?>
<!DOCTYPE svg PUBLIC "-//W3C//DTD SVG 1.1//EN"
  "http://www.w3.org/Graphics/SVG/1.1/DTD/svg11.dtd">
<svg xmlns:xlink="http://www.w3.org/1999/xlink" width="1440pt" height="648pt" viewBox="0 0 1440 648" xmlns="http://www.w3.org/2000/svg" version="1.1">
 <metadata>
  <rdf:RDF xmlns:dc="http://purl.org/dc/elements/1.1/" xmlns:cc="http://creativecommons.org/ns#" xmlns:rdf="http://www.w3.org/1999/02/22-rdf-syntax-ns#">
   <cc:Work>
    <dc:type rdf:resource="http://purl.org/dc/dcmitype/StillImage"/>
    <dc:date>2025-05-04T17:21:07.598694</dc:date>
    <dc:format>image/svg+xml</dc:format>
    <dc:creator>
     <cc:Agent>
      <dc:title>Matplotlib v3.9.2, https://matplotlib.org/</dc:title>
     </cc:Agent>
    </dc:creator>
   </cc:Work>
  </rdf:RDF>
 </metadata>
 <defs>
  <style type="text/css">*{stroke-linejoin: round; stroke-linecap: butt}</style>
 </defs>
 <g id="figure_1">
  <g id="patch_1">
   <path d="M 0 648 
L 1440 648 
L 1440 0 
L 0 0 
z
" style="fill: #ffffff"/>
  </g>
  <g id="axes_1">
   <g id="patch_2">
    <path d="M 10.8 80.4 
L 81.72 80.4 
L 81.72 10.8 
L 10.8 10.8 
z
" clip-path="url(#p0bfc423143)" style="fill: #c3bcb4; stroke: #c3bcb4; stroke-linejoin: miter"/>
   </g>
   <g id="patch_3">
    <path d="M 81.72 80.4 
L 152.64 80.4 
L 152.64 10.8 
L 81.72 10.8 
z
" clip-path="url(#p0bfc423143)" style="fill: #d0c8c2; stroke: #d0c8c2; stroke-linejoin: miter"/>
   </g>
   <g id="patch_4">
    <path d="M 152.64 80.4 
L 223.56 80.4 
L 223.56 10.8 
L 152.64 10.8 
z
" clip-path="url(#p0bfc423143)" style="fill: #333735; stroke: #333735; stroke-linejoin: miter"/>
   </g>
   <g id="patch_5">
    <path d="M 223.56 80.4 
L 294.48 80.4 
L 294.48 10.8 
L 223.56 10.8 
z
" clip-path="url(#p0bfc423143)" style="fill: #d0c8c2; stroke: #d0c8c2; stroke-linejoin: miter"/>
   </g>
   <g id="patch_6">
    <path d="M 294.48 80.4 
L 365.4 80.4 
L 365.4 10.8 
L 294.48 10.8 
z
" clip-path="url(#p0bfc423143)" style="fill: #d4ccc8; stroke: #d4ccc8; stroke-linejoin: miter"/>
   </g>
   <g id="patch_7">
    <path d="M 365.4 80.4 
L 436.32 80.4 
L 436.32 10.8 
L 365.4 10.8 
z
" clip-path="url(#p0bfc423143)" style="fill: #c9c5c0; stroke: #c9c5c0; stroke-linejoin: miter"/>
   </g>
   <g id="patch_8">
    <path d="M 436.32 80.4 
L 507.24 80.4 
L 507.24 10.8 
L 436.32 10.8 
z
" clip-path="url(#p0bfc423143)" style="fill: #c8c1bd; stroke: #c8c1bd; stroke-linejoin: miter"/>
   </g>
   <g id="patch_9">
    <path d="M 507.24 80.4 
L 578.16 80.4 
L 578.16 10.8 
L 507.24 10.8 
z
" clip-path="url(#p0bfc423143)" style="fill: #3c3f35; stroke: #3c3f35; stroke-linejoin: miter"/>
   </g>
   <g id="patch_10">
    <path d="M 578.16 80.4 
L 649.08 80.4 
L 649.08 10.8 
L 578.16 10.8 
z
" clip-path="url(#p0bfc423143)" style="fill: #3c3f35; stroke: #3c3f35; stroke-linejoin: miter"/>
   </g>
   <g id="patch_11">
    <path d="M 649.08 80.4 
L 720 80.4 
L 720 10.8 
L 649.08 10.8 
z
" clip-path="url(#p0bfc423143)" style="fill: #3c3f35; stroke: #3c3f35; stroke-linejoin: miter"/>
   </g>
   <g id="patch_12">
    <path d="M 720 80.4 
L 790.92 80.4 
L 790.92 10.8 
L 720 10.8 
z
" clip-path="url(#p0bfc423143)" style="fill: #3c3f35; stroke: #3c3f35; stroke-linejoin: miter"/>
   </g>
   <g id="patch_13">
    <path d="M 790.92 80.4 
L 861.84 80.4 
L 861.84 10.8 
L 790.92 10.8 
z
" clip-path="url(#p0bfc423143)" style="fill: #3c3f35; stroke: #3c3f35; stroke-linejoin: miter"/>
   </g>
   <g id="patch_14">
    <path d="M 861.84 80.4 
L 932.76 80.4 
L 932.76 10.8 
L 861.84 10.8 
z
" clip-path="url(#p0bfc423143)" style="fill: #3c3f35; stroke: #3c3f35; stroke-linejoin: miter"/>
   </g>
   <g id="patch_15">
    <path d="M 932.76 80.4 
L 1003.68 80.4 
L 1003.68 10.8 
L 932.76 10.8 
z
" clip-path="url(#p0bfc423143)" style="fill: #3c3f35; stroke: #3c3f35; stroke-linejoin: miter"/>
   </g>
   <g id="patch_16">
    <path d="M 1003.68 80.4 
L 1074.6 80.4 
L 1074.6 10.8 
L 1003.68 10.8 
z
" clip-path="url(#p0bfc423143)" style="fill: #3c3f35; stroke: #3c3f35; stroke-linejoin: miter"/>
   </g>
   <g id="patch_17">
    <path d="M 1074.6 80.4 
L 1145.52 80.4 
L 1145.52 10.8 
L 1074.6 10.8 
z
" clip-path="url(#p0bfc423143)" style="fill: #3c3f35; stroke: #3c3f35; stroke-linejoin: miter"/>
   </g>
   <g id="patch_18">
    <path d="M 1145.52 80.4 
L 1216.44 80.4 
L 1216.44 10.8 
L 1145.52 10.8 
z
" clip-path="url(#p0bfc423143)" style="fill: #3b3834; stroke: #3b3834; stroke-linejoin: miter"/>
   </g>
   <g id="patch_19">
    <path d="M 1216.44 80.4 
L 1287.36 80.4 
L 1287.36 10.8 
L 1216.44 10.8 
z
" clip-path="url(#p0bfc423143)" style="fill: #c8b7a6; stroke: #c8b7a6; stroke-linejoin: miter"/>
   </g>
   <g id="patch_20">
    <path d="M 1287.36 80.4 
L 1358.28 80.4 
L 1358.28 10.8 
L 1287.36 10.8 
z
" clip-path="url(#p0bfc423143)" style="fill: #cfcbbf; stroke: #cfcbbf; stroke-linejoin: miter"/>
   </g>
   <g id="patch_21">
    <path d="M 1358.28 80.4 
L 1429.2 80.4 
L 1429.2 10.8 
L 1358.28 10.8 
z
" clip-path="url(#p0bfc423143)" style="fill: #7e7267; stroke: #7e7267; stroke-linejoin: miter"/>
   </g>
   <g id="patch_22">
    <path d="M 10.8 150 
L 81.72 150 
L 81.72 80.4 
L 10.8 80.4 
z
" clip-path="url(#p0bfc423143)" style="fill: #7e7267; stroke: #7e7267; stroke-linejoin: miter"/>
   </g>
   <g id="patch_23">
    <path d="M 81.72 150 
L 152.64 150 
L 152.64 80.4 
L 81.72 80.4 
z
" clip-path="url(#p0bfc423143)" style="fill: #7e7267; stroke: #7e7267; stroke-linejoin: miter"/>
   </g>
   <g id="patch_24">
    <path d="M 152.64 150 
L 223.56 150 
L 223.56 80.4 
L 152.64 80.4 
z
" clip-path="url(#p0bfc423143)" style="fill: #7e7267; stroke: #7e7267; stroke-linejoin: miter"/>
   </g>
   <g id="patch_25">
    <path d="M 223.56 150 
L 294.48 150 
L 294.48 80.4 
L 223.56 80.4 
z
" clip-path="url(#p0bfc423143)" style="fill: #c6bdb1; stroke: #c6bdb1; stroke-linejoin: miter"/>
   </g>
   <g id="patch_26">
    <path d="M 294.48 150 
L 365.4 150 
L 365.4 80.4 
L 294.48 80.4 
z
" clip-path="url(#p0bfc423143)" style="fill: #7e7267; stroke: #7e7267; stroke-linejoin: miter"/>
   </g>
   <g id="patch_27">
    <path d="M 365.4 150 
L 436.32 150 
L 436.32 80.4 
L 365.4 80.4 
z
" clip-path="url(#p0bfc423143)" style="fill: #7e7267; stroke: #7e7267; stroke-linejoin: miter"/>
   </g>
   <g id="patch_28">
    <path d="M 436.32 150 
L 507.24 150 
L 507.24 80.4 
L 436.32 80.4 
z
" clip-path="url(#p0bfc423143)" style="fill: #7e7267; stroke: #7e7267; stroke-linejoin: miter"/>
   </g>
   <g id="patch_29">
    <path d="M 507.24 150 
L 578.16 150 
L 578.16 80.4 
L 507.24 80.4 
z
" clip-path="url(#p0bfc423143)" style="fill: #897a67; stroke: #897a67; stroke-linejoin: miter"/>
   </g>
   <g id="patch_30">
    <path d="M 578.16 150 
L 649.08 150 
L 649.08 80.4 
L 578.16 80.4 
z
" clip-path="url(#p0bfc423143)" style="fill: #363636; stroke: #363636; stroke-linejoin: miter"/>
   </g>
   <g id="patch_31">
    <path d="M 649.08 150 
L 720 150 
L 720 80.4 
L 649.08 80.4 
z
" clip-path="url(#p0bfc423143)" style="fill: #755341; stroke: #755341; stroke-linejoin: miter"/>
   </g>
   <g id="patch_32">
    <path d="M 720 150 
L 790.92 150 
L 790.92 80.4 
L 720 80.4 
z
" clip-path="url(#p0bfc423143)" style="fill: #755341; stroke: #755341; stroke-linejoin: miter"/>
   </g>
   <g id="patch_33">
    <path d="M 790.92 150 
L 861.84 150 
L 861.84 80.4 
L 790.92 80.4 
z
" clip-path="url(#p0bfc423143)" style="fill: #cac0ab; stroke: #cac0ab; stroke-linejoin: miter"/>
   </g>
   <g id="patch_34">
    <path d="M 861.84 150 
L 932.76 150 
L 932.76 80.4 
L 861.84 80.4 
z
" clip-path="url(#p0bfc423143)" style="fill: #755341; stroke: #755341; stroke-linejoin: miter"/>
   </g>
   <g id="patch_35">
    <path d="M 932.76 150 
L 1003.68 150 
L 1003.68 80.4 
L 932.76 80.4 
z
" clip-path="url(#p0bfc423143)" style="fill: #755341; stroke: #755341; stroke-linejoin: miter"/>
   </g>
   <g id="patch_36">
    <path d="M 1003.68 150 
L 1074.6 150 
L 1074.6 80.4 
L 1003.68 80.4 
z
" clip-path="url(#p0bfc423143)" style="fill: #755341; stroke: #755341; stroke-linejoin: miter"/>
   </g>
   <g id="patch_37">
    <path d="M 1074.6 150 
L 1145.52 150 
L 1145.52 80.4 
L 1074.6 80.4 
z
" clip-path="url(#p0bfc423143)" style="fill: #cac0ab; stroke: #cac0ab; stroke-linejoin: miter"/>
   </g>
   <g id="patch_38">
    <path d="M 1145.52 150 
L 1216.44 150 
L 1216.44 80.4 
L 1145.52 80.4 
z
" clip-path="url(#p0bfc423143)" style="fill: #755341; stroke: #755341; stroke-linejoin: miter"/>
   </g>
   <g id="patch_39">
    <path d="M 1216.44 150 
L 1287.36 150 
L 1287.36 80.4 
L 1216.44 80.4 
z
" clip-path="url(#p0bfc423143)" style="fill: #d1bf9e; stroke: #d1bf9e; stroke-linejoin: miter"/>
   </g>
   <g id="patch_40">
    <path d="M 1287.36 150 
L 1358.28 150 
L 1358.28 80.4 
L 1287.36 80.4 
z
" clip-path="url(#p0bfc423143)" style="fill: #453b32; stroke: #453b32; stroke-linejoin: miter"/>
   </g>
   <g id="patch_41">
    <path d="M 1358.28 150 
L 1429.2 150 
L 1429.2 80.4 
L 1358.28 80.4 
z
" clip-path="url(#p0bfc423143)" style="fill: #d3c4b9; stroke: #d3c4b9; stroke-linejoin: miter"/>
   </g>
   <g id="patch_42">
    <path d="M 10.8 219.6 
L 81.72 219.6 
L 81.72 150 
L 10.8 150 
z
" clip-path="url(#p0bfc423143)" style="fill: #d3c4b9; stroke: #d3c4b9; stroke-linejoin: miter"/>
   </g>
   <g id="patch_43">
    <path d="M 81.72 219.6 
L 152.64 219.6 
L 152.64 150 
L 81.72 150 
z
" clip-path="url(#p0bfc423143)" style="fill: #d3c4b9; stroke: #d3c4b9; stroke-linejoin: miter"/>
   </g>
   <g id="patch_44">
    <path d="M 152.64 219.6 
L 223.56 219.6 
L 223.56 150 
L 152.64 150 
z
" clip-path="url(#p0bfc423143)" style="fill: #d3c4b9; stroke: #d3c4b9; stroke-linejoin: miter"/>
   </g>
   <g id="patch_45">
    <path d="M 223.56 219.6 
L 294.48 219.6 
L 294.48 150 
L 223.56 150 
z
" clip-path="url(#p0bfc423143)" style="fill: #d3c4b9; stroke: #d3c4b9; stroke-linejoin: miter"/>
   </g>
   <g id="patch_46">
    <path d="M 294.48 219.6 
L 365.4 219.6 
L 365.4 150 
L 294.48 150 
z
" clip-path="url(#p0bfc423143)" style="fill: #c7cac4; stroke: #c7cac4; stroke-linejoin: miter"/>
   </g>
   <g id="patch_47">
    <path d="M 365.4 219.6 
L 436.32 219.6 
L 436.32 150 
L 365.4 150 
z
" clip-path="url(#p0bfc423143)" style="fill: #b4a393; stroke: #b4a393; stroke-linejoin: miter"/>
   </g>
   <g id="patch_48">
    <path d="M 436.32 219.6 
L 507.24 219.6 
L 507.24 150 
L 436.32 150 
z
" clip-path="url(#p0bfc423143)" style="fill: #3a3937; stroke: #3a3937; stroke-linejoin: miter"/>
   </g>
   <g id="patch_49">
    <path d="M 507.24 219.6 
L 578.16 219.6 
L 578.16 150 
L 507.24 150 
z
" clip-path="url(#p0bfc423143)" style="fill: #26251e; stroke: #26251e; stroke-linejoin: miter"/>
   </g>
   <g id="patch_50">
    <path d="M 578.16 219.6 
L 649.08 219.6 
L 649.08 150 
L 578.16 150 
z
" clip-path="url(#p0bfc423143)" style="fill: #b4a393; stroke: #b4a393; stroke-linejoin: miter"/>
   </g>
   <g id="patch_51">
    <path d="M 649.08 219.6 
L 720 219.6 
L 720 150 
L 649.08 150 
z
" clip-path="url(#p0bfc423143)" style="fill: #d6ccc2; stroke: #d6ccc2; stroke-linejoin: miter"/>
   </g>
   <g id="patch_52">
    <path d="M 720 219.6 
L 790.92 219.6 
L 790.92 150 
L 720 150 
z
" clip-path="url(#p0bfc423143)" style="fill: #d3c4b9; stroke: #d3c4b9; stroke-linejoin: miter"/>
   </g>
   <g id="patch_53">
    <path d="M 790.92 219.6 
L 861.84 219.6 
L 861.84 150 
L 790.92 150 
z
" clip-path="url(#p0bfc423143)" style="fill: #d3c4b9; stroke: #d3c4b9; stroke-linejoin: miter"/>
   </g>
   <g id="patch_54">
    <path d="M 861.84 219.6 
L 932.76 219.6 
L 932.76 150 
L 861.84 150 
z
" clip-path="url(#p0bfc423143)" style="fill: #d3c4b9; stroke: #d3c4b9; stroke-linejoin: miter"/>
   </g>
   <g id="patch_55">
    <path d="M 932.76 219.6 
L 1003.68 219.6 
L 1003.68 150 
L 932.76 150 
z
" clip-path="url(#p0bfc423143)" style="fill: #c7cac4; stroke: #c7cac4; stroke-linejoin: miter"/>
   </g>
   <g id="patch_56">
    <path d="M 1003.68 219.6 
L 1074.6 219.6 
L 1074.6 150 
L 1003.68 150 
z
" clip-path="url(#p0bfc423143)" style="fill: #dbc0a0; stroke: #dbc0a0; stroke-linejoin: miter"/>
   </g>
   <g id="patch_57">
    <path d="M 1074.6 219.6 
L 1145.52 219.6 
L 1145.52 150 
L 1074.6 150 
z
" clip-path="url(#p0bfc423143)" style="fill: #3e3629; stroke: #3e3629; stroke-linejoin: miter"/>
   </g>
   <g id="patch_58">
    <path d="M 1145.52 219.6 
L 1216.44 219.6 
L 1216.44 150 
L 1145.52 150 
z
" clip-path="url(#p0bfc423143)" style="fill: #c5beb3; stroke: #c5beb3; stroke-linejoin: miter"/>
   </g>
   <g id="patch_59">
    <path d="M 1216.44 219.6 
L 1287.36 219.6 
L 1287.36 150 
L 1216.44 150 
z
" clip-path="url(#p0bfc423143)" style="fill: #3e3629; stroke: #3e3629; stroke-linejoin: miter"/>
   </g>
   <g id="patch_60">
    <path d="M 1287.36 219.6 
L 1358.28 219.6 
L 1358.28 150 
L 1287.36 150 
z
" clip-path="url(#p0bfc423143)" style="fill: #1b1d1d; stroke: #1b1d1d; stroke-linejoin: miter"/>
   </g>
   <g id="patch_61">
    <path d="M 1358.28 219.6 
L 1429.2 219.6 
L 1429.2 150 
L 1358.28 150 
z
" clip-path="url(#p0bfc423143)" style="fill: #c6c5c3; stroke: #c6c5c3; stroke-linejoin: miter"/>
   </g>
   <g id="patch_62">
    <path d="M 10.8 289.2 
L 81.72 289.2 
L 81.72 219.6 
L 10.8 219.6 
z
" clip-path="url(#p0bfc423143)" style="fill: #d3cdc0; stroke: #d3cdc0; stroke-linejoin: miter"/>
   </g>
   <g id="patch_63">
    <path d="M 81.72 289.2 
L 152.64 289.2 
L 152.64 219.6 
L 81.72 219.6 
z
" clip-path="url(#p0bfc423143)" style="fill: #413933; stroke: #413933; stroke-linejoin: miter"/>
   </g>
   <g id="patch_64">
    <path d="M 152.64 289.2 
L 223.56 289.2 
L 223.56 219.6 
L 152.64 219.6 
z
" clip-path="url(#p0bfc423143)" style="fill: #332c20; stroke: #332c20; stroke-linejoin: miter"/>
   </g>
   <g id="patch_65">
    <path d="M 223.56 289.2 
L 294.48 289.2 
L 294.48 219.6 
L 223.56 219.6 
z
" clip-path="url(#p0bfc423143)" style="fill: #332c20; stroke: #332c20; stroke-linejoin: miter"/>
   </g>
   <g id="patch_66">
    <path d="M 294.48 289.2 
L 365.4 289.2 
L 365.4 219.6 
L 294.48 219.6 
z
" clip-path="url(#p0bfc423143)" style="fill: #baada1; stroke: #baada1; stroke-linejoin: miter"/>
   </g>
   <g id="patch_67">
    <path d="M 365.4 289.2 
L 436.32 289.2 
L 436.32 219.6 
L 365.4 219.6 
z
" clip-path="url(#p0bfc423143)" style="fill: #cbc2b3; stroke: #cbc2b3; stroke-linejoin: miter"/>
   </g>
   <g id="patch_68">
    <path d="M 436.32 289.2 
L 507.24 289.2 
L 507.24 219.6 
L 436.32 219.6 
z
" clip-path="url(#p0bfc423143)" style="fill: #c4baae; stroke: #c4baae; stroke-linejoin: miter"/>
   </g>
   <g id="patch_69">
    <path d="M 507.24 289.2 
L 578.16 289.2 
L 578.16 219.6 
L 507.24 219.6 
z
" clip-path="url(#p0bfc423143)" style="fill: #c4baae; stroke: #c4baae; stroke-linejoin: miter"/>
   </g>
   <g id="patch_70">
    <path d="M 578.16 289.2 
L 649.08 289.2 
L 649.08 219.6 
L 578.16 219.6 
z
" clip-path="url(#p0bfc423143)" style="fill: #c5b9b0; stroke: #c5b9b0; stroke-linejoin: miter"/>
   </g>
   <g id="patch_71">
    <path d="M 649.08 289.2 
L 720 289.2 
L 720 219.6 
L 649.08 219.6 
z
" clip-path="url(#p0bfc423143)" style="fill: #ad9682; stroke: #ad9682; stroke-linejoin: miter"/>
   </g>
   <g id="patch_72">
    <path d="M 720 289.2 
L 790.92 289.2 
L 790.92 219.6 
L 720 219.6 
z
" clip-path="url(#p0bfc423143)" style="fill: #7d6858; stroke: #7d6858; stroke-linejoin: miter"/>
   </g>
   <g id="patch_73">
    <path d="M 790.92 289.2 
L 861.84 289.2 
L 861.84 219.6 
L 790.92 219.6 
z
" clip-path="url(#p0bfc423143)" style="fill: #cbbfb5; stroke: #cbbfb5; stroke-linejoin: miter"/>
   </g>
   <g id="patch_74">
    <path d="M 861.84 289.2 
L 932.76 289.2 
L 932.76 219.6 
L 861.84 219.6 
z
" clip-path="url(#p0bfc423143)" style="fill: #7d6858; stroke: #7d6858; stroke-linejoin: miter"/>
   </g>
   <g id="patch_75">
    <path d="M 932.76 289.2 
L 1003.68 289.2 
L 1003.68 219.6 
L 932.76 219.6 
z
" clip-path="url(#p0bfc423143)" style="fill: #252528; stroke: #252528; stroke-linejoin: miter"/>
   </g>
   <g id="patch_76">
    <path d="M 1003.68 289.2 
L 1074.6 289.2 
L 1074.6 219.6 
L 1003.68 219.6 
z
" clip-path="url(#p0bfc423143)" style="fill: #d9d2bd; stroke: #d9d2bd; stroke-linejoin: miter"/>
   </g>
   <g id="patch_77">
    <path d="M 1074.6 289.2 
L 1145.52 289.2 
L 1145.52 219.6 
L 1074.6 219.6 
z
" clip-path="url(#p0bfc423143)" style="fill: #b88951; stroke: #b88951; stroke-linejoin: miter"/>
   </g>
   <g id="patch_78">
    <path d="M 1145.52 289.2 
L 1216.44 289.2 
L 1216.44 219.6 
L 1145.52 219.6 
z
" clip-path="url(#p0bfc423143)" style="fill: #c7baaf; stroke: #c7baaf; stroke-linejoin: miter"/>
   </g>
   <g id="patch_79">
    <path d="M 1216.44 289.2 
L 1287.36 289.2 
L 1287.36 219.6 
L 1216.44 219.6 
z
" clip-path="url(#p0bfc423143)" style="fill: #c7bbac; stroke: #c7bbac; stroke-linejoin: miter"/>
   </g>
   <g id="patch_80">
    <path d="M 1287.36 289.2 
L 1358.28 289.2 
L 1358.28 219.6 
L 1287.36 219.6 
z
" clip-path="url(#p0bfc423143)" style="fill: #c7bbac; stroke: #c7bbac; stroke-linejoin: miter"/>
   </g>
   <g id="patch_81">
    <path d="M 1358.28 289.2 
L 1429.2 289.2 
L 1429.2 219.6 
L 1358.28 219.6 
z
" clip-path="url(#p0bfc423143)" style="fill: #38302e; stroke: #38302e; stroke-linejoin: miter"/>
   </g>
   <g id="patch_82">
    <path d="M 10.8 358.8 
L 81.72 358.8 
L 81.72 289.2 
L 10.8 289.2 
z
" clip-path="url(#p0bfc423143)" style="fill: #323634; stroke: #323634; stroke-linejoin: miter"/>
   </g>
   <g id="patch_83">
    <path d="M 81.72 358.8 
L 152.64 358.8 
L 152.64 289.2 
L 81.72 289.2 
z
" clip-path="url(#p0bfc423143)" style="fill: #392c24; stroke: #392c24; stroke-linejoin: miter"/>
   </g>
   <g id="patch_84">
    <path d="M 152.64 358.8 
L 223.56 358.8 
L 223.56 289.2 
L 152.64 289.2 
z
" clip-path="url(#p0bfc423143)" style="fill: #392c24; stroke: #392c24; stroke-linejoin: miter"/>
   </g>
   <g id="patch_85">
    <path d="M 223.56 358.8 
L 294.48 358.8 
L 294.48 289.2 
L 223.56 289.2 
z
" clip-path="url(#p0bfc423143)" style="fill: #392c24; stroke: #392c24; stroke-linejoin: miter"/>
   </g>
   <g id="patch_86">
    <path d="M 294.48 358.8 
L 365.4 358.8 
L 365.4 289.2 
L 294.48 289.2 
z
" clip-path="url(#p0bfc423143)" style="fill: #392c24; stroke: #392c24; stroke-linejoin: miter"/>
   </g>
   <g id="patch_87">
    <path d="M 365.4 358.8 
L 436.32 358.8 
L 436.32 289.2 
L 365.4 289.2 
z
" clip-path="url(#p0bfc423143)" style="fill: #392c24; stroke: #392c24; stroke-linejoin: miter"/>
   </g>
   <g id="patch_88">
    <path d="M 436.32 358.8 
L 507.24 358.8 
L 507.24 289.2 
L 436.32 289.2 
z
" clip-path="url(#p0bfc423143)" style="fill: #392c24; stroke: #392c24; stroke-linejoin: miter"/>
   </g>
   <g id="patch_89">
    <path d="M 507.24 358.8 
L 578.16 358.8 
L 578.16 289.2 
L 507.24 289.2 
z
" clip-path="url(#p0bfc423143)" style="fill: #392c24; stroke: #392c24; stroke-linejoin: miter"/>
   </g>
   <g id="patch_90">
    <path d="M 578.16 358.8 
L 649.08 358.8 
L 649.08 289.2 
L 578.16 289.2 
z
" clip-path="url(#p0bfc423143)" style="fill: #392c24; stroke: #392c24; stroke-linejoin: miter"/>
   </g>
   <g id="patch_91">
    <path d="M 649.08 358.8 
L 720 358.8 
L 720 289.2 
L 649.08 289.2 
z
" clip-path="url(#p0bfc423143)" style="fill: #d98387; stroke: #d98387; stroke-linejoin: miter"/>
   </g>
   <g id="patch_92">
    <path d="M 720 358.8 
L 790.92 358.8 
L 790.92 289.2 
L 720 289.2 
z
" clip-path="url(#p0bfc423143)" style="fill: #bcb2a3; stroke: #bcb2a3; stroke-linejoin: miter"/>
   </g>
   <g id="patch_93">
    <path d="M 790.92 358.8 
L 861.84 358.8 
L 861.84 289.2 
L 790.92 289.2 
z
" clip-path="url(#p0bfc423143)" style="fill: #27303c; stroke: #27303c; stroke-linejoin: miter"/>
   </g>
   <g id="patch_94">
    <path d="M 861.84 358.8 
L 932.76 358.8 
L 932.76 289.2 
L 861.84 289.2 
z
" clip-path="url(#p0bfc423143)" style="fill: #dadada; stroke: #dadada; stroke-linejoin: miter"/>
   </g>
   <g id="patch_95">
    <path d="M 932.76 358.8 
L 1003.68 358.8 
L 1003.68 289.2 
L 932.76 289.2 
z
" clip-path="url(#p0bfc423143)" style="fill: #302438; stroke: #302438; stroke-linejoin: miter"/>
   </g>
   <g id="patch_96">
    <path d="M 1003.68 358.8 
L 1074.6 358.8 
L 1074.6 289.2 
L 1003.68 289.2 
z
" clip-path="url(#p0bfc423143)" style="fill: #d9d1c5; stroke: #d9d1c5; stroke-linejoin: miter"/>
   </g>
   <g id="patch_97">
    <path d="M 1074.6 358.8 
L 1145.52 358.8 
L 1145.52 289.2 
L 1074.6 289.2 
z
" clip-path="url(#p0bfc423143)" style="fill: #b28c6e; stroke: #b28c6e; stroke-linejoin: miter"/>
   </g>
   <g id="patch_98">
    <path d="M 1145.52 358.8 
L 1216.44 358.8 
L 1216.44 289.2 
L 1145.52 289.2 
z
" clip-path="url(#p0bfc423143)" style="fill: #bcb2a3; stroke: #bcb2a3; stroke-linejoin: miter"/>
   </g>
   <g id="patch_99">
    <path d="M 1216.44 358.8 
L 1287.36 358.8 
L 1287.36 289.2 
L 1216.44 289.2 
z
" clip-path="url(#p0bfc423143)" style="fill: #bcb2a3; stroke: #bcb2a3; stroke-linejoin: miter"/>
   </g>
   <g id="patch_100">
    <path d="M 1287.36 358.8 
L 1358.28 358.8 
L 1358.28 289.2 
L 1287.36 289.2 
z
" clip-path="url(#p0bfc423143)" style="fill: #393738; stroke: #393738; stroke-linejoin: miter"/>
   </g>
   <g id="patch_101">
    <path d="M 1358.28 358.8 
L 1429.2 358.8 
L 1429.2 289.2 
L 1358.28 289.2 
z
" clip-path="url(#p0bfc423143)" style="fill: #c4bfb6; stroke: #c4bfb6; stroke-linejoin: miter"/>
   </g>
   <g id="patch_102">
    <path d="M 10.8 428.4 
L 81.72 428.4 
L 81.72 358.8 
L 10.8 358.8 
z
" clip-path="url(#p0bfc423143)" style="fill: #bfb5ad; stroke: #bfb5ad; stroke-linejoin: miter"/>
   </g>
   <g id="patch_103">
    <path d="M 81.72 428.4 
L 152.64 428.4 
L 152.64 358.8 
L 81.72 358.8 
z
" clip-path="url(#p0bfc423143)" style="fill: #bfb5ad; stroke: #bfb5ad; stroke-linejoin: miter"/>
   </g>
   <g id="patch_104">
    <path d="M 152.64 428.4 
L 223.56 428.4 
L 223.56 358.8 
L 152.64 358.8 
z
" clip-path="url(#p0bfc423143)" style="fill: #927a63; stroke: #927a63; stroke-linejoin: miter"/>
   </g>
   <g id="patch_105">
    <path d="M 223.56 428.4 
L 294.48 428.4 
L 294.48 358.8 
L 223.56 358.8 
z
" clip-path="url(#p0bfc423143)" style="fill: #7c6146; stroke: #7c6146; stroke-linejoin: miter"/>
   </g>
   <g id="patch_106">
    <path d="M 294.48 428.4 
L 365.4 428.4 
L 365.4 358.8 
L 294.48 358.8 
z
" clip-path="url(#p0bfc423143)" style="fill: #beb4a8; stroke: #beb4a8; stroke-linejoin: miter"/>
   </g>
   <g id="patch_107">
    <path d="M 365.4 428.4 
L 436.32 428.4 
L 436.32 358.8 
L 365.4 358.8 
z
" clip-path="url(#p0bfc423143)" style="fill: #9e7652; stroke: #9e7652; stroke-linejoin: miter"/>
   </g>
   <g id="patch_108">
    <path d="M 436.32 428.4 
L 507.24 428.4 
L 507.24 358.8 
L 436.32 358.8 
z
" clip-path="url(#p0bfc423143)" style="fill: #9e7652; stroke: #9e7652; stroke-linejoin: miter"/>
   </g>
   <g id="patch_109">
    <path d="M 507.24 428.4 
L 578.16 428.4 
L 578.16 358.8 
L 507.24 358.8 
z
" clip-path="url(#p0bfc423143)" style="fill: #9e7652; stroke: #9e7652; stroke-linejoin: miter"/>
   </g>
   <g id="patch_110">
    <path d="M 578.16 428.4 
L 649.08 428.4 
L 649.08 358.8 
L 578.16 358.8 
z
" clip-path="url(#p0bfc423143)" style="fill: #dbd6c8; stroke: #dbd6c8; stroke-linejoin: miter"/>
   </g>
   <g id="patch_111">
    <path d="M 649.08 428.4 
L 720 428.4 
L 720 358.8 
L 649.08 358.8 
z
" clip-path="url(#p0bfc423143)" style="fill: #3d2e1f; stroke: #3d2e1f; stroke-linejoin: miter"/>
   </g>
   <g id="patch_112">
    <path d="M 720 428.4 
L 790.92 428.4 
L 790.92 358.8 
L 720 358.8 
z
" clip-path="url(#p0bfc423143)" style="fill: #9e7652; stroke: #9e7652; stroke-linejoin: miter"/>
   </g>
   <g id="patch_113">
    <path d="M 790.92 428.4 
L 861.84 428.4 
L 861.84 358.8 
L 790.92 358.8 
z
" clip-path="url(#p0bfc423143)" style="fill: #cac5b9; stroke: #cac5b9; stroke-linejoin: miter"/>
   </g>
   <g id="patch_114">
    <path d="M 861.84 428.4 
L 932.76 428.4 
L 932.76 358.8 
L 861.84 358.8 
z
" clip-path="url(#p0bfc423143)" style="fill: #9e7652; stroke: #9e7652; stroke-linejoin: miter"/>
   </g>
   <g id="patch_115">
    <path d="M 932.76 428.4 
L 1003.68 428.4 
L 1003.68 358.8 
L 932.76 358.8 
z
" clip-path="url(#p0bfc423143)" style="fill: #ccb3a3; stroke: #ccb3a3; stroke-linejoin: miter"/>
   </g>
   <g id="patch_116">
    <path d="M 1003.68 428.4 
L 1074.6 428.4 
L 1074.6 358.8 
L 1003.68 358.8 
z
" clip-path="url(#p0bfc423143)" style="fill: #917f66; stroke: #917f66; stroke-linejoin: miter"/>
   </g>
   <g id="patch_117">
    <path d="M 1074.6 428.4 
L 1145.52 428.4 
L 1145.52 358.8 
L 1074.6 358.8 
z
" clip-path="url(#p0bfc423143)" style="fill: #ab9982; stroke: #ab9982; stroke-linejoin: miter"/>
   </g>
   <g id="patch_118">
    <path d="M 1145.52 428.4 
L 1216.44 428.4 
L 1216.44 358.8 
L 1145.52 358.8 
z
" clip-path="url(#p0bfc423143)" style="fill: #ab9982; stroke: #ab9982; stroke-linejoin: miter"/>
   </g>
   <g id="patch_119">
    <path d="M 1216.44 428.4 
L 1287.36 428.4 
L 1287.36 358.8 
L 1216.44 358.8 
z
" clip-path="url(#p0bfc423143)" style="fill: #2f3638; stroke: #2f3638; stroke-linejoin: miter"/>
   </g>
   <g id="patch_120">
    <path d="M 1287.36 428.4 
L 1358.28 428.4 
L 1358.28 358.8 
L 1287.36 358.8 
z
" clip-path="url(#p0bfc423143)" style="fill: #b07152; stroke: #b07152; stroke-linejoin: miter"/>
   </g>
   <g id="patch_121">
    <path d="M 1358.28 428.4 
L 1429.2 428.4 
L 1429.2 358.8 
L 1358.28 358.8 
z
" clip-path="url(#p0bfc423143)" style="fill: #423c33; stroke: #423c33; stroke-linejoin: miter"/>
   </g>
   <g id="patch_122">
    <path d="M 10.8 498 
L 81.72 498 
L 81.72 428.4 
L 10.8 428.4 
z
" clip-path="url(#p0bfc423143)" style="fill: #303131; stroke: #303131; stroke-linejoin: miter"/>
   </g>
   <g id="patch_123">
    <path d="M 81.72 498 
L 152.64 498 
L 152.64 428.4 
L 81.72 428.4 
z
" clip-path="url(#p0bfc423143)" style="fill: #aa7f61; stroke: #aa7f61; stroke-linejoin: miter"/>
   </g>
   <g id="patch_124">
    <path d="M 152.64 498 
L 223.56 498 
L 223.56 428.4 
L 152.64 428.4 
z
" clip-path="url(#p0bfc423143)" style="fill: #c7bdb0; stroke: #c7bdb0; stroke-linejoin: miter"/>
   </g>
   <g id="patch_125">
    <path d="M 223.56 498 
L 294.48 498 
L 294.48 428.4 
L 223.56 428.4 
z
" clip-path="url(#p0bfc423143)" style="fill: #c7bdb0; stroke: #c7bdb0; stroke-linejoin: miter"/>
   </g>
   <g id="patch_126">
    <path d="M 294.48 498 
L 365.4 498 
L 365.4 428.4 
L 294.48 428.4 
z
" clip-path="url(#p0bfc423143)" style="fill: #c7bdb0; stroke: #c7bdb0; stroke-linejoin: miter"/>
   </g>
   <g id="patch_127">
    <path d="M 365.4 498 
L 436.32 498 
L 436.32 428.4 
L 365.4 428.4 
z
" clip-path="url(#p0bfc423143)" style="fill: #c7bdb0; stroke: #c7bdb0; stroke-linejoin: miter"/>
   </g>
   <g id="patch_128">
    <path d="M 436.32 498 
L 507.24 498 
L 507.24 428.4 
L 436.32 428.4 
z
" clip-path="url(#p0bfc423143)" style="fill: #c7bdb0; stroke: #c7bdb0; stroke-linejoin: miter"/>
   </g>
   <g id="patch_129">
    <path d="M 507.24 498 
L 578.16 498 
L 578.16 428.4 
L 507.24 428.4 
z
" clip-path="url(#p0bfc423143)" style="fill: #bdb5ac; stroke: #bdb5ac; stroke-linejoin: miter"/>
   </g>
   <g id="patch_130">
    <path d="M 578.16 498 
L 649.08 498 
L 649.08 428.4 
L 578.16 428.4 
z
" clip-path="url(#p0bfc423143)" style="fill: #cab9a8; stroke: #cab9a8; stroke-linejoin: miter"/>
   </g>
   <g id="patch_131">
    <path d="M 649.08 498 
L 720 498 
L 720 428.4 
L 649.08 428.4 
z
" clip-path="url(#p0bfc423143)" style="fill: #c2b6a4; stroke: #c2b6a4; stroke-linejoin: miter"/>
   </g>
   <g id="patch_132">
    <path d="M 720 498 
L 790.92 498 
L 790.92 428.4 
L 720 428.4 
z
" clip-path="url(#p0bfc423143)" style="fill: #413229; stroke: #413229; stroke-linejoin: miter"/>
   </g>
   <g id="patch_133">
    <path d="M 790.92 498 
L 861.84 498 
L 861.84 428.4 
L 790.92 428.4 
z
" clip-path="url(#p0bfc423143)" style="fill: #242821; stroke: #242821; stroke-linejoin: miter"/>
   </g>
   <g id="patch_134">
    <path d="M 861.84 498 
L 932.76 498 
L 932.76 428.4 
L 861.84 428.4 
z
" clip-path="url(#p0bfc423143)" style="fill: #e6d9d1; stroke: #e6d9d1; stroke-linejoin: miter"/>
   </g>
   <g id="patch_135">
    <path d="M 932.76 498 
L 1003.68 498 
L 1003.68 428.4 
L 932.76 428.4 
z
" clip-path="url(#p0bfc423143)" style="fill: #cac0ba; stroke: #cac0ba; stroke-linejoin: miter"/>
   </g>
   <g id="patch_136">
    <path d="M 1003.68 498 
L 1074.6 498 
L 1074.6 428.4 
L 1003.68 428.4 
z
" clip-path="url(#p0bfc423143)" style="fill: #2d2726; stroke: #2d2726; stroke-linejoin: miter"/>
   </g>
   <g id="patch_137">
    <path d="M 1074.6 498 
L 1145.52 498 
L 1145.52 428.4 
L 1074.6 428.4 
z
" clip-path="url(#p0bfc423143)" style="fill: #ac8261; stroke: #ac8261; stroke-linejoin: miter"/>
   </g>
   <g id="patch_138">
    <path d="M 1145.52 498 
L 1216.44 498 
L 1216.44 428.4 
L 1145.52 428.4 
z
" clip-path="url(#p0bfc423143)" style="fill: #3b3a2e; stroke: #3b3a2e; stroke-linejoin: miter"/>
   </g>
   <g id="patch_139">
    <path d="M 1216.44 498 
L 1287.36 498 
L 1287.36 428.4 
L 1216.44 428.4 
z
" clip-path="url(#p0bfc423143)" style="fill: #c5bfb5; stroke: #c5bfb5; stroke-linejoin: miter"/>
   </g>
   <g id="patch_140">
    <path d="M 1287.36 498 
L 1358.28 498 
L 1358.28 428.4 
L 1287.36 428.4 
z
" clip-path="url(#p0bfc423143)" style="fill: #b2b5a7; stroke: #b2b5a7; stroke-linejoin: miter"/>
   </g>
   <g id="patch_141">
    <path d="M 1358.28 498 
L 1429.2 498 
L 1429.2 428.4 
L 1358.28 428.4 
z
" clip-path="url(#p0bfc423143)" style="fill: #232e2a; stroke: #232e2a; stroke-linejoin: miter"/>
   </g>
   <g id="patch_142">
    <path d="M 10.8 567.6 
L 81.72 567.6 
L 81.72 498 
L 10.8 498 
z
" clip-path="url(#p0bfc423143)" style="fill: #232e2a; stroke: #232e2a; stroke-linejoin: miter"/>
   </g>
   <g id="patch_143">
    <path d="M 81.72 567.6 
L 152.64 567.6 
L 152.64 498 
L 81.72 498 
z
" clip-path="url(#p0bfc423143)" style="fill: #2e3135; stroke: #2e3135; stroke-linejoin: miter"/>
   </g>
   <g id="patch_144">
    <path d="M 152.64 567.6 
L 223.56 567.6 
L 223.56 498 
L 152.64 498 
z
" clip-path="url(#p0bfc423143)" style="fill: #133348; stroke: #133348; stroke-linejoin: miter"/>
   </g>
   <g id="patch_145">
    <path d="M 223.56 567.6 
L 294.48 567.6 
L 294.48 498 
L 223.56 498 
z
" clip-path="url(#p0bfc423143)" style="fill: #82604b; stroke: #82604b; stroke-linejoin: miter"/>
   </g>
   <g id="patch_146">
    <path d="M 294.48 567.6 
L 365.4 567.6 
L 365.4 498 
L 294.48 498 
z
" clip-path="url(#p0bfc423143)" style="fill: #272a2e; stroke: #272a2e; stroke-linejoin: miter"/>
   </g>
   <g id="patch_147">
    <path d="M 365.4 567.6 
L 436.32 567.6 
L 436.32 498 
L 365.4 498 
z
" clip-path="url(#p0bfc423143)" style="fill: #c49f8b; stroke: #c49f8b; stroke-linejoin: miter"/>
   </g>
   <g id="patch_148">
    <path d="M 436.32 567.6 
L 507.24 567.6 
L 507.24 498 
L 436.32 498 
z
" clip-path="url(#p0bfc423143)" style="fill: #b0a188; stroke: #b0a188; stroke-linejoin: miter"/>
   </g>
   <g id="patch_149">
    <path d="M 507.24 567.6 
L 578.16 567.6 
L 578.16 498 
L 507.24 498 
z
" clip-path="url(#p0bfc423143)" style="fill: #b38e80; stroke: #b38e80; stroke-linejoin: miter"/>
   </g>
   <g id="patch_150">
    <path d="M 578.16 567.6 
L 649.08 567.6 
L 649.08 498 
L 578.16 498 
z
" clip-path="url(#p0bfc423143)" style="fill: #af8c6b; stroke: #af8c6b; stroke-linejoin: miter"/>
   </g>
   <g id="patch_151">
    <path d="M 649.08 567.6 
L 720 567.6 
L 720 498 
L 649.08 498 
z
" clip-path="url(#p0bfc423143)" style="fill: #b4967b; stroke: #b4967b; stroke-linejoin: miter"/>
   </g>
   <g id="patch_152">
    <path d="M 720 567.6 
L 790.92 567.6 
L 790.92 498 
L 720 498 
z
" clip-path="url(#p0bfc423143)" style="fill: #d7bdc9; stroke: #d7bdc9; stroke-linejoin: miter"/>
   </g>
   <g id="patch_153">
    <path d="M 790.92 567.6 
L 861.84 567.6 
L 861.84 498 
L 790.92 498 
z
" clip-path="url(#p0bfc423143)" style="fill: #b49e86; stroke: #b49e86; stroke-linejoin: miter"/>
   </g>
   <g id="patch_154">
    <path d="M 861.84 567.6 
L 932.76 567.6 
L 932.76 498 
L 861.84 498 
z
" clip-path="url(#p0bfc423143)" style="fill: #d6b49a; stroke: #d6b49a; stroke-linejoin: miter"/>
   </g>
   <g id="patch_155">
    <path d="M 932.76 567.6 
L 1003.68 567.6 
L 1003.68 498 
L 932.76 498 
z
" clip-path="url(#p0bfc423143)" style="fill: #3d3936; stroke: #3d3936; stroke-linejoin: miter"/>
   </g>
   <g id="patch_156">
    <path d="M 1003.68 567.6 
L 1074.6 567.6 
L 1074.6 498 
L 1003.68 498 
z
" clip-path="url(#p0bfc423143)" style="fill: #3d3936; stroke: #3d3936; stroke-linejoin: miter"/>
   </g>
   <g id="patch_157">
    <path d="M 1074.6 567.6 
L 1145.52 567.6 
L 1145.52 498 
L 1074.6 498 
z
" clip-path="url(#p0bfc423143)" style="fill: #3d3936; stroke: #3d3936; stroke-linejoin: miter"/>
   </g>
   <g id="patch_158">
    <path d="M 1145.52 567.6 
L 1216.44 567.6 
L 1216.44 498 
L 1145.52 498 
z
" clip-path="url(#p0bfc423143)" style="fill: #c3b9b2; stroke: #c3b9b2; stroke-linejoin: miter"/>
   </g>
   <g id="patch_159">
    <path d="M 1216.44 567.6 
L 1287.36 567.6 
L 1287.36 498 
L 1216.44 498 
z
" clip-path="url(#p0bfc423143)" style="fill: #d1c1b5; stroke: #d1c1b5; stroke-linejoin: miter"/>
   </g>
   <g id="patch_160">
    <path d="M 1287.36 567.6 
L 1358.28 567.6 
L 1358.28 498 
L 1287.36 498 
z
" clip-path="url(#p0bfc423143)" style="fill: #b4a68d; stroke: #b4a68d; stroke-linejoin: miter"/>
   </g>
   <g id="patch_161">
    <path d="M 1358.28 567.6 
L 1429.2 567.6 
L 1429.2 498 
L 1358.28 498 
z
" clip-path="url(#p0bfc423143)" style="fill: #ddd4c1; stroke: #ddd4c1; stroke-linejoin: miter"/>
   </g>
   <g id="patch_162">
    <path d="M 10.8 637.2 
L 81.72 637.2 
L 81.72 567.6 
L 10.8 567.6 
z
" clip-path="url(#p0bfc423143)" style="fill: #363634; stroke: #363634; stroke-linejoin: miter"/>
   </g>
   <g id="patch_163">
    <path d="M 81.72 637.2 
L 152.64 637.2 
L 152.64 567.6 
L 81.72 567.6 
z
" clip-path="url(#p0bfc423143)" style="fill: #d2c7bb; stroke: #d2c7bb; stroke-linejoin: miter"/>
   </g>
   <g id="patch_164">
    <path d="M 152.64 637.2 
L 223.56 637.2 
L 223.56 567.6 
L 152.64 567.6 
z
" clip-path="url(#p0bfc423143)" style="fill: #d2c7bb; stroke: #d2c7bb; stroke-linejoin: miter"/>
   </g>
   <g id="patch_165">
    <path d="M 223.56 637.2 
L 294.48 637.2 
L 294.48 567.6 
L 223.56 567.6 
z
" clip-path="url(#p0bfc423143)" style="fill: #ccc1b7; stroke: #ccc1b7; stroke-linejoin: miter"/>
   </g>
   <g id="patch_166">
    <path d="M 294.48 637.2 
L 365.4 637.2 
L 365.4 567.6 
L 294.48 567.6 
z
" clip-path="url(#p0bfc423143)" style="fill: #ccc1b7; stroke: #ccc1b7; stroke-linejoin: miter"/>
   </g>
   <g id="patch_167">
    <path d="M 365.4 637.2 
L 436.32 637.2 
L 436.32 567.6 
L 365.4 567.6 
z
" clip-path="url(#p0bfc423143)" style="fill: #af9d86; stroke: #af9d86; stroke-linejoin: miter"/>
   </g>
   <g id="patch_168">
    <path d="M 436.32 637.2 
L 507.24 637.2 
L 507.24 567.6 
L 436.32 567.6 
z
" clip-path="url(#p0bfc423143)" style="fill: #cdbfb3; stroke: #cdbfb3; stroke-linejoin: miter"/>
   </g>
   <g id="patch_169">
    <path d="M 507.24 637.2 
L 578.16 637.2 
L 578.16 567.6 
L 507.24 567.6 
z
" clip-path="url(#p0bfc423143)" style="fill: #cec7bd; stroke: #cec7bd; stroke-linejoin: miter"/>
   </g>
   <g id="patch_170">
    <path d="M 578.16 637.2 
L 649.08 637.2 
L 649.08 567.6 
L 578.16 567.6 
z
" clip-path="url(#p0bfc423143)" style="fill: #beb6a9; stroke: #beb6a9; stroke-linejoin: miter"/>
   </g>
   <g id="patch_171">
    <path d="M 649.08 637.2 
L 720 637.2 
L 720 567.6 
L 649.08 567.6 
z
" clip-path="url(#p0bfc423143)" style="fill: #beb6a9; stroke: #beb6a9; stroke-linejoin: miter"/>
   </g>
   <g id="patch_172">
    <path d="M 720 637.2 
L 790.92 637.2 
L 790.92 567.6 
L 720 567.6 
z
" clip-path="url(#p0bfc423143)" style="fill: #beb6a9; stroke: #beb6a9; stroke-linejoin: miter"/>
   </g>
   <g id="patch_173">
    <path d="M 790.92 637.2 
L 861.84 637.2 
L 861.84 567.6 
L 790.92 567.6 
z
" clip-path="url(#p0bfc423143)" style="fill: #beb6a9; stroke: #beb6a9; stroke-linejoin: miter"/>
   </g>
   <g id="patch_174">
    <path d="M 861.84 637.2 
L 932.76 637.2 
L 932.76 567.6 
L 861.84 567.6 
z
" clip-path="url(#p0bfc423143)" style="fill: #3d2f24; stroke: #3d2f24; stroke-linejoin: miter"/>
   </g>
   <g id="patch_175">
    <path d="M 932.76 637.2 
L 1003.68 637.2 
L 1003.68 567.6 
L 932.76 567.6 
z
" clip-path="url(#p0bfc423143)" style="fill: #be9671; stroke: #be9671; stroke-linejoin: miter"/>
   </g>
   <g id="patch_176">
    <path d="M 1003.68 637.2 
L 1074.6 637.2 
L 1074.6 567.6 
L 1003.68 567.6 
z
" clip-path="url(#p0bfc423143)" style="fill: #b5b3b1; stroke: #b5b3b1; stroke-linejoin: miter"/>
   </g>
   <g id="patch_177">
    <path d="M 1074.6 637.2 
L 1145.52 637.2 
L 1145.52 567.6 
L 1074.6 567.6 
z
" clip-path="url(#p0bfc423143)" style="fill: #41342c; stroke: #41342c; stroke-linejoin: miter"/>
   </g>
  </g>
 </g>
 <defs>
  <clipPath id="p0bfc423143">
   <rect x="10.8" y="10.8" width="1418.4" height="626.4"/>
  </clipPath>
 </defs>
</svg>
