<?xml version="1.0" encoding="utf-8" standalone="no"?>
<!DOCTYPE svg PUBLIC "-//W3C//DTD SVG 1.1//EN"
  "http://www.w3.org/Graphics/SVG/1.1/DTD/svg11.dtd">
<svg xmlns:xlink="http://www.w3.org/1999/xlink" width="1440pt" height="360pt" viewBox="0 0 1440 360" xmlns="http://www.w3.org/2000/svg" version="1.1">
 <metadata>
  <rdf:RDF xmlns:dc="http://purl.org/dc/elements/1.1/" xmlns:cc="http://creativecommons.org/ns#" xmlns:rdf="http://www.w3.org/1999/02/22-rdf-syntax-ns#">
   <cc:Work>
    <dc:type rdf:resource="http://purl.org/dc/dcmitype/StillImage"/>
    <dc:date>2025-05-04T17:21:06.975696</dc:date>
    <dc:format>image/svg+xml</dc:format>
    <dc:creator>
     <cc:Agent>
      <dc:title>Matplotlib v3.9.2, https://matplotlib.org/</dc:title>
     </cc:Agent>
    </dc:creator>
   </cc:Work>
  </rdf:RDF>
 </metadata>
 <defs>
  <style type="text/css">*{stroke-linejoin: round; stroke-linecap: butt}</style>
 </defs>
 <g id="figure_1">
  <g id="patch_1">
   <path d="M 0 360 
L 1440 360 
L 1440 0 
L 0 0 
z
" style="fill: #ffffff"/>
  </g>
  <g id="axes_1">
   <g id="patch_2">
    <path d="M 10.8 78.48 
L 81.72 78.48 
L 81.72 10.8 
L 10.8 10.8 
z
" clip-path="url(#pc24d6613e9)" style="fill: #332823; stroke: #332823; stroke-linejoin: miter"/>
   </g>
   <g id="patch_3">
    <path d="M 81.72 78.48 
L 152.64 78.48 
L 152.64 10.8 
L 81.72 10.8 
z
" clip-path="url(#pc24d6613e9)" style="fill: #2c2f30; stroke: #2c2f30; stroke-linejoin: miter"/>
   </g>
   <g id="patch_4">
    <path d="M 152.64 78.48 
L 223.56 78.48 
L 223.56 10.8 
L 152.64 10.8 
z
" clip-path="url(#pc24d6613e9)" style="fill: #d0c8c0; stroke: #d0c8c0; stroke-linejoin: miter"/>
   </g>
   <g id="patch_5">
    <path d="M 223.56 78.48 
L 294.48 78.48 
L 294.48 10.8 
L 223.56 10.8 
z
" clip-path="url(#pc24d6613e9)" style="fill: #c4bbb4; stroke: #c4bbb4; stroke-linejoin: miter"/>
   </g>
   <g id="patch_6">
    <path d="M 294.48 78.48 
L 365.4 78.48 
L 365.4 10.8 
L 294.48 10.8 
z
" clip-path="url(#pc24d6613e9)" style="fill: #cec2b3; stroke: #cec2b3; stroke-linejoin: miter"/>
   </g>
   <g id="patch_7">
    <path d="M 365.4 78.48 
L 436.32 78.48 
L 436.32 10.8 
L 365.4 10.8 
z
" clip-path="url(#pc24d6613e9)" style="fill: #b5a38f; stroke: #b5a38f; stroke-linejoin: miter"/>
   </g>
   <g id="patch_8">
    <path d="M 436.32 78.48 
L 507.24 78.48 
L 507.24 10.8 
L 436.32 10.8 
z
" clip-path="url(#pc24d6613e9)" style="fill: #d5cbbd; stroke: #d5cbbd; stroke-linejoin: miter"/>
   </g>
   <g id="patch_9">
    <path d="M 507.24 78.48 
L 578.16 78.48 
L 578.16 10.8 
L 507.24 10.8 
z
" clip-path="url(#pc24d6613e9)" style="fill: #bbbdb4; stroke: #bbbdb4; stroke-linejoin: miter"/>
   </g>
   <g id="patch_10">
    <path d="M 578.16 78.48 
L 649.08 78.48 
L 649.08 10.8 
L 578.16 10.8 
z
" clip-path="url(#pc24d6613e9)" style="fill: #b3915f; stroke: #b3915f; stroke-linejoin: miter"/>
   </g>
   <g id="patch_11">
    <path d="M 649.08 78.48 
L 720 78.48 
L 720 10.8 
L 649.08 10.8 
z
" clip-path="url(#pc24d6613e9)" style="fill: #353131; stroke: #353131; stroke-linejoin: miter"/>
   </g>
   <g id="patch_12">
    <path d="M 720 78.48 
L 790.92 78.48 
L 790.92 10.8 
L 720 10.8 
z
" clip-path="url(#pc24d6613e9)" style="fill: #3c271b; stroke: #3c271b; stroke-linejoin: miter"/>
   </g>
   <g id="patch_13">
    <path d="M 790.92 78.48 
L 861.84 78.48 
L 861.84 10.8 
L 790.92 10.8 
z
" clip-path="url(#pc24d6613e9)" style="fill: #807c57; stroke: #807c57; stroke-linejoin: miter"/>
   </g>
   <g id="patch_14">
    <path d="M 861.84 78.48 
L 932.76 78.48 
L 932.76 10.8 
L 861.84 10.8 
z
" clip-path="url(#pc24d6613e9)" style="fill: #c6bab4; stroke: #c6bab4; stroke-linejoin: miter"/>
   </g>
   <g id="patch_15">
    <path d="M 932.76 78.48 
L 1003.68 78.48 
L 1003.68 10.8 
L 932.76 10.8 
z
" clip-path="url(#pc24d6613e9)" style="fill: #e1d1de; stroke: #e1d1de; stroke-linejoin: miter"/>
   </g>
   <g id="patch_16">
    <path d="M 1003.68 78.48 
L 1074.6 78.48 
L 1074.6 10.8 
L 1003.68 10.8 
z
" clip-path="url(#pc24d6613e9)" style="fill: #283627; stroke: #283627; stroke-linejoin: miter"/>
   </g>
   <g id="patch_17">
    <path d="M 1074.6 78.48 
L 1145.52 78.48 
L 1145.52 10.8 
L 1074.6 10.8 
z
" clip-path="url(#pc24d6613e9)" style="fill: #c8c0ad; stroke: #c8c0ad; stroke-linejoin: miter"/>
   </g>
   <g id="patch_18">
    <path d="M 1145.52 78.48 
L 1216.44 78.48 
L 1216.44 10.8 
L 1145.52 10.8 
z
" clip-path="url(#pc24d6613e9)" style="fill: #4d463f; stroke: #4d463f; stroke-linejoin: miter"/>
   </g>
   <g id="patch_19">
    <path d="M 1216.44 78.48 
L 1287.36 78.48 
L 1287.36 10.8 
L 1216.44 10.8 
z
" clip-path="url(#pc24d6613e9)" style="fill: #c1b6a4; stroke: #c1b6a4; stroke-linejoin: miter"/>
   </g>
   <g id="patch_20">
    <path d="M 1287.36 78.48 
L 1358.28 78.48 
L 1358.28 10.8 
L 1287.36 10.8 
z
" clip-path="url(#pc24d6613e9)" style="fill: #1b1917; stroke: #1b1917; stroke-linejoin: miter"/>
   </g>
   <g id="patch_21">
    <path d="M 1358.28 78.48 
L 1429.2 78.48 
L 1429.2 10.8 
L 1358.28 10.8 
z
" clip-path="url(#pc24d6613e9)" style="fill: #bdb7ab; stroke: #bdb7ab; stroke-linejoin: miter"/>
   </g>
   <g id="patch_22">
    <path d="M 10.8 146.16 
L 81.72 146.16 
L 81.72 78.48 
L 10.8 78.48 
z
" clip-path="url(#pc24d6613e9)" style="fill: #bdb7ab; stroke: #bdb7ab; stroke-linejoin: miter"/>
   </g>
   <g id="patch_23">
    <path d="M 81.72 146.16 
L 152.64 146.16 
L 152.64 78.48 
L 81.72 78.48 
z
" clip-path="url(#pc24d6613e9)" style="fill: #eabaa4; stroke: #eabaa4; stroke-linejoin: miter"/>
   </g>
   <g id="patch_24">
    <path d="M 152.64 146.16 
L 223.56 146.16 
L 223.56 78.48 
L 152.64 78.48 
z
" clip-path="url(#pc24d6613e9)" style="fill: #3f2e26; stroke: #3f2e26; stroke-linejoin: miter"/>
   </g>
   <g id="patch_25">
    <path d="M 223.56 146.16 
L 294.48 146.16 
L 294.48 78.48 
L 223.56 78.48 
z
" clip-path="url(#pc24d6613e9)" style="fill: #c2beb3; stroke: #c2beb3; stroke-linejoin: miter"/>
   </g>
   <g id="patch_26">
    <path d="M 294.48 146.16 
L 365.4 146.16 
L 365.4 78.48 
L 294.48 78.48 
z
" clip-path="url(#pc24d6613e9)" style="fill: #b9a7a5; stroke: #b9a7a5; stroke-linejoin: miter"/>
   </g>
   <g id="patch_27">
    <path d="M 365.4 146.16 
L 436.32 146.16 
L 436.32 78.48 
L 365.4 78.48 
z
" clip-path="url(#pc24d6613e9)" style="fill: #d1cfc9; stroke: #d1cfc9; stroke-linejoin: miter"/>
   </g>
   <g id="patch_28">
    <path d="M 436.32 146.16 
L 507.24 146.16 
L 507.24 78.48 
L 436.32 78.48 
z
" clip-path="url(#pc24d6613e9)" style="fill: #2b3836; stroke: #2b3836; stroke-linejoin: miter"/>
   </g>
   <g id="patch_29">
    <path d="M 507.24 146.16 
L 578.16 146.16 
L 578.16 78.48 
L 507.24 78.48 
z
" clip-path="url(#pc24d6613e9)" style="fill: #b3aaa6; stroke: #b3aaa6; stroke-linejoin: miter"/>
   </g>
   <g id="patch_30">
    <path d="M 578.16 146.16 
L 649.08 146.16 
L 649.08 78.48 
L 578.16 78.48 
z
" clip-path="url(#pc24d6613e9)" style="fill: #362a24; stroke: #362a24; stroke-linejoin: miter"/>
   </g>
   <g id="patch_31">
    <path d="M 649.08 146.16 
L 720 146.16 
L 720 78.48 
L 649.08 78.48 
z
" clip-path="url(#pc24d6613e9)" style="fill: #d4b498; stroke: #d4b498; stroke-linejoin: miter"/>
   </g>
   <g id="patch_32">
    <path d="M 720 146.16 
L 790.92 146.16 
L 790.92 78.48 
L 720 78.48 
z
" clip-path="url(#pc24d6613e9)" style="fill: #ddccb3; stroke: #ddccb3; stroke-linejoin: miter"/>
   </g>
   <g id="patch_33">
    <path d="M 790.92 146.16 
L 861.84 146.16 
L 861.84 78.48 
L 790.92 78.48 
z
" clip-path="url(#pc24d6613e9)" style="fill: #cc9550; stroke: #cc9550; stroke-linejoin: miter"/>
   </g>
   <g id="patch_34">
    <path d="M 861.84 146.16 
L 932.76 146.16 
L 932.76 78.48 
L 861.84 78.48 
z
" clip-path="url(#pc24d6613e9)" style="fill: #ac9c88; stroke: #ac9c88; stroke-linejoin: miter"/>
   </g>
   <g id="patch_35">
    <path d="M 932.76 146.16 
L 1003.68 146.16 
L 1003.68 78.48 
L 932.76 78.48 
z
" clip-path="url(#pc24d6613e9)" style="fill: #2c3433; stroke: #2c3433; stroke-linejoin: miter"/>
   </g>
   <g id="patch_36">
    <path d="M 1003.68 146.16 
L 1074.6 146.16 
L 1074.6 78.48 
L 1003.68 78.48 
z
" clip-path="url(#pc24d6613e9)" style="fill: #303031; stroke: #303031; stroke-linejoin: miter"/>
   </g>
   <g id="patch_37">
    <path d="M 1074.6 146.16 
L 1145.52 146.16 
L 1145.52 78.48 
L 1074.6 78.48 
z
" clip-path="url(#pc24d6613e9)" style="fill: #33342c; stroke: #33342c; stroke-linejoin: miter"/>
   </g>
   <g id="patch_38">
    <path d="M 1145.52 146.16 
L 1216.44 146.16 
L 1216.44 78.48 
L 1145.52 78.48 
z
" clip-path="url(#pc24d6613e9)" style="fill: #e2a187; stroke: #e2a187; stroke-linejoin: miter"/>
   </g>
   <g id="patch_39">
    <path d="M 1216.44 146.16 
L 1287.36 146.16 
L 1287.36 78.48 
L 1216.44 78.48 
z
" clip-path="url(#pc24d6613e9)" style="fill: #c8c3b9; stroke: #c8c3b9; stroke-linejoin: miter"/>
   </g>
   <g id="patch_40">
    <path d="M 1287.36 146.16 
L 1358.28 146.16 
L 1358.28 78.48 
L 1287.36 78.48 
z
" clip-path="url(#pc24d6613e9)" style="fill: #cab8b2; stroke: #cab8b2; stroke-linejoin: miter"/>
   </g>
   <g id="patch_41">
    <path d="M 1358.28 146.16 
L 1429.2 146.16 
L 1429.2 78.48 
L 1358.28 78.48 
z
" clip-path="url(#pc24d6613e9)" style="fill: #d2bdb1; stroke: #d2bdb1; stroke-linejoin: miter"/>
   </g>
   <g id="patch_42">
    <path d="M 10.8 213.84 
L 81.72 213.84 
L 81.72 146.16 
L 10.8 146.16 
z
" clip-path="url(#pc24d6613e9)" style="fill: #cabdae; stroke: #cabdae; stroke-linejoin: miter"/>
   </g>
   <g id="patch_43">
    <path d="M 81.72 213.84 
L 152.64 213.84 
L 152.64 146.16 
L 81.72 146.16 
z
" clip-path="url(#pc24d6613e9)" style="fill: #343936; stroke: #343936; stroke-linejoin: miter"/>
   </g>
   <g id="patch_44">
    <path d="M 152.64 213.84 
L 223.56 213.84 
L 223.56 146.16 
L 152.64 146.16 
z
" clip-path="url(#pc24d6613e9)" style="fill: #3a3429; stroke: #3a3429; stroke-linejoin: miter"/>
   </g>
   <g id="patch_45">
    <path d="M 223.56 213.84 
L 294.48 213.84 
L 294.48 146.16 
L 223.56 146.16 
z
" clip-path="url(#pc24d6613e9)" style="fill: #342a20; stroke: #342a20; stroke-linejoin: miter"/>
   </g>
   <g id="patch_46">
    <path d="M 294.48 213.84 
L 365.4 213.84 
L 365.4 146.16 
L 294.48 146.16 
z
" clip-path="url(#pc24d6613e9)" style="fill: #d1cdca; stroke: #d1cdca; stroke-linejoin: miter"/>
   </g>
   <g id="patch_47">
    <path d="M 365.4 213.84 
L 436.32 213.84 
L 436.32 146.16 
L 365.4 146.16 
z
" clip-path="url(#pc24d6613e9)" style="fill: #3c342e; stroke: #3c342e; stroke-linejoin: miter"/>
   </g>
   <g id="patch_48">
    <path d="M 436.32 213.84 
L 507.24 213.84 
L 507.24 146.16 
L 436.32 146.16 
z
" clip-path="url(#pc24d6613e9)" style="fill: #c3cbc9; stroke: #c3cbc9; stroke-linejoin: miter"/>
   </g>
   <g id="patch_49">
    <path d="M 507.24 213.84 
L 578.16 213.84 
L 578.16 146.16 
L 507.24 146.16 
z
" clip-path="url(#pc24d6613e9)" style="fill: #b7ada9; stroke: #b7ada9; stroke-linejoin: miter"/>
   </g>
   <g id="patch_50">
    <path d="M 578.16 213.84 
L 649.08 213.84 
L 649.08 146.16 
L 578.16 146.16 
z
" clip-path="url(#pc24d6613e9)" style="fill: #302425; stroke: #302425; stroke-linejoin: miter"/>
   </g>
   <g id="patch_51">
    <path d="M 649.08 213.84 
L 720 213.84 
L 720 146.16 
L 649.08 146.16 
z
" clip-path="url(#pc24d6613e9)" style="fill: #e5d4c5; stroke: #e5d4c5; stroke-linejoin: miter"/>
   </g>
   <g id="patch_52">
    <path d="M 720 213.84 
L 790.92 213.84 
L 790.92 146.16 
L 720 146.16 
z
" clip-path="url(#pc24d6613e9)" style="fill: #e3d1be; stroke: #e3d1be; stroke-linejoin: miter"/>
   </g>
   <g id="patch_53">
    <path d="M 790.92 213.84 
L 861.84 213.84 
L 861.84 146.16 
L 790.92 146.16 
z
" clip-path="url(#pc24d6613e9)" style="fill: #b29b7f; stroke: #b29b7f; stroke-linejoin: miter"/>
   </g>
   <g id="patch_54">
    <path d="M 861.84 213.84 
L 932.76 213.84 
L 932.76 146.16 
L 861.84 146.16 
z
" clip-path="url(#pc24d6613e9)" style="fill: #d0dcd5; stroke: #d0dcd5; stroke-linejoin: miter"/>
   </g>
   <g id="patch_55">
    <path d="M 932.76 213.84 
L 1003.68 213.84 
L 1003.68 146.16 
L 932.76 146.16 
z
" clip-path="url(#pc24d6613e9)" style="fill: #cdcdcc; stroke: #cdcdcc; stroke-linejoin: miter"/>
   </g>
   <g id="patch_56">
    <path d="M 1003.68 213.84 
L 1074.6 213.84 
L 1074.6 146.16 
L 1003.68 146.16 
z
" clip-path="url(#pc24d6613e9)" style="fill: #897b60; stroke: #897b60; stroke-linejoin: miter"/>
   </g>
   <g id="patch_57">
    <path d="M 1074.6 213.84 
L 1145.52 213.84 
L 1145.52 146.16 
L 1074.6 146.16 
z
" clip-path="url(#pc24d6613e9)" style="fill: #bbb1a9; stroke: #bbb1a9; stroke-linejoin: miter"/>
   </g>
   <g id="patch_58">
    <path d="M 1145.52 213.84 
L 1216.44 213.84 
L 1216.44 146.16 
L 1145.52 146.16 
z
" clip-path="url(#pc24d6613e9)" style="fill: #c6bfb1; stroke: #c6bfb1; stroke-linejoin: miter"/>
   </g>
   <g id="patch_59">
    <path d="M 1216.44 213.84 
L 1287.36 213.84 
L 1287.36 146.16 
L 1216.44 146.16 
z
" clip-path="url(#pc24d6613e9)" style="fill: #e5caac; stroke: #e5caac; stroke-linejoin: miter"/>
   </g>
   <g id="patch_60">
    <path d="M 1287.36 213.84 
L 1358.28 213.84 
L 1358.28 146.16 
L 1287.36 146.16 
z
" clip-path="url(#pc24d6613e9)" style="fill: #bcafad; stroke: #bcafad; stroke-linejoin: miter"/>
   </g>
   <g id="patch_61">
    <path d="M 1358.28 213.84 
L 1429.2 213.84 
L 1429.2 146.16 
L 1358.28 146.16 
z
" clip-path="url(#pc24d6613e9)" style="fill: #c5c2b1; stroke: #c5c2b1; stroke-linejoin: miter"/>
   </g>
   <g id="patch_62">
    <path d="M 10.8 281.52 
L 81.72 281.52 
L 81.72 213.84 
L 10.8 213.84 
z
" clip-path="url(#pc24d6613e9)" style="fill: #4f4941; stroke: #4f4941; stroke-linejoin: miter"/>
   </g>
   <g id="patch_63">
    <path d="M 81.72 281.52 
L 152.64 281.52 
L 152.64 213.84 
L 81.72 213.84 
z
" clip-path="url(#pc24d6613e9)" style="fill: #4f4941; stroke: #4f4941; stroke-linejoin: miter"/>
   </g>
   <g id="patch_64">
    <path d="M 152.64 281.52 
L 223.56 281.52 
L 223.56 213.84 
L 152.64 213.84 
z
" clip-path="url(#pc24d6613e9)" style="fill: #b1a79d; stroke: #b1a79d; stroke-linejoin: miter"/>
   </g>
   <g id="patch_65">
    <path d="M 223.56 281.52 
L 294.48 281.52 
L 294.48 213.84 
L 223.56 213.84 
z
" clip-path="url(#pc24d6613e9)" style="fill: #ccccc8; stroke: #ccccc8; stroke-linejoin: miter"/>
   </g>
   <g id="patch_66">
    <path d="M 294.48 281.52 
L 365.4 281.52 
L 365.4 213.84 
L 294.48 213.84 
z
" clip-path="url(#pc24d6613e9)" style="fill: #b8b0a2; stroke: #b8b0a2; stroke-linejoin: miter"/>
   </g>
   <g id="patch_67">
    <path d="M 365.4 281.52 
L 436.32 281.52 
L 436.32 213.84 
L 365.4 213.84 
z
" clip-path="url(#pc24d6613e9)" style="fill: #c6bcae; stroke: #c6bcae; stroke-linejoin: miter"/>
   </g>
   <g id="patch_68">
    <path d="M 436.32 281.52 
L 507.24 281.52 
L 507.24 213.84 
L 436.32 213.84 
z
" clip-path="url(#pc24d6613e9)" style="fill: #c2b5b1; stroke: #c2b5b1; stroke-linejoin: miter"/>
   </g>
   <g id="patch_69">
    <path d="M 507.24 281.52 
L 578.16 281.52 
L 578.16 213.84 
L 507.24 213.84 
z
" clip-path="url(#pc24d6613e9)" style="fill: #cfc4bd; stroke: #cfc4bd; stroke-linejoin: miter"/>
   </g>
   <g id="patch_70">
    <path d="M 578.16 281.52 
L 649.08 281.52 
L 649.08 213.84 
L 578.16 213.84 
z
" clip-path="url(#pc24d6613e9)" style="fill: #b7a28c; stroke: #b7a28c; stroke-linejoin: miter"/>
   </g>
   <g id="patch_71">
    <path d="M 649.08 281.52 
L 720 281.52 
L 720 213.84 
L 649.08 213.84 
z
" clip-path="url(#pc24d6613e9)" style="fill: #e5d4c4; stroke: #e5d4c4; stroke-linejoin: miter"/>
   </g>
   <g id="patch_72">
    <path d="M 720 281.52 
L 790.92 281.52 
L 790.92 213.84 
L 720 213.84 
z
" clip-path="url(#pc24d6613e9)" style="fill: #826b53; stroke: #826b53; stroke-linejoin: miter"/>
   </g>
   <g id="patch_73">
    <path d="M 790.92 281.52 
L 861.84 281.52 
L 861.84 213.84 
L 790.92 213.84 
z
" clip-path="url(#pc24d6613e9)" style="fill: #394349; stroke: #394349; stroke-linejoin: miter"/>
   </g>
   <g id="patch_74">
    <path d="M 861.84 281.52 
L 932.76 281.52 
L 932.76 213.84 
L 861.84 213.84 
z
" clip-path="url(#pc24d6613e9)" style="fill: #3a3536; stroke: #3a3536; stroke-linejoin: miter"/>
   </g>
   <g id="patch_75">
    <path d="M 932.76 281.52 
L 1003.68 281.52 
L 1003.68 213.84 
L 932.76 213.84 
z
" clip-path="url(#pc24d6613e9)" style="fill: #887c6a; stroke: #887c6a; stroke-linejoin: miter"/>
   </g>
   <g id="patch_76">
    <path d="M 1003.68 281.52 
L 1074.6 281.52 
L 1074.6 213.84 
L 1003.68 213.84 
z
" clip-path="url(#pc24d6613e9)" style="fill: #887c6a; stroke: #887c6a; stroke-linejoin: miter"/>
   </g>
   <g id="patch_77">
    <path d="M 1074.6 281.52 
L 1145.52 281.52 
L 1145.52 213.84 
L 1074.6 213.84 
z
" clip-path="url(#pc24d6613e9)" style="fill: #ada686; stroke: #ada686; stroke-linejoin: miter"/>
   </g>
   <g id="patch_78">
    <path d="M 1145.52 281.52 
L 1216.44 281.52 
L 1216.44 213.84 
L 1145.52 213.84 
z
" clip-path="url(#pc24d6613e9)" style="fill: #b48e6c; stroke: #b48e6c; stroke-linejoin: miter"/>
   </g>
   <g id="patch_79">
    <path d="M 1216.44 281.52 
L 1287.36 281.52 
L 1287.36 213.84 
L 1216.44 213.84 
z
" clip-path="url(#pc24d6613e9)" style="fill: #ad927b; stroke: #ad927b; stroke-linejoin: miter"/>
   </g>
   <g id="patch_80">
    <path d="M 1287.36 281.52 
L 1358.28 281.52 
L 1358.28 213.84 
L 1287.36 213.84 
z
" clip-path="url(#pc24d6613e9)" style="fill: #aa8f77; stroke: #aa8f77; stroke-linejoin: miter"/>
   </g>
   <g id="patch_81">
    <path d="M 1358.28 281.52 
L 1429.2 281.52 
L 1429.2 213.84 
L 1358.28 213.84 
z
" clip-path="url(#pc24d6613e9)" style="fill: #c1b4ae; stroke: #c1b4ae; stroke-linejoin: miter"/>
   </g>
   <g id="patch_82">
    <path d="M 10.8 349.2 
L 81.72 349.2 
L 81.72 281.52 
L 10.8 281.52 
z
" clip-path="url(#pc24d6613e9)" style="fill: #46535b; stroke: #46535b; stroke-linejoin: miter"/>
   </g>
   <g id="patch_83">
    <path d="M 81.72 349.2 
L 152.64 349.2 
L 152.64 281.52 
L 81.72 281.52 
z
" clip-path="url(#pc24d6613e9)" style="fill: #392f29; stroke: #392f29; stroke-linejoin: miter"/>
   </g>
   <g id="patch_84">
    <path d="M 152.64 349.2 
L 223.56 349.2 
L 223.56 281.52 
L 152.64 281.52 
z
" clip-path="url(#pc24d6613e9)" style="fill: #c5c7c2; stroke: #c5c7c2; stroke-linejoin: miter"/>
   </g>
   <g id="patch_85">
    <path d="M 223.56 349.2 
L 294.48 349.2 
L 294.48 281.52 
L 223.56 281.52 
z
" clip-path="url(#pc24d6613e9)" style="fill: #423c36; stroke: #423c36; stroke-linejoin: miter"/>
   </g>
   <g id="patch_86">
    <path d="M 294.48 349.2 
L 365.4 349.2 
L 365.4 281.52 
L 294.48 281.52 
z
" clip-path="url(#pc24d6613e9)" style="fill: #dacfc4; stroke: #dacfc4; stroke-linejoin: miter"/>
   </g>
   <g id="patch_87">
    <path d="M 365.4 349.2 
L 436.32 349.2 
L 436.32 281.52 
L 365.4 281.52 
z
" clip-path="url(#pc24d6613e9)" style="fill: #cbcec5; stroke: #cbcec5; stroke-linejoin: miter"/>
   </g>
   <g id="patch_88">
    <path d="M 436.32 349.2 
L 507.24 349.2 
L 507.24 281.52 
L 436.32 281.52 
z
" clip-path="url(#pc24d6613e9)" style="fill: #372f29; stroke: #372f29; stroke-linejoin: miter"/>
   </g>
   <g id="patch_89">
    <path d="M 507.24 349.2 
L 578.16 349.2 
L 578.16 281.52 
L 507.24 281.52 
z
" clip-path="url(#pc24d6613e9)" style="fill: #bdb7ad; stroke: #bdb7ad; stroke-linejoin: miter"/>
   </g>
   <g id="patch_90">
    <path d="M 578.16 349.2 
L 649.08 349.2 
L 649.08 281.52 
L 578.16 281.52 
z
" clip-path="url(#pc24d6613e9)" style="fill: #a38768; stroke: #a38768; stroke-linejoin: miter"/>
   </g>
   <g id="patch_91">
    <path d="M 649.08 349.2 
L 720 349.2 
L 720 281.52 
L 649.08 281.52 
z
" clip-path="url(#pc24d6613e9)" style="fill: #31312b; stroke: #31312b; stroke-linejoin: miter"/>
   </g>
   <g id="patch_92">
    <path d="M 720 349.2 
L 790.92 349.2 
L 790.92 281.52 
L 720 281.52 
z
" clip-path="url(#pc24d6613e9)" style="fill: #393433; stroke: #393433; stroke-linejoin: miter"/>
   </g>
   <g id="patch_93">
    <path d="M 790.92 349.2 
L 861.84 349.2 
L 861.84 281.52 
L 790.92 281.52 
z
" clip-path="url(#pc24d6613e9)" style="fill: #d4cec8; stroke: #d4cec8; stroke-linejoin: miter"/>
   </g>
  </g>
 </g>
 <defs>
  <clipPath id="pc24d6613e9">
   <rect x="10.8" y="10.8" width="1418.4" height="338.4"/>
  </clipPath>
 </defs>
</svg>
