<?xml version="1.0" encoding="utf-8" standalone="no"?>
<!DOCTYPE svg PUBLIC "-//W3C//DTD SVG 1.1//EN"
  "http://www.w3.org/Graphics/SVG/1.1/DTD/svg11.dtd">
<svg xmlns:xlink="http://www.w3.org/1999/xlink" width="1440pt" height="288pt" viewBox="0 0 1440 288" xmlns="http://www.w3.org/2000/svg" version="1.1">
 <metadata>
  <rdf:RDF xmlns:dc="http://purl.org/dc/elements/1.1/" xmlns:cc="http://creativecommons.org/ns#" xmlns:rdf="http://www.w3.org/1999/02/22-rdf-syntax-ns#">
   <cc:Work>
    <dc:type rdf:resource="http://purl.org/dc/dcmitype/StillImage"/>
    <dc:date>2025-05-04T17:21:04.640286</dc:date>
    <dc:format>image/svg+xml</dc:format>
    <dc:creator>
     <cc:Agent>
      <dc:title>Matplotlib v3.9.2, https://matplotlib.org/</dc:title>
     </cc:Agent>
    </dc:creator>
   </cc:Work>
  </rdf:RDF>
 </metadata>
 <defs>
  <style type="text/css">*{stroke-linejoin: round; stroke-linecap: butt}</style>
 </defs>
 <g id="figure_1">
  <g id="patch_1">
   <path d="M 0 288 
L 1440 288 
L 1440 0 
L 0 0 
z
" style="fill: #ffffff"/>
  </g>
  <g id="axes_1">
   <g id="patch_2">
    <path d="M 10.8 77.4 
L 81.72 77.4 
L 81.72 10.8 
L 10.8 10.8 
z
" clip-path="url(#p04bc742c33)" style="fill: #122342; stroke: #122342; stroke-linejoin: miter"/>
   </g>
   <g id="patch_3">
    <path d="M 81.72 77.4 
L 152.64 77.4 
L 152.64 10.8 
L 81.72 10.8 
z
" clip-path="url(#p04bc742c33)" style="fill: #403a2e; stroke: #403a2e; stroke-linejoin: miter"/>
   </g>
   <g id="patch_4">
    <path d="M 152.64 77.4 
L 223.56 77.4 
L 223.56 10.8 
L 152.64 10.8 
z
" clip-path="url(#p04bc742c33)" style="fill: #7e3c2c; stroke: #7e3c2c; stroke-linejoin: miter"/>
   </g>
   <g id="patch_5">
    <path d="M 223.56 77.4 
L 294.48 77.4 
L 294.48 10.8 
L 223.56 10.8 
z
" clip-path="url(#p04bc742c33)" style="fill: #303131; stroke: #303131; stroke-linejoin: miter"/>
   </g>
   <g id="patch_6">
    <path d="M 294.48 77.4 
L 365.4 77.4 
L 365.4 10.8 
L 294.48 10.8 
z
" clip-path="url(#p04bc742c33)" style="fill: #303131; stroke: #303131; stroke-linejoin: miter"/>
   </g>
   <g id="patch_7">
    <path d="M 365.4 77.4 
L 436.32 77.4 
L 436.32 10.8 
L 365.4 10.8 
z
" clip-path="url(#p04bc742c33)" style="fill: #24241e; stroke: #24241e; stroke-linejoin: miter"/>
   </g>
   <g id="patch_8">
    <path d="M 436.32 77.4 
L 507.24 77.4 
L 507.24 10.8 
L 436.32 10.8 
z
" clip-path="url(#p04bc742c33)" style="fill: #343434; stroke: #343434; stroke-linejoin: miter"/>
   </g>
   <g id="patch_9">
    <path d="M 507.24 77.4 
L 578.16 77.4 
L 578.16 10.8 
L 507.24 10.8 
z
" clip-path="url(#p04bc742c33)" style="fill: #343434; stroke: #343434; stroke-linejoin: miter"/>
   </g>
   <g id="patch_10">
    <path d="M 578.16 77.4 
L 649.08 77.4 
L 649.08 10.8 
L 578.16 10.8 
z
" clip-path="url(#p04bc742c33)" style="fill: #343434; stroke: #343434; stroke-linejoin: miter"/>
   </g>
   <g id="patch_11">
    <path d="M 649.08 77.4 
L 720 77.4 
L 720 10.8 
L 649.08 10.8 
z
" clip-path="url(#p04bc742c33)" style="fill: #d4aa9f; stroke: #d4aa9f; stroke-linejoin: miter"/>
   </g>
   <g id="patch_12">
    <path d="M 720 77.4 
L 790.92 77.4 
L 790.92 10.8 
L 720 10.8 
z
" clip-path="url(#p04bc742c33)" style="fill: #cea580; stroke: #cea580; stroke-linejoin: miter"/>
   </g>
   <g id="patch_13">
    <path d="M 790.92 77.4 
L 861.84 77.4 
L 861.84 10.8 
L 790.92 10.8 
z
" clip-path="url(#p04bc742c33)" style="fill: #afa89f; stroke: #afa89f; stroke-linejoin: miter"/>
   </g>
   <g id="patch_14">
    <path d="M 861.84 77.4 
L 932.76 77.4 
L 932.76 10.8 
L 861.84 10.8 
z
" clip-path="url(#p04bc742c33)" style="fill: #958068; stroke: #958068; stroke-linejoin: miter"/>
   </g>
   <g id="patch_15">
    <path d="M 932.76 77.4 
L 1003.68 77.4 
L 1003.68 10.8 
L 932.76 10.8 
z
" clip-path="url(#p04bc742c33)" style="fill: #2f2c22; stroke: #2f2c22; stroke-linejoin: miter"/>
   </g>
   <g id="patch_16">
    <path d="M 1003.68 77.4 
L 1074.6 77.4 
L 1074.6 10.8 
L 1003.68 10.8 
z
" clip-path="url(#p04bc742c33)" style="fill: #c6bab5; stroke: #c6bab5; stroke-linejoin: miter"/>
   </g>
   <g id="patch_17">
    <path d="M 1074.6 77.4 
L 1145.52 77.4 
L 1145.52 10.8 
L 1074.6 10.8 
z
" clip-path="url(#p04bc742c33)" style="fill: #b5aaa0; stroke: #b5aaa0; stroke-linejoin: miter"/>
   </g>
   <g id="patch_18">
    <path d="M 1145.52 77.4 
L 1216.44 77.4 
L 1216.44 10.8 
L 1145.52 10.8 
z
" clip-path="url(#p04bc742c33)" style="fill: #c5b7a2; stroke: #c5b7a2; stroke-linejoin: miter"/>
   </g>
   <g id="patch_19">
    <path d="M 1216.44 77.4 
L 1287.36 77.4 
L 1287.36 10.8 
L 1216.44 10.8 
z
" clip-path="url(#p04bc742c33)" style="fill: #3e413d; stroke: #3e413d; stroke-linejoin: miter"/>
   </g>
   <g id="patch_20">
    <path d="M 1287.36 77.4 
L 1358.28 77.4 
L 1358.28 10.8 
L 1287.36 10.8 
z
" clip-path="url(#p04bc742c33)" style="fill: #3e413d; stroke: #3e413d; stroke-linejoin: miter"/>
   </g>
   <g id="patch_21">
    <path d="M 1358.28 77.4 
L 1429.2 77.4 
L 1429.2 10.8 
L 1358.28 10.8 
z
" clip-path="url(#p04bc742c33)" style="fill: #7f6b5a; stroke: #7f6b5a; stroke-linejoin: miter"/>
   </g>
   <g id="patch_22">
    <path d="M 10.8 144 
L 81.72 144 
L 81.72 77.4 
L 10.8 77.4 
z
" clip-path="url(#p04bc742c33)" style="fill: #4e8cb5; stroke: #4e8cb5; stroke-linejoin: miter"/>
   </g>
   <g id="patch_23">
    <path d="M 81.72 144 
L 152.64 144 
L 152.64 77.4 
L 81.72 77.4 
z
" clip-path="url(#p04bc742c33)" style="fill: #8a7a63; stroke: #8a7a63; stroke-linejoin: miter"/>
   </g>
   <g id="patch_24">
    <path d="M 152.64 144 
L 223.56 144 
L 223.56 77.4 
L 152.64 77.4 
z
" clip-path="url(#p04bc742c33)" style="fill: #b1aba0; stroke: #b1aba0; stroke-linejoin: miter"/>
   </g>
   <g id="patch_25">
    <path d="M 223.56 144 
L 294.48 144 
L 294.48 77.4 
L 223.56 77.4 
z
" clip-path="url(#p04bc742c33)" style="fill: #393230; stroke: #393230; stroke-linejoin: miter"/>
   </g>
   <g id="patch_26">
    <path d="M 294.48 144 
L 365.4 144 
L 365.4 77.4 
L 294.48 77.4 
z
" clip-path="url(#p04bc742c33)" style="fill: #cfc5b9; stroke: #cfc5b9; stroke-linejoin: miter"/>
   </g>
   <g id="patch_27">
    <path d="M 365.4 144 
L 436.32 144 
L 436.32 77.4 
L 365.4 77.4 
z
" clip-path="url(#p04bc742c33)" style="fill: #333721; stroke: #333721; stroke-linejoin: miter"/>
   </g>
   <g id="patch_28">
    <path d="M 436.32 144 
L 507.24 144 
L 507.24 77.4 
L 436.32 77.4 
z
" clip-path="url(#p04bc742c33)" style="fill: #b2aea8; stroke: #b2aea8; stroke-linejoin: miter"/>
   </g>
   <g id="patch_29">
    <path d="M 507.24 144 
L 578.16 144 
L 578.16 77.4 
L 507.24 77.4 
z
" clip-path="url(#p04bc742c33)" style="fill: #303131; stroke: #303131; stroke-linejoin: miter"/>
   </g>
   <g id="patch_30">
    <path d="M 578.16 144 
L 649.08 144 
L 649.08 77.4 
L 578.16 77.4 
z
" clip-path="url(#p04bc742c33)" style="fill: #c3b8af; stroke: #c3b8af; stroke-linejoin: miter"/>
   </g>
   <g id="patch_31">
    <path d="M 649.08 144 
L 720 144 
L 720 77.4 
L 649.08 77.4 
z
" clip-path="url(#p04bc742c33)" style="fill: #a49482; stroke: #a49482; stroke-linejoin: miter"/>
   </g>
   <g id="patch_32">
    <path d="M 720 144 
L 790.92 144 
L 790.92 77.4 
L 720 77.4 
z
" clip-path="url(#p04bc742c33)" style="fill: #d8cebe; stroke: #d8cebe; stroke-linejoin: miter"/>
   </g>
   <g id="patch_33">
    <path d="M 790.92 144 
L 861.84 144 
L 861.84 77.4 
L 790.92 77.4 
z
" clip-path="url(#p04bc742c33)" style="fill: #d9d2c7; stroke: #d9d2c7; stroke-linejoin: miter"/>
   </g>
   <g id="patch_34">
    <path d="M 861.84 144 
L 932.76 144 
L 932.76 77.4 
L 861.84 77.4 
z
" clip-path="url(#p04bc742c33)" style="fill: #ccad91; stroke: #ccad91; stroke-linejoin: miter"/>
   </g>
   <g id="patch_35">
    <path d="M 932.76 144 
L 1003.68 144 
L 1003.68 77.4 
L 932.76 77.4 
z
" clip-path="url(#p04bc742c33)" style="fill: #343023; stroke: #343023; stroke-linejoin: miter"/>
   </g>
   <g id="patch_36">
    <path d="M 1003.68 144 
L 1074.6 144 
L 1074.6 77.4 
L 1003.68 77.4 
z
" clip-path="url(#p04bc742c33)" style="fill: #131415; stroke: #131415; stroke-linejoin: miter"/>
   </g>
   <g id="patch_37">
    <path d="M 1074.6 144 
L 1145.52 144 
L 1145.52 77.4 
L 1074.6 77.4 
z
" clip-path="url(#p04bc742c33)" style="fill: #302e2a; stroke: #302e2a; stroke-linejoin: miter"/>
   </g>
   <g id="patch_38">
    <path d="M 1145.52 144 
L 1216.44 144 
L 1216.44 77.4 
L 1145.52 77.4 
z
" clip-path="url(#p04bc742c33)" style="fill: #473d30; stroke: #473d30; stroke-linejoin: miter"/>
   </g>
   <g id="patch_39">
    <path d="M 1216.44 144 
L 1287.36 144 
L 1287.36 77.4 
L 1216.44 77.4 
z
" clip-path="url(#p04bc742c33)" style="fill: #dcd8d8; stroke: #dcd8d8; stroke-linejoin: miter"/>
   </g>
   <g id="patch_40">
    <path d="M 1287.36 144 
L 1358.28 144 
L 1358.28 77.4 
L 1287.36 77.4 
z
" clip-path="url(#p04bc742c33)" style="fill: #35281c; stroke: #35281c; stroke-linejoin: miter"/>
   </g>
   <g id="patch_41">
    <path d="M 1358.28 144 
L 1429.2 144 
L 1429.2 77.4 
L 1358.28 77.4 
z
" clip-path="url(#p04bc742c33)" style="fill: #35281c; stroke: #35281c; stroke-linejoin: miter"/>
   </g>
   <g id="patch_42">
    <path d="M 10.8 210.6 
L 81.72 210.6 
L 81.72 144 
L 10.8 144 
z
" clip-path="url(#p04bc742c33)" style="fill: #d3cbc1; stroke: #d3cbc1; stroke-linejoin: miter"/>
   </g>
   <g id="patch_43">
    <path d="M 81.72 210.6 
L 152.64 210.6 
L 152.64 144 
L 81.72 144 
z
" clip-path="url(#p04bc742c33)" style="fill: #bdb19f; stroke: #bdb19f; stroke-linejoin: miter"/>
   </g>
   <g id="patch_44">
    <path d="M 152.64 210.6 
L 223.56 210.6 
L 223.56 144 
L 152.64 144 
z
" clip-path="url(#p04bc742c33)" style="fill: #d4aa9f; stroke: #d4aa9f; stroke-linejoin: miter"/>
   </g>
   <g id="patch_45">
    <path d="M 223.56 210.6 
L 294.48 210.6 
L 294.48 144 
L 223.56 144 
z
" clip-path="url(#p04bc742c33)" style="fill: #d4aa9f; stroke: #d4aa9f; stroke-linejoin: miter"/>
   </g>
   <g id="patch_46">
    <path d="M 294.48 210.6 
L 365.4 210.6 
L 365.4 144 
L 294.48 144 
z
" clip-path="url(#p04bc742c33)" style="fill: #372c24; stroke: #372c24; stroke-linejoin: miter"/>
   </g>
   <g id="patch_47">
    <path d="M 365.4 210.6 
L 436.32 210.6 
L 436.32 144 
L 365.4 144 
z
" clip-path="url(#p04bc742c33)" style="fill: #33271e; stroke: #33271e; stroke-linejoin: miter"/>
   </g>
   <g id="patch_48">
    <path d="M 436.32 210.6 
L 507.24 210.6 
L 507.24 144 
L 436.32 144 
z
" clip-path="url(#p04bc742c33)" style="fill: #c8c8c9; stroke: #c8c8c9; stroke-linejoin: miter"/>
   </g>
   <g id="patch_49">
    <path d="M 507.24 210.6 
L 578.16 210.6 
L 578.16 144 
L 507.24 144 
z
" clip-path="url(#p04bc742c33)" style="fill: #917d6a; stroke: #917d6a; stroke-linejoin: miter"/>
   </g>
   <g id="patch_50">
    <path d="M 578.16 210.6 
L 649.08 210.6 
L 649.08 144 
L 578.16 144 
z
" clip-path="url(#p04bc742c33)" style="fill: #d6aa89; stroke: #d6aa89; stroke-linejoin: miter"/>
   </g>
   <g id="patch_51">
    <path d="M 649.08 210.6 
L 720 210.6 
L 720 144 
L 649.08 144 
z
" clip-path="url(#p04bc742c33)" style="fill: #d2c7be; stroke: #d2c7be; stroke-linejoin: miter"/>
   </g>
   <g id="patch_52">
    <path d="M 720 210.6 
L 790.92 210.6 
L 790.92 144 
L 720 144 
z
" clip-path="url(#p04bc742c33)" style="fill: #1a1c18; stroke: #1a1c18; stroke-linejoin: miter"/>
   </g>
   <g id="patch_53">
    <path d="M 790.92 210.6 
L 861.84 210.6 
L 861.84 144 
L 790.92 144 
z
" clip-path="url(#p04bc742c33)" style="fill: #828160; stroke: #828160; stroke-linejoin: miter"/>
   </g>
   <g id="patch_54">
    <path d="M 861.84 210.6 
L 932.76 210.6 
L 932.76 144 
L 861.84 144 
z
" clip-path="url(#p04bc742c33)" style="fill: #828160; stroke: #828160; stroke-linejoin: miter"/>
   </g>
   <g id="patch_55">
    <path d="M 932.76 210.6 
L 1003.68 210.6 
L 1003.68 144 
L 932.76 144 
z
" clip-path="url(#p04bc742c33)" style="fill: #c7c2bb; stroke: #c7c2bb; stroke-linejoin: miter"/>
   </g>
   <g id="patch_56">
    <path d="M 1003.68 210.6 
L 1074.6 210.6 
L 1074.6 144 
L 1003.68 144 
z
" clip-path="url(#p04bc742c33)" style="fill: #decebd; stroke: #decebd; stroke-linejoin: miter"/>
   </g>
   <g id="patch_57">
    <path d="M 1074.6 210.6 
L 1145.52 210.6 
L 1145.52 144 
L 1074.6 144 
z
" clip-path="url(#p04bc742c33)" style="fill: #c4b19f; stroke: #c4b19f; stroke-linejoin: miter"/>
   </g>
   <g id="patch_58">
    <path d="M 1145.52 210.6 
L 1216.44 210.6 
L 1216.44 144 
L 1145.52 144 
z
" clip-path="url(#p04bc742c33)" style="fill: #77654e; stroke: #77654e; stroke-linejoin: miter"/>
   </g>
   <g id="patch_59">
    <path d="M 1216.44 210.6 
L 1287.36 210.6 
L 1287.36 144 
L 1216.44 144 
z
" clip-path="url(#p04bc742c33)" style="fill: #77654e; stroke: #77654e; stroke-linejoin: miter"/>
   </g>
   <g id="patch_60">
    <path d="M 1287.36 210.6 
L 1358.28 210.6 
L 1358.28 144 
L 1287.36 144 
z
" clip-path="url(#p04bc742c33)" style="fill: #3f3d39; stroke: #3f3d39; stroke-linejoin: miter"/>
   </g>
   <g id="patch_61">
    <path d="M 1358.28 210.6 
L 1429.2 210.6 
L 1429.2 144 
L 1358.28 144 
z
" clip-path="url(#p04bc742c33)" style="fill: #c0bbb3; stroke: #c0bbb3; stroke-linejoin: miter"/>
   </g>
   <g id="patch_62">
    <path d="M 10.8 277.2 
L 81.72 277.2 
L 81.72 210.6 
L 10.8 210.6 
z
" clip-path="url(#p04bc742c33)" style="fill: #ae8c6a; stroke: #ae8c6a; stroke-linejoin: miter"/>
   </g>
  </g>
 </g>
 <defs>
  <clipPath id="p04bc742c33">
   <rect x="10.8" y="10.8" width="1418.4" height="266.4"/>
  </clipPath>
 </defs>
</svg>
