<?xml version="1.0" encoding="UTF-8"?>
<svg xmlns="http://www.w3.org/2000/svg" version="1.1" viewBox="0 0 1020.2 574.8">
  <defs>
    <style>
      .cls-1 {
        fill: #423833;
      }

      .cls-1, .cls-2, .cls-3, .cls-4, .cls-5, .cls-6, .cls-7, .cls-8, .cls-9, .cls-10, .cls-11, .cls-12, .cls-13, .cls-14, .cls-15, .cls-16, .cls-17, .cls-18, .cls-19, .cls-20, .cls-21, .cls-22, .cls-23, .cls-24, .cls-25, .cls-26, .cls-27, .cls-28, .cls-29, .cls-30, .cls-31, .cls-32, .cls-33, .cls-34, .cls-35, .cls-36, .cls-37, .cls-38, .cls-39, .cls-40, .cls-41, .cls-42, .cls-43, .cls-44, .cls-45, .cls-46, .cls-47, .cls-48, .cls-49, .cls-50, .cls-51, .cls-52, .cls-53, .cls-54, .cls-55, .cls-56, .cls-57, .cls-58, .cls-59, .cls-60, .cls-61, .cls-62, .cls-63, .cls-64, .cls-65, .cls-66, .cls-67, .cls-68, .cls-69, .cls-70, .cls-71, .cls-72, .cls-73, .cls-74, .cls-75, .cls-76, .cls-77 {
        stroke: #fff;
        stroke-width: 4px;
      }

      .cls-2 {
        fill: #baaaa1;
      }

      .cls-3 {
        fill: #a79686;
      }

      .cls-4 {
        fill: #45443f;
      }

      .cls-5 {
        fill: #d0cac4;
      }

      .cls-6 {
        fill: #3d2e26;
      }

      .cls-7 {
        fill: #8a7a67;
      }

      .cls-8 {
        fill: #4c4241;
      }

      .cls-9 {
        fill: #453125;
      }

      .cls-10 {
        fill: #8b795a;
      }

      .cls-11 {
        fill: #dfdacf;
      }

      .cls-12 {
        fill: #40362f;
      }

      .cls-13 {
        fill: #7f5e4f;
      }

      .cls-14 {
        fill: #8f7c66;
      }

      .cls-15 {
        fill: #4b4039;
      }

      .cls-16 {
        fill: #31302a;
      }

      .cls-17 {
        fill: #af9e92;
      }

      .cls-18 {
        fill: #b8b4a7;
      }

      .cls-19 {
        fill: #353736;
      }

      .cls-20 {
        fill: #1f1f1f;
      }

      .cls-21 {
        fill: #978161;
      }

      .cls-22 {
        fill: #3b3b3c;
      }

      .cls-23 {
        fill: #23231c;
      }

      .cls-24 {
        fill: #9f9083;
      }

      .cls-25 {
        fill: #6f5845;
      }

      .cls-26 {
        fill: #4a413d;
      }

      .cls-27 {
        fill: #705947;
      }

      .cls-28 {
        fill: #3b3631;
      }

      .cls-29 {
        fill: #2e2b24;
      }

      .cls-30 {
        fill: #1c1524;
      }

      .cls-31 {
        fill: #cec5bc;
      }

      .cls-32 {
        fill: #bab5a4;
      }

      .cls-33 {
        fill: #43332a;
      }

      .cls-34 {
        fill: #c3bab7;
      }

      .cls-35 {
        fill: #c09180;
      }

      .cls-36 {
        fill: #392f31;
      }

      .cls-37 {
        fill: #a29485;
      }

      .cls-38 {
        fill: #cdb5a4;
      }

      .cls-39 {
        fill: #c2b9ae;
      }

      .cls-40 {
        fill: #bcb1ab;
      }

      .cls-41 {
        fill: #32342b;
      }

      .cls-42 {
        fill: #8f7a5f;
      }

      .cls-43 {
        fill: #2e3034;
      }

      .cls-44 {
        fill: #d9cbca;
      }

      .cls-45 {
        fill: #c0b19e;
      }

      .cls-46 {
        fill: #d2b39d;
      }

      .cls-47 {
        fill: #b7ac9f;
      }

      .cls-48 {
        fill: #c3c3c6;
      }

      .cls-49 {
        fill: #725b4b;
      }

      .cls-50 {
        fill: #93908a;
      }

      .cls-51 {
        fill: #cfc3b7;
      }

      .cls-52 {
        fill: #39302c;
      }

      .cls-53 {
        fill: #3b392d;
      }

      .cls-54 {
        fill: #323637;
      }

      .cls-55 {
        fill: #826758;
      }

      .cls-56 {
        fill: #1a2126;
      }

      .cls-57 {
        fill: #c4ac9a;
      }

      .cls-58 {
        fill: #a89a8a;
      }

      .cls-59 {
        fill: #c9c0b9;
      }

      .cls-60 {
        fill: #2f2825;
      }

      .cls-61 {
        fill: #37302c;
      }

      .cls-62 {
        fill: #43362d;
      }

      .cls-63 {
        fill: #443c29;
      }

      .cls-64 {
        fill: #ad8f6f;
      }

      .cls-65 {
        fill: #bfb1a2;
      }

      .cls-66 {
        fill: #b4a799;
      }

      .cls-67 {
        fill: #4c4238;
      }

      .cls-68 {
        fill: #d4c9c6;
      }

      .cls-69 {
        fill: #745e51;
      }

      .cls-70 {
        fill: #3f3937;
      }

      .cls-71 {
        fill: #cabfb3;
      }

      .cls-72 {
        fill: #daab93;
      }

      .cls-73 {
        fill: #424035;
      }

      .cls-74 {
        fill: #c4adac;
      }

      .cls-75 {
        fill: #352a22;
      }

      .cls-76 {
        fill: #8f7c69;
      }

      .cls-77 {
        fill: #c7b5a4;
      }
    </style>
  </defs>
  <!-- Generator: Adobe Illustrator 28.7.7, SVG Export Plug-In . SVG Version: 1.2.0 Build 194)  -->
  <g>
    <g id="Layer_1">
      <path class="cls-54" d="M10.8,78.5h70.9V10.8H10.8v67.7Z"/>
      <path class="cls-66" d="M81.7,78.5h70.9V10.8h-70.9v67.7Z"/>
      <path class="cls-75" d="M152.6,78.5h70.9V10.8h-70.9v67.7Z"/>
      <path class="cls-75" d="M223.6,78.5h70.9V10.8h-70.9v67.7Z"/>
      <path class="cls-29" d="M294.5,78.5h70.9V10.8h-70.9v67.7Z"/>
      <path class="cls-7" d="M365.4,78.5h70.9V10.8h-70.9v67.7Z"/>
      <path class="cls-44" d="M436.3,78.5h70.9V10.8h-70.9v67.7Z"/>
      <path class="cls-12" d="M10.8,416.9h70.9v-67.7H10.8v67.7Z"/>
      <path class="cls-59" d="M81.7,416.9h70.9v-67.7h-70.9v67.7Z"/>
      <path class="cls-48" d="M152.6,416.9h70.9v-67.7h-70.9v67.7Z"/>
      <path class="cls-11" d="M223.6,416.9h70.9v-67.7h-70.9v67.7Z"/>
      <path class="cls-76" d="M294.5,416.9h70.9v-67.7h-70.9v67.7Z"/>
      <path class="cls-73" d="M365.4,416.9h70.9v-67.7h-70.9v67.7Z"/>
      <path class="cls-4" d="M436.3,416.9h70.9v-67.7h-70.9v67.7Z"/>
      <path class="cls-28" d="M507.9,213.8h70.9v-67.7h-70.9v67.7Z"/>
      <path class="cls-28" d="M578.8,213.8h70.9v-67.7h-70.9v67.7Z"/>
      <path class="cls-28" d="M649.8,213.8h70.9v-67.7h-70.9v67.7Z"/>
      <path class="cls-31" d="M720.7,213.8h70.9v-67.7h-70.9v67.7Z"/>
      <path class="cls-5" d="M791.6,213.8h70.9v-67.7h-70.9v67.7Z"/>
      <path class="cls-18" d="M862.6,417.9h70.9v-67.7h-70.9v67.7Z"/>
      <path class="cls-60" d="M10.8,146.2h70.9v-67.7H10.8v67.7Z"/>
      <path class="cls-13" d="M81.7,146.2h70.9v-67.7h-70.9v67.7Z"/>
      <path class="cls-45" d="M152.6,146.2h70.9v-67.7h-70.9v67.7Z"/>
      <path class="cls-24" d="M223.6,146.2h70.9v-67.7h-70.9v67.7Z"/>
      <path class="cls-20" d="M294.5,146.2h70.9v-67.7h-70.9v67.7Z"/>
      <path class="cls-61" d="M365.4,146.2h70.9v-67.7h-70.9v67.7Z"/>
      <path class="cls-21" d="M436.3,146.2h70.9v-67.7h-70.9v67.7Z"/>
      <path class="cls-21" d="M10.8,484.6h70.9v-67.7H10.8v67.7Z"/>
      <path class="cls-74" d="M81.7,484.6h70.9v-67.7h-70.9v67.7Z"/>
      <path class="cls-53" d="M152.6,484.6h70.9v-67.7h-70.9v67.7Z"/>
      <path class="cls-25" d="M223.6,484.6h70.9v-67.7h-70.9v67.7Z"/>
      <path class="cls-77" d="M294.5,484.6h70.9v-67.7h-70.9v67.7Z"/>
      <path class="cls-58" d="M365.4,484.6h70.9v-67.7h-70.9v67.7Z"/>
      <path class="cls-58" d="M436.3,484.6h70.9v-67.7h-70.9v67.7Z"/>
      <path class="cls-50" d="M507.9,281.5h70.9v-67.7h-70.9v67.7Z"/>
      <path class="cls-40" d="M578.8,281.5h70.9v-67.7h-70.9v67.7Z"/>
      <path class="cls-42" d="M649.8,281.5h70.9v-67.7h-70.9v67.7Z"/>
      <path class="cls-43" d="M720.7,281.5h70.9v-67.7h-70.9v67.7Z"/>
      <path class="cls-26" d="M791.6,281.5h70.9v-67.7h-70.9v67.7Z"/>
      <path class="cls-63" d="M933.4,350.2h70.9v-67.7h-70.9v67.7Z"/>
      <path class="cls-63" d="M10.8,213.8h70.9v-67.7H10.8v67.7Z"/>
      <path class="cls-70" d="M81.7,213.8h70.9v-67.7h-70.9v67.7Z"/>
      <path class="cls-55" d="M152.6,213.8h70.9v-67.7h-70.9v67.7Z"/>
      <path class="cls-55" d="M223.6,213.8h70.9v-67.7h-70.9v67.7Z"/>
      <path class="cls-55" d="M294.5,213.8h70.9v-67.7h-70.9v67.7Z"/>
      <path class="cls-55" d="M365.4,213.8h70.9v-67.7h-70.9v67.7Z"/>
      <path class="cls-27" d="M436.3,213.8h70.9v-67.7h-70.9v67.7Z"/>
      <path class="cls-16" d="M10.8,552.2h70.9v-67.7H10.8v67.7Z"/>
      <path class="cls-30" d="M81.7,552.2h70.9v-67.7h-70.9v67.7Z"/>
      <path class="cls-17" d="M152.6,552.2h70.9v-67.7h-70.9v67.7Z"/>
      <path class="cls-35" d="M223.6,552.2h70.9v-67.7h-70.9v67.7Z"/>
      <path class="cls-32" d="M294.5,552.2h70.9v-67.7h-70.9v67.7Z"/>
      <path class="cls-10" d="M365.4,552.2h70.9v-67.7h-70.9v67.7Z"/>
      <path class="cls-10" d="M436.3,552.2h70.9v-67.7h-70.9v67.7Z"/>
      <path class="cls-10" d="M507.9,349.2h70.9v-67.7h-70.9v67.7Z"/>
      <path class="cls-10" d="M578.8,349.2h70.9v-67.7h-70.9v67.7Z"/>
      <path class="cls-10" d="M649.8,349.2h70.9v-67.7h-70.9v67.7Z"/>
      <path class="cls-10" d="M862.5,213.8h70.9v-67.7h-70.9v67.7Z"/>
      <path class="cls-10" d="M933.4,213.8h70.9v-67.7h-70.9v67.7Z"/>
      <path class="cls-10" d="M933.4,417.9h70.9v-67.7h-70.9v67.7Z"/>
      <path class="cls-10" d="M10.8,281.5h70.9v-67.7H10.8v67.7Z"/>
      <path class="cls-3" d="M81.7,281.5h70.9v-67.7h-70.9v67.7Z"/>
      <path class="cls-3" d="M152.6,281.5h70.9v-67.7h-70.9v67.7Z"/>
      <path class="cls-3" d="M223.6,281.5h70.9v-67.7h-70.9v67.7Z"/>
      <path class="cls-3" d="M294.5,281.5h70.9v-67.7h-70.9v67.7Z"/>
      <path class="cls-65" d="M365.4,281.5h70.9v-67.7h-70.9v67.7Z"/>
      <path class="cls-65" d="M436.3,281.5h70.9v-67.7h-70.9v67.7Z"/>
      <path class="cls-65" d="M507.9,78.5h70.9V10.8h-70.9v67.7Z"/>
      <path class="cls-23" d="M578.8,78.5h70.9V10.8h-70.9v67.7Z"/>
      <path class="cls-23" d="M649.8,78.5h70.9V10.8h-70.9v67.7Z"/>
      <path class="cls-68" d="M720.7,78.5h70.9V10.8h-70.9v67.7Z"/>
      <path class="cls-51" d="M791.6,78.5h70.9V10.8h-70.9v67.7Z"/>
      <path class="cls-56" d="M862.5,78.5h70.9V10.8h-70.9v67.7Z"/>
      <path class="cls-72" d="M933.4,78.5h70.9V10.8h-70.9v67.7Z"/>
      <path class="cls-64" d="M720.7,349.2h70.9v-67.7h-70.9v67.7Z"/>
      <path class="cls-52" d="M791.6,349.2h70.9v-67.7h-70.9v67.7Z"/>
      <path class="cls-71" d="M862.5,349.2h70.9v-67.7h-70.9v67.7Z"/>
      <path class="cls-39" d="M862.5,281.5h70.9v-67.7h-70.9v67.7Z"/>
      <path class="cls-22" d="M933.4,281.5h70.9v-67.7h-70.9v67.7Z"/>
      <path class="cls-36" d="M507.9,486.6h70.9v-67.7h-70.9v67.7Z"/>
      <path class="cls-46" d="M10.8,349.2h70.9v-67.7H10.8v67.7Z"/>
      <path class="cls-47" d="M81.7,349.2h70.9v-67.7h-70.9v67.7Z"/>
      <path class="cls-57" d="M152.6,349.2h70.9v-67.7h-70.9v67.7Z"/>
      <path class="cls-67" d="M223.6,349.2h70.9v-67.7h-70.9v67.7Z"/>
      <path class="cls-38" d="M294.5,349.2h70.9v-67.7h-70.9v67.7Z"/>
      <path class="cls-37" d="M365.4,349.2h70.9v-67.7h-70.9v67.7Z"/>
      <path class="cls-6" d="M436.3,349.2h70.9v-67.7h-70.9v67.7Z"/>
      <path class="cls-8" d="M507.9,146.2h70.9v-67.7h-70.9v67.7Z"/>
      <path class="cls-1" d="M578.8,146.2h70.9v-67.7h-70.9v67.7Z"/>
      <path class="cls-49" d="M649.8,146.2h70.9v-67.7h-70.9v67.7Z"/>
      <path class="cls-69" d="M720.7,146.2h70.9v-67.7h-70.9v67.7Z"/>
      <path class="cls-2" d="M791.6,146.2h70.9v-67.7h-70.9v67.7Z"/>
      <path class="cls-33" d="M862.5,146.2h70.9v-67.7h-70.9v67.7Z"/>
      <path class="cls-9" d="M933.4,146.2h70.9v-67.7h-70.9v67.7Z"/>
      <path class="cls-34" d="M508,417.9h70.9v-67.7h-70.9v67.7Z"/>
      <path class="cls-14" d="M579,417.9h70.9v-67.7h-70.9v67.7Z"/>
      <path class="cls-19" d="M649.9,417.9h70.9v-67.7h-70.9v67.7Z"/>
      <path class="cls-41" d="M720.8,417.9h70.9v-67.7h-70.9v67.7Z"/>
      <path class="cls-15" d="M791.7,417.9h70.9v-67.7h-70.9v67.7Z"/>
      <path class="cls-62" d="M507.9,554.2h70.9v-67.7h-70.9v67.7Z"/>
    </g>
  </g>
</svg>