<?xml version="1.0" encoding="UTF-8"?>
<svg xmlns="http://www.w3.org/2000/svg" version="1.1" viewBox="0 0 527.5 385.5">
  <defs>
    <style>
      .cls-1 {
        fill: #d5ab99;
        stroke: #d5ab99;
      }

      .cls-2 {
        fill: #302e25;
        stroke: #302e25;
      }

      .cls-3 {
        fill: #1c2228;
        stroke: #1c2228;
      }

      .cls-4 {
        fill: #bfbbae;
        stroke: #bfbbae;
      }

      .cls-5 {
        fill: #c0a69b;
        stroke: #c0a69b;
      }

      .cls-6 {
        fill: #373530;
        stroke: #373530;
      }

      .cls-7 {
        fill: #4e8cb5;
        stroke: #4e8cb5;
      }

      .cls-8 {
        fill: #373634;
        stroke: #373634;
      }

      .cls-9 {
        fill: #ab9c8c;
        stroke: #ab9c8c;
      }

      .cls-10 {
        fill: #c0a89c;
        stroke: #c0a89c;
      }

      .cls-11 {
        fill: #b3b5b8;
        stroke: #b3b5b8;
      }

      .cls-12 {
        fill: #b99f87;
        stroke: #b99f87;
      }

      .cls-13 {
        fill: #3c312a;
        stroke: #3c312a;
      }

      .cls-14 {
        fill: #dcd8d0;
        stroke: #dcd8d0;
      }

      .cls-15 {
        fill: #482d22;
        stroke: #482d22;
      }

      .cls-16 {
        fill: #dfcbc0;
        stroke: #dfcbc0;
      }

      .cls-17 {
        fill: #2e2e2a;
        stroke: #2e2e2a;
      }

      .cls-18 {
        fill: #a5947d;
        stroke: #a5947d;
      }

      .cls-19 {
        fill: #bec7c1;
        stroke: #bec7c1;
      }

      .cls-20 {
        fill: #cbc1bb;
        stroke: #cbc1bb;
      }

      .cls-21 {
        fill: #b7a8b0;
        stroke: #b7a8b0;
      }

      .cls-22 {
        fill: #a08470;
        stroke: #a08470;
      }

      .cls-23 {
        fill: #393a36;
        stroke: #393a36;
      }

      .cls-24 {
        fill: #937f69;
        stroke: #937f69;
      }

      .cls-25 {
        fill: #d1c9b9;
        stroke: #d1c9b9;
      }

      .cls-26 {
        fill: #3d332d;
        stroke: #3d332d;
      }
    </style>
  </defs>
  <!-- Generator: Adobe Illustrator 28.7.7, SVG Export Plug-In . SVG Version: 1.2.0 Build 194)  -->
  <g>
    <g id="Layer_1">
      <g>
        <path class="cls-23" d="M11.8,70.4h71.3V8.8H11.8v61.5Z"/>
        <path class="cls-14" d="M83.1,70.4h71.3V8.8h-71.3v61.5Z"/>
        <path class="cls-16" d="M154.4,70.4h71.3V8.8h-71.3v61.5Z"/>
        <path class="cls-10" d="M225.7,70.4h71.3V8.8h-71.3v61.5Z"/>
        <path class="cls-2" d="M297,70.4h71.3V8.8h-71.3v61.5Z"/>
        <path class="cls-13" d="M368.3,70.4h71.3V8.8h-71.3v61.5Z"/>
        <path class="cls-8" d="M439.6,70.4h71.3V8.8h-71.3v61.5Z"/>
        <path class="cls-24" d="M11.8,193.4h71.3v-61.5H11.8v61.5Z"/>
        <path class="cls-6" d="M83.1,193.4h71.3v-61.5h-71.3v61.5Z"/>
        <path class="cls-6" d="M154.4,193.4h71.3v-61.5h-71.3v61.5Z"/>
        <path class="cls-15" d="M225.7,193.4h71.3v-61.5h-71.3v61.5Z"/>
        <path class="cls-25" d="M297,193.4h71.3v-61.5h-71.3v61.5Z"/>
        <path class="cls-22" d="M368.3,193.4h71.3v-61.5h-71.3v61.5Z"/>
        <path class="cls-20" d="M439.6,193.4h71.3v-61.5h-71.3v61.5Z"/>
        <path class="cls-7" d="M11.8,316.5h71.3v-61.5H11.8v61.5Z"/>
        <path class="cls-20" d="M83.1,316.5h71.3v-61.5h-71.3v61.5Z"/>
        <path class="cls-12" d="M154.4,316.5h71.3v-61.5h-71.3v61.5Z"/>
        <path class="cls-9" d="M225.7,316.5h71.3v-61.5h-71.3v61.5Z"/>
        <path class="cls-5" d="M297,316.5h71.3v-61.5h-71.3v61.5Z"/>
        <path class="cls-17" d="M368.3,316.5h71.3v-61.5h-71.3v61.5Z"/>
        <path class="cls-19" d="M11.8,131.9h71.3v-61.5H11.8v61.5Z"/>
        <path class="cls-19" d="M83.1,131.9h71.3v-61.5h-71.3v61.5Z"/>
        <path class="cls-26" d="M154.4,131.9h71.3v-61.5h-71.3v61.5Z"/>
        <path class="cls-26" d="M225.7,131.9h71.3v-61.5h-71.3v61.5Z"/>
        <path class="cls-26" d="M297,131.9h71.3v-61.5h-71.3v61.5Z"/>
        <path class="cls-26" d="M368.3,131.9h71.3v-61.5h-71.3v61.5Z"/>
        <path class="cls-1" d="M439.6,131.9h71.3v-61.5h-71.3v61.5Z"/>
        <path class="cls-4" d="M11.8,254.9h71.3v-61.5H11.8v61.5Z"/>
        <path class="cls-26" d="M83.1,254.9h71.3v-61.5h-71.3v61.5Z"/>
        <path class="cls-26" d="M154.4,254.9h71.3v-61.5h-71.3v61.5Z"/>
        <path class="cls-26" d="M225.7,254.9h71.3v-61.5h-71.3v61.5Z"/>
        <path class="cls-26" d="M297,254.9h71.3v-61.5h-71.3v61.5Z"/>
        <path class="cls-21" d="M368.3,254.9h71.3v-61.5h-71.3v61.5Z"/>
        <path class="cls-21" d="M439.6,254.9h71.3v-61.5h-71.3v61.5Z"/>
        <path class="cls-21" d="M11.8,378h71.3v-61.5H11.8v61.5Z"/>
        <path class="cls-3" d="M83.1,378h71.3v-61.5h-71.3v61.5Z"/>
        <path class="cls-18" d="M154.4,378h71.3v-61.5h-71.3v61.5Z"/>
        <path class="cls-11" d="M439.6,316.5h71.3v-61.5h-71.3v61.5Z"/>
      </g>
    </g>
  </g>
</svg>