<?xml version="1.0" encoding="utf-8" standalone="no"?>
<!DOCTYPE svg PUBLIC "-//W3C//DTD SVG 1.1//EN"
  "http://www.w3.org/Graphics/SVG/1.1/DTD/svg11.dtd">
<svg xmlns:xlink="http://www.w3.org/1999/xlink" width="1440pt" height="288pt" viewBox="0 0 1440 288" xmlns="http://www.w3.org/2000/svg" version="1.1">
 <metadata>
  <rdf:RDF xmlns:dc="http://purl.org/dc/elements/1.1/" xmlns:cc="http://creativecommons.org/ns#" xmlns:rdf="http://www.w3.org/1999/02/22-rdf-syntax-ns#">
   <cc:Work>
    <dc:type rdf:resource="http://purl.org/dc/dcmitype/StillImage"/>
    <dc:date>2025-05-04T17:21:06.597332</dc:date>
    <dc:format>image/svg+xml</dc:format>
    <dc:creator>
     <cc:Agent>
      <dc:title>Matplotlib v3.9.2, https://matplotlib.org/</dc:title>
     </cc:Agent>
    </dc:creator>
   </cc:Work>
  </rdf:RDF>
 </metadata>
 <defs>
  <style type="text/css">*{stroke-linejoin: round; stroke-linecap: butt}</style>
 </defs>
 <g id="figure_1">
  <g id="patch_1">
   <path d="M 0 288 
L 1440 288 
L 1440 0 
L 0 0 
z
" style="fill: #ffffff"/>
  </g>
  <g id="axes_1">
   <g id="patch_2">
    <path d="M 10.8 77.4 
L 81.72 77.4 
L 81.72 10.8 
L 10.8 10.8 
z
" clip-path="url(#pd6892d50fe)" style="fill: #1f130d; stroke: #1f130d; stroke-linejoin: miter"/>
   </g>
   <g id="patch_3">
    <path d="M 81.72 77.4 
L 152.64 77.4 
L 152.64 10.8 
L 81.72 10.8 
z
" clip-path="url(#pd6892d50fe)" style="fill: #d3cac5; stroke: #d3cac5; stroke-linejoin: miter"/>
   </g>
   <g id="patch_4">
    <path d="M 152.64 77.4 
L 223.56 77.4 
L 223.56 10.8 
L 152.64 10.8 
z
" clip-path="url(#pd6892d50fe)" style="fill: #786355; stroke: #786355; stroke-linejoin: miter"/>
   </g>
   <g id="patch_5">
    <path d="M 223.56 77.4 
L 294.48 77.4 
L 294.48 10.8 
L 223.56 10.8 
z
" clip-path="url(#pd6892d50fe)" style="fill: #1c301e; stroke: #1c301e; stroke-linejoin: miter"/>
   </g>
   <g id="patch_6">
    <path d="M 294.48 77.4 
L 365.4 77.4 
L 365.4 10.8 
L 294.48 10.8 
z
" clip-path="url(#pd6892d50fe)" style="fill: #cbb69b; stroke: #cbb69b; stroke-linejoin: miter"/>
   </g>
   <g id="patch_7">
    <path d="M 365.4 77.4 
L 436.32 77.4 
L 436.32 10.8 
L 365.4 10.8 
z
" clip-path="url(#pd6892d50fe)" style="fill: #ddd5c8; stroke: #ddd5c8; stroke-linejoin: miter"/>
   </g>
   <g id="patch_8">
    <path d="M 436.32 77.4 
L 507.24 77.4 
L 507.24 10.8 
L 436.32 10.8 
z
" clip-path="url(#pd6892d50fe)" style="fill: #353433; stroke: #353433; stroke-linejoin: miter"/>
   </g>
   <g id="patch_9">
    <path d="M 507.24 77.4 
L 578.16 77.4 
L 578.16 10.8 
L 507.24 10.8 
z
" clip-path="url(#pd6892d50fe)" style="fill: #b6aca3; stroke: #b6aca3; stroke-linejoin: miter"/>
   </g>
   <g id="patch_10">
    <path d="M 578.16 77.4 
L 649.08 77.4 
L 649.08 10.8 
L 578.16 10.8 
z
" clip-path="url(#pd6892d50fe)" style="fill: #cdc5c0; stroke: #cdc5c0; stroke-linejoin: miter"/>
   </g>
   <g id="patch_11">
    <path d="M 649.08 77.4 
L 720 77.4 
L 720 10.8 
L 649.08 10.8 
z
" clip-path="url(#pd6892d50fe)" style="fill: #19171a; stroke: #19171a; stroke-linejoin: miter"/>
   </g>
   <g id="patch_12">
    <path d="M 720 77.4 
L 790.92 77.4 
L 790.92 10.8 
L 720 10.8 
z
" clip-path="url(#pd6892d50fe)" style="fill: #bab0ac; stroke: #bab0ac; stroke-linejoin: miter"/>
   </g>
   <g id="patch_13">
    <path d="M 790.92 77.4 
L 861.84 77.4 
L 861.84 10.8 
L 790.92 10.8 
z
" clip-path="url(#pd6892d50fe)" style="fill: #cdc5c0; stroke: #cdc5c0; stroke-linejoin: miter"/>
   </g>
   <g id="patch_14">
    <path d="M 861.84 77.4 
L 932.76 77.4 
L 932.76 10.8 
L 861.84 10.8 
z
" clip-path="url(#pd6892d50fe)" style="fill: #cdc5c0; stroke: #cdc5c0; stroke-linejoin: miter"/>
   </g>
   <g id="patch_15">
    <path d="M 932.76 77.4 
L 1003.68 77.4 
L 1003.68 10.8 
L 932.76 10.8 
z
" clip-path="url(#pd6892d50fe)" style="fill: #8d929a; stroke: #8d929a; stroke-linejoin: miter"/>
   </g>
   <g id="patch_16">
    <path d="M 1003.68 77.4 
L 1074.6 77.4 
L 1074.6 10.8 
L 1003.68 10.8 
z
" clip-path="url(#pd6892d50fe)" style="fill: #cdc5c0; stroke: #cdc5c0; stroke-linejoin: miter"/>
   </g>
   <g id="patch_17">
    <path d="M 1074.6 77.4 
L 1145.52 77.4 
L 1145.52 10.8 
L 1074.6 10.8 
z
" clip-path="url(#pd6892d50fe)" style="fill: #cdc5c0; stroke: #cdc5c0; stroke-linejoin: miter"/>
   </g>
   <g id="patch_18">
    <path d="M 1145.52 77.4 
L 1216.44 77.4 
L 1216.44 10.8 
L 1145.52 10.8 
z
" clip-path="url(#pd6892d50fe)" style="fill: #cdc5c0; stroke: #cdc5c0; stroke-linejoin: miter"/>
   </g>
   <g id="patch_19">
    <path d="M 1216.44 77.4 
L 1287.36 77.4 
L 1287.36 10.8 
L 1216.44 10.8 
z
" clip-path="url(#pd6892d50fe)" style="fill: #cdc5c0; stroke: #cdc5c0; stroke-linejoin: miter"/>
   </g>
   <g id="patch_20">
    <path d="M 1287.36 77.4 
L 1358.28 77.4 
L 1358.28 10.8 
L 1287.36 10.8 
z
" clip-path="url(#pd6892d50fe)" style="fill: #cdc5c0; stroke: #cdc5c0; stroke-linejoin: miter"/>
   </g>
   <g id="patch_21">
    <path d="M 1358.28 77.4 
L 1429.2 77.4 
L 1429.2 10.8 
L 1358.28 10.8 
z
" clip-path="url(#pd6892d50fe)" style="fill: #cdc5c0; stroke: #cdc5c0; stroke-linejoin: miter"/>
   </g>
   <g id="patch_22">
    <path d="M 10.8 144 
L 81.72 144 
L 81.72 77.4 
L 10.8 77.4 
z
" clip-path="url(#pd6892d50fe)" style="fill: #cdc5c0; stroke: #cdc5c0; stroke-linejoin: miter"/>
   </g>
   <g id="patch_23">
    <path d="M 81.72 144 
L 152.64 144 
L 152.64 77.4 
L 81.72 77.4 
z
" clip-path="url(#pd6892d50fe)" style="fill: #cdc5c0; stroke: #cdc5c0; stroke-linejoin: miter"/>
   </g>
   <g id="patch_24">
    <path d="M 152.64 144 
L 223.56 144 
L 223.56 77.4 
L 152.64 77.4 
z
" clip-path="url(#pd6892d50fe)" style="fill: #cdc5c0; stroke: #cdc5c0; stroke-linejoin: miter"/>
   </g>
   <g id="patch_25">
    <path d="M 223.56 144 
L 294.48 144 
L 294.48 77.4 
L 223.56 77.4 
z
" clip-path="url(#pd6892d50fe)" style="fill: #cdc5c0; stroke: #cdc5c0; stroke-linejoin: miter"/>
   </g>
   <g id="patch_26">
    <path d="M 294.48 144 
L 365.4 144 
L 365.4 77.4 
L 294.48 77.4 
z
" clip-path="url(#pd6892d50fe)" style="fill: #cdc5c0; stroke: #cdc5c0; stroke-linejoin: miter"/>
   </g>
   <g id="patch_27">
    <path d="M 365.4 144 
L 436.32 144 
L 436.32 77.4 
L 365.4 77.4 
z
" clip-path="url(#pd6892d50fe)" style="fill: #cdc5c0; stroke: #cdc5c0; stroke-linejoin: miter"/>
   </g>
   <g id="patch_28">
    <path d="M 436.32 144 
L 507.24 144 
L 507.24 77.4 
L 436.32 77.4 
z
" clip-path="url(#pd6892d50fe)" style="fill: #cdc5c0; stroke: #cdc5c0; stroke-linejoin: miter"/>
   </g>
   <g id="patch_29">
    <path d="M 507.24 144 
L 578.16 144 
L 578.16 77.4 
L 507.24 77.4 
z
" clip-path="url(#pd6892d50fe)" style="fill: #cdc5c0; stroke: #cdc5c0; stroke-linejoin: miter"/>
   </g>
   <g id="patch_30">
    <path d="M 578.16 144 
L 649.08 144 
L 649.08 77.4 
L 578.16 77.4 
z
" clip-path="url(#pd6892d50fe)" style="fill: #c9b9ab; stroke: #c9b9ab; stroke-linejoin: miter"/>
   </g>
   <g id="patch_31">
    <path d="M 649.08 144 
L 720 144 
L 720 77.4 
L 649.08 77.4 
z
" clip-path="url(#pd6892d50fe)" style="fill: #cdc5c0; stroke: #cdc5c0; stroke-linejoin: miter"/>
   </g>
   <g id="patch_32">
    <path d="M 720 144 
L 790.92 144 
L 790.92 77.4 
L 720 77.4 
z
" clip-path="url(#pd6892d50fe)" style="fill: #cdc5c0; stroke: #cdc5c0; stroke-linejoin: miter"/>
   </g>
   <g id="patch_33">
    <path d="M 790.92 144 
L 861.84 144 
L 861.84 77.4 
L 790.92 77.4 
z
" clip-path="url(#pd6892d50fe)" style="fill: #cdc5c0; stroke: #cdc5c0; stroke-linejoin: miter"/>
   </g>
   <g id="patch_34">
    <path d="M 861.84 144 
L 932.76 144 
L 932.76 77.4 
L 861.84 77.4 
z
" clip-path="url(#pd6892d50fe)" style="fill: #d7c5c0; stroke: #d7c5c0; stroke-linejoin: miter"/>
   </g>
   <g id="patch_35">
    <path d="M 932.76 144 
L 1003.68 144 
L 1003.68 77.4 
L 932.76 77.4 
z
" clip-path="url(#pd6892d50fe)" style="fill: #cdc5c0; stroke: #cdc5c0; stroke-linejoin: miter"/>
   </g>
   <g id="patch_36">
    <path d="M 1003.68 144 
L 1074.6 144 
L 1074.6 77.4 
L 1003.68 77.4 
z
" clip-path="url(#pd6892d50fe)" style="fill: #cdc5c0; stroke: #cdc5c0; stroke-linejoin: miter"/>
   </g>
   <g id="patch_37">
    <path d="M 1074.6 144 
L 1145.52 144 
L 1145.52 77.4 
L 1074.6 77.4 
z
" clip-path="url(#pd6892d50fe)" style="fill: #cdc0ba; stroke: #cdc0ba; stroke-linejoin: miter"/>
   </g>
   <g id="patch_38">
    <path d="M 1145.52 144 
L 1216.44 144 
L 1216.44 77.4 
L 1145.52 77.4 
z
" clip-path="url(#pd6892d50fe)" style="fill: #cdc5c0; stroke: #cdc5c0; stroke-linejoin: miter"/>
   </g>
   <g id="patch_39">
    <path d="M 1216.44 144 
L 1287.36 144 
L 1287.36 77.4 
L 1216.44 77.4 
z
" clip-path="url(#pd6892d50fe)" style="fill: #cdc5c0; stroke: #cdc5c0; stroke-linejoin: miter"/>
   </g>
   <g id="patch_40">
    <path d="M 1287.36 144 
L 1358.28 144 
L 1358.28 77.4 
L 1287.36 77.4 
z
" clip-path="url(#pd6892d50fe)" style="fill: #cdc5c0; stroke: #cdc5c0; stroke-linejoin: miter"/>
   </g>
   <g id="patch_41">
    <path d="M 1358.28 144 
L 1429.2 144 
L 1429.2 77.4 
L 1358.28 77.4 
z
" clip-path="url(#pd6892d50fe)" style="fill: #cdc5c0; stroke: #cdc5c0; stroke-linejoin: miter"/>
   </g>
   <g id="patch_42">
    <path d="M 10.8 210.6 
L 81.72 210.6 
L 81.72 144 
L 10.8 144 
z
" clip-path="url(#pd6892d50fe)" style="fill: #cea592; stroke: #cea592; stroke-linejoin: miter"/>
   </g>
   <g id="patch_43">
    <path d="M 81.72 210.6 
L 152.64 210.6 
L 152.64 144 
L 81.72 144 
z
" clip-path="url(#pd6892d50fe)" style="fill: #cdc5c0; stroke: #cdc5c0; stroke-linejoin: miter"/>
   </g>
   <g id="patch_44">
    <path d="M 152.64 210.6 
L 223.56 210.6 
L 223.56 144 
L 152.64 144 
z
" clip-path="url(#pd6892d50fe)" style="fill: #cdc5c0; stroke: #cdc5c0; stroke-linejoin: miter"/>
   </g>
   <g id="patch_45">
    <path d="M 223.56 210.6 
L 294.48 210.6 
L 294.48 144 
L 223.56 144 
z
" clip-path="url(#pd6892d50fe)" style="fill: #c3bab2; stroke: #c3bab2; stroke-linejoin: miter"/>
   </g>
   <g id="patch_46">
    <path d="M 294.48 210.6 
L 365.4 210.6 
L 365.4 144 
L 294.48 144 
z
" clip-path="url(#pd6892d50fe)" style="fill: #cdc0ba; stroke: #cdc0ba; stroke-linejoin: miter"/>
   </g>
   <g id="patch_47">
    <path d="M 365.4 210.6 
L 436.32 210.6 
L 436.32 144 
L 365.4 144 
z
" clip-path="url(#pd6892d50fe)" style="fill: #4b3f38; stroke: #4b3f38; stroke-linejoin: miter"/>
   </g>
   <g id="patch_48">
    <path d="M 436.32 210.6 
L 507.24 210.6 
L 507.24 144 
L 436.32 144 
z
" clip-path="url(#pd6892d50fe)" style="fill: #413c34; stroke: #413c34; stroke-linejoin: miter"/>
   </g>
   <g id="patch_49">
    <path d="M 507.24 210.6 
L 578.16 210.6 
L 578.16 144 
L 507.24 144 
z
" clip-path="url(#pd6892d50fe)" style="fill: #c4b7bb; stroke: #c4b7bb; stroke-linejoin: miter"/>
   </g>
   <g id="patch_50">
    <path d="M 578.16 210.6 
L 649.08 210.6 
L 649.08 144 
L 578.16 144 
z
" clip-path="url(#pd6892d50fe)" style="fill: #2f2a25; stroke: #2f2a25; stroke-linejoin: miter"/>
   </g>
   <g id="patch_51">
    <path d="M 649.08 210.6 
L 720 210.6 
L 720 144 
L 649.08 144 
z
" clip-path="url(#pd6892d50fe)" style="fill: #cdc5c0; stroke: #cdc5c0; stroke-linejoin: miter"/>
   </g>
   <g id="patch_52">
    <path d="M 720 210.6 
L 790.92 210.6 
L 790.92 144 
L 720 144 
z
" clip-path="url(#pd6892d50fe)" style="fill: #3f3539; stroke: #3f3539; stroke-linejoin: miter"/>
   </g>
   <g id="patch_53">
    <path d="M 790.92 210.6 
L 861.84 210.6 
L 861.84 144 
L 790.92 144 
z
" clip-path="url(#pd6892d50fe)" style="fill: #cdc5c0; stroke: #cdc5c0; stroke-linejoin: miter"/>
   </g>
   <g id="patch_54">
    <path d="M 861.84 210.6 
L 932.76 210.6 
L 932.76 144 
L 861.84 144 
z
" clip-path="url(#pd6892d50fe)" style="fill: #494e4b; stroke: #494e4b; stroke-linejoin: miter"/>
   </g>
   <g id="patch_55">
    <path d="M 932.76 210.6 
L 1003.68 210.6 
L 1003.68 144 
L 932.76 144 
z
" clip-path="url(#pd6892d50fe)" style="fill: #cdc5c0; stroke: #cdc5c0; stroke-linejoin: miter"/>
   </g>
   <g id="patch_56">
    <path d="M 1003.68 210.6 
L 1074.6 210.6 
L 1074.6 144 
L 1003.68 144 
z
" clip-path="url(#pd6892d50fe)" style="fill: #3f3531; stroke: #3f3531; stroke-linejoin: miter"/>
   </g>
   <g id="patch_57">
    <path d="M 1074.6 210.6 
L 1145.52 210.6 
L 1145.52 144 
L 1074.6 144 
z
" clip-path="url(#pd6892d50fe)" style="fill: #cdc5c0; stroke: #cdc5c0; stroke-linejoin: miter"/>
   </g>
   <g id="patch_58">
    <path d="M 1145.52 210.6 
L 1216.44 210.6 
L 1216.44 144 
L 1145.52 144 
z
" clip-path="url(#pd6892d50fe)" style="fill: #cabdb2; stroke: #cabdb2; stroke-linejoin: miter"/>
   </g>
   <g id="patch_59">
    <path d="M 1216.44 210.6 
L 1287.36 210.6 
L 1287.36 144 
L 1216.44 144 
z
" clip-path="url(#pd6892d50fe)" style="fill: #cdc5c0; stroke: #cdc5c0; stroke-linejoin: miter"/>
   </g>
   <g id="patch_60">
    <path d="M 1287.36 210.6 
L 1358.28 210.6 
L 1358.28 144 
L 1287.36 144 
z
" clip-path="url(#pd6892d50fe)" style="fill: #e8ddcd; stroke: #e8ddcd; stroke-linejoin: miter"/>
   </g>
   <g id="patch_61">
    <path d="M 1358.28 210.6 
L 1429.2 210.6 
L 1429.2 144 
L 1358.28 144 
z
" clip-path="url(#pd6892d50fe)" style="fill: #cdc5c0; stroke: #cdc5c0; stroke-linejoin: miter"/>
   </g>
   <g id="patch_62">
    <path d="M 10.8 277.2 
L 81.72 277.2 
L 81.72 210.6 
L 10.8 210.6 
z
" clip-path="url(#pd6892d50fe)" style="fill: #7b624d; stroke: #7b624d; stroke-linejoin: miter"/>
   </g>
   <g id="patch_63">
    <path d="M 81.72 277.2 
L 152.64 277.2 
L 152.64 210.6 
L 81.72 210.6 
z
" clip-path="url(#pd6892d50fe)" style="fill: #362c24; stroke: #362c24; stroke-linejoin: miter"/>
   </g>
   <g id="patch_64">
    <path d="M 152.64 277.2 
L 223.56 277.2 
L 223.56 210.6 
L 152.64 210.6 
z
" clip-path="url(#pd6892d50fe)" style="fill: #353433; stroke: #353433; stroke-linejoin: miter"/>
   </g>
   <g id="patch_65">
    <path d="M 223.56 277.2 
L 294.48 277.2 
L 294.48 210.6 
L 223.56 210.6 
z
" clip-path="url(#pd6892d50fe)" style="fill: #454441; stroke: #454441; stroke-linejoin: miter"/>
   </g>
   <g id="patch_66">
    <path d="M 294.48 277.2 
L 365.4 277.2 
L 365.4 210.6 
L 294.48 210.6 
z
" clip-path="url(#pd6892d50fe)" style="fill: #36312b; stroke: #36312b; stroke-linejoin: miter"/>
   </g>
  </g>
 </g>
 <defs>
  <clipPath id="pd6892d50fe">
   <rect x="10.8" y="10.8" width="1418.4" height="266.4"/>
  </clipPath>
 </defs>
</svg>
