<?xml version="1.0" encoding="UTF-8"?>
<svg xmlns="http://www.w3.org/2000/svg" version="1.1" viewBox="0 0 737 1281.9">
  <defs>
    <style>
      .cls-1 {
        fill: #2d2726;
      }

      .cls-1, .cls-2, .cls-3, .cls-4, .cls-5, .cls-6, .cls-7, .cls-8, .cls-9, .cls-10, .cls-11, .cls-12, .cls-13, .cls-14, .cls-15, .cls-16, .cls-17, .cls-18, .cls-19, .cls-20, .cls-21, .cls-22, .cls-23, .cls-24, .cls-25, .cls-26, .cls-27, .cls-28, .cls-29, .cls-30, .cls-31, .cls-32, .cls-33, .cls-34, .cls-35, .cls-36, .cls-37, .cls-38, .cls-39, .cls-40, .cls-41, .cls-42, .cls-43, .cls-44, .cls-45, .cls-46, .cls-47, .cls-48, .cls-49, .cls-50, .cls-51, .cls-52, .cls-53, .cls-54, .cls-55, .cls-56, .cls-57, .cls-58, .cls-59, .cls-60, .cls-61, .cls-62, .cls-63, .cls-64, .cls-65, .cls-66, .cls-67, .cls-68, .cls-69, .cls-70, .cls-71, .cls-72, .cls-73, .cls-74, .cls-75, .cls-76, .cls-77, .cls-78, .cls-79, .cls-80, .cls-81, .cls-82, .cls-83, .cls-84, .cls-85, .cls-86, .cls-87, .cls-88, .cls-89, .cls-90, .cls-91, .cls-92, .cls-93, .cls-94, .cls-95, .cls-96, .cls-97, .cls-98, .cls-99, .cls-100, .cls-101, .cls-102, .cls-103, .cls-104, .cls-105, .cls-106, .cls-107, .cls-108, .cls-109, .cls-110, .cls-111, .cls-112, .cls-113, .cls-114 {
        stroke: #fff;
        stroke-width: 3px;
      }

      .cls-2 {
        fill: #b4967b;
      }

      .cls-3 {
        fill: #755341;
      }

      .cls-4 {
        fill: #d0c8c2;
      }

      .cls-5 {
        fill: #c4bfb6;
      }

      .cls-6 {
        fill: #b07152;
      }

      .cls-7 {
        fill: #7d6858;
      }

      .cls-8 {
        fill: #d6b49a;
      }

      .cls-9 {
        fill: #ccb3a3;
      }

      .cls-10 {
        fill: #d98387;
      }

      .cls-11 {
        fill: #c5b9b0;
      }

      .cls-12 {
        fill: #27303c;
      }

      .cls-13 {
        fill: #d1bf9e;
      }

      .cls-14 {
        fill: #c9c5c0;
      }

      .cls-15 {
        fill: #3a3937;
      }

      .cls-16 {
        fill: #303131;
      }

      .cls-17 {
        fill: #cec7bd;
      }

      .cls-18 {
        fill: #917f66;
      }

      .cls-19 {
        fill: #cac5b9;
      }

      .cls-20 {
        fill: #cac0ab;
      }

      .cls-21 {
        fill: #aa7f61;
      }

      .cls-22 {
        fill: #af8c6b;
      }

      .cls-23 {
        fill: #dbd6c8;
      }

      .cls-24 {
        fill: #2f3638;
      }

      .cls-25 {
        fill: #323634;
      }

      .cls-26 {
        fill: #c3bcb4;
      }

      .cls-27 {
        fill: #897a67;
      }

      .cls-28 {
        fill: #baada1;
      }

      .cls-29 {
        fill: #cbc2b3;
      }

      .cls-30 {
        fill: #b49e86;
      }

      .cls-31 {
        fill: #c8b7a6;
      }

      .cls-32 {
        fill: #363634;
      }

      .cls-33 {
        fill: #beb6a9;
      }

      .cls-34 {
        fill: #423c33;
      }

      .cls-35 {
        fill: #b38e80;
      }

      .cls-36 {
        fill: #c4baae;
      }

      .cls-37 {
        fill: #cfcbbf;
      }

      .cls-38 {
        fill: #3b3834;
      }

      .cls-39 {
        fill: #beb4a8;
      }

      .cls-40 {
        fill: #453b32;
      }

      .cls-41 {
        fill: #ad9682;
      }

      .cls-42 {
        fill: #c3b9b2;
      }

      .cls-43 {
        fill: #7c6146;
      }

      .cls-44 {
        fill: #b4a68d;
      }

      .cls-45 {
        fill: #272a2e;
      }

      .cls-46 {
        fill: #3c3f35;
      }

      .cls-47 {
        fill: #927a63;
      }

      .cls-48 {
        fill: #bdb5ac;
      }

      .cls-49 {
        fill: #d1c1b5;
      }

      .cls-50 {
        fill: #ab9982;
      }

      .cls-51 {
        fill: #c6bdb1;
      }

      .cls-52 {
        fill: #b88951;
      }

      .cls-53 {
        fill: #41342c;
      }

      .cls-54 {
        fill: #d3c4b9;
      }

      .cls-55 {
        fill: #af9d86;
      }

      .cls-56 {
        fill: #232e2a;
      }

      .cls-57 {
        fill: #d6ccc2;
      }

      .cls-58 {
        fill: #392c24;
      }

      .cls-59 {
        fill: #1b1d1d;
      }

      .cls-60 {
        fill: #d9d1c5;
      }

      .cls-61 {
        fill: #333735;
      }

      .cls-62 {
        fill: #c6c5c3;
      }

      .cls-63 {
        fill: #b4a393;
      }

      .cls-64 {
        fill: #ccc1b7;
      }

      .cls-65 {
        fill: #cab9a8;
      }

      .cls-66 {
        fill: #ac8261;
      }

      .cls-67 {
        fill: #413933;
      }

      .cls-68 {
        fill: #2e3135;
      }

      .cls-69 {
        fill: #c8c1bd;
      }

      .cls-70 {
        fill: #b0a188;
      }

      .cls-71 {
        fill: #c7bdb0;
      }

      .cls-72 {
        fill: #dbc0a0;
      }

      .cls-73 {
        fill: #c5bfb5;
      }

      .cls-74 {
        fill: #9e7652;
      }

      .cls-75 {
        fill: #d7bdc9;
      }

      .cls-76 {
        fill: #3e3629;
      }

      .cls-77 {
        fill: #3b3a2e;
      }

      .cls-78 {
        fill: #302438;
      }

      .cls-79 {
        fill: #82604b;
      }

      .cls-80 {
        fill: #cac0ba;
      }

      .cls-81 {
        fill: #c5beb3;
      }

      .cls-82 {
        fill: #be9671;
      }

      .cls-83 {
        fill: #c49f8b;
      }

      .cls-84 {
        fill: #d2c7bb;
      }

      .cls-85 {
        fill: #b5b3b1;
      }

      .cls-86 {
        fill: #ddd4c1;
      }

      .cls-87 {
        fill: #b2b5a7;
      }

      .cls-88 {
        fill: #26251e;
      }

      .cls-89 {
        fill: #133348;
      }

      .cls-90 {
        fill: #3d2f24;
      }

      .cls-91 {
        fill: #252528;
      }

      .cls-92 {
        fill: #cbbfb5;
      }

      .cls-93 {
        fill: #cdbfb3;
      }

      .cls-94 {
        fill: #7e7267;
      }

      .cls-95 {
        fill: #38302e;
      }

      .cls-96 {
        fill: #c7bbac;
      }

      .cls-97 {
        fill: #363636;
      }

      .cls-98 {
        fill: #d4ccc8;
      }

      .cls-99 {
        fill: #393738;
      }

      .cls-100 {
        fill: #b28c6e;
      }

      .cls-101 {
        fill: #c7cac4;
      }

      .cls-102 {
        fill: #e6d9d1;
      }

      .cls-103 {
        fill: #c7baaf;
      }

      .cls-104 {
        fill: #c2b6a4;
      }

      .cls-105 {
        fill: #3d2e1f;
      }

      .cls-106 {
        fill: #332c20;
      }

      .cls-107 {
        fill: #dadada;
      }

      .cls-108 {
        fill: #d3cdc0;
      }

      .cls-109 {
        fill: #d9d2bd;
      }

      .cls-110 {
        fill: #bfb5ad;
      }

      .cls-111 {
        fill: #3d3936;
      }

      .cls-112 {
        fill: #242821;
      }

      .cls-113 {
        fill: #bcb2a3;
      }

      .cls-114 {
        fill: #413229;
      }
    </style>
  </defs>
  <!-- Generator: Adobe Illustrator 28.7.7, SVG Export Plug-In . SVG Version: 1.2.0 Build 194)  -->
  <g>
    <g id="Layer_1">
      <path class="cls-26" d="M10.8,80.4h70.9V10.8H10.8v69.6Z"/>
      <path class="cls-4" d="M81.7,80.4h70.9V10.8h-70.9v69.6Z"/>
      <path class="cls-61" d="M152.6,80.4h70.9V10.8h-70.9v69.6Z"/>
      <path class="cls-4" d="M223.6,80.4h70.9V10.8h-70.9v69.6Z"/>
      <path class="cls-98" d="M294.5,80.4h70.9V10.8h-70.9v69.6Z"/>
      <path class="cls-14" d="M365.4,80.4h70.9V10.8h-70.9v69.6Z"/>
      <path class="cls-69" d="M436.3,80.4h70.9V10.8h-70.9v69.6Z"/>
      <path class="cls-46" d="M507.2,80.4h70.9V10.8h-70.9v69.6Z"/>
      <path class="cls-46" d="M578.2,80.4h70.9V10.8h-70.9v69.6Z"/>
      <path class="cls-46" d="M649.1,80.4h70.9V10.8h-70.9v69.6Z"/>
      <path class="cls-46" d="M10.8,706.8h70.9v-69.6H10.8v69.6Z"/>
      <path class="cls-46" d="M81.7,706.8h70.9v-69.6h-70.9v69.6Z"/>
      <path class="cls-46" d="M152.6,706.8h70.9v-69.6h-70.9v69.6Z"/>
      <path class="cls-46" d="M223.6,706.8h70.9v-69.6h-70.9v69.6Z"/>
      <path class="cls-46" d="M294.5,706.8h70.9v-69.6h-70.9v69.6Z"/>
      <path class="cls-46" d="M365.4,706.8h70.9v-69.6h-70.9v69.6Z"/>
      <path class="cls-38" d="M436.3,706.8h70.9v-69.6h-70.9v69.6Z"/>
      <path class="cls-31" d="M507.2,706.8h70.9v-69.6h-70.9v69.6Z"/>
      <path class="cls-37" d="M578.2,706.8h70.9v-69.6h-70.9v69.6Z"/>
      <path class="cls-94" d="M649.1,706.8h70.9v-69.6h-70.9v69.6Z"/>
      <path class="cls-94" d="M10.8,150h70.9v-69.6H10.8v69.6Z"/>
      <path class="cls-94" d="M81.7,150h70.9v-69.6h-70.9v69.6Z"/>
      <path class="cls-94" d="M152.6,150h70.9v-69.6h-70.9v69.6Z"/>
      <path class="cls-51" d="M223.6,150h70.9v-69.6h-70.9v69.6Z"/>
      <path class="cls-94" d="M294.5,150h70.9v-69.6h-70.9v69.6Z"/>
      <path class="cls-94" d="M365.4,150h70.9v-69.6h-70.9v69.6Z"/>
      <path class="cls-94" d="M436.3,150h70.9v-69.6h-70.9v69.6Z"/>
      <path class="cls-27" d="M507.2,150h70.9v-69.6h-70.9v69.6Z"/>
      <path class="cls-97" d="M578.2,150h70.9v-69.6h-70.9v69.6Z"/>
      <path class="cls-3" d="M649.1,150h70.9v-69.6h-70.9v69.6Z"/>
      <path class="cls-3" d="M10.8,776.4h70.9v-69.6H10.8v69.6Z"/>
      <path class="cls-20" d="M81.7,776.4h70.9v-69.6h-70.9v69.6Z"/>
      <path class="cls-3" d="M152.6,776.4h70.9v-69.6h-70.9v69.6Z"/>
      <path class="cls-3" d="M223.6,776.4h70.9v-69.6h-70.9v69.6Z"/>
      <path class="cls-3" d="M294.5,776.4h70.9v-69.6h-70.9v69.6Z"/>
      <path class="cls-20" d="M365.4,776.4h70.9v-69.6h-70.9v69.6Z"/>
      <path class="cls-3" d="M436.3,776.4h70.9v-69.6h-70.9v69.6Z"/>
      <path class="cls-13" d="M507.2,776.4h70.9v-69.6h-70.9v69.6Z"/>
      <path class="cls-40" d="M578.2,776.4h70.9v-69.6h-70.9v69.6Z"/>
      <path class="cls-54" d="M649.1,776.4h70.9v-69.6h-70.9v69.6Z"/>
      <path class="cls-54" d="M10.8,219.6h70.9v-69.6H10.8v69.6Z"/>
      <path class="cls-54" d="M81.7,219.6h70.9v-69.6h-70.9v69.6Z"/>
      <path class="cls-54" d="M152.6,219.6h70.9v-69.6h-70.9v69.6Z"/>
      <path class="cls-54" d="M223.6,219.6h70.9v-69.6h-70.9v69.6Z"/>
      <path class="cls-101" d="M294.5,219.6h70.9v-69.6h-70.9v69.6Z"/>
      <path class="cls-63" d="M365.4,219.6h70.9v-69.6h-70.9v69.6Z"/>
      <path class="cls-15" d="M436.3,219.6h70.9v-69.6h-70.9v69.6Z"/>
      <path class="cls-88" d="M507.2,219.6h70.9v-69.6h-70.9v69.6Z"/>
      <path class="cls-63" d="M578.2,219.6h70.9v-69.6h-70.9v69.6Z"/>
      <path class="cls-57" d="M649.1,219.6h70.9v-69.6h-70.9v69.6Z"/>
      <path class="cls-54" d="M10.8,846h70.9v-69.6H10.8v69.6Z"/>
      <path class="cls-54" d="M81.7,846h70.9v-69.6h-70.9v69.6Z"/>
      <path class="cls-54" d="M152.6,846h70.9v-69.6h-70.9v69.6Z"/>
      <path class="cls-101" d="M223.6,846h70.9v-69.6h-70.9v69.6Z"/>
      <path class="cls-72" d="M294.5,846h70.9v-69.6h-70.9v69.6Z"/>
      <path class="cls-76" d="M365.4,846h70.9v-69.6h-70.9v69.6Z"/>
      <path class="cls-81" d="M436.3,846h70.9v-69.6h-70.9v69.6Z"/>
      <path class="cls-76" d="M507.2,846h70.9v-69.6h-70.9v69.6Z"/>
      <path class="cls-59" d="M578.2,846h70.9v-69.6h-70.9v69.6Z"/>
      <path class="cls-62" d="M649.1,846h70.9v-69.6h-70.9v69.6Z"/>
      <path class="cls-108" d="M10.8,289.2h70.9v-69.6H10.8v69.6Z"/>
      <path class="cls-67" d="M81.7,289.2h70.9v-69.6h-70.9v69.6Z"/>
      <path class="cls-106" d="M152.6,289.2h70.9v-69.6h-70.9v69.6Z"/>
      <path class="cls-106" d="M223.6,289.2h70.9v-69.6h-70.9v69.6Z"/>
      <path class="cls-28" d="M294.5,289.2h70.9v-69.6h-70.9v69.6Z"/>
      <path class="cls-29" d="M365.4,289.2h70.9v-69.6h-70.9v69.6Z"/>
      <path class="cls-36" d="M436.3,289.2h70.9v-69.6h-70.9v69.6Z"/>
      <path class="cls-36" d="M507.2,289.2h70.9v-69.6h-70.9v69.6Z"/>
      <path class="cls-11" d="M578.2,289.2h70.9v-69.6h-70.9v69.6Z"/>
      <path class="cls-41" d="M649.1,289.2h70.9v-69.6h-70.9v69.6Z"/>
      <path class="cls-7" d="M10.8,915.6h70.9v-69.6H10.8v69.6Z"/>
      <path class="cls-92" d="M81.7,915.6h70.9v-69.6h-70.9v69.6Z"/>
      <path class="cls-7" d="M152.6,915.6h70.9v-69.6h-70.9v69.6Z"/>
      <path class="cls-91" d="M223.6,915.6h70.9v-69.6h-70.9v69.6Z"/>
      <path class="cls-109" d="M294.5,915.6h70.9v-69.6h-70.9v69.6Z"/>
      <path class="cls-52" d="M365.4,915.6h70.9v-69.6h-70.9v69.6Z"/>
      <path class="cls-103" d="M436.3,915.6h70.9v-69.6h-70.9v69.6Z"/>
      <path class="cls-96" d="M507.2,915.6h70.9v-69.6h-70.9v69.6Z"/>
      <path class="cls-96" d="M578.2,915.6h70.9v-69.6h-70.9v69.6Z"/>
      <path class="cls-95" d="M649.1,915.6h70.9v-69.6h-70.9v69.6Z"/>
      <path class="cls-25" d="M10.8,358.8h70.9v-69.6H10.8v69.6Z"/>
      <path class="cls-58" d="M81.7,358.8h70.9v-69.6h-70.9v69.6Z"/>
      <path class="cls-58" d="M152.6,358.8h70.9v-69.6h-70.9v69.6Z"/>
      <path class="cls-58" d="M223.6,358.8h70.9v-69.6h-70.9v69.6Z"/>
      <path class="cls-58" d="M294.5,358.8h70.9v-69.6h-70.9v69.6Z"/>
      <path class="cls-58" d="M365.4,358.8h70.9v-69.6h-70.9v69.6Z"/>
      <path class="cls-58" d="M436.3,358.8h70.9v-69.6h-70.9v69.6Z"/>
      <path class="cls-58" d="M507.2,358.8h70.9v-69.6h-70.9v69.6Z"/>
      <path class="cls-58" d="M578.2,358.8h70.9v-69.6h-70.9v69.6Z"/>
      <path class="cls-10" d="M649.1,358.8h70.9v-69.6h-70.9v69.6Z"/>
      <path class="cls-113" d="M10.8,985.2h70.9v-69.6H10.8v69.6Z"/>
      <path class="cls-12" d="M81.7,985.2h70.9v-69.6h-70.9v69.6Z"/>
      <path class="cls-107" d="M152.6,985.2h70.9v-69.6h-70.9v69.6Z"/>
      <path class="cls-78" d="M223.6,985.2h70.9v-69.6h-70.9v69.6Z"/>
      <path class="cls-60" d="M294.5,985.2h70.9v-69.6h-70.9v69.6Z"/>
      <path class="cls-100" d="M365.4,985.2h70.9v-69.6h-70.9v69.6Z"/>
      <path class="cls-113" d="M436.3,985.2h70.9v-69.6h-70.9v69.6Z"/>
      <path class="cls-113" d="M507.2,985.2h70.9v-69.6h-70.9v69.6Z"/>
      <path class="cls-99" d="M578.2,985.2h70.9v-69.6h-70.9v69.6Z"/>
      <path class="cls-5" d="M649.1,985.2h70.9v-69.6h-70.9v69.6Z"/>
      <path class="cls-110" d="M10.8,428.4h70.9v-69.6H10.8v69.6Z"/>
      <path class="cls-110" d="M81.7,428.4h70.9v-69.6h-70.9v69.6Z"/>
      <path class="cls-47" d="M152.6,428.4h70.9v-69.6h-70.9v69.6Z"/>
      <path class="cls-43" d="M223.6,428.4h70.9v-69.6h-70.9v69.6Z"/>
      <path class="cls-39" d="M294.5,428.4h70.9v-69.6h-70.9v69.6Z"/>
      <path class="cls-74" d="M365.4,428.4h70.9v-69.6h-70.9v69.6Z"/>
      <path class="cls-74" d="M436.3,428.4h70.9v-69.6h-70.9v69.6Z"/>
      <path class="cls-74" d="M507.2,428.4h70.9v-69.6h-70.9v69.6Z"/>
      <path class="cls-23" d="M578.2,428.4h70.9v-69.6h-70.9v69.6Z"/>
      <path class="cls-105" d="M649.1,428.4h70.9v-69.6h-70.9v69.6Z"/>
      <path class="cls-74" d="M10.8,1054.8h70.9v-69.6H10.8v69.6Z"/>
      <path class="cls-19" d="M81.7,1054.8h70.9v-69.6h-70.9v69.6Z"/>
      <path class="cls-74" d="M152.6,1054.8h70.9v-69.6h-70.9v69.6Z"/>
      <path class="cls-9" d="M223.6,1054.8h70.9v-69.6h-70.9v69.6Z"/>
      <path class="cls-18" d="M294.5,1054.8h70.9v-69.6h-70.9v69.6Z"/>
      <path class="cls-50" d="M365.4,1054.8h70.9v-69.6h-70.9v69.6Z"/>
      <path class="cls-50" d="M436.3,1054.8h70.9v-69.6h-70.9v69.6Z"/>
      <path class="cls-24" d="M507.2,1054.8h70.9v-69.6h-70.9v69.6Z"/>
      <path class="cls-6" d="M578.2,1054.8h70.9v-69.6h-70.9v69.6Z"/>
      <path class="cls-34" d="M649.1,1054.8h70.9v-69.6h-70.9v69.6Z"/>
      <path class="cls-16" d="M10.8,498h70.9v-69.6H10.8v69.6Z"/>
      <path class="cls-21" d="M81.7,498h70.9v-69.6h-70.9v69.6Z"/>
      <path class="cls-71" d="M152.6,498h70.9v-69.6h-70.9v69.6Z"/>
      <path class="cls-71" d="M223.6,498h70.9v-69.6h-70.9v69.6Z"/>
      <path class="cls-71" d="M294.5,498h70.9v-69.6h-70.9v69.6Z"/>
      <path class="cls-71" d="M365.4,498h70.9v-69.6h-70.9v69.6Z"/>
      <path class="cls-71" d="M436.3,498h70.9v-69.6h-70.9v69.6Z"/>
      <path class="cls-48" d="M507.2,498h70.9v-69.6h-70.9v69.6Z"/>
      <path class="cls-65" d="M578.2,498h70.9v-69.6h-70.9v69.6Z"/>
      <path class="cls-104" d="M649.1,498h70.9v-69.6h-70.9v69.6Z"/>
      <path class="cls-114" d="M10.8,1124.4h70.9v-69.6H10.8v69.6Z"/>
      <path class="cls-112" d="M81.7,1124.4h70.9v-69.6h-70.9v69.6Z"/>
      <path class="cls-102" d="M152.6,1124.4h70.9v-69.6h-70.9v69.6Z"/>
      <path class="cls-80" d="M223.6,1124.4h70.9v-69.6h-70.9v69.6Z"/>
      <path class="cls-1" d="M294.5,1124.4h70.9v-69.6h-70.9v69.6Z"/>
      <path class="cls-66" d="M365.4,1124.4h70.9v-69.6h-70.9v69.6Z"/>
      <path class="cls-77" d="M436.3,1124.4h70.9v-69.6h-70.9v69.6Z"/>
      <path class="cls-73" d="M507.2,1124.4h70.9v-69.6h-70.9v69.6Z"/>
      <path class="cls-87" d="M578.2,1124.4h70.9v-69.6h-70.9v69.6Z"/>
      <path class="cls-56" d="M649.1,1124.4h70.9v-69.6h-70.9v69.6Z"/>
      <path class="cls-56" d="M10.8,567.6h70.9v-69.6H10.8v69.6Z"/>
      <path class="cls-68" d="M81.7,567.6h70.9v-69.6h-70.9v69.6Z"/>
      <path class="cls-89" d="M152.6,567.6h70.9v-69.6h-70.9v69.6Z"/>
      <path class="cls-79" d="M223.6,567.6h70.9v-69.6h-70.9v69.6Z"/>
      <path class="cls-45" d="M294.5,567.6h70.9v-69.6h-70.9v69.6Z"/>
      <path class="cls-83" d="M365.4,567.6h70.9v-69.6h-70.9v69.6Z"/>
      <path class="cls-70" d="M436.3,567.6h70.9v-69.6h-70.9v69.6Z"/>
      <path class="cls-35" d="M507.2,567.6h70.9v-69.6h-70.9v69.6Z"/>
      <path class="cls-22" d="M578.2,567.6h70.9v-69.6h-70.9v69.6Z"/>
      <path class="cls-2" d="M649.1,567.6h70.9v-69.6h-70.9v69.6Z"/>
      <path class="cls-75" d="M10.8,1194h70.9v-69.6H10.8v69.6Z"/>
      <path class="cls-30" d="M81.7,1194h70.9v-69.6h-70.9v69.6Z"/>
      <path class="cls-8" d="M152.6,1194h70.9v-69.6h-70.9v69.6Z"/>
      <path class="cls-111" d="M223.6,1194h70.9v-69.6h-70.9v69.6Z"/>
      <path class="cls-111" d="M294.5,1194h70.9v-69.6h-70.9v69.6Z"/>
      <path class="cls-111" d="M365.4,1194h70.9v-69.6h-70.9v69.6Z"/>
      <path class="cls-42" d="M436.3,1194h70.9v-69.6h-70.9v69.6Z"/>
      <path class="cls-49" d="M507.2,1194h70.9v-69.6h-70.9v69.6Z"/>
      <path class="cls-44" d="M578.2,1194h70.9v-69.6h-70.9v69.6Z"/>
      <path class="cls-86" d="M649.1,1194h70.9v-69.6h-70.9v69.6Z"/>
      <path class="cls-32" d="M10.8,637.2h70.9v-69.6H10.8v69.6Z"/>
      <path class="cls-84" d="M81.7,637.2h70.9v-69.6h-70.9v69.6Z"/>
      <path class="cls-84" d="M152.6,637.2h70.9v-69.6h-70.9v69.6Z"/>
      <path class="cls-64" d="M223.6,637.2h70.9v-69.6h-70.9v69.6Z"/>
      <path class="cls-64" d="M294.5,637.2h70.9v-69.6h-70.9v69.6Z"/>
      <path class="cls-55" d="M365.4,637.2h70.9v-69.6h-70.9v69.6Z"/>
      <path class="cls-93" d="M436.3,637.2h70.9v-69.6h-70.9v69.6Z"/>
      <path class="cls-17" d="M507.2,637.2h70.9v-69.6h-70.9v69.6Z"/>
      <path class="cls-33" d="M578.2,637.2h70.9v-69.6h-70.9v69.6Z"/>
      <path class="cls-33" d="M649.1,637.2h70.9v-69.6h-70.9v69.6Z"/>
      <path class="cls-33" d="M10.8,1263.6h70.9v-69.6H10.8v69.6Z"/>
      <path class="cls-33" d="M81.7,1263.6h70.9v-69.6h-70.9v69.6Z"/>
      <path class="cls-90" d="M152.6,1263.6h70.9v-69.6h-70.9v69.6Z"/>
      <path class="cls-82" d="M223.6,1263.6h70.9v-69.6h-70.9v69.6Z"/>
      <path class="cls-85" d="M294.5,1263.6h70.9v-69.6h-70.9v69.6Z"/>
      <path class="cls-53" d="M365.4,1263.6h70.9v-69.6h-70.9v69.6Z"/>
    </g>
  </g>
</svg>