<?xml version="1.0" encoding="utf-8" standalone="no"?>
<!DOCTYPE svg PUBLIC "-//W3C//DTD SVG 1.1//EN"
  "http://www.w3.org/Graphics/SVG/1.1/DTD/svg11.dtd">
<svg xmlns:xlink="http://www.w3.org/1999/xlink" width="1440pt" height="360pt" viewBox="0 0 1440 360" xmlns="http://www.w3.org/2000/svg" version="1.1">
 <metadata>
  <rdf:RDF xmlns:dc="http://purl.org/dc/elements/1.1/" xmlns:cc="http://creativecommons.org/ns#" xmlns:rdf="http://www.w3.org/1999/02/22-rdf-syntax-ns#">
   <cc:Work>
    <dc:type rdf:resource="http://purl.org/dc/dcmitype/StillImage"/>
    <dc:date>2025-05-04T17:21:06.148966</dc:date>
    <dc:format>image/svg+xml</dc:format>
    <dc:creator>
     <cc:Agent>
      <dc:title>Matplotlib v3.9.2, https://matplotlib.org/</dc:title>
     </cc:Agent>
    </dc:creator>
   </cc:Work>
  </rdf:RDF>
 </metadata>
 <defs>
  <style type="text/css">*{stroke-linejoin: round; stroke-linecap: butt}</style>
 </defs>
 <g id="figure_1">
  <g id="patch_1">
   <path d="M 0 360 
L 1440 360 
L 1440 0 
L 0 0 
z
" style="fill: #ffffff"/>
  </g>
  <g id="axes_1">
   <g id="patch_2">
    <path d="M 10.8 78.48 
L 81.72 78.48 
L 81.72 10.8 
L 10.8 10.8 
z
" clip-path="url(#p4539b4bf23)" style="fill: #323637; stroke: #323637; stroke-linejoin: miter"/>
   </g>
   <g id="patch_3">
    <path d="M 81.72 78.48 
L 152.64 78.48 
L 152.64 10.8 
L 81.72 10.8 
z
" clip-path="url(#p4539b4bf23)" style="fill: #b4a799; stroke: #b4a799; stroke-linejoin: miter"/>
   </g>
   <g id="patch_4">
    <path d="M 152.64 78.48 
L 223.56 78.48 
L 223.56 10.8 
L 152.64 10.8 
z
" clip-path="url(#p4539b4bf23)" style="fill: #352a22; stroke: #352a22; stroke-linejoin: miter"/>
   </g>
   <g id="patch_5">
    <path d="M 223.56 78.48 
L 294.48 78.48 
L 294.48 10.8 
L 223.56 10.8 
z
" clip-path="url(#p4539b4bf23)" style="fill: #352a22; stroke: #352a22; stroke-linejoin: miter"/>
   </g>
   <g id="patch_6">
    <path d="M 294.48 78.48 
L 365.4 78.48 
L 365.4 10.8 
L 294.48 10.8 
z
" clip-path="url(#p4539b4bf23)" style="fill: #2e2b24; stroke: #2e2b24; stroke-linejoin: miter"/>
   </g>
   <g id="patch_7">
    <path d="M 365.4 78.48 
L 436.32 78.48 
L 436.32 10.8 
L 365.4 10.8 
z
" clip-path="url(#p4539b4bf23)" style="fill: #8a7a67; stroke: #8a7a67; stroke-linejoin: miter"/>
   </g>
   <g id="patch_8">
    <path d="M 436.32 78.48 
L 507.24 78.48 
L 507.24 10.8 
L 436.32 10.8 
z
" clip-path="url(#p4539b4bf23)" style="fill: #d9cbca; stroke: #d9cbca; stroke-linejoin: miter"/>
   </g>
   <g id="patch_9">
    <path d="M 507.24 78.48 
L 578.16 78.48 
L 578.16 10.8 
L 507.24 10.8 
z
" clip-path="url(#p4539b4bf23)" style="fill: #40362f; stroke: #40362f; stroke-linejoin: miter"/>
   </g>
   <g id="patch_10">
    <path d="M 578.16 78.48 
L 649.08 78.48 
L 649.08 10.8 
L 578.16 10.8 
z
" clip-path="url(#p4539b4bf23)" style="fill: #c9c0b9; stroke: #c9c0b9; stroke-linejoin: miter"/>
   </g>
   <g id="patch_11">
    <path d="M 649.08 78.48 
L 720 78.48 
L 720 10.8 
L 649.08 10.8 
z
" clip-path="url(#p4539b4bf23)" style="fill: #c3c3c6; stroke: #c3c3c6; stroke-linejoin: miter"/>
   </g>
   <g id="patch_12">
    <path d="M 720 78.48 
L 790.92 78.48 
L 790.92 10.8 
L 720 10.8 
z
" clip-path="url(#p4539b4bf23)" style="fill: #dfdacf; stroke: #dfdacf; stroke-linejoin: miter"/>
   </g>
   <g id="patch_13">
    <path d="M 790.92 78.48 
L 861.84 78.48 
L 861.84 10.8 
L 790.92 10.8 
z
" clip-path="url(#p4539b4bf23)" style="fill: #8f7c69; stroke: #8f7c69; stroke-linejoin: miter"/>
   </g>
   <g id="patch_14">
    <path d="M 861.84 78.48 
L 932.76 78.48 
L 932.76 10.8 
L 861.84 10.8 
z
" clip-path="url(#p4539b4bf23)" style="fill: #424035; stroke: #424035; stroke-linejoin: miter"/>
   </g>
   <g id="patch_15">
    <path d="M 932.76 78.48 
L 1003.68 78.48 
L 1003.68 10.8 
L 932.76 10.8 
z
" clip-path="url(#p4539b4bf23)" style="fill: #45443f; stroke: #45443f; stroke-linejoin: miter"/>
   </g>
   <g id="patch_16">
    <path d="M 1003.68 78.48 
L 1074.6 78.48 
L 1074.6 10.8 
L 1003.68 10.8 
z
" clip-path="url(#p4539b4bf23)" style="fill: #3b3631; stroke: #3b3631; stroke-linejoin: miter"/>
   </g>
   <g id="patch_17">
    <path d="M 1074.6 78.48 
L 1145.52 78.48 
L 1145.52 10.8 
L 1074.6 10.8 
z
" clip-path="url(#p4539b4bf23)" style="fill: #3b3631; stroke: #3b3631; stroke-linejoin: miter"/>
   </g>
   <g id="patch_18">
    <path d="M 1145.52 78.48 
L 1216.44 78.48 
L 1216.44 10.8 
L 1145.52 10.8 
z
" clip-path="url(#p4539b4bf23)" style="fill: #3b3631; stroke: #3b3631; stroke-linejoin: miter"/>
   </g>
   <g id="patch_19">
    <path d="M 1216.44 78.48 
L 1287.36 78.48 
L 1287.36 10.8 
L 1216.44 10.8 
z
" clip-path="url(#p4539b4bf23)" style="fill: #cec5bc; stroke: #cec5bc; stroke-linejoin: miter"/>
   </g>
   <g id="patch_20">
    <path d="M 1287.36 78.48 
L 1358.28 78.48 
L 1358.28 10.8 
L 1287.36 10.8 
z
" clip-path="url(#p4539b4bf23)" style="fill: #d0cac4; stroke: #d0cac4; stroke-linejoin: miter"/>
   </g>
   <g id="patch_21">
    <path d="M 1358.28 78.48 
L 1429.2 78.48 
L 1429.2 10.8 
L 1358.28 10.8 
z
" clip-path="url(#p4539b4bf23)" style="fill: #b8b4a7; stroke: #b8b4a7; stroke-linejoin: miter"/>
   </g>
   <g id="patch_22">
    <path d="M 10.8 146.16 
L 81.72 146.16 
L 81.72 78.48 
L 10.8 78.48 
z
" clip-path="url(#p4539b4bf23)" style="fill: #2f2825; stroke: #2f2825; stroke-linejoin: miter"/>
   </g>
   <g id="patch_23">
    <path d="M 81.72 146.16 
L 152.64 146.16 
L 152.64 78.48 
L 81.72 78.48 
z
" clip-path="url(#p4539b4bf23)" style="fill: #7f5e4f; stroke: #7f5e4f; stroke-linejoin: miter"/>
   </g>
   <g id="patch_24">
    <path d="M 152.64 146.16 
L 223.56 146.16 
L 223.56 78.48 
L 152.64 78.48 
z
" clip-path="url(#p4539b4bf23)" style="fill: #c0b19e; stroke: #c0b19e; stroke-linejoin: miter"/>
   </g>
   <g id="patch_25">
    <path d="M 223.56 146.16 
L 294.48 146.16 
L 294.48 78.48 
L 223.56 78.48 
z
" clip-path="url(#p4539b4bf23)" style="fill: #9f9083; stroke: #9f9083; stroke-linejoin: miter"/>
   </g>
   <g id="patch_26">
    <path d="M 294.48 146.16 
L 365.4 146.16 
L 365.4 78.48 
L 294.48 78.48 
z
" clip-path="url(#p4539b4bf23)" style="fill: #1f1f1f; stroke: #1f1f1f; stroke-linejoin: miter"/>
   </g>
   <g id="patch_27">
    <path d="M 365.4 146.16 
L 436.32 146.16 
L 436.32 78.48 
L 365.4 78.48 
z
" clip-path="url(#p4539b4bf23)" style="fill: #37302c; stroke: #37302c; stroke-linejoin: miter"/>
   </g>
   <g id="patch_28">
    <path d="M 436.32 146.16 
L 507.24 146.16 
L 507.24 78.48 
L 436.32 78.48 
z
" clip-path="url(#p4539b4bf23)" style="fill: #978161; stroke: #978161; stroke-linejoin: miter"/>
   </g>
   <g id="patch_29">
    <path d="M 507.24 146.16 
L 578.16 146.16 
L 578.16 78.48 
L 507.24 78.48 
z
" clip-path="url(#p4539b4bf23)" style="fill: #978161; stroke: #978161; stroke-linejoin: miter"/>
   </g>
   <g id="patch_30">
    <path d="M 578.16 146.16 
L 649.08 146.16 
L 649.08 78.48 
L 578.16 78.48 
z
" clip-path="url(#p4539b4bf23)" style="fill: #c4adac; stroke: #c4adac; stroke-linejoin: miter"/>
   </g>
   <g id="patch_31">
    <path d="M 649.08 146.16 
L 720 146.16 
L 720 78.48 
L 649.08 78.48 
z
" clip-path="url(#p4539b4bf23)" style="fill: #3b392d; stroke: #3b392d; stroke-linejoin: miter"/>
   </g>
   <g id="patch_32">
    <path d="M 720 146.16 
L 790.92 146.16 
L 790.92 78.48 
L 720 78.48 
z
" clip-path="url(#p4539b4bf23)" style="fill: #6f5845; stroke: #6f5845; stroke-linejoin: miter"/>
   </g>
   <g id="patch_33">
    <path d="M 790.92 146.16 
L 861.84 146.16 
L 861.84 78.48 
L 790.92 78.48 
z
" clip-path="url(#p4539b4bf23)" style="fill: #c7b5a4; stroke: #c7b5a4; stroke-linejoin: miter"/>
   </g>
   <g id="patch_34">
    <path d="M 861.84 146.16 
L 932.76 146.16 
L 932.76 78.48 
L 861.84 78.48 
z
" clip-path="url(#p4539b4bf23)" style="fill: #a89a8a; stroke: #a89a8a; stroke-linejoin: miter"/>
   </g>
   <g id="patch_35">
    <path d="M 932.76 146.16 
L 1003.68 146.16 
L 1003.68 78.48 
L 932.76 78.48 
z
" clip-path="url(#p4539b4bf23)" style="fill: #a89a8a; stroke: #a89a8a; stroke-linejoin: miter"/>
   </g>
   <g id="patch_36">
    <path d="M 1003.68 146.16 
L 1074.6 146.16 
L 1074.6 78.48 
L 1003.68 78.48 
z
" clip-path="url(#p4539b4bf23)" style="fill: #93908a; stroke: #93908a; stroke-linejoin: miter"/>
   </g>
   <g id="patch_37">
    <path d="M 1074.6 146.16 
L 1145.52 146.16 
L 1145.52 78.48 
L 1074.6 78.48 
z
" clip-path="url(#p4539b4bf23)" style="fill: #bcb1ab; stroke: #bcb1ab; stroke-linejoin: miter"/>
   </g>
   <g id="patch_38">
    <path d="M 1145.52 146.16 
L 1216.44 146.16 
L 1216.44 78.48 
L 1145.52 78.48 
z
" clip-path="url(#p4539b4bf23)" style="fill: #8f7a5f; stroke: #8f7a5f; stroke-linejoin: miter"/>
   </g>
   <g id="patch_39">
    <path d="M 1216.44 146.16 
L 1287.36 146.16 
L 1287.36 78.48 
L 1216.44 78.48 
z
" clip-path="url(#p4539b4bf23)" style="fill: #2e3034; stroke: #2e3034; stroke-linejoin: miter"/>
   </g>
   <g id="patch_40">
    <path d="M 1287.36 146.16 
L 1358.28 146.16 
L 1358.28 78.48 
L 1287.36 78.48 
z
" clip-path="url(#p4539b4bf23)" style="fill: #4a413d; stroke: #4a413d; stroke-linejoin: miter"/>
   </g>
   <g id="patch_41">
    <path d="M 1358.28 146.16 
L 1429.2 146.16 
L 1429.2 78.48 
L 1358.28 78.48 
z
" clip-path="url(#p4539b4bf23)" style="fill: #443c29; stroke: #443c29; stroke-linejoin: miter"/>
   </g>
   <g id="patch_42">
    <path d="M 10.8 213.84 
L 81.72 213.84 
L 81.72 146.16 
L 10.8 146.16 
z
" clip-path="url(#p4539b4bf23)" style="fill: #443c29; stroke: #443c29; stroke-linejoin: miter"/>
   </g>
   <g id="patch_43">
    <path d="M 81.72 213.84 
L 152.64 213.84 
L 152.64 146.16 
L 81.72 146.16 
z
" clip-path="url(#p4539b4bf23)" style="fill: #3f3937; stroke: #3f3937; stroke-linejoin: miter"/>
   </g>
   <g id="patch_44">
    <path d="M 152.64 213.84 
L 223.56 213.84 
L 223.56 146.16 
L 152.64 146.16 
z
" clip-path="url(#p4539b4bf23)" style="fill: #826758; stroke: #826758; stroke-linejoin: miter"/>
   </g>
   <g id="patch_45">
    <path d="M 223.56 213.84 
L 294.48 213.84 
L 294.48 146.16 
L 223.56 146.16 
z
" clip-path="url(#p4539b4bf23)" style="fill: #826758; stroke: #826758; stroke-linejoin: miter"/>
   </g>
   <g id="patch_46">
    <path d="M 294.48 213.84 
L 365.4 213.84 
L 365.4 146.16 
L 294.48 146.16 
z
" clip-path="url(#p4539b4bf23)" style="fill: #826758; stroke: #826758; stroke-linejoin: miter"/>
   </g>
   <g id="patch_47">
    <path d="M 365.4 213.84 
L 436.32 213.84 
L 436.32 146.16 
L 365.4 146.16 
z
" clip-path="url(#p4539b4bf23)" style="fill: #826758; stroke: #826758; stroke-linejoin: miter"/>
   </g>
   <g id="patch_48">
    <path d="M 436.32 213.84 
L 507.24 213.84 
L 507.24 146.16 
L 436.32 146.16 
z
" clip-path="url(#p4539b4bf23)" style="fill: #705947; stroke: #705947; stroke-linejoin: miter"/>
   </g>
   <g id="patch_49">
    <path d="M 507.24 213.84 
L 578.16 213.84 
L 578.16 146.16 
L 507.24 146.16 
z
" clip-path="url(#p4539b4bf23)" style="fill: #31302a; stroke: #31302a; stroke-linejoin: miter"/>
   </g>
   <g id="patch_50">
    <path d="M 578.16 213.84 
L 649.08 213.84 
L 649.08 146.16 
L 578.16 146.16 
z
" clip-path="url(#p4539b4bf23)" style="fill: #1c1524; stroke: #1c1524; stroke-linejoin: miter"/>
   </g>
   <g id="patch_51">
    <path d="M 649.08 213.84 
L 720 213.84 
L 720 146.16 
L 649.08 146.16 
z
" clip-path="url(#p4539b4bf23)" style="fill: #af9e92; stroke: #af9e92; stroke-linejoin: miter"/>
   </g>
   <g id="patch_52">
    <path d="M 720 213.84 
L 790.92 213.84 
L 790.92 146.16 
L 720 146.16 
z
" clip-path="url(#p4539b4bf23)" style="fill: #c09180; stroke: #c09180; stroke-linejoin: miter"/>
   </g>
   <g id="patch_53">
    <path d="M 790.92 213.84 
L 861.84 213.84 
L 861.84 146.16 
L 790.92 146.16 
z
" clip-path="url(#p4539b4bf23)" style="fill: #bab5a4; stroke: #bab5a4; stroke-linejoin: miter"/>
   </g>
   <g id="patch_54">
    <path d="M 861.84 213.84 
L 932.76 213.84 
L 932.76 146.16 
L 861.84 146.16 
z
" clip-path="url(#p4539b4bf23)" style="fill: #8b795a; stroke: #8b795a; stroke-linejoin: miter"/>
   </g>
   <g id="patch_55">
    <path d="M 932.76 213.84 
L 1003.68 213.84 
L 1003.68 146.16 
L 932.76 146.16 
z
" clip-path="url(#p4539b4bf23)" style="fill: #8b795a; stroke: #8b795a; stroke-linejoin: miter"/>
   </g>
   <g id="patch_56">
    <path d="M 1003.68 213.84 
L 1074.6 213.84 
L 1074.6 146.16 
L 1003.68 146.16 
z
" clip-path="url(#p4539b4bf23)" style="fill: #8b795a; stroke: #8b795a; stroke-linejoin: miter"/>
   </g>
   <g id="patch_57">
    <path d="M 1074.6 213.84 
L 1145.52 213.84 
L 1145.52 146.16 
L 1074.6 146.16 
z
" clip-path="url(#p4539b4bf23)" style="fill: #8b795a; stroke: #8b795a; stroke-linejoin: miter"/>
   </g>
   <g id="patch_58">
    <path d="M 1145.52 213.84 
L 1216.44 213.84 
L 1216.44 146.16 
L 1145.52 146.16 
z
" clip-path="url(#p4539b4bf23)" style="fill: #8b795a; stroke: #8b795a; stroke-linejoin: miter"/>
   </g>
   <g id="patch_59">
    <path d="M 1216.44 213.84 
L 1287.36 213.84 
L 1287.36 146.16 
L 1216.44 146.16 
z
" clip-path="url(#p4539b4bf23)" style="fill: #8b795a; stroke: #8b795a; stroke-linejoin: miter"/>
   </g>
   <g id="patch_60">
    <path d="M 1287.36 213.84 
L 1358.28 213.84 
L 1358.28 146.16 
L 1287.36 146.16 
z
" clip-path="url(#p4539b4bf23)" style="fill: #8b795a; stroke: #8b795a; stroke-linejoin: miter"/>
   </g>
   <g id="patch_61">
    <path d="M 1358.28 213.84 
L 1429.2 213.84 
L 1429.2 146.16 
L 1358.28 146.16 
z
" clip-path="url(#p4539b4bf23)" style="fill: #8b795a; stroke: #8b795a; stroke-linejoin: miter"/>
   </g>
   <g id="patch_62">
    <path d="M 10.8 281.52 
L 81.72 281.52 
L 81.72 213.84 
L 10.8 213.84 
z
" clip-path="url(#p4539b4bf23)" style="fill: #8b795a; stroke: #8b795a; stroke-linejoin: miter"/>
   </g>
   <g id="patch_63">
    <path d="M 81.72 281.52 
L 152.64 281.52 
L 152.64 213.84 
L 81.72 213.84 
z
" clip-path="url(#p4539b4bf23)" style="fill: #a79686; stroke: #a79686; stroke-linejoin: miter"/>
   </g>
   <g id="patch_64">
    <path d="M 152.64 281.52 
L 223.56 281.52 
L 223.56 213.84 
L 152.64 213.84 
z
" clip-path="url(#p4539b4bf23)" style="fill: #a79686; stroke: #a79686; stroke-linejoin: miter"/>
   </g>
   <g id="patch_65">
    <path d="M 223.56 281.52 
L 294.48 281.52 
L 294.48 213.84 
L 223.56 213.84 
z
" clip-path="url(#p4539b4bf23)" style="fill: #a79686; stroke: #a79686; stroke-linejoin: miter"/>
   </g>
   <g id="patch_66">
    <path d="M 294.48 281.52 
L 365.4 281.52 
L 365.4 213.84 
L 294.48 213.84 
z
" clip-path="url(#p4539b4bf23)" style="fill: #a79686; stroke: #a79686; stroke-linejoin: miter"/>
   </g>
   <g id="patch_67">
    <path d="M 365.4 281.52 
L 436.32 281.52 
L 436.32 213.84 
L 365.4 213.84 
z
" clip-path="url(#p4539b4bf23)" style="fill: #bfb1a2; stroke: #bfb1a2; stroke-linejoin: miter"/>
   </g>
   <g id="patch_68">
    <path d="M 436.32 281.52 
L 507.24 281.52 
L 507.24 213.84 
L 436.32 213.84 
z
" clip-path="url(#p4539b4bf23)" style="fill: #bfb1a2; stroke: #bfb1a2; stroke-linejoin: miter"/>
   </g>
   <g id="patch_69">
    <path d="M 507.24 281.52 
L 578.16 281.52 
L 578.16 213.84 
L 507.24 213.84 
z
" clip-path="url(#p4539b4bf23)" style="fill: #bfb1a2; stroke: #bfb1a2; stroke-linejoin: miter"/>
   </g>
   <g id="patch_70">
    <path d="M 578.16 281.52 
L 649.08 281.52 
L 649.08 213.84 
L 578.16 213.84 
z
" clip-path="url(#p4539b4bf23)" style="fill: #23231c; stroke: #23231c; stroke-linejoin: miter"/>
   </g>
   <g id="patch_71">
    <path d="M 649.08 281.52 
L 720 281.52 
L 720 213.84 
L 649.08 213.84 
z
" clip-path="url(#p4539b4bf23)" style="fill: #23231c; stroke: #23231c; stroke-linejoin: miter"/>
   </g>
   <g id="patch_72">
    <path d="M 720 281.52 
L 790.92 281.52 
L 790.92 213.84 
L 720 213.84 
z
" clip-path="url(#p4539b4bf23)" style="fill: #d4c9c6; stroke: #d4c9c6; stroke-linejoin: miter"/>
   </g>
   <g id="patch_73">
    <path d="M 790.92 281.52 
L 861.84 281.52 
L 861.84 213.84 
L 790.92 213.84 
z
" clip-path="url(#p4539b4bf23)" style="fill: #cfc3b7; stroke: #cfc3b7; stroke-linejoin: miter"/>
   </g>
   <g id="patch_74">
    <path d="M 861.84 281.52 
L 932.76 281.52 
L 932.76 213.84 
L 861.84 213.84 
z
" clip-path="url(#p4539b4bf23)" style="fill: #1a2126; stroke: #1a2126; stroke-linejoin: miter"/>
   </g>
   <g id="patch_75">
    <path d="M 932.76 281.52 
L 1003.68 281.52 
L 1003.68 213.84 
L 932.76 213.84 
z
" clip-path="url(#p4539b4bf23)" style="fill: #daab93; stroke: #daab93; stroke-linejoin: miter"/>
   </g>
   <g id="patch_76">
    <path d="M 1003.68 281.52 
L 1074.6 281.52 
L 1074.6 213.84 
L 1003.68 213.84 
z
" clip-path="url(#p4539b4bf23)" style="fill: #ad8f6f; stroke: #ad8f6f; stroke-linejoin: miter"/>
   </g>
   <g id="patch_77">
    <path d="M 1074.6 281.52 
L 1145.52 281.52 
L 1145.52 213.84 
L 1074.6 213.84 
z
" clip-path="url(#p4539b4bf23)" style="fill: #39302c; stroke: #39302c; stroke-linejoin: miter"/>
   </g>
   <g id="patch_78">
    <path d="M 1145.52 281.52 
L 1216.44 281.52 
L 1216.44 213.84 
L 1145.52 213.84 
z
" clip-path="url(#p4539b4bf23)" style="fill: #cabfb3; stroke: #cabfb3; stroke-linejoin: miter"/>
   </g>
   <g id="patch_79">
    <path d="M 1216.44 281.52 
L 1287.36 281.52 
L 1287.36 213.84 
L 1216.44 213.84 
z
" clip-path="url(#p4539b4bf23)" style="fill: #c2b9ae; stroke: #c2b9ae; stroke-linejoin: miter"/>
   </g>
   <g id="patch_80">
    <path d="M 1287.36 281.52 
L 1358.28 281.52 
L 1358.28 213.84 
L 1287.36 213.84 
z
" clip-path="url(#p4539b4bf23)" style="fill: #3b3b3c; stroke: #3b3b3c; stroke-linejoin: miter"/>
   </g>
   <g id="patch_81">
    <path d="M 1358.28 281.52 
L 1429.2 281.52 
L 1429.2 213.84 
L 1358.28 213.84 
z
" clip-path="url(#p4539b4bf23)" style="fill: #392f31; stroke: #392f31; stroke-linejoin: miter"/>
   </g>
   <g id="patch_82">
    <path d="M 10.8 349.2 
L 81.72 349.2 
L 81.72 281.52 
L 10.8 281.52 
z
" clip-path="url(#p4539b4bf23)" style="fill: #d2b39d; stroke: #d2b39d; stroke-linejoin: miter"/>
   </g>
   <g id="patch_83">
    <path d="M 81.72 349.2 
L 152.64 349.2 
L 152.64 281.52 
L 81.72 281.52 
z
" clip-path="url(#p4539b4bf23)" style="fill: #b7ac9f; stroke: #b7ac9f; stroke-linejoin: miter"/>
   </g>
   <g id="patch_84">
    <path d="M 152.64 349.2 
L 223.56 349.2 
L 223.56 281.52 
L 152.64 281.52 
z
" clip-path="url(#p4539b4bf23)" style="fill: #c4ac9a; stroke: #c4ac9a; stroke-linejoin: miter"/>
   </g>
   <g id="patch_85">
    <path d="M 223.56 349.2 
L 294.48 349.2 
L 294.48 281.52 
L 223.56 281.52 
z
" clip-path="url(#p4539b4bf23)" style="fill: #4c4238; stroke: #4c4238; stroke-linejoin: miter"/>
   </g>
   <g id="patch_86">
    <path d="M 294.48 349.2 
L 365.4 349.2 
L 365.4 281.52 
L 294.48 281.52 
z
" clip-path="url(#p4539b4bf23)" style="fill: #cdb5a4; stroke: #cdb5a4; stroke-linejoin: miter"/>
   </g>
   <g id="patch_87">
    <path d="M 365.4 349.2 
L 436.32 349.2 
L 436.32 281.52 
L 365.4 281.52 
z
" clip-path="url(#p4539b4bf23)" style="fill: #a29485; stroke: #a29485; stroke-linejoin: miter"/>
   </g>
   <g id="patch_88">
    <path d="M 436.32 349.2 
L 507.24 349.2 
L 507.24 281.52 
L 436.32 281.52 
z
" clip-path="url(#p4539b4bf23)" style="fill: #3d2e26; stroke: #3d2e26; stroke-linejoin: miter"/>
   </g>
   <g id="patch_89">
    <path d="M 507.24 349.2 
L 578.16 349.2 
L 578.16 281.52 
L 507.24 281.52 
z
" clip-path="url(#p4539b4bf23)" style="fill: #4c4241; stroke: #4c4241; stroke-linejoin: miter"/>
   </g>
   <g id="patch_90">
    <path d="M 578.16 349.2 
L 649.08 349.2 
L 649.08 281.52 
L 578.16 281.52 
z
" clip-path="url(#p4539b4bf23)" style="fill: #423833; stroke: #423833; stroke-linejoin: miter"/>
   </g>
   <g id="patch_91">
    <path d="M 649.08 349.2 
L 720 349.2 
L 720 281.52 
L 649.08 281.52 
z
" clip-path="url(#p4539b4bf23)" style="fill: #725b4b; stroke: #725b4b; stroke-linejoin: miter"/>
   </g>
   <g id="patch_92">
    <path d="M 720 349.2 
L 790.92 349.2 
L 790.92 281.52 
L 720 281.52 
z
" clip-path="url(#p4539b4bf23)" style="fill: #745e51; stroke: #745e51; stroke-linejoin: miter"/>
   </g>
   <g id="patch_93">
    <path d="M 790.92 349.2 
L 861.84 349.2 
L 861.84 281.52 
L 790.92 281.52 
z
" clip-path="url(#p4539b4bf23)" style="fill: #baaaa1; stroke: #baaaa1; stroke-linejoin: miter"/>
   </g>
   <g id="patch_94">
    <path d="M 861.84 349.2 
L 932.76 349.2 
L 932.76 281.52 
L 861.84 281.52 
z
" clip-path="url(#p4539b4bf23)" style="fill: #43332a; stroke: #43332a; stroke-linejoin: miter"/>
   </g>
   <g id="patch_95">
    <path d="M 932.76 349.2 
L 1003.68 349.2 
L 1003.68 281.52 
L 932.76 281.52 
z
" clip-path="url(#p4539b4bf23)" style="fill: #453125; stroke: #453125; stroke-linejoin: miter"/>
   </g>
   <g id="patch_96">
    <path d="M 1003.68 349.2 
L 1074.6 349.2 
L 1074.6 281.52 
L 1003.68 281.52 
z
" clip-path="url(#p4539b4bf23)" style="fill: #c3bab7; stroke: #c3bab7; stroke-linejoin: miter"/>
   </g>
   <g id="patch_97">
    <path d="M 1074.6 349.2 
L 1145.52 349.2 
L 1145.52 281.52 
L 1074.6 281.52 
z
" clip-path="url(#p4539b4bf23)" style="fill: #8f7c66; stroke: #8f7c66; stroke-linejoin: miter"/>
   </g>
   <g id="patch_98">
    <path d="M 1145.52 349.2 
L 1216.44 349.2 
L 1216.44 281.52 
L 1145.52 281.52 
z
" clip-path="url(#p4539b4bf23)" style="fill: #353736; stroke: #353736; stroke-linejoin: miter"/>
   </g>
   <g id="patch_99">
    <path d="M 1216.44 349.2 
L 1287.36 349.2 
L 1287.36 281.52 
L 1216.44 281.52 
z
" clip-path="url(#p4539b4bf23)" style="fill: #32342b; stroke: #32342b; stroke-linejoin: miter"/>
   </g>
   <g id="patch_100">
    <path d="M 1287.36 349.2 
L 1358.28 349.2 
L 1358.28 281.52 
L 1287.36 281.52 
z
" clip-path="url(#p4539b4bf23)" style="fill: #4b4039; stroke: #4b4039; stroke-linejoin: miter"/>
   </g>
   <g id="patch_101">
    <path d="M 1358.28 349.2 
L 1429.2 349.2 
L 1429.2 281.52 
L 1358.28 281.52 
z
" clip-path="url(#p4539b4bf23)" style="fill: #43362d; stroke: #43362d; stroke-linejoin: miter"/>
   </g>
  </g>
 </g>
 <defs>
  <clipPath id="p4539b4bf23">
   <rect x="10.8" y="10.8" width="1418.4" height="338.4"/>
  </clipPath>
 </defs>
</svg>
