<?xml version="1.0" encoding="utf-8" standalone="no"?>
<!DOCTYPE svg PUBLIC "-//W3C//DTD SVG 1.1//EN"
  "http://www.w3.org/Graphics/SVG/1.1/DTD/svg11.dtd">
<svg xmlns:xlink="http://www.w3.org/1999/xlink" width="1440pt" height="216pt" viewBox="0 0 1440 216" xmlns="http://www.w3.org/2000/svg" version="1.1">
 <metadata>
  <rdf:RDF xmlns:dc="http://purl.org/dc/elements/1.1/" xmlns:cc="http://creativecommons.org/ns#" xmlns:rdf="http://www.w3.org/1999/02/22-rdf-syntax-ns#">
   <cc:Work>
    <dc:type rdf:resource="http://purl.org/dc/dcmitype/StillImage"/>
    <dc:date>2025-05-04T17:21:06.676962</dc:date>
    <dc:format>image/svg+xml</dc:format>
    <dc:creator>
     <cc:Agent>
      <dc:title>Matplotlib v3.9.2, https://matplotlib.org/</dc:title>
     </cc:Agent>
    </dc:creator>
   </cc:Work>
  </rdf:RDF>
 </metadata>
 <defs>
  <style type="text/css">*{stroke-linejoin: round; stroke-linecap: butt}</style>
 </defs>
 <g id="figure_1">
  <g id="patch_1">
   <path d="M 0 216 
L 1440 216 
L 1440 0 
L 0 0 
z
" style="fill: #ffffff"/>
  </g>
  <g id="axes_1">
   <g id="patch_2">
    <path d="M 10.8 75.6 
L 81.72 75.6 
L 81.72 10.8 
L 10.8 10.8 
z
" clip-path="url(#pf43b80bd5d)" style="fill: #a97c51; stroke: #a97c51; stroke-linejoin: miter"/>
   </g>
   <g id="patch_3">
    <path d="M 81.72 75.6 
L 152.64 75.6 
L 152.64 10.8 
L 81.72 10.8 
z
" clip-path="url(#pf43b80bd5d)" style="fill: #b69f83; stroke: #b69f83; stroke-linejoin: miter"/>
   </g>
   <g id="patch_4">
    <path d="M 152.64 75.6 
L 223.56 75.6 
L 223.56 10.8 
L 152.64 10.8 
z
" clip-path="url(#pf43b80bd5d)" style="fill: #a0918e; stroke: #a0918e; stroke-linejoin: miter"/>
   </g>
   <g id="patch_5">
    <path d="M 223.56 75.6 
L 294.48 75.6 
L 294.48 10.8 
L 223.56 10.8 
z
" clip-path="url(#pf43b80bd5d)" style="fill: #b7ad9d; stroke: #b7ad9d; stroke-linejoin: miter"/>
   </g>
   <g id="patch_6">
    <path d="M 294.48 75.6 
L 365.4 75.6 
L 365.4 10.8 
L 294.48 10.8 
z
" clip-path="url(#pf43b80bd5d)" style="fill: #814d27; stroke: #814d27; stroke-linejoin: miter"/>
   </g>
   <g id="patch_7">
    <path d="M 365.4 75.6 
L 436.32 75.6 
L 436.32 10.8 
L 365.4 10.8 
z
" clip-path="url(#pf43b80bd5d)" style="fill: #d6d2cb; stroke: #d6d2cb; stroke-linejoin: miter"/>
   </g>
   <g id="patch_8">
    <path d="M 436.32 75.6 
L 507.24 75.6 
L 507.24 10.8 
L 436.32 10.8 
z
" clip-path="url(#pf43b80bd5d)" style="fill: #26231d; stroke: #26231d; stroke-linejoin: miter"/>
   </g>
   <g id="patch_9">
    <path d="M 507.24 75.6 
L 578.16 75.6 
L 578.16 10.8 
L 507.24 10.8 
z
" clip-path="url(#pf43b80bd5d)" style="fill: #b7ad9d; stroke: #b7ad9d; stroke-linejoin: miter"/>
   </g>
   <g id="patch_10">
    <path d="M 578.16 75.6 
L 649.08 75.6 
L 649.08 10.8 
L 578.16 10.8 
z
" clip-path="url(#pf43b80bd5d)" style="fill: #b7ad9d; stroke: #b7ad9d; stroke-linejoin: miter"/>
   </g>
   <g id="patch_11">
    <path d="M 649.08 75.6 
L 720 75.6 
L 720 10.8 
L 649.08 10.8 
z
" clip-path="url(#pf43b80bd5d)" style="fill: #b7ad9d; stroke: #b7ad9d; stroke-linejoin: miter"/>
   </g>
   <g id="patch_12">
    <path d="M 720 75.6 
L 790.92 75.6 
L 790.92 10.8 
L 720 10.8 
z
" clip-path="url(#pf43b80bd5d)" style="fill: #a3805b; stroke: #a3805b; stroke-linejoin: miter"/>
   </g>
   <g id="patch_13">
    <path d="M 790.92 75.6 
L 861.84 75.6 
L 861.84 10.8 
L 790.92 10.8 
z
" clip-path="url(#pf43b80bd5d)" style="fill: #ae9f89; stroke: #ae9f89; stroke-linejoin: miter"/>
   </g>
   <g id="patch_14">
    <path d="M 861.84 75.6 
L 932.76 75.6 
L 932.76 10.8 
L 861.84 10.8 
z
" clip-path="url(#pf43b80bd5d)" style="fill: #b8b0a0; stroke: #b8b0a0; stroke-linejoin: miter"/>
   </g>
   <g id="patch_15">
    <path d="M 932.76 75.6 
L 1003.68 75.6 
L 1003.68 10.8 
L 932.76 10.8 
z
" clip-path="url(#pf43b80bd5d)" style="fill: #b8b0a0; stroke: #b8b0a0; stroke-linejoin: miter"/>
   </g>
   <g id="patch_16">
    <path d="M 1003.68 75.6 
L 1074.6 75.6 
L 1074.6 10.8 
L 1003.68 10.8 
z
" clip-path="url(#pf43b80bd5d)" style="fill: #282321; stroke: #282321; stroke-linejoin: miter"/>
   </g>
   <g id="patch_17">
    <path d="M 1074.6 75.6 
L 1145.52 75.6 
L 1145.52 10.8 
L 1074.6 10.8 
z
" clip-path="url(#pf43b80bd5d)" style="fill: #c8c1bc; stroke: #c8c1bc; stroke-linejoin: miter"/>
   </g>
   <g id="patch_18">
    <path d="M 1145.52 75.6 
L 1216.44 75.6 
L 1216.44 10.8 
L 1145.52 10.8 
z
" clip-path="url(#pf43b80bd5d)" style="fill: #51483f; stroke: #51483f; stroke-linejoin: miter"/>
   </g>
   <g id="patch_19">
    <path d="M 1216.44 75.6 
L 1287.36 75.6 
L 1287.36 10.8 
L 1216.44 10.8 
z
" clip-path="url(#pf43b80bd5d)" style="fill: #4a5154; stroke: #4a5154; stroke-linejoin: miter"/>
   </g>
   <g id="patch_20">
    <path d="M 1287.36 75.6 
L 1358.28 75.6 
L 1358.28 10.8 
L 1287.36 10.8 
z
" clip-path="url(#pf43b80bd5d)" style="fill: #3c2f2b; stroke: #3c2f2b; stroke-linejoin: miter"/>
   </g>
   <g id="patch_21">
    <path d="M 1358.28 75.6 
L 1429.2 75.6 
L 1429.2 10.8 
L 1358.28 10.8 
z
" clip-path="url(#pf43b80bd5d)" style="fill: #382d24; stroke: #382d24; stroke-linejoin: miter"/>
   </g>
   <g id="patch_22">
    <path d="M 10.8 140.4 
L 81.72 140.4 
L 81.72 75.6 
L 10.8 75.6 
z
" clip-path="url(#pf43b80bd5d)" style="fill: #c5b7ab; stroke: #c5b7ab; stroke-linejoin: miter"/>
   </g>
   <g id="patch_23">
    <path d="M 81.72 140.4 
L 152.64 140.4 
L 152.64 75.6 
L 81.72 75.6 
z
" clip-path="url(#pf43b80bd5d)" style="fill: #2b402e; stroke: #2b402e; stroke-linejoin: miter"/>
   </g>
   <g id="patch_24">
    <path d="M 152.64 140.4 
L 223.56 140.4 
L 223.56 75.6 
L 152.64 75.6 
z
" clip-path="url(#pf43b80bd5d)" style="fill: #161521; stroke: #161521; stroke-linejoin: miter"/>
   </g>
   <g id="patch_25">
    <path d="M 223.56 140.4 
L 294.48 140.4 
L 294.48 75.6 
L 223.56 75.6 
z
" clip-path="url(#pf43b80bd5d)" style="fill: #b09b83; stroke: #b09b83; stroke-linejoin: miter"/>
   </g>
   <g id="patch_26">
    <path d="M 294.48 140.4 
L 365.4 140.4 
L 365.4 75.6 
L 294.48 75.6 
z
" clip-path="url(#pf43b80bd5d)" style="fill: #bb9267; stroke: #bb9267; stroke-linejoin: miter"/>
   </g>
   <g id="patch_27">
    <path d="M 365.4 140.4 
L 436.32 140.4 
L 436.32 75.6 
L 365.4 75.6 
z
" clip-path="url(#pf43b80bd5d)" style="fill: #322a24; stroke: #322a24; stroke-linejoin: miter"/>
   </g>
   <g id="patch_28">
    <path d="M 436.32 140.4 
L 507.24 140.4 
L 507.24 75.6 
L 436.32 75.6 
z
" clip-path="url(#pf43b80bd5d)" style="fill: #bdb5a8; stroke: #bdb5a8; stroke-linejoin: miter"/>
   </g>
   <g id="patch_29">
    <path d="M 507.24 140.4 
L 578.16 140.4 
L 578.16 75.6 
L 507.24 75.6 
z
" clip-path="url(#pf43b80bd5d)" style="fill: #bdb5a8; stroke: #bdb5a8; stroke-linejoin: miter"/>
   </g>
   <g id="patch_30">
    <path d="M 578.16 140.4 
L 649.08 140.4 
L 649.08 75.6 
L 578.16 75.6 
z
" clip-path="url(#pf43b80bd5d)" style="fill: #b4aea6; stroke: #b4aea6; stroke-linejoin: miter"/>
   </g>
   <g id="patch_31">
    <path d="M 649.08 140.4 
L 720 140.4 
L 720 75.6 
L 649.08 75.6 
z
" clip-path="url(#pf43b80bd5d)" style="fill: #a99784; stroke: #a99784; stroke-linejoin: miter"/>
   </g>
   <g id="patch_32">
    <path d="M 720 140.4 
L 790.92 140.4 
L 790.92 75.6 
L 720 75.6 
z
" clip-path="url(#pf43b80bd5d)" style="fill: #c5c1c1; stroke: #c5c1c1; stroke-linejoin: miter"/>
   </g>
   <g id="patch_33">
    <path d="M 790.92 140.4 
L 861.84 140.4 
L 861.84 75.6 
L 790.92 75.6 
z
" clip-path="url(#pf43b80bd5d)" style="fill: #c4a281; stroke: #c4a281; stroke-linejoin: miter"/>
   </g>
   <g id="patch_34">
    <path d="M 861.84 140.4 
L 932.76 140.4 
L 932.76 75.6 
L 861.84 75.6 
z
" clip-path="url(#pf43b80bd5d)" style="fill: #bdb5a8; stroke: #bdb5a8; stroke-linejoin: miter"/>
   </g>
   <g id="patch_35">
    <path d="M 932.76 140.4 
L 1003.68 140.4 
L 1003.68 75.6 
L 932.76 75.6 
z
" clip-path="url(#pf43b80bd5d)" style="fill: #7e6857; stroke: #7e6857; stroke-linejoin: miter"/>
   </g>
   <g id="patch_36">
    <path d="M 1003.68 140.4 
L 1074.6 140.4 
L 1074.6 75.6 
L 1003.68 75.6 
z
" clip-path="url(#pf43b80bd5d)" style="fill: #766757; stroke: #766757; stroke-linejoin: miter"/>
   </g>
   <g id="patch_37">
    <path d="M 1074.6 140.4 
L 1145.52 140.4 
L 1145.52 75.6 
L 1074.6 75.6 
z
" clip-path="url(#pf43b80bd5d)" style="fill: #8a7d6f; stroke: #8a7d6f; stroke-linejoin: miter"/>
   </g>
   <g id="patch_38">
    <path d="M 1145.52 140.4 
L 1216.44 140.4 
L 1216.44 75.6 
L 1145.52 75.6 
z
" clip-path="url(#pf43b80bd5d)" style="fill: #c4baaf; stroke: #c4baaf; stroke-linejoin: miter"/>
   </g>
   <g id="patch_39">
    <path d="M 1216.44 140.4 
L 1287.36 140.4 
L 1287.36 75.6 
L 1216.44 75.6 
z
" clip-path="url(#pf43b80bd5d)" style="fill: #8a7d6f; stroke: #8a7d6f; stroke-linejoin: miter"/>
   </g>
   <g id="patch_40">
    <path d="M 1287.36 140.4 
L 1358.28 140.4 
L 1358.28 75.6 
L 1287.36 75.6 
z
" clip-path="url(#pf43b80bd5d)" style="fill: #2d271e; stroke: #2d271e; stroke-linejoin: miter"/>
   </g>
   <g id="patch_41">
    <path d="M 1358.28 140.4 
L 1429.2 140.4 
L 1429.2 75.6 
L 1358.28 75.6 
z
" clip-path="url(#pf43b80bd5d)" style="fill: #d8d0c3; stroke: #d8d0c3; stroke-linejoin: miter"/>
   </g>
   <g id="patch_42">
    <path d="M 10.8 205.2 
L 81.72 205.2 
L 81.72 140.4 
L 10.8 140.4 
z
" clip-path="url(#pf43b80bd5d)" style="fill: #bdaa9c; stroke: #bdaa9c; stroke-linejoin: miter"/>
   </g>
   <g id="patch_43">
    <path d="M 81.72 205.2 
L 152.64 205.2 
L 152.64 140.4 
L 81.72 140.4 
z
" clip-path="url(#pf43b80bd5d)" style="fill: #152f48; stroke: #152f48; stroke-linejoin: miter"/>
   </g>
   <g id="patch_44">
    <path d="M 152.64 205.2 
L 223.56 205.2 
L 223.56 140.4 
L 152.64 140.4 
z
" clip-path="url(#pf43b80bd5d)" style="fill: #423329; stroke: #423329; stroke-linejoin: miter"/>
   </g>
   <g id="patch_45">
    <path d="M 223.56 205.2 
L 294.48 205.2 
L 294.48 140.4 
L 223.56 140.4 
z
" clip-path="url(#pf43b80bd5d)" style="fill: #bcb3a6; stroke: #bcb3a6; stroke-linejoin: miter"/>
   </g>
   <g id="patch_46">
    <path d="M 294.48 205.2 
L 365.4 205.2 
L 365.4 140.4 
L 294.48 140.4 
z
" clip-path="url(#pf43b80bd5d)" style="fill: #c1b5aa; stroke: #c1b5aa; stroke-linejoin: miter"/>
   </g>
   <g id="patch_47">
    <path d="M 365.4 205.2 
L 436.32 205.2 
L 436.32 140.4 
L 365.4 140.4 
z
" clip-path="url(#pf43b80bd5d)" style="fill: #1e1d1c; stroke: #1e1d1c; stroke-linejoin: miter"/>
   </g>
   <g id="patch_48">
    <path d="M 436.32 205.2 
L 507.24 205.2 
L 507.24 140.4 
L 436.32 140.4 
z
" clip-path="url(#pf43b80bd5d)" style="fill: #264647; stroke: #264647; stroke-linejoin: miter"/>
   </g>
   <g id="patch_49">
    <path d="M 507.24 205.2 
L 578.16 205.2 
L 578.16 140.4 
L 507.24 140.4 
z
" clip-path="url(#pf43b80bd5d)" style="fill: #957c54; stroke: #957c54; stroke-linejoin: miter"/>
   </g>
   <g id="patch_50">
    <path d="M 578.16 205.2 
L 649.08 205.2 
L 649.08 140.4 
L 578.16 140.4 
z
" clip-path="url(#pf43b80bd5d)" style="fill: #ad9582; stroke: #ad9582; stroke-linejoin: miter"/>
   </g>
   <g id="patch_51">
    <path d="M 649.08 205.2 
L 720 205.2 
L 720 140.4 
L 649.08 140.4 
z
" clip-path="url(#pf43b80bd5d)" style="fill: #baaea2; stroke: #baaea2; stroke-linejoin: miter"/>
   </g>
   <g id="patch_52">
    <path d="M 720 205.2 
L 790.92 205.2 
L 790.92 140.4 
L 720 140.4 
z
" clip-path="url(#pf43b80bd5d)" style="fill: #908981; stroke: #908981; stroke-linejoin: miter"/>
   </g>
   <g id="patch_53">
    <path d="M 790.92 205.2 
L 861.84 205.2 
L 861.84 140.4 
L 790.92 140.4 
z
" clip-path="url(#pf43b80bd5d)" style="fill: #503a2b; stroke: #503a2b; stroke-linejoin: miter"/>
   </g>
   <g id="patch_54">
    <path d="M 861.84 205.2 
L 932.76 205.2 
L 932.76 140.4 
L 861.84 140.4 
z
" clip-path="url(#pf43b80bd5d)" style="fill: #ccb79b; stroke: #ccb79b; stroke-linejoin: miter"/>
   </g>
   <g id="patch_55">
    <path d="M 932.76 205.2 
L 1003.68 205.2 
L 1003.68 140.4 
L 932.76 140.4 
z
" clip-path="url(#pf43b80bd5d)" style="fill: #e0bf98; stroke: #e0bf98; stroke-linejoin: miter"/>
   </g>
  </g>
 </g>
 <defs>
  <clipPath id="pf43b80bd5d">
   <rect x="10.8" y="10.8" width="1418.4" height="194.4"/>
  </clipPath>
 </defs>
</svg>
