<?xml version="1.0" encoding="UTF-8"?>
<svg xmlns="http://www.w3.org/2000/svg" version="1.1" viewBox="0 0 447.3 385.5">
  <defs>
    <style>
      .cls-1 {
        fill: #d5ab99;
      }

      .cls-1, .cls-2, .cls-3, .cls-4, .cls-5, .cls-6, .cls-7, .cls-8, .cls-9, .cls-10, .cls-11, .cls-12, .cls-13, .cls-14, .cls-15, .cls-16, .cls-17, .cls-18, .cls-19, .cls-20, .cls-21, .cls-22, .cls-23, .cls-24, .cls-25, .cls-26 {
        stroke: #fff;
        stroke-width: 3px;
      }

      .cls-2 {
        fill: #482d22;
      }

      .cls-3 {
        fill: #a5947d;
      }

      .cls-4 {
        fill: #b7a8b0;
      }

      .cls-5 {
        fill: #b3b5b8;
      }

      .cls-6 {
        fill: #302e25;
      }

      .cls-7 {
        fill: #c0a89c;
      }

      .cls-8 {
        fill: #bec7c1;
      }

      .cls-9 {
        fill: #1c2228;
      }

      .cls-10 {
        fill: #bfbbae;
      }

      .cls-11 {
        fill: #937f69;
      }

      .cls-12 {
        fill: #3d332d;
      }

      .cls-13 {
        fill: #373634;
      }

      .cls-14 {
        fill: #2e2e2a;
      }

      .cls-15 {
        fill: #d1c9b9;
      }

      .cls-16 {
        fill: #393a36;
      }

      .cls-17 {
        fill: #3c312a;
      }

      .cls-18 {
        fill: #ab9c8c;
      }

      .cls-19 {
        fill: #a08470;
      }

      .cls-20 {
        fill: #dcd8d0;
      }

      .cls-21 {
        fill: #dfcbc0;
      }

      .cls-22 {
        fill: #cbc1bb;
      }

      .cls-23 {
        fill: #c0a69b;
      }

      .cls-24 {
        fill: #373530;
      }

      .cls-25 {
        fill: #b99f87;
      }

      .cls-26 {
        fill: #4e8cb5;
      }
    </style>
  </defs>
  <!-- Generator: Adobe Illustrator 28.7.7, SVG Export Plug-In . SVG Version: 1.2.0 Build 194)  -->
  <g>
    <g id="Layer_1">
      <g>
        <path class="cls-16" d="M11.8,70.4h61.1V8.8H11.8v61.5Z"/>
        <path class="cls-20" d="M72.9,70.4h61.1V8.8h-61.1v61.5Z"/>
        <path class="cls-21" d="M134,70.4h61.1V8.8h-61.1v61.5Z"/>
        <path class="cls-7" d="M195.1,70.4h61.1V8.8h-61.1v61.5Z"/>
        <path class="cls-6" d="M256.3,70.4h61.1V8.8h-61.1v61.5Z"/>
        <path class="cls-17" d="M317.4,70.4h61.1V8.8h-61.1v61.5Z"/>
        <path class="cls-13" d="M378.5,70.4h61.1V8.8h-61.1v61.5Z"/>
        <path class="cls-11" d="M11.8,193.4h61.1v-61.5H11.8v61.5Z"/>
        <path class="cls-24" d="M72.9,193.4h61.1v-61.5h-61.1v61.5Z"/>
        <path class="cls-24" d="M134,193.4h61.1v-61.5h-61.1v61.5Z"/>
        <path class="cls-2" d="M195.1,193.4h61.1v-61.5h-61.1v61.5Z"/>
        <path class="cls-15" d="M256.3,193.4h61.1v-61.5h-61.1v61.5Z"/>
        <path class="cls-19" d="M317.4,193.4h61.1v-61.5h-61.1v61.5Z"/>
        <path class="cls-22" d="M378.5,193.4h61.1v-61.5h-61.1v61.5Z"/>
        <path class="cls-26" d="M11.8,316.5h61.1v-61.5H11.8v61.5Z"/>
        <path class="cls-22" d="M72.9,316.5h61.1v-61.5h-61.1v61.5Z"/>
        <path class="cls-25" d="M134,316.5h61.1v-61.5h-61.1v61.5Z"/>
        <path class="cls-18" d="M195.1,316.5h61.1v-61.5h-61.1v61.5Z"/>
        <path class="cls-23" d="M256.3,316.5h61.1v-61.5h-61.1v61.5Z"/>
        <path class="cls-14" d="M317.4,316.5h61.1v-61.5h-61.1v61.5Z"/>
        <path class="cls-8" d="M11.8,131.9h61.1v-61.5H11.8v61.5Z"/>
        <path class="cls-8" d="M72.9,131.9h61.1v-61.5h-61.1v61.5Z"/>
        <path class="cls-12" d="M134,131.9h61.1v-61.5h-61.1v61.5Z"/>
        <path class="cls-12" d="M195.1,131.9h61.1v-61.5h-61.1v61.5Z"/>
        <path class="cls-12" d="M256.3,131.9h61.1v-61.5h-61.1v61.5Z"/>
        <path class="cls-12" d="M317.4,131.9h61.1v-61.5h-61.1v61.5Z"/>
        <path class="cls-1" d="M378.5,131.9h61.1v-61.5h-61.1v61.5Z"/>
        <path class="cls-10" d="M11.8,254.9h61.1v-61.5H11.8v61.5Z"/>
        <path class="cls-12" d="M72.9,254.9h61.1v-61.5h-61.1v61.5Z"/>
        <path class="cls-12" d="M134,254.9h61.1v-61.5h-61.1v61.5Z"/>
        <path class="cls-12" d="M195.1,254.9h61.1v-61.5h-61.1v61.5Z"/>
        <path class="cls-12" d="M256.3,254.9h61.1v-61.5h-61.1v61.5Z"/>
        <path class="cls-4" d="M317.4,254.9h61.1v-61.5h-61.1v61.5Z"/>
        <path class="cls-4" d="M378.5,254.9h61.1v-61.5h-61.1v61.5Z"/>
        <path class="cls-4" d="M11.8,378h61.1v-61.5H11.8v61.5Z"/>
        <path class="cls-9" d="M72.9,378h61.1v-61.5h-61.1v61.5Z"/>
        <path class="cls-3" d="M134,378h61.1v-61.5h-61.1v61.5Z"/>
        <path class="cls-5" d="M378.5,316.5h61.1v-61.5h-61.1v61.5Z"/>
      </g>
    </g>
  </g>
</svg>