<?xml version="1.0" encoding="utf-8" standalone="no"?>
<!DOCTYPE svg PUBLIC "-//W3C//DTD SVG 1.1//EN"
  "http://www.w3.org/Graphics/SVG/1.1/DTD/svg11.dtd">
<svg xmlns:xlink="http://www.w3.org/1999/xlink" width="1440pt" height="360pt" viewBox="0 0 1440 360" xmlns="http://www.w3.org/2000/svg" version="1.1">
 <metadata>
  <rdf:RDF xmlns:dc="http://purl.org/dc/elements/1.1/" xmlns:cc="http://creativecommons.org/ns#" xmlns:rdf="http://www.w3.org/1999/02/22-rdf-syntax-ns#">
   <cc:Work>
    <dc:type rdf:resource="http://purl.org/dc/dcmitype/StillImage"/>
    <dc:date>2025-05-04T17:21:05.903060</dc:date>
    <dc:format>image/svg+xml</dc:format>
    <dc:creator>
     <cc:Agent>
      <dc:title>Matplotlib v3.9.2, https://matplotlib.org/</dc:title>
     </cc:Agent>
    </dc:creator>
   </cc:Work>
  </rdf:RDF>
 </metadata>
 <defs>
  <style type="text/css">*{stroke-linejoin: round; stroke-linecap: butt}</style>
 </defs>
 <g id="figure_1">
  <g id="patch_1">
   <path d="M 0 360 
L 1440 360 
L 1440 0 
L 0 0 
z
" style="fill: #ffffff"/>
  </g>
  <g id="axes_1">
   <g id="patch_2">
    <path d="M 10.8 78.48 
L 81.72 78.48 
L 81.72 10.8 
L 10.8 10.8 
z
" clip-path="url(#p1722386305)" style="fill: #e0dddb; stroke: #e0dddb; stroke-linejoin: miter"/>
   </g>
   <g id="patch_3">
    <path d="M 81.72 78.48 
L 152.64 78.48 
L 152.64 10.8 
L 81.72 10.8 
z
" clip-path="url(#p1722386305)" style="fill: #1d1f1b; stroke: #1d1f1b; stroke-linejoin: miter"/>
   </g>
   <g id="patch_4">
    <path d="M 152.64 78.48 
L 223.56 78.48 
L 223.56 10.8 
L 152.64 10.8 
z
" clip-path="url(#p1722386305)" style="fill: #c8c6c2; stroke: #c8c6c2; stroke-linejoin: miter"/>
   </g>
   <g id="patch_5">
    <path d="M 223.56 78.48 
L 294.48 78.48 
L 294.48 10.8 
L 223.56 10.8 
z
" clip-path="url(#p1722386305)" style="fill: #bbb9b1; stroke: #bbb9b1; stroke-linejoin: miter"/>
   </g>
   <g id="patch_6">
    <path d="M 294.48 78.48 
L 365.4 78.48 
L 365.4 10.8 
L 294.48 10.8 
z
" clip-path="url(#p1722386305)" style="fill: #d2c7c1; stroke: #d2c7c1; stroke-linejoin: miter"/>
   </g>
   <g id="patch_7">
    <path d="M 365.4 78.48 
L 436.32 78.48 
L 436.32 10.8 
L 365.4 10.8 
z
" clip-path="url(#p1722386305)" style="fill: #d2c7c1; stroke: #d2c7c1; stroke-linejoin: miter"/>
   </g>
   <g id="patch_8">
    <path d="M 436.32 78.48 
L 507.24 78.48 
L 507.24 10.8 
L 436.32 10.8 
z
" clip-path="url(#p1722386305)" style="fill: #cdc5b7; stroke: #cdc5b7; stroke-linejoin: miter"/>
   </g>
   <g id="patch_9">
    <path d="M 507.24 78.48 
L 578.16 78.48 
L 578.16 10.8 
L 507.24 10.8 
z
" clip-path="url(#p1722386305)" style="fill: #2a2925; stroke: #2a2925; stroke-linejoin: miter"/>
   </g>
   <g id="patch_10">
    <path d="M 578.16 78.48 
L 649.08 78.48 
L 649.08 10.8 
L 578.16 10.8 
z
" clip-path="url(#p1722386305)" style="fill: #3c3a36; stroke: #3c3a36; stroke-linejoin: miter"/>
   </g>
   <g id="patch_11">
    <path d="M 649.08 78.48 
L 720 78.48 
L 720 10.8 
L 649.08 10.8 
z
" clip-path="url(#p1722386305)" style="fill: #453d3e; stroke: #453d3e; stroke-linejoin: miter"/>
   </g>
   <g id="patch_12">
    <path d="M 720 78.48 
L 790.92 78.48 
L 790.92 10.8 
L 720 10.8 
z
" clip-path="url(#p1722386305)" style="fill: #a59485; stroke: #a59485; stroke-linejoin: miter"/>
   </g>
   <g id="patch_13">
    <path d="M 790.92 78.48 
L 861.84 78.48 
L 861.84 10.8 
L 790.92 10.8 
z
" clip-path="url(#p1722386305)" style="fill: #667f81; stroke: #667f81; stroke-linejoin: miter"/>
   </g>
   <g id="patch_14">
    <path d="M 861.84 78.48 
L 932.76 78.48 
L 932.76 10.8 
L 861.84 10.8 
z
" clip-path="url(#p1722386305)" style="fill: #c5b8af; stroke: #c5b8af; stroke-linejoin: miter"/>
   </g>
   <g id="patch_15">
    <path d="M 932.76 78.48 
L 1003.68 78.48 
L 1003.68 10.8 
L 932.76 10.8 
z
" clip-path="url(#p1722386305)" style="fill: #c5b8af; stroke: #c5b8af; stroke-linejoin: miter"/>
   </g>
   <g id="patch_16">
    <path d="M 1003.68 78.48 
L 1074.6 78.48 
L 1074.6 10.8 
L 1003.68 10.8 
z
" clip-path="url(#p1722386305)" style="fill: #cabcaf; stroke: #cabcaf; stroke-linejoin: miter"/>
   </g>
   <g id="patch_17">
    <path d="M 1074.6 78.48 
L 1145.52 78.48 
L 1145.52 10.8 
L 1074.6 10.8 
z
" clip-path="url(#p1722386305)" style="fill: #cabcaf; stroke: #cabcaf; stroke-linejoin: miter"/>
   </g>
   <g id="patch_18">
    <path d="M 1145.52 78.48 
L 1216.44 78.48 
L 1216.44 10.8 
L 1145.52 10.8 
z
" clip-path="url(#p1722386305)" style="fill: #907960; stroke: #907960; stroke-linejoin: miter"/>
   </g>
   <g id="patch_19">
    <path d="M 1216.44 78.48 
L 1287.36 78.48 
L 1287.36 10.8 
L 1216.44 10.8 
z
" clip-path="url(#p1722386305)" style="fill: #e6cebe; stroke: #e6cebe; stroke-linejoin: miter"/>
   </g>
   <g id="patch_20">
    <path d="M 1287.36 78.48 
L 1358.28 78.48 
L 1358.28 10.8 
L 1287.36 10.8 
z
" clip-path="url(#p1722386305)" style="fill: #332925; stroke: #332925; stroke-linejoin: miter"/>
   </g>
   <g id="patch_21">
    <path d="M 1358.28 78.48 
L 1429.2 78.48 
L 1429.2 10.8 
L 1358.28 10.8 
z
" clip-path="url(#p1722386305)" style="fill: #a29685; stroke: #a29685; stroke-linejoin: miter"/>
   </g>
   <g id="patch_22">
    <path d="M 10.8 146.16 
L 81.72 146.16 
L 81.72 78.48 
L 10.8 78.48 
z
" clip-path="url(#p1722386305)" style="fill: #887256; stroke: #887256; stroke-linejoin: miter"/>
   </g>
   <g id="patch_23">
    <path d="M 81.72 146.16 
L 152.64 146.16 
L 152.64 78.48 
L 81.72 78.48 
z
" clip-path="url(#p1722386305)" style="fill: #cac2b8; stroke: #cac2b8; stroke-linejoin: miter"/>
   </g>
   <g id="patch_24">
    <path d="M 152.64 146.16 
L 223.56 146.16 
L 223.56 78.48 
L 152.64 78.48 
z
" clip-path="url(#p1722386305)" style="fill: #cfc8bf; stroke: #cfc8bf; stroke-linejoin: miter"/>
   </g>
   <g id="patch_25">
    <path d="M 223.56 146.16 
L 294.48 146.16 
L 294.48 78.48 
L 223.56 78.48 
z
" clip-path="url(#p1722386305)" style="fill: #303031; stroke: #303031; stroke-linejoin: miter"/>
   </g>
   <g id="patch_26">
    <path d="M 294.48 146.16 
L 365.4 146.16 
L 365.4 78.48 
L 294.48 78.48 
z
" clip-path="url(#p1722386305)" style="fill: #cfc8bf; stroke: #cfc8bf; stroke-linejoin: miter"/>
   </g>
   <g id="patch_27">
    <path d="M 365.4 146.16 
L 436.32 146.16 
L 436.32 78.48 
L 365.4 78.48 
z
" clip-path="url(#p1722386305)" style="fill: #cebab4; stroke: #cebab4; stroke-linejoin: miter"/>
   </g>
   <g id="patch_28">
    <path d="M 436.32 146.16 
L 507.24 146.16 
L 507.24 78.48 
L 436.32 78.48 
z
" clip-path="url(#p1722386305)" style="fill: #cfc8bf; stroke: #cfc8bf; stroke-linejoin: miter"/>
   </g>
   <g id="patch_29">
    <path d="M 507.24 146.16 
L 578.16 146.16 
L 578.16 78.48 
L 507.24 78.48 
z
" clip-path="url(#p1722386305)" style="fill: #231e19; stroke: #231e19; stroke-linejoin: miter"/>
   </g>
   <g id="patch_30">
    <path d="M 578.16 146.16 
L 649.08 146.16 
L 649.08 78.48 
L 578.16 78.48 
z
" clip-path="url(#p1722386305)" style="fill: #ceccc9; stroke: #ceccc9; stroke-linejoin: miter"/>
   </g>
   <g id="patch_31">
    <path d="M 649.08 146.16 
L 720 146.16 
L 720 78.48 
L 649.08 78.48 
z
" clip-path="url(#p1722386305)" style="fill: #cfc8bf; stroke: #cfc8bf; stroke-linejoin: miter"/>
   </g>
   <g id="patch_32">
    <path d="M 720 146.16 
L 790.92 146.16 
L 790.92 78.48 
L 720 78.48 
z
" clip-path="url(#p1722386305)" style="fill: #cfc8bf; stroke: #cfc8bf; stroke-linejoin: miter"/>
   </g>
   <g id="patch_33">
    <path d="M 790.92 146.16 
L 861.84 146.16 
L 861.84 78.48 
L 790.92 78.48 
z
" clip-path="url(#p1722386305)" style="fill: #daddd6; stroke: #daddd6; stroke-linejoin: miter"/>
   </g>
   <g id="patch_34">
    <path d="M 861.84 146.16 
L 932.76 146.16 
L 932.76 78.48 
L 861.84 78.48 
z
" clip-path="url(#p1722386305)" style="fill: #cfc8bf; stroke: #cfc8bf; stroke-linejoin: miter"/>
   </g>
   <g id="patch_35">
    <path d="M 932.76 146.16 
L 1003.68 146.16 
L 1003.68 78.48 
L 932.76 78.48 
z
" clip-path="url(#p1722386305)" style="fill: #231e19; stroke: #231e19; stroke-linejoin: miter"/>
   </g>
   <g id="patch_36">
    <path d="M 1003.68 146.16 
L 1074.6 146.16 
L 1074.6 78.48 
L 1003.68 78.48 
z
" clip-path="url(#p1722386305)" style="fill: #1e1813; stroke: #1e1813; stroke-linejoin: miter"/>
   </g>
   <g id="patch_37">
    <path d="M 1074.6 146.16 
L 1145.52 146.16 
L 1145.52 78.48 
L 1074.6 78.48 
z
" clip-path="url(#p1722386305)" style="fill: #231e19; stroke: #231e19; stroke-linejoin: miter"/>
   </g>
   <g id="patch_38">
    <path d="M 1145.52 146.16 
L 1216.44 146.16 
L 1216.44 78.48 
L 1145.52 78.48 
z
" clip-path="url(#p1722386305)" style="fill: #231e19; stroke: #231e19; stroke-linejoin: miter"/>
   </g>
   <g id="patch_39">
    <path d="M 1216.44 146.16 
L 1287.36 146.16 
L 1287.36 78.48 
L 1216.44 78.48 
z
" clip-path="url(#p1722386305)" style="fill: #c9c4bc; stroke: #c9c4bc; stroke-linejoin: miter"/>
   </g>
   <g id="patch_40">
    <path d="M 1287.36 146.16 
L 1358.28 146.16 
L 1358.28 78.48 
L 1287.36 78.48 
z
" clip-path="url(#p1722386305)" style="fill: #cfc8bf; stroke: #cfc8bf; stroke-linejoin: miter"/>
   </g>
   <g id="patch_41">
    <path d="M 1358.28 146.16 
L 1429.2 146.16 
L 1429.2 78.48 
L 1358.28 78.48 
z
" clip-path="url(#p1722386305)" style="fill: #231e19; stroke: #231e19; stroke-linejoin: miter"/>
   </g>
   <g id="patch_42">
    <path d="M 10.8 213.84 
L 81.72 213.84 
L 81.72 146.16 
L 10.8 146.16 
z
" clip-path="url(#p1722386305)" style="fill: #41342f; stroke: #41342f; stroke-linejoin: miter"/>
   </g>
   <g id="patch_43">
    <path d="M 81.72 213.84 
L 152.64 213.84 
L 152.64 146.16 
L 81.72 146.16 
z
" clip-path="url(#p1722386305)" style="fill: #cfc8bf; stroke: #cfc8bf; stroke-linejoin: miter"/>
   </g>
   <g id="patch_44">
    <path d="M 152.64 213.84 
L 223.56 213.84 
L 223.56 146.16 
L 152.64 146.16 
z
" clip-path="url(#p1722386305)" style="fill: #cfc8bf; stroke: #cfc8bf; stroke-linejoin: miter"/>
   </g>
   <g id="patch_45">
    <path d="M 223.56 213.84 
L 294.48 213.84 
L 294.48 146.16 
L 223.56 146.16 
z
" clip-path="url(#p1722386305)" style="fill: #cfc8bf; stroke: #cfc8bf; stroke-linejoin: miter"/>
   </g>
   <g id="patch_46">
    <path d="M 294.48 213.84 
L 365.4 213.84 
L 365.4 146.16 
L 294.48 146.16 
z
" clip-path="url(#p1722386305)" style="fill: #172a39; stroke: #172a39; stroke-linejoin: miter"/>
   </g>
   <g id="patch_47">
    <path d="M 365.4 213.84 
L 436.32 213.84 
L 436.32 146.16 
L 365.4 146.16 
z
" clip-path="url(#p1722386305)" style="fill: #d1c8bf; stroke: #d1c8bf; stroke-linejoin: miter"/>
   </g>
   <g id="patch_48">
    <path d="M 436.32 213.84 
L 507.24 213.84 
L 507.24 146.16 
L 436.32 146.16 
z
" clip-path="url(#p1722386305)" style="fill: #413a37; stroke: #413a37; stroke-linejoin: miter"/>
   </g>
   <g id="patch_49">
    <path d="M 507.24 213.84 
L 578.16 213.84 
L 578.16 146.16 
L 507.24 146.16 
z
" clip-path="url(#p1722386305)" style="fill: #413a37; stroke: #413a37; stroke-linejoin: miter"/>
   </g>
   <g id="patch_50">
    <path d="M 578.16 213.84 
L 649.08 213.84 
L 649.08 146.16 
L 578.16 146.16 
z
" clip-path="url(#p1722386305)" style="fill: #403228; stroke: #403228; stroke-linejoin: miter"/>
   </g>
   <g id="patch_51">
    <path d="M 649.08 213.84 
L 720 213.84 
L 720 146.16 
L 649.08 146.16 
z
" clip-path="url(#p1722386305)" style="fill: #403228; stroke: #403228; stroke-linejoin: miter"/>
   </g>
   <g id="patch_52">
    <path d="M 720 213.84 
L 790.92 213.84 
L 790.92 146.16 
L 720 146.16 
z
" clip-path="url(#p1722386305)" style="fill: #1d1e1e; stroke: #1d1e1e; stroke-linejoin: miter"/>
   </g>
   <g id="patch_53">
    <path d="M 790.92 213.84 
L 861.84 213.84 
L 861.84 146.16 
L 790.92 146.16 
z
" clip-path="url(#p1722386305)" style="fill: #cac3bd; stroke: #cac3bd; stroke-linejoin: miter"/>
   </g>
   <g id="patch_54">
    <path d="M 861.84 213.84 
L 932.76 213.84 
L 932.76 146.16 
L 861.84 146.16 
z
" clip-path="url(#p1722386305)" style="fill: #d6c6bf; stroke: #d6c6bf; stroke-linejoin: miter"/>
   </g>
   <g id="patch_55">
    <path d="M 932.76 213.84 
L 1003.68 213.84 
L 1003.68 146.16 
L 932.76 146.16 
z
" clip-path="url(#p1722386305)" style="fill: #e8e8e8; stroke: #e8e8e8; stroke-linejoin: miter"/>
   </g>
   <g id="patch_56">
    <path d="M 1003.68 213.84 
L 1074.6 213.84 
L 1074.6 146.16 
L 1003.68 146.16 
z
" clip-path="url(#p1722386305)" style="fill: #c8c2ba; stroke: #c8c2ba; stroke-linejoin: miter"/>
   </g>
   <g id="patch_57">
    <path d="M 1074.6 213.84 
L 1145.52 213.84 
L 1145.52 146.16 
L 1074.6 146.16 
z
" clip-path="url(#p1722386305)" style="fill: #dbc8b1; stroke: #dbc8b1; stroke-linejoin: miter"/>
   </g>
   <g id="patch_58">
    <path d="M 1145.52 213.84 
L 1216.44 213.84 
L 1216.44 146.16 
L 1145.52 146.16 
z
" clip-path="url(#p1722386305)" style="fill: #e1ba4f; stroke: #e1ba4f; stroke-linejoin: miter"/>
   </g>
   <g id="patch_59">
    <path d="M 1216.44 213.84 
L 1287.36 213.84 
L 1287.36 146.16 
L 1216.44 146.16 
z
" clip-path="url(#p1722386305)" style="fill: #35292c; stroke: #35292c; stroke-linejoin: miter"/>
   </g>
   <g id="patch_60">
    <path d="M 1287.36 213.84 
L 1358.28 213.84 
L 1358.28 146.16 
L 1287.36 146.16 
z
" clip-path="url(#p1722386305)" style="fill: #a57f59; stroke: #a57f59; stroke-linejoin: miter"/>
   </g>
   <g id="patch_61">
    <path d="M 1358.28 213.84 
L 1429.2 213.84 
L 1429.2 146.16 
L 1358.28 146.16 
z
" clip-path="url(#p1722386305)" style="fill: #9c846b; stroke: #9c846b; stroke-linejoin: miter"/>
   </g>
   <g id="patch_62">
    <path d="M 10.8 281.52 
L 81.72 281.52 
L 81.72 213.84 
L 10.8 213.84 
z
" clip-path="url(#p1722386305)" style="fill: #dbb69a; stroke: #dbb69a; stroke-linejoin: miter"/>
   </g>
   <g id="patch_63">
    <path d="M 81.72 281.52 
L 152.64 281.52 
L 152.64 213.84 
L 81.72 213.84 
z
" clip-path="url(#p1722386305)" style="fill: #423b35; stroke: #423b35; stroke-linejoin: miter"/>
   </g>
   <g id="patch_64">
    <path d="M 152.64 281.52 
L 223.56 281.52 
L 223.56 213.84 
L 152.64 213.84 
z
" clip-path="url(#p1722386305)" style="fill: #c7bbac; stroke: #c7bbac; stroke-linejoin: miter"/>
   </g>
   <g id="patch_65">
    <path d="M 223.56 281.52 
L 294.48 281.52 
L 294.48 213.84 
L 223.56 213.84 
z
" clip-path="url(#p1722386305)" style="fill: #c7bbac; stroke: #c7bbac; stroke-linejoin: miter"/>
   </g>
   <g id="patch_66">
    <path d="M 294.48 281.52 
L 365.4 281.52 
L 365.4 213.84 
L 294.48 213.84 
z
" clip-path="url(#p1722386305)" style="fill: #3c2f26; stroke: #3c2f26; stroke-linejoin: miter"/>
   </g>
   <g id="patch_67">
    <path d="M 365.4 281.52 
L 436.32 281.52 
L 436.32 213.84 
L 365.4 213.84 
z
" clip-path="url(#p1722386305)" style="fill: #d3c5b5; stroke: #d3c5b5; stroke-linejoin: miter"/>
   </g>
   <g id="patch_68">
    <path d="M 436.32 281.52 
L 507.24 281.52 
L 507.24 213.84 
L 436.32 213.84 
z
" clip-path="url(#p1722386305)" style="fill: #29201a; stroke: #29201a; stroke-linejoin: miter"/>
   </g>
   <g id="patch_69">
    <path d="M 507.24 281.52 
L 578.16 281.52 
L 578.16 213.84 
L 507.24 213.84 
z
" clip-path="url(#p1722386305)" style="fill: #29201a; stroke: #29201a; stroke-linejoin: miter"/>
   </g>
   <g id="patch_70">
    <path d="M 578.16 281.52 
L 649.08 281.52 
L 649.08 213.84 
L 578.16 213.84 
z
" clip-path="url(#p1722386305)" style="fill: #b7b2ab; stroke: #b7b2ab; stroke-linejoin: miter"/>
   </g>
   <g id="patch_71">
    <path d="M 649.08 281.52 
L 720 281.52 
L 720 213.84 
L 649.08 213.84 
z
" clip-path="url(#p1722386305)" style="fill: #d5c9c2; stroke: #d5c9c2; stroke-linejoin: miter"/>
   </g>
   <g id="patch_72">
    <path d="M 720 281.52 
L 790.92 281.52 
L 790.92 213.84 
L 720 213.84 
z
" clip-path="url(#p1722386305)" style="fill: #322a26; stroke: #322a26; stroke-linejoin: miter"/>
   </g>
   <g id="patch_73">
    <path d="M 790.92 281.52 
L 861.84 281.52 
L 861.84 213.84 
L 790.92 213.84 
z
" clip-path="url(#p1722386305)" style="fill: #292529; stroke: #292529; stroke-linejoin: miter"/>
   </g>
   <g id="patch_74">
    <path d="M 861.84 281.52 
L 932.76 281.52 
L 932.76 213.84 
L 861.84 213.84 
z
" clip-path="url(#p1722386305)" style="fill: #d3cfc8; stroke: #d3cfc8; stroke-linejoin: miter"/>
   </g>
   <g id="patch_75">
    <path d="M 932.76 281.52 
L 1003.68 281.52 
L 1003.68 213.84 
L 932.76 213.84 
z
" clip-path="url(#p1722386305)" style="fill: #855531; stroke: #855531; stroke-linejoin: miter"/>
   </g>
   <g id="patch_76">
    <path d="M 1003.68 281.52 
L 1074.6 281.52 
L 1074.6 213.84 
L 1003.68 213.84 
z
" clip-path="url(#p1722386305)" style="fill: #4b3828; stroke: #4b3828; stroke-linejoin: miter"/>
   </g>
   <g id="patch_77">
    <path d="M 1074.6 281.52 
L 1145.52 281.52 
L 1145.52 213.84 
L 1074.6 213.84 
z
" clip-path="url(#p1722386305)" style="fill: #d6cfcf; stroke: #d6cfcf; stroke-linejoin: miter"/>
   </g>
   <g id="patch_78">
    <path d="M 1145.52 281.52 
L 1216.44 281.52 
L 1216.44 213.84 
L 1145.52 213.84 
z
" clip-path="url(#p1722386305)" style="fill: #cec6bf; stroke: #cec6bf; stroke-linejoin: miter"/>
   </g>
   <g id="patch_79">
    <path d="M 1216.44 281.52 
L 1287.36 281.52 
L 1287.36 213.84 
L 1216.44 213.84 
z
" clip-path="url(#p1722386305)" style="fill: #a57f65; stroke: #a57f65; stroke-linejoin: miter"/>
   </g>
   <g id="patch_80">
    <path d="M 1287.36 281.52 
L 1358.28 281.52 
L 1358.28 213.84 
L 1287.36 213.84 
z
" clip-path="url(#p1722386305)" style="fill: #3d2f24; stroke: #3d2f24; stroke-linejoin: miter"/>
   </g>
   <g id="patch_81">
    <path d="M 1358.28 281.52 
L 1429.2 281.52 
L 1429.2 213.84 
L 1358.28 213.84 
z
" clip-path="url(#p1722386305)" style="fill: #3f352f; stroke: #3f352f; stroke-linejoin: miter"/>
   </g>
   <g id="patch_82">
    <path d="M 10.8 349.2 
L 81.72 349.2 
L 81.72 281.52 
L 10.8 281.52 
z
" clip-path="url(#p1722386305)" style="fill: #7b5840; stroke: #7b5840; stroke-linejoin: miter"/>
   </g>
  </g>
 </g>
 <defs>
  <clipPath id="p1722386305">
   <rect x="10.8" y="10.8" width="1418.4" height="338.4"/>
  </clipPath>
 </defs>
</svg>
