<?xml version="1.0" encoding="utf-8" standalone="no"?>
<!DOCTYPE svg PUBLIC "-//W3C//DTD SVG 1.1//EN"
  "http://www.w3.org/Graphics/SVG/1.1/DTD/svg11.dtd">
<svg xmlns:xlink="http://www.w3.org/1999/xlink" width="1440pt" height="72pt" viewBox="0 0 1440 72" xmlns="http://www.w3.org/2000/svg" version="1.1">
 <metadata>
  <rdf:RDF xmlns:dc="http://purl.org/dc/elements/1.1/" xmlns:cc="http://creativecommons.org/ns#" xmlns:rdf="http://www.w3.org/1999/02/22-rdf-syntax-ns#">
   <cc:Work>
    <dc:type rdf:resource="http://purl.org/dc/dcmitype/StillImage"/>
    <dc:date>2025-05-04T17:21:06.696635</dc:date>
    <dc:format>image/svg+xml</dc:format>
    <dc:creator>
     <cc:Agent>
      <dc:title>Matplotlib v3.9.2, https://matplotlib.org/</dc:title>
     </cc:Agent>
    </dc:creator>
   </cc:Work>
  </rdf:RDF>
 </metadata>
 <defs>
  <style type="text/css">*{stroke-linejoin: round; stroke-linecap: butt}</style>
 </defs>
 <g id="figure_1">
  <g id="patch_1">
   <path d="M 0 72 
L 1440 72 
L 1440 0 
L 0 0 
z
" style="fill: #ffffff"/>
  </g>
  <g id="axes_1">
   <g id="patch_2">
    <path d="M 10.8 61.2 
L 81.72 61.2 
L 81.72 10.8 
L 10.8 10.8 
z
" clip-path="url(#pbf3f566ff1)" style="fill: #36302e; stroke: #36302e; stroke-linejoin: miter"/>
   </g>
   <g id="patch_3">
    <path d="M 81.72 61.2 
L 152.64 61.2 
L 152.64 10.8 
L 81.72 10.8 
z
" clip-path="url(#pbf3f566ff1)" style="fill: #86613f; stroke: #86613f; stroke-linejoin: miter"/>
   </g>
   <g id="patch_4">
    <path d="M 152.64 61.2 
L 223.56 61.2 
L 223.56 10.8 
L 152.64 10.8 
z
" clip-path="url(#pbf3f566ff1)" style="fill: #8d6755; stroke: #8d6755; stroke-linejoin: miter"/>
   </g>
   <g id="patch_5">
    <path d="M 223.56 61.2 
L 294.48 61.2 
L 294.48 10.8 
L 223.56 10.8 
z
" clip-path="url(#pbf3f566ff1)" style="fill: #bca389; stroke: #bca389; stroke-linejoin: miter"/>
   </g>
   <g id="patch_6">
    <path d="M 294.48 61.2 
L 365.4 61.2 
L 365.4 10.8 
L 294.48 10.8 
z
" clip-path="url(#pbf3f566ff1)" style="fill: #3b2e27; stroke: #3b2e27; stroke-linejoin: miter"/>
   </g>
   <g id="patch_7">
    <path d="M 365.4 61.2 
L 436.32 61.2 
L 436.32 10.8 
L 365.4 10.8 
z
" clip-path="url(#pbf3f566ff1)" style="fill: #3b2e27; stroke: #3b2e27; stroke-linejoin: miter"/>
   </g>
   <g id="patch_8">
    <path d="M 436.32 61.2 
L 507.24 61.2 
L 507.24 10.8 
L 436.32 10.8 
z
" clip-path="url(#pbf3f566ff1)" style="fill: #3b2e27; stroke: #3b2e27; stroke-linejoin: miter"/>
   </g>
   <g id="patch_9">
    <path d="M 507.24 61.2 
L 578.16 61.2 
L 578.16 10.8 
L 507.24 10.8 
z
" clip-path="url(#pbf3f566ff1)" style="fill: #d3bfae; stroke: #d3bfae; stroke-linejoin: miter"/>
   </g>
   <g id="patch_10">
    <path d="M 578.16 61.2 
L 649.08 61.2 
L 649.08 10.8 
L 578.16 10.8 
z
" clip-path="url(#pbf3f566ff1)" style="fill: #3b2e27; stroke: #3b2e27; stroke-linejoin: miter"/>
   </g>
   <g id="patch_11">
    <path d="M 649.08 61.2 
L 720 61.2 
L 720 10.8 
L 649.08 10.8 
z
" clip-path="url(#pbf3f566ff1)" style="fill: #3b2e27; stroke: #3b2e27; stroke-linejoin: miter"/>
   </g>
   <g id="patch_12">
    <path d="M 720 61.2 
L 790.92 61.2 
L 790.92 10.8 
L 720 10.8 
z
" clip-path="url(#pbf3f566ff1)" style="fill: #3b2e27; stroke: #3b2e27; stroke-linejoin: miter"/>
   </g>
   <g id="patch_13">
    <path d="M 790.92 61.2 
L 861.84 61.2 
L 861.84 10.8 
L 790.92 10.8 
z
" clip-path="url(#pbf3f566ff1)" style="fill: #3b2e27; stroke: #3b2e27; stroke-linejoin: miter"/>
   </g>
   <g id="patch_14">
    <path d="M 861.84 61.2 
L 932.76 61.2 
L 932.76 10.8 
L 861.84 10.8 
z
" clip-path="url(#pbf3f566ff1)" style="fill: #3b2e27; stroke: #3b2e27; stroke-linejoin: miter"/>
   </g>
   <g id="patch_15">
    <path d="M 932.76 61.2 
L 1003.68 61.2 
L 1003.68 10.8 
L 932.76 10.8 
z
" clip-path="url(#pbf3f566ff1)" style="fill: #3b2e27; stroke: #3b2e27; stroke-linejoin: miter"/>
   </g>
   <g id="patch_16">
    <path d="M 1003.68 61.2 
L 1074.6 61.2 
L 1074.6 10.8 
L 1003.68 10.8 
z
" clip-path="url(#pbf3f566ff1)" style="fill: #3b3834; stroke: #3b3834; stroke-linejoin: miter"/>
   </g>
   <g id="patch_17">
    <path d="M 1074.6 61.2 
L 1145.52 61.2 
L 1145.52 10.8 
L 1074.6 10.8 
z
" clip-path="url(#pbf3f566ff1)" style="fill: #c1a8aa; stroke: #c1a8aa; stroke-linejoin: miter"/>
   </g>
   <g id="patch_18">
    <path d="M 1145.52 61.2 
L 1216.44 61.2 
L 1216.44 10.8 
L 1145.52 10.8 
z
" clip-path="url(#pbf3f566ff1)" style="fill: #88655f; stroke: #88655f; stroke-linejoin: miter"/>
   </g>
   <g id="patch_19">
    <path d="M 1216.44 61.2 
L 1287.36 61.2 
L 1287.36 10.8 
L 1216.44 10.8 
z
" clip-path="url(#pbf3f566ff1)" style="fill: #c6b39c; stroke: #c6b39c; stroke-linejoin: miter"/>
   </g>
  </g>
 </g>
 <defs>
  <clipPath id="pbf3f566ff1">
   <rect x="10.8" y="10.8" width="1418.4" height="50.4"/>
  </clipPath>
 </defs>
</svg>
