<?xml version="1.0" encoding="utf-8" standalone="no"?>
<!DOCTYPE svg PUBLIC "-//W3C//DTD SVG 1.1//EN"
  "http://www.w3.org/Graphics/SVG/1.1/DTD/svg11.dtd">
<svg xmlns:xlink="http://www.w3.org/1999/xlink" width="1440pt" height="504pt" viewBox="0 0 1440 504" xmlns="http://www.w3.org/2000/svg" version="1.1">
 <metadata>
  <rdf:RDF xmlns:dc="http://purl.org/dc/elements/1.1/" xmlns:cc="http://creativecommons.org/ns#" xmlns:rdf="http://www.w3.org/1999/02/22-rdf-syntax-ns#">
   <cc:Work>
    <dc:type rdf:resource="http://purl.org/dc/dcmitype/StillImage"/>
    <dc:date>2025-05-04T17:21:07.124586</dc:date>
    <dc:format>image/svg+xml</dc:format>
    <dc:creator>
     <cc:Agent>
      <dc:title>Matplotlib v3.9.2, https://matplotlib.org/</dc:title>
     </cc:Agent>
    </dc:creator>
   </cc:Work>
  </rdf:RDF>
 </metadata>
 <defs>
  <style type="text/css">*{stroke-linejoin: round; stroke-linecap: butt}</style>
 </defs>
 <g id="figure_1">
  <g id="patch_1">
   <path d="M 0 504 
L 1440 504 
L 1440 0 
L 0 0 
z
" style="fill: #ffffff"/>
  </g>
  <g id="axes_1">
   <g id="patch_2">
    <path d="M 10.8 79.714286 
L 81.72 79.714286 
L 81.72 10.8 
L 10.8 10.8 
z
" clip-path="url(#p60e4ae8b7c)" style="fill: #b49a81; stroke: #b49a81; stroke-linejoin: miter"/>
   </g>
   <g id="patch_3">
    <path d="M 81.72 79.714286 
L 152.64 79.714286 
L 152.64 10.8 
L 81.72 10.8 
z
" clip-path="url(#p60e4ae8b7c)" style="fill: #433428; stroke: #433428; stroke-linejoin: miter"/>
   </g>
   <g id="patch_4">
    <path d="M 152.64 79.714286 
L 223.56 79.714286 
L 223.56 10.8 
L 152.64 10.8 
z
" clip-path="url(#p60e4ae8b7c)" style="fill: #3a3126; stroke: #3a3126; stroke-linejoin: miter"/>
   </g>
   <g id="patch_5">
    <path d="M 223.56 79.714286 
L 294.48 79.714286 
L 294.48 10.8 
L 223.56 10.8 
z
" clip-path="url(#p60e4ae8b7c)" style="fill: #b49a81; stroke: #b49a81; stroke-linejoin: miter"/>
   </g>
   <g id="patch_6">
    <path d="M 294.48 79.714286 
L 365.4 79.714286 
L 365.4 10.8 
L 294.48 10.8 
z
" clip-path="url(#p60e4ae8b7c)" style="fill: #d2cabb; stroke: #d2cabb; stroke-linejoin: miter"/>
   </g>
   <g id="patch_7">
    <path d="M 365.4 79.714286 
L 436.32 79.714286 
L 436.32 10.8 
L 365.4 10.8 
z
" clip-path="url(#p60e4ae8b7c)" style="fill: #302e2c; stroke: #302e2c; stroke-linejoin: miter"/>
   </g>
   <g id="patch_8">
    <path d="M 436.32 79.714286 
L 507.24 79.714286 
L 507.24 10.8 
L 436.32 10.8 
z
" clip-path="url(#p60e4ae8b7c)" style="fill: #3e3f34; stroke: #3e3f34; stroke-linejoin: miter"/>
   </g>
   <g id="patch_9">
    <path d="M 507.24 79.714286 
L 578.16 79.714286 
L 578.16 10.8 
L 507.24 10.8 
z
" clip-path="url(#p60e4ae8b7c)" style="fill: #c4c2c0; stroke: #c4c2c0; stroke-linejoin: miter"/>
   </g>
   <g id="patch_10">
    <path d="M 578.16 79.714286 
L 649.08 79.714286 
L 649.08 10.8 
L 578.16 10.8 
z
" clip-path="url(#p60e4ae8b7c)" style="fill: #2e2b25; stroke: #2e2b25; stroke-linejoin: miter"/>
   </g>
   <g id="patch_11">
    <path d="M 649.08 79.714286 
L 720 79.714286 
L 720 10.8 
L 649.08 10.8 
z
" clip-path="url(#p60e4ae8b7c)" style="fill: #2c3135; stroke: #2c3135; stroke-linejoin: miter"/>
   </g>
   <g id="patch_12">
    <path d="M 720 79.714286 
L 790.92 79.714286 
L 790.92 10.8 
L 720 10.8 
z
" clip-path="url(#p60e4ae8b7c)" style="fill: #c7beb4; stroke: #c7beb4; stroke-linejoin: miter"/>
   </g>
   <g id="patch_13">
    <path d="M 790.92 79.714286 
L 861.84 79.714286 
L 861.84 10.8 
L 790.92 10.8 
z
" clip-path="url(#p60e4ae8b7c)" style="fill: #b28c5e; stroke: #b28c5e; stroke-linejoin: miter"/>
   </g>
   <g id="patch_14">
    <path d="M 861.84 79.714286 
L 932.76 79.714286 
L 932.76 10.8 
L 861.84 10.8 
z
" clip-path="url(#p60e4ae8b7c)" style="fill: #7a553c; stroke: #7a553c; stroke-linejoin: miter"/>
   </g>
   <g id="patch_15">
    <path d="M 932.76 79.714286 
L 1003.68 79.714286 
L 1003.68 10.8 
L 932.76 10.8 
z
" clip-path="url(#p60e4ae8b7c)" style="fill: #cfccc6; stroke: #cfccc6; stroke-linejoin: miter"/>
   </g>
   <g id="patch_16">
    <path d="M 1003.68 79.714286 
L 1074.6 79.714286 
L 1074.6 10.8 
L 1003.68 10.8 
z
" clip-path="url(#p60e4ae8b7c)" style="fill: #333935; stroke: #333935; stroke-linejoin: miter"/>
   </g>
   <g id="patch_17">
    <path d="M 1074.6 79.714286 
L 1145.52 79.714286 
L 1145.52 10.8 
L 1074.6 10.8 
z
" clip-path="url(#p60e4ae8b7c)" style="fill: #7e7266; stroke: #7e7266; stroke-linejoin: miter"/>
   </g>
   <g id="patch_18">
    <path d="M 1145.52 79.714286 
L 1216.44 79.714286 
L 1216.44 10.8 
L 1145.52 10.8 
z
" clip-path="url(#p60e4ae8b7c)" style="fill: #bdb9b3; stroke: #bdb9b3; stroke-linejoin: miter"/>
   </g>
   <g id="patch_19">
    <path d="M 1216.44 79.714286 
L 1287.36 79.714286 
L 1287.36 10.8 
L 1216.44 10.8 
z
" clip-path="url(#p60e4ae8b7c)" style="fill: #7e7266; stroke: #7e7266; stroke-linejoin: miter"/>
   </g>
   <g id="patch_20">
    <path d="M 1287.36 79.714286 
L 1358.28 79.714286 
L 1358.28 10.8 
L 1287.36 10.8 
z
" clip-path="url(#p60e4ae8b7c)" style="fill: #7e7266; stroke: #7e7266; stroke-linejoin: miter"/>
   </g>
   <g id="patch_21">
    <path d="M 1358.28 79.714286 
L 1429.2 79.714286 
L 1429.2 10.8 
L 1358.28 10.8 
z
" clip-path="url(#p60e4ae8b7c)" style="fill: #d8d2be; stroke: #d8d2be; stroke-linejoin: miter"/>
   </g>
   <g id="patch_22">
    <path d="M 10.8 148.628571 
L 81.72 148.628571 
L 81.72 79.714286 
L 10.8 79.714286 
z
" clip-path="url(#p60e4ae8b7c)" style="fill: #7e7266; stroke: #7e7266; stroke-linejoin: miter"/>
   </g>
   <g id="patch_23">
    <path d="M 81.72 148.628571 
L 152.64 148.628571 
L 152.64 79.714286 
L 81.72 79.714286 
z
" clip-path="url(#p60e4ae8b7c)" style="fill: #7e7266; stroke: #7e7266; stroke-linejoin: miter"/>
   </g>
   <g id="patch_24">
    <path d="M 152.64 148.628571 
L 223.56 148.628571 
L 223.56 79.714286 
L 152.64 79.714286 
z
" clip-path="url(#p60e4ae8b7c)" style="fill: #c4c0b8; stroke: #c4c0b8; stroke-linejoin: miter"/>
   </g>
   <g id="patch_25">
    <path d="M 223.56 148.628571 
L 294.48 148.628571 
L 294.48 79.714286 
L 223.56 79.714286 
z
" clip-path="url(#p60e4ae8b7c)" style="fill: #28241f; stroke: #28241f; stroke-linejoin: miter"/>
   </g>
   <g id="patch_26">
    <path d="M 294.48 148.628571 
L 365.4 148.628571 
L 365.4 79.714286 
L 294.48 79.714286 
z
" clip-path="url(#p60e4ae8b7c)" style="fill: #40372e; stroke: #40372e; stroke-linejoin: miter"/>
   </g>
   <g id="patch_27">
    <path d="M 365.4 148.628571 
L 436.32 148.628571 
L 436.32 79.714286 
L 365.4 79.714286 
z
" clip-path="url(#p60e4ae8b7c)" style="fill: #bdb277; stroke: #bdb277; stroke-linejoin: miter"/>
   </g>
   <g id="patch_28">
    <path d="M 436.32 148.628571 
L 507.24 148.628571 
L 507.24 79.714286 
L 436.32 79.714286 
z
" clip-path="url(#p60e4ae8b7c)" style="fill: #887d66; stroke: #887d66; stroke-linejoin: miter"/>
   </g>
   <g id="patch_29">
    <path d="M 507.24 148.628571 
L 578.16 148.628571 
L 578.16 79.714286 
L 507.24 79.714286 
z
" clip-path="url(#p60e4ae8b7c)" style="fill: #887d66; stroke: #887d66; stroke-linejoin: miter"/>
   </g>
   <g id="patch_30">
    <path d="M 578.16 148.628571 
L 649.08 148.628571 
L 649.08 79.714286 
L 578.16 79.714286 
z
" clip-path="url(#p60e4ae8b7c)" style="fill: #b0a698; stroke: #b0a698; stroke-linejoin: miter"/>
   </g>
   <g id="patch_31">
    <path d="M 649.08 148.628571 
L 720 148.628571 
L 720 79.714286 
L 649.08 79.714286 
z
" clip-path="url(#p60e4ae8b7c)" style="fill: #b7ada7; stroke: #b7ada7; stroke-linejoin: miter"/>
   </g>
   <g id="patch_32">
    <path d="M 720 148.628571 
L 790.92 148.628571 
L 790.92 79.714286 
L 720 79.714286 
z
" clip-path="url(#p60e4ae8b7c)" style="fill: #d4cdcf; stroke: #d4cdcf; stroke-linejoin: miter"/>
   </g>
   <g id="patch_33">
    <path d="M 790.92 148.628571 
L 861.84 148.628571 
L 861.84 79.714286 
L 790.92 79.714286 
z
" clip-path="url(#p60e4ae8b7c)" style="fill: #1f1b18; stroke: #1f1b18; stroke-linejoin: miter"/>
   </g>
   <g id="patch_34">
    <path d="M 861.84 148.628571 
L 932.76 148.628571 
L 932.76 79.714286 
L 861.84 79.714286 
z
" clip-path="url(#p60e4ae8b7c)" style="fill: #bababb; stroke: #bababb; stroke-linejoin: miter"/>
   </g>
   <g id="patch_35">
    <path d="M 932.76 148.628571 
L 1003.68 148.628571 
L 1003.68 79.714286 
L 932.76 79.714286 
z
" clip-path="url(#p60e4ae8b7c)" style="fill: #b6ab9c; stroke: #b6ab9c; stroke-linejoin: miter"/>
   </g>
   <g id="patch_36">
    <path d="M 1003.68 148.628571 
L 1074.6 148.628571 
L 1074.6 79.714286 
L 1003.68 79.714286 
z
" clip-path="url(#p60e4ae8b7c)" style="fill: #ccb49a; stroke: #ccb49a; stroke-linejoin: miter"/>
   </g>
   <g id="patch_37">
    <path d="M 1074.6 148.628571 
L 1145.52 148.628571 
L 1145.52 79.714286 
L 1074.6 79.714286 
z
" clip-path="url(#p60e4ae8b7c)" style="fill: #bdafa6; stroke: #bdafa6; stroke-linejoin: miter"/>
   </g>
   <g id="patch_38">
    <path d="M 1145.52 148.628571 
L 1216.44 148.628571 
L 1216.44 79.714286 
L 1145.52 79.714286 
z
" clip-path="url(#p60e4ae8b7c)" style="fill: #baa794; stroke: #baa794; stroke-linejoin: miter"/>
   </g>
   <g id="patch_39">
    <path d="M 1216.44 148.628571 
L 1287.36 148.628571 
L 1287.36 79.714286 
L 1216.44 79.714286 
z
" clip-path="url(#p60e4ae8b7c)" style="fill: #baa794; stroke: #baa794; stroke-linejoin: miter"/>
   </g>
   <g id="patch_40">
    <path d="M 1287.36 148.628571 
L 1358.28 148.628571 
L 1358.28 79.714286 
L 1287.36 79.714286 
z
" clip-path="url(#p60e4ae8b7c)" style="fill: #cac5bf; stroke: #cac5bf; stroke-linejoin: miter"/>
   </g>
   <g id="patch_41">
    <path d="M 1358.28 148.628571 
L 1429.2 148.628571 
L 1429.2 79.714286 
L 1358.28 79.714286 
z
" clip-path="url(#p60e4ae8b7c)" style="fill: #a29886; stroke: #a29886; stroke-linejoin: miter"/>
   </g>
   <g id="patch_42">
    <path d="M 10.8 217.542857 
L 81.72 217.542857 
L 81.72 148.628571 
L 10.8 148.628571 
z
" clip-path="url(#p60e4ae8b7c)" style="fill: #413c34; stroke: #413c34; stroke-linejoin: miter"/>
   </g>
   <g id="patch_43">
    <path d="M 81.72 217.542857 
L 152.64 217.542857 
L 152.64 148.628571 
L 81.72 148.628571 
z
" clip-path="url(#p60e4ae8b7c)" style="fill: #ccc3ae; stroke: #ccc3ae; stroke-linejoin: miter"/>
   </g>
   <g id="patch_44">
    <path d="M 152.64 217.542857 
L 223.56 217.542857 
L 223.56 148.628571 
L 152.64 148.628571 
z
" clip-path="url(#p60e4ae8b7c)" style="fill: #b28e71; stroke: #b28e71; stroke-linejoin: miter"/>
   </g>
   <g id="patch_45">
    <path d="M 223.56 217.542857 
L 294.48 217.542857 
L 294.48 148.628571 
L 223.56 148.628571 
z
" clip-path="url(#p60e4ae8b7c)" style="fill: #db9d92; stroke: #db9d92; stroke-linejoin: miter"/>
   </g>
   <g id="patch_46">
    <path d="M 294.48 217.542857 
L 365.4 217.542857 
L 365.4 148.628571 
L 294.48 148.628571 
z
" clip-path="url(#p60e4ae8b7c)" style="fill: #3d332a; stroke: #3d332a; stroke-linejoin: miter"/>
   </g>
   <g id="patch_47">
    <path d="M 365.4 217.542857 
L 436.32 217.542857 
L 436.32 148.628571 
L 365.4 148.628571 
z
" clip-path="url(#p60e4ae8b7c)" style="fill: #8f7a60; stroke: #8f7a60; stroke-linejoin: miter"/>
   </g>
   <g id="patch_48">
    <path d="M 436.32 217.542857 
L 507.24 217.542857 
L 507.24 148.628571 
L 436.32 148.628571 
z
" clip-path="url(#p60e4ae8b7c)" style="fill: #392e24; stroke: #392e24; stroke-linejoin: miter"/>
   </g>
   <g id="patch_49">
    <path d="M 507.24 217.542857 
L 578.16 217.542857 
L 578.16 148.628571 
L 507.24 148.628571 
z
" clip-path="url(#p60e4ae8b7c)" style="fill: #2e2923; stroke: #2e2923; stroke-linejoin: miter"/>
   </g>
   <g id="patch_50">
    <path d="M 578.16 217.542857 
L 649.08 217.542857 
L 649.08 148.628571 
L 578.16 148.628571 
z
" clip-path="url(#p60e4ae8b7c)" style="fill: #393239; stroke: #393239; stroke-linejoin: miter"/>
   </g>
   <g id="patch_51">
    <path d="M 649.08 217.542857 
L 720 217.542857 
L 720 148.628571 
L 649.08 148.628571 
z
" clip-path="url(#p60e4ae8b7c)" style="fill: #0c0a0a; stroke: #0c0a0a; stroke-linejoin: miter"/>
   </g>
   <g id="patch_52">
    <path d="M 720 217.542857 
L 790.92 217.542857 
L 790.92 148.628571 
L 720 148.628571 
z
" clip-path="url(#p60e4ae8b7c)" style="fill: #c6b8b3; stroke: #c6b8b3; stroke-linejoin: miter"/>
   </g>
   <g id="patch_53">
    <path d="M 790.92 217.542857 
L 861.84 217.542857 
L 861.84 148.628571 
L 790.92 148.628571 
z
" clip-path="url(#p60e4ae8b7c)" style="fill: #c6bbad; stroke: #c6bbad; stroke-linejoin: miter"/>
   </g>
   <g id="patch_54">
    <path d="M 861.84 217.542857 
L 932.76 217.542857 
L 932.76 148.628571 
L 861.84 148.628571 
z
" clip-path="url(#p60e4ae8b7c)" style="fill: #bdae8e; stroke: #bdae8e; stroke-linejoin: miter"/>
   </g>
   <g id="patch_55">
    <path d="M 932.76 217.542857 
L 1003.68 217.542857 
L 1003.68 148.628571 
L 932.76 148.628571 
z
" clip-path="url(#p60e4ae8b7c)" style="fill: #ccc9c2; stroke: #ccc9c2; stroke-linejoin: miter"/>
   </g>
   <g id="patch_56">
    <path d="M 1003.68 217.542857 
L 1074.6 217.542857 
L 1074.6 148.628571 
L 1003.68 148.628571 
z
" clip-path="url(#p60e4ae8b7c)" style="fill: #33322f; stroke: #33322f; stroke-linejoin: miter"/>
   </g>
   <g id="patch_57">
    <path d="M 1074.6 217.542857 
L 1145.52 217.542857 
L 1145.52 148.628571 
L 1074.6 148.628571 
z
" clip-path="url(#p60e4ae8b7c)" style="fill: #d8d0bf; stroke: #d8d0bf; stroke-linejoin: miter"/>
   </g>
   <g id="patch_58">
    <path d="M 1145.52 217.542857 
L 1216.44 217.542857 
L 1216.44 148.628571 
L 1145.52 148.628571 
z
" clip-path="url(#p60e4ae8b7c)" style="fill: #7f6047; stroke: #7f6047; stroke-linejoin: miter"/>
   </g>
   <g id="patch_59">
    <path d="M 1216.44 217.542857 
L 1287.36 217.542857 
L 1287.36 148.628571 
L 1216.44 148.628571 
z
" clip-path="url(#p60e4ae8b7c)" style="fill: #342a23; stroke: #342a23; stroke-linejoin: miter"/>
   </g>
   <g id="patch_60">
    <path d="M 1287.36 217.542857 
L 1358.28 217.542857 
L 1358.28 148.628571 
L 1287.36 148.628571 
z
" clip-path="url(#p60e4ae8b7c)" style="fill: #c8b9a8; stroke: #c8b9a8; stroke-linejoin: miter"/>
   </g>
   <g id="patch_61">
    <path d="M 1358.28 217.542857 
L 1429.2 217.542857 
L 1429.2 148.628571 
L 1358.28 148.628571 
z
" clip-path="url(#p60e4ae8b7c)" style="fill: #d1cbc7; stroke: #d1cbc7; stroke-linejoin: miter"/>
   </g>
   <g id="patch_62">
    <path d="M 10.8 286.457143 
L 81.72 286.457143 
L 81.72 217.542857 
L 10.8 217.542857 
z
" clip-path="url(#p60e4ae8b7c)" style="fill: #d0cbc7; stroke: #d0cbc7; stroke-linejoin: miter"/>
   </g>
   <g id="patch_63">
    <path d="M 81.72 286.457143 
L 152.64 286.457143 
L 152.64 217.542857 
L 81.72 217.542857 
z
" clip-path="url(#p60e4ae8b7c)" style="fill: #e7e6e5; stroke: #e7e6e5; stroke-linejoin: miter"/>
   </g>
   <g id="patch_64">
    <path d="M 152.64 286.457143 
L 223.56 286.457143 
L 223.56 217.542857 
L 152.64 217.542857 
z
" clip-path="url(#p60e4ae8b7c)" style="fill: #252d26; stroke: #252d26; stroke-linejoin: miter"/>
   </g>
   <g id="patch_65">
    <path d="M 223.56 286.457143 
L 294.48 286.457143 
L 294.48 217.542857 
L 223.56 217.542857 
z
" clip-path="url(#p60e4ae8b7c)" style="fill: #cbc5bc; stroke: #cbc5bc; stroke-linejoin: miter"/>
   </g>
   <g id="patch_66">
    <path d="M 294.48 286.457143 
L 365.4 286.457143 
L 365.4 217.542857 
L 294.48 217.542857 
z
" clip-path="url(#p60e4ae8b7c)" style="fill: #c8bdb7; stroke: #c8bdb7; stroke-linejoin: miter"/>
   </g>
   <g id="patch_67">
    <path d="M 365.4 286.457143 
L 436.32 286.457143 
L 436.32 217.542857 
L 365.4 217.542857 
z
" clip-path="url(#p60e4ae8b7c)" style="fill: #cacac3; stroke: #cacac3; stroke-linejoin: miter"/>
   </g>
   <g id="patch_68">
    <path d="M 436.32 286.457143 
L 507.24 286.457143 
L 507.24 217.542857 
L 436.32 217.542857 
z
" clip-path="url(#p60e4ae8b7c)" style="fill: #b2a495; stroke: #b2a495; stroke-linejoin: miter"/>
   </g>
   <g id="patch_69">
    <path d="M 507.24 286.457143 
L 578.16 286.457143 
L 578.16 217.542857 
L 507.24 217.542857 
z
" clip-path="url(#p60e4ae8b7c)" style="fill: #827661; stroke: #827661; stroke-linejoin: miter"/>
   </g>
   <g id="patch_70">
    <path d="M 578.16 286.457143 
L 649.08 286.457143 
L 649.08 217.542857 
L 578.16 217.542857 
z
" clip-path="url(#p60e4ae8b7c)" style="fill: #8a7460; stroke: #8a7460; stroke-linejoin: miter"/>
   </g>
   <g id="patch_71">
    <path d="M 649.08 286.457143 
L 720 286.457143 
L 720 217.542857 
L 649.08 217.542857 
z
" clip-path="url(#p60e4ae8b7c)" style="fill: #1b1b19; stroke: #1b1b19; stroke-linejoin: miter"/>
   </g>
   <g id="patch_72">
    <path d="M 720 286.457143 
L 790.92 286.457143 
L 790.92 217.542857 
L 720 217.542857 
z
" clip-path="url(#p60e4ae8b7c)" style="fill: #83654d; stroke: #83654d; stroke-linejoin: miter"/>
   </g>
   <g id="patch_73">
    <path d="M 790.92 286.457143 
L 861.84 286.457143 
L 861.84 217.542857 
L 790.92 217.542857 
z
" clip-path="url(#p60e4ae8b7c)" style="fill: #9a8874; stroke: #9a8874; stroke-linejoin: miter"/>
   </g>
   <g id="patch_74">
    <path d="M 861.84 286.457143 
L 932.76 286.457143 
L 932.76 217.542857 
L 861.84 217.542857 
z
" clip-path="url(#p60e4ae8b7c)" style="fill: #141615; stroke: #141615; stroke-linejoin: miter"/>
   </g>
   <g id="patch_75">
    <path d="M 932.76 286.457143 
L 1003.68 286.457143 
L 1003.68 217.542857 
L 932.76 217.542857 
z
" clip-path="url(#p60e4ae8b7c)" style="fill: #221c18; stroke: #221c18; stroke-linejoin: miter"/>
   </g>
   <g id="patch_76">
    <path d="M 1003.68 286.457143 
L 1074.6 286.457143 
L 1074.6 217.542857 
L 1003.68 217.542857 
z
" clip-path="url(#p60e4ae8b7c)" style="fill: #b4c0c5; stroke: #b4c0c5; stroke-linejoin: miter"/>
   </g>
   <g id="patch_77">
    <path d="M 1074.6 286.457143 
L 1145.52 286.457143 
L 1145.52 217.542857 
L 1074.6 217.542857 
z
" clip-path="url(#p60e4ae8b7c)" style="fill: #483f30; stroke: #483f30; stroke-linejoin: miter"/>
   </g>
   <g id="patch_78">
    <path d="M 1145.52 286.457143 
L 1216.44 286.457143 
L 1216.44 217.542857 
L 1145.52 217.542857 
z
" clip-path="url(#p60e4ae8b7c)" style="fill: #483f30; stroke: #483f30; stroke-linejoin: miter"/>
   </g>
   <g id="patch_79">
    <path d="M 1216.44 286.457143 
L 1287.36 286.457143 
L 1287.36 217.542857 
L 1216.44 217.542857 
z
" clip-path="url(#p60e4ae8b7c)" style="fill: #bababb; stroke: #bababb; stroke-linejoin: miter"/>
   </g>
   <g id="patch_80">
    <path d="M 1287.36 286.457143 
L 1358.28 286.457143 
L 1358.28 217.542857 
L 1287.36 217.542857 
z
" clip-path="url(#p60e4ae8b7c)" style="fill: #bababb; stroke: #bababb; stroke-linejoin: miter"/>
   </g>
   <g id="patch_81">
    <path d="M 1358.28 286.457143 
L 1429.2 286.457143 
L 1429.2 217.542857 
L 1358.28 217.542857 
z
" clip-path="url(#p60e4ae8b7c)" style="fill: #924c3f; stroke: #924c3f; stroke-linejoin: miter"/>
   </g>
   <g id="patch_82">
    <path d="M 10.8 355.371429 
L 81.72 355.371429 
L 81.72 286.457143 
L 10.8 286.457143 
z
" clip-path="url(#p60e4ae8b7c)" style="fill: #bababb; stroke: #bababb; stroke-linejoin: miter"/>
   </g>
   <g id="patch_83">
    <path d="M 81.72 355.371429 
L 152.64 355.371429 
L 152.64 286.457143 
L 81.72 286.457143 
z
" clip-path="url(#p60e4ae8b7c)" style="fill: #b4c0c5; stroke: #b4c0c5; stroke-linejoin: miter"/>
   </g>
   <g id="patch_84">
    <path d="M 152.64 355.371429 
L 223.56 355.371429 
L 223.56 286.457143 
L 152.64 286.457143 
z
" clip-path="url(#p60e4ae8b7c)" style="fill: #b97a3c; stroke: #b97a3c; stroke-linejoin: miter"/>
   </g>
   <g id="patch_85">
    <path d="M 223.56 355.371429 
L 294.48 355.371429 
L 294.48 286.457143 
L 223.56 286.457143 
z
" clip-path="url(#p60e4ae8b7c)" style="fill: #c8baab; stroke: #c8baab; stroke-linejoin: miter"/>
   </g>
   <g id="patch_86">
    <path d="M 294.48 355.371429 
L 365.4 355.371429 
L 365.4 286.457143 
L 294.48 286.457143 
z
" clip-path="url(#p60e4ae8b7c)" style="fill: #8f7d6a; stroke: #8f7d6a; stroke-linejoin: miter"/>
   </g>
   <g id="patch_87">
    <path d="M 365.4 355.371429 
L 436.32 355.371429 
L 436.32 286.457143 
L 365.4 286.457143 
z
" clip-path="url(#p60e4ae8b7c)" style="fill: #9a7d64; stroke: #9a7d64; stroke-linejoin: miter"/>
   </g>
   <g id="patch_88">
    <path d="M 436.32 355.371429 
L 507.24 355.371429 
L 507.24 286.457143 
L 436.32 286.457143 
z
" clip-path="url(#p60e4ae8b7c)" style="fill: #b5b4af; stroke: #b5b4af; stroke-linejoin: miter"/>
   </g>
   <g id="patch_89">
    <path d="M 507.24 355.371429 
L 578.16 355.371429 
L 578.16 286.457143 
L 507.24 286.457143 
z
" clip-path="url(#p60e4ae8b7c)" style="fill: #d6c6bf; stroke: #d6c6bf; stroke-linejoin: miter"/>
   </g>
   <g id="patch_90">
    <path d="M 578.16 355.371429 
L 649.08 355.371429 
L 649.08 286.457143 
L 578.16 286.457143 
z
" clip-path="url(#p60e4ae8b7c)" style="fill: #232933; stroke: #232933; stroke-linejoin: miter"/>
   </g>
   <g id="patch_91">
    <path d="M 649.08 355.371429 
L 720 355.371429 
L 720 286.457143 
L 649.08 286.457143 
z
" clip-path="url(#p60e4ae8b7c)" style="fill: #292524; stroke: #292524; stroke-linejoin: miter"/>
   </g>
   <g id="patch_92">
    <path d="M 720 355.371429 
L 790.92 355.371429 
L 790.92 286.457143 
L 720 286.457143 
z
" clip-path="url(#p60e4ae8b7c)" style="fill: #3f4546; stroke: #3f4546; stroke-linejoin: miter"/>
   </g>
   <g id="patch_93">
    <path d="M 790.92 355.371429 
L 861.84 355.371429 
L 861.84 286.457143 
L 790.92 286.457143 
z
" clip-path="url(#p60e4ae8b7c)" style="fill: #171413; stroke: #171413; stroke-linejoin: miter"/>
   </g>
   <g id="patch_94">
    <path d="M 861.84 355.371429 
L 932.76 355.371429 
L 932.76 286.457143 
L 861.84 286.457143 
z
" clip-path="url(#p60e4ae8b7c)" style="fill: #c3beb8; stroke: #c3beb8; stroke-linejoin: miter"/>
   </g>
   <g id="patch_95">
    <path d="M 932.76 355.371429 
L 1003.68 355.371429 
L 1003.68 286.457143 
L 932.76 286.457143 
z
" clip-path="url(#p60e4ae8b7c)" style="fill: #c5baac; stroke: #c5baac; stroke-linejoin: miter"/>
   </g>
   <g id="patch_96">
    <path d="M 1003.68 355.371429 
L 1074.6 355.371429 
L 1074.6 286.457143 
L 1003.68 286.457143 
z
" clip-path="url(#p60e4ae8b7c)" style="fill: #886144; stroke: #886144; stroke-linejoin: miter"/>
   </g>
   <g id="patch_97">
    <path d="M 1074.6 355.371429 
L 1145.52 355.371429 
L 1145.52 286.457143 
L 1074.6 286.457143 
z
" clip-path="url(#p60e4ae8b7c)" style="fill: #c5b9ad; stroke: #c5b9ad; stroke-linejoin: miter"/>
   </g>
   <g id="patch_98">
    <path d="M 1145.52 355.371429 
L 1216.44 355.371429 
L 1216.44 286.457143 
L 1145.52 286.457143 
z
" clip-path="url(#p60e4ae8b7c)" style="fill: #c7b8a8; stroke: #c7b8a8; stroke-linejoin: miter"/>
   </g>
   <g id="patch_99">
    <path d="M 1216.44 355.371429 
L 1287.36 355.371429 
L 1287.36 286.457143 
L 1216.44 286.457143 
z
" clip-path="url(#p60e4ae8b7c)" style="fill: #e0dcc4; stroke: #e0dcc4; stroke-linejoin: miter"/>
   </g>
   <g id="patch_100">
    <path d="M 1287.36 355.371429 
L 1358.28 355.371429 
L 1358.28 286.457143 
L 1287.36 286.457143 
z
" clip-path="url(#p60e4ae8b7c)" style="fill: #c1a1a5; stroke: #c1a1a5; stroke-linejoin: miter"/>
   </g>
   <g id="patch_101">
    <path d="M 1358.28 355.371429 
L 1429.2 355.371429 
L 1429.2 286.457143 
L 1358.28 286.457143 
z
" clip-path="url(#p60e4ae8b7c)" style="fill: #c1beb7; stroke: #c1beb7; stroke-linejoin: miter"/>
   </g>
   <g id="patch_102">
    <path d="M 10.8 424.285714 
L 81.72 424.285714 
L 81.72 355.371429 
L 10.8 355.371429 
z
" clip-path="url(#p60e4ae8b7c)" style="fill: #c1beb7; stroke: #c1beb7; stroke-linejoin: miter"/>
   </g>
   <g id="patch_103">
    <path d="M 81.72 424.285714 
L 152.64 424.285714 
L 152.64 355.371429 
L 81.72 355.371429 
z
" clip-path="url(#p60e4ae8b7c)" style="fill: #c1beb7; stroke: #c1beb7; stroke-linejoin: miter"/>
   </g>
   <g id="patch_104">
    <path d="M 152.64 424.285714 
L 223.56 424.285714 
L 223.56 355.371429 
L 152.64 355.371429 
z
" clip-path="url(#p60e4ae8b7c)" style="fill: #c1beb7; stroke: #c1beb7; stroke-linejoin: miter"/>
   </g>
   <g id="patch_105">
    <path d="M 223.56 424.285714 
L 294.48 424.285714 
L 294.48 355.371429 
L 223.56 355.371429 
z
" clip-path="url(#p60e4ae8b7c)" style="fill: #c5c0bb; stroke: #c5c0bb; stroke-linejoin: miter"/>
   </g>
   <g id="patch_106">
    <path d="M 294.48 424.285714 
L 365.4 424.285714 
L 365.4 355.371429 
L 294.48 355.371429 
z
" clip-path="url(#p60e4ae8b7c)" style="fill: #886144; stroke: #886144; stroke-linejoin: miter"/>
   </g>
   <g id="patch_107">
    <path d="M 365.4 424.285714 
L 436.32 424.285714 
L 436.32 355.371429 
L 365.4 355.371429 
z
" clip-path="url(#p60e4ae8b7c)" style="fill: #886144; stroke: #886144; stroke-linejoin: miter"/>
   </g>
   <g id="patch_108">
    <path d="M 436.32 424.285714 
L 507.24 424.285714 
L 507.24 355.371429 
L 436.32 355.371429 
z
" clip-path="url(#p60e4ae8b7c)" style="fill: #38312c; stroke: #38312c; stroke-linejoin: miter"/>
   </g>
   <g id="patch_109">
    <path d="M 507.24 424.285714 
L 578.16 424.285714 
L 578.16 355.371429 
L 507.24 355.371429 
z
" clip-path="url(#p60e4ae8b7c)" style="fill: #c2bfb3; stroke: #c2bfb3; stroke-linejoin: miter"/>
   </g>
   <g id="patch_110">
    <path d="M 578.16 424.285714 
L 649.08 424.285714 
L 649.08 355.371429 
L 578.16 355.371429 
z
" clip-path="url(#p60e4ae8b7c)" style="fill: #c3bcb3; stroke: #c3bcb3; stroke-linejoin: miter"/>
   </g>
   <g id="patch_111">
    <path d="M 649.08 424.285714 
L 720 424.285714 
L 720 355.371429 
L 649.08 355.371429 
z
" clip-path="url(#p60e4ae8b7c)" style="fill: #38352d; stroke: #38352d; stroke-linejoin: miter"/>
   </g>
   <g id="patch_112">
    <path d="M 720 424.285714 
L 790.92 424.285714 
L 790.92 355.371429 
L 720 355.371429 
z
" clip-path="url(#p60e4ae8b7c)" style="fill: #9d9283; stroke: #9d9283; stroke-linejoin: miter"/>
   </g>
   <g id="patch_113">
    <path d="M 790.92 424.285714 
L 861.84 424.285714 
L 861.84 355.371429 
L 790.92 355.371429 
z
" clip-path="url(#p60e4ae8b7c)" style="fill: #cccabd; stroke: #cccabd; stroke-linejoin: miter"/>
   </g>
   <g id="patch_114">
    <path d="M 861.84 424.285714 
L 932.76 424.285714 
L 932.76 355.371429 
L 861.84 355.371429 
z
" clip-path="url(#p60e4ae8b7c)" style="fill: #bfb4a7; stroke: #bfb4a7; stroke-linejoin: miter"/>
   </g>
   <g id="patch_115">
    <path d="M 932.76 424.285714 
L 1003.68 424.285714 
L 1003.68 355.371429 
L 932.76 355.371429 
z
" clip-path="url(#p60e4ae8b7c)" style="fill: #bcb5aa; stroke: #bcb5aa; stroke-linejoin: miter"/>
   </g>
   <g id="patch_116">
    <path d="M 1003.68 424.285714 
L 1074.6 424.285714 
L 1074.6 355.371429 
L 1003.68 355.371429 
z
" clip-path="url(#p60e4ae8b7c)" style="fill: #26505d; stroke: #26505d; stroke-linejoin: miter"/>
   </g>
   <g id="patch_117">
    <path d="M 1074.6 424.285714 
L 1145.52 424.285714 
L 1145.52 355.371429 
L 1074.6 355.371429 
z
" clip-path="url(#p60e4ae8b7c)" style="fill: #124648; stroke: #124648; stroke-linejoin: miter"/>
   </g>
   <g id="patch_118">
    <path d="M 1145.52 424.285714 
L 1216.44 424.285714 
L 1216.44 355.371429 
L 1145.52 355.371429 
z
" clip-path="url(#p60e4ae8b7c)" style="fill: #ad9c89; stroke: #ad9c89; stroke-linejoin: miter"/>
   </g>
   <g id="patch_119">
    <path d="M 1216.44 424.285714 
L 1287.36 424.285714 
L 1287.36 355.371429 
L 1216.44 355.371429 
z
" clip-path="url(#p60e4ae8b7c)" style="fill: #343436; stroke: #343436; stroke-linejoin: miter"/>
   </g>
   <g id="patch_120">
    <path d="M 1287.36 424.285714 
L 1358.28 424.285714 
L 1358.28 355.371429 
L 1287.36 355.371429 
z
" clip-path="url(#p60e4ae8b7c)" style="fill: #cbcaca; stroke: #cbcaca; stroke-linejoin: miter"/>
   </g>
   <g id="patch_121">
    <path d="M 1358.28 424.285714 
L 1429.2 424.285714 
L 1429.2 355.371429 
L 1358.28 355.371429 
z
" clip-path="url(#p60e4ae8b7c)" style="fill: #8f7d61; stroke: #8f7d61; stroke-linejoin: miter"/>
   </g>
   <g id="patch_122">
    <path d="M 10.8 493.2 
L 81.72 493.2 
L 81.72 424.285714 
L 10.8 424.285714 
z
" clip-path="url(#p60e4ae8b7c)" style="fill: #ab9680; stroke: #ab9680; stroke-linejoin: miter"/>
   </g>
   <g id="patch_123">
    <path d="M 81.72 493.2 
L 152.64 493.2 
L 152.64 424.285714 
L 81.72 424.285714 
z
" clip-path="url(#p60e4ae8b7c)" style="fill: #917e68; stroke: #917e68; stroke-linejoin: miter"/>
   </g>
   <g id="patch_124">
    <path d="M 152.64 493.2 
L 223.56 493.2 
L 223.56 424.285714 
L 152.64 424.285714 
z
" clip-path="url(#p60e4ae8b7c)" style="fill: #9b8561; stroke: #9b8561; stroke-linejoin: miter"/>
   </g>
   <g id="patch_125">
    <path d="M 223.56 493.2 
L 294.48 493.2 
L 294.48 424.285714 
L 223.56 424.285714 
z
" clip-path="url(#p60e4ae8b7c)" style="fill: #917e68; stroke: #917e68; stroke-linejoin: miter"/>
   </g>
   <g id="patch_126">
    <path d="M 294.48 493.2 
L 365.4 493.2 
L 365.4 424.285714 
L 294.48 424.285714 
z
" clip-path="url(#p60e4ae8b7c)" style="fill: #363836; stroke: #363836; stroke-linejoin: miter"/>
   </g>
   <g id="patch_127">
    <path d="M 365.4 493.2 
L 436.32 493.2 
L 436.32 424.285714 
L 365.4 424.285714 
z
" clip-path="url(#p60e4ae8b7c)" style="fill: #725a51; stroke: #725a51; stroke-linejoin: miter"/>
   </g>
   <g id="patch_128">
    <path d="M 436.32 493.2 
L 507.24 493.2 
L 507.24 424.285714 
L 436.32 424.285714 
z
" clip-path="url(#p60e4ae8b7c)" style="fill: #7f6848; stroke: #7f6848; stroke-linejoin: miter"/>
   </g>
   <g id="patch_129">
    <path d="M 507.24 493.2 
L 578.16 493.2 
L 578.16 424.285714 
L 507.24 424.285714 
z
" clip-path="url(#p60e4ae8b7c)" style="fill: #c0ae9f; stroke: #c0ae9f; stroke-linejoin: miter"/>
   </g>
   <g id="patch_130">
    <path d="M 578.16 493.2 
L 649.08 493.2 
L 649.08 424.285714 
L 578.16 424.285714 
z
" clip-path="url(#p60e4ae8b7c)" style="fill: #b58955; stroke: #b58955; stroke-linejoin: miter"/>
   </g>
   <g id="patch_131">
    <path d="M 649.08 493.2 
L 720 493.2 
L 720 424.285714 
L 649.08 424.285714 
z
" clip-path="url(#p60e4ae8b7c)" style="fill: #4c4a37; stroke: #4c4a37; stroke-linejoin: miter"/>
   </g>
   <g id="patch_132">
    <path d="M 720 493.2 
L 790.92 493.2 
L 790.92 424.285714 
L 720 424.285714 
z
" clip-path="url(#p60e4ae8b7c)" style="fill: #c6bbad; stroke: #c6bbad; stroke-linejoin: miter"/>
   </g>
   <g id="patch_133">
    <path d="M 790.92 493.2 
L 861.84 493.2 
L 861.84 424.285714 
L 790.92 424.285714 
z
" clip-path="url(#p60e4ae8b7c)" style="fill: #c9b9b5; stroke: #c9b9b5; stroke-linejoin: miter"/>
   </g>
   <g id="patch_134">
    <path d="M 861.84 493.2 
L 932.76 493.2 
L 932.76 424.285714 
L 861.84 424.285714 
z
" clip-path="url(#p60e4ae8b7c)" style="fill: #c1b5a4; stroke: #c1b5a4; stroke-linejoin: miter"/>
   </g>
   <g id="patch_135">
    <path d="M 932.76 493.2 
L 1003.68 493.2 
L 1003.68 424.285714 
L 932.76 424.285714 
z
" clip-path="url(#p60e4ae8b7c)" style="fill: #44423c; stroke: #44423c; stroke-linejoin: miter"/>
   </g>
   <g id="patch_136">
    <path d="M 1003.68 493.2 
L 1074.6 493.2 
L 1074.6 424.285714 
L 1003.68 424.285714 
z
" clip-path="url(#p60e4ae8b7c)" style="fill: #221c18; stroke: #221c18; stroke-linejoin: miter"/>
   </g>
  </g>
 </g>
 <defs>
  <clipPath id="p60e4ae8b7c">
   <rect x="10.8" y="10.8" width="1418.4" height="482.4"/>
  </clipPath>
 </defs>
</svg>
