<?xml version="1.0" encoding="utf-8" standalone="no"?>
<!DOCTYPE svg PUBLIC "-//W3C//DTD SVG 1.1//EN"
  "http://www.w3.org/Graphics/SVG/1.1/DTD/svg11.dtd">
<svg xmlns:xlink="http://www.w3.org/1999/xlink" width="1440pt" height="216pt" viewBox="0 0 1440 216" xmlns="http://www.w3.org/2000/svg" version="1.1">
 <metadata>
  <rdf:RDF xmlns:dc="http://purl.org/dc/elements/1.1/" xmlns:cc="http://creativecommons.org/ns#" xmlns:rdf="http://www.w3.org/1999/02/22-rdf-syntax-ns#">
   <cc:Work>
    <dc:type rdf:resource="http://purl.org/dc/dcmitype/StillImage"/>
    <dc:date>2025-05-04T17:21:06.063338</dc:date>
    <dc:format>image/svg+xml</dc:format>
    <dc:creator>
     <cc:Agent>
      <dc:title>Matplotlib v3.9.2, https://matplotlib.org/</dc:title>
     </cc:Agent>
    </dc:creator>
   </cc:Work>
  </rdf:RDF>
 </metadata>
 <defs>
  <style type="text/css">*{stroke-linejoin: round; stroke-linecap: butt}</style>
 </defs>
 <g id="figure_1">
  <g id="patch_1">
   <path d="M 0 216 
L 1440 216 
L 1440 0 
L 0 0 
z
" style="fill: #ffffff"/>
  </g>
  <g id="axes_1">
   <g id="patch_2">
    <path d="M 10.8 75.6 
L 81.72 75.6 
L 81.72 10.8 
L 10.8 10.8 
z
" clip-path="url(#p1179f665a9)" style="fill: #3b3632; stroke: #3b3632; stroke-linejoin: miter"/>
   </g>
   <g id="patch_3">
    <path d="M 81.72 75.6 
L 152.64 75.6 
L 152.64 10.8 
L 81.72 10.8 
z
" clip-path="url(#p1179f665a9)" style="fill: #29221e; stroke: #29221e; stroke-linejoin: miter"/>
   </g>
   <g id="patch_4">
    <path d="M 152.64 75.6 
L 223.56 75.6 
L 223.56 10.8 
L 152.64 10.8 
z
" clip-path="url(#p1179f665a9)" style="fill: #413c33; stroke: #413c33; stroke-linejoin: miter"/>
   </g>
   <g id="patch_5">
    <path d="M 223.56 75.6 
L 294.48 75.6 
L 294.48 10.8 
L 223.56 10.8 
z
" clip-path="url(#p1179f665a9)" style="fill: #8d7a5d; stroke: #8d7a5d; stroke-linejoin: miter"/>
   </g>
   <g id="patch_6">
    <path d="M 294.48 75.6 
L 365.4 75.6 
L 365.4 10.8 
L 294.48 10.8 
z
" clip-path="url(#p1179f665a9)" style="fill: #483933; stroke: #483933; stroke-linejoin: miter"/>
   </g>
   <g id="patch_7">
    <path d="M 365.4 75.6 
L 436.32 75.6 
L 436.32 10.8 
L 365.4 10.8 
z
" clip-path="url(#p1179f665a9)" style="fill: #b59167; stroke: #b59167; stroke-linejoin: miter"/>
   </g>
   <g id="patch_8">
    <path d="M 436.32 75.6 
L 507.24 75.6 
L 507.24 10.8 
L 436.32 10.8 
z
" clip-path="url(#p1179f665a9)" style="fill: #c3aa8e; stroke: #c3aa8e; stroke-linejoin: miter"/>
   </g>
   <g id="patch_9">
    <path d="M 507.24 75.6 
L 578.16 75.6 
L 578.16 10.8 
L 507.24 10.8 
z
" clip-path="url(#p1179f665a9)" style="fill: #a89a97; stroke: #a89a97; stroke-linejoin: miter"/>
   </g>
   <g id="patch_10">
    <path d="M 578.16 75.6 
L 649.08 75.6 
L 649.08 10.8 
L 578.16 10.8 
z
" clip-path="url(#p1179f665a9)" style="fill: #d5c4b7; stroke: #d5c4b7; stroke-linejoin: miter"/>
   </g>
   <g id="patch_11">
    <path d="M 649.08 75.6 
L 720 75.6 
L 720 10.8 
L 649.08 10.8 
z
" clip-path="url(#p1179f665a9)" style="fill: #ddbfac; stroke: #ddbfac; stroke-linejoin: miter"/>
   </g>
   <g id="patch_12">
    <path d="M 720 75.6 
L 790.92 75.6 
L 790.92 10.8 
L 720 10.8 
z
" clip-path="url(#p1179f665a9)" style="fill: #bcad9b; stroke: #bcad9b; stroke-linejoin: miter"/>
   </g>
   <g id="patch_13">
    <path d="M 790.92 75.6 
L 861.84 75.6 
L 861.84 10.8 
L 790.92 10.8 
z
" clip-path="url(#p1179f665a9)" style="fill: #423d35; stroke: #423d35; stroke-linejoin: miter"/>
   </g>
   <g id="patch_14">
    <path d="M 861.84 75.6 
L 932.76 75.6 
L 932.76 10.8 
L 861.84 10.8 
z
" clip-path="url(#p1179f665a9)" style="fill: #bcb1a8; stroke: #bcb1a8; stroke-linejoin: miter"/>
   </g>
   <g id="patch_15">
    <path d="M 932.76 75.6 
L 1003.68 75.6 
L 1003.68 10.8 
L 932.76 10.8 
z
" clip-path="url(#p1179f665a9)" style="fill: #cec9bd; stroke: #cec9bd; stroke-linejoin: miter"/>
   </g>
   <g id="patch_16">
    <path d="M 1003.68 75.6 
L 1074.6 75.6 
L 1074.6 10.8 
L 1003.68 10.8 
z
" clip-path="url(#p1179f665a9)" style="fill: #d8c5b7; stroke: #d8c5b7; stroke-linejoin: miter"/>
   </g>
   <g id="patch_17">
    <path d="M 1074.6 75.6 
L 1145.52 75.6 
L 1145.52 10.8 
L 1074.6 10.8 
z
" clip-path="url(#p1179f665a9)" style="fill: #453c34; stroke: #453c34; stroke-linejoin: miter"/>
   </g>
   <g id="patch_18">
    <path d="M 1145.52 75.6 
L 1216.44 75.6 
L 1216.44 10.8 
L 1145.52 10.8 
z
" clip-path="url(#p1179f665a9)" style="fill: #3e3c32; stroke: #3e3c32; stroke-linejoin: miter"/>
   </g>
   <g id="patch_19">
    <path d="M 1216.44 75.6 
L 1287.36 75.6 
L 1287.36 10.8 
L 1216.44 10.8 
z
" clip-path="url(#p1179f665a9)" style="fill: #303232; stroke: #303232; stroke-linejoin: miter"/>
   </g>
   <g id="patch_20">
    <path d="M 1287.36 75.6 
L 1358.28 75.6 
L 1358.28 10.8 
L 1287.36 10.8 
z
" clip-path="url(#p1179f665a9)" style="fill: #303232; stroke: #303232; stroke-linejoin: miter"/>
   </g>
   <g id="patch_21">
    <path d="M 1358.28 75.6 
L 1429.2 75.6 
L 1429.2 10.8 
L 1358.28 10.8 
z
" clip-path="url(#p1179f665a9)" style="fill: #a2a187; stroke: #a2a187; stroke-linejoin: miter"/>
   </g>
   <g id="patch_22">
    <path d="M 10.8 140.4 
L 81.72 140.4 
L 81.72 75.6 
L 10.8 75.6 
z
" clip-path="url(#p1179f665a9)" style="fill: #4a413e; stroke: #4a413e; stroke-linejoin: miter"/>
   </g>
   <g id="patch_23">
    <path d="M 81.72 140.4 
L 152.64 140.4 
L 152.64 75.6 
L 81.72 75.6 
z
" clip-path="url(#p1179f665a9)" style="fill: #353923; stroke: #353923; stroke-linejoin: miter"/>
   </g>
   <g id="patch_24">
    <path d="M 152.64 140.4 
L 223.56 140.4 
L 223.56 75.6 
L 152.64 75.6 
z
" clip-path="url(#p1179f665a9)" style="fill: #d6d6d6; stroke: #d6d6d6; stroke-linejoin: miter"/>
   </g>
   <g id="patch_25">
    <path d="M 223.56 140.4 
L 294.48 140.4 
L 294.48 75.6 
L 223.56 75.6 
z
" clip-path="url(#p1179f665a9)" style="fill: #363733; stroke: #363733; stroke-linejoin: miter"/>
   </g>
   <g id="patch_26">
    <path d="M 294.48 140.4 
L 365.4 140.4 
L 365.4 75.6 
L 294.48 75.6 
z
" clip-path="url(#p1179f665a9)" style="fill: #cb8673; stroke: #cb8673; stroke-linejoin: miter"/>
   </g>
   <g id="patch_27">
    <path d="M 365.4 140.4 
L 436.32 140.4 
L 436.32 75.6 
L 365.4 75.6 
z
" clip-path="url(#p1179f665a9)" style="fill: #c597a3; stroke: #c597a3; stroke-linejoin: miter"/>
   </g>
   <g id="patch_28">
    <path d="M 436.32 140.4 
L 507.24 140.4 
L 507.24 75.6 
L 436.32 75.6 
z
" clip-path="url(#p1179f665a9)" style="fill: #c0a49a; stroke: #c0a49a; stroke-linejoin: miter"/>
   </g>
   <g id="patch_29">
    <path d="M 507.24 140.4 
L 578.16 140.4 
L 578.16 75.6 
L 507.24 75.6 
z
" clip-path="url(#p1179f665a9)" style="fill: #8b846b; stroke: #8b846b; stroke-linejoin: miter"/>
   </g>
   <g id="patch_30">
    <path d="M 578.16 140.4 
L 649.08 140.4 
L 649.08 75.6 
L 578.16 75.6 
z
" clip-path="url(#p1179f665a9)" style="fill: #44332c; stroke: #44332c; stroke-linejoin: miter"/>
   </g>
   <g id="patch_31">
    <path d="M 649.08 140.4 
L 720 140.4 
L 720 75.6 
L 649.08 75.6 
z
" clip-path="url(#p1179f665a9)" style="fill: #44332c; stroke: #44332c; stroke-linejoin: miter"/>
   </g>
   <g id="patch_32">
    <path d="M 720 140.4 
L 790.92 140.4 
L 790.92 75.6 
L 720 75.6 
z
" clip-path="url(#p1179f665a9)" style="fill: #d5d2d2; stroke: #d5d2d2; stroke-linejoin: miter"/>
   </g>
   <g id="patch_33">
    <path d="M 790.92 140.4 
L 861.84 140.4 
L 861.84 75.6 
L 790.92 75.6 
z
" clip-path="url(#p1179f665a9)" style="fill: #44332c; stroke: #44332c; stroke-linejoin: miter"/>
   </g>
   <g id="patch_34">
    <path d="M 861.84 140.4 
L 932.76 140.4 
L 932.76 75.6 
L 861.84 75.6 
z
" clip-path="url(#p1179f665a9)" style="fill: #2f2620; stroke: #2f2620; stroke-linejoin: miter"/>
   </g>
   <g id="patch_35">
    <path d="M 932.76 140.4 
L 1003.68 140.4 
L 1003.68 75.6 
L 932.76 75.6 
z
" clip-path="url(#p1179f665a9)" style="fill: #2f2620; stroke: #2f2620; stroke-linejoin: miter"/>
   </g>
   <g id="patch_36">
    <path d="M 1003.68 140.4 
L 1074.6 140.4 
L 1074.6 75.6 
L 1003.68 75.6 
z
" clip-path="url(#p1179f665a9)" style="fill: #2f2620; stroke: #2f2620; stroke-linejoin: miter"/>
   </g>
   <g id="patch_37">
    <path d="M 1074.6 140.4 
L 1145.52 140.4 
L 1145.52 75.6 
L 1074.6 75.6 
z
" clip-path="url(#p1179f665a9)" style="fill: #3e3229; stroke: #3e3229; stroke-linejoin: miter"/>
   </g>
   <g id="patch_38">
    <path d="M 1145.52 140.4 
L 1216.44 140.4 
L 1216.44 75.6 
L 1145.52 75.6 
z
" clip-path="url(#p1179f665a9)" style="fill: #b1a290; stroke: #b1a290; stroke-linejoin: miter"/>
   </g>
   <g id="patch_39">
    <path d="M 1216.44 140.4 
L 1287.36 140.4 
L 1287.36 75.6 
L 1216.44 75.6 
z
" clip-path="url(#p1179f665a9)" style="fill: #291d27; stroke: #291d27; stroke-linejoin: miter"/>
   </g>
   <g id="patch_40">
    <path d="M 1287.36 140.4 
L 1358.28 140.4 
L 1358.28 75.6 
L 1287.36 75.6 
z
" clip-path="url(#p1179f665a9)" style="fill: #393735; stroke: #393735; stroke-linejoin: miter"/>
   </g>
   <g id="patch_41">
    <path d="M 1358.28 140.4 
L 1429.2 140.4 
L 1429.2 75.6 
L 1358.28 75.6 
z
" clip-path="url(#p1179f665a9)" style="fill: #d0c2c1; stroke: #d0c2c1; stroke-linejoin: miter"/>
   </g>
   <g id="patch_42">
    <path d="M 10.8 205.2 
L 81.72 205.2 
L 81.72 140.4 
L 10.8 140.4 
z
" clip-path="url(#p1179f665a9)" style="fill: #d0c2c1; stroke: #d0c2c1; stroke-linejoin: miter"/>
   </g>
   <g id="patch_43">
    <path d="M 81.72 205.2 
L 152.64 205.2 
L 152.64 140.4 
L 81.72 140.4 
z
" clip-path="url(#p1179f665a9)" style="fill: #2f2925; stroke: #2f2925; stroke-linejoin: miter"/>
   </g>
   <g id="patch_44">
    <path d="M 152.64 205.2 
L 223.56 205.2 
L 223.56 140.4 
L 152.64 140.4 
z
" clip-path="url(#p1179f665a9)" style="fill: #293b34; stroke: #293b34; stroke-linejoin: miter"/>
   </g>
   <g id="patch_45">
    <path d="M 223.56 205.2 
L 294.48 205.2 
L 294.48 140.4 
L 223.56 140.4 
z
" clip-path="url(#p1179f665a9)" style="fill: #e5cd9f; stroke: #e5cd9f; stroke-linejoin: miter"/>
   </g>
   <g id="patch_46">
    <path d="M 294.48 205.2 
L 365.4 205.2 
L 365.4 140.4 
L 294.48 140.4 
z
" clip-path="url(#p1179f665a9)" style="fill: #b3936c; stroke: #b3936c; stroke-linejoin: miter"/>
   </g>
   <g id="patch_47">
    <path d="M 365.4 205.2 
L 436.32 205.2 
L 436.32 140.4 
L 365.4 140.4 
z
" clip-path="url(#p1179f665a9)" style="fill: #342926; stroke: #342926; stroke-linejoin: miter"/>
   </g>
   <g id="patch_48">
    <path d="M 436.32 205.2 
L 507.24 205.2 
L 507.24 140.4 
L 436.32 140.4 
z
" clip-path="url(#p1179f665a9)" style="fill: #b29469; stroke: #b29469; stroke-linejoin: miter"/>
   </g>
   <g id="patch_49">
    <path d="M 507.24 205.2 
L 578.16 205.2 
L 578.16 140.4 
L 507.24 140.4 
z
" clip-path="url(#p1179f665a9)" style="fill: #26272c; stroke: #26272c; stroke-linejoin: miter"/>
   </g>
  </g>
 </g>
 <defs>
  <clipPath id="p1179f665a9">
   <rect x="10.8" y="10.8" width="1418.4" height="194.4"/>
  </clipPath>
 </defs>
</svg>
