<?xml version="1.0" encoding="UTF-8"?>
<svg xmlns="http://www.w3.org/2000/svg" xmlns:xlink="http://www.w3.org/1999/xlink" version="1.1" viewBox="0 0 1440 360">
  <defs>
    <style>
      .cls-1 {
        fill: none;
      }

      .cls-2 {
        fill: #ba4836;
        stroke: #ba4836;
      }

      .cls-3 {
        fill: #473c35;
        stroke: #473c35;
      }

      .cls-4 {
        fill: #090909;
        stroke: #090909;
      }

      .cls-5 {
        fill: #d5c2bc;
        stroke: #d5c2bc;
      }

      .cls-6 {
        fill: #3e3f35;
        stroke: #3e3f35;
      }

      .cls-7 {
        fill: #94938f;
        stroke: #94938f;
      }

      .cls-8 {
        fill: #303031;
        stroke: #303031;
      }

      .cls-9 {
        fill: #968977;
        stroke: #968977;
      }

      .cls-10 {
        fill: #dcc9b7;
        stroke: #dcc9b7;
      }

      .cls-11 {
        fill: #403b36;
        stroke: #403b36;
      }

      .cls-12 {
        fill: #c3b5aa;
        stroke: #c3b5aa;
      }

      .cls-13 {
        fill: #352d2b;
        stroke: #352d2b;
      }

      .cls-14 {
        fill: #c5c7c1;
        stroke: #c5c7c1;
      }

      .cls-15 {
        fill: #c7bcaa;
        stroke: #c7bcaa;
      }

      .cls-16 {
        fill: #b5a386;
        stroke: #b5a386;
      }

      .cls-17 {
        fill: #c2b6b1;
        stroke: #c2b6b1;
      }

      .cls-18 {
        fill: #d0c4b5;
        stroke: #d0c4b5;
      }

      .cls-19 {
        fill: #c9c6bb;
        stroke: #c9c6bb;
      }

      .cls-20 {
        fill: #e6e0d7;
        stroke: #e6e0d7;
      }

      .cls-21 {
        fill: #ccbcad;
        stroke: #ccbcad;
      }

      .cls-22 {
        fill: #746955;
        stroke: #746955;
      }

      .cls-23 {
        fill: #383028;
        stroke: #383028;
      }

      .cls-24 {
        fill: #d8cec6;
        stroke: #d8cec6;
      }

      .cls-25 {
        fill: #3d362d;
        stroke: #3d362d;
      }

      .cls-26 {
        fill: #d4ccbe;
        stroke: #d4ccbe;
      }

      .cls-27 {
        fill: #252020;
        stroke: #252020;
      }

      .cls-28 {
        fill: #4d5045;
        stroke: #4d5045;
      }

      .cls-29 {
        fill: #d1c7bb;
        stroke: #d1c7bb;
      }

      .cls-30 {
        clip-path: url(#clippath-17);
      }

      .cls-31 {
        clip-path: url(#clippath-19);
      }

      .cls-32 {
        clip-path: url(#clippath-11);
      }

      .cls-33 {
        clip-path: url(#clippath-16);
      }

      .cls-34 {
        clip-path: url(#clippath-18);
      }

      .cls-35 {
        clip-path: url(#clippath-10);
      }

      .cls-36 {
        clip-path: url(#clippath-15);
      }

      .cls-37 {
        clip-path: url(#clippath-13);
      }

      .cls-38 {
        clip-path: url(#clippath-14);
      }

      .cls-39 {
        clip-path: url(#clippath-12);
      }

      .cls-40 {
        clip-path: url(#clippath-61);
      }

      .cls-41 {
        clip-path: url(#clippath-67);
      }

      .cls-42 {
        clip-path: url(#clippath-68);
      }

      .cls-43 {
        clip-path: url(#clippath-60);
      }

      .cls-44 {
        clip-path: url(#clippath-65);
      }

      .cls-45 {
        clip-path: url(#clippath-62);
      }

      .cls-46 {
        clip-path: url(#clippath-64);
      }

      .cls-47 {
        clip-path: url(#clippath-66);
      }

      .cls-48 {
        clip-path: url(#clippath-63);
      }

      .cls-49 {
        clip-path: url(#clippath-76);
      }

      .cls-50 {
        clip-path: url(#clippath-78);
      }

      .cls-51 {
        clip-path: url(#clippath-75);
      }

      .cls-52 {
        clip-path: url(#clippath-79);
      }

      .cls-53 {
        clip-path: url(#clippath-50);
      }

      .cls-54 {
        clip-path: url(#clippath-55);
      }

      .cls-55 {
        clip-path: url(#clippath-52);
      }

      .cls-56 {
        clip-path: url(#clippath-57);
      }

      .cls-57 {
        clip-path: url(#clippath-54);
      }

      .cls-58 {
        clip-path: url(#clippath-56);
      }

      .cls-59 {
        clip-path: url(#clippath-53);
      }

      .cls-60 {
        clip-path: url(#clippath-70);
      }

      .cls-61 {
        clip-path: url(#clippath-77);
      }

      .cls-62 {
        clip-path: url(#clippath-74);
      }

      .cls-63 {
        clip-path: url(#clippath-71);
      }

      .cls-64 {
        clip-path: url(#clippath-73);
      }

      .cls-65 {
        clip-path: url(#clippath-72);
      }

      .cls-66 {
        clip-path: url(#clippath-51);
      }

      .cls-67 {
        clip-path: url(#clippath-58);
      }

      .cls-68 {
        clip-path: url(#clippath-59);
      }

      .cls-69 {
        clip-path: url(#clippath-31);
      }

      .cls-70 {
        clip-path: url(#clippath-32);
      }

      .cls-71 {
        clip-path: url(#clippath-33);
      }

      .cls-72 {
        clip-path: url(#clippath-34);
      }

      .cls-73 {
        clip-path: url(#clippath-35);
      }

      .cls-74 {
        clip-path: url(#clippath-39);
      }

      .cls-75 {
        clip-path: url(#clippath-30);
      }

      .cls-76 {
        clip-path: url(#clippath-36);
      }

      .cls-77 {
        clip-path: url(#clippath-37);
      }

      .cls-78 {
        clip-path: url(#clippath-38);
      }

      .cls-79 {
        clip-path: url(#clippath-27);
      }

      .cls-80 {
        clip-path: url(#clippath-29);
      }

      .cls-81 {
        clip-path: url(#clippath-26);
      }

      .cls-82 {
        clip-path: url(#clippath-28);
      }

      .cls-83 {
        clip-path: url(#clippath-20);
      }

      .cls-84 {
        clip-path: url(#clippath-21);
      }

      .cls-85 {
        clip-path: url(#clippath-22);
      }

      .cls-86 {
        clip-path: url(#clippath-23);
      }

      .cls-87 {
        clip-path: url(#clippath-24);
      }

      .cls-88 {
        clip-path: url(#clippath-25);
      }

      .cls-89 {
        clip-path: url(#clippath-69);
      }

      .cls-90 {
        clip-path: url(#clippath-41);
      }

      .cls-91 {
        clip-path: url(#clippath-42);
      }

      .cls-92 {
        clip-path: url(#clippath-43);
      }

      .cls-93 {
        clip-path: url(#clippath-44);
      }

      .cls-94 {
        clip-path: url(#clippath-45);
      }

      .cls-95 {
        clip-path: url(#clippath-49);
      }

      .cls-96 {
        clip-path: url(#clippath-40);
      }

      .cls-97 {
        clip-path: url(#clippath-46);
      }

      .cls-98 {
        clip-path: url(#clippath-47);
      }

      .cls-99 {
        clip-path: url(#clippath-48);
      }

      .cls-100 {
        clip-path: url(#clippath-85);
      }

      .cls-101 {
        clip-path: url(#clippath-86);
      }

      .cls-102 {
        clip-path: url(#clippath-87);
      }

      .cls-103 {
        clip-path: url(#clippath-80);
      }

      .cls-104 {
        clip-path: url(#clippath-81);
      }

      .cls-105 {
        clip-path: url(#clippath-82);
      }

      .cls-106 {
        clip-path: url(#clippath-83);
      }

      .cls-107 {
        clip-path: url(#clippath-84);
      }

      .cls-108 {
        clip-path: url(#clippath-88);
      }

      .cls-109 {
        fill: #86674d;
        stroke: #86674d;
      }

      .cls-110 {
        clip-path: url(#clippath-1);
      }

      .cls-111 {
        clip-path: url(#clippath-3);
      }

      .cls-112 {
        clip-path: url(#clippath-4);
      }

      .cls-113 {
        clip-path: url(#clippath-2);
      }

      .cls-114 {
        clip-path: url(#clippath-7);
      }

      .cls-115 {
        clip-path: url(#clippath-6);
      }

      .cls-116 {
        clip-path: url(#clippath-9);
      }

      .cls-117 {
        clip-path: url(#clippath-8);
      }

      .cls-118 {
        clip-path: url(#clippath-5);
      }

      .cls-119 {
        fill: #7e5a4c;
        stroke: #7e5a4c;
      }

      .cls-120 {
        fill: #8a745f;
        stroke: #8a745f;
      }

      .cls-121 {
        fill: #d4cbbe;
        stroke: #d4cbbe;
      }

      .cls-122 {
        fill: #3a3438;
        stroke: #3a3438;
      }

      .cls-123 {
        fill: #443d37;
        stroke: #443d37;
      }

      .cls-124 {
        fill: #1f3642;
        stroke: #1f3642;
      }

      .cls-125 {
        fill: #fff;
      }

      .cls-126 {
        fill: #afa193;
        stroke: #afa193;
      }

      .cls-127 {
        fill: #c9c4b9;
        stroke: #c9c4b9;
      }

      .cls-128 {
        fill: #b49e7f;
        stroke: #b49e7f;
      }

      .cls-129 {
        fill: #c0b5a5;
        stroke: #c0b5a5;
      }

      .cls-130 {
        fill: #ccc7c0;
        stroke: #ccc7c0;
      }

      .cls-131 {
        fill: #bdb7ad;
        stroke: #bdb7ad;
      }

      .cls-132 {
        fill: #cbb79e;
        stroke: #cbb79e;
      }

      .cls-133 {
        fill: #3b3435;
        stroke: #3b3435;
      }

      .cls-134 {
        fill: #44352c;
        stroke: #44352c;
      }

      .cls-135 {
        fill: #9c836b;
        stroke: #9c836b;
      }

      .cls-136 {
        fill: #b59f74;
        stroke: #b59f74;
      }

      .cls-137 {
        fill: #373936;
        stroke: #373936;
      }

      .cls-138 {
        fill: #c2bcb7;
        stroke: #c2bcb7;
      }

      .cls-139 {
        fill: #a39881;
        stroke: #a39881;
      }

      .cls-140 {
        fill: #e9dfca;
        stroke: #e9dfca;
      }

      .cls-141 {
        fill: #bebab2;
        stroke: #bebab2;
      }

      .cls-142 {
        fill: #d1d2cf;
        stroke: #d1d2cf;
      }

      .cls-143 {
        fill: #271e1b;
        stroke: #271e1b;
      }

      .cls-144 {
        fill: #2d2520;
        stroke: #2d2520;
      }

      .cls-145 {
        clip-path: url(#clippath);
      }

      .cls-146 {
        fill: #c7c2b7;
        stroke: #c7c2b7;
      }

      .cls-147 {
        fill: #2d2b23;
        stroke: #2d2b23;
      }

      .cls-148 {
        fill: #303e2f;
        stroke: #303e2f;
      }

      .cls-149 {
        fill: #896f57;
        stroke: #896f57;
      }

      .cls-150 {
        fill: #28241c;
        stroke: #28241c;
      }

      .cls-151 {
        fill: #aa9f91;
        stroke: #aa9f91;
      }

      .cls-152 {
        fill: #a3967f;
        stroke: #a3967f;
      }
    </style>
    <clipPath id="clippath">
      <rect class="cls-1" x="10.8" y="10.8" width="1418.4" height="338.4"/>
    </clipPath>
    <clipPath id="clippath-1">
      <rect class="cls-1" x="10.8" y="10.8" width="1418.4" height="338.4"/>
    </clipPath>
    <clipPath id="clippath-2">
      <rect class="cls-1" x="10.8" y="10.8" width="1418.4" height="338.4"/>
    </clipPath>
    <clipPath id="clippath-3">
      <rect class="cls-1" x="10.8" y="10.8" width="1418.4" height="338.4"/>
    </clipPath>
    <clipPath id="clippath-4">
      <rect class="cls-1" x="10.8" y="10.8" width="1418.4" height="338.4"/>
    </clipPath>
    <clipPath id="clippath-5">
      <rect class="cls-1" x="10.8" y="10.8" width="1418.4" height="338.4"/>
    </clipPath>
    <clipPath id="clippath-6">
      <rect class="cls-1" x="10.8" y="10.8" width="1418.4" height="338.4"/>
    </clipPath>
    <clipPath id="clippath-7">
      <rect class="cls-1" x="10.8" y="10.8" width="1418.4" height="338.4"/>
    </clipPath>
    <clipPath id="clippath-8">
      <rect class="cls-1" x="10.8" y="10.8" width="1418.4" height="338.4"/>
    </clipPath>
    <clipPath id="clippath-9">
      <rect class="cls-1" x="10.8" y="10.8" width="1418.4" height="338.4"/>
    </clipPath>
    <clipPath id="clippath-10">
      <rect class="cls-1" x="10.8" y="10.8" width="1418.4" height="338.4"/>
    </clipPath>
    <clipPath id="clippath-11">
      <rect class="cls-1" x="10.8" y="10.8" width="1418.4" height="338.4"/>
    </clipPath>
    <clipPath id="clippath-12">
      <rect class="cls-1" x="10.8" y="10.8" width="1418.4" height="338.4"/>
    </clipPath>
    <clipPath id="clippath-13">
      <rect class="cls-1" x="10.8" y="10.8" width="1418.4" height="338.4"/>
    </clipPath>
    <clipPath id="clippath-14">
      <rect class="cls-1" x="10.8" y="10.8" width="1418.4" height="338.4"/>
    </clipPath>
    <clipPath id="clippath-15">
      <rect class="cls-1" x="10.8" y="10.8" width="1418.4" height="338.4"/>
    </clipPath>
    <clipPath id="clippath-16">
      <rect class="cls-1" x="10.8" y="10.8" width="1418.4" height="338.4"/>
    </clipPath>
    <clipPath id="clippath-17">
      <rect class="cls-1" x="10.8" y="10.8" width="1418.4" height="338.4"/>
    </clipPath>
    <clipPath id="clippath-18">
      <rect class="cls-1" x="10.8" y="10.8" width="1418.4" height="338.4"/>
    </clipPath>
    <clipPath id="clippath-19">
      <rect class="cls-1" x="10.8" y="10.8" width="1418.4" height="338.4"/>
    </clipPath>
    <clipPath id="clippath-20">
      <rect class="cls-1" x="10.8" y="10.8" width="1418.4" height="338.4"/>
    </clipPath>
    <clipPath id="clippath-21">
      <rect class="cls-1" x="10.8" y="10.8" width="1418.4" height="338.4"/>
    </clipPath>
    <clipPath id="clippath-22">
      <rect class="cls-1" x="10.8" y="10.8" width="1418.4" height="338.4"/>
    </clipPath>
    <clipPath id="clippath-23">
      <rect class="cls-1" x="10.8" y="10.8" width="1418.4" height="338.4"/>
    </clipPath>
    <clipPath id="clippath-24">
      <rect class="cls-1" x="10.8" y="10.8" width="1418.4" height="338.4"/>
    </clipPath>
    <clipPath id="clippath-25">
      <rect class="cls-1" x="10.8" y="10.8" width="1418.4" height="338.4"/>
    </clipPath>
    <clipPath id="clippath-26">
      <rect class="cls-1" x="10.8" y="10.8" width="1418.4" height="338.4"/>
    </clipPath>
    <clipPath id="clippath-27">
      <rect class="cls-1" x="10.8" y="10.8" width="1418.4" height="338.4"/>
    </clipPath>
    <clipPath id="clippath-28">
      <rect class="cls-1" x="10.8" y="10.8" width="1418.4" height="338.4"/>
    </clipPath>
    <clipPath id="clippath-29">
      <rect class="cls-1" x="10.8" y="10.8" width="1418.4" height="338.4"/>
    </clipPath>
    <clipPath id="clippath-30">
      <rect class="cls-1" x="10.8" y="10.8" width="1418.4" height="338.4"/>
    </clipPath>
    <clipPath id="clippath-31">
      <rect class="cls-1" x="10.8" y="10.8" width="1418.4" height="338.4"/>
    </clipPath>
    <clipPath id="clippath-32">
      <rect class="cls-1" x="10.8" y="10.8" width="1418.4" height="338.4"/>
    </clipPath>
    <clipPath id="clippath-33">
      <rect class="cls-1" x="10.8" y="10.8" width="1418.4" height="338.4"/>
    </clipPath>
    <clipPath id="clippath-34">
      <rect class="cls-1" x="10.8" y="10.8" width="1418.4" height="338.4"/>
    </clipPath>
    <clipPath id="clippath-35">
      <rect class="cls-1" x="10.8" y="10.8" width="1418.4" height="338.4"/>
    </clipPath>
    <clipPath id="clippath-36">
      <rect class="cls-1" x="10.8" y="10.8" width="1418.4" height="338.4"/>
    </clipPath>
    <clipPath id="clippath-37">
      <rect class="cls-1" x="10.8" y="10.8" width="1418.4" height="338.4"/>
    </clipPath>
    <clipPath id="clippath-38">
      <rect class="cls-1" x="10.8" y="10.8" width="1418.4" height="338.4"/>
    </clipPath>
    <clipPath id="clippath-39">
      <rect class="cls-1" x="10.8" y="10.8" width="1418.4" height="338.4"/>
    </clipPath>
    <clipPath id="clippath-40">
      <rect class="cls-1" x="10.8" y="10.8" width="1418.4" height="338.4"/>
    </clipPath>
    <clipPath id="clippath-41">
      <rect class="cls-1" x="10.8" y="10.8" width="1418.4" height="338.4"/>
    </clipPath>
    <clipPath id="clippath-42">
      <rect class="cls-1" x="10.8" y="10.8" width="1418.4" height="338.4"/>
    </clipPath>
    <clipPath id="clippath-43">
      <rect class="cls-1" x="10.8" y="10.8" width="1418.4" height="338.4"/>
    </clipPath>
    <clipPath id="clippath-44">
      <rect class="cls-1" x="10.8" y="10.8" width="1418.4" height="338.4"/>
    </clipPath>
    <clipPath id="clippath-45">
      <rect class="cls-1" x="10.8" y="10.8" width="1418.4" height="338.4"/>
    </clipPath>
    <clipPath id="clippath-46">
      <rect class="cls-1" x="10.8" y="10.8" width="1418.4" height="338.4"/>
    </clipPath>
    <clipPath id="clippath-47">
      <rect class="cls-1" x="10.8" y="10.8" width="1418.4" height="338.4"/>
    </clipPath>
    <clipPath id="clippath-48">
      <rect class="cls-1" x="10.8" y="10.8" width="1418.4" height="338.4"/>
    </clipPath>
    <clipPath id="clippath-49">
      <rect class="cls-1" x="10.8" y="10.8" width="1418.4" height="338.4"/>
    </clipPath>
    <clipPath id="clippath-50">
      <rect class="cls-1" x="10.8" y="10.8" width="1418.4" height="338.4"/>
    </clipPath>
    <clipPath id="clippath-51">
      <rect class="cls-1" x="10.8" y="10.8" width="1418.4" height="338.4"/>
    </clipPath>
    <clipPath id="clippath-52">
      <rect class="cls-1" x="10.8" y="10.8" width="1418.4" height="338.4"/>
    </clipPath>
    <clipPath id="clippath-53">
      <rect class="cls-1" x="10.8" y="10.8" width="1418.4" height="338.4"/>
    </clipPath>
    <clipPath id="clippath-54">
      <rect class="cls-1" x="10.8" y="10.8" width="1418.4" height="338.4"/>
    </clipPath>
    <clipPath id="clippath-55">
      <rect class="cls-1" x="10.8" y="10.8" width="1418.4" height="338.4"/>
    </clipPath>
    <clipPath id="clippath-56">
      <rect class="cls-1" x="10.8" y="10.8" width="1418.4" height="338.4"/>
    </clipPath>
    <clipPath id="clippath-57">
      <rect class="cls-1" x="10.8" y="10.8" width="1418.4" height="338.4"/>
    </clipPath>
    <clipPath id="clippath-58">
      <rect class="cls-1" x="10.8" y="10.8" width="1418.4" height="338.4"/>
    </clipPath>
    <clipPath id="clippath-59">
      <rect class="cls-1" x="10.8" y="10.8" width="1418.4" height="338.4"/>
    </clipPath>
    <clipPath id="clippath-60">
      <rect class="cls-1" x="10.8" y="10.8" width="1418.4" height="338.4"/>
    </clipPath>
    <clipPath id="clippath-61">
      <rect class="cls-1" x="10.8" y="10.8" width="1418.4" height="338.4"/>
    </clipPath>
    <clipPath id="clippath-62">
      <rect class="cls-1" x="10.8" y="10.8" width="1418.4" height="338.4"/>
    </clipPath>
    <clipPath id="clippath-63">
      <rect class="cls-1" x="10.8" y="10.8" width="1418.4" height="338.4"/>
    </clipPath>
    <clipPath id="clippath-64">
      <rect class="cls-1" x="10.8" y="10.8" width="1418.4" height="338.4"/>
    </clipPath>
    <clipPath id="clippath-65">
      <rect class="cls-1" x="10.8" y="10.8" width="1418.4" height="338.4"/>
    </clipPath>
    <clipPath id="clippath-66">
      <rect class="cls-1" x="10.8" y="10.8" width="1418.4" height="338.4"/>
    </clipPath>
    <clipPath id="clippath-67">
      <rect class="cls-1" x="10.8" y="10.8" width="1418.4" height="338.4"/>
    </clipPath>
    <clipPath id="clippath-68">
      <rect class="cls-1" x="10.8" y="10.8" width="1418.4" height="338.4"/>
    </clipPath>
    <clipPath id="clippath-69">
      <rect class="cls-1" x="10.8" y="10.8" width="1418.4" height="338.4"/>
    </clipPath>
    <clipPath id="clippath-70">
      <rect class="cls-1" x="10.8" y="10.8" width="1418.4" height="338.4"/>
    </clipPath>
    <clipPath id="clippath-71">
      <rect class="cls-1" x="10.8" y="10.8" width="1418.4" height="338.4"/>
    </clipPath>
    <clipPath id="clippath-72">
      <rect class="cls-1" x="10.8" y="10.8" width="1418.4" height="338.4"/>
    </clipPath>
    <clipPath id="clippath-73">
      <rect class="cls-1" x="10.8" y="10.8" width="1418.4" height="338.4"/>
    </clipPath>
    <clipPath id="clippath-74">
      <rect class="cls-1" x="10.8" y="10.8" width="1418.4" height="338.4"/>
    </clipPath>
    <clipPath id="clippath-75">
      <rect class="cls-1" x="10.8" y="10.8" width="1418.4" height="338.4"/>
    </clipPath>
    <clipPath id="clippath-76">
      <rect class="cls-1" x="10.8" y="10.8" width="1418.4" height="338.4"/>
    </clipPath>
    <clipPath id="clippath-77">
      <rect class="cls-1" x="10.8" y="10.8" width="1418.4" height="338.4"/>
    </clipPath>
    <clipPath id="clippath-78">
      <rect class="cls-1" x="10.8" y="10.8" width="1418.4" height="338.4"/>
    </clipPath>
    <clipPath id="clippath-79">
      <rect class="cls-1" x="10.8" y="10.8" width="1418.4" height="338.4"/>
    </clipPath>
    <clipPath id="clippath-80">
      <rect class="cls-1" x="10.8" y="10.8" width="1418.4" height="338.4"/>
    </clipPath>
    <clipPath id="clippath-81">
      <rect class="cls-1" x="10.8" y="10.8" width="1418.4" height="338.4"/>
    </clipPath>
    <clipPath id="clippath-82">
      <rect class="cls-1" x="10.8" y="10.8" width="1418.4" height="338.4"/>
    </clipPath>
    <clipPath id="clippath-83">
      <rect class="cls-1" x="10.8" y="10.8" width="1418.4" height="338.4"/>
    </clipPath>
    <clipPath id="clippath-84">
      <rect class="cls-1" x="10.8" y="10.8" width="1418.4" height="338.4"/>
    </clipPath>
    <clipPath id="clippath-85">
      <rect class="cls-1" x="10.8" y="10.8" width="1418.4" height="338.4"/>
    </clipPath>
    <clipPath id="clippath-86">
      <rect class="cls-1" x="10.8" y="10.8" width="1418.4" height="338.4"/>
    </clipPath>
    <clipPath id="clippath-87">
      <rect class="cls-1" x="10.8" y="10.8" width="1418.4" height="338.4"/>
    </clipPath>
    <clipPath id="clippath-88">
      <rect class="cls-1" x="10.8" y="10.8" width="1418.4" height="338.4"/>
    </clipPath>
  </defs>
  <!-- Generator: Adobe Illustrator 28.7.7, SVG Export Plug-In . SVG Version: 1.2.0 Build 194)  -->
  <g>
    <g id="Layer_1">
      <path class="cls-125" d="M0,360h1440V0H0v360Z"/>
      <g class="cls-145">
        <path class="cls-131" d="M10.8,78.5h70.9V10.8H10.8v67.7Z"/>
      </g>
      <g class="cls-110">
        <path class="cls-22" d="M81.7,78.5h70.9V10.8h-70.9v67.7Z"/>
      </g>
      <g class="cls-113">
        <path class="cls-109" d="M152.6,78.5h70.9V10.8h-70.9v67.7Z"/>
      </g>
      <g class="cls-111">
        <path class="cls-26" d="M223.6,78.5h70.9V10.8h-70.9v67.7Z"/>
      </g>
      <g class="cls-112">
        <path class="cls-26" d="M294.5,78.5h70.9V10.8h-70.9v67.7Z"/>
      </g>
      <g class="cls-118">
        <path class="cls-132" d="M365.4,78.5h70.9V10.8h-70.9v67.7Z"/>
      </g>
      <g class="cls-115">
        <path class="cls-147" d="M436.3,78.5h70.9V10.8h-70.9v67.7Z"/>
      </g>
      <g class="cls-114">
        <path class="cls-137" d="M507.2,78.5h70.9V10.8h-70.9v67.7Z"/>
      </g>
      <g class="cls-117">
        <path class="cls-137" d="M578.2,78.5h70.9V10.8h-70.9v67.7Z"/>
      </g>
      <g class="cls-116">
        <path class="cls-122" d="M649.1,78.5h70.9V10.8h-70.9v67.7Z"/>
      </g>
      <g class="cls-35">
        <path class="cls-129" d="M720,78.5h70.9V10.8h-70.9v67.7Z"/>
      </g>
      <g class="cls-32">
        <path class="cls-23" d="M790.9,78.5h70.9V10.8h-70.9v67.7Z"/>
      </g>
      <g class="cls-39">
        <path class="cls-128" d="M861.8,78.5h70.9V10.8h-70.9v67.7Z"/>
      </g>
      <g class="cls-37">
        <path class="cls-128" d="M932.8,78.5h70.9V10.8h-70.9v67.7Z"/>
      </g>
      <g class="cls-38">
        <path class="cls-136" d="M1003.7,78.5h70.9V10.8h-70.9v67.7Z"/>
      </g>
      <g class="cls-36">
        <path class="cls-28" d="M1074.6,78.5h70.9V10.8h-70.9v67.7Z"/>
      </g>
      <g class="cls-33">
        <path class="cls-152" d="M1145.5,78.5h70.9V10.8h-70.9v67.7Z"/>
      </g>
      <g class="cls-30">
        <path class="cls-28" d="M1216.4,78.5h70.9V10.8h-70.9v67.7Z"/>
      </g>
      <g class="cls-34">
        <path class="cls-141" d="M1287.4,78.5h70.9V10.8h-70.9v67.7Z"/>
      </g>
      <g class="cls-31">
        <path class="cls-28" d="M1358.3,78.5h70.9V10.8h-70.9v67.7Z"/>
      </g>
      <g class="cls-83">
        <path class="cls-28" d="M10.8,146.2h70.9v-67.7H10.8v67.7Z"/>
      </g>
      <g class="cls-84">
        <path class="cls-28" d="M81.7,146.2h70.9v-67.7h-70.9v67.7Z"/>
      </g>
      <g class="cls-85">
        <path class="cls-139" d="M152.6,146.2h70.9v-67.7h-70.9v67.7Z"/>
      </g>
      <g class="cls-86">
        <path class="cls-141" d="M223.6,146.2h70.9v-67.7h-70.9v67.7Z"/>
      </g>
      <g class="cls-87">
        <path class="cls-146" d="M294.5,146.2h70.9v-67.7h-70.9v67.7Z"/>
      </g>
      <g class="cls-88">
        <path class="cls-121" d="M365.4,146.2h70.9v-67.7h-70.9v67.7Z"/>
      </g>
      <g class="cls-81">
        <path class="cls-11" d="M436.3,146.2h70.9v-67.7h-70.9v67.7Z"/>
      </g>
      <g class="cls-79">
        <path class="cls-14" d="M507.2,146.2h70.9v-67.7h-70.9v67.7Z"/>
      </g>
      <g class="cls-82">
        <path class="cls-25" d="M578.2,146.2h70.9v-67.7h-70.9v67.7Z"/>
      </g>
      <g class="cls-80">
        <path class="cls-8" d="M649.1,146.2h70.9v-67.7h-70.9v67.7Z"/>
      </g>
      <g class="cls-75">
        <path class="cls-17" d="M720,146.2h70.9v-67.7h-70.9v67.7Z"/>
      </g>
      <g class="cls-69">
        <path class="cls-20" d="M790.9,146.2h70.9v-67.7h-70.9v67.7Z"/>
      </g>
      <g class="cls-70">
        <path class="cls-12" d="M861.8,146.2h70.9v-67.7h-70.9v67.7Z"/>
      </g>
      <g class="cls-71">
        <path class="cls-140" d="M932.8,146.2h70.9v-67.7h-70.9v67.7Z"/>
      </g>
      <g class="cls-72">
        <path class="cls-140" d="M1003.7,146.2h70.9v-67.7h-70.9v67.7Z"/>
      </g>
      <g class="cls-73">
        <path class="cls-140" d="M1074.6,146.2h70.9v-67.7h-70.9v67.7Z"/>
      </g>
      <g class="cls-76">
        <path class="cls-27" d="M1145.5,146.2h70.9v-67.7h-70.9v67.7Z"/>
      </g>
      <g class="cls-77">
        <path class="cls-7" d="M1216.4,146.2h70.9v-67.7h-70.9v67.7Z"/>
      </g>
      <g class="cls-78">
        <path class="cls-12" d="M1287.4,146.2h70.9v-67.7h-70.9v67.7Z"/>
      </g>
      <g class="cls-74">
        <path class="cls-12" d="M1358.3,146.2h70.9v-67.7h-70.9v67.7Z"/>
      </g>
      <g class="cls-96">
        <path class="cls-24" d="M10.8,213.8h70.9v-67.7H10.8v67.7Z"/>
      </g>
      <g class="cls-90">
        <path class="cls-150" d="M81.7,213.8h70.9v-67.7h-70.9v67.7Z"/>
      </g>
      <g class="cls-91">
        <path class="cls-119" d="M152.6,213.8h70.9v-67.7h-70.9v67.7Z"/>
      </g>
      <g class="cls-92">
        <path class="cls-16" d="M223.6,213.8h70.9v-67.7h-70.9v67.7Z"/>
      </g>
      <g class="cls-93">
        <path class="cls-3" d="M294.5,213.8h70.9v-67.7h-70.9v67.7Z"/>
      </g>
      <g class="cls-94">
        <path class="cls-21" d="M365.4,213.8h70.9v-67.7h-70.9v67.7Z"/>
      </g>
      <g class="cls-97">
        <path class="cls-29" d="M436.3,213.8h70.9v-67.7h-70.9v67.7Z"/>
      </g>
      <g class="cls-98">
        <path class="cls-123" d="M507.2,213.8h70.9v-67.7h-70.9v67.7Z"/>
      </g>
      <g class="cls-99">
        <path class="cls-123" d="M578.2,213.8h70.9v-67.7h-70.9v67.7Z"/>
      </g>
      <g class="cls-95">
        <path class="cls-123" d="M649.1,213.8h70.9v-67.7h-70.9v67.7Z"/>
      </g>
      <g class="cls-53">
        <path class="cls-123" d="M720,213.8h70.9v-67.7h-70.9v67.7Z"/>
      </g>
      <g class="cls-66">
        <path class="cls-123" d="M790.9,213.8h70.9v-67.7h-70.9v67.7Z"/>
      </g>
      <g class="cls-55">
        <path class="cls-138" d="M861.8,213.8h70.9v-67.7h-70.9v67.7Z"/>
      </g>
      <g class="cls-59">
        <path class="cls-123" d="M932.8,213.8h70.9v-67.7h-70.9v67.7Z"/>
      </g>
      <g class="cls-57">
        <path class="cls-123" d="M1003.7,213.8h70.9v-67.7h-70.9v67.7Z"/>
      </g>
      <g class="cls-54">
        <path class="cls-143" d="M1074.6,213.8h70.9v-67.7h-70.9v67.7Z"/>
      </g>
      <g class="cls-58">
        <path class="cls-149" d="M1145.5,213.8h70.9v-67.7h-70.9v67.7Z"/>
      </g>
      <g class="cls-56">
        <path class="cls-149" d="M1216.4,213.8h70.9v-67.7h-70.9v67.7Z"/>
      </g>
      <g class="cls-67">
        <path class="cls-149" d="M1287.4,213.8h70.9v-67.7h-70.9v67.7Z"/>
      </g>
      <g class="cls-68">
        <path class="cls-124" d="M1358.3,213.8h70.9v-67.7h-70.9v67.7Z"/>
      </g>
      <g class="cls-43">
        <path class="cls-124" d="M10.8,281.5h70.9v-67.7H10.8v67.7Z"/>
      </g>
      <g class="cls-40">
        <path class="cls-8" d="M81.7,281.5h70.9v-67.7h-70.9v67.7Z"/>
      </g>
      <g class="cls-45">
        <path class="cls-9" d="M152.6,281.5h70.9v-67.7h-70.9v67.7Z"/>
      </g>
      <g class="cls-48">
        <path class="cls-2" d="M223.6,281.5h70.9v-67.7h-70.9v67.7Z"/>
      </g>
      <g class="cls-46">
        <path class="cls-126" d="M294.5,281.5h70.9v-67.7h-70.9v67.7Z"/>
      </g>
      <g class="cls-44">
        <path class="cls-144" d="M365.4,281.5h70.9v-67.7h-70.9v67.7Z"/>
      </g>
      <g class="cls-47">
        <path class="cls-13" d="M436.3,281.5h70.9v-67.7h-70.9v67.7Z"/>
      </g>
      <g class="cls-41">
        <path class="cls-151" d="M507.2,281.5h70.9v-67.7h-70.9v67.7Z"/>
      </g>
      <g class="cls-42">
        <path class="cls-127" d="M578.2,281.5h70.9v-67.7h-70.9v67.7Z"/>
      </g>
      <g class="cls-89">
        <path class="cls-135" d="M649.1,281.5h70.9v-67.7h-70.9v67.7Z"/>
      </g>
      <g class="cls-60">
        <path class="cls-10" d="M720,281.5h70.9v-67.7h-70.9v67.7Z"/>
      </g>
      <g class="cls-63">
        <path class="cls-10" d="M790.9,281.5h70.9v-67.7h-70.9v67.7Z"/>
      </g>
      <g class="cls-65">
        <path class="cls-10" d="M861.8,281.5h70.9v-67.7h-70.9v67.7Z"/>
      </g>
      <g class="cls-64">
        <path class="cls-19" d="M932.8,281.5h70.9v-67.7h-70.9v67.7Z"/>
      </g>
      <g class="cls-62">
        <path class="cls-120" d="M1003.7,281.5h70.9v-67.7h-70.9v67.7Z"/>
      </g>
      <g class="cls-51">
        <path class="cls-148" d="M1074.6,281.5h70.9v-67.7h-70.9v67.7Z"/>
      </g>
      <g class="cls-49">
        <path class="cls-142" d="M1145.5,281.5h70.9v-67.7h-70.9v67.7Z"/>
      </g>
      <g class="cls-61">
        <path class="cls-134" d="M1216.4,281.5h70.9v-67.7h-70.9v67.7Z"/>
      </g>
      <g class="cls-50">
        <path class="cls-15" d="M1287.4,281.5h70.9v-67.7h-70.9v67.7Z"/>
      </g>
      <g class="cls-52">
        <path class="cls-15" d="M1358.3,281.5h70.9v-67.7h-70.9v67.7Z"/>
      </g>
      <g class="cls-103">
        <path class="cls-15" d="M10.8,349.2h70.9v-67.7H10.8v67.7Z"/>
      </g>
      <g class="cls-104">
        <path class="cls-18" d="M81.7,349.2h70.9v-67.7h-70.9v67.7Z"/>
      </g>
      <g class="cls-105">
        <path class="cls-18" d="M152.6,349.2h70.9v-67.7h-70.9v67.7Z"/>
      </g>
      <g class="cls-106">
        <path class="cls-133" d="M223.6,349.2h70.9v-67.7h-70.9v67.7Z"/>
      </g>
      <g class="cls-107">
        <path class="cls-130" d="M294.5,349.2h70.9v-67.7h-70.9v67.7Z"/>
      </g>
      <g class="cls-100">
        <path class="cls-5" d="M365.4,349.2h70.9v-67.7h-70.9v67.7Z"/>
      </g>
      <g class="cls-101">
        <path class="cls-4" d="M436.3,349.2h70.9v-67.7h-70.9v67.7Z"/>
      </g>
      <g class="cls-102">
        <path class="cls-6" d="M507.2,349.2h70.9v-67.7h-70.9v67.7Z"/>
      </g>
      <g class="cls-108">
        <path class="cls-8" d="M578.2,349.2h70.9v-67.7h-70.9v67.7Z"/>
      </g>
    </g>
  </g>
</svg>