<?xml version="1.0" encoding="utf-8" standalone="no"?>
<!DOCTYPE svg PUBLIC "-//W3C//DTD SVG 1.1//EN"
  "http://www.w3.org/Graphics/SVG/1.1/DTD/svg11.dtd">
<svg xmlns:xlink="http://www.w3.org/1999/xlink" width="1440pt" height="72pt" viewBox="0 0 1440 72" xmlns="http://www.w3.org/2000/svg" version="1.1">
 <metadata>
  <rdf:RDF xmlns:dc="http://purl.org/dc/elements/1.1/" xmlns:cc="http://creativecommons.org/ns#" xmlns:rdf="http://www.w3.org/1999/02/22-rdf-syntax-ns#">
   <cc:Work>
    <dc:type rdf:resource="http://purl.org/dc/dcmitype/StillImage"/>
    <dc:date>2025-05-04T17:21:05.979587</dc:date>
    <dc:format>image/svg+xml</dc:format>
    <dc:creator>
     <cc:Agent>
      <dc:title>Matplotlib v3.9.2, https://matplotlib.org/</dc:title>
     </cc:Agent>
    </dc:creator>
   </cc:Work>
  </rdf:RDF>
 </metadata>
 <defs>
  <style type="text/css">*{stroke-linejoin: round; stroke-linecap: butt}</style>
 </defs>
 <g id="figure_1">
  <g id="patch_1">
   <path d="M 0 72 
L 1440 72 
L 1440 0 
L 0 0 
z
" style="fill: #ffffff"/>
  </g>
  <g id="axes_1">
   <g id="patch_2">
    <path d="M 10.8 61.2 
L 81.72 61.2 
L 81.72 10.8 
L 10.8 10.8 
z
" clip-path="url(#pcaa6b4ca68)" style="fill: #2d2922; stroke: #2d2922; stroke-linejoin: miter"/>
   </g>
   <g id="patch_3">
    <path d="M 81.72 61.2 
L 152.64 61.2 
L 152.64 10.8 
L 81.72 10.8 
z
" clip-path="url(#pcaa6b4ca68)" style="fill: #c3c3be; stroke: #c3c3be; stroke-linejoin: miter"/>
   </g>
   <g id="patch_4">
    <path d="M 152.64 61.2 
L 223.56 61.2 
L 223.56 10.8 
L 152.64 10.8 
z
" clip-path="url(#pcaa6b4ca68)" style="fill: #867b6d; stroke: #867b6d; stroke-linejoin: miter"/>
   </g>
   <g id="patch_5">
    <path d="M 223.56 61.2 
L 294.48 61.2 
L 294.48 10.8 
L 223.56 10.8 
z
" clip-path="url(#pcaa6b4ca68)" style="fill: #c2c3b6; stroke: #c2c3b6; stroke-linejoin: miter"/>
   </g>
   <g id="patch_6">
    <path d="M 294.48 61.2 
L 365.4 61.2 
L 365.4 10.8 
L 294.48 10.8 
z
" clip-path="url(#pcaa6b4ca68)" style="fill: #bcaca0; stroke: #bcaca0; stroke-linejoin: miter"/>
   </g>
   <g id="patch_7">
    <path d="M 365.4 61.2 
L 436.32 61.2 
L 436.32 10.8 
L 365.4 10.8 
z
" clip-path="url(#pcaa6b4ca68)" style="fill: #383635; stroke: #383635; stroke-linejoin: miter"/>
   </g>
   <g id="patch_8">
    <path d="M 436.32 61.2 
L 507.24 61.2 
L 507.24 10.8 
L 436.32 10.8 
z
" clip-path="url(#pcaa6b4ca68)" style="fill: #d8c0b7; stroke: #d8c0b7; stroke-linejoin: miter"/>
   </g>
   <g id="patch_9">
    <path d="M 507.24 61.2 
L 578.16 61.2 
L 578.16 10.8 
L 507.24 10.8 
z
" clip-path="url(#pcaa6b4ca68)" style="fill: #303131; stroke: #303131; stroke-linejoin: miter"/>
   </g>
   <g id="patch_10">
    <path d="M 578.16 61.2 
L 649.08 61.2 
L 649.08 10.8 
L 578.16 10.8 
z
" clip-path="url(#pcaa6b4ca68)" style="fill: #464441; stroke: #464441; stroke-linejoin: miter"/>
   </g>
   <g id="patch_11">
    <path d="M 649.08 61.2 
L 720 61.2 
L 720 10.8 
L 649.08 10.8 
z
" clip-path="url(#pcaa6b4ca68)" style="fill: #ae8f64; stroke: #ae8f64; stroke-linejoin: miter"/>
   </g>
   <g id="patch_12">
    <path d="M 720 61.2 
L 790.92 61.2 
L 790.92 10.8 
L 720 10.8 
z
" clip-path="url(#pcaa6b4ca68)" style="fill: #b0a99b; stroke: #b0a99b; stroke-linejoin: miter"/>
   </g>
   <g id="patch_13">
    <path d="M 790.92 61.2 
L 861.84 61.2 
L 861.84 10.8 
L 790.92 10.8 
z
" clip-path="url(#pcaa6b4ca68)" style="fill: #ccbaa4; stroke: #ccbaa4; stroke-linejoin: miter"/>
   </g>
   <g id="patch_14">
    <path d="M 861.84 61.2 
L 932.76 61.2 
L 932.76 10.8 
L 861.84 10.8 
z
" clip-path="url(#pcaa6b4ca68)" style="fill: #bdb2a9; stroke: #bdb2a9; stroke-linejoin: miter"/>
   </g>
   <g id="patch_15">
    <path d="M 932.76 61.2 
L 1003.68 61.2 
L 1003.68 10.8 
L 932.76 10.8 
z
" clip-path="url(#pcaa6b4ca68)" style="fill: #beb1a6; stroke: #beb1a6; stroke-linejoin: miter"/>
   </g>
   <g id="patch_16">
    <path d="M 1003.68 61.2 
L 1074.6 61.2 
L 1074.6 10.8 
L 1003.68 10.8 
z
" clip-path="url(#pcaa6b4ca68)" style="fill: #423833; stroke: #423833; stroke-linejoin: miter"/>
   </g>
  </g>
 </g>
 <defs>
  <clipPath id="pcaa6b4ca68">
   <rect x="10.8" y="10.8" width="1418.4" height="50.4"/>
  </clipPath>
 </defs>
</svg>
