<?xml version="1.0" encoding="utf-8" standalone="no"?>
<!DOCTYPE svg PUBLIC "-//W3C//DTD SVG 1.1//EN"
  "http://www.w3.org/Graphics/SVG/1.1/DTD/svg11.dtd">
<svg xmlns:xlink="http://www.w3.org/1999/xlink" width="1440pt" height="216pt" viewBox="0 0 1440 216" xmlns="http://www.w3.org/2000/svg" version="1.1">
 <metadata>
  <rdf:RDF xmlns:dc="http://purl.org/dc/elements/1.1/" xmlns:cc="http://creativecommons.org/ns#" xmlns:rdf="http://www.w3.org/1999/02/22-rdf-syntax-ns#">
   <cc:Work>
    <dc:type rdf:resource="http://purl.org/dc/dcmitype/StillImage"/>
    <dc:date>2025-05-04T17:21:06.826695</dc:date>
    <dc:format>image/svg+xml</dc:format>
    <dc:creator>
     <cc:Agent>
      <dc:title>Matplotlib v3.9.2, https://matplotlib.org/</dc:title>
     </cc:Agent>
    </dc:creator>
   </cc:Work>
  </rdf:RDF>
 </metadata>
 <defs>
  <style type="text/css">*{stroke-linejoin: round; stroke-linecap: butt}</style>
 </defs>
 <g id="figure_1">
  <g id="patch_1">
   <path d="M 0 216 
L 1440 216 
L 1440 0 
L 0 0 
z
" style="fill: #ffffff"/>
  </g>
  <g id="axes_1">
   <g id="patch_2">
    <path d="M 10.8 75.6 
L 81.72 75.6 
L 81.72 10.8 
L 10.8 10.8 
z
" clip-path="url(#pc219ad5621)" style="fill: #413734; stroke: #413734; stroke-linejoin: miter"/>
   </g>
   <g id="patch_3">
    <path d="M 81.72 75.6 
L 152.64 75.6 
L 152.64 10.8 
L 81.72 10.8 
z
" clip-path="url(#pc219ad5621)" style="fill: #374555; stroke: #374555; stroke-linejoin: miter"/>
   </g>
   <g id="patch_4">
    <path d="M 152.64 75.6 
L 223.56 75.6 
L 223.56 10.8 
L 152.64 10.8 
z
" clip-path="url(#pc219ad5621)" style="fill: #dac7bf; stroke: #dac7bf; stroke-linejoin: miter"/>
   </g>
   <g id="patch_5">
    <path d="M 223.56 75.6 
L 294.48 75.6 
L 294.48 10.8 
L 223.56 10.8 
z
" clip-path="url(#pc219ad5621)" style="fill: #d1bfb3; stroke: #d1bfb3; stroke-linejoin: miter"/>
   </g>
   <g id="patch_6">
    <path d="M 294.48 75.6 
L 365.4 75.6 
L 365.4 10.8 
L 294.48 10.8 
z
" clip-path="url(#pc219ad5621)" style="fill: #a59a81; stroke: #a59a81; stroke-linejoin: miter"/>
   </g>
   <g id="patch_7">
    <path d="M 365.4 75.6 
L 436.32 75.6 
L 436.32 10.8 
L 365.4 10.8 
z
" clip-path="url(#pc219ad5621)" style="fill: #a59a81; stroke: #a59a81; stroke-linejoin: miter"/>
   </g>
   <g id="patch_8">
    <path d="M 436.32 75.6 
L 507.24 75.6 
L 507.24 10.8 
L 436.32 10.8 
z
" clip-path="url(#pc219ad5621)" style="fill: #a59a81; stroke: #a59a81; stroke-linejoin: miter"/>
   </g>
   <g id="patch_9">
    <path d="M 507.24 75.6 
L 578.16 75.6 
L 578.16 10.8 
L 507.24 10.8 
z
" clip-path="url(#pc219ad5621)" style="fill: #c7c2b0; stroke: #c7c2b0; stroke-linejoin: miter"/>
   </g>
   <g id="patch_10">
    <path d="M 578.16 75.6 
L 649.08 75.6 
L 649.08 10.8 
L 578.16 10.8 
z
" clip-path="url(#pc219ad5621)" style="fill: #cbb9ae; stroke: #cbb9ae; stroke-linejoin: miter"/>
   </g>
   <g id="patch_11">
    <path d="M 649.08 75.6 
L 720 75.6 
L 720 10.8 
L 649.08 10.8 
z
" clip-path="url(#pc219ad5621)" style="fill: #474238; stroke: #474238; stroke-linejoin: miter"/>
   </g>
   <g id="patch_12">
    <path d="M 720 75.6 
L 790.92 75.6 
L 790.92 10.8 
L 720 10.8 
z
" clip-path="url(#pc219ad5621)" style="fill: #474238; stroke: #474238; stroke-linejoin: miter"/>
   </g>
   <g id="patch_13">
    <path d="M 790.92 75.6 
L 861.84 75.6 
L 861.84 10.8 
L 790.92 10.8 
z
" clip-path="url(#pc219ad5621)" style="fill: #cdded8; stroke: #cdded8; stroke-linejoin: miter"/>
   </g>
   <g id="patch_14">
    <path d="M 861.84 75.6 
L 932.76 75.6 
L 932.76 10.8 
L 861.84 10.8 
z
" clip-path="url(#pc219ad5621)" style="fill: #a69481; stroke: #a69481; stroke-linejoin: miter"/>
   </g>
   <g id="patch_15">
    <path d="M 932.76 75.6 
L 1003.68 75.6 
L 1003.68 10.8 
L 932.76 10.8 
z
" clip-path="url(#pc219ad5621)" style="fill: #b2b5aa; stroke: #b2b5aa; stroke-linejoin: miter"/>
   </g>
   <g id="patch_16">
    <path d="M 1003.68 75.6 
L 1074.6 75.6 
L 1074.6 10.8 
L 1003.68 10.8 
z
" clip-path="url(#pc219ad5621)" style="fill: #b2b5aa; stroke: #b2b5aa; stroke-linejoin: miter"/>
   </g>
   <g id="patch_17">
    <path d="M 1074.6 75.6 
L 1145.52 75.6 
L 1145.52 10.8 
L 1074.6 10.8 
z
" clip-path="url(#pc219ad5621)" style="fill: #c5b8ad; stroke: #c5b8ad; stroke-linejoin: miter"/>
   </g>
   <g id="patch_18">
    <path d="M 1145.52 75.6 
L 1216.44 75.6 
L 1216.44 10.8 
L 1145.52 10.8 
z
" clip-path="url(#pc219ad5621)" style="fill: #3a3d30; stroke: #3a3d30; stroke-linejoin: miter"/>
   </g>
   <g id="patch_19">
    <path d="M 1216.44 75.6 
L 1287.36 75.6 
L 1287.36 10.8 
L 1216.44 10.8 
z
" clip-path="url(#pc219ad5621)" style="fill: #cec8bf; stroke: #cec8bf; stroke-linejoin: miter"/>
   </g>
   <g id="patch_20">
    <path d="M 1287.36 75.6 
L 1358.28 75.6 
L 1358.28 10.8 
L 1287.36 10.8 
z
" clip-path="url(#pc219ad5621)" style="fill: #cec8bf; stroke: #cec8bf; stroke-linejoin: miter"/>
   </g>
   <g id="patch_21">
    <path d="M 1358.28 75.6 
L 1429.2 75.6 
L 1429.2 10.8 
L 1358.28 10.8 
z
" clip-path="url(#pc219ad5621)" style="fill: #cec8bf; stroke: #cec8bf; stroke-linejoin: miter"/>
   </g>
   <g id="patch_22">
    <path d="M 10.8 140.4 
L 81.72 140.4 
L 81.72 75.6 
L 10.8 75.6 
z
" clip-path="url(#pc219ad5621)" style="fill: #e1eddc; stroke: #e1eddc; stroke-linejoin: miter"/>
   </g>
   <g id="patch_23">
    <path d="M 81.72 140.4 
L 152.64 140.4 
L 152.64 75.6 
L 81.72 75.6 
z
" clip-path="url(#pc219ad5621)" style="fill: #d0c4b8; stroke: #d0c4b8; stroke-linejoin: miter"/>
   </g>
   <g id="patch_24">
    <path d="M 152.64 140.4 
L 223.56 140.4 
L 223.56 75.6 
L 152.64 75.6 
z
" clip-path="url(#pc219ad5621)" style="fill: #c7bdb2; stroke: #c7bdb2; stroke-linejoin: miter"/>
   </g>
   <g id="patch_25">
    <path d="M 223.56 140.4 
L 294.48 140.4 
L 294.48 75.6 
L 223.56 75.6 
z
" clip-path="url(#pc219ad5621)" style="fill: #cdccc0; stroke: #cdccc0; stroke-linejoin: miter"/>
   </g>
   <g id="patch_26">
    <path d="M 294.48 140.4 
L 365.4 140.4 
L 365.4 75.6 
L 294.48 75.6 
z
" clip-path="url(#pc219ad5621)" style="fill: #b3906e; stroke: #b3906e; stroke-linejoin: miter"/>
   </g>
   <g id="patch_27">
    <path d="M 365.4 140.4 
L 436.32 140.4 
L 436.32 75.6 
L 365.4 75.6 
z
" clip-path="url(#pc219ad5621)" style="fill: #cdbabe; stroke: #cdbabe; stroke-linejoin: miter"/>
   </g>
   <g id="patch_28">
    <path d="M 436.32 140.4 
L 507.24 140.4 
L 507.24 75.6 
L 436.32 75.6 
z
" clip-path="url(#pc219ad5621)" style="fill: #4e8cb5; stroke: #4e8cb5; stroke-linejoin: miter"/>
   </g>
   <g id="patch_29">
    <path d="M 507.24 140.4 
L 578.16 140.4 
L 578.16 75.6 
L 507.24 75.6 
z
" clip-path="url(#pc219ad5621)" style="fill: #dbcfc0; stroke: #dbcfc0; stroke-linejoin: miter"/>
   </g>
   <g id="patch_30">
    <path d="M 578.16 140.4 
L 649.08 140.4 
L 649.08 75.6 
L 578.16 75.6 
z
" clip-path="url(#pc219ad5621)" style="fill: #8a7767; stroke: #8a7767; stroke-linejoin: miter"/>
   </g>
   <g id="patch_31">
    <path d="M 649.08 140.4 
L 720 140.4 
L 720 75.6 
L 649.08 75.6 
z
" clip-path="url(#pc219ad5621)" style="fill: #e3b646; stroke: #e3b646; stroke-linejoin: miter"/>
   </g>
   <g id="patch_32">
    <path d="M 720 140.4 
L 790.92 140.4 
L 790.92 75.6 
L 720 75.6 
z
" clip-path="url(#pc219ad5621)" style="fill: #181518; stroke: #181518; stroke-linejoin: miter"/>
   </g>
   <g id="patch_33">
    <path d="M 790.92 140.4 
L 861.84 140.4 
L 861.84 75.6 
L 790.92 75.6 
z
" clip-path="url(#pc219ad5621)" style="fill: #beb8af; stroke: #beb8af; stroke-linejoin: miter"/>
   </g>
   <g id="patch_34">
    <path d="M 861.84 140.4 
L 932.76 140.4 
L 932.76 75.6 
L 861.84 75.6 
z
" clip-path="url(#pc219ad5621)" style="fill: #443b33; stroke: #443b33; stroke-linejoin: miter"/>
   </g>
   <g id="patch_35">
    <path d="M 932.76 140.4 
L 1003.68 140.4 
L 1003.68 75.6 
L 932.76 75.6 
z
" clip-path="url(#pc219ad5621)" style="fill: #b6a48d; stroke: #b6a48d; stroke-linejoin: miter"/>
   </g>
   <g id="patch_36">
    <path d="M 1003.68 140.4 
L 1074.6 140.4 
L 1074.6 75.6 
L 1003.68 75.6 
z
" clip-path="url(#pc219ad5621)" style="fill: #303131; stroke: #303131; stroke-linejoin: miter"/>
   </g>
   <g id="patch_37">
    <path d="M 1074.6 140.4 
L 1145.52 140.4 
L 1145.52 75.6 
L 1074.6 75.6 
z
" clip-path="url(#pc219ad5621)" style="fill: #4b494a; stroke: #4b494a; stroke-linejoin: miter"/>
   </g>
   <g id="patch_38">
    <path d="M 1145.52 140.4 
L 1216.44 140.4 
L 1216.44 75.6 
L 1145.52 75.6 
z
" clip-path="url(#pc219ad5621)" style="fill: #ccc1b3; stroke: #ccc1b3; stroke-linejoin: miter"/>
   </g>
   <g id="patch_39">
    <path d="M 1216.44 140.4 
L 1287.36 140.4 
L 1287.36 75.6 
L 1216.44 75.6 
z
" clip-path="url(#pc219ad5621)" style="fill: #ccc1b3; stroke: #ccc1b3; stroke-linejoin: miter"/>
   </g>
   <g id="patch_40">
    <path d="M 1287.36 140.4 
L 1358.28 140.4 
L 1358.28 75.6 
L 1287.36 75.6 
z
" clip-path="url(#pc219ad5621)" style="fill: #ccc1b3; stroke: #ccc1b3; stroke-linejoin: miter"/>
   </g>
   <g id="patch_41">
    <path d="M 1358.28 140.4 
L 1429.2 140.4 
L 1429.2 75.6 
L 1358.28 75.6 
z
" clip-path="url(#pc219ad5621)" style="fill: #ccc1b3; stroke: #ccc1b3; stroke-linejoin: miter"/>
   </g>
   <g id="patch_42">
    <path d="M 10.8 205.2 
L 81.72 205.2 
L 81.72 140.4 
L 10.8 140.4 
z
" clip-path="url(#pc219ad5621)" style="fill: #ccc1b3; stroke: #ccc1b3; stroke-linejoin: miter"/>
   </g>
   <g id="patch_43">
    <path d="M 81.72 205.2 
L 152.64 205.2 
L 152.64 140.4 
L 81.72 140.4 
z
" clip-path="url(#pc219ad5621)" style="fill: #bfb4ac; stroke: #bfb4ac; stroke-linejoin: miter"/>
   </g>
   <g id="patch_44">
    <path d="M 152.64 205.2 
L 223.56 205.2 
L 223.56 140.4 
L 152.64 140.4 
z
" clip-path="url(#pc219ad5621)" style="fill: #e9b490; stroke: #e9b490; stroke-linejoin: miter"/>
   </g>
   <g id="patch_45">
    <path d="M 223.56 205.2 
L 294.48 205.2 
L 294.48 140.4 
L 223.56 140.4 
z
" clip-path="url(#pc219ad5621)" style="fill: #262b25; stroke: #262b25; stroke-linejoin: miter"/>
   </g>
   <g id="patch_46">
    <path d="M 294.48 205.2 
L 365.4 205.2 
L 365.4 140.4 
L 294.48 140.4 
z
" clip-path="url(#pc219ad5621)" style="fill: #262b25; stroke: #262b25; stroke-linejoin: miter"/>
   </g>
   <g id="patch_47">
    <path d="M 365.4 205.2 
L 436.32 205.2 
L 436.32 140.4 
L 365.4 140.4 
z
" clip-path="url(#pc219ad5621)" style="fill: #bcada1; stroke: #bcada1; stroke-linejoin: miter"/>
   </g>
   <g id="patch_48">
    <path d="M 436.32 205.2 
L 507.24 205.2 
L 507.24 140.4 
L 436.32 140.4 
z
" clip-path="url(#pc219ad5621)" style="fill: #bdb4a4; stroke: #bdb4a4; stroke-linejoin: miter"/>
   </g>
   <g id="patch_49">
    <path d="M 507.24 205.2 
L 578.16 205.2 
L 578.16 140.4 
L 507.24 140.4 
z
" clip-path="url(#pc219ad5621)" style="fill: #7b896f; stroke: #7b896f; stroke-linejoin: miter"/>
   </g>
   <g id="patch_50">
    <path d="M 578.16 205.2 
L 649.08 205.2 
L 649.08 140.4 
L 578.16 140.4 
z
" clip-path="url(#pc219ad5621)" style="fill: #413833; stroke: #413833; stroke-linejoin: miter"/>
   </g>
   <g id="patch_51">
    <path d="M 649.08 205.2 
L 720 205.2 
L 720 140.4 
L 649.08 140.4 
z
" clip-path="url(#pc219ad5621)" style="fill: #b4967b; stroke: #b4967b; stroke-linejoin: miter"/>
   </g>
   <g id="patch_52">
    <path d="M 720 205.2 
L 790.92 205.2 
L 790.92 140.4 
L 720 140.4 
z
" clip-path="url(#pc219ad5621)" style="fill: #b4967b; stroke: #b4967b; stroke-linejoin: miter"/>
   </g>
   <g id="patch_53">
    <path d="M 790.92 205.2 
L 861.84 205.2 
L 861.84 140.4 
L 790.92 140.4 
z
" clip-path="url(#pc219ad5621)" style="fill: #b7aa9c; stroke: #b7aa9c; stroke-linejoin: miter"/>
   </g>
  </g>
 </g>
 <defs>
  <clipPath id="pc219ad5621">
   <rect x="10.8" y="10.8" width="1418.4" height="194.4"/>
  </clipPath>
 </defs>
</svg>
