<?xml version="1.0" encoding="utf-8" standalone="no"?>
<!DOCTYPE svg PUBLIC "-//W3C//DTD SVG 1.1//EN"
  "http://www.w3.org/Graphics/SVG/1.1/DTD/svg11.dtd">
<svg xmlns:xlink="http://www.w3.org/1999/xlink" width="1440pt" height="216pt" viewBox="0 0 1440 216" xmlns="http://www.w3.org/2000/svg" version="1.1">
 <metadata>
  <rdf:RDF xmlns:dc="http://purl.org/dc/elements/1.1/" xmlns:cc="http://creativecommons.org/ns#" xmlns:rdf="http://www.w3.org/1999/02/22-rdf-syntax-ns#">
   <cc:Work>
    <dc:type rdf:resource="http://purl.org/dc/dcmitype/StillImage"/>
    <dc:date>2025-05-04T17:21:05.645398</dc:date>
    <dc:format>image/svg+xml</dc:format>
    <dc:creator>
     <cc:Agent>
      <dc:title>Matplotlib v3.9.2, https://matplotlib.org/</dc:title>
     </cc:Agent>
    </dc:creator>
   </cc:Work>
  </rdf:RDF>
 </metadata>
 <defs>
  <style type="text/css">*{stroke-linejoin: round; stroke-linecap: butt}</style>
 </defs>
 <g id="figure_1">
  <g id="patch_1">
   <path d="M 0 216 
L 1440 216 
L 1440 0 
L 0 0 
z
" style="fill: #ffffff"/>
  </g>
  <g id="axes_1">
   <g id="patch_2">
    <path d="M 10.8 75.6 
L 81.72 75.6 
L 81.72 10.8 
L 10.8 10.8 
z
" clip-path="url(#p9c9a103edd)" style="fill: #d7a485; stroke: #d7a485; stroke-linejoin: miter"/>
   </g>
   <g id="patch_3">
    <path d="M 81.72 75.6 
L 152.64 75.6 
L 152.64 10.8 
L 81.72 10.8 
z
" clip-path="url(#p9c9a103edd)" style="fill: #bca48c; stroke: #bca48c; stroke-linejoin: miter"/>
   </g>
   <g id="patch_4">
    <path d="M 152.64 75.6 
L 223.56 75.6 
L 223.56 10.8 
L 152.64 10.8 
z
" clip-path="url(#p9c9a103edd)" style="fill: #bca48c; stroke: #bca48c; stroke-linejoin: miter"/>
   </g>
   <g id="patch_5">
    <path d="M 223.56 75.6 
L 294.48 75.6 
L 294.48 10.8 
L 223.56 10.8 
z
" clip-path="url(#p9c9a103edd)" style="fill: #ab907e; stroke: #ab907e; stroke-linejoin: miter"/>
   </g>
   <g id="patch_6">
    <path d="M 294.48 75.6 
L 365.4 75.6 
L 365.4 10.8 
L 294.48 10.8 
z
" clip-path="url(#p9c9a103edd)" style="fill: #bca48c; stroke: #bca48c; stroke-linejoin: miter"/>
   </g>
   <g id="patch_7">
    <path d="M 365.4 75.6 
L 436.32 75.6 
L 436.32 10.8 
L 365.4 10.8 
z
" clip-path="url(#p9c9a103edd)" style="fill: #c5bab2; stroke: #c5bab2; stroke-linejoin: miter"/>
   </g>
   <g id="patch_8">
    <path d="M 436.32 75.6 
L 507.24 75.6 
L 507.24 10.8 
L 436.32 10.8 
z
" clip-path="url(#p9c9a103edd)" style="fill: #bd9673; stroke: #bd9673; stroke-linejoin: miter"/>
   </g>
   <g id="patch_9">
    <path d="M 507.24 75.6 
L 578.16 75.6 
L 578.16 10.8 
L 507.24 10.8 
z
" clip-path="url(#p9c9a103edd)" style="fill: #b4a188; stroke: #b4a188; stroke-linejoin: miter"/>
   </g>
   <g id="patch_10">
    <path d="M 578.16 75.6 
L 649.08 75.6 
L 649.08 10.8 
L 578.16 10.8 
z
" clip-path="url(#p9c9a103edd)" style="fill: #a39586; stroke: #a39586; stroke-linejoin: miter"/>
   </g>
   <g id="patch_11">
    <path d="M 649.08 75.6 
L 720 75.6 
L 720 10.8 
L 649.08 10.8 
z
" clip-path="url(#p9c9a103edd)" style="fill: #ba6b42; stroke: #ba6b42; stroke-linejoin: miter"/>
   </g>
   <g id="patch_12">
    <path d="M 720 75.6 
L 790.92 75.6 
L 790.92 10.8 
L 720 10.8 
z
" clip-path="url(#p9c9a103edd)" style="fill: #bdb1a0; stroke: #bdb1a0; stroke-linejoin: miter"/>
   </g>
   <g id="patch_13">
    <path d="M 790.92 75.6 
L 861.84 75.6 
L 861.84 10.8 
L 790.92 10.8 
z
" clip-path="url(#p9c9a103edd)" style="fill: #ecc8c9; stroke: #ecc8c9; stroke-linejoin: miter"/>
   </g>
   <g id="patch_14">
    <path d="M 861.84 75.6 
L 932.76 75.6 
L 932.76 10.8 
L 861.84 10.8 
z
" clip-path="url(#p9c9a103edd)" style="fill: #d5cec6; stroke: #d5cec6; stroke-linejoin: miter"/>
   </g>
   <g id="patch_15">
    <path d="M 932.76 75.6 
L 1003.68 75.6 
L 1003.68 10.8 
L 932.76 10.8 
z
" clip-path="url(#p9c9a103edd)" style="fill: #d5cec6; stroke: #d5cec6; stroke-linejoin: miter"/>
   </g>
   <g id="patch_16">
    <path d="M 1003.68 75.6 
L 1074.6 75.6 
L 1074.6 10.8 
L 1003.68 10.8 
z
" clip-path="url(#p9c9a103edd)" style="fill: #d5cec6; stroke: #d5cec6; stroke-linejoin: miter"/>
   </g>
   <g id="patch_17">
    <path d="M 1074.6 75.6 
L 1145.52 75.6 
L 1145.52 10.8 
L 1074.6 10.8 
z
" clip-path="url(#p9c9a103edd)" style="fill: #eda384; stroke: #eda384; stroke-linejoin: miter"/>
   </g>
   <g id="patch_18">
    <path d="M 1145.52 75.6 
L 1216.44 75.6 
L 1216.44 10.8 
L 1145.52 10.8 
z
" clip-path="url(#p9c9a103edd)" style="fill: #363333; stroke: #363333; stroke-linejoin: miter"/>
   </g>
   <g id="patch_19">
    <path d="M 1216.44 75.6 
L 1287.36 75.6 
L 1287.36 10.8 
L 1216.44 10.8 
z
" clip-path="url(#p9c9a103edd)" style="fill: #c2c1c0; stroke: #c2c1c0; stroke-linejoin: miter"/>
   </g>
   <g id="patch_20">
    <path d="M 1287.36 75.6 
L 1358.28 75.6 
L 1358.28 10.8 
L 1287.36 10.8 
z
" clip-path="url(#p9c9a103edd)" style="fill: #c3b7a8; stroke: #c3b7a8; stroke-linejoin: miter"/>
   </g>
   <g id="patch_21">
    <path d="M 1358.28 75.6 
L 1429.2 75.6 
L 1429.2 10.8 
L 1358.28 10.8 
z
" clip-path="url(#p9c9a103edd)" style="fill: #3b3a32; stroke: #3b3a32; stroke-linejoin: miter"/>
   </g>
   <g id="patch_22">
    <path d="M 10.8 140.4 
L 81.72 140.4 
L 81.72 75.6 
L 10.8 75.6 
z
" clip-path="url(#p9c9a103edd)" style="fill: #3e3c31; stroke: #3e3c31; stroke-linejoin: miter"/>
   </g>
   <g id="patch_23">
    <path d="M 81.72 140.4 
L 152.64 140.4 
L 152.64 75.6 
L 81.72 75.6 
z
" clip-path="url(#p9c9a103edd)" style="fill: #b8b0a7; stroke: #b8b0a7; stroke-linejoin: miter"/>
   </g>
   <g id="patch_24">
    <path d="M 152.64 140.4 
L 223.56 140.4 
L 223.56 75.6 
L 152.64 75.6 
z
" clip-path="url(#p9c9a103edd)" style="fill: #b8b0a7; stroke: #b8b0a7; stroke-linejoin: miter"/>
   </g>
   <g id="patch_25">
    <path d="M 223.56 140.4 
L 294.48 140.4 
L 294.48 75.6 
L 223.56 75.6 
z
" clip-path="url(#p9c9a103edd)" style="fill: #b8b0a7; stroke: #b8b0a7; stroke-linejoin: miter"/>
   </g>
   <g id="patch_26">
    <path d="M 294.48 140.4 
L 365.4 140.4 
L 365.4 75.6 
L 294.48 75.6 
z
" clip-path="url(#p9c9a103edd)" style="fill: #cfc6c0; stroke: #cfc6c0; stroke-linejoin: miter"/>
   </g>
   <g id="patch_27">
    <path d="M 365.4 140.4 
L 436.32 140.4 
L 436.32 75.6 
L 365.4 75.6 
z
" clip-path="url(#p9c9a103edd)" style="fill: #314741; stroke: #314741; stroke-linejoin: miter"/>
   </g>
   <g id="patch_28">
    <path d="M 436.32 140.4 
L 507.24 140.4 
L 507.24 75.6 
L 436.32 75.6 
z
" clip-path="url(#p9c9a103edd)" style="fill: #c9baad; stroke: #c9baad; stroke-linejoin: miter"/>
   </g>
   <g id="patch_29">
    <path d="M 507.24 140.4 
L 578.16 140.4 
L 578.16 75.6 
L 507.24 75.6 
z
" clip-path="url(#p9c9a103edd)" style="fill: #49453b; stroke: #49453b; stroke-linejoin: miter"/>
   </g>
   <g id="patch_30">
    <path d="M 578.16 140.4 
L 649.08 140.4 
L 649.08 75.6 
L 578.16 75.6 
z
" clip-path="url(#p9c9a103edd)" style="fill: #c7b2a2; stroke: #c7b2a2; stroke-linejoin: miter"/>
   </g>
   <g id="patch_31">
    <path d="M 649.08 140.4 
L 720 140.4 
L 720 75.6 
L 649.08 75.6 
z
" clip-path="url(#p9c9a103edd)" style="fill: #d2baa6; stroke: #d2baa6; stroke-linejoin: miter"/>
   </g>
   <g id="patch_32">
    <path d="M 720 140.4 
L 790.92 140.4 
L 790.92 75.6 
L 720 75.6 
z
" clip-path="url(#p9c9a103edd)" style="fill: #c1b19e; stroke: #c1b19e; stroke-linejoin: miter"/>
   </g>
   <g id="patch_33">
    <path d="M 790.92 140.4 
L 861.84 140.4 
L 861.84 75.6 
L 790.92 75.6 
z
" clip-path="url(#p9c9a103edd)" style="fill: #e3d7d7; stroke: #e3d7d7; stroke-linejoin: miter"/>
   </g>
   <g id="patch_34">
    <path d="M 861.84 140.4 
L 932.76 140.4 
L 932.76 75.6 
L 861.84 75.6 
z
" clip-path="url(#p9c9a103edd)" style="fill: #c2c3b3; stroke: #c2c3b3; stroke-linejoin: miter"/>
   </g>
   <g id="patch_35">
    <path d="M 932.76 140.4 
L 1003.68 140.4 
L 1003.68 75.6 
L 932.76 75.6 
z
" clip-path="url(#p9c9a103edd)" style="fill: #e3d7d7; stroke: #e3d7d7; stroke-linejoin: miter"/>
   </g>
   <g id="patch_36">
    <path d="M 1003.68 140.4 
L 1074.6 140.4 
L 1074.6 75.6 
L 1003.68 75.6 
z
" clip-path="url(#p9c9a103edd)" style="fill: #90856d; stroke: #90856d; stroke-linejoin: miter"/>
   </g>
   <g id="patch_37">
    <path d="M 1074.6 140.4 
L 1145.52 140.4 
L 1145.52 75.6 
L 1074.6 75.6 
z
" clip-path="url(#p9c9a103edd)" style="fill: #e0d9ca; stroke: #e0d9ca; stroke-linejoin: miter"/>
   </g>
   <g id="patch_38">
    <path d="M 1145.52 140.4 
L 1216.44 140.4 
L 1216.44 75.6 
L 1145.52 75.6 
z
" clip-path="url(#p9c9a103edd)" style="fill: #c9b8ae; stroke: #c9b8ae; stroke-linejoin: miter"/>
   </g>
   <g id="patch_39">
    <path d="M 1216.44 140.4 
L 1287.36 140.4 
L 1287.36 75.6 
L 1216.44 75.6 
z
" clip-path="url(#p9c9a103edd)" style="fill: #d4d3d3; stroke: #d4d3d3; stroke-linejoin: miter"/>
   </g>
   <g id="patch_40">
    <path d="M 1287.36 140.4 
L 1358.28 140.4 
L 1358.28 75.6 
L 1287.36 75.6 
z
" clip-path="url(#p9c9a103edd)" style="fill: #433b35; stroke: #433b35; stroke-linejoin: miter"/>
   </g>
   <g id="patch_41">
    <path d="M 1358.28 140.4 
L 1429.2 140.4 
L 1429.2 75.6 
L 1358.28 75.6 
z
" clip-path="url(#p9c9a103edd)" style="fill: #82604c; stroke: #82604c; stroke-linejoin: miter"/>
   </g>
   <g id="patch_42">
    <path d="M 10.8 205.2 
L 81.72 205.2 
L 81.72 140.4 
L 10.8 140.4 
z
" clip-path="url(#p9c9a103edd)" style="fill: #cabfb4; stroke: #cabfb4; stroke-linejoin: miter"/>
   </g>
  </g>
 </g>
 <defs>
  <clipPath id="p9c9a103edd">
   <rect x="10.8" y="10.8" width="1418.4" height="194.4"/>
  </clipPath>
 </defs>
</svg>
