<?xml version="1.0" encoding="utf-8" standalone="no"?>
<!DOCTYPE svg PUBLIC "-//W3C//DTD SVG 1.1//EN"
  "http://www.w3.org/Graphics/SVG/1.1/DTD/svg11.dtd">
<svg xmlns:xlink="http://www.w3.org/1999/xlink" width="1440pt" height="360pt" viewBox="0 0 1440 360" xmlns="http://www.w3.org/2000/svg" version="1.1">
 <metadata>
  <rdf:RDF xmlns:dc="http://purl.org/dc/elements/1.1/" xmlns:cc="http://creativecommons.org/ns#" xmlns:rdf="http://www.w3.org/1999/02/22-rdf-syntax-ns#">
   <cc:Work>
    <dc:type rdf:resource="http://purl.org/dc/dcmitype/StillImage"/>
    <dc:date>2025-05-04T17:21:07.058528</dc:date>
    <dc:format>image/svg+xml</dc:format>
    <dc:creator>
     <cc:Agent>
      <dc:title>Matplotlib v3.9.2, https://matplotlib.org/</dc:title>
     </cc:Agent>
    </dc:creator>
   </cc:Work>
  </rdf:RDF>
 </metadata>
 <defs>
  <style type="text/css">*{stroke-linejoin: round; stroke-linecap: butt}</style>
 </defs>
 <g id="figure_1">
  <g id="patch_1">
   <path d="M 0 360 
L 1440 360 
L 1440 0 
L 0 0 
z
" style="fill: #ffffff"/>
  </g>
  <g id="axes_1">
   <g id="patch_2">
    <path d="M 10.8 78.48 
L 81.72 78.48 
L 81.72 10.8 
L 10.8 10.8 
z
" clip-path="url(#p39a563f233)" style="fill: #423c35; stroke: #423c35; stroke-linejoin: miter"/>
   </g>
   <g id="patch_3">
    <path d="M 81.72 78.48 
L 152.64 78.48 
L 152.64 10.8 
L 81.72 10.8 
z
" clip-path="url(#p39a563f233)" style="fill: #423c35; stroke: #423c35; stroke-linejoin: miter"/>
   </g>
   <g id="patch_4">
    <path d="M 152.64 78.48 
L 223.56 78.48 
L 223.56 10.8 
L 152.64 10.8 
z
" clip-path="url(#p39a563f233)" style="fill: #ddd2cb; stroke: #ddd2cb; stroke-linejoin: miter"/>
   </g>
   <g id="patch_5">
    <path d="M 223.56 78.48 
L 294.48 78.48 
L 294.48 10.8 
L 223.56 10.8 
z
" clip-path="url(#p39a563f233)" style="fill: #b8a99c; stroke: #b8a99c; stroke-linejoin: miter"/>
   </g>
   <g id="patch_6">
    <path d="M 294.48 78.48 
L 365.4 78.48 
L 365.4 10.8 
L 294.48 10.8 
z
" clip-path="url(#p39a563f233)" style="fill: #3c3938; stroke: #3c3938; stroke-linejoin: miter"/>
   </g>
   <g id="patch_7">
    <path d="M 365.4 78.48 
L 436.32 78.48 
L 436.32 10.8 
L 365.4 10.8 
z
" clip-path="url(#p39a563f233)" style="fill: #77655c; stroke: #77655c; stroke-linejoin: miter"/>
   </g>
   <g id="patch_8">
    <path d="M 436.32 78.48 
L 507.24 78.48 
L 507.24 10.8 
L 436.32 10.8 
z
" clip-path="url(#p39a563f233)" style="fill: #cec3be; stroke: #cec3be; stroke-linejoin: miter"/>
   </g>
   <g id="patch_9">
    <path d="M 507.24 78.48 
L 578.16 78.48 
L 578.16 10.8 
L 507.24 10.8 
z
" clip-path="url(#p39a563f233)" style="fill: #3c362d; stroke: #3c362d; stroke-linejoin: miter"/>
   </g>
   <g id="patch_10">
    <path d="M 578.16 78.48 
L 649.08 78.48 
L 649.08 10.8 
L 578.16 10.8 
z
" clip-path="url(#p39a563f233)" style="fill: #33281d; stroke: #33281d; stroke-linejoin: miter"/>
   </g>
   <g id="patch_11">
    <path d="M 649.08 78.48 
L 720 78.48 
L 720 10.8 
L 649.08 10.8 
z
" clip-path="url(#p39a563f233)" style="fill: #d0c7c4; stroke: #d0c7c4; stroke-linejoin: miter"/>
   </g>
   <g id="patch_12">
    <path d="M 720 78.48 
L 790.92 78.48 
L 790.92 10.8 
L 720 10.8 
z
" clip-path="url(#p39a563f233)" style="fill: #d0c7c4; stroke: #d0c7c4; stroke-linejoin: miter"/>
   </g>
   <g id="patch_13">
    <path d="M 790.92 78.48 
L 861.84 78.48 
L 861.84 10.8 
L 790.92 10.8 
z
" clip-path="url(#p39a563f233)" style="fill: #d0c7c4; stroke: #d0c7c4; stroke-linejoin: miter"/>
   </g>
   <g id="patch_14">
    <path d="M 861.84 78.48 
L 932.76 78.48 
L 932.76 10.8 
L 861.84 10.8 
z
" clip-path="url(#p39a563f233)" style="fill: #d0c7c4; stroke: #d0c7c4; stroke-linejoin: miter"/>
   </g>
   <g id="patch_15">
    <path d="M 932.76 78.48 
L 1003.68 78.48 
L 1003.68 10.8 
L 932.76 10.8 
z
" clip-path="url(#p39a563f233)" style="fill: #d0c7c4; stroke: #d0c7c4; stroke-linejoin: miter"/>
   </g>
   <g id="patch_16">
    <path d="M 1003.68 78.48 
L 1074.6 78.48 
L 1074.6 10.8 
L 1003.68 10.8 
z
" clip-path="url(#p39a563f233)" style="fill: #d5c8ac; stroke: #d5c8ac; stroke-linejoin: miter"/>
   </g>
   <g id="patch_17">
    <path d="M 1074.6 78.48 
L 1145.52 78.48 
L 1145.52 10.8 
L 1074.6 10.8 
z
" clip-path="url(#p39a563f233)" style="fill: #d5aa86; stroke: #d5aa86; stroke-linejoin: miter"/>
   </g>
   <g id="patch_18">
    <path d="M 1145.52 78.48 
L 1216.44 78.48 
L 1216.44 10.8 
L 1145.52 10.8 
z
" clip-path="url(#p39a563f233)" style="fill: #cbccbc; stroke: #cbccbc; stroke-linejoin: miter"/>
   </g>
   <g id="patch_19">
    <path d="M 1216.44 78.48 
L 1287.36 78.48 
L 1287.36 10.8 
L 1216.44 10.8 
z
" clip-path="url(#p39a563f233)" style="fill: #cbbab3; stroke: #cbbab3; stroke-linejoin: miter"/>
   </g>
   <g id="patch_20">
    <path d="M 1287.36 78.48 
L 1358.28 78.48 
L 1358.28 10.8 
L 1287.36 10.8 
z
" clip-path="url(#p39a563f233)" style="fill: #cbbab3; stroke: #cbbab3; stroke-linejoin: miter"/>
   </g>
   <g id="patch_21">
    <path d="M 1358.28 78.48 
L 1429.2 78.48 
L 1429.2 10.8 
L 1358.28 10.8 
z
" clip-path="url(#p39a563f233)" style="fill: #cab9b5; stroke: #cab9b5; stroke-linejoin: miter"/>
   </g>
   <g id="patch_22">
    <path d="M 10.8 146.16 
L 81.72 146.16 
L 81.72 78.48 
L 10.8 78.48 
z
" clip-path="url(#p39a563f233)" style="fill: #a08465; stroke: #a08465; stroke-linejoin: miter"/>
   </g>
   <g id="patch_23">
    <path d="M 81.72 146.16 
L 152.64 146.16 
L 152.64 78.48 
L 81.72 78.48 
z
" clip-path="url(#p39a563f233)" style="fill: #977e61; stroke: #977e61; stroke-linejoin: miter"/>
   </g>
   <g id="patch_24">
    <path d="M 152.64 146.16 
L 223.56 146.16 
L 223.56 78.48 
L 152.64 78.48 
z
" clip-path="url(#p39a563f233)" style="fill: #d0c2b5; stroke: #d0c2b5; stroke-linejoin: miter"/>
   </g>
   <g id="patch_25">
    <path d="M 223.56 146.16 
L 294.48 146.16 
L 294.48 78.48 
L 223.56 78.48 
z
" clip-path="url(#p39a563f233)" style="fill: #242621; stroke: #242621; stroke-linejoin: miter"/>
   </g>
   <g id="patch_26">
    <path d="M 294.48 146.16 
L 365.4 146.16 
L 365.4 78.48 
L 294.48 78.48 
z
" clip-path="url(#p39a563f233)" style="fill: #c3bfb9; stroke: #c3bfb9; stroke-linejoin: miter"/>
   </g>
   <g id="patch_27">
    <path d="M 365.4 146.16 
L 436.32 146.16 
L 436.32 78.48 
L 365.4 78.48 
z
" clip-path="url(#p39a563f233)" style="fill: #c4c4c3; stroke: #c4c4c3; stroke-linejoin: miter"/>
   </g>
   <g id="patch_28">
    <path d="M 436.32 146.16 
L 507.24 146.16 
L 507.24 78.48 
L 436.32 78.48 
z
" clip-path="url(#p39a563f233)" style="fill: #b8ab9d; stroke: #b8ab9d; stroke-linejoin: miter"/>
   </g>
   <g id="patch_29">
    <path d="M 507.24 146.16 
L 578.16 146.16 
L 578.16 78.48 
L 507.24 78.48 
z
" clip-path="url(#p39a563f233)" style="fill: #be8b63; stroke: #be8b63; stroke-linejoin: miter"/>
   </g>
   <g id="patch_30">
    <path d="M 578.16 146.16 
L 649.08 146.16 
L 649.08 78.48 
L 578.16 78.48 
z
" clip-path="url(#p39a563f233)" style="fill: #385a45; stroke: #385a45; stroke-linejoin: miter"/>
   </g>
   <g id="patch_31">
    <path d="M 649.08 146.16 
L 720 146.16 
L 720 78.48 
L 649.08 78.48 
z
" clip-path="url(#p39a563f233)" style="fill: #385a45; stroke: #385a45; stroke-linejoin: miter"/>
   </g>
   <g id="patch_32">
    <path d="M 720 146.16 
L 790.92 146.16 
L 790.92 78.48 
L 720 78.48 
z
" clip-path="url(#p39a563f233)" style="fill: #c6bcb5; stroke: #c6bcb5; stroke-linejoin: miter"/>
   </g>
   <g id="patch_33">
    <path d="M 790.92 146.16 
L 861.84 146.16 
L 861.84 78.48 
L 790.92 78.48 
z
" clip-path="url(#p39a563f233)" style="fill: #c6bcb5; stroke: #c6bcb5; stroke-linejoin: miter"/>
   </g>
   <g id="patch_34">
    <path d="M 861.84 146.16 
L 932.76 146.16 
L 932.76 78.48 
L 861.84 78.48 
z
" clip-path="url(#p39a563f233)" style="fill: #8d6055; stroke: #8d6055; stroke-linejoin: miter"/>
   </g>
   <g id="patch_35">
    <path d="M 932.76 146.16 
L 1003.68 146.16 
L 1003.68 78.48 
L 932.76 78.48 
z
" clip-path="url(#p39a563f233)" style="fill: #bdb4ae; stroke: #bdb4ae; stroke-linejoin: miter"/>
   </g>
   <g id="patch_36">
    <path d="M 1003.68 146.16 
L 1074.6 146.16 
L 1074.6 78.48 
L 1003.68 78.48 
z
" clip-path="url(#p39a563f233)" style="fill: #b8aea6; stroke: #b8aea6; stroke-linejoin: miter"/>
   </g>
   <g id="patch_37">
    <path d="M 1074.6 146.16 
L 1145.52 146.16 
L 1145.52 78.48 
L 1074.6 78.48 
z
" clip-path="url(#p39a563f233)" style="fill: #b8aea6; stroke: #b8aea6; stroke-linejoin: miter"/>
   </g>
   <g id="patch_38">
    <path d="M 1145.52 146.16 
L 1216.44 146.16 
L 1216.44 78.48 
L 1145.52 78.48 
z
" clip-path="url(#p39a563f233)" style="fill: #b8afa6; stroke: #b8afa6; stroke-linejoin: miter"/>
   </g>
   <g id="patch_39">
    <path d="M 1216.44 146.16 
L 1287.36 146.16 
L 1287.36 78.48 
L 1216.44 78.48 
z
" clip-path="url(#p39a563f233)" style="fill: #ae8966; stroke: #ae8966; stroke-linejoin: miter"/>
   </g>
   <g id="patch_40">
    <path d="M 1287.36 146.16 
L 1358.28 146.16 
L 1358.28 78.48 
L 1287.36 78.48 
z
" clip-path="url(#p39a563f233)" style="fill: #d1cbc6; stroke: #d1cbc6; stroke-linejoin: miter"/>
   </g>
   <g id="patch_41">
    <path d="M 1358.28 146.16 
L 1429.2 146.16 
L 1429.2 78.48 
L 1358.28 78.48 
z
" clip-path="url(#p39a563f233)" style="fill: #bca583; stroke: #bca583; stroke-linejoin: miter"/>
   </g>
   <g id="patch_42">
    <path d="M 10.8 213.84 
L 81.72 213.84 
L 81.72 146.16 
L 10.8 146.16 
z
" clip-path="url(#p39a563f233)" style="fill: #a78068; stroke: #a78068; stroke-linejoin: miter"/>
   </g>
   <g id="patch_43">
    <path d="M 81.72 213.84 
L 152.64 213.84 
L 152.64 146.16 
L 81.72 146.16 
z
" clip-path="url(#p39a563f233)" style="fill: #c7bbaa; stroke: #c7bbaa; stroke-linejoin: miter"/>
   </g>
   <g id="patch_44">
    <path d="M 152.64 213.84 
L 223.56 213.84 
L 223.56 146.16 
L 152.64 146.16 
z
" clip-path="url(#p39a563f233)" style="fill: #422f22; stroke: #422f22; stroke-linejoin: miter"/>
   </g>
   <g id="patch_45">
    <path d="M 223.56 213.84 
L 294.48 213.84 
L 294.48 146.16 
L 223.56 146.16 
z
" clip-path="url(#p39a563f233)" style="fill: #373230; stroke: #373230; stroke-linejoin: miter"/>
   </g>
   <g id="patch_46">
    <path d="M 294.48 213.84 
L 365.4 213.84 
L 365.4 146.16 
L 294.48 146.16 
z
" clip-path="url(#p39a563f233)" style="fill: #c3bcb6; stroke: #c3bcb6; stroke-linejoin: miter"/>
   </g>
   <g id="patch_47">
    <path d="M 365.4 213.84 
L 436.32 213.84 
L 436.32 146.16 
L 365.4 146.16 
z
" clip-path="url(#p39a563f233)" style="fill: #c4bdb5; stroke: #c4bdb5; stroke-linejoin: miter"/>
   </g>
   <g id="patch_48">
    <path d="M 436.32 213.84 
L 507.24 213.84 
L 507.24 146.16 
L 436.32 146.16 
z
" clip-path="url(#p39a563f233)" style="fill: #cfbbac; stroke: #cfbbac; stroke-linejoin: miter"/>
   </g>
   <g id="patch_49">
    <path d="M 507.24 213.84 
L 578.16 213.84 
L 578.16 146.16 
L 507.24 146.16 
z
" clip-path="url(#p39a563f233)" style="fill: #463a42; stroke: #463a42; stroke-linejoin: miter"/>
   </g>
   <g id="patch_50">
    <path d="M 578.16 213.84 
L 649.08 213.84 
L 649.08 146.16 
L 578.16 146.16 
z
" clip-path="url(#p39a563f233)" style="fill: #ac9882; stroke: #ac9882; stroke-linejoin: miter"/>
   </g>
   <g id="patch_51">
    <path d="M 649.08 213.84 
L 720 213.84 
L 720 146.16 
L 649.08 146.16 
z
" clip-path="url(#p39a563f233)" style="fill: #c2ad9b; stroke: #c2ad9b; stroke-linejoin: miter"/>
   </g>
   <g id="patch_52">
    <path d="M 720 213.84 
L 790.92 213.84 
L 790.92 146.16 
L 720 146.16 
z
" clip-path="url(#p39a563f233)" style="fill: #887467; stroke: #887467; stroke-linejoin: miter"/>
   </g>
   <g id="patch_53">
    <path d="M 790.92 213.84 
L 861.84 213.84 
L 861.84 146.16 
L 790.92 146.16 
z
" clip-path="url(#p39a563f233)" style="fill: #35302c; stroke: #35302c; stroke-linejoin: miter"/>
   </g>
   <g id="patch_54">
    <path d="M 861.84 213.84 
L 932.76 213.84 
L 932.76 146.16 
L 861.84 146.16 
z
" clip-path="url(#p39a563f233)" style="fill: #443832; stroke: #443832; stroke-linejoin: miter"/>
   </g>
   <g id="patch_55">
    <path d="M 932.76 213.84 
L 1003.68 213.84 
L 1003.68 146.16 
L 932.76 146.16 
z
" clip-path="url(#p39a563f233)" style="fill: #d6cfbe; stroke: #d6cfbe; stroke-linejoin: miter"/>
   </g>
   <g id="patch_56">
    <path d="M 1003.68 213.84 
L 1074.6 213.84 
L 1074.6 146.16 
L 1003.68 146.16 
z
" clip-path="url(#p39a563f233)" style="fill: #d1b39f; stroke: #d1b39f; stroke-linejoin: miter"/>
   </g>
   <g id="patch_57">
    <path d="M 1074.6 213.84 
L 1145.52 213.84 
L 1145.52 146.16 
L 1074.6 146.16 
z
" clip-path="url(#p39a563f233)" style="fill: #403229; stroke: #403229; stroke-linejoin: miter"/>
   </g>
   <g id="patch_58">
    <path d="M 1145.52 213.84 
L 1216.44 213.84 
L 1216.44 146.16 
L 1145.52 146.16 
z
" clip-path="url(#p39a563f233)" style="fill: #26373b; stroke: #26373b; stroke-linejoin: miter"/>
   </g>
   <g id="patch_59">
    <path d="M 1216.44 213.84 
L 1287.36 213.84 
L 1287.36 146.16 
L 1216.44 146.16 
z
" clip-path="url(#p39a563f233)" style="fill: #e4c2b3; stroke: #e4c2b3; stroke-linejoin: miter"/>
   </g>
   <g id="patch_60">
    <path d="M 1287.36 213.84 
L 1358.28 213.84 
L 1358.28 146.16 
L 1287.36 146.16 
z
" clip-path="url(#p39a563f233)" style="fill: #29221d; stroke: #29221d; stroke-linejoin: miter"/>
   </g>
   <g id="patch_61">
    <path d="M 1358.28 213.84 
L 1429.2 213.84 
L 1429.2 146.16 
L 1358.28 146.16 
z
" clip-path="url(#p39a563f233)" style="fill: #917f69; stroke: #917f69; stroke-linejoin: miter"/>
   </g>
   <g id="patch_62">
    <path d="M 10.8 281.52 
L 81.72 281.52 
L 81.72 213.84 
L 10.8 213.84 
z
" clip-path="url(#p39a563f233)" style="fill: #393731; stroke: #393731; stroke-linejoin: miter"/>
   </g>
   <g id="patch_63">
    <path d="M 81.72 281.52 
L 152.64 281.52 
L 152.64 213.84 
L 81.72 213.84 
z
" clip-path="url(#p39a563f233)" style="fill: #3f3c32; stroke: #3f3c32; stroke-linejoin: miter"/>
   </g>
   <g id="patch_64">
    <path d="M 152.64 281.52 
L 223.56 281.52 
L 223.56 213.84 
L 152.64 213.84 
z
" clip-path="url(#p39a563f233)" style="fill: #c1bcb2; stroke: #c1bcb2; stroke-linejoin: miter"/>
   </g>
   <g id="patch_65">
    <path d="M 223.56 281.52 
L 294.48 281.52 
L 294.48 213.84 
L 223.56 213.84 
z
" clip-path="url(#p39a563f233)" style="fill: #daccb6; stroke: #daccb6; stroke-linejoin: miter"/>
   </g>
   <g id="patch_66">
    <path d="M 294.48 281.52 
L 365.4 281.52 
L 365.4 213.84 
L 294.48 213.84 
z
" clip-path="url(#p39a563f233)" style="fill: #2f3c27; stroke: #2f3c27; stroke-linejoin: miter"/>
   </g>
   <g id="patch_67">
    <path d="M 365.4 281.52 
L 436.32 281.52 
L 436.32 213.84 
L 365.4 213.84 
z
" clip-path="url(#p39a563f233)" style="fill: #e2dcd3; stroke: #e2dcd3; stroke-linejoin: miter"/>
   </g>
   <g id="patch_68">
    <path d="M 436.32 281.52 
L 507.24 281.52 
L 507.24 213.84 
L 436.32 213.84 
z
" clip-path="url(#p39a563f233)" style="fill: #a49184; stroke: #a49184; stroke-linejoin: miter"/>
   </g>
   <g id="patch_69">
    <path d="M 507.24 281.52 
L 578.16 281.52 
L 578.16 213.84 
L 507.24 213.84 
z
" clip-path="url(#p39a563f233)" style="fill: #3a2d24; stroke: #3a2d24; stroke-linejoin: miter"/>
   </g>
   <g id="patch_70">
    <path d="M 578.16 281.52 
L 649.08 281.52 
L 649.08 213.84 
L 578.16 213.84 
z
" clip-path="url(#p39a563f233)" style="fill: #36362b; stroke: #36362b; stroke-linejoin: miter"/>
   </g>
   <g id="patch_71">
    <path d="M 649.08 281.52 
L 720 281.52 
L 720 213.84 
L 649.08 213.84 
z
" clip-path="url(#p39a563f233)" style="fill: #d5d9c8; stroke: #d5d9c8; stroke-linejoin: miter"/>
   </g>
   <g id="patch_72">
    <path d="M 720 281.52 
L 790.92 281.52 
L 790.92 213.84 
L 720 213.84 
z
" clip-path="url(#p39a563f233)" style="fill: #c6c0bd; stroke: #c6c0bd; stroke-linejoin: miter"/>
   </g>
   <g id="patch_73">
    <path d="M 790.92 281.52 
L 861.84 281.52 
L 861.84 213.84 
L 790.92 213.84 
z
" clip-path="url(#p39a563f233)" style="fill: #c8c1b8; stroke: #c8c1b8; stroke-linejoin: miter"/>
   </g>
   <g id="patch_74">
    <path d="M 861.84 281.52 
L 932.76 281.52 
L 932.76 213.84 
L 861.84 213.84 
z
" clip-path="url(#p39a563f233)" style="fill: #3e3a36; stroke: #3e3a36; stroke-linejoin: miter"/>
   </g>
   <g id="patch_75">
    <path d="M 932.76 281.52 
L 1003.68 281.52 
L 1003.68 213.84 
L 932.76 213.84 
z
" clip-path="url(#p39a563f233)" style="fill: #3e3a36; stroke: #3e3a36; stroke-linejoin: miter"/>
   </g>
   <g id="patch_76">
    <path d="M 1003.68 281.52 
L 1074.6 281.52 
L 1074.6 213.84 
L 1003.68 213.84 
z
" clip-path="url(#p39a563f233)" style="fill: #36322b; stroke: #36322b; stroke-linejoin: miter"/>
   </g>
   <g id="patch_77">
    <path d="M 1074.6 281.52 
L 1145.52 281.52 
L 1145.52 213.84 
L 1074.6 213.84 
z
" clip-path="url(#p39a563f233)" style="fill: #cfc9b6; stroke: #cfc9b6; stroke-linejoin: miter"/>
   </g>
   <g id="patch_78">
    <path d="M 1145.52 281.52 
L 1216.44 281.52 
L 1216.44 213.84 
L 1145.52 213.84 
z
" clip-path="url(#p39a563f233)" style="fill: #e1beb4; stroke: #e1beb4; stroke-linejoin: miter"/>
   </g>
   <g id="patch_79">
    <path d="M 1216.44 281.52 
L 1287.36 281.52 
L 1287.36 213.84 
L 1216.44 213.84 
z
" clip-path="url(#p39a563f233)" style="fill: #c8b9a7; stroke: #c8b9a7; stroke-linejoin: miter"/>
   </g>
   <g id="patch_80">
    <path d="M 1287.36 281.52 
L 1358.28 281.52 
L 1358.28 213.84 
L 1287.36 213.84 
z
" clip-path="url(#p39a563f233)" style="fill: #dfd6c9; stroke: #dfd6c9; stroke-linejoin: miter"/>
   </g>
   <g id="patch_81">
    <path d="M 1358.28 281.52 
L 1429.2 281.52 
L 1429.2 213.84 
L 1358.28 213.84 
z
" clip-path="url(#p39a563f233)" style="fill: #c1bcb3; stroke: #c1bcb3; stroke-linejoin: miter"/>
   </g>
   <g id="patch_82">
    <path d="M 10.8 349.2 
L 81.72 349.2 
L 81.72 281.52 
L 10.8 281.52 
z
" clip-path="url(#p39a563f233)" style="fill: #b1a495; stroke: #b1a495; stroke-linejoin: miter"/>
   </g>
   <g id="patch_83">
    <path d="M 81.72 349.2 
L 152.64 349.2 
L 152.64 281.52 
L 81.72 281.52 
z
" clip-path="url(#p39a563f233)" style="fill: #434039; stroke: #434039; stroke-linejoin: miter"/>
   </g>
   <g id="patch_84">
    <path d="M 152.64 349.2 
L 223.56 349.2 
L 223.56 281.52 
L 152.64 281.52 
z
" clip-path="url(#p39a563f233)" style="fill: #3c4139; stroke: #3c4139; stroke-linejoin: miter"/>
   </g>
   <g id="patch_85">
    <path d="M 223.56 349.2 
L 294.48 349.2 
L 294.48 281.52 
L 223.56 281.52 
z
" clip-path="url(#p39a563f233)" style="fill: #393430; stroke: #393430; stroke-linejoin: miter"/>
   </g>
   <g id="patch_86">
    <path d="M 294.48 349.2 
L 365.4 349.2 
L 365.4 281.52 
L 294.48 281.52 
z
" clip-path="url(#p39a563f233)" style="fill: #2f3c27; stroke: #2f3c27; stroke-linejoin: miter"/>
   </g>
   <g id="patch_87">
    <path d="M 365.4 349.2 
L 436.32 349.2 
L 436.32 281.52 
L 365.4 281.52 
z
" clip-path="url(#p39a563f233)" style="fill: #b6a38e; stroke: #b6a38e; stroke-linejoin: miter"/>
   </g>
   <g id="patch_88">
    <path d="M 436.32 349.2 
L 507.24 349.2 
L 507.24 281.52 
L 436.32 281.52 
z
" clip-path="url(#p39a563f233)" style="fill: #262119; stroke: #262119; stroke-linejoin: miter"/>
   </g>
   <g id="patch_89">
    <path d="M 507.24 349.2 
L 578.16 349.2 
L 578.16 281.52 
L 507.24 281.52 
z
" clip-path="url(#p39a563f233)" style="fill: #bfb6af; stroke: #bfb6af; stroke-linejoin: miter"/>
   </g>
   <g id="patch_90">
    <path d="M 578.16 349.2 
L 649.08 349.2 
L 649.08 281.52 
L 578.16 281.52 
z
" clip-path="url(#p39a563f233)" style="fill: #72674e; stroke: #72674e; stroke-linejoin: miter"/>
   </g>
   <g id="patch_91">
    <path d="M 649.08 349.2 
L 720 349.2 
L 720 281.52 
L 649.08 281.52 
z
" clip-path="url(#p39a563f233)" style="fill: #392f2d; stroke: #392f2d; stroke-linejoin: miter"/>
   </g>
  </g>
 </g>
 <defs>
  <clipPath id="p39a563f233">
   <rect x="10.8" y="10.8" width="1418.4" height="338.4"/>
  </clipPath>
 </defs>
</svg>
