<?xml version="1.0" encoding="utf-8" standalone="no"?>
<!DOCTYPE svg PUBLIC "-//W3C//DTD SVG 1.1//EN"
  "http://www.w3.org/Graphics/SVG/1.1/DTD/svg11.dtd">
<svg xmlns:xlink="http://www.w3.org/1999/xlink" width="1440pt" height="288pt" viewBox="0 0 1440 288" xmlns="http://www.w3.org/2000/svg" version="1.1">
 <metadata>
  <rdf:RDF xmlns:dc="http://purl.org/dc/elements/1.1/" xmlns:cc="http://creativecommons.org/ns#" xmlns:rdf="http://www.w3.org/1999/02/22-rdf-syntax-ns#">
   <cc:Work>
    <dc:type rdf:resource="http://purl.org/dc/dcmitype/StillImage"/>
    <dc:date>2025-05-04T17:21:05.767942</dc:date>
    <dc:format>image/svg+xml</dc:format>
    <dc:creator>
     <cc:Agent>
      <dc:title>Matplotlib v3.9.2, https://matplotlib.org/</dc:title>
     </cc:Agent>
    </dc:creator>
   </cc:Work>
  </rdf:RDF>
 </metadata>
 <defs>
  <style type="text/css">*{stroke-linejoin: round; stroke-linecap: butt}</style>
 </defs>
 <g id="figure_1">
  <g id="patch_1">
   <path d="M 0 288 
L 1440 288 
L 1440 0 
L 0 0 
z
" style="fill: #ffffff"/>
  </g>
  <g id="axes_1">
   <g id="patch_2">
    <path d="M 10.8 77.4 
L 81.72 77.4 
L 81.72 10.8 
L 10.8 10.8 
z
" clip-path="url(#paf9210254f)" style="fill: #93918e; stroke: #93918e; stroke-linejoin: miter"/>
   </g>
   <g id="patch_3">
    <path d="M 81.72 77.4 
L 152.64 77.4 
L 152.64 10.8 
L 81.72 10.8 
z
" clip-path="url(#paf9210254f)" style="fill: #93918e; stroke: #93918e; stroke-linejoin: miter"/>
   </g>
   <g id="patch_4">
    <path d="M 152.64 77.4 
L 223.56 77.4 
L 223.56 10.8 
L 152.64 10.8 
z
" clip-path="url(#paf9210254f)" style="fill: #daccbc; stroke: #daccbc; stroke-linejoin: miter"/>
   </g>
   <g id="patch_5">
    <path d="M 223.56 77.4 
L 294.48 77.4 
L 294.48 10.8 
L 223.56 10.8 
z
" clip-path="url(#paf9210254f)" style="fill: #ccc3b6; stroke: #ccc3b6; stroke-linejoin: miter"/>
   </g>
   <g id="patch_6">
    <path d="M 294.48 77.4 
L 365.4 77.4 
L 365.4 10.8 
L 294.48 10.8 
z
" clip-path="url(#paf9210254f)" style="fill: #7e7266; stroke: #7e7266; stroke-linejoin: miter"/>
   </g>
   <g id="patch_7">
    <path d="M 365.4 77.4 
L 436.32 77.4 
L 436.32 10.8 
L 365.4 10.8 
z
" clip-path="url(#paf9210254f)" style="fill: #6f6850; stroke: #6f6850; stroke-linejoin: miter"/>
   </g>
   <g id="patch_8">
    <path d="M 436.32 77.4 
L 507.24 77.4 
L 507.24 10.8 
L 436.32 10.8 
z
" clip-path="url(#paf9210254f)" style="fill: #c8b9ad; stroke: #c8b9ad; stroke-linejoin: miter"/>
   </g>
   <g id="patch_9">
    <path d="M 507.24 77.4 
L 578.16 77.4 
L 578.16 10.8 
L 507.24 10.8 
z
" clip-path="url(#paf9210254f)" style="fill: #302d28; stroke: #302d28; stroke-linejoin: miter"/>
   </g>
   <g id="patch_10">
    <path d="M 578.16 77.4 
L 649.08 77.4 
L 649.08 10.8 
L 578.16 10.8 
z
" clip-path="url(#paf9210254f)" style="fill: #42322b; stroke: #42322b; stroke-linejoin: miter"/>
   </g>
   <g id="patch_11">
    <path d="M 649.08 77.4 
L 720 77.4 
L 720 10.8 
L 649.08 10.8 
z
" clip-path="url(#paf9210254f)" style="fill: #42322b; stroke: #42322b; stroke-linejoin: miter"/>
   </g>
   <g id="patch_12">
    <path d="M 720 77.4 
L 790.92 77.4 
L 790.92 10.8 
L 720 10.8 
z
" clip-path="url(#paf9210254f)" style="fill: #42322b; stroke: #42322b; stroke-linejoin: miter"/>
   </g>
   <g id="patch_13">
    <path d="M 790.92 77.4 
L 861.84 77.4 
L 861.84 10.8 
L 790.92 10.8 
z
" clip-path="url(#paf9210254f)" style="fill: #b9bab7; stroke: #b9bab7; stroke-linejoin: miter"/>
   </g>
   <g id="patch_14">
    <path d="M 861.84 77.4 
L 932.76 77.4 
L 932.76 10.8 
L 861.84 10.8 
z
" clip-path="url(#paf9210254f)" style="fill: #918a86; stroke: #918a86; stroke-linejoin: miter"/>
   </g>
   <g id="patch_15">
    <path d="M 932.76 77.4 
L 1003.68 77.4 
L 1003.68 10.8 
L 932.76 10.8 
z
" clip-path="url(#paf9210254f)" style="fill: #ded3c3; stroke: #ded3c3; stroke-linejoin: miter"/>
   </g>
   <g id="patch_16">
    <path d="M 1003.68 77.4 
L 1074.6 77.4 
L 1074.6 10.8 
L 1003.68 10.8 
z
" clip-path="url(#paf9210254f)" style="fill: #9c7c5f; stroke: #9c7c5f; stroke-linejoin: miter"/>
   </g>
   <g id="patch_17">
    <path d="M 1074.6 77.4 
L 1145.52 77.4 
L 1145.52 10.8 
L 1074.6 10.8 
z
" clip-path="url(#paf9210254f)" style="fill: #9c7c5f; stroke: #9c7c5f; stroke-linejoin: miter"/>
   </g>
   <g id="patch_18">
    <path d="M 1145.52 77.4 
L 1216.44 77.4 
L 1216.44 10.8 
L 1145.52 10.8 
z
" clip-path="url(#paf9210254f)" style="fill: #b2a79e; stroke: #b2a79e; stroke-linejoin: miter"/>
   </g>
   <g id="patch_19">
    <path d="M 1216.44 77.4 
L 1287.36 77.4 
L 1287.36 10.8 
L 1216.44 10.8 
z
" clip-path="url(#paf9210254f)" style="fill: #9c7c5f; stroke: #9c7c5f; stroke-linejoin: miter"/>
   </g>
   <g id="patch_20">
    <path d="M 1287.36 77.4 
L 1358.28 77.4 
L 1358.28 10.8 
L 1287.36 10.8 
z
" clip-path="url(#paf9210254f)" style="fill: #776050; stroke: #776050; stroke-linejoin: miter"/>
   </g>
   <g id="patch_21">
    <path d="M 1358.28 77.4 
L 1429.2 77.4 
L 1429.2 10.8 
L 1358.28 10.8 
z
" clip-path="url(#paf9210254f)" style="fill: #302d28; stroke: #302d28; stroke-linejoin: miter"/>
   </g>
   <g id="patch_22">
    <path d="M 10.8 144 
L 81.72 144 
L 81.72 77.4 
L 10.8 77.4 
z
" clip-path="url(#paf9210254f)" style="fill: #372e2b; stroke: #372e2b; stroke-linejoin: miter"/>
   </g>
   <g id="patch_23">
    <path d="M 81.72 144 
L 152.64 144 
L 152.64 77.4 
L 81.72 77.4 
z
" clip-path="url(#paf9210254f)" style="fill: #372e2b; stroke: #372e2b; stroke-linejoin: miter"/>
   </g>
   <g id="patch_24">
    <path d="M 152.64 144 
L 223.56 144 
L 223.56 77.4 
L 152.64 77.4 
z
" clip-path="url(#paf9210254f)" style="fill: #b19b85; stroke: #b19b85; stroke-linejoin: miter"/>
   </g>
   <g id="patch_25">
    <path d="M 223.56 144 
L 294.48 144 
L 294.48 77.4 
L 223.56 77.4 
z
" clip-path="url(#paf9210254f)" style="fill: #d8bdb1; stroke: #d8bdb1; stroke-linejoin: miter"/>
   </g>
   <g id="patch_26">
    <path d="M 294.48 144 
L 365.4 144 
L 365.4 77.4 
L 294.48 77.4 
z
" clip-path="url(#paf9210254f)" style="fill: #d8bdb1; stroke: #d8bdb1; stroke-linejoin: miter"/>
   </g>
   <g id="patch_27">
    <path d="M 365.4 144 
L 436.32 144 
L 436.32 77.4 
L 365.4 77.4 
z
" clip-path="url(#paf9210254f)" style="fill: #9e724c; stroke: #9e724c; stroke-linejoin: miter"/>
   </g>
   <g id="patch_28">
    <path d="M 436.32 144 
L 507.24 144 
L 507.24 77.4 
L 436.32 77.4 
z
" clip-path="url(#paf9210254f)" style="fill: #bcb5a7; stroke: #bcb5a7; stroke-linejoin: miter"/>
   </g>
   <g id="patch_29">
    <path d="M 507.24 144 
L 578.16 144 
L 578.16 77.4 
L 507.24 77.4 
z
" clip-path="url(#paf9210254f)" style="fill: #c4bbae; stroke: #c4bbae; stroke-linejoin: miter"/>
   </g>
   <g id="patch_30">
    <path d="M 578.16 144 
L 649.08 144 
L 649.08 77.4 
L 578.16 77.4 
z
" clip-path="url(#paf9210254f)" style="fill: #b3b3ae; stroke: #b3b3ae; stroke-linejoin: miter"/>
   </g>
   <g id="patch_31">
    <path d="M 649.08 144 
L 720 144 
L 720 77.4 
L 649.08 77.4 
z
" clip-path="url(#paf9210254f)" style="fill: #b8b3ae; stroke: #b8b3ae; stroke-linejoin: miter"/>
   </g>
   <g id="patch_32">
    <path d="M 720 144 
L 790.92 144 
L 790.92 77.4 
L 720 77.4 
z
" clip-path="url(#paf9210254f)" style="fill: #b8b3ae; stroke: #b8b3ae; stroke-linejoin: miter"/>
   </g>
   <g id="patch_33">
    <path d="M 790.92 144 
L 861.84 144 
L 861.84 77.4 
L 790.92 77.4 
z
" clip-path="url(#paf9210254f)" style="fill: #c3bcb0; stroke: #c3bcb0; stroke-linejoin: miter"/>
   </g>
   <g id="patch_34">
    <path d="M 861.84 144 
L 932.76 144 
L 932.76 77.4 
L 861.84 77.4 
z
" clip-path="url(#paf9210254f)" style="fill: #dec6b9; stroke: #dec6b9; stroke-linejoin: miter"/>
   </g>
   <g id="patch_35">
    <path d="M 932.76 144 
L 1003.68 144 
L 1003.68 77.4 
L 932.76 77.4 
z
" clip-path="url(#paf9210254f)" style="fill: #c8b9a5; stroke: #c8b9a5; stroke-linejoin: miter"/>
   </g>
   <g id="patch_36">
    <path d="M 1003.68 144 
L 1074.6 144 
L 1074.6 77.4 
L 1003.68 77.4 
z
" clip-path="url(#paf9210254f)" style="fill: #9c7959; stroke: #9c7959; stroke-linejoin: miter"/>
   </g>
   <g id="patch_37">
    <path d="M 1074.6 144 
L 1145.52 144 
L 1145.52 77.4 
L 1074.6 77.4 
z
" clip-path="url(#paf9210254f)" style="fill: #a69177; stroke: #a69177; stroke-linejoin: miter"/>
   </g>
   <g id="patch_38">
    <path d="M 1145.52 144 
L 1216.44 144 
L 1216.44 77.4 
L 1145.52 77.4 
z
" clip-path="url(#paf9210254f)" style="fill: #c5bbb0; stroke: #c5bbb0; stroke-linejoin: miter"/>
   </g>
   <g id="patch_39">
    <path d="M 1216.44 144 
L 1287.36 144 
L 1287.36 77.4 
L 1216.44 77.4 
z
" clip-path="url(#paf9210254f)" style="fill: #3f464a; stroke: #3f464a; stroke-linejoin: miter"/>
   </g>
   <g id="patch_40">
    <path d="M 1287.36 144 
L 1358.28 144 
L 1358.28 77.4 
L 1287.36 77.4 
z
" clip-path="url(#paf9210254f)" style="fill: #151416; stroke: #151416; stroke-linejoin: miter"/>
   </g>
   <g id="patch_41">
    <path d="M 1358.28 144 
L 1429.2 144 
L 1429.2 77.4 
L 1358.28 77.4 
z
" clip-path="url(#paf9210254f)" style="fill: #453e3a; stroke: #453e3a; stroke-linejoin: miter"/>
   </g>
   <g id="patch_42">
    <path d="M 10.8 210.6 
L 81.72 210.6 
L 81.72 144 
L 10.8 144 
z
" clip-path="url(#paf9210254f)" style="fill: #403c35; stroke: #403c35; stroke-linejoin: miter"/>
   </g>
   <g id="patch_43">
    <path d="M 81.72 210.6 
L 152.64 210.6 
L 152.64 144 
L 81.72 144 
z
" clip-path="url(#paf9210254f)" style="fill: #3f4541; stroke: #3f4541; stroke-linejoin: miter"/>
   </g>
   <g id="patch_44">
    <path d="M 152.64 210.6 
L 223.56 210.6 
L 223.56 144 
L 152.64 144 
z
" clip-path="url(#paf9210254f)" style="fill: #3f4541; stroke: #3f4541; stroke-linejoin: miter"/>
   </g>
   <g id="patch_45">
    <path d="M 223.56 210.6 
L 294.48 210.6 
L 294.48 144 
L 223.56 144 
z
" clip-path="url(#paf9210254f)" style="fill: #3f4541; stroke: #3f4541; stroke-linejoin: miter"/>
   </g>
   <g id="patch_46">
    <path d="M 294.48 210.6 
L 365.4 210.6 
L 365.4 144 
L 294.48 144 
z
" clip-path="url(#paf9210254f)" style="fill: #3f4541; stroke: #3f4541; stroke-linejoin: miter"/>
   </g>
   <g id="patch_47">
    <path d="M 365.4 210.6 
L 436.32 210.6 
L 436.32 144 
L 365.4 144 
z
" clip-path="url(#paf9210254f)" style="fill: #3f4541; stroke: #3f4541; stroke-linejoin: miter"/>
   </g>
   <g id="patch_48">
    <path d="M 436.32 210.6 
L 507.24 210.6 
L 507.24 144 
L 436.32 144 
z
" clip-path="url(#paf9210254f)" style="fill: #494b40; stroke: #494b40; stroke-linejoin: miter"/>
   </g>
   <g id="patch_49">
    <path d="M 507.24 210.6 
L 578.16 210.6 
L 578.16 144 
L 507.24 144 
z
" clip-path="url(#paf9210254f)" style="fill: #2b3332; stroke: #2b3332; stroke-linejoin: miter"/>
   </g>
   <g id="patch_50">
    <path d="M 578.16 210.6 
L 649.08 210.6 
L 649.08 144 
L 578.16 144 
z
" clip-path="url(#paf9210254f)" style="fill: #e5c899; stroke: #e5c899; stroke-linejoin: miter"/>
   </g>
   <g id="patch_51">
    <path d="M 649.08 210.6 
L 720 210.6 
L 720 144 
L 649.08 144 
z
" clip-path="url(#paf9210254f)" style="fill: #322e29; stroke: #322e29; stroke-linejoin: miter"/>
   </g>
   <g id="patch_52">
    <path d="M 720 210.6 
L 790.92 210.6 
L 790.92 144 
L 720 144 
z
" clip-path="url(#paf9210254f)" style="fill: #3c3535; stroke: #3c3535; stroke-linejoin: miter"/>
   </g>
   <g id="patch_53">
    <path d="M 790.92 210.6 
L 861.84 210.6 
L 861.84 144 
L 790.92 144 
z
" clip-path="url(#paf9210254f)" style="fill: #424033; stroke: #424033; stroke-linejoin: miter"/>
   </g>
   <g id="patch_54">
    <path d="M 861.84 210.6 
L 932.76 210.6 
L 932.76 144 
L 861.84 144 
z
" clip-path="url(#paf9210254f)" style="fill: #2f2f2f; stroke: #2f2f2f; stroke-linejoin: miter"/>
   </g>
   <g id="patch_55">
    <path d="M 932.76 210.6 
L 1003.68 210.6 
L 1003.68 144 
L 932.76 144 
z
" clip-path="url(#paf9210254f)" style="fill: #b3ab9e; stroke: #b3ab9e; stroke-linejoin: miter"/>
   </g>
   <g id="patch_56">
    <path d="M 1003.68 210.6 
L 1074.6 210.6 
L 1074.6 144 
L 1003.68 144 
z
" clip-path="url(#paf9210254f)" style="fill: #bfaa91; stroke: #bfaa91; stroke-linejoin: miter"/>
   </g>
   <g id="patch_57">
    <path d="M 1074.6 210.6 
L 1145.52 210.6 
L 1145.52 144 
L 1074.6 144 
z
" clip-path="url(#paf9210254f)" style="fill: #c8bab0; stroke: #c8bab0; stroke-linejoin: miter"/>
   </g>
   <g id="patch_58">
    <path d="M 1145.52 210.6 
L 1216.44 210.6 
L 1216.44 144 
L 1145.52 144 
z
" clip-path="url(#paf9210254f)" style="fill: #c8bab0; stroke: #c8bab0; stroke-linejoin: miter"/>
   </g>
   <g id="patch_59">
    <path d="M 1216.44 210.6 
L 1287.36 210.6 
L 1287.36 144 
L 1216.44 144 
z
" clip-path="url(#paf9210254f)" style="fill: #bda49c; stroke: #bda49c; stroke-linejoin: miter"/>
   </g>
   <g id="patch_60">
    <path d="M 1287.36 210.6 
L 1358.28 210.6 
L 1358.28 144 
L 1287.36 144 
z
" clip-path="url(#paf9210254f)" style="fill: #cabcb2; stroke: #cabcb2; stroke-linejoin: miter"/>
   </g>
   <g id="patch_61">
    <path d="M 1358.28 210.6 
L 1429.2 210.6 
L 1429.2 144 
L 1358.28 144 
z
" clip-path="url(#paf9210254f)" style="fill: #ac9686; stroke: #ac9686; stroke-linejoin: miter"/>
   </g>
   <g id="patch_62">
    <path d="M 10.8 277.2 
L 81.72 277.2 
L 81.72 210.6 
L 10.8 210.6 
z
" clip-path="url(#paf9210254f)" style="fill: #beb2a6; stroke: #beb2a6; stroke-linejoin: miter"/>
   </g>
  </g>
 </g>
 <defs>
  <clipPath id="paf9210254f">
   <rect x="10.8" y="10.8" width="1418.4" height="266.4"/>
  </clipPath>
 </defs>
</svg>
