<?xml version="1.0" encoding="UTF-8"?>
<svg xmlns="http://www.w3.org/2000/svg" version="1.1" viewBox="0 0 1307.9 580.7">
  <defs>
    <style>
      .cls-1 {
        fill: #332524;
      }

      .cls-1, .cls-2, .cls-3, .cls-4, .cls-5, .cls-6, .cls-7, .cls-8, .cls-9, .cls-10, .cls-11, .cls-12, .cls-13, .cls-14, .cls-15, .cls-16, .cls-17, .cls-18, .cls-19, .cls-20, .cls-21, .cls-22, .cls-23, .cls-24, .cls-25, .cls-26, .cls-27, .cls-28, .cls-29, .cls-30, .cls-31, .cls-32, .cls-33, .cls-34, .cls-35, .cls-36, .cls-37, .cls-38, .cls-39, .cls-40, .cls-41, .cls-42, .cls-43, .cls-44, .cls-45, .cls-46, .cls-47, .cls-48, .cls-49, .cls-50, .cls-51, .cls-52, .cls-53, .cls-54, .cls-55, .cls-56, .cls-57, .cls-58, .cls-59, .cls-60, .cls-61, .cls-62, .cls-63, .cls-64, .cls-65, .cls-66, .cls-67, .cls-68, .cls-69, .cls-70, .cls-71, .cls-72, .cls-73, .cls-74, .cls-75, .cls-76, .cls-77, .cls-78, .cls-79, .cls-80, .cls-81, .cls-82, .cls-83, .cls-84, .cls-85, .cls-86, .cls-87, .cls-88, .cls-89, .cls-90, .cls-91, .cls-92, .cls-93, .cls-94, .cls-95 {
        stroke: #fff;
        stroke-width: 3px;
      }

      .cls-2 {
        fill: #c3b5a9;
      }

      .cls-3 {
        fill: #b79d86;
      }

      .cls-4 {
        fill: #7d5a53;
      }

      .cls-5 {
        fill: #4a3e35;
      }

      .cls-6 {
        fill: #dec19d;
      }

      .cls-7 {
        fill: #d3ae8d;
      }

      .cls-8 {
        fill: #a2938c;
      }

      .cls-9 {
        fill: #a57e55;
      }

      .cls-10 {
        fill: #d1b497;
      }

      .cls-11 {
        fill: #c7bbad;
      }

      .cls-12 {
        fill: #897a65;
      }

      .cls-13 {
        fill: #433b38;
      }

      .cls-14 {
        fill: #d2beb3;
      }

      .cls-15 {
        fill: #7c5b4e;
      }

      .cls-16 {
        fill: #ab9781;
      }

      .cls-17 {
        fill: #a49782;
      }

      .cls-18 {
        fill: #ddd4c3;
      }

      .cls-19 {
        fill: #403d39;
      }

      .cls-20 {
        fill: #2d363b;
      }

      .cls-21 {
        fill: #a47e58;
      }

      .cls-22 {
        fill: #8a7857;
      }

      .cls-23 {
        fill: #413832;
      }

      .cls-24 {
        fill: #835e46;
      }

      .cls-25 {
        fill: #ac9f8b;
      }

      .cls-26 {
        fill: #ccbcaa;
      }

      .cls-27 {
        fill: #aa9179;
      }

      .cls-28 {
        fill: #746357;
      }

      .cls-29 {
        fill: #d1c6bd;
      }

      .cls-30 {
        fill: #756046;
      }

      .cls-31 {
        fill: #ad8d67;
      }

      .cls-32 {
        fill: #bab7b4;
      }

      .cls-33 {
        fill: #392e2b;
      }

      .cls-34 {
        fill: #3b372e;
      }

      .cls-35 {
        fill: #cbc5b8;
      }

      .cls-36 {
        fill: #cfbfac;
      }

      .cls-37 {
        fill: #806a5b;
      }

      .cls-38 {
        fill: #c9c0b0;
      }

      .cls-39 {
        fill: #beb3a3;
      }

      .cls-40 {
        fill: #232e2a;
      }

      .cls-41 {
        fill: #e4c9a8;
      }

      .cls-42 {
        fill: #e2c79c;
      }

      .cls-43 {
        fill: #cdcbc1;
      }

      .cls-44 {
        fill: #7f7362;
      }

      .cls-45 {
        fill: #33302f;
      }

      .cls-46 {
        fill: #2e261e;
      }

      .cls-47 {
        fill: #b8804d;
      }

      .cls-48 {
        fill: #24201c;
      }

      .cls-49 {
        fill: #b5b0a9;
      }

      .cls-50 {
        fill: #a48368;
      }

      .cls-51 {
        fill: #a5886e;
      }

      .cls-52 {
        fill: #c4af9c;
      }

      .cls-53 {
        fill: #825e4a;
      }

      .cls-54 {
        fill: #c8beb5;
      }

      .cls-55 {
        fill: #3c3027;
      }

      .cls-56 {
        fill: #dbccbd;
      }

      .cls-57 {
        fill: #d2c9c1;
      }

      .cls-58 {
        fill: #a68d70;
      }

      .cls-59 {
        fill: #cbc7c5;
      }

      .cls-60 {
        fill: #8e7b64;
      }

      .cls-61 {
        fill: #ae9c85;
      }

      .cls-62 {
        fill: #2d211d;
      }

      .cls-63 {
        fill: #2e2b26;
      }

      .cls-64 {
        fill: #beb1a6;
      }

      .cls-65 {
        fill: #cbbdaf;
      }

      .cls-66 {
        fill: #30241c;
      }

      .cls-67 {
        fill: #2e2c2d;
      }

      .cls-68 {
        fill: #dbcdc2;
      }

      .cls-69 {
        fill: #bdaca1;
      }

      .cls-70 {
        fill: #17171b;
      }

      .cls-71 {
        fill: #443834;
      }

      .cls-72 {
        fill: #9a7c5b;
      }

      .cls-73 {
        fill: #ac987f;
      }

      .cls-74 {
        fill: #d3bfbd;
      }

      .cls-75 {
        fill: #c1bdac;
      }

      .cls-76 {
        fill: #b18b5f;
      }

      .cls-77 {
        fill: #4a3b2c;
      }

      .cls-78 {
        fill: #d1ab90;
      }

      .cls-79 {
        fill: #cac1b4;
      }

      .cls-80 {
        fill: #1d1713;
      }

      .cls-81 {
        fill: #303031;
      }

      .cls-82 {
        fill: #322e31;
      }

      .cls-83 {
        fill: #c5bdb1;
      }

      .cls-84 {
        fill: #b19e86;
      }

      .cls-85 {
        fill: #cecccb;
      }

      .cls-86 {
        fill: #3e3c3b;
      }

      .cls-87 {
        fill: #877a6b;
      }

      .cls-88 {
        fill: #c4b4a4;
      }

      .cls-89 {
        fill: #ceb49e;
      }

      .cls-90 {
        fill: #c8c4c4;
      }

      .cls-91 {
        fill: #dadada;
      }

      .cls-92 {
        fill: #cac7ba;
      }

      .cls-93 {
        fill: #483e2e;
      }

      .cls-94 {
        fill: #e0d1c3;
      }

      .cls-95 {
        fill: #cfc9b8;
      }
    </style>
  </defs>
  <!-- Generator: Adobe Illustrator 28.7.7, SVG Export Plug-In . SVG Version: 1.2.0 Build 194)  -->
  <g>
    <g id="Layer_1">
      <path class="cls-80" d="M15.2,493.2h70.9v-68.9H15.2v68.9Z"/>
      <path class="cls-74" d="M86.1,493.2h70.9v-68.9h-70.9v68.9Z"/>
      <path class="cls-91" d="M157,493.2h70.9v-68.9h-70.9v68.9Z"/>
      <path class="cls-47" d="M228,493.2h70.9v-68.9h-70.9v68.9Z"/>
      <path class="cls-51" d="M298.9,493.2h70.9v-68.9h-70.9v68.9Z"/>
      <path class="cls-7" d="M369.8,493.2h70.9v-68.9h-70.9v68.9Z"/>
      <path class="cls-31" d="M440.7,493.2h70.9v-68.9h-70.9v68.9Z"/>
      <path class="cls-83" d="M511.6,493.2h70.9v-68.9h-70.9v68.9Z"/>
      <path class="cls-45" d="M582.6,493.2h70.9v-68.9h-70.9v68.9Z"/>
      <path class="cls-48" d="M653.5,493.2h70.9v-68.9h-70.9v68.9Z"/>
      <path class="cls-6" d="M15.2,79.7h70.9V10.8H15.2v68.9Z"/>
      <path class="cls-6" d="M86.1,79.7h70.9V10.8h-70.9v68.9Z"/>
      <path class="cls-6" d="M157,79.7h70.9V10.8h-70.9v68.9Z"/>
      <path class="cls-6" d="M228,79.7h70.9V10.8h-70.9v68.9Z"/>
      <path class="cls-6" d="M298.9,79.7h70.9V10.8h-70.9v68.9Z"/>
      <path class="cls-6" d="M369.8,79.7h70.9V10.8h-70.9v68.9Z"/>
      <path class="cls-6" d="M440.7,79.7h70.9V10.8h-70.9v68.9Z"/>
      <path class="cls-6" d="M511.6,79.7h70.9V10.8h-70.9v68.9Z"/>
      <path class="cls-6" d="M582.6,79.7h70.9V10.8h-70.9v68.9Z"/>
      <path class="cls-55" d="M653.5,79.7h70.9V10.8h-70.9v68.9Z"/>
      <path class="cls-55" d="M15.2,562.1h70.9v-68.9H15.2v68.9Z"/>
      <path class="cls-19" d="M86.1,562.1h70.9v-68.9h-70.9v68.9Z"/>
      <path class="cls-66" d="M157,562.1h70.9v-68.9h-70.9v68.9Z"/>
      <path class="cls-71" d="M228,562.1h70.9v-68.9h-70.9v68.9Z"/>
      <path class="cls-91" d="M298.9,562.1h70.9v-68.9h-70.9v68.9Z"/>
      <path class="cls-50" d="M369.8,562.1h70.9v-68.9h-70.9v68.9Z"/>
      <path class="cls-10" d="M440.7,562.1h70.9v-68.9h-70.9v68.9Z"/>
      <path class="cls-10" d="M511.6,562.1h70.9v-68.9h-70.9v68.9Z"/>
      <path class="cls-10" d="M582.6,562.1h70.9v-68.9h-70.9v68.9Z"/>
      <path class="cls-54" d="M653.5,562.1h70.9v-68.9h-70.9v68.9Z"/>
      <path class="cls-59" d="M15.2,148.6h70.9v-68.9H15.2v68.9Z"/>
      <path class="cls-95" d="M86.1,148.6h70.9v-68.9h-70.9v68.9Z"/>
      <path class="cls-44" d="M157,148.6h70.9v-68.9h-70.9v68.9Z"/>
      <path class="cls-60" d="M228,148.6h70.9v-68.9h-70.9v68.9Z"/>
      <path class="cls-34" d="M298.9,148.6h70.9v-68.9h-70.9v68.9Z"/>
      <path class="cls-16" d="M369.8,148.6h70.9v-68.9h-70.9v68.9Z"/>
      <path class="cls-78" d="M440.7,148.6h70.9v-68.9h-70.9v68.9Z"/>
      <path class="cls-89" d="M511.6,148.6h70.9v-68.9h-70.9v68.9Z"/>
      <path class="cls-64" d="M582.6,148.6h70.9v-68.9h-70.9v68.9Z"/>
      <path class="cls-35" d="M653.5,148.6h70.9v-68.9h-70.9v68.9Z"/>
      <path class="cls-12" d="M866.2,424.3h70.9v-68.9h-70.9v68.9Z"/>
      <path class="cls-82" d="M937.2,424.3h70.9v-68.9h-70.9v68.9Z"/>
      <path class="cls-58" d="M1079,286.5h70.9v-68.9h-70.9v68.9Z"/>
      <path class="cls-87" d="M1149.9,286.5h70.9v-68.9h-70.9v68.9Z"/>
      <path class="cls-70" d="M1220.8,286.5h70.9v-68.9h-70.9v68.9Z"/>
      <path class="cls-32" d="M724.4,217.5h70.9v-68.9h-70.9v68.9Z"/>
      <path class="cls-81" d="M795.3,217.5h70.9v-68.9h-70.9v68.9Z"/>
      <path class="cls-42" d="M866.2,217.5h70.9v-68.9h-70.9v68.9Z"/>
      <path class="cls-20" d="M937.2,217.5h70.9v-68.9h-70.9v68.9Z"/>
      <path class="cls-93" d="M1008.1,217.5h70.9v-68.9h-70.9v68.9Z"/>
      <path class="cls-18" d="M15.2,217.5h70.9v-68.9H15.2v68.9Z"/>
      <path class="cls-62" d="M86.1,217.5h70.9v-68.9h-70.9v68.9Z"/>
      <path class="cls-36" d="M157,217.5h70.9v-68.9h-70.9v68.9Z"/>
      <path class="cls-43" d="M228,217.5h70.9v-68.9h-70.9v68.9Z"/>
      <path class="cls-85" d="M298.9,217.5h70.9v-68.9h-70.9v68.9Z"/>
      <path class="cls-7" d="M369.8,217.5h70.9v-68.9h-70.9v68.9Z"/>
      <path class="cls-88" d="M440.7,217.5h70.9v-68.9h-70.9v68.9Z"/>
      <path class="cls-27" d="M511.6,217.5h70.9v-68.9h-70.9v68.9Z"/>
      <path class="cls-79" d="M582.6,217.5h70.9v-68.9h-70.9v68.9Z"/>
      <path class="cls-57" d="M653.5,217.5h70.9v-68.9h-70.9v68.9Z"/>
      <path class="cls-72" d="M937.2,355.4h70.9v-68.9h-70.9v68.9Z"/>
      <path class="cls-13" d="M1008.1,355.4h70.9v-68.9h-70.9v68.9Z"/>
      <path class="cls-13" d="M1079,355.4h70.9v-68.9h-70.9v68.9Z"/>
      <path class="cls-13" d="M1149.9,355.4h70.9v-68.9h-70.9v68.9Z"/>
      <path class="cls-4" d="M1220.8,355.4h70.9v-68.9h-70.9v68.9Z"/>
      <path class="cls-13" d="M724.4,286.5h70.9v-68.9h-70.9v68.9Z"/>
      <path class="cls-6" d="M795.3,286.5h70.9v-68.9h-70.9v68.9Z"/>
      <path class="cls-65" d="M866.2,286.5h70.9v-68.9h-70.9v68.9Z"/>
      <path class="cls-17" d="M937.2,286.5h70.9v-68.9h-70.9v68.9Z"/>
      <path class="cls-92" d="M1008.1,286.5h70.9v-68.9h-70.9v68.9Z"/>
      <path class="cls-9" d="M15.2,286.5h70.9v-68.9H15.2v68.9Z"/>
      <path class="cls-33" d="M86.1,286.5h70.9v-68.9h-70.9v68.9Z"/>
      <path class="cls-76" d="M157,286.5h70.9v-68.9h-70.9v68.9Z"/>
      <path class="cls-1" d="M228,286.5h70.9v-68.9h-70.9v68.9Z"/>
      <path class="cls-94" d="M298.9,286.5h70.9v-68.9h-70.9v68.9Z"/>
      <path class="cls-71" d="M369.8,286.5h70.9v-68.9h-70.9v68.9Z"/>
      <path class="cls-71" d="M440.7,286.5h70.9v-68.9h-70.9v68.9Z"/>
      <path class="cls-71" d="M511.6,286.5h70.9v-68.9h-70.9v68.9Z"/>
      <path class="cls-63" d="M582.6,286.5h70.9v-68.9h-70.9v68.9Z"/>
      <path class="cls-15" d="M653.5,286.5h70.9v-68.9h-70.9v68.9Z"/>
      <path class="cls-28" d="M724.4,148.6h70.9v-68.9h-70.9v68.9Z"/>
      <path class="cls-45" d="M795.3,148.6h70.9v-68.9h-70.9v68.9Z"/>
      <path class="cls-69" d="M866.2,148.6h70.9v-68.9h-70.9v68.9Z"/>
      <path class="cls-52" d="M937.2,148.6h70.9v-68.9h-70.9v68.9Z"/>
      <path class="cls-52" d="M1008.1,148.6h70.9v-68.9h-70.9v68.9Z"/>
      <path class="cls-7" d="M1079,148.6h70.9v-68.9h-70.9v68.9Z"/>
      <path class="cls-23" d="M1149.9,148.6h70.9v-68.9h-70.9v68.9Z"/>
      <path class="cls-26" d="M1220.8,148.6h70.9v-68.9h-70.9v68.9Z"/>
      <path class="cls-40" d="M1149.9,217.5h70.9v-68.9h-70.9v68.9Z"/>
      <path class="cls-37" d="M1220.8,217.5h70.9v-68.9h-70.9v68.9Z"/>
      <path class="cls-37" d="M15.2,355.4h70.9v-68.9H15.2v68.9Z"/>
      <path class="cls-37" d="M86.1,355.4h70.9v-68.9h-70.9v68.9Z"/>
      <path class="cls-37" d="M157,355.4h70.9v-68.9h-70.9v68.9Z"/>
      <path class="cls-86" d="M228,355.4h70.9v-68.9h-70.9v68.9Z"/>
      <path class="cls-86" d="M298.9,355.4h70.9v-68.9h-70.9v68.9Z"/>
      <path class="cls-55" d="M369.8,355.4h70.9v-68.9h-70.9v68.9Z"/>
      <path class="cls-53" d="M440.7,355.4h70.9v-68.9h-70.9v68.9Z"/>
      <path class="cls-30" d="M511.6,355.4h70.9v-68.9h-70.9v68.9Z"/>
      <path class="cls-46" d="M582.6,355.4h70.9v-68.9h-70.9v68.9Z"/>
      <path class="cls-8" d="M653.5,355.4h70.9v-68.9h-70.9v68.9Z"/>
      <path class="cls-71" d="M724.4,424.3h70.9v-68.9h-70.9v68.9Z"/>
      <path class="cls-14" d="M795.3,424.3h70.9v-68.9h-70.9v68.9Z"/>
      <path class="cls-68" d="M724.4,355.4h70.9v-68.9h-70.9v68.9Z"/>
      <path class="cls-11" d="M795.3,355.4h70.9v-68.9h-70.9v68.9Z"/>
      <path class="cls-84" d="M866.2,355.4h70.9v-68.9h-70.9v68.9Z"/>
      <path class="cls-38" d="M1079,217.5h70.9v-68.9h-70.9v68.9Z"/>
      <path class="cls-22" d="M1008.1,79.7h70.9V10.8h-70.9v68.9Z"/>
      <path class="cls-41" d="M1079,79.7h70.9V10.8h-70.9v68.9Z"/>
      <path class="cls-25" d="M1149.9,79.7h70.9V10.8h-70.9v68.9Z"/>
      <path class="cls-61" d="M1220.8,79.7h70.9V10.8h-70.9v68.9Z"/>
      <path class="cls-2" d="M15.2,424.3h70.9v-68.9H15.2v68.9Z"/>
      <path class="cls-5" d="M86.1,424.3h70.9v-68.9h-70.9v68.9Z"/>
      <path class="cls-24" d="M157,424.3h70.9v-68.9h-70.9v68.9Z"/>
      <path class="cls-3" d="M228,424.3h70.9v-68.9h-70.9v68.9Z"/>
      <path class="cls-77" d="M298.9,424.3h70.9v-68.9h-70.9v68.9Z"/>
      <path class="cls-73" d="M369.8,424.3h70.9v-68.9h-70.9v68.9Z"/>
      <path class="cls-21" d="M440.7,424.3h70.9v-68.9h-70.9v68.9Z"/>
      <path class="cls-39" d="M511.6,424.3h70.9v-68.9h-70.9v68.9Z"/>
      <path class="cls-49" d="M582.6,424.3h70.9v-68.9h-70.9v68.9Z"/>
      <path class="cls-90" d="M653.5,424.3h70.9v-68.9h-70.9v68.9Z"/>
      <path class="cls-75" d="M724.4,79.7h70.9V10.8h-70.9v68.9Z"/>
      <path class="cls-29" d="M795.3,79.7h70.9V10.8h-70.9v68.9Z"/>
      <path class="cls-67" d="M866.2,79.7h70.9V10.8h-70.9v68.9Z"/>
      <path class="cls-56" d="M937.2,79.7h70.9V10.8h-70.9v68.9Z"/>
    </g>
  </g>
</svg>