<?xml version="1.0" encoding="utf-8" standalone="no"?>
<!DOCTYPE svg PUBLIC "-//W3C//DTD SVG 1.1//EN"
  "http://www.w3.org/Graphics/SVG/1.1/DTD/svg11.dtd">
<svg xmlns:xlink="http://www.w3.org/1999/xlink" width="1440pt" height="72pt" viewBox="0 0 1440 72" xmlns="http://www.w3.org/2000/svg" version="1.1">
 <metadata>
  <rdf:RDF xmlns:dc="http://purl.org/dc/elements/1.1/" xmlns:cc="http://creativecommons.org/ns#" xmlns:rdf="http://www.w3.org/1999/02/22-rdf-syntax-ns#">
   <cc:Work>
    <dc:type rdf:resource="http://purl.org/dc/dcmitype/StillImage"/>
    <dc:date>2025-05-04T17:21:04.602254</dc:date>
    <dc:format>image/svg+xml</dc:format>
    <dc:creator>
     <cc:Agent>
      <dc:title>Matplotlib v3.9.2, https://matplotlib.org/</dc:title>
     </cc:Agent>
    </dc:creator>
   </cc:Work>
  </rdf:RDF>
 </metadata>
 <defs>
  <style type="text/css">*{stroke-linejoin: round; stroke-linecap: butt}</style>
 </defs>
 <g id="figure_1">
  <g id="patch_1">
   <path d="M 0 72 
L 1440 72 
L 1440 0 
L 0 0 
z
" style="fill: #ffffff"/>
  </g>
  <g id="axes_1">
   <g id="patch_2">
    <path d="M 10.8 61.2 
L 81.72 61.2 
L 81.72 10.8 
L 10.8 10.8 
z
" clip-path="url(#p156fa42535)" style="fill: #303131; stroke: #303131; stroke-linejoin: miter"/>
   </g>
   <g id="patch_3">
    <path d="M 81.72 61.2 
L 152.64 61.2 
L 152.64 10.8 
L 81.72 10.8 
z
" clip-path="url(#p156fa42535)" style="fill: #a69480; stroke: #a69480; stroke-linejoin: miter"/>
   </g>
   <g id="patch_4">
    <path d="M 152.64 61.2 
L 223.56 61.2 
L 223.56 10.8 
L 152.64 10.8 
z
" clip-path="url(#p156fa42535)" style="fill: #a69480; stroke: #a69480; stroke-linejoin: miter"/>
   </g>
   <g id="patch_5">
    <path d="M 223.56 61.2 
L 294.48 61.2 
L 294.48 10.8 
L 223.56 10.8 
z
" clip-path="url(#p156fa42535)" style="fill: #1c1717; stroke: #1c1717; stroke-linejoin: miter"/>
   </g>
   <g id="patch_6">
    <path d="M 294.48 61.2 
L 365.4 61.2 
L 365.4 10.8 
L 294.48 10.8 
z
" clip-path="url(#p156fa42535)" style="fill: #d5cabe; stroke: #d5cabe; stroke-linejoin: miter"/>
   </g>
   <g id="patch_7">
    <path d="M 365.4 61.2 
L 436.32 61.2 
L 436.32 10.8 
L 365.4 10.8 
z
" clip-path="url(#p156fa42535)" style="fill: #b3aba1; stroke: #b3aba1; stroke-linejoin: miter"/>
   </g>
   <g id="patch_8">
    <path d="M 436.32 61.2 
L 507.24 61.2 
L 507.24 10.8 
L 436.32 10.8 
z
" clip-path="url(#p156fa42535)" style="fill: #352e26; stroke: #352e26; stroke-linejoin: miter"/>
   </g>
   <g id="patch_9">
    <path d="M 507.24 61.2 
L 578.16 61.2 
L 578.16 10.8 
L 507.24 10.8 
z
" clip-path="url(#p156fa42535)" style="fill: #bfafa4; stroke: #bfafa4; stroke-linejoin: miter"/>
   </g>
   <g id="patch_10">
    <path d="M 578.16 61.2 
L 649.08 61.2 
L 649.08 10.8 
L 578.16 10.8 
z
" clip-path="url(#p156fa42535)" style="fill: #b7aaa0; stroke: #b7aaa0; stroke-linejoin: miter"/>
   </g>
   <g id="patch_11">
    <path d="M 649.08 61.2 
L 720 61.2 
L 720 10.8 
L 649.08 10.8 
z
" clip-path="url(#p156fa42535)" style="fill: #b1a59e; stroke: #b1a59e; stroke-linejoin: miter"/>
   </g>
   <g id="patch_12">
    <path d="M 720 61.2 
L 790.92 61.2 
L 790.92 10.8 
L 720 10.8 
z
" clip-path="url(#p156fa42535)" style="fill: #bab3a7; stroke: #bab3a7; stroke-linejoin: miter"/>
   </g>
   <g id="patch_13">
    <path d="M 790.92 61.2 
L 861.84 61.2 
L 861.84 10.8 
L 790.92 10.8 
z
" clip-path="url(#p156fa42535)" style="fill: #845f4c; stroke: #845f4c; stroke-linejoin: miter"/>
   </g>
   <g id="patch_14">
    <path d="M 861.84 61.2 
L 932.76 61.2 
L 932.76 10.8 
L 861.84 10.8 
z
" clip-path="url(#p156fa42535)" style="fill: #28241c; stroke: #28241c; stroke-linejoin: miter"/>
   </g>
   <g id="patch_15">
    <path d="M 932.76 61.2 
L 1003.68 61.2 
L 1003.68 10.8 
L 932.76 10.8 
z
" clip-path="url(#p156fa42535)" style="fill: #90795e; stroke: #90795e; stroke-linejoin: miter"/>
   </g>
   <g id="patch_16">
    <path d="M 1003.68 61.2 
L 1074.6 61.2 
L 1074.6 10.8 
L 1003.68 10.8 
z
" clip-path="url(#p156fa42535)" style="fill: #b5a798; stroke: #b5a798; stroke-linejoin: miter"/>
   </g>
   <g id="patch_17">
    <path d="M 1074.6 61.2 
L 1145.52 61.2 
L 1145.52 10.8 
L 1074.6 10.8 
z
" clip-path="url(#p156fa42535)" style="fill: #a19481; stroke: #a19481; stroke-linejoin: miter"/>
   </g>
   <g id="patch_18">
    <path d="M 1145.52 61.2 
L 1216.44 61.2 
L 1216.44 10.8 
L 1145.52 10.8 
z
" clip-path="url(#p156fa42535)" style="fill: #b4a092; stroke: #b4a092; stroke-linejoin: miter"/>
   </g>
   <g id="patch_19">
    <path d="M 1216.44 61.2 
L 1287.36 61.2 
L 1287.36 10.8 
L 1216.44 10.8 
z
" clip-path="url(#p156fa42535)" style="fill: #dbb792; stroke: #dbb792; stroke-linejoin: miter"/>
   </g>
   <g id="patch_20">
    <path d="M 1287.36 61.2 
L 1358.28 61.2 
L 1358.28 10.8 
L 1287.36 10.8 
z
" clip-path="url(#p156fa42535)" style="fill: #303131; stroke: #303131; stroke-linejoin: miter"/>
   </g>
   <g id="patch_21">
    <path d="M 1358.28 61.2 
L 1429.2 61.2 
L 1429.2 10.8 
L 1358.28 10.8 
z
" clip-path="url(#p156fa42535)" style="fill: #dce1d0; stroke: #dce1d0; stroke-linejoin: miter"/>
   </g>
  </g>
 </g>
 <defs>
  <clipPath id="p156fa42535">
   <rect x="10.8" y="10.8" width="1418.4" height="50.4"/>
  </clipPath>
 </defs>
</svg>
