<?xml version="1.0" encoding="utf-8" standalone="no"?>
<!DOCTYPE svg PUBLIC "-//W3C//DTD SVG 1.1//EN"
  "http://www.w3.org/Graphics/SVG/1.1/DTD/svg11.dtd">
<svg xmlns:xlink="http://www.w3.org/1999/xlink" width="1440pt" height="288pt" viewBox="0 0 1440 288" xmlns="http://www.w3.org/2000/svg" version="1.1">
 <metadata>
  <rdf:RDF xmlns:dc="http://purl.org/dc/elements/1.1/" xmlns:cc="http://creativecommons.org/ns#" xmlns:rdf="http://www.w3.org/1999/02/22-rdf-syntax-ns#">
   <cc:Work>
    <dc:type rdf:resource="http://purl.org/dc/dcmitype/StillImage"/>
    <dc:date>2025-05-04T17:21:05.467062</dc:date>
    <dc:format>image/svg+xml</dc:format>
    <dc:creator>
     <cc:Agent>
      <dc:title>Matplotlib v3.9.2, https://matplotlib.org/</dc:title>
     </cc:Agent>
    </dc:creator>
   </cc:Work>
  </rdf:RDF>
 </metadata>
 <defs>
  <style type="text/css">*{stroke-linejoin: round; stroke-linecap: butt}</style>
 </defs>
 <g id="figure_1">
  <g id="patch_1">
   <path d="M 0 288 
L 1440 288 
L 1440 0 
L 0 0 
z
" style="fill: #ffffff"/>
  </g>
  <g id="axes_1">
   <g id="patch_2">
    <path d="M 10.8 77.4 
L 81.72 77.4 
L 81.72 10.8 
L 10.8 10.8 
z
" clip-path="url(#pbe8cb9c9dc)" style="fill: #ceab95; stroke: #ceab95; stroke-linejoin: miter"/>
   </g>
   <g id="patch_3">
    <path d="M 81.72 77.4 
L 152.64 77.4 
L 152.64 10.8 
L 81.72 10.8 
z
" clip-path="url(#pbe8cb9c9dc)" style="fill: #8b7a6c; stroke: #8b7a6c; stroke-linejoin: miter"/>
   </g>
   <g id="patch_4">
    <path d="M 152.64 77.4 
L 223.56 77.4 
L 223.56 10.8 
L 152.64 10.8 
z
" clip-path="url(#pbe8cb9c9dc)" style="fill: #907e6c; stroke: #907e6c; stroke-linejoin: miter"/>
   </g>
   <g id="patch_5">
    <path d="M 223.56 77.4 
L 294.48 77.4 
L 294.48 10.8 
L 223.56 10.8 
z
" clip-path="url(#pbe8cb9c9dc)" style="fill: #412f25; stroke: #412f25; stroke-linejoin: miter"/>
   </g>
   <g id="patch_6">
    <path d="M 294.48 77.4 
L 365.4 77.4 
L 365.4 10.8 
L 294.48 10.8 
z
" clip-path="url(#pbe8cb9c9dc)" style="fill: #b9b0a8; stroke: #b9b0a8; stroke-linejoin: miter"/>
   </g>
   <g id="patch_7">
    <path d="M 365.4 77.4 
L 436.32 77.4 
L 436.32 10.8 
L 365.4 10.8 
z
" clip-path="url(#pbe8cb9c9dc)" style="fill: #a38d6e; stroke: #a38d6e; stroke-linejoin: miter"/>
   </g>
   <g id="patch_8">
    <path d="M 436.32 77.4 
L 507.24 77.4 
L 507.24 10.8 
L 436.32 10.8 
z
" clip-path="url(#pbe8cb9c9dc)" style="fill: #cac3bc; stroke: #cac3bc; stroke-linejoin: miter"/>
   </g>
   <g id="patch_9">
    <path d="M 507.24 77.4 
L 578.16 77.4 
L 578.16 10.8 
L 507.24 10.8 
z
" clip-path="url(#pbe8cb9c9dc)" style="fill: #8d7e65; stroke: #8d7e65; stroke-linejoin: miter"/>
   </g>
   <g id="patch_10">
    <path d="M 578.16 77.4 
L 649.08 77.4 
L 649.08 10.8 
L 578.16 10.8 
z
" clip-path="url(#pbe8cb9c9dc)" style="fill: #8d7e65; stroke: #8d7e65; stroke-linejoin: miter"/>
   </g>
   <g id="patch_11">
    <path d="M 649.08 77.4 
L 720 77.4 
L 720 10.8 
L 649.08 10.8 
z
" clip-path="url(#pbe8cb9c9dc)" style="fill: #786b62; stroke: #786b62; stroke-linejoin: miter"/>
   </g>
   <g id="patch_12">
    <path d="M 720 77.4 
L 790.92 77.4 
L 790.92 10.8 
L 720 10.8 
z
" clip-path="url(#pbe8cb9c9dc)" style="fill: #322f29; stroke: #322f29; stroke-linejoin: miter"/>
   </g>
   <g id="patch_13">
    <path d="M 790.92 77.4 
L 861.84 77.4 
L 861.84 10.8 
L 790.92 10.8 
z
" clip-path="url(#pbe8cb9c9dc)" style="fill: #3b352e; stroke: #3b352e; stroke-linejoin: miter"/>
   </g>
   <g id="patch_14">
    <path d="M 861.84 77.4 
L 932.76 77.4 
L 932.76 10.8 
L 861.84 10.8 
z
" clip-path="url(#pbe8cb9c9dc)" style="fill: #bbb1ac; stroke: #bbb1ac; stroke-linejoin: miter"/>
   </g>
   <g id="patch_15">
    <path d="M 932.76 77.4 
L 1003.68 77.4 
L 1003.68 10.8 
L 932.76 10.8 
z
" clip-path="url(#pbe8cb9c9dc)" style="fill: #4c4138; stroke: #4c4138; stroke-linejoin: miter"/>
   </g>
   <g id="patch_16">
    <path d="M 1003.68 77.4 
L 1074.6 77.4 
L 1074.6 10.8 
L 1003.68 10.8 
z
" clip-path="url(#pbe8cb9c9dc)" style="fill: #1d362e; stroke: #1d362e; stroke-linejoin: miter"/>
   </g>
   <g id="patch_17">
    <path d="M 1074.6 77.4 
L 1145.52 77.4 
L 1145.52 10.8 
L 1074.6 10.8 
z
" clip-path="url(#pbe8cb9c9dc)" style="fill: #3f3025; stroke: #3f3025; stroke-linejoin: miter"/>
   </g>
   <g id="patch_18">
    <path d="M 1145.52 77.4 
L 1216.44 77.4 
L 1216.44 10.8 
L 1145.52 10.8 
z
" clip-path="url(#pbe8cb9c9dc)" style="fill: #9e7d5f; stroke: #9e7d5f; stroke-linejoin: miter"/>
   </g>
   <g id="patch_19">
    <path d="M 1216.44 77.4 
L 1287.36 77.4 
L 1287.36 10.8 
L 1216.44 10.8 
z
" clip-path="url(#pbe8cb9c9dc)" style="fill: #c2b8ad; stroke: #c2b8ad; stroke-linejoin: miter"/>
   </g>
   <g id="patch_20">
    <path d="M 1287.36 77.4 
L 1358.28 77.4 
L 1358.28 10.8 
L 1287.36 10.8 
z
" clip-path="url(#pbe8cb9c9dc)" style="fill: #9e7f5f; stroke: #9e7f5f; stroke-linejoin: miter"/>
   </g>
   <g id="patch_21">
    <path d="M 1358.28 77.4 
L 1429.2 77.4 
L 1429.2 10.8 
L 1358.28 10.8 
z
" clip-path="url(#pbe8cb9c9dc)" style="fill: #bab1a8; stroke: #bab1a8; stroke-linejoin: miter"/>
   </g>
   <g id="patch_22">
    <path d="M 10.8 144 
L 81.72 144 
L 81.72 77.4 
L 10.8 77.4 
z
" clip-path="url(#pbe8cb9c9dc)" style="fill: #9b8476; stroke: #9b8476; stroke-linejoin: miter"/>
   </g>
   <g id="patch_23">
    <path d="M 81.72 144 
L 152.64 144 
L 152.64 77.4 
L 81.72 77.4 
z
" clip-path="url(#pbe8cb9c9dc)" style="fill: #d5c7bd; stroke: #d5c7bd; stroke-linejoin: miter"/>
   </g>
   <g id="patch_24">
    <path d="M 152.64 144 
L 223.56 144 
L 223.56 77.4 
L 152.64 77.4 
z
" clip-path="url(#pbe8cb9c9dc)" style="fill: #dfc2ae; stroke: #dfc2ae; stroke-linejoin: miter"/>
   </g>
   <g id="patch_25">
    <path d="M 223.56 144 
L 294.48 144 
L 294.48 77.4 
L 223.56 77.4 
z
" clip-path="url(#pbe8cb9c9dc)" style="fill: #443026; stroke: #443026; stroke-linejoin: miter"/>
   </g>
   <g id="patch_26">
    <path d="M 294.48 144 
L 365.4 144 
L 365.4 77.4 
L 294.48 77.4 
z
" clip-path="url(#pbe8cb9c9dc)" style="fill: #bfb09f; stroke: #bfb09f; stroke-linejoin: miter"/>
   </g>
   <g id="patch_27">
    <path d="M 365.4 144 
L 436.32 144 
L 436.32 77.4 
L 365.4 77.4 
z
" clip-path="url(#pbe8cb9c9dc)" style="fill: #c1b6ae; stroke: #c1b6ae; stroke-linejoin: miter"/>
   </g>
   <g id="patch_28">
    <path d="M 436.32 144 
L 507.24 144 
L 507.24 77.4 
L 436.32 77.4 
z
" clip-path="url(#pbe8cb9c9dc)" style="fill: #302e2e; stroke: #302e2e; stroke-linejoin: miter"/>
   </g>
   <g id="patch_29">
    <path d="M 507.24 144 
L 578.16 144 
L 578.16 77.4 
L 507.24 77.4 
z
" clip-path="url(#pbe8cb9c9dc)" style="fill: #bdb2a2; stroke: #bdb2a2; stroke-linejoin: miter"/>
   </g>
   <g id="patch_30">
    <path d="M 578.16 144 
L 649.08 144 
L 649.08 77.4 
L 578.16 77.4 
z
" clip-path="url(#pbe8cb9c9dc)" style="fill: #bdb2a2; stroke: #bdb2a2; stroke-linejoin: miter"/>
   </g>
   <g id="patch_31">
    <path d="M 649.08 144 
L 720 144 
L 720 77.4 
L 649.08 77.4 
z
" clip-path="url(#pbe8cb9c9dc)" style="fill: #a08d75; stroke: #a08d75; stroke-linejoin: miter"/>
   </g>
   <g id="patch_32">
    <path d="M 720 144 
L 790.92 144 
L 790.92 77.4 
L 720 77.4 
z
" clip-path="url(#pbe8cb9c9dc)" style="fill: #9f937c; stroke: #9f937c; stroke-linejoin: miter"/>
   </g>
   <g id="patch_33">
    <path d="M 790.92 144 
L 861.84 144 
L 861.84 77.4 
L 790.92 77.4 
z
" clip-path="url(#pbe8cb9c9dc)" style="fill: #1a2021; stroke: #1a2021; stroke-linejoin: miter"/>
   </g>
   <g id="patch_34">
    <path d="M 861.84 144 
L 932.76 144 
L 932.76 77.4 
L 861.84 77.4 
z
" clip-path="url(#pbe8cb9c9dc)" style="fill: #c9bab4; stroke: #c9bab4; stroke-linejoin: miter"/>
   </g>
   <g id="patch_35">
    <path d="M 932.76 144 
L 1003.68 144 
L 1003.68 77.4 
L 932.76 77.4 
z
" clip-path="url(#pbe8cb9c9dc)" style="fill: #3e3530; stroke: #3e3530; stroke-linejoin: miter"/>
   </g>
   <g id="patch_36">
    <path d="M 1003.68 144 
L 1074.6 144 
L 1074.6 77.4 
L 1003.68 77.4 
z
" clip-path="url(#pbe8cb9c9dc)" style="fill: #35312a; stroke: #35312a; stroke-linejoin: miter"/>
   </g>
   <g id="patch_37">
    <path d="M 1074.6 144 
L 1145.52 144 
L 1145.52 77.4 
L 1074.6 77.4 
z
" clip-path="url(#pbe8cb9c9dc)" style="fill: #8f7f6c; stroke: #8f7f6c; stroke-linejoin: miter"/>
   </g>
   <g id="patch_38">
    <path d="M 1145.52 144 
L 1216.44 144 
L 1216.44 77.4 
L 1145.52 77.4 
z
" clip-path="url(#pbe8cb9c9dc)" style="fill: #ccc1b0; stroke: #ccc1b0; stroke-linejoin: miter"/>
   </g>
   <g id="patch_39">
    <path d="M 1216.44 144 
L 1287.36 144 
L 1287.36 77.4 
L 1216.44 77.4 
z
" clip-path="url(#pbe8cb9c9dc)" style="fill: #c7b2a7; stroke: #c7b2a7; stroke-linejoin: miter"/>
   </g>
   <g id="patch_40">
    <path d="M 1287.36 144 
L 1358.28 144 
L 1358.28 77.4 
L 1287.36 77.4 
z
" clip-path="url(#pbe8cb9c9dc)" style="fill: #7b5a41; stroke: #7b5a41; stroke-linejoin: miter"/>
   </g>
   <g id="patch_41">
    <path d="M 1358.28 144 
L 1429.2 144 
L 1429.2 77.4 
L 1358.28 77.4 
z
" clip-path="url(#pbe8cb9c9dc)" style="fill: #ccb9ac; stroke: #ccb9ac; stroke-linejoin: miter"/>
   </g>
   <g id="patch_42">
    <path d="M 10.8 210.6 
L 81.72 210.6 
L 81.72 144 
L 10.8 144 
z
" clip-path="url(#pbe8cb9c9dc)" style="fill: #393b37; stroke: #393b37; stroke-linejoin: miter"/>
   </g>
   <g id="patch_43">
    <path d="M 81.72 210.6 
L 152.64 210.6 
L 152.64 144 
L 81.72 144 
z
" clip-path="url(#pbe8cb9c9dc)" style="fill: #473f37; stroke: #473f37; stroke-linejoin: miter"/>
   </g>
   <g id="patch_44">
    <path d="M 152.64 210.6 
L 223.56 210.6 
L 223.56 144 
L 152.64 144 
z
" clip-path="url(#pbe8cb9c9dc)" style="fill: #34232c; stroke: #34232c; stroke-linejoin: miter"/>
   </g>
   <g id="patch_45">
    <path d="M 223.56 210.6 
L 294.48 210.6 
L 294.48 144 
L 223.56 144 
z
" clip-path="url(#pbe8cb9c9dc)" style="fill: #b6a99d; stroke: #b6a99d; stroke-linejoin: miter"/>
   </g>
   <g id="patch_46">
    <path d="M 294.48 210.6 
L 365.4 210.6 
L 365.4 144 
L 294.48 144 
z
" clip-path="url(#pbe8cb9c9dc)" style="fill: #3f3f3a; stroke: #3f3f3a; stroke-linejoin: miter"/>
   </g>
   <g id="patch_47">
    <path d="M 365.4 210.6 
L 436.32 210.6 
L 436.32 144 
L 365.4 144 
z
" clip-path="url(#pbe8cb9c9dc)" style="fill: #43372e; stroke: #43372e; stroke-linejoin: miter"/>
   </g>
   <g id="patch_48">
    <path d="M 436.32 210.6 
L 507.24 210.6 
L 507.24 144 
L 436.32 144 
z
" clip-path="url(#pbe8cb9c9dc)" style="fill: #2d2d32; stroke: #2d2d32; stroke-linejoin: miter"/>
   </g>
   <g id="patch_49">
    <path d="M 507.24 210.6 
L 578.16 210.6 
L 578.16 144 
L 507.24 144 
z
" clip-path="url(#pbe8cb9c9dc)" style="fill: #908c83; stroke: #908c83; stroke-linejoin: miter"/>
   </g>
   <g id="patch_50">
    <path d="M 578.16 210.6 
L 649.08 210.6 
L 649.08 144 
L 578.16 144 
z
" clip-path="url(#pbe8cb9c9dc)" style="fill: #9f7f5b; stroke: #9f7f5b; stroke-linejoin: miter"/>
   </g>
   <g id="patch_51">
    <path d="M 649.08 210.6 
L 720 210.6 
L 720 144 
L 649.08 144 
z
" clip-path="url(#pbe8cb9c9dc)" style="fill: #9e7e4f; stroke: #9e7e4f; stroke-linejoin: miter"/>
   </g>
   <g id="patch_52">
    <path d="M 720 210.6 
L 790.92 210.6 
L 790.92 144 
L 720 144 
z
" clip-path="url(#pbe8cb9c9dc)" style="fill: #3d3231; stroke: #3d3231; stroke-linejoin: miter"/>
   </g>
   <g id="patch_53">
    <path d="M 790.92 210.6 
L 861.84 210.6 
L 861.84 144 
L 790.92 144 
z
" clip-path="url(#pbe8cb9c9dc)" style="fill: #b19f8c; stroke: #b19f8c; stroke-linejoin: miter"/>
   </g>
   <g id="patch_54">
    <path d="M 861.84 210.6 
L 932.76 210.6 
L 932.76 144 
L 861.84 144 
z
" clip-path="url(#pbe8cb9c9dc)" style="fill: #c3b7a9; stroke: #c3b7a9; stroke-linejoin: miter"/>
   </g>
   <g id="patch_55">
    <path d="M 932.76 210.6 
L 1003.68 210.6 
L 1003.68 144 
L 932.76 144 
z
" clip-path="url(#pbe8cb9c9dc)" style="fill: #ac9c86; stroke: #ac9c86; stroke-linejoin: miter"/>
   </g>
   <g id="patch_56">
    <path d="M 1003.68 210.6 
L 1074.6 210.6 
L 1074.6 144 
L 1003.68 144 
z
" clip-path="url(#pbe8cb9c9dc)" style="fill: #372619; stroke: #372619; stroke-linejoin: miter"/>
   </g>
   <g id="patch_57">
    <path d="M 1074.6 210.6 
L 1145.52 210.6 
L 1145.52 144 
L 1074.6 144 
z
" clip-path="url(#pbe8cb9c9dc)" style="fill: #c5b9b0; stroke: #c5b9b0; stroke-linejoin: miter"/>
   </g>
   <g id="patch_58">
    <path d="M 1145.52 210.6 
L 1216.44 210.6 
L 1216.44 144 
L 1145.52 144 
z
" clip-path="url(#pbe8cb9c9dc)" style="fill: #38302f; stroke: #38302f; stroke-linejoin: miter"/>
   </g>
   <g id="patch_59">
    <path d="M 1216.44 210.6 
L 1287.36 210.6 
L 1287.36 144 
L 1216.44 144 
z
" clip-path="url(#pbe8cb9c9dc)" style="fill: #d5bdaa; stroke: #d5bdaa; stroke-linejoin: miter"/>
   </g>
   <g id="patch_60">
    <path d="M 1287.36 210.6 
L 1358.28 210.6 
L 1358.28 144 
L 1287.36 144 
z
" clip-path="url(#pbe8cb9c9dc)" style="fill: #3c3733; stroke: #3c3733; stroke-linejoin: miter"/>
   </g>
   <g id="patch_61">
    <path d="M 1358.28 210.6 
L 1429.2 210.6 
L 1429.2 144 
L 1358.28 144 
z
" clip-path="url(#pbe8cb9c9dc)" style="fill: #c0c6d0; stroke: #c0c6d0; stroke-linejoin: miter"/>
   </g>
   <g id="patch_62">
    <path d="M 10.8 277.2 
L 81.72 277.2 
L 81.72 210.6 
L 10.8 210.6 
z
" clip-path="url(#pbe8cb9c9dc)" style="fill: #775941; stroke: #775941; stroke-linejoin: miter"/>
   </g>
   <g id="patch_63">
    <path d="M 81.72 277.2 
L 152.64 277.2 
L 152.64 210.6 
L 81.72 210.6 
z
" clip-path="url(#pbe8cb9c9dc)" style="fill: #cfc1b7; stroke: #cfc1b7; stroke-linejoin: miter"/>
   </g>
   <g id="patch_64">
    <path d="M 152.64 277.2 
L 223.56 277.2 
L 223.56 210.6 
L 152.64 210.6 
z
" clip-path="url(#pbe8cb9c9dc)" style="fill: #7f735c; stroke: #7f735c; stroke-linejoin: miter"/>
   </g>
   <g id="patch_65">
    <path d="M 223.56 277.2 
L 294.48 277.2 
L 294.48 210.6 
L 223.56 210.6 
z
" clip-path="url(#pbe8cb9c9dc)" style="fill: #d3c6b9; stroke: #d3c6b9; stroke-linejoin: miter"/>
   </g>
   <g id="patch_66">
    <path d="M 294.48 277.2 
L 365.4 277.2 
L 365.4 210.6 
L 294.48 210.6 
z
" clip-path="url(#pbe8cb9c9dc)" style="fill: #d0cfb9; stroke: #d0cfb9; stroke-linejoin: miter"/>
   </g>
   <g id="patch_67">
    <path d="M 365.4 277.2 
L 436.32 277.2 
L 436.32 210.6 
L 365.4 210.6 
z
" clip-path="url(#pbe8cb9c9dc)" style="fill: #433d35; stroke: #433d35; stroke-linejoin: miter"/>
   </g>
   <g id="patch_68">
    <path d="M 436.32 277.2 
L 507.24 277.2 
L 507.24 210.6 
L 436.32 210.6 
z
" clip-path="url(#pbe8cb9c9dc)" style="fill: #4b4030; stroke: #4b4030; stroke-linejoin: miter"/>
   </g>
   <g id="patch_69">
    <path d="M 507.24 277.2 
L 578.16 277.2 
L 578.16 210.6 
L 507.24 210.6 
z
" clip-path="url(#pbe8cb9c9dc)" style="fill: #433f37; stroke: #433f37; stroke-linejoin: miter"/>
   </g>
   <g id="patch_70">
    <path d="M 578.16 277.2 
L 649.08 277.2 
L 649.08 210.6 
L 578.16 210.6 
z
" clip-path="url(#pbe8cb9c9dc)" style="fill: #473f35; stroke: #473f35; stroke-linejoin: miter"/>
   </g>
   <g id="patch_71">
    <path d="M 649.08 277.2 
L 720 277.2 
L 720 210.6 
L 649.08 210.6 
z
" clip-path="url(#pbe8cb9c9dc)" style="fill: #473f35; stroke: #473f35; stroke-linejoin: miter"/>
   </g>
   <g id="patch_72">
    <path d="M 720 277.2 
L 790.92 277.2 
L 790.92 210.6 
L 720 210.6 
z
" clip-path="url(#pbe8cb9c9dc)" style="fill: #35332a; stroke: #35332a; stroke-linejoin: miter"/>
   </g>
   <g id="patch_73">
    <path d="M 790.92 277.2 
L 861.84 277.2 
L 861.84 210.6 
L 790.92 210.6 
z
" clip-path="url(#pbe8cb9c9dc)" style="fill: #e2d6c9; stroke: #e2d6c9; stroke-linejoin: miter"/>
   </g>
   <g id="patch_74">
    <path d="M 861.84 277.2 
L 932.76 277.2 
L 932.76 210.6 
L 861.84 210.6 
z
" clip-path="url(#pbe8cb9c9dc)" style="fill: #9d865e; stroke: #9d865e; stroke-linejoin: miter"/>
   </g>
   <g id="patch_75">
    <path d="M 932.76 277.2 
L 1003.68 277.2 
L 1003.68 210.6 
L 932.76 210.6 
z
" clip-path="url(#pbe8cb9c9dc)" style="fill: #483e33; stroke: #483e33; stroke-linejoin: miter"/>
   </g>
   <g id="patch_76">
    <path d="M 1003.68 277.2 
L 1074.6 277.2 
L 1074.6 210.6 
L 1003.68 210.6 
z
" clip-path="url(#pbe8cb9c9dc)" style="fill: #c7ae90; stroke: #c7ae90; stroke-linejoin: miter"/>
   </g>
   <g id="patch_77">
    <path d="M 1074.6 277.2 
L 1145.52 277.2 
L 1145.52 210.6 
L 1074.6 210.6 
z
" clip-path="url(#pbe8cb9c9dc)" style="fill: #81654b; stroke: #81654b; stroke-linejoin: miter"/>
   </g>
   <g id="patch_78">
    <path d="M 1145.52 277.2 
L 1216.44 277.2 
L 1216.44 210.6 
L 1145.52 210.6 
z
" clip-path="url(#pbe8cb9c9dc)" style="fill: #b79773; stroke: #b79773; stroke-linejoin: miter"/>
   </g>
   <g id="patch_79">
    <path d="M 1216.44 277.2 
L 1287.36 277.2 
L 1287.36 210.6 
L 1216.44 210.6 
z
" clip-path="url(#pbe8cb9c9dc)" style="fill: #bca995; stroke: #bca995; stroke-linejoin: miter"/>
   </g>
  </g>
 </g>
 <defs>
  <clipPath id="pbe8cb9c9dc">
   <rect x="10.8" y="10.8" width="1418.4" height="266.4"/>
  </clipPath>
 </defs>
</svg>
