<?xml version="1.0" encoding="utf-8" standalone="no"?>
<!DOCTYPE svg PUBLIC "-//W3C//DTD SVG 1.1//EN"
  "http://www.w3.org/Graphics/SVG/1.1/DTD/svg11.dtd">
<svg xmlns:xlink="http://www.w3.org/1999/xlink" width="1440pt" height="144pt" viewBox="0 0 1440 144" xmlns="http://www.w3.org/2000/svg" version="1.1">
 <metadata>
  <rdf:RDF xmlns:dc="http://purl.org/dc/elements/1.1/" xmlns:cc="http://creativecommons.org/ns#" xmlns:rdf="http://www.w3.org/1999/02/22-rdf-syntax-ns#">
   <cc:Work>
    <dc:type rdf:resource="http://purl.org/dc/dcmitype/StillImage"/>
    <dc:date>2025-05-04T17:21:05.701499</dc:date>
    <dc:format>image/svg+xml</dc:format>
    <dc:creator>
     <cc:Agent>
      <dc:title>Matplotlib v3.9.2, https://matplotlib.org/</dc:title>
     </cc:Agent>
    </dc:creator>
   </cc:Work>
  </rdf:RDF>
 </metadata>
 <defs>
  <style type="text/css">*{stroke-linejoin: round; stroke-linecap: butt}</style>
 </defs>
 <g id="figure_1">
  <g id="patch_1">
   <path d="M 0 144 
L 1440 144 
L 1440 0 
L 0 0 
z
" style="fill: #ffffff"/>
  </g>
  <g id="axes_1">
   <g id="patch_2">
    <path d="M 10.8 72 
L 81.72 72 
L 81.72 10.8 
L 10.8 10.8 
z
" clip-path="url(#pff85e61d26)" style="fill: #37332f; stroke: #37332f; stroke-linejoin: miter"/>
   </g>
   <g id="patch_3">
    <path d="M 81.72 72 
L 152.64 72 
L 152.64 10.8 
L 81.72 10.8 
z
" clip-path="url(#pff85e61d26)" style="fill: #a99a85; stroke: #a99a85; stroke-linejoin: miter"/>
   </g>
   <g id="patch_4">
    <path d="M 152.64 72 
L 223.56 72 
L 223.56 10.8 
L 152.64 10.8 
z
" clip-path="url(#pff85e61d26)" style="fill: #3a3f35; stroke: #3a3f35; stroke-linejoin: miter"/>
   </g>
   <g id="patch_5">
    <path d="M 223.56 72 
L 294.48 72 
L 294.48 10.8 
L 223.56 10.8 
z
" clip-path="url(#pff85e61d26)" style="fill: #ccc0b7; stroke: #ccc0b7; stroke-linejoin: miter"/>
   </g>
   <g id="patch_6">
    <path d="M 294.48 72 
L 365.4 72 
L 365.4 10.8 
L 294.48 10.8 
z
" clip-path="url(#pff85e61d26)" style="fill: #b2977e; stroke: #b2977e; stroke-linejoin: miter"/>
   </g>
   <g id="patch_7">
    <path d="M 365.4 72 
L 436.32 72 
L 436.32 10.8 
L 365.4 10.8 
z
" clip-path="url(#pff85e61d26)" style="fill: #a29382; stroke: #a29382; stroke-linejoin: miter"/>
   </g>
   <g id="patch_8">
    <path d="M 436.32 72 
L 507.24 72 
L 507.24 10.8 
L 436.32 10.8 
z
" clip-path="url(#pff85e61d26)" style="fill: #c8bec0; stroke: #c8bec0; stroke-linejoin: miter"/>
   </g>
   <g id="patch_9">
    <path d="M 507.24 72 
L 578.16 72 
L 578.16 10.8 
L 507.24 10.8 
z
" clip-path="url(#pff85e61d26)" style="fill: #c6c2b3; stroke: #c6c2b3; stroke-linejoin: miter"/>
   </g>
   <g id="patch_10">
    <path d="M 578.16 72 
L 649.08 72 
L 649.08 10.8 
L 578.16 10.8 
z
" clip-path="url(#pff85e61d26)" style="fill: #e0d7ce; stroke: #e0d7ce; stroke-linejoin: miter"/>
   </g>
   <g id="patch_11">
    <path d="M 649.08 72 
L 720 72 
L 720 10.8 
L 649.08 10.8 
z
" clip-path="url(#pff85e61d26)" style="fill: #e0d7ce; stroke: #e0d7ce; stroke-linejoin: miter"/>
   </g>
   <g id="patch_12">
    <path d="M 720 72 
L 790.92 72 
L 790.92 10.8 
L 720 10.8 
z
" clip-path="url(#pff85e61d26)" style="fill: #a58165; stroke: #a58165; stroke-linejoin: miter"/>
   </g>
   <g id="patch_13">
    <path d="M 790.92 72 
L 861.84 72 
L 861.84 10.8 
L 790.92 10.8 
z
" clip-path="url(#pff85e61d26)" style="fill: #3e3430; stroke: #3e3430; stroke-linejoin: miter"/>
   </g>
   <g id="patch_14">
    <path d="M 861.84 72 
L 932.76 72 
L 932.76 10.8 
L 861.84 10.8 
z
" clip-path="url(#pff85e61d26)" style="fill: #b5ada1; stroke: #b5ada1; stroke-linejoin: miter"/>
   </g>
   <g id="patch_15">
    <path d="M 932.76 72 
L 1003.68 72 
L 1003.68 10.8 
L 932.76 10.8 
z
" clip-path="url(#pff85e61d26)" style="fill: #c3af9d; stroke: #c3af9d; stroke-linejoin: miter"/>
   </g>
   <g id="patch_16">
    <path d="M 1003.68 72 
L 1074.6 72 
L 1074.6 10.8 
L 1003.68 10.8 
z
" clip-path="url(#pff85e61d26)" style="fill: #2e2d3c; stroke: #2e2d3c; stroke-linejoin: miter"/>
   </g>
   <g id="patch_17">
    <path d="M 1074.6 72 
L 1145.52 72 
L 1145.52 10.8 
L 1074.6 10.8 
z
" clip-path="url(#pff85e61d26)" style="fill: #242223; stroke: #242223; stroke-linejoin: miter"/>
   </g>
   <g id="patch_18">
    <path d="M 1145.52 72 
L 1216.44 72 
L 1216.44 10.8 
L 1145.52 10.8 
z
" clip-path="url(#pff85e61d26)" style="fill: #716155; stroke: #716155; stroke-linejoin: miter"/>
   </g>
   <g id="patch_19">
    <path d="M 1216.44 72 
L 1287.36 72 
L 1287.36 10.8 
L 1216.44 10.8 
z
" clip-path="url(#pff85e61d26)" style="fill: #dddad3; stroke: #dddad3; stroke-linejoin: miter"/>
   </g>
   <g id="patch_20">
    <path d="M 1287.36 72 
L 1358.28 72 
L 1358.28 10.8 
L 1287.36 10.8 
z
" clip-path="url(#pff85e61d26)" style="fill: #8e4b3d; stroke: #8e4b3d; stroke-linejoin: miter"/>
   </g>
   <g id="patch_21">
    <path d="M 1358.28 72 
L 1429.2 72 
L 1429.2 10.8 
L 1358.28 10.8 
z
" clip-path="url(#pff85e61d26)" style="fill: #8e4b3d; stroke: #8e4b3d; stroke-linejoin: miter"/>
   </g>
   <g id="patch_22">
    <path d="M 10.8 133.2 
L 81.72 133.2 
L 81.72 72 
L 10.8 72 
z
" clip-path="url(#pff85e61d26)" style="fill: #403730; stroke: #403730; stroke-linejoin: miter"/>
   </g>
   <g id="patch_23">
    <path d="M 81.72 133.2 
L 152.64 133.2 
L 152.64 72 
L 81.72 72 
z
" clip-path="url(#pff85e61d26)" style="fill: #cacfc2; stroke: #cacfc2; stroke-linejoin: miter"/>
   </g>
  </g>
 </g>
 <defs>
  <clipPath id="pff85e61d26">
   <rect x="10.8" y="10.8" width="1418.4" height="122.4"/>
  </clipPath>
 </defs>
</svg>
