<?xml version="1.0" encoding="UTF-8"?>
<svg xmlns="http://www.w3.org/2000/svg" version="1.1" viewBox="0 0 730.2 487.8">
  <defs>
    <style>
      .cls-1 {
        fill: #34302a;
      }

      .cls-1, .cls-2, .cls-3, .cls-4, .cls-5, .cls-6, .cls-7, .cls-8, .cls-9, .cls-10, .cls-11, .cls-12, .cls-13, .cls-14, .cls-15, .cls-16, .cls-17, .cls-18, .cls-19, .cls-20, .cls-21, .cls-22, .cls-23, .cls-24, .cls-25, .cls-26, .cls-27, .cls-28, .cls-29, .cls-30, .cls-31, .cls-32, .cls-33, .cls-34, .cls-35, .cls-36, .cls-37, .cls-38, .cls-39, .cls-40, .cls-41, .cls-42, .cls-43, .cls-44, .cls-45, .cls-46, .cls-47, .cls-48, .cls-49, .cls-50, .cls-51, .cls-52, .cls-53, .cls-54, .cls-55 {
        stroke: #fff;
        stroke-width: 4px;
      }

      .cls-2 {
        fill: #d1c2b5;
      }

      .cls-3 {
        fill: #c9b9ad;
      }

      .cls-4 {
        fill: #ac9576;
      }

      .cls-5 {
        fill: #736758;
      }

      .cls-6 {
        fill: #382e26;
      }

      .cls-7 {
        fill: #303131;
      }

      .cls-8 {
        fill: #a99780;
      }

      .cls-9 {
        fill: #bdb1a4;
      }

      .cls-10 {
        fill: #d1c2b3;
      }

      .cls-11 {
        fill: #41342b;
      }

      .cls-12 {
        fill: #342e25;
      }

      .cls-13 {
        fill: #ccbdb5;
      }

      .cls-14 {
        fill: #28241f;
      }

      .cls-15 {
        fill: #bcada7;
      }

      .cls-16 {
        fill: #846b51;
      }

      .cls-17 {
        fill: #b6aaa0;
      }

      .cls-18 {
        fill: #ccc3ba;
      }

      .cls-19 {
        fill: #b9a87e;
      }

      .cls-20 {
        fill: #71654e;
      }

      .cls-21 {
        fill: #cec2bc;
      }

      .cls-22 {
        fill: #c9b8ab;
      }

      .cls-23 {
        fill: #463d33;
      }

      .cls-24 {
        fill: #ad9b81;
      }

      .cls-25 {
        fill: #b7aca1;
      }

      .cls-26 {
        fill: #b3a79b;
      }

      .cls-27 {
        fill: #cfbeb0;
      }

      .cls-28 {
        fill: #362621;
      }

      .cls-29 {
        fill: #bda489;
      }

      .cls-30 {
        fill: #413730;
      }

      .cls-31 {
        fill: #c1bcb0;
      }

      .cls-32 {
        fill: #ccbab1;
      }

      .cls-33 {
        fill: #2f2b21;
      }

      .cls-34 {
        fill: #c0b29f;
      }

      .cls-35 {
        fill: #3f3126;
      }

      .cls-36 {
        fill: #e3e0de;
      }

      .cls-37 {
        fill: #2f2f2c;
      }

      .cls-38 {
        fill: #cbc0b1;
      }

      .cls-39 {
        fill: #a28669;
      }

      .cls-40 {
        fill: #beb6ab;
      }

      .cls-41 {
        fill: #dad5ca;
      }

      .cls-42 {
        fill: #1b1410;
      }

      .cls-43 {
        fill: #c5bdb1;
      }

      .cls-44 {
        fill: #454337;
      }

      .cls-45 {
        fill: #37322b;
      }

      .cls-46 {
        fill: #b1aaaf;
      }

      .cls-47 {
        fill: #795656;
      }

      .cls-48 {
        fill: #7f614e;
      }

      .cls-49 {
        fill: #3f3e3f;
      }

      .cls-50 {
        fill: #bda19b;
      }

      .cls-51 {
        fill: #2a3034;
      }

      .cls-52 {
        fill: #9f896d;
      }

      .cls-53 {
        fill: #bdb0a4;
      }

      .cls-54 {
        fill: #977d6b;
      }

      .cls-55 {
        fill: #887865;
      }
    </style>
  </defs>
  <!-- Generator: Adobe Illustrator 28.7.7, SVG Export Plug-In . SVG Version: 1.2.0 Build 194)  -->
  <g>
    <g id="Layer_1">
      <path class="cls-3" d="M10.8,77.4h70.9V10.8H10.8v66.6Z"/>
      <path class="cls-3" d="M81.7,77.4h70.9V10.8h-70.9s0,66.6,0,66.6Z"/>
      <path class="cls-3" d="M152.6,77.4h70.9V10.8h-70.9v66.6Z"/>
      <path class="cls-39" d="M223.6,77.4h70.9V10.8h-70.9v66.6Z"/>
      <path class="cls-7" d="M294.5,77.4h70.9V10.8h-70.9v66.6Z"/>
      <path class="cls-42" d="M365.4,77.4h70.9V10.8h-70.9v66.6Z"/>
      <path class="cls-44" d="M436.3,77.4h70.9V10.8h-70.9v66.6Z"/>
      <path class="cls-30" d="M507.2,77.4h70.9V10.8h-70.9v66.6h0Z"/>
      <path class="cls-30" d="M578.2,77.4h70.9V10.8h-70.9v66.6Z"/>
      <path class="cls-30" d="M649.1,77.4h70.9V10.8h-70.9v66.6Z"/>
      <path class="cls-29" d="M10.8,343.8h70.9v-66.6H10.8v66.6Z"/>
      <path class="cls-1" d="M81.7,343.8h70.9v-66.6h-70.9v66.6Z"/>
      <path class="cls-13" d="M152.6,343.8h70.9v-66.6h-70.9v66.6Z"/>
      <path class="cls-18" d="M223.6,343.8h70.9v-66.6h-70.9v66.6Z"/>
      <path class="cls-14" d="M294.5,343.8h70.9v-66.6h-70.9v66.6h0Z"/>
      <path class="cls-2" d="M365.4,343.8h70.9v-66.6h-70.9v66.6Z"/>
      <path class="cls-19" d="M436.3,343.8h70.9v-66.6h-70.9v66.6Z"/>
      <path class="cls-37" d="M507.2,343.8h70.9v-66.6h-70.9v66.6Z"/>
      <path class="cls-37" d="M578.2,343.8h70.9v-66.6h-70.9v66.6Z"/>
      <path class="cls-24" d="M649.1,343.8h70.9v-66.6h-70.9v66.6Z"/>
      <path class="cls-8" d="M10.8,144h70.9v-66.6H10.8v66.6Z"/>
      <path class="cls-35" d="M81.7,144h70.9v-66.6h-70.9s0,66.6,0,66.6Z"/>
      <path class="cls-53" d="M152.6,144h70.9v-66.6h-70.9v66.6Z"/>
      <path class="cls-53" d="M223.6,144h70.9v-66.6h-70.9v66.6Z"/>
      <path class="cls-26" d="M294.5,144h70.9v-66.6h-70.9v66.6Z"/>
      <path class="cls-28" d="M365.4,144h70.9v-66.6h-70.9v66.6Z"/>
      <path class="cls-51" d="M436.3,144h70.9v-66.6h-70.9v66.6Z"/>
      <path class="cls-15" d="M507.2,144h70.9v-66.6h-70.9v66.6h0Z"/>
      <path class="cls-17" d="M578.2,144h70.9v-66.6h-70.9v66.6Z"/>
      <path class="cls-40" d="M649.1,144h70.9v-66.6h-70.9v66.6Z"/>
      <path class="cls-22" d="M10.8,410.4h70.9v-66.6H10.8v66.6Z"/>
      <path class="cls-47" d="M81.7,410.4h70.9v-66.6h-70.9v66.6Z"/>
      <path class="cls-48" d="M152.6,410.4h70.9v-66.6h-70.9v66.6Z"/>
      <path class="cls-36" d="M223.6,410.4h70.9v-66.6h-70.9v66.6Z"/>
      <path class="cls-10" d="M294.5,410.4h70.9v-66.6h-70.9v66.6h0Z"/>
      <path class="cls-41" d="M365.4,410.4h70.9v-66.6h-70.9v66.6Z"/>
      <path class="cls-43" d="M436.3,410.4h70.9v-66.6h-70.9v66.6Z"/>
      <path class="cls-33" d="M507.2,410.4h70.9v-66.6h-70.9v66.6Z"/>
      <path class="cls-38" d="M578.2,410.4h70.9v-66.6h-70.9v66.6Z"/>
      <path class="cls-25" d="M649.1,410.4h70.9v-66.6h-70.9v66.6Z"/>
      <path class="cls-49" d="M10.8,210.6h70.9v-66.6H10.8v66.6Z"/>
      <path class="cls-50" d="M81.7,210.6h70.9v-66.6h-70.9s0,66.6,0,66.6Z"/>
      <path class="cls-11" d="M152.6,210.6h70.9v-66.6h-70.9v66.6Z"/>
      <path class="cls-21" d="M223.6,210.6h70.9v-66.6h-70.9v66.6Z"/>
      <path class="cls-23" d="M294.5,210.6h70.9v-66.6h-70.9v66.6Z"/>
      <path class="cls-31" d="M365.4,210.6h70.9v-66.6h-70.9v66.6Z"/>
      <path class="cls-6" d="M436.3,210.6h70.9v-66.6h-70.9v66.6Z"/>
      <path class="cls-9" d="M507.2,210.6h70.9v-66.6h-70.9v66.6h0Z"/>
      <path class="cls-12" d="M578.2,210.6h70.9v-66.6h-70.9v66.6Z"/>
      <path class="cls-54" d="M649.1,210.6h70.9v-66.6h-70.9v66.6Z"/>
      <path class="cls-52" d="M10.8,477h70.9v-66.6H10.8v66.6Z"/>
      <path class="cls-32" d="M81.7,477h70.9v-66.6h-70.9v66.6Z"/>
      <path class="cls-5" d="M152.6,477h70.9v-66.6h-70.9v66.6Z"/>
      <path class="cls-5" d="M223.6,477h70.9v-66.6h-70.9v66.6Z"/>
      <path class="cls-5" d="M294.5,477h70.9v-66.6h-70.9v66.6h0Z"/>
      <path class="cls-5" d="M365.4,477h70.9v-66.6h-70.9v66.6Z"/>
      <path class="cls-5" d="M436.3,477h70.9v-66.6h-70.9v66.6Z"/>
      <path class="cls-5" d="M507.2,477h70.9v-66.6h-70.9v66.6Z"/>
      <path class="cls-5" d="M578.2,477h70.9v-66.6h-70.9v66.6Z"/>
      <path class="cls-5" d="M649.1,477h70.9v-66.6h-70.9v66.6Z"/>
      <path class="cls-27" d="M10.8,277.2h70.9v-66.6H10.8v66.6Z"/>
      <path class="cls-16" d="M81.7,277.2h70.9v-66.6h-70.9s0,66.6,0,66.6Z"/>
      <path class="cls-16" d="M152.6,277.2h70.9v-66.6h-70.9v66.6Z"/>
      <path class="cls-16" d="M223.6,277.2h70.9v-66.6h-70.9v66.6Z"/>
      <path class="cls-55" d="M294.5,277.2h70.9v-66.6h-70.9v66.6Z"/>
      <path class="cls-4" d="M365.4,277.2h70.9v-66.6h-70.9v66.6Z"/>
      <path class="cls-45" d="M436.3,277.2h70.9v-66.6h-70.9v66.6Z"/>
      <path class="cls-46" d="M507.2,277.2h70.9v-66.6h-70.9v66.6h0Z"/>
      <path class="cls-34" d="M578.2,277.2h70.9v-66.6h-70.9v66.6Z"/>
      <path class="cls-20" d="M649.1,277.2h70.9v-66.6h-70.9v66.6Z"/>
    </g>
  </g>
</svg>